%
M48
M72
T01C0.01181
T02C0.02756
T03C0.03150
T04C0.03200
T05C0.03543
T06C0.03937
T07C0.04000
T08C0.04331
T09C0.08661
T10C0.11024
T11C0.12598
%
T01
X34250Y47250
X40250Y49250
X45250Y52250
X54250Y65250
X65250Y54250
X65250Y35250
X48250Y33250
X40250Y21250
X84250Y10250
X97250Y31250
X100250Y47250
X93250Y70250
X93250Y88250
X96250Y102250
X101250Y105250
X109250Y117250
X109250Y132250
X102250Y145250
X99250Y140250
X96250Y142250
X96250Y147250
X100250Y151250
X109250Y160250
X119250Y166250
X106250Y181250
X102250Y185250
X92250Y185250
X76250Y160250
X76250Y142250
X80250Y127250
X94250Y127250
X65250Y132250
X64250Y137250
X54250Y133250
X53250Y113250
X35250Y114250
X32250Y98250
X15250Y131250
X7250Y119250
X20250Y158250
X17250Y162250
X13250Y211250
X35250Y245250
X43250Y219250
X43250Y209250
X57250Y220250
X61250Y220250
X59250Y226250
X65250Y228250
X72250Y226250
X75250Y234250
X71250Y251250
X80250Y264250
X90250Y262250
X96250Y268250
X103250Y240250
X100250Y238250
X91250Y237250
X91250Y224250
X106250Y219250
X113250Y232250
X110250Y239250
X115250Y249250
X127250Y233250
X133250Y223250
X139250Y225250
X156250Y224250
X169250Y199250
X161250Y190250
X153250Y176250
X136250Y162250
X126250Y190250
X119250Y196250
X164250Y253250
X174250Y184250
X177250Y177250
X180250Y184250
X160250Y123250
X157250Y114250
X154250Y109250
X170250Y96250
X178250Y58250
X138250Y99250
X106250Y74250
X136250Y26250
X130250Y20250
X130250Y12250
X111250Y15250
X66250Y213250
T02
X83927Y233533
X83927Y241407
X83927Y249281
X83927Y257156
X162667Y72116
X162667Y64242
X162667Y56368
X162667Y40620
X162667Y32746
X56368Y44557
X56368Y52431
X19163Y48494
X19163Y40620
X19163Y56368
T03
X32746Y127982
X32746Y137982
X32746Y147982
X32746Y157982
X20935Y152982
X20935Y142982
X20935Y132982
X44557Y132982
X44557Y142982
X44557Y152982
X56368Y147982
X56368Y137982
X56368Y127982
X56368Y157982
T04
X86250Y161250
X86250Y171250
X86250Y181250
X86250Y191250
X86250Y201250
X96250Y211250
X106250Y211250
X116250Y201250
X116250Y191250
X116250Y181250
X116250Y171250
X116250Y161250
X116250Y151250
X116250Y141250
X116250Y131250
X116250Y121250
X116250Y111250
X116250Y101250
X116250Y91250
X116250Y81250
X116250Y71250
X116250Y56250
X116250Y46250
X116250Y36250
X116250Y26250
X116250Y16250
X106250Y16250
X96250Y16250
X86250Y26250
X86250Y36250
X86250Y46250
X86250Y56250
X86250Y71250
X86250Y81250
X86250Y91250
X86250Y101250
X86250Y111250
X86250Y121250
X86250Y131250
X86250Y141250
X86250Y151250
X106250Y226250
X116250Y226250
X126250Y226250
X146250Y226250
X146250Y236250
X146250Y246250
X146250Y256250
X126250Y256250
X126250Y271250
X106250Y271250
X106250Y256250
X86250Y271250
X66250Y271250
X146250Y216250
X146250Y206250
X146250Y196250
X146250Y186250
X156250Y181250
X166250Y181250
X176250Y196250
X176250Y206250
X176250Y216250
X176250Y226250
X176250Y236250
X176250Y246250
X176250Y256250
X146250Y166250
X146250Y156250
X146250Y136250
X146250Y66250
X146250Y46250
X146250Y36250
X146250Y16250
X136250Y16250
X71250Y26250
X61250Y26250
T05
X56250Y16250
X86250Y16250
T06
X71250Y36250
X131250Y36250
X131250Y216250
X71250Y216250
T07
X46250Y236250
X46250Y246250
X46250Y256250
X46250Y266250
X26250Y256250
X26250Y246250
X26250Y236250
X146250Y126250
X146250Y116250
X146250Y106250
X146250Y96250
X146250Y86250
X146250Y76250
X161250Y141250
X161250Y151250
X161250Y161250
X171250Y161250
X171250Y151250
X171250Y141250
T08
X131250Y136250
X131250Y126250
X131250Y116250
X131250Y106250
X131250Y96250
X131250Y86250
X131250Y76250
X131250Y66250
X131250Y56250
X131250Y46250
X71250Y46250
X71250Y56250
X71250Y66250
X71250Y76250
X71250Y86250
X71250Y96250
X71250Y106250
X71250Y116250
X71250Y126250
X71250Y136250
X71250Y146250
X71250Y156250
X71250Y166250
X71250Y176250
X71250Y186250
X71250Y196250
X71250Y206250
X131250Y206250
X131250Y196250
X131250Y186250
X131250Y176250
X131250Y166250
X131250Y156250
X131250Y146250
T09
X44557Y174360
X20935Y174360
X20935Y111604
X44557Y111604
T10
X32746Y85896
X32746Y200069
T11
X13061Y13061
X54006Y85896
X54006Y200069
X13061Y272904
X174478Y272904
X174478Y13061
M30
