%
M48
M72
T01C0.01181
T02C0.02000
T03C0.02756
T04C0.03150
T05C0.03200
T06C0.03543
T07C0.03937
T08C0.04000
T09C0.04331
T10C0.08661
T11C0.11024
T12C0.12598
%
T01
X56250Y22250
X66250Y13250
X81250Y16250
X96250Y20250
X110250Y15250
X109250Y6250
X113250Y31250
X119250Y31250
X125250Y31250
X122250Y40250
X114250Y48250
X99250Y50250
X72250Y67250
X66250Y69250
X60250Y75250
X56250Y76250
X60250Y96250
X69250Y98250
X66250Y109250
X75250Y122250
X99250Y116250
X103250Y100250
X115250Y108250
X119250Y138250
X112250Y151250
X119250Y184250
X108250Y192250
X89250Y215250
X96250Y225250
X88250Y228250
X81250Y228250
X82250Y238250
X83250Y242250
X85250Y248250
X73250Y226250
X70250Y230250
X70250Y234250
X69250Y240250
X44250Y215250
X38250Y213250
X37250Y184250
X61250Y184250
X63250Y181250
X62250Y177250
X70250Y160250
X12250Y145250
X61250Y56250
X130250Y15250
X154250Y9250
X177250Y44250
X171250Y137250
X147250Y172250
X136250Y212250
X130250Y238250
X133250Y240250
X110250Y266250
T02
X156250Y111250
X156250Y106250
X156250Y101250
X156250Y96250
X156250Y91250
X156250Y86250
T03
X162667Y127234
X162667Y135108
X162667Y150856
X162667Y158730
X162667Y166604
X99675Y229596
X99675Y237470
X99675Y245344
X99675Y253219
X68179Y60305
X68179Y52431
X68179Y36683
X68179Y28809
X68179Y20935
T04
X56368Y127982
X56368Y137982
X56368Y147982
X56368Y157982
X44557Y152982
X44557Y142982
X44557Y132982
X32746Y127982
X32746Y137982
X32746Y147982
X32746Y157982
X20935Y152982
X20935Y142982
X20935Y132982
T05
X81250Y26250
X91250Y26250
X96250Y36250
X96250Y46250
X96250Y56250
X96250Y66250
X96250Y81250
X96250Y91250
X96250Y101250
X96250Y111250
X96250Y121250
X96250Y131250
X96250Y141250
X96250Y151250
X96250Y161250
X96250Y171250
X96250Y181250
X96250Y191250
X96250Y201250
X96250Y211250
X116250Y226250
X126250Y226250
X136250Y226250
X146250Y226250
X156250Y226250
X166250Y226250
X176250Y226250
X176998Y213691
X176250Y201250
X166250Y201250
X166998Y213691
X156250Y201250
X156250Y181250
X166250Y181250
X176250Y181250
X126250Y181250
X126250Y191250
X126250Y201250
X126250Y211250
X126250Y171250
X126250Y161250
X126250Y151250
X126250Y141250
X126250Y131250
X126250Y121250
X126250Y111250
X126250Y101250
X126250Y91250
X126250Y81250
X126250Y66250
X126250Y56250
X126250Y46250
X126250Y36250
X131250Y26250
X141250Y26250
X156250Y31250
X166250Y31250
X176250Y31250
X176250Y51250
X166250Y51250
X156250Y51250
X156250Y256250
X146250Y256250
X136250Y256250
X126250Y256250
X116250Y256250
X166250Y256250
X176250Y256250
T06
X171250Y91250
X171250Y61250
T07
X141250Y36250
X81250Y36250
X81250Y216250
X141250Y216250
T08
X136250Y271250
X126250Y271250
X116250Y271250
X146250Y271250
X156250Y271250
X171250Y111250
X171250Y101250
T09
X141250Y96250
X141250Y86250
X141250Y76250
X141250Y66250
X141250Y56250
X141250Y46250
X141250Y106250
X141250Y116250
X141250Y126250
X141250Y136250
X141250Y146250
X141250Y156250
X141250Y166250
X141250Y176250
X141250Y186250
X141250Y196250
X141250Y206250
X81250Y206250
X81250Y196250
X81250Y186250
X81250Y176250
X81250Y166250
X81250Y156250
X81250Y146250
X81250Y136250
X81250Y126250
X81250Y116250
X81250Y106250
X81250Y96250
X81250Y86250
X81250Y76250
X81250Y66250
X81250Y56250
X81250Y46250
T10
X44557Y111604
X20935Y111604
X20935Y174360
X44557Y174360
T11
X32746Y200069
X32746Y85896
T12
X13061Y13061
X54006Y85896
X54006Y200069
X13061Y272904
X174478Y272904
X174478Y13061
M30
