G75*
%MOIN*%
%OFA0B0*%
%FSLAX25Y25*%
%IPPOS*%
%LPD*%
%AMOC8*
5,1,8,0,0,1.08239X$1,22.5*
%
%ADD10C,0.00000*%
D10*
X0001321Y0001250D02*
X0001321Y0284715D01*
X0186361Y0284715D01*
X0186361Y0001250D01*
X0001321Y0001250D01*
X0006833Y0013061D02*
X0006835Y0013219D01*
X0006841Y0013377D01*
X0006851Y0013535D01*
X0006865Y0013693D01*
X0006883Y0013850D01*
X0006904Y0014007D01*
X0006930Y0014163D01*
X0006960Y0014319D01*
X0006993Y0014474D01*
X0007031Y0014627D01*
X0007072Y0014780D01*
X0007117Y0014932D01*
X0007166Y0015083D01*
X0007219Y0015232D01*
X0007275Y0015380D01*
X0007335Y0015526D01*
X0007399Y0015671D01*
X0007467Y0015814D01*
X0007538Y0015956D01*
X0007612Y0016096D01*
X0007690Y0016233D01*
X0007772Y0016369D01*
X0007856Y0016503D01*
X0007945Y0016634D01*
X0008036Y0016763D01*
X0008131Y0016890D01*
X0008228Y0017015D01*
X0008329Y0017137D01*
X0008433Y0017256D01*
X0008540Y0017373D01*
X0008650Y0017487D01*
X0008763Y0017598D01*
X0008878Y0017707D01*
X0008996Y0017812D01*
X0009117Y0017914D01*
X0009240Y0018014D01*
X0009366Y0018110D01*
X0009494Y0018203D01*
X0009624Y0018293D01*
X0009757Y0018379D01*
X0009892Y0018463D01*
X0010028Y0018542D01*
X0010167Y0018619D01*
X0010308Y0018691D01*
X0010450Y0018761D01*
X0010594Y0018826D01*
X0010740Y0018888D01*
X0010887Y0018946D01*
X0011036Y0019001D01*
X0011186Y0019052D01*
X0011337Y0019099D01*
X0011489Y0019142D01*
X0011642Y0019181D01*
X0011797Y0019217D01*
X0011952Y0019248D01*
X0012108Y0019276D01*
X0012264Y0019300D01*
X0012421Y0019320D01*
X0012579Y0019336D01*
X0012736Y0019348D01*
X0012895Y0019356D01*
X0013053Y0019360D01*
X0013211Y0019360D01*
X0013369Y0019356D01*
X0013528Y0019348D01*
X0013685Y0019336D01*
X0013843Y0019320D01*
X0014000Y0019300D01*
X0014156Y0019276D01*
X0014312Y0019248D01*
X0014467Y0019217D01*
X0014622Y0019181D01*
X0014775Y0019142D01*
X0014927Y0019099D01*
X0015078Y0019052D01*
X0015228Y0019001D01*
X0015377Y0018946D01*
X0015524Y0018888D01*
X0015670Y0018826D01*
X0015814Y0018761D01*
X0015956Y0018691D01*
X0016097Y0018619D01*
X0016236Y0018542D01*
X0016372Y0018463D01*
X0016507Y0018379D01*
X0016640Y0018293D01*
X0016770Y0018203D01*
X0016898Y0018110D01*
X0017024Y0018014D01*
X0017147Y0017914D01*
X0017268Y0017812D01*
X0017386Y0017707D01*
X0017501Y0017598D01*
X0017614Y0017487D01*
X0017724Y0017373D01*
X0017831Y0017256D01*
X0017935Y0017137D01*
X0018036Y0017015D01*
X0018133Y0016890D01*
X0018228Y0016763D01*
X0018319Y0016634D01*
X0018408Y0016503D01*
X0018492Y0016369D01*
X0018574Y0016233D01*
X0018652Y0016096D01*
X0018726Y0015956D01*
X0018797Y0015814D01*
X0018865Y0015671D01*
X0018929Y0015526D01*
X0018989Y0015380D01*
X0019045Y0015232D01*
X0019098Y0015083D01*
X0019147Y0014932D01*
X0019192Y0014780D01*
X0019233Y0014627D01*
X0019271Y0014474D01*
X0019304Y0014319D01*
X0019334Y0014163D01*
X0019360Y0014007D01*
X0019381Y0013850D01*
X0019399Y0013693D01*
X0019413Y0013535D01*
X0019423Y0013377D01*
X0019429Y0013219D01*
X0019431Y0013061D01*
X0019429Y0012903D01*
X0019423Y0012745D01*
X0019413Y0012587D01*
X0019399Y0012429D01*
X0019381Y0012272D01*
X0019360Y0012115D01*
X0019334Y0011959D01*
X0019304Y0011803D01*
X0019271Y0011648D01*
X0019233Y0011495D01*
X0019192Y0011342D01*
X0019147Y0011190D01*
X0019098Y0011039D01*
X0019045Y0010890D01*
X0018989Y0010742D01*
X0018929Y0010596D01*
X0018865Y0010451D01*
X0018797Y0010308D01*
X0018726Y0010166D01*
X0018652Y0010026D01*
X0018574Y0009889D01*
X0018492Y0009753D01*
X0018408Y0009619D01*
X0018319Y0009488D01*
X0018228Y0009359D01*
X0018133Y0009232D01*
X0018036Y0009107D01*
X0017935Y0008985D01*
X0017831Y0008866D01*
X0017724Y0008749D01*
X0017614Y0008635D01*
X0017501Y0008524D01*
X0017386Y0008415D01*
X0017268Y0008310D01*
X0017147Y0008208D01*
X0017024Y0008108D01*
X0016898Y0008012D01*
X0016770Y0007919D01*
X0016640Y0007829D01*
X0016507Y0007743D01*
X0016372Y0007659D01*
X0016236Y0007580D01*
X0016097Y0007503D01*
X0015956Y0007431D01*
X0015814Y0007361D01*
X0015670Y0007296D01*
X0015524Y0007234D01*
X0015377Y0007176D01*
X0015228Y0007121D01*
X0015078Y0007070D01*
X0014927Y0007023D01*
X0014775Y0006980D01*
X0014622Y0006941D01*
X0014467Y0006905D01*
X0014312Y0006874D01*
X0014156Y0006846D01*
X0014000Y0006822D01*
X0013843Y0006802D01*
X0013685Y0006786D01*
X0013528Y0006774D01*
X0013369Y0006766D01*
X0013211Y0006762D01*
X0013053Y0006762D01*
X0012895Y0006766D01*
X0012736Y0006774D01*
X0012579Y0006786D01*
X0012421Y0006802D01*
X0012264Y0006822D01*
X0012108Y0006846D01*
X0011952Y0006874D01*
X0011797Y0006905D01*
X0011642Y0006941D01*
X0011489Y0006980D01*
X0011337Y0007023D01*
X0011186Y0007070D01*
X0011036Y0007121D01*
X0010887Y0007176D01*
X0010740Y0007234D01*
X0010594Y0007296D01*
X0010450Y0007361D01*
X0010308Y0007431D01*
X0010167Y0007503D01*
X0010028Y0007580D01*
X0009892Y0007659D01*
X0009757Y0007743D01*
X0009624Y0007829D01*
X0009494Y0007919D01*
X0009366Y0008012D01*
X0009240Y0008108D01*
X0009117Y0008208D01*
X0008996Y0008310D01*
X0008878Y0008415D01*
X0008763Y0008524D01*
X0008650Y0008635D01*
X0008540Y0008749D01*
X0008433Y0008866D01*
X0008329Y0008985D01*
X0008228Y0009107D01*
X0008131Y0009232D01*
X0008036Y0009359D01*
X0007945Y0009488D01*
X0007856Y0009619D01*
X0007772Y0009753D01*
X0007690Y0009889D01*
X0007612Y0010026D01*
X0007538Y0010166D01*
X0007467Y0010308D01*
X0007399Y0010451D01*
X0007335Y0010596D01*
X0007275Y0010742D01*
X0007219Y0010890D01*
X0007166Y0011039D01*
X0007117Y0011190D01*
X0007072Y0011342D01*
X0007031Y0011495D01*
X0006993Y0011648D01*
X0006960Y0011803D01*
X0006930Y0011959D01*
X0006904Y0012115D01*
X0006883Y0012272D01*
X0006865Y0012429D01*
X0006851Y0012587D01*
X0006841Y0012745D01*
X0006835Y0012903D01*
X0006833Y0013061D01*
X0027305Y0085896D02*
X0027307Y0086044D01*
X0027313Y0086192D01*
X0027323Y0086340D01*
X0027337Y0086487D01*
X0027355Y0086634D01*
X0027376Y0086780D01*
X0027402Y0086926D01*
X0027432Y0087071D01*
X0027465Y0087215D01*
X0027503Y0087358D01*
X0027544Y0087500D01*
X0027589Y0087641D01*
X0027637Y0087781D01*
X0027690Y0087920D01*
X0027746Y0088057D01*
X0027806Y0088192D01*
X0027869Y0088326D01*
X0027936Y0088458D01*
X0028007Y0088588D01*
X0028081Y0088716D01*
X0028158Y0088842D01*
X0028239Y0088966D01*
X0028323Y0089088D01*
X0028410Y0089207D01*
X0028501Y0089324D01*
X0028595Y0089439D01*
X0028691Y0089551D01*
X0028791Y0089661D01*
X0028893Y0089767D01*
X0028999Y0089871D01*
X0029107Y0089972D01*
X0029218Y0090070D01*
X0029331Y0090166D01*
X0029447Y0090258D01*
X0029565Y0090347D01*
X0029686Y0090432D01*
X0029809Y0090515D01*
X0029934Y0090594D01*
X0030061Y0090670D01*
X0030190Y0090742D01*
X0030321Y0090811D01*
X0030454Y0090876D01*
X0030589Y0090937D01*
X0030725Y0090995D01*
X0030862Y0091050D01*
X0031001Y0091100D01*
X0031142Y0091147D01*
X0031283Y0091190D01*
X0031426Y0091230D01*
X0031570Y0091265D01*
X0031714Y0091297D01*
X0031860Y0091324D01*
X0032006Y0091348D01*
X0032153Y0091368D01*
X0032300Y0091384D01*
X0032447Y0091396D01*
X0032595Y0091404D01*
X0032743Y0091408D01*
X0032891Y0091408D01*
X0033039Y0091404D01*
X0033187Y0091396D01*
X0033334Y0091384D01*
X0033481Y0091368D01*
X0033628Y0091348D01*
X0033774Y0091324D01*
X0033920Y0091297D01*
X0034064Y0091265D01*
X0034208Y0091230D01*
X0034351Y0091190D01*
X0034492Y0091147D01*
X0034633Y0091100D01*
X0034772Y0091050D01*
X0034909Y0090995D01*
X0035045Y0090937D01*
X0035180Y0090876D01*
X0035313Y0090811D01*
X0035444Y0090742D01*
X0035573Y0090670D01*
X0035700Y0090594D01*
X0035825Y0090515D01*
X0035948Y0090432D01*
X0036069Y0090347D01*
X0036187Y0090258D01*
X0036303Y0090166D01*
X0036416Y0090070D01*
X0036527Y0089972D01*
X0036635Y0089871D01*
X0036741Y0089767D01*
X0036843Y0089661D01*
X0036943Y0089551D01*
X0037039Y0089439D01*
X0037133Y0089324D01*
X0037224Y0089207D01*
X0037311Y0089088D01*
X0037395Y0088966D01*
X0037476Y0088842D01*
X0037553Y0088716D01*
X0037627Y0088588D01*
X0037698Y0088458D01*
X0037765Y0088326D01*
X0037828Y0088192D01*
X0037888Y0088057D01*
X0037944Y0087920D01*
X0037997Y0087781D01*
X0038045Y0087641D01*
X0038090Y0087500D01*
X0038131Y0087358D01*
X0038169Y0087215D01*
X0038202Y0087071D01*
X0038232Y0086926D01*
X0038258Y0086780D01*
X0038279Y0086634D01*
X0038297Y0086487D01*
X0038311Y0086340D01*
X0038321Y0086192D01*
X0038327Y0086044D01*
X0038329Y0085896D01*
X0038327Y0085748D01*
X0038321Y0085600D01*
X0038311Y0085452D01*
X0038297Y0085305D01*
X0038279Y0085158D01*
X0038258Y0085012D01*
X0038232Y0084866D01*
X0038202Y0084721D01*
X0038169Y0084577D01*
X0038131Y0084434D01*
X0038090Y0084292D01*
X0038045Y0084151D01*
X0037997Y0084011D01*
X0037944Y0083872D01*
X0037888Y0083735D01*
X0037828Y0083600D01*
X0037765Y0083466D01*
X0037698Y0083334D01*
X0037627Y0083204D01*
X0037553Y0083076D01*
X0037476Y0082950D01*
X0037395Y0082826D01*
X0037311Y0082704D01*
X0037224Y0082585D01*
X0037133Y0082468D01*
X0037039Y0082353D01*
X0036943Y0082241D01*
X0036843Y0082131D01*
X0036741Y0082025D01*
X0036635Y0081921D01*
X0036527Y0081820D01*
X0036416Y0081722D01*
X0036303Y0081626D01*
X0036187Y0081534D01*
X0036069Y0081445D01*
X0035948Y0081360D01*
X0035825Y0081277D01*
X0035700Y0081198D01*
X0035573Y0081122D01*
X0035444Y0081050D01*
X0035313Y0080981D01*
X0035180Y0080916D01*
X0035045Y0080855D01*
X0034909Y0080797D01*
X0034772Y0080742D01*
X0034633Y0080692D01*
X0034492Y0080645D01*
X0034351Y0080602D01*
X0034208Y0080562D01*
X0034064Y0080527D01*
X0033920Y0080495D01*
X0033774Y0080468D01*
X0033628Y0080444D01*
X0033481Y0080424D01*
X0033334Y0080408D01*
X0033187Y0080396D01*
X0033039Y0080388D01*
X0032891Y0080384D01*
X0032743Y0080384D01*
X0032595Y0080388D01*
X0032447Y0080396D01*
X0032300Y0080408D01*
X0032153Y0080424D01*
X0032006Y0080444D01*
X0031860Y0080468D01*
X0031714Y0080495D01*
X0031570Y0080527D01*
X0031426Y0080562D01*
X0031283Y0080602D01*
X0031142Y0080645D01*
X0031001Y0080692D01*
X0030862Y0080742D01*
X0030725Y0080797D01*
X0030589Y0080855D01*
X0030454Y0080916D01*
X0030321Y0080981D01*
X0030190Y0081050D01*
X0030061Y0081122D01*
X0029934Y0081198D01*
X0029809Y0081277D01*
X0029686Y0081360D01*
X0029565Y0081445D01*
X0029447Y0081534D01*
X0029331Y0081626D01*
X0029218Y0081722D01*
X0029107Y0081820D01*
X0028999Y0081921D01*
X0028893Y0082025D01*
X0028791Y0082131D01*
X0028691Y0082241D01*
X0028595Y0082353D01*
X0028501Y0082468D01*
X0028410Y0082585D01*
X0028323Y0082704D01*
X0028239Y0082826D01*
X0028158Y0082950D01*
X0028081Y0083076D01*
X0028007Y0083204D01*
X0027936Y0083334D01*
X0027869Y0083466D01*
X0027806Y0083600D01*
X0027746Y0083735D01*
X0027690Y0083872D01*
X0027637Y0084011D01*
X0027589Y0084151D01*
X0027544Y0084292D01*
X0027503Y0084434D01*
X0027465Y0084577D01*
X0027432Y0084721D01*
X0027402Y0084866D01*
X0027376Y0085012D01*
X0027355Y0085158D01*
X0027337Y0085305D01*
X0027323Y0085452D01*
X0027313Y0085600D01*
X0027307Y0085748D01*
X0027305Y0085896D01*
X0047778Y0085896D02*
X0047780Y0086054D01*
X0047786Y0086212D01*
X0047796Y0086370D01*
X0047810Y0086528D01*
X0047828Y0086685D01*
X0047849Y0086842D01*
X0047875Y0086998D01*
X0047905Y0087154D01*
X0047938Y0087309D01*
X0047976Y0087462D01*
X0048017Y0087615D01*
X0048062Y0087767D01*
X0048111Y0087918D01*
X0048164Y0088067D01*
X0048220Y0088215D01*
X0048280Y0088361D01*
X0048344Y0088506D01*
X0048412Y0088649D01*
X0048483Y0088791D01*
X0048557Y0088931D01*
X0048635Y0089068D01*
X0048717Y0089204D01*
X0048801Y0089338D01*
X0048890Y0089469D01*
X0048981Y0089598D01*
X0049076Y0089725D01*
X0049173Y0089850D01*
X0049274Y0089972D01*
X0049378Y0090091D01*
X0049485Y0090208D01*
X0049595Y0090322D01*
X0049708Y0090433D01*
X0049823Y0090542D01*
X0049941Y0090647D01*
X0050062Y0090749D01*
X0050185Y0090849D01*
X0050311Y0090945D01*
X0050439Y0091038D01*
X0050569Y0091128D01*
X0050702Y0091214D01*
X0050837Y0091298D01*
X0050973Y0091377D01*
X0051112Y0091454D01*
X0051253Y0091526D01*
X0051395Y0091596D01*
X0051539Y0091661D01*
X0051685Y0091723D01*
X0051832Y0091781D01*
X0051981Y0091836D01*
X0052131Y0091887D01*
X0052282Y0091934D01*
X0052434Y0091977D01*
X0052587Y0092016D01*
X0052742Y0092052D01*
X0052897Y0092083D01*
X0053053Y0092111D01*
X0053209Y0092135D01*
X0053366Y0092155D01*
X0053524Y0092171D01*
X0053681Y0092183D01*
X0053840Y0092191D01*
X0053998Y0092195D01*
X0054156Y0092195D01*
X0054314Y0092191D01*
X0054473Y0092183D01*
X0054630Y0092171D01*
X0054788Y0092155D01*
X0054945Y0092135D01*
X0055101Y0092111D01*
X0055257Y0092083D01*
X0055412Y0092052D01*
X0055567Y0092016D01*
X0055720Y0091977D01*
X0055872Y0091934D01*
X0056023Y0091887D01*
X0056173Y0091836D01*
X0056322Y0091781D01*
X0056469Y0091723D01*
X0056615Y0091661D01*
X0056759Y0091596D01*
X0056901Y0091526D01*
X0057042Y0091454D01*
X0057181Y0091377D01*
X0057317Y0091298D01*
X0057452Y0091214D01*
X0057585Y0091128D01*
X0057715Y0091038D01*
X0057843Y0090945D01*
X0057969Y0090849D01*
X0058092Y0090749D01*
X0058213Y0090647D01*
X0058331Y0090542D01*
X0058446Y0090433D01*
X0058559Y0090322D01*
X0058669Y0090208D01*
X0058776Y0090091D01*
X0058880Y0089972D01*
X0058981Y0089850D01*
X0059078Y0089725D01*
X0059173Y0089598D01*
X0059264Y0089469D01*
X0059353Y0089338D01*
X0059437Y0089204D01*
X0059519Y0089068D01*
X0059597Y0088931D01*
X0059671Y0088791D01*
X0059742Y0088649D01*
X0059810Y0088506D01*
X0059874Y0088361D01*
X0059934Y0088215D01*
X0059990Y0088067D01*
X0060043Y0087918D01*
X0060092Y0087767D01*
X0060137Y0087615D01*
X0060178Y0087462D01*
X0060216Y0087309D01*
X0060249Y0087154D01*
X0060279Y0086998D01*
X0060305Y0086842D01*
X0060326Y0086685D01*
X0060344Y0086528D01*
X0060358Y0086370D01*
X0060368Y0086212D01*
X0060374Y0086054D01*
X0060376Y0085896D01*
X0060374Y0085738D01*
X0060368Y0085580D01*
X0060358Y0085422D01*
X0060344Y0085264D01*
X0060326Y0085107D01*
X0060305Y0084950D01*
X0060279Y0084794D01*
X0060249Y0084638D01*
X0060216Y0084483D01*
X0060178Y0084330D01*
X0060137Y0084177D01*
X0060092Y0084025D01*
X0060043Y0083874D01*
X0059990Y0083725D01*
X0059934Y0083577D01*
X0059874Y0083431D01*
X0059810Y0083286D01*
X0059742Y0083143D01*
X0059671Y0083001D01*
X0059597Y0082861D01*
X0059519Y0082724D01*
X0059437Y0082588D01*
X0059353Y0082454D01*
X0059264Y0082323D01*
X0059173Y0082194D01*
X0059078Y0082067D01*
X0058981Y0081942D01*
X0058880Y0081820D01*
X0058776Y0081701D01*
X0058669Y0081584D01*
X0058559Y0081470D01*
X0058446Y0081359D01*
X0058331Y0081250D01*
X0058213Y0081145D01*
X0058092Y0081043D01*
X0057969Y0080943D01*
X0057843Y0080847D01*
X0057715Y0080754D01*
X0057585Y0080664D01*
X0057452Y0080578D01*
X0057317Y0080494D01*
X0057181Y0080415D01*
X0057042Y0080338D01*
X0056901Y0080266D01*
X0056759Y0080196D01*
X0056615Y0080131D01*
X0056469Y0080069D01*
X0056322Y0080011D01*
X0056173Y0079956D01*
X0056023Y0079905D01*
X0055872Y0079858D01*
X0055720Y0079815D01*
X0055567Y0079776D01*
X0055412Y0079740D01*
X0055257Y0079709D01*
X0055101Y0079681D01*
X0054945Y0079657D01*
X0054788Y0079637D01*
X0054630Y0079621D01*
X0054473Y0079609D01*
X0054314Y0079601D01*
X0054156Y0079597D01*
X0053998Y0079597D01*
X0053840Y0079601D01*
X0053681Y0079609D01*
X0053524Y0079621D01*
X0053366Y0079637D01*
X0053209Y0079657D01*
X0053053Y0079681D01*
X0052897Y0079709D01*
X0052742Y0079740D01*
X0052587Y0079776D01*
X0052434Y0079815D01*
X0052282Y0079858D01*
X0052131Y0079905D01*
X0051981Y0079956D01*
X0051832Y0080011D01*
X0051685Y0080069D01*
X0051539Y0080131D01*
X0051395Y0080196D01*
X0051253Y0080266D01*
X0051112Y0080338D01*
X0050973Y0080415D01*
X0050837Y0080494D01*
X0050702Y0080578D01*
X0050569Y0080664D01*
X0050439Y0080754D01*
X0050311Y0080847D01*
X0050185Y0080943D01*
X0050062Y0081043D01*
X0049941Y0081145D01*
X0049823Y0081250D01*
X0049708Y0081359D01*
X0049595Y0081470D01*
X0049485Y0081584D01*
X0049378Y0081701D01*
X0049274Y0081820D01*
X0049173Y0081942D01*
X0049076Y0082067D01*
X0048981Y0082194D01*
X0048890Y0082323D01*
X0048801Y0082454D01*
X0048717Y0082588D01*
X0048635Y0082724D01*
X0048557Y0082861D01*
X0048483Y0083001D01*
X0048412Y0083143D01*
X0048344Y0083286D01*
X0048280Y0083431D01*
X0048220Y0083577D01*
X0048164Y0083725D01*
X0048111Y0083874D01*
X0048062Y0084025D01*
X0048017Y0084177D01*
X0047976Y0084330D01*
X0047938Y0084483D01*
X0047905Y0084638D01*
X0047875Y0084794D01*
X0047849Y0084950D01*
X0047828Y0085107D01*
X0047810Y0085264D01*
X0047796Y0085422D01*
X0047786Y0085580D01*
X0047780Y0085738D01*
X0047778Y0085896D01*
X0079352Y0036250D02*
X0079354Y0036338D01*
X0079360Y0036426D01*
X0079370Y0036514D01*
X0079384Y0036602D01*
X0079401Y0036688D01*
X0079423Y0036774D01*
X0079448Y0036858D01*
X0079478Y0036942D01*
X0079510Y0037024D01*
X0079547Y0037104D01*
X0079587Y0037183D01*
X0079631Y0037260D01*
X0079678Y0037335D01*
X0079728Y0037407D01*
X0079782Y0037478D01*
X0079838Y0037545D01*
X0079898Y0037611D01*
X0079960Y0037673D01*
X0080026Y0037733D01*
X0080093Y0037789D01*
X0080164Y0037843D01*
X0080236Y0037893D01*
X0080311Y0037940D01*
X0080388Y0037984D01*
X0080467Y0038024D01*
X0080547Y0038061D01*
X0080629Y0038093D01*
X0080713Y0038123D01*
X0080797Y0038148D01*
X0080883Y0038170D01*
X0080969Y0038187D01*
X0081057Y0038201D01*
X0081145Y0038211D01*
X0081233Y0038217D01*
X0081321Y0038219D01*
X0081409Y0038217D01*
X0081497Y0038211D01*
X0081585Y0038201D01*
X0081673Y0038187D01*
X0081759Y0038170D01*
X0081845Y0038148D01*
X0081929Y0038123D01*
X0082013Y0038093D01*
X0082095Y0038061D01*
X0082175Y0038024D01*
X0082254Y0037984D01*
X0082331Y0037940D01*
X0082406Y0037893D01*
X0082478Y0037843D01*
X0082549Y0037789D01*
X0082616Y0037733D01*
X0082682Y0037673D01*
X0082744Y0037611D01*
X0082804Y0037545D01*
X0082860Y0037478D01*
X0082914Y0037407D01*
X0082964Y0037335D01*
X0083011Y0037260D01*
X0083055Y0037183D01*
X0083095Y0037104D01*
X0083132Y0037024D01*
X0083164Y0036942D01*
X0083194Y0036858D01*
X0083219Y0036774D01*
X0083241Y0036688D01*
X0083258Y0036602D01*
X0083272Y0036514D01*
X0083282Y0036426D01*
X0083288Y0036338D01*
X0083290Y0036250D01*
X0083288Y0036162D01*
X0083282Y0036074D01*
X0083272Y0035986D01*
X0083258Y0035898D01*
X0083241Y0035812D01*
X0083219Y0035726D01*
X0083194Y0035642D01*
X0083164Y0035558D01*
X0083132Y0035476D01*
X0083095Y0035396D01*
X0083055Y0035317D01*
X0083011Y0035240D01*
X0082964Y0035165D01*
X0082914Y0035093D01*
X0082860Y0035022D01*
X0082804Y0034955D01*
X0082744Y0034889D01*
X0082682Y0034827D01*
X0082616Y0034767D01*
X0082549Y0034711D01*
X0082478Y0034657D01*
X0082406Y0034607D01*
X0082331Y0034560D01*
X0082254Y0034516D01*
X0082175Y0034476D01*
X0082095Y0034439D01*
X0082013Y0034407D01*
X0081929Y0034377D01*
X0081845Y0034352D01*
X0081759Y0034330D01*
X0081673Y0034313D01*
X0081585Y0034299D01*
X0081497Y0034289D01*
X0081409Y0034283D01*
X0081321Y0034281D01*
X0081233Y0034283D01*
X0081145Y0034289D01*
X0081057Y0034299D01*
X0080969Y0034313D01*
X0080883Y0034330D01*
X0080797Y0034352D01*
X0080713Y0034377D01*
X0080629Y0034407D01*
X0080547Y0034439D01*
X0080467Y0034476D01*
X0080388Y0034516D01*
X0080311Y0034560D01*
X0080236Y0034607D01*
X0080164Y0034657D01*
X0080093Y0034711D01*
X0080026Y0034767D01*
X0079960Y0034827D01*
X0079898Y0034889D01*
X0079838Y0034955D01*
X0079782Y0035022D01*
X0079728Y0035093D01*
X0079678Y0035165D01*
X0079631Y0035240D01*
X0079587Y0035317D01*
X0079547Y0035396D01*
X0079510Y0035476D01*
X0079478Y0035558D01*
X0079448Y0035642D01*
X0079423Y0035726D01*
X0079401Y0035812D01*
X0079384Y0035898D01*
X0079370Y0035986D01*
X0079360Y0036074D01*
X0079354Y0036162D01*
X0079352Y0036250D01*
X0139352Y0036250D02*
X0139354Y0036338D01*
X0139360Y0036426D01*
X0139370Y0036514D01*
X0139384Y0036602D01*
X0139401Y0036688D01*
X0139423Y0036774D01*
X0139448Y0036858D01*
X0139478Y0036942D01*
X0139510Y0037024D01*
X0139547Y0037104D01*
X0139587Y0037183D01*
X0139631Y0037260D01*
X0139678Y0037335D01*
X0139728Y0037407D01*
X0139782Y0037478D01*
X0139838Y0037545D01*
X0139898Y0037611D01*
X0139960Y0037673D01*
X0140026Y0037733D01*
X0140093Y0037789D01*
X0140164Y0037843D01*
X0140236Y0037893D01*
X0140311Y0037940D01*
X0140388Y0037984D01*
X0140467Y0038024D01*
X0140547Y0038061D01*
X0140629Y0038093D01*
X0140713Y0038123D01*
X0140797Y0038148D01*
X0140883Y0038170D01*
X0140969Y0038187D01*
X0141057Y0038201D01*
X0141145Y0038211D01*
X0141233Y0038217D01*
X0141321Y0038219D01*
X0141409Y0038217D01*
X0141497Y0038211D01*
X0141585Y0038201D01*
X0141673Y0038187D01*
X0141759Y0038170D01*
X0141845Y0038148D01*
X0141929Y0038123D01*
X0142013Y0038093D01*
X0142095Y0038061D01*
X0142175Y0038024D01*
X0142254Y0037984D01*
X0142331Y0037940D01*
X0142406Y0037893D01*
X0142478Y0037843D01*
X0142549Y0037789D01*
X0142616Y0037733D01*
X0142682Y0037673D01*
X0142744Y0037611D01*
X0142804Y0037545D01*
X0142860Y0037478D01*
X0142914Y0037407D01*
X0142964Y0037335D01*
X0143011Y0037260D01*
X0143055Y0037183D01*
X0143095Y0037104D01*
X0143132Y0037024D01*
X0143164Y0036942D01*
X0143194Y0036858D01*
X0143219Y0036774D01*
X0143241Y0036688D01*
X0143258Y0036602D01*
X0143272Y0036514D01*
X0143282Y0036426D01*
X0143288Y0036338D01*
X0143290Y0036250D01*
X0143288Y0036162D01*
X0143282Y0036074D01*
X0143272Y0035986D01*
X0143258Y0035898D01*
X0143241Y0035812D01*
X0143219Y0035726D01*
X0143194Y0035642D01*
X0143164Y0035558D01*
X0143132Y0035476D01*
X0143095Y0035396D01*
X0143055Y0035317D01*
X0143011Y0035240D01*
X0142964Y0035165D01*
X0142914Y0035093D01*
X0142860Y0035022D01*
X0142804Y0034955D01*
X0142744Y0034889D01*
X0142682Y0034827D01*
X0142616Y0034767D01*
X0142549Y0034711D01*
X0142478Y0034657D01*
X0142406Y0034607D01*
X0142331Y0034560D01*
X0142254Y0034516D01*
X0142175Y0034476D01*
X0142095Y0034439D01*
X0142013Y0034407D01*
X0141929Y0034377D01*
X0141845Y0034352D01*
X0141759Y0034330D01*
X0141673Y0034313D01*
X0141585Y0034299D01*
X0141497Y0034289D01*
X0141409Y0034283D01*
X0141321Y0034281D01*
X0141233Y0034283D01*
X0141145Y0034289D01*
X0141057Y0034299D01*
X0140969Y0034313D01*
X0140883Y0034330D01*
X0140797Y0034352D01*
X0140713Y0034377D01*
X0140629Y0034407D01*
X0140547Y0034439D01*
X0140467Y0034476D01*
X0140388Y0034516D01*
X0140311Y0034560D01*
X0140236Y0034607D01*
X0140164Y0034657D01*
X0140093Y0034711D01*
X0140026Y0034767D01*
X0139960Y0034827D01*
X0139898Y0034889D01*
X0139838Y0034955D01*
X0139782Y0035022D01*
X0139728Y0035093D01*
X0139678Y0035165D01*
X0139631Y0035240D01*
X0139587Y0035317D01*
X0139547Y0035396D01*
X0139510Y0035476D01*
X0139478Y0035558D01*
X0139448Y0035642D01*
X0139423Y0035726D01*
X0139401Y0035812D01*
X0139384Y0035898D01*
X0139370Y0035986D01*
X0139360Y0036074D01*
X0139354Y0036162D01*
X0139352Y0036250D01*
X0168251Y0013061D02*
X0168253Y0013219D01*
X0168259Y0013377D01*
X0168269Y0013535D01*
X0168283Y0013693D01*
X0168301Y0013850D01*
X0168322Y0014007D01*
X0168348Y0014163D01*
X0168378Y0014319D01*
X0168411Y0014474D01*
X0168449Y0014627D01*
X0168490Y0014780D01*
X0168535Y0014932D01*
X0168584Y0015083D01*
X0168637Y0015232D01*
X0168693Y0015380D01*
X0168753Y0015526D01*
X0168817Y0015671D01*
X0168885Y0015814D01*
X0168956Y0015956D01*
X0169030Y0016096D01*
X0169108Y0016233D01*
X0169190Y0016369D01*
X0169274Y0016503D01*
X0169363Y0016634D01*
X0169454Y0016763D01*
X0169549Y0016890D01*
X0169646Y0017015D01*
X0169747Y0017137D01*
X0169851Y0017256D01*
X0169958Y0017373D01*
X0170068Y0017487D01*
X0170181Y0017598D01*
X0170296Y0017707D01*
X0170414Y0017812D01*
X0170535Y0017914D01*
X0170658Y0018014D01*
X0170784Y0018110D01*
X0170912Y0018203D01*
X0171042Y0018293D01*
X0171175Y0018379D01*
X0171310Y0018463D01*
X0171446Y0018542D01*
X0171585Y0018619D01*
X0171726Y0018691D01*
X0171868Y0018761D01*
X0172012Y0018826D01*
X0172158Y0018888D01*
X0172305Y0018946D01*
X0172454Y0019001D01*
X0172604Y0019052D01*
X0172755Y0019099D01*
X0172907Y0019142D01*
X0173060Y0019181D01*
X0173215Y0019217D01*
X0173370Y0019248D01*
X0173526Y0019276D01*
X0173682Y0019300D01*
X0173839Y0019320D01*
X0173997Y0019336D01*
X0174154Y0019348D01*
X0174313Y0019356D01*
X0174471Y0019360D01*
X0174629Y0019360D01*
X0174787Y0019356D01*
X0174946Y0019348D01*
X0175103Y0019336D01*
X0175261Y0019320D01*
X0175418Y0019300D01*
X0175574Y0019276D01*
X0175730Y0019248D01*
X0175885Y0019217D01*
X0176040Y0019181D01*
X0176193Y0019142D01*
X0176345Y0019099D01*
X0176496Y0019052D01*
X0176646Y0019001D01*
X0176795Y0018946D01*
X0176942Y0018888D01*
X0177088Y0018826D01*
X0177232Y0018761D01*
X0177374Y0018691D01*
X0177515Y0018619D01*
X0177654Y0018542D01*
X0177790Y0018463D01*
X0177925Y0018379D01*
X0178058Y0018293D01*
X0178188Y0018203D01*
X0178316Y0018110D01*
X0178442Y0018014D01*
X0178565Y0017914D01*
X0178686Y0017812D01*
X0178804Y0017707D01*
X0178919Y0017598D01*
X0179032Y0017487D01*
X0179142Y0017373D01*
X0179249Y0017256D01*
X0179353Y0017137D01*
X0179454Y0017015D01*
X0179551Y0016890D01*
X0179646Y0016763D01*
X0179737Y0016634D01*
X0179826Y0016503D01*
X0179910Y0016369D01*
X0179992Y0016233D01*
X0180070Y0016096D01*
X0180144Y0015956D01*
X0180215Y0015814D01*
X0180283Y0015671D01*
X0180347Y0015526D01*
X0180407Y0015380D01*
X0180463Y0015232D01*
X0180516Y0015083D01*
X0180565Y0014932D01*
X0180610Y0014780D01*
X0180651Y0014627D01*
X0180689Y0014474D01*
X0180722Y0014319D01*
X0180752Y0014163D01*
X0180778Y0014007D01*
X0180799Y0013850D01*
X0180817Y0013693D01*
X0180831Y0013535D01*
X0180841Y0013377D01*
X0180847Y0013219D01*
X0180849Y0013061D01*
X0180847Y0012903D01*
X0180841Y0012745D01*
X0180831Y0012587D01*
X0180817Y0012429D01*
X0180799Y0012272D01*
X0180778Y0012115D01*
X0180752Y0011959D01*
X0180722Y0011803D01*
X0180689Y0011648D01*
X0180651Y0011495D01*
X0180610Y0011342D01*
X0180565Y0011190D01*
X0180516Y0011039D01*
X0180463Y0010890D01*
X0180407Y0010742D01*
X0180347Y0010596D01*
X0180283Y0010451D01*
X0180215Y0010308D01*
X0180144Y0010166D01*
X0180070Y0010026D01*
X0179992Y0009889D01*
X0179910Y0009753D01*
X0179826Y0009619D01*
X0179737Y0009488D01*
X0179646Y0009359D01*
X0179551Y0009232D01*
X0179454Y0009107D01*
X0179353Y0008985D01*
X0179249Y0008866D01*
X0179142Y0008749D01*
X0179032Y0008635D01*
X0178919Y0008524D01*
X0178804Y0008415D01*
X0178686Y0008310D01*
X0178565Y0008208D01*
X0178442Y0008108D01*
X0178316Y0008012D01*
X0178188Y0007919D01*
X0178058Y0007829D01*
X0177925Y0007743D01*
X0177790Y0007659D01*
X0177654Y0007580D01*
X0177515Y0007503D01*
X0177374Y0007431D01*
X0177232Y0007361D01*
X0177088Y0007296D01*
X0176942Y0007234D01*
X0176795Y0007176D01*
X0176646Y0007121D01*
X0176496Y0007070D01*
X0176345Y0007023D01*
X0176193Y0006980D01*
X0176040Y0006941D01*
X0175885Y0006905D01*
X0175730Y0006874D01*
X0175574Y0006846D01*
X0175418Y0006822D01*
X0175261Y0006802D01*
X0175103Y0006786D01*
X0174946Y0006774D01*
X0174787Y0006766D01*
X0174629Y0006762D01*
X0174471Y0006762D01*
X0174313Y0006766D01*
X0174154Y0006774D01*
X0173997Y0006786D01*
X0173839Y0006802D01*
X0173682Y0006822D01*
X0173526Y0006846D01*
X0173370Y0006874D01*
X0173215Y0006905D01*
X0173060Y0006941D01*
X0172907Y0006980D01*
X0172755Y0007023D01*
X0172604Y0007070D01*
X0172454Y0007121D01*
X0172305Y0007176D01*
X0172158Y0007234D01*
X0172012Y0007296D01*
X0171868Y0007361D01*
X0171726Y0007431D01*
X0171585Y0007503D01*
X0171446Y0007580D01*
X0171310Y0007659D01*
X0171175Y0007743D01*
X0171042Y0007829D01*
X0170912Y0007919D01*
X0170784Y0008012D01*
X0170658Y0008108D01*
X0170535Y0008208D01*
X0170414Y0008310D01*
X0170296Y0008415D01*
X0170181Y0008524D01*
X0170068Y0008635D01*
X0169958Y0008749D01*
X0169851Y0008866D01*
X0169747Y0008985D01*
X0169646Y0009107D01*
X0169549Y0009232D01*
X0169454Y0009359D01*
X0169363Y0009488D01*
X0169274Y0009619D01*
X0169190Y0009753D01*
X0169108Y0009889D01*
X0169030Y0010026D01*
X0168956Y0010166D01*
X0168885Y0010308D01*
X0168817Y0010451D01*
X0168753Y0010596D01*
X0168693Y0010742D01*
X0168637Y0010890D01*
X0168584Y0011039D01*
X0168535Y0011190D01*
X0168490Y0011342D01*
X0168449Y0011495D01*
X0168411Y0011648D01*
X0168378Y0011803D01*
X0168348Y0011959D01*
X0168322Y0012115D01*
X0168301Y0012272D01*
X0168283Y0012429D01*
X0168269Y0012587D01*
X0168259Y0012745D01*
X0168253Y0012903D01*
X0168251Y0013061D01*
X0047778Y0200069D02*
X0047780Y0200227D01*
X0047786Y0200385D01*
X0047796Y0200543D01*
X0047810Y0200701D01*
X0047828Y0200858D01*
X0047849Y0201015D01*
X0047875Y0201171D01*
X0047905Y0201327D01*
X0047938Y0201482D01*
X0047976Y0201635D01*
X0048017Y0201788D01*
X0048062Y0201940D01*
X0048111Y0202091D01*
X0048164Y0202240D01*
X0048220Y0202388D01*
X0048280Y0202534D01*
X0048344Y0202679D01*
X0048412Y0202822D01*
X0048483Y0202964D01*
X0048557Y0203104D01*
X0048635Y0203241D01*
X0048717Y0203377D01*
X0048801Y0203511D01*
X0048890Y0203642D01*
X0048981Y0203771D01*
X0049076Y0203898D01*
X0049173Y0204023D01*
X0049274Y0204145D01*
X0049378Y0204264D01*
X0049485Y0204381D01*
X0049595Y0204495D01*
X0049708Y0204606D01*
X0049823Y0204715D01*
X0049941Y0204820D01*
X0050062Y0204922D01*
X0050185Y0205022D01*
X0050311Y0205118D01*
X0050439Y0205211D01*
X0050569Y0205301D01*
X0050702Y0205387D01*
X0050837Y0205471D01*
X0050973Y0205550D01*
X0051112Y0205627D01*
X0051253Y0205699D01*
X0051395Y0205769D01*
X0051539Y0205834D01*
X0051685Y0205896D01*
X0051832Y0205954D01*
X0051981Y0206009D01*
X0052131Y0206060D01*
X0052282Y0206107D01*
X0052434Y0206150D01*
X0052587Y0206189D01*
X0052742Y0206225D01*
X0052897Y0206256D01*
X0053053Y0206284D01*
X0053209Y0206308D01*
X0053366Y0206328D01*
X0053524Y0206344D01*
X0053681Y0206356D01*
X0053840Y0206364D01*
X0053998Y0206368D01*
X0054156Y0206368D01*
X0054314Y0206364D01*
X0054473Y0206356D01*
X0054630Y0206344D01*
X0054788Y0206328D01*
X0054945Y0206308D01*
X0055101Y0206284D01*
X0055257Y0206256D01*
X0055412Y0206225D01*
X0055567Y0206189D01*
X0055720Y0206150D01*
X0055872Y0206107D01*
X0056023Y0206060D01*
X0056173Y0206009D01*
X0056322Y0205954D01*
X0056469Y0205896D01*
X0056615Y0205834D01*
X0056759Y0205769D01*
X0056901Y0205699D01*
X0057042Y0205627D01*
X0057181Y0205550D01*
X0057317Y0205471D01*
X0057452Y0205387D01*
X0057585Y0205301D01*
X0057715Y0205211D01*
X0057843Y0205118D01*
X0057969Y0205022D01*
X0058092Y0204922D01*
X0058213Y0204820D01*
X0058331Y0204715D01*
X0058446Y0204606D01*
X0058559Y0204495D01*
X0058669Y0204381D01*
X0058776Y0204264D01*
X0058880Y0204145D01*
X0058981Y0204023D01*
X0059078Y0203898D01*
X0059173Y0203771D01*
X0059264Y0203642D01*
X0059353Y0203511D01*
X0059437Y0203377D01*
X0059519Y0203241D01*
X0059597Y0203104D01*
X0059671Y0202964D01*
X0059742Y0202822D01*
X0059810Y0202679D01*
X0059874Y0202534D01*
X0059934Y0202388D01*
X0059990Y0202240D01*
X0060043Y0202091D01*
X0060092Y0201940D01*
X0060137Y0201788D01*
X0060178Y0201635D01*
X0060216Y0201482D01*
X0060249Y0201327D01*
X0060279Y0201171D01*
X0060305Y0201015D01*
X0060326Y0200858D01*
X0060344Y0200701D01*
X0060358Y0200543D01*
X0060368Y0200385D01*
X0060374Y0200227D01*
X0060376Y0200069D01*
X0060374Y0199911D01*
X0060368Y0199753D01*
X0060358Y0199595D01*
X0060344Y0199437D01*
X0060326Y0199280D01*
X0060305Y0199123D01*
X0060279Y0198967D01*
X0060249Y0198811D01*
X0060216Y0198656D01*
X0060178Y0198503D01*
X0060137Y0198350D01*
X0060092Y0198198D01*
X0060043Y0198047D01*
X0059990Y0197898D01*
X0059934Y0197750D01*
X0059874Y0197604D01*
X0059810Y0197459D01*
X0059742Y0197316D01*
X0059671Y0197174D01*
X0059597Y0197034D01*
X0059519Y0196897D01*
X0059437Y0196761D01*
X0059353Y0196627D01*
X0059264Y0196496D01*
X0059173Y0196367D01*
X0059078Y0196240D01*
X0058981Y0196115D01*
X0058880Y0195993D01*
X0058776Y0195874D01*
X0058669Y0195757D01*
X0058559Y0195643D01*
X0058446Y0195532D01*
X0058331Y0195423D01*
X0058213Y0195318D01*
X0058092Y0195216D01*
X0057969Y0195116D01*
X0057843Y0195020D01*
X0057715Y0194927D01*
X0057585Y0194837D01*
X0057452Y0194751D01*
X0057317Y0194667D01*
X0057181Y0194588D01*
X0057042Y0194511D01*
X0056901Y0194439D01*
X0056759Y0194369D01*
X0056615Y0194304D01*
X0056469Y0194242D01*
X0056322Y0194184D01*
X0056173Y0194129D01*
X0056023Y0194078D01*
X0055872Y0194031D01*
X0055720Y0193988D01*
X0055567Y0193949D01*
X0055412Y0193913D01*
X0055257Y0193882D01*
X0055101Y0193854D01*
X0054945Y0193830D01*
X0054788Y0193810D01*
X0054630Y0193794D01*
X0054473Y0193782D01*
X0054314Y0193774D01*
X0054156Y0193770D01*
X0053998Y0193770D01*
X0053840Y0193774D01*
X0053681Y0193782D01*
X0053524Y0193794D01*
X0053366Y0193810D01*
X0053209Y0193830D01*
X0053053Y0193854D01*
X0052897Y0193882D01*
X0052742Y0193913D01*
X0052587Y0193949D01*
X0052434Y0193988D01*
X0052282Y0194031D01*
X0052131Y0194078D01*
X0051981Y0194129D01*
X0051832Y0194184D01*
X0051685Y0194242D01*
X0051539Y0194304D01*
X0051395Y0194369D01*
X0051253Y0194439D01*
X0051112Y0194511D01*
X0050973Y0194588D01*
X0050837Y0194667D01*
X0050702Y0194751D01*
X0050569Y0194837D01*
X0050439Y0194927D01*
X0050311Y0195020D01*
X0050185Y0195116D01*
X0050062Y0195216D01*
X0049941Y0195318D01*
X0049823Y0195423D01*
X0049708Y0195532D01*
X0049595Y0195643D01*
X0049485Y0195757D01*
X0049378Y0195874D01*
X0049274Y0195993D01*
X0049173Y0196115D01*
X0049076Y0196240D01*
X0048981Y0196367D01*
X0048890Y0196496D01*
X0048801Y0196627D01*
X0048717Y0196761D01*
X0048635Y0196897D01*
X0048557Y0197034D01*
X0048483Y0197174D01*
X0048412Y0197316D01*
X0048344Y0197459D01*
X0048280Y0197604D01*
X0048220Y0197750D01*
X0048164Y0197898D01*
X0048111Y0198047D01*
X0048062Y0198198D01*
X0048017Y0198350D01*
X0047976Y0198503D01*
X0047938Y0198656D01*
X0047905Y0198811D01*
X0047875Y0198967D01*
X0047849Y0199123D01*
X0047828Y0199280D01*
X0047810Y0199437D01*
X0047796Y0199595D01*
X0047786Y0199753D01*
X0047780Y0199911D01*
X0047778Y0200069D01*
X0027305Y0200069D02*
X0027307Y0200217D01*
X0027313Y0200365D01*
X0027323Y0200513D01*
X0027337Y0200660D01*
X0027355Y0200807D01*
X0027376Y0200953D01*
X0027402Y0201099D01*
X0027432Y0201244D01*
X0027465Y0201388D01*
X0027503Y0201531D01*
X0027544Y0201673D01*
X0027589Y0201814D01*
X0027637Y0201954D01*
X0027690Y0202093D01*
X0027746Y0202230D01*
X0027806Y0202365D01*
X0027869Y0202499D01*
X0027936Y0202631D01*
X0028007Y0202761D01*
X0028081Y0202889D01*
X0028158Y0203015D01*
X0028239Y0203139D01*
X0028323Y0203261D01*
X0028410Y0203380D01*
X0028501Y0203497D01*
X0028595Y0203612D01*
X0028691Y0203724D01*
X0028791Y0203834D01*
X0028893Y0203940D01*
X0028999Y0204044D01*
X0029107Y0204145D01*
X0029218Y0204243D01*
X0029331Y0204339D01*
X0029447Y0204431D01*
X0029565Y0204520D01*
X0029686Y0204605D01*
X0029809Y0204688D01*
X0029934Y0204767D01*
X0030061Y0204843D01*
X0030190Y0204915D01*
X0030321Y0204984D01*
X0030454Y0205049D01*
X0030589Y0205110D01*
X0030725Y0205168D01*
X0030862Y0205223D01*
X0031001Y0205273D01*
X0031142Y0205320D01*
X0031283Y0205363D01*
X0031426Y0205403D01*
X0031570Y0205438D01*
X0031714Y0205470D01*
X0031860Y0205497D01*
X0032006Y0205521D01*
X0032153Y0205541D01*
X0032300Y0205557D01*
X0032447Y0205569D01*
X0032595Y0205577D01*
X0032743Y0205581D01*
X0032891Y0205581D01*
X0033039Y0205577D01*
X0033187Y0205569D01*
X0033334Y0205557D01*
X0033481Y0205541D01*
X0033628Y0205521D01*
X0033774Y0205497D01*
X0033920Y0205470D01*
X0034064Y0205438D01*
X0034208Y0205403D01*
X0034351Y0205363D01*
X0034492Y0205320D01*
X0034633Y0205273D01*
X0034772Y0205223D01*
X0034909Y0205168D01*
X0035045Y0205110D01*
X0035180Y0205049D01*
X0035313Y0204984D01*
X0035444Y0204915D01*
X0035573Y0204843D01*
X0035700Y0204767D01*
X0035825Y0204688D01*
X0035948Y0204605D01*
X0036069Y0204520D01*
X0036187Y0204431D01*
X0036303Y0204339D01*
X0036416Y0204243D01*
X0036527Y0204145D01*
X0036635Y0204044D01*
X0036741Y0203940D01*
X0036843Y0203834D01*
X0036943Y0203724D01*
X0037039Y0203612D01*
X0037133Y0203497D01*
X0037224Y0203380D01*
X0037311Y0203261D01*
X0037395Y0203139D01*
X0037476Y0203015D01*
X0037553Y0202889D01*
X0037627Y0202761D01*
X0037698Y0202631D01*
X0037765Y0202499D01*
X0037828Y0202365D01*
X0037888Y0202230D01*
X0037944Y0202093D01*
X0037997Y0201954D01*
X0038045Y0201814D01*
X0038090Y0201673D01*
X0038131Y0201531D01*
X0038169Y0201388D01*
X0038202Y0201244D01*
X0038232Y0201099D01*
X0038258Y0200953D01*
X0038279Y0200807D01*
X0038297Y0200660D01*
X0038311Y0200513D01*
X0038321Y0200365D01*
X0038327Y0200217D01*
X0038329Y0200069D01*
X0038327Y0199921D01*
X0038321Y0199773D01*
X0038311Y0199625D01*
X0038297Y0199478D01*
X0038279Y0199331D01*
X0038258Y0199185D01*
X0038232Y0199039D01*
X0038202Y0198894D01*
X0038169Y0198750D01*
X0038131Y0198607D01*
X0038090Y0198465D01*
X0038045Y0198324D01*
X0037997Y0198184D01*
X0037944Y0198045D01*
X0037888Y0197908D01*
X0037828Y0197773D01*
X0037765Y0197639D01*
X0037698Y0197507D01*
X0037627Y0197377D01*
X0037553Y0197249D01*
X0037476Y0197123D01*
X0037395Y0196999D01*
X0037311Y0196877D01*
X0037224Y0196758D01*
X0037133Y0196641D01*
X0037039Y0196526D01*
X0036943Y0196414D01*
X0036843Y0196304D01*
X0036741Y0196198D01*
X0036635Y0196094D01*
X0036527Y0195993D01*
X0036416Y0195895D01*
X0036303Y0195799D01*
X0036187Y0195707D01*
X0036069Y0195618D01*
X0035948Y0195533D01*
X0035825Y0195450D01*
X0035700Y0195371D01*
X0035573Y0195295D01*
X0035444Y0195223D01*
X0035313Y0195154D01*
X0035180Y0195089D01*
X0035045Y0195028D01*
X0034909Y0194970D01*
X0034772Y0194915D01*
X0034633Y0194865D01*
X0034492Y0194818D01*
X0034351Y0194775D01*
X0034208Y0194735D01*
X0034064Y0194700D01*
X0033920Y0194668D01*
X0033774Y0194641D01*
X0033628Y0194617D01*
X0033481Y0194597D01*
X0033334Y0194581D01*
X0033187Y0194569D01*
X0033039Y0194561D01*
X0032891Y0194557D01*
X0032743Y0194557D01*
X0032595Y0194561D01*
X0032447Y0194569D01*
X0032300Y0194581D01*
X0032153Y0194597D01*
X0032006Y0194617D01*
X0031860Y0194641D01*
X0031714Y0194668D01*
X0031570Y0194700D01*
X0031426Y0194735D01*
X0031283Y0194775D01*
X0031142Y0194818D01*
X0031001Y0194865D01*
X0030862Y0194915D01*
X0030725Y0194970D01*
X0030589Y0195028D01*
X0030454Y0195089D01*
X0030321Y0195154D01*
X0030190Y0195223D01*
X0030061Y0195295D01*
X0029934Y0195371D01*
X0029809Y0195450D01*
X0029686Y0195533D01*
X0029565Y0195618D01*
X0029447Y0195707D01*
X0029331Y0195799D01*
X0029218Y0195895D01*
X0029107Y0195993D01*
X0028999Y0196094D01*
X0028893Y0196198D01*
X0028791Y0196304D01*
X0028691Y0196414D01*
X0028595Y0196526D01*
X0028501Y0196641D01*
X0028410Y0196758D01*
X0028323Y0196877D01*
X0028239Y0196999D01*
X0028158Y0197123D01*
X0028081Y0197249D01*
X0028007Y0197377D01*
X0027936Y0197507D01*
X0027869Y0197639D01*
X0027806Y0197773D01*
X0027746Y0197908D01*
X0027690Y0198045D01*
X0027637Y0198184D01*
X0027589Y0198324D01*
X0027544Y0198465D01*
X0027503Y0198607D01*
X0027465Y0198750D01*
X0027432Y0198894D01*
X0027402Y0199039D01*
X0027376Y0199185D01*
X0027355Y0199331D01*
X0027337Y0199478D01*
X0027323Y0199625D01*
X0027313Y0199773D01*
X0027307Y0199921D01*
X0027305Y0200069D01*
X0006833Y0272904D02*
X0006835Y0273062D01*
X0006841Y0273220D01*
X0006851Y0273378D01*
X0006865Y0273536D01*
X0006883Y0273693D01*
X0006904Y0273850D01*
X0006930Y0274006D01*
X0006960Y0274162D01*
X0006993Y0274317D01*
X0007031Y0274470D01*
X0007072Y0274623D01*
X0007117Y0274775D01*
X0007166Y0274926D01*
X0007219Y0275075D01*
X0007275Y0275223D01*
X0007335Y0275369D01*
X0007399Y0275514D01*
X0007467Y0275657D01*
X0007538Y0275799D01*
X0007612Y0275939D01*
X0007690Y0276076D01*
X0007772Y0276212D01*
X0007856Y0276346D01*
X0007945Y0276477D01*
X0008036Y0276606D01*
X0008131Y0276733D01*
X0008228Y0276858D01*
X0008329Y0276980D01*
X0008433Y0277099D01*
X0008540Y0277216D01*
X0008650Y0277330D01*
X0008763Y0277441D01*
X0008878Y0277550D01*
X0008996Y0277655D01*
X0009117Y0277757D01*
X0009240Y0277857D01*
X0009366Y0277953D01*
X0009494Y0278046D01*
X0009624Y0278136D01*
X0009757Y0278222D01*
X0009892Y0278306D01*
X0010028Y0278385D01*
X0010167Y0278462D01*
X0010308Y0278534D01*
X0010450Y0278604D01*
X0010594Y0278669D01*
X0010740Y0278731D01*
X0010887Y0278789D01*
X0011036Y0278844D01*
X0011186Y0278895D01*
X0011337Y0278942D01*
X0011489Y0278985D01*
X0011642Y0279024D01*
X0011797Y0279060D01*
X0011952Y0279091D01*
X0012108Y0279119D01*
X0012264Y0279143D01*
X0012421Y0279163D01*
X0012579Y0279179D01*
X0012736Y0279191D01*
X0012895Y0279199D01*
X0013053Y0279203D01*
X0013211Y0279203D01*
X0013369Y0279199D01*
X0013528Y0279191D01*
X0013685Y0279179D01*
X0013843Y0279163D01*
X0014000Y0279143D01*
X0014156Y0279119D01*
X0014312Y0279091D01*
X0014467Y0279060D01*
X0014622Y0279024D01*
X0014775Y0278985D01*
X0014927Y0278942D01*
X0015078Y0278895D01*
X0015228Y0278844D01*
X0015377Y0278789D01*
X0015524Y0278731D01*
X0015670Y0278669D01*
X0015814Y0278604D01*
X0015956Y0278534D01*
X0016097Y0278462D01*
X0016236Y0278385D01*
X0016372Y0278306D01*
X0016507Y0278222D01*
X0016640Y0278136D01*
X0016770Y0278046D01*
X0016898Y0277953D01*
X0017024Y0277857D01*
X0017147Y0277757D01*
X0017268Y0277655D01*
X0017386Y0277550D01*
X0017501Y0277441D01*
X0017614Y0277330D01*
X0017724Y0277216D01*
X0017831Y0277099D01*
X0017935Y0276980D01*
X0018036Y0276858D01*
X0018133Y0276733D01*
X0018228Y0276606D01*
X0018319Y0276477D01*
X0018408Y0276346D01*
X0018492Y0276212D01*
X0018574Y0276076D01*
X0018652Y0275939D01*
X0018726Y0275799D01*
X0018797Y0275657D01*
X0018865Y0275514D01*
X0018929Y0275369D01*
X0018989Y0275223D01*
X0019045Y0275075D01*
X0019098Y0274926D01*
X0019147Y0274775D01*
X0019192Y0274623D01*
X0019233Y0274470D01*
X0019271Y0274317D01*
X0019304Y0274162D01*
X0019334Y0274006D01*
X0019360Y0273850D01*
X0019381Y0273693D01*
X0019399Y0273536D01*
X0019413Y0273378D01*
X0019423Y0273220D01*
X0019429Y0273062D01*
X0019431Y0272904D01*
X0019429Y0272746D01*
X0019423Y0272588D01*
X0019413Y0272430D01*
X0019399Y0272272D01*
X0019381Y0272115D01*
X0019360Y0271958D01*
X0019334Y0271802D01*
X0019304Y0271646D01*
X0019271Y0271491D01*
X0019233Y0271338D01*
X0019192Y0271185D01*
X0019147Y0271033D01*
X0019098Y0270882D01*
X0019045Y0270733D01*
X0018989Y0270585D01*
X0018929Y0270439D01*
X0018865Y0270294D01*
X0018797Y0270151D01*
X0018726Y0270009D01*
X0018652Y0269869D01*
X0018574Y0269732D01*
X0018492Y0269596D01*
X0018408Y0269462D01*
X0018319Y0269331D01*
X0018228Y0269202D01*
X0018133Y0269075D01*
X0018036Y0268950D01*
X0017935Y0268828D01*
X0017831Y0268709D01*
X0017724Y0268592D01*
X0017614Y0268478D01*
X0017501Y0268367D01*
X0017386Y0268258D01*
X0017268Y0268153D01*
X0017147Y0268051D01*
X0017024Y0267951D01*
X0016898Y0267855D01*
X0016770Y0267762D01*
X0016640Y0267672D01*
X0016507Y0267586D01*
X0016372Y0267502D01*
X0016236Y0267423D01*
X0016097Y0267346D01*
X0015956Y0267274D01*
X0015814Y0267204D01*
X0015670Y0267139D01*
X0015524Y0267077D01*
X0015377Y0267019D01*
X0015228Y0266964D01*
X0015078Y0266913D01*
X0014927Y0266866D01*
X0014775Y0266823D01*
X0014622Y0266784D01*
X0014467Y0266748D01*
X0014312Y0266717D01*
X0014156Y0266689D01*
X0014000Y0266665D01*
X0013843Y0266645D01*
X0013685Y0266629D01*
X0013528Y0266617D01*
X0013369Y0266609D01*
X0013211Y0266605D01*
X0013053Y0266605D01*
X0012895Y0266609D01*
X0012736Y0266617D01*
X0012579Y0266629D01*
X0012421Y0266645D01*
X0012264Y0266665D01*
X0012108Y0266689D01*
X0011952Y0266717D01*
X0011797Y0266748D01*
X0011642Y0266784D01*
X0011489Y0266823D01*
X0011337Y0266866D01*
X0011186Y0266913D01*
X0011036Y0266964D01*
X0010887Y0267019D01*
X0010740Y0267077D01*
X0010594Y0267139D01*
X0010450Y0267204D01*
X0010308Y0267274D01*
X0010167Y0267346D01*
X0010028Y0267423D01*
X0009892Y0267502D01*
X0009757Y0267586D01*
X0009624Y0267672D01*
X0009494Y0267762D01*
X0009366Y0267855D01*
X0009240Y0267951D01*
X0009117Y0268051D01*
X0008996Y0268153D01*
X0008878Y0268258D01*
X0008763Y0268367D01*
X0008650Y0268478D01*
X0008540Y0268592D01*
X0008433Y0268709D01*
X0008329Y0268828D01*
X0008228Y0268950D01*
X0008131Y0269075D01*
X0008036Y0269202D01*
X0007945Y0269331D01*
X0007856Y0269462D01*
X0007772Y0269596D01*
X0007690Y0269732D01*
X0007612Y0269869D01*
X0007538Y0270009D01*
X0007467Y0270151D01*
X0007399Y0270294D01*
X0007335Y0270439D01*
X0007275Y0270585D01*
X0007219Y0270733D01*
X0007166Y0270882D01*
X0007117Y0271033D01*
X0007072Y0271185D01*
X0007031Y0271338D01*
X0006993Y0271491D01*
X0006960Y0271646D01*
X0006930Y0271802D01*
X0006904Y0271958D01*
X0006883Y0272115D01*
X0006865Y0272272D01*
X0006851Y0272430D01*
X0006841Y0272588D01*
X0006835Y0272746D01*
X0006833Y0272904D01*
X0079352Y0216250D02*
X0079354Y0216338D01*
X0079360Y0216426D01*
X0079370Y0216514D01*
X0079384Y0216602D01*
X0079401Y0216688D01*
X0079423Y0216774D01*
X0079448Y0216858D01*
X0079478Y0216942D01*
X0079510Y0217024D01*
X0079547Y0217104D01*
X0079587Y0217183D01*
X0079631Y0217260D01*
X0079678Y0217335D01*
X0079728Y0217407D01*
X0079782Y0217478D01*
X0079838Y0217545D01*
X0079898Y0217611D01*
X0079960Y0217673D01*
X0080026Y0217733D01*
X0080093Y0217789D01*
X0080164Y0217843D01*
X0080236Y0217893D01*
X0080311Y0217940D01*
X0080388Y0217984D01*
X0080467Y0218024D01*
X0080547Y0218061D01*
X0080629Y0218093D01*
X0080713Y0218123D01*
X0080797Y0218148D01*
X0080883Y0218170D01*
X0080969Y0218187D01*
X0081057Y0218201D01*
X0081145Y0218211D01*
X0081233Y0218217D01*
X0081321Y0218219D01*
X0081409Y0218217D01*
X0081497Y0218211D01*
X0081585Y0218201D01*
X0081673Y0218187D01*
X0081759Y0218170D01*
X0081845Y0218148D01*
X0081929Y0218123D01*
X0082013Y0218093D01*
X0082095Y0218061D01*
X0082175Y0218024D01*
X0082254Y0217984D01*
X0082331Y0217940D01*
X0082406Y0217893D01*
X0082478Y0217843D01*
X0082549Y0217789D01*
X0082616Y0217733D01*
X0082682Y0217673D01*
X0082744Y0217611D01*
X0082804Y0217545D01*
X0082860Y0217478D01*
X0082914Y0217407D01*
X0082964Y0217335D01*
X0083011Y0217260D01*
X0083055Y0217183D01*
X0083095Y0217104D01*
X0083132Y0217024D01*
X0083164Y0216942D01*
X0083194Y0216858D01*
X0083219Y0216774D01*
X0083241Y0216688D01*
X0083258Y0216602D01*
X0083272Y0216514D01*
X0083282Y0216426D01*
X0083288Y0216338D01*
X0083290Y0216250D01*
X0083288Y0216162D01*
X0083282Y0216074D01*
X0083272Y0215986D01*
X0083258Y0215898D01*
X0083241Y0215812D01*
X0083219Y0215726D01*
X0083194Y0215642D01*
X0083164Y0215558D01*
X0083132Y0215476D01*
X0083095Y0215396D01*
X0083055Y0215317D01*
X0083011Y0215240D01*
X0082964Y0215165D01*
X0082914Y0215093D01*
X0082860Y0215022D01*
X0082804Y0214955D01*
X0082744Y0214889D01*
X0082682Y0214827D01*
X0082616Y0214767D01*
X0082549Y0214711D01*
X0082478Y0214657D01*
X0082406Y0214607D01*
X0082331Y0214560D01*
X0082254Y0214516D01*
X0082175Y0214476D01*
X0082095Y0214439D01*
X0082013Y0214407D01*
X0081929Y0214377D01*
X0081845Y0214352D01*
X0081759Y0214330D01*
X0081673Y0214313D01*
X0081585Y0214299D01*
X0081497Y0214289D01*
X0081409Y0214283D01*
X0081321Y0214281D01*
X0081233Y0214283D01*
X0081145Y0214289D01*
X0081057Y0214299D01*
X0080969Y0214313D01*
X0080883Y0214330D01*
X0080797Y0214352D01*
X0080713Y0214377D01*
X0080629Y0214407D01*
X0080547Y0214439D01*
X0080467Y0214476D01*
X0080388Y0214516D01*
X0080311Y0214560D01*
X0080236Y0214607D01*
X0080164Y0214657D01*
X0080093Y0214711D01*
X0080026Y0214767D01*
X0079960Y0214827D01*
X0079898Y0214889D01*
X0079838Y0214955D01*
X0079782Y0215022D01*
X0079728Y0215093D01*
X0079678Y0215165D01*
X0079631Y0215240D01*
X0079587Y0215317D01*
X0079547Y0215396D01*
X0079510Y0215476D01*
X0079478Y0215558D01*
X0079448Y0215642D01*
X0079423Y0215726D01*
X0079401Y0215812D01*
X0079384Y0215898D01*
X0079370Y0215986D01*
X0079360Y0216074D01*
X0079354Y0216162D01*
X0079352Y0216250D01*
X0139352Y0216250D02*
X0139354Y0216338D01*
X0139360Y0216426D01*
X0139370Y0216514D01*
X0139384Y0216602D01*
X0139401Y0216688D01*
X0139423Y0216774D01*
X0139448Y0216858D01*
X0139478Y0216942D01*
X0139510Y0217024D01*
X0139547Y0217104D01*
X0139587Y0217183D01*
X0139631Y0217260D01*
X0139678Y0217335D01*
X0139728Y0217407D01*
X0139782Y0217478D01*
X0139838Y0217545D01*
X0139898Y0217611D01*
X0139960Y0217673D01*
X0140026Y0217733D01*
X0140093Y0217789D01*
X0140164Y0217843D01*
X0140236Y0217893D01*
X0140311Y0217940D01*
X0140388Y0217984D01*
X0140467Y0218024D01*
X0140547Y0218061D01*
X0140629Y0218093D01*
X0140713Y0218123D01*
X0140797Y0218148D01*
X0140883Y0218170D01*
X0140969Y0218187D01*
X0141057Y0218201D01*
X0141145Y0218211D01*
X0141233Y0218217D01*
X0141321Y0218219D01*
X0141409Y0218217D01*
X0141497Y0218211D01*
X0141585Y0218201D01*
X0141673Y0218187D01*
X0141759Y0218170D01*
X0141845Y0218148D01*
X0141929Y0218123D01*
X0142013Y0218093D01*
X0142095Y0218061D01*
X0142175Y0218024D01*
X0142254Y0217984D01*
X0142331Y0217940D01*
X0142406Y0217893D01*
X0142478Y0217843D01*
X0142549Y0217789D01*
X0142616Y0217733D01*
X0142682Y0217673D01*
X0142744Y0217611D01*
X0142804Y0217545D01*
X0142860Y0217478D01*
X0142914Y0217407D01*
X0142964Y0217335D01*
X0143011Y0217260D01*
X0143055Y0217183D01*
X0143095Y0217104D01*
X0143132Y0217024D01*
X0143164Y0216942D01*
X0143194Y0216858D01*
X0143219Y0216774D01*
X0143241Y0216688D01*
X0143258Y0216602D01*
X0143272Y0216514D01*
X0143282Y0216426D01*
X0143288Y0216338D01*
X0143290Y0216250D01*
X0143288Y0216162D01*
X0143282Y0216074D01*
X0143272Y0215986D01*
X0143258Y0215898D01*
X0143241Y0215812D01*
X0143219Y0215726D01*
X0143194Y0215642D01*
X0143164Y0215558D01*
X0143132Y0215476D01*
X0143095Y0215396D01*
X0143055Y0215317D01*
X0143011Y0215240D01*
X0142964Y0215165D01*
X0142914Y0215093D01*
X0142860Y0215022D01*
X0142804Y0214955D01*
X0142744Y0214889D01*
X0142682Y0214827D01*
X0142616Y0214767D01*
X0142549Y0214711D01*
X0142478Y0214657D01*
X0142406Y0214607D01*
X0142331Y0214560D01*
X0142254Y0214516D01*
X0142175Y0214476D01*
X0142095Y0214439D01*
X0142013Y0214407D01*
X0141929Y0214377D01*
X0141845Y0214352D01*
X0141759Y0214330D01*
X0141673Y0214313D01*
X0141585Y0214299D01*
X0141497Y0214289D01*
X0141409Y0214283D01*
X0141321Y0214281D01*
X0141233Y0214283D01*
X0141145Y0214289D01*
X0141057Y0214299D01*
X0140969Y0214313D01*
X0140883Y0214330D01*
X0140797Y0214352D01*
X0140713Y0214377D01*
X0140629Y0214407D01*
X0140547Y0214439D01*
X0140467Y0214476D01*
X0140388Y0214516D01*
X0140311Y0214560D01*
X0140236Y0214607D01*
X0140164Y0214657D01*
X0140093Y0214711D01*
X0140026Y0214767D01*
X0139960Y0214827D01*
X0139898Y0214889D01*
X0139838Y0214955D01*
X0139782Y0215022D01*
X0139728Y0215093D01*
X0139678Y0215165D01*
X0139631Y0215240D01*
X0139587Y0215317D01*
X0139547Y0215396D01*
X0139510Y0215476D01*
X0139478Y0215558D01*
X0139448Y0215642D01*
X0139423Y0215726D01*
X0139401Y0215812D01*
X0139384Y0215898D01*
X0139370Y0215986D01*
X0139360Y0216074D01*
X0139354Y0216162D01*
X0139352Y0216250D01*
X0168251Y0272904D02*
X0168253Y0273062D01*
X0168259Y0273220D01*
X0168269Y0273378D01*
X0168283Y0273536D01*
X0168301Y0273693D01*
X0168322Y0273850D01*
X0168348Y0274006D01*
X0168378Y0274162D01*
X0168411Y0274317D01*
X0168449Y0274470D01*
X0168490Y0274623D01*
X0168535Y0274775D01*
X0168584Y0274926D01*
X0168637Y0275075D01*
X0168693Y0275223D01*
X0168753Y0275369D01*
X0168817Y0275514D01*
X0168885Y0275657D01*
X0168956Y0275799D01*
X0169030Y0275939D01*
X0169108Y0276076D01*
X0169190Y0276212D01*
X0169274Y0276346D01*
X0169363Y0276477D01*
X0169454Y0276606D01*
X0169549Y0276733D01*
X0169646Y0276858D01*
X0169747Y0276980D01*
X0169851Y0277099D01*
X0169958Y0277216D01*
X0170068Y0277330D01*
X0170181Y0277441D01*
X0170296Y0277550D01*
X0170414Y0277655D01*
X0170535Y0277757D01*
X0170658Y0277857D01*
X0170784Y0277953D01*
X0170912Y0278046D01*
X0171042Y0278136D01*
X0171175Y0278222D01*
X0171310Y0278306D01*
X0171446Y0278385D01*
X0171585Y0278462D01*
X0171726Y0278534D01*
X0171868Y0278604D01*
X0172012Y0278669D01*
X0172158Y0278731D01*
X0172305Y0278789D01*
X0172454Y0278844D01*
X0172604Y0278895D01*
X0172755Y0278942D01*
X0172907Y0278985D01*
X0173060Y0279024D01*
X0173215Y0279060D01*
X0173370Y0279091D01*
X0173526Y0279119D01*
X0173682Y0279143D01*
X0173839Y0279163D01*
X0173997Y0279179D01*
X0174154Y0279191D01*
X0174313Y0279199D01*
X0174471Y0279203D01*
X0174629Y0279203D01*
X0174787Y0279199D01*
X0174946Y0279191D01*
X0175103Y0279179D01*
X0175261Y0279163D01*
X0175418Y0279143D01*
X0175574Y0279119D01*
X0175730Y0279091D01*
X0175885Y0279060D01*
X0176040Y0279024D01*
X0176193Y0278985D01*
X0176345Y0278942D01*
X0176496Y0278895D01*
X0176646Y0278844D01*
X0176795Y0278789D01*
X0176942Y0278731D01*
X0177088Y0278669D01*
X0177232Y0278604D01*
X0177374Y0278534D01*
X0177515Y0278462D01*
X0177654Y0278385D01*
X0177790Y0278306D01*
X0177925Y0278222D01*
X0178058Y0278136D01*
X0178188Y0278046D01*
X0178316Y0277953D01*
X0178442Y0277857D01*
X0178565Y0277757D01*
X0178686Y0277655D01*
X0178804Y0277550D01*
X0178919Y0277441D01*
X0179032Y0277330D01*
X0179142Y0277216D01*
X0179249Y0277099D01*
X0179353Y0276980D01*
X0179454Y0276858D01*
X0179551Y0276733D01*
X0179646Y0276606D01*
X0179737Y0276477D01*
X0179826Y0276346D01*
X0179910Y0276212D01*
X0179992Y0276076D01*
X0180070Y0275939D01*
X0180144Y0275799D01*
X0180215Y0275657D01*
X0180283Y0275514D01*
X0180347Y0275369D01*
X0180407Y0275223D01*
X0180463Y0275075D01*
X0180516Y0274926D01*
X0180565Y0274775D01*
X0180610Y0274623D01*
X0180651Y0274470D01*
X0180689Y0274317D01*
X0180722Y0274162D01*
X0180752Y0274006D01*
X0180778Y0273850D01*
X0180799Y0273693D01*
X0180817Y0273536D01*
X0180831Y0273378D01*
X0180841Y0273220D01*
X0180847Y0273062D01*
X0180849Y0272904D01*
X0180847Y0272746D01*
X0180841Y0272588D01*
X0180831Y0272430D01*
X0180817Y0272272D01*
X0180799Y0272115D01*
X0180778Y0271958D01*
X0180752Y0271802D01*
X0180722Y0271646D01*
X0180689Y0271491D01*
X0180651Y0271338D01*
X0180610Y0271185D01*
X0180565Y0271033D01*
X0180516Y0270882D01*
X0180463Y0270733D01*
X0180407Y0270585D01*
X0180347Y0270439D01*
X0180283Y0270294D01*
X0180215Y0270151D01*
X0180144Y0270009D01*
X0180070Y0269869D01*
X0179992Y0269732D01*
X0179910Y0269596D01*
X0179826Y0269462D01*
X0179737Y0269331D01*
X0179646Y0269202D01*
X0179551Y0269075D01*
X0179454Y0268950D01*
X0179353Y0268828D01*
X0179249Y0268709D01*
X0179142Y0268592D01*
X0179032Y0268478D01*
X0178919Y0268367D01*
X0178804Y0268258D01*
X0178686Y0268153D01*
X0178565Y0268051D01*
X0178442Y0267951D01*
X0178316Y0267855D01*
X0178188Y0267762D01*
X0178058Y0267672D01*
X0177925Y0267586D01*
X0177790Y0267502D01*
X0177654Y0267423D01*
X0177515Y0267346D01*
X0177374Y0267274D01*
X0177232Y0267204D01*
X0177088Y0267139D01*
X0176942Y0267077D01*
X0176795Y0267019D01*
X0176646Y0266964D01*
X0176496Y0266913D01*
X0176345Y0266866D01*
X0176193Y0266823D01*
X0176040Y0266784D01*
X0175885Y0266748D01*
X0175730Y0266717D01*
X0175574Y0266689D01*
X0175418Y0266665D01*
X0175261Y0266645D01*
X0175103Y0266629D01*
X0174946Y0266617D01*
X0174787Y0266609D01*
X0174629Y0266605D01*
X0174471Y0266605D01*
X0174313Y0266609D01*
X0174154Y0266617D01*
X0173997Y0266629D01*
X0173839Y0266645D01*
X0173682Y0266665D01*
X0173526Y0266689D01*
X0173370Y0266717D01*
X0173215Y0266748D01*
X0173060Y0266784D01*
X0172907Y0266823D01*
X0172755Y0266866D01*
X0172604Y0266913D01*
X0172454Y0266964D01*
X0172305Y0267019D01*
X0172158Y0267077D01*
X0172012Y0267139D01*
X0171868Y0267204D01*
X0171726Y0267274D01*
X0171585Y0267346D01*
X0171446Y0267423D01*
X0171310Y0267502D01*
X0171175Y0267586D01*
X0171042Y0267672D01*
X0170912Y0267762D01*
X0170784Y0267855D01*
X0170658Y0267951D01*
X0170535Y0268051D01*
X0170414Y0268153D01*
X0170296Y0268258D01*
X0170181Y0268367D01*
X0170068Y0268478D01*
X0169958Y0268592D01*
X0169851Y0268709D01*
X0169747Y0268828D01*
X0169646Y0268950D01*
X0169549Y0269075D01*
X0169454Y0269202D01*
X0169363Y0269331D01*
X0169274Y0269462D01*
X0169190Y0269596D01*
X0169108Y0269732D01*
X0169030Y0269869D01*
X0168956Y0270009D01*
X0168885Y0270151D01*
X0168817Y0270294D01*
X0168753Y0270439D01*
X0168693Y0270585D01*
X0168637Y0270733D01*
X0168584Y0270882D01*
X0168535Y0271033D01*
X0168490Y0271185D01*
X0168449Y0271338D01*
X0168411Y0271491D01*
X0168378Y0271646D01*
X0168348Y0271802D01*
X0168322Y0271958D01*
X0168301Y0272115D01*
X0168283Y0272272D01*
X0168269Y0272430D01*
X0168259Y0272588D01*
X0168253Y0272746D01*
X0168251Y0272904D01*
M02*
