%
M48
M72
T01C0.02756
T02C0.03150
T03C0.03200
T04C0.03543
T05C0.04000
T06C0.04331
T07C0.08661
T08C0.11024
T09C0.12598
%
T01
X101300Y37363
X101300Y45237
X261300Y45237
X261300Y37363
X101300Y229489
X101300Y237363
X101300Y245237
X101300Y253111
X261300Y249174
X261300Y241300
X261300Y233426
T02
X56418Y158032
X56418Y148032
X56418Y138032
X56418Y128032
X44607Y133032
X44607Y143032
X44607Y153032
X32796Y148032
X32796Y138032
X32796Y128032
X20985Y133032
X20985Y143032
X20985Y153032
X32796Y158032
T03
X86300Y116300
X86300Y106300
X86300Y91300
X96300Y91300
X106300Y91300
X116300Y91300
X126300Y91300
X136300Y91300
X146300Y91300
X156300Y91300
X166300Y91300
X176300Y91300
X186300Y91300
X196300Y91300
X206300Y91300
X216300Y91300
X231300Y81300
X231300Y71300
X216300Y61300
X206300Y61300
X196300Y61300
X186300Y61300
X176300Y61300
X166300Y61300
X156300Y61300
X146300Y61300
X136300Y61300
X126300Y61300
X116300Y61300
X106300Y61300
X96300Y61300
X86300Y61300
X121300Y46300
X121300Y36300
X211300Y46300
X231300Y46300
X246300Y61300
X256300Y61300
X266300Y61300
X276300Y61300
X276300Y91300
X266300Y91300
X256300Y91300
X246300Y91300
X246300Y191300
X236300Y191300
X226300Y191300
X216300Y191300
X206300Y191300
X196300Y191300
X186300Y191300
X171300Y201300
X171300Y211300
X156300Y211300
X156300Y201300
X156300Y191300
X136300Y191300
X136300Y201300
X136300Y211300
X136300Y221300
X156300Y221300
X186300Y221300
X196300Y221300
X206300Y221300
X216300Y221300
X226300Y221300
X236300Y221300
X246300Y221300
T04
X241300Y31300
X211300Y31300
T05
X271300Y191300
X271300Y201300
T06
X271300Y171300
X261300Y171300
X251300Y171300
X241300Y171300
X231300Y171300
X221300Y171300
X211300Y171300
X201300Y171300
X191300Y171300
X181300Y171300
X171300Y171300
X161300Y171300
X151300Y171300
X141300Y171300
X131300Y171300
X121300Y171300
X111300Y171300
X111300Y111300
X121300Y111300
X131300Y111300
X141300Y111300
X151300Y111300
X161300Y111300
X171300Y111300
X181300Y111300
X191300Y111300
X201300Y111300
X211300Y111300
X221300Y111300
X231300Y111300
X241300Y111300
X251300Y111300
X261300Y111300
X271300Y111300
T07
X44607Y111654
X20985Y111654
X20985Y174410
X44607Y174410
T08
X32796Y200119
X32796Y85946
T09
X13111Y13111
X54056Y85946
X54056Y200119
X13111Y272954
X272954Y272954
X272954Y13111
M30
