%
M48
M72
T01C0.01181
T02C0.02756
T03C0.03150
T04C0.03200
T05C0.03543
T06C0.03937
T07C0.04000
T08C0.04331
T09C0.08661
T10C0.11024
T11C0.12598
%
T01
X31250Y32250
X50250Y44250
X53250Y32250
X55250Y7250
X52250Y5250
X76250Y25250
X77250Y20250
X99250Y9250
X104250Y8250
X129250Y13250
X137250Y37250
X139250Y45250
X125250Y68250
X101250Y65250
X99250Y59250
X96250Y56250
X77250Y78250
X93250Y90250
X101250Y95250
X103250Y110250
X104250Y141250
X102250Y151250
X113250Y176250
X105250Y198250
X104250Y203250
X99250Y204250
X92250Y194250
X97250Y178250
X77250Y204250
X63250Y220250
X61250Y223250
X47250Y217250
X42250Y230250
X40250Y241250
X37250Y247250
X12250Y238250
X6250Y226250
X53250Y171250
X65250Y146250
X51250Y117250
X60250Y114250
X51250Y76250
X35250Y60250
X30250Y75250
X10250Y78250
X15250Y118250
X88250Y228250
X101250Y244250
X115250Y253250
X119250Y251250
X118250Y241250
X119250Y237250
X121250Y263250
X138250Y263250
X153250Y249250
X156250Y236250
X151250Y186250
X148250Y183250
X142250Y182250
X151250Y167250
X142250Y143250
X152250Y134250
X159250Y127250
X157250Y110250
X176250Y171250
X69250Y265250
X66250Y251250
T02
X83927Y249281
X83927Y257156
X83927Y241407
X83927Y233533
X162667Y72116
X162667Y64242
X162667Y56368
X162667Y40620
X162667Y32746
X56368Y44557
X56368Y52431
T03
X56368Y127982
X56368Y137982
X56368Y147982
X56368Y157982
X44557Y152982
X44557Y142982
X44557Y132982
X32746Y127982
X32746Y137982
X32746Y147982
X32746Y157982
X20935Y152982
X20935Y142982
X20935Y132982
T04
X86250Y131250
X86250Y121250
X86250Y111250
X86250Y101250
X86250Y91250
X86250Y81250
X86250Y71250
X86250Y56250
X86250Y46250
X86250Y36250
X86250Y26250
X96250Y16250
X106250Y16250
X116250Y16250
X116250Y26250
X116250Y36250
X116250Y46250
X116250Y56250
X116250Y71250
X116250Y81250
X116250Y91250
X116250Y101250
X116250Y111250
X116250Y121250
X116250Y131250
X116250Y141250
X116250Y151250
X116250Y161250
X116250Y171250
X116250Y181250
X116250Y191250
X116250Y201250
X106250Y211250
X96250Y211250
X86250Y201250
X86250Y191250
X86250Y181250
X86250Y171250
X86250Y161250
X86250Y151250
X86250Y141250
X106250Y226250
X116250Y226250
X126250Y226250
X146250Y221250
X146250Y231250
X146250Y241250
X146250Y251250
X126250Y256250
X126250Y271250
X106250Y271250
X106250Y256250
X86250Y271250
X66250Y271250
X146250Y211250
X146250Y201250
X146250Y191250
X156250Y181250
X166250Y181250
X176250Y191250
X176250Y201250
X176250Y211250
X176250Y221250
X176250Y231250
X176250Y241250
X176250Y251250
X146250Y66250
X146250Y46250
X146250Y36250
X146250Y16250
X136250Y16250
X71250Y26250
X61250Y26250
T05
X56250Y16250
X86250Y16250
T06
X71250Y36250
X131250Y36250
X131250Y216250
X71250Y216250
T07
X46250Y236250
X46250Y246250
X46250Y256250
X46250Y266250
X146250Y126250
X146250Y116250
X146250Y106250
X146250Y96250
X146250Y86250
X146250Y76250
X156250Y141250
X156250Y151250
X156250Y161250
X166250Y161250
X166250Y151250
X166250Y141250
X46250Y26250
X36250Y26250
X26250Y26250
T08
X71250Y46250
X71250Y56250
X71250Y66250
X71250Y76250
X71250Y86250
X71250Y96250
X71250Y106250
X71250Y116250
X71250Y126250
X71250Y136250
X71250Y146250
X71250Y156250
X71250Y166250
X71250Y176250
X71250Y186250
X71250Y196250
X71250Y206250
X131250Y206250
X131250Y196250
X131250Y186250
X131250Y176250
X131250Y166250
X131250Y156250
X131250Y146250
X131250Y136250
X131250Y126250
X131250Y116250
X131250Y106250
X131250Y96250
X131250Y86250
X131250Y76250
X131250Y66250
X131250Y56250
X131250Y46250
T09
X44557Y111604
X20935Y111604
X20935Y174360
X44557Y174360
T10
X32746Y200069
X32746Y85896
T11
X13061Y13061
X54006Y85896
X54006Y200069
X13061Y272904
X174478Y272904
X174478Y13061
M30
