%
M48
M72
T01C0.01181
T02C0.02756
T03C0.03150
T04C0.03200
T05C0.03543
T06C0.03600
T07C0.04331
T08C0.08661
T09C0.11024
T10C0.12598
%
T01
X84500Y88500
X96500Y91500
X95500Y80500
X100500Y73500
X118500Y86500
X124500Y73500
X132500Y73500
X118500Y55500
X111500Y27500
X91500Y36500
X150500Y54500
X161500Y76500
X151500Y88500
X174500Y56500
X187500Y48500
X190500Y50500
X160500Y27500
X155500Y30500
X77500Y137500
X12500Y109500
X216500Y225500
X275500Y141500
T02
X261343Y233783
X261343Y241657
X261343Y249531
X218035Y233783
X210161Y233783
X190476Y233783
X182602Y233783
X174728Y233783
X166854Y233783
X147169Y233783
X139295Y233783
X131421Y233783
X123547Y233783
X103862Y233783
X95988Y233783
X261343Y44807
X261343Y36933
T03
X56618Y128232
X56618Y138232
X56618Y148232
X56618Y158232
X44807Y153232
X44807Y143232
X44807Y133232
X32996Y128232
X32996Y138232
X32996Y148232
X32996Y158232
X21185Y153232
X21185Y143232
X21185Y133232
T04
X81500Y121500
X81500Y111500
X81500Y96500
X91500Y96500
X101500Y96500
X111500Y96500
X121500Y96500
X131500Y96500
X141500Y96500
X151500Y96500
X161500Y96500
X171500Y96500
X181500Y96500
X191500Y96500
X201500Y96500
X211500Y96500
X231500Y86500
X231500Y76500
X246500Y66500
X256500Y66500
X266500Y66500
X276500Y66500
X276500Y96500
X266500Y96500
X256500Y96500
X246500Y96500
X211500Y66500
X201500Y66500
X191500Y66500
X181500Y66500
X171500Y66500
X161500Y66500
X151500Y66500
X141500Y66500
X131500Y66500
X121500Y66500
X111500Y66500
X101500Y66500
X91500Y66500
X81500Y66500
X126500Y191500
X126500Y201500
X126500Y211500
X126500Y221500
X146500Y221500
X146500Y211500
X146500Y201500
X146500Y191500
X166500Y191500
X166500Y201500
X166500Y211500
X166500Y221500
X186500Y221500
X186500Y211500
X186500Y201500
X186500Y191500
X201500Y196500
X211500Y186500
X221500Y186500
X231500Y186500
X241500Y186500
X251500Y186500
X261500Y186500
X271500Y186500
X271500Y216500
X261500Y216500
X251500Y216500
X241500Y216500
X231500Y216500
X221500Y216500
X211500Y216500
X201500Y206500
X106500Y216500
X96500Y216500
X221500Y51500
X241500Y51500
X231500Y21500
X211500Y21500
T05
X211500Y41500
X241500Y41500
T06
X178232Y39807
X168232Y39807
X158232Y39807
X148232Y39807
X138232Y39807
X128232Y39807
X118232Y39807
X108232Y39807
X108232Y49807
X118232Y49807
X128232Y49807
X138232Y49807
X148232Y49807
X158232Y49807
X168232Y49807
X178232Y49807
T07
X176539Y113232
X166539Y113232
X156539Y113232
X146539Y113232
X136539Y113232
X126539Y113232
X116539Y113232
X106539Y113232
X106539Y173232
X116539Y173232
X126539Y173232
X136539Y173232
X146539Y173232
X156539Y173232
X166539Y173232
X176539Y173232
X186539Y173232
X196539Y173232
X206539Y173232
X216539Y173232
X226539Y173232
X236539Y173232
X246539Y173232
X256539Y173232
X266539Y173232
X266539Y113232
X256539Y113232
X246539Y113232
X236539Y113232
X226539Y113232
X216539Y113232
X206539Y113232
X196539Y113232
X186539Y113232
T08
X44807Y111854
X21185Y111854
X21185Y174610
X44807Y174610
T09
X32996Y200319
X32996Y86146
T10
X13311Y13311
X54256Y86146
X54256Y200319
X13311Y273154
X273154Y273154
X273154Y13311
M30
