G75*
%MOIN*%
%OFA0B0*%
%FSLAX25Y25*%
%IPPOS*%
%LPD*%
%AMOC8*
5,1,8,0,0,1.08239X$1,22.5*
%
%ADD10C,0.00000*%
D10*
X0001300Y0001300D02*
X0001300Y0284765D01*
X0186339Y0284765D01*
X0186339Y0001300D01*
X0001300Y0001300D01*
X0006812Y0013111D02*
X0006814Y0013269D01*
X0006820Y0013427D01*
X0006830Y0013585D01*
X0006844Y0013743D01*
X0006862Y0013900D01*
X0006883Y0014057D01*
X0006909Y0014213D01*
X0006939Y0014369D01*
X0006972Y0014524D01*
X0007010Y0014677D01*
X0007051Y0014830D01*
X0007096Y0014982D01*
X0007145Y0015133D01*
X0007198Y0015282D01*
X0007254Y0015430D01*
X0007314Y0015576D01*
X0007378Y0015721D01*
X0007446Y0015864D01*
X0007517Y0016006D01*
X0007591Y0016146D01*
X0007669Y0016283D01*
X0007751Y0016419D01*
X0007835Y0016553D01*
X0007924Y0016684D01*
X0008015Y0016813D01*
X0008110Y0016940D01*
X0008207Y0017065D01*
X0008308Y0017187D01*
X0008412Y0017306D01*
X0008519Y0017423D01*
X0008629Y0017537D01*
X0008742Y0017648D01*
X0008857Y0017757D01*
X0008975Y0017862D01*
X0009096Y0017964D01*
X0009219Y0018064D01*
X0009345Y0018160D01*
X0009473Y0018253D01*
X0009603Y0018343D01*
X0009736Y0018429D01*
X0009871Y0018513D01*
X0010007Y0018592D01*
X0010146Y0018669D01*
X0010287Y0018741D01*
X0010429Y0018811D01*
X0010573Y0018876D01*
X0010719Y0018938D01*
X0010866Y0018996D01*
X0011015Y0019051D01*
X0011165Y0019102D01*
X0011316Y0019149D01*
X0011468Y0019192D01*
X0011621Y0019231D01*
X0011776Y0019267D01*
X0011931Y0019298D01*
X0012087Y0019326D01*
X0012243Y0019350D01*
X0012400Y0019370D01*
X0012558Y0019386D01*
X0012715Y0019398D01*
X0012874Y0019406D01*
X0013032Y0019410D01*
X0013190Y0019410D01*
X0013348Y0019406D01*
X0013507Y0019398D01*
X0013664Y0019386D01*
X0013822Y0019370D01*
X0013979Y0019350D01*
X0014135Y0019326D01*
X0014291Y0019298D01*
X0014446Y0019267D01*
X0014601Y0019231D01*
X0014754Y0019192D01*
X0014906Y0019149D01*
X0015057Y0019102D01*
X0015207Y0019051D01*
X0015356Y0018996D01*
X0015503Y0018938D01*
X0015649Y0018876D01*
X0015793Y0018811D01*
X0015935Y0018741D01*
X0016076Y0018669D01*
X0016215Y0018592D01*
X0016351Y0018513D01*
X0016486Y0018429D01*
X0016619Y0018343D01*
X0016749Y0018253D01*
X0016877Y0018160D01*
X0017003Y0018064D01*
X0017126Y0017964D01*
X0017247Y0017862D01*
X0017365Y0017757D01*
X0017480Y0017648D01*
X0017593Y0017537D01*
X0017703Y0017423D01*
X0017810Y0017306D01*
X0017914Y0017187D01*
X0018015Y0017065D01*
X0018112Y0016940D01*
X0018207Y0016813D01*
X0018298Y0016684D01*
X0018387Y0016553D01*
X0018471Y0016419D01*
X0018553Y0016283D01*
X0018631Y0016146D01*
X0018705Y0016006D01*
X0018776Y0015864D01*
X0018844Y0015721D01*
X0018908Y0015576D01*
X0018968Y0015430D01*
X0019024Y0015282D01*
X0019077Y0015133D01*
X0019126Y0014982D01*
X0019171Y0014830D01*
X0019212Y0014677D01*
X0019250Y0014524D01*
X0019283Y0014369D01*
X0019313Y0014213D01*
X0019339Y0014057D01*
X0019360Y0013900D01*
X0019378Y0013743D01*
X0019392Y0013585D01*
X0019402Y0013427D01*
X0019408Y0013269D01*
X0019410Y0013111D01*
X0019408Y0012953D01*
X0019402Y0012795D01*
X0019392Y0012637D01*
X0019378Y0012479D01*
X0019360Y0012322D01*
X0019339Y0012165D01*
X0019313Y0012009D01*
X0019283Y0011853D01*
X0019250Y0011698D01*
X0019212Y0011545D01*
X0019171Y0011392D01*
X0019126Y0011240D01*
X0019077Y0011089D01*
X0019024Y0010940D01*
X0018968Y0010792D01*
X0018908Y0010646D01*
X0018844Y0010501D01*
X0018776Y0010358D01*
X0018705Y0010216D01*
X0018631Y0010076D01*
X0018553Y0009939D01*
X0018471Y0009803D01*
X0018387Y0009669D01*
X0018298Y0009538D01*
X0018207Y0009409D01*
X0018112Y0009282D01*
X0018015Y0009157D01*
X0017914Y0009035D01*
X0017810Y0008916D01*
X0017703Y0008799D01*
X0017593Y0008685D01*
X0017480Y0008574D01*
X0017365Y0008465D01*
X0017247Y0008360D01*
X0017126Y0008258D01*
X0017003Y0008158D01*
X0016877Y0008062D01*
X0016749Y0007969D01*
X0016619Y0007879D01*
X0016486Y0007793D01*
X0016351Y0007709D01*
X0016215Y0007630D01*
X0016076Y0007553D01*
X0015935Y0007481D01*
X0015793Y0007411D01*
X0015649Y0007346D01*
X0015503Y0007284D01*
X0015356Y0007226D01*
X0015207Y0007171D01*
X0015057Y0007120D01*
X0014906Y0007073D01*
X0014754Y0007030D01*
X0014601Y0006991D01*
X0014446Y0006955D01*
X0014291Y0006924D01*
X0014135Y0006896D01*
X0013979Y0006872D01*
X0013822Y0006852D01*
X0013664Y0006836D01*
X0013507Y0006824D01*
X0013348Y0006816D01*
X0013190Y0006812D01*
X0013032Y0006812D01*
X0012874Y0006816D01*
X0012715Y0006824D01*
X0012558Y0006836D01*
X0012400Y0006852D01*
X0012243Y0006872D01*
X0012087Y0006896D01*
X0011931Y0006924D01*
X0011776Y0006955D01*
X0011621Y0006991D01*
X0011468Y0007030D01*
X0011316Y0007073D01*
X0011165Y0007120D01*
X0011015Y0007171D01*
X0010866Y0007226D01*
X0010719Y0007284D01*
X0010573Y0007346D01*
X0010429Y0007411D01*
X0010287Y0007481D01*
X0010146Y0007553D01*
X0010007Y0007630D01*
X0009871Y0007709D01*
X0009736Y0007793D01*
X0009603Y0007879D01*
X0009473Y0007969D01*
X0009345Y0008062D01*
X0009219Y0008158D01*
X0009096Y0008258D01*
X0008975Y0008360D01*
X0008857Y0008465D01*
X0008742Y0008574D01*
X0008629Y0008685D01*
X0008519Y0008799D01*
X0008412Y0008916D01*
X0008308Y0009035D01*
X0008207Y0009157D01*
X0008110Y0009282D01*
X0008015Y0009409D01*
X0007924Y0009538D01*
X0007835Y0009669D01*
X0007751Y0009803D01*
X0007669Y0009939D01*
X0007591Y0010076D01*
X0007517Y0010216D01*
X0007446Y0010358D01*
X0007378Y0010501D01*
X0007314Y0010646D01*
X0007254Y0010792D01*
X0007198Y0010940D01*
X0007145Y0011089D01*
X0007096Y0011240D01*
X0007051Y0011392D01*
X0007010Y0011545D01*
X0006972Y0011698D01*
X0006939Y0011853D01*
X0006909Y0012009D01*
X0006883Y0012165D01*
X0006862Y0012322D01*
X0006844Y0012479D01*
X0006830Y0012637D01*
X0006820Y0012795D01*
X0006814Y0012953D01*
X0006812Y0013111D01*
X0027284Y0085946D02*
X0027286Y0086094D01*
X0027292Y0086242D01*
X0027302Y0086390D01*
X0027316Y0086537D01*
X0027334Y0086684D01*
X0027355Y0086830D01*
X0027381Y0086976D01*
X0027411Y0087121D01*
X0027444Y0087265D01*
X0027482Y0087408D01*
X0027523Y0087550D01*
X0027568Y0087691D01*
X0027616Y0087831D01*
X0027669Y0087970D01*
X0027725Y0088107D01*
X0027785Y0088242D01*
X0027848Y0088376D01*
X0027915Y0088508D01*
X0027986Y0088638D01*
X0028060Y0088766D01*
X0028137Y0088892D01*
X0028218Y0089016D01*
X0028302Y0089138D01*
X0028389Y0089257D01*
X0028480Y0089374D01*
X0028574Y0089489D01*
X0028670Y0089601D01*
X0028770Y0089711D01*
X0028872Y0089817D01*
X0028978Y0089921D01*
X0029086Y0090022D01*
X0029197Y0090120D01*
X0029310Y0090216D01*
X0029426Y0090308D01*
X0029544Y0090397D01*
X0029665Y0090482D01*
X0029788Y0090565D01*
X0029913Y0090644D01*
X0030040Y0090720D01*
X0030169Y0090792D01*
X0030300Y0090861D01*
X0030433Y0090926D01*
X0030568Y0090987D01*
X0030704Y0091045D01*
X0030841Y0091100D01*
X0030980Y0091150D01*
X0031121Y0091197D01*
X0031262Y0091240D01*
X0031405Y0091280D01*
X0031549Y0091315D01*
X0031693Y0091347D01*
X0031839Y0091374D01*
X0031985Y0091398D01*
X0032132Y0091418D01*
X0032279Y0091434D01*
X0032426Y0091446D01*
X0032574Y0091454D01*
X0032722Y0091458D01*
X0032870Y0091458D01*
X0033018Y0091454D01*
X0033166Y0091446D01*
X0033313Y0091434D01*
X0033460Y0091418D01*
X0033607Y0091398D01*
X0033753Y0091374D01*
X0033899Y0091347D01*
X0034043Y0091315D01*
X0034187Y0091280D01*
X0034330Y0091240D01*
X0034471Y0091197D01*
X0034612Y0091150D01*
X0034751Y0091100D01*
X0034888Y0091045D01*
X0035024Y0090987D01*
X0035159Y0090926D01*
X0035292Y0090861D01*
X0035423Y0090792D01*
X0035552Y0090720D01*
X0035679Y0090644D01*
X0035804Y0090565D01*
X0035927Y0090482D01*
X0036048Y0090397D01*
X0036166Y0090308D01*
X0036282Y0090216D01*
X0036395Y0090120D01*
X0036506Y0090022D01*
X0036614Y0089921D01*
X0036720Y0089817D01*
X0036822Y0089711D01*
X0036922Y0089601D01*
X0037018Y0089489D01*
X0037112Y0089374D01*
X0037203Y0089257D01*
X0037290Y0089138D01*
X0037374Y0089016D01*
X0037455Y0088892D01*
X0037532Y0088766D01*
X0037606Y0088638D01*
X0037677Y0088508D01*
X0037744Y0088376D01*
X0037807Y0088242D01*
X0037867Y0088107D01*
X0037923Y0087970D01*
X0037976Y0087831D01*
X0038024Y0087691D01*
X0038069Y0087550D01*
X0038110Y0087408D01*
X0038148Y0087265D01*
X0038181Y0087121D01*
X0038211Y0086976D01*
X0038237Y0086830D01*
X0038258Y0086684D01*
X0038276Y0086537D01*
X0038290Y0086390D01*
X0038300Y0086242D01*
X0038306Y0086094D01*
X0038308Y0085946D01*
X0038306Y0085798D01*
X0038300Y0085650D01*
X0038290Y0085502D01*
X0038276Y0085355D01*
X0038258Y0085208D01*
X0038237Y0085062D01*
X0038211Y0084916D01*
X0038181Y0084771D01*
X0038148Y0084627D01*
X0038110Y0084484D01*
X0038069Y0084342D01*
X0038024Y0084201D01*
X0037976Y0084061D01*
X0037923Y0083922D01*
X0037867Y0083785D01*
X0037807Y0083650D01*
X0037744Y0083516D01*
X0037677Y0083384D01*
X0037606Y0083254D01*
X0037532Y0083126D01*
X0037455Y0083000D01*
X0037374Y0082876D01*
X0037290Y0082754D01*
X0037203Y0082635D01*
X0037112Y0082518D01*
X0037018Y0082403D01*
X0036922Y0082291D01*
X0036822Y0082181D01*
X0036720Y0082075D01*
X0036614Y0081971D01*
X0036506Y0081870D01*
X0036395Y0081772D01*
X0036282Y0081676D01*
X0036166Y0081584D01*
X0036048Y0081495D01*
X0035927Y0081410D01*
X0035804Y0081327D01*
X0035679Y0081248D01*
X0035552Y0081172D01*
X0035423Y0081100D01*
X0035292Y0081031D01*
X0035159Y0080966D01*
X0035024Y0080905D01*
X0034888Y0080847D01*
X0034751Y0080792D01*
X0034612Y0080742D01*
X0034471Y0080695D01*
X0034330Y0080652D01*
X0034187Y0080612D01*
X0034043Y0080577D01*
X0033899Y0080545D01*
X0033753Y0080518D01*
X0033607Y0080494D01*
X0033460Y0080474D01*
X0033313Y0080458D01*
X0033166Y0080446D01*
X0033018Y0080438D01*
X0032870Y0080434D01*
X0032722Y0080434D01*
X0032574Y0080438D01*
X0032426Y0080446D01*
X0032279Y0080458D01*
X0032132Y0080474D01*
X0031985Y0080494D01*
X0031839Y0080518D01*
X0031693Y0080545D01*
X0031549Y0080577D01*
X0031405Y0080612D01*
X0031262Y0080652D01*
X0031121Y0080695D01*
X0030980Y0080742D01*
X0030841Y0080792D01*
X0030704Y0080847D01*
X0030568Y0080905D01*
X0030433Y0080966D01*
X0030300Y0081031D01*
X0030169Y0081100D01*
X0030040Y0081172D01*
X0029913Y0081248D01*
X0029788Y0081327D01*
X0029665Y0081410D01*
X0029544Y0081495D01*
X0029426Y0081584D01*
X0029310Y0081676D01*
X0029197Y0081772D01*
X0029086Y0081870D01*
X0028978Y0081971D01*
X0028872Y0082075D01*
X0028770Y0082181D01*
X0028670Y0082291D01*
X0028574Y0082403D01*
X0028480Y0082518D01*
X0028389Y0082635D01*
X0028302Y0082754D01*
X0028218Y0082876D01*
X0028137Y0083000D01*
X0028060Y0083126D01*
X0027986Y0083254D01*
X0027915Y0083384D01*
X0027848Y0083516D01*
X0027785Y0083650D01*
X0027725Y0083785D01*
X0027669Y0083922D01*
X0027616Y0084061D01*
X0027568Y0084201D01*
X0027523Y0084342D01*
X0027482Y0084484D01*
X0027444Y0084627D01*
X0027411Y0084771D01*
X0027381Y0084916D01*
X0027355Y0085062D01*
X0027334Y0085208D01*
X0027316Y0085355D01*
X0027302Y0085502D01*
X0027292Y0085650D01*
X0027286Y0085798D01*
X0027284Y0085946D01*
X0047757Y0085946D02*
X0047759Y0086104D01*
X0047765Y0086262D01*
X0047775Y0086420D01*
X0047789Y0086578D01*
X0047807Y0086735D01*
X0047828Y0086892D01*
X0047854Y0087048D01*
X0047884Y0087204D01*
X0047917Y0087359D01*
X0047955Y0087512D01*
X0047996Y0087665D01*
X0048041Y0087817D01*
X0048090Y0087968D01*
X0048143Y0088117D01*
X0048199Y0088265D01*
X0048259Y0088411D01*
X0048323Y0088556D01*
X0048391Y0088699D01*
X0048462Y0088841D01*
X0048536Y0088981D01*
X0048614Y0089118D01*
X0048696Y0089254D01*
X0048780Y0089388D01*
X0048869Y0089519D01*
X0048960Y0089648D01*
X0049055Y0089775D01*
X0049152Y0089900D01*
X0049253Y0090022D01*
X0049357Y0090141D01*
X0049464Y0090258D01*
X0049574Y0090372D01*
X0049687Y0090483D01*
X0049802Y0090592D01*
X0049920Y0090697D01*
X0050041Y0090799D01*
X0050164Y0090899D01*
X0050290Y0090995D01*
X0050418Y0091088D01*
X0050548Y0091178D01*
X0050681Y0091264D01*
X0050816Y0091348D01*
X0050952Y0091427D01*
X0051091Y0091504D01*
X0051232Y0091576D01*
X0051374Y0091646D01*
X0051518Y0091711D01*
X0051664Y0091773D01*
X0051811Y0091831D01*
X0051960Y0091886D01*
X0052110Y0091937D01*
X0052261Y0091984D01*
X0052413Y0092027D01*
X0052566Y0092066D01*
X0052721Y0092102D01*
X0052876Y0092133D01*
X0053032Y0092161D01*
X0053188Y0092185D01*
X0053345Y0092205D01*
X0053503Y0092221D01*
X0053660Y0092233D01*
X0053819Y0092241D01*
X0053977Y0092245D01*
X0054135Y0092245D01*
X0054293Y0092241D01*
X0054452Y0092233D01*
X0054609Y0092221D01*
X0054767Y0092205D01*
X0054924Y0092185D01*
X0055080Y0092161D01*
X0055236Y0092133D01*
X0055391Y0092102D01*
X0055546Y0092066D01*
X0055699Y0092027D01*
X0055851Y0091984D01*
X0056002Y0091937D01*
X0056152Y0091886D01*
X0056301Y0091831D01*
X0056448Y0091773D01*
X0056594Y0091711D01*
X0056738Y0091646D01*
X0056880Y0091576D01*
X0057021Y0091504D01*
X0057160Y0091427D01*
X0057296Y0091348D01*
X0057431Y0091264D01*
X0057564Y0091178D01*
X0057694Y0091088D01*
X0057822Y0090995D01*
X0057948Y0090899D01*
X0058071Y0090799D01*
X0058192Y0090697D01*
X0058310Y0090592D01*
X0058425Y0090483D01*
X0058538Y0090372D01*
X0058648Y0090258D01*
X0058755Y0090141D01*
X0058859Y0090022D01*
X0058960Y0089900D01*
X0059057Y0089775D01*
X0059152Y0089648D01*
X0059243Y0089519D01*
X0059332Y0089388D01*
X0059416Y0089254D01*
X0059498Y0089118D01*
X0059576Y0088981D01*
X0059650Y0088841D01*
X0059721Y0088699D01*
X0059789Y0088556D01*
X0059853Y0088411D01*
X0059913Y0088265D01*
X0059969Y0088117D01*
X0060022Y0087968D01*
X0060071Y0087817D01*
X0060116Y0087665D01*
X0060157Y0087512D01*
X0060195Y0087359D01*
X0060228Y0087204D01*
X0060258Y0087048D01*
X0060284Y0086892D01*
X0060305Y0086735D01*
X0060323Y0086578D01*
X0060337Y0086420D01*
X0060347Y0086262D01*
X0060353Y0086104D01*
X0060355Y0085946D01*
X0060353Y0085788D01*
X0060347Y0085630D01*
X0060337Y0085472D01*
X0060323Y0085314D01*
X0060305Y0085157D01*
X0060284Y0085000D01*
X0060258Y0084844D01*
X0060228Y0084688D01*
X0060195Y0084533D01*
X0060157Y0084380D01*
X0060116Y0084227D01*
X0060071Y0084075D01*
X0060022Y0083924D01*
X0059969Y0083775D01*
X0059913Y0083627D01*
X0059853Y0083481D01*
X0059789Y0083336D01*
X0059721Y0083193D01*
X0059650Y0083051D01*
X0059576Y0082911D01*
X0059498Y0082774D01*
X0059416Y0082638D01*
X0059332Y0082504D01*
X0059243Y0082373D01*
X0059152Y0082244D01*
X0059057Y0082117D01*
X0058960Y0081992D01*
X0058859Y0081870D01*
X0058755Y0081751D01*
X0058648Y0081634D01*
X0058538Y0081520D01*
X0058425Y0081409D01*
X0058310Y0081300D01*
X0058192Y0081195D01*
X0058071Y0081093D01*
X0057948Y0080993D01*
X0057822Y0080897D01*
X0057694Y0080804D01*
X0057564Y0080714D01*
X0057431Y0080628D01*
X0057296Y0080544D01*
X0057160Y0080465D01*
X0057021Y0080388D01*
X0056880Y0080316D01*
X0056738Y0080246D01*
X0056594Y0080181D01*
X0056448Y0080119D01*
X0056301Y0080061D01*
X0056152Y0080006D01*
X0056002Y0079955D01*
X0055851Y0079908D01*
X0055699Y0079865D01*
X0055546Y0079826D01*
X0055391Y0079790D01*
X0055236Y0079759D01*
X0055080Y0079731D01*
X0054924Y0079707D01*
X0054767Y0079687D01*
X0054609Y0079671D01*
X0054452Y0079659D01*
X0054293Y0079651D01*
X0054135Y0079647D01*
X0053977Y0079647D01*
X0053819Y0079651D01*
X0053660Y0079659D01*
X0053503Y0079671D01*
X0053345Y0079687D01*
X0053188Y0079707D01*
X0053032Y0079731D01*
X0052876Y0079759D01*
X0052721Y0079790D01*
X0052566Y0079826D01*
X0052413Y0079865D01*
X0052261Y0079908D01*
X0052110Y0079955D01*
X0051960Y0080006D01*
X0051811Y0080061D01*
X0051664Y0080119D01*
X0051518Y0080181D01*
X0051374Y0080246D01*
X0051232Y0080316D01*
X0051091Y0080388D01*
X0050952Y0080465D01*
X0050816Y0080544D01*
X0050681Y0080628D01*
X0050548Y0080714D01*
X0050418Y0080804D01*
X0050290Y0080897D01*
X0050164Y0080993D01*
X0050041Y0081093D01*
X0049920Y0081195D01*
X0049802Y0081300D01*
X0049687Y0081409D01*
X0049574Y0081520D01*
X0049464Y0081634D01*
X0049357Y0081751D01*
X0049253Y0081870D01*
X0049152Y0081992D01*
X0049055Y0082117D01*
X0048960Y0082244D01*
X0048869Y0082373D01*
X0048780Y0082504D01*
X0048696Y0082638D01*
X0048614Y0082774D01*
X0048536Y0082911D01*
X0048462Y0083051D01*
X0048391Y0083193D01*
X0048323Y0083336D01*
X0048259Y0083481D01*
X0048199Y0083627D01*
X0048143Y0083775D01*
X0048090Y0083924D01*
X0048041Y0084075D01*
X0047996Y0084227D01*
X0047955Y0084380D01*
X0047917Y0084533D01*
X0047884Y0084688D01*
X0047854Y0084844D01*
X0047828Y0085000D01*
X0047807Y0085157D01*
X0047789Y0085314D01*
X0047775Y0085472D01*
X0047765Y0085630D01*
X0047759Y0085788D01*
X0047757Y0085946D01*
X0047757Y0200119D02*
X0047759Y0200277D01*
X0047765Y0200435D01*
X0047775Y0200593D01*
X0047789Y0200751D01*
X0047807Y0200908D01*
X0047828Y0201065D01*
X0047854Y0201221D01*
X0047884Y0201377D01*
X0047917Y0201532D01*
X0047955Y0201685D01*
X0047996Y0201838D01*
X0048041Y0201990D01*
X0048090Y0202141D01*
X0048143Y0202290D01*
X0048199Y0202438D01*
X0048259Y0202584D01*
X0048323Y0202729D01*
X0048391Y0202872D01*
X0048462Y0203014D01*
X0048536Y0203154D01*
X0048614Y0203291D01*
X0048696Y0203427D01*
X0048780Y0203561D01*
X0048869Y0203692D01*
X0048960Y0203821D01*
X0049055Y0203948D01*
X0049152Y0204073D01*
X0049253Y0204195D01*
X0049357Y0204314D01*
X0049464Y0204431D01*
X0049574Y0204545D01*
X0049687Y0204656D01*
X0049802Y0204765D01*
X0049920Y0204870D01*
X0050041Y0204972D01*
X0050164Y0205072D01*
X0050290Y0205168D01*
X0050418Y0205261D01*
X0050548Y0205351D01*
X0050681Y0205437D01*
X0050816Y0205521D01*
X0050952Y0205600D01*
X0051091Y0205677D01*
X0051232Y0205749D01*
X0051374Y0205819D01*
X0051518Y0205884D01*
X0051664Y0205946D01*
X0051811Y0206004D01*
X0051960Y0206059D01*
X0052110Y0206110D01*
X0052261Y0206157D01*
X0052413Y0206200D01*
X0052566Y0206239D01*
X0052721Y0206275D01*
X0052876Y0206306D01*
X0053032Y0206334D01*
X0053188Y0206358D01*
X0053345Y0206378D01*
X0053503Y0206394D01*
X0053660Y0206406D01*
X0053819Y0206414D01*
X0053977Y0206418D01*
X0054135Y0206418D01*
X0054293Y0206414D01*
X0054452Y0206406D01*
X0054609Y0206394D01*
X0054767Y0206378D01*
X0054924Y0206358D01*
X0055080Y0206334D01*
X0055236Y0206306D01*
X0055391Y0206275D01*
X0055546Y0206239D01*
X0055699Y0206200D01*
X0055851Y0206157D01*
X0056002Y0206110D01*
X0056152Y0206059D01*
X0056301Y0206004D01*
X0056448Y0205946D01*
X0056594Y0205884D01*
X0056738Y0205819D01*
X0056880Y0205749D01*
X0057021Y0205677D01*
X0057160Y0205600D01*
X0057296Y0205521D01*
X0057431Y0205437D01*
X0057564Y0205351D01*
X0057694Y0205261D01*
X0057822Y0205168D01*
X0057948Y0205072D01*
X0058071Y0204972D01*
X0058192Y0204870D01*
X0058310Y0204765D01*
X0058425Y0204656D01*
X0058538Y0204545D01*
X0058648Y0204431D01*
X0058755Y0204314D01*
X0058859Y0204195D01*
X0058960Y0204073D01*
X0059057Y0203948D01*
X0059152Y0203821D01*
X0059243Y0203692D01*
X0059332Y0203561D01*
X0059416Y0203427D01*
X0059498Y0203291D01*
X0059576Y0203154D01*
X0059650Y0203014D01*
X0059721Y0202872D01*
X0059789Y0202729D01*
X0059853Y0202584D01*
X0059913Y0202438D01*
X0059969Y0202290D01*
X0060022Y0202141D01*
X0060071Y0201990D01*
X0060116Y0201838D01*
X0060157Y0201685D01*
X0060195Y0201532D01*
X0060228Y0201377D01*
X0060258Y0201221D01*
X0060284Y0201065D01*
X0060305Y0200908D01*
X0060323Y0200751D01*
X0060337Y0200593D01*
X0060347Y0200435D01*
X0060353Y0200277D01*
X0060355Y0200119D01*
X0060353Y0199961D01*
X0060347Y0199803D01*
X0060337Y0199645D01*
X0060323Y0199487D01*
X0060305Y0199330D01*
X0060284Y0199173D01*
X0060258Y0199017D01*
X0060228Y0198861D01*
X0060195Y0198706D01*
X0060157Y0198553D01*
X0060116Y0198400D01*
X0060071Y0198248D01*
X0060022Y0198097D01*
X0059969Y0197948D01*
X0059913Y0197800D01*
X0059853Y0197654D01*
X0059789Y0197509D01*
X0059721Y0197366D01*
X0059650Y0197224D01*
X0059576Y0197084D01*
X0059498Y0196947D01*
X0059416Y0196811D01*
X0059332Y0196677D01*
X0059243Y0196546D01*
X0059152Y0196417D01*
X0059057Y0196290D01*
X0058960Y0196165D01*
X0058859Y0196043D01*
X0058755Y0195924D01*
X0058648Y0195807D01*
X0058538Y0195693D01*
X0058425Y0195582D01*
X0058310Y0195473D01*
X0058192Y0195368D01*
X0058071Y0195266D01*
X0057948Y0195166D01*
X0057822Y0195070D01*
X0057694Y0194977D01*
X0057564Y0194887D01*
X0057431Y0194801D01*
X0057296Y0194717D01*
X0057160Y0194638D01*
X0057021Y0194561D01*
X0056880Y0194489D01*
X0056738Y0194419D01*
X0056594Y0194354D01*
X0056448Y0194292D01*
X0056301Y0194234D01*
X0056152Y0194179D01*
X0056002Y0194128D01*
X0055851Y0194081D01*
X0055699Y0194038D01*
X0055546Y0193999D01*
X0055391Y0193963D01*
X0055236Y0193932D01*
X0055080Y0193904D01*
X0054924Y0193880D01*
X0054767Y0193860D01*
X0054609Y0193844D01*
X0054452Y0193832D01*
X0054293Y0193824D01*
X0054135Y0193820D01*
X0053977Y0193820D01*
X0053819Y0193824D01*
X0053660Y0193832D01*
X0053503Y0193844D01*
X0053345Y0193860D01*
X0053188Y0193880D01*
X0053032Y0193904D01*
X0052876Y0193932D01*
X0052721Y0193963D01*
X0052566Y0193999D01*
X0052413Y0194038D01*
X0052261Y0194081D01*
X0052110Y0194128D01*
X0051960Y0194179D01*
X0051811Y0194234D01*
X0051664Y0194292D01*
X0051518Y0194354D01*
X0051374Y0194419D01*
X0051232Y0194489D01*
X0051091Y0194561D01*
X0050952Y0194638D01*
X0050816Y0194717D01*
X0050681Y0194801D01*
X0050548Y0194887D01*
X0050418Y0194977D01*
X0050290Y0195070D01*
X0050164Y0195166D01*
X0050041Y0195266D01*
X0049920Y0195368D01*
X0049802Y0195473D01*
X0049687Y0195582D01*
X0049574Y0195693D01*
X0049464Y0195807D01*
X0049357Y0195924D01*
X0049253Y0196043D01*
X0049152Y0196165D01*
X0049055Y0196290D01*
X0048960Y0196417D01*
X0048869Y0196546D01*
X0048780Y0196677D01*
X0048696Y0196811D01*
X0048614Y0196947D01*
X0048536Y0197084D01*
X0048462Y0197224D01*
X0048391Y0197366D01*
X0048323Y0197509D01*
X0048259Y0197654D01*
X0048199Y0197800D01*
X0048143Y0197948D01*
X0048090Y0198097D01*
X0048041Y0198248D01*
X0047996Y0198400D01*
X0047955Y0198553D01*
X0047917Y0198706D01*
X0047884Y0198861D01*
X0047854Y0199017D01*
X0047828Y0199173D01*
X0047807Y0199330D01*
X0047789Y0199487D01*
X0047775Y0199645D01*
X0047765Y0199803D01*
X0047759Y0199961D01*
X0047757Y0200119D01*
X0027284Y0200119D02*
X0027286Y0200267D01*
X0027292Y0200415D01*
X0027302Y0200563D01*
X0027316Y0200710D01*
X0027334Y0200857D01*
X0027355Y0201003D01*
X0027381Y0201149D01*
X0027411Y0201294D01*
X0027444Y0201438D01*
X0027482Y0201581D01*
X0027523Y0201723D01*
X0027568Y0201864D01*
X0027616Y0202004D01*
X0027669Y0202143D01*
X0027725Y0202280D01*
X0027785Y0202415D01*
X0027848Y0202549D01*
X0027915Y0202681D01*
X0027986Y0202811D01*
X0028060Y0202939D01*
X0028137Y0203065D01*
X0028218Y0203189D01*
X0028302Y0203311D01*
X0028389Y0203430D01*
X0028480Y0203547D01*
X0028574Y0203662D01*
X0028670Y0203774D01*
X0028770Y0203884D01*
X0028872Y0203990D01*
X0028978Y0204094D01*
X0029086Y0204195D01*
X0029197Y0204293D01*
X0029310Y0204389D01*
X0029426Y0204481D01*
X0029544Y0204570D01*
X0029665Y0204655D01*
X0029788Y0204738D01*
X0029913Y0204817D01*
X0030040Y0204893D01*
X0030169Y0204965D01*
X0030300Y0205034D01*
X0030433Y0205099D01*
X0030568Y0205160D01*
X0030704Y0205218D01*
X0030841Y0205273D01*
X0030980Y0205323D01*
X0031121Y0205370D01*
X0031262Y0205413D01*
X0031405Y0205453D01*
X0031549Y0205488D01*
X0031693Y0205520D01*
X0031839Y0205547D01*
X0031985Y0205571D01*
X0032132Y0205591D01*
X0032279Y0205607D01*
X0032426Y0205619D01*
X0032574Y0205627D01*
X0032722Y0205631D01*
X0032870Y0205631D01*
X0033018Y0205627D01*
X0033166Y0205619D01*
X0033313Y0205607D01*
X0033460Y0205591D01*
X0033607Y0205571D01*
X0033753Y0205547D01*
X0033899Y0205520D01*
X0034043Y0205488D01*
X0034187Y0205453D01*
X0034330Y0205413D01*
X0034471Y0205370D01*
X0034612Y0205323D01*
X0034751Y0205273D01*
X0034888Y0205218D01*
X0035024Y0205160D01*
X0035159Y0205099D01*
X0035292Y0205034D01*
X0035423Y0204965D01*
X0035552Y0204893D01*
X0035679Y0204817D01*
X0035804Y0204738D01*
X0035927Y0204655D01*
X0036048Y0204570D01*
X0036166Y0204481D01*
X0036282Y0204389D01*
X0036395Y0204293D01*
X0036506Y0204195D01*
X0036614Y0204094D01*
X0036720Y0203990D01*
X0036822Y0203884D01*
X0036922Y0203774D01*
X0037018Y0203662D01*
X0037112Y0203547D01*
X0037203Y0203430D01*
X0037290Y0203311D01*
X0037374Y0203189D01*
X0037455Y0203065D01*
X0037532Y0202939D01*
X0037606Y0202811D01*
X0037677Y0202681D01*
X0037744Y0202549D01*
X0037807Y0202415D01*
X0037867Y0202280D01*
X0037923Y0202143D01*
X0037976Y0202004D01*
X0038024Y0201864D01*
X0038069Y0201723D01*
X0038110Y0201581D01*
X0038148Y0201438D01*
X0038181Y0201294D01*
X0038211Y0201149D01*
X0038237Y0201003D01*
X0038258Y0200857D01*
X0038276Y0200710D01*
X0038290Y0200563D01*
X0038300Y0200415D01*
X0038306Y0200267D01*
X0038308Y0200119D01*
X0038306Y0199971D01*
X0038300Y0199823D01*
X0038290Y0199675D01*
X0038276Y0199528D01*
X0038258Y0199381D01*
X0038237Y0199235D01*
X0038211Y0199089D01*
X0038181Y0198944D01*
X0038148Y0198800D01*
X0038110Y0198657D01*
X0038069Y0198515D01*
X0038024Y0198374D01*
X0037976Y0198234D01*
X0037923Y0198095D01*
X0037867Y0197958D01*
X0037807Y0197823D01*
X0037744Y0197689D01*
X0037677Y0197557D01*
X0037606Y0197427D01*
X0037532Y0197299D01*
X0037455Y0197173D01*
X0037374Y0197049D01*
X0037290Y0196927D01*
X0037203Y0196808D01*
X0037112Y0196691D01*
X0037018Y0196576D01*
X0036922Y0196464D01*
X0036822Y0196354D01*
X0036720Y0196248D01*
X0036614Y0196144D01*
X0036506Y0196043D01*
X0036395Y0195945D01*
X0036282Y0195849D01*
X0036166Y0195757D01*
X0036048Y0195668D01*
X0035927Y0195583D01*
X0035804Y0195500D01*
X0035679Y0195421D01*
X0035552Y0195345D01*
X0035423Y0195273D01*
X0035292Y0195204D01*
X0035159Y0195139D01*
X0035024Y0195078D01*
X0034888Y0195020D01*
X0034751Y0194965D01*
X0034612Y0194915D01*
X0034471Y0194868D01*
X0034330Y0194825D01*
X0034187Y0194785D01*
X0034043Y0194750D01*
X0033899Y0194718D01*
X0033753Y0194691D01*
X0033607Y0194667D01*
X0033460Y0194647D01*
X0033313Y0194631D01*
X0033166Y0194619D01*
X0033018Y0194611D01*
X0032870Y0194607D01*
X0032722Y0194607D01*
X0032574Y0194611D01*
X0032426Y0194619D01*
X0032279Y0194631D01*
X0032132Y0194647D01*
X0031985Y0194667D01*
X0031839Y0194691D01*
X0031693Y0194718D01*
X0031549Y0194750D01*
X0031405Y0194785D01*
X0031262Y0194825D01*
X0031121Y0194868D01*
X0030980Y0194915D01*
X0030841Y0194965D01*
X0030704Y0195020D01*
X0030568Y0195078D01*
X0030433Y0195139D01*
X0030300Y0195204D01*
X0030169Y0195273D01*
X0030040Y0195345D01*
X0029913Y0195421D01*
X0029788Y0195500D01*
X0029665Y0195583D01*
X0029544Y0195668D01*
X0029426Y0195757D01*
X0029310Y0195849D01*
X0029197Y0195945D01*
X0029086Y0196043D01*
X0028978Y0196144D01*
X0028872Y0196248D01*
X0028770Y0196354D01*
X0028670Y0196464D01*
X0028574Y0196576D01*
X0028480Y0196691D01*
X0028389Y0196808D01*
X0028302Y0196927D01*
X0028218Y0197049D01*
X0028137Y0197173D01*
X0028060Y0197299D01*
X0027986Y0197427D01*
X0027915Y0197557D01*
X0027848Y0197689D01*
X0027785Y0197823D01*
X0027725Y0197958D01*
X0027669Y0198095D01*
X0027616Y0198234D01*
X0027568Y0198374D01*
X0027523Y0198515D01*
X0027482Y0198657D01*
X0027444Y0198800D01*
X0027411Y0198944D01*
X0027381Y0199089D01*
X0027355Y0199235D01*
X0027334Y0199381D01*
X0027316Y0199528D01*
X0027302Y0199675D01*
X0027292Y0199823D01*
X0027286Y0199971D01*
X0027284Y0200119D01*
X0006812Y0272954D02*
X0006814Y0273112D01*
X0006820Y0273270D01*
X0006830Y0273428D01*
X0006844Y0273586D01*
X0006862Y0273743D01*
X0006883Y0273900D01*
X0006909Y0274056D01*
X0006939Y0274212D01*
X0006972Y0274367D01*
X0007010Y0274520D01*
X0007051Y0274673D01*
X0007096Y0274825D01*
X0007145Y0274976D01*
X0007198Y0275125D01*
X0007254Y0275273D01*
X0007314Y0275419D01*
X0007378Y0275564D01*
X0007446Y0275707D01*
X0007517Y0275849D01*
X0007591Y0275989D01*
X0007669Y0276126D01*
X0007751Y0276262D01*
X0007835Y0276396D01*
X0007924Y0276527D01*
X0008015Y0276656D01*
X0008110Y0276783D01*
X0008207Y0276908D01*
X0008308Y0277030D01*
X0008412Y0277149D01*
X0008519Y0277266D01*
X0008629Y0277380D01*
X0008742Y0277491D01*
X0008857Y0277600D01*
X0008975Y0277705D01*
X0009096Y0277807D01*
X0009219Y0277907D01*
X0009345Y0278003D01*
X0009473Y0278096D01*
X0009603Y0278186D01*
X0009736Y0278272D01*
X0009871Y0278356D01*
X0010007Y0278435D01*
X0010146Y0278512D01*
X0010287Y0278584D01*
X0010429Y0278654D01*
X0010573Y0278719D01*
X0010719Y0278781D01*
X0010866Y0278839D01*
X0011015Y0278894D01*
X0011165Y0278945D01*
X0011316Y0278992D01*
X0011468Y0279035D01*
X0011621Y0279074D01*
X0011776Y0279110D01*
X0011931Y0279141D01*
X0012087Y0279169D01*
X0012243Y0279193D01*
X0012400Y0279213D01*
X0012558Y0279229D01*
X0012715Y0279241D01*
X0012874Y0279249D01*
X0013032Y0279253D01*
X0013190Y0279253D01*
X0013348Y0279249D01*
X0013507Y0279241D01*
X0013664Y0279229D01*
X0013822Y0279213D01*
X0013979Y0279193D01*
X0014135Y0279169D01*
X0014291Y0279141D01*
X0014446Y0279110D01*
X0014601Y0279074D01*
X0014754Y0279035D01*
X0014906Y0278992D01*
X0015057Y0278945D01*
X0015207Y0278894D01*
X0015356Y0278839D01*
X0015503Y0278781D01*
X0015649Y0278719D01*
X0015793Y0278654D01*
X0015935Y0278584D01*
X0016076Y0278512D01*
X0016215Y0278435D01*
X0016351Y0278356D01*
X0016486Y0278272D01*
X0016619Y0278186D01*
X0016749Y0278096D01*
X0016877Y0278003D01*
X0017003Y0277907D01*
X0017126Y0277807D01*
X0017247Y0277705D01*
X0017365Y0277600D01*
X0017480Y0277491D01*
X0017593Y0277380D01*
X0017703Y0277266D01*
X0017810Y0277149D01*
X0017914Y0277030D01*
X0018015Y0276908D01*
X0018112Y0276783D01*
X0018207Y0276656D01*
X0018298Y0276527D01*
X0018387Y0276396D01*
X0018471Y0276262D01*
X0018553Y0276126D01*
X0018631Y0275989D01*
X0018705Y0275849D01*
X0018776Y0275707D01*
X0018844Y0275564D01*
X0018908Y0275419D01*
X0018968Y0275273D01*
X0019024Y0275125D01*
X0019077Y0274976D01*
X0019126Y0274825D01*
X0019171Y0274673D01*
X0019212Y0274520D01*
X0019250Y0274367D01*
X0019283Y0274212D01*
X0019313Y0274056D01*
X0019339Y0273900D01*
X0019360Y0273743D01*
X0019378Y0273586D01*
X0019392Y0273428D01*
X0019402Y0273270D01*
X0019408Y0273112D01*
X0019410Y0272954D01*
X0019408Y0272796D01*
X0019402Y0272638D01*
X0019392Y0272480D01*
X0019378Y0272322D01*
X0019360Y0272165D01*
X0019339Y0272008D01*
X0019313Y0271852D01*
X0019283Y0271696D01*
X0019250Y0271541D01*
X0019212Y0271388D01*
X0019171Y0271235D01*
X0019126Y0271083D01*
X0019077Y0270932D01*
X0019024Y0270783D01*
X0018968Y0270635D01*
X0018908Y0270489D01*
X0018844Y0270344D01*
X0018776Y0270201D01*
X0018705Y0270059D01*
X0018631Y0269919D01*
X0018553Y0269782D01*
X0018471Y0269646D01*
X0018387Y0269512D01*
X0018298Y0269381D01*
X0018207Y0269252D01*
X0018112Y0269125D01*
X0018015Y0269000D01*
X0017914Y0268878D01*
X0017810Y0268759D01*
X0017703Y0268642D01*
X0017593Y0268528D01*
X0017480Y0268417D01*
X0017365Y0268308D01*
X0017247Y0268203D01*
X0017126Y0268101D01*
X0017003Y0268001D01*
X0016877Y0267905D01*
X0016749Y0267812D01*
X0016619Y0267722D01*
X0016486Y0267636D01*
X0016351Y0267552D01*
X0016215Y0267473D01*
X0016076Y0267396D01*
X0015935Y0267324D01*
X0015793Y0267254D01*
X0015649Y0267189D01*
X0015503Y0267127D01*
X0015356Y0267069D01*
X0015207Y0267014D01*
X0015057Y0266963D01*
X0014906Y0266916D01*
X0014754Y0266873D01*
X0014601Y0266834D01*
X0014446Y0266798D01*
X0014291Y0266767D01*
X0014135Y0266739D01*
X0013979Y0266715D01*
X0013822Y0266695D01*
X0013664Y0266679D01*
X0013507Y0266667D01*
X0013348Y0266659D01*
X0013190Y0266655D01*
X0013032Y0266655D01*
X0012874Y0266659D01*
X0012715Y0266667D01*
X0012558Y0266679D01*
X0012400Y0266695D01*
X0012243Y0266715D01*
X0012087Y0266739D01*
X0011931Y0266767D01*
X0011776Y0266798D01*
X0011621Y0266834D01*
X0011468Y0266873D01*
X0011316Y0266916D01*
X0011165Y0266963D01*
X0011015Y0267014D01*
X0010866Y0267069D01*
X0010719Y0267127D01*
X0010573Y0267189D01*
X0010429Y0267254D01*
X0010287Y0267324D01*
X0010146Y0267396D01*
X0010007Y0267473D01*
X0009871Y0267552D01*
X0009736Y0267636D01*
X0009603Y0267722D01*
X0009473Y0267812D01*
X0009345Y0267905D01*
X0009219Y0268001D01*
X0009096Y0268101D01*
X0008975Y0268203D01*
X0008857Y0268308D01*
X0008742Y0268417D01*
X0008629Y0268528D01*
X0008519Y0268642D01*
X0008412Y0268759D01*
X0008308Y0268878D01*
X0008207Y0269000D01*
X0008110Y0269125D01*
X0008015Y0269252D01*
X0007924Y0269381D01*
X0007835Y0269512D01*
X0007751Y0269646D01*
X0007669Y0269782D01*
X0007591Y0269919D01*
X0007517Y0270059D01*
X0007446Y0270201D01*
X0007378Y0270344D01*
X0007314Y0270489D01*
X0007254Y0270635D01*
X0007198Y0270783D01*
X0007145Y0270932D01*
X0007096Y0271083D01*
X0007051Y0271235D01*
X0007010Y0271388D01*
X0006972Y0271541D01*
X0006939Y0271696D01*
X0006909Y0271852D01*
X0006883Y0272008D01*
X0006862Y0272165D01*
X0006844Y0272322D01*
X0006830Y0272480D01*
X0006820Y0272638D01*
X0006814Y0272796D01*
X0006812Y0272954D01*
X0168229Y0272954D02*
X0168231Y0273112D01*
X0168237Y0273270D01*
X0168247Y0273428D01*
X0168261Y0273586D01*
X0168279Y0273743D01*
X0168300Y0273900D01*
X0168326Y0274056D01*
X0168356Y0274212D01*
X0168389Y0274367D01*
X0168427Y0274520D01*
X0168468Y0274673D01*
X0168513Y0274825D01*
X0168562Y0274976D01*
X0168615Y0275125D01*
X0168671Y0275273D01*
X0168731Y0275419D01*
X0168795Y0275564D01*
X0168863Y0275707D01*
X0168934Y0275849D01*
X0169008Y0275989D01*
X0169086Y0276126D01*
X0169168Y0276262D01*
X0169252Y0276396D01*
X0169341Y0276527D01*
X0169432Y0276656D01*
X0169527Y0276783D01*
X0169624Y0276908D01*
X0169725Y0277030D01*
X0169829Y0277149D01*
X0169936Y0277266D01*
X0170046Y0277380D01*
X0170159Y0277491D01*
X0170274Y0277600D01*
X0170392Y0277705D01*
X0170513Y0277807D01*
X0170636Y0277907D01*
X0170762Y0278003D01*
X0170890Y0278096D01*
X0171020Y0278186D01*
X0171153Y0278272D01*
X0171288Y0278356D01*
X0171424Y0278435D01*
X0171563Y0278512D01*
X0171704Y0278584D01*
X0171846Y0278654D01*
X0171990Y0278719D01*
X0172136Y0278781D01*
X0172283Y0278839D01*
X0172432Y0278894D01*
X0172582Y0278945D01*
X0172733Y0278992D01*
X0172885Y0279035D01*
X0173038Y0279074D01*
X0173193Y0279110D01*
X0173348Y0279141D01*
X0173504Y0279169D01*
X0173660Y0279193D01*
X0173817Y0279213D01*
X0173975Y0279229D01*
X0174132Y0279241D01*
X0174291Y0279249D01*
X0174449Y0279253D01*
X0174607Y0279253D01*
X0174765Y0279249D01*
X0174924Y0279241D01*
X0175081Y0279229D01*
X0175239Y0279213D01*
X0175396Y0279193D01*
X0175552Y0279169D01*
X0175708Y0279141D01*
X0175863Y0279110D01*
X0176018Y0279074D01*
X0176171Y0279035D01*
X0176323Y0278992D01*
X0176474Y0278945D01*
X0176624Y0278894D01*
X0176773Y0278839D01*
X0176920Y0278781D01*
X0177066Y0278719D01*
X0177210Y0278654D01*
X0177352Y0278584D01*
X0177493Y0278512D01*
X0177632Y0278435D01*
X0177768Y0278356D01*
X0177903Y0278272D01*
X0178036Y0278186D01*
X0178166Y0278096D01*
X0178294Y0278003D01*
X0178420Y0277907D01*
X0178543Y0277807D01*
X0178664Y0277705D01*
X0178782Y0277600D01*
X0178897Y0277491D01*
X0179010Y0277380D01*
X0179120Y0277266D01*
X0179227Y0277149D01*
X0179331Y0277030D01*
X0179432Y0276908D01*
X0179529Y0276783D01*
X0179624Y0276656D01*
X0179715Y0276527D01*
X0179804Y0276396D01*
X0179888Y0276262D01*
X0179970Y0276126D01*
X0180048Y0275989D01*
X0180122Y0275849D01*
X0180193Y0275707D01*
X0180261Y0275564D01*
X0180325Y0275419D01*
X0180385Y0275273D01*
X0180441Y0275125D01*
X0180494Y0274976D01*
X0180543Y0274825D01*
X0180588Y0274673D01*
X0180629Y0274520D01*
X0180667Y0274367D01*
X0180700Y0274212D01*
X0180730Y0274056D01*
X0180756Y0273900D01*
X0180777Y0273743D01*
X0180795Y0273586D01*
X0180809Y0273428D01*
X0180819Y0273270D01*
X0180825Y0273112D01*
X0180827Y0272954D01*
X0180825Y0272796D01*
X0180819Y0272638D01*
X0180809Y0272480D01*
X0180795Y0272322D01*
X0180777Y0272165D01*
X0180756Y0272008D01*
X0180730Y0271852D01*
X0180700Y0271696D01*
X0180667Y0271541D01*
X0180629Y0271388D01*
X0180588Y0271235D01*
X0180543Y0271083D01*
X0180494Y0270932D01*
X0180441Y0270783D01*
X0180385Y0270635D01*
X0180325Y0270489D01*
X0180261Y0270344D01*
X0180193Y0270201D01*
X0180122Y0270059D01*
X0180048Y0269919D01*
X0179970Y0269782D01*
X0179888Y0269646D01*
X0179804Y0269512D01*
X0179715Y0269381D01*
X0179624Y0269252D01*
X0179529Y0269125D01*
X0179432Y0269000D01*
X0179331Y0268878D01*
X0179227Y0268759D01*
X0179120Y0268642D01*
X0179010Y0268528D01*
X0178897Y0268417D01*
X0178782Y0268308D01*
X0178664Y0268203D01*
X0178543Y0268101D01*
X0178420Y0268001D01*
X0178294Y0267905D01*
X0178166Y0267812D01*
X0178036Y0267722D01*
X0177903Y0267636D01*
X0177768Y0267552D01*
X0177632Y0267473D01*
X0177493Y0267396D01*
X0177352Y0267324D01*
X0177210Y0267254D01*
X0177066Y0267189D01*
X0176920Y0267127D01*
X0176773Y0267069D01*
X0176624Y0267014D01*
X0176474Y0266963D01*
X0176323Y0266916D01*
X0176171Y0266873D01*
X0176018Y0266834D01*
X0175863Y0266798D01*
X0175708Y0266767D01*
X0175552Y0266739D01*
X0175396Y0266715D01*
X0175239Y0266695D01*
X0175081Y0266679D01*
X0174924Y0266667D01*
X0174765Y0266659D01*
X0174607Y0266655D01*
X0174449Y0266655D01*
X0174291Y0266659D01*
X0174132Y0266667D01*
X0173975Y0266679D01*
X0173817Y0266695D01*
X0173660Y0266715D01*
X0173504Y0266739D01*
X0173348Y0266767D01*
X0173193Y0266798D01*
X0173038Y0266834D01*
X0172885Y0266873D01*
X0172733Y0266916D01*
X0172582Y0266963D01*
X0172432Y0267014D01*
X0172283Y0267069D01*
X0172136Y0267127D01*
X0171990Y0267189D01*
X0171846Y0267254D01*
X0171704Y0267324D01*
X0171563Y0267396D01*
X0171424Y0267473D01*
X0171288Y0267552D01*
X0171153Y0267636D01*
X0171020Y0267722D01*
X0170890Y0267812D01*
X0170762Y0267905D01*
X0170636Y0268001D01*
X0170513Y0268101D01*
X0170392Y0268203D01*
X0170274Y0268308D01*
X0170159Y0268417D01*
X0170046Y0268528D01*
X0169936Y0268642D01*
X0169829Y0268759D01*
X0169725Y0268878D01*
X0169624Y0269000D01*
X0169527Y0269125D01*
X0169432Y0269252D01*
X0169341Y0269381D01*
X0169252Y0269512D01*
X0169168Y0269646D01*
X0169086Y0269782D01*
X0169008Y0269919D01*
X0168934Y0270059D01*
X0168863Y0270201D01*
X0168795Y0270344D01*
X0168731Y0270489D01*
X0168671Y0270635D01*
X0168615Y0270783D01*
X0168562Y0270932D01*
X0168513Y0271083D01*
X0168468Y0271235D01*
X0168427Y0271388D01*
X0168389Y0271541D01*
X0168356Y0271696D01*
X0168326Y0271852D01*
X0168300Y0272008D01*
X0168279Y0272165D01*
X0168261Y0272322D01*
X0168247Y0272480D01*
X0168237Y0272638D01*
X0168231Y0272796D01*
X0168229Y0272954D01*
X0168229Y0013111D02*
X0168231Y0013269D01*
X0168237Y0013427D01*
X0168247Y0013585D01*
X0168261Y0013743D01*
X0168279Y0013900D01*
X0168300Y0014057D01*
X0168326Y0014213D01*
X0168356Y0014369D01*
X0168389Y0014524D01*
X0168427Y0014677D01*
X0168468Y0014830D01*
X0168513Y0014982D01*
X0168562Y0015133D01*
X0168615Y0015282D01*
X0168671Y0015430D01*
X0168731Y0015576D01*
X0168795Y0015721D01*
X0168863Y0015864D01*
X0168934Y0016006D01*
X0169008Y0016146D01*
X0169086Y0016283D01*
X0169168Y0016419D01*
X0169252Y0016553D01*
X0169341Y0016684D01*
X0169432Y0016813D01*
X0169527Y0016940D01*
X0169624Y0017065D01*
X0169725Y0017187D01*
X0169829Y0017306D01*
X0169936Y0017423D01*
X0170046Y0017537D01*
X0170159Y0017648D01*
X0170274Y0017757D01*
X0170392Y0017862D01*
X0170513Y0017964D01*
X0170636Y0018064D01*
X0170762Y0018160D01*
X0170890Y0018253D01*
X0171020Y0018343D01*
X0171153Y0018429D01*
X0171288Y0018513D01*
X0171424Y0018592D01*
X0171563Y0018669D01*
X0171704Y0018741D01*
X0171846Y0018811D01*
X0171990Y0018876D01*
X0172136Y0018938D01*
X0172283Y0018996D01*
X0172432Y0019051D01*
X0172582Y0019102D01*
X0172733Y0019149D01*
X0172885Y0019192D01*
X0173038Y0019231D01*
X0173193Y0019267D01*
X0173348Y0019298D01*
X0173504Y0019326D01*
X0173660Y0019350D01*
X0173817Y0019370D01*
X0173975Y0019386D01*
X0174132Y0019398D01*
X0174291Y0019406D01*
X0174449Y0019410D01*
X0174607Y0019410D01*
X0174765Y0019406D01*
X0174924Y0019398D01*
X0175081Y0019386D01*
X0175239Y0019370D01*
X0175396Y0019350D01*
X0175552Y0019326D01*
X0175708Y0019298D01*
X0175863Y0019267D01*
X0176018Y0019231D01*
X0176171Y0019192D01*
X0176323Y0019149D01*
X0176474Y0019102D01*
X0176624Y0019051D01*
X0176773Y0018996D01*
X0176920Y0018938D01*
X0177066Y0018876D01*
X0177210Y0018811D01*
X0177352Y0018741D01*
X0177493Y0018669D01*
X0177632Y0018592D01*
X0177768Y0018513D01*
X0177903Y0018429D01*
X0178036Y0018343D01*
X0178166Y0018253D01*
X0178294Y0018160D01*
X0178420Y0018064D01*
X0178543Y0017964D01*
X0178664Y0017862D01*
X0178782Y0017757D01*
X0178897Y0017648D01*
X0179010Y0017537D01*
X0179120Y0017423D01*
X0179227Y0017306D01*
X0179331Y0017187D01*
X0179432Y0017065D01*
X0179529Y0016940D01*
X0179624Y0016813D01*
X0179715Y0016684D01*
X0179804Y0016553D01*
X0179888Y0016419D01*
X0179970Y0016283D01*
X0180048Y0016146D01*
X0180122Y0016006D01*
X0180193Y0015864D01*
X0180261Y0015721D01*
X0180325Y0015576D01*
X0180385Y0015430D01*
X0180441Y0015282D01*
X0180494Y0015133D01*
X0180543Y0014982D01*
X0180588Y0014830D01*
X0180629Y0014677D01*
X0180667Y0014524D01*
X0180700Y0014369D01*
X0180730Y0014213D01*
X0180756Y0014057D01*
X0180777Y0013900D01*
X0180795Y0013743D01*
X0180809Y0013585D01*
X0180819Y0013427D01*
X0180825Y0013269D01*
X0180827Y0013111D01*
X0180825Y0012953D01*
X0180819Y0012795D01*
X0180809Y0012637D01*
X0180795Y0012479D01*
X0180777Y0012322D01*
X0180756Y0012165D01*
X0180730Y0012009D01*
X0180700Y0011853D01*
X0180667Y0011698D01*
X0180629Y0011545D01*
X0180588Y0011392D01*
X0180543Y0011240D01*
X0180494Y0011089D01*
X0180441Y0010940D01*
X0180385Y0010792D01*
X0180325Y0010646D01*
X0180261Y0010501D01*
X0180193Y0010358D01*
X0180122Y0010216D01*
X0180048Y0010076D01*
X0179970Y0009939D01*
X0179888Y0009803D01*
X0179804Y0009669D01*
X0179715Y0009538D01*
X0179624Y0009409D01*
X0179529Y0009282D01*
X0179432Y0009157D01*
X0179331Y0009035D01*
X0179227Y0008916D01*
X0179120Y0008799D01*
X0179010Y0008685D01*
X0178897Y0008574D01*
X0178782Y0008465D01*
X0178664Y0008360D01*
X0178543Y0008258D01*
X0178420Y0008158D01*
X0178294Y0008062D01*
X0178166Y0007969D01*
X0178036Y0007879D01*
X0177903Y0007793D01*
X0177768Y0007709D01*
X0177632Y0007630D01*
X0177493Y0007553D01*
X0177352Y0007481D01*
X0177210Y0007411D01*
X0177066Y0007346D01*
X0176920Y0007284D01*
X0176773Y0007226D01*
X0176624Y0007171D01*
X0176474Y0007120D01*
X0176323Y0007073D01*
X0176171Y0007030D01*
X0176018Y0006991D01*
X0175863Y0006955D01*
X0175708Y0006924D01*
X0175552Y0006896D01*
X0175396Y0006872D01*
X0175239Y0006852D01*
X0175081Y0006836D01*
X0174924Y0006824D01*
X0174765Y0006816D01*
X0174607Y0006812D01*
X0174449Y0006812D01*
X0174291Y0006816D01*
X0174132Y0006824D01*
X0173975Y0006836D01*
X0173817Y0006852D01*
X0173660Y0006872D01*
X0173504Y0006896D01*
X0173348Y0006924D01*
X0173193Y0006955D01*
X0173038Y0006991D01*
X0172885Y0007030D01*
X0172733Y0007073D01*
X0172582Y0007120D01*
X0172432Y0007171D01*
X0172283Y0007226D01*
X0172136Y0007284D01*
X0171990Y0007346D01*
X0171846Y0007411D01*
X0171704Y0007481D01*
X0171563Y0007553D01*
X0171424Y0007630D01*
X0171288Y0007709D01*
X0171153Y0007793D01*
X0171020Y0007879D01*
X0170890Y0007969D01*
X0170762Y0008062D01*
X0170636Y0008158D01*
X0170513Y0008258D01*
X0170392Y0008360D01*
X0170274Y0008465D01*
X0170159Y0008574D01*
X0170046Y0008685D01*
X0169936Y0008799D01*
X0169829Y0008916D01*
X0169725Y0009035D01*
X0169624Y0009157D01*
X0169527Y0009282D01*
X0169432Y0009409D01*
X0169341Y0009538D01*
X0169252Y0009669D01*
X0169168Y0009803D01*
X0169086Y0009939D01*
X0169008Y0010076D01*
X0168934Y0010216D01*
X0168863Y0010358D01*
X0168795Y0010501D01*
X0168731Y0010646D01*
X0168671Y0010792D01*
X0168615Y0010940D01*
X0168562Y0011089D01*
X0168513Y0011240D01*
X0168468Y0011392D01*
X0168427Y0011545D01*
X0168389Y0011698D01*
X0168356Y0011853D01*
X0168326Y0012009D01*
X0168300Y0012165D01*
X0168279Y0012322D01*
X0168261Y0012479D01*
X0168247Y0012637D01*
X0168237Y0012795D01*
X0168231Y0012953D01*
X0168229Y0013111D01*
M02*
