G75*
%MOIN*%
%OFA0B0*%
%FSLAX25Y25*%
%IPPOS*%
%LPD*%
%AMOC8*
5,1,8,0,0,1.08239X$1,22.5*
%
%ADD10C,0.04800*%
%ADD11OC8,0.04800*%
%ADD12C,0.07400*%
%ADD13C,0.06299*%
%ADD14R,0.04724X0.04724*%
%ADD15C,0.04724*%
%ADD16OC8,0.12598*%
%ADD17C,0.07600*%
%ADD18C,0.06000*%
%ADD19OC8,0.06000*%
%ADD20R,0.07874X0.04724*%
%ADD21R,0.05315X0.02362*%
%ADD22C,0.01000*%
%ADD23C,0.02362*%
%ADD24C,0.00500*%
D10*
X0081450Y0026250D02*
X0086250Y0026250D01*
X0086250Y0036250D02*
X0081450Y0036250D01*
X0081450Y0046250D02*
X0086250Y0046250D01*
X0086250Y0056250D02*
X0081450Y0056250D01*
X0083850Y0071250D02*
X0088650Y0071250D01*
X0088650Y0081250D02*
X0083850Y0081250D01*
X0083850Y0091250D02*
X0088650Y0091250D01*
X0088650Y0101250D02*
X0083850Y0101250D01*
X0083850Y0111250D02*
X0088650Y0111250D01*
X0088650Y0121250D02*
X0083850Y0121250D01*
X0083850Y0131250D02*
X0088650Y0131250D01*
X0088650Y0141250D02*
X0083850Y0141250D01*
X0083850Y0151250D02*
X0088650Y0151250D01*
X0088650Y0161250D02*
X0083850Y0161250D01*
X0083850Y0171250D02*
X0088650Y0171250D01*
X0088650Y0181250D02*
X0083850Y0181250D01*
X0083850Y0191250D02*
X0088650Y0191250D01*
X0088650Y0201250D02*
X0083850Y0201250D01*
X0106250Y0223850D02*
X0106250Y0228650D01*
X0116250Y0228650D02*
X0116250Y0223850D01*
X0126250Y0223850D02*
X0126250Y0228650D01*
X0143850Y0231250D02*
X0148650Y0231250D01*
X0148650Y0221250D02*
X0143850Y0221250D01*
X0143850Y0211250D02*
X0148650Y0211250D01*
X0148650Y0201250D02*
X0143850Y0201250D01*
X0143850Y0191250D02*
X0148650Y0191250D01*
X0173850Y0191250D02*
X0178650Y0191250D01*
X0178650Y0201250D02*
X0173850Y0201250D01*
X0173850Y0211250D02*
X0178650Y0211250D01*
X0178650Y0221250D02*
X0173850Y0221250D01*
X0173850Y0231250D02*
X0178650Y0231250D01*
X0178650Y0241250D02*
X0173850Y0241250D01*
X0173850Y0251250D02*
X0178650Y0251250D01*
X0148650Y0251250D02*
X0143850Y0251250D01*
X0143850Y0241250D02*
X0148650Y0241250D01*
X0126250Y0253850D02*
X0126250Y0258650D01*
X0106250Y0258650D02*
X0106250Y0253850D01*
X0113850Y0201250D02*
X0118650Y0201250D01*
X0118650Y0191250D02*
X0113850Y0191250D01*
X0113850Y0181250D02*
X0118650Y0181250D01*
X0118650Y0171250D02*
X0113850Y0171250D01*
X0113850Y0161250D02*
X0118650Y0161250D01*
X0118650Y0151250D02*
X0113850Y0151250D01*
X0113850Y0141250D02*
X0118650Y0141250D01*
X0118650Y0131250D02*
X0113850Y0131250D01*
X0113850Y0121250D02*
X0118650Y0121250D01*
X0118650Y0111250D02*
X0113850Y0111250D01*
X0113850Y0101250D02*
X0118650Y0101250D01*
X0118650Y0091250D02*
X0113850Y0091250D01*
X0113850Y0081250D02*
X0118650Y0081250D01*
X0118650Y0071250D02*
X0113850Y0071250D01*
X0116250Y0056250D02*
X0121050Y0056250D01*
X0121050Y0046250D02*
X0116250Y0046250D01*
X0116250Y0036250D02*
X0121050Y0036250D01*
X0121050Y0026250D02*
X0116250Y0026250D01*
D11*
X0116250Y0016250D03*
X0106250Y0016250D03*
X0096250Y0016250D03*
X0071250Y0026250D03*
X0061250Y0026250D03*
X0136250Y0016250D03*
X0146250Y0016250D03*
X0146250Y0036250D03*
X0146250Y0046250D03*
X0146250Y0066250D03*
X0156250Y0181250D03*
X0166250Y0181250D03*
X0126250Y0271250D03*
X0106250Y0271250D03*
X0086250Y0271250D03*
X0066250Y0271250D03*
X0096250Y0211250D03*
X0106250Y0211250D03*
D12*
X0086250Y0016250D03*
X0056250Y0016250D03*
D13*
X0056368Y0044557D03*
X0056368Y0052431D03*
X0162667Y0056368D03*
X0162667Y0064242D03*
X0162667Y0072116D03*
X0162667Y0040620D03*
X0162667Y0032746D03*
X0083927Y0233533D03*
X0083927Y0241407D03*
X0083927Y0249281D03*
X0083927Y0257156D03*
D14*
X0056368Y0127982D03*
D15*
X0056368Y0137982D03*
X0056368Y0147982D03*
X0056368Y0157982D03*
X0044557Y0152982D03*
X0044557Y0142982D03*
X0044557Y0132982D03*
X0032746Y0127982D03*
X0032746Y0137982D03*
X0032746Y0147982D03*
X0032746Y0157982D03*
X0020935Y0152982D03*
X0020935Y0142982D03*
X0020935Y0132982D03*
D16*
X0020935Y0111604D03*
X0044557Y0111604D03*
X0044557Y0174360D03*
X0020935Y0174360D03*
D17*
X0071250Y0176250D03*
X0071250Y0166250D03*
X0071250Y0156250D03*
X0071250Y0146250D03*
X0071250Y0136250D03*
X0071250Y0126250D03*
X0071250Y0116250D03*
X0071250Y0106250D03*
X0071250Y0096250D03*
X0071250Y0086250D03*
X0071250Y0076250D03*
X0071250Y0066250D03*
X0071250Y0056250D03*
X0071250Y0046250D03*
X0131250Y0046250D03*
X0131250Y0056250D03*
X0131250Y0066250D03*
X0131250Y0076250D03*
X0131250Y0086250D03*
X0131250Y0096250D03*
X0131250Y0106250D03*
X0131250Y0116250D03*
X0131250Y0126250D03*
X0131250Y0136250D03*
X0131250Y0146250D03*
X0131250Y0156250D03*
X0131250Y0166250D03*
X0131250Y0176250D03*
X0131250Y0186250D03*
X0131250Y0196250D03*
X0131250Y0206250D03*
X0071250Y0206250D03*
X0071250Y0196250D03*
X0071250Y0186250D03*
D18*
X0026250Y0029250D02*
X0026250Y0023250D01*
X0036250Y0023250D02*
X0036250Y0029250D01*
X0046250Y0029250D02*
X0046250Y0023250D01*
X0143250Y0076250D02*
X0149250Y0076250D01*
X0149250Y0086250D02*
X0143250Y0086250D01*
X0143250Y0096250D02*
X0149250Y0096250D01*
X0149250Y0106250D02*
X0143250Y0106250D01*
X0143250Y0116250D02*
X0149250Y0116250D01*
X0149250Y0126250D02*
X0143250Y0126250D01*
X0049250Y0236250D02*
X0043250Y0236250D01*
X0043250Y0246250D02*
X0049250Y0246250D01*
X0049250Y0256250D02*
X0043250Y0256250D01*
X0043250Y0266250D02*
X0049250Y0266250D01*
D19*
X0156250Y0161250D03*
X0156250Y0151250D03*
X0156250Y0141250D03*
X0166250Y0141250D03*
X0166250Y0151250D03*
X0166250Y0161250D03*
D20*
X0177136Y0124478D03*
X0177136Y0098494D03*
D21*
X0162667Y0103612D03*
X0162667Y0107549D03*
X0162667Y0111486D03*
X0162667Y0115423D03*
X0162667Y0119360D03*
D22*
X0162250Y0120250D01*
X0162250Y0125250D01*
X0139250Y0148250D01*
X0139250Y0168250D01*
X0132250Y0175250D01*
X0131250Y0176250D01*
X0132250Y0175250D01*
X0125250Y0168250D01*
X0125250Y0152250D01*
X0116250Y0143250D01*
X0116250Y0141250D01*
X0123250Y0138250D02*
X0117250Y0132250D01*
X0116250Y0131250D01*
X0117250Y0132250D01*
X0106250Y0143250D01*
X0106250Y0183250D01*
X0115250Y0192250D01*
X0116250Y0191250D01*
X0115250Y0192250D01*
X0096250Y0211250D01*
X0094250Y0213250D01*
X0094250Y0226250D01*
X0087250Y0233250D01*
X0084250Y0233250D01*
X0083927Y0233533D01*
X0079250Y0237250D02*
X0079250Y0227250D01*
X0075250Y0223250D01*
X0068250Y0223250D01*
X0064250Y0219250D01*
X0060250Y0219250D01*
X0044250Y0203250D01*
X0044250Y0175250D01*
X0044557Y0174360D01*
X0041250Y0182250D02*
X0041250Y0204250D01*
X0035250Y0210250D01*
X0028250Y0217250D02*
X0028250Y0228250D01*
X0041250Y0241250D01*
X0051250Y0241250D01*
X0071250Y0261250D01*
X0077250Y0261250D02*
X0077250Y0257250D01*
X0047250Y0227250D01*
X0042250Y0227250D01*
X0011250Y0196250D01*
X0009250Y0196250D01*
X0007250Y0194250D01*
X0007250Y0140250D01*
X0024250Y0123250D01*
X0041250Y0123250D01*
X0040250Y0131250D02*
X0055250Y0116250D01*
X0060250Y0116250D01*
X0059250Y0109250D02*
X0033250Y0135250D01*
X0033250Y0137250D01*
X0032746Y0137982D01*
X0032746Y0147982D02*
X0032250Y0148250D01*
X0019250Y0148250D01*
X0012250Y0155250D01*
X0012250Y0187250D01*
X0023250Y0198250D01*
X0032250Y0188250D02*
X0032250Y0174250D01*
X0021250Y0163250D01*
X0021250Y0153250D01*
X0020935Y0152982D01*
X0022250Y0138250D02*
X0032250Y0128250D01*
X0032746Y0127982D01*
X0040250Y0131250D02*
X0040250Y0156250D01*
X0034250Y0162250D01*
X0034250Y0179250D01*
X0036250Y0181250D01*
X0036250Y0177250D02*
X0041250Y0182250D01*
X0036250Y0177250D02*
X0036250Y0171250D01*
X0049250Y0158250D01*
X0049250Y0149250D01*
X0056250Y0142250D01*
X0056250Y0138250D01*
X0056368Y0137982D01*
X0060250Y0136250D02*
X0057250Y0133250D01*
X0045250Y0133250D01*
X0044557Y0132982D01*
X0056368Y0147982D02*
X0057250Y0148250D01*
X0057250Y0153250D01*
X0060250Y0156250D01*
X0060250Y0178250D01*
X0059250Y0179250D01*
X0059250Y0192250D01*
X0063250Y0196250D01*
X0063250Y0209250D01*
X0068250Y0214250D01*
X0081250Y0214250D01*
X0093250Y0202250D01*
X0093250Y0198250D01*
X0086250Y0191250D01*
X0086250Y0181250D02*
X0093250Y0174250D01*
X0093250Y0160250D01*
X0090250Y0157250D01*
X0082250Y0157250D01*
X0077250Y0162250D01*
X0077250Y0208250D01*
X0073250Y0212250D01*
X0069250Y0212250D01*
X0065250Y0208250D01*
X0065250Y0195250D01*
X0062250Y0192250D01*
X0062250Y0180250D01*
X0056250Y0189250D02*
X0056250Y0158250D01*
X0056368Y0157982D01*
X0060250Y0143250D02*
X0060250Y0136250D01*
X0060250Y0143250D02*
X0071250Y0154250D01*
X0071250Y0156250D01*
X0077250Y0158250D02*
X0077250Y0112250D01*
X0082250Y0107250D01*
X0095250Y0107250D01*
X0106250Y0096250D01*
X0119250Y0096250D01*
X0125250Y0102250D02*
X0116250Y0111250D01*
X0123250Y0118250D01*
X0123250Y0122250D01*
X0116250Y0129250D01*
X0116250Y0131250D01*
X0116250Y0123250D02*
X0104250Y0135250D01*
X0104250Y0185250D01*
X0106250Y0187250D01*
X0103250Y0188250D02*
X0103250Y0194250D01*
X0100250Y0197250D02*
X0100250Y0189250D01*
X0097250Y0186250D01*
X0097250Y0179250D01*
X0099250Y0177250D01*
X0099250Y0134250D01*
X0086250Y0121250D01*
X0079250Y0118250D02*
X0086250Y0111250D01*
X0082250Y0105250D02*
X0094250Y0105250D01*
X0114250Y0085250D01*
X0120250Y0085250D01*
X0123250Y0082250D01*
X0123250Y0069250D01*
X0112250Y0058250D01*
X0112250Y0044250D01*
X0116250Y0040250D01*
X0123250Y0040250D01*
X0126250Y0037250D01*
X0126250Y0034250D01*
X0129250Y0031250D01*
X0147250Y0031250D01*
X0157250Y0041250D01*
X0157250Y0044250D01*
X0168250Y0055250D01*
X0168250Y0104250D01*
X0165250Y0107250D01*
X0163250Y0107250D01*
X0162667Y0107549D01*
X0162250Y0108250D01*
X0159250Y0108250D01*
X0157250Y0110250D01*
X0154250Y0109250D02*
X0154250Y0130250D01*
X0137250Y0147250D01*
X0137250Y0150250D01*
X0132250Y0155250D01*
X0131250Y0156250D01*
X0132250Y0155250D01*
X0123250Y0146250D01*
X0123250Y0138250D01*
X0131250Y0126250D02*
X0146250Y0126250D01*
X0146250Y0116250D02*
X0131250Y0116250D01*
X0131250Y0106250D02*
X0146250Y0106250D01*
X0146250Y0096250D02*
X0131250Y0096250D01*
X0125250Y0102250D02*
X0125250Y0054250D01*
X0123250Y0052250D01*
X0122250Y0052250D01*
X0116250Y0046250D01*
X0109250Y0037250D02*
X0109250Y0081250D01*
X0089250Y0101250D01*
X0086250Y0101250D01*
X0082250Y0105250D02*
X0073250Y0096250D01*
X0071250Y0096250D01*
X0065250Y0100250D02*
X0071250Y0106250D01*
X0065250Y0100250D02*
X0065250Y0084250D01*
X0048250Y0067250D01*
X0048250Y0045250D01*
X0036250Y0033250D01*
X0036250Y0026250D01*
X0041250Y0021250D02*
X0041250Y0032250D01*
X0053250Y0044250D01*
X0056250Y0044250D01*
X0056368Y0044557D01*
X0060250Y0038250D02*
X0051250Y0038250D01*
X0060250Y0035250D02*
X0051250Y0026250D01*
X0046250Y0026250D01*
X0041250Y0021250D02*
X0054250Y0008250D01*
X0151250Y0008250D01*
X0180250Y0037250D01*
X0180250Y0071250D01*
X0174250Y0071250D02*
X0174250Y0034250D01*
X0152250Y0012250D01*
X0134250Y0012250D01*
X0125250Y0021250D01*
X0125250Y0028250D01*
X0121250Y0032250D01*
X0114250Y0032250D01*
X0109250Y0037250D01*
X0107250Y0029250D02*
X0116250Y0020250D01*
X0118250Y0020250D01*
X0120250Y0018250D01*
X0120250Y0014250D01*
X0117250Y0011250D01*
X0093250Y0011250D01*
X0092250Y0014250D02*
X0088250Y0010250D01*
X0070250Y0010250D01*
X0057250Y0023250D01*
X0056250Y0027250D02*
X0059250Y0030250D01*
X0072250Y0030250D01*
X0076250Y0034250D01*
X0076250Y0041250D01*
X0077250Y0044250D02*
X0077250Y0096250D01*
X0086250Y0091250D02*
X0086250Y0089250D01*
X0079250Y0082250D01*
X0079250Y0069250D01*
X0091250Y0057250D01*
X0091250Y0030250D01*
X0092250Y0029250D01*
X0092250Y0014250D01*
X0086250Y0016250D02*
X0090250Y0020250D01*
X0090250Y0028250D01*
X0086250Y0032250D01*
X0086250Y0036250D01*
X0080250Y0041250D02*
X0077250Y0044250D01*
X0071250Y0045250D02*
X0071250Y0046250D01*
X0071250Y0045250D02*
X0061250Y0035250D01*
X0060250Y0035250D01*
X0071250Y0056250D02*
X0061250Y0066250D01*
X0051250Y0066250D01*
X0041250Y0086250D02*
X0041250Y0041250D01*
X0031250Y0031250D01*
X0031250Y0021250D01*
X0046250Y0006250D01*
X0152250Y0006250D01*
X0183250Y0037250D01*
X0183250Y0087250D01*
X0177250Y0093250D01*
X0171250Y0101250D02*
X0171250Y0074250D01*
X0174250Y0071250D01*
X0171250Y0070250D02*
X0171250Y0034250D01*
X0153250Y0016250D01*
X0146250Y0016250D01*
X0138250Y0016250D02*
X0162250Y0040250D01*
X0162667Y0040620D01*
X0162250Y0056250D02*
X0162667Y0056368D01*
X0162250Y0056250D02*
X0146250Y0040250D01*
X0146250Y0036250D01*
X0146250Y0046250D02*
X0146250Y0048250D01*
X0148250Y0050250D01*
X0148250Y0058250D01*
X0142250Y0064250D01*
X0142250Y0068250D01*
X0145250Y0071250D01*
X0151250Y0071250D01*
X0159250Y0079250D01*
X0159250Y0104250D01*
X0154250Y0109250D01*
X0159250Y0104250D02*
X0162250Y0104250D01*
X0162667Y0103612D01*
X0162667Y0111486D02*
X0163250Y0112250D01*
X0166250Y0112250D01*
X0169250Y0115250D01*
X0173250Y0111250D01*
X0177250Y0111250D01*
X0183250Y0113250D02*
X0171250Y0101250D01*
X0169250Y0115250D02*
X0169250Y0131250D01*
X0161250Y0139250D01*
X0161250Y0146250D01*
X0156250Y0151250D01*
X0161250Y0149250D02*
X0164250Y0146250D01*
X0168250Y0146250D01*
X0180250Y0134250D01*
X0167250Y0123250D02*
X0167250Y0117250D01*
X0166250Y0116250D01*
X0163250Y0116250D01*
X0162667Y0115423D01*
X0167250Y0123250D02*
X0151250Y0139250D01*
X0151250Y0156250D01*
X0156250Y0161250D01*
X0161250Y0163250D02*
X0161250Y0149250D01*
X0166250Y0151250D02*
X0171250Y0156250D01*
X0171250Y0163250D01*
X0162250Y0172250D01*
X0162250Y0183250D01*
X0150250Y0195250D01*
X0144250Y0195250D01*
X0139250Y0200250D01*
X0139250Y0221250D01*
X0126250Y0234250D01*
X0126250Y0256250D01*
X0126250Y0271250D02*
X0134250Y0271250D01*
X0169250Y0236250D01*
X0169250Y0230250D01*
X0173250Y0226250D01*
X0176250Y0223250D02*
X0183250Y0230250D01*
X0183250Y0234250D01*
X0176250Y0241250D01*
X0169250Y0226250D02*
X0169250Y0187250D01*
X0183250Y0173250D01*
X0183250Y0113250D01*
X0162667Y0072116D02*
X0162250Y0071250D01*
X0157250Y0066250D01*
X0146250Y0066250D01*
X0146250Y0076250D02*
X0131250Y0076250D01*
X0131250Y0086250D02*
X0146250Y0086250D01*
X0145250Y0051250D02*
X0136250Y0051250D01*
X0131250Y0046250D01*
X0136250Y0016250D02*
X0138250Y0016250D01*
X0116250Y0016250D02*
X0097250Y0035250D01*
X0097250Y0037250D01*
X0095250Y0035250D02*
X0094250Y0036250D01*
X0094250Y0048250D01*
X0097250Y0051250D01*
X0097250Y0086250D01*
X0096250Y0087250D01*
X0097250Y0090250D02*
X0095250Y0090250D01*
X0086250Y0081250D01*
X0086250Y0071250D02*
X0086250Y0065250D01*
X0094250Y0057250D01*
X0094250Y0052250D01*
X0095250Y0035250D02*
X0095250Y0029250D01*
X0107250Y0029250D02*
X0107250Y0080250D01*
X0097250Y0090250D01*
X0079250Y0118250D02*
X0079250Y0132250D01*
X0082250Y0135250D01*
X0088250Y0135250D01*
X0095250Y0142250D01*
X0095250Y0175250D01*
X0093250Y0177250D01*
X0093250Y0188250D01*
X0095250Y0190250D01*
X0095250Y0203250D01*
X0090250Y0208250D01*
X0090250Y0217250D01*
X0085250Y0222250D01*
X0085250Y0218250D02*
X0078250Y0218250D01*
X0076250Y0216250D01*
X0061250Y0216250D01*
X0062250Y0222250D02*
X0060250Y0222250D01*
X0062250Y0222250D02*
X0072250Y0232250D01*
X0074250Y0230250D02*
X0075250Y0231250D01*
X0075250Y0251250D01*
X0083927Y0257156D02*
X0084250Y0257250D01*
X0098250Y0271250D01*
X0106250Y0271250D01*
X0110250Y0269250D02*
X0106250Y0265250D01*
X0106250Y0256250D01*
X0096250Y0259250D02*
X0096250Y0217250D01*
X0102250Y0211250D01*
X0102250Y0209250D01*
X0110250Y0201250D01*
X0116250Y0201250D01*
X0123250Y0206250D02*
X0123250Y0190250D01*
X0120250Y0187250D01*
X0114250Y0187250D01*
X0109250Y0182250D01*
X0109250Y0176250D01*
X0116250Y0173250D02*
X0116250Y0171250D01*
X0116250Y0173250D02*
X0125250Y0182250D01*
X0125250Y0200250D01*
X0131250Y0206250D01*
X0137250Y0208250D02*
X0133250Y0212250D01*
X0122250Y0212250D01*
X0108250Y0226250D01*
X0106250Y0226250D01*
X0099250Y0227250D02*
X0105250Y0233250D01*
X0117250Y0233250D01*
X0124250Y0226250D01*
X0126250Y0226250D01*
X0125250Y0208250D02*
X0123250Y0206250D01*
X0131250Y0186250D02*
X0138250Y0186250D01*
X0161250Y0163250D01*
X0166250Y0161250D02*
X0137250Y0190250D01*
X0137250Y0208250D01*
X0152250Y0188250D02*
X0152250Y0179250D01*
X0157250Y0174250D01*
X0171250Y0181250D02*
X0171250Y0182250D01*
X0153250Y0200250D01*
X0153250Y0234250D01*
X0146250Y0241250D01*
X0144250Y0245250D02*
X0150250Y0245250D01*
X0169250Y0226250D01*
X0176250Y0223250D02*
X0176250Y0221250D01*
X0176250Y0219250D01*
X0183250Y0212250D01*
X0183250Y0208250D01*
X0176250Y0201250D01*
X0144250Y0245250D02*
X0139250Y0250250D01*
X0139250Y0251250D01*
X0112250Y0278250D01*
X0067250Y0278250D01*
X0054250Y0264250D02*
X0046250Y0256250D01*
X0046250Y0246250D02*
X0042250Y0246250D01*
X0013250Y0217250D01*
X0007250Y0207250D02*
X0025250Y0225250D01*
X0043250Y0225250D02*
X0051250Y0225250D01*
X0061250Y0235250D01*
X0070250Y0235250D01*
X0074250Y0230250D02*
X0074250Y0226250D01*
X0076250Y0219250D02*
X0068250Y0219250D01*
X0062250Y0226250D02*
X0062250Y0232250D01*
X0076250Y0219250D02*
X0082250Y0225250D01*
X0091250Y0225250D01*
X0090250Y0221250D02*
X0092250Y0219250D01*
X0092250Y0209250D01*
X0097250Y0204250D01*
X0097250Y0189250D01*
X0095250Y0187250D01*
X0095250Y0178250D01*
X0097250Y0176250D01*
X0097250Y0141250D01*
X0087250Y0131250D01*
X0086250Y0131250D01*
X0071250Y0134250D02*
X0063250Y0126250D01*
X0063250Y0108250D01*
X0041250Y0086250D01*
X0038250Y0103250D02*
X0047250Y0103250D01*
X0054250Y0110250D01*
X0044557Y0111604D02*
X0044250Y0111250D01*
X0021250Y0111250D01*
X0020935Y0111604D01*
X0038250Y0103250D02*
X0024250Y0089250D01*
X0024250Y0082250D01*
X0026250Y0080250D01*
X0026250Y0026250D01*
X0021250Y0085250D02*
X0004250Y0102250D01*
X0004250Y0234250D01*
X0045250Y0275250D01*
X0108250Y0275250D01*
X0110250Y0273250D01*
X0110250Y0269250D01*
X0095250Y0272250D02*
X0093250Y0272250D01*
X0085250Y0264250D01*
X0054250Y0264250D01*
X0079250Y0237250D02*
X0083250Y0241250D01*
X0083927Y0241407D01*
X0099250Y0227250D02*
X0099250Y0218250D01*
X0080250Y0211250D02*
X0080250Y0203250D01*
X0079250Y0202250D01*
X0079250Y0168250D01*
X0086250Y0161250D01*
X0100250Y0185250D02*
X0103250Y0188250D01*
X0071250Y0136250D02*
X0071250Y0134250D01*
X0029250Y0183250D02*
X0029250Y0184250D01*
X0029250Y0183250D02*
X0021250Y0175250D01*
X0020935Y0174360D01*
X0010250Y0189250D02*
X0043250Y0222250D01*
X0044250Y0222250D01*
X0043250Y0225250D02*
X0011250Y0193250D01*
X0010250Y0193250D01*
X0010250Y0189250D02*
X0010250Y0143250D01*
X0116250Y0123250D02*
X0116250Y0121250D01*
D23*
X0119250Y0096250D03*
X0096250Y0087250D03*
X0077250Y0096250D03*
X0060250Y0116250D03*
X0059250Y0109250D03*
X0054250Y0110250D03*
X0041250Y0123250D03*
X0022250Y0138250D03*
X0010250Y0143250D03*
X0029250Y0184250D03*
X0032250Y0188250D03*
X0036250Y0181250D03*
X0023250Y0198250D03*
X0035250Y0210250D03*
X0028250Y0217250D03*
X0025250Y0225250D03*
X0013250Y0217250D03*
X0007250Y0207250D03*
X0010250Y0193250D03*
X0044250Y0222250D03*
X0060250Y0222250D03*
X0062250Y0226250D03*
X0062250Y0232250D03*
X0070250Y0235250D03*
X0072250Y0232250D03*
X0074250Y0226250D03*
X0068250Y0219250D03*
X0061250Y0216250D03*
X0056250Y0189250D03*
X0062250Y0180250D03*
X0077250Y0158250D03*
X0100250Y0185250D03*
X0106250Y0187250D03*
X0103250Y0194250D03*
X0100250Y0197250D03*
X0109250Y0176250D03*
X0125250Y0208250D03*
X0099250Y0218250D03*
X0090250Y0221250D03*
X0091250Y0225250D03*
X0085250Y0222250D03*
X0085250Y0218250D03*
X0080250Y0211250D03*
X0075250Y0251250D03*
X0077250Y0261250D03*
X0071250Y0261250D03*
X0067250Y0278250D03*
X0095250Y0272250D03*
X0096250Y0259250D03*
X0152250Y0188250D03*
X0157250Y0174250D03*
X0171250Y0181250D03*
X0173250Y0226250D03*
X0180250Y0134250D03*
X0177250Y0111250D03*
X0177250Y0093250D03*
X0180250Y0071250D03*
X0171250Y0070250D03*
X0145250Y0051250D03*
X0157250Y0110250D03*
X0097250Y0037250D03*
X0095250Y0029250D03*
X0093250Y0011250D03*
X0080250Y0041250D03*
X0076250Y0041250D03*
X0060250Y0038250D03*
X0056250Y0027250D03*
X0057250Y0023250D03*
X0051250Y0038250D03*
X0051250Y0066250D03*
X0021250Y0085250D03*
X0094250Y0052250D03*
D24*
X0097000Y0033025D02*
X0112600Y0017425D01*
X0112600Y0014738D01*
X0114338Y0013000D01*
X0108162Y0013000D01*
X0109900Y0014738D01*
X0109900Y0016000D01*
X0106500Y0016000D01*
X0106500Y0016500D01*
X0109900Y0016500D01*
X0109900Y0017762D01*
X0107762Y0019900D01*
X0106500Y0019900D01*
X0106500Y0016500D01*
X0106000Y0016500D01*
X0106000Y0019900D01*
X0104738Y0019900D01*
X0102600Y0017762D01*
X0102600Y0016500D01*
X0106000Y0016500D01*
X0106000Y0016000D01*
X0102600Y0016000D01*
X0102600Y0014738D01*
X0104338Y0013000D01*
X0098162Y0013000D01*
X0099900Y0014738D01*
X0099900Y0017762D01*
X0097762Y0019900D01*
X0094738Y0019900D01*
X0094000Y0019162D01*
X0094000Y0027136D01*
X0094766Y0026819D01*
X0095734Y0026819D01*
X0096627Y0027189D01*
X0097311Y0027873D01*
X0097681Y0028766D01*
X0097681Y0029734D01*
X0097311Y0030627D01*
X0097000Y0030938D01*
X0097000Y0033025D01*
X0097000Y0032656D02*
X0097369Y0032656D01*
X0097000Y0032158D02*
X0097867Y0032158D01*
X0098366Y0031659D02*
X0097000Y0031659D01*
X0097000Y0031161D02*
X0098864Y0031161D01*
X0099363Y0030662D02*
X0097276Y0030662D01*
X0097503Y0030164D02*
X0099861Y0030164D01*
X0100360Y0029665D02*
X0097681Y0029665D01*
X0097681Y0029167D02*
X0100859Y0029167D01*
X0101357Y0028668D02*
X0097640Y0028668D01*
X0097434Y0028170D02*
X0101856Y0028170D01*
X0102354Y0027671D02*
X0097109Y0027671D01*
X0096587Y0027173D02*
X0102853Y0027173D01*
X0103351Y0026674D02*
X0094000Y0026674D01*
X0094000Y0026176D02*
X0103850Y0026176D01*
X0104348Y0025677D02*
X0094000Y0025677D01*
X0094000Y0025179D02*
X0104847Y0025179D01*
X0105345Y0024680D02*
X0094000Y0024680D01*
X0094000Y0024182D02*
X0105844Y0024182D01*
X0106342Y0023683D02*
X0094000Y0023683D01*
X0094000Y0023184D02*
X0106841Y0023184D01*
X0107339Y0022686D02*
X0094000Y0022686D01*
X0094000Y0022187D02*
X0107838Y0022187D01*
X0108336Y0021689D02*
X0094000Y0021689D01*
X0094000Y0021190D02*
X0108835Y0021190D01*
X0109333Y0020692D02*
X0094000Y0020692D01*
X0094000Y0020193D02*
X0109832Y0020193D01*
X0110330Y0019695D02*
X0107967Y0019695D01*
X0108465Y0019196D02*
X0110829Y0019196D01*
X0111327Y0018698D02*
X0108964Y0018698D01*
X0109462Y0018199D02*
X0111826Y0018199D01*
X0112324Y0017701D02*
X0109900Y0017701D01*
X0109900Y0017202D02*
X0112600Y0017202D01*
X0112600Y0016704D02*
X0109900Y0016704D01*
X0109900Y0015707D02*
X0112600Y0015707D01*
X0112600Y0016205D02*
X0106500Y0016205D01*
X0106500Y0016704D02*
X0106000Y0016704D01*
X0106000Y0017202D02*
X0106500Y0017202D01*
X0106500Y0017701D02*
X0106000Y0017701D01*
X0106000Y0018199D02*
X0106500Y0018199D01*
X0106500Y0018698D02*
X0106000Y0018698D01*
X0106000Y0019196D02*
X0106500Y0019196D01*
X0106500Y0019695D02*
X0106000Y0019695D01*
X0104533Y0019695D02*
X0097967Y0019695D01*
X0098465Y0019196D02*
X0104035Y0019196D01*
X0103536Y0018698D02*
X0098964Y0018698D01*
X0099462Y0018199D02*
X0103038Y0018199D01*
X0102600Y0017701D02*
X0099900Y0017701D01*
X0099900Y0017202D02*
X0102600Y0017202D01*
X0102600Y0016704D02*
X0099900Y0016704D01*
X0099900Y0016205D02*
X0106000Y0016205D01*
X0103625Y0013713D02*
X0098875Y0013713D01*
X0099373Y0014211D02*
X0103127Y0014211D01*
X0102628Y0014710D02*
X0099872Y0014710D01*
X0099900Y0015208D02*
X0102600Y0015208D01*
X0102600Y0015707D02*
X0099900Y0015707D01*
X0098376Y0013214D02*
X0104124Y0013214D01*
X0108376Y0013214D02*
X0114124Y0013214D01*
X0113625Y0013713D02*
X0108875Y0013713D01*
X0109373Y0014211D02*
X0113127Y0014211D01*
X0112628Y0014710D02*
X0109872Y0014710D01*
X0109900Y0015208D02*
X0112600Y0015208D01*
X0094533Y0019695D02*
X0094000Y0019695D01*
X0094000Y0019196D02*
X0094035Y0019196D01*
X0088500Y0020975D02*
X0088289Y0020763D01*
X0087235Y0021200D01*
X0085265Y0021200D01*
X0083446Y0020446D01*
X0082054Y0019054D01*
X0081300Y0017235D01*
X0081300Y0015265D01*
X0082054Y0013446D01*
X0083446Y0012054D01*
X0083575Y0012000D01*
X0070975Y0012000D01*
X0060375Y0022600D01*
X0062762Y0022600D01*
X0064900Y0024738D01*
X0064900Y0027762D01*
X0064162Y0028500D01*
X0068338Y0028500D01*
X0067600Y0027762D01*
X0067600Y0026500D01*
X0071000Y0026500D01*
X0071000Y0026000D01*
X0071500Y0026000D01*
X0071500Y0026500D01*
X0074900Y0026500D01*
X0074900Y0027762D01*
X0073568Y0029093D01*
X0074000Y0029525D01*
X0078000Y0033525D01*
X0078000Y0035041D01*
X0078356Y0034182D01*
X0079382Y0033156D01*
X0080724Y0032600D01*
X0084500Y0032600D01*
X0084500Y0031525D01*
X0086125Y0029900D01*
X0080724Y0029900D01*
X0079382Y0029344D01*
X0078356Y0028318D01*
X0077800Y0026976D01*
X0077800Y0025524D01*
X0078356Y0024182D01*
X0079382Y0023156D01*
X0080724Y0022600D01*
X0086976Y0022600D01*
X0088318Y0023156D01*
X0088500Y0023338D01*
X0088500Y0020975D01*
X0088500Y0021190D02*
X0087258Y0021190D01*
X0088500Y0021689D02*
X0061286Y0021689D01*
X0061784Y0021190D02*
X0085242Y0021190D01*
X0084039Y0020692D02*
X0062283Y0020692D01*
X0062781Y0020193D02*
X0083193Y0020193D01*
X0082695Y0019695D02*
X0063280Y0019695D01*
X0063778Y0019196D02*
X0082196Y0019196D01*
X0081906Y0018698D02*
X0064277Y0018698D01*
X0064775Y0018199D02*
X0081700Y0018199D01*
X0081493Y0017701D02*
X0065274Y0017701D01*
X0065772Y0017202D02*
X0081300Y0017202D01*
X0081300Y0016704D02*
X0066271Y0016704D01*
X0066770Y0016205D02*
X0081300Y0016205D01*
X0081300Y0015707D02*
X0067268Y0015707D01*
X0067767Y0015208D02*
X0081324Y0015208D01*
X0081530Y0014710D02*
X0068265Y0014710D01*
X0068764Y0014211D02*
X0081737Y0014211D01*
X0081943Y0013713D02*
X0069262Y0013713D01*
X0069761Y0013214D02*
X0082285Y0013214D01*
X0082784Y0012716D02*
X0070259Y0012716D01*
X0070758Y0012217D02*
X0083282Y0012217D01*
X0080516Y0022686D02*
X0072848Y0022686D01*
X0072762Y0022600D02*
X0074900Y0024738D01*
X0074900Y0026000D01*
X0071500Y0026000D01*
X0071500Y0022600D01*
X0072762Y0022600D01*
X0073346Y0023184D02*
X0079354Y0023184D01*
X0078855Y0023683D02*
X0073845Y0023683D01*
X0074343Y0024182D02*
X0078357Y0024182D01*
X0078150Y0024680D02*
X0074842Y0024680D01*
X0074900Y0025179D02*
X0077943Y0025179D01*
X0077800Y0025677D02*
X0074900Y0025677D01*
X0074900Y0026674D02*
X0077800Y0026674D01*
X0077800Y0026176D02*
X0071500Y0026176D01*
X0071500Y0025677D02*
X0071000Y0025677D01*
X0071000Y0026000D02*
X0071000Y0022600D01*
X0069738Y0022600D01*
X0067600Y0024738D01*
X0067600Y0026000D01*
X0071000Y0026000D01*
X0071000Y0026176D02*
X0064900Y0026176D01*
X0064900Y0026674D02*
X0067600Y0026674D01*
X0067600Y0027173D02*
X0064900Y0027173D01*
X0064900Y0027671D02*
X0067600Y0027671D01*
X0068008Y0028170D02*
X0064492Y0028170D01*
X0064900Y0025677D02*
X0067600Y0025677D01*
X0067600Y0025179D02*
X0064900Y0025179D01*
X0064842Y0024680D02*
X0067658Y0024680D01*
X0068157Y0024182D02*
X0064343Y0024182D01*
X0063845Y0023683D02*
X0068655Y0023683D01*
X0069154Y0023184D02*
X0063346Y0023184D01*
X0062848Y0022686D02*
X0069652Y0022686D01*
X0071000Y0022686D02*
X0071500Y0022686D01*
X0071500Y0023184D02*
X0071000Y0023184D01*
X0071000Y0023683D02*
X0071500Y0023683D01*
X0071500Y0024182D02*
X0071000Y0024182D01*
X0071000Y0024680D02*
X0071500Y0024680D01*
X0071500Y0025179D02*
X0071000Y0025179D01*
X0074900Y0027173D02*
X0077881Y0027173D01*
X0078088Y0027671D02*
X0074900Y0027671D01*
X0074492Y0028170D02*
X0078294Y0028170D01*
X0078706Y0028668D02*
X0073994Y0028668D01*
X0073641Y0029167D02*
X0079205Y0029167D01*
X0080157Y0029665D02*
X0074140Y0029665D01*
X0074639Y0030164D02*
X0085861Y0030164D01*
X0085363Y0030662D02*
X0075137Y0030662D01*
X0075636Y0031161D02*
X0084864Y0031161D01*
X0084500Y0031659D02*
X0076134Y0031659D01*
X0076633Y0032158D02*
X0084500Y0032158D01*
X0080588Y0032656D02*
X0077131Y0032656D01*
X0077630Y0033155D02*
X0079385Y0033155D01*
X0078885Y0033653D02*
X0078000Y0033653D01*
X0078000Y0034152D02*
X0078386Y0034152D01*
X0078162Y0034650D02*
X0078000Y0034650D01*
X0087184Y0022686D02*
X0088500Y0022686D01*
X0088500Y0023184D02*
X0088346Y0023184D01*
X0088500Y0022187D02*
X0060787Y0022187D01*
X0062557Y0039032D02*
X0062311Y0039627D01*
X0061627Y0040311D01*
X0060734Y0040681D01*
X0059766Y0040681D01*
X0058873Y0040311D01*
X0058562Y0040000D01*
X0052938Y0040000D01*
X0052627Y0040311D01*
X0052032Y0040557D01*
X0053089Y0041614D01*
X0053876Y0040827D01*
X0055493Y0040157D01*
X0057243Y0040157D01*
X0058860Y0040827D01*
X0060098Y0042065D01*
X0060768Y0043682D01*
X0060768Y0045432D01*
X0060098Y0047049D01*
X0058860Y0048287D01*
X0058345Y0048500D01*
X0058674Y0048668D01*
X0059234Y0049075D01*
X0059724Y0049565D01*
X0060131Y0050125D01*
X0060445Y0050742D01*
X0060659Y0051401D01*
X0060768Y0052085D01*
X0060768Y0052181D01*
X0056618Y0052181D01*
X0056618Y0052681D01*
X0056118Y0052681D01*
X0056118Y0052181D01*
X0051969Y0052181D01*
X0051969Y0052085D01*
X0052077Y0051401D01*
X0052291Y0050742D01*
X0052605Y0050125D01*
X0053012Y0049565D01*
X0053502Y0049075D01*
X0054062Y0048668D01*
X0054392Y0048500D01*
X0053876Y0048287D01*
X0052638Y0047049D01*
X0051976Y0045451D01*
X0051500Y0044975D01*
X0039500Y0032975D01*
X0039500Y0032010D01*
X0038657Y0032853D01*
X0038424Y0032949D01*
X0048975Y0043500D01*
X0050000Y0044525D01*
X0050000Y0064136D01*
X0050766Y0063819D01*
X0051734Y0063819D01*
X0052627Y0064189D01*
X0052938Y0064500D01*
X0060525Y0064500D01*
X0066660Y0058365D01*
X0066200Y0057255D01*
X0066200Y0055245D01*
X0066969Y0053389D01*
X0068389Y0051969D01*
X0070125Y0051250D01*
X0068389Y0050531D01*
X0066969Y0049111D01*
X0066200Y0047255D01*
X0066200Y0045245D01*
X0066953Y0043428D01*
X0062557Y0039032D01*
X0062514Y0039137D02*
X0062662Y0039137D01*
X0062303Y0039635D02*
X0063161Y0039635D01*
X0063659Y0040134D02*
X0061804Y0040134D01*
X0060851Y0040632D02*
X0064158Y0040632D01*
X0064656Y0041131D02*
X0059164Y0041131D01*
X0059649Y0040632D02*
X0058390Y0040632D01*
X0058696Y0040134D02*
X0052804Y0040134D01*
X0052107Y0040632D02*
X0054346Y0040632D01*
X0053572Y0041131D02*
X0052606Y0041131D01*
X0050149Y0043623D02*
X0049098Y0043623D01*
X0048600Y0043125D02*
X0049650Y0043125D01*
X0049152Y0042626D02*
X0048101Y0042626D01*
X0047603Y0042128D02*
X0048653Y0042128D01*
X0048155Y0041629D02*
X0047104Y0041629D01*
X0046606Y0041131D02*
X0047656Y0041131D01*
X0047158Y0040632D02*
X0046107Y0040632D01*
X0045609Y0040134D02*
X0046659Y0040134D01*
X0046161Y0039635D02*
X0045110Y0039635D01*
X0044612Y0039137D02*
X0045662Y0039137D01*
X0045163Y0038638D02*
X0044113Y0038638D01*
X0043615Y0038140D02*
X0044665Y0038140D01*
X0044166Y0037641D02*
X0043116Y0037641D01*
X0042618Y0037143D02*
X0043668Y0037143D01*
X0043169Y0036644D02*
X0042119Y0036644D01*
X0041621Y0036146D02*
X0042671Y0036146D01*
X0042172Y0035647D02*
X0041122Y0035647D01*
X0040624Y0035149D02*
X0041674Y0035149D01*
X0041175Y0034650D02*
X0040125Y0034650D01*
X0039627Y0034152D02*
X0040677Y0034152D01*
X0040178Y0033653D02*
X0039128Y0033653D01*
X0038630Y0033155D02*
X0039680Y0033155D01*
X0039500Y0032656D02*
X0038854Y0032656D01*
X0039353Y0032158D02*
X0039500Y0032158D01*
X0049597Y0044122D02*
X0050647Y0044122D01*
X0051146Y0044620D02*
X0050000Y0044620D01*
X0050000Y0045119D02*
X0051644Y0045119D01*
X0052045Y0045618D02*
X0050000Y0045618D01*
X0050000Y0046116D02*
X0052252Y0046116D01*
X0052458Y0046615D02*
X0050000Y0046615D01*
X0050000Y0047113D02*
X0052702Y0047113D01*
X0053201Y0047612D02*
X0050000Y0047612D01*
X0050000Y0048110D02*
X0053699Y0048110D01*
X0054179Y0048609D02*
X0050000Y0048609D01*
X0050000Y0049107D02*
X0053470Y0049107D01*
X0052983Y0049606D02*
X0050000Y0049606D01*
X0050000Y0050104D02*
X0052621Y0050104D01*
X0052362Y0050603D02*
X0050000Y0050603D01*
X0050000Y0051101D02*
X0052174Y0051101D01*
X0052045Y0051600D02*
X0050000Y0051600D01*
X0050000Y0052098D02*
X0051969Y0052098D01*
X0051969Y0052681D02*
X0056118Y0052681D01*
X0056118Y0056831D01*
X0056022Y0056831D01*
X0055338Y0056722D01*
X0054679Y0056508D01*
X0054062Y0056194D01*
X0053502Y0055787D01*
X0053012Y0055297D01*
X0052605Y0054737D01*
X0052291Y0054120D01*
X0052077Y0053461D01*
X0051969Y0052777D01*
X0051969Y0052681D01*
X0052019Y0053095D02*
X0050000Y0053095D01*
X0050000Y0052597D02*
X0056118Y0052597D01*
X0056118Y0053095D02*
X0056618Y0053095D01*
X0056618Y0052681D02*
X0056618Y0056831D01*
X0056714Y0056831D01*
X0057398Y0056722D01*
X0058057Y0056508D01*
X0058674Y0056194D01*
X0059234Y0055787D01*
X0059724Y0055297D01*
X0060131Y0054737D01*
X0060445Y0054120D01*
X0060659Y0053461D01*
X0060768Y0052777D01*
X0060768Y0052681D01*
X0056618Y0052681D01*
X0056618Y0052597D02*
X0067762Y0052597D01*
X0068260Y0052098D02*
X0060768Y0052098D01*
X0060691Y0051600D02*
X0069281Y0051600D01*
X0069765Y0051101D02*
X0060562Y0051101D01*
X0060374Y0050603D02*
X0068562Y0050603D01*
X0067962Y0050104D02*
X0060116Y0050104D01*
X0059753Y0049606D02*
X0067464Y0049606D01*
X0066967Y0049107D02*
X0059266Y0049107D01*
X0058557Y0048609D02*
X0066761Y0048609D01*
X0066554Y0048110D02*
X0059037Y0048110D01*
X0059536Y0047612D02*
X0066348Y0047612D01*
X0066200Y0047113D02*
X0060034Y0047113D01*
X0060278Y0046615D02*
X0066200Y0046615D01*
X0066200Y0046116D02*
X0060484Y0046116D01*
X0060691Y0045618D02*
X0066200Y0045618D01*
X0066252Y0045119D02*
X0060768Y0045119D01*
X0060768Y0044620D02*
X0066459Y0044620D01*
X0066665Y0044122D02*
X0060768Y0044122D01*
X0060743Y0043623D02*
X0066872Y0043623D01*
X0066650Y0043125D02*
X0060537Y0043125D01*
X0060330Y0042626D02*
X0066152Y0042626D01*
X0065653Y0042128D02*
X0060124Y0042128D01*
X0059662Y0041629D02*
X0065155Y0041629D01*
X0067263Y0053095D02*
X0060717Y0053095D01*
X0060616Y0053594D02*
X0066884Y0053594D01*
X0066678Y0054092D02*
X0060454Y0054092D01*
X0060206Y0054591D02*
X0066471Y0054591D01*
X0066265Y0055089D02*
X0059875Y0055089D01*
X0059433Y0055588D02*
X0066200Y0055588D01*
X0066200Y0056086D02*
X0058822Y0056086D01*
X0057822Y0056585D02*
X0066200Y0056585D01*
X0066200Y0057083D02*
X0050000Y0057083D01*
X0050000Y0056585D02*
X0054914Y0056585D01*
X0053914Y0056086D02*
X0050000Y0056086D01*
X0050000Y0055588D02*
X0053303Y0055588D01*
X0052861Y0055089D02*
X0050000Y0055089D01*
X0050000Y0054591D02*
X0052531Y0054591D01*
X0052282Y0054092D02*
X0050000Y0054092D01*
X0050000Y0053594D02*
X0052120Y0053594D01*
X0056118Y0053594D02*
X0056618Y0053594D01*
X0056618Y0054092D02*
X0056118Y0054092D01*
X0056118Y0054591D02*
X0056618Y0054591D01*
X0056618Y0055089D02*
X0056118Y0055089D01*
X0056118Y0055588D02*
X0056618Y0055588D01*
X0056618Y0056086D02*
X0056118Y0056086D01*
X0056118Y0056585D02*
X0056618Y0056585D01*
X0050000Y0061570D02*
X0063455Y0061570D01*
X0062957Y0062068D02*
X0050000Y0062068D01*
X0050000Y0062567D02*
X0062458Y0062567D01*
X0061960Y0063065D02*
X0050000Y0063065D01*
X0050000Y0063564D02*
X0061461Y0063564D01*
X0060963Y0064062D02*
X0052321Y0064062D01*
X0050178Y0064062D02*
X0050000Y0064062D01*
X0050000Y0061071D02*
X0063954Y0061071D01*
X0064452Y0060573D02*
X0050000Y0060573D01*
X0050000Y0060074D02*
X0064951Y0060074D01*
X0065449Y0059576D02*
X0050000Y0059576D01*
X0050000Y0059077D02*
X0065948Y0059077D01*
X0066446Y0058579D02*
X0050000Y0058579D01*
X0050000Y0058080D02*
X0066542Y0058080D01*
X0066336Y0057582D02*
X0050000Y0057582D01*
X0026498Y0093973D02*
X0015002Y0093973D01*
X0015500Y0093475D02*
X0026000Y0093475D01*
X0025501Y0092976D02*
X0015999Y0092976D01*
X0016497Y0092478D02*
X0025003Y0092478D01*
X0024504Y0091979D02*
X0016996Y0091979D01*
X0017494Y0091481D02*
X0024006Y0091481D01*
X0023507Y0090982D02*
X0017993Y0090982D01*
X0018491Y0090484D02*
X0023009Y0090484D01*
X0022510Y0089985D02*
X0018990Y0089985D01*
X0019488Y0089487D02*
X0022500Y0089487D01*
X0022500Y0089975D02*
X0022500Y0087364D01*
X0021734Y0087681D01*
X0021294Y0087681D01*
X0006000Y0102975D01*
X0006000Y0139025D01*
X0022500Y0122525D01*
X0023525Y0121500D01*
X0039562Y0121500D01*
X0039873Y0121189D01*
X0040766Y0120819D01*
X0041734Y0120819D01*
X0042627Y0121189D01*
X0043311Y0121873D01*
X0043557Y0122468D01*
X0046872Y0119154D01*
X0044807Y0119154D01*
X0044807Y0111854D01*
X0052106Y0111854D01*
X0052106Y0113919D01*
X0053468Y0112557D01*
X0052873Y0112311D01*
X0052189Y0111627D01*
X0052076Y0111354D01*
X0044807Y0111354D01*
X0044807Y0111854D01*
X0044307Y0111854D01*
X0044307Y0111354D01*
X0037008Y0111354D01*
X0037008Y0108477D01*
X0040485Y0105000D01*
X0037525Y0105000D01*
X0036500Y0103975D01*
X0022500Y0089975D01*
X0022500Y0088988D02*
X0019987Y0088988D01*
X0020485Y0088489D02*
X0022500Y0088489D01*
X0022500Y0087991D02*
X0020984Y0087991D01*
X0022189Y0087492D02*
X0022500Y0087492D01*
X0026997Y0094472D02*
X0014503Y0094472D01*
X0014005Y0094970D02*
X0027495Y0094970D01*
X0027994Y0095469D02*
X0013506Y0095469D01*
X0013008Y0095967D02*
X0028492Y0095967D01*
X0028991Y0096466D02*
X0012509Y0096466D01*
X0012011Y0096964D02*
X0029489Y0096964D01*
X0029988Y0097463D02*
X0011512Y0097463D01*
X0011014Y0097961D02*
X0030486Y0097961D01*
X0030985Y0098460D02*
X0010515Y0098460D01*
X0010017Y0098958D02*
X0031483Y0098958D01*
X0031982Y0099457D02*
X0009518Y0099457D01*
X0009020Y0099955D02*
X0032480Y0099955D01*
X0032979Y0100454D02*
X0008521Y0100454D01*
X0008023Y0100952D02*
X0033477Y0100952D01*
X0033976Y0101451D02*
X0007524Y0101451D01*
X0007026Y0101949D02*
X0034474Y0101949D01*
X0034973Y0102448D02*
X0006527Y0102448D01*
X0006029Y0102946D02*
X0035471Y0102946D01*
X0035970Y0103445D02*
X0006000Y0103445D01*
X0006000Y0103943D02*
X0036468Y0103943D01*
X0036967Y0104442D02*
X0024449Y0104442D01*
X0024062Y0104055D02*
X0028484Y0108477D01*
X0028484Y0111354D01*
X0021185Y0111354D01*
X0021185Y0104055D01*
X0024062Y0104055D01*
X0024947Y0104940D02*
X0037465Y0104940D01*
X0039049Y0106436D02*
X0026443Y0106436D01*
X0026941Y0106934D02*
X0038551Y0106934D01*
X0038052Y0107433D02*
X0027440Y0107433D01*
X0027938Y0107931D02*
X0037554Y0107931D01*
X0037055Y0108430D02*
X0028437Y0108430D01*
X0028484Y0108928D02*
X0037008Y0108928D01*
X0037008Y0109427D02*
X0028484Y0109427D01*
X0028484Y0109925D02*
X0037008Y0109925D01*
X0037008Y0110424D02*
X0028484Y0110424D01*
X0028484Y0110922D02*
X0037008Y0110922D01*
X0037008Y0111854D02*
X0044307Y0111854D01*
X0044307Y0119154D01*
X0041430Y0119154D01*
X0037008Y0114731D01*
X0037008Y0111854D01*
X0037008Y0111920D02*
X0028484Y0111920D01*
X0028484Y0111854D02*
X0028484Y0114731D01*
X0024062Y0119154D01*
X0021185Y0119154D01*
X0021185Y0111854D01*
X0028484Y0111854D01*
X0028484Y0112418D02*
X0037008Y0112418D01*
X0037008Y0112917D02*
X0028484Y0112917D01*
X0028484Y0113415D02*
X0037008Y0113415D01*
X0037008Y0113914D02*
X0028484Y0113914D01*
X0028484Y0114412D02*
X0037008Y0114412D01*
X0037187Y0114911D02*
X0028305Y0114911D01*
X0027806Y0115409D02*
X0037686Y0115409D01*
X0038184Y0115908D02*
X0027308Y0115908D01*
X0026809Y0116406D02*
X0038683Y0116406D01*
X0039181Y0116905D02*
X0026311Y0116905D01*
X0025812Y0117403D02*
X0039680Y0117403D01*
X0040178Y0117902D02*
X0025314Y0117902D01*
X0024815Y0118400D02*
X0040677Y0118400D01*
X0041175Y0118899D02*
X0024317Y0118899D01*
X0021185Y0118899D02*
X0020685Y0118899D01*
X0020685Y0119154D02*
X0017808Y0119154D01*
X0013386Y0114731D01*
X0013386Y0111854D01*
X0020685Y0111854D01*
X0020685Y0111354D01*
X0021185Y0111354D01*
X0021185Y0111854D01*
X0020685Y0111854D01*
X0020685Y0119154D01*
X0020685Y0118400D02*
X0021185Y0118400D01*
X0021185Y0117902D02*
X0020685Y0117902D01*
X0020685Y0117403D02*
X0021185Y0117403D01*
X0021185Y0116905D02*
X0020685Y0116905D01*
X0020685Y0116406D02*
X0021185Y0116406D01*
X0021185Y0115908D02*
X0020685Y0115908D01*
X0020685Y0115409D02*
X0021185Y0115409D01*
X0021185Y0114911D02*
X0020685Y0114911D01*
X0020685Y0114412D02*
X0021185Y0114412D01*
X0021185Y0113914D02*
X0020685Y0113914D01*
X0020685Y0113415D02*
X0021185Y0113415D01*
X0021185Y0112917D02*
X0020685Y0112917D01*
X0020685Y0112418D02*
X0021185Y0112418D01*
X0021185Y0111920D02*
X0020685Y0111920D01*
X0020685Y0111421D02*
X0006000Y0111421D01*
X0006000Y0110922D02*
X0013386Y0110922D01*
X0013386Y0111354D02*
X0013386Y0108477D01*
X0017808Y0104055D01*
X0020685Y0104055D01*
X0020685Y0111354D01*
X0013386Y0111354D01*
X0013386Y0111920D02*
X0006000Y0111920D01*
X0006000Y0112418D02*
X0013386Y0112418D01*
X0013386Y0112917D02*
X0006000Y0112917D01*
X0006000Y0113415D02*
X0013386Y0113415D01*
X0013386Y0113914D02*
X0006000Y0113914D01*
X0006000Y0114412D02*
X0013386Y0114412D01*
X0013565Y0114911D02*
X0006000Y0114911D01*
X0006000Y0115409D02*
X0014064Y0115409D01*
X0014562Y0115908D02*
X0006000Y0115908D01*
X0006000Y0116406D02*
X0015061Y0116406D01*
X0015559Y0116905D02*
X0006000Y0116905D01*
X0006000Y0117403D02*
X0016058Y0117403D01*
X0016556Y0117902D02*
X0006000Y0117902D01*
X0006000Y0118400D02*
X0017055Y0118400D01*
X0017553Y0118899D02*
X0006000Y0118899D01*
X0006000Y0119397D02*
X0046628Y0119397D01*
X0046129Y0119896D02*
X0006000Y0119896D01*
X0006000Y0120394D02*
X0045631Y0120394D01*
X0045132Y0120893D02*
X0041912Y0120893D01*
X0042829Y0121391D02*
X0044634Y0121391D01*
X0044135Y0121890D02*
X0043318Y0121890D01*
X0043524Y0122388D02*
X0043637Y0122388D01*
X0044307Y0118899D02*
X0044807Y0118899D01*
X0044807Y0118400D02*
X0044307Y0118400D01*
X0044307Y0117902D02*
X0044807Y0117902D01*
X0044807Y0117403D02*
X0044307Y0117403D01*
X0044307Y0116905D02*
X0044807Y0116905D01*
X0044807Y0116406D02*
X0044307Y0116406D01*
X0044307Y0115908D02*
X0044807Y0115908D01*
X0044807Y0115409D02*
X0044307Y0115409D01*
X0044307Y0114911D02*
X0044807Y0114911D01*
X0044807Y0114412D02*
X0044307Y0114412D01*
X0044307Y0113914D02*
X0044807Y0113914D01*
X0044807Y0113415D02*
X0044307Y0113415D01*
X0044307Y0112917D02*
X0044807Y0112917D01*
X0044807Y0112418D02*
X0044307Y0112418D01*
X0044307Y0111920D02*
X0044807Y0111920D01*
X0044807Y0111421D02*
X0052104Y0111421D01*
X0052106Y0111920D02*
X0052481Y0111920D01*
X0052106Y0112418D02*
X0053131Y0112418D01*
X0053109Y0112917D02*
X0052106Y0112917D01*
X0052106Y0113415D02*
X0052610Y0113415D01*
X0052112Y0113914D02*
X0052106Y0113914D01*
X0055975Y0118000D02*
X0044307Y0129668D01*
X0044307Y0132732D01*
X0044807Y0132732D01*
X0044807Y0129370D01*
X0044913Y0129370D01*
X0045611Y0129509D01*
X0046268Y0129781D01*
X0046860Y0130177D01*
X0047363Y0130680D01*
X0047758Y0131271D01*
X0048030Y0131929D01*
X0048169Y0132627D01*
X0048169Y0132732D01*
X0044807Y0132732D01*
X0044807Y0133232D01*
X0048169Y0133232D01*
X0048169Y0133338D01*
X0048030Y0134036D01*
X0047758Y0134693D01*
X0047363Y0135285D01*
X0046860Y0135788D01*
X0046268Y0136183D01*
X0045611Y0136456D01*
X0044913Y0136594D01*
X0044807Y0136594D01*
X0044807Y0133232D01*
X0044307Y0133232D01*
X0044307Y0136594D01*
X0044201Y0136594D01*
X0043503Y0136456D01*
X0042846Y0136183D01*
X0042254Y0135788D01*
X0042000Y0135534D01*
X0042000Y0140431D01*
X0042511Y0139920D01*
X0043839Y0139370D01*
X0045276Y0139370D01*
X0046603Y0139920D01*
X0047619Y0140936D01*
X0048169Y0142264D01*
X0048169Y0143701D01*
X0047619Y0145028D01*
X0046603Y0146045D01*
X0045276Y0146594D01*
X0043839Y0146594D01*
X0042511Y0146045D01*
X0042000Y0145534D01*
X0042000Y0150431D01*
X0042511Y0149920D01*
X0043839Y0149370D01*
X0045276Y0149370D01*
X0046603Y0149920D01*
X0047500Y0150817D01*
X0047500Y0148525D01*
X0048525Y0147500D01*
X0054500Y0141525D01*
X0054500Y0141118D01*
X0054322Y0141045D01*
X0053306Y0140028D01*
X0052756Y0138701D01*
X0052756Y0137264D01*
X0053306Y0135936D01*
X0054322Y0134920D01*
X0055650Y0134370D01*
X0057087Y0134370D01*
X0058414Y0134920D01*
X0059430Y0135936D01*
X0059980Y0137264D01*
X0059980Y0138701D01*
X0059430Y0140028D01*
X0058414Y0141045D01*
X0058000Y0141216D01*
X0058000Y0142975D01*
X0056605Y0144370D01*
X0057087Y0144370D01*
X0058414Y0144920D01*
X0059430Y0145936D01*
X0059980Y0147264D01*
X0059980Y0148701D01*
X0059430Y0150028D01*
X0059000Y0150459D01*
X0059000Y0152525D01*
X0062000Y0155525D01*
X0062000Y0177819D01*
X0062734Y0177819D01*
X0063627Y0178189D01*
X0064311Y0178873D01*
X0064681Y0179766D01*
X0064681Y0180734D01*
X0064311Y0181627D01*
X0064000Y0181938D01*
X0064000Y0191525D01*
X0065975Y0193500D01*
X0066645Y0194170D01*
X0066969Y0193389D01*
X0068389Y0191969D01*
X0070125Y0191250D01*
X0068389Y0190531D01*
X0066969Y0189111D01*
X0066200Y0187255D01*
X0066200Y0185245D01*
X0066969Y0183389D01*
X0068389Y0181969D01*
X0070125Y0181250D01*
X0068389Y0180531D01*
X0066969Y0179111D01*
X0066200Y0177255D01*
X0066200Y0175245D01*
X0066969Y0173389D01*
X0068389Y0171969D01*
X0070125Y0171250D01*
X0068389Y0170531D01*
X0066969Y0169111D01*
X0066200Y0167255D01*
X0066200Y0165245D01*
X0066969Y0163389D01*
X0068389Y0161969D01*
X0070239Y0161203D01*
X0070067Y0161176D01*
X0069311Y0160930D01*
X0068603Y0160569D01*
X0067960Y0160102D01*
X0067398Y0159540D01*
X0066931Y0158897D01*
X0066570Y0158189D01*
X0066324Y0157433D01*
X0066200Y0156647D01*
X0066200Y0156500D01*
X0071000Y0156500D01*
X0071000Y0156000D01*
X0071500Y0156000D01*
X0071500Y0151300D01*
X0071000Y0151300D01*
X0071000Y0156000D01*
X0066200Y0156000D01*
X0066200Y0155853D01*
X0066324Y0155067D01*
X0066570Y0154311D01*
X0066931Y0153603D01*
X0067398Y0152960D01*
X0067960Y0152398D01*
X0068603Y0151931D01*
X0069311Y0151570D01*
X0070067Y0151324D01*
X0070239Y0151297D01*
X0068389Y0150531D01*
X0066969Y0149111D01*
X0066200Y0147255D01*
X0066200Y0145245D01*
X0066969Y0143389D01*
X0068389Y0141969D01*
X0070125Y0141250D01*
X0068389Y0140531D01*
X0066969Y0139111D01*
X0066200Y0137255D01*
X0066200Y0135245D01*
X0066969Y0133389D01*
X0067442Y0132917D01*
X0062525Y0128000D01*
X0061500Y0126975D01*
X0061500Y0118364D01*
X0060734Y0118681D01*
X0059766Y0118681D01*
X0058873Y0118311D01*
X0058562Y0118000D01*
X0055975Y0118000D01*
X0055575Y0118400D02*
X0059088Y0118400D01*
X0061412Y0118400D02*
X0061500Y0118400D01*
X0061500Y0118899D02*
X0055076Y0118899D01*
X0054578Y0119397D02*
X0061500Y0119397D01*
X0061500Y0119896D02*
X0054079Y0119896D01*
X0053581Y0120394D02*
X0061500Y0120394D01*
X0061500Y0120893D02*
X0053082Y0120893D01*
X0052584Y0121391D02*
X0061500Y0121391D01*
X0061500Y0121890D02*
X0052085Y0121890D01*
X0051587Y0122388D02*
X0061500Y0122388D01*
X0061500Y0122887D02*
X0051088Y0122887D01*
X0050590Y0123385D02*
X0061500Y0123385D01*
X0061500Y0123884D02*
X0050091Y0123884D01*
X0049593Y0124382D02*
X0053476Y0124382D01*
X0053488Y0124370D02*
X0052756Y0125102D01*
X0052756Y0130862D01*
X0053488Y0131594D01*
X0059248Y0131594D01*
X0059980Y0130862D01*
X0059980Y0125102D01*
X0059248Y0124370D01*
X0053488Y0124370D01*
X0052977Y0124881D02*
X0049094Y0124881D01*
X0048596Y0125379D02*
X0052756Y0125379D01*
X0052756Y0125878D02*
X0048097Y0125878D01*
X0047599Y0126376D02*
X0052756Y0126376D01*
X0052756Y0126875D02*
X0047100Y0126875D01*
X0046601Y0127373D02*
X0052756Y0127373D01*
X0052756Y0127872D02*
X0046103Y0127872D01*
X0045604Y0128370D02*
X0052756Y0128370D01*
X0052756Y0128869D02*
X0045106Y0128869D01*
X0044607Y0129367D02*
X0052756Y0129367D01*
X0052756Y0129866D02*
X0046395Y0129866D01*
X0047048Y0130364D02*
X0052756Y0130364D01*
X0052757Y0130863D02*
X0047485Y0130863D01*
X0047796Y0131361D02*
X0053255Y0131361D01*
X0054488Y0134851D02*
X0047653Y0134851D01*
X0047899Y0134353D02*
X0066570Y0134353D01*
X0066363Y0134851D02*
X0058248Y0134851D01*
X0058844Y0135350D02*
X0066200Y0135350D01*
X0066200Y0135848D02*
X0059342Y0135848D01*
X0059600Y0136347D02*
X0066200Y0136347D01*
X0066200Y0136845D02*
X0059807Y0136845D01*
X0059980Y0137344D02*
X0066237Y0137344D01*
X0066443Y0137842D02*
X0059980Y0137842D01*
X0059980Y0138341D02*
X0066650Y0138341D01*
X0066856Y0138839D02*
X0059923Y0138839D01*
X0059717Y0139338D02*
X0067196Y0139338D01*
X0067694Y0139836D02*
X0059510Y0139836D01*
X0059124Y0140335D02*
X0068193Y0140335D01*
X0069118Y0140833D02*
X0058626Y0140833D01*
X0058000Y0141332D02*
X0069928Y0141332D01*
X0068724Y0141830D02*
X0058000Y0141830D01*
X0058000Y0142329D02*
X0068030Y0142329D01*
X0067531Y0142827D02*
X0058000Y0142827D01*
X0057649Y0143326D02*
X0067032Y0143326D01*
X0066789Y0143824D02*
X0057151Y0143824D01*
X0056652Y0144323D02*
X0066582Y0144323D01*
X0066376Y0144821D02*
X0058176Y0144821D01*
X0058814Y0145320D02*
X0066200Y0145320D01*
X0066200Y0145818D02*
X0059313Y0145818D01*
X0059588Y0146317D02*
X0066200Y0146317D01*
X0066200Y0146815D02*
X0059795Y0146815D01*
X0059980Y0147314D02*
X0066225Y0147314D01*
X0066431Y0147812D02*
X0059980Y0147812D01*
X0059980Y0148311D02*
X0066638Y0148311D01*
X0066844Y0148809D02*
X0059935Y0148809D01*
X0059729Y0149308D02*
X0067166Y0149308D01*
X0067665Y0149806D02*
X0059522Y0149806D01*
X0059154Y0150305D02*
X0068163Y0150305D01*
X0069047Y0150803D02*
X0059000Y0150803D01*
X0059000Y0151302D02*
X0070209Y0151302D01*
X0071000Y0151302D02*
X0071500Y0151302D01*
X0071500Y0151800D02*
X0071000Y0151800D01*
X0071000Y0152299D02*
X0071500Y0152299D01*
X0071500Y0152797D02*
X0071000Y0152797D01*
X0071000Y0153296D02*
X0071500Y0153296D01*
X0071500Y0153794D02*
X0071000Y0153794D01*
X0071000Y0154293D02*
X0071500Y0154293D01*
X0071500Y0154791D02*
X0071000Y0154791D01*
X0071000Y0155290D02*
X0071500Y0155290D01*
X0071500Y0155789D02*
X0071000Y0155789D01*
X0071000Y0156287D02*
X0062000Y0156287D01*
X0062000Y0155789D02*
X0066210Y0155789D01*
X0066289Y0155290D02*
X0061765Y0155290D01*
X0061266Y0154791D02*
X0066414Y0154791D01*
X0066579Y0154293D02*
X0060768Y0154293D01*
X0060269Y0153794D02*
X0066833Y0153794D01*
X0067154Y0153296D02*
X0059771Y0153296D01*
X0059272Y0152797D02*
X0067561Y0152797D01*
X0068097Y0152299D02*
X0059000Y0152299D01*
X0059000Y0151800D02*
X0068859Y0151800D01*
X0066222Y0156786D02*
X0062000Y0156786D01*
X0062000Y0157284D02*
X0066301Y0157284D01*
X0066438Y0157783D02*
X0062000Y0157783D01*
X0062000Y0158281D02*
X0066617Y0158281D01*
X0066871Y0158780D02*
X0062000Y0158780D01*
X0062000Y0159278D02*
X0067208Y0159278D01*
X0067635Y0159777D02*
X0062000Y0159777D01*
X0062000Y0160275D02*
X0068199Y0160275D01*
X0069005Y0160774D02*
X0062000Y0160774D01*
X0062000Y0161272D02*
X0070071Y0161272D01*
X0068868Y0161771D02*
X0062000Y0161771D01*
X0062000Y0162269D02*
X0068089Y0162269D01*
X0067591Y0162768D02*
X0062000Y0162768D01*
X0062000Y0163266D02*
X0067092Y0163266D01*
X0066813Y0163765D02*
X0062000Y0163765D01*
X0062000Y0164263D02*
X0066607Y0164263D01*
X0066400Y0164762D02*
X0062000Y0164762D01*
X0062000Y0165260D02*
X0066200Y0165260D01*
X0066200Y0165759D02*
X0062000Y0165759D01*
X0062000Y0166257D02*
X0066200Y0166257D01*
X0066200Y0166756D02*
X0062000Y0166756D01*
X0062000Y0167254D02*
X0066200Y0167254D01*
X0066406Y0167753D02*
X0062000Y0167753D01*
X0062000Y0168251D02*
X0066613Y0168251D01*
X0066819Y0168750D02*
X0062000Y0168750D01*
X0062000Y0169248D02*
X0067107Y0169248D01*
X0067605Y0169747D02*
X0062000Y0169747D01*
X0062000Y0170245D02*
X0068104Y0170245D01*
X0068903Y0170744D02*
X0062000Y0170744D01*
X0062000Y0171242D02*
X0070106Y0171242D01*
X0068940Y0171741D02*
X0062000Y0171741D01*
X0062000Y0172239D02*
X0068119Y0172239D01*
X0067620Y0172738D02*
X0062000Y0172738D01*
X0062000Y0173236D02*
X0067122Y0173236D01*
X0066826Y0173735D02*
X0062000Y0173735D01*
X0062000Y0174233D02*
X0066619Y0174233D01*
X0066413Y0174732D02*
X0062000Y0174732D01*
X0062000Y0175230D02*
X0066206Y0175230D01*
X0066200Y0175729D02*
X0062000Y0175729D01*
X0062000Y0176227D02*
X0066200Y0176227D01*
X0066200Y0176726D02*
X0062000Y0176726D01*
X0062000Y0177224D02*
X0066200Y0177224D01*
X0066394Y0177723D02*
X0062000Y0177723D01*
X0063660Y0178222D02*
X0066601Y0178222D01*
X0066807Y0178720D02*
X0064158Y0178720D01*
X0064454Y0179219D02*
X0067077Y0179219D01*
X0067575Y0179717D02*
X0064661Y0179717D01*
X0064681Y0180216D02*
X0068074Y0180216D01*
X0068831Y0180714D02*
X0064681Y0180714D01*
X0064483Y0181213D02*
X0070035Y0181213D01*
X0069012Y0181711D02*
X0064227Y0181711D01*
X0064000Y0182210D02*
X0068149Y0182210D01*
X0067650Y0182708D02*
X0064000Y0182708D01*
X0064000Y0183207D02*
X0067152Y0183207D01*
X0066838Y0183705D02*
X0064000Y0183705D01*
X0064000Y0184204D02*
X0066632Y0184204D01*
X0066425Y0184702D02*
X0064000Y0184702D01*
X0064000Y0185201D02*
X0066219Y0185201D01*
X0066200Y0185699D02*
X0064000Y0185699D01*
X0064000Y0186198D02*
X0066200Y0186198D01*
X0066200Y0186696D02*
X0064000Y0186696D01*
X0064000Y0187195D02*
X0066200Y0187195D01*
X0066382Y0187693D02*
X0064000Y0187693D01*
X0064000Y0188192D02*
X0066588Y0188192D01*
X0066795Y0188690D02*
X0064000Y0188690D01*
X0064000Y0189189D02*
X0067047Y0189189D01*
X0067545Y0189687D02*
X0064000Y0189687D01*
X0064000Y0190186D02*
X0068044Y0190186D01*
X0068759Y0190684D02*
X0064000Y0190684D01*
X0064000Y0191183D02*
X0069963Y0191183D01*
X0069083Y0191681D02*
X0064156Y0191681D01*
X0064655Y0192180D02*
X0068178Y0192180D01*
X0067680Y0192678D02*
X0065153Y0192678D01*
X0065652Y0193177D02*
X0067181Y0193177D01*
X0066850Y0193675D02*
X0066150Y0193675D01*
X0061500Y0204234D02*
X0061227Y0204894D01*
X0058831Y0207290D01*
X0055700Y0208587D01*
X0052312Y0208587D01*
X0049181Y0207290D01*
X0046785Y0204894D01*
X0045488Y0201763D01*
X0045488Y0198375D01*
X0046785Y0195244D01*
X0049181Y0192848D01*
X0052312Y0191551D01*
X0055453Y0191551D01*
X0054873Y0191311D01*
X0054189Y0190627D01*
X0053819Y0189734D01*
X0053819Y0188766D01*
X0054189Y0187873D01*
X0054500Y0187562D01*
X0054500Y0161118D01*
X0054322Y0161045D01*
X0053306Y0160028D01*
X0052756Y0158701D01*
X0052756Y0157264D01*
X0053306Y0155936D01*
X0054322Y0154920D01*
X0055650Y0154370D01*
X0055895Y0154370D01*
X0055500Y0153975D01*
X0055500Y0151533D01*
X0054322Y0151045D01*
X0053306Y0150028D01*
X0052756Y0148701D01*
X0052756Y0148219D01*
X0051000Y0149975D01*
X0051000Y0158975D01*
X0043164Y0166811D01*
X0044307Y0166811D01*
X0044307Y0174110D01*
X0044807Y0174110D01*
X0044807Y0166811D01*
X0047684Y0166811D01*
X0052106Y0171233D01*
X0052106Y0174110D01*
X0044807Y0174110D01*
X0044807Y0174610D01*
X0052106Y0174610D01*
X0052106Y0177487D01*
X0047684Y0181909D01*
X0044807Y0181909D01*
X0044807Y0174610D01*
X0044307Y0174610D01*
X0044307Y0181909D01*
X0043000Y0181909D01*
X0043000Y0204975D01*
X0037681Y0210294D01*
X0037681Y0210734D01*
X0037311Y0211627D01*
X0036627Y0212311D01*
X0036032Y0212557D01*
X0043432Y0219957D01*
X0043766Y0219819D01*
X0044734Y0219819D01*
X0045627Y0220189D01*
X0046311Y0220873D01*
X0046681Y0221766D01*
X0046681Y0222734D01*
X0046364Y0223500D01*
X0051975Y0223500D01*
X0053000Y0224525D01*
X0053000Y0224525D01*
X0059943Y0231468D01*
X0060189Y0230873D01*
X0060500Y0230562D01*
X0060500Y0227938D01*
X0060189Y0227627D01*
X0059819Y0226734D01*
X0059819Y0225766D01*
X0060189Y0224873D01*
X0060381Y0224681D01*
X0059766Y0224681D01*
X0058873Y0224311D01*
X0058189Y0223627D01*
X0057819Y0222734D01*
X0057819Y0221766D01*
X0058189Y0220873D01*
X0058873Y0220189D01*
X0059766Y0219819D01*
X0060734Y0219819D01*
X0061627Y0220189D01*
X0061938Y0220500D01*
X0062975Y0220500D01*
X0072294Y0229819D01*
X0072500Y0229819D01*
X0072500Y0227938D01*
X0072189Y0227627D01*
X0071819Y0226734D01*
X0071819Y0225766D01*
X0072189Y0224873D01*
X0072873Y0224189D01*
X0073766Y0223819D01*
X0074734Y0223819D01*
X0075627Y0224189D01*
X0076311Y0224873D01*
X0076681Y0225766D01*
X0076681Y0226734D01*
X0076311Y0227627D01*
X0076000Y0227938D01*
X0076000Y0229525D01*
X0077000Y0230525D01*
X0077000Y0249562D01*
X0077311Y0249873D01*
X0077681Y0250766D01*
X0077681Y0251734D01*
X0077311Y0252627D01*
X0076627Y0253311D01*
X0076032Y0253557D01*
X0079000Y0256525D01*
X0079000Y0259562D01*
X0079311Y0259873D01*
X0079681Y0260766D01*
X0079681Y0261734D01*
X0079364Y0262500D01*
X0085975Y0262500D01*
X0087000Y0263525D01*
X0093768Y0270294D01*
X0093873Y0270189D01*
X0094468Y0269943D01*
X0085706Y0261181D01*
X0084802Y0261555D01*
X0083052Y0261555D01*
X0081435Y0260885D01*
X0080197Y0259648D01*
X0079528Y0258031D01*
X0079528Y0256280D01*
X0080197Y0254663D01*
X0081435Y0253426D01*
X0081935Y0253218D01*
X0081435Y0253011D01*
X0080197Y0251774D01*
X0079528Y0250157D01*
X0079528Y0248406D01*
X0080197Y0246789D01*
X0081435Y0245552D01*
X0081951Y0245338D01*
X0081621Y0245170D01*
X0081061Y0244763D01*
X0080571Y0244274D01*
X0080164Y0243713D01*
X0079850Y0243096D01*
X0079636Y0242438D01*
X0079528Y0241754D01*
X0079528Y0241657D01*
X0083677Y0241657D01*
X0083677Y0241157D01*
X0079528Y0241157D01*
X0079528Y0241061D01*
X0079636Y0240377D01*
X0079850Y0239719D01*
X0080164Y0239102D01*
X0080571Y0238541D01*
X0081061Y0238052D01*
X0081621Y0237645D01*
X0081951Y0237477D01*
X0081435Y0237263D01*
X0080197Y0236026D01*
X0079528Y0234409D01*
X0079528Y0232658D01*
X0080197Y0231041D01*
X0081435Y0229804D01*
X0083052Y0229134D01*
X0084802Y0229134D01*
X0086419Y0229804D01*
X0087320Y0230705D01*
X0090468Y0227557D01*
X0089873Y0227311D01*
X0089562Y0227000D01*
X0081525Y0227000D01*
X0080500Y0225975D01*
X0075525Y0221000D01*
X0069938Y0221000D01*
X0069627Y0221311D01*
X0068734Y0221681D01*
X0067766Y0221681D01*
X0066873Y0221311D01*
X0066189Y0220627D01*
X0065819Y0219734D01*
X0065819Y0218766D01*
X0066136Y0218000D01*
X0062938Y0218000D01*
X0062627Y0218311D01*
X0061734Y0218681D01*
X0060766Y0218681D01*
X0059873Y0218311D01*
X0059189Y0217627D01*
X0058819Y0216734D01*
X0058819Y0215766D01*
X0059189Y0214873D01*
X0059873Y0214189D01*
X0060766Y0213819D01*
X0061734Y0213819D01*
X0062627Y0214189D01*
X0062938Y0214500D01*
X0066025Y0214500D01*
X0061500Y0209975D01*
X0061500Y0204234D01*
X0061500Y0204643D02*
X0061331Y0204643D01*
X0061500Y0205141D02*
X0060980Y0205141D01*
X0060481Y0205640D02*
X0061500Y0205640D01*
X0061500Y0206138D02*
X0059983Y0206138D01*
X0059484Y0206637D02*
X0061500Y0206637D01*
X0061500Y0207135D02*
X0058985Y0207135D01*
X0058001Y0207634D02*
X0061500Y0207634D01*
X0061500Y0208132D02*
X0056797Y0208132D01*
X0061500Y0208631D02*
X0039344Y0208631D01*
X0038846Y0209129D02*
X0061500Y0209129D01*
X0061500Y0209628D02*
X0038347Y0209628D01*
X0037849Y0210126D02*
X0061651Y0210126D01*
X0062150Y0210625D02*
X0037681Y0210625D01*
X0037520Y0211123D02*
X0062648Y0211123D01*
X0063147Y0211622D02*
X0037313Y0211622D01*
X0036818Y0212120D02*
X0063645Y0212120D01*
X0064144Y0212619D02*
X0036094Y0212619D01*
X0036592Y0213117D02*
X0064642Y0213117D01*
X0065141Y0213616D02*
X0037091Y0213616D01*
X0037589Y0214114D02*
X0060053Y0214114D01*
X0059449Y0214613D02*
X0038088Y0214613D01*
X0038586Y0215111D02*
X0059090Y0215111D01*
X0058884Y0215610D02*
X0039085Y0215610D01*
X0039583Y0216108D02*
X0058819Y0216108D01*
X0058819Y0216607D02*
X0040082Y0216607D01*
X0040580Y0217105D02*
X0058973Y0217105D01*
X0059179Y0217604D02*
X0041079Y0217604D01*
X0041577Y0218102D02*
X0059664Y0218102D01*
X0060573Y0218601D02*
X0042076Y0218601D01*
X0042574Y0219099D02*
X0065819Y0219099D01*
X0065819Y0219598D02*
X0043073Y0219598D01*
X0045404Y0220096D02*
X0059096Y0220096D01*
X0058467Y0220595D02*
X0046033Y0220595D01*
X0046402Y0221093D02*
X0058098Y0221093D01*
X0057891Y0221592D02*
X0046609Y0221592D01*
X0046681Y0222091D02*
X0057819Y0222091D01*
X0057819Y0222589D02*
X0046681Y0222589D01*
X0046534Y0223088D02*
X0057966Y0223088D01*
X0058172Y0223586D02*
X0052061Y0223586D01*
X0052559Y0224085D02*
X0058646Y0224085D01*
X0059530Y0224583D02*
X0053058Y0224583D01*
X0053556Y0225082D02*
X0060103Y0225082D01*
X0059896Y0225580D02*
X0054055Y0225580D01*
X0054553Y0226079D02*
X0059819Y0226079D01*
X0059819Y0226577D02*
X0055052Y0226577D01*
X0055550Y0227076D02*
X0059961Y0227076D01*
X0060167Y0227574D02*
X0056049Y0227574D01*
X0056548Y0228073D02*
X0060500Y0228073D01*
X0060500Y0228571D02*
X0057046Y0228571D01*
X0057545Y0229070D02*
X0060500Y0229070D01*
X0060500Y0229568D02*
X0058043Y0229568D01*
X0058542Y0230067D02*
X0060500Y0230067D01*
X0060497Y0230565D02*
X0059040Y0230565D01*
X0059539Y0231064D02*
X0060110Y0231064D01*
X0065562Y0223088D02*
X0077613Y0223088D01*
X0078111Y0223586D02*
X0066061Y0223586D01*
X0066559Y0224085D02*
X0073125Y0224085D01*
X0072479Y0224583D02*
X0067058Y0224583D01*
X0067556Y0225082D02*
X0072103Y0225082D01*
X0071896Y0225580D02*
X0068055Y0225580D01*
X0068553Y0226079D02*
X0071819Y0226079D01*
X0071819Y0226577D02*
X0069052Y0226577D01*
X0069550Y0227076D02*
X0071961Y0227076D01*
X0072167Y0227574D02*
X0070049Y0227574D01*
X0070548Y0228073D02*
X0072500Y0228073D01*
X0072500Y0228571D02*
X0071046Y0228571D01*
X0071545Y0229070D02*
X0072500Y0229070D01*
X0072500Y0229568D02*
X0072043Y0229568D01*
X0076000Y0229070D02*
X0088955Y0229070D01*
X0088457Y0229568D02*
X0085851Y0229568D01*
X0086682Y0230067D02*
X0087958Y0230067D01*
X0087460Y0230565D02*
X0087181Y0230565D01*
X0089454Y0228571D02*
X0076000Y0228571D01*
X0076000Y0228073D02*
X0089952Y0228073D01*
X0090451Y0227574D02*
X0076333Y0227574D01*
X0076539Y0227076D02*
X0089638Y0227076D01*
X0091911Y0231064D02*
X0094500Y0231064D01*
X0094500Y0231562D02*
X0091413Y0231562D01*
X0090914Y0232061D02*
X0094500Y0232061D01*
X0094500Y0232559D02*
X0090416Y0232559D01*
X0089917Y0233058D02*
X0094500Y0233058D01*
X0094500Y0233556D02*
X0089419Y0233556D01*
X0088920Y0234055D02*
X0094500Y0234055D01*
X0094500Y0234553D02*
X0088422Y0234553D01*
X0088157Y0234817D02*
X0087657Y0236026D01*
X0086419Y0237263D01*
X0085904Y0237477D01*
X0086233Y0237645D01*
X0086793Y0238052D01*
X0087283Y0238541D01*
X0087690Y0239102D01*
X0088004Y0239719D01*
X0088218Y0240377D01*
X0088327Y0241061D01*
X0088327Y0241157D01*
X0084177Y0241157D01*
X0084177Y0241657D01*
X0088327Y0241657D01*
X0088327Y0241754D01*
X0088218Y0242438D01*
X0088004Y0243096D01*
X0087690Y0243713D01*
X0087283Y0244274D01*
X0086793Y0244763D01*
X0086233Y0245170D01*
X0085904Y0245338D01*
X0086419Y0245552D01*
X0087657Y0246789D01*
X0088327Y0248406D01*
X0088327Y0250157D01*
X0087657Y0251774D01*
X0086419Y0253011D01*
X0085919Y0253218D01*
X0086419Y0253426D01*
X0087657Y0254663D01*
X0088327Y0256280D01*
X0088327Y0258031D01*
X0088086Y0258611D01*
X0098975Y0269500D01*
X0102838Y0269500D01*
X0104738Y0267600D01*
X0106125Y0267600D01*
X0104500Y0265975D01*
X0104500Y0261876D01*
X0104182Y0261744D01*
X0103156Y0260718D01*
X0102600Y0259376D01*
X0102600Y0253124D01*
X0103156Y0251782D01*
X0104182Y0250756D01*
X0105524Y0250200D01*
X0106976Y0250200D01*
X0108318Y0250756D01*
X0109344Y0251782D01*
X0109900Y0253124D01*
X0109900Y0259376D01*
X0109344Y0260718D01*
X0108318Y0261744D01*
X0108000Y0261876D01*
X0108000Y0264525D01*
X0110975Y0267500D01*
X0112000Y0268525D01*
X0112000Y0273975D01*
X0110000Y0275975D01*
X0109475Y0276500D01*
X0111525Y0276500D01*
X0125725Y0262300D01*
X0125524Y0262300D01*
X0124182Y0261744D01*
X0123156Y0260718D01*
X0122600Y0259376D01*
X0122600Y0253124D01*
X0123156Y0251782D01*
X0124182Y0250756D01*
X0124500Y0250624D01*
X0124500Y0233525D01*
X0125725Y0232300D01*
X0125524Y0232300D01*
X0124182Y0231744D01*
X0123156Y0230718D01*
X0122893Y0230082D01*
X0119000Y0233975D01*
X0117975Y0235000D01*
X0104525Y0235000D01*
X0098525Y0229000D01*
X0098000Y0228475D01*
X0098000Y0257562D01*
X0098311Y0257873D01*
X0098681Y0258766D01*
X0098681Y0259734D01*
X0098311Y0260627D01*
X0097627Y0261311D01*
X0096734Y0261681D01*
X0095766Y0261681D01*
X0094873Y0261311D01*
X0094189Y0260627D01*
X0093819Y0259734D01*
X0093819Y0258766D01*
X0094189Y0257873D01*
X0094500Y0257562D01*
X0094500Y0228475D01*
X0088157Y0234817D01*
X0088060Y0235052D02*
X0094500Y0235052D01*
X0094500Y0235550D02*
X0087854Y0235550D01*
X0087634Y0236049D02*
X0094500Y0236049D01*
X0094500Y0236547D02*
X0087135Y0236547D01*
X0086637Y0237046D02*
X0094500Y0237046D01*
X0094500Y0237544D02*
X0086036Y0237544D01*
X0086781Y0238043D02*
X0094500Y0238043D01*
X0094500Y0238541D02*
X0087283Y0238541D01*
X0087645Y0239040D02*
X0094500Y0239040D01*
X0094500Y0239538D02*
X0087913Y0239538D01*
X0088108Y0240037D02*
X0094500Y0240037D01*
X0094500Y0240535D02*
X0088243Y0240535D01*
X0088322Y0241034D02*
X0094500Y0241034D01*
X0094500Y0241532D02*
X0084177Y0241532D01*
X0083677Y0241532D02*
X0077000Y0241532D01*
X0077000Y0241034D02*
X0079532Y0241034D01*
X0079611Y0240535D02*
X0077000Y0240535D01*
X0077000Y0240037D02*
X0079746Y0240037D01*
X0079942Y0239538D02*
X0077000Y0239538D01*
X0077000Y0239040D02*
X0080209Y0239040D01*
X0080571Y0238541D02*
X0077000Y0238541D01*
X0077000Y0238043D02*
X0081073Y0238043D01*
X0081818Y0237544D02*
X0077000Y0237544D01*
X0077000Y0237046D02*
X0081218Y0237046D01*
X0080719Y0236547D02*
X0077000Y0236547D01*
X0077000Y0236049D02*
X0080221Y0236049D01*
X0080000Y0235550D02*
X0077000Y0235550D01*
X0077000Y0235052D02*
X0079794Y0235052D01*
X0079588Y0234553D02*
X0077000Y0234553D01*
X0077000Y0234055D02*
X0079528Y0234055D01*
X0079528Y0233556D02*
X0077000Y0233556D01*
X0077000Y0233058D02*
X0079528Y0233058D01*
X0079569Y0232559D02*
X0077000Y0232559D01*
X0077000Y0232061D02*
X0079775Y0232061D01*
X0079982Y0231562D02*
X0077000Y0231562D01*
X0077000Y0231064D02*
X0080188Y0231064D01*
X0080673Y0230565D02*
X0077000Y0230565D01*
X0076542Y0230067D02*
X0081172Y0230067D01*
X0082003Y0229568D02*
X0076043Y0229568D01*
X0076681Y0226577D02*
X0081102Y0226577D01*
X0080604Y0226079D02*
X0076681Y0226079D01*
X0076604Y0225580D02*
X0080105Y0225580D01*
X0079607Y0225082D02*
X0076397Y0225082D01*
X0076021Y0224583D02*
X0079108Y0224583D01*
X0078610Y0224085D02*
X0075375Y0224085D01*
X0077114Y0222589D02*
X0065064Y0222589D01*
X0064565Y0222091D02*
X0076616Y0222091D01*
X0076117Y0221592D02*
X0068949Y0221592D01*
X0069845Y0221093D02*
X0075619Y0221093D01*
X0067551Y0221592D02*
X0064067Y0221592D01*
X0063568Y0221093D02*
X0066655Y0221093D01*
X0066176Y0220595D02*
X0063070Y0220595D01*
X0061404Y0220096D02*
X0065969Y0220096D01*
X0065887Y0218601D02*
X0061927Y0218601D01*
X0062836Y0218102D02*
X0066094Y0218102D01*
X0065639Y0214114D02*
X0062447Y0214114D01*
X0051215Y0208132D02*
X0039843Y0208132D01*
X0040341Y0207634D02*
X0050011Y0207634D01*
X0049026Y0207135D02*
X0040840Y0207135D01*
X0041338Y0206637D02*
X0048528Y0206637D01*
X0048029Y0206138D02*
X0041837Y0206138D01*
X0042335Y0205640D02*
X0047531Y0205640D01*
X0047032Y0205141D02*
X0042834Y0205141D01*
X0043000Y0204643D02*
X0046681Y0204643D01*
X0046474Y0204144D02*
X0043000Y0204144D01*
X0043000Y0203646D02*
X0046268Y0203646D01*
X0046061Y0203147D02*
X0043000Y0203147D01*
X0043000Y0202649D02*
X0045855Y0202649D01*
X0045648Y0202150D02*
X0043000Y0202150D01*
X0043000Y0201652D02*
X0045488Y0201652D01*
X0045488Y0201153D02*
X0043000Y0201153D01*
X0043000Y0200655D02*
X0045488Y0200655D01*
X0045488Y0200156D02*
X0043000Y0200156D01*
X0043000Y0199658D02*
X0045488Y0199658D01*
X0045488Y0199159D02*
X0043000Y0199159D01*
X0043000Y0198660D02*
X0045488Y0198660D01*
X0045576Y0198162D02*
X0043000Y0198162D01*
X0043000Y0197663D02*
X0045783Y0197663D01*
X0045989Y0197165D02*
X0043000Y0197165D01*
X0043000Y0196666D02*
X0046196Y0196666D01*
X0046402Y0196168D02*
X0043000Y0196168D01*
X0043000Y0195669D02*
X0046609Y0195669D01*
X0046858Y0195171D02*
X0043000Y0195171D01*
X0043000Y0194672D02*
X0047357Y0194672D01*
X0047855Y0194174D02*
X0043000Y0194174D01*
X0043000Y0193675D02*
X0048354Y0193675D01*
X0048852Y0193177D02*
X0043000Y0193177D01*
X0043000Y0192678D02*
X0049590Y0192678D01*
X0050794Y0192180D02*
X0043000Y0192180D01*
X0043000Y0191681D02*
X0051997Y0191681D01*
X0054246Y0190684D02*
X0043000Y0190684D01*
X0043000Y0190186D02*
X0054006Y0190186D01*
X0053819Y0189687D02*
X0043000Y0189687D01*
X0043000Y0189189D02*
X0053819Y0189189D01*
X0053850Y0188690D02*
X0043000Y0188690D01*
X0043000Y0188192D02*
X0054057Y0188192D01*
X0054369Y0187693D02*
X0043000Y0187693D01*
X0043000Y0187195D02*
X0054500Y0187195D01*
X0054500Y0186696D02*
X0043000Y0186696D01*
X0043000Y0186198D02*
X0054500Y0186198D01*
X0054500Y0185699D02*
X0043000Y0185699D01*
X0043000Y0185201D02*
X0054500Y0185201D01*
X0054500Y0184702D02*
X0043000Y0184702D01*
X0043000Y0184204D02*
X0054500Y0184204D01*
X0054500Y0183705D02*
X0043000Y0183705D01*
X0043000Y0183207D02*
X0054500Y0183207D01*
X0054500Y0182708D02*
X0043000Y0182708D01*
X0043000Y0182210D02*
X0054500Y0182210D01*
X0054500Y0181711D02*
X0047882Y0181711D01*
X0048381Y0181213D02*
X0054500Y0181213D01*
X0054500Y0180714D02*
X0048879Y0180714D01*
X0049378Y0180216D02*
X0054500Y0180216D01*
X0054500Y0179717D02*
X0049876Y0179717D01*
X0050375Y0179219D02*
X0054500Y0179219D01*
X0054500Y0178720D02*
X0050873Y0178720D01*
X0051372Y0178222D02*
X0054500Y0178222D01*
X0054500Y0177723D02*
X0051870Y0177723D01*
X0052106Y0177224D02*
X0054500Y0177224D01*
X0054500Y0176726D02*
X0052106Y0176726D01*
X0052106Y0176227D02*
X0054500Y0176227D01*
X0054500Y0175729D02*
X0052106Y0175729D01*
X0052106Y0175230D02*
X0054500Y0175230D01*
X0054500Y0174732D02*
X0052106Y0174732D01*
X0052106Y0173735D02*
X0054500Y0173735D01*
X0054500Y0174233D02*
X0044807Y0174233D01*
X0044807Y0173735D02*
X0044307Y0173735D01*
X0044307Y0173236D02*
X0044807Y0173236D01*
X0044807Y0172738D02*
X0044307Y0172738D01*
X0044307Y0172239D02*
X0044807Y0172239D01*
X0044807Y0171741D02*
X0044307Y0171741D01*
X0044307Y0171242D02*
X0044807Y0171242D01*
X0044807Y0170744D02*
X0044307Y0170744D01*
X0044307Y0170245D02*
X0044807Y0170245D01*
X0044807Y0169747D02*
X0044307Y0169747D01*
X0044307Y0169248D02*
X0044807Y0169248D01*
X0044807Y0168750D02*
X0044307Y0168750D01*
X0044307Y0168251D02*
X0044807Y0168251D01*
X0044807Y0167753D02*
X0044307Y0167753D01*
X0044307Y0167254D02*
X0044807Y0167254D01*
X0043718Y0166257D02*
X0054500Y0166257D01*
X0054500Y0165759D02*
X0044216Y0165759D01*
X0044715Y0165260D02*
X0054500Y0165260D01*
X0054500Y0164762D02*
X0045213Y0164762D01*
X0045712Y0164263D02*
X0054500Y0164263D01*
X0054500Y0163765D02*
X0046210Y0163765D01*
X0046709Y0163266D02*
X0054500Y0163266D01*
X0054500Y0162768D02*
X0047207Y0162768D01*
X0047706Y0162269D02*
X0054500Y0162269D01*
X0054500Y0161771D02*
X0048204Y0161771D01*
X0048703Y0161272D02*
X0054500Y0161272D01*
X0054051Y0160774D02*
X0049201Y0160774D01*
X0049700Y0160275D02*
X0053553Y0160275D01*
X0053202Y0159777D02*
X0050198Y0159777D01*
X0050697Y0159278D02*
X0052995Y0159278D01*
X0052789Y0158780D02*
X0051000Y0158780D01*
X0051000Y0158281D02*
X0052756Y0158281D01*
X0052756Y0157783D02*
X0051000Y0157783D01*
X0051000Y0157284D02*
X0052756Y0157284D01*
X0052954Y0156786D02*
X0051000Y0156786D01*
X0051000Y0156287D02*
X0053160Y0156287D01*
X0053453Y0155789D02*
X0051000Y0155789D01*
X0051000Y0155290D02*
X0053952Y0155290D01*
X0054632Y0154791D02*
X0051000Y0154791D01*
X0051000Y0154293D02*
X0055818Y0154293D01*
X0055500Y0153794D02*
X0051000Y0153794D01*
X0051000Y0153296D02*
X0055500Y0153296D01*
X0055500Y0152797D02*
X0051000Y0152797D01*
X0051000Y0152299D02*
X0055500Y0152299D01*
X0055500Y0151800D02*
X0051000Y0151800D01*
X0051000Y0151302D02*
X0054943Y0151302D01*
X0054081Y0150803D02*
X0051000Y0150803D01*
X0051000Y0150305D02*
X0053582Y0150305D01*
X0053214Y0149806D02*
X0051168Y0149806D01*
X0051667Y0149308D02*
X0053007Y0149308D01*
X0052801Y0148809D02*
X0052166Y0148809D01*
X0052664Y0148311D02*
X0052756Y0148311D01*
X0051204Y0144821D02*
X0047705Y0144821D01*
X0047912Y0144323D02*
X0051702Y0144323D01*
X0052201Y0143824D02*
X0048118Y0143824D01*
X0048169Y0143326D02*
X0052699Y0143326D01*
X0053198Y0142827D02*
X0048169Y0142827D01*
X0048169Y0142329D02*
X0053696Y0142329D01*
X0054195Y0141830D02*
X0047990Y0141830D01*
X0047783Y0141332D02*
X0054500Y0141332D01*
X0054111Y0140833D02*
X0047516Y0140833D01*
X0047018Y0140335D02*
X0053612Y0140335D01*
X0053226Y0139836D02*
X0046401Y0139836D01*
X0045874Y0136347D02*
X0053136Y0136347D01*
X0052929Y0136845D02*
X0042000Y0136845D01*
X0042000Y0136347D02*
X0043240Y0136347D01*
X0042344Y0135848D02*
X0042000Y0135848D01*
X0042000Y0137344D02*
X0052756Y0137344D01*
X0052756Y0137842D02*
X0042000Y0137842D01*
X0042000Y0138341D02*
X0052756Y0138341D01*
X0052813Y0138839D02*
X0042000Y0138839D01*
X0042000Y0139338D02*
X0053020Y0139338D01*
X0053394Y0135848D02*
X0046770Y0135848D01*
X0047298Y0135350D02*
X0053892Y0135350D01*
X0048067Y0133854D02*
X0066776Y0133854D01*
X0067003Y0133355D02*
X0048166Y0133355D01*
X0048116Y0132358D02*
X0066884Y0132358D01*
X0066385Y0131860D02*
X0048002Y0131860D01*
X0044807Y0131860D02*
X0044307Y0131860D01*
X0044307Y0132358D02*
X0044807Y0132358D01*
X0044807Y0132857D02*
X0067382Y0132857D01*
X0065887Y0131361D02*
X0059481Y0131361D01*
X0059980Y0130863D02*
X0065388Y0130863D01*
X0064890Y0130364D02*
X0059980Y0130364D01*
X0059980Y0129866D02*
X0064391Y0129866D01*
X0063893Y0129367D02*
X0059980Y0129367D01*
X0059980Y0128869D02*
X0063394Y0128869D01*
X0062896Y0128370D02*
X0059980Y0128370D01*
X0059980Y0127872D02*
X0062397Y0127872D01*
X0061898Y0127373D02*
X0059980Y0127373D01*
X0059980Y0126875D02*
X0061500Y0126875D01*
X0061500Y0126376D02*
X0059980Y0126376D01*
X0059980Y0125878D02*
X0061500Y0125878D01*
X0061500Y0125379D02*
X0059980Y0125379D01*
X0059759Y0124881D02*
X0061500Y0124881D01*
X0061500Y0124382D02*
X0059260Y0124382D01*
X0050705Y0145320D02*
X0047328Y0145320D01*
X0046829Y0145818D02*
X0050207Y0145818D01*
X0049708Y0146317D02*
X0045946Y0146317D01*
X0047714Y0148311D02*
X0042000Y0148311D01*
X0042000Y0148809D02*
X0047500Y0148809D01*
X0047500Y0149308D02*
X0042000Y0149308D01*
X0042000Y0149806D02*
X0042785Y0149806D01*
X0042126Y0150305D02*
X0042000Y0150305D01*
X0042000Y0147812D02*
X0048213Y0147812D01*
X0048711Y0147314D02*
X0042000Y0147314D01*
X0042000Y0146815D02*
X0049210Y0146815D01*
X0047500Y0149806D02*
X0046329Y0149806D01*
X0046988Y0150305D02*
X0047500Y0150305D01*
X0047487Y0150803D02*
X0047500Y0150803D01*
X0043168Y0146317D02*
X0042000Y0146317D01*
X0042000Y0145818D02*
X0042285Y0145818D01*
X0042096Y0140335D02*
X0042000Y0140335D01*
X0042000Y0139836D02*
X0042713Y0139836D01*
X0044307Y0136347D02*
X0044807Y0136347D01*
X0044807Y0135848D02*
X0044307Y0135848D01*
X0044307Y0135350D02*
X0044807Y0135350D01*
X0044807Y0134851D02*
X0044307Y0134851D01*
X0044307Y0134353D02*
X0044807Y0134353D01*
X0044807Y0133854D02*
X0044307Y0133854D01*
X0044307Y0133355D02*
X0044807Y0133355D01*
X0044807Y0131361D02*
X0044307Y0131361D01*
X0044307Y0130863D02*
X0044807Y0130863D01*
X0044807Y0130364D02*
X0044307Y0130364D01*
X0044307Y0129866D02*
X0044807Y0129866D01*
X0039671Y0121391D02*
X0006000Y0121391D01*
X0006000Y0120893D02*
X0040588Y0120893D01*
X0044307Y0111421D02*
X0021185Y0111421D01*
X0021185Y0110922D02*
X0020685Y0110922D01*
X0020685Y0110424D02*
X0021185Y0110424D01*
X0021185Y0109925D02*
X0020685Y0109925D01*
X0020685Y0109427D02*
X0021185Y0109427D01*
X0021185Y0108928D02*
X0020685Y0108928D01*
X0020685Y0108430D02*
X0021185Y0108430D01*
X0021185Y0107931D02*
X0020685Y0107931D01*
X0020685Y0107433D02*
X0021185Y0107433D01*
X0021185Y0106934D02*
X0020685Y0106934D01*
X0020685Y0106436D02*
X0021185Y0106436D01*
X0021185Y0105937D02*
X0020685Y0105937D01*
X0020685Y0105439D02*
X0021185Y0105439D01*
X0021185Y0104940D02*
X0020685Y0104940D01*
X0020685Y0104442D02*
X0021185Y0104442D01*
X0017421Y0104442D02*
X0006000Y0104442D01*
X0006000Y0104940D02*
X0016923Y0104940D01*
X0016424Y0105439D02*
X0006000Y0105439D01*
X0006000Y0105937D02*
X0015926Y0105937D01*
X0015427Y0106436D02*
X0006000Y0106436D01*
X0006000Y0106934D02*
X0014929Y0106934D01*
X0014430Y0107433D02*
X0006000Y0107433D01*
X0006000Y0107931D02*
X0013932Y0107931D01*
X0013433Y0108430D02*
X0006000Y0108430D01*
X0006000Y0108928D02*
X0013386Y0108928D01*
X0013386Y0109427D02*
X0006000Y0109427D01*
X0006000Y0109925D02*
X0013386Y0109925D01*
X0013386Y0110424D02*
X0006000Y0110424D01*
X0006000Y0121890D02*
X0023135Y0121890D01*
X0022637Y0122388D02*
X0006000Y0122388D01*
X0006000Y0122887D02*
X0022138Y0122887D01*
X0021640Y0123385D02*
X0006000Y0123385D01*
X0006000Y0123884D02*
X0021141Y0123884D01*
X0020643Y0124382D02*
X0006000Y0124382D01*
X0006000Y0124881D02*
X0020144Y0124881D01*
X0019646Y0125379D02*
X0006000Y0125379D01*
X0006000Y0125878D02*
X0019147Y0125878D01*
X0018649Y0126376D02*
X0006000Y0126376D01*
X0006000Y0126875D02*
X0018150Y0126875D01*
X0017652Y0127373D02*
X0006000Y0127373D01*
X0006000Y0127872D02*
X0017153Y0127872D01*
X0016655Y0128370D02*
X0006000Y0128370D01*
X0006000Y0128869D02*
X0016156Y0128869D01*
X0015658Y0129367D02*
X0006000Y0129367D01*
X0006000Y0129866D02*
X0015159Y0129866D01*
X0014661Y0130364D02*
X0006000Y0130364D01*
X0006000Y0130863D02*
X0014162Y0130863D01*
X0013664Y0131361D02*
X0006000Y0131361D01*
X0006000Y0131860D02*
X0013165Y0131860D01*
X0012667Y0132358D02*
X0006000Y0132358D01*
X0006000Y0132857D02*
X0012168Y0132857D01*
X0011670Y0133355D02*
X0006000Y0133355D01*
X0006000Y0133854D02*
X0011171Y0133854D01*
X0010673Y0134353D02*
X0006000Y0134353D01*
X0006000Y0134851D02*
X0010174Y0134851D01*
X0009676Y0135350D02*
X0006000Y0135350D01*
X0006000Y0135848D02*
X0009177Y0135848D01*
X0008679Y0136347D02*
X0006000Y0136347D01*
X0006000Y0136845D02*
X0008180Y0136845D01*
X0007682Y0137344D02*
X0006000Y0137344D01*
X0006000Y0137842D02*
X0007183Y0137842D01*
X0006685Y0138341D02*
X0006000Y0138341D01*
X0006000Y0138839D02*
X0006186Y0138839D01*
X0016679Y0153296D02*
X0017323Y0153296D01*
X0017323Y0153701D02*
X0017323Y0152652D01*
X0014000Y0155975D01*
X0014000Y0170619D01*
X0017808Y0166811D01*
X0020685Y0166811D01*
X0020685Y0174110D01*
X0021185Y0174110D01*
X0021185Y0166811D01*
X0022336Y0166811D01*
X0019500Y0163975D01*
X0019500Y0162525D01*
X0019500Y0156298D01*
X0018889Y0156045D01*
X0017873Y0155028D01*
X0017323Y0153701D01*
X0017362Y0153794D02*
X0016180Y0153794D01*
X0015682Y0154293D02*
X0017568Y0154293D01*
X0017775Y0154791D02*
X0015183Y0154791D01*
X0014685Y0155290D02*
X0018134Y0155290D01*
X0018633Y0155789D02*
X0014186Y0155789D01*
X0014000Y0156287D02*
X0019474Y0156287D01*
X0019500Y0156786D02*
X0014000Y0156786D01*
X0014000Y0157284D02*
X0019500Y0157284D01*
X0019500Y0157783D02*
X0014000Y0157783D01*
X0014000Y0158281D02*
X0019500Y0158281D01*
X0019500Y0158780D02*
X0014000Y0158780D01*
X0014000Y0159278D02*
X0019500Y0159278D01*
X0019500Y0159777D02*
X0014000Y0159777D01*
X0014000Y0160275D02*
X0019500Y0160275D01*
X0019500Y0160774D02*
X0014000Y0160774D01*
X0014000Y0161272D02*
X0019500Y0161272D01*
X0019500Y0161771D02*
X0014000Y0161771D01*
X0014000Y0162269D02*
X0019500Y0162269D01*
X0019500Y0162768D02*
X0014000Y0162768D01*
X0014000Y0163266D02*
X0019500Y0163266D01*
X0019500Y0163765D02*
X0014000Y0163765D01*
X0014000Y0164263D02*
X0019788Y0164263D01*
X0020287Y0164762D02*
X0014000Y0164762D01*
X0014000Y0165260D02*
X0020785Y0165260D01*
X0021284Y0165759D02*
X0014000Y0165759D01*
X0014000Y0166257D02*
X0021782Y0166257D01*
X0022281Y0166756D02*
X0014000Y0166756D01*
X0014000Y0167254D02*
X0017365Y0167254D01*
X0016866Y0167753D02*
X0014000Y0167753D01*
X0014000Y0168251D02*
X0016368Y0168251D01*
X0015869Y0168750D02*
X0014000Y0168750D01*
X0014000Y0169248D02*
X0015371Y0169248D01*
X0014872Y0169747D02*
X0014000Y0169747D01*
X0014000Y0170245D02*
X0014374Y0170245D01*
X0014000Y0178101D02*
X0014000Y0186525D01*
X0023294Y0195819D01*
X0023734Y0195819D01*
X0024627Y0196189D01*
X0025311Y0196873D01*
X0025507Y0197346D01*
X0026193Y0195690D01*
X0028367Y0193515D01*
X0031208Y0192339D01*
X0034284Y0192339D01*
X0037125Y0193515D01*
X0039299Y0195690D01*
X0039500Y0196174D01*
X0039500Y0182975D01*
X0038557Y0182032D01*
X0038311Y0182627D01*
X0037627Y0183311D01*
X0036734Y0183681D01*
X0035766Y0183681D01*
X0034873Y0183311D01*
X0034189Y0182627D01*
X0034000Y0182171D01*
X0034000Y0186562D01*
X0034311Y0186873D01*
X0034681Y0187766D01*
X0034681Y0188734D01*
X0034311Y0189627D01*
X0033627Y0190311D01*
X0032734Y0190681D01*
X0031766Y0190681D01*
X0030873Y0190311D01*
X0030189Y0189627D01*
X0029819Y0188734D01*
X0029819Y0187766D01*
X0030189Y0186873D01*
X0030500Y0186562D01*
X0030500Y0174975D01*
X0028484Y0172959D01*
X0028484Y0174110D01*
X0021185Y0174110D01*
X0021185Y0174610D01*
X0028484Y0174610D01*
X0028484Y0177487D01*
X0024062Y0181909D01*
X0021185Y0181909D01*
X0021185Y0174610D01*
X0020685Y0174610D01*
X0020685Y0181909D01*
X0017808Y0181909D01*
X0014000Y0178101D01*
X0014000Y0178222D02*
X0014120Y0178222D01*
X0014000Y0178720D02*
X0014619Y0178720D01*
X0015117Y0179219D02*
X0014000Y0179219D01*
X0014000Y0179717D02*
X0015616Y0179717D01*
X0016114Y0180216D02*
X0014000Y0180216D01*
X0014000Y0180714D02*
X0016613Y0180714D01*
X0017111Y0181213D02*
X0014000Y0181213D01*
X0014000Y0181711D02*
X0017610Y0181711D01*
X0020685Y0181711D02*
X0021185Y0181711D01*
X0021185Y0181213D02*
X0020685Y0181213D01*
X0020685Y0180714D02*
X0021185Y0180714D01*
X0021185Y0180216D02*
X0020685Y0180216D01*
X0020685Y0179717D02*
X0021185Y0179717D01*
X0021185Y0179219D02*
X0020685Y0179219D01*
X0020685Y0178720D02*
X0021185Y0178720D01*
X0021185Y0178222D02*
X0020685Y0178222D01*
X0020685Y0177723D02*
X0021185Y0177723D01*
X0021185Y0177224D02*
X0020685Y0177224D01*
X0020685Y0176726D02*
X0021185Y0176726D01*
X0021185Y0176227D02*
X0020685Y0176227D01*
X0020685Y0175729D02*
X0021185Y0175729D01*
X0021185Y0175230D02*
X0020685Y0175230D01*
X0020685Y0174732D02*
X0021185Y0174732D01*
X0021185Y0174233D02*
X0029759Y0174233D01*
X0029260Y0173735D02*
X0028484Y0173735D01*
X0028484Y0173236D02*
X0028762Y0173236D01*
X0028484Y0174732D02*
X0030257Y0174732D01*
X0030500Y0175230D02*
X0028484Y0175230D01*
X0028484Y0175729D02*
X0030500Y0175729D01*
X0030500Y0176227D02*
X0028484Y0176227D01*
X0028484Y0176726D02*
X0030500Y0176726D01*
X0030500Y0177224D02*
X0028484Y0177224D01*
X0028248Y0177723D02*
X0030500Y0177723D01*
X0030500Y0178222D02*
X0027750Y0178222D01*
X0027251Y0178720D02*
X0030500Y0178720D01*
X0030500Y0179219D02*
X0026753Y0179219D01*
X0026254Y0179717D02*
X0030500Y0179717D01*
X0030500Y0180216D02*
X0025756Y0180216D01*
X0025257Y0180714D02*
X0030500Y0180714D01*
X0030500Y0181213D02*
X0024759Y0181213D01*
X0024260Y0181711D02*
X0030500Y0181711D01*
X0030500Y0182210D02*
X0014000Y0182210D01*
X0014000Y0182708D02*
X0030500Y0182708D01*
X0030500Y0183207D02*
X0014000Y0183207D01*
X0014000Y0183705D02*
X0030500Y0183705D01*
X0030500Y0184204D02*
X0014000Y0184204D01*
X0014000Y0184702D02*
X0030500Y0184702D01*
X0030500Y0185201D02*
X0014000Y0185201D01*
X0014000Y0185699D02*
X0030500Y0185699D01*
X0030500Y0186198D02*
X0014000Y0186198D01*
X0014171Y0186696D02*
X0030366Y0186696D01*
X0030056Y0187195D02*
X0014670Y0187195D01*
X0015168Y0187693D02*
X0029849Y0187693D01*
X0029819Y0188192D02*
X0015667Y0188192D01*
X0016165Y0188690D02*
X0029819Y0188690D01*
X0030007Y0189189D02*
X0016664Y0189189D01*
X0017162Y0189687D02*
X0030249Y0189687D01*
X0030748Y0190186D02*
X0017661Y0190186D01*
X0018159Y0190684D02*
X0039500Y0190684D01*
X0039500Y0190186D02*
X0033752Y0190186D01*
X0034251Y0189687D02*
X0039500Y0189687D01*
X0039500Y0189189D02*
X0034493Y0189189D01*
X0034681Y0188690D02*
X0039500Y0188690D01*
X0039500Y0188192D02*
X0034681Y0188192D01*
X0034651Y0187693D02*
X0039500Y0187693D01*
X0039500Y0187195D02*
X0034444Y0187195D01*
X0034134Y0186696D02*
X0039500Y0186696D01*
X0039500Y0186198D02*
X0034000Y0186198D01*
X0034000Y0185699D02*
X0039500Y0185699D01*
X0039500Y0185201D02*
X0034000Y0185201D01*
X0034000Y0184702D02*
X0039500Y0184702D01*
X0039500Y0184204D02*
X0034000Y0184204D01*
X0034000Y0183705D02*
X0039500Y0183705D01*
X0039500Y0183207D02*
X0037731Y0183207D01*
X0038230Y0182708D02*
X0039233Y0182708D01*
X0038735Y0182210D02*
X0038484Y0182210D01*
X0034769Y0183207D02*
X0034000Y0183207D01*
X0034000Y0182708D02*
X0034270Y0182708D01*
X0034016Y0182210D02*
X0034000Y0182210D01*
X0039500Y0191183D02*
X0018658Y0191183D01*
X0019156Y0191681D02*
X0039500Y0191681D01*
X0039500Y0192180D02*
X0019655Y0192180D01*
X0020153Y0192678D02*
X0030388Y0192678D01*
X0029185Y0193177D02*
X0020652Y0193177D01*
X0021150Y0193675D02*
X0028207Y0193675D01*
X0027709Y0194174D02*
X0021649Y0194174D01*
X0022147Y0194672D02*
X0027210Y0194672D01*
X0026712Y0195171D02*
X0022646Y0195171D01*
X0023144Y0195669D02*
X0026213Y0195669D01*
X0025995Y0196168D02*
X0024576Y0196168D01*
X0025105Y0196666D02*
X0025788Y0196666D01*
X0025582Y0197165D02*
X0025432Y0197165D01*
X0035104Y0192678D02*
X0039500Y0192678D01*
X0039500Y0193177D02*
X0036307Y0193177D01*
X0037285Y0193675D02*
X0039500Y0193675D01*
X0039500Y0194174D02*
X0037783Y0194174D01*
X0038282Y0194672D02*
X0039500Y0194672D01*
X0039500Y0195171D02*
X0038780Y0195171D01*
X0039279Y0195669D02*
X0039500Y0195669D01*
X0039497Y0196168D02*
X0039500Y0196168D01*
X0043000Y0191183D02*
X0054745Y0191183D01*
X0044807Y0181711D02*
X0044307Y0181711D01*
X0044307Y0181213D02*
X0044807Y0181213D01*
X0044807Y0180714D02*
X0044307Y0180714D01*
X0044307Y0180216D02*
X0044807Y0180216D01*
X0044807Y0179717D02*
X0044307Y0179717D01*
X0044307Y0179219D02*
X0044807Y0179219D01*
X0044807Y0178720D02*
X0044307Y0178720D01*
X0044307Y0178222D02*
X0044807Y0178222D01*
X0044807Y0177723D02*
X0044307Y0177723D01*
X0044307Y0177224D02*
X0044807Y0177224D01*
X0044807Y0176726D02*
X0044307Y0176726D01*
X0044307Y0176227D02*
X0044807Y0176227D01*
X0044807Y0175729D02*
X0044307Y0175729D01*
X0044307Y0175230D02*
X0044807Y0175230D01*
X0044807Y0174732D02*
X0044307Y0174732D01*
X0050121Y0169248D02*
X0054500Y0169248D01*
X0054500Y0168750D02*
X0049623Y0168750D01*
X0049124Y0168251D02*
X0054500Y0168251D01*
X0054500Y0167753D02*
X0048626Y0167753D01*
X0048127Y0167254D02*
X0054500Y0167254D01*
X0054500Y0166756D02*
X0043219Y0166756D01*
X0050620Y0169747D02*
X0054500Y0169747D01*
X0054500Y0170245D02*
X0051118Y0170245D01*
X0051617Y0170744D02*
X0054500Y0170744D01*
X0054500Y0171242D02*
X0052106Y0171242D01*
X0052106Y0171741D02*
X0054500Y0171741D01*
X0054500Y0172239D02*
X0052106Y0172239D01*
X0052106Y0172738D02*
X0054500Y0172738D01*
X0054500Y0173236D02*
X0052106Y0173236D01*
X0021185Y0173236D02*
X0020685Y0173236D01*
X0020685Y0172738D02*
X0021185Y0172738D01*
X0021185Y0172239D02*
X0020685Y0172239D01*
X0020685Y0171741D02*
X0021185Y0171741D01*
X0021185Y0171242D02*
X0020685Y0171242D01*
X0020685Y0170744D02*
X0021185Y0170744D01*
X0021185Y0170245D02*
X0020685Y0170245D01*
X0020685Y0169747D02*
X0021185Y0169747D01*
X0021185Y0169248D02*
X0020685Y0169248D01*
X0020685Y0168750D02*
X0021185Y0168750D01*
X0021185Y0168251D02*
X0020685Y0168251D01*
X0020685Y0167753D02*
X0021185Y0167753D01*
X0021185Y0167254D02*
X0020685Y0167254D01*
X0020685Y0173735D02*
X0021185Y0173735D01*
X0017323Y0152797D02*
X0017177Y0152797D01*
X0025944Y0105937D02*
X0039548Y0105937D01*
X0040046Y0105439D02*
X0025446Y0105439D01*
X0102906Y0213068D02*
X0100032Y0215943D01*
X0100627Y0216189D01*
X0101311Y0216873D01*
X0101681Y0217766D01*
X0101681Y0218734D01*
X0101311Y0219627D01*
X0101000Y0219938D01*
X0101000Y0226525D01*
X0102600Y0228125D01*
X0102600Y0223124D01*
X0103156Y0221782D01*
X0104182Y0220756D01*
X0105524Y0220200D01*
X0106976Y0220200D01*
X0108318Y0220756D01*
X0109344Y0221782D01*
X0109607Y0222418D01*
X0120500Y0211525D01*
X0121525Y0210500D01*
X0124329Y0210500D01*
X0123873Y0210311D01*
X0123189Y0209627D01*
X0122819Y0208734D01*
X0122819Y0208294D01*
X0121500Y0206975D01*
X0121500Y0203562D01*
X0120718Y0204344D01*
X0119376Y0204900D01*
X0113124Y0204900D01*
X0111782Y0204344D01*
X0110756Y0203318D01*
X0110727Y0203248D01*
X0106000Y0207975D01*
X0106000Y0211000D01*
X0106500Y0211000D01*
X0106500Y0211500D01*
X0106000Y0211500D01*
X0106000Y0214900D01*
X0104738Y0214900D01*
X0102906Y0213068D01*
X0102858Y0213117D02*
X0102955Y0213117D01*
X0103454Y0213616D02*
X0102359Y0213616D01*
X0101861Y0214114D02*
X0103952Y0214114D01*
X0104451Y0214613D02*
X0101362Y0214613D01*
X0100863Y0215111D02*
X0116914Y0215111D01*
X0117412Y0214613D02*
X0108049Y0214613D01*
X0107762Y0214900D02*
X0106500Y0214900D01*
X0106500Y0211500D01*
X0109900Y0211500D01*
X0109900Y0212762D01*
X0107762Y0214900D01*
X0108548Y0214114D02*
X0117911Y0214114D01*
X0118409Y0213616D02*
X0109046Y0213616D01*
X0109545Y0213117D02*
X0118908Y0213117D01*
X0119406Y0212619D02*
X0109900Y0212619D01*
X0109900Y0212120D02*
X0119905Y0212120D01*
X0120403Y0211622D02*
X0109900Y0211622D01*
X0109900Y0211000D02*
X0106500Y0211000D01*
X0106500Y0207600D01*
X0107762Y0207600D01*
X0109900Y0209738D01*
X0109900Y0211000D01*
X0109900Y0210625D02*
X0121400Y0210625D01*
X0120902Y0211123D02*
X0106500Y0211123D01*
X0106500Y0210625D02*
X0106000Y0210625D01*
X0106000Y0210126D02*
X0106500Y0210126D01*
X0106500Y0209628D02*
X0106000Y0209628D01*
X0106000Y0209129D02*
X0106500Y0209129D01*
X0106500Y0208631D02*
X0106000Y0208631D01*
X0106000Y0208132D02*
X0106500Y0208132D01*
X0106500Y0207634D02*
X0106341Y0207634D01*
X0106840Y0207135D02*
X0121660Y0207135D01*
X0121500Y0206637D02*
X0107338Y0206637D01*
X0107837Y0206138D02*
X0121500Y0206138D01*
X0121500Y0205640D02*
X0108335Y0205640D01*
X0108834Y0205141D02*
X0121500Y0205141D01*
X0121500Y0204643D02*
X0119997Y0204643D01*
X0120918Y0204144D02*
X0121500Y0204144D01*
X0121500Y0203646D02*
X0121416Y0203646D01*
X0122159Y0207634D02*
X0107796Y0207634D01*
X0108294Y0208132D02*
X0122657Y0208132D01*
X0122819Y0208631D02*
X0108793Y0208631D01*
X0109291Y0209129D02*
X0122983Y0209129D01*
X0123190Y0209628D02*
X0109790Y0209628D01*
X0109900Y0210126D02*
X0123688Y0210126D01*
X0122975Y0214000D02*
X0116747Y0220227D01*
X0117315Y0220340D01*
X0117979Y0220615D01*
X0118577Y0221015D01*
X0119085Y0221523D01*
X0119485Y0222121D01*
X0119760Y0222785D01*
X0119900Y0223490D01*
X0119900Y0226000D01*
X0116500Y0226000D01*
X0116500Y0226500D01*
X0119900Y0226500D01*
X0119900Y0228125D01*
X0122600Y0225425D01*
X0122600Y0223124D01*
X0123156Y0221782D01*
X0124182Y0220756D01*
X0125524Y0220200D01*
X0126976Y0220200D01*
X0128318Y0220756D01*
X0129344Y0221782D01*
X0129900Y0223124D01*
X0129900Y0228125D01*
X0137500Y0220525D01*
X0137500Y0210475D01*
X0133975Y0214000D01*
X0122975Y0214000D01*
X0122861Y0214114D02*
X0137500Y0214114D01*
X0137500Y0213616D02*
X0134359Y0213616D01*
X0134858Y0213117D02*
X0137500Y0213117D01*
X0137500Y0212619D02*
X0135356Y0212619D01*
X0135855Y0212120D02*
X0137500Y0212120D01*
X0137500Y0211622D02*
X0136353Y0211622D01*
X0136852Y0211123D02*
X0137500Y0211123D01*
X0137500Y0210625D02*
X0137350Y0210625D01*
X0137500Y0214613D02*
X0122362Y0214613D01*
X0121863Y0215111D02*
X0137500Y0215111D01*
X0137500Y0215610D02*
X0121365Y0215610D01*
X0120866Y0216108D02*
X0137500Y0216108D01*
X0137500Y0216607D02*
X0120368Y0216607D01*
X0119869Y0217105D02*
X0137500Y0217105D01*
X0137500Y0217604D02*
X0119371Y0217604D01*
X0118872Y0218102D02*
X0137500Y0218102D01*
X0137500Y0218601D02*
X0118374Y0218601D01*
X0117875Y0219099D02*
X0137500Y0219099D01*
X0137500Y0219598D02*
X0117377Y0219598D01*
X0116878Y0220096D02*
X0137500Y0220096D01*
X0137430Y0220595D02*
X0127930Y0220595D01*
X0128655Y0221093D02*
X0136932Y0221093D01*
X0136433Y0221592D02*
X0129154Y0221592D01*
X0129472Y0222091D02*
X0135935Y0222091D01*
X0135436Y0222589D02*
X0129678Y0222589D01*
X0129885Y0223088D02*
X0134938Y0223088D01*
X0134439Y0223586D02*
X0129900Y0223586D01*
X0129900Y0224085D02*
X0133941Y0224085D01*
X0133442Y0224583D02*
X0129900Y0224583D01*
X0129900Y0225082D02*
X0132944Y0225082D01*
X0132445Y0225580D02*
X0129900Y0225580D01*
X0129900Y0226079D02*
X0131947Y0226079D01*
X0131448Y0226577D02*
X0129900Y0226577D01*
X0129900Y0227076D02*
X0130949Y0227076D01*
X0130451Y0227574D02*
X0129900Y0227574D01*
X0129900Y0228073D02*
X0129952Y0228073D01*
X0132410Y0230565D02*
X0140265Y0230565D01*
X0140200Y0230890D02*
X0140340Y0230185D01*
X0140615Y0229521D01*
X0141015Y0228923D01*
X0141523Y0228415D01*
X0142121Y0228015D01*
X0142785Y0227740D01*
X0143490Y0227600D01*
X0146000Y0227600D01*
X0146000Y0231000D01*
X0146500Y0231000D01*
X0146500Y0227600D01*
X0149009Y0227600D01*
X0149715Y0227740D01*
X0150379Y0228015D01*
X0150977Y0228415D01*
X0151485Y0228923D01*
X0151500Y0228946D01*
X0151500Y0223562D01*
X0150718Y0224344D01*
X0149376Y0224900D01*
X0143124Y0224900D01*
X0141782Y0224344D01*
X0140756Y0223318D01*
X0140434Y0222541D01*
X0139975Y0223000D01*
X0128000Y0234975D01*
X0128000Y0250624D01*
X0128318Y0250756D01*
X0129344Y0251782D01*
X0129900Y0253124D01*
X0129900Y0258125D01*
X0137500Y0250525D01*
X0137500Y0249525D01*
X0142418Y0244607D01*
X0141782Y0244344D01*
X0140756Y0243318D01*
X0140200Y0241976D01*
X0140200Y0240524D01*
X0140756Y0239182D01*
X0141782Y0238156D01*
X0143124Y0237600D01*
X0147425Y0237600D01*
X0150866Y0234159D01*
X0150379Y0234485D01*
X0149715Y0234760D01*
X0149009Y0234900D01*
X0146500Y0234900D01*
X0146500Y0231500D01*
X0146000Y0231500D01*
X0146000Y0234900D01*
X0143490Y0234900D01*
X0142785Y0234760D01*
X0142121Y0234485D01*
X0141523Y0234085D01*
X0141015Y0233577D01*
X0140615Y0232979D01*
X0140340Y0232315D01*
X0140200Y0231609D01*
X0140200Y0231500D01*
X0146000Y0231500D01*
X0146000Y0231000D01*
X0140200Y0231000D01*
X0140200Y0230890D01*
X0140200Y0231562D02*
X0131413Y0231562D01*
X0131911Y0231064D02*
X0146000Y0231064D01*
X0146000Y0231562D02*
X0146500Y0231562D01*
X0146500Y0232061D02*
X0146000Y0232061D01*
X0146000Y0232559D02*
X0146500Y0232559D01*
X0146500Y0233058D02*
X0146000Y0233058D01*
X0146000Y0233556D02*
X0146500Y0233556D01*
X0146500Y0234055D02*
X0146000Y0234055D01*
X0146000Y0234553D02*
X0146500Y0234553D01*
X0148478Y0236547D02*
X0128000Y0236547D01*
X0128000Y0236049D02*
X0148976Y0236049D01*
X0149475Y0235550D02*
X0128000Y0235550D01*
X0128000Y0235052D02*
X0149973Y0235052D01*
X0150213Y0234553D02*
X0150472Y0234553D01*
X0147979Y0237046D02*
X0128000Y0237046D01*
X0128000Y0237544D02*
X0147481Y0237544D01*
X0142055Y0238043D02*
X0128000Y0238043D01*
X0128000Y0238541D02*
X0141397Y0238541D01*
X0140898Y0239040D02*
X0128000Y0239040D01*
X0128000Y0239538D02*
X0140608Y0239538D01*
X0140402Y0240037D02*
X0128000Y0240037D01*
X0128000Y0240535D02*
X0140200Y0240535D01*
X0140200Y0241034D02*
X0128000Y0241034D01*
X0128000Y0241532D02*
X0140200Y0241532D01*
X0140223Y0242031D02*
X0128000Y0242031D01*
X0128000Y0242529D02*
X0140429Y0242529D01*
X0140636Y0243028D02*
X0128000Y0243028D01*
X0128000Y0243527D02*
X0140965Y0243527D01*
X0141463Y0244025D02*
X0128000Y0244025D01*
X0128000Y0244524D02*
X0142215Y0244524D01*
X0142003Y0245022D02*
X0128000Y0245022D01*
X0128000Y0245521D02*
X0141505Y0245521D01*
X0141006Y0246019D02*
X0128000Y0246019D01*
X0128000Y0246518D02*
X0140508Y0246518D01*
X0140009Y0247016D02*
X0128000Y0247016D01*
X0128000Y0247515D02*
X0139511Y0247515D01*
X0139012Y0248013D02*
X0128000Y0248013D01*
X0128000Y0248512D02*
X0138514Y0248512D01*
X0138015Y0249010D02*
X0128000Y0249010D01*
X0128000Y0249509D02*
X0137516Y0249509D01*
X0137500Y0250007D02*
X0128000Y0250007D01*
X0128000Y0250506D02*
X0137500Y0250506D01*
X0137021Y0251004D02*
X0128566Y0251004D01*
X0129065Y0251503D02*
X0136522Y0251503D01*
X0136024Y0252001D02*
X0129435Y0252001D01*
X0129641Y0252500D02*
X0135525Y0252500D01*
X0135027Y0252998D02*
X0129848Y0252998D01*
X0129900Y0253497D02*
X0134528Y0253497D01*
X0134030Y0253995D02*
X0129900Y0253995D01*
X0129900Y0254494D02*
X0133531Y0254494D01*
X0133033Y0254992D02*
X0129900Y0254992D01*
X0129900Y0255491D02*
X0132534Y0255491D01*
X0132036Y0255989D02*
X0129900Y0255989D01*
X0129900Y0256488D02*
X0131537Y0256488D01*
X0131039Y0256986D02*
X0129900Y0256986D01*
X0129900Y0257485D02*
X0130540Y0257485D01*
X0130042Y0257983D02*
X0129900Y0257983D01*
X0125555Y0262470D02*
X0108000Y0262470D01*
X0108000Y0262968D02*
X0125057Y0262968D01*
X0124558Y0263467D02*
X0108000Y0263467D01*
X0108000Y0263965D02*
X0124060Y0263965D01*
X0123561Y0264464D02*
X0108000Y0264464D01*
X0108437Y0264962D02*
X0123063Y0264962D01*
X0122564Y0265461D02*
X0108936Y0265461D01*
X0109434Y0265960D02*
X0122066Y0265960D01*
X0121567Y0266458D02*
X0109933Y0266458D01*
X0110431Y0266957D02*
X0121069Y0266957D01*
X0120570Y0267455D02*
X0110930Y0267455D01*
X0111428Y0267954D02*
X0120072Y0267954D01*
X0119573Y0268452D02*
X0111927Y0268452D01*
X0112000Y0268951D02*
X0119075Y0268951D01*
X0118576Y0269449D02*
X0112000Y0269449D01*
X0112000Y0269948D02*
X0118078Y0269948D01*
X0117579Y0270446D02*
X0112000Y0270446D01*
X0112000Y0270945D02*
X0117080Y0270945D01*
X0116582Y0271443D02*
X0112000Y0271443D01*
X0112000Y0271942D02*
X0116083Y0271942D01*
X0115585Y0272440D02*
X0112000Y0272440D01*
X0112000Y0272939D02*
X0115086Y0272939D01*
X0114588Y0273437D02*
X0112000Y0273437D01*
X0112000Y0273936D02*
X0114089Y0273936D01*
X0113591Y0274434D02*
X0111541Y0274434D01*
X0111042Y0274933D02*
X0113092Y0274933D01*
X0112594Y0275431D02*
X0110544Y0275431D01*
X0110045Y0275930D02*
X0112095Y0275930D01*
X0111597Y0276428D02*
X0109547Y0276428D01*
X0113057Y0279918D02*
X0169447Y0279918D01*
X0169653Y0280125D02*
X0167257Y0277728D01*
X0165961Y0274598D01*
X0165961Y0271209D01*
X0167257Y0268079D01*
X0169653Y0265683D01*
X0172784Y0264386D01*
X0176173Y0264386D01*
X0179303Y0265683D01*
X0181699Y0268079D01*
X0182996Y0271209D01*
X0182996Y0274598D01*
X0181699Y0277728D01*
X0179303Y0280125D01*
X0176173Y0281421D01*
X0172784Y0281421D01*
X0169653Y0280125D01*
X0170358Y0280416D02*
X0068373Y0280416D01*
X0068627Y0280311D02*
X0067734Y0280681D01*
X0066766Y0280681D01*
X0065873Y0280311D01*
X0065189Y0279627D01*
X0064819Y0278734D01*
X0064819Y0277766D01*
X0065136Y0277000D01*
X0044525Y0277000D01*
X0003525Y0236000D01*
X0003468Y0235943D01*
X0003468Y0282496D01*
X0184071Y0282496D01*
X0184071Y0174904D01*
X0183975Y0175000D01*
X0171000Y0187975D01*
X0171000Y0188938D01*
X0171782Y0188156D01*
X0173124Y0187600D01*
X0179376Y0187600D01*
X0180718Y0188156D01*
X0181744Y0189182D01*
X0182300Y0190524D01*
X0182300Y0191976D01*
X0181744Y0193318D01*
X0180718Y0194344D01*
X0179376Y0194900D01*
X0173124Y0194900D01*
X0171782Y0194344D01*
X0171000Y0193562D01*
X0171000Y0198946D01*
X0171015Y0198923D01*
X0171523Y0198415D01*
X0172121Y0198015D01*
X0172785Y0197740D01*
X0173490Y0197600D01*
X0176000Y0197600D01*
X0176000Y0201000D01*
X0176500Y0201000D01*
X0176500Y0201500D01*
X0176000Y0201500D01*
X0176000Y0204900D01*
X0173490Y0204900D01*
X0172785Y0204760D01*
X0172121Y0204485D01*
X0171523Y0204085D01*
X0171015Y0203577D01*
X0171000Y0203554D01*
X0171000Y0208938D01*
X0171782Y0208156D01*
X0173124Y0207600D01*
X0179376Y0207600D01*
X0180718Y0208156D01*
X0181744Y0209182D01*
X0182300Y0210524D01*
X0182300Y0211976D01*
X0181744Y0213318D01*
X0180718Y0214344D01*
X0179376Y0214900D01*
X0173124Y0214900D01*
X0171782Y0214344D01*
X0171000Y0213562D01*
X0171000Y0218946D01*
X0171015Y0218923D01*
X0171523Y0218415D01*
X0172121Y0218015D01*
X0172785Y0217740D01*
X0173490Y0217600D01*
X0176000Y0217600D01*
X0176000Y0221000D01*
X0176500Y0221000D01*
X0176500Y0221500D01*
X0176000Y0221500D01*
X0176000Y0224900D01*
X0175322Y0224900D01*
X0175681Y0225766D01*
X0175681Y0226734D01*
X0175322Y0227600D01*
X0179376Y0227600D01*
X0180718Y0228156D01*
X0181744Y0229182D01*
X0182300Y0230524D01*
X0182300Y0231976D01*
X0181744Y0233318D01*
X0180718Y0234344D01*
X0179376Y0234900D01*
X0173124Y0234900D01*
X0171782Y0234344D01*
X0171000Y0233562D01*
X0171000Y0236975D01*
X0169975Y0238000D01*
X0134975Y0273000D01*
X0129662Y0273000D01*
X0127762Y0274900D01*
X0124738Y0274900D01*
X0122600Y0272762D01*
X0122600Y0270375D01*
X0112975Y0280000D01*
X0068938Y0280000D01*
X0068627Y0280311D01*
X0066127Y0280416D02*
X0017181Y0280416D01*
X0017886Y0280125D02*
X0014755Y0281421D01*
X0011367Y0281421D01*
X0008236Y0280125D01*
X0005840Y0277728D01*
X0004543Y0274598D01*
X0004543Y0271209D01*
X0005840Y0268079D01*
X0008236Y0265683D01*
X0011367Y0264386D01*
X0014755Y0264386D01*
X0017886Y0265683D01*
X0020282Y0268079D01*
X0021579Y0271209D01*
X0021579Y0274598D01*
X0020282Y0277728D01*
X0017886Y0280125D01*
X0018093Y0279918D02*
X0065480Y0279918D01*
X0065103Y0279419D02*
X0018591Y0279419D01*
X0019090Y0278921D02*
X0064896Y0278921D01*
X0064819Y0278422D02*
X0019588Y0278422D01*
X0020087Y0277924D02*
X0064819Y0277924D01*
X0064960Y0277425D02*
X0020408Y0277425D01*
X0020614Y0276927D02*
X0044452Y0276927D01*
X0043953Y0276428D02*
X0020821Y0276428D01*
X0021027Y0275930D02*
X0043455Y0275930D01*
X0042956Y0275431D02*
X0021234Y0275431D01*
X0021440Y0274933D02*
X0042458Y0274933D01*
X0041959Y0274434D02*
X0021579Y0274434D01*
X0021579Y0273936D02*
X0041461Y0273936D01*
X0040962Y0273437D02*
X0021579Y0273437D01*
X0021579Y0272939D02*
X0040464Y0272939D01*
X0039965Y0272440D02*
X0021579Y0272440D01*
X0021579Y0271942D02*
X0039467Y0271942D01*
X0038968Y0271443D02*
X0021579Y0271443D01*
X0021469Y0270945D02*
X0038470Y0270945D01*
X0037971Y0270446D02*
X0021263Y0270446D01*
X0021056Y0269948D02*
X0037473Y0269948D01*
X0036974Y0269449D02*
X0020850Y0269449D01*
X0020643Y0268951D02*
X0036476Y0268951D01*
X0035977Y0268452D02*
X0020437Y0268452D01*
X0020157Y0267954D02*
X0035479Y0267954D01*
X0034980Y0267455D02*
X0019658Y0267455D01*
X0019160Y0266957D02*
X0034482Y0266957D01*
X0033983Y0266458D02*
X0018661Y0266458D01*
X0018163Y0265960D02*
X0033485Y0265960D01*
X0032986Y0265461D02*
X0017351Y0265461D01*
X0016147Y0264962D02*
X0032488Y0264962D01*
X0031989Y0264464D02*
X0014944Y0264464D01*
X0011178Y0264464D02*
X0003468Y0264464D01*
X0003468Y0264962D02*
X0009975Y0264962D01*
X0008771Y0265461D02*
X0003468Y0265461D01*
X0003468Y0265960D02*
X0007959Y0265960D01*
X0007461Y0266458D02*
X0003468Y0266458D01*
X0003468Y0266957D02*
X0006962Y0266957D01*
X0006464Y0267455D02*
X0003468Y0267455D01*
X0003468Y0267954D02*
X0005965Y0267954D01*
X0005685Y0268452D02*
X0003468Y0268452D01*
X0003468Y0268951D02*
X0005479Y0268951D01*
X0005272Y0269449D02*
X0003468Y0269449D01*
X0003468Y0269948D02*
X0005066Y0269948D01*
X0004859Y0270446D02*
X0003468Y0270446D01*
X0003468Y0270945D02*
X0004653Y0270945D01*
X0004543Y0271443D02*
X0003468Y0271443D01*
X0003468Y0271942D02*
X0004543Y0271942D01*
X0004543Y0272440D02*
X0003468Y0272440D01*
X0003468Y0272939D02*
X0004543Y0272939D01*
X0004543Y0273437D02*
X0003468Y0273437D01*
X0003468Y0273936D02*
X0004543Y0273936D01*
X0004543Y0274434D02*
X0003468Y0274434D01*
X0003468Y0274933D02*
X0004682Y0274933D01*
X0004889Y0275431D02*
X0003468Y0275431D01*
X0003468Y0275930D02*
X0005095Y0275930D01*
X0005302Y0276428D02*
X0003468Y0276428D01*
X0003468Y0276927D02*
X0005508Y0276927D01*
X0005714Y0277425D02*
X0003468Y0277425D01*
X0003468Y0277924D02*
X0006035Y0277924D01*
X0006534Y0278422D02*
X0003468Y0278422D01*
X0003468Y0278921D02*
X0007032Y0278921D01*
X0007531Y0279419D02*
X0003468Y0279419D01*
X0003468Y0279918D02*
X0008029Y0279918D01*
X0008941Y0280416D02*
X0003468Y0280416D01*
X0003468Y0280915D02*
X0010144Y0280915D01*
X0011348Y0281413D02*
X0003468Y0281413D01*
X0003468Y0281912D02*
X0184071Y0281912D01*
X0184071Y0282410D02*
X0003468Y0282410D01*
X0014774Y0281413D02*
X0172765Y0281413D01*
X0171562Y0280915D02*
X0015978Y0280915D01*
X0003468Y0263965D02*
X0031491Y0263965D01*
X0030992Y0263467D02*
X0003468Y0263467D01*
X0003468Y0262968D02*
X0030494Y0262968D01*
X0029995Y0262470D02*
X0003468Y0262470D01*
X0003468Y0261971D02*
X0029497Y0261971D01*
X0028998Y0261473D02*
X0003468Y0261473D01*
X0003468Y0260974D02*
X0028500Y0260974D01*
X0028001Y0260476D02*
X0003468Y0260476D01*
X0003468Y0259977D02*
X0027503Y0259977D01*
X0027004Y0259479D02*
X0003468Y0259479D01*
X0003468Y0258980D02*
X0026505Y0258980D01*
X0026007Y0258482D02*
X0003468Y0258482D01*
X0003468Y0257983D02*
X0025508Y0257983D01*
X0025010Y0257485D02*
X0003468Y0257485D01*
X0003468Y0256986D02*
X0024511Y0256986D01*
X0024013Y0256488D02*
X0003468Y0256488D01*
X0003468Y0255989D02*
X0023514Y0255989D01*
X0023016Y0255491D02*
X0003468Y0255491D01*
X0003468Y0254992D02*
X0022517Y0254992D01*
X0022019Y0254494D02*
X0003468Y0254494D01*
X0003468Y0253995D02*
X0021520Y0253995D01*
X0021022Y0253497D02*
X0003468Y0253497D01*
X0003468Y0252998D02*
X0020523Y0252998D01*
X0020025Y0252500D02*
X0003468Y0252500D01*
X0003468Y0252001D02*
X0019526Y0252001D01*
X0019028Y0251503D02*
X0003468Y0251503D01*
X0003468Y0251004D02*
X0018529Y0251004D01*
X0018031Y0250506D02*
X0003468Y0250506D01*
X0003468Y0250007D02*
X0017532Y0250007D01*
X0017034Y0249509D02*
X0003468Y0249509D01*
X0003468Y0249010D02*
X0016535Y0249010D01*
X0016037Y0248512D02*
X0003468Y0248512D01*
X0003468Y0248013D02*
X0015538Y0248013D01*
X0015040Y0247515D02*
X0003468Y0247515D01*
X0003468Y0247016D02*
X0014541Y0247016D01*
X0014043Y0246518D02*
X0003468Y0246518D01*
X0003468Y0246019D02*
X0013544Y0246019D01*
X0013046Y0245521D02*
X0003468Y0245521D01*
X0003468Y0245022D02*
X0012547Y0245022D01*
X0012049Y0244524D02*
X0003468Y0244524D01*
X0003468Y0244025D02*
X0011550Y0244025D01*
X0011052Y0243527D02*
X0003468Y0243527D01*
X0003468Y0243028D02*
X0010553Y0243028D01*
X0010055Y0242529D02*
X0003468Y0242529D01*
X0003468Y0242031D02*
X0009556Y0242031D01*
X0009058Y0241532D02*
X0003468Y0241532D01*
X0003468Y0241034D02*
X0008559Y0241034D01*
X0008061Y0240535D02*
X0003468Y0240535D01*
X0003468Y0240037D02*
X0007562Y0240037D01*
X0007064Y0239538D02*
X0003468Y0239538D01*
X0003468Y0239040D02*
X0006565Y0239040D01*
X0006067Y0238541D02*
X0003468Y0238541D01*
X0003468Y0238043D02*
X0005568Y0238043D01*
X0005070Y0237544D02*
X0003468Y0237544D01*
X0003468Y0237046D02*
X0004571Y0237046D01*
X0004072Y0236547D02*
X0003468Y0236547D01*
X0003468Y0236049D02*
X0003574Y0236049D01*
X0077000Y0242031D02*
X0079571Y0242031D01*
X0079666Y0242529D02*
X0077000Y0242529D01*
X0077000Y0243028D02*
X0079828Y0243028D01*
X0080069Y0243527D02*
X0077000Y0243527D01*
X0077000Y0244025D02*
X0080391Y0244025D01*
X0080821Y0244524D02*
X0077000Y0244524D01*
X0077000Y0245022D02*
X0081417Y0245022D01*
X0081510Y0245521D02*
X0077000Y0245521D01*
X0077000Y0246019D02*
X0080968Y0246019D01*
X0080469Y0246518D02*
X0077000Y0246518D01*
X0077000Y0247016D02*
X0080103Y0247016D01*
X0079897Y0247515D02*
X0077000Y0247515D01*
X0077000Y0248013D02*
X0079690Y0248013D01*
X0079528Y0248512D02*
X0077000Y0248512D01*
X0077000Y0249010D02*
X0079528Y0249010D01*
X0079528Y0249509D02*
X0077000Y0249509D01*
X0077367Y0250007D02*
X0079528Y0250007D01*
X0079672Y0250506D02*
X0077573Y0250506D01*
X0077681Y0251004D02*
X0079879Y0251004D01*
X0080085Y0251503D02*
X0077681Y0251503D01*
X0077570Y0252001D02*
X0080425Y0252001D01*
X0080923Y0252500D02*
X0077364Y0252500D01*
X0076940Y0252998D02*
X0081422Y0252998D01*
X0081364Y0253497D02*
X0076179Y0253497D01*
X0076470Y0253995D02*
X0080865Y0253995D01*
X0080367Y0254494D02*
X0076969Y0254494D01*
X0077467Y0254992D02*
X0080061Y0254992D01*
X0079855Y0255491D02*
X0077966Y0255491D01*
X0078464Y0255989D02*
X0079648Y0255989D01*
X0079528Y0256488D02*
X0078963Y0256488D01*
X0079000Y0256986D02*
X0079528Y0256986D01*
X0079528Y0257485D02*
X0079000Y0257485D01*
X0079000Y0257983D02*
X0079528Y0257983D01*
X0079714Y0258482D02*
X0079000Y0258482D01*
X0079000Y0258980D02*
X0079921Y0258980D01*
X0080127Y0259479D02*
X0079000Y0259479D01*
X0079354Y0259977D02*
X0080527Y0259977D01*
X0081026Y0260476D02*
X0079561Y0260476D01*
X0079681Y0260974D02*
X0081650Y0260974D01*
X0082854Y0261473D02*
X0079681Y0261473D01*
X0079583Y0261971D02*
X0086497Y0261971D01*
X0086995Y0262470D02*
X0079376Y0262470D01*
X0085001Y0261473D02*
X0085998Y0261473D01*
X0086443Y0262968D02*
X0087494Y0262968D01*
X0087992Y0263467D02*
X0086942Y0263467D01*
X0087440Y0263965D02*
X0088491Y0263965D01*
X0088989Y0264464D02*
X0087939Y0264464D01*
X0088437Y0264962D02*
X0089488Y0264962D01*
X0089986Y0265461D02*
X0088936Y0265461D01*
X0089434Y0265960D02*
X0090485Y0265960D01*
X0090983Y0266458D02*
X0089933Y0266458D01*
X0090431Y0266957D02*
X0091482Y0266957D01*
X0091980Y0267455D02*
X0090930Y0267455D01*
X0091428Y0267954D02*
X0092479Y0267954D01*
X0092977Y0268452D02*
X0091927Y0268452D01*
X0092425Y0268951D02*
X0093476Y0268951D01*
X0093974Y0269449D02*
X0092924Y0269449D01*
X0093422Y0269948D02*
X0094456Y0269948D01*
X0096930Y0267455D02*
X0105980Y0267455D01*
X0105482Y0266957D02*
X0096431Y0266957D01*
X0095933Y0266458D02*
X0104983Y0266458D01*
X0104500Y0265960D02*
X0095434Y0265960D01*
X0094936Y0265461D02*
X0104500Y0265461D01*
X0104500Y0264962D02*
X0094437Y0264962D01*
X0093939Y0264464D02*
X0104500Y0264464D01*
X0104500Y0263965D02*
X0093440Y0263965D01*
X0092942Y0263467D02*
X0104500Y0263467D01*
X0104500Y0262968D02*
X0092443Y0262968D01*
X0091945Y0262470D02*
X0104500Y0262470D01*
X0104500Y0261971D02*
X0091446Y0261971D01*
X0090948Y0261473D02*
X0095264Y0261473D01*
X0094536Y0260974D02*
X0090449Y0260974D01*
X0089951Y0260476D02*
X0094126Y0260476D01*
X0093920Y0259977D02*
X0089452Y0259977D01*
X0088954Y0259479D02*
X0093819Y0259479D01*
X0093819Y0258980D02*
X0088455Y0258980D01*
X0088140Y0258482D02*
X0093937Y0258482D01*
X0094143Y0257983D02*
X0088327Y0257983D01*
X0088327Y0257485D02*
X0094500Y0257485D01*
X0094500Y0256986D02*
X0088327Y0256986D01*
X0088327Y0256488D02*
X0094500Y0256488D01*
X0094500Y0255989D02*
X0088206Y0255989D01*
X0088000Y0255491D02*
X0094500Y0255491D01*
X0094500Y0254992D02*
X0087793Y0254992D01*
X0087487Y0254494D02*
X0094500Y0254494D01*
X0094500Y0253995D02*
X0086989Y0253995D01*
X0086490Y0253497D02*
X0094500Y0253497D01*
X0094500Y0252998D02*
X0086432Y0252998D01*
X0086931Y0252500D02*
X0094500Y0252500D01*
X0094500Y0252001D02*
X0087429Y0252001D01*
X0087769Y0251503D02*
X0094500Y0251503D01*
X0094500Y0251004D02*
X0087976Y0251004D01*
X0088182Y0250506D02*
X0094500Y0250506D01*
X0094500Y0250007D02*
X0088327Y0250007D01*
X0088327Y0249509D02*
X0094500Y0249509D01*
X0094500Y0249010D02*
X0088327Y0249010D01*
X0088327Y0248512D02*
X0094500Y0248512D01*
X0094500Y0248013D02*
X0088164Y0248013D01*
X0087957Y0247515D02*
X0094500Y0247515D01*
X0094500Y0247016D02*
X0087751Y0247016D01*
X0087385Y0246518D02*
X0094500Y0246518D01*
X0094500Y0246019D02*
X0086887Y0246019D01*
X0086344Y0245521D02*
X0094500Y0245521D01*
X0094500Y0245022D02*
X0086437Y0245022D01*
X0087033Y0244524D02*
X0094500Y0244524D01*
X0094500Y0244025D02*
X0087464Y0244025D01*
X0087785Y0243527D02*
X0094500Y0243527D01*
X0094500Y0243028D02*
X0088027Y0243028D01*
X0088189Y0242529D02*
X0094500Y0242529D01*
X0094500Y0242031D02*
X0088283Y0242031D01*
X0092410Y0230565D02*
X0094500Y0230565D01*
X0094500Y0230067D02*
X0092908Y0230067D01*
X0093407Y0229568D02*
X0094500Y0229568D01*
X0094500Y0229070D02*
X0093905Y0229070D01*
X0094404Y0228571D02*
X0094500Y0228571D01*
X0098000Y0228571D02*
X0098096Y0228571D01*
X0098000Y0229070D02*
X0098595Y0229070D01*
X0099093Y0229568D02*
X0098000Y0229568D01*
X0098000Y0230067D02*
X0099592Y0230067D01*
X0100090Y0230565D02*
X0098000Y0230565D01*
X0098000Y0231064D02*
X0100589Y0231064D01*
X0101087Y0231562D02*
X0098000Y0231562D01*
X0098000Y0232061D02*
X0101586Y0232061D01*
X0102084Y0232559D02*
X0098000Y0232559D01*
X0098000Y0233058D02*
X0102583Y0233058D01*
X0103081Y0233556D02*
X0098000Y0233556D01*
X0098000Y0234055D02*
X0103580Y0234055D01*
X0104078Y0234553D02*
X0098000Y0234553D01*
X0098000Y0235052D02*
X0124500Y0235052D01*
X0124500Y0235550D02*
X0098000Y0235550D01*
X0098000Y0236049D02*
X0124500Y0236049D01*
X0124500Y0236547D02*
X0098000Y0236547D01*
X0098000Y0237046D02*
X0124500Y0237046D01*
X0124500Y0237544D02*
X0098000Y0237544D01*
X0098000Y0238043D02*
X0124500Y0238043D01*
X0124500Y0238541D02*
X0098000Y0238541D01*
X0098000Y0239040D02*
X0124500Y0239040D01*
X0124500Y0239538D02*
X0098000Y0239538D01*
X0098000Y0240037D02*
X0124500Y0240037D01*
X0124500Y0240535D02*
X0098000Y0240535D01*
X0098000Y0241034D02*
X0124500Y0241034D01*
X0124500Y0241532D02*
X0098000Y0241532D01*
X0098000Y0242031D02*
X0124500Y0242031D01*
X0124500Y0242529D02*
X0098000Y0242529D01*
X0098000Y0243028D02*
X0124500Y0243028D01*
X0124500Y0243527D02*
X0098000Y0243527D01*
X0098000Y0244025D02*
X0124500Y0244025D01*
X0124500Y0244524D02*
X0098000Y0244524D01*
X0098000Y0245022D02*
X0124500Y0245022D01*
X0124500Y0245521D02*
X0098000Y0245521D01*
X0098000Y0246019D02*
X0124500Y0246019D01*
X0124500Y0246518D02*
X0098000Y0246518D01*
X0098000Y0247016D02*
X0124500Y0247016D01*
X0124500Y0247515D02*
X0098000Y0247515D01*
X0098000Y0248013D02*
X0124500Y0248013D01*
X0124500Y0248512D02*
X0098000Y0248512D01*
X0098000Y0249010D02*
X0124500Y0249010D01*
X0124500Y0249509D02*
X0098000Y0249509D01*
X0098000Y0250007D02*
X0124500Y0250007D01*
X0124500Y0250506D02*
X0107714Y0250506D01*
X0108566Y0251004D02*
X0123934Y0251004D01*
X0123435Y0251503D02*
X0109065Y0251503D01*
X0109435Y0252001D02*
X0123065Y0252001D01*
X0122859Y0252500D02*
X0109641Y0252500D01*
X0109848Y0252998D02*
X0122652Y0252998D01*
X0122600Y0253497D02*
X0109900Y0253497D01*
X0109900Y0253995D02*
X0122600Y0253995D01*
X0122600Y0254494D02*
X0109900Y0254494D01*
X0109900Y0254992D02*
X0122600Y0254992D01*
X0122600Y0255491D02*
X0109900Y0255491D01*
X0109900Y0255989D02*
X0122600Y0255989D01*
X0122600Y0256488D02*
X0109900Y0256488D01*
X0109900Y0256986D02*
X0122600Y0256986D01*
X0122600Y0257485D02*
X0109900Y0257485D01*
X0109900Y0257983D02*
X0122600Y0257983D01*
X0122600Y0258482D02*
X0109900Y0258482D01*
X0109900Y0258980D02*
X0122600Y0258980D01*
X0122643Y0259479D02*
X0109857Y0259479D01*
X0109651Y0259977D02*
X0122849Y0259977D01*
X0123056Y0260476D02*
X0109444Y0260476D01*
X0109087Y0260974D02*
X0123413Y0260974D01*
X0123911Y0261473D02*
X0108589Y0261473D01*
X0108000Y0261971D02*
X0124731Y0261971D01*
X0122600Y0270446D02*
X0122529Y0270446D01*
X0122600Y0270945D02*
X0122030Y0270945D01*
X0121532Y0271443D02*
X0122600Y0271443D01*
X0122600Y0271942D02*
X0121033Y0271942D01*
X0120535Y0272440D02*
X0122600Y0272440D01*
X0122777Y0272939D02*
X0120036Y0272939D01*
X0119538Y0273437D02*
X0123275Y0273437D01*
X0123774Y0273936D02*
X0119039Y0273936D01*
X0118541Y0274434D02*
X0124272Y0274434D01*
X0128228Y0274434D02*
X0165961Y0274434D01*
X0165961Y0273936D02*
X0128726Y0273936D01*
X0129225Y0273437D02*
X0165961Y0273437D01*
X0165961Y0272939D02*
X0135036Y0272939D01*
X0135535Y0272440D02*
X0165961Y0272440D01*
X0165961Y0271942D02*
X0136033Y0271942D01*
X0136532Y0271443D02*
X0165961Y0271443D01*
X0166070Y0270945D02*
X0137030Y0270945D01*
X0137529Y0270446D02*
X0166277Y0270446D01*
X0166483Y0269948D02*
X0138027Y0269948D01*
X0138526Y0269449D02*
X0166690Y0269449D01*
X0166896Y0268951D02*
X0139024Y0268951D01*
X0139523Y0268452D02*
X0167103Y0268452D01*
X0167382Y0267954D02*
X0140021Y0267954D01*
X0140520Y0267455D02*
X0167881Y0267455D01*
X0168379Y0266957D02*
X0141018Y0266957D01*
X0141517Y0266458D02*
X0168878Y0266458D01*
X0169377Y0265960D02*
X0142015Y0265960D01*
X0142514Y0265461D02*
X0170188Y0265461D01*
X0171392Y0264962D02*
X0143012Y0264962D01*
X0143511Y0264464D02*
X0172595Y0264464D01*
X0176361Y0264464D02*
X0184071Y0264464D01*
X0184071Y0264962D02*
X0177565Y0264962D01*
X0178768Y0265461D02*
X0184071Y0265461D01*
X0184071Y0265960D02*
X0179580Y0265960D01*
X0180079Y0266458D02*
X0184071Y0266458D01*
X0184071Y0266957D02*
X0180577Y0266957D01*
X0181076Y0267455D02*
X0184071Y0267455D01*
X0184071Y0267954D02*
X0181574Y0267954D01*
X0181854Y0268452D02*
X0184071Y0268452D01*
X0184071Y0268951D02*
X0182060Y0268951D01*
X0182267Y0269449D02*
X0184071Y0269449D01*
X0184071Y0269948D02*
X0182473Y0269948D01*
X0182680Y0270446D02*
X0184071Y0270446D01*
X0184071Y0270945D02*
X0182886Y0270945D01*
X0182996Y0271443D02*
X0184071Y0271443D01*
X0184071Y0271942D02*
X0182996Y0271942D01*
X0182996Y0272440D02*
X0184071Y0272440D01*
X0184071Y0272939D02*
X0182996Y0272939D01*
X0182996Y0273437D02*
X0184071Y0273437D01*
X0184071Y0273936D02*
X0182996Y0273936D01*
X0182996Y0274434D02*
X0184071Y0274434D01*
X0184071Y0274933D02*
X0182857Y0274933D01*
X0182651Y0275431D02*
X0184071Y0275431D01*
X0184071Y0275930D02*
X0182444Y0275930D01*
X0182238Y0276428D02*
X0184071Y0276428D01*
X0184071Y0276927D02*
X0182031Y0276927D01*
X0181825Y0277425D02*
X0184071Y0277425D01*
X0184071Y0277924D02*
X0181504Y0277924D01*
X0181005Y0278422D02*
X0184071Y0278422D01*
X0184071Y0278921D02*
X0180507Y0278921D01*
X0180008Y0279419D02*
X0184071Y0279419D01*
X0184071Y0279918D02*
X0179510Y0279918D01*
X0178599Y0280416D02*
X0184071Y0280416D01*
X0184071Y0280915D02*
X0177395Y0280915D01*
X0176192Y0281413D02*
X0184071Y0281413D01*
X0184071Y0263965D02*
X0144009Y0263965D01*
X0144508Y0263467D02*
X0184071Y0263467D01*
X0184071Y0262968D02*
X0145006Y0262968D01*
X0145505Y0262470D02*
X0184071Y0262470D01*
X0184071Y0261971D02*
X0146003Y0261971D01*
X0146502Y0261473D02*
X0184071Y0261473D01*
X0184071Y0260974D02*
X0147000Y0260974D01*
X0147499Y0260476D02*
X0184071Y0260476D01*
X0184071Y0259977D02*
X0147997Y0259977D01*
X0148496Y0259479D02*
X0184071Y0259479D01*
X0184071Y0258980D02*
X0148995Y0258980D01*
X0149493Y0258482D02*
X0184071Y0258482D01*
X0184071Y0257983D02*
X0149992Y0257983D01*
X0150490Y0257485D02*
X0184071Y0257485D01*
X0184071Y0256986D02*
X0150989Y0256986D01*
X0151487Y0256488D02*
X0184071Y0256488D01*
X0184071Y0255989D02*
X0151986Y0255989D01*
X0152484Y0255491D02*
X0184071Y0255491D01*
X0184071Y0254992D02*
X0152983Y0254992D01*
X0153481Y0254494D02*
X0172143Y0254494D01*
X0171782Y0254344D02*
X0170756Y0253318D01*
X0170200Y0251976D01*
X0170200Y0250524D01*
X0170756Y0249182D01*
X0171782Y0248156D01*
X0173124Y0247600D01*
X0179376Y0247600D01*
X0180718Y0248156D01*
X0181744Y0249182D01*
X0182300Y0250524D01*
X0182300Y0251976D01*
X0181744Y0253318D01*
X0180718Y0254344D01*
X0179376Y0254900D01*
X0173124Y0254900D01*
X0171782Y0254344D01*
X0171433Y0253995D02*
X0153980Y0253995D01*
X0154478Y0253497D02*
X0170935Y0253497D01*
X0170623Y0252998D02*
X0154977Y0252998D01*
X0155475Y0252500D02*
X0170417Y0252500D01*
X0170210Y0252001D02*
X0155974Y0252001D01*
X0156472Y0251503D02*
X0170200Y0251503D01*
X0170200Y0251004D02*
X0156971Y0251004D01*
X0157469Y0250506D02*
X0170208Y0250506D01*
X0170414Y0250007D02*
X0157968Y0250007D01*
X0158466Y0249509D02*
X0170621Y0249509D01*
X0170928Y0249010D02*
X0158965Y0249010D01*
X0159463Y0248512D02*
X0171426Y0248512D01*
X0172127Y0248013D02*
X0159962Y0248013D01*
X0160460Y0247515D02*
X0184071Y0247515D01*
X0184071Y0248013D02*
X0180373Y0248013D01*
X0181073Y0248512D02*
X0184071Y0248512D01*
X0184071Y0249010D02*
X0181572Y0249010D01*
X0181879Y0249509D02*
X0184071Y0249509D01*
X0184071Y0250007D02*
X0182086Y0250007D01*
X0182292Y0250506D02*
X0184071Y0250506D01*
X0184071Y0251004D02*
X0182300Y0251004D01*
X0182300Y0251503D02*
X0184071Y0251503D01*
X0184071Y0252001D02*
X0182290Y0252001D01*
X0182083Y0252500D02*
X0184071Y0252500D01*
X0184071Y0252998D02*
X0181877Y0252998D01*
X0181565Y0253497D02*
X0184071Y0253497D01*
X0184071Y0253995D02*
X0181067Y0253995D01*
X0180357Y0254494D02*
X0184071Y0254494D01*
X0184071Y0247016D02*
X0160959Y0247016D01*
X0161457Y0246518D02*
X0184071Y0246518D01*
X0184071Y0246019D02*
X0161956Y0246019D01*
X0162454Y0245521D02*
X0184071Y0245521D01*
X0184071Y0245022D02*
X0162953Y0245022D01*
X0163451Y0244524D02*
X0172215Y0244524D01*
X0172121Y0244485D02*
X0171523Y0244085D01*
X0171015Y0243577D01*
X0170615Y0242979D01*
X0170340Y0242315D01*
X0170200Y0241609D01*
X0170200Y0241500D01*
X0176000Y0241500D01*
X0176000Y0244900D01*
X0173490Y0244900D01*
X0172785Y0244760D01*
X0172121Y0244485D01*
X0171463Y0244025D02*
X0163950Y0244025D01*
X0164448Y0243527D02*
X0170981Y0243527D01*
X0170648Y0243028D02*
X0164947Y0243028D01*
X0165445Y0242529D02*
X0170429Y0242529D01*
X0170284Y0242031D02*
X0165944Y0242031D01*
X0166442Y0241532D02*
X0170200Y0241532D01*
X0170200Y0241000D02*
X0170200Y0240890D01*
X0170340Y0240185D01*
X0170615Y0239521D01*
X0171015Y0238923D01*
X0171523Y0238415D01*
X0172121Y0238015D01*
X0172785Y0237740D01*
X0173490Y0237600D01*
X0176000Y0237600D01*
X0176000Y0241000D01*
X0176500Y0241000D01*
X0176500Y0241500D01*
X0176000Y0241500D01*
X0176000Y0241000D01*
X0170200Y0241000D01*
X0170271Y0240535D02*
X0167439Y0240535D01*
X0167938Y0240037D02*
X0170402Y0240037D01*
X0170608Y0239538D02*
X0168436Y0239538D01*
X0168935Y0239040D02*
X0170937Y0239040D01*
X0171397Y0238541D02*
X0169433Y0238541D01*
X0169932Y0238043D02*
X0172080Y0238043D01*
X0170929Y0237046D02*
X0184071Y0237046D01*
X0184071Y0237544D02*
X0170430Y0237544D01*
X0171000Y0236547D02*
X0184071Y0236547D01*
X0184071Y0236049D02*
X0171000Y0236049D01*
X0171000Y0235550D02*
X0184071Y0235550D01*
X0184071Y0235052D02*
X0171000Y0235052D01*
X0171000Y0234553D02*
X0172287Y0234553D01*
X0171493Y0234055D02*
X0171000Y0234055D01*
X0176000Y0238043D02*
X0176500Y0238043D01*
X0176500Y0237600D02*
X0179009Y0237600D01*
X0179715Y0237740D01*
X0180379Y0238015D01*
X0180977Y0238415D01*
X0181485Y0238923D01*
X0181885Y0239521D01*
X0182160Y0240185D01*
X0182300Y0240890D01*
X0182300Y0241000D01*
X0176500Y0241000D01*
X0176500Y0237600D01*
X0176500Y0238541D02*
X0176000Y0238541D01*
X0176000Y0239040D02*
X0176500Y0239040D01*
X0176500Y0239538D02*
X0176000Y0239538D01*
X0176000Y0240037D02*
X0176500Y0240037D01*
X0176500Y0240535D02*
X0176000Y0240535D01*
X0176000Y0241034D02*
X0166941Y0241034D01*
X0176000Y0241532D02*
X0176500Y0241532D01*
X0176500Y0241500D02*
X0176500Y0244900D01*
X0179009Y0244900D01*
X0179715Y0244760D01*
X0180379Y0244485D01*
X0180977Y0244085D01*
X0181485Y0243577D01*
X0181885Y0242979D01*
X0182160Y0242315D01*
X0182300Y0241609D01*
X0182300Y0241500D01*
X0176500Y0241500D01*
X0176500Y0241034D02*
X0184071Y0241034D01*
X0184071Y0241532D02*
X0182300Y0241532D01*
X0182216Y0242031D02*
X0184071Y0242031D01*
X0184071Y0242529D02*
X0182071Y0242529D01*
X0181852Y0243028D02*
X0184071Y0243028D01*
X0184071Y0243527D02*
X0181519Y0243527D01*
X0181037Y0244025D02*
X0184071Y0244025D01*
X0184071Y0244524D02*
X0180285Y0244524D01*
X0182229Y0240535D02*
X0184071Y0240535D01*
X0184071Y0240037D02*
X0182098Y0240037D01*
X0181892Y0239538D02*
X0184071Y0239538D01*
X0184071Y0239040D02*
X0181563Y0239040D01*
X0181103Y0238541D02*
X0184071Y0238541D01*
X0184071Y0238043D02*
X0180420Y0238043D01*
X0180213Y0234553D02*
X0184071Y0234553D01*
X0184071Y0234055D02*
X0181007Y0234055D01*
X0181506Y0233556D02*
X0184071Y0233556D01*
X0184071Y0233058D02*
X0181852Y0233058D01*
X0182058Y0232559D02*
X0184071Y0232559D01*
X0184071Y0232061D02*
X0182265Y0232061D01*
X0182300Y0231562D02*
X0184071Y0231562D01*
X0184071Y0231064D02*
X0182300Y0231064D01*
X0182300Y0230565D02*
X0184071Y0230565D01*
X0184071Y0230067D02*
X0182111Y0230067D01*
X0181904Y0229568D02*
X0184071Y0229568D01*
X0184071Y0229070D02*
X0181632Y0229070D01*
X0181133Y0228571D02*
X0184071Y0228571D01*
X0184071Y0228073D02*
X0180517Y0228073D01*
X0179715Y0224760D02*
X0179009Y0224900D01*
X0176500Y0224900D01*
X0176500Y0221500D01*
X0182300Y0221500D01*
X0182300Y0221609D01*
X0182160Y0222315D01*
X0181885Y0222979D01*
X0181485Y0223577D01*
X0180977Y0224085D01*
X0180379Y0224485D01*
X0179715Y0224760D01*
X0180141Y0224583D02*
X0184071Y0224583D01*
X0184071Y0224085D02*
X0180977Y0224085D01*
X0181476Y0223586D02*
X0184071Y0223586D01*
X0184071Y0223088D02*
X0181812Y0223088D01*
X0182046Y0222589D02*
X0184071Y0222589D01*
X0184071Y0222091D02*
X0182204Y0222091D01*
X0182300Y0221592D02*
X0184071Y0221592D01*
X0184071Y0221093D02*
X0176500Y0221093D01*
X0176500Y0221000D02*
X0182300Y0221000D01*
X0182300Y0220890D01*
X0182160Y0220185D01*
X0181885Y0219521D01*
X0181485Y0218923D01*
X0180977Y0218415D01*
X0180379Y0218015D01*
X0179715Y0217740D01*
X0179009Y0217600D01*
X0176500Y0217600D01*
X0176500Y0221000D01*
X0176500Y0220595D02*
X0176000Y0220595D01*
X0176000Y0220096D02*
X0176500Y0220096D01*
X0176500Y0219598D02*
X0176000Y0219598D01*
X0176000Y0219099D02*
X0176500Y0219099D01*
X0176500Y0218601D02*
X0176000Y0218601D01*
X0176000Y0218102D02*
X0176500Y0218102D01*
X0176500Y0217604D02*
X0176000Y0217604D01*
X0173471Y0217604D02*
X0171000Y0217604D01*
X0171000Y0218102D02*
X0171991Y0218102D01*
X0171337Y0218601D02*
X0171000Y0218601D01*
X0171000Y0217105D02*
X0184071Y0217105D01*
X0184071Y0216607D02*
X0171000Y0216607D01*
X0171000Y0216108D02*
X0184071Y0216108D01*
X0184071Y0215610D02*
X0171000Y0215610D01*
X0171000Y0215111D02*
X0184071Y0215111D01*
X0184071Y0214613D02*
X0180069Y0214613D01*
X0180948Y0214114D02*
X0184071Y0214114D01*
X0184071Y0213616D02*
X0181446Y0213616D01*
X0181827Y0213117D02*
X0184071Y0213117D01*
X0184071Y0212619D02*
X0182034Y0212619D01*
X0182240Y0212120D02*
X0184071Y0212120D01*
X0184071Y0211622D02*
X0182300Y0211622D01*
X0182300Y0211123D02*
X0184071Y0211123D01*
X0184071Y0210625D02*
X0182300Y0210625D01*
X0182135Y0210126D02*
X0184071Y0210126D01*
X0184071Y0209628D02*
X0181929Y0209628D01*
X0181691Y0209129D02*
X0184071Y0209129D01*
X0184071Y0208631D02*
X0181193Y0208631D01*
X0180661Y0208132D02*
X0184071Y0208132D01*
X0184071Y0207634D02*
X0179457Y0207634D01*
X0179009Y0204900D02*
X0176500Y0204900D01*
X0176500Y0201500D01*
X0182300Y0201500D01*
X0182300Y0201609D01*
X0182160Y0202315D01*
X0181885Y0202979D01*
X0181485Y0203577D01*
X0180977Y0204085D01*
X0180379Y0204485D01*
X0179715Y0204760D01*
X0179009Y0204900D01*
X0179997Y0204643D02*
X0184071Y0204643D01*
X0184071Y0205141D02*
X0171000Y0205141D01*
X0171000Y0204643D02*
X0172503Y0204643D01*
X0171612Y0204144D02*
X0171000Y0204144D01*
X0171000Y0203646D02*
X0171084Y0203646D01*
X0171000Y0205640D02*
X0184071Y0205640D01*
X0184071Y0206138D02*
X0171000Y0206138D01*
X0171000Y0206637D02*
X0184071Y0206637D01*
X0184071Y0207135D02*
X0171000Y0207135D01*
X0171000Y0207634D02*
X0173043Y0207634D01*
X0171839Y0208132D02*
X0171000Y0208132D01*
X0171000Y0208631D02*
X0171307Y0208631D01*
X0171054Y0213616D02*
X0171000Y0213616D01*
X0171000Y0214114D02*
X0171552Y0214114D01*
X0171000Y0214613D02*
X0172431Y0214613D01*
X0176000Y0221592D02*
X0176500Y0221592D01*
X0176500Y0222091D02*
X0176000Y0222091D01*
X0176000Y0222589D02*
X0176500Y0222589D01*
X0176500Y0223088D02*
X0176000Y0223088D01*
X0176000Y0223586D02*
X0176500Y0223586D01*
X0176500Y0224085D02*
X0176000Y0224085D01*
X0176000Y0224583D02*
X0176500Y0224583D01*
X0175397Y0225082D02*
X0184071Y0225082D01*
X0184071Y0225580D02*
X0175604Y0225580D01*
X0175681Y0226079D02*
X0184071Y0226079D01*
X0184071Y0226577D02*
X0175681Y0226577D01*
X0175539Y0227076D02*
X0184071Y0227076D01*
X0184071Y0227574D02*
X0175333Y0227574D01*
X0182241Y0220595D02*
X0184071Y0220595D01*
X0184071Y0220096D02*
X0182123Y0220096D01*
X0181916Y0219598D02*
X0184071Y0219598D01*
X0184071Y0219099D02*
X0181603Y0219099D01*
X0181163Y0218601D02*
X0184071Y0218601D01*
X0184071Y0218102D02*
X0180509Y0218102D01*
X0179029Y0217604D02*
X0184071Y0217604D01*
X0184071Y0204144D02*
X0180888Y0204144D01*
X0181416Y0203646D02*
X0184071Y0203646D01*
X0184071Y0203147D02*
X0181772Y0203147D01*
X0182021Y0202649D02*
X0184071Y0202649D01*
X0184071Y0202150D02*
X0182192Y0202150D01*
X0182292Y0201652D02*
X0184071Y0201652D01*
X0184071Y0201153D02*
X0176500Y0201153D01*
X0176500Y0201000D02*
X0182300Y0201000D01*
X0182300Y0200890D01*
X0182160Y0200185D01*
X0181885Y0199521D01*
X0181485Y0198923D01*
X0180977Y0198415D01*
X0180379Y0198015D01*
X0179715Y0197740D01*
X0179009Y0197600D01*
X0176500Y0197600D01*
X0176500Y0201000D01*
X0176500Y0200655D02*
X0176000Y0200655D01*
X0176000Y0200156D02*
X0176500Y0200156D01*
X0176500Y0199658D02*
X0176000Y0199658D01*
X0176000Y0199159D02*
X0176500Y0199159D01*
X0176500Y0198660D02*
X0176000Y0198660D01*
X0176000Y0198162D02*
X0176500Y0198162D01*
X0176500Y0197663D02*
X0176000Y0197663D01*
X0173171Y0197663D02*
X0171000Y0197663D01*
X0171000Y0197165D02*
X0184071Y0197165D01*
X0184071Y0197663D02*
X0179329Y0197663D01*
X0180598Y0198162D02*
X0184071Y0198162D01*
X0184071Y0198660D02*
X0181222Y0198660D01*
X0181643Y0199159D02*
X0184071Y0199159D01*
X0184071Y0199658D02*
X0181941Y0199658D01*
X0182148Y0200156D02*
X0184071Y0200156D01*
X0184071Y0200655D02*
X0182253Y0200655D01*
X0184071Y0196666D02*
X0171000Y0196666D01*
X0171000Y0196168D02*
X0184071Y0196168D01*
X0184071Y0195669D02*
X0171000Y0195669D01*
X0171000Y0195171D02*
X0184071Y0195171D01*
X0184071Y0194672D02*
X0179926Y0194672D01*
X0180888Y0194174D02*
X0184071Y0194174D01*
X0184071Y0193675D02*
X0181387Y0193675D01*
X0181803Y0193177D02*
X0184071Y0193177D01*
X0184071Y0192678D02*
X0182009Y0192678D01*
X0182216Y0192180D02*
X0184071Y0192180D01*
X0184071Y0191681D02*
X0182300Y0191681D01*
X0182300Y0191183D02*
X0184071Y0191183D01*
X0184071Y0190684D02*
X0182300Y0190684D01*
X0182160Y0190186D02*
X0184071Y0190186D01*
X0184071Y0189687D02*
X0181953Y0189687D01*
X0181747Y0189189D02*
X0184071Y0189189D01*
X0184071Y0188690D02*
X0181252Y0188690D01*
X0180754Y0188192D02*
X0184071Y0188192D01*
X0184071Y0187693D02*
X0179601Y0187693D01*
X0184071Y0187195D02*
X0171780Y0187195D01*
X0171282Y0187693D02*
X0172899Y0187693D01*
X0172279Y0186696D02*
X0184071Y0186696D01*
X0184071Y0186198D02*
X0172777Y0186198D01*
X0173276Y0185699D02*
X0184071Y0185699D01*
X0184071Y0185201D02*
X0173774Y0185201D01*
X0174273Y0184702D02*
X0184071Y0184702D01*
X0184071Y0184204D02*
X0174771Y0184204D01*
X0175270Y0183705D02*
X0184071Y0183705D01*
X0184071Y0183207D02*
X0175768Y0183207D01*
X0176267Y0182708D02*
X0184071Y0182708D01*
X0184071Y0182210D02*
X0176765Y0182210D01*
X0177264Y0181711D02*
X0184071Y0181711D01*
X0184071Y0181213D02*
X0177762Y0181213D01*
X0178261Y0180714D02*
X0184071Y0180714D01*
X0184071Y0180216D02*
X0178759Y0180216D01*
X0179258Y0179717D02*
X0184071Y0179717D01*
X0184071Y0179219D02*
X0179756Y0179219D01*
X0180255Y0178720D02*
X0184071Y0178720D01*
X0184071Y0178222D02*
X0180753Y0178222D01*
X0181252Y0177723D02*
X0184071Y0177723D01*
X0184071Y0177224D02*
X0181750Y0177224D01*
X0182249Y0176726D02*
X0184071Y0176726D01*
X0184071Y0176227D02*
X0182747Y0176227D01*
X0183246Y0175729D02*
X0184071Y0175729D01*
X0184071Y0175230D02*
X0183744Y0175230D01*
X0181287Y0172738D02*
X0164237Y0172738D01*
X0164000Y0172975D02*
X0164000Y0178338D01*
X0164738Y0177600D01*
X0166000Y0177600D01*
X0166000Y0181000D01*
X0166500Y0181000D01*
X0166500Y0177600D01*
X0167762Y0177600D01*
X0169612Y0179450D01*
X0169873Y0179189D01*
X0170766Y0178819D01*
X0171734Y0178819D01*
X0172627Y0179189D01*
X0173311Y0179873D01*
X0173557Y0180468D01*
X0181500Y0172525D01*
X0181500Y0136364D01*
X0180734Y0136681D01*
X0180294Y0136681D01*
X0168993Y0147982D01*
X0170500Y0149490D01*
X0170500Y0153010D01*
X0170493Y0153018D01*
X0173000Y0155525D01*
X0173000Y0163975D01*
X0171975Y0165000D01*
X0164000Y0172975D01*
X0164000Y0173236D02*
X0180789Y0173236D01*
X0180290Y0173735D02*
X0164000Y0173735D01*
X0164000Y0174233D02*
X0179792Y0174233D01*
X0179293Y0174732D02*
X0164000Y0174732D01*
X0164000Y0175230D02*
X0178795Y0175230D01*
X0178296Y0175729D02*
X0164000Y0175729D01*
X0164000Y0176227D02*
X0177798Y0176227D01*
X0177299Y0176726D02*
X0164000Y0176726D01*
X0164000Y0177224D02*
X0176801Y0177224D01*
X0176302Y0177723D02*
X0167885Y0177723D01*
X0168383Y0178222D02*
X0175804Y0178222D01*
X0175305Y0178720D02*
X0168882Y0178720D01*
X0169380Y0179219D02*
X0169843Y0179219D01*
X0172657Y0179219D02*
X0174807Y0179219D01*
X0174308Y0179717D02*
X0173155Y0179717D01*
X0173453Y0180216D02*
X0173810Y0180216D01*
X0171746Y0188192D02*
X0171000Y0188192D01*
X0171000Y0188690D02*
X0171248Y0188690D01*
X0171113Y0193675D02*
X0171000Y0193675D01*
X0171000Y0194174D02*
X0171612Y0194174D01*
X0171000Y0194672D02*
X0172574Y0194672D01*
X0171902Y0198162D02*
X0171000Y0198162D01*
X0171000Y0198660D02*
X0171278Y0198660D01*
X0176000Y0201652D02*
X0176500Y0201652D01*
X0176500Y0202150D02*
X0176000Y0202150D01*
X0176000Y0202649D02*
X0176500Y0202649D01*
X0176500Y0203147D02*
X0176000Y0203147D01*
X0176000Y0203646D02*
X0176500Y0203646D01*
X0176500Y0204144D02*
X0176000Y0204144D01*
X0176000Y0204643D02*
X0176500Y0204643D01*
X0163830Y0187195D02*
X0160780Y0187195D01*
X0160282Y0187693D02*
X0163332Y0187693D01*
X0162833Y0188192D02*
X0159783Y0188192D01*
X0159285Y0188690D02*
X0162335Y0188690D01*
X0161836Y0189189D02*
X0158786Y0189189D01*
X0158288Y0189687D02*
X0161338Y0189687D01*
X0160839Y0190186D02*
X0157789Y0190186D01*
X0157291Y0190684D02*
X0160341Y0190684D01*
X0159842Y0191183D02*
X0156792Y0191183D01*
X0156294Y0191681D02*
X0159344Y0191681D01*
X0158845Y0192180D02*
X0155795Y0192180D01*
X0155297Y0192678D02*
X0158347Y0192678D01*
X0157848Y0193177D02*
X0154798Y0193177D01*
X0154299Y0193675D02*
X0157350Y0193675D01*
X0156851Y0194174D02*
X0153801Y0194174D01*
X0153302Y0194672D02*
X0156353Y0194672D01*
X0155854Y0195171D02*
X0152804Y0195171D01*
X0152305Y0195669D02*
X0155356Y0195669D01*
X0154857Y0196168D02*
X0151807Y0196168D01*
X0151308Y0196666D02*
X0154359Y0196666D01*
X0153860Y0197165D02*
X0144810Y0197165D01*
X0144975Y0197000D02*
X0144375Y0197600D01*
X0149376Y0197600D01*
X0150718Y0198156D01*
X0151744Y0199182D01*
X0151773Y0199252D01*
X0152525Y0198500D01*
X0166500Y0184525D01*
X0166500Y0181500D01*
X0166000Y0181500D01*
X0166000Y0184900D01*
X0164738Y0184900D01*
X0163906Y0184068D01*
X0162975Y0185000D01*
X0150975Y0197000D01*
X0144975Y0197000D01*
X0142418Y0194607D02*
X0142121Y0194485D01*
X0141523Y0194085D01*
X0141015Y0193577D01*
X0140615Y0192979D01*
X0140340Y0192315D01*
X0140200Y0191609D01*
X0140200Y0191500D01*
X0146000Y0191500D01*
X0146000Y0191000D01*
X0140200Y0191000D01*
X0140200Y0190890D01*
X0140340Y0190185D01*
X0140615Y0189521D01*
X0140941Y0189034D01*
X0139000Y0190975D01*
X0139000Y0198025D01*
X0142418Y0194607D01*
X0142353Y0194672D02*
X0139000Y0194672D01*
X0139000Y0194174D02*
X0141656Y0194174D01*
X0141113Y0193675D02*
X0139000Y0193675D01*
X0139000Y0193177D02*
X0140748Y0193177D01*
X0140491Y0192678D02*
X0139000Y0192678D01*
X0139000Y0192180D02*
X0140313Y0192180D01*
X0140214Y0191681D02*
X0139000Y0191681D01*
X0139000Y0191183D02*
X0146000Y0191183D01*
X0146000Y0191000D02*
X0146500Y0191000D01*
X0146500Y0187600D01*
X0149009Y0187600D01*
X0149715Y0187740D01*
X0149819Y0187783D01*
X0149819Y0187766D01*
X0150189Y0186873D01*
X0150500Y0186562D01*
X0150500Y0179475D01*
X0141634Y0188341D01*
X0142121Y0188015D01*
X0142785Y0187740D01*
X0143490Y0187600D01*
X0146000Y0187600D01*
X0146000Y0191000D01*
X0146000Y0190684D02*
X0146500Y0190684D01*
X0146500Y0190186D02*
X0146000Y0190186D01*
X0146000Y0189687D02*
X0146500Y0189687D01*
X0146500Y0189189D02*
X0146000Y0189189D01*
X0146000Y0188690D02*
X0146500Y0188690D01*
X0146500Y0188192D02*
X0146000Y0188192D01*
X0146000Y0187693D02*
X0146500Y0187693D01*
X0144276Y0185699D02*
X0150500Y0185699D01*
X0150500Y0185201D02*
X0144774Y0185201D01*
X0145273Y0184702D02*
X0150500Y0184702D01*
X0150500Y0184204D02*
X0145771Y0184204D01*
X0146270Y0183705D02*
X0150500Y0183705D01*
X0150500Y0183207D02*
X0146768Y0183207D01*
X0147267Y0182708D02*
X0150500Y0182708D01*
X0150500Y0182210D02*
X0147765Y0182210D01*
X0148264Y0181711D02*
X0150500Y0181711D01*
X0150500Y0181213D02*
X0148762Y0181213D01*
X0149261Y0180714D02*
X0150500Y0180714D01*
X0150500Y0180216D02*
X0149759Y0180216D01*
X0150258Y0179717D02*
X0150500Y0179717D01*
X0146795Y0175230D02*
X0136201Y0175230D01*
X0136176Y0175067D02*
X0136300Y0175853D01*
X0136300Y0176000D01*
X0131500Y0176000D01*
X0131500Y0176500D01*
X0136300Y0176500D01*
X0136300Y0176647D01*
X0136176Y0177433D01*
X0135930Y0178189D01*
X0135569Y0178897D01*
X0135102Y0179540D01*
X0134540Y0180102D01*
X0133897Y0180569D01*
X0133189Y0180930D01*
X0132433Y0181176D01*
X0132261Y0181203D01*
X0134111Y0181969D01*
X0135531Y0183389D01*
X0135991Y0184500D01*
X0137525Y0184500D01*
X0156525Y0165500D01*
X0154490Y0165500D01*
X0152000Y0163010D01*
X0152000Y0159490D01*
X0152007Y0159482D01*
X0149500Y0156975D01*
X0149500Y0138525D01*
X0150525Y0137500D01*
X0165500Y0122525D01*
X0165500Y0121788D01*
X0165489Y0121791D01*
X0162917Y0121791D01*
X0162917Y0119610D01*
X0162417Y0119610D01*
X0162417Y0119110D01*
X0158760Y0119110D01*
X0158760Y0118015D01*
X0158845Y0117697D01*
X0159010Y0117412D01*
X0159029Y0117392D01*
X0158760Y0117122D01*
X0158760Y0113724D01*
X0159029Y0113455D01*
X0158760Y0113185D01*
X0158760Y0112178D01*
X0158627Y0112311D01*
X0157734Y0112681D01*
X0156766Y0112681D01*
X0156000Y0112364D01*
X0156000Y0130975D01*
X0139000Y0147975D01*
X0139000Y0150975D01*
X0135840Y0154135D01*
X0136300Y0155245D01*
X0136300Y0157255D01*
X0135531Y0159111D01*
X0134111Y0160531D01*
X0132375Y0161250D01*
X0134111Y0161969D01*
X0135531Y0163389D01*
X0136300Y0165245D01*
X0136300Y0167255D01*
X0135531Y0169111D01*
X0134111Y0170531D01*
X0132261Y0171297D01*
X0132433Y0171324D01*
X0133189Y0171570D01*
X0133897Y0171931D01*
X0134540Y0172398D01*
X0135102Y0172960D01*
X0135569Y0173603D01*
X0135930Y0174311D01*
X0136176Y0175067D01*
X0136067Y0174732D02*
X0147293Y0174732D01*
X0147792Y0174233D02*
X0135890Y0174233D01*
X0135636Y0173735D02*
X0148290Y0173735D01*
X0148789Y0173236D02*
X0135303Y0173236D01*
X0134880Y0172738D02*
X0149287Y0172738D01*
X0149786Y0172239D02*
X0134321Y0172239D01*
X0133524Y0171741D02*
X0150284Y0171741D01*
X0150783Y0171242D02*
X0132394Y0171242D01*
X0133597Y0170744D02*
X0151281Y0170744D01*
X0151780Y0170245D02*
X0134396Y0170245D01*
X0134895Y0169747D02*
X0152278Y0169747D01*
X0152777Y0169248D02*
X0135393Y0169248D01*
X0135681Y0168750D02*
X0153275Y0168750D01*
X0153774Y0168251D02*
X0135887Y0168251D01*
X0136094Y0167753D02*
X0154272Y0167753D01*
X0154771Y0167254D02*
X0136300Y0167254D01*
X0136300Y0166756D02*
X0155269Y0166756D01*
X0155768Y0166257D02*
X0136300Y0166257D01*
X0136300Y0165759D02*
X0156266Y0165759D01*
X0154250Y0165260D02*
X0136300Y0165260D01*
X0136100Y0164762D02*
X0153751Y0164762D01*
X0153253Y0164263D02*
X0135893Y0164263D01*
X0135687Y0163765D02*
X0152754Y0163765D01*
X0152256Y0163266D02*
X0135408Y0163266D01*
X0134909Y0162768D02*
X0152000Y0162768D01*
X0152000Y0162269D02*
X0134411Y0162269D01*
X0133632Y0161771D02*
X0152000Y0161771D01*
X0152000Y0161272D02*
X0132429Y0161272D01*
X0133525Y0160774D02*
X0152000Y0160774D01*
X0152000Y0160275D02*
X0134367Y0160275D01*
X0134865Y0159777D02*
X0152000Y0159777D01*
X0151803Y0159278D02*
X0135364Y0159278D01*
X0135668Y0158780D02*
X0151305Y0158780D01*
X0150806Y0158281D02*
X0135875Y0158281D01*
X0136081Y0157783D02*
X0150308Y0157783D01*
X0149809Y0157284D02*
X0136288Y0157284D01*
X0136300Y0156786D02*
X0149500Y0156786D01*
X0149500Y0156287D02*
X0136300Y0156287D01*
X0136300Y0155789D02*
X0149500Y0155789D01*
X0149500Y0155290D02*
X0136300Y0155290D01*
X0136112Y0154791D02*
X0149500Y0154791D01*
X0149500Y0154293D02*
X0135905Y0154293D01*
X0136180Y0153794D02*
X0149500Y0153794D01*
X0149500Y0153296D02*
X0136679Y0153296D01*
X0137177Y0152797D02*
X0149500Y0152797D01*
X0149500Y0152299D02*
X0137676Y0152299D01*
X0138174Y0151800D02*
X0149500Y0151800D01*
X0149500Y0151302D02*
X0138673Y0151302D01*
X0139000Y0150803D02*
X0149500Y0150803D01*
X0149500Y0150305D02*
X0139000Y0150305D01*
X0139000Y0149806D02*
X0149500Y0149806D01*
X0149500Y0149308D02*
X0139000Y0149308D01*
X0139000Y0148809D02*
X0149500Y0148809D01*
X0149500Y0148311D02*
X0139000Y0148311D01*
X0139163Y0147812D02*
X0149500Y0147812D01*
X0149500Y0147314D02*
X0139661Y0147314D01*
X0140160Y0146815D02*
X0149500Y0146815D01*
X0149500Y0146317D02*
X0140658Y0146317D01*
X0141157Y0145818D02*
X0149500Y0145818D01*
X0149500Y0145320D02*
X0141655Y0145320D01*
X0142154Y0144821D02*
X0149500Y0144821D01*
X0149500Y0144323D02*
X0142652Y0144323D01*
X0143151Y0143824D02*
X0149500Y0143824D01*
X0149500Y0143326D02*
X0143649Y0143326D01*
X0144148Y0142827D02*
X0149500Y0142827D01*
X0149500Y0142329D02*
X0144646Y0142329D01*
X0145145Y0141830D02*
X0149500Y0141830D01*
X0149500Y0141332D02*
X0145643Y0141332D01*
X0146142Y0140833D02*
X0149500Y0140833D01*
X0149500Y0140335D02*
X0146640Y0140335D01*
X0147139Y0139836D02*
X0149500Y0139836D01*
X0149500Y0139338D02*
X0147637Y0139338D01*
X0148136Y0138839D02*
X0149500Y0138839D01*
X0149685Y0138341D02*
X0148634Y0138341D01*
X0149133Y0137842D02*
X0150183Y0137842D01*
X0150682Y0137344D02*
X0149631Y0137344D01*
X0150130Y0136845D02*
X0151180Y0136845D01*
X0151679Y0136347D02*
X0150628Y0136347D01*
X0151127Y0135848D02*
X0152177Y0135848D01*
X0152676Y0135350D02*
X0151625Y0135350D01*
X0152124Y0134851D02*
X0153174Y0134851D01*
X0153673Y0134353D02*
X0152622Y0134353D01*
X0153121Y0133854D02*
X0154171Y0133854D01*
X0154670Y0133355D02*
X0153619Y0133355D01*
X0154118Y0132857D02*
X0155168Y0132857D01*
X0155667Y0132358D02*
X0154616Y0132358D01*
X0155115Y0131860D02*
X0156165Y0131860D01*
X0156664Y0131361D02*
X0155613Y0131361D01*
X0156000Y0130863D02*
X0157162Y0130863D01*
X0157661Y0130364D02*
X0156000Y0130364D01*
X0156000Y0129866D02*
X0158159Y0129866D01*
X0158658Y0129367D02*
X0156000Y0129367D01*
X0156000Y0128869D02*
X0159156Y0128869D01*
X0159655Y0128370D02*
X0156000Y0128370D01*
X0156000Y0127872D02*
X0160153Y0127872D01*
X0160652Y0127373D02*
X0156000Y0127373D01*
X0156000Y0126875D02*
X0161150Y0126875D01*
X0161649Y0126376D02*
X0156000Y0126376D01*
X0156000Y0125878D02*
X0162147Y0125878D01*
X0162646Y0125379D02*
X0156000Y0125379D01*
X0156000Y0124881D02*
X0163144Y0124881D01*
X0163643Y0124382D02*
X0156000Y0124382D01*
X0156000Y0123884D02*
X0164141Y0123884D01*
X0164640Y0123385D02*
X0156000Y0123385D01*
X0156000Y0122887D02*
X0165138Y0122887D01*
X0165500Y0122388D02*
X0156000Y0122388D01*
X0156000Y0121890D02*
X0165500Y0121890D01*
X0162917Y0121391D02*
X0162417Y0121391D01*
X0162417Y0121791D02*
X0159845Y0121791D01*
X0159527Y0121706D01*
X0159242Y0121542D01*
X0159010Y0121309D01*
X0158845Y0121024D01*
X0158760Y0120706D01*
X0158760Y0119610D01*
X0162417Y0119610D01*
X0162417Y0121791D01*
X0162417Y0120893D02*
X0162917Y0120893D01*
X0162917Y0120394D02*
X0162417Y0120394D01*
X0162417Y0119896D02*
X0162917Y0119896D01*
X0162417Y0119397D02*
X0156000Y0119397D01*
X0156000Y0118899D02*
X0158760Y0118899D01*
X0158760Y0118400D02*
X0156000Y0118400D01*
X0156000Y0117902D02*
X0158790Y0117902D01*
X0159018Y0117403D02*
X0156000Y0117403D01*
X0156000Y0116905D02*
X0158760Y0116905D01*
X0158760Y0116406D02*
X0156000Y0116406D01*
X0156000Y0115908D02*
X0158760Y0115908D01*
X0158760Y0115409D02*
X0156000Y0115409D01*
X0156000Y0114911D02*
X0158760Y0114911D01*
X0158760Y0114412D02*
X0156000Y0114412D01*
X0156000Y0113914D02*
X0158760Y0113914D01*
X0158990Y0113415D02*
X0156000Y0113415D01*
X0156000Y0112917D02*
X0158760Y0112917D01*
X0158760Y0112418D02*
X0158369Y0112418D01*
X0156131Y0112418D02*
X0156000Y0112418D01*
X0156000Y0119896D02*
X0158760Y0119896D01*
X0158760Y0120394D02*
X0156000Y0120394D01*
X0156000Y0120893D02*
X0158810Y0120893D01*
X0159092Y0121391D02*
X0156000Y0121391D01*
X0172652Y0144323D02*
X0181500Y0144323D01*
X0181500Y0144821D02*
X0172154Y0144821D01*
X0171655Y0145320D02*
X0181500Y0145320D01*
X0181500Y0145818D02*
X0171157Y0145818D01*
X0170658Y0146317D02*
X0181500Y0146317D01*
X0181500Y0146815D02*
X0170160Y0146815D01*
X0169661Y0147314D02*
X0181500Y0147314D01*
X0181500Y0147812D02*
X0169163Y0147812D01*
X0169321Y0148311D02*
X0181500Y0148311D01*
X0181500Y0148809D02*
X0169820Y0148809D01*
X0170318Y0149308D02*
X0181500Y0149308D01*
X0181500Y0149806D02*
X0170500Y0149806D01*
X0170500Y0150305D02*
X0181500Y0150305D01*
X0181500Y0150803D02*
X0170500Y0150803D01*
X0170500Y0151302D02*
X0181500Y0151302D01*
X0181500Y0151800D02*
X0170500Y0151800D01*
X0170500Y0152299D02*
X0181500Y0152299D01*
X0181500Y0152797D02*
X0170500Y0152797D01*
X0170771Y0153296D02*
X0181500Y0153296D01*
X0181500Y0153794D02*
X0171269Y0153794D01*
X0171768Y0154293D02*
X0181500Y0154293D01*
X0181500Y0154791D02*
X0172266Y0154791D01*
X0172765Y0155290D02*
X0181500Y0155290D01*
X0181500Y0155789D02*
X0173000Y0155789D01*
X0173000Y0156287D02*
X0181500Y0156287D01*
X0181500Y0156786D02*
X0173000Y0156786D01*
X0173000Y0157284D02*
X0181500Y0157284D01*
X0181500Y0157783D02*
X0173000Y0157783D01*
X0173000Y0158281D02*
X0181500Y0158281D01*
X0181500Y0158780D02*
X0173000Y0158780D01*
X0173000Y0159278D02*
X0181500Y0159278D01*
X0181500Y0159777D02*
X0173000Y0159777D01*
X0173000Y0160275D02*
X0181500Y0160275D01*
X0181500Y0160774D02*
X0173000Y0160774D01*
X0173000Y0161272D02*
X0181500Y0161272D01*
X0181500Y0161771D02*
X0173000Y0161771D01*
X0173000Y0162269D02*
X0181500Y0162269D01*
X0181500Y0162768D02*
X0173000Y0162768D01*
X0173000Y0163266D02*
X0181500Y0163266D01*
X0181500Y0163765D02*
X0173000Y0163765D01*
X0172712Y0164263D02*
X0181500Y0164263D01*
X0181500Y0164762D02*
X0172213Y0164762D01*
X0171715Y0165260D02*
X0181500Y0165260D01*
X0181500Y0165759D02*
X0171216Y0165759D01*
X0170718Y0166257D02*
X0181500Y0166257D01*
X0181500Y0166756D02*
X0170219Y0166756D01*
X0169721Y0167254D02*
X0181500Y0167254D01*
X0181500Y0167753D02*
X0169222Y0167753D01*
X0168724Y0168251D02*
X0181500Y0168251D01*
X0181500Y0168750D02*
X0168225Y0168750D01*
X0167727Y0169248D02*
X0181500Y0169248D01*
X0181500Y0169747D02*
X0167228Y0169747D01*
X0166730Y0170245D02*
X0181500Y0170245D01*
X0181500Y0170744D02*
X0166231Y0170744D01*
X0165732Y0171242D02*
X0181500Y0171242D01*
X0181500Y0171741D02*
X0165234Y0171741D01*
X0164735Y0172239D02*
X0181500Y0172239D01*
X0166500Y0177723D02*
X0166000Y0177723D01*
X0166000Y0178222D02*
X0166500Y0178222D01*
X0166500Y0178720D02*
X0166000Y0178720D01*
X0166000Y0179219D02*
X0166500Y0179219D01*
X0166500Y0179717D02*
X0166000Y0179717D01*
X0166000Y0180216D02*
X0166500Y0180216D01*
X0166500Y0180714D02*
X0166000Y0180714D01*
X0166000Y0181711D02*
X0166500Y0181711D01*
X0166500Y0182210D02*
X0166000Y0182210D01*
X0166000Y0182708D02*
X0166500Y0182708D01*
X0166500Y0183207D02*
X0166000Y0183207D01*
X0166000Y0183705D02*
X0166500Y0183705D01*
X0166500Y0184204D02*
X0166000Y0184204D01*
X0166000Y0184702D02*
X0166323Y0184702D01*
X0165824Y0185201D02*
X0162774Y0185201D01*
X0162276Y0185699D02*
X0165326Y0185699D01*
X0164827Y0186198D02*
X0161777Y0186198D01*
X0161279Y0186696D02*
X0164329Y0186696D01*
X0164540Y0184702D02*
X0163273Y0184702D01*
X0163771Y0184204D02*
X0164042Y0184204D01*
X0164000Y0178222D02*
X0164117Y0178222D01*
X0164000Y0177723D02*
X0164615Y0177723D01*
X0150500Y0186198D02*
X0143777Y0186198D01*
X0143279Y0186696D02*
X0150366Y0186696D01*
X0150056Y0187195D02*
X0142780Y0187195D01*
X0143022Y0187693D02*
X0142282Y0187693D01*
X0141857Y0188192D02*
X0141783Y0188192D01*
X0140837Y0189189D02*
X0140786Y0189189D01*
X0140547Y0189687D02*
X0140288Y0189687D01*
X0140340Y0190186D02*
X0139789Y0190186D01*
X0140241Y0190684D02*
X0139291Y0190684D01*
X0139000Y0195171D02*
X0141854Y0195171D01*
X0141356Y0195669D02*
X0139000Y0195669D01*
X0139000Y0196168D02*
X0140857Y0196168D01*
X0140359Y0196666D02*
X0139000Y0196666D01*
X0139000Y0197165D02*
X0139860Y0197165D01*
X0139362Y0197663D02*
X0139000Y0197663D01*
X0141000Y0203562D02*
X0141000Y0208946D01*
X0141015Y0208923D01*
X0141523Y0208415D01*
X0142121Y0208015D01*
X0142785Y0207740D01*
X0143490Y0207600D01*
X0146000Y0207600D01*
X0146000Y0211000D01*
X0146500Y0211000D01*
X0146500Y0207600D01*
X0149009Y0207600D01*
X0149715Y0207740D01*
X0150379Y0208015D01*
X0150977Y0208415D01*
X0151485Y0208923D01*
X0151500Y0208946D01*
X0151500Y0203562D01*
X0150718Y0204344D01*
X0149376Y0204900D01*
X0143124Y0204900D01*
X0141782Y0204344D01*
X0141000Y0203562D01*
X0141000Y0203646D02*
X0141084Y0203646D01*
X0141000Y0204144D02*
X0141582Y0204144D01*
X0141000Y0204643D02*
X0142503Y0204643D01*
X0141000Y0205141D02*
X0151500Y0205141D01*
X0151500Y0204643D02*
X0149997Y0204643D01*
X0150918Y0204144D02*
X0151500Y0204144D01*
X0151500Y0203646D02*
X0151416Y0203646D01*
X0151500Y0205640D02*
X0141000Y0205640D01*
X0141000Y0206138D02*
X0151500Y0206138D01*
X0151500Y0206637D02*
X0141000Y0206637D01*
X0141000Y0207135D02*
X0151500Y0207135D01*
X0151500Y0207634D02*
X0149179Y0207634D01*
X0150554Y0208132D02*
X0151500Y0208132D01*
X0151500Y0208631D02*
X0151193Y0208631D01*
X0151500Y0213554D02*
X0151485Y0213577D01*
X0150977Y0214085D01*
X0150379Y0214485D01*
X0149715Y0214760D01*
X0149009Y0214900D01*
X0146500Y0214900D01*
X0146500Y0211500D01*
X0146000Y0211500D01*
X0146000Y0214900D01*
X0143490Y0214900D01*
X0142785Y0214760D01*
X0142121Y0214485D01*
X0141523Y0214085D01*
X0141015Y0213577D01*
X0141000Y0213554D01*
X0141000Y0218938D01*
X0141782Y0218156D01*
X0143124Y0217600D01*
X0149376Y0217600D01*
X0150718Y0218156D01*
X0151500Y0218938D01*
X0151500Y0213554D01*
X0151500Y0213616D02*
X0151446Y0213616D01*
X0151500Y0214114D02*
X0150933Y0214114D01*
X0151500Y0214613D02*
X0150069Y0214613D01*
X0151500Y0215111D02*
X0141000Y0215111D01*
X0141000Y0214613D02*
X0142431Y0214613D01*
X0141567Y0214114D02*
X0141000Y0214114D01*
X0141000Y0213616D02*
X0141054Y0213616D01*
X0141000Y0215610D02*
X0151500Y0215610D01*
X0151500Y0216108D02*
X0141000Y0216108D01*
X0141000Y0216607D02*
X0151500Y0216607D01*
X0151500Y0217105D02*
X0141000Y0217105D01*
X0141000Y0217604D02*
X0143115Y0217604D01*
X0141911Y0218102D02*
X0141000Y0218102D01*
X0141000Y0218601D02*
X0141337Y0218601D01*
X0140454Y0222589D02*
X0140386Y0222589D01*
X0140660Y0223088D02*
X0139887Y0223088D01*
X0139389Y0223586D02*
X0141024Y0223586D01*
X0141523Y0224085D02*
X0138890Y0224085D01*
X0138392Y0224583D02*
X0142359Y0224583D01*
X0142035Y0228073D02*
X0134902Y0228073D01*
X0134404Y0228571D02*
X0141367Y0228571D01*
X0140917Y0229070D02*
X0133905Y0229070D01*
X0133407Y0229568D02*
X0140596Y0229568D01*
X0140389Y0230067D02*
X0132908Y0230067D01*
X0130914Y0232061D02*
X0140290Y0232061D01*
X0140442Y0232559D02*
X0130416Y0232559D01*
X0129917Y0233058D02*
X0140668Y0233058D01*
X0141001Y0233556D02*
X0129419Y0233556D01*
X0128920Y0234055D02*
X0141493Y0234055D01*
X0142287Y0234553D02*
X0128422Y0234553D01*
X0125466Y0232559D02*
X0120416Y0232559D01*
X0120914Y0232061D02*
X0124946Y0232061D01*
X0124967Y0233058D02*
X0119917Y0233058D01*
X0119419Y0233556D02*
X0124500Y0233556D01*
X0124500Y0234055D02*
X0118920Y0234055D01*
X0118422Y0234553D02*
X0124500Y0234553D01*
X0124000Y0231562D02*
X0121413Y0231562D01*
X0121911Y0231064D02*
X0123502Y0231064D01*
X0123093Y0230565D02*
X0122410Y0230565D01*
X0120451Y0227574D02*
X0119900Y0227574D01*
X0119900Y0227076D02*
X0120949Y0227076D01*
X0121448Y0226577D02*
X0119900Y0226577D01*
X0119900Y0225580D02*
X0122445Y0225580D01*
X0122600Y0225082D02*
X0119900Y0225082D01*
X0119900Y0224583D02*
X0122600Y0224583D01*
X0122600Y0224085D02*
X0119900Y0224085D01*
X0119900Y0223586D02*
X0122600Y0223586D01*
X0122615Y0223088D02*
X0119820Y0223088D01*
X0119678Y0222589D02*
X0122822Y0222589D01*
X0123028Y0222091D02*
X0119464Y0222091D01*
X0119131Y0221592D02*
X0123346Y0221592D01*
X0123845Y0221093D02*
X0118655Y0221093D01*
X0117930Y0220595D02*
X0124570Y0220595D01*
X0121947Y0226079D02*
X0116500Y0226079D01*
X0116000Y0226079D02*
X0110896Y0226079D01*
X0110398Y0226577D02*
X0112600Y0226577D01*
X0112600Y0226500D02*
X0116000Y0226500D01*
X0116000Y0226000D01*
X0112600Y0226000D01*
X0112600Y0224375D01*
X0109900Y0227075D01*
X0109900Y0229376D01*
X0109344Y0230718D01*
X0108562Y0231500D01*
X0113946Y0231500D01*
X0113923Y0231485D01*
X0113415Y0230977D01*
X0113015Y0230379D01*
X0112740Y0229715D01*
X0112600Y0229009D01*
X0112600Y0226500D01*
X0112600Y0227076D02*
X0109900Y0227076D01*
X0109900Y0227574D02*
X0112600Y0227574D01*
X0112600Y0228073D02*
X0109900Y0228073D01*
X0109900Y0228571D02*
X0112600Y0228571D01*
X0112612Y0229070D02*
X0109900Y0229070D01*
X0109820Y0229568D02*
X0112711Y0229568D01*
X0112886Y0230067D02*
X0109614Y0230067D01*
X0109407Y0230565D02*
X0113140Y0230565D01*
X0113502Y0231064D02*
X0108998Y0231064D01*
X0111395Y0225580D02*
X0112600Y0225580D01*
X0112600Y0225082D02*
X0111893Y0225082D01*
X0112392Y0224583D02*
X0112600Y0224583D01*
X0109935Y0222091D02*
X0109472Y0222091D01*
X0109154Y0221592D02*
X0110433Y0221592D01*
X0110932Y0221093D02*
X0108655Y0221093D01*
X0107930Y0220595D02*
X0111430Y0220595D01*
X0111929Y0220096D02*
X0101000Y0220096D01*
X0101000Y0220595D02*
X0104570Y0220595D01*
X0103845Y0221093D02*
X0101000Y0221093D01*
X0101000Y0221592D02*
X0103346Y0221592D01*
X0103028Y0222091D02*
X0101000Y0222091D01*
X0101000Y0222589D02*
X0102822Y0222589D01*
X0102615Y0223088D02*
X0101000Y0223088D01*
X0101000Y0223586D02*
X0102600Y0223586D01*
X0102600Y0224085D02*
X0101000Y0224085D01*
X0101000Y0224583D02*
X0102600Y0224583D01*
X0102600Y0225082D02*
X0101000Y0225082D01*
X0101000Y0225580D02*
X0102600Y0225580D01*
X0102600Y0226079D02*
X0101000Y0226079D01*
X0101052Y0226577D02*
X0102600Y0226577D01*
X0102600Y0227076D02*
X0101550Y0227076D01*
X0102049Y0227574D02*
X0102600Y0227574D01*
X0102600Y0228073D02*
X0102548Y0228073D01*
X0101323Y0219598D02*
X0112427Y0219598D01*
X0112926Y0219099D02*
X0101530Y0219099D01*
X0101681Y0218601D02*
X0113424Y0218601D01*
X0113923Y0218102D02*
X0101681Y0218102D01*
X0101614Y0217604D02*
X0114421Y0217604D01*
X0114920Y0217105D02*
X0101407Y0217105D01*
X0101045Y0216607D02*
X0115418Y0216607D01*
X0115917Y0216108D02*
X0100432Y0216108D01*
X0100365Y0215610D02*
X0116415Y0215610D01*
X0112503Y0204643D02*
X0109332Y0204643D01*
X0109831Y0204144D02*
X0111582Y0204144D01*
X0111084Y0203646D02*
X0110329Y0203646D01*
X0106500Y0211622D02*
X0106000Y0211622D01*
X0106000Y0212120D02*
X0106500Y0212120D01*
X0106500Y0212619D02*
X0106000Y0212619D01*
X0106000Y0213117D02*
X0106500Y0213117D01*
X0106500Y0213616D02*
X0106000Y0213616D01*
X0106000Y0214114D02*
X0106500Y0214114D01*
X0106500Y0214613D02*
X0106000Y0214613D01*
X0119900Y0228073D02*
X0119952Y0228073D01*
X0104786Y0250506D02*
X0098000Y0250506D01*
X0098000Y0251004D02*
X0103934Y0251004D01*
X0103435Y0251503D02*
X0098000Y0251503D01*
X0098000Y0252001D02*
X0103065Y0252001D01*
X0102859Y0252500D02*
X0098000Y0252500D01*
X0098000Y0252998D02*
X0102652Y0252998D01*
X0102600Y0253497D02*
X0098000Y0253497D01*
X0098000Y0253995D02*
X0102600Y0253995D01*
X0102600Y0254494D02*
X0098000Y0254494D01*
X0098000Y0254992D02*
X0102600Y0254992D01*
X0102600Y0255491D02*
X0098000Y0255491D01*
X0098000Y0255989D02*
X0102600Y0255989D01*
X0102600Y0256488D02*
X0098000Y0256488D01*
X0098000Y0256986D02*
X0102600Y0256986D01*
X0102600Y0257485D02*
X0098000Y0257485D01*
X0098357Y0257983D02*
X0102600Y0257983D01*
X0102600Y0258482D02*
X0098563Y0258482D01*
X0098681Y0258980D02*
X0102600Y0258980D01*
X0102643Y0259479D02*
X0098681Y0259479D01*
X0098580Y0259977D02*
X0102849Y0259977D01*
X0103056Y0260476D02*
X0098374Y0260476D01*
X0097964Y0260974D02*
X0103413Y0260974D01*
X0103911Y0261473D02*
X0097236Y0261473D01*
X0097428Y0267954D02*
X0104385Y0267954D01*
X0103886Y0268452D02*
X0097927Y0268452D01*
X0098425Y0268951D02*
X0103388Y0268951D01*
X0102889Y0269449D02*
X0098924Y0269449D01*
X0113556Y0279419D02*
X0168948Y0279419D01*
X0168450Y0278921D02*
X0114054Y0278921D01*
X0114553Y0278422D02*
X0167951Y0278422D01*
X0167453Y0277924D02*
X0115051Y0277924D01*
X0115550Y0277425D02*
X0167132Y0277425D01*
X0166925Y0276927D02*
X0116048Y0276927D01*
X0116547Y0276428D02*
X0166719Y0276428D01*
X0166512Y0275930D02*
X0117045Y0275930D01*
X0117544Y0275431D02*
X0166306Y0275431D01*
X0166099Y0274933D02*
X0118042Y0274933D01*
X0146000Y0230565D02*
X0146500Y0230565D01*
X0146500Y0230067D02*
X0146000Y0230067D01*
X0146000Y0229568D02*
X0146500Y0229568D01*
X0146500Y0229070D02*
X0146000Y0229070D01*
X0146000Y0228571D02*
X0146500Y0228571D01*
X0146500Y0228073D02*
X0146000Y0228073D01*
X0150141Y0224583D02*
X0151500Y0224583D01*
X0151500Y0224085D02*
X0150977Y0224085D01*
X0151476Y0223586D02*
X0151500Y0223586D01*
X0151500Y0225082D02*
X0137893Y0225082D01*
X0137395Y0225580D02*
X0151500Y0225580D01*
X0151500Y0226079D02*
X0136896Y0226079D01*
X0136398Y0226577D02*
X0151500Y0226577D01*
X0151500Y0227076D02*
X0135899Y0227076D01*
X0135401Y0227574D02*
X0151500Y0227574D01*
X0151500Y0228073D02*
X0150465Y0228073D01*
X0151133Y0228571D02*
X0151500Y0228571D01*
X0151500Y0218601D02*
X0151163Y0218601D01*
X0151500Y0218102D02*
X0150589Y0218102D01*
X0151500Y0217604D02*
X0149385Y0217604D01*
X0146500Y0214613D02*
X0146000Y0214613D01*
X0146000Y0214114D02*
X0146500Y0214114D01*
X0146500Y0213616D02*
X0146000Y0213616D01*
X0146000Y0213117D02*
X0146500Y0213117D01*
X0146500Y0212619D02*
X0146000Y0212619D01*
X0146000Y0212120D02*
X0146500Y0212120D01*
X0146500Y0211622D02*
X0146000Y0211622D01*
X0146000Y0210625D02*
X0146500Y0210625D01*
X0146500Y0210126D02*
X0146000Y0210126D01*
X0146000Y0209628D02*
X0146500Y0209628D01*
X0146500Y0209129D02*
X0146000Y0209129D01*
X0146000Y0208631D02*
X0146500Y0208631D01*
X0146500Y0208132D02*
X0146000Y0208132D01*
X0146000Y0207634D02*
X0146500Y0207634D01*
X0143321Y0207634D02*
X0141000Y0207634D01*
X0141000Y0208132D02*
X0141946Y0208132D01*
X0141307Y0208631D02*
X0141000Y0208631D01*
X0149529Y0197663D02*
X0153362Y0197663D01*
X0152863Y0198162D02*
X0150724Y0198162D01*
X0151222Y0198660D02*
X0152365Y0198660D01*
X0151866Y0199159D02*
X0151721Y0199159D01*
X0149849Y0187693D02*
X0149478Y0187693D01*
X0143305Y0178720D02*
X0135659Y0178720D01*
X0135913Y0178222D02*
X0143804Y0178222D01*
X0144302Y0177723D02*
X0136081Y0177723D01*
X0136209Y0177224D02*
X0144801Y0177224D01*
X0145299Y0176726D02*
X0136288Y0176726D01*
X0136280Y0175729D02*
X0146296Y0175729D01*
X0145798Y0176227D02*
X0131500Y0176227D01*
X0131000Y0176227D02*
X0121702Y0176227D01*
X0121204Y0175729D02*
X0126220Y0175729D01*
X0126200Y0175853D02*
X0126324Y0175067D01*
X0126570Y0174311D01*
X0126931Y0173603D01*
X0127398Y0172960D01*
X0127960Y0172398D01*
X0128603Y0171931D01*
X0129311Y0171570D01*
X0130067Y0171324D01*
X0130239Y0171297D01*
X0128389Y0170531D01*
X0126969Y0169111D01*
X0126200Y0167255D01*
X0126200Y0165245D01*
X0126969Y0163389D01*
X0128389Y0161969D01*
X0130125Y0161250D01*
X0128389Y0160531D01*
X0126969Y0159111D01*
X0126200Y0157255D01*
X0126200Y0155245D01*
X0126969Y0153389D01*
X0127442Y0152917D01*
X0122525Y0148000D01*
X0121500Y0146975D01*
X0121500Y0143554D01*
X0121485Y0143577D01*
X0120977Y0144085D01*
X0120379Y0144485D01*
X0119715Y0144760D01*
X0119009Y0144900D01*
X0116500Y0144900D01*
X0116500Y0141500D01*
X0116000Y0141500D01*
X0116000Y0144900D01*
X0113490Y0144900D01*
X0112785Y0144760D01*
X0112121Y0144485D01*
X0111523Y0144085D01*
X0111015Y0143577D01*
X0110615Y0142979D01*
X0110340Y0142315D01*
X0110227Y0141747D01*
X0108000Y0143975D01*
X0108000Y0174136D01*
X0108766Y0173819D01*
X0109734Y0173819D01*
X0110627Y0174189D01*
X0111311Y0174873D01*
X0111681Y0175766D01*
X0111681Y0176734D01*
X0111311Y0177627D01*
X0111000Y0177938D01*
X0111000Y0178938D01*
X0111782Y0178156D01*
X0113124Y0177600D01*
X0118125Y0177600D01*
X0115425Y0174900D01*
X0113124Y0174900D01*
X0111782Y0174344D01*
X0110756Y0173318D01*
X0110200Y0171976D01*
X0110200Y0170524D01*
X0110756Y0169182D01*
X0111782Y0168156D01*
X0113124Y0167600D01*
X0119376Y0167600D01*
X0120718Y0168156D01*
X0121744Y0169182D01*
X0122300Y0170524D01*
X0122300Y0171976D01*
X0121744Y0173318D01*
X0120718Y0174344D01*
X0120082Y0174607D01*
X0125975Y0180500D01*
X0127000Y0181525D01*
X0127000Y0183358D01*
X0128389Y0181969D01*
X0130239Y0181203D01*
X0130067Y0181176D01*
X0129311Y0180930D01*
X0128603Y0180569D01*
X0127960Y0180102D01*
X0127398Y0179540D01*
X0126931Y0178897D01*
X0126570Y0178189D01*
X0126324Y0177433D01*
X0126200Y0176647D01*
X0126200Y0176500D01*
X0131000Y0176500D01*
X0131000Y0176000D01*
X0126200Y0176000D01*
X0126200Y0175853D01*
X0126299Y0175230D02*
X0120705Y0175230D01*
X0120207Y0174732D02*
X0126433Y0174732D01*
X0126610Y0174233D02*
X0120828Y0174233D01*
X0121327Y0173735D02*
X0126864Y0173735D01*
X0127197Y0173236D02*
X0121778Y0173236D01*
X0121984Y0172738D02*
X0127620Y0172738D01*
X0128179Y0172239D02*
X0122191Y0172239D01*
X0122300Y0171741D02*
X0128976Y0171741D01*
X0128903Y0170744D02*
X0122300Y0170744D01*
X0122300Y0171242D02*
X0130106Y0171242D01*
X0128104Y0170245D02*
X0122185Y0170245D01*
X0121978Y0169747D02*
X0127605Y0169747D01*
X0127107Y0169248D02*
X0121772Y0169248D01*
X0121312Y0168750D02*
X0126819Y0168750D01*
X0126613Y0168251D02*
X0120813Y0168251D01*
X0119745Y0167753D02*
X0126406Y0167753D01*
X0126200Y0167254D02*
X0108000Y0167254D01*
X0108000Y0166756D02*
X0126200Y0166756D01*
X0126200Y0166257D02*
X0108000Y0166257D01*
X0108000Y0165759D02*
X0126200Y0165759D01*
X0126200Y0165260D02*
X0108000Y0165260D01*
X0108000Y0164762D02*
X0112790Y0164762D01*
X0113124Y0164900D02*
X0111782Y0164344D01*
X0110756Y0163318D01*
X0110200Y0161976D01*
X0110200Y0160524D01*
X0110756Y0159182D01*
X0111782Y0158156D01*
X0113124Y0157600D01*
X0119376Y0157600D01*
X0120718Y0158156D01*
X0121744Y0159182D01*
X0122300Y0160524D01*
X0122300Y0161976D01*
X0121744Y0163318D01*
X0120718Y0164344D01*
X0119376Y0164900D01*
X0113124Y0164900D01*
X0111701Y0164263D02*
X0108000Y0164263D01*
X0108000Y0163765D02*
X0111203Y0163765D01*
X0110734Y0163266D02*
X0108000Y0163266D01*
X0108000Y0162768D02*
X0110528Y0162768D01*
X0110321Y0162269D02*
X0108000Y0162269D01*
X0108000Y0161771D02*
X0110200Y0161771D01*
X0110200Y0161272D02*
X0108000Y0161272D01*
X0108000Y0160774D02*
X0110200Y0160774D01*
X0110303Y0160275D02*
X0108000Y0160275D01*
X0108000Y0159777D02*
X0110510Y0159777D01*
X0110716Y0159278D02*
X0108000Y0159278D01*
X0108000Y0158780D02*
X0111159Y0158780D01*
X0111657Y0158281D02*
X0108000Y0158281D01*
X0108000Y0157783D02*
X0112683Y0157783D01*
X0113124Y0154900D02*
X0111782Y0154344D01*
X0110756Y0153318D01*
X0110200Y0151976D01*
X0110200Y0150524D01*
X0110756Y0149182D01*
X0111782Y0148156D01*
X0113124Y0147600D01*
X0119376Y0147600D01*
X0120718Y0148156D01*
X0121744Y0149182D01*
X0122300Y0150524D01*
X0122300Y0151976D01*
X0121744Y0153318D01*
X0120718Y0154344D01*
X0119376Y0154900D01*
X0113124Y0154900D01*
X0112862Y0154791D02*
X0108000Y0154791D01*
X0108000Y0154293D02*
X0111731Y0154293D01*
X0111233Y0153794D02*
X0108000Y0153794D01*
X0108000Y0153296D02*
X0110747Y0153296D01*
X0110540Y0152797D02*
X0108000Y0152797D01*
X0108000Y0152299D02*
X0110334Y0152299D01*
X0110200Y0151800D02*
X0108000Y0151800D01*
X0108000Y0151302D02*
X0110200Y0151302D01*
X0110200Y0150803D02*
X0108000Y0150803D01*
X0108000Y0150305D02*
X0110291Y0150305D01*
X0110497Y0149806D02*
X0108000Y0149806D01*
X0108000Y0149308D02*
X0110704Y0149308D01*
X0111129Y0148809D02*
X0108000Y0148809D01*
X0108000Y0148311D02*
X0111627Y0148311D01*
X0112611Y0147812D02*
X0108000Y0147812D01*
X0108000Y0147314D02*
X0121839Y0147314D01*
X0121500Y0146815D02*
X0108000Y0146815D01*
X0108000Y0146317D02*
X0121500Y0146317D01*
X0121500Y0145818D02*
X0108000Y0145818D01*
X0108000Y0145320D02*
X0121500Y0145320D01*
X0121500Y0144821D02*
X0119405Y0144821D01*
X0120621Y0144323D02*
X0121500Y0144323D01*
X0121500Y0143824D02*
X0121238Y0143824D01*
X0122337Y0147812D02*
X0119889Y0147812D01*
X0120873Y0148311D02*
X0122836Y0148311D01*
X0123334Y0148809D02*
X0121371Y0148809D01*
X0121796Y0149308D02*
X0123833Y0149308D01*
X0124332Y0149806D02*
X0122003Y0149806D01*
X0122209Y0150305D02*
X0124830Y0150305D01*
X0125329Y0150803D02*
X0122300Y0150803D01*
X0122300Y0151302D02*
X0125827Y0151302D01*
X0126326Y0151800D02*
X0122300Y0151800D01*
X0122166Y0152299D02*
X0126824Y0152299D01*
X0127323Y0152797D02*
X0121960Y0152797D01*
X0121753Y0153296D02*
X0127062Y0153296D01*
X0126801Y0153794D02*
X0121267Y0153794D01*
X0120769Y0154293D02*
X0126595Y0154293D01*
X0126388Y0154791D02*
X0119638Y0154791D01*
X0119817Y0157783D02*
X0126419Y0157783D01*
X0126625Y0158281D02*
X0120843Y0158281D01*
X0121341Y0158780D02*
X0126832Y0158780D01*
X0127136Y0159278D02*
X0121784Y0159278D01*
X0121990Y0159777D02*
X0127635Y0159777D01*
X0128133Y0160275D02*
X0122197Y0160275D01*
X0122300Y0160774D02*
X0128975Y0160774D01*
X0128868Y0161771D02*
X0122300Y0161771D01*
X0122300Y0161272D02*
X0130071Y0161272D01*
X0128089Y0162269D02*
X0122179Y0162269D01*
X0121972Y0162768D02*
X0127591Y0162768D01*
X0127092Y0163266D02*
X0121766Y0163266D01*
X0121297Y0163765D02*
X0126813Y0163765D01*
X0126607Y0164263D02*
X0120799Y0164263D01*
X0119710Y0164762D02*
X0126400Y0164762D01*
X0126212Y0157284D02*
X0108000Y0157284D01*
X0108000Y0156786D02*
X0126200Y0156786D01*
X0126200Y0156287D02*
X0108000Y0156287D01*
X0108000Y0155789D02*
X0126200Y0155789D01*
X0126200Y0155290D02*
X0108000Y0155290D01*
X0108000Y0144821D02*
X0113095Y0144821D01*
X0111879Y0144323D02*
X0108000Y0144323D01*
X0108151Y0143824D02*
X0111262Y0143824D01*
X0110847Y0143326D02*
X0108649Y0143326D01*
X0109148Y0142827D02*
X0110553Y0142827D01*
X0110346Y0142329D02*
X0109646Y0142329D01*
X0110145Y0141830D02*
X0110244Y0141830D01*
X0114375Y0137600D02*
X0116000Y0137600D01*
X0116000Y0141000D01*
X0116500Y0141000D01*
X0116500Y0137600D01*
X0119009Y0137600D01*
X0119715Y0137740D01*
X0120379Y0138015D01*
X0120866Y0138341D01*
X0117425Y0134900D01*
X0117075Y0134900D01*
X0114375Y0137600D01*
X0114631Y0137344D02*
X0119869Y0137344D01*
X0119960Y0137842D02*
X0120367Y0137842D01*
X0120866Y0138341D02*
X0120866Y0138341D01*
X0119370Y0136845D02*
X0115130Y0136845D01*
X0115628Y0136347D02*
X0118872Y0136347D01*
X0118373Y0135848D02*
X0116127Y0135848D01*
X0116625Y0135350D02*
X0117875Y0135350D01*
X0116500Y0137842D02*
X0116000Y0137842D01*
X0116000Y0138341D02*
X0116500Y0138341D01*
X0116500Y0138839D02*
X0116000Y0138839D01*
X0116000Y0139338D02*
X0116500Y0139338D01*
X0116500Y0139836D02*
X0116000Y0139836D01*
X0116000Y0140335D02*
X0116500Y0140335D01*
X0116500Y0140833D02*
X0116000Y0140833D01*
X0116000Y0141830D02*
X0116500Y0141830D01*
X0116500Y0142329D02*
X0116000Y0142329D01*
X0116000Y0142827D02*
X0116500Y0142827D01*
X0116500Y0143326D02*
X0116000Y0143326D01*
X0116000Y0143824D02*
X0116500Y0143824D01*
X0116500Y0144323D02*
X0116000Y0144323D01*
X0116000Y0144821D02*
X0116500Y0144821D01*
X0112755Y0167753D02*
X0108000Y0167753D01*
X0108000Y0168251D02*
X0111687Y0168251D01*
X0111188Y0168750D02*
X0108000Y0168750D01*
X0108000Y0169248D02*
X0110728Y0169248D01*
X0110522Y0169747D02*
X0108000Y0169747D01*
X0108000Y0170245D02*
X0110315Y0170245D01*
X0110200Y0170744D02*
X0108000Y0170744D01*
X0108000Y0171242D02*
X0110200Y0171242D01*
X0110200Y0171741D02*
X0108000Y0171741D01*
X0108000Y0172239D02*
X0110309Y0172239D01*
X0110516Y0172738D02*
X0108000Y0172738D01*
X0108000Y0173236D02*
X0110722Y0173236D01*
X0111173Y0173735D02*
X0108000Y0173735D01*
X0110672Y0174233D02*
X0111672Y0174233D01*
X0111170Y0174732D02*
X0112718Y0174732D01*
X0111459Y0175230D02*
X0115756Y0175230D01*
X0116254Y0175729D02*
X0111666Y0175729D01*
X0111681Y0176227D02*
X0116753Y0176227D01*
X0117251Y0176726D02*
X0111681Y0176726D01*
X0111478Y0177224D02*
X0117750Y0177224D01*
X0112827Y0177723D02*
X0111215Y0177723D01*
X0111000Y0178222D02*
X0111717Y0178222D01*
X0111218Y0178720D02*
X0111000Y0178720D01*
X0122201Y0176726D02*
X0126212Y0176726D01*
X0126291Y0177224D02*
X0122699Y0177224D01*
X0123198Y0177723D02*
X0126419Y0177723D01*
X0126587Y0178222D02*
X0123696Y0178222D01*
X0124195Y0178720D02*
X0126841Y0178720D01*
X0127165Y0179219D02*
X0124693Y0179219D01*
X0125192Y0179717D02*
X0127575Y0179717D01*
X0128117Y0180216D02*
X0125690Y0180216D01*
X0126189Y0180714D02*
X0128888Y0180714D01*
X0129012Y0181711D02*
X0127000Y0181711D01*
X0127000Y0182210D02*
X0128149Y0182210D01*
X0127650Y0182708D02*
X0127000Y0182708D01*
X0127000Y0183207D02*
X0127152Y0183207D01*
X0126687Y0181213D02*
X0130215Y0181213D01*
X0132285Y0181213D02*
X0140813Y0181213D01*
X0141311Y0180714D02*
X0133612Y0180714D01*
X0134383Y0180216D02*
X0141810Y0180216D01*
X0142308Y0179717D02*
X0134925Y0179717D01*
X0135335Y0179219D02*
X0142807Y0179219D01*
X0140314Y0181711D02*
X0133488Y0181711D01*
X0134351Y0182210D02*
X0139816Y0182210D01*
X0139317Y0182708D02*
X0134850Y0182708D01*
X0135348Y0183207D02*
X0138818Y0183207D01*
X0138320Y0183705D02*
X0135662Y0183705D01*
X0135868Y0184204D02*
X0137821Y0184204D01*
X0173151Y0143824D02*
X0181500Y0143824D01*
X0181500Y0143326D02*
X0173649Y0143326D01*
X0174148Y0142827D02*
X0181500Y0142827D01*
X0181500Y0142329D02*
X0174646Y0142329D01*
X0175145Y0141830D02*
X0181500Y0141830D01*
X0181500Y0141332D02*
X0175643Y0141332D01*
X0176142Y0140833D02*
X0181500Y0140833D01*
X0181500Y0140335D02*
X0176640Y0140335D01*
X0177139Y0139836D02*
X0181500Y0139836D01*
X0181500Y0139338D02*
X0177637Y0139338D01*
X0178136Y0138839D02*
X0181500Y0138839D01*
X0181500Y0138341D02*
X0178634Y0138341D01*
X0179133Y0137842D02*
X0181500Y0137842D01*
X0181500Y0137344D02*
X0179631Y0137344D01*
X0180130Y0136845D02*
X0181500Y0136845D01*
X0162417Y0064492D02*
X0158268Y0064492D01*
X0158268Y0064588D01*
X0158306Y0064831D01*
X0157975Y0064500D01*
X0149662Y0064500D01*
X0147762Y0062600D01*
X0146375Y0062600D01*
X0150000Y0058975D01*
X0150000Y0049525D01*
X0149068Y0048594D01*
X0149900Y0047762D01*
X0149900Y0046375D01*
X0158488Y0054962D01*
X0158268Y0055493D01*
X0158268Y0057243D01*
X0158938Y0058860D01*
X0160175Y0060098D01*
X0160691Y0060311D01*
X0160361Y0060479D01*
X0159801Y0060886D01*
X0159311Y0061376D01*
X0158904Y0061936D01*
X0158590Y0062553D01*
X0158376Y0063212D01*
X0158268Y0063896D01*
X0158268Y0063992D01*
X0162417Y0063992D01*
X0162417Y0064492D01*
X0162417Y0064062D02*
X0149224Y0064062D01*
X0148726Y0063564D02*
X0158320Y0063564D01*
X0158424Y0063065D02*
X0148227Y0063065D01*
X0146906Y0062068D02*
X0158837Y0062068D01*
X0158586Y0062567D02*
X0146408Y0062567D01*
X0147405Y0061570D02*
X0159171Y0061570D01*
X0159616Y0061071D02*
X0147903Y0061071D01*
X0148402Y0060573D02*
X0160233Y0060573D01*
X0160152Y0060074D02*
X0148901Y0060074D01*
X0149399Y0059576D02*
X0159653Y0059576D01*
X0159155Y0059077D02*
X0149898Y0059077D01*
X0150000Y0058579D02*
X0158821Y0058579D01*
X0158614Y0058080D02*
X0150000Y0058080D01*
X0150000Y0057582D02*
X0158408Y0057582D01*
X0158268Y0057083D02*
X0150000Y0057083D01*
X0150000Y0056585D02*
X0158268Y0056585D01*
X0158268Y0056086D02*
X0150000Y0056086D01*
X0150000Y0055588D02*
X0158268Y0055588D01*
X0158435Y0055089D02*
X0150000Y0055089D01*
X0150000Y0054591D02*
X0158116Y0054591D01*
X0157617Y0054092D02*
X0150000Y0054092D01*
X0150000Y0053594D02*
X0157119Y0053594D01*
X0156620Y0053095D02*
X0150000Y0053095D01*
X0150000Y0052597D02*
X0156122Y0052597D01*
X0155623Y0052098D02*
X0150000Y0052098D01*
X0150000Y0051600D02*
X0155125Y0051600D01*
X0154626Y0051101D02*
X0150000Y0051101D01*
X0150000Y0050603D02*
X0154128Y0050603D01*
X0153629Y0050104D02*
X0150000Y0050104D01*
X0150000Y0049606D02*
X0153131Y0049606D01*
X0152632Y0049107D02*
X0149582Y0049107D01*
X0149083Y0048609D02*
X0152134Y0048609D01*
X0151635Y0048110D02*
X0149552Y0048110D01*
X0149900Y0047612D02*
X0151137Y0047612D01*
X0150638Y0047113D02*
X0149900Y0047113D01*
X0149900Y0046615D02*
X0150140Y0046615D01*
X0158036Y0064561D02*
X0158268Y0064561D01*
X0176000Y0242031D02*
X0176500Y0242031D01*
X0176500Y0242529D02*
X0176000Y0242529D01*
X0176000Y0243028D02*
X0176500Y0243028D01*
X0176500Y0243527D02*
X0176000Y0243527D01*
X0176000Y0244025D02*
X0176500Y0244025D01*
X0176500Y0244524D02*
X0176000Y0244524D01*
M02*
