G75*
%MOIN*%
%OFA0B0*%
%FSLAX25Y25*%
%IPPOS*%
%LPD*%
%AMOC8*
5,1,8,0,0,1.08239X$1,22.5*
%
%ADD10OC8,0.04800*%
%ADD11C,0.04800*%
%ADD12C,0.07400*%
%ADD13C,0.06299*%
%ADD14R,0.04724X0.04724*%
%ADD15C,0.04724*%
%ADD16OC8,0.12598*%
%ADD17OC8,0.05400*%
%ADD18C,0.07600*%
%ADD19C,0.01000*%
%ADD20C,0.02362*%
D10*
X0081500Y0111500D03*
X0081500Y0121500D03*
X0086500Y0216500D03*
X0096500Y0216500D03*
X0158626Y0231500D03*
X0158626Y0241500D03*
X0158626Y0251500D03*
X0178626Y0251500D03*
X0178626Y0241500D03*
X0178626Y0231500D03*
X0201500Y0206500D03*
X0201500Y0196500D03*
X0231500Y0086500D03*
X0231500Y0076500D03*
X0221500Y0051500D03*
X0241500Y0051500D03*
X0231500Y0021500D03*
X0211500Y0021500D03*
D11*
X0246500Y0061700D02*
X0246500Y0066500D01*
X0256500Y0066500D02*
X0256500Y0061700D01*
X0266500Y0061700D02*
X0266500Y0066500D01*
X0276500Y0066500D02*
X0276500Y0061700D01*
X0276500Y0096500D02*
X0276500Y0101300D01*
X0266500Y0101300D02*
X0266500Y0096500D01*
X0256500Y0096500D02*
X0256500Y0101300D01*
X0246500Y0101300D02*
X0246500Y0096500D01*
X0211500Y0094100D02*
X0211500Y0098900D01*
X0201500Y0098900D02*
X0201500Y0094100D01*
X0191500Y0094100D02*
X0191500Y0098900D01*
X0181500Y0098900D02*
X0181500Y0094100D01*
X0171500Y0094100D02*
X0171500Y0098900D01*
X0161500Y0098900D02*
X0161500Y0094100D01*
X0151500Y0094100D02*
X0151500Y0098900D01*
X0141500Y0098900D02*
X0141500Y0094100D01*
X0131500Y0094100D02*
X0131500Y0098900D01*
X0121500Y0098900D02*
X0121500Y0094100D01*
X0111500Y0094100D02*
X0111500Y0098900D01*
X0101500Y0098900D02*
X0101500Y0094100D01*
X0091500Y0094100D02*
X0091500Y0098900D01*
X0081500Y0098900D02*
X0081500Y0094100D01*
X0081500Y0068900D02*
X0081500Y0064100D01*
X0091500Y0064100D02*
X0091500Y0068900D01*
X0101500Y0068900D02*
X0101500Y0064100D01*
X0111500Y0064100D02*
X0111500Y0068900D01*
X0121500Y0068900D02*
X0121500Y0064100D01*
X0131500Y0064100D02*
X0131500Y0068900D01*
X0141500Y0068900D02*
X0141500Y0064100D01*
X0151500Y0064100D02*
X0151500Y0068900D01*
X0161500Y0068900D02*
X0161500Y0064100D01*
X0171500Y0064100D02*
X0171500Y0068900D01*
X0181500Y0068900D02*
X0181500Y0064100D01*
X0191500Y0064100D02*
X0191500Y0068900D01*
X0201500Y0068900D02*
X0201500Y0064100D01*
X0211500Y0064100D02*
X0211500Y0068900D01*
X0211500Y0184100D02*
X0211500Y0188900D01*
X0221500Y0188900D02*
X0221500Y0184100D01*
X0231500Y0184100D02*
X0231500Y0188900D01*
X0241500Y0188900D02*
X0241500Y0184100D01*
X0251500Y0184100D02*
X0251500Y0188900D01*
X0261500Y0188900D02*
X0261500Y0184100D01*
X0271500Y0184100D02*
X0271500Y0188900D01*
X0271500Y0214100D02*
X0271500Y0218900D01*
X0261500Y0218900D02*
X0261500Y0214100D01*
X0251500Y0214100D02*
X0251500Y0218900D01*
X0241500Y0218900D02*
X0241500Y0214100D01*
X0231500Y0214100D02*
X0231500Y0218900D01*
X0221500Y0218900D02*
X0221500Y0214100D01*
X0211500Y0214100D02*
X0211500Y0218900D01*
X0181500Y0218900D02*
X0181500Y0214100D01*
X0171500Y0214100D02*
X0171500Y0218900D01*
X0161500Y0218900D02*
X0161500Y0214100D01*
X0151500Y0214100D02*
X0151500Y0218900D01*
X0141500Y0218900D02*
X0141500Y0214100D01*
X0131500Y0214100D02*
X0131500Y0218900D01*
X0121500Y0218900D02*
X0121500Y0214100D01*
X0111500Y0214100D02*
X0111500Y0218900D01*
X0111500Y0188900D02*
X0111500Y0184100D01*
X0121500Y0184100D02*
X0121500Y0188900D01*
X0131500Y0188900D02*
X0131500Y0184100D01*
X0141500Y0184100D02*
X0141500Y0188900D01*
X0151500Y0188900D02*
X0151500Y0184100D01*
X0161500Y0184100D02*
X0161500Y0188900D01*
X0171500Y0188900D02*
X0171500Y0184100D01*
X0181500Y0184100D02*
X0181500Y0188900D01*
D12*
X0211500Y0041500D03*
X0241500Y0041500D03*
D13*
X0261343Y0044807D03*
X0261343Y0036933D03*
X0261343Y0233783D03*
X0261343Y0241657D03*
X0261343Y0249531D03*
X0241657Y0233783D03*
X0233783Y0233783D03*
X0218035Y0233783D03*
X0210161Y0233783D03*
X0202287Y0233783D03*
X0194413Y0233783D03*
X0135358Y0233783D03*
X0127484Y0233783D03*
X0119610Y0233783D03*
X0111736Y0233783D03*
X0095988Y0233783D03*
X0088114Y0233783D03*
D14*
X0056618Y0128232D03*
D15*
X0056618Y0138232D03*
X0056618Y0148232D03*
X0056618Y0158232D03*
X0044807Y0153232D03*
X0044807Y0143232D03*
X0044807Y0133232D03*
X0032996Y0128232D03*
X0032996Y0138232D03*
X0032996Y0148232D03*
X0032996Y0158232D03*
X0021185Y0153232D03*
X0021185Y0143232D03*
X0021185Y0133232D03*
D16*
X0021185Y0111854D03*
X0044807Y0111854D03*
X0044807Y0174610D03*
X0021185Y0174610D03*
D17*
X0059020Y0049807D03*
X0069020Y0049807D03*
X0079020Y0049807D03*
X0089020Y0049807D03*
X0099020Y0049807D03*
X0109020Y0049807D03*
X0119020Y0049807D03*
X0129020Y0049807D03*
X0129020Y0039807D03*
X0119020Y0039807D03*
X0109020Y0039807D03*
X0099020Y0039807D03*
X0089020Y0039807D03*
X0079020Y0039807D03*
X0069020Y0039807D03*
X0059020Y0039807D03*
D18*
X0106500Y0116500D03*
X0116500Y0116500D03*
X0126500Y0116500D03*
X0136500Y0116500D03*
X0146500Y0116500D03*
X0156500Y0116500D03*
X0166500Y0116500D03*
X0176500Y0116500D03*
X0186500Y0116500D03*
X0196500Y0116500D03*
X0206500Y0116500D03*
X0216500Y0116500D03*
X0226500Y0116500D03*
X0236500Y0116500D03*
X0246500Y0116500D03*
X0256500Y0116500D03*
X0266500Y0116500D03*
X0266500Y0176500D03*
X0256500Y0176500D03*
X0246500Y0176500D03*
X0236500Y0176500D03*
X0226500Y0176500D03*
X0216500Y0176500D03*
X0206500Y0176500D03*
X0196500Y0176500D03*
X0186500Y0176500D03*
X0176500Y0176500D03*
X0166500Y0176500D03*
X0156500Y0176500D03*
X0146500Y0176500D03*
X0136500Y0176500D03*
X0126500Y0176500D03*
X0116500Y0176500D03*
X0106500Y0176500D03*
D19*
X0003968Y0282496D02*
X0003968Y0003968D01*
X0282496Y0003968D01*
X0282496Y0282496D01*
X0003968Y0282496D01*
X0003968Y0282082D02*
X0282496Y0282082D01*
X0282496Y0281083D02*
X0276921Y0281083D01*
X0278120Y0280586D02*
X0274898Y0281921D01*
X0271410Y0281921D01*
X0268187Y0280586D01*
X0265721Y0278120D01*
X0264386Y0274898D01*
X0264386Y0271410D01*
X0265721Y0268187D01*
X0268187Y0265721D01*
X0271410Y0264386D01*
X0274898Y0264386D01*
X0278120Y0265721D01*
X0280586Y0268187D01*
X0281921Y0271410D01*
X0281921Y0274898D01*
X0280586Y0278120D01*
X0278120Y0280586D01*
X0278622Y0280085D02*
X0282496Y0280085D01*
X0282496Y0279086D02*
X0279620Y0279086D01*
X0280600Y0278088D02*
X0282496Y0278088D01*
X0282496Y0277089D02*
X0281013Y0277089D01*
X0281427Y0276091D02*
X0282496Y0276091D01*
X0282496Y0275092D02*
X0281841Y0275092D01*
X0281921Y0274094D02*
X0282496Y0274094D01*
X0282496Y0273095D02*
X0281921Y0273095D01*
X0281921Y0272097D02*
X0282496Y0272097D01*
X0282496Y0271098D02*
X0281792Y0271098D01*
X0281379Y0270100D02*
X0282496Y0270100D01*
X0282496Y0269101D02*
X0280965Y0269101D01*
X0280502Y0268103D02*
X0282496Y0268103D01*
X0282496Y0267104D02*
X0279503Y0267104D01*
X0278505Y0266105D02*
X0282496Y0266105D01*
X0282496Y0265107D02*
X0276639Y0265107D01*
X0282496Y0264108D02*
X0003968Y0264108D01*
X0003968Y0263110D02*
X0282496Y0263110D01*
X0282496Y0262111D02*
X0003968Y0262111D01*
X0003968Y0261113D02*
X0282496Y0261113D01*
X0282496Y0260114D02*
X0003968Y0260114D01*
X0003968Y0259116D02*
X0282496Y0259116D01*
X0282496Y0258117D02*
X0265711Y0258117D01*
X0265328Y0258500D02*
X0176672Y0258500D01*
X0175500Y0257328D01*
X0167672Y0249500D01*
X0162141Y0249500D01*
X0162526Y0249885D01*
X0162526Y0253115D01*
X0160241Y0255400D01*
X0157011Y0255400D01*
X0155111Y0253500D01*
X0143672Y0253500D01*
X0142500Y0252328D01*
X0128547Y0238376D01*
X0128409Y0238433D01*
X0126559Y0238433D01*
X0124850Y0237725D01*
X0123543Y0236417D01*
X0123507Y0236331D01*
X0123157Y0236812D01*
X0122639Y0237330D01*
X0122047Y0237760D01*
X0121395Y0238092D01*
X0120699Y0238319D01*
X0119976Y0238433D01*
X0119799Y0238433D01*
X0119799Y0233973D01*
X0119421Y0233973D01*
X0119421Y0238433D01*
X0119244Y0238433D01*
X0118521Y0238319D01*
X0117825Y0238092D01*
X0117173Y0237760D01*
X0116581Y0237330D01*
X0116064Y0236812D01*
X0115714Y0236331D01*
X0115678Y0236417D01*
X0114370Y0237725D01*
X0113060Y0238268D01*
X0113773Y0238981D01*
X0114181Y0239967D01*
X0114181Y0241033D01*
X0113773Y0242019D01*
X0113019Y0242773D01*
X0112033Y0243181D01*
X0110967Y0243181D01*
X0109981Y0242773D01*
X0109227Y0242019D01*
X0108819Y0241033D01*
X0108819Y0240647D01*
X0100358Y0232187D01*
X0100523Y0232695D01*
X0100638Y0233418D01*
X0100638Y0233594D01*
X0096177Y0233594D01*
X0096177Y0229134D01*
X0096354Y0229134D01*
X0097077Y0229248D01*
X0097773Y0229475D01*
X0098425Y0229807D01*
X0098500Y0229861D01*
X0098500Y0220015D01*
X0098115Y0220400D01*
X0096800Y0220400D01*
X0096800Y0216800D01*
X0096200Y0216800D01*
X0096200Y0220400D01*
X0094885Y0220400D01*
X0092600Y0218115D01*
X0092600Y0216800D01*
X0096200Y0216800D01*
X0096200Y0216200D01*
X0096800Y0216200D01*
X0096800Y0212600D01*
X0098115Y0212600D01*
X0098500Y0212985D01*
X0098500Y0174328D01*
X0094672Y0170500D01*
X0093500Y0169328D01*
X0093500Y0167292D01*
X0093227Y0167019D01*
X0092819Y0166033D01*
X0092819Y0164967D01*
X0093227Y0163981D01*
X0093981Y0163227D01*
X0094967Y0162819D01*
X0096033Y0162819D01*
X0096500Y0163012D01*
X0096500Y0127328D01*
X0059328Y0164500D01*
X0053672Y0164500D01*
X0052500Y0163328D01*
X0049672Y0160500D01*
X0036190Y0160500D01*
X0035184Y0161506D01*
X0033764Y0162094D01*
X0032228Y0162094D01*
X0030808Y0161506D01*
X0029722Y0160420D01*
X0029134Y0159001D01*
X0029134Y0157464D01*
X0029722Y0156045D01*
X0030808Y0154958D01*
X0032228Y0154370D01*
X0033764Y0154370D01*
X0035184Y0154958D01*
X0036270Y0156045D01*
X0036459Y0156500D01*
X0042613Y0156500D01*
X0041533Y0155420D01*
X0040945Y0154001D01*
X0040945Y0152464D01*
X0041533Y0151045D01*
X0042619Y0149958D01*
X0044039Y0149370D01*
X0045575Y0149370D01*
X0045735Y0149436D01*
X0053500Y0141672D01*
X0054048Y0141124D01*
X0053344Y0140420D01*
X0052756Y0139001D01*
X0052756Y0137464D01*
X0053344Y0136045D01*
X0054430Y0134958D01*
X0055500Y0134515D01*
X0055500Y0133672D01*
X0057077Y0132094D01*
X0053635Y0132094D01*
X0052756Y0131216D01*
X0052756Y0125249D01*
X0053635Y0124370D01*
X0059602Y0124370D01*
X0060480Y0125249D01*
X0060480Y0128691D01*
X0073500Y0115672D01*
X0073500Y0101672D01*
X0077600Y0097572D01*
X0077600Y0093324D01*
X0077668Y0093161D01*
X0036328Y0134500D01*
X0034078Y0134500D01*
X0035184Y0134958D01*
X0036270Y0136045D01*
X0036858Y0137464D01*
X0036858Y0139001D01*
X0036270Y0140420D01*
X0035184Y0141506D01*
X0033764Y0142094D01*
X0032228Y0142094D01*
X0030808Y0141506D01*
X0029722Y0140420D01*
X0029341Y0139500D01*
X0022267Y0139500D01*
X0023373Y0139958D01*
X0024459Y0141045D01*
X0025047Y0142464D01*
X0025047Y0144001D01*
X0024459Y0145420D01*
X0023373Y0146506D01*
X0021953Y0147094D01*
X0021923Y0147094D01*
X0022500Y0147672D01*
X0022500Y0149597D01*
X0023373Y0149958D01*
X0024459Y0151045D01*
X0025047Y0152464D01*
X0025047Y0154001D01*
X0024459Y0155420D01*
X0023373Y0156506D01*
X0021953Y0157094D01*
X0020417Y0157094D01*
X0018997Y0156506D01*
X0017911Y0155420D01*
X0017323Y0154001D01*
X0017323Y0152464D01*
X0017911Y0151045D01*
X0018500Y0150455D01*
X0018500Y0149328D01*
X0009672Y0140500D01*
X0008500Y0139328D01*
X0008500Y0095672D01*
X0050500Y0053672D01*
X0051672Y0052500D01*
X0055773Y0052500D01*
X0054820Y0051547D01*
X0054820Y0048648D01*
X0052500Y0046328D01*
X0052500Y0036672D01*
X0053672Y0035500D01*
X0065672Y0023500D01*
X0169328Y0023500D01*
X0170500Y0024672D01*
X0208055Y0062226D01*
X0208194Y0061891D01*
X0209291Y0060794D01*
X0210724Y0060200D01*
X0212276Y0060200D01*
X0213709Y0060794D01*
X0214806Y0061891D01*
X0215400Y0063324D01*
X0215400Y0069676D01*
X0214806Y0071109D01*
X0213709Y0072206D01*
X0212276Y0072800D01*
X0210724Y0072800D01*
X0209291Y0072206D01*
X0208194Y0071109D01*
X0207600Y0069676D01*
X0207600Y0067428D01*
X0205400Y0065228D01*
X0205400Y0069676D01*
X0204806Y0071109D01*
X0203709Y0072206D01*
X0202276Y0072800D01*
X0200724Y0072800D01*
X0199291Y0072206D01*
X0198194Y0071109D01*
X0197600Y0069676D01*
X0197600Y0067428D01*
X0195400Y0065228D01*
X0195400Y0069676D01*
X0194806Y0071109D01*
X0193709Y0072206D01*
X0192276Y0072800D01*
X0190724Y0072800D01*
X0189291Y0072206D01*
X0188194Y0071109D01*
X0187600Y0069676D01*
X0187600Y0067428D01*
X0185400Y0065228D01*
X0185400Y0069676D01*
X0184806Y0071109D01*
X0183709Y0072206D01*
X0182276Y0072800D01*
X0180724Y0072800D01*
X0179291Y0072206D01*
X0178956Y0071872D01*
X0175328Y0075500D01*
X0127328Y0075500D01*
X0112525Y0090303D01*
X0113709Y0090794D01*
X0114806Y0091891D01*
X0115400Y0093324D01*
X0115400Y0097772D01*
X0115500Y0097672D01*
X0115500Y0091672D01*
X0118500Y0088672D01*
X0119672Y0087500D01*
X0145328Y0087500D01*
X0148956Y0091128D01*
X0149291Y0090794D01*
X0150724Y0090200D01*
X0152276Y0090200D01*
X0153709Y0090794D01*
X0154806Y0091891D01*
X0155400Y0093324D01*
X0155400Y0095572D01*
X0157600Y0097772D01*
X0157600Y0093324D01*
X0158194Y0091891D01*
X0159291Y0090794D01*
X0160724Y0090200D01*
X0162276Y0090200D01*
X0163709Y0090794D01*
X0164806Y0091891D01*
X0165400Y0093324D01*
X0165400Y0099676D01*
X0165332Y0099839D01*
X0167600Y0097572D01*
X0167600Y0093324D01*
X0168194Y0091891D01*
X0169291Y0090794D01*
X0170724Y0090200D01*
X0172276Y0090200D01*
X0173709Y0090794D01*
X0174806Y0091891D01*
X0174945Y0092226D01*
X0191500Y0075672D01*
X0192672Y0074500D01*
X0227985Y0074500D01*
X0229500Y0072985D01*
X0229500Y0025015D01*
X0227600Y0023115D01*
X0227600Y0019885D01*
X0229885Y0017600D01*
X0233115Y0017600D01*
X0235400Y0019885D01*
X0235400Y0023115D01*
X0233500Y0025015D01*
X0233500Y0072985D01*
X0235400Y0074885D01*
X0235400Y0076572D01*
X0253172Y0094344D01*
X0253194Y0094291D01*
X0254291Y0093194D01*
X0255724Y0092600D01*
X0257276Y0092600D01*
X0258709Y0093194D01*
X0259806Y0094291D01*
X0260400Y0095724D01*
X0260400Y0102076D01*
X0259806Y0103509D01*
X0258709Y0104606D01*
X0257276Y0105200D01*
X0255724Y0105200D01*
X0254291Y0104606D01*
X0253194Y0103509D01*
X0252600Y0102076D01*
X0252600Y0098500D01*
X0251672Y0098500D01*
X0250400Y0097228D01*
X0250400Y0102076D01*
X0249806Y0103509D01*
X0248709Y0104606D01*
X0247276Y0105200D01*
X0245724Y0105200D01*
X0244291Y0104606D01*
X0243194Y0103509D01*
X0242600Y0102076D01*
X0242600Y0095724D01*
X0243194Y0094291D01*
X0244291Y0093194D01*
X0245724Y0092600D01*
X0245772Y0092600D01*
X0233343Y0080172D01*
X0233115Y0080400D01*
X0229885Y0080400D01*
X0227985Y0078500D01*
X0194328Y0078500D01*
X0182525Y0090303D01*
X0183709Y0090794D01*
X0184806Y0091891D01*
X0185400Y0093324D01*
X0185400Y0099676D01*
X0184806Y0101109D01*
X0183709Y0102206D01*
X0182276Y0102800D01*
X0180724Y0102800D01*
X0179291Y0102206D01*
X0178194Y0101109D01*
X0177600Y0099676D01*
X0177600Y0095228D01*
X0175400Y0097428D01*
X0175400Y0099676D01*
X0174806Y0101109D01*
X0173709Y0102206D01*
X0172276Y0102800D01*
X0170724Y0102800D01*
X0169291Y0102206D01*
X0168956Y0101872D01*
X0165328Y0105500D01*
X0159672Y0105500D01*
X0158500Y0104328D01*
X0154945Y0100774D01*
X0154806Y0101109D01*
X0153709Y0102206D01*
X0152276Y0102800D01*
X0150724Y0102800D01*
X0149291Y0102206D01*
X0148194Y0101109D01*
X0147600Y0099676D01*
X0147600Y0095428D01*
X0145279Y0093107D01*
X0145400Y0093716D01*
X0145400Y0096200D01*
X0141800Y0096200D01*
X0141800Y0096800D01*
X0141200Y0096800D01*
X0141200Y0102800D01*
X0141116Y0102800D01*
X0140362Y0102650D01*
X0139653Y0102356D01*
X0139014Y0101929D01*
X0138471Y0101386D01*
X0138044Y0100747D01*
X0137750Y0100038D01*
X0137600Y0099284D01*
X0137600Y0096800D01*
X0141200Y0096800D01*
X0141200Y0096200D01*
X0137600Y0096200D01*
X0137600Y0093716D01*
X0137750Y0092962D01*
X0138044Y0092253D01*
X0138471Y0091614D01*
X0138585Y0091500D01*
X0134415Y0091500D01*
X0134806Y0091891D01*
X0135400Y0093324D01*
X0135400Y0099676D01*
X0134806Y0101109D01*
X0133709Y0102206D01*
X0132525Y0102697D01*
X0138328Y0108500D01*
X0261328Y0108500D01*
X0264444Y0111615D01*
X0265446Y0111200D01*
X0267554Y0111200D01*
X0269502Y0112007D01*
X0270993Y0113498D01*
X0271800Y0115446D01*
X0271800Y0117554D01*
X0270993Y0119502D01*
X0269502Y0120993D01*
X0267554Y0121800D01*
X0265446Y0121800D01*
X0263498Y0120993D01*
X0262007Y0119502D01*
X0261500Y0118278D01*
X0260993Y0119502D01*
X0259502Y0120993D01*
X0258500Y0121408D01*
X0258500Y0137012D01*
X0258967Y0136819D01*
X0260033Y0136819D01*
X0261019Y0137227D01*
X0261773Y0137981D01*
X0262181Y0138967D01*
X0262181Y0139353D01*
X0280500Y0157672D01*
X0280500Y0237708D01*
X0280773Y0237981D01*
X0281181Y0238967D01*
X0281181Y0240033D01*
X0280773Y0241019D01*
X0280019Y0241773D01*
X0279033Y0242181D01*
X0277967Y0242181D01*
X0277500Y0241988D01*
X0277500Y0246328D01*
X0276328Y0247500D01*
X0265328Y0258500D01*
X0266710Y0257119D02*
X0282496Y0257119D01*
X0282496Y0256120D02*
X0267708Y0256120D01*
X0268707Y0255122D02*
X0282496Y0255122D01*
X0282496Y0254123D02*
X0269705Y0254123D01*
X0270704Y0253125D02*
X0282496Y0253125D01*
X0282496Y0252126D02*
X0271702Y0252126D01*
X0272701Y0251128D02*
X0282496Y0251128D01*
X0282496Y0250129D02*
X0273699Y0250129D01*
X0274698Y0249131D02*
X0282496Y0249131D01*
X0282496Y0248132D02*
X0275696Y0248132D01*
X0276695Y0247134D02*
X0282496Y0247134D01*
X0282496Y0246135D02*
X0277500Y0246135D01*
X0277500Y0245137D02*
X0282496Y0245137D01*
X0282496Y0244138D02*
X0277500Y0244138D01*
X0277500Y0243140D02*
X0282496Y0243140D01*
X0282496Y0242141D02*
X0279130Y0242141D01*
X0277870Y0242141D02*
X0277500Y0242141D01*
X0278500Y0239500D02*
X0278500Y0158500D01*
X0259500Y0139500D01*
X0261903Y0138296D02*
X0282496Y0138296D01*
X0282496Y0137298D02*
X0261089Y0137298D01*
X0262181Y0139295D02*
X0282496Y0139295D01*
X0282496Y0140293D02*
X0263121Y0140293D01*
X0264120Y0141292D02*
X0282496Y0141292D01*
X0282496Y0142290D02*
X0265119Y0142290D01*
X0266117Y0143289D02*
X0282496Y0143289D01*
X0282496Y0144287D02*
X0267116Y0144287D01*
X0268114Y0145286D02*
X0282496Y0145286D01*
X0282496Y0146284D02*
X0269113Y0146284D01*
X0270111Y0147283D02*
X0282496Y0147283D01*
X0282496Y0148281D02*
X0271110Y0148281D01*
X0272108Y0149280D02*
X0282496Y0149280D01*
X0282496Y0150278D02*
X0273107Y0150278D01*
X0274105Y0151277D02*
X0282496Y0151277D01*
X0282496Y0152275D02*
X0275104Y0152275D01*
X0276102Y0153274D02*
X0282496Y0153274D01*
X0282496Y0154272D02*
X0277101Y0154272D01*
X0278099Y0155271D02*
X0282496Y0155271D01*
X0282496Y0156269D02*
X0279098Y0156269D01*
X0280096Y0157268D02*
X0282496Y0157268D01*
X0282496Y0158266D02*
X0280500Y0158266D01*
X0280500Y0159265D02*
X0282496Y0159265D01*
X0282496Y0160263D02*
X0280500Y0160263D01*
X0280500Y0161262D02*
X0282496Y0161262D01*
X0282496Y0162260D02*
X0280500Y0162260D01*
X0280500Y0163259D02*
X0282496Y0163259D01*
X0282496Y0164257D02*
X0280500Y0164257D01*
X0280500Y0165256D02*
X0282496Y0165256D01*
X0282496Y0166254D02*
X0280500Y0166254D01*
X0280500Y0167253D02*
X0282496Y0167253D01*
X0282496Y0168251D02*
X0280500Y0168251D01*
X0280500Y0169250D02*
X0282496Y0169250D01*
X0282496Y0170248D02*
X0280500Y0170248D01*
X0280500Y0171247D02*
X0282496Y0171247D01*
X0282496Y0172245D02*
X0280500Y0172245D01*
X0280500Y0173244D02*
X0282496Y0173244D01*
X0282496Y0174242D02*
X0280500Y0174242D01*
X0280500Y0175241D02*
X0282496Y0175241D01*
X0282496Y0176239D02*
X0280500Y0176239D01*
X0280500Y0177238D02*
X0282496Y0177238D01*
X0282496Y0178237D02*
X0280500Y0178237D01*
X0280500Y0179235D02*
X0282496Y0179235D01*
X0282496Y0180234D02*
X0280500Y0180234D01*
X0280500Y0181232D02*
X0282496Y0181232D01*
X0282496Y0182231D02*
X0280500Y0182231D01*
X0280500Y0183229D02*
X0282496Y0183229D01*
X0282496Y0184228D02*
X0280500Y0184228D01*
X0280500Y0185226D02*
X0282496Y0185226D01*
X0282496Y0186225D02*
X0280500Y0186225D01*
X0280500Y0187223D02*
X0282496Y0187223D01*
X0282496Y0188222D02*
X0280500Y0188222D01*
X0280500Y0189220D02*
X0282496Y0189220D01*
X0282496Y0190219D02*
X0280500Y0190219D01*
X0280500Y0191217D02*
X0282496Y0191217D01*
X0282496Y0192216D02*
X0280500Y0192216D01*
X0280500Y0193214D02*
X0282496Y0193214D01*
X0282496Y0194213D02*
X0280500Y0194213D01*
X0280500Y0195211D02*
X0282496Y0195211D01*
X0282496Y0196210D02*
X0280500Y0196210D01*
X0280500Y0197208D02*
X0282496Y0197208D01*
X0282496Y0198207D02*
X0280500Y0198207D01*
X0280500Y0199205D02*
X0282496Y0199205D01*
X0282496Y0200204D02*
X0280500Y0200204D01*
X0280500Y0201202D02*
X0282496Y0201202D01*
X0282496Y0202201D02*
X0280500Y0202201D01*
X0280500Y0203199D02*
X0282496Y0203199D01*
X0282496Y0204198D02*
X0280500Y0204198D01*
X0280500Y0205196D02*
X0282496Y0205196D01*
X0282496Y0206195D02*
X0280500Y0206195D01*
X0280500Y0207193D02*
X0282496Y0207193D01*
X0282496Y0208192D02*
X0280500Y0208192D01*
X0280500Y0209190D02*
X0282496Y0209190D01*
X0282496Y0210189D02*
X0280500Y0210189D01*
X0280500Y0211187D02*
X0282496Y0211187D01*
X0282496Y0212186D02*
X0280500Y0212186D01*
X0280500Y0213184D02*
X0282496Y0213184D01*
X0282496Y0214183D02*
X0280500Y0214183D01*
X0280500Y0215181D02*
X0282496Y0215181D01*
X0282496Y0216180D02*
X0280500Y0216180D01*
X0280500Y0217178D02*
X0282496Y0217178D01*
X0282496Y0218177D02*
X0280500Y0218177D01*
X0280500Y0219175D02*
X0282496Y0219175D01*
X0282496Y0220174D02*
X0280500Y0220174D01*
X0280500Y0221172D02*
X0282496Y0221172D01*
X0282496Y0222171D02*
X0280500Y0222171D01*
X0280500Y0223170D02*
X0282496Y0223170D01*
X0282496Y0224168D02*
X0280500Y0224168D01*
X0280500Y0225167D02*
X0282496Y0225167D01*
X0282496Y0226165D02*
X0280500Y0226165D01*
X0280500Y0227164D02*
X0282496Y0227164D01*
X0282496Y0228162D02*
X0280500Y0228162D01*
X0280500Y0229161D02*
X0282496Y0229161D01*
X0282496Y0230159D02*
X0280500Y0230159D01*
X0280500Y0231158D02*
X0282496Y0231158D01*
X0282496Y0232156D02*
X0280500Y0232156D01*
X0280500Y0233155D02*
X0282496Y0233155D01*
X0282496Y0234153D02*
X0280500Y0234153D01*
X0280500Y0235152D02*
X0282496Y0235152D01*
X0282496Y0236150D02*
X0280500Y0236150D01*
X0280500Y0237149D02*
X0282496Y0237149D01*
X0282496Y0238147D02*
X0280842Y0238147D01*
X0281181Y0239146D02*
X0282496Y0239146D01*
X0282496Y0240144D02*
X0281135Y0240144D01*
X0280649Y0241143D02*
X0282496Y0241143D01*
X0275500Y0245500D02*
X0275500Y0159500D01*
X0256500Y0140500D01*
X0256500Y0116500D01*
X0254500Y0121408D02*
X0253498Y0120993D01*
X0252007Y0119502D01*
X0251500Y0118278D01*
X0250993Y0119502D01*
X0249502Y0120993D01*
X0247554Y0121800D01*
X0245446Y0121800D01*
X0243498Y0120993D01*
X0242007Y0119502D01*
X0241500Y0118278D01*
X0240993Y0119502D01*
X0239502Y0120993D01*
X0237554Y0121800D01*
X0235446Y0121800D01*
X0233498Y0120993D01*
X0232007Y0119502D01*
X0231500Y0118278D01*
X0230993Y0119502D01*
X0229502Y0120993D01*
X0227554Y0121800D01*
X0225446Y0121800D01*
X0223498Y0120993D01*
X0222007Y0119502D01*
X0221500Y0118278D01*
X0220993Y0119502D01*
X0219502Y0120993D01*
X0217554Y0121800D01*
X0215446Y0121800D01*
X0213498Y0120993D01*
X0212007Y0119502D01*
X0211500Y0118278D01*
X0210993Y0119502D01*
X0209502Y0120993D01*
X0207554Y0121800D01*
X0205446Y0121800D01*
X0204444Y0121385D01*
X0173328Y0152500D01*
X0133328Y0152500D01*
X0133500Y0152672D01*
X0153167Y0172338D01*
X0153498Y0172007D01*
X0155446Y0171200D01*
X0157554Y0171200D01*
X0159502Y0172007D01*
X0160993Y0173498D01*
X0161500Y0174722D01*
X0162007Y0173498D01*
X0163498Y0172007D01*
X0165446Y0171200D01*
X0167554Y0171200D01*
X0169502Y0172007D01*
X0170993Y0173498D01*
X0171500Y0174722D01*
X0172007Y0173498D01*
X0173498Y0172007D01*
X0175446Y0171200D01*
X0177554Y0171200D01*
X0179502Y0172007D01*
X0180993Y0173498D01*
X0181500Y0174722D01*
X0182007Y0173498D01*
X0183498Y0172007D01*
X0185446Y0171200D01*
X0187554Y0171200D01*
X0189502Y0172007D01*
X0190993Y0173498D01*
X0191500Y0174722D01*
X0192007Y0173498D01*
X0193498Y0172007D01*
X0195446Y0171200D01*
X0197554Y0171200D01*
X0199502Y0172007D01*
X0200993Y0173498D01*
X0201500Y0174722D01*
X0202007Y0173498D01*
X0203498Y0172007D01*
X0205446Y0171200D01*
X0207554Y0171200D01*
X0209502Y0172007D01*
X0210993Y0173498D01*
X0211500Y0174722D01*
X0212007Y0173498D01*
X0213498Y0172007D01*
X0215446Y0171200D01*
X0217554Y0171200D01*
X0219502Y0172007D01*
X0220993Y0173498D01*
X0221500Y0174722D01*
X0222007Y0173498D01*
X0223498Y0172007D01*
X0225446Y0171200D01*
X0227554Y0171200D01*
X0229502Y0172007D01*
X0230993Y0173498D01*
X0231500Y0174722D01*
X0232007Y0173498D01*
X0233498Y0172007D01*
X0235446Y0171200D01*
X0237554Y0171200D01*
X0239502Y0172007D01*
X0240993Y0173498D01*
X0241500Y0174722D01*
X0242007Y0173498D01*
X0243498Y0172007D01*
X0245446Y0171200D01*
X0247554Y0171200D01*
X0249502Y0172007D01*
X0250993Y0173498D01*
X0251500Y0174722D01*
X0252007Y0173498D01*
X0253498Y0172007D01*
X0255446Y0171200D01*
X0257554Y0171200D01*
X0259502Y0172007D01*
X0260993Y0173498D01*
X0261500Y0174722D01*
X0262007Y0173498D01*
X0263498Y0172007D01*
X0265446Y0171200D01*
X0267554Y0171200D01*
X0269502Y0172007D01*
X0270993Y0173498D01*
X0271800Y0175446D01*
X0271800Y0177554D01*
X0270993Y0179502D01*
X0269992Y0180503D01*
X0270362Y0180350D01*
X0271116Y0180200D01*
X0271200Y0180200D01*
X0271200Y0186200D01*
X0271800Y0186200D01*
X0271800Y0180200D01*
X0271884Y0180200D01*
X0272638Y0180350D01*
X0273347Y0180644D01*
X0273500Y0180746D01*
X0273500Y0160328D01*
X0255672Y0142500D01*
X0254500Y0141328D01*
X0254500Y0121408D01*
X0254290Y0121321D02*
X0248710Y0121321D01*
X0250172Y0120323D02*
X0252828Y0120323D01*
X0251933Y0119324D02*
X0251067Y0119324D01*
X0251480Y0118326D02*
X0251520Y0118326D01*
X0254500Y0122320D02*
X0203509Y0122320D01*
X0202510Y0123318D02*
X0254500Y0123318D01*
X0254500Y0124317D02*
X0201512Y0124317D01*
X0200513Y0125315D02*
X0254500Y0125315D01*
X0254500Y0126314D02*
X0199514Y0126314D01*
X0198516Y0127312D02*
X0254500Y0127312D01*
X0254500Y0128311D02*
X0197517Y0128311D01*
X0196519Y0129309D02*
X0254500Y0129309D01*
X0254500Y0130308D02*
X0195520Y0130308D01*
X0194522Y0131306D02*
X0254500Y0131306D01*
X0254500Y0132305D02*
X0193523Y0132305D01*
X0192525Y0133303D02*
X0254500Y0133303D01*
X0254500Y0134302D02*
X0191526Y0134302D01*
X0190528Y0135301D02*
X0254500Y0135301D01*
X0254500Y0136299D02*
X0189529Y0136299D01*
X0188531Y0137298D02*
X0254500Y0137298D01*
X0254500Y0138296D02*
X0187532Y0138296D01*
X0186534Y0139295D02*
X0254500Y0139295D01*
X0254500Y0140293D02*
X0185535Y0140293D01*
X0184537Y0141292D02*
X0254500Y0141292D01*
X0255462Y0142290D02*
X0183538Y0142290D01*
X0182540Y0143289D02*
X0256460Y0143289D01*
X0257459Y0144287D02*
X0181541Y0144287D01*
X0180543Y0145286D02*
X0258457Y0145286D01*
X0259456Y0146284D02*
X0179544Y0146284D01*
X0178546Y0147283D02*
X0260454Y0147283D01*
X0261453Y0148281D02*
X0177547Y0148281D01*
X0176549Y0149280D02*
X0262451Y0149280D01*
X0263450Y0150278D02*
X0175550Y0150278D01*
X0174552Y0151277D02*
X0264448Y0151277D01*
X0265447Y0152275D02*
X0173553Y0152275D01*
X0172500Y0150500D02*
X0206500Y0116500D01*
X0211480Y0118326D02*
X0211520Y0118326D01*
X0211933Y0119324D02*
X0211067Y0119324D01*
X0210172Y0120323D02*
X0212828Y0120323D01*
X0214290Y0121321D02*
X0208710Y0121321D01*
X0218710Y0121321D02*
X0224290Y0121321D01*
X0222828Y0120323D02*
X0220172Y0120323D01*
X0221067Y0119324D02*
X0221933Y0119324D01*
X0221520Y0118326D02*
X0221480Y0118326D01*
X0228710Y0121321D02*
X0234290Y0121321D01*
X0232828Y0120323D02*
X0230172Y0120323D01*
X0231067Y0119324D02*
X0231933Y0119324D01*
X0231520Y0118326D02*
X0231480Y0118326D01*
X0238710Y0121321D02*
X0244290Y0121321D01*
X0242828Y0120323D02*
X0240172Y0120323D01*
X0241067Y0119324D02*
X0241933Y0119324D01*
X0241520Y0118326D02*
X0241480Y0118326D01*
X0244031Y0104347D02*
X0166482Y0104347D01*
X0165483Y0105345D02*
X0271517Y0105345D01*
X0272515Y0106344D02*
X0136172Y0106344D01*
X0137171Y0107342D02*
X0273514Y0107342D01*
X0274512Y0108341D02*
X0138169Y0108341D01*
X0137500Y0110500D02*
X0260500Y0110500D01*
X0266500Y0116500D01*
X0271339Y0114332D02*
X0282496Y0114332D01*
X0282496Y0115330D02*
X0271752Y0115330D01*
X0271800Y0116329D02*
X0282496Y0116329D01*
X0282496Y0117327D02*
X0271800Y0117327D01*
X0271480Y0118326D02*
X0282496Y0118326D01*
X0282496Y0119324D02*
X0271067Y0119324D01*
X0270172Y0120323D02*
X0282496Y0120323D01*
X0282496Y0121321D02*
X0268710Y0121321D01*
X0264290Y0121321D02*
X0258710Y0121321D01*
X0258500Y0122320D02*
X0282496Y0122320D01*
X0282496Y0123318D02*
X0258500Y0123318D01*
X0258500Y0124317D02*
X0282496Y0124317D01*
X0282496Y0125315D02*
X0258500Y0125315D01*
X0258500Y0126314D02*
X0282496Y0126314D01*
X0282496Y0127312D02*
X0258500Y0127312D01*
X0258500Y0128311D02*
X0282496Y0128311D01*
X0282496Y0129309D02*
X0258500Y0129309D01*
X0258500Y0130308D02*
X0282496Y0130308D01*
X0282496Y0131306D02*
X0258500Y0131306D01*
X0258500Y0132305D02*
X0282496Y0132305D01*
X0282496Y0133303D02*
X0258500Y0133303D01*
X0258500Y0134302D02*
X0282496Y0134302D01*
X0282496Y0135301D02*
X0258500Y0135301D01*
X0258500Y0136299D02*
X0282496Y0136299D01*
X0266445Y0153274D02*
X0134102Y0153274D01*
X0135101Y0154272D02*
X0267444Y0154272D01*
X0268442Y0155271D02*
X0136099Y0155271D01*
X0137098Y0156269D02*
X0269441Y0156269D01*
X0270439Y0157268D02*
X0138096Y0157268D01*
X0139095Y0158266D02*
X0271438Y0158266D01*
X0272436Y0159265D02*
X0140093Y0159265D01*
X0141092Y0160263D02*
X0273435Y0160263D01*
X0273500Y0161262D02*
X0142090Y0161262D01*
X0143089Y0162260D02*
X0273500Y0162260D01*
X0273500Y0163259D02*
X0144087Y0163259D01*
X0145086Y0164257D02*
X0273500Y0164257D01*
X0273500Y0165256D02*
X0146084Y0165256D01*
X0147083Y0166254D02*
X0273500Y0166254D01*
X0273500Y0167253D02*
X0148081Y0167253D01*
X0149080Y0168251D02*
X0273500Y0168251D01*
X0273500Y0169250D02*
X0150078Y0169250D01*
X0151077Y0170248D02*
X0273500Y0170248D01*
X0273500Y0171247D02*
X0267668Y0171247D01*
X0269741Y0172245D02*
X0273500Y0172245D01*
X0273500Y0173244D02*
X0270739Y0173244D01*
X0271302Y0174242D02*
X0273500Y0174242D01*
X0273500Y0175241D02*
X0271715Y0175241D01*
X0271800Y0176239D02*
X0273500Y0176239D01*
X0273500Y0177238D02*
X0271800Y0177238D01*
X0271517Y0178237D02*
X0273500Y0178237D01*
X0273500Y0179235D02*
X0271104Y0179235D01*
X0271200Y0180234D02*
X0271800Y0180234D01*
X0272053Y0180234D02*
X0273500Y0180234D01*
X0271800Y0181232D02*
X0271200Y0181232D01*
X0271200Y0182231D02*
X0271800Y0182231D01*
X0271800Y0183229D02*
X0271200Y0183229D01*
X0271200Y0184228D02*
X0271800Y0184228D01*
X0271800Y0185226D02*
X0271200Y0185226D01*
X0271200Y0186800D02*
X0271200Y0192800D01*
X0271116Y0192800D01*
X0270362Y0192650D01*
X0269653Y0192356D01*
X0269014Y0191929D01*
X0268500Y0191415D01*
X0268500Y0211585D01*
X0269291Y0210794D01*
X0270724Y0210200D01*
X0272276Y0210200D01*
X0273500Y0210707D01*
X0273500Y0192254D01*
X0273347Y0192356D01*
X0272638Y0192650D01*
X0271884Y0192800D01*
X0271800Y0192800D01*
X0271800Y0186800D01*
X0271200Y0186800D01*
X0271200Y0187223D02*
X0271800Y0187223D01*
X0271800Y0188222D02*
X0271200Y0188222D01*
X0271200Y0189220D02*
X0271800Y0189220D01*
X0271800Y0190219D02*
X0271200Y0190219D01*
X0271200Y0191217D02*
X0271800Y0191217D01*
X0271800Y0192216D02*
X0271200Y0192216D01*
X0269442Y0192216D02*
X0268500Y0192216D01*
X0268500Y0193214D02*
X0273500Y0193214D01*
X0273500Y0194213D02*
X0268500Y0194213D01*
X0268500Y0195211D02*
X0273500Y0195211D01*
X0273500Y0196210D02*
X0268500Y0196210D01*
X0268500Y0197208D02*
X0273500Y0197208D01*
X0273500Y0198207D02*
X0268500Y0198207D01*
X0268500Y0199205D02*
X0273500Y0199205D01*
X0273500Y0200204D02*
X0268500Y0200204D01*
X0268500Y0201202D02*
X0273500Y0201202D01*
X0273500Y0202201D02*
X0268500Y0202201D01*
X0268500Y0203199D02*
X0273500Y0203199D01*
X0273500Y0204198D02*
X0268500Y0204198D01*
X0268500Y0205196D02*
X0273500Y0205196D01*
X0273500Y0206195D02*
X0268500Y0206195D01*
X0268500Y0207193D02*
X0273500Y0207193D01*
X0273500Y0208192D02*
X0268500Y0208192D01*
X0268500Y0209190D02*
X0273500Y0209190D01*
X0273500Y0210189D02*
X0268500Y0210189D01*
X0268500Y0211187D02*
X0268897Y0211187D01*
X0264500Y0211187D02*
X0264103Y0211187D01*
X0263986Y0211071D02*
X0264500Y0211585D01*
X0264500Y0202988D01*
X0264033Y0203181D01*
X0262967Y0203181D01*
X0261981Y0202773D01*
X0261708Y0202500D01*
X0198672Y0202500D01*
X0197500Y0201328D01*
X0196672Y0200500D01*
X0180292Y0200500D01*
X0180019Y0200773D01*
X0179724Y0200895D01*
X0202328Y0223500D01*
X0203500Y0224672D01*
X0203500Y0229253D01*
X0204921Y0229842D01*
X0206224Y0231145D01*
X0207528Y0229842D01*
X0209237Y0229134D01*
X0211086Y0229134D01*
X0212795Y0229842D01*
X0214098Y0231145D01*
X0215402Y0229842D01*
X0217111Y0229134D01*
X0218960Y0229134D01*
X0220669Y0229842D01*
X0221977Y0231150D01*
X0222685Y0232859D01*
X0222685Y0234708D01*
X0221977Y0236417D01*
X0220669Y0237725D01*
X0218960Y0238433D01*
X0217111Y0238433D01*
X0216605Y0238224D01*
X0214328Y0240500D01*
X0251672Y0240500D01*
X0256919Y0235253D01*
X0256693Y0234708D01*
X0256693Y0232859D01*
X0257401Y0231150D01*
X0258709Y0229842D01*
X0260418Y0229134D01*
X0262267Y0229134D01*
X0263976Y0229842D01*
X0264500Y0230365D01*
X0264500Y0221415D01*
X0263986Y0221929D01*
X0263347Y0222356D01*
X0262638Y0222650D01*
X0261884Y0222800D01*
X0261800Y0222800D01*
X0261800Y0216800D01*
X0261200Y0216800D01*
X0261200Y0222800D01*
X0261116Y0222800D01*
X0260362Y0222650D01*
X0259653Y0222356D01*
X0259014Y0221929D01*
X0258471Y0221386D01*
X0258044Y0220747D01*
X0257750Y0220038D01*
X0257600Y0219284D01*
X0257600Y0216800D01*
X0261200Y0216800D01*
X0261200Y0216200D01*
X0261800Y0216200D01*
X0261800Y0210200D01*
X0261884Y0210200D01*
X0262638Y0210350D01*
X0263347Y0210644D01*
X0263986Y0211071D01*
X0264500Y0210189D02*
X0203327Y0210189D01*
X0203115Y0210400D02*
X0201800Y0210400D01*
X0201800Y0206800D01*
X0201200Y0206800D01*
X0201200Y0210400D01*
X0199885Y0210400D01*
X0197600Y0208115D01*
X0197600Y0206800D01*
X0201200Y0206800D01*
X0201200Y0206200D01*
X0197600Y0206200D01*
X0197600Y0204885D01*
X0199885Y0202600D01*
X0201200Y0202600D01*
X0201200Y0206200D01*
X0201800Y0206200D01*
X0201800Y0206800D01*
X0205400Y0206800D01*
X0205400Y0208115D01*
X0203115Y0210400D01*
X0201800Y0210189D02*
X0201200Y0210189D01*
X0201200Y0209190D02*
X0201800Y0209190D01*
X0201800Y0208192D02*
X0201200Y0208192D01*
X0201200Y0207193D02*
X0201800Y0207193D01*
X0201500Y0206500D02*
X0211500Y0206500D01*
X0221500Y0216500D01*
X0223500Y0216500D01*
X0230500Y0223500D01*
X0234500Y0223500D01*
X0241500Y0216500D01*
X0241800Y0216800D02*
X0245400Y0216800D01*
X0245400Y0219284D01*
X0245250Y0220038D01*
X0244956Y0220747D01*
X0244529Y0221386D01*
X0243986Y0221929D01*
X0243347Y0222356D01*
X0242638Y0222650D01*
X0241884Y0222800D01*
X0241800Y0222800D01*
X0241800Y0216800D01*
X0241800Y0216200D01*
X0245400Y0216200D01*
X0245400Y0213716D01*
X0245250Y0212962D01*
X0244956Y0212253D01*
X0244529Y0211614D01*
X0243986Y0211071D01*
X0243347Y0210644D01*
X0242638Y0210350D01*
X0241884Y0210200D01*
X0241800Y0210200D01*
X0241800Y0216200D01*
X0241200Y0216200D01*
X0241200Y0210200D01*
X0241116Y0210200D01*
X0240362Y0210350D01*
X0239653Y0210644D01*
X0239014Y0211071D01*
X0238471Y0211614D01*
X0238044Y0212253D01*
X0237750Y0212962D01*
X0237600Y0213716D01*
X0237600Y0216200D01*
X0241200Y0216200D01*
X0241200Y0216800D01*
X0241200Y0222800D01*
X0241116Y0222800D01*
X0240362Y0222650D01*
X0239653Y0222356D01*
X0239014Y0221929D01*
X0238471Y0221386D01*
X0238044Y0220747D01*
X0237750Y0220038D01*
X0237600Y0219284D01*
X0237600Y0216800D01*
X0241200Y0216800D01*
X0241800Y0216800D01*
X0241800Y0217178D02*
X0241200Y0217178D01*
X0241200Y0216180D02*
X0241800Y0216180D01*
X0241800Y0215181D02*
X0241200Y0215181D01*
X0241200Y0214183D02*
X0241800Y0214183D01*
X0241800Y0213184D02*
X0241200Y0213184D01*
X0241200Y0212186D02*
X0241800Y0212186D01*
X0241800Y0211187D02*
X0241200Y0211187D01*
X0238897Y0211187D02*
X0234103Y0211187D01*
X0233709Y0210794D02*
X0234806Y0211891D01*
X0235400Y0213324D01*
X0235400Y0219676D01*
X0234806Y0221109D01*
X0233709Y0222206D01*
X0232276Y0222800D01*
X0230724Y0222800D01*
X0229291Y0222206D01*
X0228194Y0221109D01*
X0227600Y0219676D01*
X0227600Y0213324D01*
X0228194Y0211891D01*
X0229291Y0210794D01*
X0230724Y0210200D01*
X0232276Y0210200D01*
X0233709Y0210794D01*
X0234928Y0212186D02*
X0238088Y0212186D01*
X0237706Y0213184D02*
X0235342Y0213184D01*
X0235400Y0214183D02*
X0237600Y0214183D01*
X0237600Y0215181D02*
X0235400Y0215181D01*
X0235400Y0216180D02*
X0237600Y0216180D01*
X0237600Y0217178D02*
X0235400Y0217178D01*
X0235400Y0218177D02*
X0237600Y0218177D01*
X0237600Y0219175D02*
X0235400Y0219175D01*
X0235194Y0220174D02*
X0237806Y0220174D01*
X0238328Y0221172D02*
X0234743Y0221172D01*
X0233744Y0222171D02*
X0239376Y0222171D01*
X0241200Y0222171D02*
X0241800Y0222171D01*
X0241800Y0221172D02*
X0241200Y0221172D01*
X0241200Y0220174D02*
X0241800Y0220174D01*
X0241800Y0219175D02*
X0241200Y0219175D01*
X0241200Y0218177D02*
X0241800Y0218177D01*
X0245400Y0218177D02*
X0247600Y0218177D01*
X0247600Y0219175D02*
X0245400Y0219175D01*
X0245194Y0220174D02*
X0247806Y0220174D01*
X0247600Y0219676D02*
X0248194Y0221109D01*
X0249291Y0222206D01*
X0250724Y0222800D01*
X0252276Y0222800D01*
X0253709Y0222206D01*
X0254806Y0221109D01*
X0255400Y0219676D01*
X0255400Y0213324D01*
X0254806Y0211891D01*
X0253709Y0210794D01*
X0252276Y0210200D01*
X0250724Y0210200D01*
X0249291Y0210794D01*
X0248194Y0211891D01*
X0247600Y0213324D01*
X0247600Y0219676D01*
X0248257Y0221172D02*
X0244672Y0221172D01*
X0243624Y0222171D02*
X0249256Y0222171D01*
X0253744Y0222171D02*
X0259376Y0222171D01*
X0258328Y0221172D02*
X0254743Y0221172D01*
X0255194Y0220174D02*
X0257806Y0220174D01*
X0257600Y0219175D02*
X0255400Y0219175D01*
X0255400Y0218177D02*
X0257600Y0218177D01*
X0257600Y0217178D02*
X0255400Y0217178D01*
X0255400Y0216180D02*
X0257600Y0216180D01*
X0257600Y0216200D02*
X0257600Y0213716D01*
X0257750Y0212962D01*
X0258044Y0212253D01*
X0258471Y0211614D01*
X0259014Y0211071D01*
X0259653Y0210644D01*
X0260362Y0210350D01*
X0261116Y0210200D01*
X0261200Y0210200D01*
X0261200Y0216200D01*
X0257600Y0216200D01*
X0257600Y0215181D02*
X0255400Y0215181D01*
X0255400Y0214183D02*
X0257600Y0214183D01*
X0257706Y0213184D02*
X0255342Y0213184D01*
X0254928Y0212186D02*
X0258088Y0212186D01*
X0258897Y0211187D02*
X0254103Y0211187D01*
X0248897Y0211187D02*
X0244103Y0211187D01*
X0244912Y0212186D02*
X0248072Y0212186D01*
X0247658Y0213184D02*
X0245294Y0213184D01*
X0245400Y0214183D02*
X0247600Y0214183D01*
X0247600Y0215181D02*
X0245400Y0215181D01*
X0245400Y0216180D02*
X0247600Y0216180D01*
X0247600Y0217178D02*
X0245400Y0217178D01*
X0242746Y0229248D02*
X0242023Y0229134D01*
X0241846Y0229134D01*
X0241846Y0233594D01*
X0241468Y0233594D01*
X0241468Y0229134D01*
X0241292Y0229134D01*
X0240569Y0229248D01*
X0239873Y0229475D01*
X0239221Y0229807D01*
X0238628Y0230237D01*
X0238111Y0230754D01*
X0237761Y0231236D01*
X0237725Y0231150D01*
X0236417Y0229842D01*
X0234708Y0229134D01*
X0232859Y0229134D01*
X0231150Y0229842D01*
X0229842Y0231150D01*
X0229697Y0231500D01*
X0229328Y0231500D01*
X0220507Y0222679D01*
X0221116Y0222800D01*
X0221200Y0222800D01*
X0221200Y0216800D01*
X0221800Y0216800D01*
X0221800Y0222800D01*
X0221884Y0222800D01*
X0222638Y0222650D01*
X0223347Y0222356D01*
X0223986Y0221929D01*
X0224529Y0221386D01*
X0224956Y0220747D01*
X0225250Y0220038D01*
X0225400Y0219284D01*
X0225400Y0216800D01*
X0221800Y0216800D01*
X0221800Y0216200D01*
X0225400Y0216200D01*
X0225400Y0213716D01*
X0225250Y0212962D01*
X0224956Y0212253D01*
X0224529Y0211614D01*
X0223986Y0211071D01*
X0223347Y0210644D01*
X0222638Y0210350D01*
X0221884Y0210200D01*
X0221800Y0210200D01*
X0221800Y0216200D01*
X0221200Y0216200D01*
X0221200Y0210200D01*
X0221116Y0210200D01*
X0220362Y0210350D01*
X0219653Y0210644D01*
X0219014Y0211071D01*
X0218471Y0211614D01*
X0218044Y0212253D01*
X0217750Y0212962D01*
X0217600Y0213716D01*
X0217600Y0216200D01*
X0221200Y0216200D01*
X0221200Y0216800D01*
X0217600Y0216800D01*
X0217600Y0219284D01*
X0217721Y0219893D01*
X0215400Y0217572D01*
X0215400Y0213324D01*
X0214806Y0211891D01*
X0213709Y0210794D01*
X0212276Y0210200D01*
X0210724Y0210200D01*
X0209291Y0210794D01*
X0208194Y0211891D01*
X0207600Y0213324D01*
X0207600Y0219676D01*
X0208194Y0221109D01*
X0209291Y0222206D01*
X0210724Y0222800D01*
X0212276Y0222800D01*
X0213709Y0222206D01*
X0214044Y0221872D01*
X0227672Y0235500D01*
X0229462Y0235500D01*
X0229842Y0236417D01*
X0231150Y0237725D01*
X0232859Y0238433D01*
X0234708Y0238433D01*
X0236417Y0237725D01*
X0237725Y0236417D01*
X0237761Y0236331D01*
X0238111Y0236812D01*
X0238628Y0237330D01*
X0239221Y0237760D01*
X0239873Y0238092D01*
X0240569Y0238319D01*
X0241292Y0238433D01*
X0241468Y0238433D01*
X0241468Y0233973D01*
X0241846Y0233973D01*
X0241846Y0238433D01*
X0242023Y0238433D01*
X0242746Y0238319D01*
X0243442Y0238092D01*
X0244094Y0237760D01*
X0244686Y0237330D01*
X0245204Y0236812D01*
X0245634Y0236220D01*
X0245966Y0235568D01*
X0246193Y0234872D01*
X0246307Y0234149D01*
X0246307Y0233972D01*
X0241847Y0233972D01*
X0241847Y0233594D01*
X0246307Y0233594D01*
X0246307Y0233418D01*
X0246193Y0232695D01*
X0245966Y0231999D01*
X0245634Y0231347D01*
X0245204Y0230754D01*
X0244686Y0230237D01*
X0244094Y0229807D01*
X0243442Y0229475D01*
X0242746Y0229248D01*
X0242192Y0229161D02*
X0260353Y0229161D01*
X0262332Y0229161D02*
X0264500Y0229161D01*
X0264500Y0230159D02*
X0264294Y0230159D01*
X0264500Y0228162D02*
X0225990Y0228162D01*
X0224992Y0227164D02*
X0264500Y0227164D01*
X0264500Y0226165D02*
X0223993Y0226165D01*
X0222995Y0225167D02*
X0264500Y0225167D01*
X0264500Y0224168D02*
X0221996Y0224168D01*
X0220998Y0223170D02*
X0264500Y0223170D01*
X0264500Y0222171D02*
X0263624Y0222171D01*
X0261800Y0222171D02*
X0261200Y0222171D01*
X0261200Y0221172D02*
X0261800Y0221172D01*
X0261800Y0220174D02*
X0261200Y0220174D01*
X0261200Y0219175D02*
X0261800Y0219175D01*
X0261800Y0218177D02*
X0261200Y0218177D01*
X0261200Y0217178D02*
X0261800Y0217178D01*
X0261800Y0216180D02*
X0261200Y0216180D01*
X0261200Y0215181D02*
X0261800Y0215181D01*
X0261800Y0214183D02*
X0261200Y0214183D01*
X0261200Y0213184D02*
X0261800Y0213184D01*
X0261800Y0212186D02*
X0261200Y0212186D01*
X0261200Y0211187D02*
X0261800Y0211187D01*
X0264500Y0209190D02*
X0204325Y0209190D01*
X0205324Y0208192D02*
X0264500Y0208192D01*
X0264500Y0207193D02*
X0205400Y0207193D01*
X0205400Y0206200D02*
X0201800Y0206200D01*
X0201800Y0202600D01*
X0203115Y0202600D01*
X0205400Y0204885D01*
X0205400Y0206200D01*
X0205400Y0206195D02*
X0264500Y0206195D01*
X0264500Y0205196D02*
X0205400Y0205196D01*
X0204713Y0204198D02*
X0264500Y0204198D01*
X0264500Y0203199D02*
X0203715Y0203199D01*
X0201800Y0203199D02*
X0201200Y0203199D01*
X0201200Y0204198D02*
X0201800Y0204198D01*
X0201800Y0205196D02*
X0201200Y0205196D01*
X0201200Y0206195D02*
X0201800Y0206195D01*
X0199285Y0203199D02*
X0182028Y0203199D01*
X0183026Y0204198D02*
X0198287Y0204198D01*
X0197600Y0205196D02*
X0184025Y0205196D01*
X0185023Y0206195D02*
X0197600Y0206195D01*
X0197600Y0207193D02*
X0186022Y0207193D01*
X0187020Y0208192D02*
X0197676Y0208192D01*
X0198675Y0209190D02*
X0188019Y0209190D01*
X0189017Y0210189D02*
X0199673Y0210189D01*
X0194010Y0215181D02*
X0207600Y0215181D01*
X0207600Y0214183D02*
X0193011Y0214183D01*
X0192013Y0213184D02*
X0207658Y0213184D01*
X0208072Y0212186D02*
X0191014Y0212186D01*
X0190016Y0211187D02*
X0208897Y0211187D01*
X0207600Y0216180D02*
X0195008Y0216180D01*
X0196007Y0217178D02*
X0207600Y0217178D01*
X0207600Y0218177D02*
X0197005Y0218177D01*
X0198004Y0219175D02*
X0207600Y0219175D01*
X0207806Y0220174D02*
X0199002Y0220174D01*
X0200001Y0221172D02*
X0208257Y0221172D01*
X0209256Y0222171D02*
X0200999Y0222171D01*
X0201998Y0223170D02*
X0215341Y0223170D01*
X0216340Y0224168D02*
X0202996Y0224168D01*
X0203500Y0225167D02*
X0217338Y0225167D01*
X0218337Y0226165D02*
X0203500Y0226165D01*
X0203500Y0227164D02*
X0219335Y0227164D01*
X0220334Y0228162D02*
X0203500Y0228162D01*
X0203500Y0229161D02*
X0209172Y0229161D01*
X0211151Y0229161D02*
X0217046Y0229161D01*
X0219025Y0229161D02*
X0221332Y0229161D01*
X0220987Y0230159D02*
X0222331Y0230159D01*
X0221980Y0231158D02*
X0223329Y0231158D01*
X0222394Y0232156D02*
X0224328Y0232156D01*
X0225326Y0233155D02*
X0222685Y0233155D01*
X0222685Y0234153D02*
X0226325Y0234153D01*
X0227323Y0235152D02*
X0222501Y0235152D01*
X0222088Y0236150D02*
X0229731Y0236150D01*
X0230573Y0237149D02*
X0221246Y0237149D01*
X0219650Y0238147D02*
X0232168Y0238147D01*
X0235398Y0238147D02*
X0240041Y0238147D01*
X0241468Y0238147D02*
X0241846Y0238147D01*
X0241846Y0237149D02*
X0241468Y0237149D01*
X0241468Y0236150D02*
X0241846Y0236150D01*
X0241846Y0235152D02*
X0241468Y0235152D01*
X0241468Y0234153D02*
X0241846Y0234153D01*
X0241846Y0233155D02*
X0241468Y0233155D01*
X0241468Y0232156D02*
X0241846Y0232156D01*
X0241846Y0231158D02*
X0241468Y0231158D01*
X0241468Y0230159D02*
X0241846Y0230159D01*
X0241846Y0229161D02*
X0241468Y0229161D01*
X0241123Y0229161D02*
X0234773Y0229161D01*
X0232794Y0229161D02*
X0226989Y0229161D01*
X0227988Y0230159D02*
X0230832Y0230159D01*
X0229838Y0231158D02*
X0228986Y0231158D01*
X0228500Y0233500D02*
X0211500Y0216500D01*
X0215400Y0216180D02*
X0217600Y0216180D01*
X0217600Y0217178D02*
X0215400Y0217178D01*
X0216005Y0218177D02*
X0217600Y0218177D01*
X0217600Y0219175D02*
X0217004Y0219175D01*
X0214343Y0222171D02*
X0213744Y0222171D01*
X0215400Y0215181D02*
X0217600Y0215181D01*
X0217600Y0214183D02*
X0215400Y0214183D01*
X0215342Y0213184D02*
X0217706Y0213184D01*
X0218088Y0212186D02*
X0214928Y0212186D01*
X0214103Y0211187D02*
X0218897Y0211187D01*
X0221200Y0211187D02*
X0221800Y0211187D01*
X0221800Y0212186D02*
X0221200Y0212186D01*
X0221200Y0213184D02*
X0221800Y0213184D01*
X0221800Y0214183D02*
X0221200Y0214183D01*
X0221200Y0215181D02*
X0221800Y0215181D01*
X0221800Y0216180D02*
X0221200Y0216180D01*
X0221200Y0217178D02*
X0221800Y0217178D01*
X0221800Y0218177D02*
X0221200Y0218177D01*
X0221200Y0219175D02*
X0221800Y0219175D01*
X0221800Y0220174D02*
X0221200Y0220174D01*
X0221200Y0221172D02*
X0221800Y0221172D01*
X0221800Y0222171D02*
X0221200Y0222171D01*
X0223624Y0222171D02*
X0229256Y0222171D01*
X0228257Y0221172D02*
X0224672Y0221172D01*
X0225194Y0220174D02*
X0227806Y0220174D01*
X0227600Y0219175D02*
X0225400Y0219175D01*
X0225400Y0218177D02*
X0227600Y0218177D01*
X0227600Y0217178D02*
X0225400Y0217178D01*
X0225400Y0216180D02*
X0227600Y0216180D01*
X0227600Y0215181D02*
X0225400Y0215181D01*
X0225400Y0214183D02*
X0227600Y0214183D01*
X0227658Y0213184D02*
X0225294Y0213184D01*
X0224912Y0212186D02*
X0228072Y0212186D01*
X0228897Y0211187D02*
X0224103Y0211187D01*
X0221672Y0197500D02*
X0220500Y0196328D01*
X0214945Y0190774D01*
X0214806Y0191109D01*
X0213709Y0192206D01*
X0212276Y0192800D01*
X0210724Y0192800D01*
X0209291Y0192206D01*
X0208194Y0191109D01*
X0207600Y0189676D01*
X0207600Y0183324D01*
X0208194Y0181891D01*
X0208801Y0181284D01*
X0207554Y0181800D01*
X0205446Y0181800D01*
X0203498Y0180993D01*
X0202007Y0179502D01*
X0201500Y0178278D01*
X0200993Y0179502D01*
X0199502Y0180993D01*
X0197554Y0181800D01*
X0195446Y0181800D01*
X0193498Y0180993D01*
X0192007Y0179502D01*
X0191500Y0178278D01*
X0190993Y0179502D01*
X0189502Y0180993D01*
X0187554Y0181800D01*
X0185446Y0181800D01*
X0184199Y0181284D01*
X0184806Y0181891D01*
X0185400Y0183324D01*
X0185400Y0189676D01*
X0184806Y0191109D01*
X0183709Y0192206D01*
X0182276Y0192800D01*
X0180724Y0192800D01*
X0179291Y0192206D01*
X0178194Y0191109D01*
X0177600Y0189676D01*
X0177600Y0183324D01*
X0178194Y0181891D01*
X0178801Y0181284D01*
X0177554Y0181800D01*
X0175446Y0181800D01*
X0174199Y0181284D01*
X0174806Y0181891D01*
X0175400Y0183324D01*
X0175400Y0189676D01*
X0174806Y0191109D01*
X0173709Y0192206D01*
X0173500Y0192293D01*
X0173500Y0194672D01*
X0176105Y0197276D01*
X0176227Y0196981D01*
X0176981Y0196227D01*
X0177967Y0195819D01*
X0179033Y0195819D01*
X0180019Y0196227D01*
X0180292Y0196500D01*
X0197600Y0196500D01*
X0197600Y0194885D01*
X0199885Y0192600D01*
X0203115Y0192600D01*
X0205400Y0194885D01*
X0205400Y0198115D01*
X0205015Y0198500D01*
X0261708Y0198500D01*
X0261981Y0198227D01*
X0262967Y0197819D01*
X0264033Y0197819D01*
X0264500Y0198012D01*
X0264500Y0191415D01*
X0263709Y0192206D01*
X0262276Y0192800D01*
X0260724Y0192800D01*
X0259291Y0192206D01*
X0258194Y0191109D01*
X0257600Y0189676D01*
X0257600Y0183324D01*
X0258194Y0181891D01*
X0258801Y0181284D01*
X0257554Y0181800D01*
X0255446Y0181800D01*
X0254199Y0181284D01*
X0254529Y0181614D01*
X0254956Y0182253D01*
X0255250Y0182962D01*
X0255400Y0183716D01*
X0255400Y0186200D01*
X0251800Y0186200D01*
X0251800Y0186800D01*
X0251200Y0186800D01*
X0251200Y0192800D01*
X0251116Y0192800D01*
X0250362Y0192650D01*
X0249653Y0192356D01*
X0249014Y0191929D01*
X0248471Y0191386D01*
X0248044Y0190747D01*
X0247750Y0190038D01*
X0247600Y0189284D01*
X0247600Y0186800D01*
X0251200Y0186800D01*
X0251200Y0186200D01*
X0251800Y0186200D01*
X0251800Y0180200D01*
X0251884Y0180200D01*
X0252638Y0180350D01*
X0253008Y0180503D01*
X0252007Y0179502D01*
X0251500Y0178278D01*
X0250993Y0179502D01*
X0249992Y0180503D01*
X0250362Y0180350D01*
X0251116Y0180200D01*
X0251200Y0180200D01*
X0251200Y0186200D01*
X0247600Y0186200D01*
X0247600Y0183716D01*
X0247750Y0182962D01*
X0248044Y0182253D01*
X0248471Y0181614D01*
X0248801Y0181284D01*
X0247554Y0181800D01*
X0245446Y0181800D01*
X0244199Y0181284D01*
X0244806Y0181891D01*
X0245400Y0183324D01*
X0245400Y0189676D01*
X0244806Y0191109D01*
X0243709Y0192206D01*
X0242276Y0192800D01*
X0240724Y0192800D01*
X0239291Y0192206D01*
X0238194Y0191109D01*
X0237600Y0189676D01*
X0237600Y0183324D01*
X0238194Y0181891D01*
X0238801Y0181284D01*
X0237554Y0181800D01*
X0235446Y0181800D01*
X0234199Y0181284D01*
X0234529Y0181614D01*
X0234956Y0182253D01*
X0235250Y0182962D01*
X0235400Y0183716D01*
X0235400Y0186200D01*
X0231800Y0186200D01*
X0231800Y0186800D01*
X0231200Y0186800D01*
X0231200Y0192800D01*
X0231116Y0192800D01*
X0230362Y0192650D01*
X0229653Y0192356D01*
X0229014Y0191929D01*
X0228471Y0191386D01*
X0228044Y0190747D01*
X0227750Y0190038D01*
X0227600Y0189284D01*
X0227600Y0186800D01*
X0231200Y0186800D01*
X0231200Y0186200D01*
X0231800Y0186200D01*
X0231800Y0180200D01*
X0231884Y0180200D01*
X0232638Y0180350D01*
X0233008Y0180503D01*
X0232007Y0179502D01*
X0231500Y0178278D01*
X0230993Y0179502D01*
X0229992Y0180503D01*
X0230362Y0180350D01*
X0231116Y0180200D01*
X0231200Y0180200D01*
X0231200Y0186200D01*
X0227600Y0186200D01*
X0227600Y0183716D01*
X0227750Y0182962D01*
X0228044Y0182253D01*
X0228471Y0181614D01*
X0228801Y0181284D01*
X0227554Y0181800D01*
X0225446Y0181800D01*
X0224199Y0181284D01*
X0224806Y0181891D01*
X0225400Y0183324D01*
X0225400Y0189676D01*
X0224806Y0191109D01*
X0223709Y0192206D01*
X0222525Y0192697D01*
X0223328Y0193500D01*
X0254708Y0193500D01*
X0254981Y0193227D01*
X0255967Y0192819D01*
X0257033Y0192819D01*
X0258019Y0193227D01*
X0258773Y0193981D01*
X0259181Y0194967D01*
X0259181Y0196033D01*
X0258773Y0197019D01*
X0258019Y0197773D01*
X0257033Y0198181D01*
X0255967Y0198181D01*
X0254981Y0197773D01*
X0254708Y0197500D01*
X0221672Y0197500D01*
X0221380Y0197208D02*
X0205400Y0197208D01*
X0205400Y0196210D02*
X0220381Y0196210D01*
X0219383Y0195211D02*
X0205400Y0195211D01*
X0204728Y0194213D02*
X0218384Y0194213D01*
X0217386Y0193214D02*
X0203730Y0193214D01*
X0208302Y0191217D02*
X0184698Y0191217D01*
X0185175Y0190219D02*
X0207825Y0190219D01*
X0207600Y0189220D02*
X0185400Y0189220D01*
X0185400Y0188222D02*
X0207600Y0188222D01*
X0207600Y0187223D02*
X0185400Y0187223D01*
X0185400Y0186225D02*
X0207600Y0186225D01*
X0207600Y0185226D02*
X0185400Y0185226D01*
X0185400Y0184228D02*
X0207600Y0184228D01*
X0207639Y0183229D02*
X0185361Y0183229D01*
X0184947Y0182231D02*
X0208053Y0182231D01*
X0204075Y0181232D02*
X0198925Y0181232D01*
X0200262Y0180234D02*
X0202738Y0180234D01*
X0201896Y0179235D02*
X0201104Y0179235D01*
X0201302Y0174242D02*
X0201698Y0174242D01*
X0202261Y0173244D02*
X0200739Y0173244D01*
X0199741Y0172245D02*
X0203259Y0172245D01*
X0205332Y0171247D02*
X0197668Y0171247D01*
X0195332Y0171247D02*
X0187668Y0171247D01*
X0189741Y0172245D02*
X0193259Y0172245D01*
X0192261Y0173244D02*
X0190739Y0173244D01*
X0191302Y0174242D02*
X0191698Y0174242D01*
X0191896Y0179235D02*
X0191104Y0179235D01*
X0190262Y0180234D02*
X0192738Y0180234D01*
X0194075Y0181232D02*
X0188925Y0181232D01*
X0181698Y0174242D02*
X0181302Y0174242D01*
X0180739Y0173244D02*
X0182261Y0173244D01*
X0183259Y0172245D02*
X0179741Y0172245D01*
X0177668Y0171247D02*
X0185332Y0171247D01*
X0175332Y0171247D02*
X0167668Y0171247D01*
X0169741Y0172245D02*
X0173259Y0172245D01*
X0172261Y0173244D02*
X0170739Y0173244D01*
X0171302Y0174242D02*
X0171698Y0174242D01*
X0165332Y0171247D02*
X0157668Y0171247D01*
X0159741Y0172245D02*
X0163259Y0172245D01*
X0162261Y0173244D02*
X0160739Y0173244D01*
X0161302Y0174242D02*
X0161698Y0174242D01*
X0156500Y0176500D02*
X0154500Y0176500D01*
X0131500Y0153500D01*
X0109500Y0153500D01*
X0100500Y0144500D01*
X0100500Y0114500D01*
X0111500Y0103500D01*
X0112500Y0103500D01*
X0117500Y0098500D01*
X0117500Y0092500D01*
X0120500Y0089500D01*
X0144500Y0089500D01*
X0151500Y0096500D01*
X0153500Y0096500D01*
X0160500Y0103500D01*
X0164500Y0103500D01*
X0171500Y0096500D01*
X0173500Y0096500D01*
X0193500Y0076500D01*
X0231500Y0076500D01*
X0231500Y0075500D01*
X0252500Y0096500D01*
X0256500Y0096500D01*
X0260400Y0096359D02*
X0262600Y0096359D01*
X0262600Y0095724D02*
X0263194Y0094291D01*
X0264291Y0093194D01*
X0265724Y0092600D01*
X0267276Y0092600D01*
X0268709Y0093194D01*
X0269806Y0094291D01*
X0270400Y0095724D01*
X0270400Y0098572D01*
X0272600Y0100772D01*
X0272600Y0095724D01*
X0273194Y0094291D01*
X0274291Y0093194D01*
X0275724Y0092600D01*
X0277276Y0092600D01*
X0278709Y0093194D01*
X0279806Y0094291D01*
X0280400Y0095724D01*
X0280400Y0102076D01*
X0279806Y0103509D01*
X0278709Y0104606D01*
X0277276Y0105200D01*
X0277028Y0105200D01*
X0277647Y0105819D01*
X0278033Y0105819D01*
X0279019Y0106227D01*
X0279773Y0106981D01*
X0280181Y0107967D01*
X0280181Y0109033D01*
X0279773Y0110019D01*
X0279019Y0110773D01*
X0278033Y0111181D01*
X0276967Y0111181D01*
X0275981Y0110773D01*
X0275227Y0110019D01*
X0274819Y0109033D01*
X0274819Y0108647D01*
X0269743Y0103572D01*
X0268709Y0104606D01*
X0267276Y0105200D01*
X0265724Y0105200D01*
X0264291Y0104606D01*
X0263194Y0103509D01*
X0262600Y0102076D01*
X0262600Y0095724D01*
X0262751Y0095360D02*
X0260249Y0095360D01*
X0259836Y0094362D02*
X0263164Y0094362D01*
X0264122Y0093363D02*
X0258878Y0093363D01*
X0260400Y0097357D02*
X0262600Y0097357D01*
X0262600Y0098356D02*
X0260400Y0098356D01*
X0260400Y0099354D02*
X0262600Y0099354D01*
X0262600Y0100353D02*
X0260400Y0100353D01*
X0260400Y0101351D02*
X0262600Y0101351D01*
X0262713Y0102350D02*
X0260287Y0102350D01*
X0259873Y0103348D02*
X0263127Y0103348D01*
X0264031Y0104347D02*
X0258969Y0104347D01*
X0254031Y0104347D02*
X0248969Y0104347D01*
X0249873Y0103348D02*
X0253127Y0103348D01*
X0252713Y0102350D02*
X0250287Y0102350D01*
X0250400Y0101351D02*
X0252600Y0101351D01*
X0252600Y0100353D02*
X0250400Y0100353D01*
X0250400Y0099354D02*
X0252600Y0099354D01*
X0251527Y0098356D02*
X0250400Y0098356D01*
X0250400Y0097357D02*
X0250529Y0097357D01*
X0252191Y0093363D02*
X0254122Y0093363D01*
X0251193Y0092365D02*
X0282496Y0092365D01*
X0282496Y0093363D02*
X0278878Y0093363D01*
X0279836Y0094362D02*
X0282496Y0094362D01*
X0282496Y0095360D02*
X0280249Y0095360D01*
X0280400Y0096359D02*
X0282496Y0096359D01*
X0282496Y0097357D02*
X0280400Y0097357D01*
X0280400Y0098356D02*
X0282496Y0098356D01*
X0282496Y0099354D02*
X0280400Y0099354D01*
X0280400Y0100353D02*
X0282496Y0100353D01*
X0282496Y0101351D02*
X0280400Y0101351D01*
X0280287Y0102350D02*
X0282496Y0102350D01*
X0282496Y0103348D02*
X0279873Y0103348D01*
X0278969Y0104347D02*
X0282496Y0104347D01*
X0282496Y0105345D02*
X0277174Y0105345D01*
X0279135Y0106344D02*
X0282496Y0106344D01*
X0282496Y0107342D02*
X0279922Y0107342D01*
X0280181Y0108341D02*
X0282496Y0108341D01*
X0282496Y0109339D02*
X0280054Y0109339D01*
X0279454Y0110338D02*
X0282496Y0110338D01*
X0282496Y0111336D02*
X0267883Y0111336D01*
X0269830Y0112335D02*
X0282496Y0112335D01*
X0282496Y0113333D02*
X0270829Y0113333D01*
X0274946Y0109339D02*
X0262168Y0109339D01*
X0263166Y0110338D02*
X0275546Y0110338D01*
X0277500Y0108500D02*
X0266500Y0097500D01*
X0266500Y0096500D01*
X0270400Y0096359D02*
X0272600Y0096359D01*
X0272600Y0097357D02*
X0270400Y0097357D01*
X0270400Y0098356D02*
X0272600Y0098356D01*
X0272600Y0099354D02*
X0271183Y0099354D01*
X0272181Y0100353D02*
X0272600Y0100353D01*
X0270518Y0104347D02*
X0268969Y0104347D01*
X0265117Y0111336D02*
X0264165Y0111336D01*
X0261520Y0118326D02*
X0261480Y0118326D01*
X0261067Y0119324D02*
X0261933Y0119324D01*
X0262828Y0120323D02*
X0260172Y0120323D01*
X0243127Y0103348D02*
X0167480Y0103348D01*
X0168479Y0102350D02*
X0169637Y0102350D01*
X0173363Y0102350D02*
X0179637Y0102350D01*
X0178436Y0101351D02*
X0174564Y0101351D01*
X0175120Y0100353D02*
X0177880Y0100353D01*
X0177600Y0099354D02*
X0175400Y0099354D01*
X0175400Y0098356D02*
X0177600Y0098356D01*
X0177600Y0097357D02*
X0175471Y0097357D01*
X0176470Y0096359D02*
X0177600Y0096359D01*
X0177600Y0095360D02*
X0177468Y0095360D01*
X0175806Y0091366D02*
X0174281Y0091366D01*
X0172680Y0090368D02*
X0176804Y0090368D01*
X0177803Y0089369D02*
X0147197Y0089369D01*
X0146199Y0088370D02*
X0178801Y0088370D01*
X0179800Y0087372D02*
X0115456Y0087372D01*
X0114458Y0088370D02*
X0118801Y0088370D01*
X0117803Y0089369D02*
X0113459Y0089369D01*
X0112680Y0090368D02*
X0116804Y0090368D01*
X0115806Y0091366D02*
X0114281Y0091366D01*
X0115002Y0092365D02*
X0115500Y0092365D01*
X0115500Y0093363D02*
X0115400Y0093363D01*
X0115400Y0094362D02*
X0115500Y0094362D01*
X0115500Y0095360D02*
X0115400Y0095360D01*
X0115400Y0096359D02*
X0115500Y0096359D01*
X0115500Y0097357D02*
X0115400Y0097357D01*
X0111500Y0096500D02*
X0111500Y0100500D01*
X0098500Y0113500D01*
X0098500Y0168500D01*
X0106500Y0176500D01*
X0111302Y0174242D02*
X0111698Y0174242D01*
X0111500Y0174722D02*
X0112007Y0173498D01*
X0113498Y0172007D01*
X0115446Y0171200D01*
X0117554Y0171200D01*
X0119502Y0172007D01*
X0120993Y0173498D01*
X0121500Y0174722D01*
X0122007Y0173498D01*
X0123498Y0172007D01*
X0125446Y0171200D01*
X0127554Y0171200D01*
X0129502Y0172007D01*
X0130993Y0173498D01*
X0131503Y0174728D01*
X0131588Y0174466D01*
X0131967Y0173722D01*
X0132457Y0173047D01*
X0133047Y0172457D01*
X0133722Y0171967D01*
X0134466Y0171588D01*
X0135259Y0171330D01*
X0136000Y0171213D01*
X0136000Y0176000D01*
X0137000Y0176000D01*
X0137000Y0171213D01*
X0137741Y0171330D01*
X0138534Y0171588D01*
X0139278Y0171967D01*
X0139953Y0172457D01*
X0140543Y0173047D01*
X0141033Y0173722D01*
X0141412Y0174466D01*
X0141497Y0174728D01*
X0142007Y0173498D01*
X0143498Y0172007D01*
X0145446Y0171200D01*
X0146372Y0171200D01*
X0130672Y0155500D01*
X0108672Y0155500D01*
X0107500Y0154328D01*
X0100500Y0147328D01*
X0100500Y0167672D01*
X0104444Y0171615D01*
X0105446Y0171200D01*
X0107554Y0171200D01*
X0109502Y0172007D01*
X0110993Y0173498D01*
X0111500Y0174722D01*
X0110739Y0173244D02*
X0112261Y0173244D01*
X0113259Y0172245D02*
X0109741Y0172245D01*
X0107668Y0171247D02*
X0115332Y0171247D01*
X0117668Y0171247D02*
X0125332Y0171247D01*
X0123259Y0172245D02*
X0119741Y0172245D01*
X0120739Y0173244D02*
X0122261Y0173244D01*
X0121698Y0174242D02*
X0121302Y0174242D01*
X0127668Y0171247D02*
X0135787Y0171247D01*
X0136000Y0171247D02*
X0137000Y0171247D01*
X0137213Y0171247D02*
X0145332Y0171247D01*
X0145420Y0170248D02*
X0103077Y0170248D01*
X0102078Y0169250D02*
X0144421Y0169250D01*
X0143423Y0168251D02*
X0101080Y0168251D01*
X0100500Y0167253D02*
X0142424Y0167253D01*
X0141426Y0166254D02*
X0100500Y0166254D01*
X0100500Y0165256D02*
X0140427Y0165256D01*
X0139429Y0164257D02*
X0100500Y0164257D01*
X0100500Y0163259D02*
X0138430Y0163259D01*
X0137432Y0162260D02*
X0100500Y0162260D01*
X0100500Y0161262D02*
X0136433Y0161262D01*
X0135435Y0160263D02*
X0100500Y0160263D01*
X0100500Y0159265D02*
X0134436Y0159265D01*
X0133438Y0158266D02*
X0100500Y0158266D01*
X0100500Y0157268D02*
X0132439Y0157268D01*
X0131441Y0156269D02*
X0100500Y0156269D01*
X0100500Y0155271D02*
X0108442Y0155271D01*
X0107500Y0154328D02*
X0107500Y0154328D01*
X0107444Y0154272D02*
X0100500Y0154272D01*
X0100500Y0153274D02*
X0106445Y0153274D01*
X0105447Y0152275D02*
X0100500Y0152275D01*
X0100500Y0151277D02*
X0104448Y0151277D01*
X0103450Y0150278D02*
X0100500Y0150278D01*
X0100500Y0149280D02*
X0102451Y0149280D01*
X0101453Y0148281D02*
X0100500Y0148281D01*
X0096500Y0148281D02*
X0075547Y0148281D01*
X0074549Y0149280D02*
X0096500Y0149280D01*
X0096500Y0150278D02*
X0073550Y0150278D01*
X0072552Y0151277D02*
X0096500Y0151277D01*
X0096500Y0152275D02*
X0071553Y0152275D01*
X0070555Y0153274D02*
X0096500Y0153274D01*
X0096500Y0154272D02*
X0069556Y0154272D01*
X0068558Y0155271D02*
X0096500Y0155271D01*
X0096500Y0156269D02*
X0067559Y0156269D01*
X0066561Y0157268D02*
X0096500Y0157268D01*
X0096500Y0158266D02*
X0065562Y0158266D01*
X0064564Y0159265D02*
X0096500Y0159265D01*
X0096500Y0160263D02*
X0063565Y0160263D01*
X0062567Y0161262D02*
X0096500Y0161262D01*
X0096500Y0162260D02*
X0061568Y0162260D01*
X0060570Y0163259D02*
X0093950Y0163259D01*
X0093113Y0164257D02*
X0059571Y0164257D01*
X0058500Y0162500D02*
X0054500Y0162500D01*
X0050500Y0158500D01*
X0033500Y0158500D01*
X0032996Y0158232D01*
X0029134Y0158266D02*
X0003968Y0158266D01*
X0003968Y0157268D02*
X0029215Y0157268D01*
X0029629Y0156269D02*
X0023610Y0156269D01*
X0024521Y0155271D02*
X0030496Y0155271D01*
X0032228Y0152094D02*
X0030808Y0151506D01*
X0029722Y0150420D01*
X0029134Y0149001D01*
X0029134Y0147464D01*
X0029722Y0146045D01*
X0030808Y0144958D01*
X0032228Y0144370D01*
X0033764Y0144370D01*
X0035184Y0144958D01*
X0036270Y0146045D01*
X0036858Y0147464D01*
X0036858Y0149001D01*
X0036270Y0150420D01*
X0035184Y0151506D01*
X0033764Y0152094D01*
X0032228Y0152094D01*
X0030578Y0151277D02*
X0024555Y0151277D01*
X0024969Y0152275D02*
X0041023Y0152275D01*
X0040945Y0153274D02*
X0025047Y0153274D01*
X0024935Y0154272D02*
X0041057Y0154272D01*
X0041471Y0155271D02*
X0035497Y0155271D01*
X0036363Y0156269D02*
X0042382Y0156269D01*
X0044807Y0153232D02*
X0045500Y0152500D01*
X0055500Y0142500D01*
X0058500Y0142500D01*
X0077500Y0123500D01*
X0077500Y0108500D01*
X0087500Y0098500D01*
X0087500Y0083500D01*
X0101500Y0069500D01*
X0101500Y0066500D01*
X0098500Y0059500D02*
X0091500Y0066500D01*
X0085500Y0066403D02*
X0085400Y0066403D01*
X0085400Y0065405D02*
X0085500Y0065405D01*
X0085500Y0064406D02*
X0085400Y0064406D01*
X0085400Y0063408D02*
X0085500Y0063408D01*
X0085400Y0063324D02*
X0085400Y0069676D01*
X0084806Y0071109D01*
X0083709Y0072206D01*
X0082276Y0072800D01*
X0080724Y0072800D01*
X0079291Y0072206D01*
X0078194Y0071109D01*
X0077600Y0069676D01*
X0077600Y0063324D01*
X0078194Y0061891D01*
X0079291Y0060794D01*
X0080724Y0060200D01*
X0082276Y0060200D01*
X0083709Y0060794D01*
X0084806Y0061891D01*
X0085400Y0063324D01*
X0085500Y0062409D02*
X0085021Y0062409D01*
X0085500Y0061411D02*
X0084326Y0061411D01*
X0085500Y0060672D02*
X0087672Y0058500D01*
X0072328Y0058500D01*
X0053450Y0077378D01*
X0056000Y0077378D01*
X0059222Y0078713D01*
X0061689Y0081179D01*
X0063024Y0084402D01*
X0063024Y0087890D01*
X0061689Y0091112D01*
X0059222Y0093579D01*
X0056000Y0094913D01*
X0052512Y0094913D01*
X0049289Y0093579D01*
X0046823Y0091112D01*
X0045620Y0088208D01*
X0045328Y0088500D01*
X0037328Y0096500D01*
X0028328Y0096500D01*
X0020685Y0104143D01*
X0020685Y0111354D01*
X0021685Y0111354D01*
X0021685Y0104055D01*
X0024416Y0104055D01*
X0028984Y0108624D01*
X0028984Y0111354D01*
X0021685Y0111354D01*
X0021685Y0112354D01*
X0028984Y0112354D01*
X0028984Y0115085D01*
X0024416Y0119654D01*
X0021685Y0119654D01*
X0021685Y0112354D01*
X0020685Y0112354D01*
X0020685Y0119654D01*
X0017955Y0119654D01*
X0014500Y0116199D01*
X0014500Y0129672D01*
X0017323Y0132494D01*
X0017323Y0132464D01*
X0017911Y0131045D01*
X0018997Y0129958D01*
X0020417Y0129370D01*
X0021953Y0129370D01*
X0023373Y0129958D01*
X0023915Y0130500D01*
X0029802Y0130500D01*
X0029722Y0130420D01*
X0029134Y0129001D01*
X0029134Y0127464D01*
X0029722Y0126045D01*
X0030808Y0124958D01*
X0032228Y0124370D01*
X0033764Y0124370D01*
X0035184Y0124958D01*
X0036270Y0126045D01*
X0036858Y0127464D01*
X0036858Y0128313D01*
X0045518Y0119654D01*
X0045307Y0119654D01*
X0045307Y0112354D01*
X0052606Y0112354D01*
X0052606Y0112565D01*
X0085500Y0079672D01*
X0085500Y0060672D01*
X0085759Y0060412D02*
X0082788Y0060412D01*
X0080212Y0060412D02*
X0070416Y0060412D01*
X0069418Y0061411D02*
X0078674Y0061411D01*
X0077979Y0062409D02*
X0068419Y0062409D01*
X0067421Y0063408D02*
X0077600Y0063408D01*
X0077600Y0064406D02*
X0066422Y0064406D01*
X0065424Y0065405D02*
X0077600Y0065405D01*
X0077600Y0066403D02*
X0064425Y0066403D01*
X0063427Y0067402D02*
X0077600Y0067402D01*
X0077600Y0068400D02*
X0062428Y0068400D01*
X0061430Y0069399D02*
X0077600Y0069399D01*
X0077899Y0070397D02*
X0060431Y0070397D01*
X0059433Y0071396D02*
X0078480Y0071396D01*
X0079745Y0072394D02*
X0058434Y0072394D01*
X0057436Y0073393D02*
X0085500Y0073393D01*
X0085500Y0074391D02*
X0056437Y0074391D01*
X0055439Y0075390D02*
X0085500Y0075390D01*
X0085500Y0076388D02*
X0054440Y0076388D01*
X0056021Y0077387D02*
X0085500Y0077387D01*
X0085500Y0078385D02*
X0058432Y0078385D01*
X0059894Y0079384D02*
X0085500Y0079384D01*
X0084789Y0080382D02*
X0060892Y0080382D01*
X0061772Y0081381D02*
X0083791Y0081381D01*
X0082792Y0082379D02*
X0062186Y0082379D01*
X0062600Y0083378D02*
X0081794Y0083378D01*
X0080795Y0084376D02*
X0063013Y0084376D01*
X0063024Y0085375D02*
X0079797Y0085375D01*
X0078798Y0086373D02*
X0063024Y0086373D01*
X0063024Y0087372D02*
X0077800Y0087372D01*
X0076801Y0088370D02*
X0062824Y0088370D01*
X0062411Y0089369D02*
X0075803Y0089369D01*
X0074804Y0090368D02*
X0061997Y0090368D01*
X0061435Y0091366D02*
X0073806Y0091366D01*
X0072807Y0092365D02*
X0060436Y0092365D01*
X0059438Y0093363D02*
X0071809Y0093363D01*
X0070810Y0094362D02*
X0057332Y0094362D01*
X0065817Y0099354D02*
X0025474Y0099354D01*
X0024476Y0100353D02*
X0064819Y0100353D01*
X0063820Y0101351D02*
X0023477Y0101351D01*
X0022479Y0102350D02*
X0062822Y0102350D01*
X0061823Y0103348D02*
X0021480Y0103348D01*
X0021685Y0104347D02*
X0020685Y0104347D01*
X0020685Y0105345D02*
X0021685Y0105345D01*
X0021685Y0106344D02*
X0020685Y0106344D01*
X0020685Y0107342D02*
X0021685Y0107342D01*
X0021685Y0108341D02*
X0020685Y0108341D01*
X0020685Y0109339D02*
X0021685Y0109339D01*
X0021685Y0110338D02*
X0020685Y0110338D01*
X0020685Y0111336D02*
X0021685Y0111336D01*
X0021500Y0111500D02*
X0021185Y0111854D01*
X0021500Y0111500D02*
X0044500Y0111500D01*
X0044807Y0111854D01*
X0044307Y0112335D02*
X0021685Y0112335D01*
X0021685Y0113333D02*
X0020685Y0113333D01*
X0020685Y0114332D02*
X0021685Y0114332D01*
X0021685Y0115330D02*
X0020685Y0115330D01*
X0020685Y0116329D02*
X0021685Y0116329D01*
X0021685Y0117327D02*
X0020685Y0117327D01*
X0020685Y0118326D02*
X0021685Y0118326D01*
X0021685Y0119324D02*
X0020685Y0119324D01*
X0017625Y0119324D02*
X0014500Y0119324D01*
X0014500Y0118326D02*
X0016627Y0118326D01*
X0015628Y0117327D02*
X0014500Y0117327D01*
X0014500Y0116329D02*
X0014630Y0116329D01*
X0014500Y0120323D02*
X0044849Y0120323D01*
X0044307Y0119654D02*
X0041577Y0119654D01*
X0037008Y0115085D01*
X0037008Y0112354D01*
X0044307Y0112354D01*
X0044307Y0111354D01*
X0045307Y0111354D01*
X0045307Y0104055D01*
X0048038Y0104055D01*
X0052606Y0108624D01*
X0052606Y0111354D01*
X0045307Y0111354D01*
X0045307Y0112354D01*
X0044307Y0112354D01*
X0044307Y0119654D01*
X0044307Y0119324D02*
X0045307Y0119324D01*
X0045307Y0118326D02*
X0044307Y0118326D01*
X0044307Y0117327D02*
X0045307Y0117327D01*
X0045307Y0116329D02*
X0044307Y0116329D01*
X0044307Y0115330D02*
X0045307Y0115330D01*
X0045307Y0114332D02*
X0044307Y0114332D01*
X0044307Y0113333D02*
X0045307Y0113333D01*
X0045307Y0112335D02*
X0052837Y0112335D01*
X0052606Y0111336D02*
X0053835Y0111336D01*
X0054834Y0110338D02*
X0052606Y0110338D01*
X0052606Y0109339D02*
X0055832Y0109339D01*
X0056831Y0108341D02*
X0052323Y0108341D01*
X0051325Y0107342D02*
X0057829Y0107342D01*
X0058828Y0106344D02*
X0050326Y0106344D01*
X0049328Y0105345D02*
X0059826Y0105345D01*
X0060825Y0104347D02*
X0048329Y0104347D01*
X0045307Y0104347D02*
X0044307Y0104347D01*
X0044307Y0104055D02*
X0044307Y0111354D01*
X0037008Y0111354D01*
X0037008Y0108624D01*
X0041577Y0104055D01*
X0044307Y0104055D01*
X0044307Y0105345D02*
X0045307Y0105345D01*
X0045307Y0106344D02*
X0044307Y0106344D01*
X0044307Y0107342D02*
X0045307Y0107342D01*
X0045307Y0108341D02*
X0044307Y0108341D01*
X0044307Y0109339D02*
X0045307Y0109339D01*
X0045307Y0110338D02*
X0044307Y0110338D01*
X0044307Y0111336D02*
X0045307Y0111336D01*
X0040286Y0105345D02*
X0025706Y0105345D01*
X0026704Y0106344D02*
X0039288Y0106344D01*
X0038289Y0107342D02*
X0027703Y0107342D01*
X0028701Y0108341D02*
X0037291Y0108341D01*
X0037008Y0109339D02*
X0028984Y0109339D01*
X0028984Y0110338D02*
X0037008Y0110338D01*
X0037008Y0111336D02*
X0028984Y0111336D01*
X0028984Y0113333D02*
X0037008Y0113333D01*
X0037008Y0114332D02*
X0028984Y0114332D01*
X0028739Y0115330D02*
X0037253Y0115330D01*
X0038252Y0116329D02*
X0027740Y0116329D01*
X0026742Y0117327D02*
X0039250Y0117327D01*
X0040249Y0118326D02*
X0025743Y0118326D01*
X0024745Y0119324D02*
X0041247Y0119324D01*
X0043850Y0121321D02*
X0014500Y0121321D01*
X0014500Y0122320D02*
X0042852Y0122320D01*
X0041853Y0123318D02*
X0014500Y0123318D01*
X0014500Y0124317D02*
X0040855Y0124317D01*
X0039856Y0125315D02*
X0035541Y0125315D01*
X0036382Y0126314D02*
X0038858Y0126314D01*
X0037859Y0127312D02*
X0036795Y0127312D01*
X0036858Y0128311D02*
X0036861Y0128311D01*
X0039522Y0131306D02*
X0041449Y0131306D01*
X0041384Y0131403D02*
X0041807Y0130770D01*
X0042345Y0130232D01*
X0042978Y0129810D01*
X0043681Y0129519D01*
X0044427Y0129370D01*
X0044520Y0129370D01*
X0044520Y0132945D01*
X0045094Y0132945D01*
X0045094Y0129370D01*
X0045187Y0129370D01*
X0045934Y0129519D01*
X0046637Y0129810D01*
X0047269Y0130232D01*
X0047807Y0130770D01*
X0048230Y0131403D01*
X0048521Y0132106D01*
X0048669Y0132852D01*
X0048669Y0132945D01*
X0045095Y0132945D01*
X0045095Y0133520D01*
X0048669Y0133520D01*
X0048669Y0133613D01*
X0048521Y0134359D01*
X0048230Y0135062D01*
X0047807Y0135694D01*
X0047269Y0136232D01*
X0046637Y0136655D01*
X0045934Y0136946D01*
X0045187Y0137094D01*
X0045094Y0137094D01*
X0045094Y0133520D01*
X0044520Y0133520D01*
X0044520Y0137094D01*
X0044427Y0137094D01*
X0043681Y0136946D01*
X0042978Y0136655D01*
X0042345Y0136232D01*
X0041807Y0135694D01*
X0041384Y0135062D01*
X0041093Y0134359D01*
X0040945Y0133613D01*
X0040945Y0133520D01*
X0044520Y0133520D01*
X0044520Y0132945D01*
X0040945Y0132945D01*
X0040945Y0132852D01*
X0041093Y0132106D01*
X0041384Y0131403D01*
X0041054Y0132305D02*
X0038523Y0132305D01*
X0037525Y0133303D02*
X0044520Y0133303D01*
X0045095Y0133303D02*
X0055868Y0133303D01*
X0055500Y0134302D02*
X0048532Y0134302D01*
X0048070Y0135301D02*
X0054088Y0135301D01*
X0053238Y0136299D02*
X0047169Y0136299D01*
X0045094Y0136299D02*
X0044520Y0136299D01*
X0044520Y0135301D02*
X0045094Y0135301D01*
X0045094Y0134302D02*
X0044520Y0134302D01*
X0044520Y0132305D02*
X0045094Y0132305D01*
X0045094Y0131306D02*
X0044520Y0131306D01*
X0044520Y0130308D02*
X0045094Y0130308D01*
X0047345Y0130308D02*
X0052756Y0130308D01*
X0052756Y0129309D02*
X0041519Y0129309D01*
X0042269Y0130308D02*
X0040520Y0130308D01*
X0042517Y0128311D02*
X0052756Y0128311D01*
X0052756Y0127312D02*
X0043516Y0127312D01*
X0044514Y0126314D02*
X0052756Y0126314D01*
X0052756Y0125315D02*
X0045513Y0125315D01*
X0046512Y0124317D02*
X0064855Y0124317D01*
X0065853Y0123318D02*
X0047510Y0123318D01*
X0048509Y0122320D02*
X0066852Y0122320D01*
X0067850Y0121321D02*
X0049507Y0121321D01*
X0050506Y0120323D02*
X0068849Y0120323D01*
X0069847Y0119324D02*
X0051504Y0119324D01*
X0052503Y0118326D02*
X0070846Y0118326D01*
X0071844Y0117327D02*
X0053501Y0117327D01*
X0054500Y0116329D02*
X0072843Y0116329D01*
X0073500Y0115330D02*
X0055498Y0115330D01*
X0056497Y0114332D02*
X0073500Y0114332D01*
X0073500Y0113333D02*
X0057495Y0113333D01*
X0058494Y0112335D02*
X0073500Y0112335D01*
X0073500Y0111336D02*
X0059492Y0111336D01*
X0060491Y0110338D02*
X0073500Y0110338D01*
X0073500Y0109339D02*
X0061489Y0109339D01*
X0062488Y0108341D02*
X0073500Y0108341D01*
X0073500Y0107342D02*
X0063486Y0107342D01*
X0064485Y0106344D02*
X0073500Y0106344D01*
X0073500Y0105345D02*
X0065483Y0105345D01*
X0066482Y0104347D02*
X0073500Y0104347D01*
X0073500Y0103348D02*
X0067480Y0103348D01*
X0068479Y0102350D02*
X0073500Y0102350D01*
X0073820Y0101351D02*
X0069477Y0101351D01*
X0070476Y0100353D02*
X0074819Y0100353D01*
X0075817Y0099354D02*
X0071474Y0099354D01*
X0072473Y0098356D02*
X0076816Y0098356D01*
X0077600Y0097357D02*
X0073471Y0097357D01*
X0074470Y0096359D02*
X0077600Y0096359D01*
X0077600Y0095360D02*
X0075468Y0095360D01*
X0076467Y0094362D02*
X0077600Y0094362D01*
X0077600Y0093363D02*
X0077465Y0093363D01*
X0081500Y0096500D02*
X0075500Y0102500D01*
X0075500Y0116500D01*
X0057500Y0134500D01*
X0057500Y0137500D01*
X0056618Y0138232D01*
X0052756Y0138296D02*
X0036858Y0138296D01*
X0036789Y0137298D02*
X0052825Y0137298D01*
X0052878Y0139295D02*
X0036736Y0139295D01*
X0036323Y0140293D02*
X0042284Y0140293D01*
X0042619Y0139958D02*
X0044039Y0139370D01*
X0045575Y0139370D01*
X0046995Y0139958D01*
X0048081Y0141045D01*
X0048669Y0142464D01*
X0048669Y0144001D01*
X0048081Y0145420D01*
X0046995Y0146506D01*
X0045575Y0147094D01*
X0044039Y0147094D01*
X0042619Y0146506D01*
X0041533Y0145420D01*
X0040945Y0144001D01*
X0040945Y0142464D01*
X0041533Y0141045D01*
X0042619Y0139958D01*
X0041431Y0141292D02*
X0035399Y0141292D01*
X0032996Y0138232D02*
X0032500Y0137500D01*
X0019500Y0137500D01*
X0012500Y0130500D01*
X0012500Y0109500D01*
X0027500Y0094500D01*
X0036500Y0094500D01*
X0044500Y0086500D01*
X0044500Y0083500D01*
X0071500Y0056500D01*
X0088500Y0056500D01*
X0094500Y0050500D01*
X0094500Y0047500D01*
X0097500Y0044500D01*
X0120500Y0044500D01*
X0123500Y0047500D01*
X0123500Y0050500D01*
X0139500Y0066500D01*
X0141500Y0066500D01*
X0151500Y0066500D02*
X0151500Y0055500D01*
X0131500Y0035500D01*
X0096500Y0035500D01*
X0093500Y0038500D01*
X0093500Y0045500D01*
X0089500Y0049500D01*
X0089020Y0049807D01*
X0083500Y0051500D02*
X0080500Y0054500D01*
X0073500Y0054500D01*
X0069500Y0050500D01*
X0069020Y0049807D01*
X0064500Y0050500D02*
X0064500Y0047500D01*
X0066500Y0045500D01*
X0064500Y0043500D01*
X0064500Y0037500D01*
X0073500Y0028500D01*
X0137500Y0028500D01*
X0156500Y0033500D02*
X0088500Y0033500D01*
X0083500Y0038500D01*
X0083500Y0051500D01*
X0079020Y0049807D02*
X0078500Y0049500D01*
X0074500Y0045500D01*
X0066500Y0045500D01*
X0064500Y0050500D02*
X0060500Y0054500D01*
X0052500Y0054500D01*
X0010500Y0096500D01*
X0010500Y0138500D01*
X0020500Y0148500D01*
X0020500Y0152500D01*
X0021185Y0153232D01*
X0017323Y0153274D02*
X0003968Y0153274D01*
X0003968Y0154272D02*
X0017435Y0154272D01*
X0017849Y0155271D02*
X0003968Y0155271D01*
X0003968Y0156269D02*
X0018760Y0156269D01*
X0017401Y0152275D02*
X0003968Y0152275D01*
X0003968Y0151277D02*
X0017815Y0151277D01*
X0018500Y0150278D02*
X0003968Y0150278D01*
X0003968Y0149280D02*
X0018451Y0149280D01*
X0017453Y0148281D02*
X0003968Y0148281D01*
X0003968Y0147283D02*
X0016454Y0147283D01*
X0015456Y0146284D02*
X0003968Y0146284D01*
X0003968Y0145286D02*
X0014457Y0145286D01*
X0013459Y0144287D02*
X0003968Y0144287D01*
X0003968Y0143289D02*
X0012460Y0143289D01*
X0011462Y0142290D02*
X0003968Y0142290D01*
X0003968Y0141292D02*
X0010463Y0141292D01*
X0009465Y0140293D02*
X0003968Y0140293D01*
X0003968Y0139295D02*
X0008500Y0139295D01*
X0008500Y0138296D02*
X0003968Y0138296D01*
X0003968Y0137298D02*
X0008500Y0137298D01*
X0008500Y0136299D02*
X0003968Y0136299D01*
X0003968Y0135301D02*
X0008500Y0135301D01*
X0008500Y0134302D02*
X0003968Y0134302D01*
X0003968Y0133303D02*
X0008500Y0133303D01*
X0008500Y0132305D02*
X0003968Y0132305D01*
X0003968Y0131306D02*
X0008500Y0131306D01*
X0008500Y0130308D02*
X0003968Y0130308D01*
X0003968Y0129309D02*
X0008500Y0129309D01*
X0008500Y0128311D02*
X0003968Y0128311D01*
X0003968Y0127312D02*
X0008500Y0127312D01*
X0008500Y0126314D02*
X0003968Y0126314D01*
X0003968Y0125315D02*
X0008500Y0125315D01*
X0008500Y0124317D02*
X0003968Y0124317D01*
X0003968Y0123318D02*
X0008500Y0123318D01*
X0008500Y0122320D02*
X0003968Y0122320D01*
X0003968Y0121321D02*
X0008500Y0121321D01*
X0008500Y0120323D02*
X0003968Y0120323D01*
X0003968Y0119324D02*
X0008500Y0119324D01*
X0008500Y0118326D02*
X0003968Y0118326D01*
X0003968Y0117327D02*
X0008500Y0117327D01*
X0008500Y0116329D02*
X0003968Y0116329D01*
X0003968Y0115330D02*
X0008500Y0115330D01*
X0008500Y0114332D02*
X0003968Y0114332D01*
X0003968Y0113333D02*
X0008500Y0113333D01*
X0008500Y0112335D02*
X0003968Y0112335D01*
X0003968Y0111336D02*
X0008500Y0111336D01*
X0008500Y0110338D02*
X0003968Y0110338D01*
X0003968Y0109339D02*
X0008500Y0109339D01*
X0008500Y0108341D02*
X0003968Y0108341D01*
X0003968Y0107342D02*
X0008500Y0107342D01*
X0008500Y0106344D02*
X0003968Y0106344D01*
X0003968Y0105345D02*
X0008500Y0105345D01*
X0008500Y0104347D02*
X0003968Y0104347D01*
X0003968Y0103348D02*
X0008500Y0103348D01*
X0008500Y0102350D02*
X0003968Y0102350D01*
X0003968Y0101351D02*
X0008500Y0101351D01*
X0008500Y0100353D02*
X0003968Y0100353D01*
X0003968Y0099354D02*
X0008500Y0099354D01*
X0008500Y0098356D02*
X0003968Y0098356D01*
X0003968Y0097357D02*
X0008500Y0097357D01*
X0008500Y0096359D02*
X0003968Y0096359D01*
X0003968Y0095360D02*
X0008812Y0095360D01*
X0009810Y0094362D02*
X0003968Y0094362D01*
X0003968Y0093363D02*
X0010809Y0093363D01*
X0011807Y0092365D02*
X0003968Y0092365D01*
X0003968Y0091366D02*
X0012806Y0091366D01*
X0013804Y0090368D02*
X0003968Y0090368D01*
X0003968Y0089369D02*
X0014803Y0089369D01*
X0015801Y0088370D02*
X0003968Y0088370D01*
X0003968Y0087372D02*
X0016800Y0087372D01*
X0017798Y0086373D02*
X0003968Y0086373D01*
X0003968Y0085375D02*
X0018797Y0085375D01*
X0019795Y0084376D02*
X0003968Y0084376D01*
X0003968Y0083378D02*
X0020794Y0083378D01*
X0021792Y0082379D02*
X0003968Y0082379D01*
X0003968Y0081381D02*
X0022791Y0081381D01*
X0023789Y0080382D02*
X0003968Y0080382D01*
X0003968Y0079384D02*
X0024788Y0079384D01*
X0025786Y0078385D02*
X0003968Y0078385D01*
X0003968Y0077387D02*
X0026785Y0077387D01*
X0027783Y0076388D02*
X0003968Y0076388D01*
X0003968Y0075390D02*
X0028782Y0075390D01*
X0029780Y0074391D02*
X0003968Y0074391D01*
X0003968Y0073393D02*
X0030779Y0073393D01*
X0031777Y0072394D02*
X0003968Y0072394D01*
X0003968Y0071396D02*
X0032776Y0071396D01*
X0033774Y0070397D02*
X0003968Y0070397D01*
X0003968Y0069399D02*
X0034773Y0069399D01*
X0035771Y0068400D02*
X0003968Y0068400D01*
X0003968Y0067402D02*
X0036770Y0067402D01*
X0037768Y0066403D02*
X0003968Y0066403D01*
X0003968Y0065405D02*
X0038767Y0065405D01*
X0039765Y0064406D02*
X0003968Y0064406D01*
X0003968Y0063408D02*
X0040764Y0063408D01*
X0041762Y0062409D02*
X0003968Y0062409D01*
X0003968Y0061411D02*
X0042761Y0061411D01*
X0043759Y0060412D02*
X0003968Y0060412D01*
X0003968Y0059414D02*
X0044758Y0059414D01*
X0045756Y0058415D02*
X0003968Y0058415D01*
X0003968Y0057417D02*
X0046755Y0057417D01*
X0047753Y0056418D02*
X0003968Y0056418D01*
X0003968Y0055420D02*
X0048752Y0055420D01*
X0049750Y0054421D02*
X0003968Y0054421D01*
X0003968Y0053423D02*
X0050749Y0053423D01*
X0054820Y0051426D02*
X0003968Y0051426D01*
X0003968Y0052424D02*
X0055697Y0052424D01*
X0054820Y0050427D02*
X0003968Y0050427D01*
X0003968Y0049429D02*
X0054820Y0049429D01*
X0054602Y0048430D02*
X0003968Y0048430D01*
X0003968Y0047432D02*
X0053603Y0047432D01*
X0052605Y0046433D02*
X0003968Y0046433D01*
X0003968Y0045434D02*
X0052500Y0045434D01*
X0052500Y0044436D02*
X0003968Y0044436D01*
X0003968Y0043437D02*
X0052500Y0043437D01*
X0052500Y0042439D02*
X0003968Y0042439D01*
X0003968Y0041440D02*
X0052500Y0041440D01*
X0052500Y0040442D02*
X0003968Y0040442D01*
X0003968Y0039443D02*
X0052500Y0039443D01*
X0052500Y0038445D02*
X0003968Y0038445D01*
X0003968Y0037446D02*
X0052500Y0037446D01*
X0052724Y0036448D02*
X0003968Y0036448D01*
X0003968Y0035449D02*
X0053722Y0035449D01*
X0054721Y0034451D02*
X0003968Y0034451D01*
X0003968Y0033452D02*
X0055719Y0033452D01*
X0056718Y0032454D02*
X0003968Y0032454D01*
X0003968Y0031455D02*
X0057716Y0031455D01*
X0058715Y0030457D02*
X0003968Y0030457D01*
X0003968Y0029458D02*
X0059713Y0029458D01*
X0060712Y0028460D02*
X0003968Y0028460D01*
X0003968Y0027461D02*
X0061710Y0027461D01*
X0062709Y0026463D02*
X0003968Y0026463D01*
X0003968Y0025464D02*
X0063707Y0025464D01*
X0064706Y0024466D02*
X0003968Y0024466D01*
X0003968Y0023467D02*
X0207952Y0023467D01*
X0207600Y0023115D02*
X0207600Y0019885D01*
X0209885Y0017600D01*
X0213115Y0017600D01*
X0215400Y0019885D01*
X0215400Y0023115D01*
X0213115Y0025400D01*
X0209885Y0025400D01*
X0207600Y0023115D01*
X0207600Y0022469D02*
X0003968Y0022469D01*
X0003968Y0021470D02*
X0010098Y0021470D01*
X0011567Y0022079D02*
X0008345Y0020744D01*
X0005878Y0018278D01*
X0004543Y0015055D01*
X0004543Y0011567D01*
X0005878Y0008345D01*
X0008345Y0005878D01*
X0011567Y0004543D01*
X0015055Y0004543D01*
X0018278Y0005878D01*
X0020744Y0008345D01*
X0022079Y0011567D01*
X0022079Y0015055D01*
X0020744Y0018278D01*
X0018278Y0020744D01*
X0015055Y0022079D01*
X0011567Y0022079D01*
X0016524Y0021470D02*
X0171515Y0021470D01*
X0172984Y0022079D02*
X0169762Y0020744D01*
X0167295Y0018278D01*
X0165961Y0015055D01*
X0165961Y0011567D01*
X0167295Y0008345D01*
X0169762Y0005878D01*
X0172984Y0004543D01*
X0176472Y0004543D01*
X0179695Y0005878D01*
X0182161Y0008345D01*
X0183496Y0011567D01*
X0183496Y0015055D01*
X0182161Y0018278D01*
X0179695Y0020744D01*
X0176472Y0022079D01*
X0172984Y0022079D01*
X0170294Y0024466D02*
X0208950Y0024466D01*
X0207600Y0021470D02*
X0177941Y0021470D01*
X0179967Y0020472D02*
X0207600Y0020472D01*
X0208011Y0019473D02*
X0180966Y0019473D01*
X0181964Y0018475D02*
X0209010Y0018475D01*
X0213990Y0018475D02*
X0229010Y0018475D01*
X0228011Y0019473D02*
X0214989Y0019473D01*
X0215400Y0020472D02*
X0227600Y0020472D01*
X0227600Y0021470D02*
X0215400Y0021470D01*
X0215400Y0022469D02*
X0227600Y0022469D01*
X0227952Y0023467D02*
X0215048Y0023467D01*
X0214050Y0024466D02*
X0228950Y0024466D01*
X0229500Y0025464D02*
X0171293Y0025464D01*
X0172291Y0026463D02*
X0229500Y0026463D01*
X0229500Y0027461D02*
X0173290Y0027461D01*
X0174288Y0028460D02*
X0229500Y0028460D01*
X0229500Y0029458D02*
X0175287Y0029458D01*
X0176285Y0030457D02*
X0229500Y0030457D01*
X0229500Y0031455D02*
X0177284Y0031455D01*
X0178282Y0032454D02*
X0229500Y0032454D01*
X0229500Y0033452D02*
X0179281Y0033452D01*
X0180279Y0034451D02*
X0229500Y0034451D01*
X0229500Y0035449D02*
X0181278Y0035449D01*
X0182276Y0036448D02*
X0210109Y0036448D01*
X0210466Y0036300D02*
X0212534Y0036300D01*
X0214446Y0037092D01*
X0215908Y0038554D01*
X0216700Y0040466D01*
X0216700Y0042534D01*
X0215908Y0044446D01*
X0214446Y0045908D01*
X0212534Y0046700D01*
X0210466Y0046700D01*
X0208554Y0045908D01*
X0207092Y0044446D01*
X0206300Y0042534D01*
X0206300Y0040466D01*
X0207092Y0038554D01*
X0208554Y0037092D01*
X0210466Y0036300D01*
X0212891Y0036448D02*
X0229500Y0036448D01*
X0229500Y0037446D02*
X0214800Y0037446D01*
X0215799Y0038445D02*
X0229500Y0038445D01*
X0229500Y0039443D02*
X0216277Y0039443D01*
X0216690Y0040442D02*
X0229500Y0040442D01*
X0229500Y0041440D02*
X0216700Y0041440D01*
X0216700Y0042439D02*
X0229500Y0042439D01*
X0229500Y0043437D02*
X0216326Y0043437D01*
X0215912Y0044436D02*
X0229500Y0044436D01*
X0229500Y0045434D02*
X0214919Y0045434D01*
X0213179Y0046433D02*
X0229500Y0046433D01*
X0229500Y0047432D02*
X0193260Y0047432D01*
X0194258Y0048430D02*
X0219055Y0048430D01*
X0219885Y0047600D02*
X0223115Y0047600D01*
X0225400Y0049885D01*
X0225400Y0053115D01*
X0223115Y0055400D01*
X0219885Y0055400D01*
X0217600Y0053115D01*
X0217600Y0049885D01*
X0219885Y0047600D01*
X0218056Y0049429D02*
X0195257Y0049429D01*
X0196255Y0050427D02*
X0217600Y0050427D01*
X0217600Y0051426D02*
X0197254Y0051426D01*
X0198252Y0052424D02*
X0217600Y0052424D01*
X0217907Y0053423D02*
X0199251Y0053423D01*
X0200250Y0054421D02*
X0218906Y0054421D01*
X0224094Y0054421D02*
X0229500Y0054421D01*
X0229500Y0053423D02*
X0225093Y0053423D01*
X0225400Y0052424D02*
X0229500Y0052424D01*
X0229500Y0051426D02*
X0225400Y0051426D01*
X0225400Y0050427D02*
X0229500Y0050427D01*
X0229500Y0049429D02*
X0224944Y0049429D01*
X0223945Y0048430D02*
X0229500Y0048430D01*
X0233500Y0048430D02*
X0239055Y0048430D01*
X0239885Y0047600D02*
X0243115Y0047600D01*
X0245400Y0049885D01*
X0245400Y0053115D01*
X0243115Y0055400D01*
X0239885Y0055400D01*
X0237600Y0053115D01*
X0237600Y0049885D01*
X0239885Y0047600D01*
X0240466Y0046700D02*
X0238554Y0045908D01*
X0237092Y0044446D01*
X0236300Y0042534D01*
X0236300Y0040466D01*
X0237092Y0038554D01*
X0238554Y0037092D01*
X0240466Y0036300D01*
X0242534Y0036300D01*
X0244446Y0037092D01*
X0245908Y0038554D01*
X0246700Y0040466D01*
X0246700Y0042534D01*
X0246308Y0043480D01*
X0258500Y0055672D01*
X0258500Y0058307D01*
X0258709Y0058394D01*
X0259806Y0059491D01*
X0260400Y0060924D01*
X0260400Y0067276D01*
X0259806Y0068709D01*
X0258709Y0069806D01*
X0257276Y0070400D01*
X0255724Y0070400D01*
X0254291Y0069806D01*
X0253194Y0068709D01*
X0252600Y0067276D01*
X0252600Y0060924D01*
X0253194Y0059491D01*
X0254291Y0058394D01*
X0254500Y0058307D01*
X0254500Y0057328D01*
X0243480Y0046308D01*
X0242534Y0046700D01*
X0240466Y0046700D01*
X0239821Y0046433D02*
X0233500Y0046433D01*
X0233500Y0045434D02*
X0238081Y0045434D01*
X0237088Y0044436D02*
X0233500Y0044436D01*
X0233500Y0043437D02*
X0236674Y0043437D01*
X0236300Y0042439D02*
X0233500Y0042439D01*
X0233500Y0041440D02*
X0236300Y0041440D01*
X0236310Y0040442D02*
X0233500Y0040442D01*
X0233500Y0039443D02*
X0236723Y0039443D01*
X0237201Y0038445D02*
X0233500Y0038445D01*
X0233500Y0037446D02*
X0238200Y0037446D01*
X0240109Y0036448D02*
X0233500Y0036448D01*
X0233500Y0035449D02*
X0256924Y0035449D01*
X0256693Y0036008D02*
X0257401Y0034299D01*
X0258709Y0032991D01*
X0260418Y0032283D01*
X0262267Y0032283D01*
X0263976Y0032991D01*
X0265284Y0034299D01*
X0265992Y0036008D01*
X0265992Y0037858D01*
X0265284Y0039567D01*
X0263981Y0040870D01*
X0265284Y0042173D01*
X0265992Y0043882D01*
X0265992Y0045732D01*
X0265284Y0047441D01*
X0263976Y0048749D01*
X0262267Y0049457D01*
X0260418Y0049457D01*
X0258709Y0048749D01*
X0257401Y0047441D01*
X0256693Y0045732D01*
X0256693Y0043882D01*
X0257401Y0042173D01*
X0258704Y0040870D01*
X0257401Y0039567D01*
X0256693Y0037858D01*
X0256693Y0036008D01*
X0256693Y0036448D02*
X0242891Y0036448D01*
X0244800Y0037446D02*
X0256693Y0037446D01*
X0256936Y0038445D02*
X0245799Y0038445D01*
X0246277Y0039443D02*
X0257350Y0039443D01*
X0258276Y0040442D02*
X0246690Y0040442D01*
X0246700Y0041440D02*
X0258134Y0041440D01*
X0257291Y0042439D02*
X0246700Y0042439D01*
X0246326Y0043437D02*
X0256877Y0043437D01*
X0256693Y0044436D02*
X0247264Y0044436D01*
X0248263Y0045434D02*
X0256693Y0045434D01*
X0256983Y0046433D02*
X0249261Y0046433D01*
X0250260Y0047432D02*
X0257397Y0047432D01*
X0258390Y0048430D02*
X0251258Y0048430D01*
X0252257Y0049429D02*
X0260350Y0049429D01*
X0262335Y0049429D02*
X0282496Y0049429D01*
X0282496Y0050427D02*
X0253255Y0050427D01*
X0254254Y0051426D02*
X0282496Y0051426D01*
X0282496Y0052424D02*
X0255252Y0052424D01*
X0256251Y0053423D02*
X0282496Y0053423D01*
X0282496Y0054421D02*
X0257250Y0054421D01*
X0258248Y0055420D02*
X0282496Y0055420D01*
X0282496Y0056418D02*
X0258500Y0056418D01*
X0258500Y0057417D02*
X0282496Y0057417D01*
X0282496Y0058415D02*
X0278731Y0058415D01*
X0278709Y0058394D02*
X0279806Y0059491D01*
X0280400Y0060924D01*
X0280400Y0067276D01*
X0279806Y0068709D01*
X0278709Y0069806D01*
X0277276Y0070400D01*
X0275724Y0070400D01*
X0274291Y0069806D01*
X0273194Y0068709D01*
X0272600Y0067276D01*
X0272600Y0060924D01*
X0273194Y0059491D01*
X0274291Y0058394D01*
X0275724Y0057800D01*
X0277276Y0057800D01*
X0278709Y0058394D01*
X0279729Y0059414D02*
X0282496Y0059414D01*
X0282496Y0060412D02*
X0280188Y0060412D01*
X0280400Y0061411D02*
X0282496Y0061411D01*
X0282496Y0062409D02*
X0280400Y0062409D01*
X0280400Y0063408D02*
X0282496Y0063408D01*
X0282496Y0064406D02*
X0280400Y0064406D01*
X0280400Y0065405D02*
X0282496Y0065405D01*
X0282496Y0066403D02*
X0280400Y0066403D01*
X0280348Y0067402D02*
X0282496Y0067402D01*
X0282496Y0068400D02*
X0279934Y0068400D01*
X0279117Y0069399D02*
X0282496Y0069399D01*
X0282496Y0070397D02*
X0277282Y0070397D01*
X0275718Y0070397D02*
X0267282Y0070397D01*
X0267276Y0070400D02*
X0265724Y0070400D01*
X0264291Y0069806D01*
X0263194Y0068709D01*
X0262600Y0067276D01*
X0262600Y0060924D01*
X0263194Y0059491D01*
X0264291Y0058394D01*
X0265724Y0057800D01*
X0267276Y0057800D01*
X0268709Y0058394D01*
X0269806Y0059491D01*
X0270400Y0060924D01*
X0270400Y0067276D01*
X0269806Y0068709D01*
X0268709Y0069806D01*
X0267276Y0070400D01*
X0265718Y0070397D02*
X0257282Y0070397D01*
X0255718Y0070397D02*
X0247282Y0070397D01*
X0247276Y0070400D02*
X0245724Y0070400D01*
X0244291Y0069806D01*
X0243194Y0068709D01*
X0242600Y0067276D01*
X0242600Y0060924D01*
X0243194Y0059491D01*
X0244291Y0058394D01*
X0245724Y0057800D01*
X0247276Y0057800D01*
X0248709Y0058394D01*
X0249806Y0059491D01*
X0250400Y0060924D01*
X0250400Y0067276D01*
X0249806Y0068709D01*
X0248709Y0069806D01*
X0247276Y0070400D01*
X0245718Y0070397D02*
X0233500Y0070397D01*
X0233500Y0069399D02*
X0243883Y0069399D01*
X0243066Y0068400D02*
X0233500Y0068400D01*
X0233500Y0067402D02*
X0242652Y0067402D01*
X0242600Y0066403D02*
X0233500Y0066403D01*
X0233500Y0065405D02*
X0242600Y0065405D01*
X0242600Y0064406D02*
X0233500Y0064406D01*
X0233500Y0063408D02*
X0242600Y0063408D01*
X0242600Y0062409D02*
X0233500Y0062409D01*
X0233500Y0061411D02*
X0242600Y0061411D01*
X0242812Y0060412D02*
X0233500Y0060412D01*
X0233500Y0059414D02*
X0243271Y0059414D01*
X0244269Y0058415D02*
X0233500Y0058415D01*
X0233500Y0057417D02*
X0254500Y0057417D01*
X0254269Y0058415D02*
X0248731Y0058415D01*
X0249729Y0059414D02*
X0253271Y0059414D01*
X0252812Y0060412D02*
X0250188Y0060412D01*
X0250400Y0061411D02*
X0252600Y0061411D01*
X0252600Y0062409D02*
X0250400Y0062409D01*
X0250400Y0063408D02*
X0252600Y0063408D01*
X0252600Y0064406D02*
X0250400Y0064406D01*
X0250400Y0065405D02*
X0252600Y0065405D01*
X0252600Y0066403D02*
X0250400Y0066403D01*
X0250348Y0067402D02*
X0252652Y0067402D01*
X0253066Y0068400D02*
X0249934Y0068400D01*
X0249117Y0069399D02*
X0253883Y0069399D01*
X0256500Y0066500D02*
X0256500Y0056500D01*
X0241500Y0041500D01*
X0243179Y0046433D02*
X0243605Y0046433D01*
X0244603Y0047432D02*
X0233500Y0047432D01*
X0233500Y0049429D02*
X0238056Y0049429D01*
X0237600Y0050427D02*
X0233500Y0050427D01*
X0233500Y0051426D02*
X0237600Y0051426D01*
X0237600Y0052424D02*
X0233500Y0052424D01*
X0233500Y0053423D02*
X0237907Y0053423D01*
X0238906Y0054421D02*
X0233500Y0054421D01*
X0233500Y0055420D02*
X0252591Y0055420D01*
X0253590Y0056418D02*
X0233500Y0056418D01*
X0229500Y0056418D02*
X0202247Y0056418D01*
X0203245Y0057417D02*
X0229500Y0057417D01*
X0229500Y0058415D02*
X0204244Y0058415D01*
X0205242Y0059414D02*
X0229500Y0059414D01*
X0229500Y0060412D02*
X0212788Y0060412D01*
X0214326Y0061411D02*
X0229500Y0061411D01*
X0229500Y0062409D02*
X0215021Y0062409D01*
X0215400Y0063408D02*
X0229500Y0063408D01*
X0229500Y0064406D02*
X0215400Y0064406D01*
X0215400Y0065405D02*
X0229500Y0065405D01*
X0229500Y0066403D02*
X0215400Y0066403D01*
X0215400Y0067402D02*
X0229500Y0067402D01*
X0229500Y0068400D02*
X0215400Y0068400D01*
X0215400Y0069399D02*
X0229500Y0069399D01*
X0229500Y0070397D02*
X0215101Y0070397D01*
X0214520Y0071396D02*
X0229500Y0071396D01*
X0229500Y0072394D02*
X0213255Y0072394D01*
X0209745Y0072394D02*
X0203255Y0072394D01*
X0204520Y0071396D02*
X0208480Y0071396D01*
X0207899Y0070397D02*
X0205101Y0070397D01*
X0205400Y0069399D02*
X0207600Y0069399D01*
X0207600Y0068400D02*
X0205400Y0068400D01*
X0205400Y0067402D02*
X0207573Y0067402D01*
X0206575Y0066403D02*
X0205400Y0066403D01*
X0205400Y0065405D02*
X0205576Y0065405D01*
X0201500Y0066500D02*
X0199500Y0066500D01*
X0164500Y0031500D01*
X0077500Y0031500D01*
X0069500Y0039500D01*
X0069020Y0039807D01*
X0059020Y0049807D02*
X0058500Y0049500D01*
X0054500Y0045500D01*
X0054500Y0037500D01*
X0066500Y0025500D01*
X0168500Y0025500D01*
X0209500Y0066500D01*
X0211500Y0066500D01*
X0208674Y0061411D02*
X0207239Y0061411D01*
X0206241Y0060412D02*
X0210212Y0060412D01*
X0201248Y0055420D02*
X0229500Y0055420D01*
X0244094Y0054421D02*
X0251593Y0054421D01*
X0250594Y0053423D02*
X0245093Y0053423D01*
X0245400Y0052424D02*
X0249596Y0052424D01*
X0248597Y0051426D02*
X0245400Y0051426D01*
X0245400Y0050427D02*
X0247599Y0050427D01*
X0246600Y0049429D02*
X0244944Y0049429D01*
X0245602Y0048430D02*
X0243945Y0048430D01*
X0233500Y0034451D02*
X0257338Y0034451D01*
X0258248Y0033452D02*
X0233500Y0033452D01*
X0233500Y0032454D02*
X0260006Y0032454D01*
X0262679Y0032454D02*
X0282496Y0032454D01*
X0282496Y0033452D02*
X0264437Y0033452D01*
X0265347Y0034451D02*
X0282496Y0034451D01*
X0282496Y0035449D02*
X0265761Y0035449D01*
X0265992Y0036448D02*
X0282496Y0036448D01*
X0282496Y0037446D02*
X0265992Y0037446D01*
X0265749Y0038445D02*
X0282496Y0038445D01*
X0282496Y0039443D02*
X0265335Y0039443D01*
X0264409Y0040442D02*
X0282496Y0040442D01*
X0282496Y0041440D02*
X0264551Y0041440D01*
X0265394Y0042439D02*
X0282496Y0042439D01*
X0282496Y0043437D02*
X0265808Y0043437D01*
X0265992Y0044436D02*
X0282496Y0044436D01*
X0282496Y0045434D02*
X0265992Y0045434D01*
X0265702Y0046433D02*
X0282496Y0046433D01*
X0282496Y0047432D02*
X0265288Y0047432D01*
X0264295Y0048430D02*
X0282496Y0048430D01*
X0274269Y0058415D02*
X0268731Y0058415D01*
X0269729Y0059414D02*
X0273271Y0059414D01*
X0272812Y0060412D02*
X0270188Y0060412D01*
X0270400Y0061411D02*
X0272600Y0061411D01*
X0272600Y0062409D02*
X0270400Y0062409D01*
X0270400Y0063408D02*
X0272600Y0063408D01*
X0272600Y0064406D02*
X0270400Y0064406D01*
X0270400Y0065405D02*
X0272600Y0065405D01*
X0272600Y0066403D02*
X0270400Y0066403D01*
X0270348Y0067402D02*
X0272652Y0067402D01*
X0273066Y0068400D02*
X0269934Y0068400D01*
X0269117Y0069399D02*
X0273883Y0069399D01*
X0282496Y0071396D02*
X0233500Y0071396D01*
X0233500Y0072394D02*
X0282496Y0072394D01*
X0282496Y0073393D02*
X0233908Y0073393D01*
X0234907Y0074391D02*
X0282496Y0074391D01*
X0282496Y0075390D02*
X0235400Y0075390D01*
X0235400Y0076388D02*
X0282496Y0076388D01*
X0282496Y0077387D02*
X0236215Y0077387D01*
X0237214Y0078385D02*
X0282496Y0078385D01*
X0282496Y0079384D02*
X0238212Y0079384D01*
X0239211Y0080382D02*
X0282496Y0080382D01*
X0282496Y0081381D02*
X0240209Y0081381D01*
X0241208Y0082379D02*
X0282496Y0082379D01*
X0282496Y0083378D02*
X0242206Y0083378D01*
X0243205Y0084376D02*
X0282496Y0084376D01*
X0282496Y0085375D02*
X0244203Y0085375D01*
X0245202Y0086373D02*
X0282496Y0086373D01*
X0282496Y0087372D02*
X0246200Y0087372D01*
X0247199Y0088370D02*
X0282496Y0088370D01*
X0282496Y0089369D02*
X0248197Y0089369D01*
X0249196Y0090368D02*
X0282496Y0090368D01*
X0282496Y0091366D02*
X0250194Y0091366D01*
X0245536Y0092365D02*
X0215002Y0092365D01*
X0214806Y0091891D02*
X0215400Y0093324D01*
X0215400Y0099676D01*
X0214806Y0101109D01*
X0213709Y0102206D01*
X0212276Y0102800D01*
X0210724Y0102800D01*
X0209291Y0102206D01*
X0208194Y0101109D01*
X0207600Y0099676D01*
X0207600Y0093324D01*
X0208194Y0091891D01*
X0209291Y0090794D01*
X0210724Y0090200D01*
X0212276Y0090200D01*
X0213709Y0090794D01*
X0214806Y0091891D01*
X0214281Y0091366D02*
X0244538Y0091366D01*
X0243539Y0090368D02*
X0233148Y0090368D01*
X0233115Y0090400D02*
X0231800Y0090400D01*
X0231800Y0086800D01*
X0231200Y0086800D01*
X0231200Y0090400D01*
X0229885Y0090400D01*
X0227600Y0088115D01*
X0227600Y0086800D01*
X0231200Y0086800D01*
X0231200Y0086200D01*
X0227600Y0086200D01*
X0227600Y0084885D01*
X0229885Y0082600D01*
X0231200Y0082600D01*
X0231200Y0086200D01*
X0231800Y0086200D01*
X0231800Y0086800D01*
X0235400Y0086800D01*
X0235400Y0088115D01*
X0233115Y0090400D01*
X0231800Y0090368D02*
X0231200Y0090368D01*
X0231200Y0089369D02*
X0231800Y0089369D01*
X0231800Y0088370D02*
X0231200Y0088370D01*
X0231200Y0087372D02*
X0231800Y0087372D01*
X0231500Y0086500D02*
X0229500Y0086500D01*
X0210500Y0105500D01*
X0150500Y0105500D01*
X0141500Y0096500D01*
X0141800Y0096359D02*
X0147600Y0096359D01*
X0147600Y0097357D02*
X0145400Y0097357D01*
X0145400Y0096800D02*
X0145400Y0099284D01*
X0145250Y0100038D01*
X0144956Y0100747D01*
X0144529Y0101386D01*
X0143986Y0101929D01*
X0143347Y0102356D01*
X0142638Y0102650D01*
X0141884Y0102800D01*
X0141800Y0102800D01*
X0141800Y0096800D01*
X0145400Y0096800D01*
X0145400Y0095360D02*
X0147532Y0095360D01*
X0146533Y0094362D02*
X0145400Y0094362D01*
X0145330Y0093363D02*
X0145535Y0093363D01*
X0148196Y0090368D02*
X0150320Y0090368D01*
X0152680Y0090368D02*
X0160320Y0090368D01*
X0158719Y0091366D02*
X0154281Y0091366D01*
X0155002Y0092365D02*
X0157998Y0092365D01*
X0157600Y0093363D02*
X0155400Y0093363D01*
X0155400Y0094362D02*
X0157600Y0094362D01*
X0157600Y0095360D02*
X0155400Y0095360D01*
X0156187Y0096359D02*
X0157600Y0096359D01*
X0157600Y0097357D02*
X0157185Y0097357D01*
X0155523Y0101351D02*
X0154564Y0101351D01*
X0153363Y0102350D02*
X0156521Y0102350D01*
X0157520Y0103348D02*
X0133177Y0103348D01*
X0133363Y0102350D02*
X0139643Y0102350D01*
X0141200Y0102350D02*
X0141800Y0102350D01*
X0141800Y0101351D02*
X0141200Y0101351D01*
X0141200Y0100353D02*
X0141800Y0100353D01*
X0141800Y0099354D02*
X0141200Y0099354D01*
X0141200Y0098356D02*
X0141800Y0098356D01*
X0141800Y0097357D02*
X0141200Y0097357D01*
X0141200Y0096359D02*
X0135400Y0096359D01*
X0135400Y0097357D02*
X0137600Y0097357D01*
X0137600Y0098356D02*
X0135400Y0098356D01*
X0135400Y0099354D02*
X0137614Y0099354D01*
X0137880Y0100353D02*
X0135120Y0100353D01*
X0134564Y0101351D02*
X0138447Y0101351D01*
X0135174Y0105345D02*
X0159517Y0105345D01*
X0158518Y0104347D02*
X0134175Y0104347D01*
X0137500Y0110500D02*
X0123500Y0096500D01*
X0121500Y0096500D01*
X0116455Y0086373D02*
X0180798Y0086373D01*
X0181797Y0085375D02*
X0117453Y0085375D01*
X0118452Y0084376D02*
X0182795Y0084376D01*
X0183794Y0083378D02*
X0119450Y0083378D01*
X0120449Y0082379D02*
X0184792Y0082379D01*
X0185791Y0081381D02*
X0121448Y0081381D01*
X0122446Y0080382D02*
X0186789Y0080382D01*
X0187788Y0079384D02*
X0123445Y0079384D01*
X0124443Y0078385D02*
X0188786Y0078385D01*
X0189785Y0077387D02*
X0125442Y0077387D01*
X0126440Y0076388D02*
X0190783Y0076388D01*
X0191782Y0075390D02*
X0175439Y0075390D01*
X0176437Y0074391D02*
X0228093Y0074391D01*
X0229092Y0073393D02*
X0177436Y0073393D01*
X0178434Y0072394D02*
X0179745Y0072394D01*
X0183255Y0072394D02*
X0189745Y0072394D01*
X0188480Y0071396D02*
X0184520Y0071396D01*
X0185101Y0070397D02*
X0187899Y0070397D01*
X0187600Y0069399D02*
X0185400Y0069399D01*
X0185400Y0068400D02*
X0187600Y0068400D01*
X0187573Y0067402D02*
X0185400Y0067402D01*
X0185400Y0066403D02*
X0186575Y0066403D01*
X0185576Y0065405D02*
X0185400Y0065405D01*
X0181500Y0066500D02*
X0174500Y0073500D01*
X0126500Y0073500D01*
X0107500Y0092500D01*
X0107500Y0098500D01*
X0096500Y0109500D01*
X0096500Y0124500D01*
X0058500Y0162500D01*
X0056618Y0158232D02*
X0057500Y0157500D01*
X0057500Y0153500D01*
X0094500Y0116500D01*
X0094500Y0101500D01*
X0097500Y0098500D01*
X0097500Y0080500D01*
X0111500Y0066500D01*
X0105500Y0059500D02*
X0098500Y0059500D01*
X0105500Y0059500D02*
X0114500Y0050500D01*
X0118500Y0050500D01*
X0119020Y0049807D01*
X0099020Y0049807D02*
X0098500Y0050500D01*
X0087500Y0061500D01*
X0087500Y0080500D01*
X0035500Y0132500D01*
X0021500Y0132500D01*
X0021185Y0133232D01*
X0018647Y0130308D02*
X0015136Y0130308D01*
X0014500Y0129309D02*
X0029262Y0129309D01*
X0029134Y0128311D02*
X0014500Y0128311D01*
X0014500Y0127312D02*
X0029197Y0127312D01*
X0029610Y0126314D02*
X0014500Y0126314D01*
X0014500Y0125315D02*
X0030451Y0125315D01*
X0029675Y0130308D02*
X0023723Y0130308D01*
X0017802Y0131306D02*
X0016135Y0131306D01*
X0017133Y0132305D02*
X0017389Y0132305D01*
X0023708Y0140293D02*
X0029669Y0140293D01*
X0030593Y0141292D02*
X0024562Y0141292D01*
X0024975Y0142290D02*
X0041017Y0142290D01*
X0040945Y0143289D02*
X0025047Y0143289D01*
X0024929Y0144287D02*
X0041064Y0144287D01*
X0041477Y0145286D02*
X0035511Y0145286D01*
X0036370Y0146284D02*
X0042397Y0146284D01*
X0042299Y0150278D02*
X0036329Y0150278D01*
X0036743Y0149280D02*
X0045892Y0149280D01*
X0046890Y0148281D02*
X0036858Y0148281D01*
X0036783Y0147283D02*
X0047889Y0147283D01*
X0047217Y0146284D02*
X0048887Y0146284D01*
X0048137Y0145286D02*
X0049886Y0145286D01*
X0050884Y0144287D02*
X0048551Y0144287D01*
X0048669Y0143289D02*
X0051883Y0143289D01*
X0052881Y0142290D02*
X0048597Y0142290D01*
X0048184Y0141292D02*
X0053880Y0141292D01*
X0053291Y0140293D02*
X0047330Y0140293D01*
X0042445Y0136299D02*
X0036376Y0136299D01*
X0035526Y0135301D02*
X0041544Y0135301D01*
X0041082Y0134302D02*
X0036526Y0134302D01*
X0048165Y0131306D02*
X0052847Y0131306D01*
X0056867Y0132305D02*
X0048560Y0132305D01*
X0057700Y0144500D02*
X0058806Y0144958D01*
X0059892Y0146045D01*
X0060480Y0147464D01*
X0060480Y0147691D01*
X0082772Y0125400D01*
X0081800Y0125400D01*
X0081800Y0121800D01*
X0081200Y0121800D01*
X0081200Y0125400D01*
X0079885Y0125400D01*
X0079156Y0124672D01*
X0078328Y0125500D01*
X0059328Y0144500D01*
X0057700Y0144500D01*
X0059133Y0145286D02*
X0062886Y0145286D01*
X0061887Y0146284D02*
X0059992Y0146284D01*
X0060405Y0147283D02*
X0060889Y0147283D01*
X0059541Y0144287D02*
X0063884Y0144287D01*
X0064883Y0143289D02*
X0060540Y0143289D01*
X0061538Y0142290D02*
X0065881Y0142290D01*
X0066880Y0141292D02*
X0062537Y0141292D01*
X0063535Y0140293D02*
X0067879Y0140293D01*
X0068877Y0139295D02*
X0064534Y0139295D01*
X0065532Y0138296D02*
X0069876Y0138296D01*
X0070874Y0137298D02*
X0066531Y0137298D01*
X0067529Y0136299D02*
X0071873Y0136299D01*
X0072871Y0135301D02*
X0068528Y0135301D01*
X0069526Y0134302D02*
X0073870Y0134302D01*
X0074868Y0133303D02*
X0070525Y0133303D01*
X0071523Y0132305D02*
X0075867Y0132305D01*
X0076865Y0131306D02*
X0072522Y0131306D01*
X0073520Y0130308D02*
X0077864Y0130308D01*
X0078862Y0129309D02*
X0074519Y0129309D01*
X0075517Y0128311D02*
X0079861Y0128311D01*
X0080859Y0127312D02*
X0076516Y0127312D01*
X0077514Y0126314D02*
X0081858Y0126314D01*
X0081800Y0125315D02*
X0081200Y0125315D01*
X0081200Y0124317D02*
X0081800Y0124317D01*
X0081800Y0123318D02*
X0081200Y0123318D01*
X0081200Y0122320D02*
X0081800Y0122320D01*
X0081800Y0121800D02*
X0085400Y0121800D01*
X0085400Y0122772D01*
X0092500Y0115672D01*
X0092500Y0102707D01*
X0092276Y0102800D01*
X0090724Y0102800D01*
X0089291Y0102206D01*
X0088194Y0101109D01*
X0088055Y0100774D01*
X0081228Y0107600D01*
X0083115Y0107600D01*
X0085400Y0109885D01*
X0085400Y0113115D01*
X0083115Y0115400D01*
X0079885Y0115400D01*
X0079500Y0115015D01*
X0079500Y0117985D01*
X0079885Y0117600D01*
X0081200Y0117600D01*
X0081200Y0121200D01*
X0081800Y0121200D01*
X0081800Y0121800D01*
X0081800Y0121321D02*
X0086850Y0121321D01*
X0087849Y0120323D02*
X0085400Y0120323D01*
X0085400Y0119885D02*
X0085400Y0121200D01*
X0081800Y0121200D01*
X0081800Y0117600D01*
X0083115Y0117600D01*
X0085400Y0119885D01*
X0084840Y0119324D02*
X0088847Y0119324D01*
X0089846Y0118326D02*
X0083841Y0118326D01*
X0081800Y0118326D02*
X0081200Y0118326D01*
X0081200Y0119324D02*
X0081800Y0119324D01*
X0081800Y0120323D02*
X0081200Y0120323D01*
X0085400Y0122320D02*
X0085852Y0122320D01*
X0079800Y0125315D02*
X0078513Y0125315D01*
X0079500Y0117327D02*
X0090844Y0117327D01*
X0091843Y0116329D02*
X0079500Y0116329D01*
X0079500Y0115330D02*
X0079815Y0115330D01*
X0083185Y0115330D02*
X0092500Y0115330D01*
X0092500Y0114332D02*
X0084184Y0114332D01*
X0085182Y0113333D02*
X0092500Y0113333D01*
X0092500Y0112335D02*
X0085400Y0112335D01*
X0085400Y0111336D02*
X0092500Y0111336D01*
X0092500Y0110338D02*
X0085400Y0110338D01*
X0084855Y0109339D02*
X0092500Y0109339D01*
X0092500Y0108341D02*
X0083856Y0108341D01*
X0082485Y0106344D02*
X0092500Y0106344D01*
X0092500Y0107342D02*
X0081486Y0107342D01*
X0083483Y0105345D02*
X0092500Y0105345D01*
X0092500Y0104347D02*
X0084482Y0104347D01*
X0085480Y0103348D02*
X0092500Y0103348D01*
X0089637Y0102350D02*
X0086479Y0102350D01*
X0087477Y0101351D02*
X0088436Y0101351D01*
X0069812Y0095360D02*
X0038468Y0095360D01*
X0037470Y0096359D02*
X0068813Y0096359D01*
X0067814Y0097357D02*
X0027471Y0097357D01*
X0026473Y0098356D02*
X0066816Y0098356D01*
X0051180Y0094362D02*
X0039467Y0094362D01*
X0040465Y0093363D02*
X0049074Y0093363D01*
X0048075Y0092365D02*
X0041464Y0092365D01*
X0042462Y0091366D02*
X0047077Y0091366D01*
X0046515Y0090368D02*
X0043461Y0090368D01*
X0044459Y0089369D02*
X0046101Y0089369D01*
X0045687Y0088370D02*
X0045458Y0088370D01*
X0041285Y0104347D02*
X0024707Y0104347D01*
X0060480Y0125315D02*
X0063856Y0125315D01*
X0062858Y0126314D02*
X0060480Y0126314D01*
X0060480Y0127312D02*
X0061859Y0127312D01*
X0060861Y0128311D02*
X0060480Y0128311D01*
X0078543Y0145286D02*
X0096500Y0145286D01*
X0096500Y0146284D02*
X0077544Y0146284D01*
X0076546Y0147283D02*
X0096500Y0147283D01*
X0096500Y0144287D02*
X0079541Y0144287D01*
X0080540Y0143289D02*
X0096500Y0143289D01*
X0096500Y0142290D02*
X0081538Y0142290D01*
X0082537Y0141292D02*
X0096500Y0141292D01*
X0096500Y0140293D02*
X0083535Y0140293D01*
X0084534Y0139295D02*
X0096500Y0139295D01*
X0096500Y0138296D02*
X0085532Y0138296D01*
X0086531Y0137298D02*
X0096500Y0137298D01*
X0096500Y0136299D02*
X0087529Y0136299D01*
X0088528Y0135301D02*
X0096500Y0135301D01*
X0096500Y0134302D02*
X0089526Y0134302D01*
X0090525Y0133303D02*
X0096500Y0133303D01*
X0096500Y0132305D02*
X0091523Y0132305D01*
X0092522Y0131306D02*
X0096500Y0131306D01*
X0096500Y0130308D02*
X0093520Y0130308D01*
X0094519Y0129309D02*
X0096500Y0129309D01*
X0096500Y0128311D02*
X0095517Y0128311D01*
X0110500Y0150500D02*
X0172500Y0150500D01*
X0155332Y0171247D02*
X0152075Y0171247D01*
X0153074Y0172245D02*
X0153259Y0172245D01*
X0146500Y0176500D02*
X0146500Y0193500D01*
X0127500Y0212500D01*
X0127500Y0233500D01*
X0127484Y0233783D01*
X0127500Y0234500D01*
X0144500Y0251500D01*
X0158626Y0251500D01*
X0161518Y0254123D02*
X0172295Y0254123D01*
X0171296Y0253125D02*
X0162517Y0253125D01*
X0162526Y0252126D02*
X0170298Y0252126D01*
X0169299Y0251128D02*
X0162526Y0251128D01*
X0162526Y0250129D02*
X0168301Y0250129D01*
X0168500Y0247500D02*
X0177500Y0256500D01*
X0264500Y0256500D01*
X0275500Y0245500D01*
X0266500Y0251500D02*
X0266500Y0176500D01*
X0270262Y0180234D02*
X0270947Y0180234D01*
X0265332Y0171247D02*
X0257668Y0171247D01*
X0259741Y0172245D02*
X0263259Y0172245D01*
X0262261Y0173244D02*
X0260739Y0173244D01*
X0261302Y0174242D02*
X0261698Y0174242D01*
X0255332Y0171247D02*
X0247668Y0171247D01*
X0249741Y0172245D02*
X0253259Y0172245D01*
X0252261Y0173244D02*
X0250739Y0173244D01*
X0251302Y0174242D02*
X0251698Y0174242D01*
X0251896Y0179235D02*
X0251104Y0179235D01*
X0251200Y0180234D02*
X0251800Y0180234D01*
X0252053Y0180234D02*
X0252738Y0180234D01*
X0251800Y0181232D02*
X0251200Y0181232D01*
X0251200Y0182231D02*
X0251800Y0182231D01*
X0251800Y0183229D02*
X0251200Y0183229D01*
X0251200Y0184228D02*
X0251800Y0184228D01*
X0251800Y0185226D02*
X0251200Y0185226D01*
X0251200Y0186225D02*
X0245400Y0186225D01*
X0245400Y0187223D02*
X0247600Y0187223D01*
X0247600Y0188222D02*
X0245400Y0188222D01*
X0245400Y0189220D02*
X0247600Y0189220D01*
X0247825Y0190219D02*
X0245175Y0190219D01*
X0244698Y0191217D02*
X0248358Y0191217D01*
X0249442Y0192216D02*
X0243686Y0192216D01*
X0239314Y0192216D02*
X0233558Y0192216D01*
X0233347Y0192356D02*
X0232638Y0192650D01*
X0231884Y0192800D01*
X0231800Y0192800D01*
X0231800Y0186800D01*
X0235400Y0186800D01*
X0235400Y0189284D01*
X0235250Y0190038D01*
X0234956Y0190747D01*
X0234529Y0191386D01*
X0233986Y0191929D01*
X0233347Y0192356D01*
X0231800Y0192216D02*
X0231200Y0192216D01*
X0231200Y0191217D02*
X0231800Y0191217D01*
X0231800Y0190219D02*
X0231200Y0190219D01*
X0231200Y0189220D02*
X0231800Y0189220D01*
X0231800Y0188222D02*
X0231200Y0188222D01*
X0231200Y0187223D02*
X0231800Y0187223D01*
X0231800Y0186225D02*
X0237600Y0186225D01*
X0237600Y0187223D02*
X0235400Y0187223D01*
X0235400Y0188222D02*
X0237600Y0188222D01*
X0237600Y0189220D02*
X0235400Y0189220D01*
X0235175Y0190219D02*
X0237825Y0190219D01*
X0238302Y0191217D02*
X0234642Y0191217D01*
X0229442Y0192216D02*
X0223686Y0192216D01*
X0223043Y0193214D02*
X0255012Y0193214D01*
X0253986Y0191929D02*
X0253347Y0192356D01*
X0252638Y0192650D01*
X0251884Y0192800D01*
X0251800Y0192800D01*
X0251800Y0186800D01*
X0255400Y0186800D01*
X0255400Y0189284D01*
X0255250Y0190038D01*
X0254956Y0190747D01*
X0254529Y0191386D01*
X0253986Y0191929D01*
X0253558Y0192216D02*
X0259314Y0192216D01*
X0258302Y0191217D02*
X0254642Y0191217D01*
X0255175Y0190219D02*
X0257825Y0190219D01*
X0257600Y0189220D02*
X0255400Y0189220D01*
X0255400Y0188222D02*
X0257600Y0188222D01*
X0257600Y0187223D02*
X0255400Y0187223D01*
X0255400Y0185226D02*
X0257600Y0185226D01*
X0257600Y0184228D02*
X0255400Y0184228D01*
X0255303Y0183229D02*
X0257639Y0183229D01*
X0258053Y0182231D02*
X0254941Y0182231D01*
X0250947Y0180234D02*
X0250262Y0180234D01*
X0248059Y0182231D02*
X0244947Y0182231D01*
X0245361Y0183229D02*
X0247697Y0183229D01*
X0247600Y0184228D02*
X0245400Y0184228D01*
X0245400Y0185226D02*
X0247600Y0185226D01*
X0251200Y0187223D02*
X0251800Y0187223D01*
X0251800Y0186225D02*
X0257600Y0186225D01*
X0251800Y0188222D02*
X0251200Y0188222D01*
X0251200Y0189220D02*
X0251800Y0189220D01*
X0251800Y0190219D02*
X0251200Y0190219D01*
X0251200Y0191217D02*
X0251800Y0191217D01*
X0251800Y0192216D02*
X0251200Y0192216D01*
X0256500Y0195500D02*
X0222500Y0195500D01*
X0213500Y0186500D01*
X0211500Y0186500D01*
X0214698Y0191217D02*
X0215389Y0191217D01*
X0216387Y0192216D02*
X0213686Y0192216D01*
X0209314Y0192216D02*
X0183686Y0192216D01*
X0179314Y0192216D02*
X0173686Y0192216D01*
X0173500Y0193214D02*
X0199270Y0193214D01*
X0198272Y0194213D02*
X0173500Y0194213D01*
X0174040Y0195211D02*
X0197600Y0195211D01*
X0197600Y0196210D02*
X0179977Y0196210D01*
X0178500Y0198500D02*
X0197500Y0198500D01*
X0199500Y0200500D01*
X0263500Y0200500D01*
X0262030Y0198207D02*
X0205309Y0198207D01*
X0198372Y0202201D02*
X0181029Y0202201D01*
X0180031Y0201202D02*
X0197374Y0201202D01*
X0189500Y0216500D02*
X0189500Y0235500D01*
X0192500Y0238500D01*
X0205500Y0238500D01*
X0209500Y0234500D01*
X0210161Y0233783D01*
X0207210Y0230159D02*
X0205239Y0230159D01*
X0202287Y0233783D02*
X0201500Y0233500D01*
X0201500Y0225500D01*
X0171500Y0195500D01*
X0171500Y0186500D01*
X0174698Y0191217D02*
X0178302Y0191217D01*
X0177825Y0190219D02*
X0175175Y0190219D01*
X0175400Y0189220D02*
X0177600Y0189220D01*
X0177600Y0188222D02*
X0175400Y0188222D01*
X0175400Y0187223D02*
X0177600Y0187223D01*
X0177600Y0186225D02*
X0175400Y0186225D01*
X0175400Y0185226D02*
X0177600Y0185226D01*
X0177600Y0184228D02*
X0175400Y0184228D01*
X0175361Y0183229D02*
X0177639Y0183229D01*
X0178053Y0182231D02*
X0174947Y0182231D01*
X0175038Y0196210D02*
X0177023Y0196210D01*
X0176133Y0197208D02*
X0176037Y0197208D01*
X0161500Y0188500D02*
X0189500Y0216500D01*
X0181500Y0216500D02*
X0179500Y0216500D01*
X0172500Y0223500D01*
X0158500Y0223500D01*
X0155500Y0224500D02*
X0158500Y0227500D01*
X0180500Y0227500D01*
X0187500Y0234500D01*
X0187500Y0236500D01*
X0191500Y0240500D01*
X0211500Y0240500D01*
X0217500Y0234500D01*
X0218035Y0233783D01*
X0215084Y0230159D02*
X0213113Y0230159D01*
X0215683Y0239146D02*
X0253026Y0239146D01*
X0252027Y0240144D02*
X0214684Y0240144D01*
X0228500Y0233500D02*
X0233500Y0233500D01*
X0233783Y0233783D01*
X0236994Y0237149D02*
X0238447Y0237149D01*
X0243274Y0238147D02*
X0254024Y0238147D01*
X0255023Y0237149D02*
X0244868Y0237149D01*
X0245670Y0236150D02*
X0256021Y0236150D01*
X0256877Y0235152D02*
X0246102Y0235152D01*
X0246306Y0234153D02*
X0256693Y0234153D01*
X0256693Y0233155D02*
X0246265Y0233155D01*
X0246018Y0232156D02*
X0256984Y0232156D01*
X0257397Y0231158D02*
X0245497Y0231158D01*
X0244579Y0230159D02*
X0258391Y0230159D01*
X0261343Y0233783D02*
X0260500Y0234500D01*
X0252500Y0242500D01*
X0190500Y0242500D01*
X0179500Y0231500D01*
X0178626Y0231500D01*
X0178626Y0241500D02*
X0186500Y0241500D01*
X0194500Y0249500D01*
X0260500Y0249500D01*
X0261343Y0249531D01*
X0263500Y0254500D02*
X0266500Y0251500D01*
X0263500Y0254500D02*
X0196500Y0254500D01*
X0189500Y0247500D01*
X0178500Y0247500D01*
X0168500Y0237500D01*
X0158500Y0237500D01*
X0141500Y0220500D01*
X0141500Y0216500D01*
X0137500Y0212500D02*
X0140500Y0209500D01*
X0142500Y0209500D01*
X0149500Y0216500D01*
X0151500Y0216500D01*
X0155500Y0212500D02*
X0155500Y0224500D01*
X0155500Y0212500D02*
X0151500Y0208500D01*
X0151500Y0186500D01*
X0144500Y0191415D02*
X0143709Y0192206D01*
X0142276Y0192800D01*
X0140724Y0192800D01*
X0139291Y0192206D01*
X0138194Y0191109D01*
X0137600Y0189676D01*
X0137600Y0183324D01*
X0138194Y0181891D01*
X0138817Y0181268D01*
X0138534Y0181412D01*
X0137741Y0181669D01*
X0137000Y0181787D01*
X0137000Y0177000D01*
X0136000Y0177000D01*
X0136000Y0181787D01*
X0135259Y0181669D01*
X0134466Y0181412D01*
X0134183Y0181268D01*
X0134806Y0181891D01*
X0135400Y0183324D01*
X0135400Y0189676D01*
X0134806Y0191109D01*
X0133709Y0192206D01*
X0132276Y0192800D01*
X0130724Y0192800D01*
X0129291Y0192206D01*
X0128194Y0191109D01*
X0127600Y0189676D01*
X0127600Y0183324D01*
X0128194Y0181891D01*
X0128801Y0181284D01*
X0127554Y0181800D01*
X0125446Y0181800D01*
X0124199Y0181284D01*
X0124806Y0181891D01*
X0125400Y0183324D01*
X0125400Y0189676D01*
X0124806Y0191109D01*
X0123709Y0192206D01*
X0122276Y0192800D01*
X0120724Y0192800D01*
X0119291Y0192206D01*
X0118194Y0191109D01*
X0117600Y0189676D01*
X0117600Y0183324D01*
X0118194Y0181891D01*
X0118801Y0181284D01*
X0117554Y0181800D01*
X0115446Y0181800D01*
X0114199Y0181284D01*
X0114806Y0181891D01*
X0115400Y0183324D01*
X0115400Y0189676D01*
X0114806Y0191109D01*
X0113709Y0192206D01*
X0112276Y0192800D01*
X0110724Y0192800D01*
X0109291Y0192206D01*
X0108194Y0191109D01*
X0107600Y0189676D01*
X0107600Y0183324D01*
X0108194Y0181891D01*
X0108801Y0181284D01*
X0107554Y0181800D01*
X0105446Y0181800D01*
X0103498Y0180993D01*
X0102500Y0179995D01*
X0102500Y0228672D01*
X0107087Y0233258D01*
X0107087Y0232859D01*
X0107794Y0231150D01*
X0109102Y0229842D01*
X0110811Y0229134D01*
X0112661Y0229134D01*
X0114370Y0229842D01*
X0115678Y0231150D01*
X0115714Y0231236D01*
X0116064Y0230754D01*
X0116581Y0230237D01*
X0117173Y0229807D01*
X0117825Y0229475D01*
X0118521Y0229248D01*
X0119244Y0229134D01*
X0119421Y0229134D01*
X0119421Y0233594D01*
X0119799Y0233594D01*
X0119799Y0229134D01*
X0119976Y0229134D01*
X0120699Y0229248D01*
X0121395Y0229475D01*
X0122047Y0229807D01*
X0122639Y0230237D01*
X0123157Y0230754D01*
X0123507Y0231236D01*
X0123543Y0231150D01*
X0124850Y0229842D01*
X0125500Y0229573D01*
X0125500Y0211672D01*
X0126672Y0210500D01*
X0144500Y0192672D01*
X0144500Y0191415D01*
X0144500Y0192216D02*
X0143686Y0192216D01*
X0143957Y0193214D02*
X0102500Y0193214D01*
X0102500Y0192216D02*
X0109314Y0192216D01*
X0108302Y0191217D02*
X0102500Y0191217D01*
X0102500Y0190219D02*
X0107825Y0190219D01*
X0107600Y0189220D02*
X0102500Y0189220D01*
X0102500Y0188222D02*
X0107600Y0188222D01*
X0107600Y0187223D02*
X0102500Y0187223D01*
X0102500Y0186225D02*
X0107600Y0186225D01*
X0107600Y0185226D02*
X0102500Y0185226D01*
X0102500Y0184228D02*
X0107600Y0184228D01*
X0107639Y0183229D02*
X0102500Y0183229D01*
X0102500Y0182231D02*
X0108053Y0182231D01*
X0104075Y0181232D02*
X0102500Y0181232D01*
X0102500Y0180234D02*
X0102738Y0180234D01*
X0098500Y0180234D02*
X0050214Y0180234D01*
X0051212Y0179235D02*
X0098500Y0179235D01*
X0098500Y0178237D02*
X0052211Y0178237D01*
X0052606Y0177841D02*
X0048038Y0182409D01*
X0045307Y0182409D01*
X0045307Y0175110D01*
X0052606Y0175110D01*
X0052606Y0177841D01*
X0052606Y0177238D02*
X0098500Y0177238D01*
X0098500Y0176239D02*
X0052606Y0176239D01*
X0052606Y0175241D02*
X0098500Y0175241D01*
X0098414Y0174242D02*
X0045307Y0174242D01*
X0045307Y0174110D02*
X0045307Y0175110D01*
X0044307Y0175110D01*
X0044307Y0174110D01*
X0045307Y0174110D01*
X0045307Y0166811D01*
X0048038Y0166811D01*
X0052606Y0171380D01*
X0052606Y0174110D01*
X0045307Y0174110D01*
X0044807Y0174610D02*
X0045500Y0175500D01*
X0055500Y0175500D01*
X0096500Y0216500D01*
X0096200Y0216200D02*
X0096200Y0212600D01*
X0094885Y0212600D01*
X0092600Y0214885D01*
X0092600Y0216200D01*
X0096200Y0216200D01*
X0096200Y0216180D02*
X0096800Y0216180D01*
X0096800Y0217178D02*
X0096200Y0217178D01*
X0096200Y0218177D02*
X0096800Y0218177D01*
X0096800Y0219175D02*
X0096200Y0219175D01*
X0096200Y0220174D02*
X0096800Y0220174D01*
X0098341Y0220174D02*
X0098500Y0220174D01*
X0098500Y0221172D02*
X0003968Y0221172D01*
X0003968Y0220174D02*
X0084659Y0220174D01*
X0084885Y0220400D02*
X0082600Y0218115D01*
X0082600Y0214885D01*
X0084885Y0212600D01*
X0088115Y0212600D01*
X0090400Y0214885D01*
X0090400Y0218115D01*
X0088115Y0220400D01*
X0084885Y0220400D01*
X0083660Y0219175D02*
X0003968Y0219175D01*
X0003968Y0218177D02*
X0082662Y0218177D01*
X0082600Y0217178D02*
X0003968Y0217178D01*
X0003968Y0216180D02*
X0082600Y0216180D01*
X0082600Y0215181D02*
X0003968Y0215181D01*
X0003968Y0214183D02*
X0083302Y0214183D01*
X0084300Y0213184D02*
X0003968Y0213184D01*
X0003968Y0212186D02*
X0098500Y0212186D01*
X0098500Y0211187D02*
X0003968Y0211187D01*
X0003968Y0210189D02*
X0098500Y0210189D01*
X0098500Y0209190D02*
X0003968Y0209190D01*
X0003968Y0208192D02*
X0031149Y0208192D01*
X0031409Y0208299D02*
X0028476Y0207084D01*
X0026231Y0204839D01*
X0025016Y0201906D01*
X0025016Y0198732D01*
X0026231Y0195798D01*
X0028476Y0193554D01*
X0031409Y0192339D01*
X0034583Y0192339D01*
X0037517Y0193554D01*
X0039761Y0195798D01*
X0040976Y0198732D01*
X0040976Y0201906D01*
X0039761Y0204839D01*
X0037517Y0207084D01*
X0034583Y0208299D01*
X0031409Y0208299D01*
X0028739Y0207193D02*
X0003968Y0207193D01*
X0003968Y0206195D02*
X0027586Y0206195D01*
X0026588Y0205196D02*
X0003968Y0205196D01*
X0003968Y0204198D02*
X0025965Y0204198D01*
X0025551Y0203199D02*
X0003968Y0203199D01*
X0003968Y0202201D02*
X0025138Y0202201D01*
X0025016Y0201202D02*
X0003968Y0201202D01*
X0003968Y0200204D02*
X0025016Y0200204D01*
X0025016Y0199205D02*
X0003968Y0199205D01*
X0003968Y0198207D02*
X0025233Y0198207D01*
X0025647Y0197208D02*
X0003968Y0197208D01*
X0003968Y0196210D02*
X0026060Y0196210D01*
X0026818Y0195211D02*
X0003968Y0195211D01*
X0003968Y0194213D02*
X0027816Y0194213D01*
X0029295Y0193214D02*
X0003968Y0193214D01*
X0003968Y0192216D02*
X0050908Y0192216D01*
X0052512Y0191551D02*
X0049289Y0192886D01*
X0046823Y0195352D01*
X0045488Y0198575D01*
X0045488Y0202063D01*
X0046823Y0205285D01*
X0049289Y0207752D01*
X0052512Y0209087D01*
X0056000Y0209087D01*
X0059222Y0207752D01*
X0061689Y0205285D01*
X0063024Y0202063D01*
X0063024Y0198575D01*
X0061689Y0195352D01*
X0059222Y0192886D01*
X0056000Y0191551D01*
X0052512Y0191551D01*
X0048961Y0193214D02*
X0036697Y0193214D01*
X0038176Y0194213D02*
X0047963Y0194213D01*
X0046964Y0195211D02*
X0039174Y0195211D01*
X0039932Y0196210D02*
X0046468Y0196210D01*
X0046054Y0197208D02*
X0040345Y0197208D01*
X0040759Y0198207D02*
X0045641Y0198207D01*
X0045488Y0199205D02*
X0040976Y0199205D01*
X0040976Y0200204D02*
X0045488Y0200204D01*
X0045488Y0201202D02*
X0040976Y0201202D01*
X0040854Y0202201D02*
X0045545Y0202201D01*
X0045959Y0203199D02*
X0040441Y0203199D01*
X0040027Y0204198D02*
X0046373Y0204198D01*
X0046786Y0205196D02*
X0039405Y0205196D01*
X0038406Y0206195D02*
X0047732Y0206195D01*
X0048731Y0207193D02*
X0037253Y0207193D01*
X0034843Y0208192D02*
X0050352Y0208192D01*
X0058160Y0208192D02*
X0098500Y0208192D01*
X0098500Y0207193D02*
X0059781Y0207193D01*
X0060779Y0206195D02*
X0098500Y0206195D01*
X0098500Y0205196D02*
X0061726Y0205196D01*
X0062139Y0204198D02*
X0098500Y0204198D01*
X0098500Y0203199D02*
X0062553Y0203199D01*
X0062967Y0202201D02*
X0098500Y0202201D01*
X0098500Y0201202D02*
X0063024Y0201202D01*
X0063024Y0200204D02*
X0098500Y0200204D01*
X0098500Y0199205D02*
X0063024Y0199205D01*
X0062871Y0198207D02*
X0098500Y0198207D01*
X0098500Y0197208D02*
X0062458Y0197208D01*
X0062044Y0196210D02*
X0098500Y0196210D01*
X0098500Y0195211D02*
X0061548Y0195211D01*
X0060549Y0194213D02*
X0098500Y0194213D01*
X0098500Y0193214D02*
X0059551Y0193214D01*
X0057604Y0192216D02*
X0098500Y0192216D01*
X0098500Y0191217D02*
X0003968Y0191217D01*
X0003968Y0190219D02*
X0098500Y0190219D01*
X0098500Y0189220D02*
X0003968Y0189220D01*
X0003968Y0188222D02*
X0098500Y0188222D01*
X0098500Y0187223D02*
X0003968Y0187223D01*
X0003968Y0186225D02*
X0098500Y0186225D01*
X0098500Y0185226D02*
X0003968Y0185226D01*
X0003968Y0184228D02*
X0098500Y0184228D01*
X0098500Y0183229D02*
X0003968Y0183229D01*
X0003968Y0182231D02*
X0017776Y0182231D01*
X0017955Y0182409D02*
X0013386Y0177841D01*
X0013386Y0175110D01*
X0020685Y0175110D01*
X0020685Y0174110D01*
X0021685Y0174110D01*
X0021685Y0166811D01*
X0024416Y0166811D01*
X0028984Y0171380D01*
X0028984Y0174110D01*
X0021685Y0174110D01*
X0021685Y0175110D01*
X0028984Y0175110D01*
X0028984Y0177841D01*
X0024416Y0182409D01*
X0021685Y0182409D01*
X0021685Y0175110D01*
X0020685Y0175110D01*
X0020685Y0182409D01*
X0017955Y0182409D01*
X0016777Y0181232D02*
X0003968Y0181232D01*
X0003968Y0180234D02*
X0015779Y0180234D01*
X0014780Y0179235D02*
X0003968Y0179235D01*
X0003968Y0178237D02*
X0013782Y0178237D01*
X0013386Y0177238D02*
X0003968Y0177238D01*
X0003968Y0176239D02*
X0013386Y0176239D01*
X0013386Y0175241D02*
X0003968Y0175241D01*
X0003968Y0174242D02*
X0020685Y0174242D01*
X0020685Y0174110D02*
X0013386Y0174110D01*
X0013386Y0171380D01*
X0017955Y0166811D01*
X0020685Y0166811D01*
X0020685Y0174110D01*
X0020685Y0173244D02*
X0021685Y0173244D01*
X0021685Y0174242D02*
X0044307Y0174242D01*
X0044307Y0174110D02*
X0037008Y0174110D01*
X0037008Y0171380D01*
X0041577Y0166811D01*
X0044307Y0166811D01*
X0044307Y0174110D01*
X0044307Y0173244D02*
X0045307Y0173244D01*
X0045307Y0172245D02*
X0044307Y0172245D01*
X0044307Y0171247D02*
X0045307Y0171247D01*
X0045307Y0170248D02*
X0044307Y0170248D01*
X0044307Y0169250D02*
X0045307Y0169250D01*
X0045307Y0168251D02*
X0044307Y0168251D01*
X0044307Y0167253D02*
X0045307Y0167253D01*
X0048479Y0167253D02*
X0093461Y0167253D01*
X0093500Y0168251D02*
X0049478Y0168251D01*
X0050476Y0169250D02*
X0093500Y0169250D01*
X0094420Y0170248D02*
X0051475Y0170248D01*
X0052474Y0171247D02*
X0095419Y0171247D01*
X0096417Y0172245D02*
X0052606Y0172245D01*
X0052606Y0173244D02*
X0097416Y0173244D01*
X0100500Y0173500D02*
X0095500Y0168500D01*
X0095500Y0165500D01*
X0092819Y0165256D02*
X0003968Y0165256D01*
X0003968Y0166254D02*
X0092910Y0166254D01*
X0100500Y0173500D02*
X0100500Y0229500D01*
X0111500Y0240500D01*
X0113841Y0239146D02*
X0129317Y0239146D01*
X0130316Y0240144D02*
X0114181Y0240144D01*
X0114136Y0241143D02*
X0131314Y0241143D01*
X0132313Y0242141D02*
X0113650Y0242141D01*
X0112133Y0243140D02*
X0133311Y0243140D01*
X0134310Y0244138D02*
X0003968Y0244138D01*
X0003968Y0243140D02*
X0110867Y0243140D01*
X0109350Y0242141D02*
X0003968Y0242141D01*
X0003968Y0241143D02*
X0108864Y0241143D01*
X0108316Y0240144D02*
X0003968Y0240144D01*
X0003968Y0239146D02*
X0107317Y0239146D01*
X0106319Y0238147D02*
X0097604Y0238147D01*
X0097773Y0238092D02*
X0097077Y0238319D01*
X0096354Y0238433D01*
X0096177Y0238433D01*
X0096177Y0233973D01*
X0095799Y0233973D01*
X0095799Y0238433D01*
X0095622Y0238433D01*
X0094899Y0238319D01*
X0094203Y0238092D01*
X0093551Y0237760D01*
X0092959Y0237330D01*
X0092442Y0236812D01*
X0092092Y0236331D01*
X0092056Y0236417D01*
X0090748Y0237725D01*
X0089039Y0238433D01*
X0087189Y0238433D01*
X0085480Y0237725D01*
X0084172Y0236417D01*
X0083465Y0234708D01*
X0083465Y0232859D01*
X0084172Y0231150D01*
X0085480Y0229842D01*
X0087189Y0229134D01*
X0089039Y0229134D01*
X0090748Y0229842D01*
X0092056Y0231150D01*
X0092092Y0231236D01*
X0092442Y0230754D01*
X0092959Y0230237D01*
X0093551Y0229807D01*
X0094203Y0229475D01*
X0094899Y0229248D01*
X0095622Y0229134D01*
X0095799Y0229134D01*
X0095799Y0233594D01*
X0096177Y0233594D01*
X0096177Y0233972D01*
X0100638Y0233972D01*
X0100638Y0234149D01*
X0100523Y0234872D01*
X0100297Y0235568D01*
X0099965Y0236220D01*
X0099535Y0236812D01*
X0099017Y0237330D01*
X0098425Y0237760D01*
X0097773Y0238092D01*
X0096177Y0238147D02*
X0095799Y0238147D01*
X0095799Y0237149D02*
X0096177Y0237149D01*
X0096177Y0236150D02*
X0095799Y0236150D01*
X0095799Y0235152D02*
X0096177Y0235152D01*
X0096177Y0234153D02*
X0095799Y0234153D01*
X0095799Y0233155D02*
X0096177Y0233155D01*
X0096177Y0232156D02*
X0095799Y0232156D01*
X0095799Y0231158D02*
X0096177Y0231158D01*
X0096177Y0230159D02*
X0095799Y0230159D01*
X0095799Y0229161D02*
X0096177Y0229161D01*
X0096523Y0229161D02*
X0098500Y0229161D01*
X0098500Y0228162D02*
X0003968Y0228162D01*
X0003968Y0227164D02*
X0098500Y0227164D01*
X0098500Y0226165D02*
X0003968Y0226165D01*
X0003968Y0225167D02*
X0098500Y0225167D01*
X0098500Y0224168D02*
X0003968Y0224168D01*
X0003968Y0223170D02*
X0098500Y0223170D01*
X0098500Y0222171D02*
X0003968Y0222171D01*
X0003968Y0229161D02*
X0087125Y0229161D01*
X0089104Y0229161D02*
X0095454Y0229161D01*
X0093066Y0230159D02*
X0091065Y0230159D01*
X0092059Y0231158D02*
X0092149Y0231158D01*
X0092778Y0237149D02*
X0091324Y0237149D01*
X0089729Y0238147D02*
X0094372Y0238147D01*
X0099198Y0237149D02*
X0105320Y0237149D01*
X0104322Y0236150D02*
X0100001Y0236150D01*
X0100433Y0235152D02*
X0103323Y0235152D01*
X0102325Y0234153D02*
X0100637Y0234153D01*
X0100596Y0233155D02*
X0101326Y0233155D01*
X0103987Y0230159D02*
X0108785Y0230159D01*
X0107791Y0231158D02*
X0104986Y0231158D01*
X0105985Y0232156D02*
X0107378Y0232156D01*
X0107087Y0233155D02*
X0106983Y0233155D01*
X0110747Y0229161D02*
X0102989Y0229161D01*
X0102500Y0228162D02*
X0125500Y0228162D01*
X0125500Y0227164D02*
X0102500Y0227164D01*
X0102500Y0226165D02*
X0125500Y0226165D01*
X0125500Y0225167D02*
X0102500Y0225167D01*
X0102500Y0224168D02*
X0125500Y0224168D01*
X0125500Y0223170D02*
X0102500Y0223170D01*
X0102500Y0222171D02*
X0109256Y0222171D01*
X0109291Y0222206D02*
X0108194Y0221109D01*
X0107600Y0219676D01*
X0107600Y0213324D01*
X0108194Y0211891D01*
X0109291Y0210794D01*
X0110724Y0210200D01*
X0112276Y0210200D01*
X0113709Y0210794D01*
X0114806Y0211891D01*
X0115400Y0213324D01*
X0115400Y0219676D01*
X0114806Y0221109D01*
X0113709Y0222206D01*
X0112276Y0222800D01*
X0110724Y0222800D01*
X0109291Y0222206D01*
X0108257Y0221172D02*
X0102500Y0221172D01*
X0102500Y0220174D02*
X0107806Y0220174D01*
X0107600Y0219175D02*
X0102500Y0219175D01*
X0102500Y0218177D02*
X0107600Y0218177D01*
X0107600Y0217178D02*
X0102500Y0217178D01*
X0102500Y0216180D02*
X0107600Y0216180D01*
X0107600Y0215181D02*
X0102500Y0215181D01*
X0102500Y0214183D02*
X0107600Y0214183D01*
X0107658Y0213184D02*
X0102500Y0213184D01*
X0102500Y0212186D02*
X0108072Y0212186D01*
X0108897Y0211187D02*
X0102500Y0211187D01*
X0102500Y0210189D02*
X0126983Y0210189D01*
X0127981Y0209190D02*
X0102500Y0209190D01*
X0102500Y0208192D02*
X0128980Y0208192D01*
X0129978Y0207193D02*
X0102500Y0207193D01*
X0102500Y0206195D02*
X0130977Y0206195D01*
X0131975Y0205196D02*
X0102500Y0205196D01*
X0102500Y0204198D02*
X0132974Y0204198D01*
X0133972Y0203199D02*
X0102500Y0203199D01*
X0102500Y0202201D02*
X0134971Y0202201D01*
X0135969Y0201202D02*
X0102500Y0201202D01*
X0102500Y0200204D02*
X0136968Y0200204D01*
X0137966Y0199205D02*
X0102500Y0199205D01*
X0102500Y0198207D02*
X0138965Y0198207D01*
X0139963Y0197208D02*
X0102500Y0197208D01*
X0102500Y0196210D02*
X0140962Y0196210D01*
X0141960Y0195211D02*
X0102500Y0195211D01*
X0102500Y0194213D02*
X0142959Y0194213D01*
X0139314Y0192216D02*
X0133686Y0192216D01*
X0134698Y0191217D02*
X0138302Y0191217D01*
X0137825Y0190219D02*
X0135175Y0190219D01*
X0135400Y0189220D02*
X0137600Y0189220D01*
X0137600Y0188222D02*
X0135400Y0188222D01*
X0135400Y0187223D02*
X0137600Y0187223D01*
X0137600Y0186225D02*
X0135400Y0186225D01*
X0135400Y0185226D02*
X0137600Y0185226D01*
X0137600Y0184228D02*
X0135400Y0184228D01*
X0135361Y0183229D02*
X0137639Y0183229D01*
X0138053Y0182231D02*
X0134947Y0182231D01*
X0136000Y0181232D02*
X0137000Y0181232D01*
X0137000Y0180234D02*
X0136000Y0180234D01*
X0136000Y0179235D02*
X0137000Y0179235D01*
X0137000Y0178237D02*
X0136000Y0178237D01*
X0136000Y0177238D02*
X0137000Y0177238D01*
X0137000Y0175241D02*
X0136000Y0175241D01*
X0136000Y0174242D02*
X0137000Y0174242D01*
X0137000Y0173244D02*
X0136000Y0173244D01*
X0136000Y0172245D02*
X0137000Y0172245D01*
X0139661Y0172245D02*
X0143259Y0172245D01*
X0142261Y0173244D02*
X0140685Y0173244D01*
X0141298Y0174242D02*
X0141698Y0174242D01*
X0133339Y0172245D02*
X0129741Y0172245D01*
X0130739Y0173244D02*
X0132314Y0173244D01*
X0131702Y0174242D02*
X0131302Y0174242D01*
X0128053Y0182231D02*
X0124947Y0182231D01*
X0125361Y0183229D02*
X0127639Y0183229D01*
X0127600Y0184228D02*
X0125400Y0184228D01*
X0125400Y0185226D02*
X0127600Y0185226D01*
X0127600Y0186225D02*
X0125400Y0186225D01*
X0125400Y0187223D02*
X0127600Y0187223D01*
X0127600Y0188222D02*
X0125400Y0188222D01*
X0125400Y0189220D02*
X0127600Y0189220D01*
X0127825Y0190219D02*
X0125175Y0190219D01*
X0124698Y0191217D02*
X0128302Y0191217D01*
X0129314Y0192216D02*
X0123686Y0192216D01*
X0119314Y0192216D02*
X0113686Y0192216D01*
X0114698Y0191217D02*
X0118302Y0191217D01*
X0117825Y0190219D02*
X0115175Y0190219D01*
X0115400Y0189220D02*
X0117600Y0189220D01*
X0117600Y0188222D02*
X0115400Y0188222D01*
X0115400Y0187223D02*
X0117600Y0187223D01*
X0117600Y0186225D02*
X0115400Y0186225D01*
X0115400Y0185226D02*
X0117600Y0185226D01*
X0117600Y0184228D02*
X0115400Y0184228D01*
X0115361Y0183229D02*
X0117639Y0183229D01*
X0118053Y0182231D02*
X0114947Y0182231D01*
X0105332Y0171247D02*
X0104075Y0171247D01*
X0098500Y0181232D02*
X0049215Y0181232D01*
X0048216Y0182231D02*
X0098500Y0182231D01*
X0114103Y0211187D02*
X0118897Y0211187D01*
X0119291Y0210794D02*
X0120724Y0210200D01*
X0122276Y0210200D01*
X0123709Y0210794D01*
X0124806Y0211891D01*
X0125400Y0213324D01*
X0125400Y0219676D01*
X0124806Y0221109D01*
X0123709Y0222206D01*
X0122276Y0222800D01*
X0120724Y0222800D01*
X0119291Y0222206D01*
X0118194Y0221109D01*
X0117600Y0219676D01*
X0117600Y0213324D01*
X0118194Y0211891D01*
X0119291Y0210794D01*
X0118072Y0212186D02*
X0114928Y0212186D01*
X0115342Y0213184D02*
X0117658Y0213184D01*
X0117600Y0214183D02*
X0115400Y0214183D01*
X0115400Y0215181D02*
X0117600Y0215181D01*
X0117600Y0216180D02*
X0115400Y0216180D01*
X0115400Y0217178D02*
X0117600Y0217178D01*
X0117600Y0218177D02*
X0115400Y0218177D01*
X0115400Y0219175D02*
X0117600Y0219175D01*
X0117806Y0220174D02*
X0115194Y0220174D01*
X0114743Y0221172D02*
X0118257Y0221172D01*
X0119256Y0222171D02*
X0113744Y0222171D01*
X0112726Y0229161D02*
X0119076Y0229161D01*
X0119421Y0229161D02*
X0119799Y0229161D01*
X0120145Y0229161D02*
X0125500Y0229161D01*
X0124533Y0230159D02*
X0122532Y0230159D01*
X0123450Y0231158D02*
X0123539Y0231158D01*
X0119799Y0231158D02*
X0119421Y0231158D01*
X0119421Y0232156D02*
X0119799Y0232156D01*
X0119799Y0233155D02*
X0119421Y0233155D01*
X0119421Y0234153D02*
X0119799Y0234153D01*
X0119799Y0235152D02*
X0119421Y0235152D01*
X0119421Y0236150D02*
X0119799Y0236150D01*
X0119799Y0237149D02*
X0119421Y0237149D01*
X0119421Y0238147D02*
X0119799Y0238147D01*
X0121226Y0238147D02*
X0125869Y0238147D01*
X0124274Y0237149D02*
X0122821Y0237149D01*
X0117994Y0238147D02*
X0113351Y0238147D01*
X0114947Y0237149D02*
X0116400Y0237149D01*
X0115771Y0231158D02*
X0115681Y0231158D01*
X0114687Y0230159D02*
X0116688Y0230159D01*
X0119421Y0230159D02*
X0119799Y0230159D01*
X0123744Y0222171D02*
X0125500Y0222171D01*
X0125500Y0221172D02*
X0124743Y0221172D01*
X0125194Y0220174D02*
X0125500Y0220174D01*
X0125500Y0219175D02*
X0125400Y0219175D01*
X0125400Y0218177D02*
X0125500Y0218177D01*
X0125500Y0217178D02*
X0125400Y0217178D01*
X0125400Y0216180D02*
X0125500Y0216180D01*
X0125500Y0215181D02*
X0125400Y0215181D01*
X0125400Y0214183D02*
X0125500Y0214183D01*
X0125500Y0213184D02*
X0125342Y0213184D01*
X0125500Y0212186D02*
X0124928Y0212186D01*
X0124103Y0211187D02*
X0125984Y0211187D01*
X0137500Y0212500D02*
X0137500Y0226500D01*
X0158500Y0247500D01*
X0168500Y0247500D01*
X0168500Y0241500D02*
X0178500Y0251500D01*
X0178626Y0251500D01*
X0174292Y0256120D02*
X0003968Y0256120D01*
X0003968Y0255122D02*
X0156732Y0255122D01*
X0155734Y0254123D02*
X0003968Y0254123D01*
X0003968Y0253125D02*
X0143296Y0253125D01*
X0142500Y0252328D02*
X0142500Y0252328D01*
X0142298Y0252126D02*
X0003968Y0252126D01*
X0003968Y0251128D02*
X0141299Y0251128D01*
X0140301Y0250129D02*
X0003968Y0250129D01*
X0003968Y0249131D02*
X0139302Y0249131D01*
X0138304Y0248132D02*
X0003968Y0248132D01*
X0003968Y0247134D02*
X0137305Y0247134D01*
X0136307Y0246135D02*
X0003968Y0246135D01*
X0003968Y0245137D02*
X0135308Y0245137D01*
X0158626Y0241500D02*
X0168500Y0241500D01*
X0173293Y0255122D02*
X0160520Y0255122D01*
X0169762Y0265721D02*
X0172984Y0264386D01*
X0176472Y0264386D01*
X0179695Y0265721D01*
X0182161Y0268187D01*
X0183496Y0271410D01*
X0183496Y0274898D01*
X0182161Y0278120D01*
X0179695Y0280586D01*
X0176472Y0281921D01*
X0172984Y0281921D01*
X0169762Y0280586D01*
X0167295Y0278120D01*
X0165961Y0274898D01*
X0165961Y0271410D01*
X0167295Y0268187D01*
X0169762Y0265721D01*
X0169377Y0266105D02*
X0018662Y0266105D01*
X0018278Y0265721D02*
X0020744Y0268187D01*
X0022079Y0271410D01*
X0022079Y0274898D01*
X0020744Y0278120D01*
X0018278Y0280586D01*
X0015055Y0281921D01*
X0011567Y0281921D01*
X0008345Y0280586D01*
X0005878Y0278120D01*
X0004543Y0274898D01*
X0004543Y0271410D01*
X0005878Y0268187D01*
X0008345Y0265721D01*
X0011567Y0264386D01*
X0015055Y0264386D01*
X0018278Y0265721D01*
X0016796Y0265107D02*
X0171243Y0265107D01*
X0168378Y0267104D02*
X0019661Y0267104D01*
X0020659Y0268103D02*
X0167380Y0268103D01*
X0166917Y0269101D02*
X0021123Y0269101D01*
X0021536Y0270100D02*
X0166503Y0270100D01*
X0166090Y0271098D02*
X0021950Y0271098D01*
X0022079Y0272097D02*
X0165961Y0272097D01*
X0165961Y0273095D02*
X0022079Y0273095D01*
X0022079Y0274094D02*
X0165961Y0274094D01*
X0166041Y0275092D02*
X0021998Y0275092D01*
X0021585Y0276091D02*
X0166455Y0276091D01*
X0166868Y0277089D02*
X0021171Y0277089D01*
X0020757Y0278088D02*
X0167282Y0278088D01*
X0168262Y0279086D02*
X0019778Y0279086D01*
X0018779Y0280085D02*
X0169260Y0280085D01*
X0170961Y0281083D02*
X0017078Y0281083D01*
X0009544Y0281083D02*
X0003968Y0281083D01*
X0003968Y0280085D02*
X0007843Y0280085D01*
X0006844Y0279086D02*
X0003968Y0279086D01*
X0003968Y0278088D02*
X0005865Y0278088D01*
X0005451Y0277089D02*
X0003968Y0277089D01*
X0003968Y0276091D02*
X0005038Y0276091D01*
X0004624Y0275092D02*
X0003968Y0275092D01*
X0003968Y0274094D02*
X0004543Y0274094D01*
X0004543Y0273095D02*
X0003968Y0273095D01*
X0003968Y0272097D02*
X0004543Y0272097D01*
X0004672Y0271098D02*
X0003968Y0271098D01*
X0003968Y0270100D02*
X0005086Y0270100D01*
X0005500Y0269101D02*
X0003968Y0269101D01*
X0003968Y0268103D02*
X0005963Y0268103D01*
X0006961Y0267104D02*
X0003968Y0267104D01*
X0003968Y0266105D02*
X0007960Y0266105D01*
X0009826Y0265107D02*
X0003968Y0265107D01*
X0003968Y0258117D02*
X0176289Y0258117D01*
X0175290Y0257119D02*
X0003968Y0257119D01*
X0003968Y0238147D02*
X0086499Y0238147D01*
X0084904Y0237149D02*
X0003968Y0237149D01*
X0003968Y0236150D02*
X0084062Y0236150D01*
X0083648Y0235152D02*
X0003968Y0235152D01*
X0003968Y0234153D02*
X0083465Y0234153D01*
X0083465Y0233155D02*
X0003968Y0233155D01*
X0003968Y0232156D02*
X0083756Y0232156D01*
X0084169Y0231158D02*
X0003968Y0231158D01*
X0003968Y0230159D02*
X0085163Y0230159D01*
X0088341Y0220174D02*
X0094659Y0220174D01*
X0093660Y0219175D02*
X0089340Y0219175D01*
X0090338Y0218177D02*
X0092662Y0218177D01*
X0092600Y0217178D02*
X0090400Y0217178D01*
X0090400Y0216180D02*
X0092600Y0216180D01*
X0092600Y0215181D02*
X0090400Y0215181D01*
X0089698Y0214183D02*
X0093302Y0214183D01*
X0094300Y0213184D02*
X0088700Y0213184D01*
X0096200Y0213184D02*
X0096800Y0213184D01*
X0096800Y0214183D02*
X0096200Y0214183D01*
X0096200Y0215181D02*
X0096800Y0215181D01*
X0045307Y0182231D02*
X0044307Y0182231D01*
X0044307Y0182409D02*
X0041577Y0182409D01*
X0037008Y0177841D01*
X0037008Y0175110D01*
X0044307Y0175110D01*
X0044307Y0182409D01*
X0044307Y0181232D02*
X0045307Y0181232D01*
X0045307Y0180234D02*
X0044307Y0180234D01*
X0044307Y0179235D02*
X0045307Y0179235D01*
X0045307Y0178237D02*
X0044307Y0178237D01*
X0044307Y0177238D02*
X0045307Y0177238D01*
X0045307Y0176239D02*
X0044307Y0176239D01*
X0044307Y0175241D02*
X0045307Y0175241D01*
X0039401Y0180234D02*
X0026591Y0180234D01*
X0025593Y0181232D02*
X0040399Y0181232D01*
X0041398Y0182231D02*
X0024594Y0182231D01*
X0021685Y0182231D02*
X0020685Y0182231D01*
X0020685Y0181232D02*
X0021685Y0181232D01*
X0021685Y0180234D02*
X0020685Y0180234D01*
X0020685Y0179235D02*
X0021685Y0179235D01*
X0021685Y0178237D02*
X0020685Y0178237D01*
X0020685Y0177238D02*
X0021685Y0177238D01*
X0021685Y0176239D02*
X0020685Y0176239D01*
X0020685Y0175241D02*
X0021685Y0175241D01*
X0021685Y0172245D02*
X0020685Y0172245D01*
X0020685Y0171247D02*
X0021685Y0171247D01*
X0021685Y0170248D02*
X0020685Y0170248D01*
X0020685Y0169250D02*
X0021685Y0169250D01*
X0021685Y0168251D02*
X0020685Y0168251D01*
X0020685Y0167253D02*
X0021685Y0167253D01*
X0024857Y0167253D02*
X0041135Y0167253D01*
X0040136Y0168251D02*
X0025856Y0168251D01*
X0026854Y0169250D02*
X0039138Y0169250D01*
X0038139Y0170248D02*
X0027853Y0170248D01*
X0028851Y0171247D02*
X0037141Y0171247D01*
X0037008Y0172245D02*
X0028984Y0172245D01*
X0028984Y0173244D02*
X0037008Y0173244D01*
X0037008Y0175241D02*
X0028984Y0175241D01*
X0028984Y0176239D02*
X0037008Y0176239D01*
X0037008Y0177238D02*
X0028984Y0177238D01*
X0028588Y0178237D02*
X0037404Y0178237D01*
X0038402Y0179235D02*
X0027590Y0179235D01*
X0016514Y0168251D02*
X0003968Y0168251D01*
X0003968Y0167253D02*
X0017513Y0167253D01*
X0015516Y0169250D02*
X0003968Y0169250D01*
X0003968Y0170248D02*
X0014517Y0170248D01*
X0013519Y0171247D02*
X0003968Y0171247D01*
X0003968Y0172245D02*
X0013386Y0172245D01*
X0013386Y0173244D02*
X0003968Y0173244D01*
X0003968Y0164257D02*
X0053429Y0164257D01*
X0052430Y0163259D02*
X0003968Y0163259D01*
X0003968Y0162260D02*
X0051432Y0162260D01*
X0050433Y0161262D02*
X0035429Y0161262D01*
X0030564Y0161262D02*
X0003968Y0161262D01*
X0003968Y0160263D02*
X0029657Y0160263D01*
X0029243Y0159265D02*
X0003968Y0159265D01*
X0022500Y0149280D02*
X0029249Y0149280D01*
X0029134Y0148281D02*
X0022500Y0148281D01*
X0022111Y0147283D02*
X0029209Y0147283D01*
X0029623Y0146284D02*
X0023595Y0146284D01*
X0024515Y0145286D02*
X0030481Y0145286D01*
X0029663Y0150278D02*
X0023693Y0150278D01*
X0035414Y0151277D02*
X0041437Y0151277D01*
X0083255Y0072394D02*
X0085500Y0072394D01*
X0085500Y0071396D02*
X0084520Y0071396D01*
X0085101Y0070397D02*
X0085500Y0070397D01*
X0085500Y0069399D02*
X0085400Y0069399D01*
X0085400Y0068400D02*
X0085500Y0068400D01*
X0085500Y0067402D02*
X0085400Y0067402D01*
X0086758Y0059414D02*
X0071415Y0059414D01*
X0097500Y0044500D02*
X0098500Y0043500D01*
X0098500Y0040500D01*
X0099020Y0039807D01*
X0135002Y0092365D02*
X0137998Y0092365D01*
X0137670Y0093363D02*
X0135400Y0093363D01*
X0135400Y0094362D02*
X0137600Y0094362D01*
X0137600Y0095360D02*
X0135400Y0095360D01*
X0145400Y0098356D02*
X0147600Y0098356D01*
X0147600Y0099354D02*
X0145386Y0099354D01*
X0145120Y0100353D02*
X0147880Y0100353D01*
X0148436Y0101351D02*
X0144553Y0101351D01*
X0143357Y0102350D02*
X0149637Y0102350D01*
X0162680Y0090368D02*
X0170320Y0090368D01*
X0168719Y0091366D02*
X0164281Y0091366D01*
X0165002Y0092365D02*
X0167998Y0092365D01*
X0167600Y0093363D02*
X0165400Y0093363D01*
X0165400Y0094362D02*
X0167600Y0094362D01*
X0167600Y0095360D02*
X0165400Y0095360D01*
X0165400Y0096359D02*
X0167600Y0096359D01*
X0167600Y0097357D02*
X0165400Y0097357D01*
X0165400Y0098356D02*
X0166816Y0098356D01*
X0165817Y0099354D02*
X0165400Y0099354D01*
X0182680Y0090368D02*
X0190320Y0090368D01*
X0190724Y0090200D02*
X0192276Y0090200D01*
X0193709Y0090794D01*
X0194806Y0091891D01*
X0195400Y0093324D01*
X0195400Y0099676D01*
X0194806Y0101109D01*
X0193709Y0102206D01*
X0192276Y0102800D01*
X0190724Y0102800D01*
X0189291Y0102206D01*
X0188194Y0101109D01*
X0187600Y0099676D01*
X0187600Y0093324D01*
X0188194Y0091891D01*
X0189291Y0090794D01*
X0190724Y0090200D01*
X0192680Y0090368D02*
X0200320Y0090368D01*
X0200724Y0090200D02*
X0199291Y0090794D01*
X0198194Y0091891D01*
X0197600Y0093324D01*
X0197600Y0099676D01*
X0198194Y0101109D01*
X0199291Y0102206D01*
X0200724Y0102800D01*
X0202276Y0102800D01*
X0203709Y0102206D01*
X0204806Y0101109D01*
X0205400Y0099676D01*
X0205400Y0093324D01*
X0204806Y0091891D01*
X0203709Y0090794D01*
X0202276Y0090200D01*
X0200724Y0090200D01*
X0202680Y0090368D02*
X0210320Y0090368D01*
X0208719Y0091366D02*
X0204281Y0091366D01*
X0205002Y0092365D02*
X0207998Y0092365D01*
X0207600Y0093363D02*
X0205400Y0093363D01*
X0205400Y0094362D02*
X0207600Y0094362D01*
X0207600Y0095360D02*
X0205400Y0095360D01*
X0205400Y0096359D02*
X0207600Y0096359D01*
X0207600Y0097357D02*
X0205400Y0097357D01*
X0205400Y0098356D02*
X0207600Y0098356D01*
X0207600Y0099354D02*
X0205400Y0099354D01*
X0205120Y0100353D02*
X0207880Y0100353D01*
X0208436Y0101351D02*
X0204564Y0101351D01*
X0203363Y0102350D02*
X0209637Y0102350D01*
X0213363Y0102350D02*
X0242713Y0102350D01*
X0242600Y0101351D02*
X0214564Y0101351D01*
X0215120Y0100353D02*
X0242600Y0100353D01*
X0242600Y0099354D02*
X0215400Y0099354D01*
X0215400Y0098356D02*
X0242600Y0098356D01*
X0242600Y0097357D02*
X0215400Y0097357D01*
X0215400Y0096359D02*
X0242600Y0096359D01*
X0242751Y0095360D02*
X0215400Y0095360D01*
X0215400Y0094362D02*
X0243164Y0094362D01*
X0244122Y0093363D02*
X0215400Y0093363D01*
X0212680Y0090368D02*
X0229852Y0090368D01*
X0228854Y0089369D02*
X0183459Y0089369D01*
X0184458Y0088370D02*
X0227855Y0088370D01*
X0227600Y0087372D02*
X0185456Y0087372D01*
X0186455Y0086373D02*
X0231200Y0086373D01*
X0231800Y0086373D02*
X0239545Y0086373D01*
X0238547Y0085375D02*
X0235400Y0085375D01*
X0235400Y0084885D02*
X0235400Y0086200D01*
X0231800Y0086200D01*
X0231800Y0082600D01*
X0233115Y0082600D01*
X0235400Y0084885D01*
X0234892Y0084376D02*
X0237548Y0084376D01*
X0236550Y0083378D02*
X0233893Y0083378D01*
X0235551Y0082379D02*
X0190449Y0082379D01*
X0191448Y0081381D02*
X0234552Y0081381D01*
X0233554Y0080382D02*
X0233133Y0080382D01*
X0229867Y0080382D02*
X0192446Y0080382D01*
X0193445Y0079384D02*
X0228868Y0079384D01*
X0231500Y0075500D02*
X0231500Y0021500D01*
X0234050Y0024466D02*
X0282496Y0024466D01*
X0282496Y0025464D02*
X0233500Y0025464D01*
X0233500Y0026463D02*
X0282496Y0026463D01*
X0282496Y0027461D02*
X0233500Y0027461D01*
X0233500Y0028460D02*
X0282496Y0028460D01*
X0282496Y0029458D02*
X0233500Y0029458D01*
X0233500Y0030457D02*
X0282496Y0030457D01*
X0282496Y0031455D02*
X0233500Y0031455D01*
X0235048Y0023467D02*
X0282496Y0023467D01*
X0282496Y0022469D02*
X0235400Y0022469D01*
X0235400Y0021470D02*
X0269940Y0021470D01*
X0271410Y0022079D02*
X0268187Y0020744D01*
X0265721Y0018278D01*
X0264386Y0015055D01*
X0264386Y0011567D01*
X0265721Y0008345D01*
X0268187Y0005878D01*
X0271410Y0004543D01*
X0274898Y0004543D01*
X0278120Y0005878D01*
X0280586Y0008345D01*
X0281921Y0011567D01*
X0281921Y0015055D01*
X0280586Y0018278D01*
X0278120Y0020744D01*
X0274898Y0022079D01*
X0271410Y0022079D01*
X0267915Y0020472D02*
X0235400Y0020472D01*
X0234989Y0019473D02*
X0266916Y0019473D01*
X0265918Y0018475D02*
X0233990Y0018475D01*
X0208200Y0037446D02*
X0183275Y0037446D01*
X0184273Y0038445D02*
X0207201Y0038445D01*
X0206723Y0039443D02*
X0185272Y0039443D01*
X0186270Y0040442D02*
X0206310Y0040442D01*
X0206300Y0041440D02*
X0187269Y0041440D01*
X0188267Y0042439D02*
X0206300Y0042439D01*
X0206674Y0043437D02*
X0189266Y0043437D01*
X0190264Y0044436D02*
X0207088Y0044436D01*
X0208081Y0045434D02*
X0191263Y0045434D01*
X0192261Y0046433D02*
X0209821Y0046433D01*
X0195576Y0065405D02*
X0195400Y0065405D01*
X0195400Y0066403D02*
X0196575Y0066403D01*
X0197573Y0067402D02*
X0195400Y0067402D01*
X0195400Y0068400D02*
X0197600Y0068400D01*
X0197600Y0069399D02*
X0195400Y0069399D01*
X0195101Y0070397D02*
X0197899Y0070397D01*
X0198480Y0071396D02*
X0194520Y0071396D01*
X0193255Y0072394D02*
X0199745Y0072394D01*
X0191500Y0066500D02*
X0189500Y0066500D01*
X0156500Y0033500D01*
X0169490Y0020472D02*
X0018550Y0020472D01*
X0019548Y0019473D02*
X0168491Y0019473D01*
X0167493Y0018475D02*
X0020547Y0018475D01*
X0021076Y0017476D02*
X0166964Y0017476D01*
X0166550Y0016478D02*
X0021489Y0016478D01*
X0021903Y0015479D02*
X0166136Y0015479D01*
X0165961Y0014481D02*
X0022079Y0014481D01*
X0022079Y0013482D02*
X0165961Y0013482D01*
X0165961Y0012484D02*
X0022079Y0012484D01*
X0022045Y0011485D02*
X0165995Y0011485D01*
X0166408Y0010487D02*
X0021631Y0010487D01*
X0021218Y0009488D02*
X0166822Y0009488D01*
X0167235Y0008490D02*
X0020804Y0008490D01*
X0019890Y0007491D02*
X0168149Y0007491D01*
X0169147Y0006493D02*
X0018892Y0006493D01*
X0017350Y0005494D02*
X0170689Y0005494D01*
X0178768Y0005494D02*
X0269114Y0005494D01*
X0267573Y0006493D02*
X0180309Y0006493D01*
X0181308Y0007491D02*
X0266574Y0007491D01*
X0265661Y0008490D02*
X0182221Y0008490D01*
X0182635Y0009488D02*
X0265247Y0009488D01*
X0264833Y0010487D02*
X0183049Y0010487D01*
X0183462Y0011485D02*
X0264420Y0011485D01*
X0264386Y0012484D02*
X0183496Y0012484D01*
X0183496Y0013482D02*
X0264386Y0013482D01*
X0264386Y0014481D02*
X0183496Y0014481D01*
X0183320Y0015479D02*
X0264562Y0015479D01*
X0264975Y0016478D02*
X0182907Y0016478D01*
X0182493Y0017476D02*
X0265389Y0017476D01*
X0276367Y0021470D02*
X0282496Y0021470D01*
X0282496Y0020472D02*
X0278392Y0020472D01*
X0279391Y0019473D02*
X0282496Y0019473D01*
X0282496Y0018475D02*
X0280389Y0018475D01*
X0280918Y0017476D02*
X0282496Y0017476D01*
X0282496Y0016478D02*
X0281332Y0016478D01*
X0281746Y0015479D02*
X0282496Y0015479D01*
X0282496Y0014481D02*
X0281921Y0014481D01*
X0281921Y0013482D02*
X0282496Y0013482D01*
X0282496Y0012484D02*
X0281921Y0012484D01*
X0281887Y0011485D02*
X0282496Y0011485D01*
X0282496Y0010487D02*
X0281474Y0010487D01*
X0281060Y0009488D02*
X0282496Y0009488D01*
X0282496Y0008490D02*
X0280647Y0008490D01*
X0279733Y0007491D02*
X0282496Y0007491D01*
X0282496Y0006493D02*
X0278734Y0006493D01*
X0277193Y0005494D02*
X0282496Y0005494D01*
X0282496Y0004496D02*
X0003968Y0004496D01*
X0003968Y0005494D02*
X0009272Y0005494D01*
X0007730Y0006493D02*
X0003968Y0006493D01*
X0003968Y0007491D02*
X0006732Y0007491D01*
X0005818Y0008490D02*
X0003968Y0008490D01*
X0003968Y0009488D02*
X0005404Y0009488D01*
X0004991Y0010487D02*
X0003968Y0010487D01*
X0003968Y0011485D02*
X0004577Y0011485D01*
X0004543Y0012484D02*
X0003968Y0012484D01*
X0003968Y0013482D02*
X0004543Y0013482D01*
X0004543Y0014481D02*
X0003968Y0014481D01*
X0003968Y0015479D02*
X0004719Y0015479D01*
X0005133Y0016478D02*
X0003968Y0016478D01*
X0003968Y0017476D02*
X0005546Y0017476D01*
X0006075Y0018475D02*
X0003968Y0018475D01*
X0003968Y0019473D02*
X0007074Y0019473D01*
X0008072Y0020472D02*
X0003968Y0020472D01*
X0161500Y0186500D02*
X0161500Y0188500D01*
X0207668Y0171247D02*
X0215332Y0171247D01*
X0213259Y0172245D02*
X0209741Y0172245D01*
X0210739Y0173244D02*
X0212261Y0173244D01*
X0211698Y0174242D02*
X0211302Y0174242D01*
X0217668Y0171247D02*
X0225332Y0171247D01*
X0223259Y0172245D02*
X0219741Y0172245D01*
X0220739Y0173244D02*
X0222261Y0173244D01*
X0221698Y0174242D02*
X0221302Y0174242D01*
X0227668Y0171247D02*
X0235332Y0171247D01*
X0233259Y0172245D02*
X0229741Y0172245D01*
X0230739Y0173244D02*
X0232261Y0173244D01*
X0231698Y0174242D02*
X0231302Y0174242D01*
X0231104Y0179235D02*
X0231896Y0179235D01*
X0231800Y0180234D02*
X0231200Y0180234D01*
X0230947Y0180234D02*
X0230262Y0180234D01*
X0231200Y0181232D02*
X0231800Y0181232D01*
X0231800Y0182231D02*
X0231200Y0182231D01*
X0231200Y0183229D02*
X0231800Y0183229D01*
X0231800Y0184228D02*
X0231200Y0184228D01*
X0231200Y0185226D02*
X0231800Y0185226D01*
X0231200Y0186225D02*
X0225400Y0186225D01*
X0225400Y0187223D02*
X0227600Y0187223D01*
X0227600Y0188222D02*
X0225400Y0188222D01*
X0225400Y0189220D02*
X0227600Y0189220D01*
X0227825Y0190219D02*
X0225175Y0190219D01*
X0224698Y0191217D02*
X0228358Y0191217D01*
X0227600Y0185226D02*
X0225400Y0185226D01*
X0225400Y0184228D02*
X0227600Y0184228D01*
X0227697Y0183229D02*
X0225361Y0183229D01*
X0224947Y0182231D02*
X0228059Y0182231D01*
X0232053Y0180234D02*
X0232738Y0180234D01*
X0234941Y0182231D02*
X0238053Y0182231D01*
X0237639Y0183229D02*
X0235303Y0183229D01*
X0235400Y0184228D02*
X0237600Y0184228D01*
X0237600Y0185226D02*
X0235400Y0185226D01*
X0241302Y0174242D02*
X0241698Y0174242D01*
X0242261Y0173244D02*
X0240739Y0173244D01*
X0239741Y0172245D02*
X0243259Y0172245D01*
X0245332Y0171247D02*
X0237668Y0171247D01*
X0257988Y0193214D02*
X0264500Y0193214D01*
X0264500Y0192216D02*
X0263686Y0192216D01*
X0264500Y0194213D02*
X0258869Y0194213D01*
X0259181Y0195211D02*
X0264500Y0195211D01*
X0264500Y0196210D02*
X0259108Y0196210D01*
X0258583Y0197208D02*
X0264500Y0197208D01*
X0238736Y0230159D02*
X0236735Y0230159D01*
X0237728Y0231158D02*
X0237818Y0231158D01*
X0253328Y0244500D02*
X0192328Y0244500D01*
X0195328Y0247500D01*
X0257151Y0247500D01*
X0257401Y0246898D01*
X0258709Y0245590D01*
X0258795Y0245554D01*
X0258313Y0245204D01*
X0257796Y0244686D01*
X0257366Y0244094D01*
X0257034Y0243442D01*
X0256807Y0242746D01*
X0256693Y0242023D01*
X0256693Y0241846D01*
X0261153Y0241846D01*
X0261153Y0241468D01*
X0256693Y0241468D01*
X0256693Y0241292D01*
X0256722Y0241106D01*
X0253328Y0244500D01*
X0253690Y0244138D02*
X0257398Y0244138D01*
X0256935Y0243140D02*
X0254689Y0243140D01*
X0255687Y0242141D02*
X0256712Y0242141D01*
X0256686Y0241143D02*
X0256716Y0241143D01*
X0258246Y0245137D02*
X0192965Y0245137D01*
X0193964Y0246135D02*
X0258163Y0246135D01*
X0257303Y0247134D02*
X0194962Y0247134D01*
X0180080Y0266105D02*
X0267802Y0266105D01*
X0266804Y0267104D02*
X0181078Y0267104D01*
X0182077Y0268103D02*
X0265805Y0268103D01*
X0265342Y0269101D02*
X0182540Y0269101D01*
X0182953Y0270100D02*
X0264928Y0270100D01*
X0264515Y0271098D02*
X0183367Y0271098D01*
X0183496Y0272097D02*
X0264386Y0272097D01*
X0264386Y0273095D02*
X0183496Y0273095D01*
X0183496Y0274094D02*
X0264386Y0274094D01*
X0264466Y0275092D02*
X0183415Y0275092D01*
X0183002Y0276091D02*
X0264880Y0276091D01*
X0265294Y0277089D02*
X0182588Y0277089D01*
X0182175Y0278088D02*
X0265707Y0278088D01*
X0266687Y0279086D02*
X0181195Y0279086D01*
X0180197Y0280085D02*
X0267685Y0280085D01*
X0269386Y0281083D02*
X0178496Y0281083D01*
X0178213Y0265107D02*
X0269668Y0265107D01*
X0199637Y0102350D02*
X0193363Y0102350D01*
X0194564Y0101351D02*
X0198436Y0101351D01*
X0197880Y0100353D02*
X0195120Y0100353D01*
X0195400Y0099354D02*
X0197600Y0099354D01*
X0197600Y0098356D02*
X0195400Y0098356D01*
X0195400Y0097357D02*
X0197600Y0097357D01*
X0197600Y0096359D02*
X0195400Y0096359D01*
X0195400Y0095360D02*
X0197600Y0095360D01*
X0197600Y0094362D02*
X0195400Y0094362D01*
X0195400Y0093363D02*
X0197600Y0093363D01*
X0197998Y0092365D02*
X0195002Y0092365D01*
X0194281Y0091366D02*
X0198719Y0091366D01*
X0189450Y0083378D02*
X0229107Y0083378D01*
X0228108Y0084376D02*
X0188452Y0084376D01*
X0187453Y0085375D02*
X0227600Y0085375D01*
X0231200Y0085375D02*
X0231800Y0085375D01*
X0231800Y0084376D02*
X0231200Y0084376D01*
X0231200Y0083378D02*
X0231800Y0083378D01*
X0235400Y0087372D02*
X0240544Y0087372D01*
X0241542Y0088370D02*
X0235145Y0088370D01*
X0234146Y0089369D02*
X0242541Y0089369D01*
X0259117Y0069399D02*
X0263883Y0069399D01*
X0263066Y0068400D02*
X0259934Y0068400D01*
X0260348Y0067402D02*
X0262652Y0067402D01*
X0262600Y0066403D02*
X0260400Y0066403D01*
X0260400Y0065405D02*
X0262600Y0065405D01*
X0262600Y0064406D02*
X0260400Y0064406D01*
X0260400Y0063408D02*
X0262600Y0063408D01*
X0262600Y0062409D02*
X0260400Y0062409D01*
X0260400Y0061411D02*
X0262600Y0061411D01*
X0262812Y0060412D02*
X0260188Y0060412D01*
X0259729Y0059414D02*
X0263271Y0059414D01*
X0264269Y0058415D02*
X0258731Y0058415D01*
X0268878Y0093363D02*
X0274122Y0093363D01*
X0273164Y0094362D02*
X0269836Y0094362D01*
X0270249Y0095360D02*
X0272751Y0095360D01*
X0189637Y0102350D02*
X0183363Y0102350D01*
X0184564Y0101351D02*
X0188436Y0101351D01*
X0187880Y0100353D02*
X0185120Y0100353D01*
X0185400Y0099354D02*
X0187600Y0099354D01*
X0187600Y0098356D02*
X0185400Y0098356D01*
X0185400Y0097357D02*
X0187600Y0097357D01*
X0187600Y0096359D02*
X0185400Y0096359D01*
X0185400Y0095360D02*
X0187600Y0095360D01*
X0187600Y0094362D02*
X0185400Y0094362D01*
X0185400Y0093363D02*
X0187600Y0093363D01*
X0187998Y0092365D02*
X0185002Y0092365D01*
X0184281Y0091366D02*
X0188719Y0091366D01*
D20*
X0137500Y0028500D03*
X0110500Y0150500D03*
X0095500Y0165500D03*
X0158500Y0223500D03*
X0178500Y0198500D03*
X0111500Y0240500D03*
X0256500Y0195500D03*
X0263500Y0200500D03*
X0278500Y0239500D03*
X0259500Y0139500D03*
X0277500Y0108500D03*
M02*
