%
M48
M72
T01C0.01181
T02C0.02756
T03C0.03150
T04C0.03200
T05C0.03543
T06C0.03600
T07C0.04331
T08C0.08661
T09C0.11024
T10C0.12598
%
T01
X78300Y57300
X103300Y30300
X107300Y26300
X142300Y59300
X146300Y69300
X137300Y104300
X101300Y89300
X94300Y117300
X94300Y121300
X24300Y89300
X16300Y120300
X158300Y29300
X196300Y48300
T02
X261143Y44607
X261143Y36733
X261143Y233583
X261143Y241457
X261143Y249331
X217835Y233583
X209961Y233583
X190276Y233583
X182402Y233583
X174528Y233583
X166654Y233583
X146969Y233583
X139095Y233583
X131221Y233583
X123347Y233583
X103662Y233583
X95788Y233583
T03
X56418Y158032
X56418Y148032
X56418Y138032
X56418Y128032
X44607Y133032
X44607Y143032
X44607Y153032
X32796Y148032
X32796Y138032
X32796Y128032
X20985Y133032
X20985Y143032
X20985Y153032
X32796Y158032
T04
X81300Y121300
X81300Y111300
X81300Y96300
X91300Y96300
X101300Y96300
X111300Y96300
X121300Y96300
X131300Y96300
X141300Y96300
X151300Y96300
X161300Y96300
X171300Y96300
X181300Y96300
X191300Y96300
X201300Y96300
X211300Y96300
X231300Y86300
X231300Y76300
X246300Y66300
X256300Y66300
X266300Y66300
X276300Y66300
X276300Y96300
X266300Y96300
X256300Y96300
X246300Y96300
X211300Y66300
X201300Y66300
X191300Y66300
X181300Y66300
X171300Y66300
X161300Y66300
X151300Y66300
X141300Y66300
X131300Y66300
X121300Y66300
X111300Y66300
X101300Y66300
X91300Y66300
X81300Y66300
X201300Y186300
X211300Y186300
X221300Y186300
X231300Y186300
X241300Y186300
X251300Y186300
X261300Y186300
X261300Y216300
X251300Y216300
X241300Y216300
X231300Y216300
X221300Y216300
X211300Y216300
X201300Y216300
X186300Y206300
X186300Y196300
X161300Y191300
X161300Y201300
X161300Y211300
X161300Y221300
X141300Y221300
X141300Y211300
X141300Y201300
X141300Y191300
X106300Y206300
X96300Y206300
X221300Y51300
X241300Y51300
X231300Y21300
X211300Y21300
T05
X211300Y41300
X241300Y41300
T06
X178032Y39607
X168032Y39607
X158032Y39607
X148032Y39607
X138032Y39607
X128032Y39607
X118032Y39607
X108032Y39607
X108032Y49607
X118032Y49607
X128032Y49607
X138032Y49607
X148032Y49607
X158032Y49607
X168032Y49607
X178032Y49607
T07
X176339Y113032
X166339Y113032
X156339Y113032
X146339Y113032
X136339Y113032
X126339Y113032
X116339Y113032
X106339Y113032
X106339Y173032
X116339Y173032
X126339Y173032
X136339Y173032
X146339Y173032
X156339Y173032
X166339Y173032
X176339Y173032
X186339Y173032
X196339Y173032
X206339Y173032
X216339Y173032
X226339Y173032
X236339Y173032
X246339Y173032
X256339Y173032
X266339Y173032
X266339Y113032
X256339Y113032
X246339Y113032
X236339Y113032
X226339Y113032
X216339Y113032
X206339Y113032
X196339Y113032
X186339Y113032
T08
X44607Y111654
X20985Y111654
X20985Y174410
X44607Y174410
T09
X32796Y200119
X32796Y85946
T10
X13111Y13111
X54056Y85946
X54056Y200119
X13111Y272954
X272954Y272954
X272954Y13111
M30
