%
M48
M72
T01C0.01181
T02C0.02756
T03C0.03150
T04C0.03200
T05C0.03543
T06C0.03937
T07C0.04000
T08C0.04331
T09C0.08661
T10C0.11024
T11C0.12598
%
T01
X10250Y38250
X38250Y52250
X46250Y44250
X52250Y57250
X43250Y21250
X77250Y68250
X93250Y88250
X96250Y86250
X93250Y94250
X95250Y108250
X95250Y118250
X98250Y129250
X102250Y129250
X89250Y136250
X98250Y151250
X103250Y154250
X103250Y178250
X92250Y187250
X95250Y201250
X92250Y216250
X86250Y214250
X85250Y225250
X76250Y210250
X65250Y216250
X60250Y225250
X66250Y232250
X74250Y236250
X65250Y256250
X59250Y270250
X38250Y274250
X18250Y221250
X21250Y216250
X28250Y208250
X33250Y211250
X42250Y211250
X60250Y185250
X58250Y173250
X58250Y169250
X66250Y160250
X76250Y181250
X80250Y185250
X101250Y216250
X109250Y205250
X120250Y212250
X123250Y215250
X138250Y230250
X116250Y238250
X100250Y244250
X96250Y244250
X42250Y159250
X66250Y132250
X76250Y110250
X96250Y78250
X99250Y72250
X112250Y43250
X106250Y40250
X102250Y42250
X103250Y33250
X99250Y25250
X101250Y15250
X92250Y13250
X91250Y41250
X121250Y15250
X128250Y26250
X137250Y21250
X173250Y36250
X154250Y99250
X168250Y116250
X157250Y134250
X137250Y132250
X137250Y123250
X119250Y86250
X179250Y186250
X28250Y104250
X13250Y89250
X9250Y81250
X10250Y132250
X15250Y195250
T02
X83927Y233533
X83927Y241407
X83927Y249281
X83927Y257156
X162667Y72116
X162667Y64242
X162667Y56368
X162667Y40620
X162667Y32746
X56368Y44557
X56368Y52431
X19163Y48494
X19163Y40620
X19163Y56368
T03
X32746Y127982
X32746Y137982
X32746Y147982
X32746Y157982
X20935Y152982
X20935Y142982
X20935Y132982
X44557Y132982
X44557Y142982
X44557Y152982
X56368Y147982
X56368Y137982
X56368Y127982
X56368Y157982
T04
X86250Y161250
X86250Y171250
X86250Y181250
X86250Y191250
X86250Y201250
X96250Y211250
X106250Y211250
X116250Y201250
X116250Y191250
X116250Y181250
X116250Y171250
X116250Y161250
X116250Y151250
X116250Y141250
X116250Y131250
X116250Y121250
X116250Y111250
X116250Y101250
X116250Y91250
X116250Y81250
X116250Y71250
X116250Y56250
X116250Y46250
X116250Y36250
X116250Y26250
X116250Y16250
X106250Y16250
X96250Y16250
X86250Y26250
X86250Y36250
X86250Y46250
X86250Y56250
X86250Y71250
X86250Y81250
X86250Y91250
X86250Y101250
X86250Y111250
X86250Y121250
X86250Y131250
X86250Y141250
X86250Y151250
X106250Y226250
X116250Y226250
X126250Y226250
X146250Y221250
X146250Y231250
X146250Y241250
X146250Y251250
X126250Y256250
X126250Y271250
X106250Y271250
X106250Y256250
X86250Y271250
X66250Y271250
X146250Y211250
X146250Y201250
X146250Y191250
X156250Y181250
X166250Y181250
X176250Y191250
X176250Y201250
X176250Y211250
X176250Y221250
X176250Y231250
X176250Y241250
X176250Y251250
X146250Y66250
X146250Y46250
X146250Y36250
X146250Y16250
X136250Y16250
X71250Y26250
X61250Y26250
T05
X56250Y16250
X86250Y16250
T06
X71250Y36250
X131250Y36250
X131250Y216250
X71250Y216250
T07
X46250Y236250
X46250Y246250
X46250Y256250
X46250Y266250
X26250Y256250
X26250Y246250
X26250Y236250
X146250Y161250
X146250Y151250
X146250Y141250
X146250Y126250
X146250Y116250
X146250Y106250
X146250Y96250
X146250Y86250
X146250Y76250
X161250Y141250
X161250Y151250
X161250Y161250
X171250Y161250
X171250Y151250
X171250Y141250
T08
X131250Y136250
X131250Y126250
X131250Y116250
X131250Y106250
X131250Y96250
X131250Y86250
X131250Y76250
X131250Y66250
X131250Y56250
X131250Y46250
X71250Y46250
X71250Y56250
X71250Y66250
X71250Y76250
X71250Y86250
X71250Y96250
X71250Y106250
X71250Y116250
X71250Y126250
X71250Y136250
X71250Y146250
X71250Y156250
X71250Y166250
X71250Y176250
X71250Y186250
X71250Y196250
X71250Y206250
X131250Y206250
X131250Y196250
X131250Y186250
X131250Y176250
X131250Y166250
X131250Y156250
X131250Y146250
T09
X44557Y174360
X20935Y174360
X20935Y111604
X44557Y111604
T10
X32746Y85896
X32746Y200069
T11
X13061Y13061
X54006Y85896
X54006Y200069
X13061Y272904
X174478Y272904
X174478Y13061
M30
