%
M48
M72
T01C0.01181
T02C0.02756
T03C0.03150
T04C0.03200
T05C0.03543
T06C0.04000
T07C0.04331
T08C0.08661
T09C0.11024
T10C0.12598
%
T01
X99500Y78500
X106500Y150500
T02
X101500Y229689
X101500Y237563
X101500Y245437
X101500Y253311
X134689Y236500
X142563Y236500
X150437Y236500
X158311Y236500
X177563Y236500
X185437Y236500
X261500Y233626
X261500Y241500
X261500Y249374
X261500Y45437
X261500Y37563
X101500Y37563
X101500Y45437
T03
X56618Y128232
X56618Y138232
X56618Y148232
X56618Y158232
X44807Y153232
X44807Y143232
X44807Y133232
X32996Y128232
X32996Y138232
X32996Y148232
X32996Y158232
X21185Y153232
X21185Y143232
X21185Y133232
T04
X86500Y116500
X86500Y106500
X86500Y91500
X96500Y91500
X106500Y91500
X116500Y91500
X126500Y91500
X136500Y91500
X146500Y91500
X156500Y91500
X166500Y91500
X176500Y91500
X186500Y91500
X196500Y91500
X206500Y91500
X216500Y91500
X231500Y81500
X231500Y71500
X216500Y61500
X206500Y61500
X196500Y61500
X186500Y61500
X176500Y61500
X166500Y61500
X156500Y61500
X146500Y61500
X136500Y61500
X126500Y61500
X116500Y61500
X106500Y61500
X96500Y61500
X86500Y61500
X121500Y46500
X121500Y36500
X211500Y46500
X231500Y46500
X246500Y61500
X256500Y61500
X266500Y61500
X276500Y61500
X276500Y91500
X266500Y91500
X256500Y91500
X246500Y91500
X246500Y191500
X236500Y191500
X226500Y191500
X216500Y191500
X206500Y191500
X196500Y191500
X186500Y191500
X171500Y201500
X171500Y211500
X156500Y211500
X156500Y201500
X156500Y191500
X136500Y191500
X136500Y201500
X136500Y211500
X136500Y221500
X156500Y221500
X186500Y221500
X196500Y221500
X206500Y221500
X216500Y221500
X226500Y221500
X236500Y221500
X246500Y221500
T05
X241500Y31500
X211500Y31500
T06
X271500Y191500
X271500Y201500
T07
X271500Y171500
X261500Y171500
X251500Y171500
X241500Y171500
X231500Y171500
X221500Y171500
X211500Y171500
X201500Y171500
X191500Y171500
X181500Y171500
X171500Y171500
X161500Y171500
X151500Y171500
X141500Y171500
X131500Y171500
X121500Y171500
X111500Y171500
X111500Y111500
X121500Y111500
X131500Y111500
X141500Y111500
X151500Y111500
X161500Y111500
X171500Y111500
X181500Y111500
X191500Y111500
X201500Y111500
X211500Y111500
X221500Y111500
X231500Y111500
X241500Y111500
X251500Y111500
X261500Y111500
X271500Y111500
T08
X44807Y111854
X21185Y111854
X21185Y174610
X44807Y174610
T09
X32996Y200319
X32996Y86146
T10
X13311Y13311
X54256Y86146
X54256Y200319
X13311Y273154
X273154Y273154
X273154Y13311
M30
