G75*
%MOIN*%
%OFA0B0*%
%FSLAX25Y25*%
%IPPOS*%
%LPD*%
%AMOC8*
5,1,8,0,0,1.08239X$1,22.5*
%
%ADD10C,0.00300*%
%ADD11C,0.00200*%
%ADD12C,0.00800*%
%ADD13C,0.00600*%
%ADD14C,0.01000*%
%ADD15C,0.00500*%
%ADD16R,0.10000X0.02000*%
%ADD17C,0.01575*%
D10*
X0027359Y0040047D02*
X0027359Y0040853D01*
X0027361Y0040908D01*
X0027367Y0040963D01*
X0027376Y0041017D01*
X0027389Y0041070D01*
X0027406Y0041123D01*
X0027426Y0041174D01*
X0027449Y0041224D01*
X0027476Y0041272D01*
X0027507Y0041318D01*
X0027540Y0041362D01*
X0027576Y0041403D01*
X0027615Y0041442D01*
X0027656Y0041478D01*
X0027700Y0041511D01*
X0027746Y0041542D01*
X0027794Y0041569D01*
X0027844Y0041592D01*
X0027895Y0041612D01*
X0027948Y0041629D01*
X0028001Y0041642D01*
X0028055Y0041651D01*
X0028110Y0041657D01*
X0028165Y0041659D01*
X0028220Y0041657D01*
X0028275Y0041651D01*
X0028329Y0041642D01*
X0028382Y0041629D01*
X0028435Y0041612D01*
X0028486Y0041592D01*
X0028536Y0041569D01*
X0028584Y0041542D01*
X0028630Y0041511D01*
X0028674Y0041478D01*
X0028715Y0041442D01*
X0028754Y0041403D01*
X0028790Y0041362D01*
X0028823Y0041318D01*
X0028854Y0041272D01*
X0028881Y0041224D01*
X0028904Y0041174D01*
X0028924Y0041123D01*
X0028941Y0041070D01*
X0028954Y0041017D01*
X0028963Y0040963D01*
X0028969Y0040908D01*
X0028971Y0040853D01*
X0028970Y0040853D02*
X0028970Y0040047D01*
X0030259Y0040047D02*
X0027359Y0040047D01*
X0027359Y0042685D02*
X0030259Y0043330D01*
X0028326Y0043974D01*
X0030259Y0044619D01*
X0027359Y0045263D01*
X0027359Y0046549D02*
X0027359Y0047355D01*
X0027361Y0047410D01*
X0027367Y0047465D01*
X0027376Y0047519D01*
X0027389Y0047572D01*
X0027406Y0047625D01*
X0027426Y0047676D01*
X0027449Y0047726D01*
X0027476Y0047774D01*
X0027507Y0047820D01*
X0027540Y0047864D01*
X0027576Y0047905D01*
X0027615Y0047944D01*
X0027656Y0047980D01*
X0027700Y0048013D01*
X0027746Y0048044D01*
X0027794Y0048071D01*
X0027844Y0048094D01*
X0027895Y0048114D01*
X0027948Y0048131D01*
X0028001Y0048144D01*
X0028055Y0048153D01*
X0028110Y0048159D01*
X0028165Y0048161D01*
X0028220Y0048159D01*
X0028275Y0048153D01*
X0028329Y0048144D01*
X0028382Y0048131D01*
X0028435Y0048114D01*
X0028486Y0048094D01*
X0028536Y0048071D01*
X0028584Y0048044D01*
X0028630Y0048013D01*
X0028674Y0047980D01*
X0028715Y0047944D01*
X0028754Y0047905D01*
X0028790Y0047864D01*
X0028823Y0047820D01*
X0028854Y0047774D01*
X0028881Y0047726D01*
X0028904Y0047676D01*
X0028924Y0047625D01*
X0028941Y0047572D01*
X0028954Y0047519D01*
X0028963Y0047465D01*
X0028969Y0047410D01*
X0028971Y0047355D01*
X0028970Y0047355D02*
X0028970Y0046549D01*
X0028970Y0047516D02*
X0030259Y0048160D01*
X0030259Y0049409D02*
X0030259Y0051020D01*
X0030259Y0050214D02*
X0027359Y0050214D01*
X0028004Y0049409D01*
X0027359Y0046549D02*
X0030259Y0046549D01*
X0030259Y0052289D02*
X0028648Y0053658D01*
X0027359Y0053175D02*
X0027361Y0053116D01*
X0027366Y0053058D01*
X0027376Y0053000D01*
X0027388Y0052943D01*
X0027405Y0052887D01*
X0027424Y0052832D01*
X0027448Y0052778D01*
X0027474Y0052726D01*
X0027504Y0052676D01*
X0027537Y0052627D01*
X0027573Y0052581D01*
X0027612Y0052537D01*
X0027653Y0052496D01*
X0027697Y0052457D01*
X0027743Y0052421D01*
X0027792Y0052389D01*
X0027842Y0052359D01*
X0027894Y0052332D01*
X0027948Y0052309D01*
X0028003Y0052289D01*
X0028648Y0053658D02*
X0028611Y0053695D01*
X0028571Y0053729D01*
X0028529Y0053761D01*
X0028484Y0053789D01*
X0028438Y0053815D01*
X0028391Y0053837D01*
X0028342Y0053856D01*
X0028292Y0053872D01*
X0028241Y0053884D01*
X0028189Y0053893D01*
X0028137Y0053898D01*
X0028084Y0053900D01*
X0028032Y0053898D01*
X0027981Y0053893D01*
X0027930Y0053883D01*
X0027880Y0053871D01*
X0027831Y0053854D01*
X0027783Y0053834D01*
X0027737Y0053811D01*
X0027692Y0053785D01*
X0027650Y0053755D01*
X0027609Y0053723D01*
X0027571Y0053688D01*
X0027536Y0053650D01*
X0027504Y0053609D01*
X0027474Y0053567D01*
X0027448Y0053522D01*
X0027425Y0053476D01*
X0027405Y0053428D01*
X0027388Y0053379D01*
X0027376Y0053329D01*
X0027366Y0053278D01*
X0027361Y0053227D01*
X0027359Y0053175D01*
X0027359Y0055008D02*
X0030259Y0055974D01*
X0027359Y0056941D01*
X0030259Y0053900D02*
X0030259Y0052289D01*
X0032590Y0017700D02*
X0033396Y0017700D01*
X0033451Y0017698D01*
X0033506Y0017692D01*
X0033560Y0017683D01*
X0033613Y0017670D01*
X0033666Y0017653D01*
X0033717Y0017633D01*
X0033767Y0017610D01*
X0033815Y0017583D01*
X0033861Y0017552D01*
X0033905Y0017519D01*
X0033946Y0017483D01*
X0033985Y0017444D01*
X0034021Y0017403D01*
X0034054Y0017359D01*
X0034085Y0017313D01*
X0034112Y0017265D01*
X0034135Y0017215D01*
X0034155Y0017164D01*
X0034172Y0017111D01*
X0034185Y0017058D01*
X0034194Y0017004D01*
X0034200Y0016949D01*
X0034202Y0016894D01*
X0034200Y0016839D01*
X0034194Y0016784D01*
X0034185Y0016730D01*
X0034172Y0016677D01*
X0034155Y0016624D01*
X0034135Y0016573D01*
X0034112Y0016523D01*
X0034085Y0016475D01*
X0034054Y0016429D01*
X0034021Y0016385D01*
X0033985Y0016344D01*
X0033946Y0016305D01*
X0033905Y0016269D01*
X0033861Y0016236D01*
X0033815Y0016205D01*
X0033767Y0016178D01*
X0033717Y0016155D01*
X0033666Y0016135D01*
X0033613Y0016118D01*
X0033560Y0016105D01*
X0033506Y0016096D01*
X0033451Y0016090D01*
X0033396Y0016088D01*
X0033396Y0016089D02*
X0032590Y0016089D01*
X0033557Y0016089D02*
X0034201Y0014800D01*
X0032590Y0014800D02*
X0032590Y0017700D01*
X0035757Y0016492D02*
X0036643Y0016008D01*
X0036320Y0014800D02*
X0036248Y0014802D01*
X0036177Y0014808D01*
X0036106Y0014817D01*
X0036036Y0014830D01*
X0035966Y0014847D01*
X0035897Y0014867D01*
X0035830Y0014891D01*
X0035764Y0014919D01*
X0035699Y0014950D01*
X0035636Y0014984D01*
X0035575Y0015022D01*
X0035516Y0015063D01*
X0035460Y0015106D01*
X0035405Y0015153D01*
X0035354Y0015203D01*
X0036643Y0016008D02*
X0036683Y0015982D01*
X0036722Y0015953D01*
X0036759Y0015921D01*
X0036793Y0015886D01*
X0036824Y0015849D01*
X0036853Y0015810D01*
X0036879Y0015769D01*
X0036901Y0015726D01*
X0036920Y0015681D01*
X0036936Y0015635D01*
X0036949Y0015589D01*
X0036958Y0015541D01*
X0036963Y0015493D01*
X0036965Y0015444D01*
X0036964Y0015444D02*
X0036962Y0015396D01*
X0036957Y0015348D01*
X0036948Y0015301D01*
X0036935Y0015254D01*
X0036919Y0015209D01*
X0036900Y0015165D01*
X0036878Y0015122D01*
X0036852Y0015081D01*
X0036823Y0015042D01*
X0036792Y0015006D01*
X0036758Y0014972D01*
X0036722Y0014941D01*
X0036683Y0014912D01*
X0036642Y0014886D01*
X0036599Y0014864D01*
X0036555Y0014845D01*
X0036510Y0014829D01*
X0036463Y0014816D01*
X0036416Y0014807D01*
X0036368Y0014802D01*
X0036320Y0014800D01*
X0036804Y0017458D02*
X0036751Y0017496D01*
X0036696Y0017530D01*
X0036640Y0017562D01*
X0036581Y0017591D01*
X0036522Y0017616D01*
X0036461Y0017638D01*
X0036399Y0017657D01*
X0036336Y0017672D01*
X0036273Y0017684D01*
X0036208Y0017693D01*
X0036144Y0017698D01*
X0036079Y0017700D01*
X0036031Y0017698D01*
X0035983Y0017693D01*
X0035936Y0017684D01*
X0035889Y0017671D01*
X0035844Y0017655D01*
X0035800Y0017636D01*
X0035757Y0017614D01*
X0035716Y0017588D01*
X0035677Y0017560D01*
X0035641Y0017528D01*
X0035607Y0017494D01*
X0035576Y0017458D01*
X0035547Y0017419D01*
X0035521Y0017378D01*
X0035499Y0017335D01*
X0035480Y0017291D01*
X0035464Y0017246D01*
X0035451Y0017199D01*
X0035442Y0017152D01*
X0035437Y0017104D01*
X0035435Y0017056D01*
X0035434Y0017056D02*
X0035436Y0017007D01*
X0035441Y0016959D01*
X0035450Y0016911D01*
X0035463Y0016865D01*
X0035479Y0016819D01*
X0035498Y0016774D01*
X0035520Y0016731D01*
X0035546Y0016690D01*
X0035575Y0016651D01*
X0035606Y0016614D01*
X0035640Y0016579D01*
X0035677Y0016547D01*
X0035716Y0016518D01*
X0035756Y0016492D01*
X0037977Y0017700D02*
X0038943Y0014800D01*
X0039910Y0017700D01*
X0154800Y0094179D02*
X0157700Y0095145D01*
X0156975Y0094904D02*
X0156975Y0093454D01*
X0157700Y0093212D02*
X0154800Y0094179D01*
X0154800Y0096349D02*
X0157700Y0097960D01*
X0154800Y0097960D01*
X0154800Y0096349D02*
X0157700Y0096349D01*
X0157700Y0099164D02*
X0154800Y0100131D01*
X0157700Y0101097D01*
X0156975Y0100856D02*
X0156975Y0099406D01*
X0157700Y0102307D02*
X0154800Y0102307D01*
X0155606Y0104701D02*
X0156894Y0104701D01*
X0156949Y0104703D01*
X0157004Y0104709D01*
X0157058Y0104718D01*
X0157111Y0104731D01*
X0157164Y0104748D01*
X0157215Y0104768D01*
X0157265Y0104791D01*
X0157313Y0104818D01*
X0157359Y0104849D01*
X0157403Y0104882D01*
X0157444Y0104918D01*
X0157483Y0104957D01*
X0157519Y0104998D01*
X0157552Y0105042D01*
X0157583Y0105088D01*
X0157610Y0105136D01*
X0157633Y0105186D01*
X0157653Y0105237D01*
X0157670Y0105290D01*
X0157683Y0105343D01*
X0157692Y0105397D01*
X0157698Y0105452D01*
X0157700Y0105507D01*
X0157698Y0105562D01*
X0157692Y0105617D01*
X0157683Y0105671D01*
X0157670Y0105724D01*
X0157653Y0105777D01*
X0157633Y0105828D01*
X0157610Y0105878D01*
X0157583Y0105926D01*
X0157552Y0105972D01*
X0157519Y0106016D01*
X0157483Y0106057D01*
X0157444Y0106096D01*
X0157403Y0106132D01*
X0157359Y0106165D01*
X0157313Y0106196D01*
X0157265Y0106223D01*
X0157215Y0106246D01*
X0157164Y0106266D01*
X0157111Y0106283D01*
X0157058Y0106296D01*
X0157004Y0106305D01*
X0156949Y0106311D01*
X0156894Y0106313D01*
X0156894Y0106312D02*
X0155606Y0106312D01*
X0155606Y0106313D02*
X0155551Y0106311D01*
X0155496Y0106305D01*
X0155442Y0106296D01*
X0155389Y0106283D01*
X0155336Y0106266D01*
X0155285Y0106246D01*
X0155235Y0106223D01*
X0155187Y0106196D01*
X0155141Y0106165D01*
X0155097Y0106132D01*
X0155056Y0106096D01*
X0155017Y0106057D01*
X0154981Y0106016D01*
X0154948Y0105972D01*
X0154917Y0105926D01*
X0154890Y0105878D01*
X0154867Y0105828D01*
X0154847Y0105777D01*
X0154830Y0105724D01*
X0154817Y0105671D01*
X0154808Y0105617D01*
X0154802Y0105562D01*
X0154800Y0105507D01*
X0154802Y0105452D01*
X0154808Y0105397D01*
X0154817Y0105343D01*
X0154830Y0105290D01*
X0154847Y0105237D01*
X0154867Y0105186D01*
X0154890Y0105136D01*
X0154917Y0105088D01*
X0154948Y0105042D01*
X0154981Y0104998D01*
X0155017Y0104957D01*
X0155056Y0104918D01*
X0155097Y0104882D01*
X0155141Y0104849D01*
X0155187Y0104818D01*
X0155235Y0104791D01*
X0155285Y0104768D01*
X0155336Y0104748D01*
X0155389Y0104731D01*
X0155442Y0104718D01*
X0155496Y0104709D01*
X0155551Y0104703D01*
X0155606Y0104701D01*
X0157700Y0103596D02*
X0157700Y0102307D01*
X0157056Y0107677D02*
X0155444Y0107677D01*
X0155393Y0107679D01*
X0155343Y0107685D01*
X0155294Y0107695D01*
X0155245Y0107709D01*
X0155198Y0107726D01*
X0155152Y0107747D01*
X0155108Y0107772D01*
X0155065Y0107800D01*
X0155026Y0107831D01*
X0154989Y0107866D01*
X0154954Y0107903D01*
X0154923Y0107942D01*
X0154895Y0107984D01*
X0154870Y0108029D01*
X0154849Y0108075D01*
X0154832Y0108122D01*
X0154818Y0108171D01*
X0154808Y0108220D01*
X0154802Y0108270D01*
X0154800Y0108321D01*
X0154800Y0109288D01*
X0156089Y0109288D02*
X0157700Y0109288D01*
X0157700Y0108321D01*
X0157698Y0108273D01*
X0157693Y0108225D01*
X0157684Y0108178D01*
X0157671Y0108131D01*
X0157655Y0108086D01*
X0157636Y0108042D01*
X0157614Y0107999D01*
X0157588Y0107958D01*
X0157559Y0107919D01*
X0157528Y0107883D01*
X0157494Y0107849D01*
X0157458Y0107818D01*
X0157419Y0107789D01*
X0157378Y0107763D01*
X0157335Y0107741D01*
X0157291Y0107722D01*
X0157246Y0107706D01*
X0157199Y0107693D01*
X0157152Y0107684D01*
X0157104Y0107679D01*
X0157056Y0107677D01*
X0156089Y0108805D02*
X0156089Y0109288D01*
X0161217Y0094520D02*
X0163312Y0094520D01*
X0163312Y0094521D02*
X0163367Y0094519D01*
X0163422Y0094513D01*
X0163476Y0094504D01*
X0163529Y0094491D01*
X0163582Y0094474D01*
X0163633Y0094454D01*
X0163683Y0094431D01*
X0163731Y0094404D01*
X0163777Y0094373D01*
X0163821Y0094340D01*
X0163862Y0094304D01*
X0163901Y0094265D01*
X0163937Y0094224D01*
X0163970Y0094180D01*
X0164001Y0094134D01*
X0164028Y0094086D01*
X0164051Y0094036D01*
X0164071Y0093985D01*
X0164088Y0093932D01*
X0164101Y0093879D01*
X0164110Y0093825D01*
X0164116Y0093770D01*
X0164118Y0093715D01*
X0164116Y0093660D01*
X0164110Y0093605D01*
X0164101Y0093551D01*
X0164088Y0093498D01*
X0164071Y0093445D01*
X0164051Y0093394D01*
X0164028Y0093344D01*
X0164001Y0093296D01*
X0163970Y0093250D01*
X0163937Y0093206D01*
X0163901Y0093165D01*
X0163862Y0093126D01*
X0163821Y0093090D01*
X0163777Y0093057D01*
X0163731Y0093026D01*
X0163683Y0092999D01*
X0163633Y0092976D01*
X0163582Y0092956D01*
X0163529Y0092939D01*
X0163476Y0092926D01*
X0163422Y0092917D01*
X0163367Y0092911D01*
X0163312Y0092909D01*
X0161217Y0092909D01*
X0161217Y0090759D02*
X0161217Y0089953D01*
X0164117Y0089953D01*
X0162828Y0089953D02*
X0162828Y0090759D01*
X0162828Y0090920D02*
X0164117Y0091564D01*
X0162829Y0090759D02*
X0162827Y0090814D01*
X0162821Y0090869D01*
X0162812Y0090923D01*
X0162799Y0090976D01*
X0162782Y0091029D01*
X0162762Y0091080D01*
X0162739Y0091130D01*
X0162712Y0091178D01*
X0162681Y0091224D01*
X0162648Y0091268D01*
X0162612Y0091309D01*
X0162573Y0091348D01*
X0162532Y0091384D01*
X0162488Y0091417D01*
X0162442Y0091448D01*
X0162394Y0091475D01*
X0162344Y0091498D01*
X0162293Y0091518D01*
X0162240Y0091535D01*
X0162187Y0091548D01*
X0162133Y0091557D01*
X0162078Y0091563D01*
X0162023Y0091565D01*
X0161968Y0091563D01*
X0161913Y0091557D01*
X0161859Y0091548D01*
X0161806Y0091535D01*
X0161753Y0091518D01*
X0161702Y0091498D01*
X0161652Y0091475D01*
X0161604Y0091448D01*
X0161558Y0091417D01*
X0161514Y0091384D01*
X0161473Y0091348D01*
X0161434Y0091309D01*
X0161398Y0091268D01*
X0161365Y0091224D01*
X0161334Y0091178D01*
X0161307Y0091130D01*
X0161284Y0091080D01*
X0161264Y0091029D01*
X0161247Y0090976D01*
X0161234Y0090923D01*
X0161225Y0090869D01*
X0161219Y0090814D01*
X0161217Y0090759D01*
X0161217Y0088472D02*
X0164117Y0088472D01*
X0162506Y0088472D02*
X0162506Y0086861D01*
X0161217Y0086861D02*
X0164117Y0086861D01*
X0164117Y0084883D02*
X0161217Y0084883D01*
X0161217Y0085688D02*
X0161217Y0084077D01*
X0175011Y0085749D02*
X0175011Y0086394D01*
X0175011Y0086072D02*
X0177911Y0086072D01*
X0177911Y0086394D02*
X0177911Y0085749D01*
X0177911Y0087570D02*
X0177911Y0089181D01*
X0177267Y0090441D02*
X0175655Y0090441D01*
X0175655Y0090442D02*
X0175604Y0090444D01*
X0175554Y0090450D01*
X0175505Y0090460D01*
X0175456Y0090474D01*
X0175409Y0090491D01*
X0175363Y0090512D01*
X0175319Y0090537D01*
X0175276Y0090565D01*
X0175237Y0090596D01*
X0175200Y0090631D01*
X0175165Y0090668D01*
X0175134Y0090707D01*
X0175106Y0090749D01*
X0175081Y0090794D01*
X0175060Y0090840D01*
X0175043Y0090887D01*
X0175029Y0090936D01*
X0175019Y0090985D01*
X0175013Y0091035D01*
X0175011Y0091086D01*
X0175011Y0091085D02*
X0175011Y0091730D01*
X0177267Y0090441D02*
X0177315Y0090443D01*
X0177363Y0090448D01*
X0177410Y0090457D01*
X0177457Y0090470D01*
X0177502Y0090486D01*
X0177546Y0090505D01*
X0177589Y0090527D01*
X0177630Y0090553D01*
X0177669Y0090582D01*
X0177705Y0090613D01*
X0177739Y0090647D01*
X0177770Y0090683D01*
X0177799Y0090722D01*
X0177825Y0090763D01*
X0177847Y0090806D01*
X0177866Y0090850D01*
X0177882Y0090895D01*
X0177895Y0090942D01*
X0177904Y0090989D01*
X0177909Y0091037D01*
X0177911Y0091085D01*
X0177911Y0091730D01*
X0176300Y0088940D02*
X0177911Y0087570D01*
X0175655Y0087570D02*
X0175600Y0087590D01*
X0175546Y0087613D01*
X0175494Y0087640D01*
X0175444Y0087670D01*
X0175395Y0087702D01*
X0175349Y0087738D01*
X0175305Y0087777D01*
X0175264Y0087818D01*
X0175225Y0087862D01*
X0175189Y0087908D01*
X0175156Y0087957D01*
X0175126Y0088007D01*
X0175100Y0088059D01*
X0175076Y0088113D01*
X0175057Y0088168D01*
X0175040Y0088224D01*
X0175028Y0088281D01*
X0175018Y0088339D01*
X0175013Y0088397D01*
X0175011Y0088456D01*
X0175013Y0088508D01*
X0175018Y0088559D01*
X0175028Y0088610D01*
X0175040Y0088660D01*
X0175057Y0088709D01*
X0175077Y0088757D01*
X0175100Y0088803D01*
X0175126Y0088848D01*
X0175156Y0088890D01*
X0175188Y0088931D01*
X0175223Y0088969D01*
X0175261Y0089004D01*
X0175302Y0089036D01*
X0175344Y0089066D01*
X0175389Y0089092D01*
X0175435Y0089115D01*
X0175483Y0089135D01*
X0175532Y0089152D01*
X0175582Y0089164D01*
X0175633Y0089174D01*
X0175684Y0089179D01*
X0175736Y0089181D01*
X0175736Y0089182D02*
X0175789Y0089180D01*
X0175841Y0089175D01*
X0175893Y0089166D01*
X0175944Y0089154D01*
X0175994Y0089138D01*
X0176043Y0089119D01*
X0176090Y0089097D01*
X0176136Y0089071D01*
X0176181Y0089043D01*
X0176223Y0089011D01*
X0176263Y0088977D01*
X0176300Y0088940D01*
X0157700Y0128260D02*
X0157700Y0128904D01*
X0157700Y0128582D02*
X0154800Y0128582D01*
X0154800Y0128260D02*
X0154800Y0128904D01*
X0156089Y0131450D02*
X0156052Y0131487D01*
X0156012Y0131521D01*
X0155970Y0131553D01*
X0155925Y0131581D01*
X0155879Y0131607D01*
X0155832Y0131629D01*
X0155783Y0131648D01*
X0155733Y0131664D01*
X0155682Y0131676D01*
X0155630Y0131685D01*
X0155578Y0131690D01*
X0155525Y0131692D01*
X0156089Y0131450D02*
X0157700Y0130080D01*
X0157700Y0131692D01*
X0157056Y0132951D02*
X0155444Y0132951D01*
X0155444Y0132952D02*
X0155393Y0132954D01*
X0155343Y0132960D01*
X0155294Y0132970D01*
X0155245Y0132984D01*
X0155198Y0133001D01*
X0155152Y0133022D01*
X0155108Y0133047D01*
X0155065Y0133075D01*
X0155026Y0133106D01*
X0154989Y0133141D01*
X0154954Y0133178D01*
X0154923Y0133217D01*
X0154895Y0133259D01*
X0154870Y0133304D01*
X0154849Y0133350D01*
X0154832Y0133397D01*
X0154818Y0133446D01*
X0154808Y0133495D01*
X0154802Y0133545D01*
X0154800Y0133596D01*
X0154800Y0134240D01*
X0157056Y0132952D02*
X0157104Y0132954D01*
X0157152Y0132959D01*
X0157199Y0132968D01*
X0157246Y0132981D01*
X0157291Y0132997D01*
X0157335Y0133016D01*
X0157378Y0133038D01*
X0157419Y0133064D01*
X0157458Y0133093D01*
X0157494Y0133124D01*
X0157528Y0133158D01*
X0157559Y0133194D01*
X0157588Y0133233D01*
X0157614Y0133274D01*
X0157636Y0133317D01*
X0157655Y0133361D01*
X0157671Y0133406D01*
X0157684Y0133453D01*
X0157693Y0133500D01*
X0157698Y0133548D01*
X0157700Y0133596D01*
X0157700Y0134240D01*
X0154800Y0130967D02*
X0154802Y0130908D01*
X0154807Y0130850D01*
X0154817Y0130792D01*
X0154829Y0130735D01*
X0154846Y0130679D01*
X0154865Y0130624D01*
X0154889Y0130570D01*
X0154915Y0130518D01*
X0154945Y0130468D01*
X0154978Y0130419D01*
X0155014Y0130373D01*
X0155053Y0130329D01*
X0155094Y0130288D01*
X0155138Y0130249D01*
X0155184Y0130213D01*
X0155233Y0130181D01*
X0155283Y0130151D01*
X0155335Y0130124D01*
X0155389Y0130101D01*
X0155444Y0130081D01*
X0154800Y0130967D02*
X0154802Y0131019D01*
X0154807Y0131070D01*
X0154817Y0131121D01*
X0154829Y0131171D01*
X0154846Y0131220D01*
X0154866Y0131268D01*
X0154889Y0131314D01*
X0154915Y0131359D01*
X0154945Y0131401D01*
X0154977Y0131442D01*
X0155012Y0131480D01*
X0155050Y0131515D01*
X0155091Y0131547D01*
X0155133Y0131577D01*
X0155178Y0131603D01*
X0155224Y0131626D01*
X0155272Y0131646D01*
X0155321Y0131663D01*
X0155371Y0131675D01*
X0155422Y0131685D01*
X0155473Y0131690D01*
X0155525Y0131692D01*
X0174800Y0145116D02*
X0174800Y0145761D01*
X0174800Y0145439D02*
X0177700Y0145439D01*
X0177700Y0145761D02*
X0177700Y0145116D01*
X0177700Y0146937D02*
X0176089Y0148307D01*
X0174800Y0147823D02*
X0174802Y0147764D01*
X0174807Y0147706D01*
X0174817Y0147648D01*
X0174829Y0147591D01*
X0174846Y0147535D01*
X0174865Y0147480D01*
X0174889Y0147426D01*
X0174915Y0147374D01*
X0174945Y0147324D01*
X0174978Y0147275D01*
X0175014Y0147229D01*
X0175053Y0147185D01*
X0175094Y0147144D01*
X0175138Y0147105D01*
X0175184Y0147069D01*
X0175233Y0147037D01*
X0175283Y0147007D01*
X0175335Y0146980D01*
X0175389Y0146957D01*
X0175444Y0146937D01*
X0176089Y0148307D02*
X0176052Y0148344D01*
X0176012Y0148378D01*
X0175970Y0148410D01*
X0175925Y0148438D01*
X0175879Y0148464D01*
X0175832Y0148486D01*
X0175783Y0148505D01*
X0175733Y0148521D01*
X0175682Y0148533D01*
X0175630Y0148542D01*
X0175578Y0148547D01*
X0175525Y0148549D01*
X0175525Y0148548D02*
X0175473Y0148546D01*
X0175422Y0148541D01*
X0175371Y0148531D01*
X0175321Y0148519D01*
X0175272Y0148502D01*
X0175224Y0148482D01*
X0175178Y0148459D01*
X0175133Y0148433D01*
X0175091Y0148403D01*
X0175050Y0148371D01*
X0175012Y0148336D01*
X0174977Y0148298D01*
X0174945Y0148257D01*
X0174915Y0148215D01*
X0174889Y0148170D01*
X0174866Y0148124D01*
X0174846Y0148076D01*
X0174829Y0148027D01*
X0174817Y0147977D01*
X0174807Y0147926D01*
X0174802Y0147875D01*
X0174800Y0147823D01*
X0175444Y0149808D02*
X0177056Y0149808D01*
X0177104Y0149810D01*
X0177152Y0149815D01*
X0177199Y0149824D01*
X0177246Y0149837D01*
X0177291Y0149853D01*
X0177335Y0149872D01*
X0177378Y0149894D01*
X0177419Y0149920D01*
X0177458Y0149949D01*
X0177494Y0149980D01*
X0177528Y0150014D01*
X0177559Y0150050D01*
X0177588Y0150089D01*
X0177614Y0150130D01*
X0177636Y0150173D01*
X0177655Y0150217D01*
X0177671Y0150262D01*
X0177684Y0150309D01*
X0177693Y0150356D01*
X0177698Y0150404D01*
X0177700Y0150452D01*
X0177700Y0151097D01*
X0176492Y0153411D02*
X0176518Y0153451D01*
X0176547Y0153490D01*
X0176579Y0153527D01*
X0176614Y0153561D01*
X0176651Y0153592D01*
X0176690Y0153621D01*
X0176731Y0153647D01*
X0176774Y0153669D01*
X0176819Y0153688D01*
X0176865Y0153704D01*
X0176911Y0153717D01*
X0176959Y0153726D01*
X0177007Y0153731D01*
X0177056Y0153733D01*
X0177056Y0153732D02*
X0177104Y0153730D01*
X0177152Y0153725D01*
X0177199Y0153716D01*
X0177246Y0153703D01*
X0177291Y0153687D01*
X0177335Y0153668D01*
X0177378Y0153646D01*
X0177419Y0153620D01*
X0177458Y0153591D01*
X0177494Y0153560D01*
X0177528Y0153526D01*
X0177559Y0153490D01*
X0177588Y0153451D01*
X0177614Y0153410D01*
X0177636Y0153367D01*
X0177655Y0153323D01*
X0177671Y0153278D01*
X0177684Y0153231D01*
X0177693Y0153184D01*
X0177698Y0153136D01*
X0177700Y0153088D01*
X0176492Y0153410D02*
X0176008Y0152524D01*
X0174800Y0152846D02*
X0174802Y0152911D01*
X0174807Y0152975D01*
X0174816Y0153040D01*
X0174828Y0153103D01*
X0174843Y0153166D01*
X0174862Y0153228D01*
X0174884Y0153289D01*
X0174909Y0153348D01*
X0174938Y0153407D01*
X0174970Y0153463D01*
X0175004Y0153518D01*
X0175042Y0153571D01*
X0176008Y0152523D02*
X0175982Y0152483D01*
X0175953Y0152444D01*
X0175921Y0152407D01*
X0175886Y0152373D01*
X0175849Y0152342D01*
X0175810Y0152313D01*
X0175769Y0152287D01*
X0175726Y0152265D01*
X0175681Y0152246D01*
X0175635Y0152230D01*
X0175589Y0152217D01*
X0175541Y0152208D01*
X0175493Y0152203D01*
X0175444Y0152201D01*
X0175444Y0152202D02*
X0175396Y0152204D01*
X0175348Y0152209D01*
X0175301Y0152218D01*
X0175254Y0152231D01*
X0175209Y0152247D01*
X0175165Y0152266D01*
X0175122Y0152288D01*
X0175081Y0152314D01*
X0175042Y0152343D01*
X0175006Y0152374D01*
X0174972Y0152408D01*
X0174941Y0152444D01*
X0174912Y0152483D01*
X0174886Y0152524D01*
X0174864Y0152567D01*
X0174845Y0152611D01*
X0174829Y0152656D01*
X0174816Y0152703D01*
X0174807Y0152750D01*
X0174802Y0152798D01*
X0174800Y0152846D01*
X0177297Y0152122D02*
X0177347Y0152173D01*
X0177394Y0152228D01*
X0177437Y0152284D01*
X0177478Y0152343D01*
X0177516Y0152404D01*
X0177550Y0152467D01*
X0177581Y0152532D01*
X0177609Y0152598D01*
X0177633Y0152665D01*
X0177653Y0152734D01*
X0177670Y0152804D01*
X0177683Y0152874D01*
X0177692Y0152945D01*
X0177698Y0153016D01*
X0177700Y0153088D01*
X0177700Y0155450D02*
X0175767Y0156095D01*
X0177700Y0156739D01*
X0174800Y0157384D01*
X0174800Y0154806D02*
X0177700Y0155450D01*
X0174800Y0151097D02*
X0174800Y0150452D01*
X0174802Y0150401D01*
X0174808Y0150351D01*
X0174818Y0150302D01*
X0174832Y0150253D01*
X0174849Y0150206D01*
X0174870Y0150160D01*
X0174895Y0150115D01*
X0174923Y0150073D01*
X0174954Y0150034D01*
X0174989Y0149997D01*
X0175026Y0149962D01*
X0175065Y0149931D01*
X0175108Y0149903D01*
X0175152Y0149878D01*
X0175198Y0149857D01*
X0175245Y0149840D01*
X0175294Y0149826D01*
X0175343Y0149816D01*
X0175393Y0149810D01*
X0175444Y0149808D01*
X0177700Y0148548D02*
X0177700Y0146937D01*
X0157700Y0168956D02*
X0157700Y0169762D01*
X0157698Y0169817D01*
X0157692Y0169872D01*
X0157683Y0169926D01*
X0157670Y0169979D01*
X0157653Y0170032D01*
X0157633Y0170083D01*
X0157610Y0170133D01*
X0157583Y0170181D01*
X0157552Y0170227D01*
X0157519Y0170271D01*
X0157483Y0170312D01*
X0157444Y0170351D01*
X0157403Y0170387D01*
X0157359Y0170420D01*
X0157313Y0170451D01*
X0157265Y0170478D01*
X0157215Y0170501D01*
X0157164Y0170521D01*
X0157111Y0170538D01*
X0157058Y0170551D01*
X0157004Y0170560D01*
X0156949Y0170566D01*
X0156894Y0170568D01*
X0155606Y0170568D01*
X0155551Y0170566D01*
X0155496Y0170560D01*
X0155442Y0170551D01*
X0155389Y0170538D01*
X0155336Y0170521D01*
X0155285Y0170501D01*
X0155235Y0170478D01*
X0155187Y0170451D01*
X0155141Y0170420D01*
X0155097Y0170387D01*
X0155056Y0170351D01*
X0155017Y0170312D01*
X0154981Y0170271D01*
X0154948Y0170227D01*
X0154917Y0170181D01*
X0154890Y0170133D01*
X0154867Y0170083D01*
X0154847Y0170032D01*
X0154830Y0169979D01*
X0154817Y0169926D01*
X0154808Y0169872D01*
X0154802Y0169817D01*
X0154800Y0169762D01*
X0154800Y0168956D01*
X0157700Y0168956D01*
X0157700Y0172738D02*
X0154800Y0173544D01*
X0154800Y0171932D01*
X0155122Y0171932D01*
X0142056Y0259192D02*
X0140444Y0259192D01*
X0140393Y0259194D01*
X0140343Y0259200D01*
X0140294Y0259210D01*
X0140245Y0259224D01*
X0140198Y0259241D01*
X0140152Y0259262D01*
X0140108Y0259287D01*
X0140065Y0259315D01*
X0140026Y0259346D01*
X0139989Y0259381D01*
X0139954Y0259418D01*
X0139923Y0259457D01*
X0139895Y0259499D01*
X0139870Y0259544D01*
X0139849Y0259590D01*
X0139832Y0259637D01*
X0139818Y0259686D01*
X0139808Y0259735D01*
X0139802Y0259785D01*
X0139800Y0259836D01*
X0139800Y0260481D01*
X0139800Y0261697D02*
X0142700Y0261697D01*
X0142700Y0260481D02*
X0142700Y0259836D01*
X0142698Y0259788D01*
X0142693Y0259740D01*
X0142684Y0259693D01*
X0142671Y0259646D01*
X0142655Y0259601D01*
X0142636Y0259557D01*
X0142614Y0259514D01*
X0142588Y0259473D01*
X0142559Y0259434D01*
X0142528Y0259398D01*
X0142494Y0259364D01*
X0142458Y0259333D01*
X0142419Y0259304D01*
X0142378Y0259278D01*
X0142335Y0259256D01*
X0142291Y0259237D01*
X0142246Y0259221D01*
X0142199Y0259208D01*
X0142152Y0259199D01*
X0142104Y0259194D01*
X0142056Y0259192D01*
X0141089Y0261697D02*
X0141089Y0263308D01*
X0139800Y0263308D02*
X0142700Y0263308D01*
X0057818Y0250909D02*
X0054918Y0250909D01*
X0054918Y0250104D02*
X0054918Y0251715D01*
X0054918Y0248931D02*
X0057818Y0248931D01*
X0054918Y0247320D01*
X0057818Y0247320D01*
X0057013Y0245955D02*
X0055724Y0245955D01*
X0055669Y0245953D01*
X0055614Y0245947D01*
X0055560Y0245938D01*
X0055507Y0245925D01*
X0055454Y0245908D01*
X0055403Y0245888D01*
X0055353Y0245865D01*
X0055305Y0245838D01*
X0055259Y0245807D01*
X0055215Y0245774D01*
X0055174Y0245738D01*
X0055135Y0245699D01*
X0055099Y0245658D01*
X0055066Y0245614D01*
X0055035Y0245568D01*
X0055008Y0245520D01*
X0054985Y0245470D01*
X0054965Y0245419D01*
X0054948Y0245366D01*
X0054935Y0245313D01*
X0054926Y0245259D01*
X0054920Y0245204D01*
X0054918Y0245149D01*
X0054920Y0245094D01*
X0054926Y0245039D01*
X0054935Y0244985D01*
X0054948Y0244932D01*
X0054965Y0244879D01*
X0054985Y0244828D01*
X0055008Y0244778D01*
X0055035Y0244730D01*
X0055066Y0244684D01*
X0055099Y0244640D01*
X0055135Y0244599D01*
X0055174Y0244560D01*
X0055215Y0244524D01*
X0055259Y0244491D01*
X0055305Y0244460D01*
X0055353Y0244433D01*
X0055403Y0244410D01*
X0055454Y0244390D01*
X0055507Y0244373D01*
X0055560Y0244360D01*
X0055614Y0244351D01*
X0055669Y0244345D01*
X0055724Y0244343D01*
X0055724Y0244344D02*
X0057013Y0244344D01*
X0057013Y0244343D02*
X0057068Y0244345D01*
X0057123Y0244351D01*
X0057177Y0244360D01*
X0057230Y0244373D01*
X0057283Y0244390D01*
X0057334Y0244410D01*
X0057384Y0244433D01*
X0057432Y0244460D01*
X0057478Y0244491D01*
X0057522Y0244524D01*
X0057563Y0244560D01*
X0057602Y0244599D01*
X0057638Y0244640D01*
X0057671Y0244684D01*
X0057702Y0244730D01*
X0057729Y0244778D01*
X0057752Y0244828D01*
X0057772Y0244879D01*
X0057789Y0244932D01*
X0057802Y0244985D01*
X0057811Y0245039D01*
X0057817Y0245094D01*
X0057819Y0245149D01*
X0057817Y0245204D01*
X0057811Y0245259D01*
X0057802Y0245313D01*
X0057789Y0245366D01*
X0057772Y0245419D01*
X0057752Y0245470D01*
X0057729Y0245520D01*
X0057702Y0245568D01*
X0057671Y0245614D01*
X0057638Y0245658D01*
X0057602Y0245699D01*
X0057563Y0245738D01*
X0057522Y0245774D01*
X0057478Y0245807D01*
X0057432Y0245838D01*
X0057384Y0245865D01*
X0057334Y0245888D01*
X0057283Y0245908D01*
X0057230Y0245925D01*
X0057177Y0245938D01*
X0057123Y0245947D01*
X0057068Y0245953D01*
X0057013Y0245955D01*
X0057818Y0243095D02*
X0056529Y0242451D01*
X0056529Y0242290D02*
X0056529Y0241484D01*
X0056530Y0242290D02*
X0056528Y0242345D01*
X0056522Y0242400D01*
X0056513Y0242454D01*
X0056500Y0242507D01*
X0056483Y0242560D01*
X0056463Y0242611D01*
X0056440Y0242661D01*
X0056413Y0242709D01*
X0056382Y0242755D01*
X0056349Y0242799D01*
X0056313Y0242840D01*
X0056274Y0242879D01*
X0056233Y0242915D01*
X0056189Y0242948D01*
X0056143Y0242979D01*
X0056095Y0243006D01*
X0056045Y0243029D01*
X0055994Y0243049D01*
X0055941Y0243066D01*
X0055888Y0243079D01*
X0055834Y0243088D01*
X0055779Y0243094D01*
X0055724Y0243096D01*
X0055669Y0243094D01*
X0055614Y0243088D01*
X0055560Y0243079D01*
X0055507Y0243066D01*
X0055454Y0243049D01*
X0055403Y0243029D01*
X0055353Y0243006D01*
X0055305Y0242979D01*
X0055259Y0242948D01*
X0055215Y0242915D01*
X0055174Y0242879D01*
X0055135Y0242840D01*
X0055099Y0242799D01*
X0055066Y0242755D01*
X0055035Y0242709D01*
X0055008Y0242661D01*
X0054985Y0242611D01*
X0054965Y0242560D01*
X0054948Y0242507D01*
X0054935Y0242454D01*
X0054926Y0242400D01*
X0054920Y0242345D01*
X0054918Y0242290D01*
X0054918Y0241484D01*
X0057818Y0241484D01*
X0056207Y0240263D02*
X0056207Y0238974D01*
X0054918Y0238974D02*
X0054918Y0240263D01*
X0054918Y0238974D02*
X0057818Y0238974D01*
X0037700Y0247628D02*
X0034800Y0249561D01*
X0034800Y0250771D02*
X0037700Y0250771D01*
X0037700Y0252060D01*
X0037700Y0253261D02*
X0037700Y0254067D01*
X0037698Y0254122D01*
X0037692Y0254177D01*
X0037683Y0254231D01*
X0037670Y0254284D01*
X0037653Y0254337D01*
X0037633Y0254388D01*
X0037610Y0254438D01*
X0037583Y0254486D01*
X0037552Y0254532D01*
X0037519Y0254576D01*
X0037483Y0254617D01*
X0037444Y0254656D01*
X0037403Y0254692D01*
X0037359Y0254725D01*
X0037313Y0254756D01*
X0037265Y0254783D01*
X0037215Y0254806D01*
X0037164Y0254826D01*
X0037111Y0254843D01*
X0037058Y0254856D01*
X0037004Y0254865D01*
X0036949Y0254871D01*
X0036894Y0254873D01*
X0036894Y0254872D02*
X0035606Y0254872D01*
X0035606Y0254873D02*
X0035551Y0254871D01*
X0035496Y0254865D01*
X0035442Y0254856D01*
X0035389Y0254843D01*
X0035336Y0254826D01*
X0035285Y0254806D01*
X0035235Y0254783D01*
X0035187Y0254756D01*
X0035141Y0254725D01*
X0035097Y0254692D01*
X0035056Y0254656D01*
X0035017Y0254617D01*
X0034981Y0254576D01*
X0034948Y0254532D01*
X0034917Y0254486D01*
X0034890Y0254438D01*
X0034867Y0254388D01*
X0034847Y0254337D01*
X0034830Y0254284D01*
X0034817Y0254231D01*
X0034808Y0254177D01*
X0034802Y0254122D01*
X0034800Y0254067D01*
X0034800Y0253261D01*
X0037700Y0253261D01*
X0037700Y0249561D02*
X0034800Y0247628D01*
X0031100Y0245998D02*
X0031100Y0244970D01*
X0031098Y0244922D01*
X0031092Y0244873D01*
X0031083Y0244826D01*
X0031070Y0244779D01*
X0031053Y0244734D01*
X0031033Y0244690D01*
X0031009Y0244648D01*
X0030982Y0244607D01*
X0030952Y0244569D01*
X0030919Y0244534D01*
X0030884Y0244501D01*
X0030846Y0244471D01*
X0030805Y0244444D01*
X0030763Y0244420D01*
X0030719Y0244400D01*
X0030674Y0244383D01*
X0030627Y0244370D01*
X0030580Y0244361D01*
X0030531Y0244355D01*
X0030483Y0244353D01*
X0030483Y0244354D02*
X0029456Y0244354D01*
X0029867Y0244354D02*
X0029867Y0245998D01*
X0029456Y0245998D01*
X0029400Y0245996D01*
X0029344Y0245990D01*
X0029289Y0245981D01*
X0029234Y0245968D01*
X0029181Y0245951D01*
X0029129Y0245930D01*
X0029078Y0245906D01*
X0029029Y0245878D01*
X0028982Y0245848D01*
X0028937Y0245814D01*
X0028895Y0245777D01*
X0028855Y0245737D01*
X0028818Y0245695D01*
X0028784Y0245650D01*
X0028754Y0245603D01*
X0028726Y0245554D01*
X0028702Y0245503D01*
X0028681Y0245451D01*
X0028664Y0245398D01*
X0028651Y0245343D01*
X0028642Y0245288D01*
X0028636Y0245232D01*
X0028634Y0245176D01*
X0028636Y0245120D01*
X0028642Y0245064D01*
X0028651Y0245009D01*
X0028664Y0244954D01*
X0028681Y0244901D01*
X0028702Y0244849D01*
X0028726Y0244798D01*
X0028754Y0244749D01*
X0028784Y0244702D01*
X0028818Y0244657D01*
X0028855Y0244615D01*
X0028895Y0244575D01*
X0028937Y0244538D01*
X0028982Y0244504D01*
X0029029Y0244474D01*
X0029078Y0244446D01*
X0029129Y0244422D01*
X0029181Y0244401D01*
X0029234Y0244384D01*
X0029289Y0244371D01*
X0029344Y0244362D01*
X0029400Y0244356D01*
X0029456Y0244354D01*
X0031100Y0243100D02*
X0031098Y0243052D01*
X0031092Y0243003D01*
X0031083Y0242956D01*
X0031070Y0242909D01*
X0031053Y0242864D01*
X0031033Y0242820D01*
X0031009Y0242778D01*
X0030982Y0242737D01*
X0030952Y0242699D01*
X0030919Y0242664D01*
X0030884Y0242631D01*
X0030846Y0242601D01*
X0030805Y0242574D01*
X0030763Y0242550D01*
X0030719Y0242530D01*
X0030674Y0242513D01*
X0030627Y0242500D01*
X0030580Y0242491D01*
X0030531Y0242485D01*
X0030483Y0242483D01*
X0027400Y0242483D01*
X0029250Y0240976D02*
X0030483Y0240976D01*
X0030483Y0240977D02*
X0030531Y0240975D01*
X0030580Y0240969D01*
X0030627Y0240960D01*
X0030674Y0240947D01*
X0030719Y0240930D01*
X0030763Y0240910D01*
X0030805Y0240886D01*
X0030846Y0240859D01*
X0030884Y0240829D01*
X0030919Y0240796D01*
X0030952Y0240761D01*
X0030982Y0240723D01*
X0031009Y0240682D01*
X0031033Y0240640D01*
X0031053Y0240596D01*
X0031070Y0240551D01*
X0031083Y0240504D01*
X0031092Y0240457D01*
X0031098Y0240408D01*
X0031100Y0240360D01*
X0031100Y0239332D01*
X0032333Y0239332D02*
X0028633Y0239332D01*
X0028633Y0240360D01*
X0028635Y0240408D01*
X0028641Y0240457D01*
X0028650Y0240504D01*
X0028663Y0240551D01*
X0028680Y0240596D01*
X0028700Y0240640D01*
X0028724Y0240682D01*
X0028751Y0240723D01*
X0028781Y0240761D01*
X0028814Y0240796D01*
X0028849Y0240829D01*
X0028887Y0240859D01*
X0028928Y0240886D01*
X0028970Y0240910D01*
X0029014Y0240930D01*
X0029059Y0240947D01*
X0029106Y0240960D01*
X0029153Y0240969D01*
X0029202Y0240975D01*
X0029250Y0240977D01*
X0029250Y0237736D02*
X0030483Y0237736D01*
X0030483Y0237737D02*
X0030531Y0237735D01*
X0030580Y0237729D01*
X0030627Y0237720D01*
X0030674Y0237707D01*
X0030719Y0237690D01*
X0030763Y0237670D01*
X0030805Y0237646D01*
X0030846Y0237619D01*
X0030884Y0237589D01*
X0030919Y0237556D01*
X0030952Y0237521D01*
X0030982Y0237483D01*
X0031009Y0237442D01*
X0031033Y0237400D01*
X0031053Y0237356D01*
X0031070Y0237311D01*
X0031083Y0237264D01*
X0031092Y0237217D01*
X0031098Y0237168D01*
X0031100Y0237120D01*
X0031100Y0236092D01*
X0032333Y0236092D02*
X0028633Y0236092D01*
X0028633Y0237120D01*
X0028635Y0237168D01*
X0028641Y0237217D01*
X0028650Y0237264D01*
X0028663Y0237311D01*
X0028680Y0237356D01*
X0028700Y0237400D01*
X0028724Y0237442D01*
X0028751Y0237483D01*
X0028781Y0237521D01*
X0028814Y0237556D01*
X0028849Y0237589D01*
X0028887Y0237619D01*
X0028928Y0237646D01*
X0028970Y0237670D01*
X0029014Y0237690D01*
X0029059Y0237707D01*
X0029106Y0237720D01*
X0029153Y0237729D01*
X0029202Y0237735D01*
X0029250Y0237737D01*
X0026333Y0239332D02*
X0022633Y0239332D01*
X0022633Y0240360D01*
X0022635Y0240408D01*
X0022641Y0240457D01*
X0022650Y0240504D01*
X0022663Y0240551D01*
X0022680Y0240596D01*
X0022700Y0240640D01*
X0022724Y0240682D01*
X0022751Y0240723D01*
X0022781Y0240761D01*
X0022814Y0240796D01*
X0022849Y0240829D01*
X0022887Y0240859D01*
X0022928Y0240886D01*
X0022970Y0240910D01*
X0023014Y0240930D01*
X0023059Y0240947D01*
X0023106Y0240960D01*
X0023153Y0240969D01*
X0023202Y0240975D01*
X0023250Y0240977D01*
X0023250Y0240976D02*
X0024483Y0240976D01*
X0024483Y0240977D02*
X0024531Y0240975D01*
X0024580Y0240969D01*
X0024627Y0240960D01*
X0024674Y0240947D01*
X0024719Y0240930D01*
X0024763Y0240910D01*
X0024805Y0240886D01*
X0024846Y0240859D01*
X0024884Y0240829D01*
X0024919Y0240796D01*
X0024952Y0240761D01*
X0024982Y0240723D01*
X0025009Y0240682D01*
X0025033Y0240640D01*
X0025053Y0240596D01*
X0025070Y0240551D01*
X0025083Y0240504D01*
X0025092Y0240457D01*
X0025098Y0240408D01*
X0025100Y0240360D01*
X0025100Y0239332D01*
X0024483Y0237736D02*
X0023250Y0237736D01*
X0023250Y0237737D02*
X0023202Y0237735D01*
X0023153Y0237729D01*
X0023106Y0237720D01*
X0023059Y0237707D01*
X0023014Y0237690D01*
X0022970Y0237670D01*
X0022928Y0237646D01*
X0022887Y0237619D01*
X0022849Y0237589D01*
X0022814Y0237556D01*
X0022781Y0237521D01*
X0022751Y0237483D01*
X0022724Y0237442D01*
X0022700Y0237400D01*
X0022680Y0237356D01*
X0022663Y0237311D01*
X0022650Y0237264D01*
X0022641Y0237217D01*
X0022635Y0237168D01*
X0022633Y0237120D01*
X0022633Y0236092D01*
X0026333Y0236092D01*
X0025100Y0236092D02*
X0025100Y0237120D01*
X0025098Y0237168D01*
X0025092Y0237217D01*
X0025083Y0237264D01*
X0025070Y0237311D01*
X0025053Y0237356D01*
X0025033Y0237400D01*
X0025009Y0237442D01*
X0024982Y0237483D01*
X0024952Y0237521D01*
X0024919Y0237556D01*
X0024884Y0237589D01*
X0024846Y0237619D01*
X0024805Y0237646D01*
X0024763Y0237670D01*
X0024719Y0237690D01*
X0024674Y0237707D01*
X0024627Y0237720D01*
X0024580Y0237729D01*
X0024531Y0237735D01*
X0024483Y0237737D01*
X0024483Y0242483D02*
X0021400Y0242483D01*
X0023456Y0244354D02*
X0024483Y0244354D01*
X0023867Y0244354D02*
X0023867Y0245998D01*
X0023456Y0245998D01*
X0023400Y0245996D01*
X0023344Y0245990D01*
X0023289Y0245981D01*
X0023234Y0245968D01*
X0023181Y0245951D01*
X0023129Y0245930D01*
X0023078Y0245906D01*
X0023029Y0245878D01*
X0022982Y0245848D01*
X0022937Y0245814D01*
X0022895Y0245777D01*
X0022855Y0245737D01*
X0022818Y0245695D01*
X0022784Y0245650D01*
X0022754Y0245603D01*
X0022726Y0245554D01*
X0022702Y0245503D01*
X0022681Y0245451D01*
X0022664Y0245398D01*
X0022651Y0245343D01*
X0022642Y0245288D01*
X0022636Y0245232D01*
X0022634Y0245176D01*
X0022636Y0245120D01*
X0022642Y0245064D01*
X0022651Y0245009D01*
X0022664Y0244954D01*
X0022681Y0244901D01*
X0022702Y0244849D01*
X0022726Y0244798D01*
X0022754Y0244749D01*
X0022784Y0244702D01*
X0022818Y0244657D01*
X0022855Y0244615D01*
X0022895Y0244575D01*
X0022937Y0244538D01*
X0022982Y0244504D01*
X0023029Y0244474D01*
X0023078Y0244446D01*
X0023129Y0244422D01*
X0023181Y0244401D01*
X0023234Y0244384D01*
X0023289Y0244371D01*
X0023344Y0244362D01*
X0023400Y0244356D01*
X0023456Y0244354D01*
X0024483Y0244353D02*
X0024531Y0244355D01*
X0024580Y0244361D01*
X0024627Y0244370D01*
X0024674Y0244383D01*
X0024719Y0244400D01*
X0024763Y0244420D01*
X0024805Y0244444D01*
X0024846Y0244471D01*
X0024884Y0244501D01*
X0024919Y0244534D01*
X0024952Y0244569D01*
X0024982Y0244607D01*
X0025009Y0244648D01*
X0025033Y0244690D01*
X0025053Y0244734D01*
X0025070Y0244779D01*
X0025083Y0244826D01*
X0025092Y0244873D01*
X0025098Y0244922D01*
X0025100Y0244970D01*
X0025100Y0245998D01*
X0025100Y0243100D02*
X0025098Y0243052D01*
X0025092Y0243003D01*
X0025083Y0242956D01*
X0025070Y0242909D01*
X0025053Y0242864D01*
X0025033Y0242820D01*
X0025009Y0242778D01*
X0024982Y0242737D01*
X0024952Y0242699D01*
X0024919Y0242664D01*
X0024884Y0242631D01*
X0024846Y0242601D01*
X0024805Y0242574D01*
X0024763Y0242550D01*
X0024719Y0242530D01*
X0024674Y0242513D01*
X0024627Y0242500D01*
X0024580Y0242491D01*
X0024531Y0242485D01*
X0024483Y0242483D01*
X0025100Y0249325D02*
X0025100Y0250147D01*
X0025100Y0249736D02*
X0021400Y0249736D01*
X0021400Y0249325D02*
X0021400Y0250147D01*
X0022222Y0253508D02*
X0021400Y0254536D01*
X0025100Y0254536D01*
X0025100Y0253508D02*
X0025100Y0255564D01*
X0025100Y0256953D02*
X0025100Y0257159D01*
X0024894Y0257159D01*
X0024894Y0256953D01*
X0025100Y0256953D01*
X0024586Y0260295D02*
X0024490Y0260340D01*
X0024392Y0260381D01*
X0024292Y0260419D01*
X0024192Y0260454D01*
X0024090Y0260485D01*
X0023987Y0260513D01*
X0023884Y0260536D01*
X0023779Y0260557D01*
X0023674Y0260573D01*
X0023569Y0260586D01*
X0023463Y0260596D01*
X0023356Y0260601D01*
X0023250Y0260603D01*
X0023250Y0258548D02*
X0023144Y0258550D01*
X0023037Y0258555D01*
X0022931Y0258565D01*
X0022826Y0258578D01*
X0022721Y0258594D01*
X0022616Y0258615D01*
X0022513Y0258638D01*
X0022410Y0258666D01*
X0022308Y0258697D01*
X0022208Y0258732D01*
X0022108Y0258770D01*
X0022010Y0258811D01*
X0021914Y0258856D01*
X0021400Y0259576D02*
X0021402Y0259628D01*
X0021407Y0259681D01*
X0021416Y0259732D01*
X0021429Y0259783D01*
X0021445Y0259833D01*
X0021464Y0259882D01*
X0021487Y0259929D01*
X0021513Y0259975D01*
X0021542Y0260018D01*
X0021574Y0260060D01*
X0021608Y0260099D01*
X0021646Y0260136D01*
X0021686Y0260170D01*
X0021728Y0260202D01*
X0021772Y0260230D01*
X0021818Y0260255D01*
X0021865Y0260277D01*
X0021914Y0260296D01*
X0022222Y0260398D02*
X0024278Y0258754D01*
X0025100Y0259576D02*
X0025098Y0259628D01*
X0025093Y0259681D01*
X0025084Y0259732D01*
X0025071Y0259783D01*
X0025055Y0259833D01*
X0025036Y0259882D01*
X0025013Y0259929D01*
X0024987Y0259975D01*
X0024958Y0260018D01*
X0024926Y0260060D01*
X0024892Y0260099D01*
X0024854Y0260136D01*
X0024814Y0260170D01*
X0024772Y0260202D01*
X0024728Y0260230D01*
X0024682Y0260255D01*
X0024635Y0260277D01*
X0024586Y0260296D01*
X0025100Y0259576D02*
X0025098Y0259524D01*
X0025093Y0259471D01*
X0025084Y0259420D01*
X0025071Y0259369D01*
X0025055Y0259319D01*
X0025036Y0259270D01*
X0025013Y0259223D01*
X0024987Y0259177D01*
X0024958Y0259134D01*
X0024926Y0259092D01*
X0024892Y0259053D01*
X0024854Y0259016D01*
X0024814Y0258982D01*
X0024772Y0258950D01*
X0024728Y0258922D01*
X0024682Y0258897D01*
X0024635Y0258875D01*
X0024586Y0258856D01*
X0023250Y0260604D02*
X0023144Y0260602D01*
X0023037Y0260597D01*
X0022931Y0260587D01*
X0022826Y0260574D01*
X0022721Y0260558D01*
X0022616Y0260537D01*
X0022513Y0260514D01*
X0022410Y0260486D01*
X0022308Y0260455D01*
X0022208Y0260420D01*
X0022108Y0260382D01*
X0022010Y0260341D01*
X0021914Y0260296D01*
X0021400Y0259576D02*
X0021402Y0259524D01*
X0021407Y0259471D01*
X0021416Y0259420D01*
X0021429Y0259369D01*
X0021445Y0259319D01*
X0021464Y0259270D01*
X0021487Y0259223D01*
X0021513Y0259177D01*
X0021542Y0259134D01*
X0021574Y0259092D01*
X0021608Y0259053D01*
X0021646Y0259016D01*
X0021686Y0258982D01*
X0021728Y0258950D01*
X0021772Y0258922D01*
X0021818Y0258897D01*
X0021865Y0258875D01*
X0021914Y0258856D01*
X0023250Y0258548D02*
X0023356Y0258550D01*
X0023463Y0258555D01*
X0023569Y0258565D01*
X0023674Y0258578D01*
X0023779Y0258594D01*
X0023884Y0258615D01*
X0023987Y0258638D01*
X0024090Y0258666D01*
X0024192Y0258697D01*
X0024292Y0258732D01*
X0024392Y0258770D01*
X0024490Y0258811D01*
X0024586Y0258856D01*
X0027400Y0259353D02*
X0027400Y0259559D01*
X0027606Y0259559D01*
X0027606Y0259353D01*
X0027400Y0259353D01*
X0028633Y0259456D02*
X0031100Y0259456D01*
X0030483Y0260896D02*
X0029250Y0260896D01*
X0029250Y0260895D02*
X0029202Y0260897D01*
X0029153Y0260903D01*
X0029106Y0260912D01*
X0029059Y0260925D01*
X0029014Y0260942D01*
X0028970Y0260962D01*
X0028928Y0260986D01*
X0028887Y0261013D01*
X0028849Y0261043D01*
X0028814Y0261076D01*
X0028781Y0261111D01*
X0028751Y0261149D01*
X0028724Y0261190D01*
X0028700Y0261232D01*
X0028680Y0261276D01*
X0028663Y0261321D01*
X0028650Y0261368D01*
X0028641Y0261415D01*
X0028635Y0261464D01*
X0028633Y0261512D01*
X0028633Y0262540D01*
X0031717Y0262540D01*
X0031765Y0262538D01*
X0031814Y0262532D01*
X0031861Y0262523D01*
X0031908Y0262510D01*
X0031953Y0262493D01*
X0031997Y0262473D01*
X0032039Y0262449D01*
X0032080Y0262422D01*
X0032118Y0262392D01*
X0032153Y0262359D01*
X0032186Y0262324D01*
X0032216Y0262286D01*
X0032243Y0262245D01*
X0032267Y0262203D01*
X0032287Y0262159D01*
X0032304Y0262114D01*
X0032317Y0262067D01*
X0032326Y0262020D01*
X0032332Y0261971D01*
X0032334Y0261923D01*
X0032333Y0261923D02*
X0032333Y0261101D01*
X0031100Y0261512D02*
X0031100Y0262540D01*
X0031100Y0261512D02*
X0031098Y0261464D01*
X0031092Y0261415D01*
X0031083Y0261368D01*
X0031070Y0261321D01*
X0031053Y0261276D01*
X0031033Y0261232D01*
X0031009Y0261190D01*
X0030982Y0261149D01*
X0030952Y0261111D01*
X0030919Y0261076D01*
X0030884Y0261043D01*
X0030846Y0261013D01*
X0030805Y0260986D01*
X0030763Y0260962D01*
X0030719Y0260942D01*
X0030674Y0260925D01*
X0030627Y0260912D01*
X0030580Y0260903D01*
X0030531Y0260897D01*
X0030483Y0260895D01*
X0030072Y0257690D02*
X0029661Y0256662D01*
X0029642Y0256621D01*
X0029621Y0256582D01*
X0029596Y0256545D01*
X0029568Y0256510D01*
X0029537Y0256477D01*
X0029503Y0256447D01*
X0029468Y0256421D01*
X0029430Y0256397D01*
X0029390Y0256376D01*
X0029348Y0256359D01*
X0029306Y0256346D01*
X0029262Y0256336D01*
X0029218Y0256330D01*
X0029173Y0256327D01*
X0029128Y0256328D01*
X0029084Y0256333D01*
X0029040Y0256342D01*
X0028997Y0256355D01*
X0028955Y0256371D01*
X0028914Y0256390D01*
X0028876Y0256413D01*
X0028839Y0256439D01*
X0028805Y0256468D01*
X0028773Y0256500D01*
X0028744Y0256534D01*
X0028719Y0256570D01*
X0028696Y0256609D01*
X0028676Y0256649D01*
X0028660Y0256691D01*
X0028648Y0256734D01*
X0028639Y0256778D01*
X0028634Y0256823D01*
X0028633Y0256868D01*
X0030895Y0256354D02*
X0030932Y0256463D01*
X0030966Y0256573D01*
X0030996Y0256685D01*
X0031022Y0256797D01*
X0031045Y0256910D01*
X0031064Y0257024D01*
X0031079Y0257139D01*
X0031090Y0257254D01*
X0031097Y0257369D01*
X0031101Y0257484D01*
X0031100Y0257484D02*
X0031099Y0257529D01*
X0031094Y0257574D01*
X0031085Y0257618D01*
X0031073Y0257661D01*
X0031057Y0257703D01*
X0031037Y0257743D01*
X0031014Y0257782D01*
X0030989Y0257818D01*
X0030960Y0257852D01*
X0030928Y0257884D01*
X0030894Y0257913D01*
X0030857Y0257939D01*
X0030819Y0257962D01*
X0030778Y0257981D01*
X0030736Y0257997D01*
X0030693Y0258010D01*
X0030649Y0258019D01*
X0030605Y0258024D01*
X0030560Y0258025D01*
X0030515Y0258022D01*
X0030471Y0258016D01*
X0030427Y0258006D01*
X0030385Y0257993D01*
X0030343Y0257976D01*
X0030303Y0257955D01*
X0030265Y0257931D01*
X0030230Y0257905D01*
X0030196Y0257875D01*
X0030165Y0257842D01*
X0030137Y0257807D01*
X0030112Y0257770D01*
X0030091Y0257731D01*
X0030072Y0257690D01*
X0028839Y0257792D02*
X0028801Y0257704D01*
X0028768Y0257615D01*
X0028738Y0257525D01*
X0028711Y0257433D01*
X0028689Y0257340D01*
X0028670Y0257247D01*
X0028655Y0257153D01*
X0028644Y0257058D01*
X0028637Y0256963D01*
X0028633Y0256867D01*
X0029456Y0254878D02*
X0029867Y0254878D01*
X0029867Y0253234D01*
X0029456Y0253234D02*
X0030483Y0253234D01*
X0030483Y0253233D02*
X0030531Y0253235D01*
X0030580Y0253241D01*
X0030627Y0253250D01*
X0030674Y0253263D01*
X0030719Y0253280D01*
X0030763Y0253300D01*
X0030805Y0253324D01*
X0030846Y0253351D01*
X0030884Y0253381D01*
X0030919Y0253414D01*
X0030952Y0253449D01*
X0030982Y0253487D01*
X0031009Y0253528D01*
X0031033Y0253570D01*
X0031053Y0253614D01*
X0031070Y0253659D01*
X0031083Y0253706D01*
X0031092Y0253753D01*
X0031098Y0253802D01*
X0031100Y0253850D01*
X0031100Y0254878D01*
X0029456Y0254878D02*
X0029400Y0254876D01*
X0029344Y0254870D01*
X0029289Y0254861D01*
X0029234Y0254848D01*
X0029181Y0254831D01*
X0029129Y0254810D01*
X0029078Y0254786D01*
X0029029Y0254758D01*
X0028982Y0254728D01*
X0028937Y0254694D01*
X0028895Y0254657D01*
X0028855Y0254617D01*
X0028818Y0254575D01*
X0028784Y0254530D01*
X0028754Y0254483D01*
X0028726Y0254434D01*
X0028702Y0254383D01*
X0028681Y0254331D01*
X0028664Y0254278D01*
X0028651Y0254223D01*
X0028642Y0254168D01*
X0028636Y0254112D01*
X0028634Y0254056D01*
X0028636Y0254000D01*
X0028642Y0253944D01*
X0028651Y0253889D01*
X0028664Y0253834D01*
X0028681Y0253781D01*
X0028702Y0253729D01*
X0028726Y0253678D01*
X0028754Y0253629D01*
X0028784Y0253582D01*
X0028818Y0253537D01*
X0028855Y0253495D01*
X0028895Y0253455D01*
X0028937Y0253418D01*
X0028982Y0253384D01*
X0029029Y0253354D01*
X0029078Y0253326D01*
X0029129Y0253302D01*
X0029181Y0253281D01*
X0029234Y0253264D01*
X0029289Y0253251D01*
X0029344Y0253242D01*
X0029400Y0253236D01*
X0029456Y0253234D01*
X0030072Y0251604D02*
X0028428Y0251604D01*
X0028366Y0251602D01*
X0028304Y0251597D01*
X0028243Y0251587D01*
X0028182Y0251574D01*
X0028122Y0251557D01*
X0028063Y0251537D01*
X0028006Y0251513D01*
X0027950Y0251486D01*
X0027896Y0251456D01*
X0027844Y0251422D01*
X0027794Y0251385D01*
X0027746Y0251345D01*
X0027701Y0251303D01*
X0027659Y0251258D01*
X0027619Y0251210D01*
X0027582Y0251160D01*
X0027548Y0251108D01*
X0027518Y0251054D01*
X0027491Y0250998D01*
X0027467Y0250941D01*
X0027447Y0250882D01*
X0027430Y0250822D01*
X0027417Y0250761D01*
X0027407Y0250700D01*
X0027402Y0250638D01*
X0027400Y0250576D01*
X0027400Y0249548D01*
X0031100Y0249548D01*
X0031100Y0250576D01*
X0031098Y0250638D01*
X0031093Y0250700D01*
X0031083Y0250761D01*
X0031070Y0250822D01*
X0031053Y0250882D01*
X0031033Y0250941D01*
X0031009Y0250998D01*
X0030982Y0251054D01*
X0030952Y0251108D01*
X0030918Y0251160D01*
X0030881Y0251210D01*
X0030841Y0251258D01*
X0030799Y0251303D01*
X0030754Y0251345D01*
X0030706Y0251385D01*
X0030656Y0251422D01*
X0030604Y0251456D01*
X0030550Y0251486D01*
X0030494Y0251513D01*
X0030437Y0251537D01*
X0030378Y0251557D01*
X0030318Y0251574D01*
X0030257Y0251587D01*
X0030196Y0251597D01*
X0030134Y0251602D01*
X0030072Y0251604D01*
X0025100Y0261993D02*
X0025100Y0262199D01*
X0024894Y0262199D01*
X0024894Y0261993D01*
X0025100Y0261993D01*
X0024586Y0265335D02*
X0024490Y0265380D01*
X0024392Y0265421D01*
X0024292Y0265459D01*
X0024192Y0265494D01*
X0024090Y0265525D01*
X0023987Y0265553D01*
X0023884Y0265576D01*
X0023779Y0265597D01*
X0023674Y0265613D01*
X0023569Y0265626D01*
X0023463Y0265636D01*
X0023356Y0265641D01*
X0023250Y0265643D01*
X0023250Y0263588D02*
X0023144Y0263590D01*
X0023037Y0263595D01*
X0022931Y0263605D01*
X0022826Y0263618D01*
X0022721Y0263634D01*
X0022616Y0263655D01*
X0022513Y0263678D01*
X0022410Y0263706D01*
X0022308Y0263737D01*
X0022208Y0263772D01*
X0022108Y0263810D01*
X0022010Y0263851D01*
X0021914Y0263896D01*
X0021400Y0264616D02*
X0021402Y0264668D01*
X0021407Y0264721D01*
X0021416Y0264772D01*
X0021429Y0264823D01*
X0021445Y0264873D01*
X0021464Y0264922D01*
X0021487Y0264969D01*
X0021513Y0265015D01*
X0021542Y0265058D01*
X0021574Y0265100D01*
X0021608Y0265139D01*
X0021646Y0265176D01*
X0021686Y0265210D01*
X0021728Y0265242D01*
X0021772Y0265270D01*
X0021818Y0265295D01*
X0021865Y0265317D01*
X0021914Y0265336D01*
X0022222Y0265438D02*
X0024278Y0263794D01*
X0025100Y0264616D02*
X0025098Y0264668D01*
X0025093Y0264721D01*
X0025084Y0264772D01*
X0025071Y0264823D01*
X0025055Y0264873D01*
X0025036Y0264922D01*
X0025013Y0264969D01*
X0024987Y0265015D01*
X0024958Y0265058D01*
X0024926Y0265100D01*
X0024892Y0265139D01*
X0024854Y0265176D01*
X0024814Y0265210D01*
X0024772Y0265242D01*
X0024728Y0265270D01*
X0024682Y0265295D01*
X0024635Y0265317D01*
X0024586Y0265336D01*
X0025100Y0264616D02*
X0025098Y0264564D01*
X0025093Y0264511D01*
X0025084Y0264460D01*
X0025071Y0264409D01*
X0025055Y0264359D01*
X0025036Y0264310D01*
X0025013Y0264263D01*
X0024987Y0264217D01*
X0024958Y0264174D01*
X0024926Y0264132D01*
X0024892Y0264093D01*
X0024854Y0264056D01*
X0024814Y0264022D01*
X0024772Y0263990D01*
X0024728Y0263962D01*
X0024682Y0263937D01*
X0024635Y0263915D01*
X0024586Y0263896D01*
X0023250Y0265644D02*
X0023144Y0265642D01*
X0023037Y0265637D01*
X0022931Y0265627D01*
X0022826Y0265614D01*
X0022721Y0265598D01*
X0022616Y0265577D01*
X0022513Y0265554D01*
X0022410Y0265526D01*
X0022308Y0265495D01*
X0022208Y0265460D01*
X0022108Y0265422D01*
X0022010Y0265381D01*
X0021914Y0265336D01*
X0021400Y0264616D02*
X0021402Y0264564D01*
X0021407Y0264511D01*
X0021416Y0264460D01*
X0021429Y0264409D01*
X0021445Y0264359D01*
X0021464Y0264310D01*
X0021487Y0264263D01*
X0021513Y0264217D01*
X0021542Y0264174D01*
X0021574Y0264132D01*
X0021608Y0264093D01*
X0021646Y0264056D01*
X0021686Y0264022D01*
X0021728Y0263990D01*
X0021772Y0263962D01*
X0021818Y0263937D01*
X0021865Y0263915D01*
X0021914Y0263896D01*
X0023250Y0263588D02*
X0023356Y0263590D01*
X0023463Y0263595D01*
X0023569Y0263605D01*
X0023674Y0263618D01*
X0023779Y0263634D01*
X0023884Y0263655D01*
X0023987Y0263678D01*
X0024090Y0263706D01*
X0024192Y0263737D01*
X0024292Y0263772D01*
X0024392Y0263810D01*
X0024490Y0263851D01*
X0024586Y0263896D01*
X0028633Y0264274D02*
X0028633Y0265301D01*
X0028635Y0265349D01*
X0028641Y0265398D01*
X0028650Y0265445D01*
X0028663Y0265492D01*
X0028680Y0265537D01*
X0028700Y0265581D01*
X0028724Y0265623D01*
X0028751Y0265664D01*
X0028781Y0265702D01*
X0028814Y0265737D01*
X0028849Y0265770D01*
X0028887Y0265800D01*
X0028928Y0265827D01*
X0028970Y0265851D01*
X0029014Y0265871D01*
X0029059Y0265888D01*
X0029106Y0265901D01*
X0029153Y0265910D01*
X0029202Y0265916D01*
X0029250Y0265918D01*
X0031100Y0265918D01*
X0031100Y0264274D02*
X0028633Y0264274D01*
X0029250Y0234340D02*
X0031100Y0234340D01*
X0031100Y0233415D01*
X0031098Y0233363D01*
X0031092Y0233310D01*
X0031083Y0233259D01*
X0031070Y0233208D01*
X0031053Y0233158D01*
X0031032Y0233110D01*
X0031008Y0233063D01*
X0030981Y0233018D01*
X0030950Y0232976D01*
X0030916Y0232935D01*
X0030880Y0232897D01*
X0030841Y0232862D01*
X0030799Y0232830D01*
X0030756Y0232801D01*
X0030710Y0232776D01*
X0030662Y0232753D01*
X0030613Y0232735D01*
X0030563Y0232719D01*
X0030512Y0232708D01*
X0030460Y0232700D01*
X0030407Y0232696D01*
X0030355Y0232696D01*
X0030302Y0232700D01*
X0030250Y0232708D01*
X0030199Y0232719D01*
X0030149Y0232735D01*
X0030100Y0232753D01*
X0030052Y0232776D01*
X0030006Y0232801D01*
X0029963Y0232830D01*
X0029921Y0232862D01*
X0029882Y0232897D01*
X0029846Y0232935D01*
X0029812Y0232976D01*
X0029781Y0233018D01*
X0029754Y0233063D01*
X0029730Y0233110D01*
X0029709Y0233158D01*
X0029692Y0233208D01*
X0029679Y0233259D01*
X0029670Y0233310D01*
X0029664Y0233363D01*
X0029662Y0233415D01*
X0029661Y0233415D02*
X0029661Y0234340D01*
X0029250Y0234341D02*
X0029202Y0234339D01*
X0029153Y0234333D01*
X0029106Y0234324D01*
X0029059Y0234311D01*
X0029014Y0234294D01*
X0028970Y0234274D01*
X0028928Y0234250D01*
X0028887Y0234223D01*
X0028849Y0234193D01*
X0028814Y0234160D01*
X0028781Y0234125D01*
X0028751Y0234087D01*
X0028724Y0234046D01*
X0028700Y0234004D01*
X0028680Y0233960D01*
X0028663Y0233915D01*
X0028650Y0233868D01*
X0028641Y0233821D01*
X0028635Y0233772D01*
X0028633Y0233724D01*
X0028633Y0232901D01*
X0029456Y0231238D02*
X0029867Y0231238D01*
X0029867Y0229594D01*
X0029456Y0229594D02*
X0030483Y0229594D01*
X0030531Y0229596D01*
X0030580Y0229602D01*
X0030627Y0229611D01*
X0030674Y0229624D01*
X0030719Y0229641D01*
X0030763Y0229661D01*
X0030805Y0229685D01*
X0030846Y0229712D01*
X0030884Y0229742D01*
X0030919Y0229775D01*
X0030952Y0229810D01*
X0030982Y0229848D01*
X0031009Y0229889D01*
X0031033Y0229931D01*
X0031053Y0229975D01*
X0031070Y0230020D01*
X0031083Y0230067D01*
X0031092Y0230114D01*
X0031098Y0230163D01*
X0031100Y0230211D01*
X0031100Y0231238D01*
X0029456Y0231238D02*
X0029400Y0231236D01*
X0029344Y0231230D01*
X0029289Y0231221D01*
X0029234Y0231208D01*
X0029181Y0231191D01*
X0029129Y0231170D01*
X0029078Y0231146D01*
X0029029Y0231118D01*
X0028982Y0231088D01*
X0028937Y0231054D01*
X0028895Y0231017D01*
X0028855Y0230977D01*
X0028818Y0230935D01*
X0028784Y0230890D01*
X0028754Y0230843D01*
X0028726Y0230794D01*
X0028702Y0230743D01*
X0028681Y0230691D01*
X0028664Y0230638D01*
X0028651Y0230583D01*
X0028642Y0230528D01*
X0028636Y0230472D01*
X0028634Y0230416D01*
X0028636Y0230360D01*
X0028642Y0230304D01*
X0028651Y0230249D01*
X0028664Y0230194D01*
X0028681Y0230141D01*
X0028702Y0230089D01*
X0028726Y0230038D01*
X0028754Y0229989D01*
X0028784Y0229942D01*
X0028818Y0229897D01*
X0028855Y0229855D01*
X0028895Y0229815D01*
X0028937Y0229778D01*
X0028982Y0229744D01*
X0029029Y0229714D01*
X0029078Y0229686D01*
X0029129Y0229662D01*
X0029181Y0229641D01*
X0029234Y0229624D01*
X0029289Y0229611D01*
X0029344Y0229602D01*
X0029400Y0229596D01*
X0029456Y0229594D01*
X0029250Y0227998D02*
X0031100Y0227998D01*
X0031100Y0226354D02*
X0028633Y0226354D01*
X0028633Y0227382D01*
X0028635Y0227430D01*
X0028641Y0227479D01*
X0028650Y0227526D01*
X0028663Y0227573D01*
X0028680Y0227618D01*
X0028700Y0227662D01*
X0028724Y0227704D01*
X0028751Y0227745D01*
X0028781Y0227783D01*
X0028814Y0227818D01*
X0028849Y0227851D01*
X0028887Y0227881D01*
X0028928Y0227908D01*
X0028970Y0227932D01*
X0029014Y0227952D01*
X0029059Y0227969D01*
X0029106Y0227982D01*
X0029153Y0227991D01*
X0029202Y0227997D01*
X0029250Y0227999D01*
X0028633Y0224776D02*
X0031100Y0224776D01*
X0029456Y0222428D02*
X0029456Y0221400D01*
X0029456Y0222428D02*
X0029454Y0222491D01*
X0029448Y0222554D01*
X0029438Y0222617D01*
X0029425Y0222679D01*
X0029408Y0222740D01*
X0029387Y0222799D01*
X0029362Y0222858D01*
X0029334Y0222914D01*
X0029302Y0222969D01*
X0029267Y0223022D01*
X0029229Y0223072D01*
X0029188Y0223121D01*
X0029144Y0223166D01*
X0029097Y0223209D01*
X0029048Y0223248D01*
X0028996Y0223285D01*
X0028942Y0223318D01*
X0028886Y0223348D01*
X0028829Y0223375D01*
X0028770Y0223398D01*
X0028709Y0223417D01*
X0028648Y0223432D01*
X0028586Y0223444D01*
X0028523Y0223452D01*
X0028460Y0223456D01*
X0028396Y0223456D01*
X0028333Y0223452D01*
X0028270Y0223444D01*
X0028208Y0223432D01*
X0028147Y0223417D01*
X0028086Y0223398D01*
X0028027Y0223375D01*
X0027970Y0223348D01*
X0027914Y0223318D01*
X0027860Y0223285D01*
X0027808Y0223248D01*
X0027759Y0223209D01*
X0027712Y0223166D01*
X0027668Y0223121D01*
X0027627Y0223072D01*
X0027589Y0223022D01*
X0027554Y0222969D01*
X0027522Y0222914D01*
X0027494Y0222858D01*
X0027469Y0222799D01*
X0027448Y0222740D01*
X0027431Y0222679D01*
X0027418Y0222617D01*
X0027408Y0222554D01*
X0027402Y0222491D01*
X0027400Y0222428D01*
X0027400Y0221400D01*
X0031100Y0221400D01*
X0027606Y0224673D02*
X0027606Y0224879D01*
X0027400Y0224879D01*
X0027400Y0224673D01*
X0027606Y0224673D01*
X0025100Y0224776D02*
X0022633Y0224776D01*
X0021606Y0224879D02*
X0021606Y0224673D01*
X0021400Y0224673D01*
X0021400Y0224879D01*
X0021606Y0224879D01*
X0022633Y0226354D02*
X0022633Y0227382D01*
X0022635Y0227430D01*
X0022641Y0227479D01*
X0022650Y0227526D01*
X0022663Y0227573D01*
X0022680Y0227618D01*
X0022700Y0227662D01*
X0022724Y0227704D01*
X0022751Y0227745D01*
X0022781Y0227783D01*
X0022814Y0227818D01*
X0022849Y0227851D01*
X0022887Y0227881D01*
X0022928Y0227908D01*
X0022970Y0227932D01*
X0023014Y0227952D01*
X0023059Y0227969D01*
X0023106Y0227982D01*
X0023153Y0227991D01*
X0023202Y0227997D01*
X0023250Y0227999D01*
X0023250Y0227998D02*
X0025100Y0227998D01*
X0025100Y0226354D02*
X0022633Y0226354D01*
X0023456Y0229594D02*
X0024483Y0229594D01*
X0023867Y0229594D02*
X0023867Y0231238D01*
X0023456Y0231238D01*
X0023400Y0231236D01*
X0023344Y0231230D01*
X0023289Y0231221D01*
X0023234Y0231208D01*
X0023181Y0231191D01*
X0023129Y0231170D01*
X0023078Y0231146D01*
X0023029Y0231118D01*
X0022982Y0231088D01*
X0022937Y0231054D01*
X0022895Y0231017D01*
X0022855Y0230977D01*
X0022818Y0230935D01*
X0022784Y0230890D01*
X0022754Y0230843D01*
X0022726Y0230794D01*
X0022702Y0230743D01*
X0022681Y0230691D01*
X0022664Y0230638D01*
X0022651Y0230583D01*
X0022642Y0230528D01*
X0022636Y0230472D01*
X0022634Y0230416D01*
X0022636Y0230360D01*
X0022642Y0230304D01*
X0022651Y0230249D01*
X0022664Y0230194D01*
X0022681Y0230141D01*
X0022702Y0230089D01*
X0022726Y0230038D01*
X0022754Y0229989D01*
X0022784Y0229942D01*
X0022818Y0229897D01*
X0022855Y0229855D01*
X0022895Y0229815D01*
X0022937Y0229778D01*
X0022982Y0229744D01*
X0023029Y0229714D01*
X0023078Y0229686D01*
X0023129Y0229662D01*
X0023181Y0229641D01*
X0023234Y0229624D01*
X0023289Y0229611D01*
X0023344Y0229602D01*
X0023400Y0229596D01*
X0023456Y0229594D01*
X0024483Y0229594D02*
X0024531Y0229596D01*
X0024580Y0229602D01*
X0024627Y0229611D01*
X0024674Y0229624D01*
X0024719Y0229641D01*
X0024763Y0229661D01*
X0024805Y0229685D01*
X0024846Y0229712D01*
X0024884Y0229742D01*
X0024919Y0229775D01*
X0024952Y0229810D01*
X0024982Y0229848D01*
X0025009Y0229889D01*
X0025033Y0229931D01*
X0025053Y0229975D01*
X0025070Y0230020D01*
X0025083Y0230067D01*
X0025092Y0230114D01*
X0025098Y0230163D01*
X0025100Y0230211D01*
X0025100Y0231238D01*
X0025100Y0233415D02*
X0025100Y0234340D01*
X0023250Y0234340D01*
X0023661Y0234340D02*
X0023661Y0233415D01*
X0023250Y0234341D02*
X0023202Y0234339D01*
X0023153Y0234333D01*
X0023106Y0234324D01*
X0023059Y0234311D01*
X0023014Y0234294D01*
X0022970Y0234274D01*
X0022928Y0234250D01*
X0022887Y0234223D01*
X0022849Y0234193D01*
X0022814Y0234160D01*
X0022781Y0234125D01*
X0022751Y0234087D01*
X0022724Y0234046D01*
X0022700Y0234004D01*
X0022680Y0233960D01*
X0022663Y0233915D01*
X0022650Y0233868D01*
X0022641Y0233821D01*
X0022635Y0233772D01*
X0022633Y0233724D01*
X0022633Y0232901D01*
X0023662Y0233415D02*
X0023664Y0233363D01*
X0023670Y0233310D01*
X0023679Y0233259D01*
X0023692Y0233208D01*
X0023709Y0233158D01*
X0023730Y0233110D01*
X0023754Y0233063D01*
X0023781Y0233018D01*
X0023812Y0232976D01*
X0023846Y0232935D01*
X0023882Y0232897D01*
X0023921Y0232862D01*
X0023963Y0232830D01*
X0024006Y0232801D01*
X0024052Y0232776D01*
X0024100Y0232753D01*
X0024149Y0232735D01*
X0024199Y0232719D01*
X0024250Y0232708D01*
X0024302Y0232700D01*
X0024355Y0232696D01*
X0024407Y0232696D01*
X0024460Y0232700D01*
X0024512Y0232708D01*
X0024563Y0232719D01*
X0024613Y0232735D01*
X0024662Y0232753D01*
X0024710Y0232776D01*
X0024756Y0232801D01*
X0024799Y0232830D01*
X0024841Y0232862D01*
X0024880Y0232897D01*
X0024916Y0232935D01*
X0024950Y0232976D01*
X0024981Y0233018D01*
X0025008Y0233063D01*
X0025032Y0233110D01*
X0025053Y0233158D01*
X0025070Y0233208D01*
X0025083Y0233259D01*
X0025092Y0233310D01*
X0025098Y0233363D01*
X0025100Y0233415D01*
X0023456Y0222428D02*
X0023456Y0221400D01*
X0023456Y0222428D02*
X0023454Y0222491D01*
X0023448Y0222554D01*
X0023438Y0222617D01*
X0023425Y0222679D01*
X0023408Y0222740D01*
X0023387Y0222799D01*
X0023362Y0222858D01*
X0023334Y0222914D01*
X0023302Y0222969D01*
X0023267Y0223022D01*
X0023229Y0223072D01*
X0023188Y0223121D01*
X0023144Y0223166D01*
X0023097Y0223209D01*
X0023048Y0223248D01*
X0022996Y0223285D01*
X0022942Y0223318D01*
X0022886Y0223348D01*
X0022829Y0223375D01*
X0022770Y0223398D01*
X0022709Y0223417D01*
X0022648Y0223432D01*
X0022586Y0223444D01*
X0022523Y0223452D01*
X0022460Y0223456D01*
X0022396Y0223456D01*
X0022333Y0223452D01*
X0022270Y0223444D01*
X0022208Y0223432D01*
X0022147Y0223417D01*
X0022086Y0223398D01*
X0022027Y0223375D01*
X0021970Y0223348D01*
X0021914Y0223318D01*
X0021860Y0223285D01*
X0021808Y0223248D01*
X0021759Y0223209D01*
X0021712Y0223166D01*
X0021668Y0223121D01*
X0021627Y0223072D01*
X0021589Y0223022D01*
X0021554Y0222969D01*
X0021522Y0222914D01*
X0021494Y0222858D01*
X0021469Y0222799D01*
X0021448Y0222740D01*
X0021431Y0222679D01*
X0021418Y0222617D01*
X0021408Y0222554D01*
X0021402Y0222491D01*
X0021400Y0222428D01*
X0021400Y0221400D01*
X0025100Y0221400D01*
X0008974Y0221231D02*
X0008974Y0220425D01*
X0006074Y0220425D01*
X0006074Y0221231D01*
X0006076Y0221286D01*
X0006082Y0221341D01*
X0006091Y0221395D01*
X0006104Y0221448D01*
X0006121Y0221501D01*
X0006141Y0221552D01*
X0006164Y0221602D01*
X0006191Y0221650D01*
X0006222Y0221696D01*
X0006255Y0221740D01*
X0006291Y0221781D01*
X0006330Y0221820D01*
X0006371Y0221856D01*
X0006415Y0221889D01*
X0006461Y0221920D01*
X0006509Y0221947D01*
X0006559Y0221970D01*
X0006610Y0221990D01*
X0006663Y0222007D01*
X0006716Y0222020D01*
X0006770Y0222029D01*
X0006825Y0222035D01*
X0006880Y0222037D01*
X0006880Y0222036D02*
X0008168Y0222036D01*
X0008168Y0222037D02*
X0008223Y0222035D01*
X0008278Y0222029D01*
X0008332Y0222020D01*
X0008385Y0222007D01*
X0008438Y0221990D01*
X0008489Y0221970D01*
X0008539Y0221947D01*
X0008587Y0221920D01*
X0008633Y0221889D01*
X0008677Y0221856D01*
X0008718Y0221820D01*
X0008757Y0221781D01*
X0008793Y0221740D01*
X0008826Y0221696D01*
X0008857Y0221650D01*
X0008884Y0221602D01*
X0008907Y0221552D01*
X0008927Y0221501D01*
X0008944Y0221448D01*
X0008957Y0221395D01*
X0008966Y0221341D01*
X0008972Y0221286D01*
X0008974Y0221231D01*
X0008974Y0219224D02*
X0008974Y0217935D01*
X0006074Y0217935D01*
X0161217Y0020785D02*
X0164117Y0020785D01*
X0161217Y0019174D01*
X0164117Y0019174D01*
X0164117Y0017902D02*
X0164117Y0017257D01*
X0164117Y0017579D02*
X0161217Y0017579D01*
X0161217Y0017257D02*
X0161217Y0017902D01*
D11*
X0142350Y0024566D02*
X0140150Y0024566D01*
X0140150Y0025177D01*
X0140152Y0025225D01*
X0140158Y0025273D01*
X0140167Y0025320D01*
X0140180Y0025366D01*
X0140197Y0025411D01*
X0140217Y0025454D01*
X0140240Y0025496D01*
X0140267Y0025536D01*
X0140296Y0025574D01*
X0140329Y0025609D01*
X0140364Y0025642D01*
X0140402Y0025671D01*
X0140442Y0025698D01*
X0140484Y0025721D01*
X0140527Y0025741D01*
X0140572Y0025758D01*
X0140618Y0025771D01*
X0140665Y0025780D01*
X0140713Y0025786D01*
X0140761Y0025788D01*
X0140809Y0025786D01*
X0140857Y0025780D01*
X0140904Y0025771D01*
X0140950Y0025758D01*
X0140995Y0025741D01*
X0141038Y0025721D01*
X0141080Y0025698D01*
X0141120Y0025671D01*
X0141158Y0025642D01*
X0141193Y0025609D01*
X0141226Y0025574D01*
X0141255Y0025536D01*
X0141282Y0025496D01*
X0141305Y0025454D01*
X0141325Y0025411D01*
X0141342Y0025366D01*
X0141355Y0025320D01*
X0141364Y0025273D01*
X0141370Y0025225D01*
X0141372Y0025177D01*
X0141372Y0024566D01*
X0141372Y0025299D02*
X0142350Y0025788D01*
X0142350Y0026712D02*
X0142350Y0027323D01*
X0142348Y0027371D01*
X0142342Y0027419D01*
X0142333Y0027466D01*
X0142320Y0027512D01*
X0142303Y0027557D01*
X0142283Y0027600D01*
X0142260Y0027642D01*
X0142233Y0027682D01*
X0142204Y0027720D01*
X0142171Y0027755D01*
X0142136Y0027788D01*
X0142098Y0027817D01*
X0142058Y0027844D01*
X0142016Y0027867D01*
X0141973Y0027887D01*
X0141928Y0027904D01*
X0141882Y0027917D01*
X0141835Y0027926D01*
X0141787Y0027932D01*
X0141739Y0027934D01*
X0141691Y0027932D01*
X0141643Y0027926D01*
X0141596Y0027917D01*
X0141550Y0027904D01*
X0141505Y0027887D01*
X0141462Y0027867D01*
X0141420Y0027844D01*
X0141380Y0027817D01*
X0141342Y0027788D01*
X0141307Y0027755D01*
X0141274Y0027720D01*
X0141245Y0027682D01*
X0141218Y0027642D01*
X0141195Y0027600D01*
X0141175Y0027557D01*
X0141158Y0027512D01*
X0141145Y0027466D01*
X0141136Y0027419D01*
X0141130Y0027371D01*
X0141128Y0027323D01*
X0141128Y0027445D02*
X0141128Y0026956D01*
X0141128Y0027445D02*
X0141126Y0027488D01*
X0141121Y0027530D01*
X0141111Y0027572D01*
X0141099Y0027612D01*
X0141082Y0027652D01*
X0141062Y0027690D01*
X0141040Y0027725D01*
X0141014Y0027759D01*
X0140985Y0027791D01*
X0140953Y0027820D01*
X0140919Y0027846D01*
X0140884Y0027868D01*
X0140846Y0027888D01*
X0140806Y0027905D01*
X0140766Y0027917D01*
X0140724Y0027927D01*
X0140682Y0027932D01*
X0140639Y0027934D01*
X0140596Y0027932D01*
X0140554Y0027927D01*
X0140512Y0027917D01*
X0140472Y0027905D01*
X0140432Y0027888D01*
X0140395Y0027868D01*
X0140359Y0027846D01*
X0140325Y0027820D01*
X0140293Y0027791D01*
X0140264Y0027759D01*
X0140238Y0027725D01*
X0140216Y0027690D01*
X0140196Y0027652D01*
X0140179Y0027612D01*
X0140167Y0027572D01*
X0140157Y0027530D01*
X0140152Y0027488D01*
X0140150Y0027445D01*
X0140150Y0026712D01*
X0127934Y0020639D02*
X0126712Y0020639D01*
X0127201Y0022350D01*
X0127567Y0021128D02*
X0127567Y0020150D01*
X0125788Y0020150D02*
X0125299Y0021128D01*
X0125177Y0021128D02*
X0124566Y0021128D01*
X0125177Y0021128D02*
X0125225Y0021130D01*
X0125273Y0021136D01*
X0125320Y0021145D01*
X0125366Y0021158D01*
X0125411Y0021175D01*
X0125454Y0021195D01*
X0125496Y0021218D01*
X0125536Y0021245D01*
X0125574Y0021274D01*
X0125609Y0021307D01*
X0125642Y0021342D01*
X0125671Y0021380D01*
X0125698Y0021420D01*
X0125721Y0021462D01*
X0125741Y0021505D01*
X0125758Y0021550D01*
X0125771Y0021596D01*
X0125780Y0021643D01*
X0125786Y0021691D01*
X0125788Y0021739D01*
X0125786Y0021787D01*
X0125780Y0021835D01*
X0125771Y0021882D01*
X0125758Y0021928D01*
X0125741Y0021973D01*
X0125721Y0022016D01*
X0125698Y0022058D01*
X0125671Y0022098D01*
X0125642Y0022136D01*
X0125609Y0022171D01*
X0125574Y0022204D01*
X0125536Y0022233D01*
X0125496Y0022260D01*
X0125454Y0022283D01*
X0125411Y0022303D01*
X0125366Y0022320D01*
X0125320Y0022333D01*
X0125273Y0022342D01*
X0125225Y0022348D01*
X0125177Y0022350D01*
X0124566Y0022350D01*
X0124566Y0020150D01*
X0104021Y0050150D02*
X0102799Y0050150D01*
X0103410Y0050150D02*
X0103410Y0052350D01*
X0102799Y0051861D01*
X0101966Y0052350D02*
X0100744Y0051006D01*
X0101232Y0051494D02*
X0101966Y0050150D01*
X0100744Y0050150D02*
X0100744Y0052350D01*
X0099701Y0051739D02*
X0099701Y0050761D01*
X0099699Y0050713D01*
X0099693Y0050665D01*
X0099684Y0050618D01*
X0099671Y0050572D01*
X0099654Y0050527D01*
X0099634Y0050484D01*
X0099611Y0050442D01*
X0099584Y0050402D01*
X0099555Y0050364D01*
X0099522Y0050329D01*
X0099487Y0050296D01*
X0099449Y0050267D01*
X0099409Y0050240D01*
X0099367Y0050217D01*
X0099324Y0050197D01*
X0099279Y0050180D01*
X0099233Y0050167D01*
X0099186Y0050158D01*
X0099138Y0050152D01*
X0099090Y0050150D01*
X0099042Y0050152D01*
X0098994Y0050158D01*
X0098947Y0050167D01*
X0098901Y0050180D01*
X0098856Y0050197D01*
X0098813Y0050217D01*
X0098771Y0050240D01*
X0098731Y0050267D01*
X0098693Y0050296D01*
X0098658Y0050329D01*
X0098625Y0050364D01*
X0098596Y0050402D01*
X0098569Y0050442D01*
X0098546Y0050484D01*
X0098526Y0050527D01*
X0098509Y0050572D01*
X0098496Y0050618D01*
X0098487Y0050665D01*
X0098481Y0050713D01*
X0098479Y0050761D01*
X0098479Y0051739D01*
X0098481Y0051787D01*
X0098487Y0051835D01*
X0098496Y0051882D01*
X0098509Y0051928D01*
X0098526Y0051973D01*
X0098546Y0052016D01*
X0098569Y0052058D01*
X0098596Y0052098D01*
X0098625Y0052136D01*
X0098658Y0052171D01*
X0098693Y0052204D01*
X0098731Y0052233D01*
X0098771Y0052260D01*
X0098813Y0052283D01*
X0098856Y0052303D01*
X0098901Y0052320D01*
X0098947Y0052333D01*
X0098994Y0052342D01*
X0099042Y0052348D01*
X0099090Y0052350D01*
X0099138Y0052348D01*
X0099186Y0052342D01*
X0099233Y0052333D01*
X0099279Y0052320D01*
X0099324Y0052303D01*
X0099367Y0052283D01*
X0099409Y0052260D01*
X0099449Y0052233D01*
X0099487Y0052204D01*
X0099522Y0052171D01*
X0099555Y0052136D01*
X0099584Y0052098D01*
X0099611Y0052058D01*
X0099634Y0052016D01*
X0099654Y0051973D01*
X0099671Y0051928D01*
X0099684Y0051882D01*
X0099693Y0051835D01*
X0099699Y0051787D01*
X0099701Y0051739D01*
X0100225Y0007350D02*
X0100713Y0007350D01*
X0100225Y0007350D02*
X0100182Y0007348D01*
X0100140Y0007343D01*
X0100098Y0007333D01*
X0100058Y0007321D01*
X0100018Y0007304D01*
X0099980Y0007284D01*
X0099945Y0007262D01*
X0099911Y0007236D01*
X0099879Y0007207D01*
X0099850Y0007175D01*
X0099824Y0007141D01*
X0099802Y0007105D01*
X0099782Y0007068D01*
X0099765Y0007028D01*
X0099753Y0006988D01*
X0099743Y0006946D01*
X0099738Y0006904D01*
X0099736Y0006861D01*
X0099736Y0005639D01*
X0099738Y0005596D01*
X0099743Y0005554D01*
X0099753Y0005512D01*
X0099765Y0005472D01*
X0099782Y0005432D01*
X0099802Y0005395D01*
X0099824Y0005359D01*
X0099850Y0005325D01*
X0099879Y0005293D01*
X0099911Y0005264D01*
X0099945Y0005238D01*
X0099981Y0005216D01*
X0100018Y0005196D01*
X0100058Y0005179D01*
X0100098Y0005167D01*
X0100140Y0005157D01*
X0100182Y0005152D01*
X0100225Y0005150D01*
X0100713Y0005150D01*
X0101542Y0005150D02*
X0102153Y0005150D01*
X0102201Y0005152D01*
X0102249Y0005158D01*
X0102296Y0005167D01*
X0102342Y0005180D01*
X0102387Y0005197D01*
X0102430Y0005217D01*
X0102472Y0005240D01*
X0102512Y0005267D01*
X0102550Y0005296D01*
X0102585Y0005329D01*
X0102618Y0005364D01*
X0102647Y0005402D01*
X0102674Y0005442D01*
X0102697Y0005484D01*
X0102717Y0005527D01*
X0102734Y0005572D01*
X0102747Y0005618D01*
X0102756Y0005665D01*
X0102762Y0005713D01*
X0102764Y0005761D01*
X0102762Y0005809D01*
X0102756Y0005857D01*
X0102747Y0005904D01*
X0102734Y0005950D01*
X0102717Y0005995D01*
X0102697Y0006038D01*
X0102674Y0006080D01*
X0102647Y0006120D01*
X0102618Y0006158D01*
X0102585Y0006193D01*
X0102550Y0006226D01*
X0102512Y0006255D01*
X0102472Y0006282D01*
X0102430Y0006305D01*
X0102387Y0006325D01*
X0102342Y0006342D01*
X0102296Y0006355D01*
X0102249Y0006364D01*
X0102201Y0006370D01*
X0102153Y0006372D01*
X0102275Y0006372D02*
X0101787Y0006372D01*
X0102275Y0006372D02*
X0102318Y0006374D01*
X0102360Y0006379D01*
X0102402Y0006389D01*
X0102442Y0006401D01*
X0102482Y0006418D01*
X0102520Y0006438D01*
X0102555Y0006460D01*
X0102589Y0006486D01*
X0102621Y0006515D01*
X0102650Y0006547D01*
X0102676Y0006581D01*
X0102698Y0006616D01*
X0102718Y0006654D01*
X0102735Y0006694D01*
X0102747Y0006734D01*
X0102757Y0006776D01*
X0102762Y0006818D01*
X0102764Y0006861D01*
X0102762Y0006904D01*
X0102757Y0006946D01*
X0102747Y0006988D01*
X0102735Y0007028D01*
X0102718Y0007068D01*
X0102698Y0007105D01*
X0102676Y0007141D01*
X0102650Y0007175D01*
X0102621Y0007207D01*
X0102589Y0007236D01*
X0102555Y0007262D01*
X0102520Y0007284D01*
X0102482Y0007304D01*
X0102442Y0007321D01*
X0102402Y0007333D01*
X0102360Y0007343D01*
X0102318Y0007348D01*
X0102275Y0007350D01*
X0101542Y0007350D01*
X0140150Y0054566D02*
X0140150Y0055177D01*
X0140150Y0054566D02*
X0142350Y0054566D01*
X0141372Y0054566D02*
X0141372Y0055177D01*
X0141372Y0055299D02*
X0142350Y0055788D01*
X0142350Y0056712D02*
X0142350Y0057934D01*
X0142350Y0056712D02*
X0141128Y0057751D01*
X0140150Y0057384D02*
X0140152Y0057332D01*
X0140158Y0057280D01*
X0140167Y0057228D01*
X0140181Y0057178D01*
X0140198Y0057128D01*
X0140219Y0057080D01*
X0140243Y0057034D01*
X0140270Y0056990D01*
X0140301Y0056947D01*
X0140335Y0056907D01*
X0140371Y0056870D01*
X0140411Y0056836D01*
X0140453Y0056804D01*
X0140496Y0056776D01*
X0140542Y0056751D01*
X0140590Y0056729D01*
X0140639Y0056711D01*
X0141128Y0057751D02*
X0141094Y0057784D01*
X0141057Y0057814D01*
X0141017Y0057842D01*
X0140976Y0057866D01*
X0140933Y0057886D01*
X0140888Y0057903D01*
X0140842Y0057917D01*
X0140795Y0057926D01*
X0140748Y0057932D01*
X0140700Y0057934D01*
X0140655Y0057932D01*
X0140609Y0057926D01*
X0140565Y0057917D01*
X0140521Y0057904D01*
X0140479Y0057888D01*
X0140438Y0057868D01*
X0140399Y0057844D01*
X0140362Y0057818D01*
X0140327Y0057789D01*
X0140295Y0057757D01*
X0140266Y0057722D01*
X0140240Y0057685D01*
X0140216Y0057646D01*
X0140196Y0057605D01*
X0140180Y0057563D01*
X0140167Y0057519D01*
X0140158Y0057475D01*
X0140152Y0057429D01*
X0140150Y0057384D01*
X0140150Y0055177D02*
X0140152Y0055225D01*
X0140158Y0055273D01*
X0140167Y0055320D01*
X0140180Y0055366D01*
X0140197Y0055411D01*
X0140217Y0055454D01*
X0140240Y0055496D01*
X0140267Y0055536D01*
X0140296Y0055574D01*
X0140329Y0055609D01*
X0140364Y0055642D01*
X0140402Y0055671D01*
X0140442Y0055698D01*
X0140484Y0055721D01*
X0140527Y0055741D01*
X0140572Y0055758D01*
X0140618Y0055771D01*
X0140665Y0055780D01*
X0140713Y0055786D01*
X0140761Y0055788D01*
X0140809Y0055786D01*
X0140857Y0055780D01*
X0140904Y0055771D01*
X0140950Y0055758D01*
X0140995Y0055741D01*
X0141038Y0055721D01*
X0141080Y0055698D01*
X0141120Y0055671D01*
X0141158Y0055642D01*
X0141193Y0055609D01*
X0141226Y0055574D01*
X0141255Y0055536D01*
X0141282Y0055496D01*
X0141305Y0055454D01*
X0141325Y0055411D01*
X0141342Y0055366D01*
X0141355Y0055320D01*
X0141364Y0055273D01*
X0141370Y0055225D01*
X0141372Y0055177D01*
X0165150Y0129648D02*
X0167350Y0130871D01*
X0165150Y0130871D01*
X0165639Y0131874D02*
X0166861Y0131874D01*
X0166904Y0131876D01*
X0166946Y0131881D01*
X0166988Y0131891D01*
X0167028Y0131903D01*
X0167068Y0131920D01*
X0167106Y0131940D01*
X0167141Y0131962D01*
X0167175Y0131988D01*
X0167207Y0132017D01*
X0167236Y0132049D01*
X0167262Y0132083D01*
X0167284Y0132119D01*
X0167304Y0132156D01*
X0167321Y0132196D01*
X0167333Y0132236D01*
X0167343Y0132278D01*
X0167348Y0132320D01*
X0167350Y0132363D01*
X0167350Y0132852D01*
X0165639Y0131874D02*
X0165596Y0131876D01*
X0165554Y0131881D01*
X0165512Y0131891D01*
X0165472Y0131903D01*
X0165432Y0131920D01*
X0165395Y0131940D01*
X0165359Y0131962D01*
X0165325Y0131988D01*
X0165293Y0132017D01*
X0165264Y0132049D01*
X0165238Y0132083D01*
X0165216Y0132118D01*
X0165196Y0132156D01*
X0165179Y0132196D01*
X0165167Y0132236D01*
X0165157Y0132278D01*
X0165152Y0132320D01*
X0165150Y0132363D01*
X0165150Y0132852D01*
X0165150Y0129648D02*
X0167350Y0129648D01*
X0151150Y0140150D02*
X0150172Y0140150D01*
X0150172Y0142350D01*
X0151150Y0142350D01*
X0150906Y0141372D02*
X0150172Y0141372D01*
X0149086Y0141372D02*
X0149086Y0140150D01*
X0148353Y0140150D01*
X0148310Y0140152D01*
X0148268Y0140157D01*
X0148226Y0140167D01*
X0148186Y0140179D01*
X0148146Y0140196D01*
X0148109Y0140216D01*
X0148073Y0140238D01*
X0148039Y0140264D01*
X0148007Y0140293D01*
X0147978Y0140325D01*
X0147952Y0140359D01*
X0147930Y0140395D01*
X0147910Y0140432D01*
X0147893Y0140472D01*
X0147881Y0140512D01*
X0147871Y0140554D01*
X0147866Y0140596D01*
X0147864Y0140639D01*
X0147864Y0141861D01*
X0147866Y0141904D01*
X0147871Y0141946D01*
X0147881Y0141988D01*
X0147893Y0142028D01*
X0147910Y0142068D01*
X0147930Y0142105D01*
X0147952Y0142141D01*
X0147978Y0142175D01*
X0148007Y0142207D01*
X0148039Y0142236D01*
X0148073Y0142262D01*
X0148108Y0142284D01*
X0148146Y0142304D01*
X0148186Y0142321D01*
X0148226Y0142333D01*
X0148268Y0142343D01*
X0148310Y0142348D01*
X0148353Y0142350D01*
X0149086Y0142350D01*
X0149086Y0141372D02*
X0148719Y0141372D01*
X0146782Y0141739D02*
X0146782Y0140761D01*
X0146780Y0140713D01*
X0146774Y0140665D01*
X0146765Y0140618D01*
X0146752Y0140572D01*
X0146735Y0140527D01*
X0146715Y0140484D01*
X0146692Y0140442D01*
X0146665Y0140402D01*
X0146636Y0140364D01*
X0146603Y0140329D01*
X0146568Y0140296D01*
X0146530Y0140267D01*
X0146490Y0140240D01*
X0146448Y0140217D01*
X0146405Y0140197D01*
X0146360Y0140180D01*
X0146314Y0140167D01*
X0146267Y0140158D01*
X0146219Y0140152D01*
X0146171Y0140150D01*
X0145560Y0140150D01*
X0145560Y0142350D01*
X0146171Y0142350D01*
X0146219Y0142348D01*
X0146267Y0142342D01*
X0146314Y0142333D01*
X0146360Y0142320D01*
X0146405Y0142303D01*
X0146448Y0142283D01*
X0146490Y0142260D01*
X0146530Y0142233D01*
X0146568Y0142204D01*
X0146603Y0142171D01*
X0146636Y0142136D01*
X0146665Y0142098D01*
X0146692Y0142058D01*
X0146715Y0142016D01*
X0146735Y0141973D01*
X0146752Y0141928D01*
X0146765Y0141882D01*
X0146774Y0141835D01*
X0146780Y0141787D01*
X0146782Y0141739D01*
X0144615Y0142350D02*
X0144127Y0142350D01*
X0144371Y0142350D02*
X0144371Y0140150D01*
X0144127Y0140150D02*
X0144615Y0140150D01*
X0143268Y0140150D02*
X0142779Y0141128D01*
X0142657Y0141128D02*
X0142046Y0141128D01*
X0142657Y0141128D02*
X0142705Y0141130D01*
X0142753Y0141136D01*
X0142800Y0141145D01*
X0142846Y0141158D01*
X0142891Y0141175D01*
X0142934Y0141195D01*
X0142976Y0141218D01*
X0143016Y0141245D01*
X0143054Y0141274D01*
X0143089Y0141307D01*
X0143122Y0141342D01*
X0143151Y0141380D01*
X0143178Y0141420D01*
X0143201Y0141462D01*
X0143221Y0141505D01*
X0143238Y0141550D01*
X0143251Y0141596D01*
X0143260Y0141643D01*
X0143266Y0141691D01*
X0143268Y0141739D01*
X0143266Y0141787D01*
X0143260Y0141835D01*
X0143251Y0141882D01*
X0143238Y0141928D01*
X0143221Y0141973D01*
X0143201Y0142016D01*
X0143178Y0142058D01*
X0143151Y0142098D01*
X0143122Y0142136D01*
X0143089Y0142171D01*
X0143054Y0142204D01*
X0143016Y0142233D01*
X0142976Y0142260D01*
X0142934Y0142283D01*
X0142891Y0142303D01*
X0142846Y0142320D01*
X0142800Y0142333D01*
X0142753Y0142342D01*
X0142705Y0142348D01*
X0142657Y0142350D01*
X0142046Y0142350D01*
X0142046Y0140150D01*
X0140516Y0140150D02*
X0139905Y0140150D01*
X0139905Y0142350D01*
X0140516Y0142350D01*
X0140559Y0142348D01*
X0140601Y0142343D01*
X0140643Y0142333D01*
X0140683Y0142321D01*
X0140723Y0142304D01*
X0140761Y0142284D01*
X0140796Y0142262D01*
X0140830Y0142236D01*
X0140862Y0142207D01*
X0140891Y0142175D01*
X0140917Y0142141D01*
X0140939Y0142106D01*
X0140959Y0142068D01*
X0140976Y0142028D01*
X0140988Y0141988D01*
X0140998Y0141946D01*
X0141003Y0141904D01*
X0141005Y0141861D01*
X0141003Y0141818D01*
X0140998Y0141776D01*
X0140988Y0141734D01*
X0140976Y0141694D01*
X0140959Y0141654D01*
X0140939Y0141617D01*
X0140917Y0141581D01*
X0140891Y0141547D01*
X0140862Y0141515D01*
X0140830Y0141486D01*
X0140796Y0141460D01*
X0140761Y0141438D01*
X0140723Y0141418D01*
X0140683Y0141401D01*
X0140643Y0141389D01*
X0140601Y0141379D01*
X0140559Y0141374D01*
X0140516Y0141372D01*
X0139905Y0141372D01*
X0140516Y0141372D02*
X0140564Y0141370D01*
X0140612Y0141364D01*
X0140659Y0141355D01*
X0140705Y0141342D01*
X0140750Y0141325D01*
X0140793Y0141305D01*
X0140835Y0141282D01*
X0140875Y0141255D01*
X0140913Y0141226D01*
X0140948Y0141193D01*
X0140981Y0141158D01*
X0141010Y0141120D01*
X0141037Y0141080D01*
X0141060Y0141038D01*
X0141080Y0140995D01*
X0141097Y0140950D01*
X0141110Y0140904D01*
X0141119Y0140857D01*
X0141125Y0140809D01*
X0141127Y0140761D01*
X0141125Y0140713D01*
X0141119Y0140665D01*
X0141110Y0140618D01*
X0141097Y0140572D01*
X0141080Y0140527D01*
X0141060Y0140484D01*
X0141037Y0140442D01*
X0141010Y0140402D01*
X0140981Y0140364D01*
X0140948Y0140329D01*
X0140913Y0140296D01*
X0140875Y0140267D01*
X0140835Y0140240D01*
X0140793Y0140217D01*
X0140750Y0140197D01*
X0140705Y0140180D01*
X0140659Y0140167D01*
X0140612Y0140158D01*
X0140564Y0140152D01*
X0140516Y0140150D01*
X0140516Y0150150D02*
X0139905Y0150150D01*
X0139905Y0152350D01*
X0140516Y0152350D01*
X0140559Y0152348D01*
X0140601Y0152343D01*
X0140643Y0152333D01*
X0140683Y0152321D01*
X0140723Y0152304D01*
X0140761Y0152284D01*
X0140796Y0152262D01*
X0140830Y0152236D01*
X0140862Y0152207D01*
X0140891Y0152175D01*
X0140917Y0152141D01*
X0140939Y0152106D01*
X0140959Y0152068D01*
X0140976Y0152028D01*
X0140988Y0151988D01*
X0140998Y0151946D01*
X0141003Y0151904D01*
X0141005Y0151861D01*
X0141003Y0151818D01*
X0140998Y0151776D01*
X0140988Y0151734D01*
X0140976Y0151694D01*
X0140959Y0151654D01*
X0140939Y0151617D01*
X0140917Y0151581D01*
X0140891Y0151547D01*
X0140862Y0151515D01*
X0140830Y0151486D01*
X0140796Y0151460D01*
X0140761Y0151438D01*
X0140723Y0151418D01*
X0140683Y0151401D01*
X0140643Y0151389D01*
X0140601Y0151379D01*
X0140559Y0151374D01*
X0140516Y0151372D01*
X0139905Y0151372D01*
X0140516Y0151372D02*
X0140564Y0151370D01*
X0140612Y0151364D01*
X0140659Y0151355D01*
X0140705Y0151342D01*
X0140750Y0151325D01*
X0140793Y0151305D01*
X0140835Y0151282D01*
X0140875Y0151255D01*
X0140913Y0151226D01*
X0140948Y0151193D01*
X0140981Y0151158D01*
X0141010Y0151120D01*
X0141037Y0151080D01*
X0141060Y0151038D01*
X0141080Y0150995D01*
X0141097Y0150950D01*
X0141110Y0150904D01*
X0141119Y0150857D01*
X0141125Y0150809D01*
X0141127Y0150761D01*
X0141125Y0150713D01*
X0141119Y0150665D01*
X0141110Y0150618D01*
X0141097Y0150572D01*
X0141080Y0150527D01*
X0141060Y0150484D01*
X0141037Y0150442D01*
X0141010Y0150402D01*
X0140981Y0150364D01*
X0140948Y0150329D01*
X0140913Y0150296D01*
X0140875Y0150267D01*
X0140835Y0150240D01*
X0140793Y0150217D01*
X0140750Y0150197D01*
X0140705Y0150180D01*
X0140659Y0150167D01*
X0140612Y0150158D01*
X0140564Y0150152D01*
X0140516Y0150150D01*
X0142046Y0150150D02*
X0142046Y0152350D01*
X0142657Y0152350D01*
X0142705Y0152348D01*
X0142753Y0152342D01*
X0142800Y0152333D01*
X0142846Y0152320D01*
X0142891Y0152303D01*
X0142934Y0152283D01*
X0142976Y0152260D01*
X0143016Y0152233D01*
X0143054Y0152204D01*
X0143089Y0152171D01*
X0143122Y0152136D01*
X0143151Y0152098D01*
X0143178Y0152058D01*
X0143201Y0152016D01*
X0143221Y0151973D01*
X0143238Y0151928D01*
X0143251Y0151882D01*
X0143260Y0151835D01*
X0143266Y0151787D01*
X0143268Y0151739D01*
X0143266Y0151691D01*
X0143260Y0151643D01*
X0143251Y0151596D01*
X0143238Y0151550D01*
X0143221Y0151505D01*
X0143201Y0151462D01*
X0143178Y0151420D01*
X0143151Y0151380D01*
X0143122Y0151342D01*
X0143089Y0151307D01*
X0143054Y0151274D01*
X0143016Y0151245D01*
X0142976Y0151218D01*
X0142934Y0151195D01*
X0142891Y0151175D01*
X0142846Y0151158D01*
X0142800Y0151145D01*
X0142753Y0151136D01*
X0142705Y0151130D01*
X0142657Y0151128D01*
X0142046Y0151128D01*
X0142779Y0151128D02*
X0143268Y0150150D01*
X0144127Y0150150D02*
X0144615Y0150150D01*
X0144371Y0150150D02*
X0144371Y0152350D01*
X0144127Y0152350D02*
X0144615Y0152350D01*
X0145560Y0152350D02*
X0145560Y0150150D01*
X0146171Y0150150D01*
X0146219Y0150152D01*
X0146267Y0150158D01*
X0146314Y0150167D01*
X0146360Y0150180D01*
X0146405Y0150197D01*
X0146448Y0150217D01*
X0146490Y0150240D01*
X0146530Y0150267D01*
X0146568Y0150296D01*
X0146603Y0150329D01*
X0146636Y0150364D01*
X0146665Y0150402D01*
X0146692Y0150442D01*
X0146715Y0150484D01*
X0146735Y0150527D01*
X0146752Y0150572D01*
X0146765Y0150618D01*
X0146774Y0150665D01*
X0146780Y0150713D01*
X0146782Y0150761D01*
X0146782Y0151739D01*
X0146780Y0151787D01*
X0146774Y0151835D01*
X0146765Y0151882D01*
X0146752Y0151928D01*
X0146735Y0151973D01*
X0146715Y0152016D01*
X0146692Y0152058D01*
X0146665Y0152098D01*
X0146636Y0152136D01*
X0146603Y0152171D01*
X0146568Y0152204D01*
X0146530Y0152233D01*
X0146490Y0152260D01*
X0146448Y0152283D01*
X0146405Y0152303D01*
X0146360Y0152320D01*
X0146314Y0152333D01*
X0146267Y0152342D01*
X0146219Y0152348D01*
X0146171Y0152350D01*
X0145560Y0152350D01*
X0147864Y0151861D02*
X0147864Y0150639D01*
X0147866Y0150596D01*
X0147871Y0150554D01*
X0147881Y0150512D01*
X0147893Y0150472D01*
X0147910Y0150432D01*
X0147930Y0150395D01*
X0147952Y0150359D01*
X0147978Y0150325D01*
X0148007Y0150293D01*
X0148039Y0150264D01*
X0148073Y0150238D01*
X0148109Y0150216D01*
X0148146Y0150196D01*
X0148186Y0150179D01*
X0148226Y0150167D01*
X0148268Y0150157D01*
X0148310Y0150152D01*
X0148353Y0150150D01*
X0149086Y0150150D01*
X0149086Y0151372D01*
X0148719Y0151372D01*
X0147864Y0151861D02*
X0147866Y0151904D01*
X0147871Y0151946D01*
X0147881Y0151988D01*
X0147893Y0152028D01*
X0147910Y0152068D01*
X0147930Y0152105D01*
X0147952Y0152141D01*
X0147978Y0152175D01*
X0148007Y0152207D01*
X0148039Y0152236D01*
X0148073Y0152262D01*
X0148108Y0152284D01*
X0148146Y0152304D01*
X0148186Y0152321D01*
X0148226Y0152333D01*
X0148268Y0152343D01*
X0148310Y0152348D01*
X0148353Y0152350D01*
X0149086Y0152350D01*
X0150172Y0152350D02*
X0151150Y0152350D01*
X0150172Y0152350D02*
X0150172Y0150150D01*
X0151150Y0150150D01*
X0150906Y0151372D02*
X0150172Y0151372D01*
X0174736Y0180639D02*
X0174736Y0181861D01*
X0174738Y0181904D01*
X0174743Y0181946D01*
X0174753Y0181988D01*
X0174765Y0182028D01*
X0174782Y0182068D01*
X0174802Y0182105D01*
X0174824Y0182141D01*
X0174850Y0182175D01*
X0174879Y0182207D01*
X0174911Y0182236D01*
X0174945Y0182262D01*
X0174980Y0182284D01*
X0175018Y0182304D01*
X0175058Y0182321D01*
X0175098Y0182333D01*
X0175140Y0182343D01*
X0175182Y0182348D01*
X0175225Y0182350D01*
X0175713Y0182350D01*
X0177031Y0182350D02*
X0176542Y0180639D01*
X0177764Y0180639D01*
X0177398Y0181128D02*
X0177398Y0180150D01*
X0175713Y0180150D02*
X0175225Y0180150D01*
X0175182Y0180152D01*
X0175140Y0180157D01*
X0175098Y0180167D01*
X0175058Y0180179D01*
X0175018Y0180196D01*
X0174981Y0180216D01*
X0174945Y0180238D01*
X0174911Y0180264D01*
X0174879Y0180293D01*
X0174850Y0180325D01*
X0174824Y0180359D01*
X0174802Y0180395D01*
X0174782Y0180432D01*
X0174765Y0180472D01*
X0174753Y0180512D01*
X0174743Y0180554D01*
X0174738Y0180596D01*
X0174736Y0180639D01*
X0163442Y0244402D02*
X0162220Y0244402D01*
X0162831Y0244402D02*
X0162831Y0246602D01*
X0162220Y0246113D01*
X0161391Y0246602D02*
X0160902Y0246602D01*
X0160859Y0246600D01*
X0160817Y0246595D01*
X0160775Y0246585D01*
X0160735Y0246573D01*
X0160695Y0246556D01*
X0160657Y0246536D01*
X0160622Y0246514D01*
X0160588Y0246488D01*
X0160556Y0246459D01*
X0160527Y0246427D01*
X0160501Y0246393D01*
X0160479Y0246357D01*
X0160459Y0246320D01*
X0160442Y0246280D01*
X0160430Y0246240D01*
X0160420Y0246198D01*
X0160415Y0246156D01*
X0160413Y0246113D01*
X0160413Y0244891D01*
X0160415Y0244848D01*
X0160420Y0244806D01*
X0160430Y0244764D01*
X0160442Y0244724D01*
X0160459Y0244684D01*
X0160479Y0244647D01*
X0160501Y0244611D01*
X0160527Y0244577D01*
X0160556Y0244545D01*
X0160588Y0244516D01*
X0160622Y0244490D01*
X0160658Y0244468D01*
X0160695Y0244448D01*
X0160735Y0244431D01*
X0160775Y0244419D01*
X0160817Y0244409D01*
X0160859Y0244404D01*
X0160902Y0244402D01*
X0161391Y0244402D01*
X0159547Y0244402D02*
X0159058Y0244402D01*
X0159303Y0244402D02*
X0159303Y0246602D01*
X0159547Y0246602D02*
X0159058Y0246602D01*
X0117934Y0276350D02*
X0116712Y0276350D01*
X0117323Y0276350D02*
X0117323Y0278550D01*
X0116712Y0278061D01*
X0115177Y0278550D02*
X0115225Y0278548D01*
X0115273Y0278542D01*
X0115320Y0278533D01*
X0115366Y0278520D01*
X0115411Y0278503D01*
X0115454Y0278483D01*
X0115496Y0278460D01*
X0115536Y0278433D01*
X0115574Y0278404D01*
X0115609Y0278371D01*
X0115642Y0278336D01*
X0115671Y0278298D01*
X0115698Y0278258D01*
X0115721Y0278216D01*
X0115741Y0278173D01*
X0115758Y0278128D01*
X0115771Y0278082D01*
X0115780Y0278035D01*
X0115786Y0277987D01*
X0115788Y0277939D01*
X0115786Y0277891D01*
X0115780Y0277843D01*
X0115771Y0277796D01*
X0115758Y0277750D01*
X0115741Y0277705D01*
X0115721Y0277662D01*
X0115698Y0277620D01*
X0115671Y0277580D01*
X0115642Y0277542D01*
X0115609Y0277507D01*
X0115574Y0277474D01*
X0115536Y0277445D01*
X0115496Y0277418D01*
X0115454Y0277395D01*
X0115411Y0277375D01*
X0115366Y0277358D01*
X0115320Y0277345D01*
X0115273Y0277336D01*
X0115225Y0277330D01*
X0115177Y0277328D01*
X0114566Y0277328D01*
X0115299Y0277328D02*
X0115788Y0276350D01*
X0114566Y0276350D02*
X0114566Y0278550D01*
X0115177Y0278550D01*
X0079902Y0278550D02*
X0078924Y0278550D01*
X0078924Y0276350D01*
X0078030Y0276350D02*
X0077052Y0276350D01*
X0077052Y0278550D01*
X0078030Y0278550D01*
X0077786Y0277572D02*
X0077052Y0277572D01*
X0075563Y0277328D02*
X0076052Y0276350D01*
X0075441Y0277328D02*
X0074830Y0277328D01*
X0075441Y0277328D02*
X0075489Y0277330D01*
X0075537Y0277336D01*
X0075584Y0277345D01*
X0075630Y0277358D01*
X0075675Y0277375D01*
X0075718Y0277395D01*
X0075760Y0277418D01*
X0075800Y0277445D01*
X0075838Y0277474D01*
X0075873Y0277507D01*
X0075906Y0277542D01*
X0075935Y0277580D01*
X0075962Y0277620D01*
X0075985Y0277662D01*
X0076005Y0277705D01*
X0076022Y0277750D01*
X0076035Y0277796D01*
X0076044Y0277843D01*
X0076050Y0277891D01*
X0076052Y0277939D01*
X0076050Y0277987D01*
X0076044Y0278035D01*
X0076035Y0278082D01*
X0076022Y0278128D01*
X0076005Y0278173D01*
X0075985Y0278216D01*
X0075962Y0278258D01*
X0075935Y0278298D01*
X0075906Y0278336D01*
X0075873Y0278371D01*
X0075838Y0278404D01*
X0075800Y0278433D01*
X0075760Y0278460D01*
X0075718Y0278483D01*
X0075675Y0278503D01*
X0075630Y0278520D01*
X0075584Y0278533D01*
X0075537Y0278542D01*
X0075489Y0278548D01*
X0075441Y0278550D01*
X0074830Y0278550D01*
X0074830Y0276350D01*
X0073820Y0276350D02*
X0073331Y0277328D01*
X0073209Y0277328D02*
X0072598Y0277328D01*
X0073209Y0277328D02*
X0073257Y0277330D01*
X0073305Y0277336D01*
X0073352Y0277345D01*
X0073398Y0277358D01*
X0073443Y0277375D01*
X0073486Y0277395D01*
X0073528Y0277418D01*
X0073568Y0277445D01*
X0073606Y0277474D01*
X0073641Y0277507D01*
X0073674Y0277542D01*
X0073703Y0277580D01*
X0073730Y0277620D01*
X0073753Y0277662D01*
X0073773Y0277705D01*
X0073790Y0277750D01*
X0073803Y0277796D01*
X0073812Y0277843D01*
X0073818Y0277891D01*
X0073820Y0277939D01*
X0073818Y0277987D01*
X0073812Y0278035D01*
X0073803Y0278082D01*
X0073790Y0278128D01*
X0073773Y0278173D01*
X0073753Y0278216D01*
X0073730Y0278258D01*
X0073703Y0278298D01*
X0073674Y0278336D01*
X0073641Y0278371D01*
X0073606Y0278404D01*
X0073568Y0278433D01*
X0073528Y0278460D01*
X0073486Y0278483D01*
X0073443Y0278503D01*
X0073398Y0278520D01*
X0073352Y0278533D01*
X0073305Y0278542D01*
X0073257Y0278548D01*
X0073209Y0278550D01*
X0072598Y0278550D01*
X0072598Y0276350D01*
X0078924Y0277572D02*
X0079902Y0277572D01*
X0085225Y0212350D02*
X0085713Y0212350D01*
X0085225Y0212350D02*
X0085182Y0212348D01*
X0085140Y0212343D01*
X0085098Y0212333D01*
X0085058Y0212321D01*
X0085018Y0212304D01*
X0084980Y0212284D01*
X0084945Y0212262D01*
X0084911Y0212236D01*
X0084879Y0212207D01*
X0084850Y0212175D01*
X0084824Y0212141D01*
X0084802Y0212105D01*
X0084782Y0212068D01*
X0084765Y0212028D01*
X0084753Y0211988D01*
X0084743Y0211946D01*
X0084738Y0211904D01*
X0084736Y0211861D01*
X0084736Y0210639D01*
X0084738Y0210596D01*
X0084743Y0210554D01*
X0084753Y0210512D01*
X0084765Y0210472D01*
X0084782Y0210432D01*
X0084802Y0210395D01*
X0084824Y0210359D01*
X0084850Y0210325D01*
X0084879Y0210293D01*
X0084911Y0210264D01*
X0084945Y0210238D01*
X0084981Y0210216D01*
X0085018Y0210196D01*
X0085058Y0210179D01*
X0085098Y0210167D01*
X0085140Y0210157D01*
X0085182Y0210152D01*
X0085225Y0210150D01*
X0085713Y0210150D01*
X0086542Y0210150D02*
X0087764Y0210150D01*
X0086542Y0210150D02*
X0087581Y0211372D01*
X0087214Y0212350D02*
X0087162Y0212348D01*
X0087110Y0212342D01*
X0087058Y0212333D01*
X0087008Y0212319D01*
X0086958Y0212302D01*
X0086910Y0212281D01*
X0086864Y0212257D01*
X0086820Y0212230D01*
X0086777Y0212199D01*
X0086737Y0212165D01*
X0086700Y0212129D01*
X0086666Y0212089D01*
X0086634Y0212047D01*
X0086606Y0212004D01*
X0086581Y0211958D01*
X0086559Y0211910D01*
X0086541Y0211861D01*
X0087582Y0211372D02*
X0087615Y0211406D01*
X0087645Y0211443D01*
X0087673Y0211483D01*
X0087697Y0211524D01*
X0087717Y0211567D01*
X0087734Y0211612D01*
X0087748Y0211658D01*
X0087757Y0211705D01*
X0087763Y0211752D01*
X0087765Y0211800D01*
X0087764Y0211800D02*
X0087762Y0211845D01*
X0087756Y0211891D01*
X0087747Y0211935D01*
X0087734Y0211979D01*
X0087718Y0212021D01*
X0087698Y0212062D01*
X0087674Y0212101D01*
X0087648Y0212138D01*
X0087619Y0212173D01*
X0087587Y0212205D01*
X0087552Y0212234D01*
X0087515Y0212260D01*
X0087476Y0212284D01*
X0087435Y0212304D01*
X0087393Y0212320D01*
X0087349Y0212333D01*
X0087305Y0212342D01*
X0087259Y0212348D01*
X0087214Y0212350D01*
X0100150Y0197882D02*
X0102350Y0197149D01*
X0100150Y0196415D01*
X0100150Y0195003D02*
X0100150Y0194392D01*
X0102350Y0194392D01*
X0101372Y0194392D02*
X0101372Y0195003D01*
X0101372Y0195125D02*
X0102350Y0195614D01*
X0101372Y0195003D02*
X0101370Y0195051D01*
X0101364Y0195099D01*
X0101355Y0195146D01*
X0101342Y0195192D01*
X0101325Y0195237D01*
X0101305Y0195280D01*
X0101282Y0195322D01*
X0101255Y0195362D01*
X0101226Y0195400D01*
X0101193Y0195435D01*
X0101158Y0195468D01*
X0101120Y0195497D01*
X0101080Y0195524D01*
X0101038Y0195547D01*
X0100995Y0195567D01*
X0100950Y0195584D01*
X0100904Y0195597D01*
X0100857Y0195606D01*
X0100809Y0195612D01*
X0100761Y0195614D01*
X0100713Y0195612D01*
X0100665Y0195606D01*
X0100618Y0195597D01*
X0100572Y0195584D01*
X0100527Y0195567D01*
X0100484Y0195547D01*
X0100442Y0195524D01*
X0100402Y0195497D01*
X0100364Y0195468D01*
X0100329Y0195435D01*
X0100296Y0195400D01*
X0100267Y0195362D01*
X0100240Y0195322D01*
X0100217Y0195280D01*
X0100197Y0195237D01*
X0100180Y0195192D01*
X0100167Y0195146D01*
X0100158Y0195099D01*
X0100152Y0195051D01*
X0100150Y0195003D01*
X0100761Y0193296D02*
X0101739Y0193296D01*
X0101787Y0193294D01*
X0101835Y0193288D01*
X0101882Y0193279D01*
X0101928Y0193266D01*
X0101973Y0193249D01*
X0102016Y0193229D01*
X0102058Y0193206D01*
X0102098Y0193179D01*
X0102136Y0193150D01*
X0102171Y0193117D01*
X0102204Y0193082D01*
X0102233Y0193044D01*
X0102260Y0193004D01*
X0102283Y0192962D01*
X0102303Y0192919D01*
X0102320Y0192874D01*
X0102333Y0192828D01*
X0102342Y0192781D01*
X0102348Y0192733D01*
X0102350Y0192685D01*
X0102350Y0192073D01*
X0100150Y0192073D01*
X0100150Y0192685D01*
X0100152Y0192733D01*
X0100158Y0192781D01*
X0100167Y0192828D01*
X0100180Y0192874D01*
X0100197Y0192919D01*
X0100217Y0192962D01*
X0100240Y0193004D01*
X0100267Y0193044D01*
X0100296Y0193082D01*
X0100329Y0193117D01*
X0100364Y0193150D01*
X0100402Y0193179D01*
X0100442Y0193206D01*
X0100484Y0193229D01*
X0100527Y0193249D01*
X0100572Y0193266D01*
X0100618Y0193279D01*
X0100665Y0193288D01*
X0100713Y0193294D01*
X0100761Y0193296D01*
X0100150Y0190970D02*
X0102350Y0190970D01*
X0101372Y0190237D02*
X0100150Y0190970D01*
X0101372Y0190237D02*
X0100150Y0189503D01*
X0102350Y0189503D01*
X0102350Y0188061D02*
X0100150Y0188550D01*
X0100883Y0187573D02*
X0102350Y0188061D01*
X0102350Y0187084D02*
X0100883Y0187573D01*
X0100150Y0186595D02*
X0102350Y0187084D01*
X0101372Y0185229D02*
X0101372Y0184618D01*
X0101372Y0185229D02*
X0101370Y0185277D01*
X0101364Y0185325D01*
X0101355Y0185372D01*
X0101342Y0185418D01*
X0101325Y0185463D01*
X0101305Y0185506D01*
X0101282Y0185548D01*
X0101255Y0185588D01*
X0101226Y0185626D01*
X0101193Y0185661D01*
X0101158Y0185694D01*
X0101120Y0185723D01*
X0101080Y0185750D01*
X0101038Y0185773D01*
X0100995Y0185793D01*
X0100950Y0185810D01*
X0100904Y0185823D01*
X0100857Y0185832D01*
X0100809Y0185838D01*
X0100761Y0185840D01*
X0100713Y0185838D01*
X0100665Y0185832D01*
X0100618Y0185823D01*
X0100572Y0185810D01*
X0100527Y0185793D01*
X0100484Y0185773D01*
X0100442Y0185750D01*
X0100402Y0185723D01*
X0100364Y0185694D01*
X0100329Y0185661D01*
X0100296Y0185626D01*
X0100267Y0185588D01*
X0100240Y0185548D01*
X0100217Y0185506D01*
X0100197Y0185463D01*
X0100180Y0185418D01*
X0100167Y0185372D01*
X0100158Y0185325D01*
X0100152Y0185277D01*
X0100150Y0185229D01*
X0100150Y0184618D01*
X0102350Y0184618D01*
X0047153Y0017350D02*
X0047153Y0015150D01*
X0046542Y0015150D02*
X0047764Y0015150D01*
X0045713Y0015150D02*
X0045225Y0015150D01*
X0045182Y0015152D01*
X0045140Y0015157D01*
X0045098Y0015167D01*
X0045058Y0015179D01*
X0045018Y0015196D01*
X0044981Y0015216D01*
X0044945Y0015238D01*
X0044911Y0015264D01*
X0044879Y0015293D01*
X0044850Y0015325D01*
X0044824Y0015359D01*
X0044802Y0015395D01*
X0044782Y0015432D01*
X0044765Y0015472D01*
X0044753Y0015512D01*
X0044743Y0015554D01*
X0044738Y0015596D01*
X0044736Y0015639D01*
X0044736Y0016861D01*
X0044738Y0016904D01*
X0044743Y0016946D01*
X0044753Y0016988D01*
X0044765Y0017028D01*
X0044782Y0017068D01*
X0044802Y0017105D01*
X0044824Y0017141D01*
X0044850Y0017175D01*
X0044879Y0017207D01*
X0044911Y0017236D01*
X0044945Y0017262D01*
X0044980Y0017284D01*
X0045018Y0017304D01*
X0045058Y0017321D01*
X0045098Y0017333D01*
X0045140Y0017343D01*
X0045182Y0017348D01*
X0045225Y0017350D01*
X0045713Y0017350D01*
X0046542Y0016861D02*
X0047153Y0017350D01*
D12*
X0060250Y0016250D02*
X0061250Y0016250D01*
X0061250Y0019250D01*
X0081250Y0019250D01*
X0081250Y0016250D01*
X0082250Y0016250D01*
X0081250Y0016250D02*
X0081250Y0013250D01*
X0061250Y0013250D01*
X0061250Y0016250D01*
X0063750Y0013750D02*
X0063750Y0018750D01*
X0062667Y0036880D02*
X0062667Y0039439D01*
X0056368Y0039439D01*
X0062667Y0036880D02*
X0032746Y0036880D01*
X0032746Y0060108D01*
X0062667Y0060108D01*
X0062667Y0057549D01*
X0056368Y0057549D01*
X0089250Y0066250D02*
X0089250Y0067250D01*
X0089250Y0066250D02*
X0113250Y0066250D01*
X0113250Y0067250D01*
X0156368Y0077234D02*
X0162667Y0077234D01*
X0156368Y0077234D02*
X0156368Y0079793D01*
X0186289Y0079793D01*
X0186289Y0048691D01*
X0156368Y0048691D01*
X0156368Y0051250D01*
X0162667Y0051250D01*
X0162667Y0045738D02*
X0156368Y0045738D01*
X0156368Y0048297D01*
X0186289Y0048297D01*
X0186289Y0025069D01*
X0156368Y0025069D01*
X0156368Y0027628D01*
X0162667Y0027628D01*
X0113250Y0205250D02*
X0113250Y0206250D01*
X0106250Y0206250D01*
X0106248Y0206110D01*
X0106242Y0205970D01*
X0106232Y0205830D01*
X0106219Y0205690D01*
X0106201Y0205551D01*
X0106179Y0205412D01*
X0106154Y0205275D01*
X0106125Y0205137D01*
X0106092Y0205001D01*
X0106055Y0204866D01*
X0106014Y0204732D01*
X0105969Y0204599D01*
X0105921Y0204467D01*
X0105869Y0204337D01*
X0105814Y0204208D01*
X0105755Y0204081D01*
X0105692Y0203955D01*
X0105626Y0203831D01*
X0105557Y0203710D01*
X0105484Y0203590D01*
X0105407Y0203472D01*
X0105328Y0203357D01*
X0105245Y0203243D01*
X0105159Y0203133D01*
X0105070Y0203024D01*
X0104978Y0202918D01*
X0104883Y0202815D01*
X0104786Y0202714D01*
X0104685Y0202617D01*
X0104582Y0202522D01*
X0104476Y0202430D01*
X0104367Y0202341D01*
X0104257Y0202255D01*
X0104143Y0202172D01*
X0104028Y0202093D01*
X0103910Y0202016D01*
X0103790Y0201943D01*
X0103669Y0201874D01*
X0103545Y0201808D01*
X0103419Y0201745D01*
X0103292Y0201686D01*
X0103163Y0201631D01*
X0103033Y0201579D01*
X0102901Y0201531D01*
X0102768Y0201486D01*
X0102634Y0201445D01*
X0102499Y0201408D01*
X0102363Y0201375D01*
X0102225Y0201346D01*
X0102088Y0201321D01*
X0101949Y0201299D01*
X0101810Y0201281D01*
X0101670Y0201268D01*
X0101530Y0201258D01*
X0101390Y0201252D01*
X0101250Y0201250D01*
X0101110Y0201252D01*
X0100970Y0201258D01*
X0100830Y0201268D01*
X0100690Y0201281D01*
X0100551Y0201299D01*
X0100412Y0201321D01*
X0100275Y0201346D01*
X0100137Y0201375D01*
X0100001Y0201408D01*
X0099866Y0201445D01*
X0099732Y0201486D01*
X0099599Y0201531D01*
X0099467Y0201579D01*
X0099337Y0201631D01*
X0099208Y0201686D01*
X0099081Y0201745D01*
X0098955Y0201808D01*
X0098831Y0201874D01*
X0098710Y0201943D01*
X0098590Y0202016D01*
X0098472Y0202093D01*
X0098357Y0202172D01*
X0098243Y0202255D01*
X0098133Y0202341D01*
X0098024Y0202430D01*
X0097918Y0202522D01*
X0097815Y0202617D01*
X0097714Y0202714D01*
X0097617Y0202815D01*
X0097522Y0202918D01*
X0097430Y0203024D01*
X0097341Y0203133D01*
X0097255Y0203243D01*
X0097172Y0203357D01*
X0097093Y0203472D01*
X0097016Y0203590D01*
X0096943Y0203710D01*
X0096874Y0203831D01*
X0096808Y0203955D01*
X0096745Y0204081D01*
X0096686Y0204208D01*
X0096631Y0204337D01*
X0096579Y0204467D01*
X0096531Y0204599D01*
X0096486Y0204732D01*
X0096445Y0204866D01*
X0096408Y0205001D01*
X0096375Y0205137D01*
X0096346Y0205275D01*
X0096321Y0205412D01*
X0096299Y0205551D01*
X0096281Y0205690D01*
X0096268Y0205830D01*
X0096258Y0205970D01*
X0096252Y0206110D01*
X0096250Y0206250D01*
X0089250Y0206250D01*
X0089250Y0205250D01*
X0090226Y0225856D02*
X0090226Y0228415D01*
X0083927Y0228415D01*
X0090226Y0225856D02*
X0060305Y0225856D01*
X0060305Y0264833D01*
X0090226Y0264833D01*
X0090226Y0262274D01*
X0083927Y0262274D01*
D13*
X0021250Y0023750D02*
X0023750Y0021250D01*
X0028750Y0021250D01*
X0031250Y0023750D01*
X0033750Y0021250D01*
X0038750Y0021250D01*
X0041250Y0023750D01*
X0043750Y0021250D01*
X0048750Y0021250D01*
X0051250Y0023750D01*
X0051250Y0028750D01*
X0048750Y0031250D01*
X0043750Y0031250D01*
X0041250Y0028750D01*
X0041250Y0023750D01*
X0041250Y0028750D02*
X0038750Y0031250D01*
X0033750Y0031250D01*
X0031250Y0028750D01*
X0031250Y0023750D01*
X0031250Y0028750D02*
X0028750Y0031250D01*
X0023750Y0031250D01*
X0021250Y0028750D01*
X0021250Y0023750D01*
X0056750Y0022250D02*
X0056750Y0030250D01*
X0056752Y0030310D01*
X0056757Y0030371D01*
X0056766Y0030430D01*
X0056779Y0030489D01*
X0056795Y0030548D01*
X0056815Y0030605D01*
X0056838Y0030660D01*
X0056865Y0030715D01*
X0056894Y0030767D01*
X0056927Y0030818D01*
X0056963Y0030867D01*
X0057001Y0030913D01*
X0057043Y0030957D01*
X0057087Y0030999D01*
X0057133Y0031037D01*
X0057182Y0031073D01*
X0057233Y0031106D01*
X0057285Y0031135D01*
X0057340Y0031162D01*
X0057395Y0031185D01*
X0057452Y0031205D01*
X0057511Y0031221D01*
X0057570Y0031234D01*
X0057629Y0031243D01*
X0057690Y0031248D01*
X0057750Y0031250D01*
X0074750Y0031250D01*
X0074810Y0031248D01*
X0074871Y0031243D01*
X0074930Y0031234D01*
X0074989Y0031221D01*
X0075048Y0031205D01*
X0075105Y0031185D01*
X0075160Y0031162D01*
X0075215Y0031135D01*
X0075267Y0031106D01*
X0075318Y0031073D01*
X0075367Y0031037D01*
X0075413Y0030999D01*
X0075457Y0030957D01*
X0075499Y0030913D01*
X0075537Y0030867D01*
X0075573Y0030818D01*
X0075606Y0030767D01*
X0075635Y0030715D01*
X0075662Y0030660D01*
X0075685Y0030605D01*
X0075705Y0030548D01*
X0075721Y0030489D01*
X0075734Y0030430D01*
X0075743Y0030371D01*
X0075748Y0030310D01*
X0075750Y0030250D01*
X0075750Y0022250D01*
X0075748Y0022190D01*
X0075743Y0022129D01*
X0075734Y0022070D01*
X0075721Y0022011D01*
X0075705Y0021952D01*
X0075685Y0021895D01*
X0075662Y0021840D01*
X0075635Y0021785D01*
X0075606Y0021733D01*
X0075573Y0021682D01*
X0075537Y0021633D01*
X0075499Y0021587D01*
X0075457Y0021543D01*
X0075413Y0021501D01*
X0075367Y0021463D01*
X0075318Y0021427D01*
X0075267Y0021394D01*
X0075215Y0021365D01*
X0075160Y0021338D01*
X0075105Y0021315D01*
X0075048Y0021295D01*
X0074989Y0021279D01*
X0074930Y0021266D01*
X0074871Y0021257D01*
X0074810Y0021252D01*
X0074750Y0021250D01*
X0057750Y0021250D01*
X0057690Y0021252D01*
X0057629Y0021257D01*
X0057570Y0021266D01*
X0057511Y0021279D01*
X0057452Y0021295D01*
X0057395Y0021315D01*
X0057340Y0021338D01*
X0057285Y0021365D01*
X0057233Y0021394D01*
X0057182Y0021427D01*
X0057133Y0021463D01*
X0057087Y0021501D01*
X0057043Y0021543D01*
X0057001Y0021587D01*
X0056963Y0021633D01*
X0056927Y0021682D01*
X0056894Y0021733D01*
X0056865Y0021785D01*
X0056838Y0021840D01*
X0056815Y0021895D01*
X0056795Y0021952D01*
X0056779Y0022011D01*
X0056766Y0022070D01*
X0056757Y0022129D01*
X0056752Y0022190D01*
X0056750Y0022250D01*
X0064750Y0026250D02*
X0065250Y0026250D01*
X0067250Y0026250D02*
X0067750Y0026250D01*
X0089750Y0021250D02*
X0112750Y0021250D01*
X0112750Y0061250D01*
X0105250Y0061250D01*
X0105248Y0061124D01*
X0105242Y0060999D01*
X0105232Y0060874D01*
X0105218Y0060749D01*
X0105201Y0060624D01*
X0105179Y0060500D01*
X0105154Y0060377D01*
X0105124Y0060255D01*
X0105091Y0060134D01*
X0105054Y0060014D01*
X0105014Y0059895D01*
X0104969Y0059778D01*
X0104921Y0059661D01*
X0104869Y0059547D01*
X0104814Y0059434D01*
X0104755Y0059323D01*
X0104693Y0059214D01*
X0104627Y0059107D01*
X0104558Y0059002D01*
X0104486Y0058899D01*
X0104411Y0058798D01*
X0104332Y0058700D01*
X0104250Y0058605D01*
X0104166Y0058512D01*
X0104078Y0058422D01*
X0103988Y0058334D01*
X0103895Y0058250D01*
X0103800Y0058168D01*
X0103702Y0058089D01*
X0103601Y0058014D01*
X0103498Y0057942D01*
X0103393Y0057873D01*
X0103286Y0057807D01*
X0103177Y0057745D01*
X0103066Y0057686D01*
X0102953Y0057631D01*
X0102839Y0057579D01*
X0102722Y0057531D01*
X0102605Y0057486D01*
X0102486Y0057446D01*
X0102366Y0057409D01*
X0102245Y0057376D01*
X0102123Y0057346D01*
X0102000Y0057321D01*
X0101876Y0057299D01*
X0101751Y0057282D01*
X0101626Y0057268D01*
X0101501Y0057258D01*
X0101376Y0057252D01*
X0101250Y0057250D01*
X0101124Y0057252D01*
X0100999Y0057258D01*
X0100874Y0057268D01*
X0100749Y0057282D01*
X0100624Y0057299D01*
X0100500Y0057321D01*
X0100377Y0057346D01*
X0100255Y0057376D01*
X0100134Y0057409D01*
X0100014Y0057446D01*
X0099895Y0057486D01*
X0099778Y0057531D01*
X0099661Y0057579D01*
X0099547Y0057631D01*
X0099434Y0057686D01*
X0099323Y0057745D01*
X0099214Y0057807D01*
X0099107Y0057873D01*
X0099002Y0057942D01*
X0098899Y0058014D01*
X0098798Y0058089D01*
X0098700Y0058168D01*
X0098605Y0058250D01*
X0098512Y0058334D01*
X0098422Y0058422D01*
X0098334Y0058512D01*
X0098250Y0058605D01*
X0098168Y0058700D01*
X0098089Y0058798D01*
X0098014Y0058899D01*
X0097942Y0059002D01*
X0097873Y0059107D01*
X0097807Y0059214D01*
X0097745Y0059323D01*
X0097686Y0059434D01*
X0097631Y0059547D01*
X0097579Y0059661D01*
X0097531Y0059778D01*
X0097486Y0059895D01*
X0097446Y0060014D01*
X0097409Y0060134D01*
X0097376Y0060255D01*
X0097346Y0060377D01*
X0097321Y0060500D01*
X0097299Y0060624D01*
X0097282Y0060749D01*
X0097268Y0060874D01*
X0097258Y0060999D01*
X0097252Y0061124D01*
X0097250Y0061250D01*
X0089750Y0061250D01*
X0089750Y0021250D01*
X0091750Y0020250D02*
X0091750Y0012250D01*
X0091752Y0012190D01*
X0091757Y0012129D01*
X0091766Y0012070D01*
X0091779Y0012011D01*
X0091795Y0011952D01*
X0091815Y0011895D01*
X0091838Y0011840D01*
X0091865Y0011785D01*
X0091894Y0011733D01*
X0091927Y0011682D01*
X0091963Y0011633D01*
X0092001Y0011587D01*
X0092043Y0011543D01*
X0092087Y0011501D01*
X0092133Y0011463D01*
X0092182Y0011427D01*
X0092233Y0011394D01*
X0092285Y0011365D01*
X0092340Y0011338D01*
X0092395Y0011315D01*
X0092452Y0011295D01*
X0092511Y0011279D01*
X0092570Y0011266D01*
X0092629Y0011257D01*
X0092690Y0011252D01*
X0092750Y0011250D01*
X0109750Y0011250D01*
X0109810Y0011252D01*
X0109871Y0011257D01*
X0109930Y0011266D01*
X0109989Y0011279D01*
X0110048Y0011295D01*
X0110105Y0011315D01*
X0110160Y0011338D01*
X0110215Y0011365D01*
X0110267Y0011394D01*
X0110318Y0011427D01*
X0110367Y0011463D01*
X0110413Y0011501D01*
X0110457Y0011543D01*
X0110499Y0011587D01*
X0110537Y0011633D01*
X0110573Y0011682D01*
X0110606Y0011733D01*
X0110635Y0011785D01*
X0110662Y0011840D01*
X0110685Y0011895D01*
X0110705Y0011952D01*
X0110721Y0012011D01*
X0110734Y0012070D01*
X0110743Y0012129D01*
X0110748Y0012190D01*
X0110750Y0012250D01*
X0110750Y0020250D01*
X0110748Y0020310D01*
X0110743Y0020371D01*
X0110734Y0020430D01*
X0110721Y0020489D01*
X0110705Y0020548D01*
X0110685Y0020605D01*
X0110662Y0020660D01*
X0110635Y0020715D01*
X0110606Y0020767D01*
X0110573Y0020818D01*
X0110537Y0020867D01*
X0110499Y0020913D01*
X0110457Y0020957D01*
X0110413Y0020999D01*
X0110367Y0021037D01*
X0110318Y0021073D01*
X0110267Y0021106D01*
X0110215Y0021135D01*
X0110160Y0021162D01*
X0110105Y0021185D01*
X0110048Y0021205D01*
X0109989Y0021221D01*
X0109930Y0021234D01*
X0109871Y0021243D01*
X0109810Y0021248D01*
X0109750Y0021250D01*
X0092750Y0021250D01*
X0092690Y0021248D01*
X0092629Y0021243D01*
X0092570Y0021234D01*
X0092511Y0021221D01*
X0092452Y0021205D01*
X0092395Y0021185D01*
X0092340Y0021162D01*
X0092285Y0021135D01*
X0092233Y0021106D01*
X0092182Y0021073D01*
X0092133Y0021037D01*
X0092087Y0020999D01*
X0092043Y0020957D01*
X0092001Y0020913D01*
X0091963Y0020867D01*
X0091927Y0020818D01*
X0091894Y0020767D01*
X0091865Y0020715D01*
X0091838Y0020660D01*
X0091815Y0020605D01*
X0091795Y0020548D01*
X0091779Y0020489D01*
X0091766Y0020430D01*
X0091757Y0020371D01*
X0091752Y0020310D01*
X0091750Y0020250D01*
X0099750Y0016250D02*
X0100250Y0016250D01*
X0102250Y0016250D02*
X0102750Y0016250D01*
X0119250Y0013750D02*
X0119252Y0013690D01*
X0119257Y0013629D01*
X0119266Y0013570D01*
X0119279Y0013511D01*
X0119295Y0013452D01*
X0119315Y0013395D01*
X0119338Y0013340D01*
X0119365Y0013285D01*
X0119394Y0013233D01*
X0119427Y0013182D01*
X0119463Y0013133D01*
X0119501Y0013087D01*
X0119543Y0013043D01*
X0119587Y0013001D01*
X0119633Y0012963D01*
X0119682Y0012927D01*
X0119733Y0012894D01*
X0119785Y0012865D01*
X0119840Y0012838D01*
X0119895Y0012815D01*
X0119952Y0012795D01*
X0120011Y0012779D01*
X0120070Y0012766D01*
X0120129Y0012757D01*
X0120190Y0012752D01*
X0120250Y0012750D01*
X0121250Y0012750D01*
X0121750Y0013250D01*
X0130750Y0013250D01*
X0131250Y0012750D01*
X0132250Y0012750D01*
X0132310Y0012752D01*
X0132371Y0012757D01*
X0132430Y0012766D01*
X0132489Y0012779D01*
X0132548Y0012795D01*
X0132605Y0012815D01*
X0132660Y0012838D01*
X0132715Y0012865D01*
X0132767Y0012894D01*
X0132818Y0012927D01*
X0132867Y0012963D01*
X0132913Y0013001D01*
X0132957Y0013043D01*
X0132999Y0013087D01*
X0133037Y0013133D01*
X0133073Y0013182D01*
X0133106Y0013233D01*
X0133135Y0013285D01*
X0133162Y0013340D01*
X0133185Y0013395D01*
X0133205Y0013452D01*
X0133221Y0013511D01*
X0133234Y0013570D01*
X0133243Y0013629D01*
X0133248Y0013690D01*
X0133250Y0013750D01*
X0133250Y0018750D02*
X0133248Y0018810D01*
X0133243Y0018871D01*
X0133234Y0018930D01*
X0133221Y0018989D01*
X0133205Y0019048D01*
X0133185Y0019105D01*
X0133162Y0019160D01*
X0133135Y0019215D01*
X0133106Y0019267D01*
X0133073Y0019318D01*
X0133037Y0019367D01*
X0132999Y0019413D01*
X0132957Y0019457D01*
X0132913Y0019499D01*
X0132867Y0019537D01*
X0132818Y0019573D01*
X0132767Y0019606D01*
X0132715Y0019635D01*
X0132660Y0019662D01*
X0132605Y0019685D01*
X0132548Y0019705D01*
X0132489Y0019721D01*
X0132430Y0019734D01*
X0132371Y0019743D01*
X0132310Y0019748D01*
X0132250Y0019750D01*
X0131250Y0019750D01*
X0130750Y0019250D01*
X0121750Y0019250D01*
X0121250Y0019750D01*
X0120250Y0019750D01*
X0120190Y0019748D01*
X0120129Y0019743D01*
X0120070Y0019734D01*
X0120011Y0019721D01*
X0119952Y0019705D01*
X0119895Y0019685D01*
X0119840Y0019662D01*
X0119785Y0019635D01*
X0119733Y0019606D01*
X0119682Y0019573D01*
X0119633Y0019537D01*
X0119587Y0019499D01*
X0119543Y0019457D01*
X0119501Y0019413D01*
X0119463Y0019367D01*
X0119427Y0019318D01*
X0119394Y0019267D01*
X0119365Y0019215D01*
X0119338Y0019160D01*
X0119315Y0019105D01*
X0119295Y0019048D01*
X0119279Y0018989D01*
X0119266Y0018930D01*
X0119257Y0018871D01*
X0119252Y0018810D01*
X0119250Y0018750D01*
X0142750Y0020250D02*
X0142750Y0021250D01*
X0143250Y0021750D01*
X0143250Y0030750D01*
X0142750Y0031250D01*
X0142750Y0032250D01*
X0142752Y0032310D01*
X0142757Y0032371D01*
X0142766Y0032430D01*
X0142779Y0032489D01*
X0142795Y0032548D01*
X0142815Y0032605D01*
X0142838Y0032660D01*
X0142865Y0032715D01*
X0142894Y0032767D01*
X0142927Y0032818D01*
X0142963Y0032867D01*
X0143001Y0032913D01*
X0143043Y0032957D01*
X0143087Y0032999D01*
X0143133Y0033037D01*
X0143182Y0033073D01*
X0143233Y0033106D01*
X0143285Y0033135D01*
X0143340Y0033162D01*
X0143395Y0033185D01*
X0143452Y0033205D01*
X0143511Y0033221D01*
X0143570Y0033234D01*
X0143629Y0033243D01*
X0143690Y0033248D01*
X0143750Y0033250D01*
X0148750Y0033250D02*
X0148810Y0033248D01*
X0148871Y0033243D01*
X0148930Y0033234D01*
X0148989Y0033221D01*
X0149048Y0033205D01*
X0149105Y0033185D01*
X0149160Y0033162D01*
X0149215Y0033135D01*
X0149267Y0033106D01*
X0149318Y0033073D01*
X0149367Y0033037D01*
X0149413Y0032999D01*
X0149457Y0032957D01*
X0149499Y0032913D01*
X0149537Y0032867D01*
X0149573Y0032818D01*
X0149606Y0032767D01*
X0149635Y0032715D01*
X0149662Y0032660D01*
X0149685Y0032605D01*
X0149705Y0032548D01*
X0149721Y0032489D01*
X0149734Y0032430D01*
X0149743Y0032371D01*
X0149748Y0032310D01*
X0149750Y0032250D01*
X0149750Y0031250D01*
X0149250Y0030750D01*
X0149250Y0021750D01*
X0149750Y0021250D01*
X0149750Y0020250D01*
X0149748Y0020190D01*
X0149743Y0020129D01*
X0149734Y0020070D01*
X0149721Y0020011D01*
X0149705Y0019952D01*
X0149685Y0019895D01*
X0149662Y0019840D01*
X0149635Y0019785D01*
X0149606Y0019733D01*
X0149573Y0019682D01*
X0149537Y0019633D01*
X0149499Y0019587D01*
X0149457Y0019543D01*
X0149413Y0019501D01*
X0149367Y0019463D01*
X0149318Y0019427D01*
X0149267Y0019394D01*
X0149215Y0019365D01*
X0149160Y0019338D01*
X0149105Y0019315D01*
X0149048Y0019295D01*
X0148989Y0019279D01*
X0148930Y0019266D01*
X0148871Y0019257D01*
X0148810Y0019252D01*
X0148750Y0019250D01*
X0143750Y0019250D02*
X0143690Y0019252D01*
X0143629Y0019257D01*
X0143570Y0019266D01*
X0143511Y0019279D01*
X0143452Y0019295D01*
X0143395Y0019315D01*
X0143340Y0019338D01*
X0143285Y0019365D01*
X0143233Y0019394D01*
X0143182Y0019427D01*
X0143133Y0019463D01*
X0143087Y0019501D01*
X0143043Y0019543D01*
X0143001Y0019587D01*
X0142963Y0019633D01*
X0142927Y0019682D01*
X0142894Y0019733D01*
X0142865Y0019785D01*
X0142838Y0019840D01*
X0142815Y0019895D01*
X0142795Y0019952D01*
X0142779Y0020011D01*
X0142766Y0020070D01*
X0142757Y0020129D01*
X0142752Y0020190D01*
X0142750Y0020250D01*
X0142750Y0050250D02*
X0142750Y0051250D01*
X0143250Y0051750D01*
X0143250Y0060750D01*
X0142750Y0061250D01*
X0142750Y0062250D01*
X0142752Y0062310D01*
X0142757Y0062371D01*
X0142766Y0062430D01*
X0142779Y0062489D01*
X0142795Y0062548D01*
X0142815Y0062605D01*
X0142838Y0062660D01*
X0142865Y0062715D01*
X0142894Y0062767D01*
X0142927Y0062818D01*
X0142963Y0062867D01*
X0143001Y0062913D01*
X0143043Y0062957D01*
X0143087Y0062999D01*
X0143133Y0063037D01*
X0143182Y0063073D01*
X0143233Y0063106D01*
X0143285Y0063135D01*
X0143340Y0063162D01*
X0143395Y0063185D01*
X0143452Y0063205D01*
X0143511Y0063221D01*
X0143570Y0063234D01*
X0143629Y0063243D01*
X0143690Y0063248D01*
X0143750Y0063250D01*
X0143750Y0071250D02*
X0141250Y0073750D01*
X0141250Y0078750D01*
X0143750Y0081250D01*
X0141250Y0083750D01*
X0141250Y0088750D01*
X0143750Y0091250D01*
X0148750Y0091250D01*
X0151250Y0088750D01*
X0151250Y0083750D01*
X0148750Y0081250D01*
X0151250Y0078750D01*
X0151250Y0073750D01*
X0148750Y0071250D01*
X0143750Y0071250D01*
X0148750Y0063250D02*
X0148810Y0063248D01*
X0148871Y0063243D01*
X0148930Y0063234D01*
X0148989Y0063221D01*
X0149048Y0063205D01*
X0149105Y0063185D01*
X0149160Y0063162D01*
X0149215Y0063135D01*
X0149267Y0063106D01*
X0149318Y0063073D01*
X0149367Y0063037D01*
X0149413Y0062999D01*
X0149457Y0062957D01*
X0149499Y0062913D01*
X0149537Y0062867D01*
X0149573Y0062818D01*
X0149606Y0062767D01*
X0149635Y0062715D01*
X0149662Y0062660D01*
X0149685Y0062605D01*
X0149705Y0062548D01*
X0149721Y0062489D01*
X0149734Y0062430D01*
X0149743Y0062371D01*
X0149748Y0062310D01*
X0149750Y0062250D01*
X0149750Y0061250D01*
X0149250Y0060750D01*
X0149250Y0051750D01*
X0149750Y0051250D01*
X0149750Y0050250D01*
X0149748Y0050190D01*
X0149743Y0050129D01*
X0149734Y0050070D01*
X0149721Y0050011D01*
X0149705Y0049952D01*
X0149685Y0049895D01*
X0149662Y0049840D01*
X0149635Y0049785D01*
X0149606Y0049733D01*
X0149573Y0049682D01*
X0149537Y0049633D01*
X0149499Y0049587D01*
X0149457Y0049543D01*
X0149413Y0049501D01*
X0149367Y0049463D01*
X0149318Y0049427D01*
X0149267Y0049394D01*
X0149215Y0049365D01*
X0149160Y0049338D01*
X0149105Y0049315D01*
X0149048Y0049295D01*
X0148989Y0049279D01*
X0148930Y0049266D01*
X0148871Y0049257D01*
X0148810Y0049252D01*
X0148750Y0049250D01*
X0143750Y0049250D02*
X0143690Y0049252D01*
X0143629Y0049257D01*
X0143570Y0049266D01*
X0143511Y0049279D01*
X0143452Y0049295D01*
X0143395Y0049315D01*
X0143340Y0049338D01*
X0143285Y0049365D01*
X0143233Y0049394D01*
X0143182Y0049427D01*
X0143133Y0049463D01*
X0143087Y0049501D01*
X0143043Y0049543D01*
X0143001Y0049587D01*
X0142963Y0049633D01*
X0142927Y0049682D01*
X0142894Y0049733D01*
X0142865Y0049785D01*
X0142838Y0049840D01*
X0142815Y0049895D01*
X0142795Y0049952D01*
X0142779Y0050011D01*
X0142766Y0050070D01*
X0142757Y0050129D01*
X0142752Y0050190D01*
X0142750Y0050250D01*
X0143750Y0081250D02*
X0148750Y0081250D01*
X0148750Y0091250D02*
X0151250Y0093750D01*
X0151250Y0098750D01*
X0148750Y0101250D01*
X0151250Y0103750D01*
X0151250Y0108750D01*
X0148750Y0111250D01*
X0151250Y0113750D01*
X0151250Y0118750D01*
X0148750Y0121250D01*
X0151250Y0123750D01*
X0151250Y0128750D01*
X0148750Y0131250D01*
X0143750Y0131250D01*
X0141250Y0128750D01*
X0141250Y0123750D01*
X0143750Y0121250D01*
X0148750Y0121250D01*
X0143750Y0121250D02*
X0141250Y0118750D01*
X0141250Y0113750D01*
X0143750Y0111250D01*
X0148750Y0111250D01*
X0143750Y0111250D02*
X0141250Y0108750D01*
X0141250Y0103750D01*
X0143750Y0101250D01*
X0148750Y0101250D01*
X0143750Y0101250D02*
X0141250Y0098750D01*
X0141250Y0093750D01*
X0143750Y0091250D01*
X0153750Y0136250D02*
X0168750Y0136250D01*
X0171250Y0138750D01*
X0171250Y0143750D01*
X0168750Y0146250D01*
X0153750Y0146250D01*
X0151250Y0143750D01*
X0151250Y0138750D01*
X0153750Y0136250D01*
X0153750Y0146250D02*
X0151250Y0148750D01*
X0151250Y0153750D01*
X0153750Y0156250D01*
X0168750Y0156250D01*
X0171250Y0153750D01*
X0171250Y0148750D01*
X0168750Y0146250D01*
X0168750Y0156250D02*
X0171250Y0158750D01*
X0171250Y0163750D01*
X0168750Y0166250D01*
X0153750Y0166250D01*
X0151250Y0163750D01*
X0151250Y0158750D01*
X0153750Y0156250D01*
X0152750Y0176250D02*
X0169750Y0176250D01*
X0169810Y0176252D01*
X0169871Y0176257D01*
X0169930Y0176266D01*
X0169989Y0176279D01*
X0170048Y0176295D01*
X0170105Y0176315D01*
X0170160Y0176338D01*
X0170215Y0176365D01*
X0170267Y0176394D01*
X0170318Y0176427D01*
X0170367Y0176463D01*
X0170413Y0176501D01*
X0170457Y0176543D01*
X0170499Y0176587D01*
X0170537Y0176633D01*
X0170573Y0176682D01*
X0170606Y0176733D01*
X0170635Y0176785D01*
X0170662Y0176840D01*
X0170685Y0176895D01*
X0170705Y0176952D01*
X0170721Y0177011D01*
X0170734Y0177070D01*
X0170743Y0177129D01*
X0170748Y0177190D01*
X0170750Y0177250D01*
X0170750Y0185250D01*
X0170748Y0185310D01*
X0170743Y0185371D01*
X0170734Y0185430D01*
X0170721Y0185489D01*
X0170705Y0185548D01*
X0170685Y0185605D01*
X0170662Y0185660D01*
X0170635Y0185715D01*
X0170606Y0185767D01*
X0170573Y0185818D01*
X0170537Y0185867D01*
X0170499Y0185913D01*
X0170457Y0185957D01*
X0170413Y0185999D01*
X0170367Y0186037D01*
X0170318Y0186073D01*
X0170267Y0186106D01*
X0170215Y0186135D01*
X0170160Y0186162D01*
X0170105Y0186185D01*
X0170048Y0186205D01*
X0169989Y0186221D01*
X0169930Y0186234D01*
X0169871Y0186243D01*
X0169810Y0186248D01*
X0169750Y0186250D01*
X0152750Y0186250D01*
X0152690Y0186248D01*
X0152629Y0186243D01*
X0152570Y0186234D01*
X0152511Y0186221D01*
X0152452Y0186205D01*
X0152395Y0186185D01*
X0152340Y0186162D01*
X0152285Y0186135D01*
X0152233Y0186106D01*
X0152182Y0186073D01*
X0152133Y0186037D01*
X0152087Y0185999D01*
X0152043Y0185957D01*
X0152001Y0185913D01*
X0151963Y0185867D01*
X0151927Y0185818D01*
X0151894Y0185767D01*
X0151865Y0185715D01*
X0151838Y0185660D01*
X0151815Y0185605D01*
X0151795Y0185548D01*
X0151779Y0185489D01*
X0151766Y0185430D01*
X0151757Y0185371D01*
X0151752Y0185310D01*
X0151750Y0185250D01*
X0151750Y0177250D01*
X0151752Y0177190D01*
X0151757Y0177129D01*
X0151766Y0177070D01*
X0151779Y0177011D01*
X0151795Y0176952D01*
X0151815Y0176895D01*
X0151838Y0176840D01*
X0151865Y0176785D01*
X0151894Y0176733D01*
X0151927Y0176682D01*
X0151963Y0176633D01*
X0152001Y0176587D01*
X0152043Y0176543D01*
X0152087Y0176501D01*
X0152133Y0176463D01*
X0152182Y0176427D01*
X0152233Y0176394D01*
X0152285Y0176365D01*
X0152340Y0176338D01*
X0152395Y0176315D01*
X0152452Y0176295D01*
X0152511Y0176279D01*
X0152570Y0176266D01*
X0152629Y0176257D01*
X0152690Y0176252D01*
X0152750Y0176250D01*
X0159750Y0181250D02*
X0160250Y0181250D01*
X0162250Y0181250D02*
X0162750Y0181250D01*
X0172750Y0186250D02*
X0149750Y0186250D01*
X0149750Y0256250D01*
X0157250Y0256250D01*
X0157252Y0256124D01*
X0157258Y0255999D01*
X0157268Y0255874D01*
X0157282Y0255749D01*
X0157299Y0255624D01*
X0157321Y0255500D01*
X0157346Y0255377D01*
X0157376Y0255255D01*
X0157409Y0255134D01*
X0157446Y0255014D01*
X0157486Y0254895D01*
X0157531Y0254778D01*
X0157579Y0254661D01*
X0157631Y0254547D01*
X0157686Y0254434D01*
X0157745Y0254323D01*
X0157807Y0254214D01*
X0157873Y0254107D01*
X0157942Y0254002D01*
X0158014Y0253899D01*
X0158089Y0253798D01*
X0158168Y0253700D01*
X0158250Y0253605D01*
X0158334Y0253512D01*
X0158422Y0253422D01*
X0158512Y0253334D01*
X0158605Y0253250D01*
X0158700Y0253168D01*
X0158798Y0253089D01*
X0158899Y0253014D01*
X0159002Y0252942D01*
X0159107Y0252873D01*
X0159214Y0252807D01*
X0159323Y0252745D01*
X0159434Y0252686D01*
X0159547Y0252631D01*
X0159661Y0252579D01*
X0159778Y0252531D01*
X0159895Y0252486D01*
X0160014Y0252446D01*
X0160134Y0252409D01*
X0160255Y0252376D01*
X0160377Y0252346D01*
X0160500Y0252321D01*
X0160624Y0252299D01*
X0160749Y0252282D01*
X0160874Y0252268D01*
X0160999Y0252258D01*
X0161124Y0252252D01*
X0161250Y0252250D01*
X0161376Y0252252D01*
X0161501Y0252258D01*
X0161626Y0252268D01*
X0161751Y0252282D01*
X0161876Y0252299D01*
X0162000Y0252321D01*
X0162123Y0252346D01*
X0162245Y0252376D01*
X0162366Y0252409D01*
X0162486Y0252446D01*
X0162605Y0252486D01*
X0162722Y0252531D01*
X0162839Y0252579D01*
X0162953Y0252631D01*
X0163066Y0252686D01*
X0163177Y0252745D01*
X0163286Y0252807D01*
X0163393Y0252873D01*
X0163498Y0252942D01*
X0163601Y0253014D01*
X0163702Y0253089D01*
X0163800Y0253168D01*
X0163895Y0253250D01*
X0163988Y0253334D01*
X0164078Y0253422D01*
X0164166Y0253512D01*
X0164250Y0253605D01*
X0164332Y0253700D01*
X0164411Y0253798D01*
X0164486Y0253899D01*
X0164558Y0254002D01*
X0164627Y0254107D01*
X0164693Y0254214D01*
X0164755Y0254323D01*
X0164814Y0254434D01*
X0164869Y0254547D01*
X0164921Y0254661D01*
X0164969Y0254778D01*
X0165014Y0254895D01*
X0165054Y0255014D01*
X0165091Y0255134D01*
X0165124Y0255255D01*
X0165154Y0255377D01*
X0165179Y0255500D01*
X0165201Y0255624D01*
X0165218Y0255749D01*
X0165232Y0255874D01*
X0165242Y0255999D01*
X0165248Y0256124D01*
X0165250Y0256250D01*
X0172750Y0256250D01*
X0172750Y0186250D01*
X0136250Y0223250D02*
X0136250Y0259250D01*
X0136248Y0259337D01*
X0136242Y0259424D01*
X0136233Y0259511D01*
X0136220Y0259597D01*
X0136203Y0259683D01*
X0136182Y0259768D01*
X0136157Y0259851D01*
X0136129Y0259934D01*
X0136098Y0260015D01*
X0136063Y0260095D01*
X0136024Y0260173D01*
X0135982Y0260250D01*
X0135937Y0260325D01*
X0135888Y0260397D01*
X0135837Y0260468D01*
X0135782Y0260536D01*
X0135725Y0260601D01*
X0135664Y0260664D01*
X0135601Y0260725D01*
X0135536Y0260782D01*
X0135468Y0260837D01*
X0135397Y0260888D01*
X0135325Y0260937D01*
X0135250Y0260982D01*
X0135173Y0261024D01*
X0135095Y0261063D01*
X0135015Y0261098D01*
X0134934Y0261129D01*
X0134851Y0261157D01*
X0134768Y0261182D01*
X0134683Y0261203D01*
X0134597Y0261220D01*
X0134511Y0261233D01*
X0134424Y0261242D01*
X0134337Y0261248D01*
X0134250Y0261250D01*
X0098250Y0261250D01*
X0098163Y0261248D01*
X0098076Y0261242D01*
X0097989Y0261233D01*
X0097903Y0261220D01*
X0097817Y0261203D01*
X0097732Y0261182D01*
X0097649Y0261157D01*
X0097566Y0261129D01*
X0097485Y0261098D01*
X0097405Y0261063D01*
X0097327Y0261024D01*
X0097250Y0260982D01*
X0097175Y0260937D01*
X0097103Y0260888D01*
X0097032Y0260837D01*
X0096964Y0260782D01*
X0096899Y0260725D01*
X0096836Y0260664D01*
X0096775Y0260601D01*
X0096718Y0260536D01*
X0096663Y0260468D01*
X0096612Y0260397D01*
X0096563Y0260325D01*
X0096518Y0260250D01*
X0096476Y0260173D01*
X0096437Y0260095D01*
X0096402Y0260015D01*
X0096371Y0259934D01*
X0096343Y0259851D01*
X0096318Y0259768D01*
X0096297Y0259683D01*
X0096280Y0259597D01*
X0096267Y0259511D01*
X0096258Y0259424D01*
X0096252Y0259337D01*
X0096250Y0259250D01*
X0096250Y0227250D01*
X0102250Y0221250D01*
X0134250Y0221250D01*
X0134337Y0221252D01*
X0134424Y0221258D01*
X0134511Y0221267D01*
X0134597Y0221280D01*
X0134683Y0221297D01*
X0134768Y0221318D01*
X0134851Y0221343D01*
X0134934Y0221371D01*
X0135015Y0221402D01*
X0135095Y0221437D01*
X0135173Y0221476D01*
X0135250Y0221518D01*
X0135325Y0221563D01*
X0135397Y0221612D01*
X0135468Y0221663D01*
X0135536Y0221718D01*
X0135601Y0221775D01*
X0135664Y0221836D01*
X0135725Y0221899D01*
X0135782Y0221964D01*
X0135837Y0222032D01*
X0135888Y0222103D01*
X0135937Y0222175D01*
X0135982Y0222250D01*
X0136024Y0222327D01*
X0136063Y0222405D01*
X0136098Y0222485D01*
X0136129Y0222566D01*
X0136157Y0222649D01*
X0136182Y0222732D01*
X0136203Y0222817D01*
X0136220Y0222903D01*
X0136233Y0222989D01*
X0136242Y0223076D01*
X0136248Y0223163D01*
X0136250Y0223250D01*
X0128650Y0234850D02*
X0127450Y0234650D01*
X0126450Y0235250D01*
X0125650Y0236450D01*
X0125850Y0238250D01*
X0127250Y0237050D02*
X0126450Y0235250D01*
X0125450Y0234050D02*
X0126250Y0233250D01*
X0126050Y0231450D01*
X0124250Y0231250D01*
X0123450Y0232050D01*
X0122250Y0233250D01*
X0123450Y0232050D02*
X0125450Y0234050D01*
X0124250Y0235250D01*
X0122350Y0235150D02*
X0121350Y0236150D01*
X0122750Y0238250D02*
X0124050Y0237650D01*
X0123350Y0241250D02*
X0124850Y0241250D01*
X0126350Y0241750D02*
X0126950Y0242350D01*
X0127550Y0242350D01*
X0128150Y0241750D01*
X0128150Y0240550D01*
X0128750Y0239950D01*
X0129350Y0239950D01*
X0130050Y0240550D01*
X0130050Y0241750D01*
X0129350Y0242350D01*
X0128750Y0242350D01*
X0128150Y0241750D01*
X0128150Y0240550D02*
X0127550Y0239950D01*
X0126950Y0239950D01*
X0126350Y0240550D01*
X0126350Y0241750D01*
X0124450Y0244450D02*
X0122950Y0243850D01*
X0125250Y0245650D02*
X0125850Y0245850D01*
X0128850Y0245050D01*
X0129450Y0245250D01*
X0128450Y0247450D01*
X0127050Y0250050D02*
X0125650Y0250850D01*
X0123850Y0250450D01*
X0123050Y0249650D01*
X0123050Y0248650D01*
X0124050Y0247650D01*
X0125050Y0247650D01*
X0125450Y0248050D01*
X0125450Y0249050D01*
X0123850Y0250450D01*
X0122050Y0251550D02*
X0121750Y0252350D01*
X0120850Y0252750D01*
X0119950Y0252650D01*
X0120750Y0254250D01*
X0122950Y0253250D01*
X0122050Y0251550D02*
X0121550Y0250550D01*
X0120750Y0250250D01*
X0119750Y0250750D01*
X0119450Y0251550D01*
X0119750Y0249250D02*
X0119150Y0247750D01*
X0121250Y0246250D02*
X0122250Y0247250D01*
X0116850Y0251350D02*
X0116850Y0255050D01*
X0115050Y0253150D01*
X0117450Y0253150D01*
X0116250Y0249850D02*
X0116250Y0248350D01*
X0113450Y0247750D02*
X0112850Y0249250D01*
X0111550Y0250050D02*
X0113250Y0250750D01*
X0113450Y0251650D01*
X0113050Y0252450D01*
X0112550Y0252650D01*
X0112650Y0253250D01*
X0112250Y0254050D01*
X0111750Y0254350D01*
X0110050Y0253650D01*
X0109850Y0252650D01*
X0111750Y0252350D02*
X0112550Y0252650D01*
X0110850Y0250450D02*
X0111550Y0250050D01*
X0110150Y0249250D02*
X0108450Y0247650D01*
X0108650Y0251050D01*
X0108150Y0251650D01*
X0107250Y0251650D01*
X0106150Y0250650D01*
X0106150Y0249550D01*
X0103850Y0246950D02*
X0104050Y0245750D01*
X0103850Y0246950D02*
X0107150Y0245450D01*
X0107450Y0245950D02*
X0106950Y0244850D01*
X0108450Y0244850D02*
X0109750Y0244250D01*
X0111250Y0246350D02*
X0110250Y0247350D01*
X0109050Y0241250D02*
X0107550Y0241250D01*
X0106150Y0240650D02*
X0105450Y0240050D01*
X0103050Y0240050D01*
X0102450Y0240650D01*
X0102450Y0241850D01*
X0103050Y0242450D01*
X0105450Y0242450D01*
X0106150Y0241850D01*
X0106150Y0240650D01*
X0108250Y0237850D02*
X0109650Y0238450D01*
X0111150Y0236150D02*
X0110150Y0235150D01*
X0108550Y0234950D02*
X0110050Y0233350D01*
X0108650Y0231950D01*
X0107250Y0230550D01*
X0105550Y0232250D01*
X0107750Y0232850D02*
X0108650Y0231950D01*
X0110850Y0232050D02*
X0109650Y0229550D01*
X0109950Y0228850D01*
X0111650Y0228050D01*
X0113250Y0231650D01*
X0111650Y0232350D01*
X0110850Y0232050D01*
X0107450Y0236550D02*
X0105750Y0235750D01*
X0105150Y0237150D01*
X0105750Y0235750D02*
X0104050Y0234950D01*
X0103150Y0236850D01*
X0112950Y0233350D02*
X0113450Y0234650D01*
X0116250Y0234050D02*
X0116250Y0232550D01*
X0118850Y0231450D02*
X0120850Y0232250D01*
X0121650Y0230450D01*
X0122450Y0228850D01*
X0120650Y0228050D01*
X0120050Y0228250D01*
X0119650Y0229050D01*
X0119850Y0229650D01*
X0119050Y0230050D01*
X0118750Y0230750D01*
X0118850Y0231450D01*
X0119550Y0233150D02*
X0118850Y0234750D01*
X0121650Y0230450D02*
X0119850Y0229650D01*
X0127250Y0237050D02*
X0128250Y0237450D01*
X0129050Y0237050D01*
X0129250Y0236050D01*
X0128650Y0234850D01*
X0109150Y0241250D02*
X0109152Y0241424D01*
X0109159Y0241598D01*
X0109169Y0241772D01*
X0109184Y0241946D01*
X0109203Y0242119D01*
X0109227Y0242292D01*
X0109255Y0242464D01*
X0109286Y0242635D01*
X0109323Y0242806D01*
X0109363Y0242975D01*
X0109407Y0243144D01*
X0109456Y0243311D01*
X0109508Y0243477D01*
X0109565Y0243642D01*
X0109626Y0243805D01*
X0109690Y0243967D01*
X0109759Y0244127D01*
X0109832Y0244286D01*
X0109908Y0244442D01*
X0109988Y0244597D01*
X0110072Y0244750D01*
X0110160Y0244900D01*
X0110252Y0245048D01*
X0110347Y0245195D01*
X0110445Y0245338D01*
X0110547Y0245479D01*
X0110653Y0245618D01*
X0110762Y0245754D01*
X0110874Y0245888D01*
X0110989Y0246018D01*
X0111108Y0246146D01*
X0111230Y0246270D01*
X0111354Y0246392D01*
X0111482Y0246511D01*
X0111612Y0246626D01*
X0111746Y0246738D01*
X0111882Y0246847D01*
X0112021Y0246953D01*
X0112162Y0247055D01*
X0112305Y0247153D01*
X0112452Y0247248D01*
X0112600Y0247340D01*
X0112750Y0247428D01*
X0112903Y0247512D01*
X0113058Y0247592D01*
X0113214Y0247668D01*
X0113373Y0247741D01*
X0113533Y0247810D01*
X0113695Y0247874D01*
X0113858Y0247935D01*
X0114023Y0247992D01*
X0114189Y0248044D01*
X0114356Y0248093D01*
X0114525Y0248137D01*
X0114694Y0248177D01*
X0114865Y0248214D01*
X0115036Y0248245D01*
X0115208Y0248273D01*
X0115381Y0248297D01*
X0115554Y0248316D01*
X0115728Y0248331D01*
X0115902Y0248341D01*
X0116076Y0248348D01*
X0116250Y0248350D01*
X0116424Y0248348D01*
X0116598Y0248341D01*
X0116772Y0248331D01*
X0116946Y0248316D01*
X0117119Y0248297D01*
X0117292Y0248273D01*
X0117464Y0248245D01*
X0117635Y0248214D01*
X0117806Y0248177D01*
X0117975Y0248137D01*
X0118144Y0248093D01*
X0118311Y0248044D01*
X0118477Y0247992D01*
X0118642Y0247935D01*
X0118805Y0247874D01*
X0118967Y0247810D01*
X0119127Y0247741D01*
X0119286Y0247668D01*
X0119442Y0247592D01*
X0119597Y0247512D01*
X0119750Y0247428D01*
X0119900Y0247340D01*
X0120048Y0247248D01*
X0120195Y0247153D01*
X0120338Y0247055D01*
X0120479Y0246953D01*
X0120618Y0246847D01*
X0120754Y0246738D01*
X0120888Y0246626D01*
X0121018Y0246511D01*
X0121146Y0246392D01*
X0121270Y0246270D01*
X0121392Y0246146D01*
X0121511Y0246018D01*
X0121626Y0245888D01*
X0121738Y0245754D01*
X0121847Y0245618D01*
X0121953Y0245479D01*
X0122055Y0245338D01*
X0122153Y0245195D01*
X0122248Y0245048D01*
X0122340Y0244900D01*
X0122428Y0244750D01*
X0122512Y0244597D01*
X0122592Y0244442D01*
X0122668Y0244286D01*
X0122741Y0244127D01*
X0122810Y0243967D01*
X0122874Y0243805D01*
X0122935Y0243642D01*
X0122992Y0243477D01*
X0123044Y0243311D01*
X0123093Y0243144D01*
X0123137Y0242975D01*
X0123177Y0242806D01*
X0123214Y0242635D01*
X0123245Y0242464D01*
X0123273Y0242292D01*
X0123297Y0242119D01*
X0123316Y0241946D01*
X0123331Y0241772D01*
X0123341Y0241598D01*
X0123348Y0241424D01*
X0123350Y0241250D01*
X0123348Y0241076D01*
X0123341Y0240902D01*
X0123331Y0240728D01*
X0123316Y0240554D01*
X0123297Y0240381D01*
X0123273Y0240208D01*
X0123245Y0240036D01*
X0123214Y0239865D01*
X0123177Y0239694D01*
X0123137Y0239525D01*
X0123093Y0239356D01*
X0123044Y0239189D01*
X0122992Y0239023D01*
X0122935Y0238858D01*
X0122874Y0238695D01*
X0122810Y0238533D01*
X0122741Y0238373D01*
X0122668Y0238214D01*
X0122592Y0238058D01*
X0122512Y0237903D01*
X0122428Y0237750D01*
X0122340Y0237600D01*
X0122248Y0237452D01*
X0122153Y0237305D01*
X0122055Y0237162D01*
X0121953Y0237021D01*
X0121847Y0236882D01*
X0121738Y0236746D01*
X0121626Y0236612D01*
X0121511Y0236482D01*
X0121392Y0236354D01*
X0121270Y0236230D01*
X0121146Y0236108D01*
X0121018Y0235989D01*
X0120888Y0235874D01*
X0120754Y0235762D01*
X0120618Y0235653D01*
X0120479Y0235547D01*
X0120338Y0235445D01*
X0120195Y0235347D01*
X0120048Y0235252D01*
X0119900Y0235160D01*
X0119750Y0235072D01*
X0119597Y0234988D01*
X0119442Y0234908D01*
X0119286Y0234832D01*
X0119127Y0234759D01*
X0118967Y0234690D01*
X0118805Y0234626D01*
X0118642Y0234565D01*
X0118477Y0234508D01*
X0118311Y0234456D01*
X0118144Y0234407D01*
X0117975Y0234363D01*
X0117806Y0234323D01*
X0117635Y0234286D01*
X0117464Y0234255D01*
X0117292Y0234227D01*
X0117119Y0234203D01*
X0116946Y0234184D01*
X0116772Y0234169D01*
X0116598Y0234159D01*
X0116424Y0234152D01*
X0116250Y0234150D01*
X0116076Y0234152D01*
X0115902Y0234159D01*
X0115728Y0234169D01*
X0115554Y0234184D01*
X0115381Y0234203D01*
X0115208Y0234227D01*
X0115036Y0234255D01*
X0114865Y0234286D01*
X0114694Y0234323D01*
X0114525Y0234363D01*
X0114356Y0234407D01*
X0114189Y0234456D01*
X0114023Y0234508D01*
X0113858Y0234565D01*
X0113695Y0234626D01*
X0113533Y0234690D01*
X0113373Y0234759D01*
X0113214Y0234832D01*
X0113058Y0234908D01*
X0112903Y0234988D01*
X0112750Y0235072D01*
X0112600Y0235160D01*
X0112452Y0235252D01*
X0112305Y0235347D01*
X0112162Y0235445D01*
X0112021Y0235547D01*
X0111882Y0235653D01*
X0111746Y0235762D01*
X0111612Y0235874D01*
X0111482Y0235989D01*
X0111354Y0236108D01*
X0111230Y0236230D01*
X0111108Y0236354D01*
X0110989Y0236482D01*
X0110874Y0236612D01*
X0110762Y0236746D01*
X0110653Y0236882D01*
X0110547Y0237021D01*
X0110445Y0237162D01*
X0110347Y0237305D01*
X0110252Y0237452D01*
X0110160Y0237600D01*
X0110072Y0237750D01*
X0109988Y0237903D01*
X0109908Y0238058D01*
X0109832Y0238214D01*
X0109759Y0238373D01*
X0109690Y0238533D01*
X0109626Y0238695D01*
X0109565Y0238858D01*
X0109508Y0239023D01*
X0109456Y0239189D01*
X0109407Y0239356D01*
X0109363Y0239525D01*
X0109323Y0239694D01*
X0109286Y0239865D01*
X0109255Y0240036D01*
X0109227Y0240208D01*
X0109203Y0240381D01*
X0109184Y0240554D01*
X0109169Y0240728D01*
X0109159Y0240902D01*
X0109152Y0241076D01*
X0109150Y0241250D01*
X0109750Y0216250D02*
X0092750Y0216250D01*
X0092690Y0216248D01*
X0092629Y0216243D01*
X0092570Y0216234D01*
X0092511Y0216221D01*
X0092452Y0216205D01*
X0092395Y0216185D01*
X0092340Y0216162D01*
X0092285Y0216135D01*
X0092233Y0216106D01*
X0092182Y0216073D01*
X0092133Y0216037D01*
X0092087Y0215999D01*
X0092043Y0215957D01*
X0092001Y0215913D01*
X0091963Y0215867D01*
X0091927Y0215818D01*
X0091894Y0215767D01*
X0091865Y0215715D01*
X0091838Y0215660D01*
X0091815Y0215605D01*
X0091795Y0215548D01*
X0091779Y0215489D01*
X0091766Y0215430D01*
X0091757Y0215371D01*
X0091752Y0215310D01*
X0091750Y0215250D01*
X0091750Y0207250D01*
X0091752Y0207190D01*
X0091757Y0207129D01*
X0091766Y0207070D01*
X0091779Y0207011D01*
X0091795Y0206952D01*
X0091815Y0206895D01*
X0091838Y0206840D01*
X0091865Y0206785D01*
X0091894Y0206733D01*
X0091927Y0206682D01*
X0091963Y0206633D01*
X0092001Y0206587D01*
X0092043Y0206543D01*
X0092087Y0206501D01*
X0092133Y0206463D01*
X0092182Y0206427D01*
X0092233Y0206394D01*
X0092285Y0206365D01*
X0092340Y0206338D01*
X0092395Y0206315D01*
X0092452Y0206295D01*
X0092511Y0206279D01*
X0092570Y0206266D01*
X0092629Y0206257D01*
X0092690Y0206252D01*
X0092750Y0206250D01*
X0109750Y0206250D01*
X0109810Y0206252D01*
X0109871Y0206257D01*
X0109930Y0206266D01*
X0109989Y0206279D01*
X0110048Y0206295D01*
X0110105Y0206315D01*
X0110160Y0206338D01*
X0110215Y0206365D01*
X0110267Y0206394D01*
X0110318Y0206427D01*
X0110367Y0206463D01*
X0110413Y0206501D01*
X0110457Y0206543D01*
X0110499Y0206587D01*
X0110537Y0206633D01*
X0110573Y0206682D01*
X0110606Y0206733D01*
X0110635Y0206785D01*
X0110662Y0206840D01*
X0110685Y0206895D01*
X0110705Y0206952D01*
X0110721Y0207011D01*
X0110734Y0207070D01*
X0110743Y0207129D01*
X0110748Y0207190D01*
X0110750Y0207250D01*
X0110750Y0215250D01*
X0110748Y0215310D01*
X0110743Y0215371D01*
X0110734Y0215430D01*
X0110721Y0215489D01*
X0110705Y0215548D01*
X0110685Y0215605D01*
X0110662Y0215660D01*
X0110635Y0215715D01*
X0110606Y0215767D01*
X0110573Y0215818D01*
X0110537Y0215867D01*
X0110499Y0215913D01*
X0110457Y0215957D01*
X0110413Y0215999D01*
X0110367Y0216037D01*
X0110318Y0216073D01*
X0110267Y0216106D01*
X0110215Y0216135D01*
X0110160Y0216162D01*
X0110105Y0216185D01*
X0110048Y0216205D01*
X0109989Y0216221D01*
X0109930Y0216234D01*
X0109871Y0216243D01*
X0109810Y0216248D01*
X0109750Y0216250D01*
X0102750Y0211250D02*
X0102250Y0211250D01*
X0100250Y0211250D02*
X0099750Y0211250D01*
X0110250Y0267750D02*
X0111250Y0267750D01*
X0111750Y0268250D01*
X0120750Y0268250D01*
X0121250Y0267750D01*
X0122250Y0267750D01*
X0122310Y0267752D01*
X0122371Y0267757D01*
X0122430Y0267766D01*
X0122489Y0267779D01*
X0122548Y0267795D01*
X0122605Y0267815D01*
X0122660Y0267838D01*
X0122715Y0267865D01*
X0122767Y0267894D01*
X0122818Y0267927D01*
X0122867Y0267963D01*
X0122913Y0268001D01*
X0122957Y0268043D01*
X0122999Y0268087D01*
X0123037Y0268133D01*
X0123073Y0268182D01*
X0123106Y0268233D01*
X0123135Y0268285D01*
X0123162Y0268340D01*
X0123185Y0268395D01*
X0123205Y0268452D01*
X0123221Y0268511D01*
X0123234Y0268570D01*
X0123243Y0268629D01*
X0123248Y0268690D01*
X0123250Y0268750D01*
X0123250Y0273750D02*
X0123248Y0273810D01*
X0123243Y0273871D01*
X0123234Y0273930D01*
X0123221Y0273989D01*
X0123205Y0274048D01*
X0123185Y0274105D01*
X0123162Y0274160D01*
X0123135Y0274215D01*
X0123106Y0274267D01*
X0123073Y0274318D01*
X0123037Y0274367D01*
X0122999Y0274413D01*
X0122957Y0274457D01*
X0122913Y0274499D01*
X0122867Y0274537D01*
X0122818Y0274573D01*
X0122767Y0274606D01*
X0122715Y0274635D01*
X0122660Y0274662D01*
X0122605Y0274685D01*
X0122548Y0274705D01*
X0122489Y0274721D01*
X0122430Y0274734D01*
X0122371Y0274743D01*
X0122310Y0274748D01*
X0122250Y0274750D01*
X0121250Y0274750D01*
X0120750Y0274250D01*
X0111750Y0274250D01*
X0111250Y0274750D01*
X0110250Y0274750D01*
X0110190Y0274748D01*
X0110129Y0274743D01*
X0110070Y0274734D01*
X0110011Y0274721D01*
X0109952Y0274705D01*
X0109895Y0274685D01*
X0109840Y0274662D01*
X0109785Y0274635D01*
X0109733Y0274606D01*
X0109682Y0274573D01*
X0109633Y0274537D01*
X0109587Y0274499D01*
X0109543Y0274457D01*
X0109501Y0274413D01*
X0109463Y0274367D01*
X0109427Y0274318D01*
X0109394Y0274267D01*
X0109365Y0274215D01*
X0109338Y0274160D01*
X0109315Y0274105D01*
X0109295Y0274048D01*
X0109279Y0273989D01*
X0109266Y0273930D01*
X0109257Y0273871D01*
X0109252Y0273810D01*
X0109250Y0273750D01*
X0109250Y0268750D02*
X0109252Y0268690D01*
X0109257Y0268629D01*
X0109266Y0268570D01*
X0109279Y0268511D01*
X0109295Y0268452D01*
X0109315Y0268395D01*
X0109338Y0268340D01*
X0109365Y0268285D01*
X0109394Y0268233D01*
X0109427Y0268182D01*
X0109463Y0268133D01*
X0109501Y0268087D01*
X0109543Y0268043D01*
X0109587Y0268001D01*
X0109633Y0267963D01*
X0109682Y0267927D01*
X0109733Y0267894D01*
X0109785Y0267865D01*
X0109840Y0267838D01*
X0109895Y0267815D01*
X0109952Y0267795D01*
X0110011Y0267779D01*
X0110070Y0267766D01*
X0110129Y0267757D01*
X0110190Y0267752D01*
X0110250Y0267750D01*
X0082250Y0267750D02*
X0081250Y0267750D01*
X0080750Y0268250D01*
X0071750Y0268250D01*
X0071250Y0267750D01*
X0070250Y0267750D01*
X0070190Y0267752D01*
X0070129Y0267757D01*
X0070070Y0267766D01*
X0070011Y0267779D01*
X0069952Y0267795D01*
X0069895Y0267815D01*
X0069840Y0267838D01*
X0069785Y0267865D01*
X0069733Y0267894D01*
X0069682Y0267927D01*
X0069633Y0267963D01*
X0069587Y0268001D01*
X0069543Y0268043D01*
X0069501Y0268087D01*
X0069463Y0268133D01*
X0069427Y0268182D01*
X0069394Y0268233D01*
X0069365Y0268285D01*
X0069338Y0268340D01*
X0069315Y0268395D01*
X0069295Y0268452D01*
X0069279Y0268511D01*
X0069266Y0268570D01*
X0069257Y0268629D01*
X0069252Y0268690D01*
X0069250Y0268750D01*
X0069250Y0273750D02*
X0069252Y0273810D01*
X0069257Y0273871D01*
X0069266Y0273930D01*
X0069279Y0273989D01*
X0069295Y0274048D01*
X0069315Y0274105D01*
X0069338Y0274160D01*
X0069365Y0274215D01*
X0069394Y0274267D01*
X0069427Y0274318D01*
X0069463Y0274367D01*
X0069501Y0274413D01*
X0069543Y0274457D01*
X0069587Y0274499D01*
X0069633Y0274537D01*
X0069682Y0274573D01*
X0069733Y0274606D01*
X0069785Y0274635D01*
X0069840Y0274662D01*
X0069895Y0274685D01*
X0069952Y0274705D01*
X0070011Y0274721D01*
X0070070Y0274734D01*
X0070129Y0274743D01*
X0070190Y0274748D01*
X0070250Y0274750D01*
X0071250Y0274750D01*
X0071750Y0274250D01*
X0080750Y0274250D01*
X0081250Y0274750D01*
X0082250Y0274750D01*
X0082310Y0274748D01*
X0082371Y0274743D01*
X0082430Y0274734D01*
X0082489Y0274721D01*
X0082548Y0274705D01*
X0082605Y0274685D01*
X0082660Y0274662D01*
X0082715Y0274635D01*
X0082767Y0274606D01*
X0082818Y0274573D01*
X0082867Y0274537D01*
X0082913Y0274499D01*
X0082957Y0274457D01*
X0082999Y0274413D01*
X0083037Y0274367D01*
X0083073Y0274318D01*
X0083106Y0274267D01*
X0083135Y0274215D01*
X0083162Y0274160D01*
X0083185Y0274105D01*
X0083205Y0274048D01*
X0083221Y0273989D01*
X0083234Y0273930D01*
X0083243Y0273871D01*
X0083248Y0273810D01*
X0083250Y0273750D01*
X0083250Y0268750D02*
X0083248Y0268690D01*
X0083243Y0268629D01*
X0083234Y0268570D01*
X0083221Y0268511D01*
X0083205Y0268452D01*
X0083185Y0268395D01*
X0083162Y0268340D01*
X0083135Y0268285D01*
X0083106Y0268233D01*
X0083073Y0268182D01*
X0083037Y0268133D01*
X0082999Y0268087D01*
X0082957Y0268043D01*
X0082913Y0268001D01*
X0082867Y0267963D01*
X0082818Y0267927D01*
X0082767Y0267894D01*
X0082715Y0267865D01*
X0082660Y0267838D01*
X0082605Y0267815D01*
X0082548Y0267795D01*
X0082489Y0267779D01*
X0082430Y0267766D01*
X0082371Y0267757D01*
X0082310Y0267752D01*
X0082250Y0267750D01*
X0051250Y0268750D02*
X0051250Y0263750D01*
X0048750Y0261250D01*
X0051250Y0258750D01*
X0051250Y0253750D01*
X0048750Y0251250D01*
X0051250Y0248750D01*
X0051250Y0243750D01*
X0048750Y0241250D01*
X0051250Y0238750D01*
X0051250Y0233750D01*
X0048750Y0231250D01*
X0043750Y0231250D01*
X0041250Y0233750D01*
X0041250Y0238750D01*
X0043750Y0241250D01*
X0041250Y0243750D01*
X0041250Y0248750D01*
X0043750Y0251250D01*
X0048750Y0251250D01*
X0043750Y0251250D02*
X0041250Y0253750D01*
X0041250Y0258750D01*
X0043750Y0261250D01*
X0041250Y0263750D01*
X0041250Y0268750D01*
X0043750Y0271250D01*
X0048750Y0271250D01*
X0051250Y0268750D01*
X0048750Y0261250D02*
X0043750Y0261250D01*
X0043750Y0241250D02*
X0048750Y0241250D01*
D14*
X0100250Y0214250D02*
X0100250Y0211250D01*
X0100250Y0208250D01*
X0102250Y0208250D02*
X0102250Y0211250D01*
X0102250Y0214250D01*
X0111950Y0239250D02*
X0111950Y0243250D01*
X0109950Y0241250D01*
X0111950Y0239250D01*
X0111450Y0240250D02*
X0111450Y0242250D01*
X0110950Y0241250D02*
X0110450Y0241250D01*
X0160250Y0184250D02*
X0160250Y0181250D01*
X0160250Y0178250D01*
X0162250Y0178250D02*
X0162250Y0181250D01*
X0162250Y0184250D01*
X0164045Y0125266D02*
X0170541Y0125266D01*
X0164045Y0125266D02*
X0164045Y0122313D01*
X0164045Y0100659D02*
X0164045Y0097707D01*
X0170541Y0097707D01*
X0180778Y0103612D02*
X0180778Y0119360D01*
X0102250Y0019250D02*
X0102250Y0016250D01*
X0102250Y0013250D01*
X0100250Y0013250D02*
X0100250Y0016250D01*
X0100250Y0019250D01*
X0067250Y0023250D02*
X0067250Y0026250D01*
X0067250Y0029250D01*
X0065250Y0029250D02*
X0065250Y0026250D01*
X0065250Y0023250D01*
D15*
X0065250Y0031250D02*
X0137250Y0031250D01*
X0137250Y0221250D01*
X0065250Y0221250D01*
X0065250Y0031250D01*
X0069606Y0012200D02*
X0070134Y0012200D01*
X0070178Y0012198D01*
X0070221Y0012193D01*
X0070264Y0012184D01*
X0070305Y0012171D01*
X0070346Y0012156D01*
X0070385Y0012136D01*
X0070423Y0012114D01*
X0070458Y0012089D01*
X0070492Y0012060D01*
X0070522Y0012030D01*
X0070551Y0011996D01*
X0070576Y0011961D01*
X0070598Y0011923D01*
X0070618Y0011884D01*
X0070633Y0011843D01*
X0070646Y0011802D01*
X0070655Y0011759D01*
X0070660Y0011716D01*
X0070662Y0011672D01*
X0070662Y0010828D01*
X0070660Y0010784D01*
X0070655Y0010741D01*
X0070646Y0010698D01*
X0070633Y0010657D01*
X0070618Y0010616D01*
X0070598Y0010577D01*
X0070576Y0010539D01*
X0070551Y0010504D01*
X0070522Y0010470D01*
X0070492Y0010440D01*
X0070458Y0010411D01*
X0070423Y0010386D01*
X0070385Y0010364D01*
X0070346Y0010344D01*
X0070305Y0010329D01*
X0070264Y0010316D01*
X0070221Y0010307D01*
X0070178Y0010302D01*
X0070134Y0010300D01*
X0069606Y0010300D01*
X0069606Y0012200D01*
X0071838Y0011778D02*
X0072366Y0012200D01*
X0072366Y0010300D01*
X0071838Y0010300D02*
X0072894Y0010300D01*
X0035370Y0043744D02*
X0033470Y0043744D01*
X0033470Y0044272D01*
X0033472Y0044317D01*
X0033478Y0044361D01*
X0033487Y0044405D01*
X0033500Y0044448D01*
X0033517Y0044489D01*
X0033537Y0044530D01*
X0033561Y0044568D01*
X0033587Y0044604D01*
X0033617Y0044637D01*
X0033649Y0044668D01*
X0033684Y0044697D01*
X0033721Y0044722D01*
X0033760Y0044743D01*
X0033801Y0044762D01*
X0033843Y0044777D01*
X0033887Y0044788D01*
X0033931Y0044796D01*
X0033976Y0044800D01*
X0034020Y0044800D01*
X0034065Y0044796D01*
X0034109Y0044788D01*
X0034153Y0044777D01*
X0034195Y0044762D01*
X0034236Y0044743D01*
X0034275Y0044722D01*
X0034312Y0044697D01*
X0034347Y0044668D01*
X0034379Y0044637D01*
X0034409Y0044604D01*
X0034435Y0044568D01*
X0034459Y0044530D01*
X0034479Y0044489D01*
X0034496Y0044448D01*
X0034509Y0044405D01*
X0034518Y0044361D01*
X0034524Y0044317D01*
X0034526Y0044272D01*
X0034526Y0043744D01*
X0033470Y0045746D02*
X0035370Y0046168D01*
X0034103Y0046590D01*
X0035370Y0047012D01*
X0033470Y0047435D01*
X0033470Y0048607D02*
X0033470Y0049135D01*
X0033470Y0048607D02*
X0035370Y0048607D01*
X0034526Y0048607D02*
X0034526Y0049135D01*
X0034526Y0049241D02*
X0035370Y0049663D01*
X0034526Y0049135D02*
X0034524Y0049180D01*
X0034518Y0049224D01*
X0034509Y0049268D01*
X0034496Y0049311D01*
X0034479Y0049352D01*
X0034459Y0049393D01*
X0034435Y0049431D01*
X0034409Y0049467D01*
X0034379Y0049500D01*
X0034347Y0049531D01*
X0034312Y0049560D01*
X0034275Y0049585D01*
X0034236Y0049606D01*
X0034195Y0049625D01*
X0034153Y0049640D01*
X0034109Y0049651D01*
X0034065Y0049659D01*
X0034020Y0049663D01*
X0033976Y0049663D01*
X0033931Y0049659D01*
X0033887Y0049651D01*
X0033843Y0049640D01*
X0033801Y0049625D01*
X0033760Y0049606D01*
X0033721Y0049585D01*
X0033684Y0049560D01*
X0033649Y0049531D01*
X0033617Y0049500D01*
X0033587Y0049467D01*
X0033561Y0049431D01*
X0033537Y0049393D01*
X0033517Y0049352D01*
X0033500Y0049311D01*
X0033487Y0049268D01*
X0033478Y0049224D01*
X0033472Y0049180D01*
X0033470Y0049135D01*
X0060305Y0072116D02*
X0060305Y0213848D01*
X0001250Y0213848D01*
X0001250Y0072116D01*
X0060305Y0072116D01*
X0168517Y0106236D02*
X0168517Y0106658D01*
X0168517Y0106447D02*
X0170417Y0106447D01*
X0170417Y0106236D02*
X0170417Y0106658D01*
X0170417Y0107648D02*
X0170417Y0108703D01*
X0170417Y0107648D02*
X0169362Y0108545D01*
X0168518Y0108228D02*
X0168520Y0108180D01*
X0168526Y0108133D01*
X0168535Y0108086D01*
X0168548Y0108039D01*
X0168564Y0107994D01*
X0168585Y0107951D01*
X0168608Y0107909D01*
X0168635Y0107869D01*
X0168664Y0107832D01*
X0168697Y0107796D01*
X0168732Y0107764D01*
X0168770Y0107734D01*
X0168810Y0107708D01*
X0168852Y0107684D01*
X0168895Y0107664D01*
X0168940Y0107648D01*
X0169361Y0108545D02*
X0169332Y0108573D01*
X0169300Y0108600D01*
X0169266Y0108623D01*
X0169230Y0108644D01*
X0169193Y0108662D01*
X0169154Y0108676D01*
X0169115Y0108688D01*
X0169074Y0108696D01*
X0169033Y0108701D01*
X0168992Y0108703D01*
X0168951Y0108701D01*
X0168910Y0108696D01*
X0168869Y0108687D01*
X0168830Y0108674D01*
X0168791Y0108658D01*
X0168755Y0108639D01*
X0168720Y0108617D01*
X0168687Y0108592D01*
X0168656Y0108564D01*
X0168628Y0108533D01*
X0168603Y0108500D01*
X0168581Y0108466D01*
X0168562Y0108429D01*
X0168546Y0108390D01*
X0168533Y0108351D01*
X0168524Y0108311D01*
X0168519Y0108269D01*
X0168517Y0108228D01*
X0168940Y0109796D02*
X0169995Y0109796D01*
X0170034Y0109798D01*
X0170073Y0109803D01*
X0170110Y0109812D01*
X0170147Y0109824D01*
X0170183Y0109840D01*
X0170217Y0109859D01*
X0170249Y0109881D01*
X0170279Y0109906D01*
X0170307Y0109934D01*
X0170332Y0109964D01*
X0170354Y0109996D01*
X0170373Y0110030D01*
X0170389Y0110066D01*
X0170401Y0110103D01*
X0170410Y0110140D01*
X0170415Y0110179D01*
X0170417Y0110218D01*
X0170417Y0110641D01*
X0168940Y0109796D02*
X0168901Y0109798D01*
X0168862Y0109803D01*
X0168825Y0109812D01*
X0168788Y0109824D01*
X0168752Y0109840D01*
X0168718Y0109859D01*
X0168686Y0109881D01*
X0168656Y0109906D01*
X0168628Y0109934D01*
X0168603Y0109964D01*
X0168581Y0109996D01*
X0168562Y0110030D01*
X0168547Y0110066D01*
X0168534Y0110102D01*
X0168525Y0110140D01*
X0168520Y0110179D01*
X0168518Y0110218D01*
X0168517Y0110218D02*
X0168517Y0110641D01*
X0176417Y0069492D02*
X0177790Y0069492D01*
X0177835Y0069490D01*
X0177879Y0069484D01*
X0177923Y0069475D01*
X0177966Y0069462D01*
X0178007Y0069445D01*
X0178048Y0069425D01*
X0178086Y0069401D01*
X0178122Y0069375D01*
X0178155Y0069345D01*
X0178186Y0069313D01*
X0178215Y0069278D01*
X0178240Y0069241D01*
X0178261Y0069202D01*
X0178280Y0069161D01*
X0178295Y0069119D01*
X0178306Y0069075D01*
X0178314Y0069031D01*
X0178318Y0068986D01*
X0178318Y0068942D01*
X0178314Y0068897D01*
X0178306Y0068853D01*
X0178295Y0068809D01*
X0178280Y0068767D01*
X0178261Y0068726D01*
X0178240Y0068687D01*
X0178215Y0068650D01*
X0178186Y0068615D01*
X0178155Y0068583D01*
X0178122Y0068553D01*
X0178086Y0068527D01*
X0178048Y0068503D01*
X0178007Y0068483D01*
X0177966Y0068466D01*
X0177923Y0068453D01*
X0177879Y0068444D01*
X0177835Y0068438D01*
X0177790Y0068436D01*
X0177790Y0068437D02*
X0176417Y0068437D01*
X0176417Y0066757D02*
X0176417Y0066230D01*
X0178317Y0066230D01*
X0177473Y0066230D02*
X0177473Y0066757D01*
X0177473Y0066863D02*
X0178317Y0067285D01*
X0177473Y0066757D02*
X0177471Y0066802D01*
X0177465Y0066846D01*
X0177456Y0066890D01*
X0177443Y0066933D01*
X0177426Y0066974D01*
X0177406Y0067015D01*
X0177382Y0067053D01*
X0177356Y0067089D01*
X0177326Y0067122D01*
X0177294Y0067153D01*
X0177259Y0067182D01*
X0177222Y0067207D01*
X0177183Y0067228D01*
X0177142Y0067247D01*
X0177100Y0067262D01*
X0177056Y0067273D01*
X0177012Y0067281D01*
X0176967Y0067285D01*
X0176923Y0067285D01*
X0176878Y0067281D01*
X0176834Y0067273D01*
X0176790Y0067262D01*
X0176748Y0067247D01*
X0176707Y0067228D01*
X0176668Y0067207D01*
X0176631Y0067182D01*
X0176596Y0067153D01*
X0176564Y0067122D01*
X0176534Y0067089D01*
X0176508Y0067053D01*
X0176484Y0067015D01*
X0176464Y0066974D01*
X0176447Y0066933D01*
X0176434Y0066890D01*
X0176425Y0066846D01*
X0176419Y0066802D01*
X0176417Y0066757D01*
X0176417Y0064956D02*
X0178317Y0064956D01*
X0177262Y0064956D02*
X0177262Y0063901D01*
X0176417Y0063901D02*
X0178317Y0063901D01*
X0178317Y0062340D02*
X0176417Y0062340D01*
X0176417Y0061813D02*
X0176417Y0062868D01*
X0183665Y0041433D02*
X0185565Y0041433D01*
X0183665Y0040378D01*
X0185565Y0040378D01*
X0185565Y0039316D02*
X0185565Y0038894D01*
X0185565Y0039105D02*
X0183665Y0039105D01*
X0183665Y0038894D02*
X0183665Y0039316D01*
X0070177Y0240094D02*
X0068277Y0240094D01*
X0068277Y0240939D01*
X0069122Y0240939D02*
X0069122Y0240094D01*
X0069333Y0241984D02*
X0069333Y0242512D01*
X0069333Y0242617D02*
X0070177Y0243039D01*
X0070177Y0241984D02*
X0068277Y0241984D01*
X0068277Y0242512D01*
X0068279Y0242557D01*
X0068285Y0242601D01*
X0068294Y0242645D01*
X0068307Y0242688D01*
X0068324Y0242729D01*
X0068344Y0242770D01*
X0068368Y0242808D01*
X0068394Y0242844D01*
X0068424Y0242877D01*
X0068456Y0242908D01*
X0068491Y0242937D01*
X0068528Y0242962D01*
X0068567Y0242983D01*
X0068608Y0243002D01*
X0068650Y0243017D01*
X0068694Y0243028D01*
X0068738Y0243036D01*
X0068783Y0243040D01*
X0068827Y0243040D01*
X0068872Y0243036D01*
X0068916Y0243028D01*
X0068960Y0243017D01*
X0069002Y0243002D01*
X0069043Y0242983D01*
X0069082Y0242962D01*
X0069119Y0242937D01*
X0069154Y0242908D01*
X0069186Y0242877D01*
X0069216Y0242844D01*
X0069242Y0242808D01*
X0069266Y0242770D01*
X0069286Y0242729D01*
X0069303Y0242688D01*
X0069316Y0242645D01*
X0069325Y0242601D01*
X0069331Y0242557D01*
X0069333Y0242512D01*
X0069649Y0244119D02*
X0068805Y0244119D01*
X0068760Y0244121D01*
X0068716Y0244127D01*
X0068672Y0244136D01*
X0068629Y0244149D01*
X0068588Y0244166D01*
X0068547Y0244186D01*
X0068509Y0244210D01*
X0068473Y0244236D01*
X0068440Y0244266D01*
X0068409Y0244298D01*
X0068380Y0244333D01*
X0068355Y0244370D01*
X0068334Y0244409D01*
X0068315Y0244450D01*
X0068300Y0244492D01*
X0068289Y0244536D01*
X0068281Y0244580D01*
X0068277Y0244625D01*
X0068277Y0244669D01*
X0068281Y0244714D01*
X0068289Y0244758D01*
X0068300Y0244802D01*
X0068315Y0244844D01*
X0068334Y0244885D01*
X0068355Y0244924D01*
X0068380Y0244961D01*
X0068409Y0244996D01*
X0068440Y0245028D01*
X0068473Y0245058D01*
X0068509Y0245084D01*
X0068547Y0245108D01*
X0068588Y0245128D01*
X0068629Y0245145D01*
X0068672Y0245158D01*
X0068716Y0245167D01*
X0068760Y0245173D01*
X0068805Y0245175D01*
X0068805Y0245174D02*
X0069649Y0245174D01*
X0069649Y0245175D02*
X0069694Y0245173D01*
X0069738Y0245167D01*
X0069782Y0245158D01*
X0069825Y0245145D01*
X0069866Y0245128D01*
X0069907Y0245108D01*
X0069945Y0245084D01*
X0069981Y0245058D01*
X0070014Y0245028D01*
X0070045Y0244996D01*
X0070074Y0244961D01*
X0070099Y0244924D01*
X0070120Y0244885D01*
X0070139Y0244844D01*
X0070154Y0244802D01*
X0070165Y0244758D01*
X0070173Y0244714D01*
X0070177Y0244669D01*
X0070177Y0244625D01*
X0070173Y0244580D01*
X0070165Y0244536D01*
X0070154Y0244492D01*
X0070139Y0244450D01*
X0070120Y0244409D01*
X0070099Y0244370D01*
X0070074Y0244333D01*
X0070045Y0244298D01*
X0070014Y0244266D01*
X0069981Y0244236D01*
X0069945Y0244210D01*
X0069907Y0244186D01*
X0069866Y0244166D01*
X0069825Y0244149D01*
X0069782Y0244136D01*
X0069738Y0244127D01*
X0069694Y0244121D01*
X0069649Y0244119D01*
X0070177Y0246351D02*
X0068277Y0246351D01*
X0070177Y0247406D01*
X0068277Y0247406D01*
X0068277Y0248439D02*
X0068277Y0249494D01*
X0068277Y0248967D02*
X0070177Y0248967D01*
D16*
X0117250Y0241250D03*
D17*
X0160929Y0099675D02*
X0160931Y0099722D01*
X0160937Y0099768D01*
X0160946Y0099814D01*
X0160960Y0099858D01*
X0160977Y0099902D01*
X0160998Y0099943D01*
X0161022Y0099983D01*
X0161049Y0100021D01*
X0161080Y0100056D01*
X0161113Y0100089D01*
X0161149Y0100119D01*
X0161188Y0100145D01*
X0161228Y0100169D01*
X0161270Y0100188D01*
X0161314Y0100205D01*
X0161359Y0100217D01*
X0161405Y0100226D01*
X0161451Y0100231D01*
X0161498Y0100232D01*
X0161544Y0100229D01*
X0161590Y0100222D01*
X0161636Y0100211D01*
X0161680Y0100197D01*
X0161723Y0100179D01*
X0161764Y0100157D01*
X0161804Y0100132D01*
X0161841Y0100104D01*
X0161876Y0100073D01*
X0161908Y0100039D01*
X0161937Y0100002D01*
X0161962Y0099964D01*
X0161985Y0099923D01*
X0162004Y0099880D01*
X0162019Y0099836D01*
X0162031Y0099791D01*
X0162039Y0099745D01*
X0162043Y0099698D01*
X0162043Y0099652D01*
X0162039Y0099605D01*
X0162031Y0099559D01*
X0162019Y0099514D01*
X0162004Y0099470D01*
X0161985Y0099427D01*
X0161962Y0099386D01*
X0161937Y0099348D01*
X0161908Y0099311D01*
X0161876Y0099277D01*
X0161841Y0099246D01*
X0161804Y0099218D01*
X0161765Y0099193D01*
X0161723Y0099171D01*
X0161680Y0099153D01*
X0161636Y0099139D01*
X0161590Y0099128D01*
X0161544Y0099121D01*
X0161498Y0099118D01*
X0161451Y0099119D01*
X0161405Y0099124D01*
X0161359Y0099133D01*
X0161314Y0099145D01*
X0161270Y0099162D01*
X0161228Y0099181D01*
X0161188Y0099205D01*
X0161149Y0099231D01*
X0161113Y0099261D01*
X0161080Y0099294D01*
X0161049Y0099329D01*
X0161022Y0099367D01*
X0160998Y0099407D01*
X0160977Y0099448D01*
X0160960Y0099492D01*
X0160946Y0099536D01*
X0160937Y0099582D01*
X0160931Y0099628D01*
X0160929Y0099675D01*
M02*
