%
M48
M72
T01C0.01181
T02C0.02000
T03C0.02756
T04C0.03150
T05C0.03200
T06C0.03543
T07C0.03937
T08C0.04000
T09C0.04331
T10C0.08661
T11C0.11024
T12C0.12598
%
T01
X11250Y76250
X41250Y82250
X63250Y66250
X62250Y50250
X59250Y40250
X62250Y27250
X59250Y18250
X65250Y16250
X52250Y24250
X73250Y39250
X87250Y73250
X87250Y79250
X75250Y86250
X106250Y87250
X116250Y77250
X108250Y50250
X106250Y40250
X111250Y35250
X118250Y33250
X123250Y22250
X119250Y19250
X131250Y13250
X146250Y23250
X146250Y27250
X102250Y18250
X116250Y111250
X113250Y118250
X109250Y122250
X109250Y150250
X109250Y160250
X112250Y187250
X106250Y194250
X89250Y192250
X75250Y213250
X65250Y224250
X69250Y232250
X89250Y222250
X72250Y187250
X60250Y175250
X50250Y143250
X11250Y120250
X89250Y166250
X123250Y196250
X135250Y216250
X149250Y219250
X110250Y263250
X135250Y146250
T02
X156250Y111250
X156250Y106250
X156250Y101250
X156250Y96250
X156250Y91250
X156250Y86250
X11250Y51250
X11250Y46250
X11250Y41250
X11250Y36250
X11250Y31250
T03
X68179Y28809
X68179Y36683
X68179Y20935
X68179Y52431
X68179Y60305
X162667Y127234
X162667Y135108
X162667Y150856
X162667Y158730
X162667Y166604
X99675Y229596
X99675Y237470
X99675Y245344
X99675Y253219
T04
X56368Y157982
X56368Y147982
X56368Y137982
X56368Y127982
X44557Y132982
X44557Y142982
X44557Y152982
X32746Y147982
X32746Y137982
X32746Y127982
X20935Y132982
X20935Y142982
X20935Y152982
X32746Y157982
T05
X96250Y161250
X96250Y171250
X96250Y181250
X96250Y191250
X96250Y201250
X96250Y211250
X116250Y226250
X126250Y226250
X136250Y226250
X146250Y226250
X156250Y226250
X166250Y226250
X176250Y226250
X176998Y213691
X176250Y201250
X166250Y201250
X166998Y213691
X156250Y201250
X156250Y181250
X166250Y181250
X176250Y181250
X126250Y181250
X126250Y191250
X126250Y201250
X126250Y211250
X126250Y171250
X126250Y161250
X126250Y151250
X126250Y141250
X126250Y131250
X126250Y121250
X126250Y111250
X126250Y101250
X126250Y91250
X126250Y81250
X126250Y66250
X126250Y56250
X126250Y46250
X126250Y36250
X131250Y26250
X141250Y26250
X156250Y31250
X166250Y31250
X176250Y31250
X176250Y51250
X166250Y51250
X156250Y51250
X96250Y46250
X96250Y56250
X96250Y66250
X96250Y81250
X96250Y91250
X96250Y101250
X96250Y111250
X96250Y121250
X96250Y131250
X96250Y141250
X96250Y151250
X116250Y256250
X126250Y256250
X136250Y256250
X146250Y256250
X156250Y256250
X166250Y256250
X176250Y256250
X96250Y36250
X91250Y26250
X81250Y26250
T06
X171250Y61250
X171250Y91250
T07
X141250Y36250
X81250Y36250
X81250Y216250
X141250Y216250
T08
X171250Y111250
X171250Y101250
T09
X141250Y96250
X141250Y86250
X141250Y76250
X141250Y66250
X141250Y56250
X141250Y46250
X141250Y106250
X141250Y116250
X141250Y126250
X141250Y136250
X141250Y146250
X141250Y156250
X141250Y166250
X141250Y176250
X141250Y186250
X141250Y196250
X141250Y206250
X81250Y206250
X81250Y196250
X81250Y186250
X81250Y176250
X81250Y166250
X81250Y156250
X81250Y146250
X81250Y136250
X81250Y126250
X81250Y116250
X81250Y106250
X81250Y96250
X81250Y86250
X81250Y76250
X81250Y66250
X81250Y56250
X81250Y46250
T10
X44557Y111604
X20935Y111604
X20935Y174360
X44557Y174360
T11
X32746Y200069
X32746Y85896
T12
X13061Y13061
X54006Y85896
X54006Y200069
X13061Y272904
X174478Y272904
X174478Y13061
M30
