G75*
%MOIN*%
%OFA0B0*%
%FSLAX25Y25*%
%IPPOS*%
%LPD*%
%AMOC8*
5,1,8,0,0,1.08239X$1,22.5*
%
%ADD10OC8,0.04800*%
%ADD11C,0.04800*%
%ADD12C,0.07400*%
%ADD13C,0.06299*%
%ADD14R,0.04724X0.04724*%
%ADD15C,0.04724*%
%ADD16OC8,0.12598*%
%ADD17OC8,0.05400*%
%ADD18C,0.07600*%
%ADD19C,0.06000*%
%ADD20C,0.01000*%
%ADD21C,0.02362*%
D10*
X0081500Y0111500D03*
X0081500Y0121500D03*
X0081500Y0141500D03*
X0081500Y0151500D03*
X0096500Y0191500D03*
X0096500Y0211500D03*
X0171500Y0206500D03*
X0171500Y0196500D03*
X0256500Y0191500D03*
X0256500Y0201500D03*
X0256500Y0211500D03*
X0276500Y0211500D03*
X0276500Y0201500D03*
X0276500Y0191500D03*
X0231500Y0086500D03*
X0231500Y0076500D03*
X0201500Y0051500D03*
X0181500Y0051500D03*
X0226500Y0041500D03*
X0226500Y0026500D03*
X0246500Y0026500D03*
X0246500Y0041500D03*
D11*
X0246500Y0061700D02*
X0246500Y0066500D01*
X0256500Y0066500D02*
X0256500Y0061700D01*
X0266500Y0061700D02*
X0266500Y0066500D01*
X0276500Y0066500D02*
X0276500Y0061700D01*
X0276500Y0096500D02*
X0276500Y0101300D01*
X0266500Y0101300D02*
X0266500Y0096500D01*
X0256500Y0096500D02*
X0256500Y0101300D01*
X0246500Y0101300D02*
X0246500Y0096500D01*
X0211500Y0094100D02*
X0211500Y0098900D01*
X0201500Y0098900D02*
X0201500Y0094100D01*
X0191500Y0094100D02*
X0191500Y0098900D01*
X0181500Y0098900D02*
X0181500Y0094100D01*
X0171500Y0094100D02*
X0171500Y0098900D01*
X0161500Y0098900D02*
X0161500Y0094100D01*
X0151500Y0094100D02*
X0151500Y0098900D01*
X0141500Y0098900D02*
X0141500Y0094100D01*
X0131500Y0094100D02*
X0131500Y0098900D01*
X0121500Y0098900D02*
X0121500Y0094100D01*
X0111500Y0094100D02*
X0111500Y0098900D01*
X0101500Y0098900D02*
X0101500Y0094100D01*
X0091500Y0094100D02*
X0091500Y0098900D01*
X0081500Y0098900D02*
X0081500Y0094100D01*
X0081500Y0068900D02*
X0081500Y0064100D01*
X0091500Y0064100D02*
X0091500Y0068900D01*
X0101500Y0068900D02*
X0101500Y0064100D01*
X0111500Y0064100D02*
X0111500Y0068900D01*
X0121500Y0068900D02*
X0121500Y0064100D01*
X0131500Y0064100D02*
X0131500Y0068900D01*
X0141500Y0068900D02*
X0141500Y0064100D01*
X0151500Y0064100D02*
X0151500Y0068900D01*
X0161500Y0068900D02*
X0161500Y0064100D01*
X0171500Y0064100D02*
X0171500Y0068900D01*
X0181500Y0068900D02*
X0181500Y0064100D01*
X0191500Y0064100D02*
X0191500Y0068900D01*
X0201500Y0068900D02*
X0201500Y0064100D01*
X0211500Y0064100D02*
X0211500Y0068900D01*
X0181500Y0129100D02*
X0181500Y0133900D01*
X0171500Y0133900D02*
X0171500Y0129100D01*
X0161500Y0129100D02*
X0161500Y0133900D01*
X0151500Y0133900D02*
X0151500Y0129100D01*
X0141500Y0129100D02*
X0141500Y0133900D01*
X0131500Y0133900D02*
X0131500Y0129100D01*
X0121500Y0129100D02*
X0121500Y0133900D01*
X0111500Y0133900D02*
X0111500Y0129100D01*
X0111500Y0159100D02*
X0111500Y0163900D01*
X0121500Y0163900D02*
X0121500Y0159100D01*
X0131500Y0159100D02*
X0131500Y0163900D01*
X0141500Y0163900D02*
X0141500Y0159100D01*
X0151500Y0159100D02*
X0151500Y0163900D01*
X0161500Y0163900D02*
X0161500Y0159100D01*
X0171500Y0159100D02*
X0171500Y0163900D01*
X0181500Y0163900D02*
X0181500Y0159100D01*
X0181500Y0184100D02*
X0181500Y0188900D01*
X0191500Y0188900D02*
X0191500Y0184100D01*
X0201500Y0184100D02*
X0201500Y0188900D01*
X0211500Y0188900D02*
X0211500Y0184100D01*
X0221500Y0184100D02*
X0221500Y0188900D01*
X0231500Y0188900D02*
X0231500Y0184100D01*
X0241500Y0184100D02*
X0241500Y0188900D01*
X0241500Y0214100D02*
X0241500Y0218900D01*
X0231500Y0218900D02*
X0231500Y0214100D01*
X0221500Y0214100D02*
X0221500Y0218900D01*
X0211500Y0218900D02*
X0211500Y0214100D01*
X0201500Y0214100D02*
X0201500Y0218900D01*
X0191500Y0218900D02*
X0191500Y0214100D01*
X0181500Y0214100D02*
X0181500Y0218900D01*
X0156500Y0213900D02*
X0156500Y0209100D01*
X0156500Y0193900D02*
X0156500Y0189100D01*
X0126500Y0189100D02*
X0126500Y0193900D01*
X0116500Y0193900D02*
X0116500Y0189100D01*
X0116500Y0209100D02*
X0116500Y0213900D01*
X0126500Y0213900D02*
X0126500Y0209100D01*
X0083900Y0211500D02*
X0079100Y0211500D01*
X0079100Y0201500D02*
X0083900Y0201500D01*
X0083900Y0191500D02*
X0079100Y0191500D01*
D12*
X0106500Y0186500D03*
X0106500Y0216500D03*
X0216500Y0051500D03*
X0246500Y0051500D03*
D13*
X0261343Y0044807D03*
X0261343Y0036933D03*
X0206224Y0035161D03*
X0198350Y0035161D03*
X0190476Y0035161D03*
X0194413Y0233783D03*
X0202287Y0233783D03*
X0210161Y0233783D03*
X0218035Y0233783D03*
X0233783Y0233783D03*
X0241657Y0233783D03*
X0261343Y0233783D03*
X0261343Y0241657D03*
X0261343Y0249531D03*
X0158980Y0233783D03*
X0151106Y0233783D03*
X0135358Y0233783D03*
X0127484Y0233783D03*
X0119610Y0233783D03*
X0111736Y0233783D03*
X0095988Y0233783D03*
X0088114Y0233783D03*
D14*
X0056618Y0128232D03*
D15*
X0056618Y0138232D03*
X0056618Y0148232D03*
X0056618Y0158232D03*
X0044807Y0153232D03*
X0044807Y0143232D03*
X0044807Y0133232D03*
X0032996Y0128232D03*
X0032996Y0138232D03*
X0032996Y0148232D03*
X0032996Y0158232D03*
X0021185Y0153232D03*
X0021185Y0143232D03*
X0021185Y0133232D03*
D16*
X0021185Y0111854D03*
X0044807Y0111854D03*
X0044807Y0174610D03*
X0021185Y0174610D03*
D17*
X0059020Y0049807D03*
X0069020Y0049807D03*
X0079020Y0049807D03*
X0089020Y0049807D03*
X0099020Y0049807D03*
X0109020Y0049807D03*
X0119020Y0049807D03*
X0129020Y0049807D03*
X0129020Y0039807D03*
X0119020Y0039807D03*
X0109020Y0039807D03*
X0099020Y0039807D03*
X0089020Y0039807D03*
X0079020Y0039807D03*
X0069020Y0039807D03*
X0059020Y0039807D03*
D18*
X0106500Y0116500D03*
X0116500Y0116500D03*
X0126500Y0116500D03*
X0136500Y0116500D03*
X0146500Y0116500D03*
X0156500Y0116500D03*
X0166500Y0116500D03*
X0176500Y0116500D03*
X0186500Y0116500D03*
X0196500Y0116500D03*
X0206500Y0116500D03*
X0216500Y0116500D03*
X0226500Y0116500D03*
X0236500Y0116500D03*
X0246500Y0116500D03*
X0256500Y0116500D03*
X0266500Y0116500D03*
X0266500Y0176500D03*
X0256500Y0176500D03*
X0246500Y0176500D03*
X0236500Y0176500D03*
X0226500Y0176500D03*
X0216500Y0176500D03*
X0206500Y0176500D03*
X0196500Y0176500D03*
X0186500Y0176500D03*
X0176500Y0176500D03*
X0166500Y0176500D03*
X0156500Y0176500D03*
X0146500Y0176500D03*
X0136500Y0176500D03*
X0126500Y0176500D03*
X0116500Y0176500D03*
X0106500Y0176500D03*
D19*
X0061500Y0248500D02*
X0061500Y0254500D01*
X0051500Y0254500D02*
X0051500Y0248500D01*
X0041500Y0248500D02*
X0041500Y0254500D01*
X0031500Y0254500D02*
X0031500Y0248500D01*
D20*
X0003968Y0282496D02*
X0003968Y0003968D01*
X0282496Y0003968D01*
X0282496Y0282496D01*
X0003968Y0282496D01*
X0003968Y0282082D02*
X0282496Y0282082D01*
X0282496Y0281083D02*
X0276921Y0281083D01*
X0278120Y0280586D02*
X0274898Y0281921D01*
X0271410Y0281921D01*
X0268187Y0280586D01*
X0265721Y0278120D01*
X0264386Y0274898D01*
X0264386Y0271410D01*
X0265721Y0268187D01*
X0268187Y0265721D01*
X0271410Y0264386D01*
X0274898Y0264386D01*
X0278120Y0265721D01*
X0280586Y0268187D01*
X0281921Y0271410D01*
X0281921Y0274898D01*
X0280586Y0278120D01*
X0278120Y0280586D01*
X0278622Y0280085D02*
X0282496Y0280085D01*
X0282496Y0279086D02*
X0279620Y0279086D01*
X0280600Y0278088D02*
X0282496Y0278088D01*
X0282496Y0277089D02*
X0281013Y0277089D01*
X0281427Y0276091D02*
X0282496Y0276091D01*
X0282496Y0275092D02*
X0281841Y0275092D01*
X0281921Y0274094D02*
X0282496Y0274094D01*
X0282496Y0273095D02*
X0281921Y0273095D01*
X0281921Y0272097D02*
X0282496Y0272097D01*
X0282496Y0271098D02*
X0281792Y0271098D01*
X0281379Y0270100D02*
X0282496Y0270100D01*
X0282496Y0269101D02*
X0280965Y0269101D01*
X0280502Y0268103D02*
X0282496Y0268103D01*
X0282496Y0267104D02*
X0279503Y0267104D01*
X0278505Y0266105D02*
X0282496Y0266105D01*
X0282496Y0265107D02*
X0276639Y0265107D01*
X0282496Y0264108D02*
X0003968Y0264108D01*
X0003968Y0263110D02*
X0282496Y0263110D01*
X0282496Y0262111D02*
X0003968Y0262111D01*
X0003968Y0261113D02*
X0282496Y0261113D01*
X0282496Y0260114D02*
X0003968Y0260114D01*
X0003968Y0259116D02*
X0282496Y0259116D01*
X0282496Y0258117D02*
X0064247Y0258117D01*
X0064049Y0258315D02*
X0062395Y0259000D01*
X0060605Y0259000D01*
X0058951Y0258315D01*
X0057685Y0257049D01*
X0057000Y0255395D01*
X0057000Y0247605D01*
X0057685Y0245951D01*
X0058951Y0244685D01*
X0060605Y0244000D01*
X0062395Y0244000D01*
X0064049Y0244685D01*
X0065315Y0245951D01*
X0066000Y0247605D01*
X0066000Y0255395D01*
X0065315Y0257049D01*
X0064049Y0258315D01*
X0065245Y0257119D02*
X0282496Y0257119D01*
X0282496Y0256120D02*
X0065700Y0256120D01*
X0066000Y0255122D02*
X0282496Y0255122D01*
X0282496Y0254123D02*
X0262407Y0254123D01*
X0262267Y0254181D02*
X0260418Y0254181D01*
X0258709Y0253473D01*
X0257401Y0252165D01*
X0256693Y0250456D01*
X0256693Y0248607D01*
X0257401Y0246898D01*
X0258709Y0245590D01*
X0258795Y0245554D01*
X0258313Y0245204D01*
X0257796Y0244686D01*
X0257366Y0244094D01*
X0257034Y0243442D01*
X0256807Y0242746D01*
X0256693Y0242023D01*
X0256693Y0241846D01*
X0261153Y0241846D01*
X0261153Y0241468D01*
X0256693Y0241468D01*
X0256693Y0241292D01*
X0256807Y0240569D01*
X0257034Y0239873D01*
X0257366Y0239221D01*
X0257796Y0238628D01*
X0258313Y0238111D01*
X0258795Y0237761D01*
X0258709Y0237725D01*
X0257401Y0236417D01*
X0256693Y0234708D01*
X0256693Y0232859D01*
X0257401Y0231150D01*
X0258709Y0229842D01*
X0260418Y0229134D01*
X0262267Y0229134D01*
X0263976Y0229842D01*
X0265284Y0231150D01*
X0265992Y0232859D01*
X0265992Y0234708D01*
X0265284Y0236417D01*
X0263976Y0237725D01*
X0263890Y0237761D01*
X0264372Y0238111D01*
X0264889Y0238628D01*
X0265319Y0239221D01*
X0265651Y0239873D01*
X0265878Y0240569D01*
X0265992Y0241292D01*
X0265992Y0241468D01*
X0261532Y0241468D01*
X0261532Y0241846D01*
X0265992Y0241846D01*
X0265992Y0242023D01*
X0265878Y0242746D01*
X0265651Y0243442D01*
X0265319Y0244094D01*
X0264889Y0244686D01*
X0264372Y0245204D01*
X0263890Y0245554D01*
X0263976Y0245590D01*
X0265284Y0246898D01*
X0265992Y0248607D01*
X0265992Y0250456D01*
X0265284Y0252165D01*
X0263976Y0253473D01*
X0262267Y0254181D01*
X0260278Y0254123D02*
X0066000Y0254123D01*
X0066000Y0253125D02*
X0258360Y0253125D01*
X0257385Y0252126D02*
X0066000Y0252126D01*
X0066000Y0251128D02*
X0256971Y0251128D01*
X0256693Y0250129D02*
X0066000Y0250129D01*
X0066000Y0249131D02*
X0256693Y0249131D01*
X0256889Y0248132D02*
X0066000Y0248132D01*
X0065805Y0247134D02*
X0257303Y0247134D01*
X0258163Y0246135D02*
X0065391Y0246135D01*
X0064501Y0245137D02*
X0258246Y0245137D01*
X0257398Y0244138D02*
X0062729Y0244138D01*
X0060271Y0244138D02*
X0052729Y0244138D01*
X0052395Y0244000D02*
X0054049Y0244685D01*
X0055315Y0245951D01*
X0056000Y0247605D01*
X0056000Y0255395D01*
X0055315Y0257049D01*
X0054049Y0258315D01*
X0052395Y0259000D01*
X0050605Y0259000D01*
X0048951Y0258315D01*
X0047685Y0257049D01*
X0047000Y0255395D01*
X0047000Y0247605D01*
X0047685Y0245951D01*
X0048951Y0244685D01*
X0050605Y0244000D01*
X0052395Y0244000D01*
X0050271Y0244138D02*
X0042638Y0244138D01*
X0042554Y0244111D02*
X0043227Y0244330D01*
X0043859Y0244651D01*
X0044432Y0245068D01*
X0044932Y0245568D01*
X0045349Y0246141D01*
X0045670Y0246773D01*
X0045889Y0247446D01*
X0046000Y0248146D01*
X0046000Y0251000D01*
X0042000Y0251000D01*
X0042000Y0252000D01*
X0046000Y0252000D01*
X0046000Y0254854D01*
X0045889Y0255554D01*
X0045670Y0256227D01*
X0045349Y0256859D01*
X0044932Y0257432D01*
X0044432Y0257932D01*
X0043859Y0258349D01*
X0043227Y0258670D01*
X0042554Y0258889D01*
X0042000Y0258977D01*
X0042000Y0252000D01*
X0041000Y0252000D01*
X0041000Y0258977D01*
X0040446Y0258889D01*
X0039773Y0258670D01*
X0039141Y0258349D01*
X0038568Y0257932D01*
X0038068Y0257432D01*
X0037651Y0256859D01*
X0037330Y0256227D01*
X0037111Y0255554D01*
X0037000Y0254854D01*
X0037000Y0252000D01*
X0041000Y0252000D01*
X0041000Y0251000D01*
X0042000Y0251000D01*
X0042000Y0244023D01*
X0042554Y0244111D01*
X0042000Y0244138D02*
X0041000Y0244138D01*
X0041000Y0244023D02*
X0041000Y0251000D01*
X0037000Y0251000D01*
X0037000Y0248146D01*
X0037111Y0247446D01*
X0037330Y0246773D01*
X0037651Y0246141D01*
X0038068Y0245568D01*
X0038568Y0245068D01*
X0039141Y0244651D01*
X0039773Y0244330D01*
X0040446Y0244111D01*
X0041000Y0244023D01*
X0040362Y0244138D02*
X0033500Y0244138D01*
X0033500Y0244458D02*
X0034049Y0244685D01*
X0035315Y0245951D01*
X0036000Y0247605D01*
X0036000Y0255395D01*
X0035315Y0257049D01*
X0034049Y0258315D01*
X0032395Y0259000D01*
X0030605Y0259000D01*
X0028951Y0258315D01*
X0027685Y0257049D01*
X0027000Y0255395D01*
X0027000Y0247605D01*
X0027685Y0245951D01*
X0028951Y0244685D01*
X0029500Y0244458D01*
X0029500Y0234672D01*
X0055085Y0209087D01*
X0052512Y0209087D01*
X0049289Y0207752D01*
X0046823Y0205285D01*
X0045488Y0202063D01*
X0045488Y0198575D01*
X0046823Y0195352D01*
X0049289Y0192886D01*
X0052512Y0191551D01*
X0056000Y0191551D01*
X0059222Y0192886D01*
X0061689Y0195352D01*
X0063024Y0198575D01*
X0063024Y0201148D01*
X0068500Y0195672D01*
X0068500Y0155672D01*
X0071500Y0152672D01*
X0071500Y0118672D01*
X0077600Y0112572D01*
X0077600Y0109885D01*
X0079885Y0107600D01*
X0083115Y0107600D01*
X0085400Y0109885D01*
X0085400Y0113115D01*
X0083115Y0115400D01*
X0080428Y0115400D01*
X0075500Y0120328D01*
X0075500Y0138672D01*
X0078672Y0135500D01*
X0084328Y0135500D01*
X0085500Y0136672D01*
X0086328Y0137500D01*
X0092012Y0137500D01*
X0091819Y0137033D01*
X0091819Y0135967D01*
X0092227Y0134981D01*
X0092981Y0134227D01*
X0093967Y0133819D01*
X0094353Y0133819D01*
X0106372Y0121800D01*
X0105446Y0121800D01*
X0103498Y0120993D01*
X0102007Y0119502D01*
X0101200Y0117554D01*
X0101200Y0115446D01*
X0102007Y0113498D01*
X0103498Y0112007D01*
X0105446Y0111200D01*
X0107554Y0111200D01*
X0109502Y0112007D01*
X0110993Y0113498D01*
X0111500Y0114722D01*
X0112007Y0113498D01*
X0113498Y0112007D01*
X0115446Y0111200D01*
X0117554Y0111200D01*
X0119502Y0112007D01*
X0120993Y0113498D01*
X0121500Y0114722D01*
X0122007Y0113498D01*
X0123498Y0112007D01*
X0125446Y0111200D01*
X0126372Y0111200D01*
X0120672Y0105500D01*
X0119672Y0105500D01*
X0116672Y0102500D01*
X0115500Y0101328D01*
X0115500Y0091672D01*
X0117672Y0089500D01*
X0102328Y0089500D01*
X0101628Y0090200D01*
X0102276Y0090200D01*
X0103709Y0090794D01*
X0104806Y0091891D01*
X0105400Y0093324D01*
X0105400Y0099676D01*
X0104806Y0101109D01*
X0103709Y0102206D01*
X0102276Y0102800D01*
X0100724Y0102800D01*
X0099291Y0102206D01*
X0098194Y0101109D01*
X0097600Y0099676D01*
X0097600Y0094228D01*
X0095400Y0096428D01*
X0095400Y0099676D01*
X0094806Y0101109D01*
X0093709Y0102206D01*
X0092276Y0102800D01*
X0090724Y0102800D01*
X0089291Y0102206D01*
X0088194Y0101109D01*
X0087600Y0099676D01*
X0087600Y0093324D01*
X0087668Y0093161D01*
X0085400Y0095428D01*
X0085400Y0099676D01*
X0084806Y0101109D01*
X0083709Y0102206D01*
X0082276Y0102800D01*
X0080724Y0102800D01*
X0079291Y0102206D01*
X0078194Y0101109D01*
X0077600Y0099676D01*
X0077600Y0093324D01*
X0078194Y0091891D01*
X0079291Y0090794D01*
X0080724Y0090200D01*
X0082276Y0090200D01*
X0083709Y0090794D01*
X0084044Y0091128D01*
X0087672Y0087500D01*
X0095672Y0087500D01*
X0107276Y0075895D01*
X0106981Y0075773D01*
X0106708Y0075500D01*
X0096672Y0075500D01*
X0095500Y0074328D01*
X0071500Y0098328D01*
X0071500Y0152328D01*
X0070328Y0153500D01*
X0059328Y0164500D01*
X0046672Y0164500D01*
X0045500Y0163328D01*
X0034119Y0151948D01*
X0033764Y0152094D01*
X0032228Y0152094D01*
X0030808Y0151506D01*
X0029722Y0150420D01*
X0029134Y0149001D01*
X0029134Y0147464D01*
X0029722Y0146045D01*
X0030808Y0144958D01*
X0032228Y0144370D01*
X0033764Y0144370D01*
X0035184Y0144958D01*
X0036270Y0146045D01*
X0036858Y0147464D01*
X0036858Y0149001D01*
X0036850Y0149021D01*
X0040945Y0153116D01*
X0040945Y0152464D01*
X0041533Y0151045D01*
X0042619Y0149958D01*
X0043500Y0149593D01*
X0043500Y0147672D01*
X0044077Y0147094D01*
X0044039Y0147094D01*
X0042619Y0146506D01*
X0041533Y0145420D01*
X0040945Y0144001D01*
X0040945Y0142464D01*
X0041533Y0141045D01*
X0042619Y0139958D01*
X0044039Y0139370D01*
X0045575Y0139370D01*
X0046995Y0139958D01*
X0048081Y0141045D01*
X0048669Y0142464D01*
X0048669Y0142502D01*
X0050500Y0140672D01*
X0050500Y0117191D01*
X0048038Y0119654D01*
X0045307Y0119654D01*
X0045307Y0112354D01*
X0052606Y0112354D01*
X0052606Y0112565D01*
X0061500Y0103672D01*
X0061500Y0094328D01*
X0058328Y0097500D01*
X0056672Y0097500D01*
X0050328Y0097500D01*
X0043773Y0104055D01*
X0044307Y0104055D01*
X0044307Y0111354D01*
X0045307Y0111354D01*
X0045307Y0104055D01*
X0048038Y0104055D01*
X0052606Y0108624D01*
X0052606Y0111354D01*
X0045307Y0111354D01*
X0045307Y0112354D01*
X0044307Y0112354D01*
X0044307Y0111354D01*
X0037008Y0111354D01*
X0037008Y0110821D01*
X0035500Y0112328D01*
X0035500Y0125274D01*
X0036270Y0126045D01*
X0036858Y0127464D01*
X0036858Y0129001D01*
X0036270Y0130420D01*
X0035184Y0131506D01*
X0033764Y0132094D01*
X0032228Y0132094D01*
X0030808Y0131506D01*
X0030500Y0131198D01*
X0030500Y0132328D01*
X0029328Y0133500D01*
X0023500Y0139328D01*
X0023500Y0140085D01*
X0024459Y0141045D01*
X0025047Y0142464D01*
X0025047Y0143124D01*
X0029145Y0139027D01*
X0029134Y0139001D01*
X0029134Y0137464D01*
X0029722Y0136045D01*
X0030808Y0134958D01*
X0032228Y0134370D01*
X0033764Y0134370D01*
X0035184Y0134958D01*
X0036270Y0136045D01*
X0036858Y0137464D01*
X0036858Y0139001D01*
X0036270Y0140420D01*
X0035184Y0141506D01*
X0033764Y0142094D01*
X0032228Y0142094D01*
X0031879Y0141950D01*
X0025500Y0148328D01*
X0024328Y0149500D01*
X0022267Y0149500D01*
X0023373Y0149958D01*
X0024459Y0151045D01*
X0025047Y0152464D01*
X0025047Y0154001D01*
X0024459Y0155420D01*
X0023373Y0156506D01*
X0021953Y0157094D01*
X0020417Y0157094D01*
X0018997Y0156506D01*
X0017911Y0155420D01*
X0017323Y0154001D01*
X0017323Y0152464D01*
X0017911Y0151045D01*
X0018997Y0149958D01*
X0020103Y0149500D01*
X0018672Y0149500D01*
X0009672Y0140500D01*
X0008500Y0139328D01*
X0008500Y0077672D01*
X0056500Y0029672D01*
X0057672Y0028500D01*
X0083708Y0028500D01*
X0083227Y0028019D01*
X0082819Y0027033D01*
X0082819Y0025967D01*
X0083227Y0024981D01*
X0083981Y0024227D01*
X0084967Y0023819D01*
X0085353Y0023819D01*
X0085672Y0023500D01*
X0142328Y0023500D01*
X0143500Y0024672D01*
X0179500Y0060672D01*
X0179500Y0060707D01*
X0180724Y0060200D01*
X0182276Y0060200D01*
X0183500Y0060707D01*
X0183500Y0055015D01*
X0183115Y0055400D01*
X0179885Y0055400D01*
X0177600Y0053115D01*
X0177600Y0049885D01*
X0179885Y0047600D01*
X0183115Y0047600D01*
X0183500Y0047985D01*
X0183500Y0032672D01*
X0190500Y0025672D01*
X0191672Y0024500D01*
X0222985Y0024500D01*
X0224885Y0022600D01*
X0228115Y0022600D01*
X0230400Y0024885D01*
X0230400Y0025772D01*
X0231672Y0024500D01*
X0242985Y0024500D01*
X0244885Y0022600D01*
X0248115Y0022600D01*
X0250400Y0024885D01*
X0250400Y0028115D01*
X0248115Y0030400D01*
X0244885Y0030400D01*
X0242985Y0028500D01*
X0233328Y0028500D01*
X0226500Y0035328D01*
X0225328Y0036500D01*
X0210703Y0036500D01*
X0210166Y0037795D01*
X0208858Y0039103D01*
X0207149Y0039811D01*
X0205300Y0039811D01*
X0203591Y0039103D01*
X0202287Y0037800D01*
X0200984Y0039103D01*
X0199275Y0039811D01*
X0197426Y0039811D01*
X0195717Y0039103D01*
X0194409Y0037795D01*
X0194373Y0037709D01*
X0194023Y0038190D01*
X0193505Y0038708D01*
X0192913Y0039138D01*
X0192261Y0039470D01*
X0191565Y0039697D01*
X0190842Y0039811D01*
X0190665Y0039811D01*
X0190665Y0035350D01*
X0190287Y0035350D01*
X0190287Y0039811D01*
X0190110Y0039811D01*
X0189388Y0039697D01*
X0188692Y0039470D01*
X0188039Y0039138D01*
X0187500Y0038746D01*
X0187500Y0071328D01*
X0186328Y0072500D01*
X0165400Y0093428D01*
X0165400Y0099676D01*
X0164806Y0101109D01*
X0163709Y0102206D01*
X0162276Y0102800D01*
X0160724Y0102800D01*
X0159291Y0102206D01*
X0158194Y0101109D01*
X0157600Y0099676D01*
X0157600Y0093324D01*
X0158194Y0091891D01*
X0159291Y0090794D01*
X0160724Y0090200D01*
X0162276Y0090200D01*
X0162768Y0090404D01*
X0180475Y0072697D01*
X0179291Y0072206D01*
X0178194Y0071109D01*
X0177600Y0069676D01*
X0177600Y0065428D01*
X0177500Y0065328D01*
X0177500Y0071328D01*
X0176328Y0072500D01*
X0173328Y0075500D01*
X0149672Y0075500D01*
X0148500Y0074328D01*
X0144945Y0070774D01*
X0144806Y0071109D01*
X0143709Y0072206D01*
X0142276Y0072800D01*
X0140724Y0072800D01*
X0139291Y0072206D01*
X0138194Y0071109D01*
X0137600Y0069676D01*
X0137600Y0063324D01*
X0138194Y0061891D01*
X0139291Y0060794D01*
X0140724Y0060200D01*
X0142276Y0060200D01*
X0142439Y0060268D01*
X0138353Y0056181D01*
X0137967Y0056181D01*
X0137500Y0055988D01*
X0137500Y0063328D01*
X0136328Y0064500D01*
X0135400Y0065428D01*
X0135400Y0069676D01*
X0134806Y0071109D01*
X0133709Y0072206D01*
X0132276Y0072800D01*
X0130724Y0072800D01*
X0129291Y0072206D01*
X0128194Y0071109D01*
X0127600Y0069676D01*
X0127600Y0063324D01*
X0128194Y0061891D01*
X0129291Y0060794D01*
X0130724Y0060200D01*
X0132276Y0060200D01*
X0133500Y0060707D01*
X0133500Y0054328D01*
X0125138Y0062691D01*
X0125400Y0063324D01*
X0125400Y0069676D01*
X0124806Y0071109D01*
X0123709Y0072206D01*
X0122276Y0072800D01*
X0120724Y0072800D01*
X0119291Y0072206D01*
X0118194Y0071109D01*
X0117600Y0069676D01*
X0117600Y0064228D01*
X0117500Y0064328D01*
X0117500Y0071328D01*
X0103328Y0085500D01*
X0141328Y0085500D01*
X0142500Y0086672D01*
X0148055Y0092226D01*
X0148194Y0091891D01*
X0149291Y0090794D01*
X0150724Y0090200D01*
X0152276Y0090200D01*
X0153709Y0090794D01*
X0154806Y0091891D01*
X0155400Y0093324D01*
X0155400Y0099676D01*
X0154806Y0101109D01*
X0153709Y0102206D01*
X0152276Y0102800D01*
X0150724Y0102800D01*
X0149291Y0102206D01*
X0148194Y0101109D01*
X0147600Y0099676D01*
X0147600Y0097428D01*
X0145400Y0095228D01*
X0145400Y0096200D01*
X0141800Y0096200D01*
X0141800Y0096800D01*
X0145400Y0096800D01*
X0145400Y0099284D01*
X0145250Y0100038D01*
X0144956Y0100747D01*
X0144529Y0101386D01*
X0143986Y0101929D01*
X0143347Y0102356D01*
X0142638Y0102650D01*
X0142505Y0102677D01*
X0143328Y0103500D01*
X0243190Y0103500D01*
X0242600Y0102076D01*
X0242600Y0095724D01*
X0243194Y0094291D01*
X0244291Y0093194D01*
X0245724Y0092600D01*
X0247276Y0092600D01*
X0248709Y0093194D01*
X0249806Y0094291D01*
X0250400Y0095724D01*
X0250400Y0102076D01*
X0249810Y0103500D01*
X0253190Y0103500D01*
X0252600Y0102076D01*
X0252600Y0095724D01*
X0253194Y0094291D01*
X0254291Y0093194D01*
X0255724Y0092600D01*
X0257276Y0092600D01*
X0258709Y0093194D01*
X0259806Y0094291D01*
X0260400Y0095724D01*
X0260400Y0100772D01*
X0262600Y0098572D01*
X0262600Y0095724D01*
X0263194Y0094291D01*
X0264291Y0093194D01*
X0265724Y0092600D01*
X0267276Y0092600D01*
X0268709Y0093194D01*
X0269806Y0094291D01*
X0270400Y0095724D01*
X0270400Y0098572D01*
X0272600Y0100772D01*
X0272600Y0095724D01*
X0273194Y0094291D01*
X0274291Y0093194D01*
X0275724Y0092600D01*
X0277276Y0092600D01*
X0278709Y0093194D01*
X0279806Y0094291D01*
X0280400Y0095724D01*
X0280400Y0102076D01*
X0279806Y0103509D01*
X0278709Y0104606D01*
X0277276Y0105200D01*
X0277028Y0105200D01*
X0280500Y0108672D01*
X0280500Y0180328D01*
X0279328Y0181500D01*
X0276328Y0184500D01*
X0257328Y0184500D01*
X0256328Y0185500D01*
X0268708Y0185500D01*
X0268981Y0185227D01*
X0269967Y0184819D01*
X0271033Y0184819D01*
X0272019Y0185227D01*
X0272773Y0185981D01*
X0273181Y0186967D01*
X0273181Y0188033D01*
X0272773Y0189019D01*
X0272019Y0189773D01*
X0271033Y0190181D01*
X0269967Y0190181D01*
X0268981Y0189773D01*
X0268708Y0189500D01*
X0260015Y0189500D01*
X0260400Y0189885D01*
X0260400Y0193115D01*
X0258115Y0195400D01*
X0254885Y0195400D01*
X0252600Y0193115D01*
X0252600Y0192228D01*
X0234500Y0210328D01*
X0233849Y0210979D01*
X0233986Y0211071D01*
X0234529Y0211614D01*
X0234956Y0212253D01*
X0235250Y0212962D01*
X0235400Y0213716D01*
X0235400Y0216200D01*
X0231800Y0216200D01*
X0231800Y0216800D01*
X0231200Y0216800D01*
X0231200Y0222800D01*
X0231116Y0222800D01*
X0230362Y0222650D01*
X0229653Y0222356D01*
X0229014Y0221929D01*
X0228471Y0221386D01*
X0228044Y0220747D01*
X0227750Y0220038D01*
X0227600Y0219284D01*
X0227600Y0216800D01*
X0231200Y0216800D01*
X0231200Y0216200D01*
X0227600Y0216200D01*
X0227600Y0213716D01*
X0227750Y0212962D01*
X0228044Y0212253D01*
X0228471Y0211614D01*
X0228585Y0211500D01*
X0224415Y0211500D01*
X0224806Y0211891D01*
X0225400Y0213324D01*
X0225400Y0219676D01*
X0224806Y0221109D01*
X0223709Y0222206D01*
X0222276Y0222800D01*
X0220724Y0222800D01*
X0219291Y0222206D01*
X0218194Y0221109D01*
X0217600Y0219676D01*
X0217600Y0213324D01*
X0218194Y0211891D01*
X0218585Y0211500D01*
X0214415Y0211500D01*
X0214529Y0211614D01*
X0214956Y0212253D01*
X0215250Y0212962D01*
X0215400Y0213716D01*
X0215400Y0216200D01*
X0211800Y0216200D01*
X0211800Y0216800D01*
X0211200Y0216800D01*
X0211200Y0222800D01*
X0211116Y0222800D01*
X0210362Y0222650D01*
X0209653Y0222356D01*
X0209014Y0221929D01*
X0208471Y0221386D01*
X0208044Y0220747D01*
X0207750Y0220038D01*
X0207600Y0219284D01*
X0207600Y0216800D01*
X0211200Y0216800D01*
X0211200Y0216200D01*
X0207600Y0216200D01*
X0207600Y0215228D01*
X0207500Y0215328D01*
X0207500Y0223328D01*
X0201695Y0229134D01*
X0203212Y0229134D01*
X0204921Y0229842D01*
X0206224Y0231145D01*
X0207528Y0229842D01*
X0209237Y0229134D01*
X0211086Y0229134D01*
X0212795Y0229842D01*
X0214098Y0231145D01*
X0215402Y0229842D01*
X0217111Y0229134D01*
X0218960Y0229134D01*
X0220669Y0229842D01*
X0221977Y0231150D01*
X0222685Y0232859D01*
X0222685Y0234708D01*
X0221977Y0236417D01*
X0220669Y0237725D01*
X0218960Y0238433D01*
X0217111Y0238433D01*
X0215402Y0237725D01*
X0214098Y0236422D01*
X0212795Y0237725D01*
X0211086Y0238433D01*
X0209237Y0238433D01*
X0207528Y0237725D01*
X0206224Y0236422D01*
X0204921Y0237725D01*
X0203212Y0238433D01*
X0201363Y0238433D01*
X0199654Y0237725D01*
X0198350Y0236422D01*
X0197047Y0237725D01*
X0195338Y0238433D01*
X0193489Y0238433D01*
X0191780Y0237725D01*
X0190472Y0236417D01*
X0189764Y0234708D01*
X0189764Y0232859D01*
X0190472Y0231150D01*
X0191780Y0229842D01*
X0193489Y0229134D01*
X0195338Y0229134D01*
X0195833Y0229339D01*
X0202439Y0222732D01*
X0202276Y0222800D01*
X0200724Y0222800D01*
X0199291Y0222206D01*
X0198194Y0221109D01*
X0197600Y0219676D01*
X0197600Y0213324D01*
X0198194Y0211891D01*
X0199291Y0210794D01*
X0200724Y0210200D01*
X0202276Y0210200D01*
X0203709Y0210794D01*
X0204806Y0211891D01*
X0204945Y0212226D01*
X0209672Y0207500D01*
X0231672Y0207500D01*
X0241672Y0197500D01*
X0200292Y0197500D01*
X0200019Y0197773D01*
X0199033Y0198181D01*
X0197967Y0198181D01*
X0196981Y0197773D01*
X0196227Y0197019D01*
X0195819Y0196033D01*
X0195819Y0194967D01*
X0196227Y0193981D01*
X0196981Y0193227D01*
X0197967Y0192819D01*
X0199033Y0192819D01*
X0200019Y0193227D01*
X0200292Y0193500D01*
X0242672Y0193500D01*
X0254500Y0181672D01*
X0254686Y0181485D01*
X0253498Y0180993D01*
X0252007Y0179502D01*
X0251500Y0178278D01*
X0250993Y0179502D01*
X0249502Y0180993D01*
X0247554Y0181800D01*
X0245446Y0181800D01*
X0244199Y0181284D01*
X0244529Y0181614D01*
X0244956Y0182253D01*
X0245250Y0182962D01*
X0245400Y0183716D01*
X0245400Y0186200D01*
X0241800Y0186200D01*
X0241800Y0186800D01*
X0241200Y0186800D01*
X0241200Y0192800D01*
X0241116Y0192800D01*
X0240362Y0192650D01*
X0239653Y0192356D01*
X0239014Y0191929D01*
X0238471Y0191386D01*
X0238044Y0190747D01*
X0237750Y0190038D01*
X0237600Y0189284D01*
X0237600Y0186800D01*
X0241200Y0186800D01*
X0241200Y0186200D01*
X0237600Y0186200D01*
X0237600Y0183716D01*
X0237750Y0182962D01*
X0238044Y0182253D01*
X0238471Y0181614D01*
X0238801Y0181284D01*
X0237554Y0181800D01*
X0235446Y0181800D01*
X0234199Y0181284D01*
X0234806Y0181891D01*
X0235400Y0183324D01*
X0235400Y0189676D01*
X0234806Y0191109D01*
X0233709Y0192206D01*
X0232276Y0192800D01*
X0230724Y0192800D01*
X0229291Y0192206D01*
X0228194Y0191109D01*
X0227600Y0189676D01*
X0227600Y0183324D01*
X0228194Y0181891D01*
X0228801Y0181284D01*
X0227554Y0181800D01*
X0225446Y0181800D01*
X0224199Y0181284D01*
X0224529Y0181614D01*
X0224956Y0182253D01*
X0225250Y0182962D01*
X0225400Y0183716D01*
X0225400Y0186200D01*
X0221800Y0186200D01*
X0221800Y0186800D01*
X0221200Y0186800D01*
X0221200Y0192800D01*
X0221116Y0192800D01*
X0220362Y0192650D01*
X0219653Y0192356D01*
X0219014Y0191929D01*
X0218471Y0191386D01*
X0218044Y0190747D01*
X0217750Y0190038D01*
X0217600Y0189284D01*
X0217600Y0186800D01*
X0221200Y0186800D01*
X0221200Y0186200D01*
X0217600Y0186200D01*
X0217600Y0183716D01*
X0217750Y0182962D01*
X0218044Y0182253D01*
X0218471Y0181614D01*
X0218801Y0181284D01*
X0217554Y0181800D01*
X0215446Y0181800D01*
X0214199Y0181284D01*
X0214806Y0181891D01*
X0215400Y0183324D01*
X0215400Y0189676D01*
X0214806Y0191109D01*
X0213709Y0192206D01*
X0212276Y0192800D01*
X0210724Y0192800D01*
X0209291Y0192206D01*
X0208194Y0191109D01*
X0207600Y0189676D01*
X0207600Y0183324D01*
X0208194Y0181891D01*
X0208801Y0181284D01*
X0207554Y0181800D01*
X0205446Y0181800D01*
X0204199Y0181284D01*
X0204529Y0181614D01*
X0204956Y0182253D01*
X0205250Y0182962D01*
X0205400Y0183716D01*
X0205400Y0186200D01*
X0201800Y0186200D01*
X0201800Y0186800D01*
X0201200Y0186800D01*
X0201200Y0192800D01*
X0201116Y0192800D01*
X0200362Y0192650D01*
X0199653Y0192356D01*
X0199014Y0191929D01*
X0198471Y0191386D01*
X0198044Y0190747D01*
X0197750Y0190038D01*
X0197600Y0189284D01*
X0197600Y0186800D01*
X0201200Y0186800D01*
X0201200Y0186200D01*
X0197600Y0186200D01*
X0197600Y0183716D01*
X0197750Y0182962D01*
X0198044Y0182253D01*
X0198471Y0181614D01*
X0198801Y0181284D01*
X0197554Y0181800D01*
X0195446Y0181800D01*
X0194199Y0181284D01*
X0194806Y0181891D01*
X0195400Y0183324D01*
X0195400Y0189676D01*
X0194806Y0191109D01*
X0193709Y0192206D01*
X0192276Y0192800D01*
X0190724Y0192800D01*
X0189291Y0192206D01*
X0188194Y0191109D01*
X0187600Y0189676D01*
X0187600Y0183324D01*
X0188194Y0181891D01*
X0188801Y0181284D01*
X0187554Y0181800D01*
X0185446Y0181800D01*
X0184199Y0181284D01*
X0184806Y0181891D01*
X0185400Y0183324D01*
X0185400Y0189676D01*
X0184806Y0191109D01*
X0183709Y0192206D01*
X0182276Y0192800D01*
X0180724Y0192800D01*
X0179291Y0192206D01*
X0178194Y0191109D01*
X0177600Y0189676D01*
X0177600Y0183324D01*
X0178194Y0181891D01*
X0178801Y0181284D01*
X0177554Y0181800D01*
X0175446Y0181800D01*
X0173498Y0180993D01*
X0172007Y0179502D01*
X0171500Y0178278D01*
X0170993Y0179502D01*
X0169502Y0180993D01*
X0167554Y0181800D01*
X0165446Y0181800D01*
X0163498Y0180993D01*
X0162007Y0179502D01*
X0161500Y0178278D01*
X0160993Y0179502D01*
X0159502Y0180993D01*
X0159021Y0181192D01*
X0170428Y0192600D01*
X0173115Y0192600D01*
X0175400Y0194885D01*
X0175400Y0198115D01*
X0173115Y0200400D01*
X0169885Y0200400D01*
X0167600Y0198115D01*
X0167600Y0195428D01*
X0160332Y0188161D01*
X0160400Y0188324D01*
X0160400Y0194676D01*
X0159806Y0196109D01*
X0158709Y0197206D01*
X0157276Y0197800D01*
X0155724Y0197800D01*
X0154291Y0197206D01*
X0153194Y0196109D01*
X0152600Y0194676D01*
X0152600Y0188324D01*
X0152668Y0188161D01*
X0147328Y0193500D01*
X0130400Y0193500D01*
X0130400Y0194676D01*
X0129806Y0196109D01*
X0128709Y0197206D01*
X0127276Y0197800D01*
X0125724Y0197800D01*
X0124291Y0197206D01*
X0123194Y0196109D01*
X0122600Y0194676D01*
X0122600Y0188324D01*
X0123194Y0186891D01*
X0124291Y0185794D01*
X0125724Y0185200D01*
X0127276Y0185200D01*
X0128709Y0185794D01*
X0129806Y0186891D01*
X0130400Y0188324D01*
X0130400Y0189500D01*
X0145672Y0189500D01*
X0153979Y0181192D01*
X0153498Y0180993D01*
X0152007Y0179502D01*
X0151500Y0178278D01*
X0150993Y0179502D01*
X0149502Y0180993D01*
X0147554Y0181800D01*
X0145446Y0181800D01*
X0143498Y0180993D01*
X0142007Y0179502D01*
X0141497Y0178272D01*
X0141412Y0178534D01*
X0141033Y0179278D01*
X0140543Y0179953D01*
X0139953Y0180543D01*
X0139278Y0181033D01*
X0138534Y0181412D01*
X0137741Y0181669D01*
X0137000Y0181787D01*
X0137000Y0177000D01*
X0136000Y0177000D01*
X0136000Y0181787D01*
X0135259Y0181669D01*
X0134466Y0181412D01*
X0133722Y0181033D01*
X0133047Y0180543D01*
X0132457Y0179953D01*
X0131967Y0179278D01*
X0131588Y0178534D01*
X0131503Y0178272D01*
X0130993Y0179502D01*
X0129502Y0180993D01*
X0127554Y0181800D01*
X0125446Y0181800D01*
X0123498Y0180993D01*
X0122007Y0179502D01*
X0121500Y0178278D01*
X0120993Y0179502D01*
X0119502Y0180993D01*
X0117554Y0181800D01*
X0115446Y0181800D01*
X0113498Y0180993D01*
X0112007Y0179502D01*
X0111500Y0178278D01*
X0110993Y0179502D01*
X0109502Y0180993D01*
X0108148Y0181554D01*
X0109446Y0182092D01*
X0110908Y0183554D01*
X0111700Y0185466D01*
X0111700Y0187534D01*
X0110908Y0189446D01*
X0109446Y0190908D01*
X0108944Y0191116D01*
X0112668Y0194839D01*
X0112600Y0194676D01*
X0112600Y0188324D01*
X0113194Y0186891D01*
X0114291Y0185794D01*
X0115724Y0185200D01*
X0117276Y0185200D01*
X0118709Y0185794D01*
X0119806Y0186891D01*
X0120400Y0188324D01*
X0120400Y0194676D01*
X0119806Y0196109D01*
X0118709Y0197206D01*
X0117276Y0197800D01*
X0115724Y0197800D01*
X0115561Y0197732D01*
X0123956Y0206128D01*
X0124291Y0205794D01*
X0125724Y0205200D01*
X0127276Y0205200D01*
X0128709Y0205794D01*
X0129806Y0206891D01*
X0130400Y0208324D01*
X0130400Y0214676D01*
X0129806Y0216109D01*
X0128709Y0217206D01*
X0127276Y0217800D01*
X0125724Y0217800D01*
X0124291Y0217206D01*
X0123194Y0216109D01*
X0122600Y0214676D01*
X0122600Y0210428D01*
X0120332Y0208161D01*
X0120400Y0208324D01*
X0120400Y0214676D01*
X0119806Y0216109D01*
X0118709Y0217206D01*
X0117276Y0217800D01*
X0115724Y0217800D01*
X0114291Y0217206D01*
X0113194Y0216109D01*
X0112600Y0214676D01*
X0112600Y0208324D01*
X0113194Y0206891D01*
X0114291Y0205794D01*
X0115724Y0205200D01*
X0117276Y0205200D01*
X0117439Y0205268D01*
X0104500Y0192328D01*
X0093328Y0203500D01*
X0091672Y0203500D01*
X0087293Y0203500D01*
X0087206Y0203709D01*
X0086109Y0204806D01*
X0084676Y0205400D01*
X0078324Y0205400D01*
X0076891Y0204806D01*
X0076500Y0204415D01*
X0076500Y0208585D01*
X0076614Y0208471D01*
X0077253Y0208044D01*
X0077962Y0207750D01*
X0078716Y0207600D01*
X0081200Y0207600D01*
X0081200Y0211200D01*
X0081800Y0211200D01*
X0081800Y0211800D01*
X0081200Y0211800D01*
X0081200Y0215400D01*
X0080228Y0215400D01*
X0090328Y0225500D01*
X0094708Y0225500D01*
X0094981Y0225227D01*
X0095967Y0224819D01*
X0097033Y0224819D01*
X0098019Y0225227D01*
X0098773Y0225981D01*
X0099181Y0226967D01*
X0099181Y0228033D01*
X0098773Y0229019D01*
X0098133Y0229658D01*
X0098425Y0229807D01*
X0099017Y0230237D01*
X0099535Y0230754D01*
X0099965Y0231347D01*
X0100297Y0231999D01*
X0100523Y0232695D01*
X0100638Y0233418D01*
X0100638Y0233594D01*
X0096177Y0233594D01*
X0096177Y0233972D01*
X0100638Y0233972D01*
X0100638Y0234149D01*
X0100523Y0234872D01*
X0100297Y0235568D01*
X0099965Y0236220D01*
X0099535Y0236812D01*
X0099017Y0237330D01*
X0098425Y0237760D01*
X0097773Y0238092D01*
X0097077Y0238319D01*
X0096354Y0238433D01*
X0096177Y0238433D01*
X0096177Y0233973D01*
X0095799Y0233973D01*
X0095799Y0238433D01*
X0095622Y0238433D01*
X0094899Y0238319D01*
X0094203Y0238092D01*
X0093551Y0237760D01*
X0092959Y0237330D01*
X0092442Y0236812D01*
X0092092Y0236331D01*
X0092056Y0236417D01*
X0090748Y0237725D01*
X0089039Y0238433D01*
X0088261Y0238433D01*
X0088328Y0238500D01*
X0127672Y0238500D01*
X0127739Y0238433D01*
X0126559Y0238433D01*
X0124850Y0237725D01*
X0123543Y0236417D01*
X0123507Y0236331D01*
X0123157Y0236812D01*
X0122639Y0237330D01*
X0122047Y0237760D01*
X0121395Y0238092D01*
X0120699Y0238319D01*
X0119976Y0238433D01*
X0119799Y0238433D01*
X0119799Y0233973D01*
X0119421Y0233973D01*
X0119421Y0238433D01*
X0119244Y0238433D01*
X0118521Y0238319D01*
X0117825Y0238092D01*
X0117173Y0237760D01*
X0116581Y0237330D01*
X0116064Y0236812D01*
X0115714Y0236331D01*
X0115678Y0236417D01*
X0114370Y0237725D01*
X0112661Y0238433D01*
X0110811Y0238433D01*
X0109102Y0237725D01*
X0107794Y0236417D01*
X0107087Y0234708D01*
X0107087Y0232859D01*
X0107794Y0231150D01*
X0109102Y0229842D01*
X0110811Y0229134D01*
X0112661Y0229134D01*
X0114370Y0229842D01*
X0115678Y0231150D01*
X0115714Y0231236D01*
X0116064Y0230754D01*
X0116581Y0230237D01*
X0117173Y0229807D01*
X0117825Y0229475D01*
X0118521Y0229248D01*
X0119244Y0229134D01*
X0119421Y0229134D01*
X0119421Y0233594D01*
X0119799Y0233594D01*
X0119799Y0229134D01*
X0119976Y0229134D01*
X0120699Y0229248D01*
X0121395Y0229475D01*
X0122047Y0229807D01*
X0122639Y0230237D01*
X0123157Y0230754D01*
X0123507Y0231236D01*
X0123543Y0231150D01*
X0124850Y0229842D01*
X0126559Y0229134D01*
X0128409Y0229134D01*
X0130118Y0229842D01*
X0131421Y0231145D01*
X0132724Y0229842D01*
X0134433Y0229134D01*
X0136283Y0229134D01*
X0137992Y0229842D01*
X0139300Y0231150D01*
X0140008Y0232859D01*
X0140008Y0234708D01*
X0139300Y0236417D01*
X0137992Y0237725D01*
X0136283Y0238433D01*
X0134433Y0238433D01*
X0133699Y0238129D01*
X0129328Y0242500D01*
X0086672Y0242500D01*
X0085500Y0241328D01*
X0070500Y0226328D01*
X0070500Y0199328D01*
X0033500Y0236328D01*
X0033500Y0244458D01*
X0034501Y0245137D02*
X0038499Y0245137D01*
X0037656Y0246135D02*
X0035391Y0246135D01*
X0035805Y0247134D02*
X0037212Y0247134D01*
X0037002Y0248132D02*
X0036000Y0248132D01*
X0036000Y0249131D02*
X0037000Y0249131D01*
X0037000Y0250129D02*
X0036000Y0250129D01*
X0036000Y0251128D02*
X0041000Y0251128D01*
X0041000Y0252126D02*
X0042000Y0252126D01*
X0042000Y0251128D02*
X0047000Y0251128D01*
X0047000Y0252126D02*
X0046000Y0252126D01*
X0046000Y0253125D02*
X0047000Y0253125D01*
X0047000Y0254123D02*
X0046000Y0254123D01*
X0045958Y0255122D02*
X0047000Y0255122D01*
X0047300Y0256120D02*
X0045705Y0256120D01*
X0045160Y0257119D02*
X0047755Y0257119D01*
X0048753Y0258117D02*
X0044177Y0258117D01*
X0042000Y0258117D02*
X0041000Y0258117D01*
X0041000Y0257119D02*
X0042000Y0257119D01*
X0042000Y0256120D02*
X0041000Y0256120D01*
X0041000Y0255122D02*
X0042000Y0255122D01*
X0042000Y0254123D02*
X0041000Y0254123D01*
X0041000Y0253125D02*
X0042000Y0253125D01*
X0042000Y0250129D02*
X0041000Y0250129D01*
X0041000Y0249131D02*
X0042000Y0249131D01*
X0042000Y0248132D02*
X0041000Y0248132D01*
X0041000Y0247134D02*
X0042000Y0247134D01*
X0042000Y0246135D02*
X0041000Y0246135D01*
X0041000Y0245137D02*
X0042000Y0245137D01*
X0044501Y0245137D02*
X0048499Y0245137D01*
X0047609Y0246135D02*
X0045344Y0246135D01*
X0045788Y0247134D02*
X0047195Y0247134D01*
X0047000Y0248132D02*
X0045998Y0248132D01*
X0046000Y0249131D02*
X0047000Y0249131D01*
X0047000Y0250129D02*
X0046000Y0250129D01*
X0054501Y0245137D02*
X0058499Y0245137D01*
X0057609Y0246135D02*
X0055391Y0246135D01*
X0055805Y0247134D02*
X0057195Y0247134D01*
X0057000Y0248132D02*
X0056000Y0248132D01*
X0056000Y0249131D02*
X0057000Y0249131D01*
X0057000Y0250129D02*
X0056000Y0250129D01*
X0056000Y0251128D02*
X0057000Y0251128D01*
X0057000Y0252126D02*
X0056000Y0252126D01*
X0056000Y0253125D02*
X0057000Y0253125D01*
X0057000Y0254123D02*
X0056000Y0254123D01*
X0056000Y0255122D02*
X0057000Y0255122D01*
X0057300Y0256120D02*
X0055700Y0256120D01*
X0055245Y0257119D02*
X0057755Y0257119D01*
X0058753Y0258117D02*
X0054247Y0258117D01*
X0038823Y0258117D02*
X0034247Y0258117D01*
X0035245Y0257119D02*
X0037840Y0257119D01*
X0037295Y0256120D02*
X0035700Y0256120D01*
X0036000Y0255122D02*
X0037042Y0255122D01*
X0037000Y0254123D02*
X0036000Y0254123D01*
X0036000Y0253125D02*
X0037000Y0253125D01*
X0037000Y0252126D02*
X0036000Y0252126D01*
X0031500Y0251500D02*
X0031500Y0235500D01*
X0070500Y0196500D01*
X0070500Y0156500D01*
X0073500Y0153500D01*
X0073500Y0119500D01*
X0081500Y0111500D01*
X0084184Y0114332D02*
X0101661Y0114332D01*
X0101248Y0115330D02*
X0083185Y0115330D01*
X0083115Y0117600D02*
X0081800Y0117600D01*
X0081800Y0121200D01*
X0081800Y0121800D01*
X0081200Y0121800D01*
X0081200Y0125400D01*
X0079885Y0125400D01*
X0077600Y0123115D01*
X0077600Y0121800D01*
X0081200Y0121800D01*
X0081200Y0121200D01*
X0077600Y0121200D01*
X0077600Y0119885D01*
X0079885Y0117600D01*
X0081200Y0117600D01*
X0081200Y0121200D01*
X0081800Y0121200D01*
X0085400Y0121200D01*
X0085400Y0119885D01*
X0083115Y0117600D01*
X0083841Y0118326D02*
X0101520Y0118326D01*
X0101200Y0117327D02*
X0078501Y0117327D01*
X0079159Y0118326D02*
X0077503Y0118326D01*
X0078160Y0119324D02*
X0076504Y0119324D01*
X0075506Y0120323D02*
X0077600Y0120323D01*
X0077600Y0122320D02*
X0075500Y0122320D01*
X0075500Y0123318D02*
X0077803Y0123318D01*
X0078801Y0124317D02*
X0075500Y0124317D01*
X0075500Y0125315D02*
X0079800Y0125315D01*
X0081200Y0125315D02*
X0081800Y0125315D01*
X0081800Y0125400D02*
X0081800Y0121800D01*
X0085400Y0121800D01*
X0085400Y0123115D01*
X0083115Y0125400D01*
X0081800Y0125400D01*
X0081800Y0124317D02*
X0081200Y0124317D01*
X0081200Y0123318D02*
X0081800Y0123318D01*
X0081800Y0122320D02*
X0081200Y0122320D01*
X0081500Y0121500D02*
X0085500Y0117500D01*
X0085500Y0109500D01*
X0083500Y0107500D01*
X0079500Y0107500D01*
X0071500Y0115500D01*
X0071500Y0152500D01*
X0049500Y0174500D01*
X0045500Y0174500D01*
X0044807Y0174610D01*
X0044307Y0174242D02*
X0021685Y0174242D01*
X0021685Y0174110D02*
X0021685Y0175110D01*
X0028984Y0175110D01*
X0028984Y0177841D01*
X0024416Y0182409D01*
X0021685Y0182409D01*
X0021685Y0175110D01*
X0020685Y0175110D01*
X0020685Y0174110D01*
X0021685Y0174110D01*
X0021685Y0166811D01*
X0024416Y0166811D01*
X0028984Y0171380D01*
X0028984Y0174110D01*
X0021685Y0174110D01*
X0021685Y0173244D02*
X0020685Y0173244D01*
X0020685Y0174110D02*
X0020685Y0166811D01*
X0017955Y0166811D01*
X0013386Y0171380D01*
X0013386Y0174110D01*
X0020685Y0174110D01*
X0020685Y0174242D02*
X0003968Y0174242D01*
X0003968Y0173244D02*
X0013386Y0173244D01*
X0013386Y0172245D02*
X0003968Y0172245D01*
X0003968Y0171247D02*
X0013519Y0171247D01*
X0014517Y0170248D02*
X0003968Y0170248D01*
X0003968Y0169250D02*
X0015516Y0169250D01*
X0016514Y0168251D02*
X0003968Y0168251D01*
X0003968Y0167253D02*
X0017513Y0167253D01*
X0020685Y0167253D02*
X0021685Y0167253D01*
X0021685Y0168251D02*
X0020685Y0168251D01*
X0020685Y0169250D02*
X0021685Y0169250D01*
X0021685Y0170248D02*
X0020685Y0170248D01*
X0020685Y0171247D02*
X0021685Y0171247D01*
X0021685Y0172245D02*
X0020685Y0172245D01*
X0020685Y0175110D02*
X0013386Y0175110D01*
X0013386Y0177841D01*
X0017955Y0182409D01*
X0020685Y0182409D01*
X0020685Y0175110D01*
X0020685Y0175241D02*
X0021685Y0175241D01*
X0021685Y0176239D02*
X0020685Y0176239D01*
X0020685Y0177238D02*
X0021685Y0177238D01*
X0021685Y0178237D02*
X0020685Y0178237D01*
X0020685Y0179235D02*
X0021685Y0179235D01*
X0021685Y0180234D02*
X0020685Y0180234D01*
X0020685Y0181232D02*
X0021685Y0181232D01*
X0021685Y0182231D02*
X0020685Y0182231D01*
X0017776Y0182231D02*
X0003968Y0182231D01*
X0003968Y0183229D02*
X0068500Y0183229D01*
X0068500Y0182231D02*
X0048216Y0182231D01*
X0048038Y0182409D02*
X0045307Y0182409D01*
X0045307Y0175110D01*
X0052606Y0175110D01*
X0052606Y0177841D01*
X0048038Y0182409D01*
X0049215Y0181232D02*
X0068500Y0181232D01*
X0068500Y0180234D02*
X0050214Y0180234D01*
X0051212Y0179235D02*
X0068500Y0179235D01*
X0068500Y0178237D02*
X0052211Y0178237D01*
X0052606Y0177238D02*
X0068500Y0177238D01*
X0068500Y0176239D02*
X0052606Y0176239D01*
X0052606Y0175241D02*
X0068500Y0175241D01*
X0068500Y0174242D02*
X0045307Y0174242D01*
X0045307Y0174110D02*
X0045307Y0175110D01*
X0044307Y0175110D01*
X0044307Y0174110D01*
X0045307Y0174110D01*
X0045307Y0166811D01*
X0048038Y0166811D01*
X0052606Y0171380D01*
X0052606Y0174110D01*
X0045307Y0174110D01*
X0045307Y0173244D02*
X0044307Y0173244D01*
X0044307Y0174110D02*
X0044307Y0166811D01*
X0041577Y0166811D01*
X0037008Y0171380D01*
X0037008Y0174110D01*
X0044307Y0174110D01*
X0044307Y0175110D02*
X0037008Y0175110D01*
X0037008Y0177841D01*
X0041577Y0182409D01*
X0044307Y0182409D01*
X0044307Y0175110D01*
X0044307Y0175241D02*
X0045307Y0175241D01*
X0045307Y0176239D02*
X0044307Y0176239D01*
X0044307Y0177238D02*
X0045307Y0177238D01*
X0045307Y0178237D02*
X0044307Y0178237D01*
X0044307Y0179235D02*
X0045307Y0179235D01*
X0045307Y0180234D02*
X0044307Y0180234D01*
X0044307Y0181232D02*
X0045307Y0181232D01*
X0045307Y0182231D02*
X0044307Y0182231D01*
X0041398Y0182231D02*
X0024594Y0182231D01*
X0025593Y0181232D02*
X0040399Y0181232D01*
X0039401Y0180234D02*
X0026591Y0180234D01*
X0027590Y0179235D02*
X0038402Y0179235D01*
X0037404Y0178237D02*
X0028588Y0178237D01*
X0028984Y0177238D02*
X0037008Y0177238D01*
X0037008Y0176239D02*
X0028984Y0176239D01*
X0028984Y0175241D02*
X0037008Y0175241D01*
X0037008Y0173244D02*
X0028984Y0173244D01*
X0028984Y0172245D02*
X0037008Y0172245D01*
X0037141Y0171247D02*
X0028851Y0171247D01*
X0027853Y0170248D02*
X0038139Y0170248D01*
X0039138Y0169250D02*
X0026854Y0169250D01*
X0025856Y0168251D02*
X0040136Y0168251D01*
X0041135Y0167253D02*
X0024857Y0167253D01*
X0030808Y0161506D02*
X0029722Y0160420D01*
X0029134Y0159001D01*
X0029134Y0157464D01*
X0029722Y0156045D01*
X0030808Y0154958D01*
X0032228Y0154370D01*
X0033764Y0154370D01*
X0035184Y0154958D01*
X0036270Y0156045D01*
X0036858Y0157464D01*
X0036858Y0159001D01*
X0036270Y0160420D01*
X0035184Y0161506D01*
X0033764Y0162094D01*
X0032228Y0162094D01*
X0030808Y0161506D01*
X0030564Y0161262D02*
X0003968Y0161262D01*
X0003968Y0162260D02*
X0044432Y0162260D01*
X0043433Y0161262D02*
X0035429Y0161262D01*
X0036335Y0160263D02*
X0042435Y0160263D01*
X0041436Y0159265D02*
X0036749Y0159265D01*
X0036858Y0158266D02*
X0040438Y0158266D01*
X0039439Y0157268D02*
X0036777Y0157268D01*
X0036363Y0156269D02*
X0038441Y0156269D01*
X0037442Y0155271D02*
X0035497Y0155271D01*
X0036444Y0154272D02*
X0024935Y0154272D01*
X0025047Y0153274D02*
X0035445Y0153274D01*
X0034447Y0152275D02*
X0024969Y0152275D01*
X0024555Y0151277D02*
X0030578Y0151277D01*
X0029663Y0150278D02*
X0023693Y0150278D01*
X0024549Y0149280D02*
X0029249Y0149280D01*
X0029134Y0148281D02*
X0025547Y0148281D01*
X0026546Y0147283D02*
X0029209Y0147283D01*
X0029623Y0146284D02*
X0027544Y0146284D01*
X0028543Y0145286D02*
X0030481Y0145286D01*
X0029541Y0144287D02*
X0041064Y0144287D01*
X0040945Y0143289D02*
X0030540Y0143289D01*
X0031538Y0142290D02*
X0041017Y0142290D01*
X0041431Y0141292D02*
X0035399Y0141292D01*
X0036323Y0140293D02*
X0042284Y0140293D01*
X0043681Y0136946D02*
X0042978Y0136655D01*
X0042345Y0136232D01*
X0041807Y0135694D01*
X0041384Y0135062D01*
X0041093Y0134359D01*
X0040945Y0133613D01*
X0040945Y0133520D01*
X0044520Y0133520D01*
X0044520Y0137094D01*
X0044427Y0137094D01*
X0043681Y0136946D01*
X0044520Y0136299D02*
X0045094Y0136299D01*
X0045094Y0137094D02*
X0045094Y0133520D01*
X0044520Y0133520D01*
X0044520Y0132945D01*
X0045094Y0132945D01*
X0045094Y0129370D01*
X0045187Y0129370D01*
X0045934Y0129519D01*
X0046637Y0129810D01*
X0047269Y0130232D01*
X0047807Y0130770D01*
X0048230Y0131403D01*
X0048521Y0132106D01*
X0048669Y0132852D01*
X0048669Y0132945D01*
X0045095Y0132945D01*
X0045095Y0133520D01*
X0048669Y0133520D01*
X0048669Y0133613D01*
X0048521Y0134359D01*
X0048230Y0135062D01*
X0047807Y0135694D01*
X0047269Y0136232D01*
X0046637Y0136655D01*
X0045934Y0136946D01*
X0045187Y0137094D01*
X0045094Y0137094D01*
X0045094Y0135301D02*
X0044520Y0135301D01*
X0044520Y0134302D02*
X0045094Y0134302D01*
X0045095Y0133303D02*
X0050500Y0133303D01*
X0050500Y0132305D02*
X0048560Y0132305D01*
X0048165Y0131306D02*
X0050500Y0131306D01*
X0050500Y0130308D02*
X0047345Y0130308D01*
X0045094Y0130308D02*
X0044520Y0130308D01*
X0044520Y0129370D02*
X0044520Y0132945D01*
X0040945Y0132945D01*
X0040945Y0132852D01*
X0041093Y0132106D01*
X0041384Y0131403D01*
X0041807Y0130770D01*
X0042345Y0130232D01*
X0042978Y0129810D01*
X0043681Y0129519D01*
X0044427Y0129370D01*
X0044520Y0129370D01*
X0044520Y0131306D02*
X0045094Y0131306D01*
X0045094Y0132305D02*
X0044520Y0132305D01*
X0044520Y0133303D02*
X0029525Y0133303D01*
X0030500Y0132305D02*
X0041054Y0132305D01*
X0041449Y0131306D02*
X0035384Y0131306D01*
X0036317Y0130308D02*
X0042269Y0130308D01*
X0041082Y0134302D02*
X0028526Y0134302D01*
X0027528Y0135301D02*
X0030466Y0135301D01*
X0029616Y0136299D02*
X0026529Y0136299D01*
X0025531Y0137298D02*
X0029203Y0137298D01*
X0029134Y0138296D02*
X0024532Y0138296D01*
X0023534Y0139295D02*
X0028877Y0139295D01*
X0027879Y0140293D02*
X0023708Y0140293D01*
X0024562Y0141292D02*
X0026880Y0141292D01*
X0025881Y0142290D02*
X0024975Y0142290D01*
X0021500Y0142500D02*
X0021500Y0138500D01*
X0028500Y0131500D01*
X0028500Y0121500D01*
X0031500Y0118500D01*
X0031500Y0099500D01*
X0044500Y0086500D01*
X0044500Y0083500D01*
X0074500Y0053500D01*
X0078500Y0053500D02*
X0078500Y0050500D01*
X0079020Y0049807D01*
X0078500Y0053500D02*
X0070500Y0061500D01*
X0077500Y0057500D02*
X0084500Y0050500D01*
X0084500Y0047500D01*
X0087500Y0044500D01*
X0090500Y0044500D01*
X0094500Y0040500D01*
X0094500Y0037500D01*
X0096500Y0035500D01*
X0104500Y0035500D01*
X0108500Y0039500D01*
X0109020Y0039807D01*
X0109500Y0039500D01*
X0113500Y0035500D01*
X0131500Y0035500D01*
X0133500Y0037500D01*
X0133500Y0051500D01*
X0121500Y0063500D01*
X0121500Y0066500D01*
X0125400Y0066403D02*
X0127600Y0066403D01*
X0127600Y0065405D02*
X0125400Y0065405D01*
X0125400Y0064406D02*
X0127600Y0064406D01*
X0127600Y0063408D02*
X0125400Y0063408D01*
X0125419Y0062409D02*
X0127979Y0062409D01*
X0128674Y0061411D02*
X0126418Y0061411D01*
X0127416Y0060412D02*
X0130212Y0060412D01*
X0128415Y0059414D02*
X0133500Y0059414D01*
X0133500Y0060412D02*
X0132788Y0060412D01*
X0133500Y0058415D02*
X0129413Y0058415D01*
X0130412Y0057417D02*
X0133500Y0057417D01*
X0133500Y0056418D02*
X0131410Y0056418D01*
X0132409Y0055420D02*
X0133500Y0055420D01*
X0133500Y0054421D02*
X0133407Y0054421D01*
X0137500Y0056418D02*
X0138590Y0056418D01*
X0139588Y0057417D02*
X0137500Y0057417D01*
X0137500Y0058415D02*
X0140587Y0058415D01*
X0141585Y0059414D02*
X0137500Y0059414D01*
X0137500Y0060412D02*
X0140212Y0060412D01*
X0138674Y0061411D02*
X0137500Y0061411D01*
X0137500Y0062409D02*
X0137979Y0062409D01*
X0137600Y0063408D02*
X0137421Y0063408D01*
X0137600Y0064406D02*
X0136422Y0064406D01*
X0136328Y0064500D02*
X0136328Y0064500D01*
X0135424Y0065405D02*
X0137600Y0065405D01*
X0137600Y0066403D02*
X0135400Y0066403D01*
X0135400Y0067402D02*
X0137600Y0067402D01*
X0137600Y0068400D02*
X0135400Y0068400D01*
X0135400Y0069399D02*
X0137600Y0069399D01*
X0137899Y0070397D02*
X0135101Y0070397D01*
X0134520Y0071396D02*
X0138480Y0071396D01*
X0139745Y0072394D02*
X0133255Y0072394D01*
X0129745Y0072394D02*
X0123255Y0072394D01*
X0124520Y0071396D02*
X0128480Y0071396D01*
X0127899Y0070397D02*
X0125101Y0070397D01*
X0125400Y0069399D02*
X0127600Y0069399D01*
X0127600Y0068400D02*
X0125400Y0068400D01*
X0125400Y0067402D02*
X0127600Y0067402D01*
X0131500Y0066500D02*
X0135500Y0062500D01*
X0135500Y0036500D01*
X0132500Y0033500D01*
X0093500Y0033500D01*
X0093500Y0034500D01*
X0093500Y0033500D02*
X0058500Y0033500D01*
X0012500Y0079500D01*
X0012500Y0114500D01*
X0020500Y0122500D01*
X0020500Y0132500D01*
X0021185Y0133232D01*
X0022500Y0129597D02*
X0023373Y0129958D01*
X0024459Y0131045D01*
X0024948Y0132224D01*
X0026500Y0130672D01*
X0026500Y0120672D01*
X0027276Y0119895D01*
X0026981Y0119773D01*
X0026227Y0119019D01*
X0025882Y0118187D01*
X0024416Y0119654D01*
X0021685Y0119654D01*
X0021685Y0112354D01*
X0020685Y0112354D01*
X0020685Y0119654D01*
X0020482Y0119654D01*
X0022500Y0121672D01*
X0022500Y0129597D01*
X0022500Y0129309D02*
X0026500Y0129309D01*
X0026500Y0128311D02*
X0022500Y0128311D01*
X0022500Y0127312D02*
X0026500Y0127312D01*
X0026500Y0126314D02*
X0022500Y0126314D01*
X0022500Y0125315D02*
X0026500Y0125315D01*
X0026500Y0124317D02*
X0022500Y0124317D01*
X0022500Y0123318D02*
X0026500Y0123318D01*
X0026500Y0122320D02*
X0022500Y0122320D01*
X0022150Y0121321D02*
X0026500Y0121321D01*
X0026849Y0120323D02*
X0021151Y0120323D01*
X0020685Y0119324D02*
X0021685Y0119324D01*
X0021685Y0118326D02*
X0020685Y0118326D01*
X0020685Y0117327D02*
X0021685Y0117327D01*
X0021685Y0116329D02*
X0020685Y0116329D01*
X0020685Y0115330D02*
X0021685Y0115330D01*
X0021685Y0114332D02*
X0020685Y0114332D01*
X0020685Y0113333D02*
X0021685Y0113333D01*
X0021685Y0111354D02*
X0021685Y0104055D01*
X0024416Y0104055D01*
X0027500Y0107140D01*
X0027500Y0095328D01*
X0023672Y0091500D01*
X0022500Y0090328D01*
X0022500Y0076672D01*
X0055500Y0043672D01*
X0056222Y0042949D01*
X0054820Y0041547D01*
X0054820Y0040009D01*
X0014500Y0080328D01*
X0014500Y0107510D01*
X0017955Y0104055D01*
X0020685Y0104055D01*
X0020685Y0111354D01*
X0021685Y0111354D01*
X0021685Y0111336D02*
X0020685Y0111336D01*
X0020685Y0110338D02*
X0021685Y0110338D01*
X0021685Y0109339D02*
X0020685Y0109339D01*
X0020685Y0108341D02*
X0021685Y0108341D01*
X0021685Y0107342D02*
X0020685Y0107342D01*
X0020685Y0106344D02*
X0021685Y0106344D01*
X0021685Y0105345D02*
X0020685Y0105345D01*
X0020685Y0104347D02*
X0021685Y0104347D01*
X0024707Y0104347D02*
X0027500Y0104347D01*
X0027500Y0105345D02*
X0025706Y0105345D01*
X0026704Y0106344D02*
X0027500Y0106344D01*
X0027500Y0103348D02*
X0014500Y0103348D01*
X0014500Y0102350D02*
X0027500Y0102350D01*
X0027500Y0101351D02*
X0014500Y0101351D01*
X0014500Y0100353D02*
X0027500Y0100353D01*
X0027500Y0099354D02*
X0014500Y0099354D01*
X0014500Y0098356D02*
X0027500Y0098356D01*
X0027500Y0097357D02*
X0014500Y0097357D01*
X0014500Y0096359D02*
X0027500Y0096359D01*
X0027500Y0095360D02*
X0014500Y0095360D01*
X0014500Y0094362D02*
X0026533Y0094362D01*
X0025535Y0093363D02*
X0014500Y0093363D01*
X0014500Y0092365D02*
X0024536Y0092365D01*
X0023538Y0091366D02*
X0014500Y0091366D01*
X0014500Y0090368D02*
X0022539Y0090368D01*
X0022500Y0089369D02*
X0014500Y0089369D01*
X0014500Y0088370D02*
X0022500Y0088370D01*
X0022500Y0087372D02*
X0014500Y0087372D01*
X0014500Y0086373D02*
X0022500Y0086373D01*
X0022500Y0085375D02*
X0014500Y0085375D01*
X0014500Y0084376D02*
X0022500Y0084376D01*
X0022500Y0083378D02*
X0014500Y0083378D01*
X0014500Y0082379D02*
X0022500Y0082379D01*
X0022500Y0081381D02*
X0014500Y0081381D01*
X0014500Y0080382D02*
X0022500Y0080382D01*
X0022500Y0079384D02*
X0015445Y0079384D01*
X0016443Y0078385D02*
X0022500Y0078385D01*
X0022500Y0077387D02*
X0017442Y0077387D01*
X0018440Y0076388D02*
X0022783Y0076388D01*
X0023782Y0075390D02*
X0019439Y0075390D01*
X0020437Y0074391D02*
X0024780Y0074391D01*
X0025779Y0073393D02*
X0021436Y0073393D01*
X0022434Y0072394D02*
X0026777Y0072394D01*
X0027776Y0071396D02*
X0023433Y0071396D01*
X0024431Y0070397D02*
X0028774Y0070397D01*
X0029773Y0069399D02*
X0025430Y0069399D01*
X0026428Y0068400D02*
X0030771Y0068400D01*
X0031770Y0067402D02*
X0027427Y0067402D01*
X0028425Y0066403D02*
X0032768Y0066403D01*
X0033767Y0065405D02*
X0029424Y0065405D01*
X0030422Y0064406D02*
X0034765Y0064406D01*
X0035764Y0063408D02*
X0031421Y0063408D01*
X0032419Y0062409D02*
X0036762Y0062409D01*
X0037761Y0061411D02*
X0033418Y0061411D01*
X0034416Y0060412D02*
X0038759Y0060412D01*
X0039758Y0059414D02*
X0035415Y0059414D01*
X0036413Y0058415D02*
X0040756Y0058415D01*
X0041755Y0057417D02*
X0037412Y0057417D01*
X0038410Y0056418D02*
X0042753Y0056418D01*
X0043752Y0055420D02*
X0039409Y0055420D01*
X0040407Y0054421D02*
X0044750Y0054421D01*
X0045749Y0053423D02*
X0041406Y0053423D01*
X0042404Y0052424D02*
X0046747Y0052424D01*
X0047746Y0051426D02*
X0043403Y0051426D01*
X0044401Y0050427D02*
X0048745Y0050427D01*
X0049743Y0049429D02*
X0045400Y0049429D01*
X0046398Y0048430D02*
X0050742Y0048430D01*
X0051740Y0047432D02*
X0047397Y0047432D01*
X0048395Y0046433D02*
X0052739Y0046433D01*
X0053737Y0045434D02*
X0049394Y0045434D01*
X0050392Y0044436D02*
X0054736Y0044436D01*
X0055734Y0043437D02*
X0051391Y0043437D01*
X0052389Y0042439D02*
X0055712Y0042439D01*
X0054820Y0041440D02*
X0053388Y0041440D01*
X0054386Y0040442D02*
X0054820Y0040442D01*
X0057500Y0044500D02*
X0074500Y0044500D01*
X0078500Y0040500D01*
X0079020Y0039807D01*
X0085500Y0030500D02*
X0088500Y0027500D01*
X0140500Y0027500D01*
X0175500Y0062500D01*
X0175500Y0070500D01*
X0172500Y0073500D01*
X0150500Y0073500D01*
X0143500Y0066500D01*
X0141500Y0066500D01*
X0144520Y0071396D02*
X0145567Y0071396D01*
X0146566Y0072394D02*
X0143255Y0072394D01*
X0147564Y0073393D02*
X0115436Y0073393D01*
X0116434Y0072394D02*
X0119745Y0072394D01*
X0118480Y0071396D02*
X0117433Y0071396D01*
X0117500Y0070397D02*
X0117899Y0070397D01*
X0117600Y0069399D02*
X0117500Y0069399D01*
X0117500Y0068400D02*
X0117600Y0068400D01*
X0117600Y0067402D02*
X0117500Y0067402D01*
X0117500Y0066403D02*
X0117600Y0066403D01*
X0117600Y0065405D02*
X0117500Y0065405D01*
X0117500Y0064406D02*
X0117600Y0064406D01*
X0115500Y0063500D02*
X0115500Y0070500D01*
X0096500Y0089500D01*
X0088500Y0089500D01*
X0081500Y0096500D01*
X0085400Y0096359D02*
X0087600Y0096359D01*
X0087600Y0097357D02*
X0085400Y0097357D01*
X0085400Y0098356D02*
X0087600Y0098356D01*
X0087600Y0099354D02*
X0085400Y0099354D01*
X0085120Y0100353D02*
X0087880Y0100353D01*
X0088436Y0101351D02*
X0084564Y0101351D01*
X0083363Y0102350D02*
X0089637Y0102350D01*
X0093363Y0102350D02*
X0099637Y0102350D01*
X0098436Y0101351D02*
X0094564Y0101351D01*
X0095120Y0100353D02*
X0097880Y0100353D01*
X0097600Y0099354D02*
X0095400Y0099354D01*
X0095400Y0098356D02*
X0097600Y0098356D01*
X0097600Y0097357D02*
X0095400Y0097357D01*
X0095470Y0096359D02*
X0097600Y0096359D01*
X0097600Y0095360D02*
X0096468Y0095360D01*
X0097467Y0094362D02*
X0097600Y0094362D01*
X0102680Y0090368D02*
X0110320Y0090368D01*
X0110724Y0090200D02*
X0112276Y0090200D01*
X0113709Y0090794D01*
X0114806Y0091891D01*
X0115400Y0093324D01*
X0115400Y0099676D01*
X0114806Y0101109D01*
X0113709Y0102206D01*
X0112276Y0102800D01*
X0110724Y0102800D01*
X0109291Y0102206D01*
X0108194Y0101109D01*
X0107600Y0099676D01*
X0107600Y0093324D01*
X0108194Y0091891D01*
X0109291Y0090794D01*
X0110724Y0090200D01*
X0112680Y0090368D02*
X0116804Y0090368D01*
X0115806Y0091366D02*
X0114281Y0091366D01*
X0115002Y0092365D02*
X0115500Y0092365D01*
X0115500Y0093363D02*
X0115400Y0093363D01*
X0115400Y0094362D02*
X0115500Y0094362D01*
X0115500Y0095360D02*
X0115400Y0095360D01*
X0115400Y0096359D02*
X0115500Y0096359D01*
X0115500Y0097357D02*
X0115400Y0097357D01*
X0115400Y0098356D02*
X0115500Y0098356D01*
X0115500Y0099354D02*
X0115400Y0099354D01*
X0115500Y0100353D02*
X0115120Y0100353D01*
X0115523Y0101351D02*
X0114564Y0101351D01*
X0113363Y0102350D02*
X0116521Y0102350D01*
X0117520Y0103348D02*
X0071500Y0103348D01*
X0071500Y0102350D02*
X0079637Y0102350D01*
X0078436Y0101351D02*
X0071500Y0101351D01*
X0071500Y0100353D02*
X0077880Y0100353D01*
X0077600Y0099354D02*
X0071500Y0099354D01*
X0071500Y0098356D02*
X0077600Y0098356D01*
X0077600Y0097357D02*
X0072471Y0097357D01*
X0073470Y0096359D02*
X0077600Y0096359D01*
X0077600Y0095360D02*
X0074468Y0095360D01*
X0075467Y0094362D02*
X0077600Y0094362D01*
X0077600Y0093363D02*
X0076465Y0093363D01*
X0077464Y0092365D02*
X0077998Y0092365D01*
X0078462Y0091366D02*
X0078719Y0091366D01*
X0079461Y0090368D02*
X0080320Y0090368D01*
X0080459Y0089369D02*
X0085803Y0089369D01*
X0086801Y0088370D02*
X0081458Y0088370D01*
X0082456Y0087372D02*
X0095800Y0087372D01*
X0096798Y0086373D02*
X0083455Y0086373D01*
X0084453Y0085375D02*
X0097797Y0085375D01*
X0098795Y0084376D02*
X0085452Y0084376D01*
X0086450Y0083378D02*
X0099794Y0083378D01*
X0100792Y0082379D02*
X0087449Y0082379D01*
X0088447Y0081381D02*
X0101791Y0081381D01*
X0102789Y0080382D02*
X0089446Y0080382D01*
X0090445Y0079384D02*
X0103788Y0079384D01*
X0104786Y0078385D02*
X0091443Y0078385D01*
X0092442Y0077387D02*
X0105785Y0077387D01*
X0106783Y0076388D02*
X0093440Y0076388D01*
X0094439Y0075390D02*
X0096561Y0075390D01*
X0095563Y0074391D02*
X0095437Y0074391D01*
X0097500Y0073500D02*
X0095500Y0071500D01*
X0095500Y0053500D01*
X0093500Y0051500D02*
X0081500Y0063500D01*
X0081500Y0066500D01*
X0080500Y0075500D02*
X0063500Y0092500D01*
X0063500Y0104500D01*
X0052500Y0115500D01*
X0052500Y0141500D01*
X0045500Y0148500D01*
X0045500Y0152500D01*
X0044807Y0153232D01*
X0042299Y0150278D02*
X0038107Y0150278D01*
X0039105Y0151277D02*
X0041437Y0151277D01*
X0041023Y0152275D02*
X0040104Y0152275D01*
X0037108Y0149280D02*
X0043500Y0149280D01*
X0043500Y0148281D02*
X0036858Y0148281D01*
X0036783Y0147283D02*
X0043889Y0147283D01*
X0042397Y0146284D02*
X0036370Y0146284D01*
X0035511Y0145286D02*
X0041477Y0145286D01*
X0036736Y0139295D02*
X0050500Y0139295D01*
X0050500Y0140293D02*
X0047330Y0140293D01*
X0048184Y0141292D02*
X0049880Y0141292D01*
X0048881Y0142290D02*
X0048597Y0142290D01*
X0050500Y0138296D02*
X0036858Y0138296D01*
X0036789Y0137298D02*
X0050500Y0137298D01*
X0050500Y0136299D02*
X0047169Y0136299D01*
X0048070Y0135301D02*
X0050500Y0135301D01*
X0050500Y0134302D02*
X0048532Y0134302D01*
X0050500Y0129309D02*
X0036730Y0129309D01*
X0036858Y0128311D02*
X0050500Y0128311D01*
X0050500Y0127312D02*
X0036795Y0127312D01*
X0036382Y0126314D02*
X0050500Y0126314D01*
X0050500Y0125315D02*
X0035541Y0125315D01*
X0035500Y0124317D02*
X0050500Y0124317D01*
X0050500Y0123318D02*
X0035500Y0123318D01*
X0035500Y0122320D02*
X0050500Y0122320D01*
X0050500Y0121321D02*
X0035500Y0121321D01*
X0035500Y0120323D02*
X0050500Y0120323D01*
X0050500Y0119324D02*
X0048367Y0119324D01*
X0049365Y0118326D02*
X0050500Y0118326D01*
X0050500Y0117327D02*
X0050364Y0117327D01*
X0052837Y0112335D02*
X0045307Y0112335D01*
X0045307Y0113333D02*
X0044307Y0113333D01*
X0044307Y0112354D02*
X0044307Y0119654D01*
X0041577Y0119654D01*
X0037008Y0115085D01*
X0037008Y0112354D01*
X0044307Y0112354D01*
X0044307Y0112335D02*
X0035500Y0112335D01*
X0035500Y0113333D02*
X0037008Y0113333D01*
X0037008Y0114332D02*
X0035500Y0114332D01*
X0035500Y0115330D02*
X0037253Y0115330D01*
X0038252Y0116329D02*
X0035500Y0116329D01*
X0035500Y0117327D02*
X0039250Y0117327D01*
X0040249Y0118326D02*
X0035500Y0118326D01*
X0035500Y0119324D02*
X0041247Y0119324D01*
X0044307Y0119324D02*
X0045307Y0119324D01*
X0045307Y0118326D02*
X0044307Y0118326D01*
X0044307Y0117327D02*
X0045307Y0117327D01*
X0045307Y0116329D02*
X0044307Y0116329D01*
X0044307Y0115330D02*
X0045307Y0115330D01*
X0045307Y0114332D02*
X0044307Y0114332D01*
X0044307Y0111336D02*
X0045307Y0111336D01*
X0045307Y0110338D02*
X0044307Y0110338D01*
X0044307Y0109339D02*
X0045307Y0109339D01*
X0045307Y0108341D02*
X0044307Y0108341D01*
X0044307Y0107342D02*
X0045307Y0107342D01*
X0045307Y0106344D02*
X0044307Y0106344D01*
X0044307Y0105345D02*
X0045307Y0105345D01*
X0045307Y0104347D02*
X0044307Y0104347D01*
X0044480Y0103348D02*
X0061500Y0103348D01*
X0061500Y0102350D02*
X0045479Y0102350D01*
X0046477Y0101351D02*
X0061500Y0101351D01*
X0061500Y0100353D02*
X0047476Y0100353D01*
X0048474Y0099354D02*
X0061500Y0099354D01*
X0061500Y0098356D02*
X0049473Y0098356D01*
X0049500Y0095500D02*
X0057500Y0095500D01*
X0077500Y0075500D01*
X0077500Y0057500D01*
X0091500Y0066500D02*
X0091500Y0068500D01*
X0081500Y0078500D01*
X0080500Y0078500D01*
X0065500Y0093500D01*
X0065500Y0135500D01*
X0057500Y0143500D01*
X0057500Y0147500D01*
X0056618Y0148232D01*
X0057500Y0153500D02*
X0067500Y0143500D01*
X0067500Y0095500D01*
X0081500Y0081500D01*
X0082680Y0090368D02*
X0084804Y0090368D01*
X0087465Y0093363D02*
X0087600Y0093363D01*
X0087600Y0094362D02*
X0086467Y0094362D01*
X0085468Y0095360D02*
X0087600Y0095360D01*
X0091500Y0096500D02*
X0092500Y0096500D01*
X0101500Y0087500D01*
X0140500Y0087500D01*
X0149500Y0096500D01*
X0151500Y0096500D01*
X0147529Y0097357D02*
X0145400Y0097357D01*
X0145400Y0098356D02*
X0147600Y0098356D01*
X0147600Y0099354D02*
X0145386Y0099354D01*
X0145120Y0100353D02*
X0147880Y0100353D01*
X0148436Y0101351D02*
X0144553Y0101351D01*
X0143357Y0102350D02*
X0149637Y0102350D01*
X0148500Y0103500D02*
X0141500Y0096500D01*
X0141800Y0096359D02*
X0146530Y0096359D01*
X0145532Y0095360D02*
X0145400Y0095360D01*
X0147194Y0091366D02*
X0148719Y0091366D01*
X0150320Y0090368D02*
X0146196Y0090368D01*
X0145197Y0089369D02*
X0163803Y0089369D01*
X0164801Y0088370D02*
X0144199Y0088370D01*
X0143200Y0087372D02*
X0165800Y0087372D01*
X0166798Y0086373D02*
X0142202Y0086373D01*
X0142500Y0086672D02*
X0142500Y0086672D01*
X0137500Y0094500D02*
X0137500Y0100500D01*
X0142500Y0105500D01*
X0258500Y0105500D01*
X0266500Y0097500D01*
X0266500Y0096500D01*
X0266500Y0097500D02*
X0278500Y0109500D01*
X0278500Y0179500D01*
X0275500Y0182500D01*
X0256500Y0182500D01*
X0243500Y0195500D01*
X0198500Y0195500D01*
X0196417Y0197208D02*
X0175400Y0197208D01*
X0175400Y0196210D02*
X0195892Y0196210D01*
X0195819Y0195211D02*
X0175400Y0195211D01*
X0174728Y0194213D02*
X0196131Y0194213D01*
X0197012Y0193214D02*
X0173730Y0193214D01*
X0170044Y0192216D02*
X0179314Y0192216D01*
X0178302Y0191217D02*
X0169046Y0191217D01*
X0168047Y0190219D02*
X0177825Y0190219D01*
X0177600Y0189220D02*
X0167049Y0189220D01*
X0166050Y0188222D02*
X0177600Y0188222D01*
X0177600Y0187223D02*
X0165052Y0187223D01*
X0164053Y0186225D02*
X0177600Y0186225D01*
X0177600Y0185226D02*
X0163054Y0185226D01*
X0162056Y0184228D02*
X0177600Y0184228D01*
X0177639Y0183229D02*
X0161057Y0183229D01*
X0160059Y0182231D02*
X0178053Y0182231D01*
X0174075Y0181232D02*
X0168925Y0181232D01*
X0170262Y0180234D02*
X0172738Y0180234D01*
X0171896Y0179235D02*
X0171104Y0179235D01*
X0164075Y0181232D02*
X0159060Y0181232D01*
X0160262Y0180234D02*
X0162738Y0180234D01*
X0161896Y0179235D02*
X0161104Y0179235D01*
X0156500Y0181500D02*
X0156500Y0176500D01*
X0152738Y0180234D02*
X0150262Y0180234D01*
X0151104Y0179235D02*
X0151896Y0179235D01*
X0153940Y0181232D02*
X0148925Y0181232D01*
X0150944Y0184228D02*
X0111187Y0184228D01*
X0111601Y0185226D02*
X0115661Y0185226D01*
X0117339Y0185226D02*
X0125661Y0185226D01*
X0127339Y0185226D02*
X0149945Y0185226D01*
X0148947Y0186225D02*
X0129140Y0186225D01*
X0129944Y0187223D02*
X0147948Y0187223D01*
X0146950Y0188222D02*
X0130357Y0188222D01*
X0130400Y0189220D02*
X0145951Y0189220D01*
X0146500Y0191500D02*
X0156500Y0181500D01*
X0171500Y0196500D01*
X0174310Y0199205D02*
X0239966Y0199205D01*
X0238968Y0200204D02*
X0173312Y0200204D01*
X0173115Y0202600D02*
X0171800Y0202600D01*
X0171800Y0206200D01*
X0171800Y0206800D01*
X0171200Y0206800D01*
X0171200Y0210400D01*
X0169885Y0210400D01*
X0167600Y0208115D01*
X0167600Y0206800D01*
X0171200Y0206800D01*
X0171200Y0206200D01*
X0167600Y0206200D01*
X0167600Y0204885D01*
X0169885Y0202600D01*
X0171200Y0202600D01*
X0171200Y0206200D01*
X0171800Y0206200D01*
X0175400Y0206200D01*
X0175400Y0204885D01*
X0173115Y0202600D01*
X0173715Y0203199D02*
X0235972Y0203199D01*
X0236971Y0202201D02*
X0120029Y0202201D01*
X0121028Y0203199D02*
X0169285Y0203199D01*
X0168287Y0204198D02*
X0122026Y0204198D01*
X0123025Y0205196D02*
X0167600Y0205196D01*
X0167600Y0206195D02*
X0159110Y0206195D01*
X0158709Y0205794D02*
X0159806Y0206891D01*
X0160400Y0208324D01*
X0160400Y0214676D01*
X0159806Y0216109D01*
X0158709Y0217206D01*
X0157276Y0217800D01*
X0155724Y0217800D01*
X0154291Y0217206D01*
X0153194Y0216109D01*
X0152600Y0214676D01*
X0152600Y0208324D01*
X0153194Y0206891D01*
X0154291Y0205794D01*
X0155724Y0205200D01*
X0157276Y0205200D01*
X0158709Y0205794D01*
X0159932Y0207193D02*
X0167600Y0207193D01*
X0167676Y0208192D02*
X0160345Y0208192D01*
X0160400Y0209190D02*
X0168675Y0209190D01*
X0169673Y0210189D02*
X0160400Y0210189D01*
X0160400Y0211187D02*
X0178897Y0211187D01*
X0179291Y0210794D02*
X0180724Y0210200D01*
X0182276Y0210200D01*
X0183709Y0210794D01*
X0184806Y0211891D01*
X0185400Y0213324D01*
X0185400Y0219676D01*
X0184806Y0221109D01*
X0183709Y0222206D01*
X0182276Y0222800D01*
X0180724Y0222800D01*
X0179291Y0222206D01*
X0178194Y0221109D01*
X0177600Y0219676D01*
X0177600Y0213324D01*
X0178194Y0211891D01*
X0179291Y0210794D01*
X0178072Y0212186D02*
X0160400Y0212186D01*
X0160400Y0213184D02*
X0177658Y0213184D01*
X0177600Y0214183D02*
X0160400Y0214183D01*
X0160191Y0215181D02*
X0177600Y0215181D01*
X0177600Y0216180D02*
X0159735Y0216180D01*
X0158737Y0217178D02*
X0177600Y0217178D01*
X0177600Y0218177D02*
X0111434Y0218177D01*
X0111700Y0217534D02*
X0110908Y0219446D01*
X0109446Y0220908D01*
X0107534Y0221700D01*
X0105466Y0221700D01*
X0103554Y0220908D01*
X0102092Y0219446D01*
X0101300Y0217534D01*
X0101300Y0215466D01*
X0102092Y0213554D01*
X0103554Y0212092D01*
X0105466Y0211300D01*
X0107534Y0211300D01*
X0109446Y0212092D01*
X0110908Y0213554D01*
X0111700Y0215466D01*
X0111700Y0217534D01*
X0111700Y0217178D02*
X0114263Y0217178D01*
X0113265Y0216180D02*
X0111700Y0216180D01*
X0111582Y0215181D02*
X0112809Y0215181D01*
X0112600Y0214183D02*
X0111169Y0214183D01*
X0110538Y0213184D02*
X0112600Y0213184D01*
X0112600Y0212186D02*
X0109540Y0212186D01*
X0112600Y0211187D02*
X0100400Y0211187D01*
X0100400Y0210189D02*
X0112600Y0210189D01*
X0112600Y0209190D02*
X0099706Y0209190D01*
X0100400Y0209885D02*
X0098115Y0207600D01*
X0094885Y0207600D01*
X0092600Y0209885D01*
X0092600Y0213115D01*
X0094885Y0215400D01*
X0098115Y0215400D01*
X0100400Y0213115D01*
X0100400Y0209885D01*
X0100400Y0212186D02*
X0103460Y0212186D01*
X0102462Y0213184D02*
X0100331Y0213184D01*
X0099332Y0214183D02*
X0101831Y0214183D01*
X0101418Y0215181D02*
X0098334Y0215181D01*
X0101300Y0216180D02*
X0081008Y0216180D01*
X0081200Y0215181D02*
X0081800Y0215181D01*
X0081800Y0215400D02*
X0081800Y0211800D01*
X0087800Y0211800D01*
X0087800Y0211884D01*
X0087650Y0212638D01*
X0087356Y0213347D01*
X0086929Y0213986D01*
X0086386Y0214529D01*
X0085747Y0214956D01*
X0085038Y0215250D01*
X0084284Y0215400D01*
X0081800Y0215400D01*
X0081800Y0214183D02*
X0081200Y0214183D01*
X0081200Y0213184D02*
X0081800Y0213184D01*
X0081800Y0212186D02*
X0081200Y0212186D01*
X0081200Y0211187D02*
X0081800Y0211187D01*
X0081800Y0211200D02*
X0081800Y0207600D01*
X0084284Y0207600D01*
X0085038Y0207750D01*
X0085747Y0208044D01*
X0086386Y0208471D01*
X0086929Y0209014D01*
X0087356Y0209653D01*
X0087650Y0210362D01*
X0087800Y0211116D01*
X0087800Y0211200D01*
X0081800Y0211200D01*
X0081800Y0210189D02*
X0081200Y0210189D01*
X0081200Y0209190D02*
X0081800Y0209190D01*
X0081800Y0208192D02*
X0081200Y0208192D01*
X0077833Y0205196D02*
X0076500Y0205196D01*
X0076500Y0206195D02*
X0113890Y0206195D01*
X0113068Y0207193D02*
X0076500Y0207193D01*
X0076500Y0208192D02*
X0077031Y0208192D01*
X0074500Y0212500D02*
X0089500Y0227500D01*
X0096500Y0227500D01*
X0098631Y0229161D02*
X0110747Y0229161D01*
X0112726Y0229161D02*
X0119076Y0229161D01*
X0119421Y0229161D02*
X0119799Y0229161D01*
X0120145Y0229161D02*
X0126495Y0229161D01*
X0128474Y0229161D02*
X0134369Y0229161D01*
X0136348Y0229161D02*
X0150117Y0229161D01*
X0150181Y0229134D02*
X0152031Y0229134D01*
X0153740Y0229842D01*
X0155043Y0231145D01*
X0156347Y0229842D01*
X0158055Y0229134D01*
X0159905Y0229134D01*
X0161614Y0229842D01*
X0162922Y0231150D01*
X0163630Y0232859D01*
X0163630Y0234708D01*
X0162922Y0236417D01*
X0161614Y0237725D01*
X0159905Y0238433D01*
X0158055Y0238433D01*
X0156347Y0237725D01*
X0155043Y0236422D01*
X0153740Y0237725D01*
X0152031Y0238433D01*
X0150181Y0238433D01*
X0148473Y0237725D01*
X0147165Y0236417D01*
X0146457Y0234708D01*
X0146457Y0232859D01*
X0147165Y0231150D01*
X0148473Y0229842D01*
X0150181Y0229134D01*
X0152096Y0229161D02*
X0157991Y0229161D01*
X0159970Y0229161D02*
X0193424Y0229161D01*
X0195403Y0229161D02*
X0196011Y0229161D01*
X0197009Y0228162D02*
X0099128Y0228162D01*
X0099181Y0227164D02*
X0198008Y0227164D01*
X0199007Y0226165D02*
X0098849Y0226165D01*
X0097873Y0225167D02*
X0200005Y0225167D01*
X0201004Y0224168D02*
X0088996Y0224168D01*
X0087998Y0223170D02*
X0202002Y0223170D01*
X0199256Y0222171D02*
X0193624Y0222171D01*
X0193347Y0222356D02*
X0192638Y0222650D01*
X0191884Y0222800D01*
X0191800Y0222800D01*
X0191800Y0216800D01*
X0195400Y0216800D01*
X0195400Y0219284D01*
X0195250Y0220038D01*
X0194956Y0220747D01*
X0194529Y0221386D01*
X0193986Y0221929D01*
X0193347Y0222356D01*
X0191800Y0222171D02*
X0191200Y0222171D01*
X0191200Y0222800D02*
X0191116Y0222800D01*
X0190362Y0222650D01*
X0189653Y0222356D01*
X0189014Y0221929D01*
X0188471Y0221386D01*
X0188044Y0220747D01*
X0187750Y0220038D01*
X0187600Y0219284D01*
X0187600Y0216800D01*
X0191200Y0216800D01*
X0191200Y0222800D01*
X0191200Y0221172D02*
X0191800Y0221172D01*
X0191800Y0220174D02*
X0191200Y0220174D01*
X0191200Y0219175D02*
X0191800Y0219175D01*
X0191800Y0218177D02*
X0191200Y0218177D01*
X0191200Y0217178D02*
X0191800Y0217178D01*
X0191800Y0216800D02*
X0191200Y0216800D01*
X0191200Y0216200D01*
X0191800Y0216200D01*
X0191800Y0216800D01*
X0191500Y0216500D02*
X0181500Y0206500D01*
X0201500Y0186500D01*
X0203500Y0186500D01*
X0210500Y0193500D01*
X0214500Y0193500D01*
X0221500Y0186500D01*
X0228500Y0193500D01*
X0232500Y0193500D01*
X0239500Y0186500D01*
X0241500Y0186500D01*
X0241800Y0186225D02*
X0249947Y0186225D01*
X0248948Y0187223D02*
X0245400Y0187223D01*
X0245400Y0186800D02*
X0245400Y0189284D01*
X0245250Y0190038D01*
X0244956Y0190747D01*
X0244529Y0191386D01*
X0243986Y0191929D01*
X0243347Y0192356D01*
X0242638Y0192650D01*
X0241884Y0192800D01*
X0241800Y0192800D01*
X0241800Y0186800D01*
X0245400Y0186800D01*
X0245400Y0188222D02*
X0247950Y0188222D01*
X0246951Y0189220D02*
X0245400Y0189220D01*
X0245175Y0190219D02*
X0245953Y0190219D01*
X0244954Y0191217D02*
X0244642Y0191217D01*
X0243956Y0192216D02*
X0243558Y0192216D01*
X0242957Y0193214D02*
X0199988Y0193214D01*
X0199442Y0192216D02*
X0193686Y0192216D01*
X0194698Y0191217D02*
X0198358Y0191217D01*
X0197825Y0190219D02*
X0195175Y0190219D01*
X0195400Y0189220D02*
X0197600Y0189220D01*
X0197600Y0188222D02*
X0195400Y0188222D01*
X0195400Y0187223D02*
X0197600Y0187223D01*
X0197600Y0185226D02*
X0195400Y0185226D01*
X0195400Y0184228D02*
X0197600Y0184228D01*
X0197697Y0183229D02*
X0195361Y0183229D01*
X0194947Y0182231D02*
X0198059Y0182231D01*
X0199992Y0180503D02*
X0200362Y0180350D01*
X0201116Y0180200D01*
X0201200Y0180200D01*
X0201200Y0186200D01*
X0201800Y0186200D01*
X0201800Y0180200D01*
X0201884Y0180200D01*
X0202638Y0180350D01*
X0203008Y0180503D01*
X0202007Y0179502D01*
X0201500Y0178278D01*
X0200993Y0179502D01*
X0199992Y0180503D01*
X0200262Y0180234D02*
X0200947Y0180234D01*
X0201200Y0180234D02*
X0201800Y0180234D01*
X0202053Y0180234D02*
X0202738Y0180234D01*
X0201896Y0179235D02*
X0201104Y0179235D01*
X0201200Y0181232D02*
X0201800Y0181232D01*
X0201800Y0182231D02*
X0201200Y0182231D01*
X0201200Y0183229D02*
X0201800Y0183229D01*
X0201800Y0184228D02*
X0201200Y0184228D01*
X0201200Y0185226D02*
X0201800Y0185226D01*
X0201800Y0186225D02*
X0207600Y0186225D01*
X0207600Y0187223D02*
X0205400Y0187223D01*
X0205400Y0186800D02*
X0205400Y0189284D01*
X0205250Y0190038D01*
X0204956Y0190747D01*
X0204529Y0191386D01*
X0203986Y0191929D01*
X0203347Y0192356D01*
X0202638Y0192650D01*
X0201884Y0192800D01*
X0201800Y0192800D01*
X0201800Y0186800D01*
X0205400Y0186800D01*
X0205400Y0188222D02*
X0207600Y0188222D01*
X0207600Y0189220D02*
X0205400Y0189220D01*
X0205175Y0190219D02*
X0207825Y0190219D01*
X0208302Y0191217D02*
X0204642Y0191217D01*
X0203558Y0192216D02*
X0209314Y0192216D01*
X0213686Y0192216D02*
X0219442Y0192216D01*
X0218358Y0191217D02*
X0214698Y0191217D01*
X0215175Y0190219D02*
X0217825Y0190219D01*
X0217600Y0189220D02*
X0215400Y0189220D01*
X0215400Y0188222D02*
X0217600Y0188222D01*
X0217600Y0187223D02*
X0215400Y0187223D01*
X0215400Y0186225D02*
X0221200Y0186225D01*
X0221200Y0186200D02*
X0221800Y0186200D01*
X0221800Y0180200D01*
X0221884Y0180200D01*
X0222638Y0180350D01*
X0223008Y0180503D01*
X0222007Y0179502D01*
X0221500Y0178278D01*
X0220993Y0179502D01*
X0219992Y0180503D01*
X0220362Y0180350D01*
X0221116Y0180200D01*
X0221200Y0180200D01*
X0221200Y0186200D01*
X0221800Y0186225D02*
X0227600Y0186225D01*
X0227600Y0187223D02*
X0225400Y0187223D01*
X0225400Y0186800D02*
X0225400Y0189284D01*
X0225250Y0190038D01*
X0224956Y0190747D01*
X0224529Y0191386D01*
X0223986Y0191929D01*
X0223347Y0192356D01*
X0222638Y0192650D01*
X0221884Y0192800D01*
X0221800Y0192800D01*
X0221800Y0186800D01*
X0225400Y0186800D01*
X0225400Y0188222D02*
X0227600Y0188222D01*
X0227600Y0189220D02*
X0225400Y0189220D01*
X0225175Y0190219D02*
X0227825Y0190219D01*
X0228302Y0191217D02*
X0224642Y0191217D01*
X0223558Y0192216D02*
X0229314Y0192216D01*
X0233686Y0192216D02*
X0239442Y0192216D01*
X0238358Y0191217D02*
X0234698Y0191217D01*
X0235175Y0190219D02*
X0237825Y0190219D01*
X0237600Y0189220D02*
X0235400Y0189220D01*
X0235400Y0188222D02*
X0237600Y0188222D01*
X0237600Y0187223D02*
X0235400Y0187223D01*
X0235400Y0186225D02*
X0241200Y0186225D01*
X0241200Y0186200D02*
X0241800Y0186200D01*
X0241800Y0180200D01*
X0241884Y0180200D01*
X0242638Y0180350D01*
X0243008Y0180503D01*
X0242007Y0179502D01*
X0241500Y0178278D01*
X0240993Y0179502D01*
X0239992Y0180503D01*
X0240362Y0180350D01*
X0241116Y0180200D01*
X0241200Y0180200D01*
X0241200Y0186200D01*
X0241200Y0185226D02*
X0241800Y0185226D01*
X0241800Y0184228D02*
X0241200Y0184228D01*
X0241200Y0183229D02*
X0241800Y0183229D01*
X0241800Y0182231D02*
X0241200Y0182231D01*
X0241200Y0181232D02*
X0241800Y0181232D01*
X0241800Y0180234D02*
X0241200Y0180234D01*
X0240947Y0180234D02*
X0240262Y0180234D01*
X0241104Y0179235D02*
X0241896Y0179235D01*
X0242053Y0180234D02*
X0242738Y0180234D01*
X0244941Y0182231D02*
X0253941Y0182231D01*
X0254075Y0181232D02*
X0248925Y0181232D01*
X0250262Y0180234D02*
X0252738Y0180234D01*
X0251896Y0179235D02*
X0251104Y0179235D01*
X0252943Y0183229D02*
X0245303Y0183229D01*
X0245400Y0184228D02*
X0251944Y0184228D01*
X0250945Y0185226D02*
X0245400Y0185226D01*
X0241800Y0187223D02*
X0241200Y0187223D01*
X0241200Y0188222D02*
X0241800Y0188222D01*
X0241800Y0189220D02*
X0241200Y0189220D01*
X0241200Y0190219D02*
X0241800Y0190219D01*
X0241800Y0191217D02*
X0241200Y0191217D01*
X0241200Y0192216D02*
X0241800Y0192216D01*
X0240965Y0198207D02*
X0175309Y0198207D01*
X0169688Y0200204D02*
X0118032Y0200204D01*
X0119031Y0201202D02*
X0237969Y0201202D01*
X0240631Y0204198D02*
X0250974Y0204198D01*
X0250500Y0204672D02*
X0252600Y0202572D01*
X0252600Y0199885D01*
X0254885Y0197600D01*
X0258115Y0197600D01*
X0260015Y0199500D01*
X0267328Y0199500D01*
X0275428Y0207600D01*
X0278115Y0207600D01*
X0280400Y0209885D01*
X0280400Y0213115D01*
X0278115Y0215400D01*
X0274885Y0215400D01*
X0272600Y0213115D01*
X0272600Y0210428D01*
X0265672Y0203500D01*
X0260015Y0203500D01*
X0258115Y0205400D01*
X0255428Y0205400D01*
X0254500Y0206328D01*
X0254500Y0207985D01*
X0254885Y0207600D01*
X0258115Y0207600D01*
X0260400Y0209885D01*
X0260400Y0213115D01*
X0258115Y0215400D01*
X0254885Y0215400D01*
X0254156Y0214672D01*
X0253328Y0215500D01*
X0237702Y0231126D01*
X0237725Y0231150D01*
X0237761Y0231236D01*
X0238111Y0230754D01*
X0238628Y0230237D01*
X0239221Y0229807D01*
X0239873Y0229475D01*
X0240569Y0229248D01*
X0241292Y0229134D01*
X0241468Y0229134D01*
X0241468Y0233594D01*
X0241846Y0233594D01*
X0241846Y0229134D01*
X0242023Y0229134D01*
X0242746Y0229248D01*
X0243442Y0229475D01*
X0244094Y0229807D01*
X0244686Y0230237D01*
X0245204Y0230754D01*
X0245634Y0231347D01*
X0245966Y0231999D01*
X0246193Y0232695D01*
X0246307Y0233418D01*
X0246307Y0233594D01*
X0241847Y0233594D01*
X0241847Y0233972D01*
X0246307Y0233972D01*
X0246307Y0234149D01*
X0246193Y0234872D01*
X0245966Y0235568D01*
X0245634Y0236220D01*
X0245204Y0236812D01*
X0244686Y0237330D01*
X0244094Y0237760D01*
X0243442Y0238092D01*
X0242746Y0238319D01*
X0242023Y0238433D01*
X0241846Y0238433D01*
X0241846Y0233973D01*
X0241468Y0233973D01*
X0241468Y0238433D01*
X0241292Y0238433D01*
X0240569Y0238319D01*
X0239873Y0238092D01*
X0239221Y0237760D01*
X0238628Y0237330D01*
X0238111Y0236812D01*
X0237761Y0236331D01*
X0237725Y0236417D01*
X0236417Y0237725D01*
X0234708Y0238433D01*
X0232859Y0238433D01*
X0231150Y0237725D01*
X0229842Y0236417D01*
X0229134Y0234708D01*
X0229134Y0232859D01*
X0229842Y0231150D01*
X0231150Y0229842D01*
X0232859Y0229134D01*
X0234038Y0229134D01*
X0240475Y0222697D01*
X0239291Y0222206D01*
X0238194Y0221109D01*
X0237600Y0219676D01*
X0237600Y0213324D01*
X0238194Y0211891D01*
X0239291Y0210794D01*
X0240724Y0210200D01*
X0242276Y0210200D01*
X0243709Y0210794D01*
X0244806Y0211891D01*
X0245400Y0213324D01*
X0245400Y0217772D01*
X0250500Y0212672D01*
X0250500Y0204672D01*
X0250500Y0205196D02*
X0239632Y0205196D01*
X0238634Y0206195D02*
X0250500Y0206195D01*
X0250500Y0207193D02*
X0237635Y0207193D01*
X0236637Y0208192D02*
X0250500Y0208192D01*
X0250500Y0209190D02*
X0235638Y0209190D01*
X0234640Y0210189D02*
X0250500Y0210189D01*
X0250500Y0211187D02*
X0244103Y0211187D01*
X0244928Y0212186D02*
X0250500Y0212186D01*
X0249987Y0213184D02*
X0245342Y0213184D01*
X0245400Y0214183D02*
X0248989Y0214183D01*
X0247990Y0215181D02*
X0245400Y0215181D01*
X0245400Y0216180D02*
X0246992Y0216180D01*
X0245993Y0217178D02*
X0245400Y0217178D01*
X0248654Y0220174D02*
X0282496Y0220174D01*
X0282496Y0221172D02*
X0247656Y0221172D01*
X0246657Y0222171D02*
X0282496Y0222171D01*
X0282496Y0223170D02*
X0245659Y0223170D01*
X0244660Y0224168D02*
X0282496Y0224168D01*
X0282496Y0225167D02*
X0243662Y0225167D01*
X0242663Y0226165D02*
X0282496Y0226165D01*
X0282496Y0227164D02*
X0241665Y0227164D01*
X0240666Y0228162D02*
X0282496Y0228162D01*
X0282496Y0229161D02*
X0262332Y0229161D01*
X0260353Y0229161D02*
X0242192Y0229161D01*
X0241846Y0229161D02*
X0241468Y0229161D01*
X0241123Y0229161D02*
X0239668Y0229161D01*
X0238736Y0230159D02*
X0238669Y0230159D01*
X0237818Y0231158D02*
X0237728Y0231158D01*
X0234500Y0231500D02*
X0234500Y0233500D01*
X0233783Y0233783D01*
X0234500Y0231500D02*
X0252500Y0213500D01*
X0252500Y0205500D01*
X0256500Y0201500D01*
X0266500Y0201500D01*
X0276500Y0211500D01*
X0279332Y0214183D02*
X0282496Y0214183D01*
X0282496Y0215181D02*
X0278334Y0215181D01*
X0280331Y0213184D02*
X0282496Y0213184D01*
X0282496Y0212186D02*
X0280400Y0212186D01*
X0280400Y0211187D02*
X0282496Y0211187D01*
X0282496Y0210189D02*
X0280400Y0210189D01*
X0279706Y0209190D02*
X0282496Y0209190D01*
X0282496Y0208192D02*
X0278707Y0208192D01*
X0278115Y0205400D02*
X0274885Y0205400D01*
X0272600Y0203115D01*
X0272600Y0199885D01*
X0274885Y0197600D01*
X0278115Y0197600D01*
X0280400Y0199885D01*
X0280400Y0203115D01*
X0278115Y0205400D01*
X0278319Y0205196D02*
X0282496Y0205196D01*
X0282496Y0204198D02*
X0279318Y0204198D01*
X0280316Y0203199D02*
X0282496Y0203199D01*
X0282496Y0202201D02*
X0280400Y0202201D01*
X0280400Y0201202D02*
X0282496Y0201202D01*
X0282496Y0200204D02*
X0280400Y0200204D01*
X0279721Y0199205D02*
X0282496Y0199205D01*
X0282496Y0198207D02*
X0278722Y0198207D01*
X0278115Y0195400D02*
X0274885Y0195400D01*
X0272600Y0193115D01*
X0272600Y0189885D01*
X0274885Y0187600D01*
X0278115Y0187600D01*
X0280400Y0189885D01*
X0280400Y0193115D01*
X0278115Y0195400D01*
X0278304Y0195211D02*
X0282496Y0195211D01*
X0282496Y0194213D02*
X0279303Y0194213D01*
X0280301Y0193214D02*
X0282496Y0193214D01*
X0282496Y0192216D02*
X0280400Y0192216D01*
X0280400Y0191217D02*
X0282496Y0191217D01*
X0282496Y0190219D02*
X0280400Y0190219D01*
X0279736Y0189220D02*
X0282496Y0189220D01*
X0282496Y0188222D02*
X0278737Y0188222D01*
X0282496Y0187223D02*
X0273181Y0187223D01*
X0273103Y0188222D02*
X0274263Y0188222D01*
X0273264Y0189220D02*
X0272572Y0189220D01*
X0272600Y0190219D02*
X0260400Y0190219D01*
X0260400Y0191217D02*
X0272600Y0191217D01*
X0272600Y0192216D02*
X0260400Y0192216D01*
X0260301Y0193214D02*
X0272699Y0193214D01*
X0273697Y0194213D02*
X0259303Y0194213D01*
X0258304Y0195211D02*
X0274696Y0195211D01*
X0274278Y0198207D02*
X0258722Y0198207D01*
X0259721Y0199205D02*
X0273279Y0199205D01*
X0272600Y0200204D02*
X0268032Y0200204D01*
X0269031Y0201202D02*
X0272600Y0201202D01*
X0272600Y0202201D02*
X0270029Y0202201D01*
X0271028Y0203199D02*
X0272684Y0203199D01*
X0272026Y0204198D02*
X0273682Y0204198D01*
X0273025Y0205196D02*
X0274681Y0205196D01*
X0274023Y0206195D02*
X0282496Y0206195D01*
X0282496Y0207193D02*
X0275022Y0207193D01*
X0272360Y0210189D02*
X0260400Y0210189D01*
X0260400Y0211187D02*
X0272600Y0211187D01*
X0272600Y0212186D02*
X0260400Y0212186D01*
X0260331Y0213184D02*
X0272669Y0213184D01*
X0273667Y0214183D02*
X0259332Y0214183D01*
X0258334Y0215181D02*
X0274666Y0215181D01*
X0271362Y0209190D02*
X0259706Y0209190D01*
X0258707Y0208192D02*
X0270363Y0208192D01*
X0269365Y0207193D02*
X0254500Y0207193D01*
X0254634Y0206195D02*
X0268366Y0206195D01*
X0267368Y0205196D02*
X0258319Y0205196D01*
X0259318Y0204198D02*
X0266369Y0204198D01*
X0254278Y0198207D02*
X0246622Y0198207D01*
X0247620Y0197208D02*
X0282496Y0197208D01*
X0282496Y0196210D02*
X0248619Y0196210D01*
X0249617Y0195211D02*
X0254696Y0195211D01*
X0253697Y0194213D02*
X0250616Y0194213D01*
X0251614Y0193214D02*
X0252699Y0193214D01*
X0254500Y0187500D02*
X0232500Y0209500D01*
X0210500Y0209500D01*
X0205500Y0214500D01*
X0205500Y0222500D01*
X0194500Y0233500D01*
X0194413Y0233783D01*
X0191203Y0237149D02*
X0162191Y0237149D01*
X0163033Y0236150D02*
X0190361Y0236150D01*
X0189947Y0235152D02*
X0163446Y0235152D01*
X0163630Y0234153D02*
X0189764Y0234153D01*
X0189764Y0233155D02*
X0163630Y0233155D01*
X0163339Y0232156D02*
X0190055Y0232156D01*
X0190468Y0231158D02*
X0162925Y0231158D01*
X0161931Y0230159D02*
X0191462Y0230159D01*
X0197624Y0237149D02*
X0199077Y0237149D01*
X0200672Y0238147D02*
X0196028Y0238147D01*
X0192798Y0238147D02*
X0160595Y0238147D01*
X0157365Y0238147D02*
X0152721Y0238147D01*
X0154317Y0237149D02*
X0155770Y0237149D01*
X0149491Y0238147D02*
X0136973Y0238147D01*
X0138569Y0237149D02*
X0147896Y0237149D01*
X0147054Y0236150D02*
X0139411Y0236150D01*
X0139824Y0235152D02*
X0146640Y0235152D01*
X0146457Y0234153D02*
X0140008Y0234153D01*
X0140008Y0233155D02*
X0146457Y0233155D01*
X0146748Y0232156D02*
X0139717Y0232156D01*
X0139303Y0231158D02*
X0147161Y0231158D01*
X0148155Y0230159D02*
X0138309Y0230159D01*
X0135358Y0233783D02*
X0134500Y0234500D01*
X0128500Y0240500D01*
X0087500Y0240500D01*
X0072500Y0225500D01*
X0072500Y0192500D01*
X0075500Y0189500D01*
X0075500Y0141500D01*
X0079500Y0137500D01*
X0083500Y0137500D01*
X0085500Y0139500D01*
X0131500Y0139500D01*
X0139500Y0131500D01*
X0141500Y0131500D01*
X0145400Y0131306D02*
X0145500Y0131306D01*
X0145500Y0130328D02*
X0145400Y0130228D01*
X0145400Y0134676D01*
X0144806Y0136109D01*
X0143709Y0137206D01*
X0142276Y0137800D01*
X0140724Y0137800D01*
X0139291Y0137206D01*
X0138194Y0136109D01*
X0138055Y0135774D01*
X0133500Y0140328D01*
X0132328Y0141500D01*
X0102328Y0141500D01*
X0117500Y0156672D01*
X0117500Y0162672D01*
X0117600Y0162772D01*
X0117600Y0161800D01*
X0121200Y0161800D01*
X0121200Y0161200D01*
X0121800Y0161200D01*
X0121800Y0161800D01*
X0125400Y0161800D01*
X0125400Y0164284D01*
X0125250Y0165038D01*
X0124956Y0165747D01*
X0124529Y0166386D01*
X0123986Y0166929D01*
X0123347Y0167356D01*
X0122638Y0167650D01*
X0122505Y0167677D01*
X0126028Y0171200D01*
X0127554Y0171200D01*
X0129502Y0172007D01*
X0130993Y0173498D01*
X0131503Y0174728D01*
X0131588Y0174466D01*
X0131967Y0173722D01*
X0132457Y0173047D01*
X0133047Y0172457D01*
X0133722Y0171967D01*
X0134466Y0171588D01*
X0135259Y0171330D01*
X0136000Y0171213D01*
X0136000Y0176000D01*
X0137000Y0176000D01*
X0137000Y0171213D01*
X0137741Y0171330D01*
X0138534Y0171588D01*
X0139278Y0171967D01*
X0139953Y0172457D01*
X0140543Y0173047D01*
X0141033Y0173722D01*
X0141412Y0174466D01*
X0141497Y0174728D01*
X0142007Y0173498D01*
X0143498Y0172007D01*
X0145446Y0171200D01*
X0147372Y0171200D01*
X0143500Y0167328D01*
X0143500Y0167293D01*
X0142276Y0167800D01*
X0140724Y0167800D01*
X0139291Y0167206D01*
X0138194Y0166109D01*
X0137600Y0164676D01*
X0137600Y0158324D01*
X0138194Y0156891D01*
X0139291Y0155794D01*
X0140724Y0155200D01*
X0142276Y0155200D01*
X0143709Y0155794D01*
X0144806Y0156891D01*
X0145400Y0158324D01*
X0145400Y0162572D01*
X0145500Y0162672D01*
X0145500Y0130328D01*
X0145480Y0130308D02*
X0145400Y0130308D01*
X0145400Y0132305D02*
X0145500Y0132305D01*
X0145500Y0133303D02*
X0145400Y0133303D01*
X0145400Y0134302D02*
X0145500Y0134302D01*
X0145500Y0135301D02*
X0145141Y0135301D01*
X0145500Y0136299D02*
X0144616Y0136299D01*
X0145500Y0137298D02*
X0143489Y0137298D01*
X0145500Y0138296D02*
X0135532Y0138296D01*
X0134534Y0139295D02*
X0145500Y0139295D01*
X0145500Y0140293D02*
X0133535Y0140293D01*
X0132537Y0141292D02*
X0145500Y0141292D01*
X0145500Y0142290D02*
X0103119Y0142290D01*
X0104117Y0143289D02*
X0145500Y0143289D01*
X0145500Y0144287D02*
X0105116Y0144287D01*
X0106114Y0145286D02*
X0145500Y0145286D01*
X0145500Y0146284D02*
X0107113Y0146284D01*
X0108111Y0147283D02*
X0145500Y0147283D01*
X0145500Y0148281D02*
X0109110Y0148281D01*
X0110108Y0149280D02*
X0145500Y0149280D01*
X0145500Y0150278D02*
X0111107Y0150278D01*
X0112105Y0151277D02*
X0145500Y0151277D01*
X0145500Y0152275D02*
X0113104Y0152275D01*
X0114102Y0153274D02*
X0145500Y0153274D01*
X0145500Y0154272D02*
X0115101Y0154272D01*
X0116099Y0155271D02*
X0120760Y0155271D01*
X0121116Y0155200D02*
X0121200Y0155200D01*
X0121200Y0161200D01*
X0117600Y0161200D01*
X0117600Y0158716D01*
X0117750Y0157962D01*
X0118044Y0157253D01*
X0118471Y0156614D01*
X0119014Y0156071D01*
X0119653Y0155644D01*
X0120362Y0155350D01*
X0121116Y0155200D01*
X0121200Y0155271D02*
X0121800Y0155271D01*
X0121800Y0155200D02*
X0121884Y0155200D01*
X0122638Y0155350D01*
X0123347Y0155644D01*
X0123986Y0156071D01*
X0124529Y0156614D01*
X0124956Y0157253D01*
X0125250Y0157962D01*
X0125400Y0158716D01*
X0125400Y0161200D01*
X0121800Y0161200D01*
X0121800Y0155200D01*
X0122240Y0155271D02*
X0130760Y0155271D01*
X0131116Y0155200D02*
X0131200Y0155200D01*
X0131200Y0161200D01*
X0131800Y0161200D01*
X0131800Y0161800D01*
X0135400Y0161800D01*
X0135400Y0164284D01*
X0135250Y0165038D01*
X0134956Y0165747D01*
X0134529Y0166386D01*
X0133986Y0166929D01*
X0133347Y0167356D01*
X0132638Y0167650D01*
X0131884Y0167800D01*
X0131800Y0167800D01*
X0131800Y0161800D01*
X0131200Y0161800D01*
X0131200Y0167800D01*
X0131116Y0167800D01*
X0130362Y0167650D01*
X0129653Y0167356D01*
X0129014Y0166929D01*
X0128471Y0166386D01*
X0128044Y0165747D01*
X0127750Y0165038D01*
X0127600Y0164284D01*
X0127600Y0161800D01*
X0131200Y0161800D01*
X0131200Y0161200D01*
X0127600Y0161200D01*
X0127600Y0158716D01*
X0127750Y0157962D01*
X0128044Y0157253D01*
X0128471Y0156614D01*
X0129014Y0156071D01*
X0129653Y0155644D01*
X0130362Y0155350D01*
X0131116Y0155200D01*
X0131200Y0155271D02*
X0131800Y0155271D01*
X0131800Y0155200D02*
X0131884Y0155200D01*
X0132638Y0155350D01*
X0133347Y0155644D01*
X0133986Y0156071D01*
X0134529Y0156614D01*
X0134956Y0157253D01*
X0135250Y0157962D01*
X0135400Y0158716D01*
X0135400Y0161200D01*
X0131800Y0161200D01*
X0131800Y0155200D01*
X0132240Y0155271D02*
X0140553Y0155271D01*
X0142447Y0155271D02*
X0145500Y0155271D01*
X0145500Y0156269D02*
X0144185Y0156269D01*
X0144962Y0157268D02*
X0145500Y0157268D01*
X0145500Y0158266D02*
X0145376Y0158266D01*
X0145400Y0159265D02*
X0145500Y0159265D01*
X0145500Y0160263D02*
X0145400Y0160263D01*
X0145400Y0161262D02*
X0145500Y0161262D01*
X0145500Y0162260D02*
X0145400Y0162260D01*
X0145500Y0165500D02*
X0145500Y0166500D01*
X0149500Y0170500D01*
X0260500Y0170500D01*
X0266500Y0176500D01*
X0275500Y0176500D02*
X0239500Y0140500D01*
X0236500Y0136500D02*
X0236500Y0116500D01*
X0243500Y0125500D02*
X0247500Y0125500D01*
X0256500Y0116500D01*
X0253500Y0122500D02*
X0260500Y0122500D01*
X0266500Y0116500D01*
X0280500Y0116329D02*
X0282496Y0116329D01*
X0282496Y0117327D02*
X0280500Y0117327D01*
X0280500Y0118326D02*
X0282496Y0118326D01*
X0282496Y0119324D02*
X0280500Y0119324D01*
X0280500Y0120323D02*
X0282496Y0120323D01*
X0282496Y0121321D02*
X0280500Y0121321D01*
X0280500Y0122320D02*
X0282496Y0122320D01*
X0282496Y0123318D02*
X0280500Y0123318D01*
X0280500Y0124317D02*
X0282496Y0124317D01*
X0282496Y0125315D02*
X0280500Y0125315D01*
X0280500Y0126314D02*
X0282496Y0126314D01*
X0282496Y0127312D02*
X0280500Y0127312D01*
X0280500Y0128311D02*
X0282496Y0128311D01*
X0282496Y0129309D02*
X0280500Y0129309D01*
X0280500Y0130308D02*
X0282496Y0130308D01*
X0282496Y0131306D02*
X0280500Y0131306D01*
X0280500Y0132305D02*
X0282496Y0132305D01*
X0282496Y0133303D02*
X0280500Y0133303D01*
X0280500Y0134302D02*
X0282496Y0134302D01*
X0282496Y0135301D02*
X0280500Y0135301D01*
X0280500Y0136299D02*
X0282496Y0136299D01*
X0282496Y0137298D02*
X0280500Y0137298D01*
X0280500Y0138296D02*
X0282496Y0138296D01*
X0282496Y0139295D02*
X0280500Y0139295D01*
X0280500Y0140293D02*
X0282496Y0140293D01*
X0282496Y0141292D02*
X0280500Y0141292D01*
X0280500Y0142290D02*
X0282496Y0142290D01*
X0282496Y0143289D02*
X0280500Y0143289D01*
X0280500Y0144287D02*
X0282496Y0144287D01*
X0282496Y0145286D02*
X0280500Y0145286D01*
X0280500Y0146284D02*
X0282496Y0146284D01*
X0282496Y0147283D02*
X0280500Y0147283D01*
X0280500Y0148281D02*
X0282496Y0148281D01*
X0282496Y0149280D02*
X0280500Y0149280D01*
X0280500Y0150278D02*
X0282496Y0150278D01*
X0282496Y0151277D02*
X0280500Y0151277D01*
X0280500Y0152275D02*
X0282496Y0152275D01*
X0282496Y0153274D02*
X0280500Y0153274D01*
X0280500Y0154272D02*
X0282496Y0154272D01*
X0282496Y0155271D02*
X0280500Y0155271D01*
X0280500Y0156269D02*
X0282496Y0156269D01*
X0282496Y0157268D02*
X0280500Y0157268D01*
X0280500Y0158266D02*
X0282496Y0158266D01*
X0282496Y0159265D02*
X0280500Y0159265D01*
X0280500Y0160263D02*
X0282496Y0160263D01*
X0282496Y0161262D02*
X0280500Y0161262D01*
X0280500Y0162260D02*
X0282496Y0162260D01*
X0282496Y0163259D02*
X0280500Y0163259D01*
X0280500Y0164257D02*
X0282496Y0164257D01*
X0282496Y0165256D02*
X0280500Y0165256D01*
X0280500Y0166254D02*
X0282496Y0166254D01*
X0282496Y0167253D02*
X0280500Y0167253D01*
X0280500Y0168251D02*
X0282496Y0168251D01*
X0282496Y0169250D02*
X0280500Y0169250D01*
X0280500Y0170248D02*
X0282496Y0170248D01*
X0282496Y0171247D02*
X0280500Y0171247D01*
X0280500Y0172245D02*
X0282496Y0172245D01*
X0282496Y0173244D02*
X0280500Y0173244D01*
X0280500Y0174242D02*
X0282496Y0174242D01*
X0282496Y0175241D02*
X0280500Y0175241D01*
X0280500Y0176239D02*
X0282496Y0176239D01*
X0282496Y0177238D02*
X0280500Y0177238D01*
X0280500Y0178237D02*
X0282496Y0178237D01*
X0282496Y0179235D02*
X0280500Y0179235D01*
X0280500Y0180234D02*
X0282496Y0180234D01*
X0282496Y0181232D02*
X0279596Y0181232D01*
X0278598Y0182231D02*
X0282496Y0182231D01*
X0282496Y0183229D02*
X0277599Y0183229D01*
X0276601Y0184228D02*
X0282496Y0184228D01*
X0282496Y0185226D02*
X0272016Y0185226D01*
X0272874Y0186225D02*
X0282496Y0186225D01*
X0275500Y0178500D02*
X0275500Y0176500D01*
X0268984Y0185226D02*
X0256602Y0185226D01*
X0254500Y0187500D02*
X0270500Y0187500D01*
X0253279Y0199205D02*
X0245623Y0199205D01*
X0244625Y0200204D02*
X0252600Y0200204D01*
X0252600Y0201202D02*
X0243626Y0201202D01*
X0242628Y0202201D02*
X0252600Y0202201D01*
X0251972Y0203199D02*
X0241629Y0203199D01*
X0234974Y0204198D02*
X0174713Y0204198D01*
X0175400Y0205196D02*
X0233975Y0205196D01*
X0232977Y0206195D02*
X0175400Y0206195D01*
X0175400Y0206800D02*
X0175400Y0208115D01*
X0173115Y0210400D01*
X0171800Y0210400D01*
X0171800Y0206800D01*
X0175400Y0206800D01*
X0175400Y0207193D02*
X0231978Y0207193D01*
X0234103Y0211187D02*
X0238897Y0211187D01*
X0238072Y0212186D02*
X0234912Y0212186D01*
X0235294Y0213184D02*
X0237658Y0213184D01*
X0237600Y0214183D02*
X0235400Y0214183D01*
X0235400Y0215181D02*
X0237600Y0215181D01*
X0237600Y0216180D02*
X0235400Y0216180D01*
X0235400Y0216800D02*
X0235400Y0219284D01*
X0235250Y0220038D01*
X0234956Y0220747D01*
X0234529Y0221386D01*
X0233986Y0221929D01*
X0233347Y0222356D01*
X0232638Y0222650D01*
X0231884Y0222800D01*
X0231800Y0222800D01*
X0231800Y0216800D01*
X0235400Y0216800D01*
X0235400Y0217178D02*
X0237600Y0217178D01*
X0237600Y0218177D02*
X0235400Y0218177D01*
X0235400Y0219175D02*
X0237600Y0219175D01*
X0237806Y0220174D02*
X0235194Y0220174D01*
X0234672Y0221172D02*
X0238257Y0221172D01*
X0239256Y0222171D02*
X0233624Y0222171D01*
X0231800Y0222171D02*
X0231200Y0222171D01*
X0231200Y0221172D02*
X0231800Y0221172D01*
X0231800Y0220174D02*
X0231200Y0220174D01*
X0231200Y0219175D02*
X0231800Y0219175D01*
X0231800Y0218177D02*
X0231200Y0218177D01*
X0231200Y0217178D02*
X0231800Y0217178D01*
X0231500Y0216500D02*
X0228500Y0219500D01*
X0228500Y0235500D01*
X0231500Y0238500D01*
X0237500Y0238500D01*
X0241500Y0234500D01*
X0241657Y0233783D01*
X0242500Y0234500D01*
X0253500Y0234500D01*
X0260500Y0241500D01*
X0261343Y0241657D01*
X0265750Y0243140D02*
X0282496Y0243140D01*
X0282496Y0244138D02*
X0265287Y0244138D01*
X0264439Y0245137D02*
X0282496Y0245137D01*
X0282496Y0246135D02*
X0264522Y0246135D01*
X0265382Y0247134D02*
X0282496Y0247134D01*
X0282496Y0248132D02*
X0265796Y0248132D01*
X0265992Y0249131D02*
X0282496Y0249131D01*
X0282496Y0250129D02*
X0265992Y0250129D01*
X0265714Y0251128D02*
X0282496Y0251128D01*
X0282496Y0252126D02*
X0265300Y0252126D01*
X0264325Y0253125D02*
X0282496Y0253125D01*
X0282496Y0242141D02*
X0265973Y0242141D01*
X0265969Y0241143D02*
X0282496Y0241143D01*
X0282496Y0240144D02*
X0265740Y0240144D01*
X0265265Y0239146D02*
X0282496Y0239146D01*
X0282496Y0238147D02*
X0264408Y0238147D01*
X0264553Y0237149D02*
X0282496Y0237149D01*
X0282496Y0236150D02*
X0265395Y0236150D01*
X0265808Y0235152D02*
X0282496Y0235152D01*
X0282496Y0234153D02*
X0265992Y0234153D01*
X0265992Y0233155D02*
X0282496Y0233155D01*
X0282496Y0232156D02*
X0265701Y0232156D01*
X0265288Y0231158D02*
X0282496Y0231158D01*
X0282496Y0230159D02*
X0264294Y0230159D01*
X0258391Y0230159D02*
X0244579Y0230159D01*
X0245497Y0231158D02*
X0257397Y0231158D01*
X0256984Y0232156D02*
X0246018Y0232156D01*
X0246265Y0233155D02*
X0256693Y0233155D01*
X0256693Y0234153D02*
X0246306Y0234153D01*
X0246102Y0235152D02*
X0256877Y0235152D01*
X0257290Y0236150D02*
X0245670Y0236150D01*
X0244868Y0237149D02*
X0258132Y0237149D01*
X0258277Y0238147D02*
X0243274Y0238147D01*
X0241846Y0238147D02*
X0241468Y0238147D01*
X0241468Y0237149D02*
X0241846Y0237149D01*
X0241846Y0236150D02*
X0241468Y0236150D01*
X0241468Y0235152D02*
X0241846Y0235152D01*
X0241846Y0234153D02*
X0241468Y0234153D01*
X0241468Y0233155D02*
X0241846Y0233155D01*
X0241846Y0232156D02*
X0241468Y0232156D01*
X0241468Y0231158D02*
X0241846Y0231158D01*
X0241846Y0230159D02*
X0241468Y0230159D01*
X0237007Y0226165D02*
X0204663Y0226165D01*
X0203665Y0227164D02*
X0236008Y0227164D01*
X0235009Y0228162D02*
X0202666Y0228162D01*
X0203277Y0229161D02*
X0209172Y0229161D01*
X0211151Y0229161D02*
X0217046Y0229161D01*
X0219025Y0229161D02*
X0232794Y0229161D01*
X0230832Y0230159D02*
X0220987Y0230159D01*
X0221980Y0231158D02*
X0229838Y0231158D01*
X0229425Y0232156D02*
X0222394Y0232156D01*
X0222685Y0233155D02*
X0229134Y0233155D01*
X0229134Y0234153D02*
X0222685Y0234153D01*
X0222501Y0235152D02*
X0229317Y0235152D01*
X0229731Y0236150D02*
X0222088Y0236150D01*
X0221246Y0237149D02*
X0230573Y0237149D01*
X0232168Y0238147D02*
X0219650Y0238147D01*
X0216420Y0238147D02*
X0211776Y0238147D01*
X0213372Y0237149D02*
X0214825Y0237149D01*
X0208546Y0238147D02*
X0203902Y0238147D01*
X0205498Y0237149D02*
X0206951Y0237149D01*
X0207210Y0230159D02*
X0205239Y0230159D01*
X0205662Y0225167D02*
X0238005Y0225167D01*
X0239004Y0224168D02*
X0206660Y0224168D01*
X0207500Y0223170D02*
X0240002Y0223170D01*
X0229376Y0222171D02*
X0223744Y0222171D01*
X0224743Y0221172D02*
X0228328Y0221172D01*
X0227806Y0220174D02*
X0225194Y0220174D01*
X0225400Y0219175D02*
X0227600Y0219175D01*
X0227600Y0218177D02*
X0225400Y0218177D01*
X0225400Y0217178D02*
X0227600Y0217178D01*
X0227600Y0216180D02*
X0225400Y0216180D01*
X0225400Y0215181D02*
X0227600Y0215181D01*
X0227600Y0214183D02*
X0225400Y0214183D01*
X0225342Y0213184D02*
X0227706Y0213184D01*
X0228088Y0212186D02*
X0224928Y0212186D01*
X0218072Y0212186D02*
X0214912Y0212186D01*
X0215294Y0213184D02*
X0217658Y0213184D01*
X0217600Y0214183D02*
X0215400Y0214183D01*
X0215400Y0215181D02*
X0217600Y0215181D01*
X0217600Y0216180D02*
X0215400Y0216180D01*
X0215400Y0216800D02*
X0215400Y0219284D01*
X0215250Y0220038D01*
X0214956Y0220747D01*
X0214529Y0221386D01*
X0213986Y0221929D01*
X0213347Y0222356D01*
X0212638Y0222650D01*
X0211884Y0222800D01*
X0211800Y0222800D01*
X0211800Y0216800D01*
X0215400Y0216800D01*
X0215400Y0217178D02*
X0217600Y0217178D01*
X0217600Y0218177D02*
X0215400Y0218177D01*
X0215400Y0219175D02*
X0217600Y0219175D01*
X0217806Y0220174D02*
X0215194Y0220174D01*
X0214672Y0221172D02*
X0218257Y0221172D01*
X0219256Y0222171D02*
X0213624Y0222171D01*
X0211800Y0222171D02*
X0211200Y0222171D01*
X0211200Y0221172D02*
X0211800Y0221172D01*
X0211800Y0220174D02*
X0211200Y0220174D01*
X0211200Y0219175D02*
X0211800Y0219175D01*
X0211800Y0218177D02*
X0211200Y0218177D01*
X0211200Y0217178D02*
X0211800Y0217178D01*
X0207600Y0217178D02*
X0207500Y0217178D01*
X0207500Y0216180D02*
X0207600Y0216180D01*
X0207600Y0218177D02*
X0207500Y0218177D01*
X0207500Y0219175D02*
X0207600Y0219175D01*
X0207500Y0220174D02*
X0207806Y0220174D01*
X0207500Y0221172D02*
X0208328Y0221172D01*
X0207500Y0222171D02*
X0209376Y0222171D01*
X0213113Y0230159D02*
X0215084Y0230159D01*
X0198257Y0221172D02*
X0194672Y0221172D01*
X0195194Y0220174D02*
X0197806Y0220174D01*
X0197600Y0219175D02*
X0195400Y0219175D01*
X0195400Y0218177D02*
X0197600Y0218177D01*
X0197600Y0217178D02*
X0195400Y0217178D01*
X0195400Y0216200D02*
X0191800Y0216200D01*
X0191800Y0210200D01*
X0191884Y0210200D01*
X0192638Y0210350D01*
X0193347Y0210644D01*
X0193986Y0211071D01*
X0194529Y0211614D01*
X0194956Y0212253D01*
X0195250Y0212962D01*
X0195400Y0213716D01*
X0195400Y0216200D01*
X0195400Y0216180D02*
X0197600Y0216180D01*
X0197600Y0215181D02*
X0195400Y0215181D01*
X0195400Y0214183D02*
X0197600Y0214183D01*
X0197658Y0213184D02*
X0195294Y0213184D01*
X0194912Y0212186D02*
X0198072Y0212186D01*
X0198897Y0211187D02*
X0194103Y0211187D01*
X0191800Y0211187D02*
X0191200Y0211187D01*
X0191200Y0210200D02*
X0191200Y0216200D01*
X0187600Y0216200D01*
X0187600Y0213716D01*
X0187750Y0212962D01*
X0188044Y0212253D01*
X0188471Y0211614D01*
X0189014Y0211071D01*
X0189653Y0210644D01*
X0190362Y0210350D01*
X0191116Y0210200D01*
X0191200Y0210200D01*
X0191200Y0212186D02*
X0191800Y0212186D01*
X0191800Y0213184D02*
X0191200Y0213184D01*
X0191200Y0214183D02*
X0191800Y0214183D01*
X0191800Y0215181D02*
X0191200Y0215181D01*
X0191200Y0216180D02*
X0191800Y0216180D01*
X0187600Y0216180D02*
X0185400Y0216180D01*
X0185400Y0217178D02*
X0187600Y0217178D01*
X0187600Y0218177D02*
X0185400Y0218177D01*
X0185400Y0219175D02*
X0187600Y0219175D01*
X0187806Y0220174D02*
X0185194Y0220174D01*
X0184743Y0221172D02*
X0188328Y0221172D01*
X0189376Y0222171D02*
X0183744Y0222171D01*
X0179256Y0222171D02*
X0086999Y0222171D01*
X0086001Y0221172D02*
X0104192Y0221172D01*
X0102820Y0220174D02*
X0085002Y0220174D01*
X0084004Y0219175D02*
X0101980Y0219175D01*
X0101566Y0218177D02*
X0083005Y0218177D01*
X0082007Y0217178D02*
X0101300Y0217178D01*
X0094666Y0215181D02*
X0085203Y0215181D01*
X0086733Y0214183D02*
X0093667Y0214183D01*
X0092669Y0213184D02*
X0087424Y0213184D01*
X0087740Y0212186D02*
X0092600Y0212186D01*
X0092600Y0211187D02*
X0087800Y0211187D01*
X0087578Y0210189D02*
X0092600Y0210189D01*
X0093294Y0209190D02*
X0087047Y0209190D01*
X0085969Y0208192D02*
X0094293Y0208192D01*
X0098707Y0208192D02*
X0112655Y0208192D01*
X0116369Y0204198D02*
X0086718Y0204198D01*
X0085167Y0205196D02*
X0117368Y0205196D01*
X0115371Y0203199D02*
X0093629Y0203199D01*
X0094628Y0202201D02*
X0114372Y0202201D01*
X0113374Y0201202D02*
X0095626Y0201202D01*
X0096625Y0200204D02*
X0112375Y0200204D01*
X0111377Y0199205D02*
X0097623Y0199205D01*
X0098622Y0198207D02*
X0110378Y0198207D01*
X0109380Y0197208D02*
X0099620Y0197208D01*
X0100619Y0196210D02*
X0108381Y0196210D01*
X0107383Y0195211D02*
X0101617Y0195211D01*
X0102616Y0194213D02*
X0106384Y0194213D01*
X0105386Y0193214D02*
X0103614Y0193214D01*
X0104500Y0189500D02*
X0106500Y0186500D01*
X0106500Y0187500D01*
X0104500Y0189500D01*
X0126500Y0211500D01*
X0130400Y0211187D02*
X0152600Y0211187D01*
X0152600Y0210189D02*
X0130400Y0210189D01*
X0130400Y0209190D02*
X0152600Y0209190D01*
X0152655Y0208192D02*
X0130345Y0208192D01*
X0129932Y0207193D02*
X0153068Y0207193D01*
X0153890Y0206195D02*
X0129110Y0206195D01*
X0135500Y0208500D02*
X0122500Y0195500D01*
X0122500Y0187500D01*
X0127500Y0182500D01*
X0130500Y0182500D01*
X0136500Y0176500D01*
X0136500Y0166500D01*
X0131500Y0161500D01*
X0131800Y0161262D02*
X0137600Y0161262D01*
X0137600Y0162260D02*
X0135400Y0162260D01*
X0135400Y0163259D02*
X0137600Y0163259D01*
X0137600Y0164257D02*
X0135400Y0164257D01*
X0135160Y0165256D02*
X0137840Y0165256D01*
X0138339Y0166254D02*
X0134617Y0166254D01*
X0133502Y0167253D02*
X0139403Y0167253D01*
X0137213Y0171247D02*
X0145332Y0171247D01*
X0146420Y0170248D02*
X0125077Y0170248D01*
X0124078Y0169250D02*
X0145421Y0169250D01*
X0144423Y0168251D02*
X0123080Y0168251D01*
X0123502Y0167253D02*
X0129498Y0167253D01*
X0128383Y0166254D02*
X0124617Y0166254D01*
X0125160Y0165256D02*
X0127840Y0165256D01*
X0127600Y0164257D02*
X0125400Y0164257D01*
X0125400Y0163259D02*
X0127600Y0163259D01*
X0127600Y0162260D02*
X0125400Y0162260D01*
X0125400Y0160263D02*
X0127600Y0160263D01*
X0127600Y0159265D02*
X0125400Y0159265D01*
X0125311Y0158266D02*
X0127689Y0158266D01*
X0128038Y0157268D02*
X0124962Y0157268D01*
X0124185Y0156269D02*
X0128815Y0156269D01*
X0131200Y0156269D02*
X0131800Y0156269D01*
X0131800Y0157268D02*
X0131200Y0157268D01*
X0131200Y0158266D02*
X0131800Y0158266D01*
X0131800Y0159265D02*
X0131200Y0159265D01*
X0131200Y0160263D02*
X0131800Y0160263D01*
X0131200Y0161262D02*
X0121800Y0161262D01*
X0121200Y0161262D02*
X0117500Y0161262D01*
X0117500Y0162260D02*
X0117600Y0162260D01*
X0117600Y0160263D02*
X0117500Y0160263D01*
X0117500Y0159265D02*
X0117600Y0159265D01*
X0117689Y0158266D02*
X0117500Y0158266D01*
X0117500Y0157268D02*
X0118038Y0157268D01*
X0118815Y0156269D02*
X0117098Y0156269D01*
X0115500Y0157500D02*
X0099500Y0141500D01*
X0081500Y0141500D01*
X0084228Y0144287D02*
X0099459Y0144287D01*
X0098672Y0143500D02*
X0085015Y0143500D01*
X0083115Y0145400D01*
X0079885Y0145400D01*
X0077600Y0143115D01*
X0077600Y0142228D01*
X0077500Y0142328D01*
X0077500Y0187941D01*
X0078324Y0187600D01*
X0084676Y0187600D01*
X0086109Y0188194D01*
X0086500Y0188585D01*
X0086500Y0185672D01*
X0087672Y0184500D01*
X0101819Y0170353D01*
X0101819Y0169967D01*
X0102227Y0168981D01*
X0102981Y0168227D01*
X0103967Y0167819D01*
X0105033Y0167819D01*
X0106019Y0168227D01*
X0106773Y0168981D01*
X0107181Y0169967D01*
X0107181Y0171033D01*
X0107112Y0171200D01*
X0107554Y0171200D01*
X0109502Y0172007D01*
X0110993Y0173498D01*
X0111500Y0174722D01*
X0112007Y0173498D01*
X0113498Y0172007D01*
X0115446Y0171200D01*
X0117554Y0171200D01*
X0119502Y0172007D01*
X0120993Y0173498D01*
X0121500Y0174722D01*
X0122007Y0173498D01*
X0122338Y0173167D01*
X0114941Y0165770D01*
X0114529Y0166386D01*
X0113986Y0166929D01*
X0113347Y0167356D01*
X0112638Y0167650D01*
X0111884Y0167800D01*
X0111800Y0167800D01*
X0111800Y0161800D01*
X0111200Y0161800D01*
X0111200Y0167800D01*
X0111116Y0167800D01*
X0110362Y0167650D01*
X0109653Y0167356D01*
X0109014Y0166929D01*
X0108471Y0166386D01*
X0108044Y0165747D01*
X0107750Y0165038D01*
X0107600Y0164284D01*
X0107600Y0161800D01*
X0111200Y0161800D01*
X0111200Y0161200D01*
X0107600Y0161200D01*
X0107600Y0158716D01*
X0107750Y0157962D01*
X0108044Y0157253D01*
X0108471Y0156614D01*
X0109014Y0156071D01*
X0109653Y0155644D01*
X0110362Y0155350D01*
X0110495Y0155323D01*
X0098672Y0143500D01*
X0100457Y0145286D02*
X0083230Y0145286D01*
X0083115Y0147600D02*
X0081800Y0147600D01*
X0081800Y0151200D01*
X0081800Y0151800D01*
X0081200Y0151800D01*
X0081200Y0155400D01*
X0079885Y0155400D01*
X0077600Y0153115D01*
X0077600Y0151800D01*
X0081200Y0151800D01*
X0081200Y0151200D01*
X0077600Y0151200D01*
X0077600Y0149885D01*
X0079885Y0147600D01*
X0081200Y0147600D01*
X0081200Y0151200D01*
X0081800Y0151200D01*
X0085400Y0151200D01*
X0085400Y0149885D01*
X0083115Y0147600D01*
X0083797Y0148281D02*
X0103453Y0148281D01*
X0104451Y0149280D02*
X0084795Y0149280D01*
X0085400Y0150278D02*
X0105450Y0150278D01*
X0106448Y0151277D02*
X0081800Y0151277D01*
X0081500Y0151500D02*
X0101500Y0151500D01*
X0111500Y0161500D01*
X0111200Y0161262D02*
X0077500Y0161262D01*
X0077500Y0162260D02*
X0107600Y0162260D01*
X0107600Y0163259D02*
X0077500Y0163259D01*
X0077500Y0164257D02*
X0107600Y0164257D01*
X0107840Y0165256D02*
X0077500Y0165256D01*
X0077500Y0166254D02*
X0108383Y0166254D01*
X0109498Y0167253D02*
X0077500Y0167253D01*
X0077500Y0168251D02*
X0102957Y0168251D01*
X0102116Y0169250D02*
X0077500Y0169250D01*
X0077500Y0170248D02*
X0101819Y0170248D01*
X0100925Y0171247D02*
X0077500Y0171247D01*
X0077500Y0172245D02*
X0099926Y0172245D01*
X0098928Y0173244D02*
X0077500Y0173244D01*
X0077500Y0174242D02*
X0097929Y0174242D01*
X0096931Y0175241D02*
X0077500Y0175241D01*
X0077500Y0176239D02*
X0095932Y0176239D01*
X0094934Y0177238D02*
X0077500Y0177238D01*
X0077500Y0178237D02*
X0093935Y0178237D01*
X0092937Y0179235D02*
X0077500Y0179235D01*
X0077500Y0180234D02*
X0091938Y0180234D01*
X0090940Y0181232D02*
X0077500Y0181232D01*
X0077500Y0182231D02*
X0089941Y0182231D01*
X0088943Y0183229D02*
X0077500Y0183229D01*
X0077500Y0184228D02*
X0087944Y0184228D01*
X0086945Y0185226D02*
X0077500Y0185226D01*
X0077500Y0186225D02*
X0086500Y0186225D01*
X0086500Y0187223D02*
X0077500Y0187223D01*
X0086137Y0188222D02*
X0086500Y0188222D01*
X0088500Y0186500D02*
X0088500Y0192500D01*
X0083500Y0197500D01*
X0077500Y0197500D01*
X0074500Y0200500D01*
X0074500Y0212500D01*
X0070500Y0212186D02*
X0057643Y0212186D01*
X0058641Y0211187D02*
X0070500Y0211187D01*
X0070500Y0210189D02*
X0059640Y0210189D01*
X0060638Y0209190D02*
X0070500Y0209190D01*
X0070500Y0208192D02*
X0061637Y0208192D01*
X0062635Y0207193D02*
X0070500Y0207193D01*
X0070500Y0206195D02*
X0063634Y0206195D01*
X0064632Y0205196D02*
X0070500Y0205196D01*
X0070500Y0204198D02*
X0065631Y0204198D01*
X0066629Y0203199D02*
X0070500Y0203199D01*
X0070500Y0202201D02*
X0067628Y0202201D01*
X0068626Y0201202D02*
X0070500Y0201202D01*
X0070500Y0200204D02*
X0069625Y0200204D01*
X0066963Y0197208D02*
X0062458Y0197208D01*
X0062044Y0196210D02*
X0067962Y0196210D01*
X0068500Y0195211D02*
X0061548Y0195211D01*
X0060549Y0194213D02*
X0068500Y0194213D01*
X0068500Y0193214D02*
X0059551Y0193214D01*
X0057604Y0192216D02*
X0068500Y0192216D01*
X0068500Y0191217D02*
X0003968Y0191217D01*
X0003968Y0190219D02*
X0068500Y0190219D01*
X0068500Y0189220D02*
X0003968Y0189220D01*
X0003968Y0188222D02*
X0068500Y0188222D01*
X0068500Y0187223D02*
X0003968Y0187223D01*
X0003968Y0186225D02*
X0068500Y0186225D01*
X0068500Y0185226D02*
X0003968Y0185226D01*
X0003968Y0184228D02*
X0068500Y0184228D01*
X0068500Y0173244D02*
X0052606Y0173244D01*
X0052606Y0172245D02*
X0068500Y0172245D01*
X0068500Y0171247D02*
X0052474Y0171247D01*
X0051475Y0170248D02*
X0068500Y0170248D01*
X0068500Y0169250D02*
X0050476Y0169250D01*
X0049478Y0168251D02*
X0068500Y0168251D01*
X0068500Y0167253D02*
X0048479Y0167253D01*
X0045307Y0167253D02*
X0044307Y0167253D01*
X0044307Y0168251D02*
X0045307Y0168251D01*
X0045307Y0169250D02*
X0044307Y0169250D01*
X0044307Y0170248D02*
X0045307Y0170248D01*
X0045307Y0171247D02*
X0044307Y0171247D01*
X0044307Y0172245D02*
X0045307Y0172245D01*
X0046429Y0164257D02*
X0003968Y0164257D01*
X0003968Y0163259D02*
X0045430Y0163259D01*
X0047500Y0162500D02*
X0058500Y0162500D01*
X0069500Y0151500D01*
X0069500Y0097500D01*
X0095500Y0071500D01*
X0097500Y0073500D02*
X0108500Y0073500D01*
X0111442Y0077387D02*
X0175785Y0077387D01*
X0176783Y0076388D02*
X0112440Y0076388D01*
X0113439Y0075390D02*
X0149561Y0075390D01*
X0148563Y0074391D02*
X0114437Y0074391D01*
X0110443Y0078385D02*
X0174786Y0078385D01*
X0173788Y0079384D02*
X0109445Y0079384D01*
X0108446Y0080382D02*
X0172789Y0080382D01*
X0171791Y0081381D02*
X0107448Y0081381D01*
X0106449Y0082379D02*
X0170792Y0082379D01*
X0169794Y0083378D02*
X0105450Y0083378D01*
X0104452Y0084376D02*
X0168795Y0084376D01*
X0167797Y0085375D02*
X0103453Y0085375D01*
X0104281Y0091366D02*
X0108719Y0091366D01*
X0107998Y0092365D02*
X0105002Y0092365D01*
X0105400Y0093363D02*
X0107600Y0093363D01*
X0107600Y0094362D02*
X0105400Y0094362D01*
X0105400Y0095360D02*
X0107600Y0095360D01*
X0107600Y0096359D02*
X0105400Y0096359D01*
X0105400Y0097357D02*
X0107600Y0097357D01*
X0107600Y0098356D02*
X0105400Y0098356D01*
X0105400Y0099354D02*
X0107600Y0099354D01*
X0107880Y0100353D02*
X0105120Y0100353D01*
X0104564Y0101351D02*
X0108436Y0101351D01*
X0109637Y0102350D02*
X0103363Y0102350D01*
X0105117Y0111336D02*
X0085400Y0111336D01*
X0085400Y0110338D02*
X0125509Y0110338D01*
X0125117Y0111336D02*
X0117883Y0111336D01*
X0119830Y0112335D02*
X0123170Y0112335D01*
X0122171Y0113333D02*
X0120829Y0113333D01*
X0121339Y0114332D02*
X0121661Y0114332D01*
X0124511Y0109339D02*
X0084855Y0109339D01*
X0083856Y0108341D02*
X0123512Y0108341D01*
X0122514Y0107342D02*
X0071500Y0107342D01*
X0071500Y0106344D02*
X0121515Y0106344D01*
X0119517Y0105345D02*
X0071500Y0105345D01*
X0071500Y0104347D02*
X0118518Y0104347D01*
X0120500Y0103500D02*
X0117500Y0100500D01*
X0117500Y0092500D01*
X0120500Y0089500D01*
X0132500Y0089500D01*
X0137500Y0094500D01*
X0143177Y0103348D02*
X0243127Y0103348D01*
X0242713Y0102350D02*
X0213363Y0102350D01*
X0213709Y0102206D02*
X0212276Y0102800D01*
X0210724Y0102800D01*
X0209291Y0102206D01*
X0208194Y0101109D01*
X0207600Y0099676D01*
X0207600Y0093324D01*
X0208194Y0091891D01*
X0209291Y0090794D01*
X0210724Y0090200D01*
X0212276Y0090200D01*
X0213709Y0090794D01*
X0214043Y0091128D01*
X0221819Y0083353D01*
X0221819Y0082967D01*
X0222227Y0081981D01*
X0222981Y0081227D01*
X0223967Y0080819D01*
X0225033Y0080819D01*
X0226019Y0081227D01*
X0226773Y0081981D01*
X0227181Y0082967D01*
X0227181Y0084033D01*
X0226773Y0085019D01*
X0226019Y0085773D01*
X0225033Y0086181D01*
X0224647Y0086181D01*
X0215400Y0095428D01*
X0215400Y0099676D01*
X0214806Y0101109D01*
X0213709Y0102206D01*
X0214564Y0101351D02*
X0242600Y0101351D01*
X0242600Y0100353D02*
X0215120Y0100353D01*
X0215400Y0099354D02*
X0242600Y0099354D01*
X0242600Y0098356D02*
X0215400Y0098356D01*
X0215400Y0097357D02*
X0242600Y0097357D01*
X0242600Y0096359D02*
X0215400Y0096359D01*
X0215468Y0095360D02*
X0242751Y0095360D01*
X0243164Y0094362D02*
X0216467Y0094362D01*
X0217465Y0093363D02*
X0244122Y0093363D01*
X0248878Y0093363D02*
X0254122Y0093363D01*
X0253164Y0094362D02*
X0249836Y0094362D01*
X0250249Y0095360D02*
X0252751Y0095360D01*
X0252600Y0096359D02*
X0250400Y0096359D01*
X0250400Y0097357D02*
X0252600Y0097357D01*
X0252600Y0098356D02*
X0250400Y0098356D01*
X0250400Y0099354D02*
X0252600Y0099354D01*
X0252600Y0100353D02*
X0250400Y0100353D01*
X0250400Y0101351D02*
X0252600Y0101351D01*
X0252713Y0102350D02*
X0250287Y0102350D01*
X0249873Y0103348D02*
X0253127Y0103348D01*
X0260400Y0100353D02*
X0260819Y0100353D01*
X0260400Y0099354D02*
X0261817Y0099354D01*
X0262600Y0098356D02*
X0260400Y0098356D01*
X0260400Y0097357D02*
X0262600Y0097357D01*
X0262600Y0096359D02*
X0260400Y0096359D01*
X0260249Y0095360D02*
X0262751Y0095360D01*
X0263164Y0094362D02*
X0259836Y0094362D01*
X0258878Y0093363D02*
X0264122Y0093363D01*
X0268878Y0093363D02*
X0274122Y0093363D01*
X0273164Y0094362D02*
X0269836Y0094362D01*
X0270249Y0095360D02*
X0272751Y0095360D01*
X0272600Y0096359D02*
X0270400Y0096359D01*
X0270400Y0097357D02*
X0272600Y0097357D01*
X0272600Y0098356D02*
X0270400Y0098356D01*
X0271183Y0099354D02*
X0272600Y0099354D01*
X0272600Y0100353D02*
X0272181Y0100353D01*
X0277174Y0105345D02*
X0282496Y0105345D01*
X0282496Y0104347D02*
X0278969Y0104347D01*
X0279873Y0103348D02*
X0282496Y0103348D01*
X0282496Y0102350D02*
X0280287Y0102350D01*
X0280400Y0101351D02*
X0282496Y0101351D01*
X0282496Y0100353D02*
X0280400Y0100353D01*
X0280400Y0099354D02*
X0282496Y0099354D01*
X0282496Y0098356D02*
X0280400Y0098356D01*
X0280400Y0097357D02*
X0282496Y0097357D01*
X0282496Y0096359D02*
X0280400Y0096359D01*
X0280249Y0095360D02*
X0282496Y0095360D01*
X0282496Y0094362D02*
X0279836Y0094362D01*
X0278878Y0093363D02*
X0282496Y0093363D01*
X0282496Y0092365D02*
X0218464Y0092365D01*
X0219462Y0091366D02*
X0282496Y0091366D01*
X0282496Y0090368D02*
X0233148Y0090368D01*
X0233115Y0090400D02*
X0231800Y0090400D01*
X0231800Y0086800D01*
X0231200Y0086800D01*
X0231200Y0090400D01*
X0229885Y0090400D01*
X0227600Y0088115D01*
X0227600Y0086800D01*
X0231200Y0086800D01*
X0231200Y0086200D01*
X0227600Y0086200D01*
X0227600Y0084885D01*
X0229885Y0082600D01*
X0231200Y0082600D01*
X0231200Y0086200D01*
X0231800Y0086200D01*
X0231800Y0086800D01*
X0235400Y0086800D01*
X0235400Y0088115D01*
X0233115Y0090400D01*
X0231800Y0090368D02*
X0231200Y0090368D01*
X0231200Y0089369D02*
X0231800Y0089369D01*
X0231800Y0088370D02*
X0231200Y0088370D01*
X0231200Y0087372D02*
X0231800Y0087372D01*
X0231500Y0086500D02*
X0229500Y0086500D01*
X0212500Y0103500D01*
X0148500Y0103500D01*
X0153363Y0102350D02*
X0159637Y0102350D01*
X0158436Y0101351D02*
X0154564Y0101351D01*
X0155120Y0100353D02*
X0157880Y0100353D01*
X0157600Y0099354D02*
X0155400Y0099354D01*
X0155400Y0098356D02*
X0157600Y0098356D01*
X0157600Y0097357D02*
X0155400Y0097357D01*
X0155400Y0096359D02*
X0157600Y0096359D01*
X0157600Y0095360D02*
X0155400Y0095360D01*
X0155400Y0094362D02*
X0157600Y0094362D01*
X0157600Y0093363D02*
X0155400Y0093363D01*
X0155002Y0092365D02*
X0157998Y0092365D01*
X0158719Y0091366D02*
X0154281Y0091366D01*
X0152680Y0090368D02*
X0160320Y0090368D01*
X0162680Y0090368D02*
X0162804Y0090368D01*
X0165465Y0093363D02*
X0167600Y0093363D01*
X0167600Y0093324D02*
X0168194Y0091891D01*
X0169291Y0090794D01*
X0170724Y0090200D01*
X0172276Y0090200D01*
X0172768Y0090404D01*
X0190475Y0072697D01*
X0189291Y0072206D01*
X0188194Y0071109D01*
X0187600Y0069676D01*
X0187600Y0063324D01*
X0188194Y0061891D01*
X0189291Y0060794D01*
X0190724Y0060200D01*
X0192276Y0060200D01*
X0193709Y0060794D01*
X0194806Y0061891D01*
X0195400Y0063324D01*
X0195400Y0067772D01*
X0195500Y0067672D01*
X0195500Y0054672D01*
X0197600Y0052572D01*
X0197600Y0049885D01*
X0199885Y0047600D01*
X0203115Y0047600D01*
X0205400Y0049885D01*
X0205400Y0053115D01*
X0203115Y0055400D01*
X0200428Y0055400D01*
X0199500Y0056328D01*
X0199500Y0060707D01*
X0200724Y0060200D01*
X0202276Y0060200D01*
X0203709Y0060794D01*
X0204806Y0061891D01*
X0205400Y0063324D01*
X0205400Y0069676D01*
X0204806Y0071109D01*
X0203709Y0072206D01*
X0202525Y0072697D01*
X0204328Y0074500D01*
X0227985Y0074500D01*
X0229885Y0072600D01*
X0233115Y0072600D01*
X0235400Y0074885D01*
X0235400Y0078115D01*
X0233115Y0080400D01*
X0229885Y0080400D01*
X0227985Y0078500D01*
X0202672Y0078500D01*
X0196500Y0072328D01*
X0175400Y0093428D01*
X0175400Y0099676D01*
X0174806Y0101109D01*
X0173709Y0102206D01*
X0172276Y0102800D01*
X0170724Y0102800D01*
X0169291Y0102206D01*
X0168194Y0101109D01*
X0167600Y0099676D01*
X0167600Y0093324D01*
X0167600Y0094362D02*
X0165400Y0094362D01*
X0165400Y0095360D02*
X0167600Y0095360D01*
X0167600Y0096359D02*
X0165400Y0096359D01*
X0165400Y0097357D02*
X0167600Y0097357D01*
X0167600Y0098356D02*
X0165400Y0098356D01*
X0165400Y0099354D02*
X0167600Y0099354D01*
X0167880Y0100353D02*
X0165120Y0100353D01*
X0164564Y0101351D02*
X0168436Y0101351D01*
X0169637Y0102350D02*
X0163363Y0102350D01*
X0161500Y0096500D02*
X0161500Y0094500D01*
X0185500Y0070500D01*
X0185500Y0033500D01*
X0192500Y0026500D01*
X0226500Y0026500D01*
X0228983Y0023467D02*
X0244017Y0023467D01*
X0243019Y0024466D02*
X0229981Y0024466D01*
X0230400Y0025464D02*
X0230707Y0025464D01*
X0232500Y0026500D02*
X0224500Y0034500D01*
X0206500Y0034500D01*
X0206224Y0035161D01*
X0202932Y0038445D02*
X0201642Y0038445D01*
X0200163Y0039443D02*
X0204412Y0039443D01*
X0208037Y0039443D02*
X0223041Y0039443D01*
X0222600Y0039885D02*
X0224885Y0037600D01*
X0228115Y0037600D01*
X0230400Y0039885D01*
X0230400Y0043115D01*
X0228115Y0045400D01*
X0224885Y0045400D01*
X0222600Y0043115D01*
X0222600Y0039885D01*
X0222600Y0040442D02*
X0187500Y0040442D01*
X0187500Y0041440D02*
X0222600Y0041440D01*
X0222600Y0042439D02*
X0187500Y0042439D01*
X0187500Y0043437D02*
X0222922Y0043437D01*
X0223921Y0044436D02*
X0187500Y0044436D01*
X0187500Y0045434D02*
X0233737Y0045434D01*
X0234736Y0044436D02*
X0229079Y0044436D01*
X0230078Y0043437D02*
X0235734Y0043437D01*
X0236733Y0042439D02*
X0230400Y0042439D01*
X0230400Y0041440D02*
X0237731Y0041440D01*
X0238730Y0040442D02*
X0230400Y0040442D01*
X0229959Y0039443D02*
X0239728Y0039443D01*
X0240727Y0038445D02*
X0228960Y0038445D01*
X0226379Y0035449D02*
X0256924Y0035449D01*
X0256903Y0035500D02*
X0257401Y0034299D01*
X0258709Y0032991D01*
X0260418Y0032283D01*
X0262267Y0032283D01*
X0263976Y0032991D01*
X0265284Y0034299D01*
X0265992Y0036008D01*
X0265992Y0037858D01*
X0265284Y0039567D01*
X0263981Y0040870D01*
X0265284Y0042173D01*
X0265992Y0043882D01*
X0265992Y0045732D01*
X0265284Y0047441D01*
X0263976Y0048749D01*
X0262267Y0049457D01*
X0260418Y0049457D01*
X0258709Y0048749D01*
X0257401Y0047441D01*
X0256693Y0045732D01*
X0256693Y0043882D01*
X0257401Y0042173D01*
X0258704Y0040870D01*
X0257401Y0039567D01*
X0257373Y0039500D01*
X0250015Y0039500D01*
X0250400Y0039885D01*
X0250400Y0043115D01*
X0248115Y0045400D01*
X0244885Y0045400D01*
X0242600Y0043115D01*
X0242600Y0042228D01*
X0231328Y0053500D01*
X0221300Y0053500D01*
X0220908Y0054446D01*
X0219446Y0055908D01*
X0217534Y0056700D01*
X0215466Y0056700D01*
X0213554Y0055908D01*
X0212092Y0054446D01*
X0211300Y0052534D01*
X0211300Y0050466D01*
X0212092Y0048554D01*
X0213554Y0047092D01*
X0215466Y0046300D01*
X0217534Y0046300D01*
X0219446Y0047092D01*
X0220908Y0048554D01*
X0221300Y0049500D01*
X0229672Y0049500D01*
X0242500Y0036672D01*
X0243672Y0035500D01*
X0256903Y0035500D01*
X0257338Y0034451D02*
X0227378Y0034451D01*
X0228376Y0033452D02*
X0258248Y0033452D01*
X0260006Y0032454D02*
X0229375Y0032454D01*
X0230373Y0031455D02*
X0282496Y0031455D01*
X0282496Y0030457D02*
X0231372Y0030457D01*
X0232370Y0029458D02*
X0243943Y0029458D01*
X0246500Y0026500D02*
X0232500Y0026500D01*
X0224017Y0023467D02*
X0003968Y0023467D01*
X0003968Y0022469D02*
X0282496Y0022469D01*
X0282496Y0023467D02*
X0248983Y0023467D01*
X0249981Y0024466D02*
X0282496Y0024466D01*
X0282496Y0025464D02*
X0250400Y0025464D01*
X0250400Y0026463D02*
X0282496Y0026463D01*
X0282496Y0027461D02*
X0250400Y0027461D01*
X0250056Y0028460D02*
X0282496Y0028460D01*
X0282496Y0029458D02*
X0249057Y0029458D01*
X0242724Y0036448D02*
X0225381Y0036448D01*
X0224040Y0038445D02*
X0209516Y0038445D01*
X0210311Y0037446D02*
X0241725Y0037446D01*
X0244500Y0037500D02*
X0260500Y0037500D01*
X0261343Y0036933D01*
X0264437Y0033452D02*
X0282496Y0033452D01*
X0282496Y0032454D02*
X0262679Y0032454D01*
X0265347Y0034451D02*
X0282496Y0034451D01*
X0282496Y0035449D02*
X0265761Y0035449D01*
X0265992Y0036448D02*
X0282496Y0036448D01*
X0282496Y0037446D02*
X0265992Y0037446D01*
X0265749Y0038445D02*
X0282496Y0038445D01*
X0282496Y0039443D02*
X0265335Y0039443D01*
X0264409Y0040442D02*
X0282496Y0040442D01*
X0282496Y0041440D02*
X0264551Y0041440D01*
X0265394Y0042439D02*
X0282496Y0042439D01*
X0282496Y0043437D02*
X0265808Y0043437D01*
X0265992Y0044436D02*
X0282496Y0044436D01*
X0282496Y0045434D02*
X0265992Y0045434D01*
X0265702Y0046433D02*
X0282496Y0046433D01*
X0282496Y0047432D02*
X0265288Y0047432D01*
X0264295Y0048430D02*
X0282496Y0048430D01*
X0282496Y0049429D02*
X0262335Y0049429D01*
X0260350Y0049429D02*
X0251270Y0049429D01*
X0250908Y0048554D02*
X0251700Y0050466D01*
X0251700Y0052534D01*
X0250908Y0054446D01*
X0249446Y0055908D01*
X0247534Y0056700D01*
X0245466Y0056700D01*
X0243554Y0055908D01*
X0242092Y0054446D01*
X0241300Y0052534D01*
X0241300Y0050466D01*
X0242092Y0048554D01*
X0243554Y0047092D01*
X0245466Y0046300D01*
X0247534Y0046300D01*
X0249446Y0047092D01*
X0250908Y0048554D01*
X0250784Y0048430D02*
X0258390Y0048430D01*
X0257397Y0047432D02*
X0249785Y0047432D01*
X0247855Y0046433D02*
X0256983Y0046433D01*
X0256693Y0045434D02*
X0239394Y0045434D01*
X0240392Y0044436D02*
X0243921Y0044436D01*
X0242922Y0043437D02*
X0241391Y0043437D01*
X0242389Y0042439D02*
X0242600Y0042439D01*
X0244500Y0037500D02*
X0230500Y0051500D01*
X0216500Y0051500D01*
X0219785Y0047432D02*
X0231740Y0047432D01*
X0230742Y0048430D02*
X0220784Y0048430D01*
X0221270Y0049429D02*
X0229743Y0049429D01*
X0232404Y0052424D02*
X0241300Y0052424D01*
X0241300Y0051426D02*
X0233403Y0051426D01*
X0234401Y0050427D02*
X0241316Y0050427D01*
X0241730Y0049429D02*
X0235400Y0049429D01*
X0236398Y0048430D02*
X0242216Y0048430D01*
X0243215Y0047432D02*
X0237397Y0047432D01*
X0238395Y0046433D02*
X0245145Y0046433D01*
X0249079Y0044436D02*
X0256693Y0044436D01*
X0256877Y0043437D02*
X0250078Y0043437D01*
X0250400Y0042439D02*
X0257291Y0042439D01*
X0258134Y0041440D02*
X0250400Y0041440D01*
X0250400Y0040442D02*
X0258276Y0040442D01*
X0251684Y0050427D02*
X0282496Y0050427D01*
X0282496Y0051426D02*
X0251700Y0051426D01*
X0251700Y0052424D02*
X0282496Y0052424D01*
X0282496Y0053423D02*
X0251332Y0053423D01*
X0250918Y0054421D02*
X0282496Y0054421D01*
X0282496Y0055420D02*
X0249934Y0055420D01*
X0248215Y0056418D02*
X0282496Y0056418D01*
X0282496Y0057417D02*
X0199500Y0057417D01*
X0199500Y0058415D02*
X0244269Y0058415D01*
X0244291Y0058394D02*
X0245724Y0057800D01*
X0247276Y0057800D01*
X0248709Y0058394D01*
X0249806Y0059491D01*
X0250400Y0060924D01*
X0250400Y0067276D01*
X0249806Y0068709D01*
X0248709Y0069806D01*
X0247276Y0070400D01*
X0245724Y0070400D01*
X0244291Y0069806D01*
X0243194Y0068709D01*
X0242600Y0067276D01*
X0242600Y0060924D01*
X0243194Y0059491D01*
X0244291Y0058394D01*
X0243271Y0059414D02*
X0199500Y0059414D01*
X0199500Y0060412D02*
X0200212Y0060412D01*
X0202788Y0060412D02*
X0210212Y0060412D01*
X0210724Y0060200D02*
X0212276Y0060200D01*
X0213709Y0060794D01*
X0214806Y0061891D01*
X0215400Y0063324D01*
X0215400Y0069676D01*
X0214806Y0071109D01*
X0213709Y0072206D01*
X0212276Y0072800D01*
X0210724Y0072800D01*
X0209291Y0072206D01*
X0208194Y0071109D01*
X0207600Y0069676D01*
X0207600Y0063324D01*
X0208194Y0061891D01*
X0209291Y0060794D01*
X0210724Y0060200D01*
X0212788Y0060412D02*
X0242812Y0060412D01*
X0242600Y0061411D02*
X0214326Y0061411D01*
X0215021Y0062409D02*
X0242600Y0062409D01*
X0242600Y0063408D02*
X0215400Y0063408D01*
X0215400Y0064406D02*
X0242600Y0064406D01*
X0242600Y0065405D02*
X0215400Y0065405D01*
X0215400Y0066403D02*
X0242600Y0066403D01*
X0242652Y0067402D02*
X0215400Y0067402D01*
X0215400Y0068400D02*
X0243066Y0068400D01*
X0243883Y0069399D02*
X0215400Y0069399D01*
X0215101Y0070397D02*
X0245718Y0070397D01*
X0247282Y0070397D02*
X0255718Y0070397D01*
X0255724Y0070400D02*
X0254291Y0069806D01*
X0253194Y0068709D01*
X0252600Y0067276D01*
X0252600Y0060924D01*
X0253194Y0059491D01*
X0254291Y0058394D01*
X0255724Y0057800D01*
X0257276Y0057800D01*
X0258709Y0058394D01*
X0259806Y0059491D01*
X0260400Y0060924D01*
X0260400Y0067276D01*
X0259806Y0068709D01*
X0258709Y0069806D01*
X0257276Y0070400D01*
X0255724Y0070400D01*
X0257282Y0070397D02*
X0265718Y0070397D01*
X0265724Y0070400D02*
X0264291Y0069806D01*
X0263194Y0068709D01*
X0262600Y0067276D01*
X0262600Y0060924D01*
X0263194Y0059491D01*
X0264291Y0058394D01*
X0265724Y0057800D01*
X0267276Y0057800D01*
X0268709Y0058394D01*
X0269806Y0059491D01*
X0270400Y0060924D01*
X0270400Y0067276D01*
X0269806Y0068709D01*
X0268709Y0069806D01*
X0267276Y0070400D01*
X0265724Y0070400D01*
X0267282Y0070397D02*
X0275718Y0070397D01*
X0275724Y0070400D02*
X0274291Y0069806D01*
X0273194Y0068709D01*
X0272600Y0067276D01*
X0272600Y0060924D01*
X0273194Y0059491D01*
X0274291Y0058394D01*
X0275724Y0057800D01*
X0277276Y0057800D01*
X0278709Y0058394D01*
X0279806Y0059491D01*
X0280400Y0060924D01*
X0280400Y0067276D01*
X0279806Y0068709D01*
X0278709Y0069806D01*
X0277276Y0070400D01*
X0275724Y0070400D01*
X0277282Y0070397D02*
X0282496Y0070397D01*
X0282496Y0069399D02*
X0279117Y0069399D01*
X0279934Y0068400D02*
X0282496Y0068400D01*
X0282496Y0067402D02*
X0280348Y0067402D01*
X0280400Y0066403D02*
X0282496Y0066403D01*
X0282496Y0065405D02*
X0280400Y0065405D01*
X0280400Y0064406D02*
X0282496Y0064406D01*
X0282496Y0063408D02*
X0280400Y0063408D01*
X0280400Y0062409D02*
X0282496Y0062409D01*
X0282496Y0061411D02*
X0280400Y0061411D01*
X0280188Y0060412D02*
X0282496Y0060412D01*
X0282496Y0059414D02*
X0279729Y0059414D01*
X0278731Y0058415D02*
X0282496Y0058415D01*
X0274269Y0058415D02*
X0268731Y0058415D01*
X0269729Y0059414D02*
X0273271Y0059414D01*
X0272812Y0060412D02*
X0270188Y0060412D01*
X0270400Y0061411D02*
X0272600Y0061411D01*
X0272600Y0062409D02*
X0270400Y0062409D01*
X0270400Y0063408D02*
X0272600Y0063408D01*
X0272600Y0064406D02*
X0270400Y0064406D01*
X0270400Y0065405D02*
X0272600Y0065405D01*
X0272600Y0066403D02*
X0270400Y0066403D01*
X0270348Y0067402D02*
X0272652Y0067402D01*
X0273066Y0068400D02*
X0269934Y0068400D01*
X0269117Y0069399D02*
X0273883Y0069399D01*
X0282496Y0071396D02*
X0214520Y0071396D01*
X0213255Y0072394D02*
X0282496Y0072394D01*
X0282496Y0073393D02*
X0233908Y0073393D01*
X0234907Y0074391D02*
X0282496Y0074391D01*
X0282496Y0075390D02*
X0235400Y0075390D01*
X0235500Y0074500D02*
X0218500Y0057500D01*
X0213500Y0057500D01*
X0190500Y0034500D01*
X0190476Y0035161D01*
X0190287Y0034972D02*
X0190287Y0031541D01*
X0190665Y0031163D01*
X0190665Y0034972D01*
X0190287Y0034972D01*
X0190287Y0035449D02*
X0190665Y0035449D01*
X0190665Y0034451D02*
X0190287Y0034451D01*
X0190287Y0033452D02*
X0190665Y0033452D01*
X0190665Y0032454D02*
X0190287Y0032454D01*
X0190373Y0031455D02*
X0190665Y0031455D01*
X0187712Y0028460D02*
X0147288Y0028460D01*
X0146290Y0027461D02*
X0188710Y0027461D01*
X0189709Y0026463D02*
X0145291Y0026463D01*
X0144293Y0025464D02*
X0190707Y0025464D01*
X0186713Y0029458D02*
X0148287Y0029458D01*
X0149285Y0030457D02*
X0185715Y0030457D01*
X0184716Y0031455D02*
X0150284Y0031455D01*
X0151282Y0032454D02*
X0183718Y0032454D01*
X0183500Y0033452D02*
X0152281Y0033452D01*
X0153279Y0034451D02*
X0183500Y0034451D01*
X0183500Y0035449D02*
X0154278Y0035449D01*
X0155276Y0036448D02*
X0183500Y0036448D01*
X0183500Y0037446D02*
X0156275Y0037446D01*
X0157273Y0038445D02*
X0183500Y0038445D01*
X0183500Y0039443D02*
X0158272Y0039443D01*
X0159270Y0040442D02*
X0183500Y0040442D01*
X0183500Y0041440D02*
X0160269Y0041440D01*
X0161267Y0042439D02*
X0183500Y0042439D01*
X0183500Y0043437D02*
X0162266Y0043437D01*
X0163264Y0044436D02*
X0183500Y0044436D01*
X0183500Y0045434D02*
X0164263Y0045434D01*
X0165261Y0046433D02*
X0183500Y0046433D01*
X0183500Y0047432D02*
X0166260Y0047432D01*
X0167258Y0048430D02*
X0179055Y0048430D01*
X0178056Y0049429D02*
X0168257Y0049429D01*
X0169255Y0050427D02*
X0177600Y0050427D01*
X0177600Y0051426D02*
X0170254Y0051426D01*
X0171252Y0052424D02*
X0177600Y0052424D01*
X0177907Y0053423D02*
X0172251Y0053423D01*
X0173250Y0054421D02*
X0178906Y0054421D01*
X0175247Y0056418D02*
X0183500Y0056418D01*
X0183500Y0055420D02*
X0174248Y0055420D01*
X0176245Y0057417D02*
X0183500Y0057417D01*
X0183500Y0058415D02*
X0177244Y0058415D01*
X0178242Y0059414D02*
X0183500Y0059414D01*
X0183500Y0060412D02*
X0182788Y0060412D01*
X0180212Y0060412D02*
X0179241Y0060412D01*
X0177500Y0061500D02*
X0141500Y0025500D01*
X0086500Y0025500D01*
X0085500Y0026500D01*
X0083027Y0025464D02*
X0003968Y0025464D01*
X0003968Y0024466D02*
X0083743Y0024466D01*
X0082819Y0026463D02*
X0003968Y0026463D01*
X0003968Y0027461D02*
X0082996Y0027461D01*
X0083668Y0028460D02*
X0003968Y0028460D01*
X0003968Y0029458D02*
X0056713Y0029458D01*
X0055715Y0030457D02*
X0003968Y0030457D01*
X0003968Y0031455D02*
X0054716Y0031455D01*
X0053718Y0032454D02*
X0003968Y0032454D01*
X0003968Y0033452D02*
X0052719Y0033452D01*
X0051721Y0034451D02*
X0003968Y0034451D01*
X0003968Y0035449D02*
X0050722Y0035449D01*
X0049724Y0036448D02*
X0003968Y0036448D01*
X0003968Y0037446D02*
X0048725Y0037446D01*
X0047727Y0038445D02*
X0003968Y0038445D01*
X0003968Y0039443D02*
X0046728Y0039443D01*
X0045730Y0040442D02*
X0003968Y0040442D01*
X0003968Y0041440D02*
X0044731Y0041440D01*
X0043733Y0042439D02*
X0003968Y0042439D01*
X0003968Y0043437D02*
X0042734Y0043437D01*
X0041736Y0044436D02*
X0003968Y0044436D01*
X0003968Y0045434D02*
X0040737Y0045434D01*
X0039739Y0046433D02*
X0003968Y0046433D01*
X0003968Y0047432D02*
X0038740Y0047432D01*
X0037742Y0048430D02*
X0003968Y0048430D01*
X0003968Y0049429D02*
X0036743Y0049429D01*
X0035745Y0050427D02*
X0003968Y0050427D01*
X0003968Y0051426D02*
X0034746Y0051426D01*
X0033747Y0052424D02*
X0003968Y0052424D01*
X0003968Y0053423D02*
X0032749Y0053423D01*
X0031750Y0054421D02*
X0003968Y0054421D01*
X0003968Y0055420D02*
X0030752Y0055420D01*
X0029753Y0056418D02*
X0003968Y0056418D01*
X0003968Y0057417D02*
X0028755Y0057417D01*
X0027756Y0058415D02*
X0003968Y0058415D01*
X0003968Y0059414D02*
X0026758Y0059414D01*
X0025759Y0060412D02*
X0003968Y0060412D01*
X0003968Y0061411D02*
X0024761Y0061411D01*
X0023762Y0062409D02*
X0003968Y0062409D01*
X0003968Y0063408D02*
X0022764Y0063408D01*
X0021765Y0064406D02*
X0003968Y0064406D01*
X0003968Y0065405D02*
X0020767Y0065405D01*
X0019768Y0066403D02*
X0003968Y0066403D01*
X0003968Y0067402D02*
X0018770Y0067402D01*
X0017771Y0068400D02*
X0003968Y0068400D01*
X0003968Y0069399D02*
X0016773Y0069399D01*
X0015774Y0070397D02*
X0003968Y0070397D01*
X0003968Y0071396D02*
X0014776Y0071396D01*
X0013777Y0072394D02*
X0003968Y0072394D01*
X0003968Y0073393D02*
X0012779Y0073393D01*
X0011780Y0074391D02*
X0003968Y0074391D01*
X0003968Y0075390D02*
X0010782Y0075390D01*
X0009783Y0076388D02*
X0003968Y0076388D01*
X0003968Y0077387D02*
X0008785Y0077387D01*
X0008500Y0078385D02*
X0003968Y0078385D01*
X0003968Y0079384D02*
X0008500Y0079384D01*
X0008500Y0080382D02*
X0003968Y0080382D01*
X0003968Y0081381D02*
X0008500Y0081381D01*
X0008500Y0082379D02*
X0003968Y0082379D01*
X0003968Y0083378D02*
X0008500Y0083378D01*
X0008500Y0084376D02*
X0003968Y0084376D01*
X0003968Y0085375D02*
X0008500Y0085375D01*
X0008500Y0086373D02*
X0003968Y0086373D01*
X0003968Y0087372D02*
X0008500Y0087372D01*
X0008500Y0088370D02*
X0003968Y0088370D01*
X0003968Y0089369D02*
X0008500Y0089369D01*
X0008500Y0090368D02*
X0003968Y0090368D01*
X0003968Y0091366D02*
X0008500Y0091366D01*
X0008500Y0092365D02*
X0003968Y0092365D01*
X0003968Y0093363D02*
X0008500Y0093363D01*
X0008500Y0094362D02*
X0003968Y0094362D01*
X0003968Y0095360D02*
X0008500Y0095360D01*
X0008500Y0096359D02*
X0003968Y0096359D01*
X0003968Y0097357D02*
X0008500Y0097357D01*
X0008500Y0098356D02*
X0003968Y0098356D01*
X0003968Y0099354D02*
X0008500Y0099354D01*
X0008500Y0100353D02*
X0003968Y0100353D01*
X0003968Y0101351D02*
X0008500Y0101351D01*
X0008500Y0102350D02*
X0003968Y0102350D01*
X0003968Y0103348D02*
X0008500Y0103348D01*
X0008500Y0104347D02*
X0003968Y0104347D01*
X0003968Y0105345D02*
X0008500Y0105345D01*
X0008500Y0106344D02*
X0003968Y0106344D01*
X0003968Y0107342D02*
X0008500Y0107342D01*
X0008500Y0108341D02*
X0003968Y0108341D01*
X0003968Y0109339D02*
X0008500Y0109339D01*
X0008500Y0110338D02*
X0003968Y0110338D01*
X0003968Y0111336D02*
X0008500Y0111336D01*
X0008500Y0112335D02*
X0003968Y0112335D01*
X0003968Y0113333D02*
X0008500Y0113333D01*
X0008500Y0114332D02*
X0003968Y0114332D01*
X0003968Y0115330D02*
X0008500Y0115330D01*
X0008500Y0116329D02*
X0003968Y0116329D01*
X0003968Y0117327D02*
X0008500Y0117327D01*
X0008500Y0118326D02*
X0003968Y0118326D01*
X0003968Y0119324D02*
X0008500Y0119324D01*
X0008500Y0120323D02*
X0003968Y0120323D01*
X0003968Y0121321D02*
X0008500Y0121321D01*
X0008500Y0122320D02*
X0003968Y0122320D01*
X0003968Y0123318D02*
X0008500Y0123318D01*
X0008500Y0124317D02*
X0003968Y0124317D01*
X0003968Y0125315D02*
X0008500Y0125315D01*
X0008500Y0126314D02*
X0003968Y0126314D01*
X0003968Y0127312D02*
X0008500Y0127312D01*
X0008500Y0128311D02*
X0003968Y0128311D01*
X0003968Y0129309D02*
X0008500Y0129309D01*
X0008500Y0130308D02*
X0003968Y0130308D01*
X0003968Y0131306D02*
X0008500Y0131306D01*
X0008500Y0132305D02*
X0003968Y0132305D01*
X0003968Y0133303D02*
X0008500Y0133303D01*
X0008500Y0134302D02*
X0003968Y0134302D01*
X0003968Y0135301D02*
X0008500Y0135301D01*
X0008500Y0136299D02*
X0003968Y0136299D01*
X0003968Y0137298D02*
X0008500Y0137298D01*
X0008500Y0138296D02*
X0003968Y0138296D01*
X0003968Y0139295D02*
X0008500Y0139295D01*
X0009465Y0140293D02*
X0003968Y0140293D01*
X0003968Y0141292D02*
X0010463Y0141292D01*
X0011462Y0142290D02*
X0003968Y0142290D01*
X0003968Y0143289D02*
X0012460Y0143289D01*
X0013459Y0144287D02*
X0003968Y0144287D01*
X0003968Y0145286D02*
X0014457Y0145286D01*
X0015456Y0146284D02*
X0003968Y0146284D01*
X0003968Y0147283D02*
X0016454Y0147283D01*
X0017453Y0148281D02*
X0003968Y0148281D01*
X0003968Y0149280D02*
X0018451Y0149280D01*
X0018677Y0150278D02*
X0003968Y0150278D01*
X0003968Y0151277D02*
X0017815Y0151277D01*
X0017401Y0152275D02*
X0003968Y0152275D01*
X0003968Y0153274D02*
X0017323Y0153274D01*
X0017435Y0154272D02*
X0003968Y0154272D01*
X0003968Y0155271D02*
X0017849Y0155271D01*
X0018760Y0156269D02*
X0003968Y0156269D01*
X0003968Y0157268D02*
X0029215Y0157268D01*
X0029134Y0158266D02*
X0003968Y0158266D01*
X0003968Y0159265D02*
X0029243Y0159265D01*
X0029657Y0160263D02*
X0003968Y0160263D01*
X0003968Y0165256D02*
X0068500Y0165256D01*
X0068500Y0166254D02*
X0003968Y0166254D01*
X0003968Y0175241D02*
X0013386Y0175241D01*
X0013386Y0176239D02*
X0003968Y0176239D01*
X0003968Y0177238D02*
X0013386Y0177238D01*
X0013782Y0178237D02*
X0003968Y0178237D01*
X0003968Y0179235D02*
X0014780Y0179235D01*
X0015779Y0180234D02*
X0003968Y0180234D01*
X0003968Y0181232D02*
X0016777Y0181232D01*
X0003968Y0192216D02*
X0050908Y0192216D01*
X0048961Y0193214D02*
X0036697Y0193214D01*
X0037517Y0193554D02*
X0034583Y0192339D01*
X0031409Y0192339D01*
X0028476Y0193554D01*
X0026231Y0195798D01*
X0025016Y0198732D01*
X0025016Y0201906D01*
X0026231Y0204839D01*
X0028476Y0207084D01*
X0031409Y0208299D01*
X0034583Y0208299D01*
X0037517Y0207084D01*
X0039761Y0204839D01*
X0040976Y0201906D01*
X0040976Y0198732D01*
X0039761Y0195798D01*
X0037517Y0193554D01*
X0038176Y0194213D02*
X0047963Y0194213D01*
X0046964Y0195211D02*
X0039174Y0195211D01*
X0039932Y0196210D02*
X0046468Y0196210D01*
X0046054Y0197208D02*
X0040345Y0197208D01*
X0040759Y0198207D02*
X0045641Y0198207D01*
X0045488Y0199205D02*
X0040976Y0199205D01*
X0040976Y0200204D02*
X0045488Y0200204D01*
X0045488Y0201202D02*
X0040976Y0201202D01*
X0040854Y0202201D02*
X0045545Y0202201D01*
X0045959Y0203199D02*
X0040441Y0203199D01*
X0040027Y0204198D02*
X0046373Y0204198D01*
X0046786Y0205196D02*
X0039405Y0205196D01*
X0038406Y0206195D02*
X0047732Y0206195D01*
X0048731Y0207193D02*
X0037253Y0207193D01*
X0034843Y0208192D02*
X0050352Y0208192D01*
X0052984Y0211187D02*
X0003968Y0211187D01*
X0003968Y0210189D02*
X0053983Y0210189D01*
X0054981Y0209190D02*
X0003968Y0209190D01*
X0003968Y0208192D02*
X0031149Y0208192D01*
X0028739Y0207193D02*
X0003968Y0207193D01*
X0003968Y0206195D02*
X0027586Y0206195D01*
X0026588Y0205196D02*
X0003968Y0205196D01*
X0003968Y0204198D02*
X0025965Y0204198D01*
X0025551Y0203199D02*
X0003968Y0203199D01*
X0003968Y0202201D02*
X0025138Y0202201D01*
X0025016Y0201202D02*
X0003968Y0201202D01*
X0003968Y0200204D02*
X0025016Y0200204D01*
X0025016Y0199205D02*
X0003968Y0199205D01*
X0003968Y0198207D02*
X0025233Y0198207D01*
X0025647Y0197208D02*
X0003968Y0197208D01*
X0003968Y0196210D02*
X0026060Y0196210D01*
X0026818Y0195211D02*
X0003968Y0195211D01*
X0003968Y0194213D02*
X0027816Y0194213D01*
X0029295Y0193214D02*
X0003968Y0193214D01*
X0003968Y0212186D02*
X0051986Y0212186D01*
X0050987Y0213184D02*
X0003968Y0213184D01*
X0003968Y0214183D02*
X0049989Y0214183D01*
X0048990Y0215181D02*
X0003968Y0215181D01*
X0003968Y0216180D02*
X0047992Y0216180D01*
X0046993Y0217178D02*
X0003968Y0217178D01*
X0003968Y0218177D02*
X0045995Y0218177D01*
X0044996Y0219175D02*
X0003968Y0219175D01*
X0003968Y0220174D02*
X0043998Y0220174D01*
X0042999Y0221172D02*
X0003968Y0221172D01*
X0003968Y0222171D02*
X0042001Y0222171D01*
X0041002Y0223170D02*
X0003968Y0223170D01*
X0003968Y0224168D02*
X0040004Y0224168D01*
X0039005Y0225167D02*
X0003968Y0225167D01*
X0003968Y0226165D02*
X0038007Y0226165D01*
X0037008Y0227164D02*
X0003968Y0227164D01*
X0003968Y0228162D02*
X0036009Y0228162D01*
X0035011Y0229161D02*
X0003968Y0229161D01*
X0003968Y0230159D02*
X0034012Y0230159D01*
X0033014Y0231158D02*
X0003968Y0231158D01*
X0003968Y0232156D02*
X0032015Y0232156D01*
X0031017Y0233155D02*
X0003968Y0233155D01*
X0003968Y0234153D02*
X0030018Y0234153D01*
X0029500Y0235152D02*
X0003968Y0235152D01*
X0003968Y0236150D02*
X0029500Y0236150D01*
X0029500Y0237149D02*
X0003968Y0237149D01*
X0003968Y0238147D02*
X0029500Y0238147D01*
X0029500Y0239146D02*
X0003968Y0239146D01*
X0003968Y0240144D02*
X0029500Y0240144D01*
X0029500Y0241143D02*
X0003968Y0241143D01*
X0003968Y0242141D02*
X0029500Y0242141D01*
X0029500Y0243140D02*
X0003968Y0243140D01*
X0003968Y0244138D02*
X0029500Y0244138D01*
X0028499Y0245137D02*
X0003968Y0245137D01*
X0003968Y0246135D02*
X0027609Y0246135D01*
X0027195Y0247134D02*
X0003968Y0247134D01*
X0003968Y0248132D02*
X0027000Y0248132D01*
X0027000Y0249131D02*
X0003968Y0249131D01*
X0003968Y0250129D02*
X0027000Y0250129D01*
X0027000Y0251128D02*
X0003968Y0251128D01*
X0003968Y0252126D02*
X0027000Y0252126D01*
X0027000Y0253125D02*
X0003968Y0253125D01*
X0003968Y0254123D02*
X0027000Y0254123D01*
X0027000Y0255122D02*
X0003968Y0255122D01*
X0003968Y0256120D02*
X0027300Y0256120D01*
X0027755Y0257119D02*
X0003968Y0257119D01*
X0003968Y0258117D02*
X0028753Y0258117D01*
X0020659Y0268103D02*
X0167380Y0268103D01*
X0167295Y0268187D02*
X0169762Y0265721D01*
X0172984Y0264386D01*
X0176472Y0264386D01*
X0179695Y0265721D01*
X0182161Y0268187D01*
X0183496Y0271410D01*
X0183496Y0274898D01*
X0182161Y0278120D01*
X0179695Y0280586D01*
X0176472Y0281921D01*
X0172984Y0281921D01*
X0169762Y0280586D01*
X0167295Y0278120D01*
X0165961Y0274898D01*
X0165961Y0271410D01*
X0167295Y0268187D01*
X0166917Y0269101D02*
X0021123Y0269101D01*
X0020744Y0268187D02*
X0022079Y0271410D01*
X0022079Y0274898D01*
X0020744Y0278120D01*
X0018278Y0280586D01*
X0015055Y0281921D01*
X0011567Y0281921D01*
X0008345Y0280586D01*
X0005878Y0278120D01*
X0004543Y0274898D01*
X0004543Y0271410D01*
X0005878Y0268187D01*
X0008345Y0265721D01*
X0011567Y0264386D01*
X0015055Y0264386D01*
X0018278Y0265721D01*
X0020744Y0268187D01*
X0019661Y0267104D02*
X0168378Y0267104D01*
X0169377Y0266105D02*
X0018662Y0266105D01*
X0016796Y0265107D02*
X0171243Y0265107D01*
X0166503Y0270100D02*
X0021536Y0270100D01*
X0021950Y0271098D02*
X0166090Y0271098D01*
X0165961Y0272097D02*
X0022079Y0272097D01*
X0022079Y0273095D02*
X0165961Y0273095D01*
X0165961Y0274094D02*
X0022079Y0274094D01*
X0021998Y0275092D02*
X0166041Y0275092D01*
X0166455Y0276091D02*
X0021585Y0276091D01*
X0021171Y0277089D02*
X0166868Y0277089D01*
X0167282Y0278088D02*
X0020757Y0278088D01*
X0019778Y0279086D02*
X0168262Y0279086D01*
X0169260Y0280085D02*
X0018779Y0280085D01*
X0017078Y0281083D02*
X0170961Y0281083D01*
X0178496Y0281083D02*
X0269386Y0281083D01*
X0267685Y0280085D02*
X0180197Y0280085D01*
X0181195Y0279086D02*
X0266687Y0279086D01*
X0265707Y0278088D02*
X0182175Y0278088D01*
X0182588Y0277089D02*
X0265294Y0277089D01*
X0264880Y0276091D02*
X0183002Y0276091D01*
X0183415Y0275092D02*
X0264466Y0275092D01*
X0264386Y0274094D02*
X0183496Y0274094D01*
X0183496Y0273095D02*
X0264386Y0273095D01*
X0264386Y0272097D02*
X0183496Y0272097D01*
X0183367Y0271098D02*
X0264515Y0271098D01*
X0264928Y0270100D02*
X0182953Y0270100D01*
X0182540Y0269101D02*
X0265342Y0269101D01*
X0265805Y0268103D02*
X0182077Y0268103D01*
X0181078Y0267104D02*
X0266804Y0267104D01*
X0267802Y0266105D02*
X0180080Y0266105D01*
X0178213Y0265107D02*
X0269668Y0265107D01*
X0256935Y0243140D02*
X0033500Y0243140D01*
X0033500Y0242141D02*
X0086313Y0242141D01*
X0085314Y0241143D02*
X0033500Y0241143D01*
X0033500Y0240144D02*
X0084316Y0240144D01*
X0083317Y0239146D02*
X0033500Y0239146D01*
X0033500Y0238147D02*
X0082319Y0238147D01*
X0081320Y0237149D02*
X0033500Y0237149D01*
X0033678Y0236150D02*
X0080322Y0236150D01*
X0079323Y0235152D02*
X0034677Y0235152D01*
X0035675Y0234153D02*
X0078325Y0234153D01*
X0077326Y0233155D02*
X0036674Y0233155D01*
X0037672Y0232156D02*
X0076328Y0232156D01*
X0075329Y0231158D02*
X0038671Y0231158D01*
X0039669Y0230159D02*
X0074331Y0230159D01*
X0073332Y0229161D02*
X0040668Y0229161D01*
X0041666Y0228162D02*
X0072334Y0228162D01*
X0071335Y0227164D02*
X0042665Y0227164D01*
X0043663Y0226165D02*
X0070500Y0226165D01*
X0070500Y0225167D02*
X0044662Y0225167D01*
X0045660Y0224168D02*
X0070500Y0224168D01*
X0070500Y0223170D02*
X0046659Y0223170D01*
X0047657Y0222171D02*
X0070500Y0222171D01*
X0070500Y0221172D02*
X0048656Y0221172D01*
X0049654Y0220174D02*
X0070500Y0220174D01*
X0070500Y0219175D02*
X0050653Y0219175D01*
X0051651Y0218177D02*
X0070500Y0218177D01*
X0070500Y0217178D02*
X0052650Y0217178D01*
X0053648Y0216180D02*
X0070500Y0216180D01*
X0070500Y0215181D02*
X0054647Y0215181D01*
X0055645Y0214183D02*
X0070500Y0214183D01*
X0070500Y0213184D02*
X0056644Y0213184D01*
X0063024Y0200204D02*
X0063968Y0200204D01*
X0063024Y0199205D02*
X0064966Y0199205D01*
X0065965Y0198207D02*
X0062871Y0198207D01*
X0081500Y0201500D02*
X0092500Y0201500D01*
X0104500Y0189500D01*
X0109046Y0191217D02*
X0112600Y0191217D01*
X0112600Y0190219D02*
X0110135Y0190219D01*
X0111002Y0189220D02*
X0112600Y0189220D01*
X0112642Y0188222D02*
X0111415Y0188222D01*
X0111700Y0187223D02*
X0113056Y0187223D01*
X0113860Y0186225D02*
X0111700Y0186225D01*
X0110583Y0183229D02*
X0151943Y0183229D01*
X0152941Y0182231D02*
X0109584Y0182231D01*
X0108925Y0181232D02*
X0114075Y0181232D01*
X0112738Y0180234D02*
X0110262Y0180234D01*
X0111104Y0179235D02*
X0111896Y0179235D01*
X0111698Y0174242D02*
X0111302Y0174242D01*
X0110739Y0173244D02*
X0112261Y0173244D01*
X0113259Y0172245D02*
X0109741Y0172245D01*
X0107668Y0171247D02*
X0115332Y0171247D01*
X0117668Y0171247D02*
X0120419Y0171247D01*
X0119741Y0172245D02*
X0121417Y0172245D01*
X0120739Y0173244D02*
X0122261Y0173244D01*
X0121698Y0174242D02*
X0121302Y0174242D01*
X0119420Y0170248D02*
X0107181Y0170248D01*
X0106884Y0169250D02*
X0118421Y0169250D01*
X0117423Y0168251D02*
X0106043Y0168251D01*
X0104500Y0170500D02*
X0088500Y0186500D01*
X0110044Y0192216D02*
X0112600Y0192216D01*
X0112600Y0193214D02*
X0111043Y0193214D01*
X0112041Y0194213D02*
X0112600Y0194213D01*
X0116035Y0198207D02*
X0167691Y0198207D01*
X0167600Y0197208D02*
X0158704Y0197208D01*
X0159706Y0196210D02*
X0167600Y0196210D01*
X0167383Y0195211D02*
X0160178Y0195211D01*
X0160400Y0194213D02*
X0166384Y0194213D01*
X0165386Y0193214D02*
X0160400Y0193214D01*
X0160400Y0192216D02*
X0164387Y0192216D01*
X0163389Y0191217D02*
X0160400Y0191217D01*
X0160400Y0190219D02*
X0162390Y0190219D01*
X0161392Y0189220D02*
X0160400Y0189220D01*
X0160357Y0188222D02*
X0160393Y0188222D01*
X0152643Y0188222D02*
X0152607Y0188222D01*
X0152600Y0189220D02*
X0151608Y0189220D01*
X0152600Y0190219D02*
X0150610Y0190219D01*
X0149611Y0191217D02*
X0152600Y0191217D01*
X0152600Y0192216D02*
X0148613Y0192216D01*
X0147614Y0193214D02*
X0152600Y0193214D01*
X0152600Y0194213D02*
X0130400Y0194213D01*
X0130178Y0195211D02*
X0152822Y0195211D01*
X0153294Y0196210D02*
X0129706Y0196210D01*
X0128704Y0197208D02*
X0154296Y0197208D01*
X0146500Y0191500D02*
X0126500Y0191500D01*
X0123860Y0186225D02*
X0119140Y0186225D01*
X0119944Y0187223D02*
X0123056Y0187223D01*
X0122642Y0188222D02*
X0120357Y0188222D01*
X0120400Y0189220D02*
X0122600Y0189220D01*
X0122600Y0190219D02*
X0120400Y0190219D01*
X0120400Y0191217D02*
X0122600Y0191217D01*
X0122600Y0192216D02*
X0120400Y0192216D01*
X0120400Y0193214D02*
X0122600Y0193214D01*
X0122600Y0194213D02*
X0120400Y0194213D01*
X0120178Y0195211D02*
X0122822Y0195211D01*
X0123294Y0196210D02*
X0119706Y0196210D01*
X0118704Y0197208D02*
X0124296Y0197208D01*
X0117034Y0199205D02*
X0168690Y0199205D01*
X0171200Y0203199D02*
X0171800Y0203199D01*
X0171800Y0204198D02*
X0171200Y0204198D01*
X0171200Y0205196D02*
X0171800Y0205196D01*
X0171800Y0206195D02*
X0171200Y0206195D01*
X0171500Y0206500D02*
X0159500Y0218500D01*
X0135500Y0218500D01*
X0135500Y0208500D01*
X0130400Y0212186D02*
X0152600Y0212186D01*
X0152600Y0213184D02*
X0130400Y0213184D01*
X0130400Y0214183D02*
X0152600Y0214183D01*
X0152809Y0215181D02*
X0130191Y0215181D01*
X0129735Y0216180D02*
X0153265Y0216180D01*
X0154263Y0217178D02*
X0128737Y0217178D01*
X0124263Y0217178D02*
X0118737Y0217178D01*
X0119735Y0216180D02*
X0123265Y0216180D01*
X0122809Y0215181D02*
X0120191Y0215181D01*
X0120400Y0214183D02*
X0122600Y0214183D01*
X0122600Y0213184D02*
X0120400Y0213184D01*
X0120400Y0212186D02*
X0122600Y0212186D01*
X0122600Y0211187D02*
X0120400Y0211187D01*
X0120400Y0210189D02*
X0122360Y0210189D01*
X0121362Y0209190D02*
X0120400Y0209190D01*
X0120363Y0208192D02*
X0120345Y0208192D01*
X0111020Y0219175D02*
X0177600Y0219175D01*
X0177806Y0220174D02*
X0110180Y0220174D01*
X0108808Y0221172D02*
X0178257Y0221172D01*
X0185400Y0215181D02*
X0187600Y0215181D01*
X0187600Y0214183D02*
X0185400Y0214183D01*
X0185342Y0213184D02*
X0187706Y0213184D01*
X0188088Y0212186D02*
X0184928Y0212186D01*
X0184103Y0211187D02*
X0188897Y0211187D01*
X0181500Y0206500D02*
X0171500Y0206500D01*
X0171200Y0207193D02*
X0171800Y0207193D01*
X0171800Y0208192D02*
X0171200Y0208192D01*
X0171200Y0209190D02*
X0171800Y0209190D01*
X0171800Y0210189D02*
X0171200Y0210189D01*
X0173327Y0210189D02*
X0206983Y0210189D01*
X0207981Y0209190D02*
X0174325Y0209190D01*
X0175324Y0208192D02*
X0208980Y0208192D01*
X0205984Y0211187D02*
X0204103Y0211187D01*
X0204928Y0212186D02*
X0204986Y0212186D01*
X0201800Y0192216D02*
X0201200Y0192216D01*
X0201200Y0191217D02*
X0201800Y0191217D01*
X0201800Y0190219D02*
X0201200Y0190219D01*
X0201200Y0189220D02*
X0201800Y0189220D01*
X0201800Y0188222D02*
X0201200Y0188222D01*
X0201200Y0187223D02*
X0201800Y0187223D01*
X0201200Y0186225D02*
X0195400Y0186225D01*
X0189314Y0192216D02*
X0183686Y0192216D01*
X0184698Y0191217D02*
X0188302Y0191217D01*
X0187825Y0190219D02*
X0185175Y0190219D01*
X0185400Y0189220D02*
X0187600Y0189220D01*
X0187600Y0188222D02*
X0185400Y0188222D01*
X0185400Y0187223D02*
X0187600Y0187223D01*
X0187600Y0186225D02*
X0185400Y0186225D01*
X0185400Y0185226D02*
X0187600Y0185226D01*
X0187600Y0184228D02*
X0185400Y0184228D01*
X0185361Y0183229D02*
X0187639Y0183229D01*
X0188053Y0182231D02*
X0184947Y0182231D01*
X0204941Y0182231D02*
X0208053Y0182231D01*
X0207639Y0183229D02*
X0205303Y0183229D01*
X0205400Y0184228D02*
X0207600Y0184228D01*
X0207600Y0185226D02*
X0205400Y0185226D01*
X0215400Y0185226D02*
X0217600Y0185226D01*
X0217600Y0184228D02*
X0215400Y0184228D01*
X0215361Y0183229D02*
X0217697Y0183229D01*
X0218059Y0182231D02*
X0214947Y0182231D01*
X0220262Y0180234D02*
X0220947Y0180234D01*
X0221200Y0180234D02*
X0221800Y0180234D01*
X0222053Y0180234D02*
X0222738Y0180234D01*
X0221896Y0179235D02*
X0221104Y0179235D01*
X0221200Y0181232D02*
X0221800Y0181232D01*
X0221800Y0182231D02*
X0221200Y0182231D01*
X0221200Y0183229D02*
X0221800Y0183229D01*
X0221800Y0184228D02*
X0221200Y0184228D01*
X0221200Y0185226D02*
X0221800Y0185226D01*
X0221800Y0187223D02*
X0221200Y0187223D01*
X0221200Y0188222D02*
X0221800Y0188222D01*
X0221800Y0189220D02*
X0221200Y0189220D01*
X0221200Y0190219D02*
X0221800Y0190219D01*
X0221800Y0191217D02*
X0221200Y0191217D01*
X0221200Y0192216D02*
X0221800Y0192216D01*
X0225400Y0185226D02*
X0227600Y0185226D01*
X0227600Y0184228D02*
X0225400Y0184228D01*
X0225303Y0183229D02*
X0227639Y0183229D01*
X0228053Y0182231D02*
X0224941Y0182231D01*
X0234947Y0182231D02*
X0238059Y0182231D01*
X0237697Y0183229D02*
X0235361Y0183229D01*
X0235400Y0184228D02*
X0237600Y0184228D01*
X0237600Y0185226D02*
X0235400Y0185226D01*
X0223500Y0156500D02*
X0251500Y0156500D01*
X0236500Y0136500D02*
X0227500Y0145500D01*
X0189500Y0145500D01*
X0173500Y0161500D01*
X0171500Y0161500D01*
X0171500Y0143500D02*
X0225500Y0143500D01*
X0233500Y0135500D01*
X0253500Y0122500D02*
X0207500Y0168500D01*
X0150500Y0168500D01*
X0147500Y0165500D01*
X0147500Y0129500D01*
X0142500Y0124500D01*
X0110500Y0124500D01*
X0098500Y0136500D01*
X0100988Y0137500D02*
X0110000Y0137500D01*
X0109653Y0137356D01*
X0109014Y0136929D01*
X0108471Y0136386D01*
X0108044Y0135747D01*
X0107750Y0135038D01*
X0107600Y0134284D01*
X0107600Y0131800D01*
X0111200Y0131800D01*
X0111200Y0131200D01*
X0107600Y0131200D01*
X0107600Y0130228D01*
X0101181Y0136647D01*
X0101181Y0137033D01*
X0100988Y0137500D01*
X0101072Y0137298D02*
X0109565Y0137298D01*
X0108412Y0136299D02*
X0101529Y0136299D01*
X0102528Y0135301D02*
X0107859Y0135301D01*
X0107604Y0134302D02*
X0103526Y0134302D01*
X0104525Y0133303D02*
X0107600Y0133303D01*
X0107600Y0132305D02*
X0105523Y0132305D01*
X0106522Y0131306D02*
X0111200Y0131306D01*
X0111800Y0131306D02*
X0121200Y0131306D01*
X0121200Y0131200D02*
X0117600Y0131200D01*
X0117600Y0128716D01*
X0117750Y0127962D01*
X0118044Y0127253D01*
X0118471Y0126614D01*
X0118585Y0126500D01*
X0114415Y0126500D01*
X0114529Y0126614D01*
X0114956Y0127253D01*
X0115250Y0127962D01*
X0115400Y0128716D01*
X0115400Y0131200D01*
X0111800Y0131200D01*
X0111800Y0131800D01*
X0115400Y0131800D01*
X0115400Y0134284D01*
X0115250Y0135038D01*
X0114956Y0135747D01*
X0114529Y0136386D01*
X0113986Y0136929D01*
X0113347Y0137356D01*
X0113000Y0137500D01*
X0120000Y0137500D01*
X0119653Y0137356D01*
X0119014Y0136929D01*
X0118471Y0136386D01*
X0118044Y0135747D01*
X0117750Y0135038D01*
X0117600Y0134284D01*
X0117600Y0131800D01*
X0121200Y0131800D01*
X0121200Y0131200D01*
X0121800Y0131200D02*
X0121800Y0131800D01*
X0125400Y0131800D01*
X0125400Y0134284D01*
X0125250Y0135038D01*
X0124956Y0135747D01*
X0124529Y0136386D01*
X0123986Y0136929D01*
X0123347Y0137356D01*
X0123000Y0137500D01*
X0130000Y0137500D01*
X0129653Y0137356D01*
X0129014Y0136929D01*
X0128471Y0136386D01*
X0128044Y0135747D01*
X0127750Y0135038D01*
X0127600Y0134284D01*
X0127600Y0131800D01*
X0131200Y0131800D01*
X0131200Y0131200D01*
X0127600Y0131200D01*
X0127600Y0128716D01*
X0127750Y0127962D01*
X0128044Y0127253D01*
X0128471Y0126614D01*
X0128585Y0126500D01*
X0124415Y0126500D01*
X0124529Y0126614D01*
X0124956Y0127253D01*
X0125250Y0127962D01*
X0125400Y0128716D01*
X0125400Y0131200D01*
X0121800Y0131200D01*
X0121800Y0131306D02*
X0131200Y0131306D01*
X0131800Y0131306D02*
X0136865Y0131306D01*
X0137600Y0130572D02*
X0135400Y0132772D01*
X0135400Y0131800D01*
X0131800Y0131800D01*
X0131800Y0131200D01*
X0135400Y0131200D01*
X0135400Y0128716D01*
X0135250Y0127962D01*
X0134956Y0127253D01*
X0134529Y0126614D01*
X0134415Y0126500D01*
X0138585Y0126500D01*
X0138194Y0126891D01*
X0137600Y0128324D01*
X0137600Y0130572D01*
X0137600Y0130308D02*
X0135400Y0130308D01*
X0135400Y0129309D02*
X0137600Y0129309D01*
X0137605Y0128311D02*
X0135319Y0128311D01*
X0134981Y0127312D02*
X0138019Y0127312D01*
X0135867Y0132305D02*
X0135400Y0132305D01*
X0137529Y0136299D02*
X0138384Y0136299D01*
X0139511Y0137298D02*
X0136531Y0137298D01*
X0129565Y0137298D02*
X0123435Y0137298D01*
X0124587Y0136299D02*
X0128412Y0136299D01*
X0127859Y0135301D02*
X0125141Y0135301D01*
X0125396Y0134302D02*
X0127604Y0134302D01*
X0127600Y0133303D02*
X0125400Y0133303D01*
X0125400Y0132305D02*
X0127600Y0132305D01*
X0127600Y0130308D02*
X0125400Y0130308D01*
X0125400Y0129309D02*
X0127600Y0129309D01*
X0127681Y0128311D02*
X0125319Y0128311D01*
X0124981Y0127312D02*
X0128019Y0127312D01*
X0118019Y0127312D02*
X0114981Y0127312D01*
X0115319Y0128311D02*
X0117681Y0128311D01*
X0117600Y0129309D02*
X0115400Y0129309D01*
X0115400Y0130308D02*
X0117600Y0130308D01*
X0117600Y0132305D02*
X0115400Y0132305D01*
X0115400Y0133303D02*
X0117600Y0133303D01*
X0117604Y0134302D02*
X0115396Y0134302D01*
X0115141Y0135301D02*
X0117859Y0135301D01*
X0118412Y0136299D02*
X0114587Y0136299D01*
X0113435Y0137298D02*
X0119565Y0137298D01*
X0107600Y0130308D02*
X0107520Y0130308D01*
X0102856Y0125315D02*
X0083200Y0125315D01*
X0084199Y0124317D02*
X0103855Y0124317D01*
X0104853Y0123318D02*
X0085197Y0123318D01*
X0085400Y0122320D02*
X0105852Y0122320D01*
X0104290Y0121321D02*
X0081800Y0121321D01*
X0081200Y0121321D02*
X0075500Y0121321D01*
X0071846Y0118326D02*
X0071500Y0118326D01*
X0071500Y0119324D02*
X0071500Y0119324D01*
X0071500Y0120323D02*
X0071500Y0120323D01*
X0071500Y0121321D02*
X0071500Y0121321D01*
X0071500Y0122320D02*
X0071500Y0122320D01*
X0071500Y0123318D02*
X0071500Y0123318D01*
X0071500Y0124317D02*
X0071500Y0124317D01*
X0071500Y0125315D02*
X0071500Y0125315D01*
X0071500Y0126314D02*
X0071500Y0126314D01*
X0071500Y0127312D02*
X0071500Y0127312D01*
X0071500Y0128311D02*
X0071500Y0128311D01*
X0071500Y0129309D02*
X0071500Y0129309D01*
X0071500Y0130308D02*
X0071500Y0130308D01*
X0071500Y0131306D02*
X0071500Y0131306D01*
X0071500Y0132305D02*
X0071500Y0132305D01*
X0071500Y0133303D02*
X0071500Y0133303D01*
X0071500Y0134302D02*
X0071500Y0134302D01*
X0071500Y0135301D02*
X0071500Y0135301D01*
X0071500Y0136299D02*
X0071500Y0136299D01*
X0071500Y0137298D02*
X0071500Y0137298D01*
X0071500Y0138296D02*
X0071500Y0138296D01*
X0071500Y0139295D02*
X0071500Y0139295D01*
X0071500Y0140293D02*
X0071500Y0140293D01*
X0071500Y0141292D02*
X0071500Y0141292D01*
X0071500Y0142290D02*
X0071500Y0142290D01*
X0071500Y0143289D02*
X0071500Y0143289D01*
X0071500Y0144287D02*
X0071500Y0144287D01*
X0071500Y0145286D02*
X0071500Y0145286D01*
X0071500Y0146284D02*
X0071500Y0146284D01*
X0071500Y0147283D02*
X0071500Y0147283D01*
X0071500Y0148281D02*
X0071500Y0148281D01*
X0071500Y0149280D02*
X0071500Y0149280D01*
X0071500Y0150278D02*
X0071500Y0150278D01*
X0071500Y0151277D02*
X0071500Y0151277D01*
X0071500Y0152275D02*
X0071500Y0152275D01*
X0070898Y0153274D02*
X0070555Y0153274D01*
X0069899Y0154272D02*
X0069556Y0154272D01*
X0068901Y0155271D02*
X0068558Y0155271D01*
X0068500Y0156269D02*
X0067559Y0156269D01*
X0068500Y0157268D02*
X0066561Y0157268D01*
X0065562Y0158266D02*
X0068500Y0158266D01*
X0068500Y0159265D02*
X0064564Y0159265D01*
X0063565Y0160263D02*
X0068500Y0160263D01*
X0068500Y0161262D02*
X0062567Y0161262D01*
X0061568Y0162260D02*
X0068500Y0162260D01*
X0068500Y0163259D02*
X0060570Y0163259D01*
X0059571Y0164257D02*
X0068500Y0164257D01*
X0057500Y0157500D02*
X0056618Y0158232D01*
X0057500Y0157500D02*
X0057500Y0153500D01*
X0047500Y0162500D02*
X0033500Y0148500D01*
X0032996Y0148232D01*
X0030496Y0155271D02*
X0024521Y0155271D01*
X0023610Y0156269D02*
X0029629Y0156269D01*
X0023500Y0147500D02*
X0019500Y0147500D01*
X0010500Y0138500D01*
X0010500Y0078500D01*
X0058500Y0030500D01*
X0085500Y0030500D01*
X0089500Y0030500D02*
X0133500Y0030500D01*
X0169500Y0066500D01*
X0171500Y0066500D01*
X0177500Y0066403D02*
X0177600Y0066403D01*
X0177576Y0065405D02*
X0177500Y0065405D01*
X0177500Y0067402D02*
X0177600Y0067402D01*
X0177600Y0068400D02*
X0177500Y0068400D01*
X0177500Y0069399D02*
X0177600Y0069399D01*
X0177500Y0070397D02*
X0177899Y0070397D01*
X0177433Y0071396D02*
X0178480Y0071396D01*
X0179745Y0072394D02*
X0176434Y0072394D01*
X0175436Y0073393D02*
X0179779Y0073393D01*
X0178780Y0074391D02*
X0174437Y0074391D01*
X0173439Y0075390D02*
X0177782Y0075390D01*
X0180443Y0078385D02*
X0184786Y0078385D01*
X0185785Y0077387D02*
X0181442Y0077387D01*
X0182440Y0076388D02*
X0186783Y0076388D01*
X0187782Y0075390D02*
X0183439Y0075390D01*
X0184437Y0074391D02*
X0188780Y0074391D01*
X0189779Y0073393D02*
X0185436Y0073393D01*
X0186434Y0072394D02*
X0189745Y0072394D01*
X0188480Y0071396D02*
X0187433Y0071396D01*
X0187500Y0070397D02*
X0187899Y0070397D01*
X0187600Y0069399D02*
X0187500Y0069399D01*
X0187500Y0068400D02*
X0187600Y0068400D01*
X0187600Y0067402D02*
X0187500Y0067402D01*
X0187500Y0066403D02*
X0187600Y0066403D01*
X0187600Y0065405D02*
X0187500Y0065405D01*
X0187500Y0064406D02*
X0187600Y0064406D01*
X0187600Y0063408D02*
X0187500Y0063408D01*
X0187500Y0062409D02*
X0187979Y0062409D01*
X0187500Y0061411D02*
X0188674Y0061411D01*
X0187500Y0060412D02*
X0190212Y0060412D01*
X0192788Y0060412D02*
X0195500Y0060412D01*
X0195500Y0059414D02*
X0187500Y0059414D01*
X0187500Y0058415D02*
X0195500Y0058415D01*
X0195500Y0057417D02*
X0187500Y0057417D01*
X0187500Y0056418D02*
X0195500Y0056418D01*
X0195500Y0055420D02*
X0187500Y0055420D01*
X0187500Y0054421D02*
X0195750Y0054421D01*
X0196749Y0053423D02*
X0187500Y0053423D01*
X0187500Y0052424D02*
X0197600Y0052424D01*
X0197600Y0051426D02*
X0187500Y0051426D01*
X0187500Y0050427D02*
X0197600Y0050427D01*
X0198056Y0049429D02*
X0187500Y0049429D01*
X0187500Y0048430D02*
X0199055Y0048430D01*
X0201500Y0051500D02*
X0197500Y0055500D01*
X0197500Y0068500D01*
X0196500Y0069500D01*
X0203500Y0076500D01*
X0231500Y0076500D01*
X0234132Y0079384D02*
X0282496Y0079384D01*
X0282496Y0080382D02*
X0233133Y0080382D01*
X0233115Y0082600D02*
X0235400Y0084885D01*
X0235400Y0086200D01*
X0231800Y0086200D01*
X0231800Y0082600D01*
X0233115Y0082600D01*
X0233893Y0083378D02*
X0282496Y0083378D01*
X0282496Y0084376D02*
X0234892Y0084376D01*
X0235400Y0085375D02*
X0282496Y0085375D01*
X0282496Y0086373D02*
X0231800Y0086373D01*
X0231500Y0086500D02*
X0231500Y0082500D01*
X0235500Y0078500D01*
X0235500Y0074500D01*
X0235400Y0076388D02*
X0282496Y0076388D01*
X0282496Y0077387D02*
X0235400Y0077387D01*
X0235130Y0078385D02*
X0282496Y0078385D01*
X0282496Y0081381D02*
X0226173Y0081381D01*
X0226938Y0082379D02*
X0282496Y0082379D01*
X0282496Y0087372D02*
X0235400Y0087372D01*
X0235145Y0088370D02*
X0282496Y0088370D01*
X0282496Y0089369D02*
X0234146Y0089369D01*
X0231200Y0086373D02*
X0224455Y0086373D01*
X0223456Y0087372D02*
X0227600Y0087372D01*
X0227855Y0088370D02*
X0222458Y0088370D01*
X0221459Y0089369D02*
X0228854Y0089369D01*
X0229852Y0090368D02*
X0220461Y0090368D01*
X0217800Y0087372D02*
X0181456Y0087372D01*
X0180458Y0088370D02*
X0216801Y0088370D01*
X0215803Y0089369D02*
X0179459Y0089369D01*
X0180320Y0090368D02*
X0178461Y0090368D01*
X0179291Y0090794D02*
X0180724Y0090200D01*
X0182276Y0090200D01*
X0183709Y0090794D01*
X0184806Y0091891D01*
X0185400Y0093324D01*
X0185400Y0099676D01*
X0184806Y0101109D01*
X0183709Y0102206D01*
X0182276Y0102800D01*
X0180724Y0102800D01*
X0179291Y0102206D01*
X0178194Y0101109D01*
X0177600Y0099676D01*
X0177600Y0093324D01*
X0178194Y0091891D01*
X0179291Y0090794D01*
X0178719Y0091366D02*
X0177462Y0091366D01*
X0177998Y0092365D02*
X0176464Y0092365D01*
X0175465Y0093363D02*
X0177600Y0093363D01*
X0177600Y0094362D02*
X0175400Y0094362D01*
X0175400Y0095360D02*
X0177600Y0095360D01*
X0177600Y0096359D02*
X0175400Y0096359D01*
X0175400Y0097357D02*
X0177600Y0097357D01*
X0177600Y0098356D02*
X0175400Y0098356D01*
X0175400Y0099354D02*
X0177600Y0099354D01*
X0177880Y0100353D02*
X0175120Y0100353D01*
X0174564Y0101351D02*
X0178436Y0101351D01*
X0179637Y0102350D02*
X0173363Y0102350D01*
X0171500Y0096500D02*
X0171500Y0094500D01*
X0196500Y0069500D01*
X0195500Y0067402D02*
X0195400Y0067402D01*
X0195400Y0066403D02*
X0195500Y0066403D01*
X0195500Y0065405D02*
X0195400Y0065405D01*
X0195400Y0064406D02*
X0195500Y0064406D01*
X0195500Y0063408D02*
X0195400Y0063408D01*
X0195500Y0062409D02*
X0195021Y0062409D01*
X0195500Y0061411D02*
X0194326Y0061411D01*
X0199500Y0056418D02*
X0214785Y0056418D01*
X0213066Y0055420D02*
X0200409Y0055420D01*
X0204094Y0054421D02*
X0212082Y0054421D01*
X0211668Y0053423D02*
X0205093Y0053423D01*
X0205400Y0052424D02*
X0211300Y0052424D01*
X0211300Y0051426D02*
X0205400Y0051426D01*
X0205400Y0050427D02*
X0211316Y0050427D01*
X0211730Y0049429D02*
X0204944Y0049429D01*
X0203945Y0048430D02*
X0212216Y0048430D01*
X0213215Y0047432D02*
X0187500Y0047432D01*
X0187500Y0046433D02*
X0215145Y0046433D01*
X0217855Y0046433D02*
X0232739Y0046433D01*
X0231406Y0053423D02*
X0241668Y0053423D01*
X0242082Y0054421D02*
X0220918Y0054421D01*
X0219934Y0055420D02*
X0243066Y0055420D01*
X0244785Y0056418D02*
X0218215Y0056418D01*
X0208674Y0061411D02*
X0204326Y0061411D01*
X0205021Y0062409D02*
X0207979Y0062409D01*
X0207600Y0063408D02*
X0205400Y0063408D01*
X0205400Y0064406D02*
X0207600Y0064406D01*
X0207600Y0065405D02*
X0205400Y0065405D01*
X0205400Y0066403D02*
X0207600Y0066403D01*
X0207600Y0067402D02*
X0205400Y0067402D01*
X0205400Y0068400D02*
X0207600Y0068400D01*
X0207600Y0069399D02*
X0205400Y0069399D01*
X0205101Y0070397D02*
X0207899Y0070397D01*
X0208480Y0071396D02*
X0204520Y0071396D01*
X0203255Y0072394D02*
X0209745Y0072394D01*
X0204220Y0074391D02*
X0228093Y0074391D01*
X0229092Y0073393D02*
X0203221Y0073393D01*
X0200560Y0076388D02*
X0192440Y0076388D01*
X0193439Y0075390D02*
X0199561Y0075390D01*
X0198563Y0074391D02*
X0194437Y0074391D01*
X0195436Y0073393D02*
X0197564Y0073393D01*
X0196566Y0072394D02*
X0196434Y0072394D01*
X0191442Y0077387D02*
X0201558Y0077387D01*
X0202557Y0078385D02*
X0190443Y0078385D01*
X0189445Y0079384D02*
X0228868Y0079384D01*
X0229867Y0080382D02*
X0188446Y0080382D01*
X0187448Y0081381D02*
X0222827Y0081381D01*
X0222062Y0082379D02*
X0186449Y0082379D01*
X0185450Y0083378D02*
X0221794Y0083378D01*
X0220795Y0084376D02*
X0184452Y0084376D01*
X0183453Y0085375D02*
X0219797Y0085375D01*
X0218798Y0086373D02*
X0182455Y0086373D01*
X0182680Y0090368D02*
X0190320Y0090368D01*
X0190724Y0090200D02*
X0192276Y0090200D01*
X0193709Y0090794D01*
X0194806Y0091891D01*
X0195400Y0093324D01*
X0195400Y0099676D01*
X0194806Y0101109D01*
X0193709Y0102206D01*
X0192276Y0102800D01*
X0190724Y0102800D01*
X0189291Y0102206D01*
X0188194Y0101109D01*
X0187600Y0099676D01*
X0187600Y0093324D01*
X0188194Y0091891D01*
X0189291Y0090794D01*
X0190724Y0090200D01*
X0192680Y0090368D02*
X0200320Y0090368D01*
X0200724Y0090200D02*
X0199291Y0090794D01*
X0198194Y0091891D01*
X0197600Y0093324D01*
X0197600Y0099676D01*
X0198194Y0101109D01*
X0199291Y0102206D01*
X0200724Y0102800D01*
X0202276Y0102800D01*
X0203709Y0102206D01*
X0204806Y0101109D01*
X0205400Y0099676D01*
X0205400Y0093324D01*
X0204806Y0091891D01*
X0203709Y0090794D01*
X0202276Y0090200D01*
X0200724Y0090200D01*
X0202680Y0090368D02*
X0210320Y0090368D01*
X0208719Y0091366D02*
X0204281Y0091366D01*
X0205002Y0092365D02*
X0207998Y0092365D01*
X0207600Y0093363D02*
X0205400Y0093363D01*
X0205400Y0094362D02*
X0207600Y0094362D01*
X0207600Y0095360D02*
X0205400Y0095360D01*
X0205400Y0096359D02*
X0207600Y0096359D01*
X0207600Y0097357D02*
X0205400Y0097357D01*
X0205400Y0098356D02*
X0207600Y0098356D01*
X0207600Y0099354D02*
X0205400Y0099354D01*
X0205120Y0100353D02*
X0207880Y0100353D01*
X0208436Y0101351D02*
X0204564Y0101351D01*
X0203363Y0102350D02*
X0209637Y0102350D01*
X0211500Y0096500D02*
X0224500Y0083500D01*
X0226417Y0085375D02*
X0227600Y0085375D01*
X0228108Y0084376D02*
X0227039Y0084376D01*
X0227181Y0083378D02*
X0229107Y0083378D01*
X0231200Y0083378D02*
X0231800Y0083378D01*
X0231800Y0084376D02*
X0231200Y0084376D01*
X0231200Y0085375D02*
X0231800Y0085375D01*
X0214804Y0090368D02*
X0212680Y0090368D01*
X0198719Y0091366D02*
X0194281Y0091366D01*
X0195002Y0092365D02*
X0197998Y0092365D01*
X0197600Y0093363D02*
X0195400Y0093363D01*
X0195400Y0094362D02*
X0197600Y0094362D01*
X0197600Y0095360D02*
X0195400Y0095360D01*
X0195400Y0096359D02*
X0197600Y0096359D01*
X0197600Y0097357D02*
X0195400Y0097357D01*
X0195400Y0098356D02*
X0197600Y0098356D01*
X0197600Y0099354D02*
X0195400Y0099354D01*
X0195120Y0100353D02*
X0197880Y0100353D01*
X0198436Y0101351D02*
X0194564Y0101351D01*
X0193363Y0102350D02*
X0199637Y0102350D01*
X0189637Y0102350D02*
X0183363Y0102350D01*
X0184564Y0101351D02*
X0188436Y0101351D01*
X0187880Y0100353D02*
X0185120Y0100353D01*
X0185400Y0099354D02*
X0187600Y0099354D01*
X0187600Y0098356D02*
X0185400Y0098356D01*
X0185400Y0097357D02*
X0187600Y0097357D01*
X0187600Y0096359D02*
X0185400Y0096359D01*
X0185400Y0095360D02*
X0187600Y0095360D01*
X0187600Y0094362D02*
X0185400Y0094362D01*
X0185400Y0093363D02*
X0187600Y0093363D01*
X0187998Y0092365D02*
X0185002Y0092365D01*
X0184281Y0091366D02*
X0188719Y0091366D01*
X0179794Y0083378D02*
X0175450Y0083378D01*
X0174452Y0084376D02*
X0178795Y0084376D01*
X0177797Y0085375D02*
X0173453Y0085375D01*
X0172455Y0086373D02*
X0176798Y0086373D01*
X0175800Y0087372D02*
X0171456Y0087372D01*
X0170458Y0088370D02*
X0174801Y0088370D01*
X0173803Y0089369D02*
X0169459Y0089369D01*
X0170320Y0090368D02*
X0168461Y0090368D01*
X0168719Y0091366D02*
X0167462Y0091366D01*
X0167998Y0092365D02*
X0166464Y0092365D01*
X0172680Y0090368D02*
X0172804Y0090368D01*
X0176449Y0082379D02*
X0180792Y0082379D01*
X0181791Y0081381D02*
X0177448Y0081381D01*
X0178446Y0080382D02*
X0182789Y0080382D01*
X0183788Y0079384D02*
X0179445Y0079384D01*
X0181500Y0066500D02*
X0177500Y0062500D01*
X0177500Y0061500D01*
X0187500Y0039443D02*
X0188639Y0039443D01*
X0190287Y0039443D02*
X0190665Y0039443D01*
X0190665Y0038445D02*
X0190287Y0038445D01*
X0190287Y0037446D02*
X0190665Y0037446D01*
X0190665Y0036448D02*
X0190287Y0036448D01*
X0192314Y0039443D02*
X0196538Y0039443D01*
X0195058Y0038445D02*
X0193768Y0038445D01*
X0179695Y0020744D02*
X0176472Y0022079D01*
X0172984Y0022079D01*
X0169762Y0020744D01*
X0167295Y0018278D01*
X0165961Y0015055D01*
X0165961Y0011567D01*
X0167295Y0008345D01*
X0169762Y0005878D01*
X0172984Y0004543D01*
X0176472Y0004543D01*
X0179695Y0005878D01*
X0182161Y0008345D01*
X0183496Y0011567D01*
X0183496Y0015055D01*
X0182161Y0018278D01*
X0179695Y0020744D01*
X0179967Y0020472D02*
X0267915Y0020472D01*
X0268187Y0020744D02*
X0265721Y0018278D01*
X0264386Y0015055D01*
X0264386Y0011567D01*
X0265721Y0008345D01*
X0268187Y0005878D01*
X0271410Y0004543D01*
X0274898Y0004543D01*
X0278120Y0005878D01*
X0280586Y0008345D01*
X0281921Y0011567D01*
X0281921Y0015055D01*
X0280586Y0018278D01*
X0278120Y0020744D01*
X0274898Y0022079D01*
X0271410Y0022079D01*
X0268187Y0020744D01*
X0266916Y0019473D02*
X0180966Y0019473D01*
X0181964Y0018475D02*
X0265918Y0018475D01*
X0265389Y0017476D02*
X0182493Y0017476D01*
X0182907Y0016478D02*
X0264975Y0016478D01*
X0264562Y0015479D02*
X0183320Y0015479D01*
X0183496Y0014481D02*
X0264386Y0014481D01*
X0264386Y0013482D02*
X0183496Y0013482D01*
X0183496Y0012484D02*
X0264386Y0012484D01*
X0264420Y0011485D02*
X0183462Y0011485D01*
X0183049Y0010487D02*
X0264833Y0010487D01*
X0265247Y0009488D02*
X0182635Y0009488D01*
X0182221Y0008490D02*
X0265661Y0008490D01*
X0266574Y0007491D02*
X0181308Y0007491D01*
X0180309Y0006493D02*
X0267573Y0006493D01*
X0269114Y0005494D02*
X0178768Y0005494D01*
X0170689Y0005494D02*
X0017350Y0005494D01*
X0018278Y0005878D02*
X0020744Y0008345D01*
X0022079Y0011567D01*
X0022079Y0015055D01*
X0020744Y0018278D01*
X0018278Y0020744D01*
X0015055Y0022079D01*
X0011567Y0022079D01*
X0008345Y0020744D01*
X0005878Y0018278D01*
X0004543Y0015055D01*
X0004543Y0011567D01*
X0005878Y0008345D01*
X0008345Y0005878D01*
X0011567Y0004543D01*
X0015055Y0004543D01*
X0018278Y0005878D01*
X0018892Y0006493D02*
X0169147Y0006493D01*
X0168149Y0007491D02*
X0019890Y0007491D01*
X0020804Y0008490D02*
X0167235Y0008490D01*
X0166822Y0009488D02*
X0021218Y0009488D01*
X0021631Y0010487D02*
X0166408Y0010487D01*
X0165995Y0011485D02*
X0022045Y0011485D01*
X0022079Y0012484D02*
X0165961Y0012484D01*
X0165961Y0013482D02*
X0022079Y0013482D01*
X0022079Y0014481D02*
X0165961Y0014481D01*
X0166136Y0015479D02*
X0021903Y0015479D01*
X0021489Y0016478D02*
X0166550Y0016478D01*
X0166964Y0017476D02*
X0021076Y0017476D01*
X0020547Y0018475D02*
X0167493Y0018475D01*
X0168491Y0019473D02*
X0019548Y0019473D01*
X0018550Y0020472D02*
X0169490Y0020472D01*
X0171515Y0021470D02*
X0016524Y0021470D01*
X0010098Y0021470D02*
X0003968Y0021470D01*
X0003968Y0020472D02*
X0008072Y0020472D01*
X0007074Y0019473D02*
X0003968Y0019473D01*
X0003968Y0018475D02*
X0006075Y0018475D01*
X0005546Y0017476D02*
X0003968Y0017476D01*
X0003968Y0016478D02*
X0005133Y0016478D01*
X0004719Y0015479D02*
X0003968Y0015479D01*
X0003968Y0014481D02*
X0004543Y0014481D01*
X0004543Y0013482D02*
X0003968Y0013482D01*
X0003968Y0012484D02*
X0004543Y0012484D01*
X0004577Y0011485D02*
X0003968Y0011485D01*
X0003968Y0010487D02*
X0004991Y0010487D01*
X0005404Y0009488D02*
X0003968Y0009488D01*
X0003968Y0008490D02*
X0005818Y0008490D01*
X0006732Y0007491D02*
X0003968Y0007491D01*
X0003968Y0006493D02*
X0007730Y0006493D01*
X0009272Y0005494D02*
X0003968Y0005494D01*
X0003968Y0004496D02*
X0282496Y0004496D01*
X0282496Y0005494D02*
X0277193Y0005494D01*
X0278734Y0006493D02*
X0282496Y0006493D01*
X0282496Y0007491D02*
X0279733Y0007491D01*
X0280647Y0008490D02*
X0282496Y0008490D01*
X0282496Y0009488D02*
X0281060Y0009488D01*
X0281474Y0010487D02*
X0282496Y0010487D01*
X0282496Y0011485D02*
X0281887Y0011485D01*
X0281921Y0012484D02*
X0282496Y0012484D01*
X0282496Y0013482D02*
X0281921Y0013482D01*
X0281921Y0014481D02*
X0282496Y0014481D01*
X0282496Y0015479D02*
X0281746Y0015479D01*
X0281332Y0016478D02*
X0282496Y0016478D01*
X0282496Y0017476D02*
X0280918Y0017476D01*
X0280389Y0018475D02*
X0282496Y0018475D01*
X0282496Y0019473D02*
X0279391Y0019473D01*
X0278392Y0020472D02*
X0282496Y0020472D01*
X0282496Y0021470D02*
X0276367Y0021470D01*
X0269940Y0021470D02*
X0177941Y0021470D01*
X0143294Y0024466D02*
X0223019Y0024466D01*
X0248731Y0058415D02*
X0254269Y0058415D01*
X0253271Y0059414D02*
X0249729Y0059414D01*
X0250188Y0060412D02*
X0252812Y0060412D01*
X0252600Y0061411D02*
X0250400Y0061411D01*
X0250400Y0062409D02*
X0252600Y0062409D01*
X0252600Y0063408D02*
X0250400Y0063408D01*
X0250400Y0064406D02*
X0252600Y0064406D01*
X0252600Y0065405D02*
X0250400Y0065405D01*
X0250400Y0066403D02*
X0252600Y0066403D01*
X0252652Y0067402D02*
X0250348Y0067402D01*
X0249934Y0068400D02*
X0253066Y0068400D01*
X0253883Y0069399D02*
X0249117Y0069399D01*
X0259117Y0069399D02*
X0263883Y0069399D01*
X0263066Y0068400D02*
X0259934Y0068400D01*
X0260348Y0067402D02*
X0262652Y0067402D01*
X0262600Y0066403D02*
X0260400Y0066403D01*
X0260400Y0065405D02*
X0262600Y0065405D01*
X0262600Y0064406D02*
X0260400Y0064406D01*
X0260400Y0063408D02*
X0262600Y0063408D01*
X0262600Y0062409D02*
X0260400Y0062409D01*
X0260400Y0061411D02*
X0262600Y0061411D01*
X0262812Y0060412D02*
X0260188Y0060412D01*
X0259729Y0059414D02*
X0263271Y0059414D01*
X0264269Y0058415D02*
X0258731Y0058415D01*
X0278172Y0106344D02*
X0282496Y0106344D01*
X0282496Y0107342D02*
X0279171Y0107342D01*
X0280169Y0108341D02*
X0282496Y0108341D01*
X0282496Y0109339D02*
X0280500Y0109339D01*
X0280500Y0110338D02*
X0282496Y0110338D01*
X0282496Y0111336D02*
X0280500Y0111336D01*
X0280500Y0112335D02*
X0282496Y0112335D01*
X0282496Y0113333D02*
X0280500Y0113333D01*
X0280500Y0114332D02*
X0282496Y0114332D01*
X0282496Y0115330D02*
X0280500Y0115330D01*
X0216500Y0116500D02*
X0208500Y0108500D01*
X0135500Y0108500D01*
X0123500Y0096500D01*
X0121500Y0096500D01*
X0121500Y0103500D02*
X0120500Y0103500D01*
X0121500Y0103500D02*
X0134500Y0116500D01*
X0136500Y0116500D01*
X0133500Y0110500D02*
X0170500Y0110500D01*
X0176500Y0116500D01*
X0172500Y0122500D02*
X0166500Y0116500D01*
X0160500Y0122500D02*
X0108500Y0122500D01*
X0094500Y0136500D01*
X0092095Y0135301D02*
X0075500Y0135301D01*
X0075500Y0136299D02*
X0077873Y0136299D01*
X0076874Y0137298D02*
X0075500Y0137298D01*
X0075500Y0138296D02*
X0075876Y0138296D01*
X0077538Y0142290D02*
X0077600Y0142290D01*
X0077500Y0143289D02*
X0077773Y0143289D01*
X0077500Y0144287D02*
X0078772Y0144287D01*
X0079770Y0145286D02*
X0077500Y0145286D01*
X0077500Y0146284D02*
X0101456Y0146284D01*
X0102454Y0147283D02*
X0077500Y0147283D01*
X0077500Y0148281D02*
X0079203Y0148281D01*
X0078205Y0149280D02*
X0077500Y0149280D01*
X0077500Y0150278D02*
X0077600Y0150278D01*
X0077500Y0151277D02*
X0081200Y0151277D01*
X0081800Y0151800D02*
X0081800Y0155400D01*
X0083115Y0155400D01*
X0085400Y0153115D01*
X0085400Y0151800D01*
X0081800Y0151800D01*
X0081800Y0152275D02*
X0081200Y0152275D01*
X0081200Y0153274D02*
X0081800Y0153274D01*
X0081800Y0154272D02*
X0081200Y0154272D01*
X0081200Y0155271D02*
X0081800Y0155271D01*
X0083245Y0155271D02*
X0110442Y0155271D01*
X0109444Y0154272D02*
X0084243Y0154272D01*
X0085242Y0153274D02*
X0108445Y0153274D01*
X0107447Y0152275D02*
X0085400Y0152275D01*
X0081800Y0150278D02*
X0081200Y0150278D01*
X0081200Y0149280D02*
X0081800Y0149280D01*
X0081800Y0148281D02*
X0081200Y0148281D01*
X0077600Y0152275D02*
X0077500Y0152275D01*
X0077500Y0153274D02*
X0077758Y0153274D01*
X0077500Y0154272D02*
X0078757Y0154272D01*
X0079755Y0155271D02*
X0077500Y0155271D01*
X0077500Y0156269D02*
X0108815Y0156269D01*
X0108038Y0157268D02*
X0077500Y0157268D01*
X0077500Y0158266D02*
X0107689Y0158266D01*
X0107600Y0159265D02*
X0077500Y0159265D01*
X0077500Y0160263D02*
X0107600Y0160263D01*
X0111200Y0162260D02*
X0111800Y0162260D01*
X0111800Y0163259D02*
X0111200Y0163259D01*
X0111200Y0164257D02*
X0111800Y0164257D01*
X0111800Y0165256D02*
X0111200Y0165256D01*
X0111200Y0166254D02*
X0111800Y0166254D01*
X0111800Y0167253D02*
X0111200Y0167253D01*
X0113502Y0167253D02*
X0116424Y0167253D01*
X0115426Y0166254D02*
X0114617Y0166254D01*
X0115500Y0163500D02*
X0115500Y0157500D01*
X0121200Y0157268D02*
X0121800Y0157268D01*
X0121800Y0158266D02*
X0121200Y0158266D01*
X0121200Y0159265D02*
X0121800Y0159265D01*
X0121800Y0160263D02*
X0121200Y0160263D01*
X0121200Y0156269D02*
X0121800Y0156269D01*
X0115500Y0163500D02*
X0126500Y0174500D01*
X0126500Y0176500D01*
X0130262Y0180234D02*
X0132738Y0180234D01*
X0131945Y0179235D02*
X0131104Y0179235D01*
X0128925Y0181232D02*
X0134113Y0181232D01*
X0136000Y0181232D02*
X0137000Y0181232D01*
X0137000Y0180234D02*
X0136000Y0180234D01*
X0136000Y0179235D02*
X0137000Y0179235D01*
X0137000Y0178237D02*
X0136000Y0178237D01*
X0136000Y0177238D02*
X0137000Y0177238D01*
X0137000Y0175241D02*
X0136000Y0175241D01*
X0136000Y0174242D02*
X0137000Y0174242D01*
X0137000Y0173244D02*
X0136000Y0173244D01*
X0136000Y0172245D02*
X0137000Y0172245D01*
X0137000Y0171247D02*
X0136000Y0171247D01*
X0135787Y0171247D02*
X0127668Y0171247D01*
X0129741Y0172245D02*
X0133339Y0172245D01*
X0132314Y0173244D02*
X0130739Y0173244D01*
X0131302Y0174242D02*
X0131702Y0174242D01*
X0131800Y0167253D02*
X0131200Y0167253D01*
X0131200Y0166254D02*
X0131800Y0166254D01*
X0131800Y0165256D02*
X0131200Y0165256D01*
X0131200Y0164257D02*
X0131800Y0164257D01*
X0131800Y0163259D02*
X0131200Y0163259D01*
X0131200Y0162260D02*
X0131800Y0162260D01*
X0135400Y0160263D02*
X0137600Y0160263D01*
X0137600Y0159265D02*
X0135400Y0159265D01*
X0135311Y0158266D02*
X0137624Y0158266D01*
X0138038Y0157268D02*
X0134962Y0157268D01*
X0134185Y0156269D02*
X0138815Y0156269D01*
X0141500Y0161500D02*
X0145500Y0165500D01*
X0151500Y0161500D02*
X0153500Y0161500D01*
X0171500Y0143500D01*
X0171500Y0131500D02*
X0169500Y0131500D01*
X0160500Y0122500D01*
X0172500Y0122500D02*
X0193500Y0122500D01*
X0211500Y0140500D01*
X0198500Y0131500D02*
X0181500Y0131500D01*
X0143259Y0172245D02*
X0139661Y0172245D01*
X0140685Y0173244D02*
X0142261Y0173244D01*
X0141698Y0174242D02*
X0141298Y0174242D01*
X0141055Y0179235D02*
X0141896Y0179235D01*
X0142738Y0180234D02*
X0140262Y0180234D01*
X0138887Y0181232D02*
X0144075Y0181232D01*
X0124075Y0181232D02*
X0118925Y0181232D01*
X0120262Y0180234D02*
X0122738Y0180234D01*
X0121896Y0179235D02*
X0121104Y0179235D01*
X0135500Y0218500D02*
X0120500Y0233500D01*
X0119610Y0233783D01*
X0119500Y0234500D01*
X0115500Y0238500D01*
X0100500Y0238500D01*
X0096500Y0234500D01*
X0095988Y0233783D01*
X0095799Y0234153D02*
X0096177Y0234153D01*
X0096177Y0235152D02*
X0095799Y0235152D01*
X0095799Y0236150D02*
X0096177Y0236150D01*
X0096177Y0237149D02*
X0095799Y0237149D01*
X0095799Y0238147D02*
X0096177Y0238147D01*
X0097604Y0238147D02*
X0110121Y0238147D01*
X0108526Y0237149D02*
X0099198Y0237149D01*
X0100001Y0236150D02*
X0107684Y0236150D01*
X0107270Y0235152D02*
X0100433Y0235152D01*
X0100637Y0234153D02*
X0107087Y0234153D01*
X0107087Y0233155D02*
X0100596Y0233155D01*
X0100348Y0232156D02*
X0107378Y0232156D01*
X0107791Y0231158D02*
X0099828Y0231158D01*
X0098910Y0230159D02*
X0108785Y0230159D01*
X0114687Y0230159D02*
X0116688Y0230159D01*
X0115771Y0231158D02*
X0115681Y0231158D01*
X0119421Y0231158D02*
X0119799Y0231158D01*
X0119799Y0232156D02*
X0119421Y0232156D01*
X0119421Y0233155D02*
X0119799Y0233155D01*
X0119799Y0234153D02*
X0119421Y0234153D01*
X0119421Y0235152D02*
X0119799Y0235152D01*
X0119799Y0236150D02*
X0119421Y0236150D01*
X0119421Y0237149D02*
X0119799Y0237149D01*
X0119799Y0238147D02*
X0119421Y0238147D01*
X0117994Y0238147D02*
X0113351Y0238147D01*
X0114947Y0237149D02*
X0116400Y0237149D01*
X0121226Y0238147D02*
X0125869Y0238147D01*
X0124274Y0237149D02*
X0122821Y0237149D01*
X0123450Y0231158D02*
X0123539Y0231158D01*
X0124533Y0230159D02*
X0122532Y0230159D01*
X0119799Y0230159D02*
X0119421Y0230159D01*
X0130435Y0230159D02*
X0132407Y0230159D01*
X0133681Y0238147D02*
X0133743Y0238147D01*
X0132683Y0239146D02*
X0257420Y0239146D01*
X0256945Y0240144D02*
X0131684Y0240144D01*
X0130686Y0241143D02*
X0256716Y0241143D01*
X0256712Y0242141D02*
X0129687Y0242141D01*
X0154057Y0230159D02*
X0156029Y0230159D01*
X0095127Y0225167D02*
X0089995Y0225167D01*
X0091324Y0237149D02*
X0092778Y0237149D01*
X0094372Y0238147D02*
X0089729Y0238147D01*
X0009826Y0265107D02*
X0003968Y0265107D01*
X0003968Y0266105D02*
X0007960Y0266105D01*
X0006961Y0267104D02*
X0003968Y0267104D01*
X0003968Y0268103D02*
X0005963Y0268103D01*
X0005500Y0269101D02*
X0003968Y0269101D01*
X0003968Y0270100D02*
X0005086Y0270100D01*
X0004672Y0271098D02*
X0003968Y0271098D01*
X0003968Y0272097D02*
X0004543Y0272097D01*
X0004543Y0273095D02*
X0003968Y0273095D01*
X0003968Y0274094D02*
X0004543Y0274094D01*
X0004624Y0275092D02*
X0003968Y0275092D01*
X0003968Y0276091D02*
X0005038Y0276091D01*
X0005451Y0277089D02*
X0003968Y0277089D01*
X0003968Y0278088D02*
X0005865Y0278088D01*
X0006844Y0279086D02*
X0003968Y0279086D01*
X0003968Y0280085D02*
X0007843Y0280085D01*
X0009544Y0281083D02*
X0003968Y0281083D01*
X0023500Y0147500D02*
X0032500Y0138500D01*
X0032996Y0138232D01*
X0035526Y0135301D02*
X0041544Y0135301D01*
X0042445Y0136299D02*
X0036376Y0136299D01*
X0030608Y0131306D02*
X0030500Y0131306D01*
X0032996Y0128232D02*
X0033500Y0127500D01*
X0033500Y0111500D01*
X0049500Y0095500D01*
X0048329Y0104347D02*
X0060825Y0104347D01*
X0059826Y0105345D02*
X0049328Y0105345D01*
X0050326Y0106344D02*
X0058828Y0106344D01*
X0057829Y0107342D02*
X0051325Y0107342D01*
X0052323Y0108341D02*
X0056831Y0108341D01*
X0055832Y0109339D02*
X0052606Y0109339D01*
X0052606Y0110338D02*
X0054834Y0110338D01*
X0053835Y0111336D02*
X0052606Y0111336D01*
X0058471Y0097357D02*
X0061500Y0097357D01*
X0061500Y0096359D02*
X0059470Y0096359D01*
X0060468Y0095360D02*
X0061500Y0095360D01*
X0061467Y0094362D02*
X0061500Y0094362D01*
X0071500Y0108341D02*
X0079144Y0108341D01*
X0078145Y0109339D02*
X0071500Y0109339D01*
X0071500Y0110338D02*
X0077600Y0110338D01*
X0077600Y0111336D02*
X0071500Y0111336D01*
X0071500Y0112335D02*
X0077600Y0112335D01*
X0076838Y0113333D02*
X0071500Y0113333D01*
X0071500Y0114332D02*
X0075840Y0114332D01*
X0074841Y0115330D02*
X0071500Y0115330D01*
X0071500Y0116329D02*
X0073843Y0116329D01*
X0072844Y0117327D02*
X0071500Y0117327D01*
X0079500Y0116329D02*
X0101200Y0116329D01*
X0101933Y0119324D02*
X0084840Y0119324D01*
X0085400Y0120323D02*
X0102828Y0120323D01*
X0101858Y0126314D02*
X0075500Y0126314D01*
X0075500Y0127312D02*
X0100859Y0127312D01*
X0099861Y0128311D02*
X0075500Y0128311D01*
X0075500Y0129309D02*
X0098862Y0129309D01*
X0097864Y0130308D02*
X0075500Y0130308D01*
X0075500Y0131306D02*
X0096865Y0131306D01*
X0095867Y0132305D02*
X0075500Y0132305D01*
X0075500Y0133303D02*
X0094868Y0133303D01*
X0092906Y0134302D02*
X0075500Y0134302D01*
X0085127Y0136299D02*
X0091819Y0136299D01*
X0091928Y0137298D02*
X0086126Y0137298D01*
X0081800Y0120323D02*
X0081200Y0120323D01*
X0081200Y0119324D02*
X0081800Y0119324D01*
X0081800Y0118326D02*
X0081200Y0118326D01*
X0085182Y0113333D02*
X0102171Y0113333D01*
X0103170Y0112335D02*
X0085400Y0112335D01*
X0107883Y0111336D02*
X0115117Y0111336D01*
X0113170Y0112335D02*
X0109830Y0112335D01*
X0110829Y0113333D02*
X0112171Y0113333D01*
X0111661Y0114332D02*
X0111339Y0114332D01*
X0111500Y0066500D02*
X0109500Y0064500D01*
X0109500Y0050500D01*
X0109020Y0049807D01*
X0119500Y0045500D02*
X0096500Y0045500D01*
X0093500Y0048500D01*
X0093500Y0051500D01*
X0115500Y0063500D02*
X0128500Y0050500D01*
X0129020Y0049807D01*
X0128500Y0040500D02*
X0124500Y0040500D01*
X0119500Y0045500D01*
X0128500Y0040500D02*
X0129020Y0039807D01*
X0138500Y0053500D02*
X0151500Y0066500D01*
X0062500Y0123500D02*
X0060500Y0125500D01*
X0060500Y0133500D01*
X0037008Y0111336D02*
X0036492Y0111336D01*
X0029500Y0115500D02*
X0029500Y0094500D01*
X0024500Y0089500D01*
X0024500Y0077500D01*
X0057500Y0044500D01*
X0017663Y0104347D02*
X0014500Y0104347D01*
X0014500Y0105345D02*
X0016664Y0105345D01*
X0015666Y0106344D02*
X0014500Y0106344D01*
X0014500Y0107342D02*
X0014667Y0107342D01*
X0025743Y0118326D02*
X0025940Y0118326D01*
X0026533Y0119324D02*
X0024745Y0119324D01*
X0028500Y0117500D02*
X0028500Y0116500D01*
X0029500Y0115500D01*
X0026500Y0130308D02*
X0023723Y0130308D01*
X0024568Y0131306D02*
X0025865Y0131306D01*
X0021500Y0142500D02*
X0021185Y0143232D01*
X0235398Y0238147D02*
X0240041Y0238147D01*
X0238447Y0237149D02*
X0236994Y0237149D01*
X0249653Y0219175D02*
X0282496Y0219175D01*
X0282496Y0218177D02*
X0250651Y0218177D01*
X0251650Y0217178D02*
X0282496Y0217178D01*
X0282496Y0216180D02*
X0252648Y0216180D01*
X0253647Y0215181D02*
X0254666Y0215181D01*
D21*
X0270500Y0187500D03*
X0275500Y0178500D03*
X0251500Y0156500D03*
X0239500Y0140500D03*
X0233500Y0135500D03*
X0243500Y0125500D03*
X0223500Y0156500D03*
X0211500Y0140500D03*
X0198500Y0131500D03*
X0224500Y0083500D03*
X0138500Y0053500D03*
X0108500Y0073500D03*
X0095500Y0053500D03*
X0093500Y0034500D03*
X0089500Y0030500D03*
X0085500Y0030500D03*
X0085500Y0026500D03*
X0074500Y0053500D03*
X0070500Y0061500D03*
X0080500Y0075500D03*
X0081500Y0081500D03*
X0062500Y0123500D03*
X0060500Y0133500D03*
X0094500Y0136500D03*
X0098500Y0136500D03*
X0104500Y0170500D03*
X0096500Y0227500D03*
X0198500Y0195500D03*
X0133500Y0110500D03*
X0028500Y0117500D03*
M02*
