G75*
%MOIN*%
%OFA0B0*%
%FSLAX25Y25*%
%IPPOS*%
%LPD*%
%AMOC8*
5,1,8,0,0,1.08239X$1,22.5*
%
%ADD10C,0.00300*%
%ADD11C,0.00600*%
%ADD12C,0.01600*%
%ADD13C,0.00800*%
%ADD14C,0.00200*%
%ADD15C,0.01000*%
%ADD16C,0.00500*%
%ADD17C,0.01575*%
D10*
X0082613Y0005606D02*
X0082613Y0007700D01*
X0084224Y0007700D02*
X0084224Y0005606D01*
X0084222Y0005551D01*
X0084216Y0005496D01*
X0084207Y0005442D01*
X0084194Y0005389D01*
X0084177Y0005336D01*
X0084157Y0005285D01*
X0084134Y0005235D01*
X0084107Y0005187D01*
X0084076Y0005141D01*
X0084043Y0005097D01*
X0084007Y0005056D01*
X0083968Y0005017D01*
X0083927Y0004981D01*
X0083883Y0004948D01*
X0083837Y0004917D01*
X0083789Y0004890D01*
X0083739Y0004867D01*
X0083688Y0004847D01*
X0083635Y0004830D01*
X0083582Y0004817D01*
X0083528Y0004808D01*
X0083473Y0004802D01*
X0083418Y0004800D01*
X0083363Y0004802D01*
X0083308Y0004808D01*
X0083254Y0004817D01*
X0083201Y0004830D01*
X0083148Y0004847D01*
X0083097Y0004867D01*
X0083047Y0004890D01*
X0082999Y0004917D01*
X0082953Y0004948D01*
X0082909Y0004981D01*
X0082868Y0005017D01*
X0082829Y0005056D01*
X0082793Y0005097D01*
X0082760Y0005141D01*
X0082729Y0005187D01*
X0082702Y0005235D01*
X0082679Y0005285D01*
X0082659Y0005336D01*
X0082642Y0005389D01*
X0082629Y0005442D01*
X0082620Y0005496D01*
X0082614Y0005551D01*
X0082612Y0005606D01*
X0085895Y0006492D02*
X0086781Y0006008D01*
X0086459Y0004800D02*
X0086387Y0004802D01*
X0086316Y0004808D01*
X0086245Y0004817D01*
X0086175Y0004830D01*
X0086105Y0004847D01*
X0086036Y0004867D01*
X0085969Y0004891D01*
X0085903Y0004919D01*
X0085838Y0004950D01*
X0085775Y0004984D01*
X0085714Y0005022D01*
X0085655Y0005063D01*
X0085599Y0005106D01*
X0085544Y0005153D01*
X0085493Y0005203D01*
X0086782Y0006008D02*
X0086822Y0005982D01*
X0086861Y0005953D01*
X0086898Y0005921D01*
X0086932Y0005886D01*
X0086963Y0005849D01*
X0086992Y0005810D01*
X0087018Y0005769D01*
X0087040Y0005726D01*
X0087059Y0005681D01*
X0087075Y0005635D01*
X0087088Y0005589D01*
X0087097Y0005541D01*
X0087102Y0005493D01*
X0087104Y0005444D01*
X0087103Y0005444D02*
X0087101Y0005396D01*
X0087096Y0005348D01*
X0087087Y0005301D01*
X0087074Y0005254D01*
X0087058Y0005209D01*
X0087039Y0005165D01*
X0087017Y0005122D01*
X0086991Y0005081D01*
X0086962Y0005042D01*
X0086931Y0005006D01*
X0086897Y0004972D01*
X0086861Y0004941D01*
X0086822Y0004912D01*
X0086781Y0004886D01*
X0086738Y0004864D01*
X0086694Y0004845D01*
X0086649Y0004829D01*
X0086602Y0004816D01*
X0086555Y0004807D01*
X0086507Y0004802D01*
X0086459Y0004800D01*
X0086943Y0007458D02*
X0086890Y0007496D01*
X0086835Y0007530D01*
X0086779Y0007562D01*
X0086720Y0007591D01*
X0086661Y0007616D01*
X0086600Y0007638D01*
X0086538Y0007657D01*
X0086475Y0007672D01*
X0086412Y0007684D01*
X0086347Y0007693D01*
X0086283Y0007698D01*
X0086218Y0007700D01*
X0086170Y0007698D01*
X0086122Y0007693D01*
X0086075Y0007684D01*
X0086028Y0007671D01*
X0085983Y0007655D01*
X0085939Y0007636D01*
X0085896Y0007614D01*
X0085855Y0007588D01*
X0085816Y0007560D01*
X0085780Y0007528D01*
X0085746Y0007494D01*
X0085715Y0007458D01*
X0085686Y0007419D01*
X0085660Y0007378D01*
X0085638Y0007335D01*
X0085619Y0007291D01*
X0085603Y0007246D01*
X0085590Y0007199D01*
X0085581Y0007152D01*
X0085576Y0007104D01*
X0085574Y0007056D01*
X0085573Y0007056D02*
X0085575Y0007007D01*
X0085580Y0006959D01*
X0085589Y0006911D01*
X0085602Y0006865D01*
X0085618Y0006819D01*
X0085637Y0006774D01*
X0085659Y0006731D01*
X0085685Y0006690D01*
X0085714Y0006651D01*
X0085745Y0006614D01*
X0085779Y0006579D01*
X0085816Y0006547D01*
X0085855Y0006518D01*
X0085895Y0006492D01*
X0088419Y0006411D02*
X0089224Y0006411D01*
X0089224Y0006412D02*
X0089273Y0006414D01*
X0089322Y0006420D01*
X0089371Y0006429D01*
X0089418Y0006442D01*
X0089465Y0006459D01*
X0089510Y0006479D01*
X0089553Y0006502D01*
X0089595Y0006529D01*
X0089634Y0006559D01*
X0089671Y0006592D01*
X0089705Y0006628D01*
X0089736Y0006666D01*
X0089765Y0006706D01*
X0089790Y0006748D01*
X0089812Y0006793D01*
X0089830Y0006838D01*
X0089845Y0006885D01*
X0089856Y0006933D01*
X0089864Y0006982D01*
X0089868Y0007031D01*
X0089868Y0007081D01*
X0089864Y0007130D01*
X0089856Y0007179D01*
X0089845Y0007227D01*
X0089830Y0007274D01*
X0089812Y0007319D01*
X0089790Y0007364D01*
X0089765Y0007406D01*
X0089736Y0007446D01*
X0089705Y0007484D01*
X0089671Y0007520D01*
X0089634Y0007553D01*
X0089595Y0007583D01*
X0089553Y0007610D01*
X0089510Y0007633D01*
X0089465Y0007653D01*
X0089418Y0007670D01*
X0089371Y0007683D01*
X0089322Y0007692D01*
X0089273Y0007698D01*
X0089224Y0007700D01*
X0088419Y0007700D01*
X0088419Y0004800D01*
X0089224Y0004800D01*
X0089279Y0004802D01*
X0089334Y0004808D01*
X0089388Y0004817D01*
X0089441Y0004830D01*
X0089494Y0004847D01*
X0089545Y0004867D01*
X0089595Y0004890D01*
X0089643Y0004917D01*
X0089689Y0004948D01*
X0089733Y0004981D01*
X0089774Y0005017D01*
X0089813Y0005056D01*
X0089849Y0005097D01*
X0089882Y0005141D01*
X0089913Y0005187D01*
X0089940Y0005235D01*
X0089963Y0005285D01*
X0089983Y0005336D01*
X0090000Y0005389D01*
X0090013Y0005442D01*
X0090022Y0005496D01*
X0090028Y0005551D01*
X0090030Y0005606D01*
X0090028Y0005661D01*
X0090022Y0005716D01*
X0090013Y0005770D01*
X0090000Y0005823D01*
X0089983Y0005876D01*
X0089963Y0005927D01*
X0089940Y0005977D01*
X0089913Y0006025D01*
X0089882Y0006071D01*
X0089849Y0006115D01*
X0089813Y0006156D01*
X0089774Y0006195D01*
X0089733Y0006231D01*
X0089689Y0006264D01*
X0089643Y0006295D01*
X0089595Y0006322D01*
X0089545Y0006345D01*
X0089494Y0006365D01*
X0089441Y0006382D01*
X0089388Y0006395D01*
X0089334Y0006404D01*
X0089279Y0006410D01*
X0089224Y0006412D01*
X0065763Y0130578D02*
X0062863Y0130578D01*
X0062863Y0132879D02*
X0062863Y0133523D01*
X0062863Y0133201D02*
X0065763Y0133201D01*
X0065763Y0132879D02*
X0065763Y0133523D01*
X0065119Y0134796D02*
X0063508Y0134796D01*
X0063457Y0134798D01*
X0063407Y0134804D01*
X0063358Y0134814D01*
X0063309Y0134828D01*
X0063262Y0134845D01*
X0063216Y0134866D01*
X0063172Y0134891D01*
X0063129Y0134919D01*
X0063090Y0134950D01*
X0063053Y0134985D01*
X0063018Y0135022D01*
X0062987Y0135061D01*
X0062959Y0135103D01*
X0062934Y0135148D01*
X0062913Y0135194D01*
X0062896Y0135241D01*
X0062882Y0135290D01*
X0062872Y0135339D01*
X0062866Y0135389D01*
X0062864Y0135440D01*
X0062863Y0135440D02*
X0062863Y0136407D01*
X0064152Y0136407D02*
X0065763Y0136407D01*
X0065763Y0135440D01*
X0065761Y0135392D01*
X0065756Y0135344D01*
X0065747Y0135297D01*
X0065734Y0135250D01*
X0065718Y0135205D01*
X0065699Y0135161D01*
X0065677Y0135118D01*
X0065651Y0135077D01*
X0065622Y0135038D01*
X0065591Y0135002D01*
X0065557Y0134968D01*
X0065521Y0134937D01*
X0065482Y0134908D01*
X0065441Y0134882D01*
X0065398Y0134860D01*
X0065354Y0134841D01*
X0065309Y0134825D01*
X0065262Y0134812D01*
X0065215Y0134803D01*
X0065167Y0134798D01*
X0065119Y0134796D01*
X0064152Y0135923D02*
X0064152Y0136407D01*
X0064152Y0137868D02*
X0064152Y0139479D01*
X0062863Y0139479D02*
X0065763Y0139479D01*
X0065763Y0137868D02*
X0062863Y0137868D01*
X0062863Y0140652D02*
X0062863Y0142263D01*
X0062863Y0141457D02*
X0065763Y0141457D01*
X0065763Y0143436D02*
X0065763Y0144241D01*
X0065764Y0144241D02*
X0065762Y0144296D01*
X0065756Y0144351D01*
X0065747Y0144405D01*
X0065734Y0144458D01*
X0065717Y0144511D01*
X0065697Y0144562D01*
X0065674Y0144612D01*
X0065647Y0144660D01*
X0065616Y0144706D01*
X0065583Y0144750D01*
X0065547Y0144791D01*
X0065508Y0144830D01*
X0065467Y0144866D01*
X0065423Y0144899D01*
X0065377Y0144930D01*
X0065329Y0144957D01*
X0065279Y0144980D01*
X0065228Y0145000D01*
X0065175Y0145017D01*
X0065122Y0145030D01*
X0065068Y0145039D01*
X0065013Y0145045D01*
X0064958Y0145047D01*
X0063669Y0145047D01*
X0063614Y0145045D01*
X0063559Y0145039D01*
X0063505Y0145030D01*
X0063452Y0145017D01*
X0063399Y0145000D01*
X0063348Y0144980D01*
X0063298Y0144957D01*
X0063250Y0144930D01*
X0063204Y0144899D01*
X0063160Y0144866D01*
X0063119Y0144830D01*
X0063080Y0144791D01*
X0063044Y0144750D01*
X0063011Y0144706D01*
X0062980Y0144660D01*
X0062953Y0144612D01*
X0062930Y0144562D01*
X0062910Y0144511D01*
X0062893Y0144458D01*
X0062880Y0144405D01*
X0062871Y0144351D01*
X0062865Y0144296D01*
X0062863Y0144241D01*
X0062863Y0143436D01*
X0065763Y0143436D01*
X0065763Y0146528D02*
X0062863Y0146528D01*
X0062863Y0147333D01*
X0062865Y0147388D01*
X0062871Y0147443D01*
X0062880Y0147497D01*
X0062893Y0147550D01*
X0062910Y0147603D01*
X0062930Y0147654D01*
X0062953Y0147704D01*
X0062980Y0147752D01*
X0063011Y0147798D01*
X0063044Y0147842D01*
X0063080Y0147883D01*
X0063119Y0147922D01*
X0063160Y0147958D01*
X0063204Y0147991D01*
X0063250Y0148022D01*
X0063298Y0148049D01*
X0063348Y0148072D01*
X0063399Y0148092D01*
X0063452Y0148109D01*
X0063505Y0148122D01*
X0063559Y0148131D01*
X0063614Y0148137D01*
X0063669Y0148139D01*
X0063724Y0148137D01*
X0063779Y0148131D01*
X0063833Y0148122D01*
X0063886Y0148109D01*
X0063939Y0148092D01*
X0063990Y0148072D01*
X0064040Y0148049D01*
X0064088Y0148022D01*
X0064134Y0147991D01*
X0064178Y0147958D01*
X0064219Y0147922D01*
X0064258Y0147883D01*
X0064294Y0147842D01*
X0064327Y0147798D01*
X0064358Y0147752D01*
X0064385Y0147704D01*
X0064408Y0147654D01*
X0064428Y0147603D01*
X0064445Y0147550D01*
X0064458Y0147497D01*
X0064467Y0147443D01*
X0064473Y0147388D01*
X0064475Y0147333D01*
X0064475Y0146528D01*
X0064475Y0147494D02*
X0065763Y0148139D01*
X0065763Y0149295D02*
X0065763Y0149939D01*
X0065763Y0149617D02*
X0062863Y0149617D01*
X0062863Y0149295D02*
X0062863Y0149939D01*
X0062863Y0150955D02*
X0065763Y0151921D01*
X0062863Y0152888D01*
X0062863Y0154098D02*
X0062863Y0155387D01*
X0062863Y0154098D02*
X0065763Y0154098D01*
X0065763Y0155387D01*
X0064152Y0155064D02*
X0064152Y0154098D01*
X0065763Y0131867D02*
X0065763Y0130578D01*
X0065617Y0267883D02*
X0064795Y0267883D01*
X0065617Y0267883D02*
X0065665Y0267885D01*
X0065714Y0267891D01*
X0065761Y0267900D01*
X0065808Y0267913D01*
X0065853Y0267930D01*
X0065897Y0267950D01*
X0065939Y0267974D01*
X0065980Y0268001D01*
X0066018Y0268031D01*
X0066053Y0268064D01*
X0066086Y0268099D01*
X0066116Y0268137D01*
X0066143Y0268178D01*
X0066167Y0268220D01*
X0066187Y0268264D01*
X0066204Y0268309D01*
X0066217Y0268356D01*
X0066226Y0268403D01*
X0066232Y0268452D01*
X0066234Y0268500D01*
X0066233Y0268500D02*
X0066233Y0271583D01*
X0065206Y0271583D01*
X0065206Y0271584D02*
X0065158Y0271582D01*
X0065109Y0271576D01*
X0065062Y0271567D01*
X0065015Y0271554D01*
X0064970Y0271537D01*
X0064926Y0271517D01*
X0064884Y0271493D01*
X0064843Y0271466D01*
X0064805Y0271436D01*
X0064770Y0271403D01*
X0064737Y0271368D01*
X0064707Y0271330D01*
X0064680Y0271289D01*
X0064656Y0271247D01*
X0064636Y0271203D01*
X0064619Y0271158D01*
X0064606Y0271111D01*
X0064597Y0271064D01*
X0064591Y0271015D01*
X0064589Y0270967D01*
X0064589Y0269733D01*
X0064591Y0269685D01*
X0064597Y0269636D01*
X0064606Y0269589D01*
X0064619Y0269542D01*
X0064636Y0269497D01*
X0064656Y0269453D01*
X0064680Y0269411D01*
X0064707Y0269370D01*
X0064737Y0269332D01*
X0064770Y0269297D01*
X0064805Y0269264D01*
X0064843Y0269234D01*
X0064884Y0269207D01*
X0064926Y0269183D01*
X0064970Y0269163D01*
X0065015Y0269146D01*
X0065062Y0269133D01*
X0065109Y0269124D01*
X0065158Y0269118D01*
X0065206Y0269116D01*
X0065206Y0269117D02*
X0066233Y0269117D01*
X0067967Y0269117D02*
X0067967Y0271583D01*
X0068995Y0271583D01*
X0068995Y0271584D02*
X0069043Y0271582D01*
X0069092Y0271576D01*
X0069139Y0271567D01*
X0069186Y0271554D01*
X0069231Y0271537D01*
X0069275Y0271517D01*
X0069317Y0271493D01*
X0069358Y0271466D01*
X0069396Y0271436D01*
X0069431Y0271403D01*
X0069464Y0271368D01*
X0069494Y0271330D01*
X0069521Y0271289D01*
X0069545Y0271247D01*
X0069565Y0271203D01*
X0069582Y0271158D01*
X0069595Y0271111D01*
X0069604Y0271064D01*
X0069610Y0271015D01*
X0069612Y0270967D01*
X0069611Y0270967D02*
X0069611Y0269117D01*
X0066612Y0275117D02*
X0066406Y0275117D01*
X0066406Y0275322D01*
X0066612Y0275322D01*
X0066612Y0275117D01*
X0068207Y0275939D02*
X0069851Y0277994D01*
X0069749Y0278303D02*
X0069730Y0278352D01*
X0069708Y0278399D01*
X0069683Y0278445D01*
X0069655Y0278489D01*
X0069623Y0278531D01*
X0069589Y0278571D01*
X0069552Y0278609D01*
X0069513Y0278643D01*
X0069471Y0278675D01*
X0069428Y0278704D01*
X0069382Y0278730D01*
X0069335Y0278753D01*
X0069286Y0278772D01*
X0069236Y0278788D01*
X0069185Y0278801D01*
X0069134Y0278810D01*
X0069081Y0278815D01*
X0069029Y0278817D01*
X0068977Y0278815D01*
X0068924Y0278810D01*
X0068873Y0278801D01*
X0068822Y0278788D01*
X0068772Y0278772D01*
X0068723Y0278753D01*
X0068676Y0278730D01*
X0068630Y0278704D01*
X0068587Y0278675D01*
X0068545Y0278643D01*
X0068506Y0278609D01*
X0068469Y0278571D01*
X0068435Y0278531D01*
X0068403Y0278489D01*
X0068375Y0278445D01*
X0068350Y0278399D01*
X0068328Y0278352D01*
X0068309Y0278303D01*
X0069749Y0278303D02*
X0069794Y0278207D01*
X0069835Y0278109D01*
X0069873Y0278009D01*
X0069908Y0277909D01*
X0069939Y0277807D01*
X0069967Y0277704D01*
X0069990Y0277601D01*
X0070011Y0277496D01*
X0070027Y0277391D01*
X0070040Y0277286D01*
X0070050Y0277180D01*
X0070055Y0277073D01*
X0070057Y0276967D01*
X0068001Y0276967D02*
X0068003Y0277073D01*
X0068008Y0277180D01*
X0068018Y0277286D01*
X0068031Y0277391D01*
X0068047Y0277496D01*
X0068068Y0277601D01*
X0068091Y0277704D01*
X0068119Y0277807D01*
X0068150Y0277909D01*
X0068185Y0278009D01*
X0068223Y0278109D01*
X0068264Y0278207D01*
X0068309Y0278303D01*
X0070057Y0276967D02*
X0070055Y0276861D01*
X0070050Y0276754D01*
X0070040Y0276648D01*
X0070027Y0276543D01*
X0070011Y0276438D01*
X0069990Y0276333D01*
X0069967Y0276230D01*
X0069939Y0276127D01*
X0069908Y0276025D01*
X0069873Y0275925D01*
X0069835Y0275825D01*
X0069794Y0275727D01*
X0069749Y0275631D01*
X0069749Y0275630D02*
X0069730Y0275581D01*
X0069708Y0275534D01*
X0069683Y0275488D01*
X0069655Y0275444D01*
X0069623Y0275402D01*
X0069589Y0275362D01*
X0069552Y0275324D01*
X0069513Y0275290D01*
X0069471Y0275258D01*
X0069428Y0275229D01*
X0069382Y0275203D01*
X0069335Y0275180D01*
X0069286Y0275161D01*
X0069236Y0275145D01*
X0069185Y0275132D01*
X0069134Y0275123D01*
X0069081Y0275118D01*
X0069029Y0275116D01*
X0068977Y0275118D01*
X0068924Y0275123D01*
X0068873Y0275132D01*
X0068822Y0275145D01*
X0068772Y0275161D01*
X0068723Y0275180D01*
X0068676Y0275203D01*
X0068630Y0275229D01*
X0068587Y0275258D01*
X0068545Y0275290D01*
X0068506Y0275324D01*
X0068469Y0275362D01*
X0068435Y0275402D01*
X0068403Y0275444D01*
X0068375Y0275488D01*
X0068350Y0275534D01*
X0068328Y0275581D01*
X0068309Y0275630D01*
X0063270Y0275631D02*
X0063225Y0275727D01*
X0063184Y0275825D01*
X0063146Y0275925D01*
X0063111Y0276025D01*
X0063080Y0276127D01*
X0063052Y0276230D01*
X0063029Y0276333D01*
X0063008Y0276438D01*
X0062992Y0276543D01*
X0062979Y0276648D01*
X0062969Y0276754D01*
X0062964Y0276861D01*
X0062962Y0276967D01*
X0065017Y0276967D02*
X0065015Y0277073D01*
X0065010Y0277180D01*
X0065000Y0277286D01*
X0064987Y0277391D01*
X0064971Y0277496D01*
X0064950Y0277601D01*
X0064927Y0277704D01*
X0064899Y0277807D01*
X0064868Y0277909D01*
X0064833Y0278009D01*
X0064795Y0278109D01*
X0064754Y0278207D01*
X0064709Y0278303D01*
X0064811Y0277994D02*
X0063167Y0275939D01*
X0063989Y0275116D02*
X0064041Y0275118D01*
X0064094Y0275123D01*
X0064145Y0275132D01*
X0064196Y0275145D01*
X0064246Y0275161D01*
X0064295Y0275180D01*
X0064342Y0275203D01*
X0064388Y0275229D01*
X0064431Y0275258D01*
X0064473Y0275290D01*
X0064512Y0275324D01*
X0064549Y0275362D01*
X0064583Y0275402D01*
X0064615Y0275444D01*
X0064643Y0275488D01*
X0064668Y0275534D01*
X0064690Y0275581D01*
X0064709Y0275630D01*
X0063989Y0275116D02*
X0063937Y0275118D01*
X0063884Y0275123D01*
X0063833Y0275132D01*
X0063782Y0275145D01*
X0063732Y0275161D01*
X0063683Y0275180D01*
X0063636Y0275203D01*
X0063590Y0275229D01*
X0063547Y0275258D01*
X0063505Y0275290D01*
X0063466Y0275324D01*
X0063429Y0275362D01*
X0063395Y0275402D01*
X0063363Y0275444D01*
X0063335Y0275488D01*
X0063310Y0275534D01*
X0063288Y0275581D01*
X0063269Y0275630D01*
X0061572Y0275322D02*
X0061572Y0275117D01*
X0061366Y0275117D01*
X0061366Y0275322D01*
X0061572Y0275322D01*
X0059977Y0275117D02*
X0057921Y0275117D01*
X0058949Y0275117D02*
X0058949Y0278817D01*
X0057921Y0277994D01*
X0054611Y0279228D02*
X0052967Y0274705D01*
X0053241Y0272817D02*
X0054269Y0272817D01*
X0053241Y0272817D02*
X0053241Y0269117D01*
X0054269Y0269117D01*
X0054269Y0269116D02*
X0054331Y0269118D01*
X0054393Y0269123D01*
X0054454Y0269133D01*
X0054515Y0269146D01*
X0054575Y0269163D01*
X0054634Y0269183D01*
X0054691Y0269207D01*
X0054747Y0269234D01*
X0054801Y0269264D01*
X0054853Y0269298D01*
X0054903Y0269335D01*
X0054951Y0269375D01*
X0054996Y0269417D01*
X0055038Y0269462D01*
X0055078Y0269510D01*
X0055115Y0269560D01*
X0055149Y0269612D01*
X0055179Y0269666D01*
X0055206Y0269722D01*
X0055230Y0269779D01*
X0055250Y0269838D01*
X0055267Y0269898D01*
X0055280Y0269959D01*
X0055290Y0270020D01*
X0055295Y0270082D01*
X0055297Y0270144D01*
X0055297Y0271789D01*
X0055295Y0271851D01*
X0055290Y0271913D01*
X0055280Y0271974D01*
X0055267Y0272035D01*
X0055250Y0272095D01*
X0055230Y0272154D01*
X0055206Y0272211D01*
X0055179Y0272267D01*
X0055149Y0272321D01*
X0055115Y0272373D01*
X0055078Y0272423D01*
X0055038Y0272471D01*
X0054996Y0272516D01*
X0054951Y0272558D01*
X0054903Y0272598D01*
X0054853Y0272635D01*
X0054801Y0272669D01*
X0054747Y0272699D01*
X0054691Y0272726D01*
X0054634Y0272750D01*
X0054575Y0272770D01*
X0054515Y0272787D01*
X0054454Y0272800D01*
X0054393Y0272810D01*
X0054331Y0272815D01*
X0054269Y0272817D01*
X0056927Y0270761D02*
X0056927Y0269733D01*
X0056929Y0269685D01*
X0056935Y0269636D01*
X0056944Y0269589D01*
X0056957Y0269542D01*
X0056974Y0269497D01*
X0056994Y0269453D01*
X0057018Y0269411D01*
X0057045Y0269370D01*
X0057075Y0269332D01*
X0057108Y0269297D01*
X0057143Y0269264D01*
X0057181Y0269234D01*
X0057222Y0269207D01*
X0057264Y0269183D01*
X0057308Y0269163D01*
X0057353Y0269146D01*
X0057400Y0269133D01*
X0057447Y0269124D01*
X0057496Y0269118D01*
X0057544Y0269116D01*
X0057544Y0269117D02*
X0058571Y0269117D01*
X0058571Y0270350D02*
X0056927Y0270350D01*
X0056927Y0270761D02*
X0056929Y0270817D01*
X0056935Y0270873D01*
X0056944Y0270928D01*
X0056957Y0270983D01*
X0056974Y0271036D01*
X0056995Y0271088D01*
X0057019Y0271139D01*
X0057047Y0271188D01*
X0057077Y0271235D01*
X0057111Y0271280D01*
X0057148Y0271322D01*
X0057188Y0271362D01*
X0057230Y0271399D01*
X0057275Y0271433D01*
X0057322Y0271463D01*
X0057371Y0271491D01*
X0057422Y0271515D01*
X0057474Y0271536D01*
X0057527Y0271553D01*
X0057582Y0271566D01*
X0057637Y0271575D01*
X0057693Y0271581D01*
X0057749Y0271583D01*
X0057805Y0271581D01*
X0057861Y0271575D01*
X0057916Y0271566D01*
X0057971Y0271553D01*
X0058024Y0271536D01*
X0058076Y0271515D01*
X0058127Y0271491D01*
X0058176Y0271463D01*
X0058223Y0271433D01*
X0058268Y0271399D01*
X0058310Y0271362D01*
X0058350Y0271322D01*
X0058387Y0271280D01*
X0058421Y0271235D01*
X0058451Y0271188D01*
X0058479Y0271139D01*
X0058503Y0271088D01*
X0058524Y0271036D01*
X0058541Y0270983D01*
X0058554Y0270928D01*
X0058563Y0270873D01*
X0058569Y0270817D01*
X0058571Y0270761D01*
X0058571Y0270350D01*
X0060355Y0270555D02*
X0061383Y0270144D01*
X0061424Y0270125D01*
X0061463Y0270104D01*
X0061500Y0270079D01*
X0061535Y0270051D01*
X0061568Y0270020D01*
X0061598Y0269986D01*
X0061624Y0269951D01*
X0061648Y0269913D01*
X0061669Y0269873D01*
X0061686Y0269831D01*
X0061699Y0269789D01*
X0061709Y0269745D01*
X0061715Y0269701D01*
X0061718Y0269656D01*
X0061717Y0269611D01*
X0061712Y0269567D01*
X0061703Y0269523D01*
X0061690Y0269480D01*
X0061674Y0269438D01*
X0061655Y0269397D01*
X0061632Y0269359D01*
X0061606Y0269322D01*
X0061577Y0269288D01*
X0061545Y0269256D01*
X0061511Y0269227D01*
X0061475Y0269202D01*
X0061436Y0269179D01*
X0061396Y0269159D01*
X0061354Y0269143D01*
X0061311Y0269131D01*
X0061267Y0269122D01*
X0061222Y0269117D01*
X0061177Y0269116D01*
X0061486Y0271377D02*
X0061398Y0271415D01*
X0061309Y0271448D01*
X0061219Y0271478D01*
X0061127Y0271505D01*
X0061034Y0271527D01*
X0060941Y0271546D01*
X0060847Y0271561D01*
X0060752Y0271572D01*
X0060657Y0271579D01*
X0060561Y0271583D01*
X0060516Y0271582D01*
X0060471Y0271577D01*
X0060427Y0271568D01*
X0060384Y0271556D01*
X0060342Y0271540D01*
X0060302Y0271520D01*
X0060263Y0271497D01*
X0060227Y0271472D01*
X0060193Y0271443D01*
X0060161Y0271411D01*
X0060132Y0271377D01*
X0060106Y0271340D01*
X0060083Y0271302D01*
X0060064Y0271261D01*
X0060048Y0271219D01*
X0060035Y0271176D01*
X0060026Y0271132D01*
X0060021Y0271088D01*
X0060020Y0271043D01*
X0060023Y0270998D01*
X0060029Y0270954D01*
X0060039Y0270910D01*
X0060052Y0270868D01*
X0060069Y0270826D01*
X0060090Y0270786D01*
X0060114Y0270748D01*
X0060140Y0270713D01*
X0060170Y0270679D01*
X0060203Y0270648D01*
X0060238Y0270620D01*
X0060275Y0270595D01*
X0060314Y0270574D01*
X0060355Y0270555D01*
X0060047Y0269322D02*
X0060156Y0269285D01*
X0060266Y0269251D01*
X0060378Y0269221D01*
X0060490Y0269195D01*
X0060603Y0269172D01*
X0060717Y0269153D01*
X0060832Y0269138D01*
X0060947Y0269127D01*
X0061062Y0269120D01*
X0061177Y0269116D01*
X0063149Y0269117D02*
X0063149Y0271583D01*
X0063252Y0272611D02*
X0063046Y0272611D01*
X0063046Y0272817D01*
X0063252Y0272817D01*
X0063252Y0272611D01*
X0064709Y0275631D02*
X0064754Y0275727D01*
X0064795Y0275825D01*
X0064833Y0275925D01*
X0064868Y0276025D01*
X0064899Y0276127D01*
X0064927Y0276230D01*
X0064950Y0276333D01*
X0064971Y0276438D01*
X0064987Y0276543D01*
X0065000Y0276648D01*
X0065010Y0276754D01*
X0065015Y0276861D01*
X0065017Y0276967D01*
X0062961Y0276967D02*
X0062963Y0277073D01*
X0062968Y0277180D01*
X0062978Y0277286D01*
X0062991Y0277391D01*
X0063007Y0277496D01*
X0063028Y0277601D01*
X0063051Y0277704D01*
X0063079Y0277807D01*
X0063110Y0277909D01*
X0063145Y0278009D01*
X0063183Y0278109D01*
X0063224Y0278207D01*
X0063269Y0278303D01*
X0063989Y0278817D02*
X0064041Y0278815D01*
X0064094Y0278810D01*
X0064145Y0278801D01*
X0064196Y0278788D01*
X0064246Y0278772D01*
X0064295Y0278753D01*
X0064342Y0278730D01*
X0064388Y0278704D01*
X0064431Y0278675D01*
X0064473Y0278643D01*
X0064512Y0278609D01*
X0064549Y0278571D01*
X0064583Y0278531D01*
X0064615Y0278489D01*
X0064643Y0278445D01*
X0064668Y0278399D01*
X0064690Y0278352D01*
X0064709Y0278303D01*
X0063989Y0278817D02*
X0063937Y0278815D01*
X0063884Y0278810D01*
X0063833Y0278801D01*
X0063782Y0278788D01*
X0063732Y0278772D01*
X0063683Y0278753D01*
X0063636Y0278730D01*
X0063590Y0278704D01*
X0063547Y0278675D01*
X0063505Y0278643D01*
X0063466Y0278609D01*
X0063429Y0278571D01*
X0063395Y0278531D01*
X0063363Y0278489D01*
X0063335Y0278445D01*
X0063310Y0278399D01*
X0063288Y0278352D01*
X0063269Y0278303D01*
X0068002Y0276967D02*
X0068004Y0276861D01*
X0068009Y0276754D01*
X0068019Y0276648D01*
X0068032Y0276543D01*
X0068048Y0276438D01*
X0068069Y0276333D01*
X0068092Y0276230D01*
X0068120Y0276127D01*
X0068151Y0276025D01*
X0068186Y0275925D01*
X0068224Y0275825D01*
X0068265Y0275727D01*
X0068310Y0275631D01*
X0049691Y0275117D02*
X0048664Y0275117D01*
X0048664Y0275116D02*
X0048616Y0275118D01*
X0048567Y0275124D01*
X0048520Y0275133D01*
X0048473Y0275146D01*
X0048428Y0275163D01*
X0048384Y0275183D01*
X0048342Y0275207D01*
X0048301Y0275234D01*
X0048263Y0275264D01*
X0048228Y0275297D01*
X0048195Y0275332D01*
X0048165Y0275370D01*
X0048138Y0275411D01*
X0048114Y0275453D01*
X0048094Y0275497D01*
X0048077Y0275542D01*
X0048064Y0275589D01*
X0048055Y0275636D01*
X0048049Y0275685D01*
X0048047Y0275733D01*
X0048047Y0276761D01*
X0048047Y0276350D02*
X0049691Y0276350D01*
X0049691Y0276761D01*
X0049689Y0276817D01*
X0049683Y0276873D01*
X0049674Y0276928D01*
X0049661Y0276983D01*
X0049644Y0277036D01*
X0049623Y0277088D01*
X0049599Y0277139D01*
X0049571Y0277188D01*
X0049541Y0277235D01*
X0049507Y0277280D01*
X0049470Y0277322D01*
X0049430Y0277362D01*
X0049388Y0277399D01*
X0049343Y0277433D01*
X0049296Y0277463D01*
X0049247Y0277491D01*
X0049196Y0277515D01*
X0049144Y0277536D01*
X0049091Y0277553D01*
X0049036Y0277566D01*
X0048981Y0277575D01*
X0048925Y0277581D01*
X0048869Y0277583D01*
X0048813Y0277581D01*
X0048757Y0277575D01*
X0048702Y0277566D01*
X0048647Y0277553D01*
X0048594Y0277536D01*
X0048542Y0277515D01*
X0048491Y0277491D01*
X0048442Y0277463D01*
X0048395Y0277433D01*
X0048350Y0277399D01*
X0048308Y0277362D01*
X0048268Y0277322D01*
X0048231Y0277280D01*
X0048197Y0277235D01*
X0048167Y0277188D01*
X0048139Y0277139D01*
X0048115Y0277088D01*
X0048094Y0277036D01*
X0048077Y0276983D01*
X0048064Y0276928D01*
X0048055Y0276873D01*
X0048049Y0276817D01*
X0048047Y0276761D01*
X0046793Y0275116D02*
X0046745Y0275118D01*
X0046696Y0275124D01*
X0046649Y0275133D01*
X0046602Y0275146D01*
X0046557Y0275163D01*
X0046513Y0275183D01*
X0046471Y0275207D01*
X0046430Y0275234D01*
X0046392Y0275264D01*
X0046357Y0275297D01*
X0046324Y0275332D01*
X0046294Y0275370D01*
X0046267Y0275411D01*
X0046243Y0275453D01*
X0046223Y0275497D01*
X0046206Y0275542D01*
X0046193Y0275589D01*
X0046184Y0275636D01*
X0046178Y0275685D01*
X0046176Y0275733D01*
X0046176Y0278817D01*
X0044670Y0276967D02*
X0044670Y0275733D01*
X0044668Y0275685D01*
X0044662Y0275636D01*
X0044653Y0275589D01*
X0044640Y0275542D01*
X0044623Y0275497D01*
X0044603Y0275453D01*
X0044579Y0275411D01*
X0044552Y0275370D01*
X0044522Y0275332D01*
X0044489Y0275297D01*
X0044454Y0275264D01*
X0044416Y0275234D01*
X0044375Y0275207D01*
X0044333Y0275183D01*
X0044289Y0275163D01*
X0044244Y0275146D01*
X0044197Y0275133D01*
X0044150Y0275124D01*
X0044101Y0275118D01*
X0044053Y0275116D01*
X0044053Y0275117D02*
X0043025Y0275117D01*
X0043025Y0273883D02*
X0043025Y0277583D01*
X0044053Y0277583D01*
X0044053Y0277584D02*
X0044101Y0277582D01*
X0044150Y0277576D01*
X0044197Y0277567D01*
X0044244Y0277554D01*
X0044289Y0277537D01*
X0044333Y0277517D01*
X0044375Y0277493D01*
X0044416Y0277466D01*
X0044454Y0277436D01*
X0044489Y0277403D01*
X0044522Y0277368D01*
X0044552Y0277330D01*
X0044579Y0277289D01*
X0044603Y0277247D01*
X0044623Y0277203D01*
X0044640Y0277158D01*
X0044653Y0277111D01*
X0044662Y0277064D01*
X0044668Y0277015D01*
X0044670Y0276967D01*
X0046176Y0272817D02*
X0046176Y0269733D01*
X0046178Y0269685D01*
X0046184Y0269636D01*
X0046193Y0269589D01*
X0046206Y0269542D01*
X0046223Y0269497D01*
X0046243Y0269453D01*
X0046267Y0269411D01*
X0046294Y0269370D01*
X0046324Y0269332D01*
X0046357Y0269297D01*
X0046392Y0269264D01*
X0046430Y0269234D01*
X0046471Y0269207D01*
X0046513Y0269183D01*
X0046557Y0269163D01*
X0046602Y0269146D01*
X0046649Y0269133D01*
X0046696Y0269124D01*
X0046745Y0269118D01*
X0046793Y0269116D01*
X0048047Y0269733D02*
X0048047Y0270761D01*
X0048047Y0270350D02*
X0049691Y0270350D01*
X0049691Y0270761D01*
X0049689Y0270817D01*
X0049683Y0270873D01*
X0049674Y0270928D01*
X0049661Y0270983D01*
X0049644Y0271036D01*
X0049623Y0271088D01*
X0049599Y0271139D01*
X0049571Y0271188D01*
X0049541Y0271235D01*
X0049507Y0271280D01*
X0049470Y0271322D01*
X0049430Y0271362D01*
X0049388Y0271399D01*
X0049343Y0271433D01*
X0049296Y0271463D01*
X0049247Y0271491D01*
X0049196Y0271515D01*
X0049144Y0271536D01*
X0049091Y0271553D01*
X0049036Y0271566D01*
X0048981Y0271575D01*
X0048925Y0271581D01*
X0048869Y0271583D01*
X0048813Y0271581D01*
X0048757Y0271575D01*
X0048702Y0271566D01*
X0048647Y0271553D01*
X0048594Y0271536D01*
X0048542Y0271515D01*
X0048491Y0271491D01*
X0048442Y0271463D01*
X0048395Y0271433D01*
X0048350Y0271399D01*
X0048308Y0271362D01*
X0048268Y0271322D01*
X0048231Y0271280D01*
X0048197Y0271235D01*
X0048167Y0271188D01*
X0048139Y0271139D01*
X0048115Y0271088D01*
X0048094Y0271036D01*
X0048077Y0270983D01*
X0048064Y0270928D01*
X0048055Y0270873D01*
X0048049Y0270817D01*
X0048047Y0270761D01*
X0048047Y0269733D02*
X0048049Y0269685D01*
X0048055Y0269636D01*
X0048064Y0269589D01*
X0048077Y0269542D01*
X0048094Y0269497D01*
X0048114Y0269453D01*
X0048138Y0269411D01*
X0048165Y0269370D01*
X0048195Y0269332D01*
X0048228Y0269297D01*
X0048263Y0269264D01*
X0048301Y0269234D01*
X0048342Y0269207D01*
X0048384Y0269183D01*
X0048428Y0269163D01*
X0048473Y0269146D01*
X0048520Y0269133D01*
X0048567Y0269124D01*
X0048616Y0269118D01*
X0048664Y0269116D01*
X0048664Y0269117D02*
X0049691Y0269117D01*
X0044670Y0269733D02*
X0044670Y0270967D01*
X0044668Y0271015D01*
X0044662Y0271064D01*
X0044653Y0271111D01*
X0044640Y0271158D01*
X0044623Y0271203D01*
X0044603Y0271247D01*
X0044579Y0271289D01*
X0044552Y0271330D01*
X0044522Y0271368D01*
X0044489Y0271403D01*
X0044454Y0271436D01*
X0044416Y0271466D01*
X0044375Y0271493D01*
X0044333Y0271517D01*
X0044289Y0271537D01*
X0044244Y0271554D01*
X0044197Y0271567D01*
X0044150Y0271576D01*
X0044101Y0271582D01*
X0044053Y0271584D01*
X0044053Y0271583D02*
X0043025Y0271583D01*
X0043025Y0267883D01*
X0043025Y0269117D02*
X0044053Y0269117D01*
X0044053Y0269116D02*
X0044101Y0269118D01*
X0044150Y0269124D01*
X0044197Y0269133D01*
X0044244Y0269146D01*
X0044289Y0269163D01*
X0044333Y0269183D01*
X0044375Y0269207D01*
X0044416Y0269234D01*
X0044454Y0269264D01*
X0044489Y0269297D01*
X0044522Y0269332D01*
X0044552Y0269370D01*
X0044579Y0269411D01*
X0044603Y0269453D01*
X0044623Y0269497D01*
X0044640Y0269542D01*
X0044653Y0269589D01*
X0044662Y0269636D01*
X0044668Y0269685D01*
X0044670Y0269733D01*
X0041430Y0269733D02*
X0041430Y0270967D01*
X0041428Y0271015D01*
X0041422Y0271064D01*
X0041413Y0271111D01*
X0041400Y0271158D01*
X0041383Y0271203D01*
X0041363Y0271247D01*
X0041339Y0271289D01*
X0041312Y0271330D01*
X0041282Y0271368D01*
X0041249Y0271403D01*
X0041214Y0271436D01*
X0041176Y0271466D01*
X0041135Y0271493D01*
X0041093Y0271517D01*
X0041049Y0271537D01*
X0041004Y0271554D01*
X0040957Y0271567D01*
X0040910Y0271576D01*
X0040861Y0271582D01*
X0040813Y0271584D01*
X0040813Y0271583D02*
X0039785Y0271583D01*
X0039785Y0267883D01*
X0039785Y0269117D02*
X0040813Y0269117D01*
X0040813Y0269116D02*
X0040861Y0269118D01*
X0040910Y0269124D01*
X0040957Y0269133D01*
X0041004Y0269146D01*
X0041049Y0269163D01*
X0041093Y0269183D01*
X0041135Y0269207D01*
X0041176Y0269234D01*
X0041214Y0269264D01*
X0041249Y0269297D01*
X0041282Y0269332D01*
X0041312Y0269370D01*
X0041339Y0269411D01*
X0041363Y0269453D01*
X0041383Y0269497D01*
X0041400Y0269542D01*
X0041413Y0269589D01*
X0041422Y0269636D01*
X0041428Y0269685D01*
X0041430Y0269733D01*
X0039785Y0273883D02*
X0039785Y0277583D01*
X0040813Y0277583D01*
X0040813Y0277584D02*
X0040861Y0277582D01*
X0040910Y0277576D01*
X0040957Y0277567D01*
X0041004Y0277554D01*
X0041049Y0277537D01*
X0041093Y0277517D01*
X0041135Y0277493D01*
X0041176Y0277466D01*
X0041214Y0277436D01*
X0041249Y0277403D01*
X0041282Y0277368D01*
X0041312Y0277330D01*
X0041339Y0277289D01*
X0041363Y0277247D01*
X0041383Y0277203D01*
X0041400Y0277158D01*
X0041413Y0277111D01*
X0041422Y0277064D01*
X0041428Y0277015D01*
X0041430Y0276967D01*
X0041430Y0275733D01*
X0041428Y0275685D01*
X0041422Y0275636D01*
X0041413Y0275589D01*
X0041400Y0275542D01*
X0041383Y0275497D01*
X0041363Y0275453D01*
X0041339Y0275411D01*
X0041312Y0275370D01*
X0041282Y0275332D01*
X0041249Y0275297D01*
X0041214Y0275264D01*
X0041176Y0275234D01*
X0041135Y0275207D01*
X0041093Y0275183D01*
X0041049Y0275163D01*
X0041004Y0275146D01*
X0040957Y0275133D01*
X0040910Y0275124D01*
X0040861Y0275118D01*
X0040813Y0275116D01*
X0040813Y0275117D02*
X0039785Y0275117D01*
X0038034Y0275117D02*
X0038034Y0276967D01*
X0038034Y0276555D02*
X0037109Y0276555D01*
X0038034Y0276967D02*
X0038032Y0277015D01*
X0038026Y0277064D01*
X0038017Y0277111D01*
X0038004Y0277158D01*
X0037987Y0277203D01*
X0037967Y0277247D01*
X0037943Y0277289D01*
X0037916Y0277330D01*
X0037886Y0277368D01*
X0037853Y0277403D01*
X0037818Y0277436D01*
X0037780Y0277466D01*
X0037739Y0277493D01*
X0037697Y0277517D01*
X0037653Y0277537D01*
X0037608Y0277554D01*
X0037561Y0277567D01*
X0037514Y0277576D01*
X0037465Y0277582D01*
X0037417Y0277584D01*
X0037417Y0277583D02*
X0036595Y0277583D01*
X0037109Y0276555D02*
X0037057Y0276553D01*
X0037004Y0276547D01*
X0036953Y0276538D01*
X0036902Y0276525D01*
X0036852Y0276508D01*
X0036804Y0276487D01*
X0036757Y0276463D01*
X0036712Y0276436D01*
X0036670Y0276405D01*
X0036629Y0276371D01*
X0036591Y0276335D01*
X0036556Y0276296D01*
X0036524Y0276254D01*
X0036495Y0276211D01*
X0036470Y0276165D01*
X0036447Y0276117D01*
X0036429Y0276068D01*
X0036413Y0276018D01*
X0036402Y0275967D01*
X0036394Y0275915D01*
X0036390Y0275862D01*
X0036390Y0275810D01*
X0036394Y0275757D01*
X0036402Y0275705D01*
X0036413Y0275654D01*
X0036429Y0275604D01*
X0036447Y0275555D01*
X0036470Y0275507D01*
X0036495Y0275461D01*
X0036524Y0275418D01*
X0036556Y0275376D01*
X0036591Y0275337D01*
X0036629Y0275301D01*
X0036670Y0275267D01*
X0036712Y0275236D01*
X0036757Y0275209D01*
X0036804Y0275185D01*
X0036852Y0275164D01*
X0036902Y0275147D01*
X0036953Y0275134D01*
X0037004Y0275125D01*
X0037057Y0275119D01*
X0037109Y0275117D01*
X0038034Y0275117D01*
X0034932Y0275117D02*
X0033904Y0275117D01*
X0033904Y0275116D02*
X0033856Y0275118D01*
X0033807Y0275124D01*
X0033760Y0275133D01*
X0033713Y0275146D01*
X0033668Y0275163D01*
X0033624Y0275183D01*
X0033582Y0275207D01*
X0033541Y0275234D01*
X0033503Y0275264D01*
X0033468Y0275297D01*
X0033435Y0275332D01*
X0033405Y0275370D01*
X0033378Y0275411D01*
X0033354Y0275453D01*
X0033334Y0275497D01*
X0033317Y0275542D01*
X0033304Y0275589D01*
X0033295Y0275636D01*
X0033289Y0275685D01*
X0033287Y0275733D01*
X0033287Y0276761D01*
X0033287Y0276350D02*
X0034932Y0276350D01*
X0034932Y0276761D01*
X0034931Y0276761D02*
X0034929Y0276817D01*
X0034923Y0276873D01*
X0034914Y0276928D01*
X0034901Y0276983D01*
X0034884Y0277036D01*
X0034863Y0277088D01*
X0034839Y0277139D01*
X0034811Y0277188D01*
X0034781Y0277235D01*
X0034747Y0277280D01*
X0034710Y0277322D01*
X0034670Y0277362D01*
X0034628Y0277399D01*
X0034583Y0277433D01*
X0034536Y0277463D01*
X0034487Y0277491D01*
X0034436Y0277515D01*
X0034384Y0277536D01*
X0034331Y0277553D01*
X0034276Y0277566D01*
X0034221Y0277575D01*
X0034165Y0277581D01*
X0034109Y0277583D01*
X0034053Y0277581D01*
X0033997Y0277575D01*
X0033942Y0277566D01*
X0033887Y0277553D01*
X0033834Y0277536D01*
X0033782Y0277515D01*
X0033731Y0277491D01*
X0033682Y0277463D01*
X0033635Y0277433D01*
X0033590Y0277399D01*
X0033548Y0277362D01*
X0033508Y0277322D01*
X0033471Y0277280D01*
X0033437Y0277235D01*
X0033407Y0277188D01*
X0033379Y0277139D01*
X0033355Y0277088D01*
X0033334Y0277036D01*
X0033317Y0276983D01*
X0033304Y0276928D01*
X0033295Y0276873D01*
X0033289Y0276817D01*
X0033287Y0276761D01*
X0031692Y0276967D02*
X0031692Y0275117D01*
X0030047Y0275117D02*
X0030047Y0277583D01*
X0031075Y0277583D01*
X0031075Y0277584D02*
X0031123Y0277582D01*
X0031172Y0277576D01*
X0031219Y0277567D01*
X0031266Y0277554D01*
X0031311Y0277537D01*
X0031355Y0277517D01*
X0031397Y0277493D01*
X0031438Y0277466D01*
X0031476Y0277436D01*
X0031511Y0277403D01*
X0031544Y0277368D01*
X0031574Y0277330D01*
X0031601Y0277289D01*
X0031625Y0277247D01*
X0031645Y0277203D01*
X0031662Y0277158D01*
X0031675Y0277111D01*
X0031684Y0277064D01*
X0031690Y0277015D01*
X0031692Y0276967D01*
X0028469Y0277583D02*
X0028469Y0275117D01*
X0028367Y0272817D02*
X0028572Y0272817D01*
X0028572Y0272611D01*
X0028367Y0272611D01*
X0028367Y0272817D01*
X0028469Y0271583D02*
X0028469Y0269117D01*
X0030047Y0269117D02*
X0030047Y0271583D01*
X0031075Y0271583D01*
X0031075Y0271584D02*
X0031123Y0271582D01*
X0031172Y0271576D01*
X0031219Y0271567D01*
X0031266Y0271554D01*
X0031311Y0271537D01*
X0031355Y0271517D01*
X0031397Y0271493D01*
X0031438Y0271466D01*
X0031476Y0271436D01*
X0031511Y0271403D01*
X0031544Y0271368D01*
X0031574Y0271330D01*
X0031601Y0271289D01*
X0031625Y0271247D01*
X0031645Y0271203D01*
X0031662Y0271158D01*
X0031675Y0271111D01*
X0031684Y0271064D01*
X0031690Y0271015D01*
X0031692Y0270967D01*
X0031692Y0269117D01*
X0033287Y0269733D02*
X0033287Y0270761D01*
X0033287Y0270350D02*
X0034932Y0270350D01*
X0034932Y0270761D01*
X0034931Y0270761D02*
X0034929Y0270817D01*
X0034923Y0270873D01*
X0034914Y0270928D01*
X0034901Y0270983D01*
X0034884Y0271036D01*
X0034863Y0271088D01*
X0034839Y0271139D01*
X0034811Y0271188D01*
X0034781Y0271235D01*
X0034747Y0271280D01*
X0034710Y0271322D01*
X0034670Y0271362D01*
X0034628Y0271399D01*
X0034583Y0271433D01*
X0034536Y0271463D01*
X0034487Y0271491D01*
X0034436Y0271515D01*
X0034384Y0271536D01*
X0034331Y0271553D01*
X0034276Y0271566D01*
X0034221Y0271575D01*
X0034165Y0271581D01*
X0034109Y0271583D01*
X0034053Y0271581D01*
X0033997Y0271575D01*
X0033942Y0271566D01*
X0033887Y0271553D01*
X0033834Y0271536D01*
X0033782Y0271515D01*
X0033731Y0271491D01*
X0033682Y0271463D01*
X0033635Y0271433D01*
X0033590Y0271399D01*
X0033548Y0271362D01*
X0033508Y0271322D01*
X0033471Y0271280D01*
X0033437Y0271235D01*
X0033407Y0271188D01*
X0033379Y0271139D01*
X0033355Y0271088D01*
X0033334Y0271036D01*
X0033317Y0270983D01*
X0033304Y0270928D01*
X0033295Y0270873D01*
X0033289Y0270817D01*
X0033287Y0270761D01*
X0033287Y0269733D02*
X0033289Y0269685D01*
X0033295Y0269636D01*
X0033304Y0269589D01*
X0033317Y0269542D01*
X0033334Y0269497D01*
X0033354Y0269453D01*
X0033378Y0269411D01*
X0033405Y0269370D01*
X0033435Y0269332D01*
X0033468Y0269297D01*
X0033503Y0269264D01*
X0033541Y0269234D01*
X0033582Y0269207D01*
X0033624Y0269183D01*
X0033668Y0269163D01*
X0033713Y0269146D01*
X0033760Y0269133D01*
X0033807Y0269124D01*
X0033856Y0269118D01*
X0033904Y0269116D01*
X0033904Y0269117D02*
X0034932Y0269117D01*
X0037109Y0269117D02*
X0038034Y0269117D01*
X0038034Y0270967D01*
X0038034Y0270555D02*
X0037109Y0270555D01*
X0038034Y0270967D02*
X0038032Y0271015D01*
X0038026Y0271064D01*
X0038017Y0271111D01*
X0038004Y0271158D01*
X0037987Y0271203D01*
X0037967Y0271247D01*
X0037943Y0271289D01*
X0037916Y0271330D01*
X0037886Y0271368D01*
X0037853Y0271403D01*
X0037818Y0271436D01*
X0037780Y0271466D01*
X0037739Y0271493D01*
X0037697Y0271517D01*
X0037653Y0271537D01*
X0037608Y0271554D01*
X0037561Y0271567D01*
X0037514Y0271576D01*
X0037465Y0271582D01*
X0037417Y0271584D01*
X0037417Y0271583D02*
X0036595Y0271583D01*
X0037109Y0270555D02*
X0037057Y0270553D01*
X0037004Y0270547D01*
X0036953Y0270538D01*
X0036902Y0270525D01*
X0036852Y0270508D01*
X0036804Y0270487D01*
X0036757Y0270463D01*
X0036712Y0270436D01*
X0036670Y0270405D01*
X0036629Y0270371D01*
X0036591Y0270335D01*
X0036556Y0270296D01*
X0036524Y0270254D01*
X0036495Y0270211D01*
X0036470Y0270165D01*
X0036447Y0270117D01*
X0036429Y0270068D01*
X0036413Y0270018D01*
X0036402Y0269967D01*
X0036394Y0269915D01*
X0036390Y0269862D01*
X0036390Y0269810D01*
X0036394Y0269757D01*
X0036402Y0269705D01*
X0036413Y0269654D01*
X0036429Y0269604D01*
X0036447Y0269555D01*
X0036470Y0269507D01*
X0036495Y0269461D01*
X0036524Y0269418D01*
X0036556Y0269376D01*
X0036591Y0269337D01*
X0036629Y0269301D01*
X0036670Y0269267D01*
X0036712Y0269236D01*
X0036757Y0269209D01*
X0036804Y0269185D01*
X0036852Y0269164D01*
X0036902Y0269147D01*
X0036953Y0269134D01*
X0037004Y0269125D01*
X0037057Y0269119D01*
X0037109Y0269117D01*
X0028572Y0278611D02*
X0028367Y0278611D01*
X0028367Y0278817D01*
X0028572Y0278817D01*
X0028572Y0278611D01*
X0026121Y0278817D02*
X0025093Y0278817D01*
X0025093Y0275117D01*
X0025093Y0276761D02*
X0026121Y0276761D01*
X0026184Y0276763D01*
X0026247Y0276769D01*
X0026310Y0276779D01*
X0026372Y0276792D01*
X0026433Y0276809D01*
X0026492Y0276830D01*
X0026551Y0276855D01*
X0026607Y0276883D01*
X0026662Y0276915D01*
X0026715Y0276950D01*
X0026765Y0276988D01*
X0026814Y0277029D01*
X0026859Y0277073D01*
X0026902Y0277120D01*
X0026941Y0277169D01*
X0026978Y0277221D01*
X0027011Y0277275D01*
X0027041Y0277331D01*
X0027068Y0277388D01*
X0027091Y0277447D01*
X0027110Y0277508D01*
X0027125Y0277569D01*
X0027137Y0277631D01*
X0027145Y0277694D01*
X0027149Y0277757D01*
X0027149Y0277821D01*
X0027145Y0277884D01*
X0027137Y0277947D01*
X0027125Y0278009D01*
X0027110Y0278070D01*
X0027091Y0278131D01*
X0027068Y0278190D01*
X0027041Y0278247D01*
X0027011Y0278303D01*
X0026978Y0278357D01*
X0026941Y0278409D01*
X0026902Y0278458D01*
X0026859Y0278505D01*
X0026814Y0278549D01*
X0026765Y0278590D01*
X0026715Y0278628D01*
X0026662Y0278663D01*
X0026607Y0278695D01*
X0026551Y0278723D01*
X0026492Y0278748D01*
X0026433Y0278769D01*
X0026372Y0278786D01*
X0026310Y0278799D01*
X0026247Y0278809D01*
X0026184Y0278815D01*
X0026121Y0278817D01*
X0026121Y0272817D02*
X0025093Y0272817D01*
X0025093Y0269117D01*
X0025093Y0270761D02*
X0026121Y0270761D01*
X0026184Y0270763D01*
X0026247Y0270769D01*
X0026310Y0270779D01*
X0026372Y0270792D01*
X0026433Y0270809D01*
X0026492Y0270830D01*
X0026551Y0270855D01*
X0026607Y0270883D01*
X0026662Y0270915D01*
X0026715Y0270950D01*
X0026765Y0270988D01*
X0026814Y0271029D01*
X0026859Y0271073D01*
X0026902Y0271120D01*
X0026941Y0271169D01*
X0026978Y0271221D01*
X0027011Y0271275D01*
X0027041Y0271331D01*
X0027068Y0271388D01*
X0027091Y0271447D01*
X0027110Y0271508D01*
X0027125Y0271569D01*
X0027137Y0271631D01*
X0027145Y0271694D01*
X0027149Y0271757D01*
X0027149Y0271821D01*
X0027145Y0271884D01*
X0027137Y0271947D01*
X0027125Y0272009D01*
X0027110Y0272070D01*
X0027091Y0272131D01*
X0027068Y0272190D01*
X0027041Y0272247D01*
X0027011Y0272303D01*
X0026978Y0272357D01*
X0026941Y0272409D01*
X0026902Y0272458D01*
X0026859Y0272505D01*
X0026814Y0272549D01*
X0026765Y0272590D01*
X0026715Y0272628D01*
X0026662Y0272663D01*
X0026607Y0272695D01*
X0026551Y0272723D01*
X0026492Y0272748D01*
X0026433Y0272769D01*
X0026372Y0272786D01*
X0026310Y0272799D01*
X0026247Y0272809D01*
X0026184Y0272815D01*
X0026121Y0272817D01*
X0174871Y0046111D02*
X0174871Y0044823D01*
X0177771Y0044823D01*
X0177771Y0043615D02*
X0177771Y0042327D01*
X0174871Y0042327D01*
X0174871Y0043615D01*
X0176160Y0043293D02*
X0176160Y0042327D01*
X0176482Y0040331D02*
X0177771Y0040976D01*
X0176482Y0040170D02*
X0176482Y0039365D01*
X0176483Y0040170D02*
X0176481Y0040225D01*
X0176475Y0040280D01*
X0176466Y0040334D01*
X0176453Y0040387D01*
X0176436Y0040440D01*
X0176416Y0040491D01*
X0176393Y0040541D01*
X0176366Y0040589D01*
X0176335Y0040635D01*
X0176302Y0040679D01*
X0176266Y0040720D01*
X0176227Y0040759D01*
X0176186Y0040795D01*
X0176142Y0040828D01*
X0176096Y0040859D01*
X0176048Y0040886D01*
X0175998Y0040909D01*
X0175947Y0040929D01*
X0175894Y0040946D01*
X0175841Y0040959D01*
X0175787Y0040968D01*
X0175732Y0040974D01*
X0175677Y0040976D01*
X0175622Y0040974D01*
X0175567Y0040968D01*
X0175513Y0040959D01*
X0175460Y0040946D01*
X0175407Y0040929D01*
X0175356Y0040909D01*
X0175306Y0040886D01*
X0175258Y0040859D01*
X0175212Y0040828D01*
X0175168Y0040795D01*
X0175127Y0040759D01*
X0175088Y0040720D01*
X0175052Y0040679D01*
X0175019Y0040635D01*
X0174988Y0040589D01*
X0174961Y0040541D01*
X0174938Y0040491D01*
X0174918Y0040440D01*
X0174901Y0040387D01*
X0174888Y0040334D01*
X0174879Y0040280D01*
X0174873Y0040225D01*
X0174871Y0040170D01*
X0174871Y0039365D01*
X0177771Y0039365D01*
X0177771Y0038000D02*
X0176482Y0037355D01*
X0176482Y0037194D02*
X0176482Y0036389D01*
X0176483Y0037194D02*
X0176481Y0037249D01*
X0176475Y0037304D01*
X0176466Y0037358D01*
X0176453Y0037411D01*
X0176436Y0037464D01*
X0176416Y0037515D01*
X0176393Y0037565D01*
X0176366Y0037613D01*
X0176335Y0037659D01*
X0176302Y0037703D01*
X0176266Y0037744D01*
X0176227Y0037783D01*
X0176186Y0037819D01*
X0176142Y0037852D01*
X0176096Y0037883D01*
X0176048Y0037910D01*
X0175998Y0037933D01*
X0175947Y0037953D01*
X0175894Y0037970D01*
X0175841Y0037983D01*
X0175787Y0037992D01*
X0175732Y0037998D01*
X0175677Y0038000D01*
X0175622Y0037998D01*
X0175567Y0037992D01*
X0175513Y0037983D01*
X0175460Y0037970D01*
X0175407Y0037953D01*
X0175356Y0037933D01*
X0175306Y0037910D01*
X0175258Y0037883D01*
X0175212Y0037852D01*
X0175168Y0037819D01*
X0175127Y0037783D01*
X0175088Y0037744D01*
X0175052Y0037703D01*
X0175019Y0037659D01*
X0174988Y0037613D01*
X0174961Y0037565D01*
X0174938Y0037515D01*
X0174918Y0037464D01*
X0174901Y0037411D01*
X0174888Y0037358D01*
X0174879Y0037304D01*
X0174873Y0037249D01*
X0174871Y0037194D01*
X0174871Y0036389D01*
X0177771Y0036389D01*
X0176160Y0044823D02*
X0176160Y0046111D01*
D11*
X0173821Y0051250D02*
X0178821Y0051250D01*
X0181321Y0053750D01*
X0181321Y0058750D01*
X0178821Y0061250D01*
X0181321Y0063750D01*
X0181321Y0068750D01*
X0178821Y0071250D01*
X0173821Y0071250D01*
X0171321Y0068750D01*
X0171321Y0063750D01*
X0173821Y0061250D01*
X0178821Y0061250D01*
X0173821Y0061250D02*
X0171321Y0058750D01*
X0171321Y0053750D01*
X0173821Y0051250D01*
X0145821Y0030250D02*
X0145821Y0022250D01*
X0145819Y0022190D01*
X0145814Y0022129D01*
X0145805Y0022070D01*
X0145792Y0022011D01*
X0145776Y0021952D01*
X0145756Y0021895D01*
X0145733Y0021840D01*
X0145706Y0021785D01*
X0145677Y0021733D01*
X0145644Y0021682D01*
X0145608Y0021633D01*
X0145570Y0021587D01*
X0145528Y0021543D01*
X0145484Y0021501D01*
X0145438Y0021463D01*
X0145389Y0021427D01*
X0145338Y0021394D01*
X0145286Y0021365D01*
X0145231Y0021338D01*
X0145176Y0021315D01*
X0145119Y0021295D01*
X0145060Y0021279D01*
X0145001Y0021266D01*
X0144942Y0021257D01*
X0144881Y0021252D01*
X0144821Y0021250D01*
X0127821Y0021250D01*
X0127761Y0021252D01*
X0127700Y0021257D01*
X0127641Y0021266D01*
X0127582Y0021279D01*
X0127523Y0021295D01*
X0127466Y0021315D01*
X0127411Y0021338D01*
X0127356Y0021365D01*
X0127304Y0021394D01*
X0127253Y0021427D01*
X0127204Y0021463D01*
X0127158Y0021501D01*
X0127114Y0021543D01*
X0127072Y0021587D01*
X0127034Y0021633D01*
X0126998Y0021682D01*
X0126965Y0021733D01*
X0126936Y0021785D01*
X0126909Y0021840D01*
X0126886Y0021895D01*
X0126866Y0021952D01*
X0126850Y0022011D01*
X0126837Y0022070D01*
X0126828Y0022129D01*
X0126823Y0022190D01*
X0126821Y0022250D01*
X0126821Y0030250D01*
X0126823Y0030310D01*
X0126828Y0030371D01*
X0126837Y0030430D01*
X0126850Y0030489D01*
X0126866Y0030548D01*
X0126886Y0030605D01*
X0126909Y0030660D01*
X0126936Y0030715D01*
X0126965Y0030767D01*
X0126998Y0030818D01*
X0127034Y0030867D01*
X0127072Y0030913D01*
X0127114Y0030957D01*
X0127158Y0030999D01*
X0127204Y0031037D01*
X0127253Y0031073D01*
X0127304Y0031106D01*
X0127356Y0031135D01*
X0127411Y0031162D01*
X0127466Y0031185D01*
X0127523Y0031205D01*
X0127582Y0031221D01*
X0127641Y0031234D01*
X0127700Y0031243D01*
X0127761Y0031248D01*
X0127821Y0031250D01*
X0144821Y0031250D01*
X0144881Y0031248D01*
X0144942Y0031243D01*
X0145001Y0031234D01*
X0145060Y0031221D01*
X0145119Y0031205D01*
X0145176Y0031185D01*
X0145231Y0031162D01*
X0145286Y0031135D01*
X0145338Y0031106D01*
X0145389Y0031073D01*
X0145438Y0031037D01*
X0145484Y0030999D01*
X0145528Y0030957D01*
X0145570Y0030913D01*
X0145608Y0030867D01*
X0145644Y0030818D01*
X0145677Y0030767D01*
X0145706Y0030715D01*
X0145733Y0030660D01*
X0145756Y0030605D01*
X0145776Y0030548D01*
X0145792Y0030489D01*
X0145805Y0030430D01*
X0145814Y0030371D01*
X0145819Y0030310D01*
X0145821Y0030250D01*
X0137821Y0026250D02*
X0137321Y0026250D01*
X0135321Y0026250D02*
X0134821Y0026250D01*
X0122821Y0031250D02*
X0099821Y0031250D01*
X0099821Y0071250D01*
X0107321Y0071250D01*
X0107323Y0071124D01*
X0107329Y0070999D01*
X0107339Y0070874D01*
X0107353Y0070749D01*
X0107370Y0070624D01*
X0107392Y0070500D01*
X0107417Y0070377D01*
X0107447Y0070255D01*
X0107480Y0070134D01*
X0107517Y0070014D01*
X0107557Y0069895D01*
X0107602Y0069778D01*
X0107650Y0069661D01*
X0107702Y0069547D01*
X0107757Y0069434D01*
X0107816Y0069323D01*
X0107878Y0069214D01*
X0107944Y0069107D01*
X0108013Y0069002D01*
X0108085Y0068899D01*
X0108160Y0068798D01*
X0108239Y0068700D01*
X0108321Y0068605D01*
X0108405Y0068512D01*
X0108493Y0068422D01*
X0108583Y0068334D01*
X0108676Y0068250D01*
X0108771Y0068168D01*
X0108869Y0068089D01*
X0108970Y0068014D01*
X0109073Y0067942D01*
X0109178Y0067873D01*
X0109285Y0067807D01*
X0109394Y0067745D01*
X0109505Y0067686D01*
X0109618Y0067631D01*
X0109732Y0067579D01*
X0109849Y0067531D01*
X0109966Y0067486D01*
X0110085Y0067446D01*
X0110205Y0067409D01*
X0110326Y0067376D01*
X0110448Y0067346D01*
X0110571Y0067321D01*
X0110695Y0067299D01*
X0110820Y0067282D01*
X0110945Y0067268D01*
X0111070Y0067258D01*
X0111195Y0067252D01*
X0111321Y0067250D01*
X0111447Y0067252D01*
X0111572Y0067258D01*
X0111697Y0067268D01*
X0111822Y0067282D01*
X0111947Y0067299D01*
X0112071Y0067321D01*
X0112194Y0067346D01*
X0112316Y0067376D01*
X0112437Y0067409D01*
X0112557Y0067446D01*
X0112676Y0067486D01*
X0112793Y0067531D01*
X0112910Y0067579D01*
X0113024Y0067631D01*
X0113137Y0067686D01*
X0113248Y0067745D01*
X0113357Y0067807D01*
X0113464Y0067873D01*
X0113569Y0067942D01*
X0113672Y0068014D01*
X0113773Y0068089D01*
X0113871Y0068168D01*
X0113966Y0068250D01*
X0114059Y0068334D01*
X0114149Y0068422D01*
X0114237Y0068512D01*
X0114321Y0068605D01*
X0114403Y0068700D01*
X0114482Y0068798D01*
X0114557Y0068899D01*
X0114629Y0069002D01*
X0114698Y0069107D01*
X0114764Y0069214D01*
X0114826Y0069323D01*
X0114885Y0069434D01*
X0114940Y0069547D01*
X0114992Y0069661D01*
X0115040Y0069778D01*
X0115085Y0069895D01*
X0115125Y0070014D01*
X0115162Y0070134D01*
X0115195Y0070255D01*
X0115225Y0070377D01*
X0115250Y0070500D01*
X0115272Y0070624D01*
X0115289Y0070749D01*
X0115303Y0070874D01*
X0115313Y0070999D01*
X0115319Y0071124D01*
X0115321Y0071250D01*
X0122821Y0071250D01*
X0122821Y0031250D01*
X0095821Y0030250D02*
X0095821Y0022250D01*
X0095819Y0022190D01*
X0095814Y0022129D01*
X0095805Y0022070D01*
X0095792Y0022011D01*
X0095776Y0021952D01*
X0095756Y0021895D01*
X0095733Y0021840D01*
X0095706Y0021785D01*
X0095677Y0021733D01*
X0095644Y0021682D01*
X0095608Y0021633D01*
X0095570Y0021587D01*
X0095528Y0021543D01*
X0095484Y0021501D01*
X0095438Y0021463D01*
X0095389Y0021427D01*
X0095338Y0021394D01*
X0095286Y0021365D01*
X0095231Y0021338D01*
X0095176Y0021315D01*
X0095119Y0021295D01*
X0095060Y0021279D01*
X0095001Y0021266D01*
X0094942Y0021257D01*
X0094881Y0021252D01*
X0094821Y0021250D01*
X0077821Y0021250D01*
X0077761Y0021252D01*
X0077700Y0021257D01*
X0077641Y0021266D01*
X0077582Y0021279D01*
X0077523Y0021295D01*
X0077466Y0021315D01*
X0077411Y0021338D01*
X0077356Y0021365D01*
X0077304Y0021394D01*
X0077253Y0021427D01*
X0077204Y0021463D01*
X0077158Y0021501D01*
X0077114Y0021543D01*
X0077072Y0021587D01*
X0077034Y0021633D01*
X0076998Y0021682D01*
X0076965Y0021733D01*
X0076936Y0021785D01*
X0076909Y0021840D01*
X0076886Y0021895D01*
X0076866Y0021952D01*
X0076850Y0022011D01*
X0076837Y0022070D01*
X0076828Y0022129D01*
X0076823Y0022190D01*
X0076821Y0022250D01*
X0076821Y0030250D01*
X0076823Y0030310D01*
X0076828Y0030371D01*
X0076837Y0030430D01*
X0076850Y0030489D01*
X0076866Y0030548D01*
X0076886Y0030605D01*
X0076909Y0030660D01*
X0076936Y0030715D01*
X0076965Y0030767D01*
X0076998Y0030818D01*
X0077034Y0030867D01*
X0077072Y0030913D01*
X0077114Y0030957D01*
X0077158Y0030999D01*
X0077204Y0031037D01*
X0077253Y0031073D01*
X0077304Y0031106D01*
X0077356Y0031135D01*
X0077411Y0031162D01*
X0077466Y0031185D01*
X0077523Y0031205D01*
X0077582Y0031221D01*
X0077641Y0031234D01*
X0077700Y0031243D01*
X0077761Y0031248D01*
X0077821Y0031250D01*
X0094821Y0031250D01*
X0094881Y0031248D01*
X0094942Y0031243D01*
X0095001Y0031234D01*
X0095060Y0031221D01*
X0095119Y0031205D01*
X0095176Y0031185D01*
X0095231Y0031162D01*
X0095286Y0031135D01*
X0095338Y0031106D01*
X0095389Y0031073D01*
X0095438Y0031037D01*
X0095484Y0030999D01*
X0095528Y0030957D01*
X0095570Y0030913D01*
X0095608Y0030867D01*
X0095644Y0030818D01*
X0095677Y0030767D01*
X0095706Y0030715D01*
X0095733Y0030660D01*
X0095756Y0030605D01*
X0095776Y0030548D01*
X0095792Y0030489D01*
X0095805Y0030430D01*
X0095814Y0030371D01*
X0095819Y0030310D01*
X0095821Y0030250D01*
X0087821Y0026250D02*
X0087321Y0026250D01*
X0085321Y0026250D02*
X0084821Y0026250D01*
X0040691Y0028809D02*
X0036754Y0028809D01*
X0040691Y0028809D02*
X0040691Y0060305D01*
X0036754Y0060305D01*
X0035454Y0052900D02*
X0038054Y0052033D01*
X0035454Y0051167D01*
X0036610Y0049659D02*
X0038054Y0048431D01*
X0038054Y0049875D01*
X0036032Y0048431D02*
X0035980Y0048449D01*
X0035929Y0048472D01*
X0035880Y0048497D01*
X0035833Y0048526D01*
X0035788Y0048557D01*
X0035745Y0048592D01*
X0035704Y0048629D01*
X0035666Y0048669D01*
X0035630Y0048712D01*
X0035598Y0048756D01*
X0035568Y0048803D01*
X0035542Y0048852D01*
X0035519Y0048902D01*
X0035499Y0048954D01*
X0035483Y0049007D01*
X0035470Y0049060D01*
X0035461Y0049115D01*
X0035456Y0049170D01*
X0035454Y0049225D01*
X0035456Y0049274D01*
X0035461Y0049322D01*
X0035470Y0049370D01*
X0035483Y0049417D01*
X0035499Y0049462D01*
X0035518Y0049507D01*
X0035541Y0049550D01*
X0035567Y0049591D01*
X0035596Y0049630D01*
X0035628Y0049667D01*
X0035662Y0049701D01*
X0035699Y0049733D01*
X0035738Y0049762D01*
X0035779Y0049788D01*
X0035822Y0049811D01*
X0035867Y0049830D01*
X0035912Y0049846D01*
X0035959Y0049859D01*
X0036007Y0049868D01*
X0036055Y0049873D01*
X0036104Y0049875D01*
X0036155Y0049873D01*
X0036206Y0049867D01*
X0036257Y0049858D01*
X0036307Y0049845D01*
X0036355Y0049828D01*
X0036402Y0049808D01*
X0036448Y0049784D01*
X0036492Y0049757D01*
X0036533Y0049727D01*
X0036573Y0049694D01*
X0036609Y0049658D01*
X0038054Y0046995D02*
X0038054Y0045551D01*
X0038054Y0046273D02*
X0035454Y0046273D01*
X0036032Y0045551D01*
X0035455Y0043424D02*
X0035457Y0043477D01*
X0035463Y0043529D01*
X0035472Y0043581D01*
X0035486Y0043632D01*
X0035503Y0043682D01*
X0035523Y0043730D01*
X0035547Y0043777D01*
X0035575Y0043822D01*
X0035606Y0043865D01*
X0035639Y0043906D01*
X0035676Y0043944D01*
X0035715Y0043979D01*
X0035757Y0044011D01*
X0035801Y0044040D01*
X0035847Y0044066D01*
X0035895Y0044088D01*
X0035944Y0044107D01*
X0035994Y0044123D01*
X0036046Y0044134D01*
X0036098Y0044142D01*
X0036151Y0044146D01*
X0036203Y0044146D01*
X0036256Y0044142D01*
X0036308Y0044134D01*
X0036360Y0044123D01*
X0036410Y0044107D01*
X0036459Y0044088D01*
X0036507Y0044066D01*
X0036553Y0044040D01*
X0036597Y0044011D01*
X0036639Y0043979D01*
X0036678Y0043944D01*
X0036715Y0043906D01*
X0036748Y0043865D01*
X0036779Y0043822D01*
X0036807Y0043777D01*
X0036831Y0043730D01*
X0036851Y0043682D01*
X0036868Y0043632D01*
X0036882Y0043581D01*
X0036891Y0043529D01*
X0036897Y0043477D01*
X0036899Y0043424D01*
X0036899Y0042702D01*
X0036899Y0043569D02*
X0038054Y0044146D01*
X0038054Y0042702D02*
X0035454Y0042702D01*
X0035454Y0043424D01*
X0035454Y0041189D02*
X0038054Y0040611D01*
X0036321Y0040033D01*
X0038054Y0039455D01*
X0035454Y0038878D01*
X0035454Y0036937D02*
X0035454Y0036214D01*
X0038054Y0036214D01*
X0036899Y0036214D02*
X0036899Y0036937D01*
X0036897Y0036990D01*
X0036891Y0037042D01*
X0036882Y0037094D01*
X0036868Y0037145D01*
X0036851Y0037195D01*
X0036831Y0037243D01*
X0036807Y0037290D01*
X0036779Y0037335D01*
X0036748Y0037378D01*
X0036715Y0037419D01*
X0036678Y0037457D01*
X0036639Y0037492D01*
X0036597Y0037524D01*
X0036553Y0037553D01*
X0036507Y0037579D01*
X0036459Y0037601D01*
X0036410Y0037620D01*
X0036360Y0037636D01*
X0036308Y0037647D01*
X0036256Y0037655D01*
X0036203Y0037659D01*
X0036151Y0037659D01*
X0036098Y0037655D01*
X0036046Y0037647D01*
X0035994Y0037636D01*
X0035944Y0037620D01*
X0035895Y0037601D01*
X0035847Y0037579D01*
X0035801Y0037553D01*
X0035757Y0037524D01*
X0035715Y0037492D01*
X0035676Y0037457D01*
X0035639Y0037419D01*
X0035606Y0037378D01*
X0035575Y0037335D01*
X0035547Y0037290D01*
X0035523Y0037243D01*
X0035503Y0037195D01*
X0035486Y0037145D01*
X0035472Y0037094D01*
X0035463Y0037042D01*
X0035457Y0036990D01*
X0035455Y0036937D01*
X0035454Y0020281D02*
X0035454Y0019703D01*
X0035456Y0019655D01*
X0035462Y0019608D01*
X0035472Y0019561D01*
X0035485Y0019515D01*
X0035503Y0019471D01*
X0035524Y0019428D01*
X0035548Y0019387D01*
X0035576Y0019348D01*
X0035607Y0019312D01*
X0035641Y0019278D01*
X0035677Y0019247D01*
X0035716Y0019219D01*
X0035757Y0019195D01*
X0035800Y0019174D01*
X0035844Y0019156D01*
X0035890Y0019143D01*
X0035937Y0019133D01*
X0035984Y0019127D01*
X0036032Y0019125D01*
X0037477Y0019125D01*
X0037525Y0019127D01*
X0037572Y0019133D01*
X0037619Y0019143D01*
X0037665Y0019156D01*
X0037709Y0019174D01*
X0037752Y0019195D01*
X0037793Y0019219D01*
X0037832Y0019247D01*
X0037868Y0019278D01*
X0037902Y0019312D01*
X0037933Y0019348D01*
X0037961Y0019387D01*
X0037985Y0019428D01*
X0038006Y0019471D01*
X0038024Y0019515D01*
X0038037Y0019561D01*
X0038047Y0019608D01*
X0038053Y0019655D01*
X0038055Y0019703D01*
X0038054Y0019703D02*
X0038054Y0020281D01*
X0038054Y0017881D02*
X0038054Y0017303D01*
X0038055Y0017303D02*
X0038053Y0017255D01*
X0038047Y0017208D01*
X0038037Y0017161D01*
X0038024Y0017115D01*
X0038006Y0017071D01*
X0037985Y0017028D01*
X0037961Y0016987D01*
X0037933Y0016948D01*
X0037902Y0016912D01*
X0037868Y0016878D01*
X0037832Y0016847D01*
X0037793Y0016819D01*
X0037752Y0016795D01*
X0037709Y0016774D01*
X0037665Y0016756D01*
X0037619Y0016743D01*
X0037572Y0016733D01*
X0037525Y0016727D01*
X0037477Y0016725D01*
X0036032Y0016725D01*
X0035984Y0016727D01*
X0035937Y0016733D01*
X0035890Y0016743D01*
X0035844Y0016756D01*
X0035800Y0016774D01*
X0035757Y0016795D01*
X0035716Y0016819D01*
X0035677Y0016847D01*
X0035641Y0016878D01*
X0035607Y0016912D01*
X0035576Y0016948D01*
X0035548Y0016987D01*
X0035524Y0017028D01*
X0035503Y0017071D01*
X0035485Y0017115D01*
X0035472Y0017161D01*
X0035462Y0017208D01*
X0035456Y0017255D01*
X0035454Y0017303D01*
X0035454Y0017881D01*
X0035454Y0015448D02*
X0038054Y0014582D01*
X0035454Y0013715D01*
X0153565Y0129466D02*
X0153565Y0130043D01*
X0153565Y0129755D02*
X0156165Y0129755D01*
X0156165Y0130043D02*
X0156165Y0129466D01*
X0156165Y0131432D02*
X0153565Y0131432D01*
X0156165Y0132877D01*
X0153565Y0132877D01*
X0153565Y0153592D02*
X0153565Y0155037D01*
X0153565Y0154314D02*
X0156165Y0154314D01*
X0156165Y0156376D02*
X0153565Y0156376D01*
X0154720Y0156376D02*
X0154720Y0157821D01*
X0153565Y0157821D02*
X0156165Y0157821D01*
X0156165Y0159479D02*
X0153565Y0159479D01*
X0153565Y0160201D01*
X0153567Y0160254D01*
X0153573Y0160306D01*
X0153582Y0160358D01*
X0153596Y0160409D01*
X0153613Y0160459D01*
X0153633Y0160507D01*
X0153657Y0160554D01*
X0153685Y0160599D01*
X0153716Y0160642D01*
X0153749Y0160683D01*
X0153786Y0160721D01*
X0153825Y0160756D01*
X0153867Y0160788D01*
X0153911Y0160817D01*
X0153957Y0160843D01*
X0154005Y0160865D01*
X0154054Y0160884D01*
X0154104Y0160900D01*
X0154156Y0160911D01*
X0154208Y0160919D01*
X0154261Y0160923D01*
X0154313Y0160923D01*
X0154366Y0160919D01*
X0154418Y0160911D01*
X0154470Y0160900D01*
X0154520Y0160884D01*
X0154569Y0160865D01*
X0154617Y0160843D01*
X0154663Y0160817D01*
X0154707Y0160788D01*
X0154749Y0160756D01*
X0154788Y0160721D01*
X0154825Y0160683D01*
X0154858Y0160642D01*
X0154889Y0160599D01*
X0154917Y0160554D01*
X0154941Y0160507D01*
X0154961Y0160459D01*
X0154978Y0160409D01*
X0154992Y0160358D01*
X0155001Y0160306D01*
X0155007Y0160254D01*
X0155009Y0160201D01*
X0155009Y0159479D01*
X0155009Y0160346D02*
X0156165Y0160924D01*
X0155442Y0162424D02*
X0153565Y0162424D01*
X0153565Y0163869D02*
X0155442Y0163869D01*
X0155442Y0163868D02*
X0155495Y0163866D01*
X0155547Y0163860D01*
X0155599Y0163851D01*
X0155650Y0163837D01*
X0155700Y0163820D01*
X0155748Y0163800D01*
X0155795Y0163776D01*
X0155840Y0163748D01*
X0155883Y0163717D01*
X0155924Y0163684D01*
X0155962Y0163647D01*
X0155997Y0163608D01*
X0156029Y0163566D01*
X0156058Y0163522D01*
X0156084Y0163476D01*
X0156106Y0163428D01*
X0156125Y0163379D01*
X0156141Y0163329D01*
X0156152Y0163277D01*
X0156160Y0163225D01*
X0156164Y0163172D01*
X0156164Y0163120D01*
X0156160Y0163067D01*
X0156152Y0163015D01*
X0156141Y0162963D01*
X0156125Y0162913D01*
X0156106Y0162864D01*
X0156084Y0162816D01*
X0156058Y0162770D01*
X0156029Y0162726D01*
X0155997Y0162684D01*
X0155962Y0162645D01*
X0155924Y0162608D01*
X0155883Y0162575D01*
X0155840Y0162544D01*
X0155795Y0162516D01*
X0155748Y0162492D01*
X0155700Y0162472D01*
X0155650Y0162455D01*
X0155599Y0162441D01*
X0155547Y0162432D01*
X0155495Y0162426D01*
X0155442Y0162424D01*
X0157821Y0185250D02*
X0157821Y0186250D01*
X0158321Y0186750D01*
X0158321Y0195750D01*
X0157821Y0196250D01*
X0157821Y0197250D01*
X0157823Y0197310D01*
X0157828Y0197371D01*
X0157837Y0197430D01*
X0157850Y0197489D01*
X0157866Y0197548D01*
X0157886Y0197605D01*
X0157909Y0197660D01*
X0157936Y0197715D01*
X0157965Y0197767D01*
X0157998Y0197818D01*
X0158034Y0197867D01*
X0158072Y0197913D01*
X0158114Y0197957D01*
X0158158Y0197999D01*
X0158204Y0198037D01*
X0158253Y0198073D01*
X0158304Y0198106D01*
X0158356Y0198135D01*
X0158411Y0198162D01*
X0158466Y0198185D01*
X0158523Y0198205D01*
X0158582Y0198221D01*
X0158641Y0198234D01*
X0158700Y0198243D01*
X0158761Y0198248D01*
X0158821Y0198250D01*
X0163821Y0198250D02*
X0163881Y0198248D01*
X0163942Y0198243D01*
X0164001Y0198234D01*
X0164060Y0198221D01*
X0164119Y0198205D01*
X0164176Y0198185D01*
X0164231Y0198162D01*
X0164286Y0198135D01*
X0164338Y0198106D01*
X0164389Y0198073D01*
X0164438Y0198037D01*
X0164484Y0197999D01*
X0164528Y0197957D01*
X0164570Y0197913D01*
X0164608Y0197867D01*
X0164644Y0197818D01*
X0164677Y0197767D01*
X0164706Y0197715D01*
X0164733Y0197660D01*
X0164756Y0197605D01*
X0164776Y0197548D01*
X0164792Y0197489D01*
X0164805Y0197430D01*
X0164814Y0197371D01*
X0164819Y0197310D01*
X0164821Y0197250D01*
X0164821Y0196250D01*
X0164321Y0195750D01*
X0164321Y0186750D01*
X0164821Y0186250D01*
X0164821Y0185250D01*
X0164819Y0185190D01*
X0164814Y0185129D01*
X0164805Y0185070D01*
X0164792Y0185011D01*
X0164776Y0184952D01*
X0164756Y0184895D01*
X0164733Y0184840D01*
X0164706Y0184785D01*
X0164677Y0184733D01*
X0164644Y0184682D01*
X0164608Y0184633D01*
X0164570Y0184587D01*
X0164528Y0184543D01*
X0164484Y0184501D01*
X0164438Y0184463D01*
X0164389Y0184427D01*
X0164338Y0184394D01*
X0164286Y0184365D01*
X0164231Y0184338D01*
X0164176Y0184315D01*
X0164119Y0184295D01*
X0164060Y0184279D01*
X0164001Y0184266D01*
X0163942Y0184257D01*
X0163881Y0184252D01*
X0163821Y0184250D01*
X0167821Y0185250D02*
X0167821Y0186250D01*
X0168321Y0186750D01*
X0168321Y0195750D01*
X0167821Y0196250D01*
X0167821Y0197250D01*
X0167823Y0197310D01*
X0167828Y0197371D01*
X0167837Y0197430D01*
X0167850Y0197489D01*
X0167866Y0197548D01*
X0167886Y0197605D01*
X0167909Y0197660D01*
X0167936Y0197715D01*
X0167965Y0197767D01*
X0167998Y0197818D01*
X0168034Y0197867D01*
X0168072Y0197913D01*
X0168114Y0197957D01*
X0168158Y0197999D01*
X0168204Y0198037D01*
X0168253Y0198073D01*
X0168304Y0198106D01*
X0168356Y0198135D01*
X0168411Y0198162D01*
X0168466Y0198185D01*
X0168523Y0198205D01*
X0168582Y0198221D01*
X0168641Y0198234D01*
X0168700Y0198243D01*
X0168761Y0198248D01*
X0168821Y0198250D01*
X0173821Y0198250D02*
X0173881Y0198248D01*
X0173942Y0198243D01*
X0174001Y0198234D01*
X0174060Y0198221D01*
X0174119Y0198205D01*
X0174176Y0198185D01*
X0174231Y0198162D01*
X0174286Y0198135D01*
X0174338Y0198106D01*
X0174389Y0198073D01*
X0174438Y0198037D01*
X0174484Y0197999D01*
X0174528Y0197957D01*
X0174570Y0197913D01*
X0174608Y0197867D01*
X0174644Y0197818D01*
X0174677Y0197767D01*
X0174706Y0197715D01*
X0174733Y0197660D01*
X0174756Y0197605D01*
X0174776Y0197548D01*
X0174792Y0197489D01*
X0174805Y0197430D01*
X0174814Y0197371D01*
X0174819Y0197310D01*
X0174821Y0197250D01*
X0174821Y0196250D01*
X0174321Y0195750D01*
X0174321Y0186750D01*
X0174821Y0186250D01*
X0174821Y0185250D01*
X0174819Y0185190D01*
X0174814Y0185129D01*
X0174805Y0185070D01*
X0174792Y0185011D01*
X0174776Y0184952D01*
X0174756Y0184895D01*
X0174733Y0184840D01*
X0174706Y0184785D01*
X0174677Y0184733D01*
X0174644Y0184682D01*
X0174608Y0184633D01*
X0174570Y0184587D01*
X0174528Y0184543D01*
X0174484Y0184501D01*
X0174438Y0184463D01*
X0174389Y0184427D01*
X0174338Y0184394D01*
X0174286Y0184365D01*
X0174231Y0184338D01*
X0174176Y0184315D01*
X0174119Y0184295D01*
X0174060Y0184279D01*
X0174001Y0184266D01*
X0173942Y0184257D01*
X0173881Y0184252D01*
X0173821Y0184250D01*
X0177821Y0185250D02*
X0177821Y0186250D01*
X0178321Y0186750D01*
X0178321Y0195750D01*
X0177821Y0196250D01*
X0177821Y0197250D01*
X0177823Y0197310D01*
X0177828Y0197371D01*
X0177837Y0197430D01*
X0177850Y0197489D01*
X0177866Y0197548D01*
X0177886Y0197605D01*
X0177909Y0197660D01*
X0177936Y0197715D01*
X0177965Y0197767D01*
X0177998Y0197818D01*
X0178034Y0197867D01*
X0178072Y0197913D01*
X0178114Y0197957D01*
X0178158Y0197999D01*
X0178204Y0198037D01*
X0178253Y0198073D01*
X0178304Y0198106D01*
X0178356Y0198135D01*
X0178411Y0198162D01*
X0178466Y0198185D01*
X0178523Y0198205D01*
X0178582Y0198221D01*
X0178641Y0198234D01*
X0178700Y0198243D01*
X0178761Y0198248D01*
X0178821Y0198250D01*
X0183821Y0198250D02*
X0183881Y0198248D01*
X0183942Y0198243D01*
X0184001Y0198234D01*
X0184060Y0198221D01*
X0184119Y0198205D01*
X0184176Y0198185D01*
X0184231Y0198162D01*
X0184286Y0198135D01*
X0184338Y0198106D01*
X0184389Y0198073D01*
X0184438Y0198037D01*
X0184484Y0197999D01*
X0184528Y0197957D01*
X0184570Y0197913D01*
X0184608Y0197867D01*
X0184644Y0197818D01*
X0184677Y0197767D01*
X0184706Y0197715D01*
X0184733Y0197660D01*
X0184756Y0197605D01*
X0184776Y0197548D01*
X0184792Y0197489D01*
X0184805Y0197430D01*
X0184814Y0197371D01*
X0184819Y0197310D01*
X0184821Y0197250D01*
X0184821Y0196250D01*
X0184321Y0195750D01*
X0184321Y0186750D01*
X0184821Y0186250D01*
X0184821Y0185250D01*
X0184819Y0185190D01*
X0184814Y0185129D01*
X0184805Y0185070D01*
X0184792Y0185011D01*
X0184776Y0184952D01*
X0184756Y0184895D01*
X0184733Y0184840D01*
X0184706Y0184785D01*
X0184677Y0184733D01*
X0184644Y0184682D01*
X0184608Y0184633D01*
X0184570Y0184587D01*
X0184528Y0184543D01*
X0184484Y0184501D01*
X0184438Y0184463D01*
X0184389Y0184427D01*
X0184338Y0184394D01*
X0184286Y0184365D01*
X0184231Y0184338D01*
X0184176Y0184315D01*
X0184119Y0184295D01*
X0184060Y0184279D01*
X0184001Y0184266D01*
X0183942Y0184257D01*
X0183881Y0184252D01*
X0183821Y0184250D01*
X0178821Y0184250D02*
X0178761Y0184252D01*
X0178700Y0184257D01*
X0178641Y0184266D01*
X0178582Y0184279D01*
X0178523Y0184295D01*
X0178466Y0184315D01*
X0178411Y0184338D01*
X0178356Y0184365D01*
X0178304Y0184394D01*
X0178253Y0184427D01*
X0178204Y0184463D01*
X0178158Y0184501D01*
X0178114Y0184543D01*
X0178072Y0184587D01*
X0178034Y0184633D01*
X0177998Y0184682D01*
X0177965Y0184733D01*
X0177936Y0184785D01*
X0177909Y0184840D01*
X0177886Y0184895D01*
X0177866Y0184952D01*
X0177850Y0185011D01*
X0177837Y0185070D01*
X0177828Y0185129D01*
X0177823Y0185190D01*
X0177821Y0185250D01*
X0168821Y0184250D02*
X0168761Y0184252D01*
X0168700Y0184257D01*
X0168641Y0184266D01*
X0168582Y0184279D01*
X0168523Y0184295D01*
X0168466Y0184315D01*
X0168411Y0184338D01*
X0168356Y0184365D01*
X0168304Y0184394D01*
X0168253Y0184427D01*
X0168204Y0184463D01*
X0168158Y0184501D01*
X0168114Y0184543D01*
X0168072Y0184587D01*
X0168034Y0184633D01*
X0167998Y0184682D01*
X0167965Y0184733D01*
X0167936Y0184785D01*
X0167909Y0184840D01*
X0167886Y0184895D01*
X0167866Y0184952D01*
X0167850Y0185011D01*
X0167837Y0185070D01*
X0167828Y0185129D01*
X0167823Y0185190D01*
X0167821Y0185250D01*
X0158821Y0184250D02*
X0158761Y0184252D01*
X0158700Y0184257D01*
X0158641Y0184266D01*
X0158582Y0184279D01*
X0158523Y0184295D01*
X0158466Y0184315D01*
X0158411Y0184338D01*
X0158356Y0184365D01*
X0158304Y0184394D01*
X0158253Y0184427D01*
X0158204Y0184463D01*
X0158158Y0184501D01*
X0158114Y0184543D01*
X0158072Y0184587D01*
X0158034Y0184633D01*
X0157998Y0184682D01*
X0157965Y0184733D01*
X0157936Y0184785D01*
X0157909Y0184840D01*
X0157886Y0184895D01*
X0157866Y0184952D01*
X0157850Y0185011D01*
X0157837Y0185070D01*
X0157828Y0185129D01*
X0157823Y0185190D01*
X0157821Y0185250D01*
X0163569Y0208691D02*
X0180569Y0208691D01*
X0180629Y0208693D01*
X0180690Y0208698D01*
X0180749Y0208707D01*
X0180808Y0208720D01*
X0180867Y0208736D01*
X0180924Y0208756D01*
X0180979Y0208779D01*
X0181034Y0208806D01*
X0181086Y0208835D01*
X0181137Y0208868D01*
X0181186Y0208904D01*
X0181232Y0208942D01*
X0181276Y0208984D01*
X0181318Y0209028D01*
X0181356Y0209074D01*
X0181392Y0209123D01*
X0181425Y0209174D01*
X0181454Y0209226D01*
X0181481Y0209281D01*
X0181504Y0209336D01*
X0181524Y0209393D01*
X0181540Y0209452D01*
X0181553Y0209511D01*
X0181562Y0209570D01*
X0181567Y0209631D01*
X0181569Y0209691D01*
X0181569Y0217691D01*
X0181567Y0217751D01*
X0181562Y0217812D01*
X0181553Y0217871D01*
X0181540Y0217930D01*
X0181524Y0217989D01*
X0181504Y0218046D01*
X0181481Y0218101D01*
X0181454Y0218156D01*
X0181425Y0218208D01*
X0181392Y0218259D01*
X0181356Y0218308D01*
X0181318Y0218354D01*
X0181276Y0218398D01*
X0181232Y0218440D01*
X0181186Y0218478D01*
X0181137Y0218514D01*
X0181086Y0218547D01*
X0181034Y0218576D01*
X0180979Y0218603D01*
X0180924Y0218626D01*
X0180867Y0218646D01*
X0180808Y0218662D01*
X0180749Y0218675D01*
X0180690Y0218684D01*
X0180629Y0218689D01*
X0180569Y0218691D01*
X0163569Y0218691D01*
X0163509Y0218689D01*
X0163448Y0218684D01*
X0163389Y0218675D01*
X0163330Y0218662D01*
X0163271Y0218646D01*
X0163214Y0218626D01*
X0163159Y0218603D01*
X0163104Y0218576D01*
X0163052Y0218547D01*
X0163001Y0218514D01*
X0162952Y0218478D01*
X0162906Y0218440D01*
X0162862Y0218398D01*
X0162820Y0218354D01*
X0162782Y0218308D01*
X0162746Y0218259D01*
X0162713Y0218208D01*
X0162684Y0218156D01*
X0162657Y0218101D01*
X0162634Y0218046D01*
X0162614Y0217989D01*
X0162598Y0217930D01*
X0162585Y0217871D01*
X0162576Y0217812D01*
X0162571Y0217751D01*
X0162569Y0217691D01*
X0162569Y0209691D01*
X0162571Y0209631D01*
X0162576Y0209570D01*
X0162585Y0209511D01*
X0162598Y0209452D01*
X0162614Y0209393D01*
X0162634Y0209336D01*
X0162657Y0209281D01*
X0162684Y0209226D01*
X0162713Y0209174D01*
X0162746Y0209123D01*
X0162782Y0209074D01*
X0162820Y0209028D01*
X0162862Y0208984D01*
X0162906Y0208942D01*
X0162952Y0208904D01*
X0163001Y0208868D01*
X0163052Y0208835D01*
X0163104Y0208806D01*
X0163159Y0208779D01*
X0163214Y0208756D01*
X0163271Y0208736D01*
X0163330Y0208720D01*
X0163389Y0208707D01*
X0163448Y0208698D01*
X0163509Y0208693D01*
X0163569Y0208691D01*
X0170569Y0213691D02*
X0171069Y0213691D01*
X0173069Y0213691D02*
X0173569Y0213691D01*
X0181321Y0229750D02*
X0181321Y0252750D01*
X0111321Y0252750D01*
X0111321Y0245250D01*
X0111447Y0245248D01*
X0111572Y0245242D01*
X0111697Y0245232D01*
X0111822Y0245218D01*
X0111947Y0245201D01*
X0112071Y0245179D01*
X0112194Y0245154D01*
X0112316Y0245124D01*
X0112437Y0245091D01*
X0112557Y0245054D01*
X0112676Y0245014D01*
X0112793Y0244969D01*
X0112910Y0244921D01*
X0113024Y0244869D01*
X0113137Y0244814D01*
X0113248Y0244755D01*
X0113357Y0244693D01*
X0113464Y0244627D01*
X0113569Y0244558D01*
X0113672Y0244486D01*
X0113773Y0244411D01*
X0113871Y0244332D01*
X0113966Y0244250D01*
X0114059Y0244166D01*
X0114149Y0244078D01*
X0114237Y0243988D01*
X0114321Y0243895D01*
X0114403Y0243800D01*
X0114482Y0243702D01*
X0114557Y0243601D01*
X0114629Y0243498D01*
X0114698Y0243393D01*
X0114764Y0243286D01*
X0114826Y0243177D01*
X0114885Y0243066D01*
X0114940Y0242953D01*
X0114992Y0242839D01*
X0115040Y0242722D01*
X0115085Y0242605D01*
X0115125Y0242486D01*
X0115162Y0242366D01*
X0115195Y0242245D01*
X0115225Y0242123D01*
X0115250Y0242000D01*
X0115272Y0241876D01*
X0115289Y0241751D01*
X0115303Y0241626D01*
X0115313Y0241501D01*
X0115319Y0241376D01*
X0115321Y0241250D01*
X0115319Y0241124D01*
X0115313Y0240999D01*
X0115303Y0240874D01*
X0115289Y0240749D01*
X0115272Y0240624D01*
X0115250Y0240500D01*
X0115225Y0240377D01*
X0115195Y0240255D01*
X0115162Y0240134D01*
X0115125Y0240014D01*
X0115085Y0239895D01*
X0115040Y0239778D01*
X0114992Y0239661D01*
X0114940Y0239547D01*
X0114885Y0239434D01*
X0114826Y0239323D01*
X0114764Y0239214D01*
X0114698Y0239107D01*
X0114629Y0239002D01*
X0114557Y0238899D01*
X0114482Y0238798D01*
X0114403Y0238700D01*
X0114321Y0238605D01*
X0114237Y0238512D01*
X0114149Y0238422D01*
X0114059Y0238334D01*
X0113966Y0238250D01*
X0113871Y0238168D01*
X0113773Y0238089D01*
X0113672Y0238014D01*
X0113569Y0237942D01*
X0113464Y0237873D01*
X0113357Y0237807D01*
X0113248Y0237745D01*
X0113137Y0237686D01*
X0113024Y0237631D01*
X0112910Y0237579D01*
X0112793Y0237531D01*
X0112676Y0237486D01*
X0112557Y0237446D01*
X0112437Y0237409D01*
X0112316Y0237376D01*
X0112194Y0237346D01*
X0112071Y0237321D01*
X0111947Y0237299D01*
X0111822Y0237282D01*
X0111697Y0237268D01*
X0111572Y0237258D01*
X0111447Y0237252D01*
X0111321Y0237250D01*
X0111321Y0229750D01*
X0181321Y0229750D01*
X0178821Y0108250D02*
X0178761Y0108248D01*
X0178700Y0108243D01*
X0178641Y0108234D01*
X0178582Y0108221D01*
X0178523Y0108205D01*
X0178466Y0108185D01*
X0178411Y0108162D01*
X0178356Y0108135D01*
X0178304Y0108106D01*
X0178253Y0108073D01*
X0178204Y0108037D01*
X0178158Y0107999D01*
X0178114Y0107957D01*
X0178072Y0107913D01*
X0178034Y0107867D01*
X0177998Y0107818D01*
X0177965Y0107767D01*
X0177936Y0107715D01*
X0177909Y0107660D01*
X0177886Y0107605D01*
X0177866Y0107548D01*
X0177850Y0107489D01*
X0177837Y0107430D01*
X0177828Y0107371D01*
X0177823Y0107310D01*
X0177821Y0107250D01*
X0177821Y0106250D01*
X0178321Y0105750D01*
X0178321Y0096750D01*
X0177821Y0096250D01*
X0177821Y0095250D01*
X0177823Y0095190D01*
X0177828Y0095129D01*
X0177837Y0095070D01*
X0177850Y0095011D01*
X0177866Y0094952D01*
X0177886Y0094895D01*
X0177909Y0094840D01*
X0177936Y0094785D01*
X0177965Y0094733D01*
X0177998Y0094682D01*
X0178034Y0094633D01*
X0178072Y0094587D01*
X0178114Y0094543D01*
X0178158Y0094501D01*
X0178204Y0094463D01*
X0178253Y0094427D01*
X0178304Y0094394D01*
X0178356Y0094365D01*
X0178411Y0094338D01*
X0178466Y0094315D01*
X0178523Y0094295D01*
X0178582Y0094279D01*
X0178641Y0094266D01*
X0178700Y0094257D01*
X0178761Y0094252D01*
X0178821Y0094250D01*
X0174821Y0095250D02*
X0174821Y0096250D01*
X0174321Y0096750D01*
X0174321Y0105750D01*
X0174821Y0106250D01*
X0174821Y0107250D01*
X0174819Y0107310D01*
X0174814Y0107371D01*
X0174805Y0107430D01*
X0174792Y0107489D01*
X0174776Y0107548D01*
X0174756Y0107605D01*
X0174733Y0107660D01*
X0174706Y0107715D01*
X0174677Y0107767D01*
X0174644Y0107818D01*
X0174608Y0107867D01*
X0174570Y0107913D01*
X0174528Y0107957D01*
X0174484Y0107999D01*
X0174438Y0108037D01*
X0174389Y0108073D01*
X0174338Y0108106D01*
X0174286Y0108135D01*
X0174231Y0108162D01*
X0174176Y0108185D01*
X0174119Y0108205D01*
X0174060Y0108221D01*
X0174001Y0108234D01*
X0173942Y0108243D01*
X0173881Y0108248D01*
X0173821Y0108250D01*
X0168821Y0108250D02*
X0168761Y0108248D01*
X0168700Y0108243D01*
X0168641Y0108234D01*
X0168582Y0108221D01*
X0168523Y0108205D01*
X0168466Y0108185D01*
X0168411Y0108162D01*
X0168356Y0108135D01*
X0168304Y0108106D01*
X0168253Y0108073D01*
X0168204Y0108037D01*
X0168158Y0107999D01*
X0168114Y0107957D01*
X0168072Y0107913D01*
X0168034Y0107867D01*
X0167998Y0107818D01*
X0167965Y0107767D01*
X0167936Y0107715D01*
X0167909Y0107660D01*
X0167886Y0107605D01*
X0167866Y0107548D01*
X0167850Y0107489D01*
X0167837Y0107430D01*
X0167828Y0107371D01*
X0167823Y0107310D01*
X0167821Y0107250D01*
X0167821Y0106250D01*
X0168321Y0105750D01*
X0168321Y0096750D01*
X0167821Y0096250D01*
X0167821Y0095250D01*
X0167823Y0095190D01*
X0167828Y0095129D01*
X0167837Y0095070D01*
X0167850Y0095011D01*
X0167866Y0094952D01*
X0167886Y0094895D01*
X0167909Y0094840D01*
X0167936Y0094785D01*
X0167965Y0094733D01*
X0167998Y0094682D01*
X0168034Y0094633D01*
X0168072Y0094587D01*
X0168114Y0094543D01*
X0168158Y0094501D01*
X0168204Y0094463D01*
X0168253Y0094427D01*
X0168304Y0094394D01*
X0168356Y0094365D01*
X0168411Y0094338D01*
X0168466Y0094315D01*
X0168523Y0094295D01*
X0168582Y0094279D01*
X0168641Y0094266D01*
X0168700Y0094257D01*
X0168761Y0094252D01*
X0168821Y0094250D01*
X0164821Y0095250D02*
X0164821Y0096250D01*
X0164321Y0096750D01*
X0164321Y0105750D01*
X0164821Y0106250D01*
X0164821Y0107250D01*
X0164819Y0107310D01*
X0164814Y0107371D01*
X0164805Y0107430D01*
X0164792Y0107489D01*
X0164776Y0107548D01*
X0164756Y0107605D01*
X0164733Y0107660D01*
X0164706Y0107715D01*
X0164677Y0107767D01*
X0164644Y0107818D01*
X0164608Y0107867D01*
X0164570Y0107913D01*
X0164528Y0107957D01*
X0164484Y0107999D01*
X0164438Y0108037D01*
X0164389Y0108073D01*
X0164338Y0108106D01*
X0164286Y0108135D01*
X0164231Y0108162D01*
X0164176Y0108185D01*
X0164119Y0108205D01*
X0164060Y0108221D01*
X0164001Y0108234D01*
X0163942Y0108243D01*
X0163881Y0108248D01*
X0163821Y0108250D01*
X0158821Y0108250D02*
X0158761Y0108248D01*
X0158700Y0108243D01*
X0158641Y0108234D01*
X0158582Y0108221D01*
X0158523Y0108205D01*
X0158466Y0108185D01*
X0158411Y0108162D01*
X0158356Y0108135D01*
X0158304Y0108106D01*
X0158253Y0108073D01*
X0158204Y0108037D01*
X0158158Y0107999D01*
X0158114Y0107957D01*
X0158072Y0107913D01*
X0158034Y0107867D01*
X0157998Y0107818D01*
X0157965Y0107767D01*
X0157936Y0107715D01*
X0157909Y0107660D01*
X0157886Y0107605D01*
X0157866Y0107548D01*
X0157850Y0107489D01*
X0157837Y0107430D01*
X0157828Y0107371D01*
X0157823Y0107310D01*
X0157821Y0107250D01*
X0157821Y0106250D01*
X0158321Y0105750D01*
X0158321Y0096750D01*
X0157821Y0096250D01*
X0157821Y0095250D01*
X0157823Y0095190D01*
X0157828Y0095129D01*
X0157837Y0095070D01*
X0157850Y0095011D01*
X0157866Y0094952D01*
X0157886Y0094895D01*
X0157909Y0094840D01*
X0157936Y0094785D01*
X0157965Y0094733D01*
X0157998Y0094682D01*
X0158034Y0094633D01*
X0158072Y0094587D01*
X0158114Y0094543D01*
X0158158Y0094501D01*
X0158204Y0094463D01*
X0158253Y0094427D01*
X0158304Y0094394D01*
X0158356Y0094365D01*
X0158411Y0094338D01*
X0158466Y0094315D01*
X0158523Y0094295D01*
X0158582Y0094279D01*
X0158641Y0094266D01*
X0158700Y0094257D01*
X0158761Y0094252D01*
X0158821Y0094250D01*
X0163821Y0094250D02*
X0163881Y0094252D01*
X0163942Y0094257D01*
X0164001Y0094266D01*
X0164060Y0094279D01*
X0164119Y0094295D01*
X0164176Y0094315D01*
X0164231Y0094338D01*
X0164286Y0094365D01*
X0164338Y0094394D01*
X0164389Y0094427D01*
X0164438Y0094463D01*
X0164484Y0094501D01*
X0164528Y0094543D01*
X0164570Y0094587D01*
X0164608Y0094633D01*
X0164644Y0094682D01*
X0164677Y0094733D01*
X0164706Y0094785D01*
X0164733Y0094840D01*
X0164756Y0094895D01*
X0164776Y0094952D01*
X0164792Y0095011D01*
X0164805Y0095070D01*
X0164814Y0095129D01*
X0164819Y0095190D01*
X0164821Y0095250D01*
X0173821Y0094250D02*
X0173881Y0094252D01*
X0173942Y0094257D01*
X0174001Y0094266D01*
X0174060Y0094279D01*
X0174119Y0094295D01*
X0174176Y0094315D01*
X0174231Y0094338D01*
X0174286Y0094365D01*
X0174338Y0094394D01*
X0174389Y0094427D01*
X0174438Y0094463D01*
X0174484Y0094501D01*
X0174528Y0094543D01*
X0174570Y0094587D01*
X0174608Y0094633D01*
X0174644Y0094682D01*
X0174677Y0094733D01*
X0174706Y0094785D01*
X0174733Y0094840D01*
X0174756Y0094895D01*
X0174776Y0094952D01*
X0174792Y0095011D01*
X0174805Y0095070D01*
X0174814Y0095129D01*
X0174819Y0095190D01*
X0174821Y0095250D01*
X0183821Y0094250D02*
X0183881Y0094252D01*
X0183942Y0094257D01*
X0184001Y0094266D01*
X0184060Y0094279D01*
X0184119Y0094295D01*
X0184176Y0094315D01*
X0184231Y0094338D01*
X0184286Y0094365D01*
X0184338Y0094394D01*
X0184389Y0094427D01*
X0184438Y0094463D01*
X0184484Y0094501D01*
X0184528Y0094543D01*
X0184570Y0094587D01*
X0184608Y0094633D01*
X0184644Y0094682D01*
X0184677Y0094733D01*
X0184706Y0094785D01*
X0184733Y0094840D01*
X0184756Y0094895D01*
X0184776Y0094952D01*
X0184792Y0095011D01*
X0184805Y0095070D01*
X0184814Y0095129D01*
X0184819Y0095190D01*
X0184821Y0095250D01*
X0184821Y0096250D01*
X0184321Y0096750D01*
X0184321Y0105750D01*
X0184821Y0106250D01*
X0184821Y0107250D01*
X0184819Y0107310D01*
X0184814Y0107371D01*
X0184805Y0107430D01*
X0184792Y0107489D01*
X0184776Y0107548D01*
X0184756Y0107605D01*
X0184733Y0107660D01*
X0184706Y0107715D01*
X0184677Y0107767D01*
X0184644Y0107818D01*
X0184608Y0107867D01*
X0184570Y0107913D01*
X0184528Y0107957D01*
X0184484Y0107999D01*
X0184438Y0108037D01*
X0184389Y0108073D01*
X0184338Y0108106D01*
X0184286Y0108135D01*
X0184231Y0108162D01*
X0184176Y0108185D01*
X0184119Y0108205D01*
X0184060Y0108221D01*
X0184001Y0108234D01*
X0183942Y0108243D01*
X0183881Y0108248D01*
X0183821Y0108250D01*
X0064313Y0225659D02*
X0060376Y0225659D01*
X0064313Y0225659D02*
X0064313Y0257156D01*
X0060376Y0257156D01*
X0059076Y0247693D02*
X0059076Y0246248D01*
X0059076Y0246971D02*
X0061676Y0246971D01*
X0061676Y0244909D02*
X0059076Y0244909D01*
X0059076Y0243465D02*
X0061676Y0244909D01*
X0061676Y0243465D02*
X0059076Y0243465D01*
X0059799Y0241933D02*
X0060954Y0241933D01*
X0061007Y0241931D01*
X0061059Y0241925D01*
X0061111Y0241916D01*
X0061162Y0241902D01*
X0061212Y0241885D01*
X0061260Y0241865D01*
X0061307Y0241841D01*
X0061352Y0241813D01*
X0061395Y0241782D01*
X0061436Y0241749D01*
X0061474Y0241712D01*
X0061509Y0241673D01*
X0061541Y0241631D01*
X0061570Y0241587D01*
X0061596Y0241541D01*
X0061618Y0241493D01*
X0061637Y0241444D01*
X0061653Y0241394D01*
X0061664Y0241342D01*
X0061672Y0241290D01*
X0061676Y0241237D01*
X0061676Y0241185D01*
X0061672Y0241132D01*
X0061664Y0241080D01*
X0061653Y0241028D01*
X0061637Y0240978D01*
X0061618Y0240929D01*
X0061596Y0240881D01*
X0061570Y0240835D01*
X0061541Y0240791D01*
X0061509Y0240749D01*
X0061474Y0240710D01*
X0061436Y0240673D01*
X0061395Y0240640D01*
X0061352Y0240609D01*
X0061307Y0240581D01*
X0061260Y0240557D01*
X0061212Y0240537D01*
X0061162Y0240520D01*
X0061111Y0240506D01*
X0061059Y0240497D01*
X0061007Y0240491D01*
X0060954Y0240489D01*
X0059799Y0240489D01*
X0059746Y0240491D01*
X0059694Y0240497D01*
X0059642Y0240506D01*
X0059591Y0240520D01*
X0059541Y0240537D01*
X0059493Y0240557D01*
X0059446Y0240581D01*
X0059401Y0240609D01*
X0059358Y0240640D01*
X0059317Y0240673D01*
X0059279Y0240710D01*
X0059244Y0240749D01*
X0059212Y0240791D01*
X0059183Y0240835D01*
X0059157Y0240881D01*
X0059135Y0240929D01*
X0059116Y0240978D01*
X0059100Y0241028D01*
X0059089Y0241080D01*
X0059081Y0241132D01*
X0059077Y0241185D01*
X0059077Y0241237D01*
X0059081Y0241290D01*
X0059089Y0241342D01*
X0059100Y0241394D01*
X0059116Y0241444D01*
X0059135Y0241493D01*
X0059157Y0241541D01*
X0059183Y0241587D01*
X0059212Y0241631D01*
X0059244Y0241673D01*
X0059279Y0241712D01*
X0059317Y0241749D01*
X0059358Y0241782D01*
X0059401Y0241813D01*
X0059446Y0241841D01*
X0059493Y0241865D01*
X0059541Y0241885D01*
X0059591Y0241902D01*
X0059642Y0241916D01*
X0059694Y0241925D01*
X0059746Y0241931D01*
X0059799Y0241933D01*
X0061676Y0239084D02*
X0060521Y0238506D01*
X0060521Y0238362D02*
X0060521Y0237640D01*
X0060521Y0238362D02*
X0060519Y0238415D01*
X0060513Y0238467D01*
X0060504Y0238519D01*
X0060490Y0238570D01*
X0060473Y0238620D01*
X0060453Y0238668D01*
X0060429Y0238715D01*
X0060401Y0238760D01*
X0060370Y0238803D01*
X0060337Y0238844D01*
X0060300Y0238882D01*
X0060261Y0238917D01*
X0060219Y0238949D01*
X0060175Y0238978D01*
X0060129Y0239004D01*
X0060081Y0239026D01*
X0060032Y0239045D01*
X0059982Y0239061D01*
X0059930Y0239072D01*
X0059878Y0239080D01*
X0059825Y0239084D01*
X0059773Y0239084D01*
X0059720Y0239080D01*
X0059668Y0239072D01*
X0059616Y0239061D01*
X0059566Y0239045D01*
X0059517Y0239026D01*
X0059469Y0239004D01*
X0059423Y0238978D01*
X0059379Y0238949D01*
X0059337Y0238917D01*
X0059298Y0238882D01*
X0059261Y0238844D01*
X0059228Y0238803D01*
X0059197Y0238760D01*
X0059169Y0238715D01*
X0059145Y0238668D01*
X0059125Y0238620D01*
X0059108Y0238570D01*
X0059094Y0238519D01*
X0059085Y0238467D01*
X0059079Y0238415D01*
X0059077Y0238362D01*
X0059076Y0238362D02*
X0059076Y0237640D01*
X0061676Y0237640D01*
X0060232Y0236278D02*
X0060232Y0235122D01*
X0059076Y0235122D02*
X0061676Y0235122D01*
X0059076Y0235122D02*
X0059076Y0236278D01*
D12*
X0029032Y0252652D02*
X0020854Y0230163D01*
D13*
X0001400Y0071919D02*
X0001400Y0025069D01*
X0019117Y0025069D01*
X0019117Y0044557D01*
X0017148Y0044557D01*
X0017148Y0052431D01*
X0019117Y0052431D01*
X0019117Y0071919D01*
X0001400Y0071919D01*
X0044628Y0067982D02*
X0044628Y0044754D01*
X0074550Y0044754D01*
X0074550Y0047313D01*
X0068250Y0047313D01*
X0068250Y0041801D02*
X0074550Y0041801D01*
X0074550Y0044360D01*
X0044628Y0044360D01*
X0044628Y0013258D01*
X0074550Y0013258D01*
X0074550Y0015817D01*
X0068250Y0015817D01*
X0068250Y0065423D02*
X0074550Y0065423D01*
X0074550Y0067982D01*
X0044628Y0067982D01*
X0099321Y0076250D02*
X0099321Y0077250D01*
X0099321Y0076250D02*
X0123321Y0076250D01*
X0123321Y0077250D01*
X0156439Y0119557D02*
X0156439Y0122116D01*
X0162739Y0122116D01*
X0156439Y0119557D02*
X0186361Y0119557D01*
X0186361Y0142785D01*
X0156439Y0142785D01*
X0156439Y0140226D01*
X0162739Y0140226D01*
X0162739Y0145738D02*
X0156439Y0145738D01*
X0156439Y0143179D01*
X0186361Y0143179D01*
X0186361Y0174281D01*
X0156439Y0174281D01*
X0156439Y0171722D01*
X0162739Y0171722D01*
X0123321Y0215250D02*
X0123321Y0216250D01*
X0116321Y0216250D01*
X0116319Y0216110D01*
X0116313Y0215970D01*
X0116303Y0215830D01*
X0116290Y0215690D01*
X0116272Y0215551D01*
X0116250Y0215412D01*
X0116225Y0215275D01*
X0116196Y0215137D01*
X0116163Y0215001D01*
X0116126Y0214866D01*
X0116085Y0214732D01*
X0116040Y0214599D01*
X0115992Y0214467D01*
X0115940Y0214337D01*
X0115885Y0214208D01*
X0115826Y0214081D01*
X0115763Y0213955D01*
X0115697Y0213831D01*
X0115628Y0213710D01*
X0115555Y0213590D01*
X0115478Y0213472D01*
X0115399Y0213357D01*
X0115316Y0213243D01*
X0115230Y0213133D01*
X0115141Y0213024D01*
X0115049Y0212918D01*
X0114954Y0212815D01*
X0114857Y0212714D01*
X0114756Y0212617D01*
X0114653Y0212522D01*
X0114547Y0212430D01*
X0114438Y0212341D01*
X0114328Y0212255D01*
X0114214Y0212172D01*
X0114099Y0212093D01*
X0113981Y0212016D01*
X0113861Y0211943D01*
X0113740Y0211874D01*
X0113616Y0211808D01*
X0113490Y0211745D01*
X0113363Y0211686D01*
X0113234Y0211631D01*
X0113104Y0211579D01*
X0112972Y0211531D01*
X0112839Y0211486D01*
X0112705Y0211445D01*
X0112570Y0211408D01*
X0112434Y0211375D01*
X0112296Y0211346D01*
X0112159Y0211321D01*
X0112020Y0211299D01*
X0111881Y0211281D01*
X0111741Y0211268D01*
X0111601Y0211258D01*
X0111461Y0211252D01*
X0111321Y0211250D01*
X0111181Y0211252D01*
X0111041Y0211258D01*
X0110901Y0211268D01*
X0110761Y0211281D01*
X0110622Y0211299D01*
X0110483Y0211321D01*
X0110346Y0211346D01*
X0110208Y0211375D01*
X0110072Y0211408D01*
X0109937Y0211445D01*
X0109803Y0211486D01*
X0109670Y0211531D01*
X0109538Y0211579D01*
X0109408Y0211631D01*
X0109279Y0211686D01*
X0109152Y0211745D01*
X0109026Y0211808D01*
X0108902Y0211874D01*
X0108781Y0211943D01*
X0108661Y0212016D01*
X0108543Y0212093D01*
X0108428Y0212172D01*
X0108314Y0212255D01*
X0108204Y0212341D01*
X0108095Y0212430D01*
X0107989Y0212522D01*
X0107886Y0212617D01*
X0107785Y0212714D01*
X0107688Y0212815D01*
X0107593Y0212918D01*
X0107501Y0213024D01*
X0107412Y0213133D01*
X0107326Y0213243D01*
X0107243Y0213357D01*
X0107164Y0213472D01*
X0107087Y0213590D01*
X0107014Y0213710D01*
X0106945Y0213831D01*
X0106879Y0213955D01*
X0106816Y0214081D01*
X0106757Y0214208D01*
X0106702Y0214337D01*
X0106650Y0214467D01*
X0106602Y0214599D01*
X0106557Y0214732D01*
X0106516Y0214866D01*
X0106479Y0215001D01*
X0106446Y0215137D01*
X0106417Y0215275D01*
X0106392Y0215412D01*
X0106370Y0215551D01*
X0106352Y0215690D01*
X0106339Y0215830D01*
X0106329Y0215970D01*
X0106323Y0216110D01*
X0106321Y0216250D01*
X0099321Y0216250D01*
X0099321Y0215250D01*
X0099746Y0224478D02*
X0106046Y0224478D01*
X0106046Y0221919D01*
X0076124Y0221919D01*
X0076124Y0260896D01*
X0106046Y0260896D01*
X0106046Y0258337D01*
X0099746Y0258337D01*
X0161321Y0072250D02*
X0161321Y0071250D01*
X0164321Y0071250D01*
X0164321Y0051250D01*
X0161321Y0051250D01*
X0161321Y0050250D01*
X0161321Y0051250D02*
X0158321Y0051250D01*
X0158321Y0071250D01*
X0161321Y0071250D01*
X0158821Y0068750D02*
X0163821Y0068750D01*
D14*
X0165221Y0099566D02*
X0165221Y0100177D01*
X0165221Y0099566D02*
X0167421Y0099566D01*
X0166443Y0099566D02*
X0166443Y0100177D01*
X0166443Y0100299D02*
X0167421Y0100788D01*
X0167421Y0101712D02*
X0167421Y0102445D01*
X0167419Y0102488D01*
X0167414Y0102530D01*
X0167404Y0102572D01*
X0167392Y0102612D01*
X0167375Y0102652D01*
X0167355Y0102690D01*
X0167333Y0102725D01*
X0167307Y0102759D01*
X0167278Y0102791D01*
X0167246Y0102820D01*
X0167212Y0102846D01*
X0167177Y0102868D01*
X0167139Y0102888D01*
X0167099Y0102905D01*
X0167059Y0102917D01*
X0167017Y0102927D01*
X0166975Y0102932D01*
X0166932Y0102934D01*
X0166688Y0102934D01*
X0166645Y0102932D01*
X0166603Y0102927D01*
X0166561Y0102917D01*
X0166521Y0102905D01*
X0166481Y0102888D01*
X0166444Y0102868D01*
X0166408Y0102846D01*
X0166374Y0102820D01*
X0166342Y0102791D01*
X0166313Y0102759D01*
X0166287Y0102725D01*
X0166265Y0102690D01*
X0166245Y0102652D01*
X0166228Y0102612D01*
X0166216Y0102572D01*
X0166206Y0102530D01*
X0166201Y0102488D01*
X0166199Y0102445D01*
X0166199Y0101712D01*
X0165221Y0101712D01*
X0165221Y0102934D01*
X0165221Y0100177D02*
X0165223Y0100225D01*
X0165229Y0100273D01*
X0165238Y0100320D01*
X0165251Y0100366D01*
X0165268Y0100411D01*
X0165288Y0100454D01*
X0165311Y0100496D01*
X0165338Y0100536D01*
X0165367Y0100574D01*
X0165400Y0100609D01*
X0165435Y0100642D01*
X0165473Y0100671D01*
X0165513Y0100698D01*
X0165555Y0100721D01*
X0165598Y0100741D01*
X0165643Y0100758D01*
X0165689Y0100771D01*
X0165736Y0100780D01*
X0165784Y0100786D01*
X0165832Y0100788D01*
X0165880Y0100786D01*
X0165928Y0100780D01*
X0165975Y0100771D01*
X0166021Y0100758D01*
X0166066Y0100741D01*
X0166109Y0100721D01*
X0166151Y0100698D01*
X0166191Y0100671D01*
X0166229Y0100642D01*
X0166264Y0100609D01*
X0166297Y0100574D01*
X0166326Y0100536D01*
X0166353Y0100496D01*
X0166376Y0100454D01*
X0166396Y0100411D01*
X0166413Y0100366D01*
X0166426Y0100320D01*
X0166435Y0100273D01*
X0166441Y0100225D01*
X0166443Y0100177D01*
X0175221Y0100177D02*
X0175221Y0099566D01*
X0177421Y0099566D01*
X0176443Y0099566D02*
X0176443Y0100177D01*
X0176443Y0100299D02*
X0177421Y0100788D01*
X0176810Y0101712D02*
X0176199Y0101712D01*
X0176199Y0102445D01*
X0176199Y0101712D02*
X0176138Y0101714D01*
X0176076Y0101720D01*
X0176016Y0101729D01*
X0175956Y0101743D01*
X0175897Y0101760D01*
X0175839Y0101781D01*
X0175783Y0101805D01*
X0175728Y0101833D01*
X0175675Y0101864D01*
X0175624Y0101899D01*
X0175576Y0101936D01*
X0175530Y0101977D01*
X0175486Y0102021D01*
X0175445Y0102067D01*
X0175408Y0102115D01*
X0175373Y0102166D01*
X0175342Y0102219D01*
X0175314Y0102274D01*
X0175290Y0102330D01*
X0175269Y0102388D01*
X0175252Y0102447D01*
X0175238Y0102507D01*
X0175229Y0102567D01*
X0175223Y0102629D01*
X0175221Y0102690D01*
X0176688Y0102934D02*
X0176810Y0102934D01*
X0176688Y0102934D02*
X0176645Y0102932D01*
X0176603Y0102927D01*
X0176561Y0102917D01*
X0176521Y0102905D01*
X0176481Y0102888D01*
X0176444Y0102868D01*
X0176408Y0102846D01*
X0176374Y0102820D01*
X0176342Y0102791D01*
X0176313Y0102759D01*
X0176287Y0102725D01*
X0176265Y0102690D01*
X0176245Y0102652D01*
X0176228Y0102612D01*
X0176216Y0102572D01*
X0176206Y0102530D01*
X0176201Y0102488D01*
X0176199Y0102445D01*
X0176810Y0102934D02*
X0176858Y0102932D01*
X0176906Y0102926D01*
X0176953Y0102917D01*
X0176999Y0102904D01*
X0177044Y0102887D01*
X0177087Y0102867D01*
X0177129Y0102844D01*
X0177169Y0102817D01*
X0177207Y0102788D01*
X0177242Y0102755D01*
X0177275Y0102720D01*
X0177304Y0102682D01*
X0177331Y0102642D01*
X0177354Y0102600D01*
X0177374Y0102557D01*
X0177391Y0102512D01*
X0177404Y0102466D01*
X0177413Y0102419D01*
X0177419Y0102371D01*
X0177421Y0102323D01*
X0177419Y0102275D01*
X0177413Y0102227D01*
X0177404Y0102180D01*
X0177391Y0102134D01*
X0177374Y0102089D01*
X0177354Y0102046D01*
X0177331Y0102004D01*
X0177304Y0101964D01*
X0177275Y0101926D01*
X0177242Y0101891D01*
X0177207Y0101858D01*
X0177169Y0101829D01*
X0177129Y0101802D01*
X0177087Y0101779D01*
X0177044Y0101759D01*
X0176999Y0101742D01*
X0176953Y0101729D01*
X0176906Y0101720D01*
X0176858Y0101714D01*
X0176810Y0101712D01*
X0176443Y0100177D02*
X0176441Y0100225D01*
X0176435Y0100273D01*
X0176426Y0100320D01*
X0176413Y0100366D01*
X0176396Y0100411D01*
X0176376Y0100454D01*
X0176353Y0100496D01*
X0176326Y0100536D01*
X0176297Y0100574D01*
X0176264Y0100609D01*
X0176229Y0100642D01*
X0176191Y0100671D01*
X0176151Y0100698D01*
X0176109Y0100721D01*
X0176066Y0100741D01*
X0176021Y0100758D01*
X0175975Y0100771D01*
X0175928Y0100780D01*
X0175880Y0100786D01*
X0175832Y0100788D01*
X0175784Y0100786D01*
X0175736Y0100780D01*
X0175689Y0100771D01*
X0175643Y0100758D01*
X0175598Y0100741D01*
X0175555Y0100721D01*
X0175513Y0100698D01*
X0175473Y0100671D01*
X0175435Y0100642D01*
X0175400Y0100609D01*
X0175367Y0100574D01*
X0175338Y0100536D01*
X0175311Y0100496D01*
X0175288Y0100454D01*
X0175268Y0100411D01*
X0175251Y0100366D01*
X0175238Y0100320D01*
X0175229Y0100273D01*
X0175223Y0100225D01*
X0175221Y0100177D01*
X0156221Y0099566D02*
X0154021Y0099566D01*
X0154021Y0100177D01*
X0154023Y0100225D01*
X0154029Y0100273D01*
X0154038Y0100320D01*
X0154051Y0100366D01*
X0154068Y0100411D01*
X0154088Y0100454D01*
X0154111Y0100496D01*
X0154138Y0100536D01*
X0154167Y0100574D01*
X0154200Y0100609D01*
X0154235Y0100642D01*
X0154273Y0100671D01*
X0154313Y0100698D01*
X0154355Y0100721D01*
X0154398Y0100741D01*
X0154443Y0100758D01*
X0154489Y0100771D01*
X0154536Y0100780D01*
X0154584Y0100786D01*
X0154632Y0100788D01*
X0154680Y0100786D01*
X0154728Y0100780D01*
X0154775Y0100771D01*
X0154821Y0100758D01*
X0154866Y0100741D01*
X0154909Y0100721D01*
X0154951Y0100698D01*
X0154991Y0100671D01*
X0155029Y0100642D01*
X0155064Y0100609D01*
X0155097Y0100574D01*
X0155126Y0100536D01*
X0155153Y0100496D01*
X0155176Y0100454D01*
X0155196Y0100411D01*
X0155213Y0100366D01*
X0155226Y0100320D01*
X0155235Y0100273D01*
X0155241Y0100225D01*
X0155243Y0100177D01*
X0155243Y0099566D01*
X0155243Y0100299D02*
X0156221Y0100788D01*
X0156221Y0101712D02*
X0156221Y0102934D01*
X0156221Y0102323D02*
X0154021Y0102323D01*
X0154510Y0101712D01*
X0113481Y0062350D02*
X0113481Y0060150D01*
X0112870Y0060150D02*
X0114092Y0060150D01*
X0112037Y0060150D02*
X0111304Y0061494D01*
X0110815Y0061006D02*
X0112037Y0062350D01*
X0112870Y0061861D02*
X0113481Y0062350D01*
X0110815Y0062350D02*
X0110815Y0060150D01*
X0109772Y0060761D02*
X0109772Y0061739D01*
X0109770Y0061787D01*
X0109764Y0061835D01*
X0109755Y0061882D01*
X0109742Y0061928D01*
X0109725Y0061973D01*
X0109705Y0062016D01*
X0109682Y0062058D01*
X0109655Y0062098D01*
X0109626Y0062136D01*
X0109593Y0062171D01*
X0109558Y0062204D01*
X0109520Y0062233D01*
X0109480Y0062260D01*
X0109438Y0062283D01*
X0109395Y0062303D01*
X0109350Y0062320D01*
X0109304Y0062333D01*
X0109257Y0062342D01*
X0109209Y0062348D01*
X0109161Y0062350D01*
X0109113Y0062348D01*
X0109065Y0062342D01*
X0109018Y0062333D01*
X0108972Y0062320D01*
X0108927Y0062303D01*
X0108884Y0062283D01*
X0108842Y0062260D01*
X0108802Y0062233D01*
X0108764Y0062204D01*
X0108729Y0062171D01*
X0108696Y0062136D01*
X0108667Y0062098D01*
X0108640Y0062058D01*
X0108617Y0062016D01*
X0108597Y0061973D01*
X0108580Y0061928D01*
X0108567Y0061882D01*
X0108558Y0061835D01*
X0108552Y0061787D01*
X0108550Y0061739D01*
X0108550Y0060761D01*
X0108552Y0060713D01*
X0108558Y0060665D01*
X0108567Y0060618D01*
X0108580Y0060572D01*
X0108597Y0060527D01*
X0108617Y0060484D01*
X0108640Y0060442D01*
X0108667Y0060402D01*
X0108696Y0060364D01*
X0108729Y0060329D01*
X0108764Y0060296D01*
X0108802Y0060267D01*
X0108842Y0060240D01*
X0108884Y0060217D01*
X0108927Y0060197D01*
X0108972Y0060180D01*
X0109018Y0060167D01*
X0109065Y0060158D01*
X0109113Y0060152D01*
X0109161Y0060150D01*
X0109209Y0060152D01*
X0109257Y0060158D01*
X0109304Y0060167D01*
X0109350Y0060180D01*
X0109395Y0060197D01*
X0109438Y0060217D01*
X0109480Y0060240D01*
X0109520Y0060267D01*
X0109558Y0060296D01*
X0109593Y0060329D01*
X0109626Y0060364D01*
X0109655Y0060402D01*
X0109682Y0060442D01*
X0109705Y0060484D01*
X0109725Y0060527D01*
X0109742Y0060572D01*
X0109755Y0060618D01*
X0109764Y0060665D01*
X0109770Y0060713D01*
X0109772Y0060761D01*
X0087224Y0017350D02*
X0087224Y0015150D01*
X0086613Y0015150D02*
X0087836Y0015150D01*
X0085785Y0015150D02*
X0085296Y0015150D01*
X0085253Y0015152D01*
X0085211Y0015157D01*
X0085169Y0015167D01*
X0085129Y0015179D01*
X0085089Y0015196D01*
X0085052Y0015216D01*
X0085016Y0015238D01*
X0084982Y0015264D01*
X0084950Y0015293D01*
X0084921Y0015325D01*
X0084895Y0015359D01*
X0084873Y0015395D01*
X0084853Y0015432D01*
X0084836Y0015472D01*
X0084824Y0015512D01*
X0084814Y0015554D01*
X0084809Y0015596D01*
X0084807Y0015639D01*
X0084807Y0016861D01*
X0084809Y0016904D01*
X0084814Y0016946D01*
X0084824Y0016988D01*
X0084836Y0017028D01*
X0084853Y0017068D01*
X0084873Y0017105D01*
X0084895Y0017141D01*
X0084921Y0017175D01*
X0084950Y0017207D01*
X0084982Y0017236D01*
X0085016Y0017262D01*
X0085051Y0017284D01*
X0085089Y0017304D01*
X0085129Y0017321D01*
X0085169Y0017333D01*
X0085211Y0017343D01*
X0085253Y0017348D01*
X0085296Y0017350D01*
X0085785Y0017350D01*
X0086613Y0016861D02*
X0087224Y0017350D01*
X0134807Y0016861D02*
X0134807Y0015639D01*
X0134809Y0015596D01*
X0134814Y0015554D01*
X0134824Y0015512D01*
X0134836Y0015472D01*
X0134853Y0015432D01*
X0134873Y0015395D01*
X0134895Y0015359D01*
X0134921Y0015325D01*
X0134950Y0015293D01*
X0134982Y0015264D01*
X0135016Y0015238D01*
X0135052Y0015216D01*
X0135089Y0015196D01*
X0135129Y0015179D01*
X0135169Y0015167D01*
X0135211Y0015157D01*
X0135253Y0015152D01*
X0135296Y0015150D01*
X0135785Y0015150D01*
X0136613Y0015150D02*
X0137224Y0015150D01*
X0137272Y0015152D01*
X0137320Y0015158D01*
X0137367Y0015167D01*
X0137413Y0015180D01*
X0137458Y0015197D01*
X0137501Y0015217D01*
X0137543Y0015240D01*
X0137583Y0015267D01*
X0137621Y0015296D01*
X0137656Y0015329D01*
X0137689Y0015364D01*
X0137718Y0015402D01*
X0137745Y0015442D01*
X0137768Y0015484D01*
X0137788Y0015527D01*
X0137805Y0015572D01*
X0137818Y0015618D01*
X0137827Y0015665D01*
X0137833Y0015713D01*
X0137835Y0015761D01*
X0137833Y0015809D01*
X0137827Y0015857D01*
X0137818Y0015904D01*
X0137805Y0015950D01*
X0137788Y0015995D01*
X0137768Y0016038D01*
X0137745Y0016080D01*
X0137718Y0016120D01*
X0137689Y0016158D01*
X0137656Y0016193D01*
X0137621Y0016226D01*
X0137583Y0016255D01*
X0137543Y0016282D01*
X0137501Y0016305D01*
X0137458Y0016325D01*
X0137413Y0016342D01*
X0137367Y0016355D01*
X0137320Y0016364D01*
X0137272Y0016370D01*
X0137224Y0016372D01*
X0137347Y0016372D02*
X0136858Y0016372D01*
X0137347Y0016372D02*
X0137390Y0016374D01*
X0137432Y0016379D01*
X0137474Y0016389D01*
X0137514Y0016401D01*
X0137554Y0016418D01*
X0137592Y0016438D01*
X0137627Y0016460D01*
X0137661Y0016486D01*
X0137693Y0016515D01*
X0137722Y0016547D01*
X0137748Y0016581D01*
X0137770Y0016617D01*
X0137790Y0016654D01*
X0137807Y0016694D01*
X0137819Y0016734D01*
X0137829Y0016776D01*
X0137834Y0016818D01*
X0137836Y0016861D01*
X0137834Y0016904D01*
X0137829Y0016946D01*
X0137819Y0016988D01*
X0137807Y0017028D01*
X0137790Y0017068D01*
X0137770Y0017106D01*
X0137748Y0017141D01*
X0137722Y0017175D01*
X0137693Y0017207D01*
X0137661Y0017236D01*
X0137627Y0017262D01*
X0137592Y0017284D01*
X0137554Y0017304D01*
X0137514Y0017321D01*
X0137474Y0017333D01*
X0137432Y0017343D01*
X0137390Y0017348D01*
X0137347Y0017350D01*
X0136613Y0017350D01*
X0135785Y0017350D02*
X0135296Y0017350D01*
X0135253Y0017348D01*
X0135211Y0017343D01*
X0135169Y0017333D01*
X0135129Y0017321D01*
X0135089Y0017304D01*
X0135051Y0017284D01*
X0135016Y0017262D01*
X0134982Y0017236D01*
X0134950Y0017207D01*
X0134921Y0017175D01*
X0134895Y0017141D01*
X0134873Y0017105D01*
X0134853Y0017068D01*
X0134836Y0017028D01*
X0134824Y0016988D01*
X0134814Y0016946D01*
X0134809Y0016904D01*
X0134807Y0016861D01*
X0155221Y0189566D02*
X0155221Y0190177D01*
X0155221Y0189566D02*
X0157421Y0189566D01*
X0156443Y0189566D02*
X0156443Y0190177D01*
X0156443Y0190299D02*
X0157421Y0190788D01*
X0157421Y0191712D02*
X0156199Y0192751D01*
X0155221Y0192384D02*
X0155223Y0192332D01*
X0155229Y0192280D01*
X0155238Y0192228D01*
X0155252Y0192178D01*
X0155269Y0192128D01*
X0155290Y0192080D01*
X0155314Y0192034D01*
X0155341Y0191990D01*
X0155372Y0191947D01*
X0155406Y0191907D01*
X0155442Y0191870D01*
X0155482Y0191836D01*
X0155524Y0191804D01*
X0155567Y0191776D01*
X0155613Y0191751D01*
X0155661Y0191729D01*
X0155710Y0191711D01*
X0156199Y0192751D02*
X0156165Y0192784D01*
X0156128Y0192814D01*
X0156088Y0192842D01*
X0156047Y0192866D01*
X0156004Y0192886D01*
X0155959Y0192903D01*
X0155913Y0192917D01*
X0155866Y0192926D01*
X0155819Y0192932D01*
X0155771Y0192934D01*
X0155726Y0192932D01*
X0155680Y0192926D01*
X0155636Y0192917D01*
X0155592Y0192904D01*
X0155550Y0192888D01*
X0155509Y0192868D01*
X0155470Y0192844D01*
X0155433Y0192818D01*
X0155398Y0192789D01*
X0155366Y0192757D01*
X0155337Y0192722D01*
X0155311Y0192685D01*
X0155287Y0192646D01*
X0155267Y0192605D01*
X0155251Y0192563D01*
X0155238Y0192519D01*
X0155229Y0192475D01*
X0155223Y0192429D01*
X0155221Y0192384D01*
X0157421Y0192934D02*
X0157421Y0191712D01*
X0156443Y0190177D02*
X0156441Y0190225D01*
X0156435Y0190273D01*
X0156426Y0190320D01*
X0156413Y0190366D01*
X0156396Y0190411D01*
X0156376Y0190454D01*
X0156353Y0190496D01*
X0156326Y0190536D01*
X0156297Y0190574D01*
X0156264Y0190609D01*
X0156229Y0190642D01*
X0156191Y0190671D01*
X0156151Y0190698D01*
X0156109Y0190721D01*
X0156066Y0190741D01*
X0156021Y0190758D01*
X0155975Y0190771D01*
X0155928Y0190780D01*
X0155880Y0190786D01*
X0155832Y0190788D01*
X0155784Y0190786D01*
X0155736Y0190780D01*
X0155689Y0190771D01*
X0155643Y0190758D01*
X0155598Y0190741D01*
X0155555Y0190721D01*
X0155513Y0190698D01*
X0155473Y0190671D01*
X0155435Y0190642D01*
X0155400Y0190609D01*
X0155367Y0190574D01*
X0155338Y0190536D01*
X0155311Y0190496D01*
X0155288Y0190454D01*
X0155268Y0190411D01*
X0155251Y0190366D01*
X0155238Y0190320D01*
X0155229Y0190273D01*
X0155223Y0190225D01*
X0155221Y0190177D01*
X0165221Y0190177D02*
X0165221Y0189566D01*
X0167421Y0189566D01*
X0166443Y0189566D02*
X0166443Y0190177D01*
X0166443Y0190299D02*
X0167421Y0190788D01*
X0167421Y0191712D02*
X0167421Y0192323D01*
X0167419Y0192371D01*
X0167413Y0192419D01*
X0167404Y0192466D01*
X0167391Y0192512D01*
X0167374Y0192557D01*
X0167354Y0192600D01*
X0167331Y0192642D01*
X0167304Y0192682D01*
X0167275Y0192720D01*
X0167242Y0192755D01*
X0167207Y0192788D01*
X0167169Y0192817D01*
X0167129Y0192844D01*
X0167087Y0192867D01*
X0167044Y0192887D01*
X0166999Y0192904D01*
X0166953Y0192917D01*
X0166906Y0192926D01*
X0166858Y0192932D01*
X0166810Y0192934D01*
X0166762Y0192932D01*
X0166714Y0192926D01*
X0166667Y0192917D01*
X0166621Y0192904D01*
X0166576Y0192887D01*
X0166533Y0192867D01*
X0166491Y0192844D01*
X0166451Y0192817D01*
X0166413Y0192788D01*
X0166378Y0192755D01*
X0166345Y0192720D01*
X0166316Y0192682D01*
X0166289Y0192642D01*
X0166266Y0192600D01*
X0166246Y0192557D01*
X0166229Y0192512D01*
X0166216Y0192466D01*
X0166207Y0192419D01*
X0166201Y0192371D01*
X0166199Y0192323D01*
X0166199Y0192445D02*
X0166199Y0191956D01*
X0166199Y0192445D02*
X0166197Y0192488D01*
X0166192Y0192530D01*
X0166182Y0192572D01*
X0166170Y0192612D01*
X0166153Y0192652D01*
X0166133Y0192690D01*
X0166111Y0192725D01*
X0166085Y0192759D01*
X0166056Y0192791D01*
X0166024Y0192820D01*
X0165990Y0192846D01*
X0165955Y0192868D01*
X0165917Y0192888D01*
X0165877Y0192905D01*
X0165837Y0192917D01*
X0165795Y0192927D01*
X0165753Y0192932D01*
X0165710Y0192934D01*
X0165667Y0192932D01*
X0165625Y0192927D01*
X0165583Y0192917D01*
X0165543Y0192905D01*
X0165503Y0192888D01*
X0165466Y0192868D01*
X0165430Y0192846D01*
X0165396Y0192820D01*
X0165364Y0192791D01*
X0165335Y0192759D01*
X0165309Y0192725D01*
X0165287Y0192690D01*
X0165267Y0192652D01*
X0165250Y0192612D01*
X0165238Y0192572D01*
X0165228Y0192530D01*
X0165223Y0192488D01*
X0165221Y0192445D01*
X0165221Y0191712D01*
X0165221Y0190177D02*
X0165223Y0190225D01*
X0165229Y0190273D01*
X0165238Y0190320D01*
X0165251Y0190366D01*
X0165268Y0190411D01*
X0165288Y0190454D01*
X0165311Y0190496D01*
X0165338Y0190536D01*
X0165367Y0190574D01*
X0165400Y0190609D01*
X0165435Y0190642D01*
X0165473Y0190671D01*
X0165513Y0190698D01*
X0165555Y0190721D01*
X0165598Y0190741D01*
X0165643Y0190758D01*
X0165689Y0190771D01*
X0165736Y0190780D01*
X0165784Y0190786D01*
X0165832Y0190788D01*
X0165880Y0190786D01*
X0165928Y0190780D01*
X0165975Y0190771D01*
X0166021Y0190758D01*
X0166066Y0190741D01*
X0166109Y0190721D01*
X0166151Y0190698D01*
X0166191Y0190671D01*
X0166229Y0190642D01*
X0166264Y0190609D01*
X0166297Y0190574D01*
X0166326Y0190536D01*
X0166353Y0190496D01*
X0166376Y0190454D01*
X0166396Y0190411D01*
X0166413Y0190366D01*
X0166426Y0190320D01*
X0166435Y0190273D01*
X0166441Y0190225D01*
X0166443Y0190177D01*
X0175221Y0190177D02*
X0175221Y0189566D01*
X0177421Y0189566D01*
X0176443Y0189566D02*
X0176443Y0190177D01*
X0176443Y0190299D02*
X0177421Y0190788D01*
X0176932Y0191712D02*
X0175221Y0192201D01*
X0176443Y0192567D02*
X0177421Y0192567D01*
X0176932Y0192934D02*
X0176932Y0191712D01*
X0176443Y0190177D02*
X0176441Y0190225D01*
X0176435Y0190273D01*
X0176426Y0190320D01*
X0176413Y0190366D01*
X0176396Y0190411D01*
X0176376Y0190454D01*
X0176353Y0190496D01*
X0176326Y0190536D01*
X0176297Y0190574D01*
X0176264Y0190609D01*
X0176229Y0190642D01*
X0176191Y0190671D01*
X0176151Y0190698D01*
X0176109Y0190721D01*
X0176066Y0190741D01*
X0176021Y0190758D01*
X0175975Y0190771D01*
X0175928Y0190780D01*
X0175880Y0190786D01*
X0175832Y0190788D01*
X0175784Y0190786D01*
X0175736Y0190780D01*
X0175689Y0190771D01*
X0175643Y0190758D01*
X0175598Y0190741D01*
X0175555Y0190721D01*
X0175513Y0190698D01*
X0175473Y0190671D01*
X0175435Y0190642D01*
X0175400Y0190609D01*
X0175367Y0190574D01*
X0175338Y0190536D01*
X0175311Y0190496D01*
X0175288Y0190454D01*
X0175268Y0190411D01*
X0175251Y0190366D01*
X0175238Y0190320D01*
X0175229Y0190273D01*
X0175223Y0190225D01*
X0175221Y0190177D01*
X0158584Y0212591D02*
X0157361Y0212591D01*
X0158400Y0213813D01*
X0158034Y0214791D02*
X0157982Y0214789D01*
X0157930Y0214783D01*
X0157878Y0214774D01*
X0157828Y0214760D01*
X0157778Y0214743D01*
X0157730Y0214722D01*
X0157684Y0214698D01*
X0157640Y0214671D01*
X0157597Y0214640D01*
X0157557Y0214606D01*
X0157520Y0214570D01*
X0157486Y0214530D01*
X0157454Y0214488D01*
X0157426Y0214445D01*
X0157401Y0214399D01*
X0157379Y0214351D01*
X0157361Y0214302D01*
X0158401Y0213813D02*
X0158434Y0213847D01*
X0158464Y0213884D01*
X0158492Y0213924D01*
X0158516Y0213965D01*
X0158536Y0214008D01*
X0158553Y0214053D01*
X0158567Y0214099D01*
X0158576Y0214146D01*
X0158582Y0214193D01*
X0158584Y0214241D01*
X0158582Y0214286D01*
X0158576Y0214332D01*
X0158567Y0214376D01*
X0158554Y0214420D01*
X0158538Y0214462D01*
X0158518Y0214503D01*
X0158494Y0214542D01*
X0158468Y0214579D01*
X0158439Y0214614D01*
X0158407Y0214646D01*
X0158372Y0214675D01*
X0158335Y0214701D01*
X0158296Y0214725D01*
X0158255Y0214745D01*
X0158213Y0214761D01*
X0158169Y0214774D01*
X0158125Y0214783D01*
X0158079Y0214789D01*
X0158034Y0214791D01*
X0156533Y0214791D02*
X0156044Y0214791D01*
X0156001Y0214789D01*
X0155959Y0214784D01*
X0155917Y0214774D01*
X0155877Y0214762D01*
X0155837Y0214745D01*
X0155799Y0214725D01*
X0155764Y0214703D01*
X0155730Y0214677D01*
X0155698Y0214648D01*
X0155669Y0214616D01*
X0155643Y0214582D01*
X0155621Y0214546D01*
X0155601Y0214509D01*
X0155584Y0214469D01*
X0155572Y0214429D01*
X0155562Y0214387D01*
X0155557Y0214345D01*
X0155555Y0214302D01*
X0155555Y0213080D01*
X0155557Y0213037D01*
X0155562Y0212995D01*
X0155572Y0212953D01*
X0155584Y0212913D01*
X0155601Y0212873D01*
X0155621Y0212836D01*
X0155643Y0212800D01*
X0155669Y0212766D01*
X0155698Y0212734D01*
X0155730Y0212705D01*
X0155764Y0212679D01*
X0155800Y0212657D01*
X0155837Y0212637D01*
X0155877Y0212620D01*
X0155917Y0212608D01*
X0155959Y0212598D01*
X0156001Y0212593D01*
X0156044Y0212591D01*
X0156533Y0212591D01*
X0123169Y0239058D02*
X0123169Y0239547D01*
X0123169Y0239303D02*
X0120969Y0239303D01*
X0120969Y0239547D02*
X0120969Y0239058D01*
X0121458Y0240413D02*
X0122680Y0240413D01*
X0122723Y0240415D01*
X0122765Y0240420D01*
X0122807Y0240430D01*
X0122847Y0240442D01*
X0122887Y0240459D01*
X0122925Y0240479D01*
X0122960Y0240501D01*
X0122994Y0240527D01*
X0123026Y0240556D01*
X0123055Y0240588D01*
X0123081Y0240622D01*
X0123103Y0240658D01*
X0123123Y0240695D01*
X0123140Y0240735D01*
X0123152Y0240775D01*
X0123162Y0240817D01*
X0123167Y0240859D01*
X0123169Y0240902D01*
X0123169Y0241391D01*
X0123169Y0242220D02*
X0123169Y0243442D01*
X0123169Y0242831D02*
X0120969Y0242831D01*
X0121458Y0242220D01*
X0120969Y0241391D02*
X0120969Y0240902D01*
X0120971Y0240859D01*
X0120976Y0240817D01*
X0120986Y0240775D01*
X0120998Y0240735D01*
X0121015Y0240695D01*
X0121035Y0240657D01*
X0121057Y0240622D01*
X0121083Y0240588D01*
X0121112Y0240556D01*
X0121144Y0240527D01*
X0121178Y0240501D01*
X0121214Y0240479D01*
X0121251Y0240459D01*
X0121291Y0240442D01*
X0121331Y0240430D01*
X0121373Y0240420D01*
X0121415Y0240415D01*
X0121458Y0240413D01*
X0110221Y0207882D02*
X0112421Y0207149D01*
X0110221Y0206415D01*
X0110221Y0205003D02*
X0110221Y0204392D01*
X0112421Y0204392D01*
X0111443Y0204392D02*
X0111443Y0205003D01*
X0111443Y0205125D02*
X0112421Y0205614D01*
X0111443Y0205003D02*
X0111441Y0205051D01*
X0111435Y0205099D01*
X0111426Y0205146D01*
X0111413Y0205192D01*
X0111396Y0205237D01*
X0111376Y0205280D01*
X0111353Y0205322D01*
X0111326Y0205362D01*
X0111297Y0205400D01*
X0111264Y0205435D01*
X0111229Y0205468D01*
X0111191Y0205497D01*
X0111151Y0205524D01*
X0111109Y0205547D01*
X0111066Y0205567D01*
X0111021Y0205584D01*
X0110975Y0205597D01*
X0110928Y0205606D01*
X0110880Y0205612D01*
X0110832Y0205614D01*
X0110784Y0205612D01*
X0110736Y0205606D01*
X0110689Y0205597D01*
X0110643Y0205584D01*
X0110598Y0205567D01*
X0110555Y0205547D01*
X0110513Y0205524D01*
X0110473Y0205497D01*
X0110435Y0205468D01*
X0110400Y0205435D01*
X0110367Y0205400D01*
X0110338Y0205362D01*
X0110311Y0205322D01*
X0110288Y0205280D01*
X0110268Y0205237D01*
X0110251Y0205192D01*
X0110238Y0205146D01*
X0110229Y0205099D01*
X0110223Y0205051D01*
X0110221Y0205003D01*
X0110832Y0203296D02*
X0111810Y0203296D01*
X0111858Y0203294D01*
X0111906Y0203288D01*
X0111953Y0203279D01*
X0111999Y0203266D01*
X0112044Y0203249D01*
X0112087Y0203229D01*
X0112129Y0203206D01*
X0112169Y0203179D01*
X0112207Y0203150D01*
X0112242Y0203117D01*
X0112275Y0203082D01*
X0112304Y0203044D01*
X0112331Y0203004D01*
X0112354Y0202962D01*
X0112374Y0202919D01*
X0112391Y0202874D01*
X0112404Y0202828D01*
X0112413Y0202781D01*
X0112419Y0202733D01*
X0112421Y0202685D01*
X0112421Y0202073D01*
X0110221Y0202073D01*
X0110221Y0202685D01*
X0110223Y0202733D01*
X0110229Y0202781D01*
X0110238Y0202828D01*
X0110251Y0202874D01*
X0110268Y0202919D01*
X0110288Y0202962D01*
X0110311Y0203004D01*
X0110338Y0203044D01*
X0110367Y0203082D01*
X0110400Y0203117D01*
X0110435Y0203150D01*
X0110473Y0203179D01*
X0110513Y0203206D01*
X0110555Y0203229D01*
X0110598Y0203249D01*
X0110643Y0203266D01*
X0110689Y0203279D01*
X0110736Y0203288D01*
X0110784Y0203294D01*
X0110832Y0203296D01*
X0110221Y0200970D02*
X0112421Y0200970D01*
X0111443Y0200237D02*
X0110221Y0200970D01*
X0111443Y0200237D02*
X0110221Y0199503D01*
X0112421Y0199503D01*
X0112421Y0198061D02*
X0110221Y0198550D01*
X0110955Y0197573D02*
X0112421Y0198061D01*
X0112421Y0197084D02*
X0110955Y0197573D01*
X0110221Y0196595D02*
X0112421Y0197084D01*
X0111443Y0195229D02*
X0111443Y0194618D01*
X0111443Y0195229D02*
X0111441Y0195277D01*
X0111435Y0195325D01*
X0111426Y0195372D01*
X0111413Y0195418D01*
X0111396Y0195463D01*
X0111376Y0195506D01*
X0111353Y0195548D01*
X0111326Y0195588D01*
X0111297Y0195626D01*
X0111264Y0195661D01*
X0111229Y0195694D01*
X0111191Y0195723D01*
X0111151Y0195750D01*
X0111109Y0195773D01*
X0111066Y0195793D01*
X0111021Y0195810D01*
X0110975Y0195823D01*
X0110928Y0195832D01*
X0110880Y0195838D01*
X0110832Y0195840D01*
X0110784Y0195838D01*
X0110736Y0195832D01*
X0110689Y0195823D01*
X0110643Y0195810D01*
X0110598Y0195793D01*
X0110555Y0195773D01*
X0110513Y0195750D01*
X0110473Y0195723D01*
X0110435Y0195694D01*
X0110400Y0195661D01*
X0110367Y0195626D01*
X0110338Y0195588D01*
X0110311Y0195548D01*
X0110288Y0195506D01*
X0110268Y0195463D01*
X0110251Y0195418D01*
X0110238Y0195372D01*
X0110229Y0195325D01*
X0110223Y0195277D01*
X0110221Y0195229D01*
X0110221Y0194618D01*
X0112421Y0194618D01*
D15*
X0171069Y0210691D02*
X0171069Y0213691D01*
X0171069Y0216691D01*
X0173069Y0216691D02*
X0173069Y0213691D01*
X0173069Y0210691D01*
X0137321Y0029250D02*
X0137321Y0026250D01*
X0137321Y0023250D01*
X0135321Y0023250D02*
X0135321Y0026250D01*
X0135321Y0029250D01*
X0125101Y0024872D02*
X0125101Y0018376D01*
X0125101Y0024872D02*
X0122148Y0024872D01*
X0119195Y0008140D02*
X0103447Y0008140D01*
X0097542Y0018376D02*
X0097542Y0024872D01*
X0100494Y0024872D01*
X0087321Y0026250D02*
X0087321Y0023250D01*
X0085321Y0023250D02*
X0085321Y0026250D01*
X0085321Y0029250D01*
X0087321Y0029250D02*
X0087321Y0026250D01*
D16*
X0075321Y0031250D02*
X0147321Y0031250D01*
X0147321Y0221250D01*
X0075321Y0221250D01*
X0075321Y0031250D01*
X0060376Y0072116D02*
X0060376Y0213848D01*
X0001321Y0213848D01*
X0001321Y0072116D01*
X0060376Y0072116D01*
X0021956Y0050517D02*
X0020056Y0051150D01*
X0020056Y0049883D02*
X0021956Y0050517D01*
X0021165Y0048745D02*
X0020848Y0048165D01*
X0020056Y0048376D02*
X0020058Y0048427D01*
X0020063Y0048478D01*
X0020071Y0048528D01*
X0020082Y0048578D01*
X0020097Y0048626D01*
X0020114Y0048674D01*
X0020135Y0048721D01*
X0020159Y0048766D01*
X0020185Y0048809D01*
X0020214Y0048851D01*
X0020849Y0048165D02*
X0020826Y0048131D01*
X0020801Y0048100D01*
X0020773Y0048071D01*
X0020742Y0048044D01*
X0020709Y0048021D01*
X0020674Y0048001D01*
X0020637Y0047984D01*
X0020599Y0047971D01*
X0020560Y0047962D01*
X0020519Y0047956D01*
X0020479Y0047954D01*
X0020440Y0047956D01*
X0020401Y0047961D01*
X0020364Y0047970D01*
X0020327Y0047982D01*
X0020291Y0047998D01*
X0020257Y0048017D01*
X0020225Y0048039D01*
X0020195Y0048064D01*
X0020167Y0048092D01*
X0020142Y0048122D01*
X0020120Y0048154D01*
X0020101Y0048188D01*
X0020085Y0048224D01*
X0020073Y0048261D01*
X0020064Y0048298D01*
X0020059Y0048337D01*
X0020057Y0048376D01*
X0021692Y0047901D02*
X0021732Y0047943D01*
X0021770Y0047989D01*
X0021804Y0048036D01*
X0021835Y0048086D01*
X0021863Y0048138D01*
X0021887Y0048191D01*
X0021908Y0048246D01*
X0021925Y0048302D01*
X0021939Y0048359D01*
X0021948Y0048417D01*
X0021954Y0048475D01*
X0021956Y0048534D01*
X0021954Y0048573D01*
X0021949Y0048612D01*
X0021940Y0048649D01*
X0021928Y0048686D01*
X0021912Y0048722D01*
X0021893Y0048756D01*
X0021871Y0048788D01*
X0021846Y0048818D01*
X0021818Y0048846D01*
X0021788Y0048871D01*
X0021756Y0048893D01*
X0021722Y0048912D01*
X0021686Y0048928D01*
X0021649Y0048940D01*
X0021612Y0048949D01*
X0021573Y0048954D01*
X0021534Y0048956D01*
X0021534Y0048957D02*
X0021494Y0048955D01*
X0021453Y0048949D01*
X0021414Y0048940D01*
X0021376Y0048927D01*
X0021339Y0048910D01*
X0021304Y0048890D01*
X0021271Y0048867D01*
X0021240Y0048840D01*
X0021212Y0048811D01*
X0021187Y0048780D01*
X0021164Y0048746D01*
X0021956Y0046894D02*
X0021112Y0046471D01*
X0021112Y0046366D02*
X0021112Y0045838D01*
X0021112Y0046366D02*
X0021110Y0046411D01*
X0021104Y0046455D01*
X0021095Y0046499D01*
X0021082Y0046542D01*
X0021065Y0046583D01*
X0021045Y0046624D01*
X0021021Y0046662D01*
X0020995Y0046698D01*
X0020965Y0046731D01*
X0020933Y0046762D01*
X0020898Y0046791D01*
X0020861Y0046816D01*
X0020822Y0046837D01*
X0020781Y0046856D01*
X0020739Y0046871D01*
X0020695Y0046882D01*
X0020651Y0046890D01*
X0020606Y0046894D01*
X0020562Y0046894D01*
X0020517Y0046890D01*
X0020473Y0046882D01*
X0020429Y0046871D01*
X0020387Y0046856D01*
X0020346Y0046837D01*
X0020307Y0046816D01*
X0020270Y0046791D01*
X0020235Y0046762D01*
X0020203Y0046731D01*
X0020173Y0046698D01*
X0020147Y0046662D01*
X0020123Y0046624D01*
X0020103Y0046583D01*
X0020086Y0046542D01*
X0020073Y0046499D01*
X0020064Y0046455D01*
X0020058Y0046411D01*
X0020056Y0046366D01*
X0020056Y0045838D01*
X0021956Y0045838D01*
X0109119Y0007515D02*
X0109541Y0007515D01*
X0109330Y0007515D02*
X0109330Y0005615D01*
X0109119Y0005615D02*
X0109541Y0005615D01*
X0110530Y0005615D02*
X0111428Y0006671D01*
X0111111Y0007515D02*
X0111063Y0007513D01*
X0111016Y0007507D01*
X0110968Y0007498D01*
X0110922Y0007485D01*
X0110877Y0007468D01*
X0110834Y0007448D01*
X0110792Y0007425D01*
X0110752Y0007398D01*
X0110715Y0007369D01*
X0110679Y0007336D01*
X0110647Y0007301D01*
X0110617Y0007263D01*
X0110591Y0007223D01*
X0110567Y0007181D01*
X0110547Y0007138D01*
X0110531Y0007093D01*
X0111428Y0006671D02*
X0111456Y0006700D01*
X0111483Y0006732D01*
X0111506Y0006766D01*
X0111527Y0006802D01*
X0111545Y0006839D01*
X0111559Y0006878D01*
X0111571Y0006917D01*
X0111579Y0006958D01*
X0111584Y0006999D01*
X0111586Y0007040D01*
X0111584Y0007081D01*
X0111579Y0007122D01*
X0111570Y0007163D01*
X0111557Y0007202D01*
X0111541Y0007241D01*
X0111522Y0007278D01*
X0111500Y0007312D01*
X0111475Y0007345D01*
X0111447Y0007376D01*
X0111416Y0007404D01*
X0111383Y0007429D01*
X0111349Y0007451D01*
X0111312Y0007470D01*
X0111273Y0007486D01*
X0111234Y0007499D01*
X0111193Y0007508D01*
X0111152Y0007513D01*
X0111111Y0007515D01*
X0112679Y0007093D02*
X0112679Y0006037D01*
X0112681Y0005998D01*
X0112686Y0005959D01*
X0112695Y0005922D01*
X0112707Y0005885D01*
X0112723Y0005849D01*
X0112742Y0005815D01*
X0112764Y0005783D01*
X0112789Y0005753D01*
X0112817Y0005725D01*
X0112847Y0005700D01*
X0112879Y0005678D01*
X0112913Y0005659D01*
X0112949Y0005643D01*
X0112986Y0005631D01*
X0113023Y0005622D01*
X0113062Y0005617D01*
X0113101Y0005615D01*
X0113523Y0005615D01*
X0112679Y0007093D02*
X0112681Y0007132D01*
X0112686Y0007171D01*
X0112695Y0007208D01*
X0112707Y0007245D01*
X0112723Y0007281D01*
X0112742Y0007315D01*
X0112764Y0007347D01*
X0112789Y0007377D01*
X0112817Y0007405D01*
X0112847Y0007430D01*
X0112879Y0007452D01*
X0112913Y0007471D01*
X0112949Y0007486D01*
X0112986Y0007499D01*
X0113023Y0007508D01*
X0113062Y0007513D01*
X0113101Y0007515D01*
X0113523Y0007515D01*
X0111586Y0005615D02*
X0110530Y0005615D01*
X0155371Y0059606D02*
X0155371Y0060134D01*
X0155371Y0059606D02*
X0157271Y0059606D01*
X0157271Y0060134D01*
X0157269Y0060178D01*
X0157264Y0060221D01*
X0157255Y0060264D01*
X0157242Y0060305D01*
X0157227Y0060346D01*
X0157207Y0060385D01*
X0157185Y0060423D01*
X0157160Y0060458D01*
X0157131Y0060492D01*
X0157101Y0060522D01*
X0157067Y0060551D01*
X0157032Y0060576D01*
X0156994Y0060598D01*
X0156955Y0060618D01*
X0156914Y0060633D01*
X0156873Y0060646D01*
X0156830Y0060655D01*
X0156787Y0060660D01*
X0156743Y0060662D01*
X0155899Y0060662D01*
X0155855Y0060660D01*
X0155812Y0060655D01*
X0155769Y0060646D01*
X0155728Y0060633D01*
X0155687Y0060618D01*
X0155648Y0060598D01*
X0155610Y0060576D01*
X0155575Y0060551D01*
X0155541Y0060522D01*
X0155511Y0060492D01*
X0155482Y0060458D01*
X0155457Y0060423D01*
X0155435Y0060385D01*
X0155415Y0060346D01*
X0155400Y0060305D01*
X0155387Y0060264D01*
X0155378Y0060221D01*
X0155373Y0060178D01*
X0155371Y0060134D01*
X0155793Y0061838D02*
X0155371Y0062366D01*
X0157271Y0062366D01*
X0157271Y0061838D02*
X0157271Y0062894D01*
D17*
X0098953Y0027431D02*
X0098955Y0027478D01*
X0098961Y0027524D01*
X0098970Y0027570D01*
X0098984Y0027614D01*
X0099001Y0027658D01*
X0099022Y0027699D01*
X0099046Y0027739D01*
X0099073Y0027777D01*
X0099104Y0027812D01*
X0099137Y0027845D01*
X0099173Y0027875D01*
X0099212Y0027901D01*
X0099252Y0027925D01*
X0099294Y0027944D01*
X0099338Y0027961D01*
X0099383Y0027973D01*
X0099429Y0027982D01*
X0099475Y0027987D01*
X0099522Y0027988D01*
X0099568Y0027985D01*
X0099614Y0027978D01*
X0099660Y0027967D01*
X0099704Y0027953D01*
X0099747Y0027935D01*
X0099788Y0027913D01*
X0099828Y0027888D01*
X0099865Y0027860D01*
X0099900Y0027829D01*
X0099932Y0027795D01*
X0099961Y0027758D01*
X0099986Y0027720D01*
X0100009Y0027679D01*
X0100028Y0027636D01*
X0100043Y0027592D01*
X0100055Y0027547D01*
X0100063Y0027501D01*
X0100067Y0027454D01*
X0100067Y0027408D01*
X0100063Y0027361D01*
X0100055Y0027315D01*
X0100043Y0027270D01*
X0100028Y0027226D01*
X0100009Y0027183D01*
X0099986Y0027142D01*
X0099961Y0027104D01*
X0099932Y0027067D01*
X0099900Y0027033D01*
X0099865Y0027002D01*
X0099828Y0026974D01*
X0099789Y0026949D01*
X0099747Y0026927D01*
X0099704Y0026909D01*
X0099660Y0026895D01*
X0099614Y0026884D01*
X0099568Y0026877D01*
X0099522Y0026874D01*
X0099475Y0026875D01*
X0099429Y0026880D01*
X0099383Y0026889D01*
X0099338Y0026901D01*
X0099294Y0026918D01*
X0099252Y0026937D01*
X0099212Y0026961D01*
X0099173Y0026987D01*
X0099137Y0027017D01*
X0099104Y0027050D01*
X0099073Y0027085D01*
X0099046Y0027123D01*
X0099022Y0027163D01*
X0099001Y0027204D01*
X0098984Y0027248D01*
X0098970Y0027292D01*
X0098961Y0027338D01*
X0098955Y0027384D01*
X0098953Y0027431D01*
M02*
