G75*
%MOIN*%
%OFA0B0*%
%FSLAX25Y25*%
%IPPOS*%
%LPD*%
%AMOC8*
5,1,8,0,0,1.08239X$1,22.5*
%
%ADD10OC8,0.04800*%
%ADD11C,0.04800*%
%ADD12C,0.07600*%
%ADD13C,0.07400*%
%ADD14C,0.06299*%
%ADD15R,0.04724X0.04724*%
%ADD16C,0.04724*%
%ADD17OC8,0.12598*%
%ADD18OC8,0.05400*%
%ADD19C,0.01000*%
%ADD20C,0.05000*%
%ADD21C,0.02362*%
D10*
X0081500Y0111500D03*
X0081500Y0121500D03*
X0126500Y0191500D03*
X0126500Y0201500D03*
X0126500Y0211500D03*
X0126500Y0221500D03*
X0146500Y0221500D03*
X0146500Y0211500D03*
X0146500Y0201500D03*
X0146500Y0191500D03*
X0166500Y0191500D03*
X0166500Y0201500D03*
X0166500Y0211500D03*
X0166500Y0221500D03*
X0186500Y0221500D03*
X0186500Y0211500D03*
X0186500Y0201500D03*
X0186500Y0191500D03*
X0201500Y0196500D03*
X0201500Y0206500D03*
X0106500Y0216500D03*
X0096500Y0216500D03*
X0231500Y0086500D03*
X0231500Y0076500D03*
X0221500Y0051500D03*
X0241500Y0051500D03*
X0231500Y0021500D03*
X0211500Y0021500D03*
D11*
X0246500Y0061700D02*
X0246500Y0066500D01*
X0256500Y0066500D02*
X0256500Y0061700D01*
X0266500Y0061700D02*
X0266500Y0066500D01*
X0276500Y0066500D02*
X0276500Y0061700D01*
X0276500Y0096500D02*
X0276500Y0101300D01*
X0266500Y0101300D02*
X0266500Y0096500D01*
X0256500Y0096500D02*
X0256500Y0101300D01*
X0246500Y0101300D02*
X0246500Y0096500D01*
X0211500Y0094100D02*
X0211500Y0098900D01*
X0201500Y0098900D02*
X0201500Y0094100D01*
X0191500Y0094100D02*
X0191500Y0098900D01*
X0181500Y0098900D02*
X0181500Y0094100D01*
X0171500Y0094100D02*
X0171500Y0098900D01*
X0161500Y0098900D02*
X0161500Y0094100D01*
X0151500Y0094100D02*
X0151500Y0098900D01*
X0141500Y0098900D02*
X0141500Y0094100D01*
X0131500Y0094100D02*
X0131500Y0098900D01*
X0121500Y0098900D02*
X0121500Y0094100D01*
X0111500Y0094100D02*
X0111500Y0098900D01*
X0101500Y0098900D02*
X0101500Y0094100D01*
X0091500Y0094100D02*
X0091500Y0098900D01*
X0081500Y0098900D02*
X0081500Y0094100D01*
X0081500Y0068900D02*
X0081500Y0064100D01*
X0091500Y0064100D02*
X0091500Y0068900D01*
X0101500Y0068900D02*
X0101500Y0064100D01*
X0111500Y0064100D02*
X0111500Y0068900D01*
X0121500Y0068900D02*
X0121500Y0064100D01*
X0131500Y0064100D02*
X0131500Y0068900D01*
X0141500Y0068900D02*
X0141500Y0064100D01*
X0151500Y0064100D02*
X0151500Y0068900D01*
X0161500Y0068900D02*
X0161500Y0064100D01*
X0171500Y0064100D02*
X0171500Y0068900D01*
X0181500Y0068900D02*
X0181500Y0064100D01*
X0191500Y0064100D02*
X0191500Y0068900D01*
X0201500Y0068900D02*
X0201500Y0064100D01*
X0211500Y0064100D02*
X0211500Y0068900D01*
X0211500Y0184100D02*
X0211500Y0188900D01*
X0221500Y0188900D02*
X0221500Y0184100D01*
X0231500Y0184100D02*
X0231500Y0188900D01*
X0241500Y0188900D02*
X0241500Y0184100D01*
X0251500Y0184100D02*
X0251500Y0188900D01*
X0261500Y0188900D02*
X0261500Y0184100D01*
X0271500Y0184100D02*
X0271500Y0188900D01*
X0271500Y0214100D02*
X0271500Y0218900D01*
X0261500Y0218900D02*
X0261500Y0214100D01*
X0251500Y0214100D02*
X0251500Y0218900D01*
X0241500Y0218900D02*
X0241500Y0214100D01*
X0231500Y0214100D02*
X0231500Y0218900D01*
X0221500Y0218900D02*
X0221500Y0214100D01*
X0211500Y0214100D02*
X0211500Y0218900D01*
D12*
X0206539Y0173232D03*
X0216539Y0173232D03*
X0226539Y0173232D03*
X0236539Y0173232D03*
X0246539Y0173232D03*
X0256539Y0173232D03*
X0266539Y0173232D03*
X0266539Y0113232D03*
X0256539Y0113232D03*
X0246539Y0113232D03*
X0236539Y0113232D03*
X0226539Y0113232D03*
X0216539Y0113232D03*
X0206539Y0113232D03*
X0196539Y0113232D03*
X0186539Y0113232D03*
X0176539Y0113232D03*
X0166539Y0113232D03*
X0156539Y0113232D03*
X0146539Y0113232D03*
X0136539Y0113232D03*
X0126539Y0113232D03*
X0116539Y0113232D03*
X0106539Y0113232D03*
X0106539Y0173232D03*
X0116539Y0173232D03*
X0126539Y0173232D03*
X0136539Y0173232D03*
X0146539Y0173232D03*
X0156539Y0173232D03*
X0166539Y0173232D03*
X0176539Y0173232D03*
X0186539Y0173232D03*
X0196539Y0173232D03*
D13*
X0211500Y0041500D03*
X0241500Y0041500D03*
D14*
X0261343Y0044807D03*
X0261343Y0036933D03*
X0261343Y0233783D03*
X0261343Y0241657D03*
X0261343Y0249531D03*
X0218035Y0233783D03*
X0210161Y0233783D03*
X0190476Y0233783D03*
X0182602Y0233783D03*
X0174728Y0233783D03*
X0166854Y0233783D03*
X0147169Y0233783D03*
X0139295Y0233783D03*
X0131421Y0233783D03*
X0123547Y0233783D03*
X0103862Y0233783D03*
X0095988Y0233783D03*
D15*
X0056618Y0128232D03*
D16*
X0056618Y0138232D03*
X0056618Y0148232D03*
X0056618Y0158232D03*
X0044807Y0153232D03*
X0044807Y0143232D03*
X0044807Y0133232D03*
X0032996Y0128232D03*
X0032996Y0138232D03*
X0032996Y0148232D03*
X0032996Y0158232D03*
X0021185Y0153232D03*
X0021185Y0143232D03*
X0021185Y0133232D03*
D17*
X0021185Y0111854D03*
X0044807Y0111854D03*
X0044807Y0174610D03*
X0021185Y0174610D03*
D18*
X0108232Y0049807D03*
X0108232Y0039807D03*
X0118232Y0039807D03*
X0128232Y0039807D03*
X0128232Y0049807D03*
X0118232Y0049807D03*
X0138232Y0049807D03*
X0148232Y0049807D03*
X0148232Y0039807D03*
X0138232Y0039807D03*
X0158232Y0039807D03*
X0168232Y0039807D03*
X0168232Y0049807D03*
X0158232Y0049807D03*
X0178232Y0049807D03*
X0178232Y0039807D03*
D19*
X0003968Y0003968D02*
X0003968Y0282496D01*
X0282496Y0282496D01*
X0282496Y0189332D01*
X0281328Y0190500D01*
X0272328Y0199500D01*
X0233328Y0199500D01*
X0222505Y0210323D01*
X0222638Y0210350D01*
X0223347Y0210644D01*
X0223986Y0211071D01*
X0224529Y0211614D01*
X0224956Y0212253D01*
X0225250Y0212962D01*
X0225400Y0213716D01*
X0225400Y0216200D01*
X0221800Y0216200D01*
X0221800Y0216800D01*
X0221200Y0216800D01*
X0221200Y0222800D01*
X0221116Y0222800D01*
X0220362Y0222650D01*
X0219653Y0222356D01*
X0219014Y0221929D01*
X0218500Y0221415D01*
X0218500Y0223708D01*
X0218773Y0223981D01*
X0219181Y0224967D01*
X0219181Y0226033D01*
X0218773Y0227019D01*
X0218019Y0227773D01*
X0217033Y0228181D01*
X0215967Y0228181D01*
X0214981Y0227773D01*
X0214227Y0227019D01*
X0213819Y0226033D01*
X0213819Y0224967D01*
X0214227Y0223981D01*
X0214500Y0223708D01*
X0214500Y0221415D01*
X0213709Y0222206D01*
X0212500Y0222707D01*
X0212500Y0229719D01*
X0212795Y0229842D01*
X0214103Y0231150D01*
X0214139Y0231236D01*
X0214489Y0230754D01*
X0215006Y0230237D01*
X0215598Y0229807D01*
X0216251Y0229475D01*
X0216947Y0229248D01*
X0217669Y0229134D01*
X0217846Y0229134D01*
X0217846Y0233594D01*
X0218224Y0233594D01*
X0218224Y0229134D01*
X0218401Y0229134D01*
X0219124Y0229248D01*
X0219820Y0229475D01*
X0220472Y0229807D01*
X0221064Y0230237D01*
X0221582Y0230754D01*
X0222012Y0231347D01*
X0222344Y0231999D01*
X0222571Y0232695D01*
X0222685Y0233418D01*
X0222685Y0233594D01*
X0218224Y0233594D01*
X0218224Y0233972D01*
X0218224Y0233973D02*
X0217846Y0233973D01*
X0217846Y0238433D01*
X0217669Y0238433D01*
X0216947Y0238319D01*
X0216251Y0238092D01*
X0215598Y0237760D01*
X0215006Y0237330D01*
X0214489Y0236812D01*
X0214139Y0236331D01*
X0214103Y0236417D01*
X0212795Y0237725D01*
X0211086Y0238433D01*
X0209237Y0238433D01*
X0207528Y0237725D01*
X0206220Y0236417D01*
X0205512Y0234708D01*
X0205512Y0232859D01*
X0206220Y0231150D01*
X0207528Y0229842D01*
X0208500Y0229439D01*
X0208500Y0221415D01*
X0208194Y0221109D01*
X0207600Y0219676D01*
X0207600Y0215228D01*
X0199328Y0223500D01*
X0190015Y0223500D01*
X0188115Y0225400D01*
X0184885Y0225400D01*
X0182600Y0223115D01*
X0182600Y0219885D01*
X0184885Y0217600D01*
X0188115Y0217600D01*
X0190015Y0219500D01*
X0197672Y0219500D01*
X0221672Y0195500D01*
X0209672Y0195500D01*
X0208500Y0194328D01*
X0207672Y0193500D01*
X0204015Y0193500D01*
X0205400Y0194885D01*
X0205400Y0198115D01*
X0203115Y0200400D01*
X0199885Y0200400D01*
X0197985Y0198500D01*
X0189015Y0198500D01*
X0190400Y0199885D01*
X0190400Y0203115D01*
X0188115Y0205400D01*
X0184885Y0205400D01*
X0182600Y0203115D01*
X0182600Y0199885D01*
X0183985Y0198500D01*
X0169015Y0198500D01*
X0170400Y0199885D01*
X0170400Y0203115D01*
X0168500Y0205015D01*
X0168500Y0206328D01*
X0167228Y0207600D01*
X0168115Y0207600D01*
X0170400Y0209885D01*
X0170400Y0213115D01*
X0168115Y0215400D01*
X0164885Y0215400D01*
X0164500Y0215015D01*
X0164500Y0217985D01*
X0164885Y0217600D01*
X0168115Y0217600D01*
X0170015Y0219500D01*
X0178328Y0219500D01*
X0179500Y0220672D01*
X0188428Y0229599D01*
X0189552Y0229134D01*
X0191401Y0229134D01*
X0193110Y0229842D01*
X0194418Y0231150D01*
X0195126Y0232859D01*
X0195126Y0234708D01*
X0194418Y0236417D01*
X0193110Y0237725D01*
X0191401Y0238433D01*
X0189552Y0238433D01*
X0187843Y0237725D01*
X0186539Y0236422D01*
X0185236Y0237725D01*
X0183527Y0238433D01*
X0181677Y0238433D01*
X0179969Y0237725D01*
X0178665Y0236422D01*
X0177362Y0237725D01*
X0175653Y0238433D01*
X0173803Y0238433D01*
X0172095Y0237725D01*
X0170791Y0236422D01*
X0169488Y0237725D01*
X0167779Y0238433D01*
X0165929Y0238433D01*
X0164221Y0237725D01*
X0162913Y0236417D01*
X0162205Y0234708D01*
X0162205Y0232859D01*
X0162913Y0231150D01*
X0164221Y0229842D01*
X0165488Y0229317D01*
X0160500Y0224328D01*
X0160500Y0208672D01*
X0161672Y0207500D01*
X0164328Y0204843D01*
X0162600Y0203115D01*
X0162600Y0202228D01*
X0152500Y0212328D01*
X0152500Y0214328D01*
X0148672Y0218156D01*
X0150400Y0219885D01*
X0150400Y0223115D01*
X0148115Y0225400D01*
X0144885Y0225400D01*
X0142600Y0223115D01*
X0142600Y0220428D01*
X0142500Y0220328D01*
X0127572Y0205400D01*
X0124885Y0205400D01*
X0122600Y0203115D01*
X0122600Y0200428D01*
X0099672Y0177500D01*
X0098500Y0176328D01*
X0098500Y0169672D01*
X0124672Y0143500D01*
X0088500Y0107328D01*
X0085400Y0110428D01*
X0085400Y0113115D01*
X0083115Y0115400D01*
X0079885Y0115400D01*
X0079500Y0115015D01*
X0079500Y0117985D01*
X0079885Y0117600D01*
X0081200Y0117600D01*
X0081200Y0121200D01*
X0081800Y0121200D01*
X0081800Y0121800D01*
X0081200Y0121800D01*
X0081200Y0125400D01*
X0079885Y0125400D01*
X0079500Y0125015D01*
X0079500Y0135708D01*
X0079773Y0135981D01*
X0080181Y0136967D01*
X0080181Y0138033D01*
X0079773Y0139019D01*
X0079019Y0139773D01*
X0078033Y0140181D01*
X0076967Y0140181D01*
X0075981Y0139773D01*
X0075500Y0139292D01*
X0075500Y0212500D01*
X0097296Y0212500D01*
X0097537Y0212600D01*
X0098115Y0212600D01*
X0098524Y0213009D01*
X0098766Y0213109D01*
X0099891Y0214234D01*
X0099991Y0214476D01*
X0100400Y0214885D01*
X0100400Y0215463D01*
X0100500Y0215704D01*
X0100500Y0230570D01*
X0100833Y0230237D01*
X0101425Y0229807D01*
X0102077Y0229475D01*
X0102773Y0229248D01*
X0103496Y0229134D01*
X0103673Y0229134D01*
X0103673Y0233594D01*
X0104051Y0233594D01*
X0104051Y0229134D01*
X0104228Y0229134D01*
X0104951Y0229248D01*
X0105647Y0229475D01*
X0106299Y0229807D01*
X0106891Y0230237D01*
X0107409Y0230754D01*
X0107839Y0231347D01*
X0108171Y0231999D01*
X0108397Y0232695D01*
X0108512Y0233418D01*
X0108512Y0233594D01*
X0104051Y0233594D01*
X0104051Y0233972D01*
X0108512Y0233972D01*
X0108512Y0234149D01*
X0108397Y0234872D01*
X0108171Y0235568D01*
X0107839Y0236220D01*
X0107409Y0236812D01*
X0106891Y0237330D01*
X0106299Y0237760D01*
X0105647Y0238092D01*
X0104951Y0238319D01*
X0104228Y0238433D01*
X0104051Y0238433D01*
X0104051Y0233973D01*
X0103673Y0233973D01*
X0103673Y0238433D01*
X0103496Y0238433D01*
X0102773Y0238319D01*
X0102077Y0238092D01*
X0101425Y0237760D01*
X0100833Y0237330D01*
X0100316Y0236812D01*
X0099966Y0236331D01*
X0099930Y0236417D01*
X0098622Y0237725D01*
X0096913Y0238433D01*
X0095063Y0238433D01*
X0093354Y0237725D01*
X0092046Y0236417D01*
X0091339Y0234708D01*
X0091339Y0232859D01*
X0092046Y0231150D01*
X0092500Y0230696D01*
X0092500Y0220500D01*
X0070704Y0220500D01*
X0069234Y0219891D01*
X0068109Y0218766D01*
X0067500Y0217296D01*
X0067500Y0132232D01*
X0056061Y0132232D01*
X0058500Y0134672D01*
X0058500Y0134831D01*
X0058806Y0134958D01*
X0059892Y0136045D01*
X0060480Y0137464D01*
X0060480Y0139001D01*
X0059892Y0140420D01*
X0058806Y0141506D01*
X0057386Y0142094D01*
X0055850Y0142094D01*
X0054430Y0141506D01*
X0053344Y0140420D01*
X0052756Y0139001D01*
X0052756Y0137464D01*
X0053344Y0136045D01*
X0053780Y0135608D01*
X0052500Y0134328D01*
X0052500Y0134328D01*
X0051328Y0135500D01*
X0047500Y0139328D01*
X0047500Y0140463D01*
X0048081Y0141045D01*
X0048669Y0142464D01*
X0048669Y0144001D01*
X0048081Y0145420D01*
X0046995Y0146506D01*
X0045575Y0147094D01*
X0044039Y0147094D01*
X0042619Y0146506D01*
X0041533Y0145420D01*
X0040945Y0144001D01*
X0040945Y0142464D01*
X0041533Y0141045D01*
X0042619Y0139958D01*
X0043500Y0139593D01*
X0043500Y0137672D01*
X0044135Y0137036D01*
X0043681Y0136946D01*
X0042978Y0136655D01*
X0042345Y0136232D01*
X0041807Y0135694D01*
X0041384Y0135062D01*
X0041093Y0134359D01*
X0040945Y0133613D01*
X0040945Y0133520D01*
X0044520Y0133520D01*
X0044520Y0132945D01*
X0045094Y0132945D01*
X0045094Y0129370D01*
X0045187Y0129370D01*
X0045934Y0129519D01*
X0046637Y0129810D01*
X0047269Y0130232D01*
X0047807Y0130770D01*
X0048230Y0131403D01*
X0048500Y0132055D01*
X0048500Y0119191D01*
X0048038Y0119654D01*
X0045307Y0119654D01*
X0045307Y0112354D01*
X0052606Y0112354D01*
X0052606Y0112565D01*
X0079500Y0085672D01*
X0079500Y0072293D01*
X0079500Y0076328D01*
X0078328Y0077500D01*
X0058328Y0097500D01*
X0050328Y0097500D01*
X0043773Y0104055D01*
X0044307Y0104055D01*
X0044307Y0111354D01*
X0045307Y0111354D01*
X0045307Y0104055D01*
X0048038Y0104055D01*
X0052606Y0108624D01*
X0052606Y0111354D01*
X0045307Y0111354D01*
X0045307Y0112354D01*
X0044307Y0112354D01*
X0044307Y0111354D01*
X0037008Y0111354D01*
X0037008Y0110821D01*
X0035500Y0112328D01*
X0035500Y0125274D01*
X0036270Y0126045D01*
X0036858Y0127464D01*
X0036858Y0129001D01*
X0036270Y0130420D01*
X0035184Y0131506D01*
X0033764Y0132094D01*
X0032228Y0132094D01*
X0030808Y0131506D01*
X0030500Y0131198D01*
X0030500Y0135266D01*
X0030808Y0134958D01*
X0032228Y0134370D01*
X0033764Y0134370D01*
X0035184Y0134958D01*
X0036270Y0136045D01*
X0036858Y0137464D01*
X0036858Y0139001D01*
X0036270Y0140420D01*
X0035184Y0141506D01*
X0033764Y0142094D01*
X0032228Y0142094D01*
X0030808Y0141506D01*
X0030500Y0141198D01*
X0030500Y0145266D01*
X0030808Y0144958D01*
X0032228Y0144370D01*
X0033764Y0144370D01*
X0035184Y0144958D01*
X0036270Y0146045D01*
X0036858Y0147464D01*
X0036858Y0149001D01*
X0036270Y0150420D01*
X0035184Y0151506D01*
X0033876Y0152048D01*
X0034500Y0152672D01*
X0034500Y0154675D01*
X0035184Y0154958D01*
X0036270Y0156045D01*
X0036858Y0157464D01*
X0036858Y0159001D01*
X0036270Y0160420D01*
X0035184Y0161506D01*
X0033764Y0162094D01*
X0032228Y0162094D01*
X0030808Y0161506D01*
X0029722Y0160420D01*
X0029134Y0159001D01*
X0029134Y0157464D01*
X0029722Y0156045D01*
X0030500Y0155266D01*
X0030500Y0154328D01*
X0027672Y0151500D01*
X0027672Y0151500D01*
X0026500Y0150328D01*
X0026500Y0117569D01*
X0024416Y0119654D01*
X0021685Y0119654D01*
X0021685Y0112354D01*
X0028984Y0112354D01*
X0028984Y0113187D01*
X0029500Y0112672D01*
X0029500Y0098672D01*
X0034046Y0094126D01*
X0031409Y0094126D01*
X0028476Y0092911D01*
X0026231Y0090666D01*
X0025016Y0087733D01*
X0025016Y0084558D01*
X0026231Y0081625D01*
X0028476Y0079380D01*
X0031409Y0078165D01*
X0034583Y0078165D01*
X0037517Y0079380D01*
X0039761Y0081625D01*
X0040976Y0084558D01*
X0040976Y0087195D01*
X0042500Y0085672D01*
X0042500Y0082672D01*
X0088819Y0036353D01*
X0088819Y0035967D01*
X0089227Y0034981D01*
X0089981Y0034227D01*
X0090967Y0033819D01*
X0091353Y0033819D01*
X0104672Y0020500D01*
X0144328Y0020500D01*
X0145500Y0021672D01*
X0153105Y0029276D01*
X0153227Y0028981D01*
X0153981Y0028227D01*
X0154967Y0027819D01*
X0156033Y0027819D01*
X0157019Y0028227D01*
X0157292Y0028500D01*
X0158012Y0028500D01*
X0157819Y0028033D01*
X0157819Y0026967D01*
X0158227Y0025981D01*
X0158981Y0025227D01*
X0159967Y0024819D01*
X0161033Y0024819D01*
X0162019Y0025227D01*
X0162292Y0025500D01*
X0179328Y0025500D01*
X0180500Y0026672D01*
X0205500Y0051672D01*
X0205500Y0046328D01*
X0204672Y0045500D01*
X0203500Y0044328D01*
X0203500Y0038672D01*
X0221500Y0020672D01*
X0222672Y0019500D01*
X0227985Y0019500D01*
X0229885Y0017600D01*
X0233115Y0017600D01*
X0235400Y0019885D01*
X0235400Y0023115D01*
X0233115Y0025400D01*
X0229885Y0025400D01*
X0227985Y0023500D01*
X0224328Y0023500D01*
X0211528Y0036300D01*
X0212534Y0036300D01*
X0214446Y0037092D01*
X0215908Y0038554D01*
X0216300Y0039500D01*
X0232672Y0039500D01*
X0237500Y0034672D01*
X0238672Y0033500D01*
X0258200Y0033500D01*
X0258709Y0032991D01*
X0260418Y0032283D01*
X0262267Y0032283D01*
X0263976Y0032991D01*
X0265284Y0034299D01*
X0265992Y0036008D01*
X0265992Y0037858D01*
X0265610Y0038781D01*
X0268500Y0041672D01*
X0268500Y0058307D01*
X0268709Y0058394D01*
X0269806Y0059491D01*
X0270400Y0060924D01*
X0270400Y0067276D01*
X0269806Y0068709D01*
X0268709Y0069806D01*
X0267276Y0070400D01*
X0265724Y0070400D01*
X0264291Y0069806D01*
X0263194Y0068709D01*
X0262600Y0067276D01*
X0262600Y0060924D01*
X0263194Y0059491D01*
X0264291Y0058394D01*
X0264500Y0058307D01*
X0264500Y0048225D01*
X0263976Y0048749D01*
X0262267Y0049457D01*
X0260418Y0049457D01*
X0259678Y0049150D01*
X0255328Y0053500D01*
X0245015Y0053500D01*
X0243115Y0055400D01*
X0239885Y0055400D01*
X0237600Y0053115D01*
X0237600Y0049885D01*
X0239885Y0047600D01*
X0243115Y0047600D01*
X0245015Y0049500D01*
X0253672Y0049500D01*
X0256912Y0046260D01*
X0256693Y0045732D01*
X0256693Y0043882D01*
X0257401Y0042173D01*
X0258704Y0040870D01*
X0257401Y0039567D01*
X0256693Y0037858D01*
X0256693Y0037500D01*
X0244854Y0037500D01*
X0245908Y0038554D01*
X0246700Y0040466D01*
X0246700Y0042534D01*
X0245908Y0044446D01*
X0244446Y0045908D01*
X0242534Y0046700D01*
X0240466Y0046700D01*
X0239520Y0046308D01*
X0232328Y0053500D01*
X0225015Y0053500D01*
X0223115Y0055400D01*
X0219885Y0055400D01*
X0217600Y0053115D01*
X0217600Y0049885D01*
X0219885Y0047600D01*
X0223115Y0047600D01*
X0225015Y0049500D01*
X0230672Y0049500D01*
X0236692Y0043480D01*
X0236300Y0042534D01*
X0236300Y0041528D01*
X0234328Y0043500D01*
X0216300Y0043500D01*
X0215908Y0044446D01*
X0214446Y0045908D01*
X0212534Y0046700D01*
X0210466Y0046700D01*
X0209500Y0046300D01*
X0209500Y0060707D01*
X0210724Y0060200D01*
X0212276Y0060200D01*
X0213709Y0060794D01*
X0214806Y0061891D01*
X0215400Y0063324D01*
X0215400Y0069676D01*
X0214806Y0071109D01*
X0213709Y0072206D01*
X0212276Y0072800D01*
X0210724Y0072800D01*
X0209500Y0072293D01*
X0209500Y0072328D01*
X0208328Y0073500D01*
X0204328Y0077500D01*
X0195328Y0077500D01*
X0182525Y0090303D01*
X0183709Y0090794D01*
X0184806Y0091891D01*
X0185400Y0093324D01*
X0185400Y0097572D01*
X0187668Y0099839D01*
X0187600Y0099676D01*
X0187600Y0093324D01*
X0188194Y0091891D01*
X0189291Y0090794D01*
X0190724Y0090200D01*
X0192276Y0090200D01*
X0193709Y0090794D01*
X0194806Y0091891D01*
X0195400Y0093324D01*
X0195400Y0099676D01*
X0194806Y0101109D01*
X0193709Y0102206D01*
X0192276Y0102800D01*
X0190724Y0102800D01*
X0190561Y0102732D01*
X0195761Y0107932D01*
X0197594Y0107932D01*
X0199542Y0108739D01*
X0201032Y0110230D01*
X0201539Y0111454D01*
X0202046Y0110230D01*
X0203537Y0108739D01*
X0205485Y0107932D01*
X0207594Y0107932D01*
X0209542Y0108739D01*
X0211032Y0110230D01*
X0211539Y0111454D01*
X0212046Y0110230D01*
X0213537Y0108739D01*
X0215485Y0107932D01*
X0217594Y0107932D01*
X0219542Y0108739D01*
X0221032Y0110230D01*
X0221539Y0111454D01*
X0222046Y0110230D01*
X0223537Y0108739D01*
X0225485Y0107932D01*
X0227594Y0107932D01*
X0229542Y0108739D01*
X0231032Y0110230D01*
X0231539Y0111454D01*
X0232046Y0110230D01*
X0233537Y0108739D01*
X0235485Y0107932D01*
X0237594Y0107932D01*
X0238757Y0108414D01*
X0241672Y0105500D01*
X0269328Y0105500D01*
X0270500Y0106672D01*
X0282496Y0118668D01*
X0282496Y0003968D01*
X0003968Y0003968D01*
X0003968Y0004496D02*
X0282496Y0004496D01*
X0282496Y0005494D02*
X0277193Y0005494D01*
X0278120Y0005878D02*
X0280586Y0008345D01*
X0281921Y0011567D01*
X0281921Y0015055D01*
X0280586Y0018278D01*
X0278120Y0020744D01*
X0274898Y0022079D01*
X0271410Y0022079D01*
X0268187Y0020744D01*
X0265721Y0018278D01*
X0264386Y0015055D01*
X0264386Y0011567D01*
X0265721Y0008345D01*
X0268187Y0005878D01*
X0271410Y0004543D01*
X0274898Y0004543D01*
X0278120Y0005878D01*
X0278734Y0006493D02*
X0282496Y0006493D01*
X0282496Y0007491D02*
X0279733Y0007491D01*
X0280647Y0008490D02*
X0282496Y0008490D01*
X0282496Y0009488D02*
X0281060Y0009488D01*
X0281474Y0010487D02*
X0282496Y0010487D01*
X0282496Y0011485D02*
X0281887Y0011485D01*
X0281921Y0012484D02*
X0282496Y0012484D01*
X0282496Y0013482D02*
X0281921Y0013482D01*
X0281921Y0014481D02*
X0282496Y0014481D01*
X0282496Y0015479D02*
X0281746Y0015479D01*
X0281332Y0016478D02*
X0282496Y0016478D01*
X0282496Y0017476D02*
X0280918Y0017476D01*
X0280389Y0018475D02*
X0282496Y0018475D01*
X0282496Y0019473D02*
X0279391Y0019473D01*
X0278392Y0020472D02*
X0282496Y0020472D01*
X0282496Y0021470D02*
X0276367Y0021470D01*
X0282496Y0022469D02*
X0235400Y0022469D01*
X0235400Y0021470D02*
X0269940Y0021470D01*
X0267915Y0020472D02*
X0235400Y0020472D01*
X0234989Y0019473D02*
X0266916Y0019473D01*
X0265918Y0018475D02*
X0233990Y0018475D01*
X0231500Y0021500D02*
X0223500Y0021500D01*
X0205500Y0039500D01*
X0205500Y0043500D01*
X0207500Y0045500D01*
X0207500Y0071500D01*
X0203500Y0075500D01*
X0194500Y0075500D01*
X0177500Y0092500D01*
X0177500Y0098500D01*
X0172500Y0103500D01*
X0170500Y0103500D01*
X0163500Y0096500D01*
X0161500Y0096500D01*
X0157600Y0096359D02*
X0156470Y0096359D01*
X0155471Y0097357D02*
X0157600Y0097357D01*
X0157600Y0098356D02*
X0155400Y0098356D01*
X0155400Y0097428D02*
X0155400Y0099676D01*
X0154806Y0101109D01*
X0153709Y0102206D01*
X0152276Y0102800D01*
X0150724Y0102800D01*
X0149291Y0102206D01*
X0148194Y0101109D01*
X0147600Y0099676D01*
X0147600Y0097428D01*
X0145400Y0095228D01*
X0145400Y0096200D01*
X0141800Y0096200D01*
X0141800Y0096800D01*
X0145400Y0096800D01*
X0145400Y0099284D01*
X0145250Y0100038D01*
X0144956Y0100747D01*
X0144529Y0101386D01*
X0143986Y0101929D01*
X0143347Y0102356D01*
X0142638Y0102650D01*
X0142505Y0102677D01*
X0145328Y0105500D01*
X0182328Y0105500D01*
X0184973Y0108144D01*
X0185485Y0107932D01*
X0187594Y0107932D01*
X0189542Y0108739D01*
X0191032Y0110230D01*
X0191539Y0111454D01*
X0192046Y0110230D01*
X0192224Y0110052D01*
X0184044Y0101872D01*
X0183709Y0102206D01*
X0182276Y0102800D01*
X0180724Y0102800D01*
X0179291Y0102206D01*
X0178194Y0101109D01*
X0178055Y0100774D01*
X0173328Y0105500D01*
X0169672Y0105500D01*
X0168500Y0104328D01*
X0164945Y0100774D01*
X0164806Y0101109D01*
X0163709Y0102206D01*
X0162276Y0102800D01*
X0160724Y0102800D01*
X0159291Y0102206D01*
X0158194Y0101109D01*
X0157600Y0099676D01*
X0157600Y0095228D01*
X0155400Y0097428D01*
X0155400Y0099354D02*
X0157600Y0099354D01*
X0157880Y0100353D02*
X0155120Y0100353D01*
X0154564Y0101351D02*
X0158436Y0101351D01*
X0159637Y0102350D02*
X0153363Y0102350D01*
X0149637Y0102350D02*
X0143357Y0102350D01*
X0143177Y0103348D02*
X0167520Y0103348D01*
X0168518Y0104347D02*
X0144175Y0104347D01*
X0145174Y0105345D02*
X0169517Y0105345D01*
X0173483Y0105345D02*
X0187517Y0105345D01*
X0188515Y0106344D02*
X0183172Y0106344D01*
X0184171Y0107342D02*
X0189514Y0107342D01*
X0188580Y0108341D02*
X0190512Y0108341D01*
X0190142Y0109339D02*
X0191511Y0109339D01*
X0191077Y0110338D02*
X0192002Y0110338D01*
X0191588Y0111336D02*
X0191491Y0111336D01*
X0186500Y0112500D02*
X0186539Y0113232D01*
X0186500Y0112500D02*
X0181500Y0107500D01*
X0144500Y0107500D01*
X0133500Y0096500D01*
X0131500Y0096500D01*
X0127600Y0096359D02*
X0125400Y0096359D01*
X0125400Y0097357D02*
X0127600Y0097357D01*
X0127600Y0098356D02*
X0125400Y0098356D01*
X0125400Y0099354D02*
X0127600Y0099354D01*
X0127600Y0099676D02*
X0127600Y0093324D01*
X0128194Y0091891D01*
X0129291Y0090794D01*
X0130724Y0090200D01*
X0132276Y0090200D01*
X0133709Y0090794D01*
X0134806Y0091891D01*
X0135400Y0093324D01*
X0135400Y0095572D01*
X0137600Y0097772D01*
X0137600Y0096800D01*
X0141200Y0096800D01*
X0141200Y0096200D01*
X0137600Y0096200D01*
X0137600Y0093716D01*
X0137750Y0092962D01*
X0138044Y0092253D01*
X0138471Y0091614D01*
X0139014Y0091071D01*
X0139653Y0090644D01*
X0140362Y0090350D01*
X0140495Y0090323D01*
X0135672Y0085500D01*
X0120988Y0085500D01*
X0121181Y0085967D01*
X0121181Y0087033D01*
X0120773Y0088019D01*
X0120019Y0088773D01*
X0119033Y0089181D01*
X0117967Y0089181D01*
X0116981Y0088773D01*
X0116708Y0088500D01*
X0102328Y0088500D01*
X0100561Y0090268D01*
X0100724Y0090200D01*
X0102276Y0090200D01*
X0103709Y0090794D01*
X0104806Y0091891D01*
X0105400Y0093324D01*
X0105400Y0099676D01*
X0104806Y0101109D01*
X0103709Y0102206D01*
X0103500Y0102293D01*
X0103500Y0106672D01*
X0104973Y0108144D01*
X0105485Y0107932D01*
X0107594Y0107932D01*
X0109542Y0108739D01*
X0111032Y0110230D01*
X0111539Y0111454D01*
X0112046Y0110230D01*
X0113537Y0108739D01*
X0115485Y0107932D01*
X0117594Y0107932D01*
X0119542Y0108739D01*
X0121032Y0110230D01*
X0121539Y0111454D01*
X0122046Y0110230D01*
X0123537Y0108739D01*
X0125485Y0107932D01*
X0127594Y0107932D01*
X0129542Y0108739D01*
X0131032Y0110230D01*
X0131539Y0111454D01*
X0132046Y0110230D01*
X0133537Y0108739D01*
X0135485Y0107932D01*
X0137594Y0107932D01*
X0139542Y0108739D01*
X0141032Y0110230D01*
X0141539Y0111454D01*
X0142046Y0110230D01*
X0143224Y0109052D01*
X0142500Y0108328D01*
X0134945Y0100774D01*
X0134806Y0101109D01*
X0133709Y0102206D01*
X0132276Y0102800D01*
X0130724Y0102800D01*
X0129291Y0102206D01*
X0128194Y0101109D01*
X0127600Y0099676D01*
X0127880Y0100353D02*
X0125120Y0100353D01*
X0125400Y0099676D02*
X0124806Y0101109D01*
X0123709Y0102206D01*
X0122276Y0102800D01*
X0120724Y0102800D01*
X0119291Y0102206D01*
X0118194Y0101109D01*
X0117600Y0099676D01*
X0117600Y0093324D01*
X0118194Y0091891D01*
X0119291Y0090794D01*
X0120724Y0090200D01*
X0122276Y0090200D01*
X0123709Y0090794D01*
X0124806Y0091891D01*
X0125400Y0093324D01*
X0125400Y0099676D01*
X0124564Y0101351D02*
X0128436Y0101351D01*
X0129637Y0102350D02*
X0123363Y0102350D01*
X0119637Y0102350D02*
X0113363Y0102350D01*
X0113709Y0102206D02*
X0112276Y0102800D01*
X0110724Y0102800D01*
X0109291Y0102206D01*
X0108194Y0101109D01*
X0107600Y0099676D01*
X0107600Y0093324D01*
X0108194Y0091891D01*
X0109291Y0090794D01*
X0110724Y0090200D01*
X0112276Y0090200D01*
X0113709Y0090794D01*
X0114806Y0091891D01*
X0115400Y0093324D01*
X0115400Y0099676D01*
X0114806Y0101109D01*
X0113709Y0102206D01*
X0114564Y0101351D02*
X0118436Y0101351D01*
X0117880Y0100353D02*
X0115120Y0100353D01*
X0115400Y0099354D02*
X0117600Y0099354D01*
X0117600Y0098356D02*
X0115400Y0098356D01*
X0115400Y0097357D02*
X0117600Y0097357D01*
X0117600Y0096359D02*
X0115400Y0096359D01*
X0115400Y0095360D02*
X0117600Y0095360D01*
X0117600Y0094362D02*
X0115400Y0094362D01*
X0115400Y0093363D02*
X0117600Y0093363D01*
X0117998Y0092365D02*
X0115002Y0092365D01*
X0114281Y0091366D02*
X0118719Y0091366D01*
X0120320Y0090368D02*
X0112680Y0090368D01*
X0110320Y0090368D02*
X0102680Y0090368D01*
X0101459Y0089369D02*
X0139541Y0089369D01*
X0140320Y0090368D02*
X0132680Y0090368D01*
X0134281Y0091366D02*
X0138719Y0091366D01*
X0137998Y0092365D02*
X0135002Y0092365D01*
X0135400Y0093363D02*
X0137670Y0093363D01*
X0137600Y0094362D02*
X0135400Y0094362D01*
X0135400Y0095360D02*
X0137600Y0095360D01*
X0136187Y0096359D02*
X0141200Y0096359D01*
X0141800Y0096359D02*
X0146530Y0096359D01*
X0147529Y0097357D02*
X0145400Y0097357D01*
X0145400Y0098356D02*
X0147600Y0098356D01*
X0147600Y0099354D02*
X0145386Y0099354D01*
X0145120Y0100353D02*
X0147880Y0100353D01*
X0148436Y0101351D02*
X0144553Y0101351D01*
X0145400Y0095360D02*
X0145532Y0095360D01*
X0149500Y0096500D02*
X0136500Y0083500D01*
X0100500Y0083500D01*
X0091500Y0092500D01*
X0091500Y0096500D01*
X0091500Y0101500D01*
X0088500Y0104500D01*
X0127500Y0143500D01*
X0100500Y0170500D01*
X0100500Y0175500D01*
X0126500Y0201500D01*
X0144500Y0219500D01*
X0150500Y0213500D01*
X0150500Y0211500D01*
X0165500Y0196500D01*
X0201500Y0196500D01*
X0204310Y0199205D02*
X0217966Y0199205D01*
X0216968Y0200204D02*
X0203312Y0200204D01*
X0203115Y0202600D02*
X0205400Y0204885D01*
X0205400Y0206200D01*
X0201800Y0206200D01*
X0201800Y0206800D01*
X0201200Y0206800D01*
X0201200Y0210400D01*
X0199885Y0210400D01*
X0197600Y0208115D01*
X0197600Y0206800D01*
X0201200Y0206800D01*
X0201200Y0206200D01*
X0197600Y0206200D01*
X0197600Y0204885D01*
X0199885Y0202600D01*
X0201200Y0202600D01*
X0201200Y0206200D01*
X0201800Y0206200D01*
X0201800Y0202600D01*
X0203115Y0202600D01*
X0203715Y0203199D02*
X0213972Y0203199D01*
X0212974Y0204198D02*
X0204713Y0204198D01*
X0205400Y0205196D02*
X0211975Y0205196D01*
X0210977Y0206195D02*
X0205400Y0206195D01*
X0205400Y0206800D02*
X0201800Y0206800D01*
X0201800Y0210400D01*
X0203115Y0210400D01*
X0205400Y0208115D01*
X0205400Y0206800D01*
X0205400Y0207193D02*
X0209978Y0207193D01*
X0208980Y0208192D02*
X0205324Y0208192D01*
X0204325Y0209190D02*
X0207981Y0209190D01*
X0206983Y0210189D02*
X0203327Y0210189D01*
X0201800Y0210189D02*
X0201200Y0210189D01*
X0201200Y0209190D02*
X0201800Y0209190D01*
X0201800Y0208192D02*
X0201200Y0208192D01*
X0201200Y0207193D02*
X0201800Y0207193D01*
X0201800Y0206195D02*
X0201200Y0206195D01*
X0201200Y0205196D02*
X0201800Y0205196D01*
X0201800Y0204198D02*
X0201200Y0204198D01*
X0201200Y0203199D02*
X0201800Y0203199D01*
X0199285Y0203199D02*
X0190316Y0203199D01*
X0190400Y0202201D02*
X0214971Y0202201D01*
X0215969Y0201202D02*
X0190400Y0201202D01*
X0190400Y0200204D02*
X0199688Y0200204D01*
X0198690Y0199205D02*
X0189721Y0199205D01*
X0189318Y0204198D02*
X0198287Y0204198D01*
X0197600Y0205196D02*
X0188319Y0205196D01*
X0188115Y0207600D02*
X0184885Y0207600D01*
X0182600Y0209885D01*
X0182600Y0213115D01*
X0184885Y0215400D01*
X0188115Y0215400D01*
X0190400Y0213115D01*
X0190400Y0209885D01*
X0188115Y0207600D01*
X0188707Y0208192D02*
X0197676Y0208192D01*
X0197600Y0207193D02*
X0167635Y0207193D01*
X0168500Y0206195D02*
X0197600Y0206195D01*
X0198675Y0209190D02*
X0189706Y0209190D01*
X0190400Y0210189D02*
X0199673Y0210189D01*
X0202989Y0214183D02*
X0189332Y0214183D01*
X0188334Y0215181D02*
X0201990Y0215181D01*
X0200992Y0216180D02*
X0164500Y0216180D01*
X0164500Y0217178D02*
X0199993Y0217178D01*
X0198995Y0218177D02*
X0188692Y0218177D01*
X0189691Y0219175D02*
X0197996Y0219175D01*
X0198500Y0221500D02*
X0224500Y0195500D01*
X0270500Y0195500D01*
X0278500Y0187500D01*
X0278500Y0134500D01*
X0257500Y0113500D01*
X0256539Y0113232D01*
X0250496Y0119324D02*
X0223153Y0119324D01*
X0222500Y0118672D02*
X0274500Y0170672D01*
X0274500Y0176328D01*
X0273328Y0177500D01*
X0270507Y0180321D01*
X0271116Y0180200D01*
X0271200Y0180200D01*
X0271200Y0186200D01*
X0267600Y0186200D01*
X0267600Y0183716D01*
X0267750Y0182962D01*
X0268044Y0182253D01*
X0268471Y0181614D01*
X0268585Y0181500D01*
X0264415Y0181500D01*
X0264806Y0181891D01*
X0265400Y0183324D01*
X0265400Y0189676D01*
X0264806Y0191109D01*
X0263709Y0192206D01*
X0262276Y0192800D01*
X0260724Y0192800D01*
X0259291Y0192206D01*
X0258194Y0191109D01*
X0257600Y0189676D01*
X0257600Y0183324D01*
X0258194Y0181891D01*
X0258585Y0181500D01*
X0254415Y0181500D01*
X0254529Y0181614D01*
X0254956Y0182253D01*
X0255250Y0182962D01*
X0255400Y0183716D01*
X0255400Y0186200D01*
X0251800Y0186200D01*
X0251800Y0186800D01*
X0251200Y0186800D01*
X0251200Y0192800D01*
X0251116Y0192800D01*
X0250362Y0192650D01*
X0249653Y0192356D01*
X0249014Y0191929D01*
X0248471Y0191386D01*
X0248059Y0190770D01*
X0245328Y0193500D01*
X0269672Y0193500D01*
X0270495Y0192677D01*
X0270362Y0192650D01*
X0269653Y0192356D01*
X0269014Y0191929D01*
X0268471Y0191386D01*
X0268044Y0190747D01*
X0267750Y0190038D01*
X0267600Y0189284D01*
X0267600Y0186800D01*
X0271200Y0186800D01*
X0271200Y0186200D01*
X0271800Y0186200D01*
X0271800Y0186800D01*
X0275400Y0186800D01*
X0275400Y0187772D01*
X0276500Y0186672D01*
X0276500Y0143988D01*
X0276033Y0144181D01*
X0274967Y0144181D01*
X0273981Y0143773D01*
X0273227Y0143019D01*
X0272819Y0142033D01*
X0272819Y0141647D01*
X0249086Y0117914D01*
X0247594Y0118532D01*
X0245485Y0118532D01*
X0243537Y0117725D01*
X0242046Y0116234D01*
X0241539Y0115011D01*
X0241032Y0116234D01*
X0239542Y0117725D01*
X0237594Y0118532D01*
X0235485Y0118532D01*
X0233537Y0117725D01*
X0232046Y0116234D01*
X0231539Y0115011D01*
X0231032Y0116234D01*
X0229542Y0117725D01*
X0227594Y0118532D01*
X0225485Y0118532D01*
X0223537Y0117725D01*
X0222046Y0116234D01*
X0221539Y0115011D01*
X0221032Y0116234D01*
X0219767Y0117500D01*
X0221328Y0117500D01*
X0222500Y0118672D01*
X0222154Y0118326D02*
X0224987Y0118326D01*
X0223139Y0117327D02*
X0219940Y0117327D01*
X0220938Y0116329D02*
X0222141Y0116329D01*
X0221672Y0115330D02*
X0221407Y0115330D01*
X0220500Y0119500D02*
X0213500Y0119500D01*
X0207500Y0113500D01*
X0206539Y0113232D01*
X0211491Y0111336D02*
X0211588Y0111336D01*
X0212002Y0110338D02*
X0211077Y0110338D01*
X0210142Y0109339D02*
X0212937Y0109339D01*
X0214499Y0108341D02*
X0208580Y0108341D01*
X0204499Y0108341D02*
X0198580Y0108341D01*
X0200142Y0109339D02*
X0202937Y0109339D01*
X0202002Y0110338D02*
X0201077Y0110338D01*
X0201491Y0111336D02*
X0201588Y0111336D01*
X0197500Y0112500D02*
X0196539Y0113232D01*
X0197500Y0112500D02*
X0181500Y0096500D01*
X0185400Y0096359D02*
X0187600Y0096359D01*
X0187600Y0097357D02*
X0185400Y0097357D01*
X0186184Y0098356D02*
X0187600Y0098356D01*
X0187600Y0099354D02*
X0187183Y0099354D01*
X0184521Y0102350D02*
X0183363Y0102350D01*
X0185520Y0103348D02*
X0175480Y0103348D01*
X0174482Y0104347D02*
X0186518Y0104347D01*
X0191177Y0103348D02*
X0243127Y0103348D01*
X0243194Y0103509D02*
X0242600Y0102076D01*
X0242600Y0095724D01*
X0243194Y0094291D01*
X0244291Y0093194D01*
X0245724Y0092600D01*
X0247276Y0092600D01*
X0248709Y0093194D01*
X0249806Y0094291D01*
X0250400Y0095724D01*
X0250400Y0102076D01*
X0249806Y0103509D01*
X0248709Y0104606D01*
X0247276Y0105200D01*
X0245724Y0105200D01*
X0244291Y0104606D01*
X0243194Y0103509D01*
X0244031Y0104347D02*
X0192175Y0104347D01*
X0193174Y0105345D02*
X0282496Y0105345D01*
X0282496Y0104347D02*
X0278969Y0104347D01*
X0278709Y0104606D02*
X0277276Y0105200D01*
X0275724Y0105200D01*
X0274291Y0104606D01*
X0273194Y0103509D01*
X0272600Y0102076D01*
X0272600Y0095724D01*
X0273194Y0094291D01*
X0274291Y0093194D01*
X0275724Y0092600D01*
X0277276Y0092600D01*
X0278709Y0093194D01*
X0279806Y0094291D01*
X0280400Y0095724D01*
X0280400Y0102076D01*
X0279806Y0103509D01*
X0278709Y0104606D01*
X0279873Y0103348D02*
X0282496Y0103348D01*
X0282496Y0102350D02*
X0280287Y0102350D01*
X0280400Y0101351D02*
X0282496Y0101351D01*
X0282496Y0100353D02*
X0280400Y0100353D01*
X0280400Y0099354D02*
X0282496Y0099354D01*
X0282496Y0098356D02*
X0280400Y0098356D01*
X0280400Y0097357D02*
X0282496Y0097357D01*
X0282496Y0096359D02*
X0280400Y0096359D01*
X0280249Y0095360D02*
X0282496Y0095360D01*
X0282496Y0094362D02*
X0279836Y0094362D01*
X0278878Y0093363D02*
X0282496Y0093363D01*
X0282496Y0092365D02*
X0215002Y0092365D01*
X0214806Y0091891D02*
X0215400Y0093324D01*
X0215400Y0099676D01*
X0214806Y0101109D01*
X0213709Y0102206D01*
X0212276Y0102800D01*
X0210724Y0102800D01*
X0209291Y0102206D01*
X0208194Y0101109D01*
X0207600Y0099676D01*
X0207600Y0093324D01*
X0208194Y0091891D01*
X0209291Y0090794D01*
X0210724Y0090200D01*
X0212276Y0090200D01*
X0213709Y0090794D01*
X0214806Y0091891D01*
X0214281Y0091366D02*
X0282496Y0091366D01*
X0282496Y0090368D02*
X0233148Y0090368D01*
X0233115Y0090400D02*
X0231800Y0090400D01*
X0231800Y0086800D01*
X0231200Y0086800D01*
X0231200Y0090400D01*
X0229885Y0090400D01*
X0227600Y0088115D01*
X0227600Y0086800D01*
X0231200Y0086800D01*
X0231200Y0086200D01*
X0227600Y0086200D01*
X0227600Y0084885D01*
X0229885Y0082600D01*
X0231200Y0082600D01*
X0231200Y0086200D01*
X0231800Y0086200D01*
X0231800Y0086800D01*
X0235400Y0086800D01*
X0235400Y0088115D01*
X0233115Y0090400D01*
X0231800Y0090368D02*
X0231200Y0090368D01*
X0231200Y0089369D02*
X0231800Y0089369D01*
X0231800Y0088370D02*
X0231200Y0088370D01*
X0231200Y0087372D02*
X0231800Y0087372D01*
X0231800Y0086373D02*
X0282496Y0086373D01*
X0282496Y0085375D02*
X0235400Y0085375D01*
X0235400Y0084885D02*
X0235400Y0086200D01*
X0231800Y0086200D01*
X0231800Y0082600D01*
X0233115Y0082600D01*
X0235400Y0084885D01*
X0234892Y0084376D02*
X0282496Y0084376D01*
X0282496Y0083378D02*
X0233893Y0083378D01*
X0231800Y0083378D02*
X0231200Y0083378D01*
X0231200Y0084376D02*
X0231800Y0084376D01*
X0231800Y0085375D02*
X0231200Y0085375D01*
X0231200Y0086373D02*
X0186455Y0086373D01*
X0187453Y0085375D02*
X0227600Y0085375D01*
X0228108Y0084376D02*
X0188452Y0084376D01*
X0189450Y0083378D02*
X0229107Y0083378D01*
X0229885Y0080400D02*
X0227600Y0078115D01*
X0227600Y0074885D01*
X0229885Y0072600D01*
X0233115Y0072600D01*
X0235400Y0074885D01*
X0235400Y0078115D01*
X0233115Y0080400D01*
X0229885Y0080400D01*
X0229867Y0080382D02*
X0192446Y0080382D01*
X0193445Y0079384D02*
X0228868Y0079384D01*
X0227870Y0078385D02*
X0194443Y0078385D01*
X0191448Y0081381D02*
X0282496Y0081381D01*
X0282496Y0082379D02*
X0190449Y0082379D01*
X0185456Y0087372D02*
X0227600Y0087372D01*
X0227855Y0088370D02*
X0184458Y0088370D01*
X0183459Y0089369D02*
X0228854Y0089369D01*
X0229852Y0090368D02*
X0212680Y0090368D01*
X0210320Y0090368D02*
X0202680Y0090368D01*
X0202276Y0090200D02*
X0203709Y0090794D01*
X0204806Y0091891D01*
X0205400Y0093324D01*
X0205400Y0099676D01*
X0204806Y0101109D01*
X0203709Y0102206D01*
X0202276Y0102800D01*
X0200724Y0102800D01*
X0199291Y0102206D01*
X0198194Y0101109D01*
X0197600Y0099676D01*
X0197600Y0093324D01*
X0198194Y0091891D01*
X0199291Y0090794D01*
X0200724Y0090200D01*
X0202276Y0090200D01*
X0200320Y0090368D02*
X0192680Y0090368D01*
X0194281Y0091366D02*
X0198719Y0091366D01*
X0197998Y0092365D02*
X0195002Y0092365D01*
X0195400Y0093363D02*
X0197600Y0093363D01*
X0197600Y0094362D02*
X0195400Y0094362D01*
X0195400Y0095360D02*
X0197600Y0095360D01*
X0197600Y0096359D02*
X0195400Y0096359D01*
X0195400Y0097357D02*
X0197600Y0097357D01*
X0197600Y0098356D02*
X0195400Y0098356D01*
X0195400Y0099354D02*
X0197600Y0099354D01*
X0197880Y0100353D02*
X0195120Y0100353D01*
X0194564Y0101351D02*
X0198436Y0101351D01*
X0199637Y0102350D02*
X0193363Y0102350D01*
X0194172Y0106344D02*
X0240828Y0106344D01*
X0239829Y0107342D02*
X0195171Y0107342D01*
X0203363Y0102350D02*
X0209637Y0102350D01*
X0208436Y0101351D02*
X0204564Y0101351D01*
X0205120Y0100353D02*
X0207880Y0100353D01*
X0207600Y0099354D02*
X0205400Y0099354D01*
X0205400Y0098356D02*
X0207600Y0098356D01*
X0207600Y0097357D02*
X0205400Y0097357D01*
X0205400Y0096359D02*
X0207600Y0096359D01*
X0207600Y0095360D02*
X0205400Y0095360D01*
X0205400Y0094362D02*
X0207600Y0094362D01*
X0207600Y0093363D02*
X0205400Y0093363D01*
X0205002Y0092365D02*
X0207998Y0092365D01*
X0208719Y0091366D02*
X0204281Y0091366D01*
X0215400Y0093363D02*
X0244122Y0093363D01*
X0243164Y0094362D02*
X0215400Y0094362D01*
X0215400Y0095360D02*
X0242751Y0095360D01*
X0242600Y0096359D02*
X0215400Y0096359D01*
X0215400Y0097357D02*
X0242600Y0097357D01*
X0242600Y0098356D02*
X0215400Y0098356D01*
X0215400Y0099354D02*
X0242600Y0099354D01*
X0242600Y0100353D02*
X0215120Y0100353D01*
X0214564Y0101351D02*
X0242600Y0101351D01*
X0242713Y0102350D02*
X0213363Y0102350D01*
X0218580Y0108341D02*
X0224499Y0108341D01*
X0222937Y0109339D02*
X0220142Y0109339D01*
X0221077Y0110338D02*
X0222002Y0110338D01*
X0221588Y0111336D02*
X0221491Y0111336D01*
X0228580Y0108341D02*
X0234499Y0108341D01*
X0232937Y0109339D02*
X0230142Y0109339D01*
X0231077Y0110338D02*
X0232002Y0110338D01*
X0231588Y0111336D02*
X0231491Y0111336D01*
X0231407Y0115330D02*
X0231672Y0115330D01*
X0232141Y0116329D02*
X0230938Y0116329D01*
X0229940Y0117327D02*
X0233139Y0117327D01*
X0234987Y0118326D02*
X0228092Y0118326D01*
X0225150Y0121321D02*
X0252493Y0121321D01*
X0251494Y0120323D02*
X0224151Y0120323D01*
X0226148Y0122320D02*
X0253491Y0122320D01*
X0254490Y0123318D02*
X0227147Y0123318D01*
X0228145Y0124317D02*
X0255488Y0124317D01*
X0256487Y0125315D02*
X0229144Y0125315D01*
X0230142Y0126314D02*
X0257486Y0126314D01*
X0258484Y0127312D02*
X0231141Y0127312D01*
X0232139Y0128311D02*
X0259483Y0128311D01*
X0260481Y0129309D02*
X0233138Y0129309D01*
X0234136Y0130308D02*
X0261480Y0130308D01*
X0262478Y0131306D02*
X0235135Y0131306D01*
X0236133Y0132305D02*
X0263477Y0132305D01*
X0264475Y0133303D02*
X0237132Y0133303D01*
X0238130Y0134302D02*
X0265474Y0134302D01*
X0266472Y0135301D02*
X0239129Y0135301D01*
X0240127Y0136299D02*
X0267471Y0136299D01*
X0268469Y0137298D02*
X0241126Y0137298D01*
X0242124Y0138296D02*
X0269468Y0138296D01*
X0270466Y0139295D02*
X0243123Y0139295D01*
X0244121Y0140293D02*
X0271465Y0140293D01*
X0272463Y0141292D02*
X0245120Y0141292D01*
X0246119Y0142290D02*
X0272925Y0142290D01*
X0273497Y0143289D02*
X0247117Y0143289D01*
X0248116Y0144287D02*
X0276500Y0144287D01*
X0276500Y0145286D02*
X0249114Y0145286D01*
X0250113Y0146284D02*
X0276500Y0146284D01*
X0276500Y0147283D02*
X0251111Y0147283D01*
X0252110Y0148281D02*
X0276500Y0148281D01*
X0276500Y0149280D02*
X0253108Y0149280D01*
X0254107Y0150278D02*
X0276500Y0150278D01*
X0276500Y0151277D02*
X0255105Y0151277D01*
X0256104Y0152275D02*
X0276500Y0152275D01*
X0276500Y0153274D02*
X0257102Y0153274D01*
X0258101Y0154272D02*
X0276500Y0154272D01*
X0276500Y0155271D02*
X0259099Y0155271D01*
X0260098Y0156269D02*
X0276500Y0156269D01*
X0276500Y0157268D02*
X0261096Y0157268D01*
X0262095Y0158266D02*
X0276500Y0158266D01*
X0276500Y0159265D02*
X0263093Y0159265D01*
X0264092Y0160263D02*
X0276500Y0160263D01*
X0276500Y0161262D02*
X0265090Y0161262D01*
X0266089Y0162260D02*
X0276500Y0162260D01*
X0276500Y0163259D02*
X0267087Y0163259D01*
X0268086Y0164257D02*
X0276500Y0164257D01*
X0276500Y0165256D02*
X0269084Y0165256D01*
X0270083Y0166254D02*
X0276500Y0166254D01*
X0276500Y0167253D02*
X0271081Y0167253D01*
X0272080Y0168251D02*
X0276500Y0168251D01*
X0276500Y0169250D02*
X0273078Y0169250D01*
X0274077Y0170248D02*
X0276500Y0170248D01*
X0276500Y0171247D02*
X0274500Y0171247D01*
X0274500Y0172245D02*
X0276500Y0172245D01*
X0276500Y0173244D02*
X0274500Y0173244D01*
X0274500Y0174242D02*
X0276500Y0174242D01*
X0276500Y0175241D02*
X0274500Y0175241D01*
X0274500Y0176239D02*
X0276500Y0176239D01*
X0276500Y0177238D02*
X0273590Y0177238D01*
X0272592Y0178237D02*
X0276500Y0178237D01*
X0276500Y0179235D02*
X0271593Y0179235D01*
X0271800Y0180200D02*
X0271884Y0180200D01*
X0272638Y0180350D01*
X0273347Y0180644D01*
X0273986Y0181071D01*
X0274529Y0181614D01*
X0274956Y0182253D01*
X0275250Y0182962D01*
X0275400Y0183716D01*
X0275400Y0186200D01*
X0271800Y0186200D01*
X0271800Y0180200D01*
X0271800Y0180234D02*
X0271200Y0180234D01*
X0270947Y0180234D02*
X0270595Y0180234D01*
X0271200Y0181232D02*
X0271800Y0181232D01*
X0271800Y0182231D02*
X0271200Y0182231D01*
X0271200Y0183229D02*
X0271800Y0183229D01*
X0271800Y0184228D02*
X0271200Y0184228D01*
X0271200Y0185226D02*
X0271800Y0185226D01*
X0271800Y0186225D02*
X0276500Y0186225D01*
X0276500Y0185226D02*
X0275400Y0185226D01*
X0275400Y0184228D02*
X0276500Y0184228D01*
X0276500Y0183229D02*
X0275303Y0183229D01*
X0274941Y0182231D02*
X0276500Y0182231D01*
X0276500Y0181232D02*
X0274147Y0181232D01*
X0272053Y0180234D02*
X0276500Y0180234D01*
X0272500Y0175500D02*
X0272500Y0171500D01*
X0220500Y0119500D01*
X0236539Y0113232D02*
X0237500Y0112500D01*
X0242500Y0107500D01*
X0268500Y0107500D01*
X0280500Y0119500D01*
X0280500Y0188500D01*
X0271500Y0197500D01*
X0232500Y0197500D01*
X0216500Y0213500D01*
X0216500Y0225500D01*
X0218628Y0227164D02*
X0282496Y0227164D01*
X0282496Y0228162D02*
X0217079Y0228162D01*
X0217501Y0229161D02*
X0212500Y0229161D01*
X0212500Y0228162D02*
X0215921Y0228162D01*
X0214372Y0227164D02*
X0212500Y0227164D01*
X0212500Y0226165D02*
X0213873Y0226165D01*
X0213819Y0225167D02*
X0212500Y0225167D01*
X0212500Y0224168D02*
X0214150Y0224168D01*
X0214500Y0223170D02*
X0212500Y0223170D01*
X0213744Y0222171D02*
X0214500Y0222171D01*
X0218500Y0222171D02*
X0219376Y0222171D01*
X0218500Y0223170D02*
X0282496Y0223170D01*
X0282496Y0224168D02*
X0218850Y0224168D01*
X0219181Y0225167D02*
X0282496Y0225167D01*
X0282496Y0226165D02*
X0219127Y0226165D01*
X0218570Y0229161D02*
X0260353Y0229161D01*
X0260418Y0229134D02*
X0262267Y0229134D01*
X0263976Y0229842D01*
X0265284Y0231150D01*
X0265992Y0232859D01*
X0265992Y0234708D01*
X0265284Y0236417D01*
X0263976Y0237725D01*
X0263890Y0237761D01*
X0264372Y0238111D01*
X0264889Y0238628D01*
X0265319Y0239221D01*
X0265651Y0239873D01*
X0265878Y0240569D01*
X0265992Y0241292D01*
X0265992Y0241468D01*
X0261532Y0241468D01*
X0261532Y0241846D01*
X0265992Y0241846D01*
X0265992Y0242023D01*
X0265878Y0242746D01*
X0265651Y0243442D01*
X0265319Y0244094D01*
X0264889Y0244686D01*
X0264372Y0245204D01*
X0263890Y0245554D01*
X0263976Y0245590D01*
X0265284Y0246898D01*
X0265992Y0248607D01*
X0265992Y0250456D01*
X0265284Y0252165D01*
X0263976Y0253473D01*
X0262267Y0254181D01*
X0260418Y0254181D01*
X0258709Y0253473D01*
X0257401Y0252165D01*
X0256693Y0250456D01*
X0256693Y0248607D01*
X0257401Y0246898D01*
X0258709Y0245590D01*
X0258795Y0245554D01*
X0258313Y0245204D01*
X0257796Y0244686D01*
X0257366Y0244094D01*
X0257034Y0243442D01*
X0256807Y0242746D01*
X0256693Y0242023D01*
X0256693Y0241846D01*
X0261153Y0241846D01*
X0261153Y0241468D01*
X0256693Y0241468D01*
X0256693Y0241292D01*
X0256807Y0240569D01*
X0257034Y0239873D01*
X0257366Y0239221D01*
X0257796Y0238628D01*
X0258313Y0238111D01*
X0258795Y0237761D01*
X0258709Y0237725D01*
X0257401Y0236417D01*
X0256693Y0234708D01*
X0256693Y0232859D01*
X0257401Y0231150D01*
X0258709Y0229842D01*
X0260418Y0229134D01*
X0262332Y0229161D02*
X0282496Y0229161D01*
X0282496Y0230159D02*
X0264294Y0230159D01*
X0265288Y0231158D02*
X0282496Y0231158D01*
X0282496Y0232156D02*
X0265701Y0232156D01*
X0265992Y0233155D02*
X0282496Y0233155D01*
X0282496Y0234153D02*
X0265992Y0234153D01*
X0265808Y0235152D02*
X0282496Y0235152D01*
X0282496Y0236150D02*
X0265395Y0236150D01*
X0264553Y0237149D02*
X0282496Y0237149D01*
X0282496Y0238147D02*
X0264408Y0238147D01*
X0265265Y0239146D02*
X0282496Y0239146D01*
X0282496Y0240144D02*
X0265740Y0240144D01*
X0265969Y0241143D02*
X0282496Y0241143D01*
X0282496Y0242141D02*
X0265973Y0242141D01*
X0265750Y0243140D02*
X0282496Y0243140D01*
X0282496Y0244138D02*
X0265287Y0244138D01*
X0264439Y0245137D02*
X0282496Y0245137D01*
X0282496Y0246135D02*
X0264522Y0246135D01*
X0265382Y0247134D02*
X0282496Y0247134D01*
X0282496Y0248132D02*
X0265796Y0248132D01*
X0265992Y0249131D02*
X0282496Y0249131D01*
X0282496Y0250129D02*
X0265992Y0250129D01*
X0265714Y0251128D02*
X0282496Y0251128D01*
X0282496Y0252126D02*
X0265300Y0252126D01*
X0264325Y0253125D02*
X0282496Y0253125D01*
X0282496Y0254123D02*
X0262407Y0254123D01*
X0260278Y0254123D02*
X0003968Y0254123D01*
X0003968Y0253125D02*
X0258360Y0253125D01*
X0257385Y0252126D02*
X0003968Y0252126D01*
X0003968Y0251128D02*
X0256971Y0251128D01*
X0256693Y0250129D02*
X0003968Y0250129D01*
X0003968Y0249131D02*
X0256693Y0249131D01*
X0256889Y0248132D02*
X0003968Y0248132D01*
X0003968Y0247134D02*
X0257303Y0247134D01*
X0258163Y0246135D02*
X0003968Y0246135D01*
X0003968Y0245137D02*
X0258246Y0245137D01*
X0257398Y0244138D02*
X0003968Y0244138D01*
X0003968Y0243140D02*
X0256935Y0243140D01*
X0256712Y0242141D02*
X0003968Y0242141D01*
X0003968Y0241143D02*
X0256716Y0241143D01*
X0256945Y0240144D02*
X0003968Y0240144D01*
X0003968Y0239146D02*
X0257420Y0239146D01*
X0258277Y0238147D02*
X0219652Y0238147D01*
X0219820Y0238092D02*
X0219124Y0238319D01*
X0218401Y0238433D01*
X0218224Y0238433D01*
X0218224Y0233973D01*
X0218224Y0233972D02*
X0222685Y0233972D01*
X0222685Y0234149D01*
X0222571Y0234872D01*
X0222344Y0235568D01*
X0222012Y0236220D01*
X0221582Y0236812D01*
X0221064Y0237330D01*
X0220472Y0237760D01*
X0219820Y0238092D01*
X0218224Y0238147D02*
X0217846Y0238147D01*
X0217846Y0237149D02*
X0218224Y0237149D01*
X0218224Y0236150D02*
X0217846Y0236150D01*
X0217846Y0235152D02*
X0218224Y0235152D01*
X0217500Y0234500D02*
X0218035Y0233783D01*
X0218500Y0233500D01*
X0228500Y0223500D01*
X0221500Y0216500D01*
X0221800Y0216800D02*
X0221800Y0222800D01*
X0221884Y0222800D01*
X0222638Y0222650D01*
X0223347Y0222356D01*
X0223986Y0221929D01*
X0224529Y0221386D01*
X0224956Y0220747D01*
X0225250Y0220038D01*
X0225400Y0219284D01*
X0225400Y0216800D01*
X0221800Y0216800D01*
X0221800Y0217178D02*
X0221200Y0217178D01*
X0221200Y0218177D02*
X0221800Y0218177D01*
X0221800Y0219175D02*
X0221200Y0219175D01*
X0221200Y0220174D02*
X0221800Y0220174D01*
X0221800Y0221172D02*
X0221200Y0221172D01*
X0221200Y0222171D02*
X0221800Y0222171D01*
X0223624Y0222171D02*
X0229256Y0222171D01*
X0229291Y0222206D02*
X0228194Y0221109D01*
X0227600Y0219676D01*
X0227600Y0213324D01*
X0228194Y0211891D01*
X0229291Y0210794D01*
X0230724Y0210200D01*
X0232276Y0210200D01*
X0233709Y0210794D01*
X0234806Y0211891D01*
X0235400Y0213324D01*
X0235400Y0219676D01*
X0234806Y0221109D01*
X0233709Y0222206D01*
X0232276Y0222800D01*
X0230724Y0222800D01*
X0229291Y0222206D01*
X0228257Y0221172D02*
X0224672Y0221172D01*
X0225194Y0220174D02*
X0227806Y0220174D01*
X0227600Y0219175D02*
X0225400Y0219175D01*
X0225400Y0218177D02*
X0227600Y0218177D01*
X0227600Y0217178D02*
X0225400Y0217178D01*
X0225400Y0216180D02*
X0227600Y0216180D01*
X0227600Y0215181D02*
X0225400Y0215181D01*
X0225400Y0214183D02*
X0227600Y0214183D01*
X0227658Y0213184D02*
X0225294Y0213184D01*
X0224912Y0212186D02*
X0228072Y0212186D01*
X0228897Y0211187D02*
X0224103Y0211187D01*
X0222640Y0210189D02*
X0282496Y0210189D01*
X0282496Y0211187D02*
X0274103Y0211187D01*
X0273709Y0210794D02*
X0274806Y0211891D01*
X0275400Y0213324D01*
X0275400Y0219676D01*
X0274806Y0221109D01*
X0273709Y0222206D01*
X0272276Y0222800D01*
X0270724Y0222800D01*
X0269291Y0222206D01*
X0268194Y0221109D01*
X0267600Y0219676D01*
X0267600Y0213324D01*
X0268194Y0211891D01*
X0269291Y0210794D01*
X0270724Y0210200D01*
X0272276Y0210200D01*
X0273709Y0210794D01*
X0274928Y0212186D02*
X0282496Y0212186D01*
X0282496Y0213184D02*
X0275342Y0213184D01*
X0275400Y0214183D02*
X0282496Y0214183D01*
X0282496Y0215181D02*
X0275400Y0215181D01*
X0275400Y0216180D02*
X0282496Y0216180D01*
X0282496Y0217178D02*
X0275400Y0217178D01*
X0275400Y0218177D02*
X0282496Y0218177D01*
X0282496Y0219175D02*
X0275400Y0219175D01*
X0275194Y0220174D02*
X0282496Y0220174D01*
X0282496Y0221172D02*
X0274743Y0221172D01*
X0273744Y0222171D02*
X0282496Y0222171D01*
X0282496Y0209190D02*
X0223638Y0209190D01*
X0224637Y0208192D02*
X0282496Y0208192D01*
X0282496Y0207193D02*
X0225635Y0207193D01*
X0226634Y0206195D02*
X0282496Y0206195D01*
X0282496Y0205196D02*
X0227632Y0205196D01*
X0228631Y0204198D02*
X0282496Y0204198D01*
X0282496Y0203199D02*
X0229629Y0203199D01*
X0230628Y0202201D02*
X0282496Y0202201D01*
X0282496Y0201202D02*
X0231626Y0201202D01*
X0232625Y0200204D02*
X0282496Y0200204D01*
X0282496Y0199205D02*
X0272623Y0199205D01*
X0273622Y0198207D02*
X0282496Y0198207D01*
X0282496Y0197208D02*
X0274620Y0197208D01*
X0275619Y0196210D02*
X0282496Y0196210D01*
X0282496Y0195211D02*
X0276617Y0195211D01*
X0277616Y0194213D02*
X0282496Y0194213D01*
X0282496Y0193214D02*
X0278614Y0193214D01*
X0279613Y0192216D02*
X0282496Y0192216D01*
X0282496Y0191217D02*
X0280611Y0191217D01*
X0281610Y0190219D02*
X0282496Y0190219D01*
X0275948Y0187223D02*
X0275400Y0187223D01*
X0271500Y0186500D02*
X0269500Y0186500D01*
X0262500Y0193500D01*
X0258500Y0193500D01*
X0251500Y0186500D01*
X0251800Y0186225D02*
X0257600Y0186225D01*
X0257600Y0187223D02*
X0255400Y0187223D01*
X0255400Y0186800D02*
X0255400Y0189284D01*
X0255250Y0190038D01*
X0254956Y0190747D01*
X0254529Y0191386D01*
X0253986Y0191929D01*
X0253347Y0192356D01*
X0252638Y0192650D01*
X0251884Y0192800D01*
X0251800Y0192800D01*
X0251800Y0186800D01*
X0255400Y0186800D01*
X0255400Y0188222D02*
X0257600Y0188222D01*
X0257600Y0189220D02*
X0255400Y0189220D01*
X0255175Y0190219D02*
X0257825Y0190219D01*
X0258302Y0191217D02*
X0254642Y0191217D01*
X0253558Y0192216D02*
X0259314Y0192216D01*
X0263686Y0192216D02*
X0269442Y0192216D01*
X0269957Y0193214D02*
X0245614Y0193214D01*
X0246613Y0192216D02*
X0249442Y0192216D01*
X0248358Y0191217D02*
X0247611Y0191217D01*
X0247500Y0188500D02*
X0247500Y0182500D01*
X0250500Y0179500D01*
X0268500Y0179500D01*
X0272500Y0175500D01*
X0268059Y0182231D02*
X0264947Y0182231D01*
X0265361Y0183229D02*
X0267697Y0183229D01*
X0267600Y0184228D02*
X0265400Y0184228D01*
X0265400Y0185226D02*
X0267600Y0185226D01*
X0267600Y0187223D02*
X0265400Y0187223D01*
X0265400Y0186225D02*
X0271200Y0186225D01*
X0267600Y0188222D02*
X0265400Y0188222D01*
X0265400Y0189220D02*
X0267600Y0189220D01*
X0267825Y0190219D02*
X0265175Y0190219D01*
X0264698Y0191217D02*
X0268358Y0191217D01*
X0258053Y0182231D02*
X0254941Y0182231D01*
X0255303Y0183229D02*
X0257639Y0183229D01*
X0257600Y0184228D02*
X0255400Y0184228D01*
X0255400Y0185226D02*
X0257600Y0185226D01*
X0251800Y0187223D02*
X0251200Y0187223D01*
X0251200Y0188222D02*
X0251800Y0188222D01*
X0251800Y0189220D02*
X0251200Y0189220D01*
X0251200Y0190219D02*
X0251800Y0190219D01*
X0251800Y0191217D02*
X0251200Y0191217D01*
X0251200Y0192216D02*
X0251800Y0192216D01*
X0247500Y0188500D02*
X0242500Y0193500D01*
X0210500Y0193500D01*
X0208500Y0191500D01*
X0186500Y0191500D01*
X0183697Y0194213D02*
X0169303Y0194213D01*
X0169015Y0194500D02*
X0183985Y0194500D01*
X0182600Y0193115D01*
X0182600Y0189885D01*
X0184885Y0187600D01*
X0188115Y0187600D01*
X0190015Y0189500D01*
X0207600Y0189500D01*
X0207600Y0183324D01*
X0208194Y0181891D01*
X0208585Y0181500D01*
X0139328Y0181500D01*
X0130400Y0190428D01*
X0130400Y0193115D01*
X0128115Y0195400D01*
X0124885Y0195400D01*
X0122600Y0193115D01*
X0122600Y0189885D01*
X0124885Y0187600D01*
X0127572Y0187600D01*
X0137039Y0178132D01*
X0137039Y0173732D01*
X0136039Y0173732D01*
X0136039Y0178519D01*
X0135298Y0178402D01*
X0134505Y0178144D01*
X0133762Y0177765D01*
X0133087Y0177275D01*
X0132497Y0176685D01*
X0132006Y0176010D01*
X0131628Y0175267D01*
X0131542Y0175004D01*
X0131032Y0176234D01*
X0129542Y0177725D01*
X0127594Y0178532D01*
X0125485Y0178532D01*
X0123537Y0177725D01*
X0122046Y0176234D01*
X0121539Y0175011D01*
X0121032Y0176234D01*
X0119542Y0177725D01*
X0117594Y0178532D01*
X0115485Y0178532D01*
X0113537Y0177725D01*
X0112046Y0176234D01*
X0111539Y0175011D01*
X0111032Y0176234D01*
X0109542Y0177725D01*
X0107594Y0178532D01*
X0106361Y0178532D01*
X0125428Y0197600D01*
X0128115Y0197600D01*
X0130400Y0199885D01*
X0130400Y0202572D01*
X0144500Y0216672D01*
X0145772Y0215400D01*
X0144885Y0215400D01*
X0142600Y0213115D01*
X0142600Y0209885D01*
X0144885Y0207600D01*
X0148115Y0207600D01*
X0149843Y0209328D01*
X0164328Y0194843D01*
X0162600Y0193115D01*
X0162600Y0189885D01*
X0164885Y0187600D01*
X0168115Y0187600D01*
X0170400Y0189885D01*
X0170400Y0193115D01*
X0169015Y0194500D01*
X0170301Y0193214D02*
X0182699Y0193214D01*
X0182600Y0192216D02*
X0170400Y0192216D01*
X0170400Y0191217D02*
X0182600Y0191217D01*
X0182600Y0190219D02*
X0170400Y0190219D01*
X0169736Y0189220D02*
X0183264Y0189220D01*
X0184263Y0188222D02*
X0168737Y0188222D01*
X0164263Y0188222D02*
X0148737Y0188222D01*
X0148115Y0187600D02*
X0150400Y0189885D01*
X0150400Y0193115D01*
X0148115Y0195400D01*
X0144885Y0195400D01*
X0142600Y0193115D01*
X0142600Y0189885D01*
X0144885Y0187600D01*
X0148115Y0187600D01*
X0149736Y0189220D02*
X0163264Y0189220D01*
X0162600Y0190219D02*
X0150400Y0190219D01*
X0150400Y0191217D02*
X0162600Y0191217D01*
X0162600Y0192216D02*
X0150400Y0192216D01*
X0150301Y0193214D02*
X0162699Y0193214D01*
X0163697Y0194213D02*
X0149303Y0194213D01*
X0148304Y0195211D02*
X0163960Y0195211D01*
X0162962Y0196210D02*
X0124038Y0196210D01*
X0124696Y0195211D02*
X0123040Y0195211D01*
X0123697Y0194213D02*
X0122041Y0194213D01*
X0122699Y0193214D02*
X0121043Y0193214D01*
X0120044Y0192216D02*
X0122600Y0192216D01*
X0122600Y0191217D02*
X0119046Y0191217D01*
X0118047Y0190219D02*
X0122600Y0190219D01*
X0123264Y0189220D02*
X0117049Y0189220D01*
X0116050Y0188222D02*
X0124263Y0188222D01*
X0127948Y0187223D02*
X0115052Y0187223D01*
X0114053Y0186225D02*
X0128947Y0186225D01*
X0129945Y0185226D02*
X0113054Y0185226D01*
X0112056Y0184228D02*
X0130944Y0184228D01*
X0131943Y0183229D02*
X0111057Y0183229D01*
X0110059Y0182231D02*
X0132941Y0182231D01*
X0133940Y0181232D02*
X0109060Y0181232D01*
X0108062Y0180234D02*
X0134938Y0180234D01*
X0135937Y0179235D02*
X0107063Y0179235D01*
X0108308Y0178237D02*
X0114771Y0178237D01*
X0113050Y0177238D02*
X0110029Y0177238D01*
X0111027Y0176239D02*
X0112051Y0176239D01*
X0111635Y0175241D02*
X0111444Y0175241D01*
X0111539Y0171454D02*
X0112046Y0170230D01*
X0113537Y0168739D01*
X0115485Y0167932D01*
X0117594Y0167932D01*
X0119542Y0168739D01*
X0121032Y0170230D01*
X0121539Y0171454D01*
X0122046Y0170230D01*
X0123537Y0168739D01*
X0125485Y0167932D01*
X0127594Y0167932D01*
X0129542Y0168739D01*
X0131032Y0170230D01*
X0131542Y0171461D01*
X0131628Y0171198D01*
X0132006Y0170454D01*
X0132497Y0169780D01*
X0133087Y0169190D01*
X0133762Y0168699D01*
X0134505Y0168321D01*
X0135298Y0168063D01*
X0136039Y0167945D01*
X0136039Y0172732D01*
X0137039Y0172732D01*
X0137039Y0167945D01*
X0137780Y0168063D01*
X0138574Y0168321D01*
X0139317Y0168699D01*
X0139992Y0169190D01*
X0140582Y0169780D01*
X0141072Y0170454D01*
X0141451Y0171198D01*
X0141536Y0171461D01*
X0142046Y0170230D01*
X0143537Y0168739D01*
X0145485Y0167932D01*
X0147594Y0167932D01*
X0149542Y0168739D01*
X0151032Y0170230D01*
X0151539Y0171454D01*
X0151857Y0170686D01*
X0127500Y0146328D01*
X0105896Y0167932D01*
X0107594Y0167932D01*
X0109542Y0168739D01*
X0111032Y0170230D01*
X0111539Y0171454D01*
X0111454Y0171247D02*
X0111625Y0171247D01*
X0112039Y0170248D02*
X0111040Y0170248D01*
X0110052Y0169250D02*
X0113026Y0169250D01*
X0114715Y0168251D02*
X0108364Y0168251D01*
X0106576Y0167253D02*
X0148424Y0167253D01*
X0148364Y0168251D02*
X0149423Y0168251D01*
X0150052Y0169250D02*
X0150421Y0169250D01*
X0151040Y0170248D02*
X0151420Y0170248D01*
X0151454Y0171247D02*
X0151625Y0171247D01*
X0147426Y0166254D02*
X0107574Y0166254D01*
X0108573Y0165256D02*
X0146427Y0165256D01*
X0145429Y0164257D02*
X0109571Y0164257D01*
X0110570Y0163259D02*
X0144430Y0163259D01*
X0143432Y0162260D02*
X0111568Y0162260D01*
X0112567Y0161262D02*
X0142433Y0161262D01*
X0141435Y0160263D02*
X0113565Y0160263D01*
X0114564Y0159265D02*
X0140436Y0159265D01*
X0139438Y0158266D02*
X0115562Y0158266D01*
X0116561Y0157268D02*
X0138439Y0157268D01*
X0137441Y0156269D02*
X0117559Y0156269D01*
X0118558Y0155271D02*
X0136442Y0155271D01*
X0135444Y0154272D02*
X0119556Y0154272D01*
X0120555Y0153274D02*
X0134445Y0153274D01*
X0133447Y0152275D02*
X0121553Y0152275D01*
X0122552Y0151277D02*
X0132448Y0151277D01*
X0131450Y0150278D02*
X0123550Y0150278D01*
X0124549Y0149280D02*
X0130451Y0149280D01*
X0129453Y0148281D02*
X0125547Y0148281D01*
X0126546Y0147283D02*
X0128454Y0147283D01*
X0127500Y0143500D02*
X0156500Y0172500D01*
X0156539Y0173232D01*
X0144715Y0168251D02*
X0138361Y0168251D01*
X0137039Y0168251D02*
X0136039Y0168251D01*
X0136039Y0169250D02*
X0137039Y0169250D01*
X0137039Y0170248D02*
X0136039Y0170248D01*
X0136039Y0171247D02*
X0137039Y0171247D01*
X0137039Y0172245D02*
X0136039Y0172245D01*
X0136039Y0174242D02*
X0137039Y0174242D01*
X0137039Y0175241D02*
X0136039Y0175241D01*
X0136039Y0176239D02*
X0137039Y0176239D01*
X0137039Y0177238D02*
X0136039Y0177238D01*
X0136039Y0178237D02*
X0136935Y0178237D01*
X0138500Y0179500D02*
X0126500Y0191500D01*
X0129303Y0194213D02*
X0143697Y0194213D01*
X0144696Y0195211D02*
X0128304Y0195211D01*
X0130301Y0193214D02*
X0142699Y0193214D01*
X0142600Y0192216D02*
X0130400Y0192216D01*
X0130400Y0191217D02*
X0142600Y0191217D01*
X0142600Y0190219D02*
X0130610Y0190219D01*
X0131608Y0189220D02*
X0143264Y0189220D01*
X0144263Y0188222D02*
X0132607Y0188222D01*
X0133605Y0187223D02*
X0207600Y0187223D01*
X0207600Y0186225D02*
X0134604Y0186225D01*
X0135602Y0185226D02*
X0207600Y0185226D01*
X0207600Y0184228D02*
X0136601Y0184228D01*
X0137599Y0183229D02*
X0207639Y0183229D01*
X0208053Y0182231D02*
X0138598Y0182231D01*
X0138500Y0179500D02*
X0212500Y0179500D01*
X0219500Y0186500D01*
X0221500Y0186500D01*
X0225400Y0186225D02*
X0231200Y0186225D01*
X0231200Y0186200D02*
X0231200Y0186800D01*
X0227600Y0186800D01*
X0227600Y0189284D01*
X0227750Y0190038D01*
X0228044Y0190747D01*
X0228471Y0191386D01*
X0228585Y0191500D01*
X0224415Y0191500D01*
X0224806Y0191109D01*
X0225400Y0189676D01*
X0225400Y0183324D01*
X0224806Y0181891D01*
X0223709Y0180794D01*
X0222276Y0180200D01*
X0220724Y0180200D01*
X0219291Y0180794D01*
X0218194Y0181891D01*
X0218055Y0182226D01*
X0214500Y0178672D01*
X0214500Y0178672D01*
X0213566Y0177737D01*
X0215485Y0178532D01*
X0217594Y0178532D01*
X0219542Y0177725D01*
X0221032Y0176234D01*
X0221539Y0175011D01*
X0222046Y0176234D01*
X0223537Y0177725D01*
X0225485Y0178532D01*
X0227594Y0178532D01*
X0229542Y0177725D01*
X0231032Y0176234D01*
X0231539Y0175011D01*
X0232046Y0176234D01*
X0233537Y0177725D01*
X0235485Y0178532D01*
X0237594Y0178532D01*
X0239542Y0177725D01*
X0241032Y0176234D01*
X0241539Y0175011D01*
X0242046Y0176234D01*
X0243537Y0177725D01*
X0245485Y0178532D01*
X0247594Y0178532D01*
X0249379Y0177793D01*
X0248500Y0178672D01*
X0245500Y0181672D01*
X0245500Y0187672D01*
X0245400Y0187772D01*
X0245400Y0183324D01*
X0244806Y0181891D01*
X0243709Y0180794D01*
X0242276Y0180200D01*
X0240724Y0180200D01*
X0239291Y0180794D01*
X0238194Y0181891D01*
X0237600Y0183324D01*
X0237600Y0189676D01*
X0238194Y0191109D01*
X0238585Y0191500D01*
X0234415Y0191500D01*
X0234529Y0191386D01*
X0234956Y0190747D01*
X0235250Y0190038D01*
X0235400Y0189284D01*
X0235400Y0186800D01*
X0231800Y0186800D01*
X0231800Y0186200D01*
X0235400Y0186200D01*
X0235400Y0183716D01*
X0235250Y0182962D01*
X0234956Y0182253D01*
X0234529Y0181614D01*
X0233986Y0181071D01*
X0233347Y0180644D01*
X0232638Y0180350D01*
X0231884Y0180200D01*
X0231800Y0180200D01*
X0231800Y0186200D01*
X0231200Y0186200D01*
X0231200Y0180200D01*
X0231116Y0180200D01*
X0230362Y0180350D01*
X0229653Y0180644D01*
X0229014Y0181071D01*
X0228471Y0181614D01*
X0228044Y0182253D01*
X0227750Y0182962D01*
X0227600Y0183716D01*
X0227600Y0186200D01*
X0231200Y0186200D01*
X0231800Y0186225D02*
X0237600Y0186225D01*
X0237600Y0187223D02*
X0235400Y0187223D01*
X0235400Y0188222D02*
X0237600Y0188222D01*
X0237600Y0189220D02*
X0235400Y0189220D01*
X0235175Y0190219D02*
X0237825Y0190219D01*
X0238302Y0191217D02*
X0234642Y0191217D01*
X0235400Y0185226D02*
X0237600Y0185226D01*
X0237600Y0184228D02*
X0235400Y0184228D01*
X0235303Y0183229D02*
X0237639Y0183229D01*
X0238053Y0182231D02*
X0234941Y0182231D01*
X0234147Y0181232D02*
X0238853Y0181232D01*
X0240643Y0180234D02*
X0232053Y0180234D01*
X0231800Y0180234D02*
X0231200Y0180234D01*
X0230947Y0180234D02*
X0222357Y0180234D01*
X0220643Y0180234D02*
X0216062Y0180234D01*
X0217060Y0181232D02*
X0218853Y0181232D01*
X0218308Y0178237D02*
X0224771Y0178237D01*
X0223050Y0177238D02*
X0220029Y0177238D01*
X0221027Y0176239D02*
X0222051Y0176239D01*
X0221635Y0175241D02*
X0221444Y0175241D01*
X0224147Y0181232D02*
X0228853Y0181232D01*
X0228059Y0182231D02*
X0224947Y0182231D01*
X0225361Y0183229D02*
X0227697Y0183229D01*
X0227600Y0184228D02*
X0225400Y0184228D01*
X0225400Y0185226D02*
X0227600Y0185226D01*
X0227600Y0187223D02*
X0225400Y0187223D01*
X0225400Y0188222D02*
X0227600Y0188222D01*
X0227600Y0189220D02*
X0225400Y0189220D01*
X0225175Y0190219D02*
X0227825Y0190219D01*
X0228358Y0191217D02*
X0224698Y0191217D01*
X0220962Y0196210D02*
X0205400Y0196210D01*
X0205400Y0197208D02*
X0219963Y0197208D01*
X0218965Y0198207D02*
X0205309Y0198207D01*
X0205400Y0195211D02*
X0209383Y0195211D01*
X0208384Y0194213D02*
X0204728Y0194213D01*
X0207600Y0189220D02*
X0189736Y0189220D01*
X0188737Y0188222D02*
X0207600Y0188222D01*
X0215063Y0179235D02*
X0247937Y0179235D01*
X0248308Y0178237D02*
X0248935Y0178237D01*
X0246938Y0180234D02*
X0242357Y0180234D01*
X0244147Y0181232D02*
X0245940Y0181232D01*
X0245500Y0182231D02*
X0244947Y0182231D01*
X0245361Y0183229D02*
X0245500Y0183229D01*
X0245500Y0184228D02*
X0245400Y0184228D01*
X0245400Y0185226D02*
X0245500Y0185226D01*
X0245500Y0186225D02*
X0245400Y0186225D01*
X0245400Y0187223D02*
X0245500Y0187223D01*
X0244771Y0178237D02*
X0238308Y0178237D01*
X0240029Y0177238D02*
X0243050Y0177238D01*
X0242051Y0176239D02*
X0241027Y0176239D01*
X0241444Y0175241D02*
X0241635Y0175241D01*
X0234771Y0178237D02*
X0228308Y0178237D01*
X0230029Y0177238D02*
X0233050Y0177238D01*
X0232051Y0176239D02*
X0231027Y0176239D01*
X0231444Y0175241D02*
X0231635Y0175241D01*
X0231800Y0181232D02*
X0231200Y0181232D01*
X0231200Y0182231D02*
X0231800Y0182231D01*
X0231800Y0183229D02*
X0231200Y0183229D01*
X0231200Y0184228D02*
X0231800Y0184228D01*
X0231800Y0185226D02*
X0231200Y0185226D01*
X0214771Y0178237D02*
X0214065Y0178237D01*
X0184681Y0205196D02*
X0168500Y0205196D01*
X0169318Y0204198D02*
X0183682Y0204198D01*
X0182684Y0203199D02*
X0170316Y0203199D01*
X0170400Y0202201D02*
X0182600Y0202201D01*
X0182600Y0201202D02*
X0170400Y0201202D01*
X0170400Y0200204D02*
X0182600Y0200204D01*
X0183279Y0199205D02*
X0169721Y0199205D01*
X0166500Y0201500D02*
X0166500Y0205500D01*
X0162500Y0209500D01*
X0162500Y0223500D01*
X0167500Y0228500D01*
X0169500Y0228500D01*
X0174500Y0233500D01*
X0174728Y0233783D01*
X0171518Y0237149D02*
X0170065Y0237149D01*
X0168469Y0238147D02*
X0173113Y0238147D01*
X0176343Y0238147D02*
X0180987Y0238147D01*
X0179392Y0237149D02*
X0177939Y0237149D01*
X0184217Y0238147D02*
X0188861Y0238147D01*
X0187266Y0237149D02*
X0185813Y0237149D01*
X0189500Y0233500D02*
X0190476Y0233783D01*
X0189500Y0233500D02*
X0177500Y0221500D01*
X0166500Y0221500D01*
X0169691Y0219175D02*
X0183309Y0219175D01*
X0182600Y0220174D02*
X0179002Y0220174D01*
X0179500Y0220672D02*
X0179500Y0220672D01*
X0180001Y0221172D02*
X0182600Y0221172D01*
X0182600Y0222171D02*
X0180999Y0222171D01*
X0181998Y0223170D02*
X0182654Y0223170D01*
X0182996Y0224168D02*
X0183653Y0224168D01*
X0183995Y0225167D02*
X0184651Y0225167D01*
X0184993Y0226165D02*
X0208500Y0226165D01*
X0208500Y0225167D02*
X0188349Y0225167D01*
X0189347Y0224168D02*
X0208500Y0224168D01*
X0208500Y0223170D02*
X0199659Y0223170D01*
X0200657Y0222171D02*
X0208500Y0222171D01*
X0208257Y0221172D02*
X0201656Y0221172D01*
X0202654Y0220174D02*
X0207806Y0220174D01*
X0207600Y0219175D02*
X0203653Y0219175D01*
X0204651Y0218177D02*
X0207600Y0218177D01*
X0207600Y0217178D02*
X0205650Y0217178D01*
X0206648Y0216180D02*
X0207600Y0216180D01*
X0210500Y0217500D02*
X0211500Y0216500D01*
X0210500Y0217500D02*
X0210500Y0233500D01*
X0210161Y0233783D01*
X0206951Y0237149D02*
X0193687Y0237149D01*
X0194529Y0236150D02*
X0206109Y0236150D01*
X0205695Y0235152D02*
X0194942Y0235152D01*
X0195126Y0234153D02*
X0205512Y0234153D01*
X0205512Y0233155D02*
X0195126Y0233155D01*
X0194835Y0232156D02*
X0205803Y0232156D01*
X0206216Y0231158D02*
X0194421Y0231158D01*
X0193428Y0230159D02*
X0207210Y0230159D01*
X0208500Y0229161D02*
X0191466Y0229161D01*
X0189487Y0229161D02*
X0187989Y0229161D01*
X0186990Y0228162D02*
X0208500Y0228162D01*
X0208500Y0227164D02*
X0185992Y0227164D01*
X0186500Y0221500D02*
X0198500Y0221500D01*
X0203987Y0213184D02*
X0190331Y0213184D01*
X0190400Y0212186D02*
X0204986Y0212186D01*
X0205984Y0211187D02*
X0190400Y0211187D01*
X0184293Y0208192D02*
X0168707Y0208192D01*
X0169706Y0209190D02*
X0183294Y0209190D01*
X0182600Y0210189D02*
X0170400Y0210189D01*
X0170400Y0211187D02*
X0182600Y0211187D01*
X0182600Y0212186D02*
X0170400Y0212186D01*
X0170331Y0213184D02*
X0182669Y0213184D01*
X0183667Y0214183D02*
X0169332Y0214183D01*
X0168334Y0215181D02*
X0184666Y0215181D01*
X0184308Y0218177D02*
X0168692Y0218177D01*
X0164666Y0215181D02*
X0164500Y0215181D01*
X0160500Y0215181D02*
X0151647Y0215181D01*
X0152500Y0214183D02*
X0160500Y0214183D01*
X0160500Y0213184D02*
X0152500Y0213184D01*
X0152643Y0212186D02*
X0160500Y0212186D01*
X0160500Y0211187D02*
X0153641Y0211187D01*
X0154640Y0210189D02*
X0160500Y0210189D01*
X0160500Y0209190D02*
X0155638Y0209190D01*
X0156637Y0208192D02*
X0160980Y0208192D01*
X0161978Y0207193D02*
X0157635Y0207193D01*
X0158634Y0206195D02*
X0162977Y0206195D01*
X0163975Y0205196D02*
X0159632Y0205196D01*
X0160631Y0204198D02*
X0163682Y0204198D01*
X0162684Y0203199D02*
X0161629Y0203199D01*
X0158968Y0200204D02*
X0150400Y0200204D01*
X0150400Y0199885D02*
X0148115Y0197600D01*
X0144885Y0197600D01*
X0142600Y0199885D01*
X0142600Y0203115D01*
X0144885Y0205400D01*
X0148115Y0205400D01*
X0150400Y0203115D01*
X0150400Y0199885D01*
X0149721Y0199205D02*
X0159966Y0199205D01*
X0160965Y0198207D02*
X0148722Y0198207D01*
X0150400Y0201202D02*
X0157969Y0201202D01*
X0156971Y0202201D02*
X0150400Y0202201D01*
X0150316Y0203199D02*
X0155972Y0203199D01*
X0154974Y0204198D02*
X0149318Y0204198D01*
X0148319Y0205196D02*
X0153975Y0205196D01*
X0152977Y0206195D02*
X0134023Y0206195D01*
X0133025Y0205196D02*
X0144681Y0205196D01*
X0143682Y0204198D02*
X0132026Y0204198D01*
X0131028Y0203199D02*
X0142684Y0203199D01*
X0142600Y0202201D02*
X0130400Y0202201D01*
X0130400Y0201202D02*
X0142600Y0201202D01*
X0142600Y0200204D02*
X0130400Y0200204D01*
X0129721Y0199205D02*
X0143279Y0199205D01*
X0144278Y0198207D02*
X0128722Y0198207D01*
X0125037Y0197208D02*
X0161963Y0197208D01*
X0151978Y0207193D02*
X0135022Y0207193D01*
X0136020Y0208192D02*
X0144293Y0208192D01*
X0143294Y0209190D02*
X0137019Y0209190D01*
X0138017Y0210189D02*
X0142600Y0210189D01*
X0142600Y0211187D02*
X0139016Y0211187D01*
X0140014Y0212186D02*
X0142600Y0212186D01*
X0142669Y0213184D02*
X0141013Y0213184D01*
X0142011Y0214183D02*
X0143667Y0214183D01*
X0143010Y0215181D02*
X0144666Y0215181D01*
X0144992Y0216180D02*
X0144008Y0216180D01*
X0144500Y0219500D02*
X0146500Y0221500D01*
X0149347Y0224168D02*
X0160500Y0224168D01*
X0160500Y0223170D02*
X0150346Y0223170D01*
X0150400Y0222171D02*
X0160500Y0222171D01*
X0160500Y0221172D02*
X0150400Y0221172D01*
X0150400Y0220174D02*
X0160500Y0220174D01*
X0160500Y0219175D02*
X0149691Y0219175D01*
X0148692Y0218177D02*
X0160500Y0218177D01*
X0160500Y0217178D02*
X0149650Y0217178D01*
X0150648Y0216180D02*
X0160500Y0216180D01*
X0161338Y0225167D02*
X0148349Y0225167D01*
X0144651Y0225167D02*
X0140995Y0225167D01*
X0141993Y0226165D02*
X0162337Y0226165D01*
X0163335Y0227164D02*
X0142992Y0227164D01*
X0143990Y0228162D02*
X0164334Y0228162D01*
X0165332Y0229161D02*
X0148159Y0229161D01*
X0148094Y0229134D02*
X0149803Y0229842D01*
X0151111Y0231150D01*
X0151819Y0232859D01*
X0151819Y0234708D01*
X0151111Y0236417D01*
X0149803Y0237725D01*
X0148094Y0238433D01*
X0146244Y0238433D01*
X0144535Y0237725D01*
X0143232Y0236422D01*
X0141929Y0237725D01*
X0140220Y0238433D01*
X0138370Y0238433D01*
X0136661Y0237725D01*
X0135354Y0236417D01*
X0135318Y0236331D01*
X0134968Y0236812D01*
X0134450Y0237330D01*
X0133858Y0237760D01*
X0133206Y0238092D01*
X0132510Y0238319D01*
X0131787Y0238433D01*
X0131610Y0238433D01*
X0131610Y0233973D01*
X0131232Y0233973D01*
X0131232Y0238433D01*
X0131055Y0238433D01*
X0130332Y0238319D01*
X0129636Y0238092D01*
X0128984Y0237760D01*
X0128392Y0237330D01*
X0127875Y0236812D01*
X0127525Y0236331D01*
X0127489Y0236417D01*
X0126181Y0237725D01*
X0124472Y0238433D01*
X0122622Y0238433D01*
X0120913Y0237725D01*
X0119605Y0236417D01*
X0118898Y0234708D01*
X0118898Y0232859D01*
X0119605Y0231150D01*
X0120913Y0229842D01*
X0122622Y0229134D01*
X0124472Y0229134D01*
X0126181Y0229842D01*
X0127489Y0231150D01*
X0127525Y0231236D01*
X0127875Y0230754D01*
X0128392Y0230237D01*
X0128984Y0229807D01*
X0129636Y0229475D01*
X0130332Y0229248D01*
X0131055Y0229134D01*
X0131232Y0229134D01*
X0131232Y0233594D01*
X0131610Y0233594D01*
X0131610Y0229439D01*
X0127572Y0225400D01*
X0124885Y0225400D01*
X0122600Y0223115D01*
X0122600Y0219885D01*
X0124885Y0217600D01*
X0127772Y0217600D01*
X0125572Y0215400D01*
X0124885Y0215400D01*
X0122600Y0213115D01*
X0122600Y0209885D01*
X0124885Y0207600D01*
X0128115Y0207600D01*
X0130400Y0209885D01*
X0130400Y0213115D01*
X0129672Y0213843D01*
X0145338Y0229509D01*
X0146244Y0229134D01*
X0148094Y0229134D01*
X0146180Y0229161D02*
X0144989Y0229161D01*
X0143653Y0224168D02*
X0139996Y0224168D01*
X0138998Y0223170D02*
X0142654Y0223170D01*
X0142600Y0222171D02*
X0137999Y0222171D01*
X0137001Y0221172D02*
X0142600Y0221172D01*
X0142346Y0220174D02*
X0136002Y0220174D01*
X0135004Y0219175D02*
X0141347Y0219175D01*
X0140349Y0218177D02*
X0134005Y0218177D01*
X0133007Y0217178D02*
X0139350Y0217178D01*
X0138352Y0216180D02*
X0132008Y0216180D01*
X0131010Y0215181D02*
X0137353Y0215181D01*
X0136354Y0214183D02*
X0130011Y0214183D01*
X0130331Y0213184D02*
X0135356Y0213184D01*
X0134357Y0212186D02*
X0130400Y0212186D01*
X0130400Y0211187D02*
X0133359Y0211187D01*
X0132360Y0210189D02*
X0130400Y0210189D01*
X0129706Y0209190D02*
X0131362Y0209190D01*
X0130363Y0208192D02*
X0128707Y0208192D01*
X0129365Y0207193D02*
X0075500Y0207193D01*
X0075500Y0206195D02*
X0128366Y0206195D01*
X0124681Y0205196D02*
X0075500Y0205196D01*
X0075500Y0204198D02*
X0123682Y0204198D01*
X0122684Y0203199D02*
X0075500Y0203199D01*
X0075500Y0202201D02*
X0122600Y0202201D01*
X0122600Y0201202D02*
X0075500Y0201202D01*
X0075500Y0200204D02*
X0122375Y0200204D01*
X0121377Y0199205D02*
X0075500Y0199205D01*
X0075500Y0198207D02*
X0120378Y0198207D01*
X0119380Y0197208D02*
X0075500Y0197208D01*
X0075500Y0196210D02*
X0118381Y0196210D01*
X0117383Y0195211D02*
X0075500Y0195211D01*
X0075500Y0194213D02*
X0116384Y0194213D01*
X0115386Y0193214D02*
X0075500Y0193214D01*
X0075500Y0192216D02*
X0114387Y0192216D01*
X0113389Y0191217D02*
X0075500Y0191217D01*
X0075500Y0190219D02*
X0112390Y0190219D01*
X0111392Y0189220D02*
X0075500Y0189220D01*
X0075500Y0188222D02*
X0110393Y0188222D01*
X0109395Y0187223D02*
X0075500Y0187223D01*
X0075500Y0186225D02*
X0108396Y0186225D01*
X0107398Y0185226D02*
X0075500Y0185226D01*
X0075500Y0184228D02*
X0106399Y0184228D01*
X0105401Y0183229D02*
X0075500Y0183229D01*
X0075500Y0182231D02*
X0104402Y0182231D01*
X0103404Y0181232D02*
X0075500Y0181232D01*
X0075500Y0180234D02*
X0102405Y0180234D01*
X0101407Y0179235D02*
X0075500Y0179235D01*
X0075500Y0178237D02*
X0100408Y0178237D01*
X0099410Y0177238D02*
X0075500Y0177238D01*
X0075500Y0176239D02*
X0098500Y0176239D01*
X0098500Y0175241D02*
X0075500Y0175241D01*
X0075500Y0174242D02*
X0098500Y0174242D01*
X0098500Y0173244D02*
X0075500Y0173244D01*
X0075500Y0172245D02*
X0098500Y0172245D01*
X0098500Y0171247D02*
X0075500Y0171247D01*
X0075500Y0170248D02*
X0098500Y0170248D01*
X0098922Y0169250D02*
X0075500Y0169250D01*
X0075500Y0168251D02*
X0099920Y0168251D01*
X0100919Y0167253D02*
X0075500Y0167253D01*
X0075500Y0166254D02*
X0101917Y0166254D01*
X0102916Y0165256D02*
X0075500Y0165256D01*
X0075500Y0164257D02*
X0103914Y0164257D01*
X0104913Y0163259D02*
X0075500Y0163259D01*
X0075500Y0162260D02*
X0105911Y0162260D01*
X0106910Y0161262D02*
X0075500Y0161262D01*
X0075500Y0160263D02*
X0107908Y0160263D01*
X0108907Y0159265D02*
X0075500Y0159265D01*
X0075500Y0158266D02*
X0109905Y0158266D01*
X0110904Y0157268D02*
X0075500Y0157268D01*
X0075500Y0156269D02*
X0111902Y0156269D01*
X0112901Y0155271D02*
X0075500Y0155271D01*
X0075500Y0154272D02*
X0113899Y0154272D01*
X0114898Y0153274D02*
X0075500Y0153274D01*
X0075500Y0152275D02*
X0115896Y0152275D01*
X0116895Y0151277D02*
X0075500Y0151277D01*
X0075500Y0150278D02*
X0117893Y0150278D01*
X0118892Y0149280D02*
X0075500Y0149280D01*
X0075500Y0148281D02*
X0119890Y0148281D01*
X0120889Y0147283D02*
X0075500Y0147283D01*
X0075500Y0146284D02*
X0121887Y0146284D01*
X0122886Y0145286D02*
X0075500Y0145286D01*
X0075500Y0144287D02*
X0123884Y0144287D01*
X0124460Y0143289D02*
X0075500Y0143289D01*
X0075500Y0142290D02*
X0123462Y0142290D01*
X0122463Y0141292D02*
X0075500Y0141292D01*
X0075500Y0140293D02*
X0121465Y0140293D01*
X0120466Y0139295D02*
X0079497Y0139295D01*
X0080072Y0138296D02*
X0119468Y0138296D01*
X0118469Y0137298D02*
X0080181Y0137298D01*
X0079905Y0136299D02*
X0117471Y0136299D01*
X0116472Y0135301D02*
X0079500Y0135301D01*
X0079500Y0134302D02*
X0115474Y0134302D01*
X0114475Y0133303D02*
X0079500Y0133303D01*
X0079500Y0132305D02*
X0113477Y0132305D01*
X0112478Y0131306D02*
X0079500Y0131306D01*
X0079500Y0130308D02*
X0111480Y0130308D01*
X0110481Y0129309D02*
X0079500Y0129309D01*
X0079500Y0128311D02*
X0109483Y0128311D01*
X0108484Y0127312D02*
X0079500Y0127312D01*
X0079500Y0126314D02*
X0107486Y0126314D01*
X0106487Y0125315D02*
X0083200Y0125315D01*
X0083115Y0125400D02*
X0081800Y0125400D01*
X0081800Y0121800D01*
X0085400Y0121800D01*
X0085400Y0123115D01*
X0083115Y0125400D01*
X0081800Y0125315D02*
X0081200Y0125315D01*
X0081200Y0124317D02*
X0081800Y0124317D01*
X0081800Y0123318D02*
X0081200Y0123318D01*
X0081200Y0122320D02*
X0081800Y0122320D01*
X0081800Y0121321D02*
X0102493Y0121321D01*
X0101494Y0120323D02*
X0085400Y0120323D01*
X0085400Y0119885D02*
X0085400Y0121200D01*
X0081800Y0121200D01*
X0081800Y0117600D01*
X0083115Y0117600D01*
X0085400Y0119885D01*
X0084840Y0119324D02*
X0100496Y0119324D01*
X0099497Y0118326D02*
X0083841Y0118326D01*
X0081800Y0118326D02*
X0081200Y0118326D01*
X0081200Y0119324D02*
X0081800Y0119324D01*
X0081800Y0120323D02*
X0081200Y0120323D01*
X0085400Y0122320D02*
X0103491Y0122320D01*
X0104490Y0123318D02*
X0085197Y0123318D01*
X0084199Y0124317D02*
X0105488Y0124317D01*
X0098499Y0117327D02*
X0079500Y0117327D01*
X0079500Y0116329D02*
X0097500Y0116329D01*
X0096502Y0115330D02*
X0083185Y0115330D01*
X0084184Y0114332D02*
X0095503Y0114332D01*
X0094505Y0113333D02*
X0085182Y0113333D01*
X0085400Y0112335D02*
X0093506Y0112335D01*
X0092508Y0111336D02*
X0085400Y0111336D01*
X0085491Y0110338D02*
X0091509Y0110338D01*
X0090511Y0109339D02*
X0086489Y0109339D01*
X0087488Y0108341D02*
X0089512Y0108341D01*
X0088514Y0107342D02*
X0088486Y0107342D01*
X0088500Y0104500D02*
X0081500Y0111500D01*
X0077500Y0108500D02*
X0087500Y0098500D01*
X0087500Y0092500D01*
X0111500Y0068500D01*
X0111500Y0066500D01*
X0103500Y0058500D01*
X0103500Y0038500D01*
X0106500Y0035500D01*
X0110500Y0035500D01*
X0112500Y0037500D01*
X0112500Y0040500D01*
X0116500Y0044500D01*
X0119500Y0044500D01*
X0122500Y0047500D01*
X0122500Y0050500D01*
X0129500Y0057500D01*
X0151500Y0057500D01*
X0153500Y0055500D01*
X0153500Y0054500D01*
X0157500Y0050500D01*
X0158232Y0049807D01*
X0150500Y0054500D02*
X0142500Y0054500D01*
X0138500Y0050500D01*
X0138232Y0049807D01*
X0127500Y0059500D02*
X0118500Y0050500D01*
X0118232Y0049807D01*
X0115500Y0053500D02*
X0112500Y0050500D01*
X0112500Y0044500D01*
X0108500Y0040500D01*
X0108232Y0039807D01*
X0101500Y0037500D02*
X0101500Y0066500D01*
X0095500Y0068500D02*
X0095500Y0061500D01*
X0084500Y0050500D01*
X0077500Y0057500D01*
X0077500Y0075500D01*
X0057500Y0095500D01*
X0049500Y0095500D01*
X0033500Y0111500D01*
X0033500Y0127500D01*
X0032996Y0128232D01*
X0036858Y0128311D02*
X0048500Y0128311D01*
X0048500Y0129309D02*
X0036730Y0129309D01*
X0036317Y0130308D02*
X0042269Y0130308D01*
X0042345Y0130232D02*
X0042978Y0129810D01*
X0043681Y0129519D01*
X0044427Y0129370D01*
X0044520Y0129370D01*
X0044520Y0132945D01*
X0040945Y0132945D01*
X0040945Y0132852D01*
X0041093Y0132106D01*
X0041384Y0131403D01*
X0041807Y0130770D01*
X0042345Y0130232D01*
X0041449Y0131306D02*
X0035384Y0131306D01*
X0036795Y0127312D02*
X0048500Y0127312D01*
X0048500Y0126314D02*
X0036382Y0126314D01*
X0035541Y0125315D02*
X0048500Y0125315D01*
X0048500Y0124317D02*
X0035500Y0124317D01*
X0035500Y0123318D02*
X0048500Y0123318D01*
X0048500Y0122320D02*
X0035500Y0122320D01*
X0035500Y0121321D02*
X0048500Y0121321D01*
X0048500Y0120323D02*
X0035500Y0120323D01*
X0035500Y0119324D02*
X0041247Y0119324D01*
X0041577Y0119654D02*
X0037008Y0115085D01*
X0037008Y0112354D01*
X0044307Y0112354D01*
X0044307Y0119654D01*
X0041577Y0119654D01*
X0040249Y0118326D02*
X0035500Y0118326D01*
X0035500Y0117327D02*
X0039250Y0117327D01*
X0038252Y0116329D02*
X0035500Y0116329D01*
X0035500Y0115330D02*
X0037253Y0115330D01*
X0037008Y0114332D02*
X0035500Y0114332D01*
X0035500Y0113333D02*
X0037008Y0113333D01*
X0035500Y0112335D02*
X0044307Y0112335D01*
X0044500Y0112500D02*
X0044807Y0111854D01*
X0045307Y0112335D02*
X0052837Y0112335D01*
X0052606Y0111336D02*
X0053835Y0111336D01*
X0054834Y0110338D02*
X0052606Y0110338D01*
X0052606Y0109339D02*
X0055832Y0109339D01*
X0056831Y0108341D02*
X0052323Y0108341D01*
X0051325Y0107342D02*
X0057829Y0107342D01*
X0058828Y0106344D02*
X0050326Y0106344D01*
X0049328Y0105345D02*
X0059826Y0105345D01*
X0060825Y0104347D02*
X0048329Y0104347D01*
X0045307Y0104347D02*
X0044307Y0104347D01*
X0044307Y0105345D02*
X0045307Y0105345D01*
X0045307Y0106344D02*
X0044307Y0106344D01*
X0044307Y0107342D02*
X0045307Y0107342D01*
X0045307Y0108341D02*
X0044307Y0108341D01*
X0044307Y0109339D02*
X0045307Y0109339D01*
X0045307Y0110338D02*
X0044307Y0110338D01*
X0044307Y0111336D02*
X0045307Y0111336D01*
X0044500Y0112500D02*
X0044500Y0132500D01*
X0044807Y0133232D01*
X0044500Y0133500D01*
X0040500Y0137500D01*
X0040500Y0174500D01*
X0044807Y0174610D01*
X0044500Y0174500D01*
X0040500Y0174500D01*
X0021500Y0174500D01*
X0021185Y0174610D01*
X0020685Y0174242D02*
X0003968Y0174242D01*
X0003968Y0173244D02*
X0013386Y0173244D01*
X0013386Y0174110D02*
X0013386Y0171380D01*
X0017955Y0166811D01*
X0020685Y0166811D01*
X0020685Y0174110D01*
X0021685Y0174110D01*
X0021685Y0166811D01*
X0024416Y0166811D01*
X0028984Y0171380D01*
X0028984Y0174110D01*
X0021685Y0174110D01*
X0021685Y0175110D01*
X0028984Y0175110D01*
X0028984Y0177841D01*
X0024416Y0182409D01*
X0021685Y0182409D01*
X0021685Y0175110D01*
X0020685Y0175110D01*
X0020685Y0174110D01*
X0013386Y0174110D01*
X0013386Y0175110D02*
X0020685Y0175110D01*
X0020685Y0182409D01*
X0017955Y0182409D01*
X0013386Y0177841D01*
X0013386Y0175110D01*
X0013386Y0175241D02*
X0003968Y0175241D01*
X0003968Y0176239D02*
X0013386Y0176239D01*
X0013386Y0177238D02*
X0003968Y0177238D01*
X0003968Y0178237D02*
X0013782Y0178237D01*
X0014780Y0179235D02*
X0003968Y0179235D01*
X0003968Y0180234D02*
X0015779Y0180234D01*
X0016777Y0181232D02*
X0003968Y0181232D01*
X0003968Y0182231D02*
X0017776Y0182231D01*
X0020685Y0182231D02*
X0021685Y0182231D01*
X0021685Y0181232D02*
X0020685Y0181232D01*
X0020685Y0180234D02*
X0021685Y0180234D01*
X0021685Y0179235D02*
X0020685Y0179235D01*
X0020685Y0178237D02*
X0021685Y0178237D01*
X0021685Y0177238D02*
X0020685Y0177238D01*
X0020685Y0176239D02*
X0021685Y0176239D01*
X0021685Y0175241D02*
X0020685Y0175241D01*
X0021685Y0174242D02*
X0044307Y0174242D01*
X0044307Y0174110D02*
X0037008Y0174110D01*
X0037008Y0171380D01*
X0041577Y0166811D01*
X0044307Y0166811D01*
X0044307Y0174110D01*
X0045307Y0174110D01*
X0045307Y0166811D01*
X0048038Y0166811D01*
X0052606Y0171380D01*
X0052606Y0174110D01*
X0045307Y0174110D01*
X0045307Y0175110D01*
X0052606Y0175110D01*
X0052606Y0177841D01*
X0048038Y0182409D01*
X0045307Y0182409D01*
X0045307Y0175110D01*
X0044307Y0175110D01*
X0044307Y0174110D01*
X0044307Y0173244D02*
X0045307Y0173244D01*
X0045307Y0174242D02*
X0067500Y0174242D01*
X0067500Y0173244D02*
X0052606Y0173244D01*
X0052606Y0172245D02*
X0067500Y0172245D01*
X0067500Y0171247D02*
X0052474Y0171247D01*
X0051475Y0170248D02*
X0067500Y0170248D01*
X0067500Y0169250D02*
X0050476Y0169250D01*
X0049478Y0168251D02*
X0067500Y0168251D01*
X0067500Y0167253D02*
X0048479Y0167253D01*
X0045307Y0167253D02*
X0044307Y0167253D01*
X0044307Y0168251D02*
X0045307Y0168251D01*
X0045307Y0169250D02*
X0044307Y0169250D01*
X0044307Y0170248D02*
X0045307Y0170248D01*
X0045307Y0171247D02*
X0044307Y0171247D01*
X0044307Y0172245D02*
X0045307Y0172245D01*
X0045307Y0175241D02*
X0044307Y0175241D01*
X0044307Y0175110D02*
X0044307Y0182409D01*
X0041577Y0182409D01*
X0037008Y0177841D01*
X0037008Y0175110D01*
X0044307Y0175110D01*
X0044307Y0176239D02*
X0045307Y0176239D01*
X0045307Y0177238D02*
X0044307Y0177238D01*
X0044307Y0178237D02*
X0045307Y0178237D01*
X0045307Y0179235D02*
X0044307Y0179235D01*
X0044307Y0180234D02*
X0045307Y0180234D01*
X0045307Y0181232D02*
X0044307Y0181232D01*
X0044307Y0182231D02*
X0045307Y0182231D01*
X0048216Y0182231D02*
X0067500Y0182231D01*
X0067500Y0183229D02*
X0003968Y0183229D01*
X0003968Y0184228D02*
X0067500Y0184228D01*
X0067500Y0185226D02*
X0003968Y0185226D01*
X0003968Y0186225D02*
X0067500Y0186225D01*
X0067500Y0187223D02*
X0003968Y0187223D01*
X0003968Y0188222D02*
X0067500Y0188222D01*
X0067500Y0189220D02*
X0003968Y0189220D01*
X0003968Y0190219D02*
X0067500Y0190219D01*
X0067500Y0191217D02*
X0003968Y0191217D01*
X0003968Y0192216D02*
X0050908Y0192216D01*
X0052512Y0191551D02*
X0049289Y0192886D01*
X0046823Y0195352D01*
X0045488Y0198575D01*
X0045488Y0202063D01*
X0046823Y0205285D01*
X0049289Y0207752D01*
X0052512Y0209087D01*
X0056000Y0209087D01*
X0059222Y0207752D01*
X0061689Y0205285D01*
X0063024Y0202063D01*
X0063024Y0198575D01*
X0061689Y0195352D01*
X0059222Y0192886D01*
X0056000Y0191551D01*
X0052512Y0191551D01*
X0048961Y0193214D02*
X0036697Y0193214D01*
X0037517Y0193554D02*
X0034583Y0192339D01*
X0031409Y0192339D01*
X0028476Y0193554D01*
X0026231Y0195798D01*
X0025016Y0198732D01*
X0025016Y0201906D01*
X0026231Y0204839D01*
X0028476Y0207084D01*
X0031409Y0208299D01*
X0034583Y0208299D01*
X0037517Y0207084D01*
X0039761Y0204839D01*
X0040976Y0201906D01*
X0040976Y0198732D01*
X0039761Y0195798D01*
X0037517Y0193554D01*
X0038176Y0194213D02*
X0047963Y0194213D01*
X0046964Y0195211D02*
X0039174Y0195211D01*
X0039932Y0196210D02*
X0046468Y0196210D01*
X0046054Y0197208D02*
X0040345Y0197208D01*
X0040759Y0198207D02*
X0045641Y0198207D01*
X0045488Y0199205D02*
X0040976Y0199205D01*
X0040976Y0200204D02*
X0045488Y0200204D01*
X0045488Y0201202D02*
X0040976Y0201202D01*
X0040854Y0202201D02*
X0045545Y0202201D01*
X0045959Y0203199D02*
X0040441Y0203199D01*
X0040027Y0204198D02*
X0046373Y0204198D01*
X0046786Y0205196D02*
X0039405Y0205196D01*
X0038406Y0206195D02*
X0047732Y0206195D01*
X0048731Y0207193D02*
X0037253Y0207193D01*
X0034843Y0208192D02*
X0050352Y0208192D01*
X0058160Y0208192D02*
X0067500Y0208192D01*
X0067500Y0209190D02*
X0003968Y0209190D01*
X0003968Y0208192D02*
X0031149Y0208192D01*
X0028739Y0207193D02*
X0003968Y0207193D01*
X0003968Y0206195D02*
X0027586Y0206195D01*
X0026588Y0205196D02*
X0003968Y0205196D01*
X0003968Y0204198D02*
X0025965Y0204198D01*
X0025551Y0203199D02*
X0003968Y0203199D01*
X0003968Y0202201D02*
X0025138Y0202201D01*
X0025016Y0201202D02*
X0003968Y0201202D01*
X0003968Y0200204D02*
X0025016Y0200204D01*
X0025016Y0199205D02*
X0003968Y0199205D01*
X0003968Y0198207D02*
X0025233Y0198207D01*
X0025647Y0197208D02*
X0003968Y0197208D01*
X0003968Y0196210D02*
X0026060Y0196210D01*
X0026818Y0195211D02*
X0003968Y0195211D01*
X0003968Y0194213D02*
X0027816Y0194213D01*
X0029295Y0193214D02*
X0003968Y0193214D01*
X0003968Y0210189D02*
X0067500Y0210189D01*
X0067500Y0211187D02*
X0003968Y0211187D01*
X0003968Y0212186D02*
X0067500Y0212186D01*
X0067500Y0213184D02*
X0003968Y0213184D01*
X0003968Y0214183D02*
X0067500Y0214183D01*
X0067500Y0215181D02*
X0003968Y0215181D01*
X0003968Y0216180D02*
X0067500Y0216180D01*
X0067500Y0217178D02*
X0003968Y0217178D01*
X0003968Y0218177D02*
X0067865Y0218177D01*
X0068519Y0219175D02*
X0003968Y0219175D01*
X0003968Y0220174D02*
X0069917Y0220174D01*
X0075500Y0212186D02*
X0122600Y0212186D01*
X0122600Y0211187D02*
X0075500Y0211187D01*
X0075500Y0210189D02*
X0122600Y0210189D01*
X0123294Y0209190D02*
X0075500Y0209190D01*
X0075500Y0208192D02*
X0124293Y0208192D01*
X0126500Y0211500D02*
X0126500Y0213500D01*
X0146500Y0233500D01*
X0147169Y0233783D01*
X0143959Y0237149D02*
X0142506Y0237149D01*
X0140910Y0238147D02*
X0145554Y0238147D01*
X0148784Y0238147D02*
X0165239Y0238147D01*
X0163644Y0237149D02*
X0150380Y0237149D01*
X0151222Y0236150D02*
X0162802Y0236150D01*
X0162388Y0235152D02*
X0151635Y0235152D01*
X0151819Y0234153D02*
X0162205Y0234153D01*
X0162205Y0233155D02*
X0151819Y0233155D01*
X0151528Y0232156D02*
X0162496Y0232156D01*
X0162909Y0231158D02*
X0151114Y0231158D01*
X0150120Y0230159D02*
X0163903Y0230159D01*
X0149981Y0209190D02*
X0149706Y0209190D01*
X0148707Y0208192D02*
X0150980Y0208192D01*
X0130334Y0228162D02*
X0100500Y0228162D01*
X0100500Y0227164D02*
X0129335Y0227164D01*
X0128337Y0226165D02*
X0100500Y0226165D01*
X0100500Y0225167D02*
X0124651Y0225167D01*
X0123653Y0224168D02*
X0100500Y0224168D01*
X0100500Y0223170D02*
X0122654Y0223170D01*
X0122600Y0222171D02*
X0100500Y0222171D01*
X0100500Y0221172D02*
X0122600Y0221172D01*
X0122600Y0220174D02*
X0108341Y0220174D01*
X0108115Y0220400D02*
X0106800Y0220400D01*
X0106800Y0216800D01*
X0110400Y0216800D01*
X0110400Y0218115D01*
X0108115Y0220400D01*
X0106800Y0220174D02*
X0106200Y0220174D01*
X0106200Y0220400D02*
X0104885Y0220400D01*
X0102600Y0218115D01*
X0102600Y0216800D01*
X0106200Y0216800D01*
X0106200Y0220400D01*
X0106200Y0219175D02*
X0106800Y0219175D01*
X0106800Y0218177D02*
X0106200Y0218177D01*
X0106200Y0217178D02*
X0106800Y0217178D01*
X0106800Y0216800D02*
X0106200Y0216800D01*
X0106200Y0216200D01*
X0106800Y0216200D01*
X0106800Y0216800D01*
X0106500Y0216500D02*
X0106500Y0228500D01*
X0125500Y0228500D01*
X0130500Y0233500D01*
X0131421Y0233783D01*
X0131500Y0234500D01*
X0135500Y0238500D01*
X0213500Y0238500D01*
X0217500Y0234500D01*
X0217846Y0234153D02*
X0218224Y0234153D01*
X0218224Y0233155D02*
X0217846Y0233155D01*
X0217846Y0232156D02*
X0218224Y0232156D01*
X0218224Y0231158D02*
X0217846Y0231158D01*
X0217846Y0230159D02*
X0218224Y0230159D01*
X0218224Y0229161D02*
X0217846Y0229161D01*
X0215114Y0230159D02*
X0213113Y0230159D01*
X0214106Y0231158D02*
X0214196Y0231158D01*
X0214825Y0237149D02*
X0213372Y0237149D01*
X0211776Y0238147D02*
X0216419Y0238147D01*
X0221246Y0237149D02*
X0258132Y0237149D01*
X0257290Y0236150D02*
X0222048Y0236150D01*
X0222480Y0235152D02*
X0256877Y0235152D01*
X0256693Y0234153D02*
X0222684Y0234153D01*
X0222643Y0233155D02*
X0256693Y0233155D01*
X0256984Y0232156D02*
X0222396Y0232156D01*
X0221875Y0231158D02*
X0257397Y0231158D01*
X0258391Y0230159D02*
X0220957Y0230159D01*
X0228500Y0223500D02*
X0232500Y0223500D01*
X0239500Y0216500D01*
X0241500Y0216500D01*
X0248500Y0223500D01*
X0252500Y0223500D01*
X0252500Y0233500D01*
X0260500Y0241500D01*
X0261343Y0241657D01*
X0252500Y0223500D02*
X0259500Y0216500D01*
X0261500Y0216500D01*
X0261800Y0216800D02*
X0265400Y0216800D01*
X0265400Y0219284D01*
X0265250Y0220038D01*
X0264956Y0220747D01*
X0264529Y0221386D01*
X0263986Y0221929D01*
X0263347Y0222356D01*
X0262638Y0222650D01*
X0261884Y0222800D01*
X0261800Y0222800D01*
X0261800Y0216800D01*
X0261800Y0216200D01*
X0265400Y0216200D01*
X0265400Y0213716D01*
X0265250Y0212962D01*
X0264956Y0212253D01*
X0264529Y0211614D01*
X0263986Y0211071D01*
X0263347Y0210644D01*
X0262638Y0210350D01*
X0261884Y0210200D01*
X0261800Y0210200D01*
X0261800Y0216200D01*
X0261200Y0216200D01*
X0261200Y0210200D01*
X0261116Y0210200D01*
X0260362Y0210350D01*
X0259653Y0210644D01*
X0259014Y0211071D01*
X0258471Y0211614D01*
X0258044Y0212253D01*
X0257750Y0212962D01*
X0257600Y0213716D01*
X0257600Y0216200D01*
X0261200Y0216200D01*
X0261200Y0216800D01*
X0261200Y0222800D01*
X0261116Y0222800D01*
X0260362Y0222650D01*
X0259653Y0222356D01*
X0259014Y0221929D01*
X0258471Y0221386D01*
X0258044Y0220747D01*
X0257750Y0220038D01*
X0257600Y0219284D01*
X0257600Y0216800D01*
X0261200Y0216800D01*
X0261800Y0216800D01*
X0261800Y0217178D02*
X0261200Y0217178D01*
X0261200Y0216180D02*
X0261800Y0216180D01*
X0261800Y0215181D02*
X0261200Y0215181D01*
X0261200Y0214183D02*
X0261800Y0214183D01*
X0261800Y0213184D02*
X0261200Y0213184D01*
X0261200Y0212186D02*
X0261800Y0212186D01*
X0261800Y0211187D02*
X0261200Y0211187D01*
X0258897Y0211187D02*
X0254103Y0211187D01*
X0253709Y0210794D02*
X0254806Y0211891D01*
X0255400Y0213324D01*
X0255400Y0219676D01*
X0254806Y0221109D01*
X0253709Y0222206D01*
X0252276Y0222800D01*
X0250724Y0222800D01*
X0249291Y0222206D01*
X0248194Y0221109D01*
X0247600Y0219676D01*
X0247600Y0213324D01*
X0248194Y0211891D01*
X0249291Y0210794D01*
X0250724Y0210200D01*
X0252276Y0210200D01*
X0253709Y0210794D01*
X0254928Y0212186D02*
X0258088Y0212186D01*
X0257706Y0213184D02*
X0255342Y0213184D01*
X0255400Y0214183D02*
X0257600Y0214183D01*
X0257600Y0215181D02*
X0255400Y0215181D01*
X0255400Y0216180D02*
X0257600Y0216180D01*
X0257600Y0217178D02*
X0255400Y0217178D01*
X0255400Y0218177D02*
X0257600Y0218177D01*
X0257600Y0219175D02*
X0255400Y0219175D01*
X0255194Y0220174D02*
X0257806Y0220174D01*
X0258328Y0221172D02*
X0254743Y0221172D01*
X0253744Y0222171D02*
X0259376Y0222171D01*
X0261200Y0222171D02*
X0261800Y0222171D01*
X0261800Y0221172D02*
X0261200Y0221172D01*
X0261200Y0220174D02*
X0261800Y0220174D01*
X0261800Y0219175D02*
X0261200Y0219175D01*
X0261200Y0218177D02*
X0261800Y0218177D01*
X0265400Y0218177D02*
X0267600Y0218177D01*
X0267600Y0219175D02*
X0265400Y0219175D01*
X0265194Y0220174D02*
X0267806Y0220174D01*
X0268257Y0221172D02*
X0264672Y0221172D01*
X0263624Y0222171D02*
X0269256Y0222171D01*
X0267600Y0217178D02*
X0265400Y0217178D01*
X0265400Y0216180D02*
X0267600Y0216180D01*
X0267600Y0215181D02*
X0265400Y0215181D01*
X0265400Y0214183D02*
X0267600Y0214183D01*
X0267658Y0213184D02*
X0265294Y0213184D01*
X0264912Y0212186D02*
X0268072Y0212186D01*
X0268897Y0211187D02*
X0264103Y0211187D01*
X0249256Y0222171D02*
X0243624Y0222171D01*
X0243347Y0222356D02*
X0243986Y0221929D01*
X0244529Y0221386D01*
X0244956Y0220747D01*
X0245250Y0220038D01*
X0245400Y0219284D01*
X0245400Y0216800D01*
X0241800Y0216800D01*
X0241800Y0216200D01*
X0245400Y0216200D01*
X0245400Y0213716D01*
X0245250Y0212962D01*
X0244956Y0212253D01*
X0244529Y0211614D01*
X0243986Y0211071D01*
X0243347Y0210644D01*
X0242638Y0210350D01*
X0241884Y0210200D01*
X0241800Y0210200D01*
X0241800Y0216200D01*
X0241200Y0216200D01*
X0241200Y0210200D01*
X0241116Y0210200D01*
X0240362Y0210350D01*
X0239653Y0210644D01*
X0239014Y0211071D01*
X0238471Y0211614D01*
X0238044Y0212253D01*
X0237750Y0212962D01*
X0237600Y0213716D01*
X0237600Y0216200D01*
X0241200Y0216200D01*
X0241200Y0216800D01*
X0241200Y0222800D01*
X0241116Y0222800D01*
X0240362Y0222650D01*
X0239653Y0222356D01*
X0239014Y0221929D01*
X0238471Y0221386D01*
X0238044Y0220747D01*
X0237750Y0220038D01*
X0237600Y0219284D01*
X0237600Y0216800D01*
X0241200Y0216800D01*
X0241800Y0216800D01*
X0241800Y0222800D01*
X0241884Y0222800D01*
X0242638Y0222650D01*
X0243347Y0222356D01*
X0241800Y0222171D02*
X0241200Y0222171D01*
X0241200Y0221172D02*
X0241800Y0221172D01*
X0241800Y0220174D02*
X0241200Y0220174D01*
X0241200Y0219175D02*
X0241800Y0219175D01*
X0241800Y0218177D02*
X0241200Y0218177D01*
X0241200Y0217178D02*
X0241800Y0217178D01*
X0241800Y0216180D02*
X0241200Y0216180D01*
X0241200Y0215181D02*
X0241800Y0215181D01*
X0241800Y0214183D02*
X0241200Y0214183D01*
X0241200Y0213184D02*
X0241800Y0213184D01*
X0241800Y0212186D02*
X0241200Y0212186D01*
X0241200Y0211187D02*
X0241800Y0211187D01*
X0244103Y0211187D02*
X0248897Y0211187D01*
X0248072Y0212186D02*
X0244912Y0212186D01*
X0245294Y0213184D02*
X0247658Y0213184D01*
X0247600Y0214183D02*
X0245400Y0214183D01*
X0245400Y0215181D02*
X0247600Y0215181D01*
X0247600Y0216180D02*
X0245400Y0216180D01*
X0245400Y0217178D02*
X0247600Y0217178D01*
X0247600Y0218177D02*
X0245400Y0218177D01*
X0245400Y0219175D02*
X0247600Y0219175D01*
X0247806Y0220174D02*
X0245194Y0220174D01*
X0244672Y0221172D02*
X0248257Y0221172D01*
X0239376Y0222171D02*
X0233744Y0222171D01*
X0234743Y0221172D02*
X0238328Y0221172D01*
X0237806Y0220174D02*
X0235194Y0220174D01*
X0235400Y0219175D02*
X0237600Y0219175D01*
X0237600Y0218177D02*
X0235400Y0218177D01*
X0235400Y0217178D02*
X0237600Y0217178D01*
X0237600Y0216180D02*
X0235400Y0216180D01*
X0235400Y0215181D02*
X0237600Y0215181D01*
X0237600Y0214183D02*
X0235400Y0214183D01*
X0235342Y0213184D02*
X0237706Y0213184D01*
X0238088Y0212186D02*
X0234928Y0212186D01*
X0234103Y0211187D02*
X0238897Y0211187D01*
X0208546Y0238147D02*
X0192091Y0238147D01*
X0139295Y0233783D02*
X0138500Y0233500D01*
X0126500Y0221500D01*
X0123309Y0219175D02*
X0109340Y0219175D01*
X0110338Y0218177D02*
X0124308Y0218177D01*
X0126352Y0216180D02*
X0110400Y0216180D01*
X0110400Y0216200D02*
X0106800Y0216200D01*
X0106800Y0212600D01*
X0108115Y0212600D01*
X0110400Y0214885D01*
X0110400Y0216200D01*
X0110400Y0217178D02*
X0127350Y0217178D01*
X0124666Y0215181D02*
X0110400Y0215181D01*
X0109698Y0214183D02*
X0123667Y0214183D01*
X0122669Y0213184D02*
X0108700Y0213184D01*
X0106800Y0213184D02*
X0106200Y0213184D01*
X0106200Y0212600D02*
X0106200Y0216200D01*
X0102600Y0216200D01*
X0102600Y0214885D01*
X0104885Y0212600D01*
X0106200Y0212600D01*
X0106200Y0214183D02*
X0106800Y0214183D01*
X0106800Y0215181D02*
X0106200Y0215181D01*
X0106200Y0216180D02*
X0106800Y0216180D01*
X0104300Y0213184D02*
X0098841Y0213184D01*
X0099840Y0214183D02*
X0103302Y0214183D01*
X0102600Y0215181D02*
X0100400Y0215181D01*
X0100500Y0216180D02*
X0102600Y0216180D01*
X0102600Y0217178D02*
X0100500Y0217178D01*
X0100500Y0218177D02*
X0102662Y0218177D01*
X0103660Y0219175D02*
X0100500Y0219175D01*
X0100500Y0220174D02*
X0104659Y0220174D01*
X0106500Y0228500D02*
X0106500Y0231500D01*
X0104500Y0233500D01*
X0103862Y0233783D01*
X0103673Y0234153D02*
X0104051Y0234153D01*
X0104051Y0233155D02*
X0103673Y0233155D01*
X0103673Y0232156D02*
X0104051Y0232156D01*
X0104051Y0231158D02*
X0103673Y0231158D01*
X0103673Y0230159D02*
X0104051Y0230159D01*
X0104051Y0229161D02*
X0103673Y0229161D01*
X0103328Y0229161D02*
X0100500Y0229161D01*
X0100500Y0230159D02*
X0100940Y0230159D01*
X0104397Y0229161D02*
X0122558Y0229161D01*
X0124537Y0229161D02*
X0130887Y0229161D01*
X0131232Y0229161D02*
X0131332Y0229161D01*
X0131232Y0230159D02*
X0131610Y0230159D01*
X0131610Y0231158D02*
X0131232Y0231158D01*
X0131232Y0232156D02*
X0131610Y0232156D01*
X0131610Y0233155D02*
X0131232Y0233155D01*
X0131232Y0234153D02*
X0131610Y0234153D01*
X0131610Y0235152D02*
X0131232Y0235152D01*
X0131232Y0236150D02*
X0131610Y0236150D01*
X0131610Y0237149D02*
X0131232Y0237149D01*
X0131232Y0238147D02*
X0131610Y0238147D01*
X0133038Y0238147D02*
X0137680Y0238147D01*
X0136085Y0237149D02*
X0134632Y0237149D01*
X0129805Y0238147D02*
X0125162Y0238147D01*
X0126758Y0237149D02*
X0128211Y0237149D01*
X0127582Y0231158D02*
X0127492Y0231158D01*
X0126498Y0230159D02*
X0128499Y0230159D01*
X0120596Y0230159D02*
X0106784Y0230159D01*
X0107702Y0231158D02*
X0119602Y0231158D01*
X0119189Y0232156D02*
X0108222Y0232156D01*
X0108470Y0233155D02*
X0118898Y0233155D01*
X0118898Y0234153D02*
X0108511Y0234153D01*
X0108307Y0235152D02*
X0119081Y0235152D01*
X0119495Y0236150D02*
X0107875Y0236150D01*
X0107073Y0237149D02*
X0120337Y0237149D01*
X0121932Y0238147D02*
X0105478Y0238147D01*
X0104051Y0238147D02*
X0103673Y0238147D01*
X0103673Y0237149D02*
X0104051Y0237149D01*
X0104051Y0236150D02*
X0103673Y0236150D01*
X0103673Y0235152D02*
X0104051Y0235152D01*
X0102246Y0238147D02*
X0097603Y0238147D01*
X0099198Y0237149D02*
X0100652Y0237149D01*
X0094373Y0238147D02*
X0003968Y0238147D01*
X0003968Y0237149D02*
X0092778Y0237149D01*
X0091936Y0236150D02*
X0003968Y0236150D01*
X0003968Y0235152D02*
X0091522Y0235152D01*
X0091339Y0234153D02*
X0003968Y0234153D01*
X0003968Y0233155D02*
X0091339Y0233155D01*
X0091630Y0232156D02*
X0003968Y0232156D01*
X0003968Y0231158D02*
X0092043Y0231158D01*
X0092500Y0230159D02*
X0003968Y0230159D01*
X0003968Y0229161D02*
X0092500Y0229161D01*
X0092500Y0228162D02*
X0003968Y0228162D01*
X0003968Y0227164D02*
X0092500Y0227164D01*
X0092500Y0226165D02*
X0003968Y0226165D01*
X0003968Y0225167D02*
X0092500Y0225167D01*
X0092500Y0224168D02*
X0003968Y0224168D01*
X0003968Y0223170D02*
X0092500Y0223170D01*
X0092500Y0222171D02*
X0003968Y0222171D01*
X0003968Y0221172D02*
X0092500Y0221172D01*
X0067500Y0207193D02*
X0059781Y0207193D01*
X0060779Y0206195D02*
X0067500Y0206195D01*
X0067500Y0205196D02*
X0061726Y0205196D01*
X0062139Y0204198D02*
X0067500Y0204198D01*
X0067500Y0203199D02*
X0062553Y0203199D01*
X0062967Y0202201D02*
X0067500Y0202201D01*
X0067500Y0201202D02*
X0063024Y0201202D01*
X0063024Y0200204D02*
X0067500Y0200204D01*
X0067500Y0199205D02*
X0063024Y0199205D01*
X0062871Y0198207D02*
X0067500Y0198207D01*
X0067500Y0197208D02*
X0062458Y0197208D01*
X0062044Y0196210D02*
X0067500Y0196210D01*
X0067500Y0195211D02*
X0061548Y0195211D01*
X0060549Y0194213D02*
X0067500Y0194213D01*
X0067500Y0193214D02*
X0059551Y0193214D01*
X0057604Y0192216D02*
X0067500Y0192216D01*
X0067500Y0181232D02*
X0049215Y0181232D01*
X0050214Y0180234D02*
X0067500Y0180234D01*
X0067500Y0179235D02*
X0051212Y0179235D01*
X0052211Y0178237D02*
X0067500Y0178237D01*
X0067500Y0177238D02*
X0052606Y0177238D01*
X0052606Y0176239D02*
X0067500Y0176239D01*
X0067500Y0175241D02*
X0052606Y0175241D01*
X0041398Y0182231D02*
X0024594Y0182231D01*
X0025593Y0181232D02*
X0040399Y0181232D01*
X0039401Y0180234D02*
X0026591Y0180234D01*
X0027590Y0179235D02*
X0038402Y0179235D01*
X0037404Y0178237D02*
X0028588Y0178237D01*
X0028984Y0177238D02*
X0037008Y0177238D01*
X0037008Y0176239D02*
X0028984Y0176239D01*
X0028984Y0175241D02*
X0037008Y0175241D01*
X0037008Y0173244D02*
X0028984Y0173244D01*
X0028984Y0172245D02*
X0037008Y0172245D01*
X0037141Y0171247D02*
X0028851Y0171247D01*
X0027853Y0170248D02*
X0038139Y0170248D01*
X0039138Y0169250D02*
X0026854Y0169250D01*
X0025856Y0168251D02*
X0040136Y0168251D01*
X0041135Y0167253D02*
X0024857Y0167253D01*
X0021685Y0167253D02*
X0020685Y0167253D01*
X0020685Y0168251D02*
X0021685Y0168251D01*
X0021685Y0169250D02*
X0020685Y0169250D01*
X0020685Y0170248D02*
X0021685Y0170248D01*
X0021685Y0171247D02*
X0020685Y0171247D01*
X0020685Y0172245D02*
X0021685Y0172245D01*
X0021685Y0173244D02*
X0020685Y0173244D01*
X0016514Y0168251D02*
X0003968Y0168251D01*
X0003968Y0167253D02*
X0017513Y0167253D01*
X0015516Y0169250D02*
X0003968Y0169250D01*
X0003968Y0170248D02*
X0014517Y0170248D01*
X0013519Y0171247D02*
X0003968Y0171247D01*
X0003968Y0172245D02*
X0013386Y0172245D01*
X0003968Y0166254D02*
X0067500Y0166254D01*
X0067500Y0165256D02*
X0003968Y0165256D01*
X0003968Y0164257D02*
X0067500Y0164257D01*
X0067500Y0163259D02*
X0003968Y0163259D01*
X0003968Y0162260D02*
X0067500Y0162260D01*
X0067500Y0161262D02*
X0059051Y0161262D01*
X0058806Y0161506D02*
X0057386Y0162094D01*
X0055850Y0162094D01*
X0054430Y0161506D01*
X0053344Y0160420D01*
X0052756Y0159001D01*
X0052756Y0157464D01*
X0053344Y0156045D01*
X0054430Y0154958D01*
X0055850Y0154370D01*
X0057386Y0154370D01*
X0058806Y0154958D01*
X0059892Y0156045D01*
X0060480Y0157464D01*
X0060480Y0159001D01*
X0059892Y0160420D01*
X0058806Y0161506D01*
X0059957Y0160263D02*
X0067500Y0160263D01*
X0067500Y0159265D02*
X0060371Y0159265D01*
X0060480Y0158266D02*
X0067500Y0158266D01*
X0067500Y0157268D02*
X0060399Y0157268D01*
X0059985Y0156269D02*
X0067500Y0156269D01*
X0067500Y0155271D02*
X0059119Y0155271D01*
X0057386Y0152094D02*
X0055850Y0152094D01*
X0054430Y0151506D01*
X0053344Y0150420D01*
X0052756Y0149001D01*
X0052756Y0147464D01*
X0053344Y0146045D01*
X0054430Y0144958D01*
X0055850Y0144370D01*
X0057386Y0144370D01*
X0058806Y0144958D01*
X0059892Y0146045D01*
X0060480Y0147464D01*
X0060480Y0149001D01*
X0059892Y0150420D01*
X0058806Y0151506D01*
X0057386Y0152094D01*
X0059036Y0151277D02*
X0067500Y0151277D01*
X0067500Y0152275D02*
X0048591Y0152275D01*
X0048669Y0152464D02*
X0048081Y0151045D01*
X0046995Y0149958D01*
X0045575Y0149370D01*
X0044039Y0149370D01*
X0042619Y0149958D01*
X0041533Y0151045D01*
X0040945Y0152464D01*
X0040945Y0154001D01*
X0041533Y0155420D01*
X0042619Y0156506D01*
X0044039Y0157094D01*
X0045575Y0157094D01*
X0046995Y0156506D01*
X0048081Y0155420D01*
X0048669Y0154001D01*
X0048669Y0152464D01*
X0048669Y0153274D02*
X0067500Y0153274D01*
X0067500Y0154272D02*
X0048557Y0154272D01*
X0048143Y0155271D02*
X0054118Y0155271D01*
X0053251Y0156269D02*
X0047232Y0156269D01*
X0042382Y0156269D02*
X0036363Y0156269D01*
X0036777Y0157268D02*
X0052837Y0157268D01*
X0052756Y0158266D02*
X0036858Y0158266D01*
X0036749Y0159265D02*
X0052865Y0159265D01*
X0053279Y0160263D02*
X0036335Y0160263D01*
X0035429Y0161262D02*
X0054186Y0161262D01*
X0054201Y0151277D02*
X0048177Y0151277D01*
X0047315Y0150278D02*
X0053285Y0150278D01*
X0052872Y0149280D02*
X0036743Y0149280D01*
X0036858Y0148281D02*
X0052756Y0148281D01*
X0052831Y0147283D02*
X0036783Y0147283D01*
X0036370Y0146284D02*
X0042397Y0146284D01*
X0041477Y0145286D02*
X0035511Y0145286D01*
X0035399Y0141292D02*
X0041431Y0141292D01*
X0041017Y0142290D02*
X0030500Y0142290D01*
X0030500Y0141292D02*
X0030593Y0141292D01*
X0030500Y0143289D02*
X0040945Y0143289D01*
X0041064Y0144287D02*
X0030500Y0144287D01*
X0026500Y0144287D02*
X0024929Y0144287D01*
X0025047Y0144001D02*
X0024459Y0145420D01*
X0023373Y0146506D01*
X0021953Y0147094D01*
X0021923Y0147094D01*
X0022500Y0147672D01*
X0022500Y0149597D01*
X0023373Y0149958D01*
X0024459Y0151045D01*
X0025047Y0152464D01*
X0025047Y0154001D01*
X0024459Y0155420D01*
X0023373Y0156506D01*
X0021953Y0157094D01*
X0020417Y0157094D01*
X0018997Y0156506D01*
X0017911Y0155420D01*
X0017323Y0154001D01*
X0017323Y0152464D01*
X0017911Y0151045D01*
X0018500Y0150455D01*
X0018500Y0149328D01*
X0011672Y0142500D01*
X0010500Y0141328D01*
X0010500Y0111292D01*
X0010227Y0111019D01*
X0009819Y0110033D01*
X0009819Y0108967D01*
X0010227Y0107981D01*
X0010981Y0107227D01*
X0011967Y0106819D01*
X0013033Y0106819D01*
X0014019Y0107227D01*
X0014401Y0107609D01*
X0017955Y0104055D01*
X0020685Y0104055D01*
X0020685Y0111354D01*
X0021685Y0111354D01*
X0021685Y0104055D01*
X0024416Y0104055D01*
X0028984Y0108624D01*
X0028984Y0111354D01*
X0021685Y0111354D01*
X0021685Y0112354D01*
X0020685Y0112354D01*
X0020685Y0119654D01*
X0017955Y0119654D01*
X0014500Y0116199D01*
X0014500Y0139672D01*
X0017323Y0142494D01*
X0017323Y0142464D01*
X0017911Y0141045D01*
X0018997Y0139958D01*
X0020417Y0139370D01*
X0021953Y0139370D01*
X0023373Y0139958D01*
X0024459Y0141045D01*
X0025047Y0142464D01*
X0025047Y0144001D01*
X0025047Y0143289D02*
X0026500Y0143289D01*
X0026500Y0142290D02*
X0024975Y0142290D01*
X0024562Y0141292D02*
X0026500Y0141292D01*
X0026500Y0140293D02*
X0023708Y0140293D01*
X0026500Y0139295D02*
X0014500Y0139295D01*
X0014500Y0138296D02*
X0026500Y0138296D01*
X0026500Y0137298D02*
X0014500Y0137298D01*
X0014500Y0136299D02*
X0018790Y0136299D01*
X0018997Y0136506D02*
X0017911Y0135420D01*
X0017323Y0134001D01*
X0017323Y0132464D01*
X0017911Y0131045D01*
X0018997Y0129958D01*
X0020417Y0129370D01*
X0021953Y0129370D01*
X0023373Y0129958D01*
X0024459Y0131045D01*
X0025047Y0132464D01*
X0025047Y0134001D01*
X0024459Y0135420D01*
X0023373Y0136506D01*
X0021953Y0137094D01*
X0020417Y0137094D01*
X0018997Y0136506D01*
X0017861Y0135301D02*
X0014500Y0135301D01*
X0014500Y0134302D02*
X0017448Y0134302D01*
X0017323Y0133303D02*
X0014500Y0133303D01*
X0014500Y0132305D02*
X0017389Y0132305D01*
X0017802Y0131306D02*
X0014500Y0131306D01*
X0014500Y0130308D02*
X0018647Y0130308D01*
X0014500Y0129309D02*
X0026500Y0129309D01*
X0026500Y0128311D02*
X0014500Y0128311D01*
X0014500Y0127312D02*
X0026500Y0127312D01*
X0026500Y0126314D02*
X0014500Y0126314D01*
X0014500Y0125315D02*
X0026500Y0125315D01*
X0026500Y0124317D02*
X0014500Y0124317D01*
X0014500Y0123318D02*
X0026500Y0123318D01*
X0026500Y0122320D02*
X0014500Y0122320D01*
X0014500Y0121321D02*
X0026500Y0121321D01*
X0026500Y0120323D02*
X0014500Y0120323D01*
X0014500Y0119324D02*
X0017625Y0119324D01*
X0016627Y0118326D02*
X0014500Y0118326D01*
X0014500Y0117327D02*
X0015628Y0117327D01*
X0014630Y0116329D02*
X0014500Y0116329D01*
X0010500Y0116329D02*
X0003968Y0116329D01*
X0003968Y0117327D02*
X0010500Y0117327D01*
X0010500Y0118326D02*
X0003968Y0118326D01*
X0003968Y0119324D02*
X0010500Y0119324D01*
X0010500Y0120323D02*
X0003968Y0120323D01*
X0003968Y0121321D02*
X0010500Y0121321D01*
X0010500Y0122320D02*
X0003968Y0122320D01*
X0003968Y0123318D02*
X0010500Y0123318D01*
X0010500Y0124317D02*
X0003968Y0124317D01*
X0003968Y0125315D02*
X0010500Y0125315D01*
X0010500Y0126314D02*
X0003968Y0126314D01*
X0003968Y0127312D02*
X0010500Y0127312D01*
X0010500Y0128311D02*
X0003968Y0128311D01*
X0003968Y0129309D02*
X0010500Y0129309D01*
X0010500Y0130308D02*
X0003968Y0130308D01*
X0003968Y0131306D02*
X0010500Y0131306D01*
X0010500Y0132305D02*
X0003968Y0132305D01*
X0003968Y0133303D02*
X0010500Y0133303D01*
X0010500Y0134302D02*
X0003968Y0134302D01*
X0003968Y0135301D02*
X0010500Y0135301D01*
X0010500Y0136299D02*
X0003968Y0136299D01*
X0003968Y0137298D02*
X0010500Y0137298D01*
X0010500Y0138296D02*
X0003968Y0138296D01*
X0003968Y0139295D02*
X0010500Y0139295D01*
X0010500Y0140293D02*
X0003968Y0140293D01*
X0003968Y0141292D02*
X0010500Y0141292D01*
X0011462Y0142290D02*
X0003968Y0142290D01*
X0003968Y0143289D02*
X0012460Y0143289D01*
X0013459Y0144287D02*
X0003968Y0144287D01*
X0003968Y0145286D02*
X0014457Y0145286D01*
X0015456Y0146284D02*
X0003968Y0146284D01*
X0003968Y0147283D02*
X0016454Y0147283D01*
X0017453Y0148281D02*
X0003968Y0148281D01*
X0003968Y0149280D02*
X0018451Y0149280D01*
X0018500Y0150278D02*
X0003968Y0150278D01*
X0003968Y0151277D02*
X0017815Y0151277D01*
X0017401Y0152275D02*
X0003968Y0152275D01*
X0003968Y0153274D02*
X0017323Y0153274D01*
X0017435Y0154272D02*
X0003968Y0154272D01*
X0003968Y0155271D02*
X0017849Y0155271D01*
X0018760Y0156269D02*
X0003968Y0156269D01*
X0003968Y0157268D02*
X0029215Y0157268D01*
X0029134Y0158266D02*
X0003968Y0158266D01*
X0003968Y0159265D02*
X0029243Y0159265D01*
X0029657Y0160263D02*
X0003968Y0160263D01*
X0003968Y0161262D02*
X0030564Y0161262D01*
X0032996Y0158232D02*
X0032500Y0157500D01*
X0032500Y0153500D01*
X0028500Y0149500D01*
X0028500Y0116500D01*
X0031500Y0113500D01*
X0031500Y0099500D01*
X0044500Y0086500D01*
X0044500Y0083500D01*
X0091500Y0036500D01*
X0105500Y0022500D01*
X0143500Y0022500D01*
X0154500Y0033500D01*
X0178500Y0033500D01*
X0187500Y0042500D01*
X0187500Y0048500D01*
X0190500Y0050500D02*
X0190500Y0042500D01*
X0178500Y0030500D01*
X0155500Y0030500D01*
X0157251Y0028460D02*
X0157996Y0028460D01*
X0157819Y0027461D02*
X0151290Y0027461D01*
X0150291Y0026463D02*
X0158028Y0026463D01*
X0158744Y0025464D02*
X0149293Y0025464D01*
X0148294Y0024466D02*
X0208950Y0024466D01*
X0209885Y0025400D02*
X0207600Y0023115D01*
X0207600Y0019885D01*
X0209885Y0017600D01*
X0213115Y0017600D01*
X0215400Y0019885D01*
X0215400Y0023115D01*
X0213115Y0025400D01*
X0209885Y0025400D01*
X0207952Y0023467D02*
X0147296Y0023467D01*
X0146297Y0022469D02*
X0207600Y0022469D01*
X0207600Y0021470D02*
X0145299Y0021470D01*
X0142500Y0024500D02*
X0157500Y0039500D01*
X0158232Y0039807D01*
X0153749Y0028460D02*
X0152288Y0028460D01*
X0160500Y0027500D02*
X0178500Y0027500D01*
X0205500Y0054500D01*
X0205500Y0070500D01*
X0202500Y0073500D01*
X0150500Y0073500D01*
X0143500Y0066500D01*
X0141500Y0066500D01*
X0132500Y0073500D02*
X0124500Y0073500D01*
X0123500Y0076500D02*
X0117500Y0070500D01*
X0117500Y0056500D01*
X0118500Y0055500D01*
X0115500Y0053500D02*
X0115500Y0071500D01*
X0122500Y0078500D01*
X0134500Y0078500D01*
X0144500Y0088500D01*
X0151500Y0088500D01*
X0151500Y0096500D02*
X0149500Y0096500D01*
X0151500Y0096500D02*
X0153500Y0096500D01*
X0160500Y0089500D01*
X0164500Y0089500D01*
X0171500Y0096500D01*
X0166521Y0102350D02*
X0163363Y0102350D01*
X0164564Y0101351D02*
X0165523Y0101351D01*
X0157600Y0095360D02*
X0157468Y0095360D01*
X0142512Y0108341D02*
X0138580Y0108341D01*
X0140142Y0109339D02*
X0142937Y0109339D01*
X0142002Y0110338D02*
X0141077Y0110338D01*
X0141491Y0111336D02*
X0141588Y0111336D01*
X0141514Y0107342D02*
X0104171Y0107342D01*
X0103500Y0106344D02*
X0140515Y0106344D01*
X0139517Y0105345D02*
X0103500Y0105345D01*
X0103500Y0104347D02*
X0138518Y0104347D01*
X0137520Y0103348D02*
X0103500Y0103348D01*
X0103500Y0102350D02*
X0109637Y0102350D01*
X0108436Y0101351D02*
X0104564Y0101351D01*
X0105120Y0100353D02*
X0107880Y0100353D01*
X0107600Y0099354D02*
X0105400Y0099354D01*
X0105400Y0098356D02*
X0107600Y0098356D01*
X0107600Y0097357D02*
X0105400Y0097357D01*
X0105400Y0096359D02*
X0107600Y0096359D01*
X0107600Y0095360D02*
X0105400Y0095360D01*
X0105400Y0094362D02*
X0107600Y0094362D01*
X0107600Y0093363D02*
X0105400Y0093363D01*
X0105002Y0092365D02*
X0107998Y0092365D01*
X0108719Y0091366D02*
X0104281Y0091366D01*
X0101500Y0086500D02*
X0096500Y0091500D01*
X0101500Y0096500D02*
X0101500Y0107500D01*
X0106500Y0112500D01*
X0106539Y0113232D01*
X0111491Y0111336D02*
X0111588Y0111336D01*
X0112002Y0110338D02*
X0111077Y0110338D01*
X0110142Y0109339D02*
X0112937Y0109339D01*
X0114499Y0108341D02*
X0108580Y0108341D01*
X0118580Y0108341D02*
X0124499Y0108341D01*
X0122937Y0109339D02*
X0120142Y0109339D01*
X0121077Y0110338D02*
X0122002Y0110338D01*
X0121588Y0111336D02*
X0121491Y0111336D01*
X0128580Y0108341D02*
X0134499Y0108341D01*
X0132937Y0109339D02*
X0130142Y0109339D01*
X0131077Y0110338D02*
X0132002Y0110338D01*
X0131588Y0111336D02*
X0131491Y0111336D01*
X0133363Y0102350D02*
X0136521Y0102350D01*
X0135523Y0101351D02*
X0134564Y0101351D01*
X0137185Y0097357D02*
X0137600Y0097357D01*
X0138542Y0088370D02*
X0120421Y0088370D01*
X0121041Y0087372D02*
X0137544Y0087372D01*
X0136545Y0086373D02*
X0121181Y0086373D01*
X0118500Y0086500D02*
X0101500Y0086500D01*
X0095500Y0080500D02*
X0087500Y0088500D01*
X0087500Y0089500D01*
X0081500Y0095500D01*
X0081500Y0096500D01*
X0052500Y0125500D01*
X0052500Y0131500D01*
X0056500Y0135500D01*
X0056500Y0137500D01*
X0056618Y0138232D01*
X0052756Y0138296D02*
X0048532Y0138296D01*
X0047534Y0139295D02*
X0052878Y0139295D01*
X0053291Y0140293D02*
X0047500Y0140293D01*
X0048184Y0141292D02*
X0054215Y0141292D01*
X0054103Y0145286D02*
X0048137Y0145286D01*
X0048551Y0144287D02*
X0067500Y0144287D01*
X0067500Y0143289D02*
X0048669Y0143289D01*
X0048597Y0142290D02*
X0067500Y0142290D01*
X0067500Y0141292D02*
X0059021Y0141292D01*
X0059945Y0140293D02*
X0067500Y0140293D01*
X0067500Y0139295D02*
X0060359Y0139295D01*
X0060480Y0138296D02*
X0067500Y0138296D01*
X0067500Y0137298D02*
X0060411Y0137298D01*
X0059998Y0136299D02*
X0067500Y0136299D01*
X0067500Y0135301D02*
X0059148Y0135301D01*
X0058130Y0134302D02*
X0067500Y0134302D01*
X0067500Y0133303D02*
X0057132Y0133303D01*
X0056133Y0132305D02*
X0067500Y0132305D01*
X0075500Y0139295D02*
X0075503Y0139295D01*
X0077500Y0137500D02*
X0077500Y0108500D01*
X0079500Y0115330D02*
X0079815Y0115330D01*
X0079800Y0125315D02*
X0079500Y0125315D01*
X0067500Y0145286D02*
X0059133Y0145286D01*
X0059992Y0146284D02*
X0067500Y0146284D01*
X0067500Y0147283D02*
X0060405Y0147283D01*
X0060480Y0148281D02*
X0067500Y0148281D01*
X0067500Y0149280D02*
X0060365Y0149280D01*
X0059951Y0150278D02*
X0067500Y0150278D01*
X0053245Y0146284D02*
X0047217Y0146284D01*
X0044807Y0143232D02*
X0045500Y0142500D01*
X0045500Y0138500D01*
X0050500Y0133500D01*
X0050500Y0117500D01*
X0081500Y0086500D01*
X0081500Y0066500D01*
X0079500Y0072293D02*
X0079500Y0072293D01*
X0079500Y0072394D02*
X0079500Y0072394D01*
X0079500Y0073393D02*
X0079500Y0073393D01*
X0079500Y0074391D02*
X0079500Y0074391D01*
X0079500Y0075390D02*
X0079500Y0075390D01*
X0079500Y0076388D02*
X0079440Y0076388D01*
X0079500Y0077387D02*
X0078442Y0077387D01*
X0077443Y0078385D02*
X0079500Y0078385D01*
X0079500Y0079384D02*
X0076445Y0079384D01*
X0075446Y0080382D02*
X0079500Y0080382D01*
X0079500Y0081381D02*
X0074448Y0081381D01*
X0073449Y0082379D02*
X0079500Y0082379D01*
X0079500Y0083378D02*
X0072450Y0083378D01*
X0071452Y0084376D02*
X0079500Y0084376D01*
X0079500Y0085375D02*
X0070453Y0085375D01*
X0069455Y0086373D02*
X0078798Y0086373D01*
X0077800Y0087372D02*
X0068456Y0087372D01*
X0067458Y0088370D02*
X0076801Y0088370D01*
X0075803Y0089369D02*
X0066459Y0089369D01*
X0065461Y0090368D02*
X0074804Y0090368D01*
X0073806Y0091366D02*
X0064462Y0091366D01*
X0063464Y0092365D02*
X0072807Y0092365D01*
X0071809Y0093363D02*
X0062465Y0093363D01*
X0061467Y0094362D02*
X0070810Y0094362D01*
X0069812Y0095360D02*
X0060468Y0095360D01*
X0059470Y0096359D02*
X0068813Y0096359D01*
X0067814Y0097357D02*
X0058471Y0097357D01*
X0062822Y0102350D02*
X0045479Y0102350D01*
X0044480Y0103348D02*
X0061823Y0103348D01*
X0063820Y0101351D02*
X0046477Y0101351D01*
X0047476Y0100353D02*
X0064819Y0100353D01*
X0065817Y0099354D02*
X0048474Y0099354D01*
X0049473Y0098356D02*
X0066816Y0098356D01*
X0084500Y0088500D02*
X0084500Y0073500D01*
X0091500Y0066500D01*
X0095500Y0068500D02*
X0100500Y0073500D01*
X0122680Y0090368D02*
X0130320Y0090368D01*
X0128719Y0091366D02*
X0124281Y0091366D01*
X0125002Y0092365D02*
X0127998Y0092365D01*
X0127600Y0093363D02*
X0125400Y0093363D01*
X0125400Y0094362D02*
X0127600Y0094362D01*
X0127600Y0095360D02*
X0125400Y0095360D01*
X0123500Y0076500D02*
X0161500Y0076500D01*
X0174500Y0056500D02*
X0168500Y0050500D01*
X0168232Y0049807D01*
X0179500Y0044500D02*
X0122500Y0044500D01*
X0118500Y0040500D01*
X0118232Y0039807D01*
X0111500Y0027500D02*
X0101500Y0037500D01*
X0094715Y0030457D02*
X0003968Y0030457D01*
X0003968Y0031455D02*
X0093716Y0031455D01*
X0092718Y0032454D02*
X0003968Y0032454D01*
X0003968Y0033452D02*
X0091719Y0033452D01*
X0089757Y0034451D02*
X0003968Y0034451D01*
X0003968Y0035449D02*
X0089033Y0035449D01*
X0088724Y0036448D02*
X0003968Y0036448D01*
X0003968Y0037446D02*
X0087725Y0037446D01*
X0086727Y0038445D02*
X0003968Y0038445D01*
X0003968Y0039443D02*
X0085728Y0039443D01*
X0084730Y0040442D02*
X0003968Y0040442D01*
X0003968Y0041440D02*
X0083731Y0041440D01*
X0082733Y0042439D02*
X0003968Y0042439D01*
X0003968Y0043437D02*
X0081734Y0043437D01*
X0080736Y0044436D02*
X0003968Y0044436D01*
X0003968Y0045434D02*
X0079737Y0045434D01*
X0078739Y0046433D02*
X0003968Y0046433D01*
X0003968Y0047432D02*
X0077740Y0047432D01*
X0076742Y0048430D02*
X0003968Y0048430D01*
X0003968Y0049429D02*
X0075743Y0049429D01*
X0074745Y0050427D02*
X0003968Y0050427D01*
X0003968Y0051426D02*
X0073746Y0051426D01*
X0072747Y0052424D02*
X0003968Y0052424D01*
X0003968Y0053423D02*
X0071749Y0053423D01*
X0070750Y0054421D02*
X0003968Y0054421D01*
X0003968Y0055420D02*
X0069752Y0055420D01*
X0068753Y0056418D02*
X0003968Y0056418D01*
X0003968Y0057417D02*
X0067755Y0057417D01*
X0066756Y0058415D02*
X0003968Y0058415D01*
X0003968Y0059414D02*
X0065758Y0059414D01*
X0064759Y0060412D02*
X0003968Y0060412D01*
X0003968Y0061411D02*
X0063761Y0061411D01*
X0062762Y0062409D02*
X0003968Y0062409D01*
X0003968Y0063408D02*
X0061764Y0063408D01*
X0060765Y0064406D02*
X0003968Y0064406D01*
X0003968Y0065405D02*
X0059767Y0065405D01*
X0058768Y0066403D02*
X0003968Y0066403D01*
X0003968Y0067402D02*
X0057770Y0067402D01*
X0056771Y0068400D02*
X0003968Y0068400D01*
X0003968Y0069399D02*
X0055773Y0069399D01*
X0054774Y0070397D02*
X0003968Y0070397D01*
X0003968Y0071396D02*
X0053776Y0071396D01*
X0052777Y0072394D02*
X0003968Y0072394D01*
X0003968Y0073393D02*
X0051779Y0073393D01*
X0050780Y0074391D02*
X0003968Y0074391D01*
X0003968Y0075390D02*
X0049782Y0075390D01*
X0048783Y0076388D02*
X0003968Y0076388D01*
X0003968Y0077387D02*
X0047785Y0077387D01*
X0046786Y0078385D02*
X0035115Y0078385D01*
X0037520Y0079384D02*
X0045788Y0079384D01*
X0044789Y0080382D02*
X0038519Y0080382D01*
X0039517Y0081381D02*
X0043791Y0081381D01*
X0042792Y0082379D02*
X0040074Y0082379D01*
X0040487Y0083378D02*
X0042500Y0083378D01*
X0042500Y0084376D02*
X0040901Y0084376D01*
X0040976Y0085375D02*
X0042500Y0085375D01*
X0041798Y0086373D02*
X0040976Y0086373D01*
X0033810Y0094362D02*
X0003968Y0094362D01*
X0003968Y0095360D02*
X0032812Y0095360D01*
X0031813Y0096359D02*
X0003968Y0096359D01*
X0003968Y0097357D02*
X0030814Y0097357D01*
X0029816Y0098356D02*
X0003968Y0098356D01*
X0003968Y0099354D02*
X0029500Y0099354D01*
X0029500Y0100353D02*
X0003968Y0100353D01*
X0003968Y0101351D02*
X0029500Y0101351D01*
X0029500Y0102350D02*
X0003968Y0102350D01*
X0003968Y0103348D02*
X0029500Y0103348D01*
X0029500Y0104347D02*
X0024707Y0104347D01*
X0025706Y0105345D02*
X0029500Y0105345D01*
X0029500Y0106344D02*
X0026704Y0106344D01*
X0027703Y0107342D02*
X0029500Y0107342D01*
X0029500Y0108341D02*
X0028701Y0108341D01*
X0028984Y0109339D02*
X0029500Y0109339D01*
X0029500Y0110338D02*
X0028984Y0110338D01*
X0028984Y0111336D02*
X0029500Y0111336D01*
X0029500Y0112335D02*
X0021685Y0112335D01*
X0021685Y0113333D02*
X0020685Y0113333D01*
X0020685Y0114332D02*
X0021685Y0114332D01*
X0021685Y0115330D02*
X0020685Y0115330D01*
X0020685Y0116329D02*
X0021685Y0116329D01*
X0021685Y0117327D02*
X0020685Y0117327D01*
X0020685Y0118326D02*
X0021685Y0118326D01*
X0021685Y0119324D02*
X0020685Y0119324D01*
X0024745Y0119324D02*
X0026500Y0119324D01*
X0026500Y0118326D02*
X0025743Y0118326D01*
X0021685Y0111336D02*
X0020685Y0111336D01*
X0020685Y0110338D02*
X0021685Y0110338D01*
X0021685Y0109339D02*
X0020685Y0109339D01*
X0020685Y0108341D02*
X0021685Y0108341D01*
X0021685Y0107342D02*
X0020685Y0107342D01*
X0020685Y0106344D02*
X0021685Y0106344D01*
X0021685Y0105345D02*
X0020685Y0105345D01*
X0020685Y0104347D02*
X0021685Y0104347D01*
X0017663Y0104347D02*
X0003968Y0104347D01*
X0003968Y0105345D02*
X0016664Y0105345D01*
X0015666Y0106344D02*
X0003968Y0106344D01*
X0003968Y0107342D02*
X0010866Y0107342D01*
X0010078Y0108341D02*
X0003968Y0108341D01*
X0003968Y0109339D02*
X0009819Y0109339D01*
X0009945Y0110338D02*
X0003968Y0110338D01*
X0003968Y0111336D02*
X0010500Y0111336D01*
X0010500Y0112335D02*
X0003968Y0112335D01*
X0003968Y0113333D02*
X0010500Y0113333D01*
X0010500Y0114332D02*
X0003968Y0114332D01*
X0003968Y0115330D02*
X0010500Y0115330D01*
X0012500Y0109500D02*
X0012500Y0140500D01*
X0020500Y0148500D01*
X0020500Y0152500D01*
X0021185Y0153232D01*
X0025047Y0153274D02*
X0029445Y0153274D01*
X0028447Y0152275D02*
X0024969Y0152275D01*
X0024555Y0151277D02*
X0027448Y0151277D01*
X0026500Y0150278D02*
X0023693Y0150278D01*
X0022500Y0149280D02*
X0026500Y0149280D01*
X0026500Y0148281D02*
X0022500Y0148281D01*
X0022111Y0147283D02*
X0026500Y0147283D01*
X0026500Y0146284D02*
X0023595Y0146284D01*
X0024515Y0145286D02*
X0026500Y0145286D01*
X0026500Y0136299D02*
X0023580Y0136299D01*
X0024509Y0135301D02*
X0026500Y0135301D01*
X0026500Y0134302D02*
X0024922Y0134302D01*
X0025047Y0133303D02*
X0026500Y0133303D01*
X0026500Y0132305D02*
X0024981Y0132305D01*
X0024568Y0131306D02*
X0026500Y0131306D01*
X0026500Y0130308D02*
X0023723Y0130308D01*
X0030500Y0131306D02*
X0030608Y0131306D01*
X0030500Y0132305D02*
X0041054Y0132305D01*
X0041082Y0134302D02*
X0030500Y0134302D01*
X0030500Y0133303D02*
X0044520Y0133303D01*
X0044520Y0132305D02*
X0045094Y0132305D01*
X0045094Y0131306D02*
X0044520Y0131306D01*
X0044520Y0130308D02*
X0045094Y0130308D01*
X0047345Y0130308D02*
X0048500Y0130308D01*
X0048500Y0131306D02*
X0048165Y0131306D01*
X0051528Y0135301D02*
X0053472Y0135301D01*
X0053238Y0136299D02*
X0050529Y0136299D01*
X0049531Y0137298D02*
X0052825Y0137298D01*
X0043874Y0137298D02*
X0036789Y0137298D01*
X0036858Y0138296D02*
X0043500Y0138296D01*
X0043500Y0139295D02*
X0036736Y0139295D01*
X0036323Y0140293D02*
X0042284Y0140293D01*
X0042445Y0136299D02*
X0036376Y0136299D01*
X0035526Y0135301D02*
X0041544Y0135301D01*
X0042299Y0150278D02*
X0036329Y0150278D01*
X0035414Y0151277D02*
X0041437Y0151277D01*
X0041023Y0152275D02*
X0034104Y0152275D01*
X0034500Y0153274D02*
X0040945Y0153274D01*
X0041057Y0154272D02*
X0034500Y0154272D01*
X0035497Y0155271D02*
X0041471Y0155271D01*
X0030496Y0155271D02*
X0024521Y0155271D01*
X0024935Y0154272D02*
X0030444Y0154272D01*
X0029629Y0156269D02*
X0023610Y0156269D01*
X0017395Y0142290D02*
X0017119Y0142290D01*
X0017808Y0141292D02*
X0016120Y0141292D01*
X0015121Y0140293D02*
X0018662Y0140293D01*
X0044307Y0119324D02*
X0045307Y0119324D01*
X0045307Y0118326D02*
X0044307Y0118326D01*
X0044307Y0117327D02*
X0045307Y0117327D01*
X0045307Y0116329D02*
X0044307Y0116329D01*
X0044307Y0115330D02*
X0045307Y0115330D01*
X0045307Y0114332D02*
X0044307Y0114332D01*
X0044307Y0113333D02*
X0045307Y0113333D01*
X0048367Y0119324D02*
X0048500Y0119324D01*
X0037008Y0111336D02*
X0036492Y0111336D01*
X0029567Y0093363D02*
X0003968Y0093363D01*
X0003968Y0092365D02*
X0027929Y0092365D01*
X0026931Y0091366D02*
X0003968Y0091366D01*
X0003968Y0090368D02*
X0026107Y0090368D01*
X0025693Y0089369D02*
X0003968Y0089369D01*
X0003968Y0088370D02*
X0025280Y0088370D01*
X0025016Y0087372D02*
X0003968Y0087372D01*
X0003968Y0086373D02*
X0025016Y0086373D01*
X0025016Y0085375D02*
X0003968Y0085375D01*
X0003968Y0084376D02*
X0025091Y0084376D01*
X0025505Y0083378D02*
X0003968Y0083378D01*
X0003968Y0082379D02*
X0025918Y0082379D01*
X0026475Y0081381D02*
X0003968Y0081381D01*
X0003968Y0080382D02*
X0027473Y0080382D01*
X0028472Y0079384D02*
X0003968Y0079384D01*
X0003968Y0078385D02*
X0030877Y0078385D01*
X0014667Y0107342D02*
X0014134Y0107342D01*
X0084500Y0050500D02*
X0110500Y0024500D01*
X0142500Y0024500D01*
X0162256Y0025464D02*
X0216707Y0025464D01*
X0215709Y0026463D02*
X0180291Y0026463D01*
X0181290Y0027461D02*
X0214710Y0027461D01*
X0213712Y0028460D02*
X0182288Y0028460D01*
X0183287Y0029458D02*
X0212713Y0029458D01*
X0211715Y0030457D02*
X0184285Y0030457D01*
X0185284Y0031455D02*
X0210716Y0031455D01*
X0209718Y0032454D02*
X0186282Y0032454D01*
X0187281Y0033452D02*
X0208719Y0033452D01*
X0207721Y0034451D02*
X0188279Y0034451D01*
X0189278Y0035449D02*
X0206722Y0035449D01*
X0205724Y0036448D02*
X0190276Y0036448D01*
X0191275Y0037446D02*
X0204725Y0037446D01*
X0203727Y0038445D02*
X0192273Y0038445D01*
X0193272Y0039443D02*
X0203500Y0039443D01*
X0203500Y0040442D02*
X0194270Y0040442D01*
X0195269Y0041440D02*
X0203500Y0041440D01*
X0203500Y0042439D02*
X0196267Y0042439D01*
X0197266Y0043437D02*
X0203500Y0043437D01*
X0203608Y0044436D02*
X0198264Y0044436D01*
X0199263Y0045434D02*
X0204606Y0045434D01*
X0205500Y0046433D02*
X0200261Y0046433D01*
X0201260Y0047432D02*
X0205500Y0047432D01*
X0205500Y0048430D02*
X0202258Y0048430D01*
X0203257Y0049429D02*
X0205500Y0049429D01*
X0205500Y0050427D02*
X0204255Y0050427D01*
X0205254Y0051426D02*
X0205500Y0051426D01*
X0209500Y0051426D02*
X0217600Y0051426D01*
X0217600Y0052424D02*
X0209500Y0052424D01*
X0209500Y0053423D02*
X0217907Y0053423D01*
X0218906Y0054421D02*
X0209500Y0054421D01*
X0209500Y0055420D02*
X0264500Y0055420D01*
X0264500Y0056418D02*
X0209500Y0056418D01*
X0209500Y0057417D02*
X0264500Y0057417D01*
X0264269Y0058415D02*
X0258731Y0058415D01*
X0258709Y0058394D02*
X0259806Y0059491D01*
X0260400Y0060924D01*
X0260400Y0067276D01*
X0259806Y0068709D01*
X0258709Y0069806D01*
X0257276Y0070400D01*
X0255724Y0070400D01*
X0254291Y0069806D01*
X0253194Y0068709D01*
X0252600Y0067276D01*
X0252600Y0060924D01*
X0253194Y0059491D01*
X0254291Y0058394D01*
X0255724Y0057800D01*
X0257276Y0057800D01*
X0258709Y0058394D01*
X0259729Y0059414D02*
X0263271Y0059414D01*
X0262812Y0060412D02*
X0260188Y0060412D01*
X0260400Y0061411D02*
X0262600Y0061411D01*
X0262600Y0062409D02*
X0260400Y0062409D01*
X0260400Y0063408D02*
X0262600Y0063408D01*
X0262600Y0064406D02*
X0260400Y0064406D01*
X0260400Y0065405D02*
X0262600Y0065405D01*
X0262600Y0066403D02*
X0260400Y0066403D01*
X0260348Y0067402D02*
X0262652Y0067402D01*
X0263066Y0068400D02*
X0259934Y0068400D01*
X0259117Y0069399D02*
X0263883Y0069399D01*
X0265718Y0070397D02*
X0257282Y0070397D01*
X0255718Y0070397D02*
X0247282Y0070397D01*
X0247276Y0070400D02*
X0245724Y0070400D01*
X0244291Y0069806D01*
X0243194Y0068709D01*
X0242600Y0067276D01*
X0242600Y0060924D01*
X0243194Y0059491D01*
X0244291Y0058394D01*
X0245724Y0057800D01*
X0247276Y0057800D01*
X0248709Y0058394D01*
X0249806Y0059491D01*
X0250400Y0060924D01*
X0250400Y0067276D01*
X0249806Y0068709D01*
X0248709Y0069806D01*
X0247276Y0070400D01*
X0245718Y0070397D02*
X0215101Y0070397D01*
X0215400Y0069399D02*
X0243883Y0069399D01*
X0243066Y0068400D02*
X0215400Y0068400D01*
X0215400Y0067402D02*
X0242652Y0067402D01*
X0242600Y0066403D02*
X0215400Y0066403D01*
X0215400Y0065405D02*
X0242600Y0065405D01*
X0242600Y0064406D02*
X0215400Y0064406D01*
X0215400Y0063408D02*
X0242600Y0063408D01*
X0242600Y0062409D02*
X0215021Y0062409D01*
X0214326Y0061411D02*
X0242600Y0061411D01*
X0242812Y0060412D02*
X0212788Y0060412D01*
X0210212Y0060412D02*
X0209500Y0060412D01*
X0209500Y0059414D02*
X0243271Y0059414D01*
X0244269Y0058415D02*
X0209500Y0058415D01*
X0209500Y0050427D02*
X0217600Y0050427D01*
X0218056Y0049429D02*
X0209500Y0049429D01*
X0209500Y0048430D02*
X0219055Y0048430D01*
X0221500Y0051500D02*
X0231500Y0051500D01*
X0241500Y0041500D01*
X0246326Y0043437D02*
X0256877Y0043437D01*
X0256693Y0044436D02*
X0245912Y0044436D01*
X0244919Y0045434D02*
X0256693Y0045434D01*
X0256739Y0046433D02*
X0243179Y0046433D01*
X0243945Y0048430D02*
X0254742Y0048430D01*
X0255740Y0047432D02*
X0238397Y0047432D01*
X0239055Y0048430D02*
X0237398Y0048430D01*
X0238056Y0049429D02*
X0236400Y0049429D01*
X0235401Y0050427D02*
X0237600Y0050427D01*
X0237600Y0051426D02*
X0234403Y0051426D01*
X0233404Y0052424D02*
X0237600Y0052424D01*
X0237907Y0053423D02*
X0232406Y0053423D01*
X0230743Y0049429D02*
X0224944Y0049429D01*
X0223945Y0048430D02*
X0231742Y0048430D01*
X0232740Y0047432D02*
X0209500Y0047432D01*
X0209500Y0046433D02*
X0209821Y0046433D01*
X0213179Y0046433D02*
X0233739Y0046433D01*
X0234737Y0045434D02*
X0214919Y0045434D01*
X0215912Y0044436D02*
X0235736Y0044436D01*
X0236674Y0043437D02*
X0234391Y0043437D01*
X0235389Y0042439D02*
X0236300Y0042439D01*
X0233500Y0041500D02*
X0239500Y0035500D01*
X0259500Y0035500D01*
X0260500Y0036500D01*
X0261343Y0036933D01*
X0261500Y0037500D01*
X0266500Y0042500D01*
X0266500Y0066500D01*
X0270400Y0066403D02*
X0272600Y0066403D01*
X0272600Y0067276D02*
X0272600Y0060924D01*
X0273194Y0059491D01*
X0274291Y0058394D01*
X0275724Y0057800D01*
X0277276Y0057800D01*
X0278709Y0058394D01*
X0279806Y0059491D01*
X0280400Y0060924D01*
X0280400Y0067276D01*
X0279806Y0068709D01*
X0278709Y0069806D01*
X0277276Y0070400D01*
X0275724Y0070400D01*
X0274291Y0069806D01*
X0273194Y0068709D01*
X0272600Y0067276D01*
X0272652Y0067402D02*
X0270348Y0067402D01*
X0269934Y0068400D02*
X0273066Y0068400D01*
X0273883Y0069399D02*
X0269117Y0069399D01*
X0267282Y0070397D02*
X0275718Y0070397D01*
X0277282Y0070397D02*
X0282496Y0070397D01*
X0282496Y0069399D02*
X0279117Y0069399D01*
X0279934Y0068400D02*
X0282496Y0068400D01*
X0282496Y0067402D02*
X0280348Y0067402D01*
X0280400Y0066403D02*
X0282496Y0066403D01*
X0282496Y0065405D02*
X0280400Y0065405D01*
X0280400Y0064406D02*
X0282496Y0064406D01*
X0282496Y0063408D02*
X0280400Y0063408D01*
X0280400Y0062409D02*
X0282496Y0062409D01*
X0282496Y0061411D02*
X0280400Y0061411D01*
X0280188Y0060412D02*
X0282496Y0060412D01*
X0282496Y0059414D02*
X0279729Y0059414D01*
X0278731Y0058415D02*
X0282496Y0058415D01*
X0282496Y0057417D02*
X0268500Y0057417D01*
X0268500Y0056418D02*
X0282496Y0056418D01*
X0282496Y0055420D02*
X0268500Y0055420D01*
X0268500Y0054421D02*
X0282496Y0054421D01*
X0282496Y0053423D02*
X0268500Y0053423D01*
X0268500Y0052424D02*
X0282496Y0052424D01*
X0282496Y0051426D02*
X0268500Y0051426D01*
X0268500Y0050427D02*
X0282496Y0050427D01*
X0282496Y0049429D02*
X0268500Y0049429D01*
X0268500Y0048430D02*
X0282496Y0048430D01*
X0282496Y0047432D02*
X0268500Y0047432D01*
X0268500Y0046433D02*
X0282496Y0046433D01*
X0282496Y0045434D02*
X0268500Y0045434D01*
X0268500Y0044436D02*
X0282496Y0044436D01*
X0282496Y0043437D02*
X0268500Y0043437D01*
X0268500Y0042439D02*
X0282496Y0042439D01*
X0282496Y0041440D02*
X0268269Y0041440D01*
X0267270Y0040442D02*
X0282496Y0040442D01*
X0282496Y0039443D02*
X0266272Y0039443D01*
X0265749Y0038445D02*
X0282496Y0038445D01*
X0282496Y0037446D02*
X0265992Y0037446D01*
X0265992Y0036448D02*
X0282496Y0036448D01*
X0282496Y0035449D02*
X0265761Y0035449D01*
X0265347Y0034451D02*
X0282496Y0034451D01*
X0282496Y0033452D02*
X0264437Y0033452D01*
X0262679Y0032454D02*
X0282496Y0032454D01*
X0282496Y0031455D02*
X0216373Y0031455D01*
X0217372Y0030457D02*
X0282496Y0030457D01*
X0282496Y0029458D02*
X0218370Y0029458D01*
X0219369Y0028460D02*
X0282496Y0028460D01*
X0282496Y0027461D02*
X0220367Y0027461D01*
X0221366Y0026463D02*
X0282496Y0026463D01*
X0282496Y0025464D02*
X0222364Y0025464D01*
X0223363Y0024466D02*
X0228950Y0024466D01*
X0228011Y0019473D02*
X0214989Y0019473D01*
X0215400Y0020472D02*
X0221700Y0020472D01*
X0220701Y0021470D02*
X0215400Y0021470D01*
X0215400Y0022469D02*
X0219703Y0022469D01*
X0218704Y0023467D02*
X0215048Y0023467D01*
X0214050Y0024466D02*
X0217706Y0024466D01*
X0213990Y0018475D02*
X0229010Y0018475D01*
X0234050Y0024466D02*
X0282496Y0024466D01*
X0282496Y0023467D02*
X0235048Y0023467D01*
X0237721Y0034451D02*
X0213378Y0034451D01*
X0214376Y0033452D02*
X0258248Y0033452D01*
X0260006Y0032454D02*
X0215375Y0032454D01*
X0212379Y0035449D02*
X0236722Y0035449D01*
X0235724Y0036448D02*
X0212891Y0036448D01*
X0214800Y0037446D02*
X0234725Y0037446D01*
X0233727Y0038445D02*
X0215799Y0038445D01*
X0216277Y0039443D02*
X0232728Y0039443D01*
X0233500Y0041500D02*
X0211500Y0041500D01*
X0224094Y0054421D02*
X0238906Y0054421D01*
X0241500Y0051500D02*
X0254500Y0051500D01*
X0260500Y0045500D01*
X0261343Y0044807D01*
X0258134Y0041440D02*
X0246700Y0041440D01*
X0246690Y0040442D02*
X0258276Y0040442D01*
X0257350Y0039443D02*
X0246277Y0039443D01*
X0245799Y0038445D02*
X0256936Y0038445D01*
X0257291Y0042439D02*
X0246700Y0042439D01*
X0244944Y0049429D02*
X0253743Y0049429D01*
X0256404Y0052424D02*
X0264500Y0052424D01*
X0264500Y0051426D02*
X0257403Y0051426D01*
X0258401Y0050427D02*
X0264500Y0050427D01*
X0264500Y0049429D02*
X0262335Y0049429D01*
X0260350Y0049429D02*
X0259400Y0049429D01*
X0255406Y0053423D02*
X0264500Y0053423D01*
X0264500Y0054421D02*
X0244094Y0054421D01*
X0248731Y0058415D02*
X0254269Y0058415D01*
X0253271Y0059414D02*
X0249729Y0059414D01*
X0250188Y0060412D02*
X0252812Y0060412D01*
X0252600Y0061411D02*
X0250400Y0061411D01*
X0250400Y0062409D02*
X0252600Y0062409D01*
X0252600Y0063408D02*
X0250400Y0063408D01*
X0250400Y0064406D02*
X0252600Y0064406D01*
X0252600Y0065405D02*
X0250400Y0065405D01*
X0250400Y0066403D02*
X0252600Y0066403D01*
X0252652Y0067402D02*
X0250348Y0067402D01*
X0249934Y0068400D02*
X0253066Y0068400D01*
X0253883Y0069399D02*
X0249117Y0069399D01*
X0235400Y0075390D02*
X0282496Y0075390D01*
X0282496Y0076388D02*
X0235400Y0076388D01*
X0235400Y0077387D02*
X0282496Y0077387D01*
X0282496Y0078385D02*
X0235130Y0078385D01*
X0234132Y0079384D02*
X0282496Y0079384D01*
X0282496Y0080382D02*
X0233133Y0080382D01*
X0227600Y0077387D02*
X0204442Y0077387D01*
X0205440Y0076388D02*
X0227600Y0076388D01*
X0227600Y0075390D02*
X0206439Y0075390D01*
X0207437Y0074391D02*
X0228093Y0074391D01*
X0229092Y0073393D02*
X0208436Y0073393D01*
X0209434Y0072394D02*
X0209745Y0072394D01*
X0213255Y0072394D02*
X0282496Y0072394D01*
X0282496Y0071396D02*
X0214520Y0071396D01*
X0201500Y0066500D02*
X0179500Y0044500D01*
X0182500Y0059500D02*
X0127500Y0059500D01*
X0096712Y0028460D02*
X0003968Y0028460D01*
X0003968Y0029458D02*
X0095713Y0029458D01*
X0097710Y0027461D02*
X0003968Y0027461D01*
X0003968Y0026463D02*
X0098709Y0026463D01*
X0099707Y0025464D02*
X0003968Y0025464D01*
X0003968Y0024466D02*
X0100706Y0024466D01*
X0101704Y0023467D02*
X0003968Y0023467D01*
X0003968Y0022469D02*
X0102703Y0022469D01*
X0103701Y0021470D02*
X0016524Y0021470D01*
X0015055Y0022079D02*
X0011567Y0022079D01*
X0008345Y0020744D01*
X0005878Y0018278D01*
X0004543Y0015055D01*
X0004543Y0011567D01*
X0005878Y0008345D01*
X0008345Y0005878D01*
X0011567Y0004543D01*
X0015055Y0004543D01*
X0018278Y0005878D01*
X0020744Y0008345D01*
X0022079Y0011567D01*
X0022079Y0015055D01*
X0020744Y0018278D01*
X0018278Y0020744D01*
X0015055Y0022079D01*
X0018550Y0020472D02*
X0207600Y0020472D01*
X0208011Y0019473D02*
X0019548Y0019473D01*
X0020547Y0018475D02*
X0209010Y0018475D01*
X0239395Y0046433D02*
X0239821Y0046433D01*
X0264295Y0048430D02*
X0264500Y0048430D01*
X0268731Y0058415D02*
X0274269Y0058415D01*
X0273271Y0059414D02*
X0269729Y0059414D01*
X0270188Y0060412D02*
X0272812Y0060412D01*
X0272600Y0061411D02*
X0270400Y0061411D01*
X0270400Y0062409D02*
X0272600Y0062409D01*
X0272600Y0063408D02*
X0270400Y0063408D01*
X0270400Y0064406D02*
X0272600Y0064406D01*
X0272600Y0065405D02*
X0270400Y0065405D01*
X0282496Y0073393D02*
X0233908Y0073393D01*
X0234907Y0074391D02*
X0282496Y0074391D01*
X0282496Y0087372D02*
X0235400Y0087372D01*
X0235145Y0088370D02*
X0282496Y0088370D01*
X0282496Y0089369D02*
X0234146Y0089369D01*
X0248878Y0093363D02*
X0254122Y0093363D01*
X0254291Y0093194D02*
X0255724Y0092600D01*
X0257276Y0092600D01*
X0258709Y0093194D01*
X0259806Y0094291D01*
X0260400Y0095724D01*
X0260400Y0102076D01*
X0259806Y0103509D01*
X0258709Y0104606D01*
X0257276Y0105200D01*
X0255724Y0105200D01*
X0254291Y0104606D01*
X0253194Y0103509D01*
X0252600Y0102076D01*
X0252600Y0095724D01*
X0253194Y0094291D01*
X0254291Y0093194D01*
X0253164Y0094362D02*
X0249836Y0094362D01*
X0250249Y0095360D02*
X0252751Y0095360D01*
X0252600Y0096359D02*
X0250400Y0096359D01*
X0250400Y0097357D02*
X0252600Y0097357D01*
X0252600Y0098356D02*
X0250400Y0098356D01*
X0250400Y0099354D02*
X0252600Y0099354D01*
X0252600Y0100353D02*
X0250400Y0100353D01*
X0250400Y0101351D02*
X0252600Y0101351D01*
X0252713Y0102350D02*
X0250287Y0102350D01*
X0249873Y0103348D02*
X0253127Y0103348D01*
X0254031Y0104347D02*
X0248969Y0104347D01*
X0246539Y0113232D02*
X0247500Y0113500D01*
X0275500Y0141500D01*
X0282154Y0118326D02*
X0282496Y0118326D01*
X0282496Y0117327D02*
X0281156Y0117327D01*
X0280157Y0116329D02*
X0282496Y0116329D01*
X0282496Y0115330D02*
X0279159Y0115330D01*
X0278160Y0114332D02*
X0282496Y0114332D01*
X0282496Y0113333D02*
X0277162Y0113333D01*
X0276163Y0112335D02*
X0282496Y0112335D01*
X0282496Y0111336D02*
X0275165Y0111336D01*
X0274166Y0110338D02*
X0282496Y0110338D01*
X0282496Y0109339D02*
X0273168Y0109339D01*
X0272169Y0108341D02*
X0282496Y0108341D01*
X0282496Y0107342D02*
X0271171Y0107342D01*
X0270172Y0106344D02*
X0282496Y0106344D01*
X0274031Y0104347D02*
X0268969Y0104347D01*
X0268709Y0104606D02*
X0267276Y0105200D01*
X0265724Y0105200D01*
X0264291Y0104606D01*
X0263194Y0103509D01*
X0262600Y0102076D01*
X0262600Y0095724D01*
X0263194Y0094291D01*
X0264291Y0093194D01*
X0265724Y0092600D01*
X0267276Y0092600D01*
X0268709Y0093194D01*
X0269806Y0094291D01*
X0270400Y0095724D01*
X0270400Y0102076D01*
X0269806Y0103509D01*
X0268709Y0104606D01*
X0269873Y0103348D02*
X0273127Y0103348D01*
X0272713Y0102350D02*
X0270287Y0102350D01*
X0270400Y0101351D02*
X0272600Y0101351D01*
X0272600Y0100353D02*
X0270400Y0100353D01*
X0270400Y0099354D02*
X0272600Y0099354D01*
X0272600Y0098356D02*
X0270400Y0098356D01*
X0270400Y0097357D02*
X0272600Y0097357D01*
X0272600Y0096359D02*
X0270400Y0096359D01*
X0270249Y0095360D02*
X0272751Y0095360D01*
X0273164Y0094362D02*
X0269836Y0094362D01*
X0268878Y0093363D02*
X0274122Y0093363D01*
X0264122Y0093363D02*
X0258878Y0093363D01*
X0259836Y0094362D02*
X0263164Y0094362D01*
X0262751Y0095360D02*
X0260249Y0095360D01*
X0260400Y0096359D02*
X0262600Y0096359D01*
X0262600Y0097357D02*
X0260400Y0097357D01*
X0260400Y0098356D02*
X0262600Y0098356D01*
X0262600Y0099354D02*
X0260400Y0099354D01*
X0260400Y0100353D02*
X0262600Y0100353D01*
X0262600Y0101351D02*
X0260400Y0101351D01*
X0260287Y0102350D02*
X0262713Y0102350D01*
X0263127Y0103348D02*
X0259873Y0103348D01*
X0258969Y0104347D02*
X0264031Y0104347D01*
X0249497Y0118326D02*
X0248092Y0118326D01*
X0244987Y0118326D02*
X0238092Y0118326D01*
X0239940Y0117327D02*
X0243139Y0117327D01*
X0242141Y0116329D02*
X0240938Y0116329D01*
X0241407Y0115330D02*
X0241672Y0115330D01*
X0238831Y0108341D02*
X0238580Y0108341D01*
X0190320Y0090368D02*
X0182680Y0090368D01*
X0184281Y0091366D02*
X0188719Y0091366D01*
X0187998Y0092365D02*
X0185002Y0092365D01*
X0185400Y0093363D02*
X0187600Y0093363D01*
X0187600Y0094362D02*
X0185400Y0094362D01*
X0185400Y0095360D02*
X0187600Y0095360D01*
X0179637Y0102350D02*
X0176479Y0102350D01*
X0177477Y0101351D02*
X0178436Y0101351D01*
X0189500Y0066500D02*
X0182500Y0059500D01*
X0189500Y0066500D02*
X0191500Y0066500D01*
X0265389Y0017476D02*
X0021076Y0017476D01*
X0021489Y0016478D02*
X0264975Y0016478D01*
X0264562Y0015479D02*
X0021903Y0015479D01*
X0022079Y0014481D02*
X0264386Y0014481D01*
X0264386Y0013482D02*
X0022079Y0013482D01*
X0022079Y0012484D02*
X0264386Y0012484D01*
X0264420Y0011485D02*
X0022045Y0011485D01*
X0021631Y0010487D02*
X0264833Y0010487D01*
X0265247Y0009488D02*
X0021218Y0009488D01*
X0020804Y0008490D02*
X0265661Y0008490D01*
X0266574Y0007491D02*
X0019890Y0007491D01*
X0018892Y0006493D02*
X0267573Y0006493D01*
X0269114Y0005494D02*
X0017350Y0005494D01*
X0009272Y0005494D02*
X0003968Y0005494D01*
X0003968Y0006493D02*
X0007730Y0006493D01*
X0006732Y0007491D02*
X0003968Y0007491D01*
X0003968Y0008490D02*
X0005818Y0008490D01*
X0005404Y0009488D02*
X0003968Y0009488D01*
X0003968Y0010487D02*
X0004991Y0010487D01*
X0004577Y0011485D02*
X0003968Y0011485D01*
X0003968Y0012484D02*
X0004543Y0012484D01*
X0004543Y0013482D02*
X0003968Y0013482D01*
X0003968Y0014481D02*
X0004543Y0014481D01*
X0004719Y0015479D02*
X0003968Y0015479D01*
X0003968Y0016478D02*
X0005133Y0016478D01*
X0005546Y0017476D02*
X0003968Y0017476D01*
X0003968Y0018475D02*
X0006075Y0018475D01*
X0007074Y0019473D02*
X0003968Y0019473D01*
X0003968Y0020472D02*
X0008072Y0020472D01*
X0010098Y0021470D02*
X0003968Y0021470D01*
X0118364Y0168251D02*
X0124715Y0168251D01*
X0123026Y0169250D02*
X0120052Y0169250D01*
X0121040Y0170248D02*
X0122039Y0170248D01*
X0121625Y0171247D02*
X0121454Y0171247D01*
X0121444Y0175241D02*
X0121635Y0175241D01*
X0122051Y0176239D02*
X0121027Y0176239D01*
X0120029Y0177238D02*
X0123050Y0177238D01*
X0124771Y0178237D02*
X0118308Y0178237D01*
X0128308Y0178237D02*
X0134790Y0178237D01*
X0133050Y0177238D02*
X0130029Y0177238D01*
X0131027Y0176239D02*
X0132173Y0176239D01*
X0131619Y0175241D02*
X0131444Y0175241D01*
X0131454Y0171247D02*
X0131612Y0171247D01*
X0132156Y0170248D02*
X0131040Y0170248D01*
X0130052Y0169250D02*
X0133026Y0169250D01*
X0134718Y0168251D02*
X0128364Y0168251D01*
X0140052Y0169250D02*
X0143026Y0169250D01*
X0142039Y0170248D02*
X0140923Y0170248D01*
X0141467Y0171247D02*
X0141625Y0171247D01*
X0020744Y0268187D02*
X0022079Y0271410D01*
X0022079Y0274898D01*
X0020744Y0278120D01*
X0018278Y0280586D01*
X0015055Y0281921D01*
X0011567Y0281921D01*
X0008345Y0280586D01*
X0005878Y0278120D01*
X0004543Y0274898D01*
X0004543Y0271410D01*
X0005878Y0268187D01*
X0008345Y0265721D01*
X0011567Y0264386D01*
X0015055Y0264386D01*
X0018278Y0265721D01*
X0020744Y0268187D01*
X0020659Y0268103D02*
X0265805Y0268103D01*
X0265721Y0268187D02*
X0268187Y0265721D01*
X0271410Y0264386D01*
X0274898Y0264386D01*
X0278120Y0265721D01*
X0280586Y0268187D01*
X0281921Y0271410D01*
X0281921Y0274898D01*
X0280586Y0278120D01*
X0278120Y0280586D01*
X0274898Y0281921D01*
X0271410Y0281921D01*
X0268187Y0280586D01*
X0265721Y0278120D01*
X0264386Y0274898D01*
X0264386Y0271410D01*
X0265721Y0268187D01*
X0265342Y0269101D02*
X0021123Y0269101D01*
X0021536Y0270100D02*
X0264928Y0270100D01*
X0264515Y0271098D02*
X0021950Y0271098D01*
X0022079Y0272097D02*
X0264386Y0272097D01*
X0264386Y0273095D02*
X0022079Y0273095D01*
X0022079Y0274094D02*
X0264386Y0274094D01*
X0264466Y0275092D02*
X0021998Y0275092D01*
X0021585Y0276091D02*
X0264880Y0276091D01*
X0265294Y0277089D02*
X0021171Y0277089D01*
X0020757Y0278088D02*
X0265707Y0278088D01*
X0266687Y0279086D02*
X0019778Y0279086D01*
X0018779Y0280085D02*
X0267685Y0280085D01*
X0269386Y0281083D02*
X0017078Y0281083D01*
X0009544Y0281083D02*
X0003968Y0281083D01*
X0003968Y0280085D02*
X0007843Y0280085D01*
X0006844Y0279086D02*
X0003968Y0279086D01*
X0003968Y0278088D02*
X0005865Y0278088D01*
X0005451Y0277089D02*
X0003968Y0277089D01*
X0003968Y0276091D02*
X0005038Y0276091D01*
X0004624Y0275092D02*
X0003968Y0275092D01*
X0003968Y0274094D02*
X0004543Y0274094D01*
X0004543Y0273095D02*
X0003968Y0273095D01*
X0003968Y0272097D02*
X0004543Y0272097D01*
X0004672Y0271098D02*
X0003968Y0271098D01*
X0003968Y0270100D02*
X0005086Y0270100D01*
X0005500Y0269101D02*
X0003968Y0269101D01*
X0003968Y0268103D02*
X0005963Y0268103D01*
X0006961Y0267104D02*
X0003968Y0267104D01*
X0003968Y0266105D02*
X0007960Y0266105D01*
X0009826Y0265107D02*
X0003968Y0265107D01*
X0003968Y0264108D02*
X0282496Y0264108D01*
X0282496Y0263110D02*
X0003968Y0263110D01*
X0003968Y0262111D02*
X0282496Y0262111D01*
X0282496Y0261113D02*
X0003968Y0261113D01*
X0003968Y0260114D02*
X0282496Y0260114D01*
X0282496Y0259116D02*
X0003968Y0259116D01*
X0003968Y0258117D02*
X0282496Y0258117D01*
X0282496Y0257119D02*
X0003968Y0257119D01*
X0003968Y0256120D02*
X0282496Y0256120D01*
X0282496Y0255122D02*
X0003968Y0255122D01*
X0016796Y0265107D02*
X0269668Y0265107D01*
X0267802Y0266105D02*
X0018662Y0266105D01*
X0019661Y0267104D02*
X0266804Y0267104D01*
X0276639Y0265107D02*
X0282496Y0265107D01*
X0282496Y0266105D02*
X0278505Y0266105D01*
X0279503Y0267104D02*
X0282496Y0267104D01*
X0282496Y0268103D02*
X0280502Y0268103D01*
X0280965Y0269101D02*
X0282496Y0269101D01*
X0282496Y0270100D02*
X0281379Y0270100D01*
X0281792Y0271098D02*
X0282496Y0271098D01*
X0282496Y0272097D02*
X0281921Y0272097D01*
X0281921Y0273095D02*
X0282496Y0273095D01*
X0282496Y0274094D02*
X0281921Y0274094D01*
X0281841Y0275092D02*
X0282496Y0275092D01*
X0282496Y0276091D02*
X0281427Y0276091D01*
X0281013Y0277089D02*
X0282496Y0277089D01*
X0282496Y0278088D02*
X0280600Y0278088D01*
X0279620Y0279086D02*
X0282496Y0279086D01*
X0282496Y0280085D02*
X0278622Y0280085D01*
X0276921Y0281083D02*
X0282496Y0281083D01*
X0282496Y0282082D02*
X0003968Y0282082D01*
D20*
X0071500Y0216500D02*
X0071500Y0128232D01*
X0056618Y0128232D01*
X0071500Y0216500D02*
X0096500Y0216500D01*
X0096500Y0233783D01*
X0095988Y0233783D01*
D21*
X0077500Y0137500D03*
X0096500Y0091500D03*
X0095500Y0080500D03*
X0100500Y0073500D03*
X0084500Y0088500D03*
X0118500Y0086500D03*
X0124500Y0073500D03*
X0132500Y0073500D03*
X0118500Y0055500D03*
X0111500Y0027500D03*
X0091500Y0036500D03*
X0150500Y0054500D03*
X0161500Y0076500D03*
X0151500Y0088500D03*
X0174500Y0056500D03*
X0187500Y0048500D03*
X0190500Y0050500D03*
X0160500Y0027500D03*
X0155500Y0030500D03*
X0275500Y0141500D03*
X0216500Y0225500D03*
X0012500Y0109500D03*
M02*
