%
M48
M72
T01C0.01181
T02C0.02756
T03C0.03150
T04C0.03200
T05C0.03543
T06C0.04000
T07C0.04331
T08C0.08661
T09C0.11024
T10C0.12598
%
T01
X5250Y30250
X9250Y34250
X23250Y39250
X44250Y41250
X50250Y43250
X62250Y43250
X68250Y34250
X64250Y30250
X68250Y22250
X62250Y11250
X51250Y11250
X45250Y15250
X52250Y63250
X63250Y93250
X80250Y97250
X96250Y115250
X100250Y119250
X98250Y125250
X108250Y115250
X106250Y97250
X126250Y101250
X126250Y120250
X104250Y155250
X103250Y150250
X100250Y143250
X93250Y144250
X94250Y155250
X100250Y161250
X108250Y159250
X96250Y178250
X96250Y189250
X92250Y164250
X77250Y194250
X66250Y202250
X63250Y211250
X55250Y214250
X47250Y226250
X66250Y244250
X75250Y226250
X73250Y223250
X74250Y217250
X53250Y181250
X37250Y189250
X29250Y188250
X21250Y203250
X21250Y207250
X10250Y196250
X25250Y163250
X11250Y155250
X25250Y127250
X42250Y102250
X13250Y69250
X77250Y124250
X104250Y66250
X94250Y38250
X113250Y22250
X126250Y12250
X154250Y61250
X164250Y84250
X164250Y94250
X159250Y100250
X170250Y116250
X178250Y116250
X159250Y136250
X174250Y144250
X150250Y173250
X126250Y161250
X119250Y208250
X129250Y215250
X134250Y230250
X134250Y236250
X101250Y223250
T02
X83927Y233533
X83927Y241407
X83927Y249281
X83927Y257156
X162667Y72116
X162667Y64242
X162667Y56368
X162667Y40620
X162667Y32746
X56368Y44557
X56368Y52431
T03
X56368Y127982
X56368Y137982
X56368Y147982
X56368Y157982
X44557Y152982
X44557Y142982
X44557Y132982
X32746Y127982
X32746Y137982
X32746Y147982
X32746Y157982
X20935Y152982
X20935Y142982
X20935Y132982
T04
X86250Y131250
X86250Y121250
X86250Y111250
X86250Y101250
X86250Y91250
X86250Y81250
X86250Y71250
X86250Y56250
X86250Y46250
X86250Y36250
X86250Y26250
X96250Y16250
X106250Y16250
X116250Y16250
X116250Y26250
X116250Y36250
X116250Y46250
X116250Y56250
X116250Y71250
X116250Y81250
X116250Y91250
X116250Y101250
X116250Y111250
X116250Y121250
X116250Y131250
X116250Y141250
X116250Y151250
X116250Y161250
X116250Y171250
X116250Y181250
X116250Y191250
X116250Y201250
X106250Y211250
X96250Y211250
X86250Y201250
X86250Y191250
X86250Y181250
X86250Y171250
X86250Y161250
X86250Y151250
X86250Y141250
X106250Y226250
X116250Y226250
X126250Y226250
X146250Y221250
X146250Y231250
X146250Y241250
X146250Y251250
X126250Y256250
X126250Y271250
X106250Y271250
X106250Y256250
X86250Y271250
X66250Y271250
X146250Y211250
X146250Y201250
X146250Y191250
X156250Y181250
X166250Y181250
X176250Y191250
X176250Y201250
X176250Y211250
X176250Y221250
X176250Y231250
X176250Y241250
X176250Y251250
X146250Y66250
X146250Y46250
X146250Y36250
X146250Y16250
X136250Y16250
X71250Y26250
X61250Y26250
T05
X56250Y16250
X86250Y16250
T06
X46250Y26250
X36250Y26250
X26250Y26250
X146250Y76250
X146250Y86250
X146250Y96250
X146250Y106250
X146250Y116250
X146250Y126250
X156250Y141250
X156250Y151250
X156250Y161250
X166250Y161250
X166250Y151250
X166250Y141250
X46250Y236250
X46250Y246250
X46250Y256250
X46250Y266250
T07
X71250Y206250
X71250Y196250
X71250Y186250
X71250Y176250
X71250Y166250
X71250Y156250
X71250Y146250
X71250Y136250
X71250Y126250
X71250Y116250
X71250Y106250
X71250Y96250
X71250Y86250
X71250Y76250
X71250Y66250
X71250Y56250
X71250Y46250
X131250Y46250
X131250Y56250
X131250Y66250
X131250Y76250
X131250Y86250
X131250Y96250
X131250Y106250
X131250Y116250
X131250Y126250
X131250Y136250
X131250Y146250
X131250Y156250
X131250Y166250
X131250Y176250
X131250Y186250
X131250Y196250
X131250Y206250
T08
X44557Y174360
X20935Y174360
X20935Y111604
X44557Y111604
T09
X32746Y85896
X32746Y200069
T10
X13061Y13061
X54006Y85896
X54006Y200069
X13061Y272904
X174478Y272904
X174478Y13061
M30
