%
M48
M72
T01C0.01181
T02C0.02756
T03C0.03150
T04C0.03200
T05C0.03543
T06C0.04000
T07C0.04331
T08C0.08661
T09C0.11024
T10C0.12598
%
T01
X23250Y39250
X39250Y41250
X51250Y37250
X52250Y31250
X43250Y18250
X42250Y10250
X63250Y42250
X69250Y37250
X66250Y50250
X78250Y67250
X93250Y57250
X97250Y47250
X96250Y40250
X93250Y26250
X72250Y10250
X106250Y86250
X109250Y89250
X102250Y114250
X100250Y117250
X94250Y127250
X97250Y144250
X108250Y145250
X98250Y177250
X96250Y180250
X96250Y188250
X98250Y193250
X97250Y197250
X106250Y178250
X109250Y202250
X114250Y214250
X139250Y171250
X137250Y159250
X153250Y185250
X179250Y135250
X168250Y114250
X168250Y110250
X157250Y118250
X171250Y92250
X162250Y82250
X165250Y48250
X153250Y37250
X140250Y35250
X136250Y42250
X125250Y19250
X137250Y129250
X77250Y154250
X66250Y172250
X56250Y185250
X36250Y188250
X40250Y219250
X60250Y222250
X60250Y226250
X66250Y229250
X68250Y226250
X73250Y229250
X76250Y226250
X75250Y219250
X71250Y219250
X49250Y147250
X40250Y103250
X16250Y144250
X9250Y203250
T02
X83927Y233533
X83927Y241407
X83927Y249281
X83927Y257156
X162667Y72116
X162667Y64242
X162667Y56368
X162667Y40620
X162667Y32746
X56368Y44557
X56368Y52431
T03
X56368Y127982
X56368Y137982
X56368Y147982
X56368Y157982
X44557Y152982
X44557Y142982
X44557Y132982
X32746Y127982
X32746Y137982
X32746Y147982
X32746Y157982
X20935Y152982
X20935Y142982
X20935Y132982
T04
X86250Y131250
X86250Y121250
X86250Y111250
X86250Y101250
X86250Y91250
X86250Y81250
X86250Y71250
X86250Y56250
X86250Y46250
X86250Y36250
X86250Y26250
X96250Y16250
X106250Y16250
X116250Y16250
X116250Y26250
X116250Y36250
X116250Y46250
X116250Y56250
X116250Y71250
X116250Y81250
X116250Y91250
X116250Y101250
X116250Y111250
X116250Y121250
X116250Y131250
X116250Y141250
X116250Y151250
X116250Y161250
X116250Y171250
X116250Y181250
X116250Y191250
X116250Y201250
X106250Y211250
X96250Y211250
X86250Y201250
X86250Y191250
X86250Y181250
X86250Y171250
X86250Y161250
X86250Y151250
X86250Y141250
X106250Y226250
X116250Y226250
X126250Y226250
X146250Y221250
X146250Y231250
X146250Y241250
X146250Y251250
X126250Y256250
X126250Y271250
X106250Y271250
X106250Y256250
X86250Y271250
X66250Y271250
X146250Y211250
X146250Y201250
X146250Y191250
X156250Y181250
X166250Y181250
X176250Y191250
X176250Y201250
X176250Y211250
X176250Y221250
X176250Y231250
X176250Y241250
X176250Y251250
X146250Y66250
X146250Y46250
X146250Y36250
X146250Y16250
X136250Y16250
X71250Y26250
X61250Y26250
T05
X56250Y16250
X86250Y16250
T06
X46250Y26250
X36250Y26250
X26250Y26250
X146250Y76250
X146250Y86250
X146250Y96250
X146250Y106250
X146250Y116250
X146250Y126250
X156250Y141250
X156250Y151250
X156250Y161250
X166250Y161250
X166250Y151250
X166250Y141250
X46250Y236250
X46250Y246250
X46250Y256250
X46250Y266250
T07
X71250Y206250
X71250Y196250
X71250Y186250
X71250Y176250
X71250Y166250
X71250Y156250
X71250Y146250
X71250Y136250
X71250Y126250
X71250Y116250
X71250Y106250
X71250Y96250
X71250Y86250
X71250Y76250
X71250Y66250
X71250Y56250
X71250Y46250
X131250Y46250
X131250Y56250
X131250Y66250
X131250Y76250
X131250Y86250
X131250Y96250
X131250Y106250
X131250Y116250
X131250Y126250
X131250Y136250
X131250Y146250
X131250Y156250
X131250Y166250
X131250Y176250
X131250Y186250
X131250Y196250
X131250Y206250
T08
X44557Y174360
X20935Y174360
X20935Y111604
X44557Y111604
T09
X32746Y85896
X32746Y200069
T10
X13061Y13061
X54006Y85896
X54006Y200069
X13061Y272904
X174478Y272904
X174478Y13061
M30
