G75*
%MOIN*%
%OFA0B0*%
%FSLAX25Y25*%
%IPPOS*%
%LPD*%
%AMOC8*
5,1,8,0,0,1.08239X$1,22.5*
%
%ADD10C,0.13398*%
%ADD11C,0.04737*%
%ADD12C,0.05600*%
%ADD13OC8,0.05600*%
%ADD14C,0.08200*%
%ADD15C,0.07099*%
%ADD16R,0.05524X0.05524*%
%ADD17C,0.05524*%
%ADD18OC8,0.13398*%
%ADD19C,0.11824*%
%ADD20C,0.08400*%
%ADD21C,0.06800*%
%ADD22OC8,0.06800*%
D10*
X0013061Y0013061D03*
X0054006Y0085896D03*
X0054006Y0200069D03*
X0013061Y0272904D03*
X0174478Y0272904D03*
X0174478Y0013061D03*
D11*
X0131250Y0036250D03*
X0071250Y0036250D03*
X0071250Y0216250D03*
X0131250Y0216250D03*
D12*
X0126250Y0223850D02*
X0126250Y0228650D01*
X0116250Y0228650D02*
X0116250Y0223850D01*
X0106250Y0223850D02*
X0106250Y0228650D01*
X0106250Y0253850D02*
X0106250Y0258650D01*
X0126250Y0258650D02*
X0126250Y0253850D01*
X0143850Y0251250D02*
X0148650Y0251250D01*
X0148650Y0241250D02*
X0143850Y0241250D01*
X0143850Y0231250D02*
X0148650Y0231250D01*
X0148650Y0221250D02*
X0143850Y0221250D01*
X0143850Y0211250D02*
X0148650Y0211250D01*
X0148650Y0201250D02*
X0143850Y0201250D01*
X0143850Y0191250D02*
X0148650Y0191250D01*
X0173850Y0191250D02*
X0178650Y0191250D01*
X0178650Y0201250D02*
X0173850Y0201250D01*
X0173850Y0211250D02*
X0178650Y0211250D01*
X0178650Y0221250D02*
X0173850Y0221250D01*
X0173850Y0231250D02*
X0178650Y0231250D01*
X0178650Y0241250D02*
X0173850Y0241250D01*
X0173850Y0251250D02*
X0178650Y0251250D01*
X0118650Y0201250D02*
X0113850Y0201250D01*
X0113850Y0191250D02*
X0118650Y0191250D01*
X0118650Y0181250D02*
X0113850Y0181250D01*
X0113850Y0171250D02*
X0118650Y0171250D01*
X0118650Y0161250D02*
X0113850Y0161250D01*
X0113850Y0151250D02*
X0118650Y0151250D01*
X0118650Y0141250D02*
X0113850Y0141250D01*
X0113850Y0131250D02*
X0118650Y0131250D01*
X0118650Y0121250D02*
X0113850Y0121250D01*
X0113850Y0111250D02*
X0118650Y0111250D01*
X0118650Y0101250D02*
X0113850Y0101250D01*
X0113850Y0091250D02*
X0118650Y0091250D01*
X0118650Y0081250D02*
X0113850Y0081250D01*
X0113850Y0071250D02*
X0118650Y0071250D01*
X0116250Y0056250D02*
X0121050Y0056250D01*
X0121050Y0046250D02*
X0116250Y0046250D01*
X0116250Y0036250D02*
X0121050Y0036250D01*
X0121050Y0026250D02*
X0116250Y0026250D01*
X0088650Y0071250D02*
X0083850Y0071250D01*
X0083850Y0081250D02*
X0088650Y0081250D01*
X0088650Y0091250D02*
X0083850Y0091250D01*
X0083850Y0101250D02*
X0088650Y0101250D01*
X0088650Y0111250D02*
X0083850Y0111250D01*
X0083850Y0121250D02*
X0088650Y0121250D01*
X0088650Y0131250D02*
X0083850Y0131250D01*
X0083850Y0141250D02*
X0088650Y0141250D01*
X0088650Y0151250D02*
X0083850Y0151250D01*
X0083850Y0161250D02*
X0088650Y0161250D01*
X0088650Y0171250D02*
X0083850Y0171250D01*
X0083850Y0181250D02*
X0088650Y0181250D01*
X0088650Y0191250D02*
X0083850Y0191250D01*
X0083850Y0201250D02*
X0088650Y0201250D01*
X0086250Y0056250D02*
X0081450Y0056250D01*
X0081450Y0046250D02*
X0086250Y0046250D01*
X0086250Y0036250D02*
X0081450Y0036250D01*
X0081450Y0026250D02*
X0086250Y0026250D01*
D13*
X0096250Y0016250D03*
X0106250Y0016250D03*
X0116250Y0016250D03*
X0136250Y0016250D03*
X0146250Y0016250D03*
X0146250Y0036250D03*
X0146250Y0046250D03*
X0146250Y0066250D03*
X0071250Y0026250D03*
X0061250Y0026250D03*
X0156250Y0181250D03*
X0166250Y0181250D03*
X0126250Y0271250D03*
X0106250Y0271250D03*
X0086250Y0271250D03*
X0066250Y0271250D03*
X0096250Y0211250D03*
X0106250Y0211250D03*
D14*
X0086250Y0016250D03*
X0056250Y0016250D03*
D15*
X0056368Y0044557D03*
X0056368Y0052431D03*
X0162667Y0056368D03*
X0162667Y0064242D03*
X0162667Y0072116D03*
X0162667Y0040620D03*
X0162667Y0032746D03*
X0083927Y0233533D03*
X0083927Y0241407D03*
X0083927Y0249281D03*
X0083927Y0257156D03*
D16*
X0056368Y0127982D03*
D17*
X0056368Y0137982D03*
X0056368Y0147982D03*
X0056368Y0157982D03*
X0044557Y0152982D03*
X0044557Y0142982D03*
X0044557Y0132982D03*
X0032746Y0127982D03*
X0032746Y0137982D03*
X0032746Y0147982D03*
X0032746Y0157982D03*
X0020935Y0152982D03*
X0020935Y0142982D03*
X0020935Y0132982D03*
D18*
X0020935Y0111604D03*
X0044557Y0111604D03*
X0044557Y0174360D03*
X0020935Y0174360D03*
D19*
X0032746Y0200069D03*
X0032746Y0085896D03*
D20*
X0071250Y0086250D03*
X0071250Y0096250D03*
X0071250Y0106250D03*
X0071250Y0116250D03*
X0071250Y0126250D03*
X0071250Y0136250D03*
X0071250Y0146250D03*
X0071250Y0156250D03*
X0071250Y0166250D03*
X0071250Y0176250D03*
X0071250Y0186250D03*
X0071250Y0196250D03*
X0071250Y0206250D03*
X0131250Y0206250D03*
X0131250Y0196250D03*
X0131250Y0186250D03*
X0131250Y0176250D03*
X0131250Y0166250D03*
X0131250Y0156250D03*
X0131250Y0146250D03*
X0131250Y0136250D03*
X0131250Y0126250D03*
X0131250Y0116250D03*
X0131250Y0106250D03*
X0131250Y0096250D03*
X0131250Y0086250D03*
X0131250Y0076250D03*
X0131250Y0066250D03*
X0131250Y0056250D03*
X0131250Y0046250D03*
X0071250Y0046250D03*
X0071250Y0056250D03*
X0071250Y0066250D03*
X0071250Y0076250D03*
D21*
X0046250Y0029250D02*
X0046250Y0023250D01*
X0036250Y0023250D02*
X0036250Y0029250D01*
X0026250Y0029250D02*
X0026250Y0023250D01*
X0143250Y0076250D02*
X0149250Y0076250D01*
X0149250Y0086250D02*
X0143250Y0086250D01*
X0143250Y0096250D02*
X0149250Y0096250D01*
X0149250Y0106250D02*
X0143250Y0106250D01*
X0143250Y0116250D02*
X0149250Y0116250D01*
X0149250Y0126250D02*
X0143250Y0126250D01*
X0049250Y0236250D02*
X0043250Y0236250D01*
X0043250Y0246250D02*
X0049250Y0246250D01*
X0049250Y0256250D02*
X0043250Y0256250D01*
X0043250Y0266250D02*
X0049250Y0266250D01*
D22*
X0156250Y0161250D03*
X0156250Y0151250D03*
X0156250Y0141250D03*
X0166250Y0141250D03*
X0166250Y0151250D03*
X0166250Y0161250D03*
M02*
