%
M48
M72
T01C0.01181
T02C0.02756
T03C0.03150
T04C0.03200
T05C0.03543
T06C0.03937
T07C0.04000
T08C0.04331
T09C0.08661
T10C0.11024
T11C0.12598
%
T01
X32321Y60250
X19321Y80250
X12321Y87250
X15321Y125250
X12321Y151250
X44321Y96250
X65321Y103250
X68321Y101250
X64321Y116250
X67321Y168250
X70321Y188250
X87321Y204250
X90321Y206250
X108321Y212250
X111321Y202250
X111321Y194250
X108321Y185250
X103321Y172250
X119321Y168250
X119321Y184250
X122321Y186250
X132321Y168250
X103321Y132250
X106321Y125250
X117321Y104250
X114321Y93250
X106321Y85250
X114321Y66250
X119321Y69250
X122321Y53250
X114321Y53250
X112321Y50250
X109321Y47250
X101321Y45250
X107321Y35250
X99321Y27250
X112321Y14250
X119321Y11250
X127321Y23250
X161321Y31250
X73321Y49250
X61321Y21250
X119321Y217250
X122321Y233250
X105321Y241250
X141321Y252250
T02
X99746Y253219
X99746Y245344
X99746Y237470
X99746Y229596
X162739Y166604
X162739Y158730
X162739Y150856
X162739Y135108
X162739Y127234
X68250Y60305
X68250Y52431
X68250Y36683
X68250Y28809
X68250Y20935
X12424Y32746
X12424Y40620
X12424Y48494
X12424Y56368
X12424Y64242
T03
X32817Y127982
X32817Y137982
X32817Y147982
X32817Y157982
X21006Y152982
X21006Y142982
X21006Y132982
X44628Y132982
X44628Y142982
X44628Y152982
X56439Y147982
X56439Y137982
X56439Y127982
X56439Y157982
T04
X96321Y161250
X96321Y171250
X96321Y181250
X96321Y191250
X96321Y201250
X96321Y211250
X116321Y226250
X126321Y226250
X136321Y226250
X146321Y226250
X156321Y226250
X166321Y226250
X167069Y213691
X171321Y201250
X177069Y213691
X181321Y201250
X181321Y181250
X171321Y181250
X161321Y181250
X161321Y201250
X176321Y226250
X176321Y256250
X166321Y256250
X156321Y256250
X146321Y256250
X136321Y256250
X126321Y256250
X116321Y256250
X126321Y211250
X126321Y201250
X126321Y191250
X126321Y181250
X126321Y171250
X126321Y161250
X126321Y151250
X126321Y141250
X126321Y131250
X126321Y121250
X126321Y111250
X126321Y101250
X126321Y91250
X126321Y81250
X126321Y66250
X126321Y56250
X126321Y46250
X126321Y36250
X131321Y26250
X141321Y26250
X161321Y91250
X171321Y91250
X181321Y91250
X181321Y111250
X171321Y111250
X161321Y111250
X96321Y111250
X96321Y101250
X96321Y91250
X96321Y81250
X96321Y66250
X96321Y56250
X96321Y46250
X96321Y36250
X91321Y26250
X81321Y26250
X96321Y121250
X96321Y131250
X96321Y141250
X96321Y151250
T05
X161321Y76250
X161321Y46250
T06
X141321Y36250
X81321Y36250
X81321Y216250
X141321Y216250
T07
X176321Y66250
X176321Y56250
T08
X141321Y56250
X141321Y46250
X141321Y66250
X141321Y76250
X141321Y86250
X141321Y96250
X141321Y106250
X141321Y116250
X141321Y126250
X141321Y136250
X141321Y146250
X141321Y156250
X141321Y166250
X141321Y176250
X141321Y186250
X141321Y196250
X141321Y206250
X81321Y206250
X81321Y196250
X81321Y186250
X81321Y176250
X81321Y166250
X81321Y156250
X81321Y146250
X81321Y136250
X81321Y126250
X81321Y116250
X81321Y106250
X81321Y96250
X81321Y86250
X81321Y76250
X81321Y66250
X81321Y56250
X81321Y46250
T09
X44628Y111604
X21006Y111604
X21006Y174360
X44628Y174360
T10
X32817Y200069
X32817Y85896
T11
X13132Y13061
X54077Y85896
X54077Y200069
X13132Y272904
X174550Y272904
X174550Y13061
M30
