G75*
%MOIN*%
%OFA0B0*%
%FSLAX25Y25*%
%IPPOS*%
%LPD*%
%AMOC8*
5,1,8,0,0,1.08239X$1,22.5*
%
%ADD10OC8,0.04800*%
%ADD11C,0.04800*%
%ADD12C,0.07400*%
%ADD13C,0.06299*%
%ADD14R,0.04724X0.04724*%
%ADD15C,0.04724*%
%ADD16OC8,0.12598*%
%ADD17OC8,0.05400*%
%ADD18C,0.07600*%
%ADD19C,0.01000*%
%ADD20C,0.02362*%
%ADD21C,0.05000*%
D10*
X0081500Y0111500D03*
X0081500Y0121500D03*
X0086500Y0216500D03*
X0096500Y0216500D03*
X0158626Y0231500D03*
X0158626Y0241500D03*
X0158626Y0251500D03*
X0178626Y0251500D03*
X0178626Y0241500D03*
X0178626Y0231500D03*
X0201500Y0206500D03*
X0201500Y0196500D03*
X0231500Y0086500D03*
X0231500Y0076500D03*
X0221500Y0051500D03*
X0241500Y0051500D03*
X0231500Y0021500D03*
X0211500Y0021500D03*
D11*
X0246500Y0061700D02*
X0246500Y0066500D01*
X0256500Y0066500D02*
X0256500Y0061700D01*
X0266500Y0061700D02*
X0266500Y0066500D01*
X0276500Y0066500D02*
X0276500Y0061700D01*
X0276500Y0096500D02*
X0276500Y0101300D01*
X0266500Y0101300D02*
X0266500Y0096500D01*
X0256500Y0096500D02*
X0256500Y0101300D01*
X0246500Y0101300D02*
X0246500Y0096500D01*
X0211500Y0094100D02*
X0211500Y0098900D01*
X0201500Y0098900D02*
X0201500Y0094100D01*
X0191500Y0094100D02*
X0191500Y0098900D01*
X0181500Y0098900D02*
X0181500Y0094100D01*
X0171500Y0094100D02*
X0171500Y0098900D01*
X0161500Y0098900D02*
X0161500Y0094100D01*
X0151500Y0094100D02*
X0151500Y0098900D01*
X0141500Y0098900D02*
X0141500Y0094100D01*
X0131500Y0094100D02*
X0131500Y0098900D01*
X0121500Y0098900D02*
X0121500Y0094100D01*
X0111500Y0094100D02*
X0111500Y0098900D01*
X0101500Y0098900D02*
X0101500Y0094100D01*
X0091500Y0094100D02*
X0091500Y0098900D01*
X0081500Y0098900D02*
X0081500Y0094100D01*
X0081500Y0068900D02*
X0081500Y0064100D01*
X0091500Y0064100D02*
X0091500Y0068900D01*
X0101500Y0068900D02*
X0101500Y0064100D01*
X0111500Y0064100D02*
X0111500Y0068900D01*
X0121500Y0068900D02*
X0121500Y0064100D01*
X0131500Y0064100D02*
X0131500Y0068900D01*
X0141500Y0068900D02*
X0141500Y0064100D01*
X0151500Y0064100D02*
X0151500Y0068900D01*
X0161500Y0068900D02*
X0161500Y0064100D01*
X0171500Y0064100D02*
X0171500Y0068900D01*
X0181500Y0068900D02*
X0181500Y0064100D01*
X0191500Y0064100D02*
X0191500Y0068900D01*
X0201500Y0068900D02*
X0201500Y0064100D01*
X0211500Y0064100D02*
X0211500Y0068900D01*
X0211500Y0184100D02*
X0211500Y0188900D01*
X0221500Y0188900D02*
X0221500Y0184100D01*
X0231500Y0184100D02*
X0231500Y0188900D01*
X0241500Y0188900D02*
X0241500Y0184100D01*
X0251500Y0184100D02*
X0251500Y0188900D01*
X0261500Y0188900D02*
X0261500Y0184100D01*
X0271500Y0184100D02*
X0271500Y0188900D01*
X0271500Y0214100D02*
X0271500Y0218900D01*
X0261500Y0218900D02*
X0261500Y0214100D01*
X0251500Y0214100D02*
X0251500Y0218900D01*
X0241500Y0218900D02*
X0241500Y0214100D01*
X0231500Y0214100D02*
X0231500Y0218900D01*
X0221500Y0218900D02*
X0221500Y0214100D01*
X0211500Y0214100D02*
X0211500Y0218900D01*
X0181500Y0218900D02*
X0181500Y0214100D01*
X0171500Y0214100D02*
X0171500Y0218900D01*
X0161500Y0218900D02*
X0161500Y0214100D01*
X0151500Y0214100D02*
X0151500Y0218900D01*
X0141500Y0218900D02*
X0141500Y0214100D01*
X0131500Y0214100D02*
X0131500Y0218900D01*
X0121500Y0218900D02*
X0121500Y0214100D01*
X0111500Y0214100D02*
X0111500Y0218900D01*
X0111500Y0188900D02*
X0111500Y0184100D01*
X0121500Y0184100D02*
X0121500Y0188900D01*
X0131500Y0188900D02*
X0131500Y0184100D01*
X0141500Y0184100D02*
X0141500Y0188900D01*
X0151500Y0188900D02*
X0151500Y0184100D01*
X0161500Y0184100D02*
X0161500Y0188900D01*
X0171500Y0188900D02*
X0171500Y0184100D01*
X0181500Y0184100D02*
X0181500Y0188900D01*
D12*
X0211500Y0041500D03*
X0241500Y0041500D03*
D13*
X0261343Y0044807D03*
X0261343Y0036933D03*
X0261343Y0233783D03*
X0261343Y0241657D03*
X0261343Y0249531D03*
X0241657Y0233783D03*
X0233783Y0233783D03*
X0218035Y0233783D03*
X0210161Y0233783D03*
X0202287Y0233783D03*
X0194413Y0233783D03*
X0135358Y0233783D03*
X0127484Y0233783D03*
X0119610Y0233783D03*
X0111736Y0233783D03*
X0095988Y0233783D03*
X0088114Y0233783D03*
D14*
X0056618Y0128232D03*
D15*
X0056618Y0138232D03*
X0056618Y0148232D03*
X0056618Y0158232D03*
X0044807Y0153232D03*
X0044807Y0143232D03*
X0044807Y0133232D03*
X0032996Y0128232D03*
X0032996Y0138232D03*
X0032996Y0148232D03*
X0032996Y0158232D03*
X0021185Y0153232D03*
X0021185Y0143232D03*
X0021185Y0133232D03*
D16*
X0021185Y0111854D03*
X0044807Y0111854D03*
X0044807Y0174610D03*
X0021185Y0174610D03*
D17*
X0059020Y0049807D03*
X0069020Y0049807D03*
X0079020Y0049807D03*
X0089020Y0049807D03*
X0099020Y0049807D03*
X0109020Y0049807D03*
X0119020Y0049807D03*
X0129020Y0049807D03*
X0129020Y0039807D03*
X0119020Y0039807D03*
X0109020Y0039807D03*
X0099020Y0039807D03*
X0089020Y0039807D03*
X0079020Y0039807D03*
X0069020Y0039807D03*
X0059020Y0039807D03*
D18*
X0106500Y0116500D03*
X0116500Y0116500D03*
X0126500Y0116500D03*
X0136500Y0116500D03*
X0146500Y0116500D03*
X0156500Y0116500D03*
X0166500Y0116500D03*
X0176500Y0116500D03*
X0186500Y0116500D03*
X0196500Y0116500D03*
X0206500Y0116500D03*
X0216500Y0116500D03*
X0226500Y0116500D03*
X0236500Y0116500D03*
X0246500Y0116500D03*
X0256500Y0116500D03*
X0266500Y0116500D03*
X0266500Y0176500D03*
X0256500Y0176500D03*
X0246500Y0176500D03*
X0236500Y0176500D03*
X0226500Y0176500D03*
X0216500Y0176500D03*
X0206500Y0176500D03*
X0196500Y0176500D03*
X0186500Y0176500D03*
X0176500Y0176500D03*
X0166500Y0176500D03*
X0156500Y0176500D03*
X0146500Y0176500D03*
X0136500Y0176500D03*
X0126500Y0176500D03*
X0116500Y0176500D03*
X0106500Y0176500D03*
D19*
X0003968Y0282496D02*
X0003968Y0003968D01*
X0282496Y0003968D01*
X0282496Y0093668D01*
X0278500Y0089672D01*
X0277328Y0088500D01*
X0255672Y0088500D01*
X0249828Y0094344D01*
X0249806Y0094291D01*
X0248709Y0093194D01*
X0247276Y0092600D01*
X0245724Y0092600D01*
X0244291Y0093194D01*
X0243194Y0094291D01*
X0242600Y0095724D01*
X0242600Y0102076D01*
X0243194Y0103509D01*
X0244291Y0104606D01*
X0245724Y0105200D01*
X0245972Y0105200D01*
X0239264Y0111908D01*
X0237554Y0111200D01*
X0235446Y0111200D01*
X0233498Y0112007D01*
X0232007Y0113498D01*
X0231500Y0114722D01*
X0230993Y0113498D01*
X0229502Y0112007D01*
X0227554Y0111200D01*
X0225446Y0111200D01*
X0223498Y0112007D01*
X0222007Y0113498D01*
X0221500Y0114722D01*
X0220993Y0113498D01*
X0219502Y0112007D01*
X0217554Y0111200D01*
X0215446Y0111200D01*
X0213498Y0112007D01*
X0212007Y0113498D01*
X0211500Y0114722D01*
X0210993Y0113498D01*
X0209502Y0112007D01*
X0207554Y0111200D01*
X0205446Y0111200D01*
X0203498Y0112007D01*
X0202007Y0113498D01*
X0201500Y0114722D01*
X0200993Y0113498D01*
X0199502Y0112007D01*
X0197554Y0111200D01*
X0195446Y0111200D01*
X0194444Y0111615D01*
X0184372Y0101543D01*
X0184806Y0101109D01*
X0185400Y0099676D01*
X0185400Y0093324D01*
X0184806Y0091891D01*
X0183709Y0090794D01*
X0182525Y0090303D01*
X0194328Y0078500D01*
X0227985Y0078500D01*
X0229885Y0080400D01*
X0233115Y0080400D01*
X0235400Y0078115D01*
X0235400Y0074885D01*
X0233115Y0072600D01*
X0229885Y0072600D01*
X0227985Y0074500D01*
X0192672Y0074500D01*
X0191500Y0075672D01*
X0191500Y0075672D01*
X0174945Y0092226D01*
X0174806Y0091891D01*
X0173709Y0090794D01*
X0172276Y0090200D01*
X0170724Y0090200D01*
X0169291Y0090794D01*
X0168194Y0091891D01*
X0167600Y0093324D01*
X0167600Y0097572D01*
X0165332Y0099839D01*
X0165400Y0099676D01*
X0165400Y0093428D01*
X0188055Y0070774D01*
X0188194Y0071109D01*
X0189291Y0072206D01*
X0190724Y0072800D01*
X0192276Y0072800D01*
X0193709Y0072206D01*
X0194806Y0071109D01*
X0195400Y0069676D01*
X0195400Y0063324D01*
X0194806Y0061891D01*
X0193709Y0060794D01*
X0192276Y0060200D01*
X0190724Y0060200D01*
X0189500Y0060707D01*
X0189500Y0046328D01*
X0210428Y0025400D01*
X0210772Y0025400D01*
X0199500Y0036672D01*
X0199500Y0060707D01*
X0199291Y0060794D01*
X0198194Y0061891D01*
X0197600Y0063324D01*
X0197600Y0069676D01*
X0198194Y0071109D01*
X0199291Y0072206D01*
X0200724Y0072800D01*
X0202276Y0072800D01*
X0203709Y0072206D01*
X0204806Y0071109D01*
X0205400Y0069676D01*
X0205400Y0063324D01*
X0204806Y0061891D01*
X0203709Y0060794D01*
X0203500Y0060707D01*
X0203500Y0038328D01*
X0216328Y0025500D01*
X0217500Y0024328D01*
X0217500Y0018672D01*
X0215500Y0016672D01*
X0214328Y0015500D01*
X0183312Y0015500D01*
X0183496Y0015055D01*
X0183496Y0011567D01*
X0182161Y0008345D01*
X0179695Y0005878D01*
X0176472Y0004543D01*
X0172984Y0004543D01*
X0169762Y0005878D01*
X0167295Y0008345D01*
X0165961Y0011567D01*
X0165961Y0015055D01*
X0167295Y0018278D01*
X0169762Y0020744D01*
X0172984Y0022079D01*
X0176093Y0022079D01*
X0175672Y0022500D01*
X0083672Y0022500D01*
X0070564Y0035607D01*
X0067280Y0035607D01*
X0064820Y0038067D01*
X0064820Y0041547D01*
X0065773Y0042500D01*
X0062266Y0042500D01*
X0063220Y0041547D01*
X0063220Y0038067D01*
X0060759Y0035607D01*
X0057280Y0035607D01*
X0054820Y0038067D01*
X0054820Y0041547D01*
X0056222Y0042949D01*
X0055500Y0043672D01*
X0020500Y0078672D01*
X0020500Y0091328D01*
X0021672Y0092500D01*
X0027500Y0098328D01*
X0027500Y0107140D01*
X0024416Y0104055D01*
X0021685Y0104055D01*
X0021685Y0111354D01*
X0020685Y0111354D01*
X0020685Y0104055D01*
X0017955Y0104055D01*
X0013386Y0108624D01*
X0013386Y0111354D01*
X0020685Y0111354D01*
X0020685Y0112354D01*
X0013386Y0112354D01*
X0013386Y0115085D01*
X0017955Y0119654D01*
X0020685Y0119654D01*
X0020685Y0112354D01*
X0021685Y0112354D01*
X0021685Y0119654D01*
X0022518Y0119654D01*
X0014500Y0127672D01*
X0014500Y0145328D01*
X0015672Y0146500D01*
X0018672Y0149500D01*
X0020103Y0149500D01*
X0018997Y0149958D01*
X0017911Y0151045D01*
X0017323Y0152464D01*
X0017323Y0154001D01*
X0017911Y0155420D01*
X0018997Y0156506D01*
X0020417Y0157094D01*
X0021953Y0157094D01*
X0023373Y0156506D01*
X0024459Y0155420D01*
X0025047Y0154001D01*
X0025047Y0152876D01*
X0029281Y0157109D01*
X0029134Y0157464D01*
X0029134Y0159001D01*
X0029722Y0160420D01*
X0030808Y0161506D01*
X0032228Y0162094D01*
X0033764Y0162094D01*
X0035184Y0161506D01*
X0036270Y0160420D01*
X0036858Y0159001D01*
X0036858Y0157464D01*
X0036270Y0156045D01*
X0035184Y0154958D01*
X0034078Y0154500D01*
X0035328Y0154500D01*
X0041328Y0148500D01*
X0042500Y0147328D01*
X0042500Y0146387D01*
X0042619Y0146506D01*
X0044039Y0147094D01*
X0045575Y0147094D01*
X0046995Y0146506D01*
X0048081Y0145420D01*
X0048669Y0144001D01*
X0048669Y0142464D01*
X0048081Y0141045D01*
X0047500Y0140463D01*
X0047500Y0139328D01*
X0050500Y0136328D01*
X0050500Y0141328D01*
X0051672Y0142500D01*
X0054280Y0145108D01*
X0053344Y0146045D01*
X0052756Y0147464D01*
X0052756Y0149001D01*
X0053344Y0150420D01*
X0054430Y0151506D01*
X0055850Y0152094D01*
X0057386Y0152094D01*
X0058806Y0151506D01*
X0059892Y0150420D01*
X0060480Y0149001D01*
X0060480Y0147464D01*
X0059892Y0146045D01*
X0058806Y0144958D01*
X0058500Y0144831D01*
X0058500Y0143672D01*
X0056923Y0142094D01*
X0057386Y0142094D01*
X0058806Y0141506D01*
X0059892Y0140420D01*
X0060480Y0139001D01*
X0060480Y0137464D01*
X0059892Y0136045D01*
X0058806Y0134958D01*
X0057386Y0134370D01*
X0055850Y0134370D01*
X0054500Y0134929D01*
X0054500Y0132094D01*
X0055490Y0132094D01*
X0055822Y0132232D01*
X0067500Y0132232D01*
X0067500Y0217296D01*
X0068109Y0218766D01*
X0069234Y0219891D01*
X0070704Y0220500D01*
X0082500Y0220500D01*
X0082500Y0234579D01*
X0083109Y0236049D01*
X0084234Y0237174D01*
X0085421Y0237666D01*
X0085480Y0237725D01*
X0087189Y0238433D01*
X0089039Y0238433D01*
X0090748Y0237725D01*
X0092056Y0236417D01*
X0092092Y0236331D01*
X0092442Y0236812D01*
X0092959Y0237330D01*
X0093551Y0237760D01*
X0094203Y0238092D01*
X0094899Y0238319D01*
X0095622Y0238433D01*
X0095799Y0238433D01*
X0095799Y0233973D01*
X0096177Y0233973D01*
X0096177Y0238433D01*
X0096354Y0238433D01*
X0097077Y0238319D01*
X0097773Y0238092D01*
X0098425Y0237760D01*
X0099017Y0237330D01*
X0099535Y0236812D01*
X0099965Y0236220D01*
X0100297Y0235568D01*
X0100523Y0234872D01*
X0100638Y0234149D01*
X0100638Y0233972D01*
X0096177Y0233972D01*
X0096177Y0233594D01*
X0096177Y0229134D01*
X0096354Y0229134D01*
X0097077Y0229248D01*
X0097773Y0229475D01*
X0098425Y0229807D01*
X0099017Y0230237D01*
X0099535Y0230754D01*
X0099965Y0231347D01*
X0100297Y0231999D01*
X0100523Y0232695D01*
X0100638Y0233418D01*
X0100638Y0233594D01*
X0096177Y0233594D01*
X0095799Y0233594D01*
X0095799Y0229134D01*
X0095622Y0229134D01*
X0094899Y0229248D01*
X0094203Y0229475D01*
X0093551Y0229807D01*
X0092959Y0230237D01*
X0092442Y0230754D01*
X0092092Y0231236D01*
X0092056Y0231150D01*
X0090748Y0229842D01*
X0090500Y0229739D01*
X0090500Y0216328D01*
X0095328Y0211500D01*
X0108585Y0211500D01*
X0108194Y0211891D01*
X0107600Y0213324D01*
X0107600Y0219676D01*
X0108194Y0221109D01*
X0109291Y0222206D01*
X0110724Y0222800D01*
X0112276Y0222800D01*
X0113709Y0222206D01*
X0114806Y0221109D01*
X0115400Y0219676D01*
X0115400Y0213324D01*
X0114806Y0211891D01*
X0114415Y0211500D01*
X0117328Y0211500D01*
X0118500Y0210328D01*
X0128500Y0200328D01*
X0128500Y0191415D01*
X0129291Y0192206D01*
X0130724Y0192800D01*
X0132276Y0192800D01*
X0133709Y0192206D01*
X0134806Y0191109D01*
X0135400Y0189676D01*
X0135400Y0183324D01*
X0134806Y0181891D01*
X0134183Y0181268D01*
X0134466Y0181412D01*
X0135259Y0181669D01*
X0136000Y0181787D01*
X0136000Y0177000D01*
X0137000Y0177000D01*
X0137000Y0181787D01*
X0137741Y0181669D01*
X0138534Y0181412D01*
X0138817Y0181268D01*
X0138194Y0181891D01*
X0137600Y0183324D01*
X0137600Y0189676D01*
X0138194Y0191109D01*
X0139291Y0192206D01*
X0139500Y0192293D01*
X0139500Y0196672D01*
X0134672Y0201500D01*
X0133500Y0202672D01*
X0133500Y0210707D01*
X0132276Y0210200D01*
X0130724Y0210200D01*
X0129291Y0210794D01*
X0128194Y0211891D01*
X0127600Y0213324D01*
X0127600Y0219676D01*
X0128194Y0221109D01*
X0129291Y0222206D01*
X0130724Y0222800D01*
X0132276Y0222800D01*
X0133500Y0222293D01*
X0133500Y0229520D01*
X0132724Y0229842D01*
X0131421Y0231145D01*
X0130118Y0229842D01*
X0128409Y0229134D01*
X0126559Y0229134D01*
X0124850Y0229842D01*
X0123543Y0231150D01*
X0123507Y0231236D01*
X0123157Y0230754D01*
X0122639Y0230237D01*
X0122047Y0229807D01*
X0121395Y0229475D01*
X0120699Y0229248D01*
X0119976Y0229134D01*
X0119799Y0229134D01*
X0119799Y0233594D01*
X0119421Y0233594D01*
X0119421Y0229134D01*
X0119244Y0229134D01*
X0118521Y0229248D01*
X0117825Y0229475D01*
X0117173Y0229807D01*
X0116581Y0230237D01*
X0116064Y0230754D01*
X0115714Y0231236D01*
X0115678Y0231150D01*
X0114370Y0229842D01*
X0112661Y0229134D01*
X0110811Y0229134D01*
X0109102Y0229842D01*
X0107794Y0231150D01*
X0107087Y0232859D01*
X0107087Y0234708D01*
X0107794Y0236417D01*
X0109102Y0237725D01*
X0110811Y0238433D01*
X0112661Y0238433D01*
X0113328Y0238157D01*
X0117500Y0242328D01*
X0118672Y0243500D01*
X0155111Y0243500D01*
X0157011Y0245400D01*
X0160241Y0245400D01*
X0162526Y0243115D01*
X0162526Y0242354D01*
X0172500Y0252328D01*
X0172500Y0254328D01*
X0174500Y0256328D01*
X0175672Y0257500D01*
X0263328Y0257500D01*
X0281328Y0239500D01*
X0282496Y0238332D01*
X0282496Y0282496D01*
X0003968Y0282496D01*
X0003968Y0282082D02*
X0282496Y0282082D01*
X0282496Y0281083D02*
X0276921Y0281083D01*
X0278120Y0280586D02*
X0274898Y0281921D01*
X0271410Y0281921D01*
X0268187Y0280586D01*
X0265721Y0278120D01*
X0264386Y0274898D01*
X0264386Y0271410D01*
X0265721Y0268187D01*
X0268187Y0265721D01*
X0271410Y0264386D01*
X0274898Y0264386D01*
X0278120Y0265721D01*
X0280586Y0268187D01*
X0281921Y0271410D01*
X0281921Y0274898D01*
X0280586Y0278120D01*
X0278120Y0280586D01*
X0278622Y0280085D02*
X0282496Y0280085D01*
X0282496Y0279086D02*
X0279620Y0279086D01*
X0280600Y0278088D02*
X0282496Y0278088D01*
X0282496Y0277089D02*
X0281013Y0277089D01*
X0281427Y0276091D02*
X0282496Y0276091D01*
X0282496Y0275092D02*
X0281841Y0275092D01*
X0281921Y0274094D02*
X0282496Y0274094D01*
X0282496Y0273095D02*
X0281921Y0273095D01*
X0281921Y0272097D02*
X0282496Y0272097D01*
X0282496Y0271098D02*
X0281792Y0271098D01*
X0281379Y0270100D02*
X0282496Y0270100D01*
X0282496Y0269101D02*
X0280965Y0269101D01*
X0280502Y0268103D02*
X0282496Y0268103D01*
X0282496Y0267104D02*
X0279503Y0267104D01*
X0278505Y0266105D02*
X0282496Y0266105D01*
X0282496Y0265107D02*
X0276639Y0265107D01*
X0282496Y0264108D02*
X0003968Y0264108D01*
X0003968Y0263110D02*
X0282496Y0263110D01*
X0282496Y0262111D02*
X0003968Y0262111D01*
X0003968Y0261113D02*
X0282496Y0261113D01*
X0282496Y0260114D02*
X0003968Y0260114D01*
X0003968Y0259116D02*
X0282496Y0259116D01*
X0282496Y0258117D02*
X0003968Y0258117D01*
X0003968Y0257119D02*
X0175290Y0257119D01*
X0174292Y0256120D02*
X0003968Y0256120D01*
X0003968Y0255122D02*
X0156732Y0255122D01*
X0157011Y0255400D02*
X0154726Y0253115D01*
X0154726Y0249885D01*
X0157011Y0247600D01*
X0160241Y0247600D01*
X0162526Y0249885D01*
X0162526Y0253115D01*
X0160241Y0255400D01*
X0157011Y0255400D01*
X0155734Y0254123D02*
X0003968Y0254123D01*
X0003968Y0253125D02*
X0154735Y0253125D01*
X0154726Y0252126D02*
X0003968Y0252126D01*
X0003968Y0251128D02*
X0154726Y0251128D01*
X0154726Y0250129D02*
X0003968Y0250129D01*
X0003968Y0249131D02*
X0155480Y0249131D01*
X0156478Y0248132D02*
X0003968Y0248132D01*
X0003968Y0247134D02*
X0167305Y0247134D01*
X0166307Y0246135D02*
X0003968Y0246135D01*
X0003968Y0245137D02*
X0156747Y0245137D01*
X0155749Y0244138D02*
X0003968Y0244138D01*
X0003968Y0243140D02*
X0118311Y0243140D01*
X0117313Y0242141D02*
X0003968Y0242141D01*
X0003968Y0241143D02*
X0116314Y0241143D01*
X0115316Y0240144D02*
X0003968Y0240144D01*
X0003968Y0239146D02*
X0114317Y0239146D01*
X0110121Y0238147D02*
X0097604Y0238147D01*
X0096177Y0238147D02*
X0095799Y0238147D01*
X0095799Y0237149D02*
X0096177Y0237149D01*
X0096177Y0236150D02*
X0095799Y0236150D01*
X0095799Y0235152D02*
X0096177Y0235152D01*
X0096177Y0234153D02*
X0095799Y0234153D01*
X0095988Y0233783D02*
X0096500Y0233500D01*
X0096500Y0228500D01*
X0114500Y0228500D01*
X0116500Y0230500D01*
X0127500Y0219500D01*
X0127500Y0201500D01*
X0136500Y0192500D01*
X0136500Y0176500D01*
X0142500Y0170500D01*
X0268500Y0170500D01*
X0272500Y0174500D01*
X0272500Y0178500D01*
X0271500Y0179500D01*
X0271500Y0186500D01*
X0269500Y0186500D01*
X0262500Y0193500D01*
X0258500Y0193500D01*
X0251500Y0186500D01*
X0244500Y0193500D01*
X0241500Y0193500D01*
X0241500Y0216500D01*
X0241500Y0223500D01*
X0252500Y0223500D01*
X0259500Y0216500D01*
X0261500Y0216500D01*
X0261800Y0216800D02*
X0265400Y0216800D01*
X0265400Y0219284D01*
X0265250Y0220038D01*
X0264956Y0220747D01*
X0264529Y0221386D01*
X0263986Y0221929D01*
X0263347Y0222356D01*
X0262638Y0222650D01*
X0261884Y0222800D01*
X0261800Y0222800D01*
X0261800Y0216800D01*
X0261800Y0216200D01*
X0265400Y0216200D01*
X0265400Y0213716D01*
X0265250Y0212962D01*
X0264956Y0212253D01*
X0264529Y0211614D01*
X0263986Y0211071D01*
X0263347Y0210644D01*
X0262638Y0210350D01*
X0261884Y0210200D01*
X0261800Y0210200D01*
X0261800Y0216200D01*
X0261200Y0216200D01*
X0261200Y0210200D01*
X0261116Y0210200D01*
X0260362Y0210350D01*
X0259653Y0210644D01*
X0259014Y0211071D01*
X0258471Y0211614D01*
X0258044Y0212253D01*
X0257750Y0212962D01*
X0257600Y0213716D01*
X0257600Y0216200D01*
X0261200Y0216200D01*
X0261200Y0216800D01*
X0261200Y0222800D01*
X0261116Y0222800D01*
X0260362Y0222650D01*
X0259653Y0222356D01*
X0259014Y0221929D01*
X0258471Y0221386D01*
X0258044Y0220747D01*
X0257750Y0220038D01*
X0257600Y0219284D01*
X0257600Y0216800D01*
X0261200Y0216800D01*
X0261800Y0216800D01*
X0261800Y0217178D02*
X0261200Y0217178D01*
X0261200Y0216180D02*
X0261800Y0216180D01*
X0261800Y0215181D02*
X0261200Y0215181D01*
X0261200Y0214183D02*
X0261800Y0214183D01*
X0261800Y0213184D02*
X0261200Y0213184D01*
X0261200Y0212186D02*
X0261800Y0212186D01*
X0261800Y0211187D02*
X0261200Y0211187D01*
X0258897Y0211187D02*
X0254103Y0211187D01*
X0253709Y0210794D02*
X0254806Y0211891D01*
X0255400Y0213324D01*
X0255400Y0219676D01*
X0254806Y0221109D01*
X0253709Y0222206D01*
X0252276Y0222800D01*
X0250724Y0222800D01*
X0249291Y0222206D01*
X0248194Y0221109D01*
X0247600Y0219676D01*
X0247600Y0213324D01*
X0248194Y0211891D01*
X0249291Y0210794D01*
X0250724Y0210200D01*
X0252276Y0210200D01*
X0253709Y0210794D01*
X0254928Y0212186D02*
X0258088Y0212186D01*
X0257706Y0213184D02*
X0255342Y0213184D01*
X0255400Y0214183D02*
X0257600Y0214183D01*
X0257600Y0215181D02*
X0255400Y0215181D01*
X0255400Y0216180D02*
X0257600Y0216180D01*
X0257600Y0217178D02*
X0255400Y0217178D01*
X0255400Y0218177D02*
X0257600Y0218177D01*
X0257600Y0219175D02*
X0255400Y0219175D01*
X0255194Y0220174D02*
X0257806Y0220174D01*
X0258328Y0221172D02*
X0254743Y0221172D01*
X0253744Y0222171D02*
X0259376Y0222171D01*
X0261200Y0222171D02*
X0261800Y0222171D01*
X0261800Y0221172D02*
X0261200Y0221172D01*
X0261200Y0220174D02*
X0261800Y0220174D01*
X0261800Y0219175D02*
X0261200Y0219175D01*
X0261200Y0218177D02*
X0261800Y0218177D01*
X0265400Y0218177D02*
X0267600Y0218177D01*
X0267600Y0219175D02*
X0265400Y0219175D01*
X0265194Y0220174D02*
X0267806Y0220174D01*
X0267600Y0219676D02*
X0268194Y0221109D01*
X0269291Y0222206D01*
X0270724Y0222800D01*
X0272276Y0222800D01*
X0273709Y0222206D01*
X0274806Y0221109D01*
X0275400Y0219676D01*
X0275400Y0213324D01*
X0274806Y0211891D01*
X0273709Y0210794D01*
X0272276Y0210200D01*
X0270724Y0210200D01*
X0269291Y0210794D01*
X0268194Y0211891D01*
X0267600Y0213324D01*
X0267600Y0219676D01*
X0268257Y0221172D02*
X0264672Y0221172D01*
X0263624Y0222171D02*
X0269256Y0222171D01*
X0273744Y0222171D02*
X0278500Y0222171D01*
X0278500Y0223170D02*
X0227500Y0223170D01*
X0227500Y0224168D02*
X0278500Y0224168D01*
X0278500Y0225167D02*
X0227500Y0225167D01*
X0227500Y0226165D02*
X0278500Y0226165D01*
X0278500Y0227164D02*
X0227500Y0227164D01*
X0227500Y0228162D02*
X0278500Y0228162D01*
X0278500Y0229161D02*
X0262332Y0229161D01*
X0262267Y0229134D02*
X0263976Y0229842D01*
X0265284Y0231150D01*
X0265992Y0232859D01*
X0265992Y0234708D01*
X0265284Y0236417D01*
X0263976Y0237725D01*
X0263890Y0237761D01*
X0264372Y0238111D01*
X0264889Y0238628D01*
X0265319Y0239221D01*
X0265651Y0239873D01*
X0265878Y0240569D01*
X0265992Y0241292D01*
X0265992Y0241468D01*
X0261532Y0241468D01*
X0261532Y0241846D01*
X0265992Y0241846D01*
X0265992Y0242023D01*
X0265878Y0242746D01*
X0265651Y0243442D01*
X0265319Y0244094D01*
X0264889Y0244686D01*
X0264372Y0245204D01*
X0263890Y0245554D01*
X0263976Y0245590D01*
X0265284Y0246898D01*
X0265992Y0248607D01*
X0265992Y0249179D01*
X0278500Y0236672D01*
X0278500Y0193328D01*
X0278328Y0193500D01*
X0269328Y0202500D01*
X0256292Y0202500D01*
X0256019Y0202773D01*
X0255033Y0203181D01*
X0253967Y0203181D01*
X0252981Y0202773D01*
X0252227Y0202019D01*
X0251819Y0201033D01*
X0251819Y0199967D01*
X0252227Y0198981D01*
X0252981Y0198227D01*
X0253967Y0197819D01*
X0255033Y0197819D01*
X0256019Y0198227D01*
X0256292Y0198500D01*
X0267672Y0198500D01*
X0268672Y0197500D01*
X0258292Y0197500D01*
X0258019Y0197773D01*
X0257033Y0198181D01*
X0255967Y0198181D01*
X0254981Y0197773D01*
X0254227Y0197019D01*
X0253819Y0196033D01*
X0253819Y0194967D01*
X0254227Y0193981D01*
X0254981Y0193227D01*
X0255967Y0192819D01*
X0257033Y0192819D01*
X0258019Y0193227D01*
X0258292Y0193500D01*
X0269672Y0193500D01*
X0270495Y0192677D01*
X0270362Y0192650D01*
X0269653Y0192356D01*
X0269014Y0191929D01*
X0268471Y0191386D01*
X0268044Y0190747D01*
X0267750Y0190038D01*
X0267600Y0189284D01*
X0267600Y0186800D01*
X0271200Y0186800D01*
X0271200Y0186200D01*
X0267600Y0186200D01*
X0267600Y0183716D01*
X0267750Y0182962D01*
X0268044Y0182253D01*
X0268471Y0181614D01*
X0268801Y0181284D01*
X0267554Y0181800D01*
X0265446Y0181800D01*
X0264199Y0181284D01*
X0264806Y0181891D01*
X0265400Y0183324D01*
X0265400Y0189676D01*
X0264806Y0191109D01*
X0263709Y0192206D01*
X0262276Y0192800D01*
X0260724Y0192800D01*
X0259291Y0192206D01*
X0258194Y0191109D01*
X0257600Y0189676D01*
X0257600Y0183324D01*
X0258194Y0181891D01*
X0258801Y0181284D01*
X0257554Y0181800D01*
X0255446Y0181800D01*
X0254199Y0181284D01*
X0254529Y0181614D01*
X0254956Y0182253D01*
X0255250Y0182962D01*
X0255400Y0183716D01*
X0255400Y0186200D01*
X0251800Y0186200D01*
X0251800Y0186800D01*
X0251200Y0186800D01*
X0251200Y0192800D01*
X0251116Y0192800D01*
X0250362Y0192650D01*
X0249653Y0192356D01*
X0249014Y0191929D01*
X0248471Y0191386D01*
X0248044Y0190747D01*
X0247750Y0190038D01*
X0247600Y0189284D01*
X0247600Y0186800D01*
X0251200Y0186800D01*
X0251200Y0186200D01*
X0247600Y0186200D01*
X0247600Y0183716D01*
X0247750Y0182962D01*
X0248044Y0182253D01*
X0248471Y0181614D01*
X0248801Y0181284D01*
X0247554Y0181800D01*
X0245446Y0181800D01*
X0244199Y0181284D01*
X0244806Y0181891D01*
X0245400Y0183324D01*
X0245400Y0189676D01*
X0244806Y0191109D01*
X0243709Y0192206D01*
X0242276Y0192800D01*
X0240724Y0192800D01*
X0239291Y0192206D01*
X0238194Y0191109D01*
X0237600Y0189676D01*
X0237600Y0183324D01*
X0238194Y0181891D01*
X0238801Y0181284D01*
X0237554Y0181800D01*
X0235446Y0181800D01*
X0234199Y0181284D01*
X0234529Y0181614D01*
X0234956Y0182253D01*
X0235250Y0182962D01*
X0235400Y0183716D01*
X0235400Y0186200D01*
X0231800Y0186200D01*
X0231800Y0186800D01*
X0231200Y0186800D01*
X0231200Y0192800D01*
X0231116Y0192800D01*
X0230362Y0192650D01*
X0229653Y0192356D01*
X0229014Y0191929D01*
X0228471Y0191386D01*
X0228044Y0190747D01*
X0227750Y0190038D01*
X0227600Y0189284D01*
X0227600Y0186800D01*
X0231200Y0186800D01*
X0231200Y0186200D01*
X0227600Y0186200D01*
X0227600Y0183716D01*
X0227750Y0182962D01*
X0228044Y0182253D01*
X0228471Y0181614D01*
X0228801Y0181284D01*
X0227554Y0181800D01*
X0225446Y0181800D01*
X0224199Y0181284D01*
X0224806Y0181891D01*
X0225400Y0183324D01*
X0225400Y0189676D01*
X0224806Y0191109D01*
X0223709Y0192206D01*
X0223500Y0192293D01*
X0223500Y0207672D01*
X0226328Y0210500D01*
X0227500Y0211672D01*
X0227500Y0232500D01*
X0229282Y0232500D01*
X0229842Y0231150D01*
X0231150Y0229842D01*
X0232859Y0229134D01*
X0234708Y0229134D01*
X0236417Y0229842D01*
X0237725Y0231150D01*
X0237761Y0231236D01*
X0238111Y0230754D01*
X0238628Y0230237D01*
X0239221Y0229807D01*
X0239873Y0229475D01*
X0240569Y0229248D01*
X0241292Y0229134D01*
X0241468Y0229134D01*
X0241468Y0233594D01*
X0241846Y0233594D01*
X0241846Y0229134D01*
X0242023Y0229134D01*
X0242746Y0229248D01*
X0243442Y0229475D01*
X0244094Y0229807D01*
X0244686Y0230237D01*
X0245204Y0230754D01*
X0245634Y0231347D01*
X0245966Y0231999D01*
X0246193Y0232695D01*
X0246307Y0233418D01*
X0246307Y0233594D01*
X0241847Y0233594D01*
X0241847Y0233972D01*
X0246307Y0233972D01*
X0246307Y0234149D01*
X0246193Y0234872D01*
X0245966Y0235568D01*
X0245634Y0236220D01*
X0245204Y0236812D01*
X0244686Y0237330D01*
X0244094Y0237760D01*
X0243442Y0238092D01*
X0242746Y0238319D01*
X0242023Y0238433D01*
X0241846Y0238433D01*
X0241846Y0233973D01*
X0241468Y0233973D01*
X0241468Y0238433D01*
X0241292Y0238433D01*
X0240569Y0238319D01*
X0239873Y0238092D01*
X0239221Y0237760D01*
X0238628Y0237330D01*
X0238111Y0236812D01*
X0237761Y0236331D01*
X0237725Y0236417D01*
X0236417Y0237725D01*
X0234708Y0238433D01*
X0232859Y0238433D01*
X0231150Y0237725D01*
X0229924Y0236500D01*
X0228328Y0236500D01*
X0212500Y0252328D01*
X0211328Y0253500D01*
X0182141Y0253500D01*
X0258773Y0253500D01*
X0258709Y0253473D01*
X0257401Y0252165D01*
X0256693Y0250456D01*
X0256693Y0248607D01*
X0257401Y0246898D01*
X0258709Y0245590D01*
X0258795Y0245554D01*
X0258313Y0245204D01*
X0257796Y0244686D01*
X0257366Y0244094D01*
X0257034Y0243442D01*
X0256807Y0242746D01*
X0256693Y0242023D01*
X0256693Y0241846D01*
X0261153Y0241846D01*
X0261153Y0241468D01*
X0256693Y0241468D01*
X0256693Y0241292D01*
X0256807Y0240569D01*
X0257034Y0239873D01*
X0257366Y0239221D01*
X0257796Y0238628D01*
X0258313Y0238111D01*
X0258795Y0237761D01*
X0258709Y0237725D01*
X0257401Y0236417D01*
X0256693Y0234708D01*
X0256693Y0232859D01*
X0257401Y0231150D01*
X0258709Y0229842D01*
X0260418Y0229134D01*
X0262267Y0229134D01*
X0260353Y0229161D02*
X0242192Y0229161D01*
X0241846Y0229161D02*
X0241468Y0229161D01*
X0241123Y0229161D02*
X0234773Y0229161D01*
X0232794Y0229161D02*
X0227500Y0229161D01*
X0227500Y0230159D02*
X0230832Y0230159D01*
X0229838Y0231158D02*
X0227500Y0231158D01*
X0227500Y0232156D02*
X0229425Y0232156D01*
X0227500Y0234500D02*
X0210500Y0251500D01*
X0178626Y0251500D01*
X0182141Y0253500D02*
X0182141Y0253500D01*
X0176500Y0255500D02*
X0262500Y0255500D01*
X0280500Y0237500D01*
X0280500Y0094500D01*
X0276500Y0090500D01*
X0256500Y0090500D01*
X0250500Y0096500D01*
X0250500Y0103500D01*
X0237500Y0116500D01*
X0236500Y0116500D01*
X0233170Y0112335D02*
X0229830Y0112335D01*
X0230829Y0113333D02*
X0232171Y0113333D01*
X0231661Y0114332D02*
X0231339Y0114332D01*
X0227883Y0111336D02*
X0235117Y0111336D01*
X0237883Y0111336D02*
X0239835Y0111336D01*
X0240834Y0110338D02*
X0193166Y0110338D01*
X0194165Y0111336D02*
X0195117Y0111336D01*
X0197883Y0111336D02*
X0205117Y0111336D01*
X0203170Y0112335D02*
X0199830Y0112335D01*
X0200829Y0113333D02*
X0202171Y0113333D01*
X0201661Y0114332D02*
X0201339Y0114332D01*
X0196500Y0116500D02*
X0181500Y0101500D01*
X0181500Y0096500D01*
X0185400Y0096359D02*
X0187600Y0096359D01*
X0187600Y0097357D02*
X0185400Y0097357D01*
X0185400Y0098356D02*
X0187600Y0098356D01*
X0187600Y0099354D02*
X0185400Y0099354D01*
X0185120Y0100353D02*
X0187880Y0100353D01*
X0187600Y0099676D02*
X0188194Y0101109D01*
X0189291Y0102206D01*
X0190724Y0102800D01*
X0192276Y0102800D01*
X0193709Y0102206D01*
X0194806Y0101109D01*
X0195400Y0099676D01*
X0195400Y0093324D01*
X0194806Y0091891D01*
X0193709Y0090794D01*
X0192276Y0090200D01*
X0190724Y0090200D01*
X0189291Y0090794D01*
X0188194Y0091891D01*
X0187600Y0093324D01*
X0187600Y0099676D01*
X0188436Y0101351D02*
X0184564Y0101351D01*
X0185178Y0102350D02*
X0189637Y0102350D01*
X0187175Y0104347D02*
X0244031Y0104347D01*
X0243127Y0103348D02*
X0186177Y0103348D01*
X0188174Y0105345D02*
X0245826Y0105345D01*
X0244828Y0106344D02*
X0189172Y0106344D01*
X0190171Y0107342D02*
X0243829Y0107342D01*
X0242831Y0108341D02*
X0191169Y0108341D01*
X0192168Y0109339D02*
X0241832Y0109339D01*
X0246500Y0116500D02*
X0247500Y0116500D01*
X0260500Y0103500D01*
X0260500Y0096500D01*
X0264500Y0092500D01*
X0268500Y0092500D01*
X0270500Y0094500D01*
X0270500Y0101500D01*
X0277500Y0108500D01*
X0277500Y0191500D01*
X0268500Y0200500D01*
X0254500Y0200500D01*
X0252409Y0202201D02*
X0223500Y0202201D01*
X0223500Y0203199D02*
X0278500Y0203199D01*
X0278500Y0202201D02*
X0269628Y0202201D01*
X0270626Y0201202D02*
X0278500Y0201202D01*
X0278500Y0200204D02*
X0271625Y0200204D01*
X0272623Y0199205D02*
X0278500Y0199205D01*
X0278500Y0198207D02*
X0273622Y0198207D01*
X0274620Y0197208D02*
X0278500Y0197208D01*
X0278500Y0196210D02*
X0275619Y0196210D01*
X0276617Y0195211D02*
X0278500Y0195211D01*
X0278500Y0194213D02*
X0277616Y0194213D01*
X0275500Y0190500D02*
X0275500Y0129500D01*
X0268500Y0122500D01*
X0142500Y0122500D01*
X0136500Y0116500D01*
X0131500Y0114722D02*
X0132007Y0113498D01*
X0133498Y0112007D01*
X0135446Y0111200D01*
X0137554Y0111200D01*
X0139502Y0112007D01*
X0140993Y0113498D01*
X0141500Y0114722D01*
X0142007Y0113498D01*
X0143498Y0112007D01*
X0145393Y0111222D01*
X0134945Y0100774D01*
X0134806Y0101109D01*
X0133709Y0102206D01*
X0132276Y0102800D01*
X0130724Y0102800D01*
X0129291Y0102206D01*
X0128194Y0101109D01*
X0127600Y0099676D01*
X0127600Y0093324D01*
X0128194Y0091891D01*
X0129291Y0090794D01*
X0130724Y0090200D01*
X0132276Y0090200D01*
X0133709Y0090794D01*
X0134806Y0091891D01*
X0135400Y0093324D01*
X0135400Y0095572D01*
X0137600Y0097772D01*
X0137600Y0096800D01*
X0141200Y0096800D01*
X0141200Y0096200D01*
X0141800Y0096200D01*
X0141800Y0096800D01*
X0145400Y0096800D01*
X0145400Y0099284D01*
X0145250Y0100038D01*
X0144956Y0100747D01*
X0144529Y0101386D01*
X0143986Y0101929D01*
X0143347Y0102356D01*
X0142638Y0102650D01*
X0142505Y0102677D01*
X0148328Y0108500D01*
X0181328Y0108500D01*
X0184444Y0111615D01*
X0185446Y0111200D01*
X0187554Y0111200D01*
X0188950Y0111778D01*
X0179500Y0102328D01*
X0179500Y0102293D01*
X0179291Y0102206D01*
X0178194Y0101109D01*
X0177600Y0099676D01*
X0177600Y0095228D01*
X0175400Y0097428D01*
X0175400Y0099676D01*
X0174806Y0101109D01*
X0173709Y0102206D01*
X0172276Y0102800D01*
X0170724Y0102800D01*
X0169291Y0102206D01*
X0168956Y0101872D01*
X0165328Y0105500D01*
X0159672Y0105500D01*
X0158500Y0104328D01*
X0154945Y0100774D01*
X0154806Y0101109D01*
X0153709Y0102206D01*
X0152276Y0102800D01*
X0150724Y0102800D01*
X0149291Y0102206D01*
X0148194Y0101109D01*
X0147600Y0099676D01*
X0147600Y0095428D01*
X0145279Y0093107D01*
X0145400Y0093716D01*
X0145400Y0096200D01*
X0141800Y0096200D01*
X0141800Y0090200D01*
X0141884Y0090200D01*
X0142493Y0090321D01*
X0141672Y0089500D01*
X0100328Y0089500D01*
X0095500Y0094328D01*
X0095500Y0095328D01*
X0095400Y0095428D01*
X0095400Y0099676D01*
X0094806Y0101109D01*
X0093709Y0102206D01*
X0093500Y0102293D01*
X0093500Y0102328D01*
X0085400Y0110428D01*
X0085400Y0113115D01*
X0083115Y0115400D01*
X0079885Y0115400D01*
X0077600Y0113115D01*
X0077600Y0109885D01*
X0079885Y0107600D01*
X0082572Y0107600D01*
X0088628Y0101543D01*
X0088194Y0101109D01*
X0087600Y0099676D01*
X0087600Y0095228D01*
X0087500Y0095328D01*
X0087500Y0101328D01*
X0084500Y0104328D01*
X0083328Y0105500D01*
X0079672Y0105500D01*
X0077000Y0102828D01*
X0076328Y0103500D01*
X0055458Y0124370D01*
X0055490Y0124370D01*
X0055822Y0124232D01*
X0072296Y0124232D01*
X0073766Y0124841D01*
X0074891Y0125966D01*
X0075500Y0127437D01*
X0075500Y0212500D01*
X0087296Y0212500D01*
X0087537Y0212600D01*
X0088115Y0212600D01*
X0088343Y0212828D01*
X0093672Y0207500D01*
X0115672Y0207500D01*
X0118276Y0204895D01*
X0117981Y0204773D01*
X0117227Y0204019D01*
X0116819Y0203033D01*
X0116819Y0202647D01*
X0099672Y0185500D01*
X0098500Y0184328D01*
X0098500Y0173672D01*
X0112819Y0159353D01*
X0112819Y0158967D01*
X0113227Y0157981D01*
X0113981Y0157227D01*
X0114967Y0156819D01*
X0116033Y0156819D01*
X0117019Y0157227D01*
X0117773Y0157981D01*
X0118181Y0158967D01*
X0118181Y0160033D01*
X0117773Y0161019D01*
X0117019Y0161773D01*
X0116033Y0162181D01*
X0115647Y0162181D01*
X0106628Y0171200D01*
X0107554Y0171200D01*
X0109502Y0172007D01*
X0110993Y0173498D01*
X0111500Y0174722D01*
X0112007Y0173498D01*
X0113498Y0172007D01*
X0115446Y0171200D01*
X0117554Y0171200D01*
X0119502Y0172007D01*
X0120993Y0173498D01*
X0121500Y0174722D01*
X0122007Y0173498D01*
X0123498Y0172007D01*
X0125446Y0171200D01*
X0127554Y0171200D01*
X0129502Y0172007D01*
X0130993Y0173498D01*
X0131503Y0174728D01*
X0131588Y0174466D01*
X0131967Y0173722D01*
X0132457Y0173047D01*
X0133047Y0172457D01*
X0133722Y0171967D01*
X0134466Y0171588D01*
X0135259Y0171330D01*
X0136000Y0171213D01*
X0136000Y0176000D01*
X0137000Y0176000D01*
X0137000Y0171213D01*
X0137741Y0171330D01*
X0138534Y0171588D01*
X0139278Y0171967D01*
X0139953Y0172457D01*
X0140543Y0173047D01*
X0141033Y0173722D01*
X0141412Y0174466D01*
X0141497Y0174728D01*
X0142007Y0173498D01*
X0143498Y0172007D01*
X0145446Y0171200D01*
X0147554Y0171200D01*
X0149502Y0172007D01*
X0150993Y0173498D01*
X0151500Y0174722D01*
X0152007Y0173498D01*
X0153498Y0172007D01*
X0155446Y0171200D01*
X0157554Y0171200D01*
X0159502Y0172007D01*
X0160993Y0173498D01*
X0161500Y0174722D01*
X0162007Y0173498D01*
X0163498Y0172007D01*
X0165446Y0171200D01*
X0167554Y0171200D01*
X0169502Y0172007D01*
X0170993Y0173498D01*
X0171500Y0174722D01*
X0172007Y0173498D01*
X0173498Y0172007D01*
X0175446Y0171200D01*
X0177554Y0171200D01*
X0179502Y0172007D01*
X0180993Y0173498D01*
X0181500Y0174722D01*
X0182007Y0173498D01*
X0183498Y0172007D01*
X0185446Y0171200D01*
X0187554Y0171200D01*
X0189502Y0172007D01*
X0190993Y0173498D01*
X0191500Y0174722D01*
X0192007Y0173498D01*
X0193498Y0172007D01*
X0195446Y0171200D01*
X0197554Y0171200D01*
X0199502Y0172007D01*
X0200993Y0173498D01*
X0201500Y0174722D01*
X0202007Y0173498D01*
X0203498Y0172007D01*
X0205446Y0171200D01*
X0207554Y0171200D01*
X0209502Y0172007D01*
X0210993Y0173498D01*
X0211500Y0174722D01*
X0212007Y0173498D01*
X0213498Y0172007D01*
X0215446Y0171200D01*
X0217554Y0171200D01*
X0219502Y0172007D01*
X0220993Y0173498D01*
X0221500Y0174722D01*
X0222007Y0173498D01*
X0223498Y0172007D01*
X0225446Y0171200D01*
X0227554Y0171200D01*
X0229502Y0172007D01*
X0230993Y0173498D01*
X0231500Y0174722D01*
X0232007Y0173498D01*
X0233498Y0172007D01*
X0235446Y0171200D01*
X0237554Y0171200D01*
X0239502Y0172007D01*
X0240993Y0173498D01*
X0241500Y0174722D01*
X0242007Y0173498D01*
X0243498Y0172007D01*
X0245446Y0171200D01*
X0247554Y0171200D01*
X0249502Y0172007D01*
X0250993Y0173498D01*
X0251500Y0174722D01*
X0252007Y0173498D01*
X0253498Y0172007D01*
X0255446Y0171200D01*
X0257554Y0171200D01*
X0259502Y0172007D01*
X0260993Y0173498D01*
X0261500Y0174722D01*
X0262007Y0173498D01*
X0263498Y0172007D01*
X0265446Y0171200D01*
X0267554Y0171200D01*
X0269502Y0172007D01*
X0270993Y0173498D01*
X0271800Y0175446D01*
X0271800Y0177554D01*
X0270993Y0179502D01*
X0269992Y0180503D01*
X0270362Y0180350D01*
X0271116Y0180200D01*
X0271200Y0180200D01*
X0271200Y0186200D01*
X0271800Y0186200D01*
X0271800Y0180200D01*
X0271884Y0180200D01*
X0272638Y0180350D01*
X0273347Y0180644D01*
X0273500Y0180746D01*
X0273500Y0130328D01*
X0267672Y0124500D01*
X0141672Y0124500D01*
X0138556Y0121385D01*
X0137554Y0121800D01*
X0135446Y0121800D01*
X0133498Y0120993D01*
X0132007Y0119502D01*
X0131500Y0118278D01*
X0130993Y0119502D01*
X0129502Y0120993D01*
X0127554Y0121800D01*
X0125446Y0121800D01*
X0123498Y0120993D01*
X0122007Y0119502D01*
X0121500Y0118278D01*
X0120993Y0119502D01*
X0119502Y0120993D01*
X0117554Y0121800D01*
X0115446Y0121800D01*
X0113498Y0120993D01*
X0112007Y0119502D01*
X0111500Y0118278D01*
X0110993Y0119502D01*
X0109502Y0120993D01*
X0107554Y0121800D01*
X0105446Y0121800D01*
X0103498Y0120993D01*
X0102007Y0119502D01*
X0101200Y0117554D01*
X0101200Y0115446D01*
X0101615Y0114444D01*
X0099500Y0112328D01*
X0099500Y0102293D01*
X0099291Y0102206D01*
X0098194Y0101109D01*
X0097600Y0099676D01*
X0097600Y0093324D01*
X0098194Y0091891D01*
X0099291Y0090794D01*
X0100724Y0090200D01*
X0102276Y0090200D01*
X0103709Y0090794D01*
X0104806Y0091891D01*
X0105400Y0093324D01*
X0105400Y0099676D01*
X0104806Y0101109D01*
X0103709Y0102206D01*
X0103500Y0102293D01*
X0103500Y0110672D01*
X0104444Y0111615D01*
X0105446Y0111200D01*
X0107554Y0111200D01*
X0109502Y0112007D01*
X0110993Y0113498D01*
X0111500Y0114722D01*
X0112007Y0113498D01*
X0113498Y0112007D01*
X0115446Y0111200D01*
X0117554Y0111200D01*
X0119502Y0112007D01*
X0120993Y0113498D01*
X0121500Y0114722D01*
X0122007Y0113498D01*
X0123498Y0112007D01*
X0125446Y0111200D01*
X0127554Y0111200D01*
X0129502Y0112007D01*
X0130993Y0113498D01*
X0131500Y0114722D01*
X0131339Y0114332D02*
X0131661Y0114332D01*
X0132171Y0113333D02*
X0130829Y0113333D01*
X0129830Y0112335D02*
X0133170Y0112335D01*
X0135117Y0111336D02*
X0127883Y0111336D01*
X0125117Y0111336D02*
X0117883Y0111336D01*
X0119830Y0112335D02*
X0123170Y0112335D01*
X0122171Y0113333D02*
X0120829Y0113333D01*
X0121339Y0114332D02*
X0121661Y0114332D01*
X0121520Y0118326D02*
X0121480Y0118326D01*
X0121067Y0119324D02*
X0121933Y0119324D01*
X0122828Y0120323D02*
X0120172Y0120323D01*
X0118710Y0121321D02*
X0124290Y0121321D01*
X0128710Y0121321D02*
X0134290Y0121321D01*
X0132828Y0120323D02*
X0130172Y0120323D01*
X0131067Y0119324D02*
X0131933Y0119324D01*
X0131520Y0118326D02*
X0131480Y0118326D01*
X0139491Y0122320D02*
X0085400Y0122320D01*
X0085400Y0121800D02*
X0085400Y0123115D01*
X0083115Y0125400D01*
X0081800Y0125400D01*
X0081800Y0121800D01*
X0081200Y0121800D01*
X0081200Y0125400D01*
X0079885Y0125400D01*
X0077600Y0123115D01*
X0077600Y0121800D01*
X0081200Y0121800D01*
X0081200Y0121200D01*
X0077600Y0121200D01*
X0077600Y0119885D01*
X0079885Y0117600D01*
X0081200Y0117600D01*
X0081200Y0121200D01*
X0081800Y0121200D01*
X0081800Y0121800D01*
X0085400Y0121800D01*
X0085400Y0121200D02*
X0081800Y0121200D01*
X0081800Y0117600D01*
X0083115Y0117600D01*
X0085400Y0119885D01*
X0085400Y0121200D01*
X0085400Y0120323D02*
X0102828Y0120323D01*
X0101933Y0119324D02*
X0084840Y0119324D01*
X0083841Y0118326D02*
X0101520Y0118326D01*
X0101200Y0117327D02*
X0062501Y0117327D01*
X0063500Y0116329D02*
X0101200Y0116329D01*
X0101248Y0115330D02*
X0083185Y0115330D01*
X0084184Y0114332D02*
X0101503Y0114332D01*
X0100505Y0113333D02*
X0085182Y0113333D01*
X0085400Y0112335D02*
X0099506Y0112335D01*
X0099500Y0111336D02*
X0085400Y0111336D01*
X0085491Y0110338D02*
X0099500Y0110338D01*
X0099500Y0109339D02*
X0086489Y0109339D01*
X0087488Y0108341D02*
X0099500Y0108341D01*
X0099500Y0107342D02*
X0088486Y0107342D01*
X0089485Y0106344D02*
X0099500Y0106344D01*
X0099500Y0105345D02*
X0090483Y0105345D01*
X0091482Y0104347D02*
X0099500Y0104347D01*
X0099500Y0103348D02*
X0092480Y0103348D01*
X0093479Y0102350D02*
X0099500Y0102350D01*
X0098436Y0101351D02*
X0094564Y0101351D01*
X0095120Y0100353D02*
X0097880Y0100353D01*
X0097600Y0099354D02*
X0095400Y0099354D01*
X0095400Y0098356D02*
X0097600Y0098356D01*
X0097600Y0097357D02*
X0095400Y0097357D01*
X0095400Y0096359D02*
X0097600Y0096359D01*
X0097600Y0095360D02*
X0095468Y0095360D01*
X0095500Y0094500D02*
X0095500Y0107500D01*
X0081500Y0121500D01*
X0136500Y0176500D01*
X0136000Y0177238D02*
X0137000Y0177238D01*
X0137000Y0178237D02*
X0136000Y0178237D01*
X0136000Y0179235D02*
X0137000Y0179235D01*
X0137000Y0180234D02*
X0136000Y0180234D01*
X0136000Y0181232D02*
X0137000Y0181232D01*
X0138053Y0182231D02*
X0134947Y0182231D01*
X0135361Y0183229D02*
X0137639Y0183229D01*
X0137600Y0184228D02*
X0135400Y0184228D01*
X0135400Y0185226D02*
X0137600Y0185226D01*
X0137600Y0186225D02*
X0135400Y0186225D01*
X0135400Y0187223D02*
X0137600Y0187223D01*
X0137600Y0188222D02*
X0135400Y0188222D01*
X0135400Y0189220D02*
X0137600Y0189220D01*
X0137825Y0190219D02*
X0135175Y0190219D01*
X0134698Y0191217D02*
X0138302Y0191217D01*
X0139314Y0192216D02*
X0133686Y0192216D01*
X0129314Y0192216D02*
X0128500Y0192216D01*
X0128500Y0193214D02*
X0139500Y0193214D01*
X0139500Y0194213D02*
X0128500Y0194213D01*
X0128500Y0195211D02*
X0139500Y0195211D01*
X0139500Y0196210D02*
X0128500Y0196210D01*
X0128500Y0197208D02*
X0138963Y0197208D01*
X0137965Y0198207D02*
X0128500Y0198207D01*
X0128500Y0199205D02*
X0136966Y0199205D01*
X0135968Y0200204D02*
X0128500Y0200204D01*
X0127626Y0201202D02*
X0134969Y0201202D01*
X0133971Y0202201D02*
X0126628Y0202201D01*
X0125629Y0203199D02*
X0133500Y0203199D01*
X0133500Y0204198D02*
X0124631Y0204198D01*
X0123632Y0205196D02*
X0133500Y0205196D01*
X0133500Y0206195D02*
X0122634Y0206195D01*
X0121635Y0207193D02*
X0133500Y0207193D01*
X0133500Y0208192D02*
X0120637Y0208192D01*
X0119638Y0209190D02*
X0133500Y0209190D01*
X0133500Y0210189D02*
X0118640Y0210189D01*
X0119291Y0210794D02*
X0120724Y0210200D01*
X0122276Y0210200D01*
X0123709Y0210794D01*
X0124806Y0211891D01*
X0125400Y0213324D01*
X0125400Y0219676D01*
X0124806Y0221109D01*
X0123709Y0222206D01*
X0122276Y0222800D01*
X0120724Y0222800D01*
X0119291Y0222206D01*
X0118194Y0221109D01*
X0117600Y0219676D01*
X0117600Y0213324D01*
X0118194Y0211891D01*
X0119291Y0210794D01*
X0118897Y0211187D02*
X0117641Y0211187D01*
X0118072Y0212186D02*
X0114928Y0212186D01*
X0115342Y0213184D02*
X0117658Y0213184D01*
X0117600Y0214183D02*
X0115400Y0214183D01*
X0115400Y0215181D02*
X0117600Y0215181D01*
X0117600Y0216180D02*
X0115400Y0216180D01*
X0115400Y0217178D02*
X0117600Y0217178D01*
X0117600Y0218177D02*
X0115400Y0218177D01*
X0115400Y0219175D02*
X0117600Y0219175D01*
X0117806Y0220174D02*
X0115194Y0220174D01*
X0114743Y0221172D02*
X0118257Y0221172D01*
X0119256Y0222171D02*
X0113744Y0222171D01*
X0109256Y0222171D02*
X0090500Y0222171D01*
X0090500Y0223170D02*
X0133500Y0223170D01*
X0133500Y0224168D02*
X0090500Y0224168D01*
X0090500Y0225167D02*
X0133500Y0225167D01*
X0133500Y0226165D02*
X0090500Y0226165D01*
X0090500Y0227164D02*
X0133500Y0227164D01*
X0133500Y0228162D02*
X0090500Y0228162D01*
X0090500Y0229161D02*
X0095454Y0229161D01*
X0095799Y0229161D02*
X0096177Y0229161D01*
X0096523Y0229161D02*
X0110747Y0229161D01*
X0112726Y0229161D02*
X0119076Y0229161D01*
X0119421Y0229161D02*
X0119799Y0229161D01*
X0120145Y0229161D02*
X0126495Y0229161D01*
X0128474Y0229161D02*
X0133500Y0229161D01*
X0132407Y0230159D02*
X0130435Y0230159D01*
X0124533Y0230159D02*
X0122532Y0230159D01*
X0123450Y0231158D02*
X0123539Y0231158D01*
X0119799Y0231158D02*
X0119421Y0231158D01*
X0119421Y0232156D02*
X0119799Y0232156D01*
X0119799Y0233155D02*
X0119421Y0233155D01*
X0119500Y0233500D02*
X0119610Y0233783D01*
X0119421Y0233973D02*
X0119421Y0238433D01*
X0119261Y0238433D01*
X0120328Y0239500D01*
X0150500Y0239500D01*
X0150500Y0227672D01*
X0151672Y0226500D01*
X0154500Y0223672D01*
X0154500Y0221415D01*
X0153709Y0222206D01*
X0152276Y0222800D01*
X0150724Y0222800D01*
X0149291Y0222206D01*
X0148194Y0221109D01*
X0147600Y0219676D01*
X0147600Y0213324D01*
X0148194Y0211891D01*
X0149291Y0210794D01*
X0150724Y0210200D01*
X0152276Y0210200D01*
X0153709Y0210794D01*
X0154500Y0211585D01*
X0154500Y0191415D01*
X0153709Y0192206D01*
X0152276Y0192800D01*
X0150724Y0192800D01*
X0149291Y0192206D01*
X0148194Y0191109D01*
X0147600Y0189676D01*
X0147600Y0183324D01*
X0148194Y0181891D01*
X0148801Y0181284D01*
X0147554Y0181800D01*
X0145446Y0181800D01*
X0144199Y0181284D01*
X0144806Y0181891D01*
X0145400Y0183324D01*
X0145400Y0189676D01*
X0144806Y0191109D01*
X0143709Y0192206D01*
X0143500Y0192293D01*
X0143500Y0198328D01*
X0141724Y0200105D01*
X0142019Y0200227D01*
X0142773Y0200981D01*
X0143181Y0201967D01*
X0143181Y0202353D01*
X0144647Y0203819D01*
X0145033Y0203819D01*
X0146019Y0204227D01*
X0146773Y0204981D01*
X0147181Y0205967D01*
X0147181Y0207033D01*
X0146773Y0208019D01*
X0146019Y0208773D01*
X0145033Y0209181D01*
X0143967Y0209181D01*
X0142981Y0208773D01*
X0142227Y0208019D01*
X0141819Y0207033D01*
X0141819Y0206647D01*
X0140353Y0205181D01*
X0139967Y0205181D01*
X0138981Y0204773D01*
X0138227Y0204019D01*
X0138105Y0203724D01*
X0137500Y0204328D01*
X0137500Y0229638D01*
X0137992Y0229842D01*
X0139300Y0231150D01*
X0140008Y0232859D01*
X0140008Y0234708D01*
X0139300Y0236417D01*
X0137992Y0237725D01*
X0136283Y0238433D01*
X0134433Y0238433D01*
X0132724Y0237725D01*
X0131421Y0236422D01*
X0130118Y0237725D01*
X0128409Y0238433D01*
X0126559Y0238433D01*
X0124850Y0237725D01*
X0123543Y0236417D01*
X0123507Y0236331D01*
X0123157Y0236812D01*
X0122639Y0237330D01*
X0122047Y0237760D01*
X0121395Y0238092D01*
X0120699Y0238319D01*
X0119976Y0238433D01*
X0119799Y0238433D01*
X0119799Y0233973D01*
X0119421Y0233973D01*
X0119421Y0234153D02*
X0119799Y0234153D01*
X0119500Y0233500D02*
X0116500Y0230500D01*
X0116688Y0230159D02*
X0114687Y0230159D01*
X0115681Y0231158D02*
X0115771Y0231158D01*
X0119421Y0230159D02*
X0119799Y0230159D01*
X0119799Y0235152D02*
X0119421Y0235152D01*
X0119421Y0236150D02*
X0119799Y0236150D01*
X0119799Y0237149D02*
X0119421Y0237149D01*
X0119421Y0238147D02*
X0119799Y0238147D01*
X0119974Y0239146D02*
X0150500Y0239146D01*
X0150500Y0238147D02*
X0136973Y0238147D01*
X0138569Y0237149D02*
X0150500Y0237149D01*
X0150500Y0236150D02*
X0139411Y0236150D01*
X0139824Y0235152D02*
X0150500Y0235152D01*
X0150500Y0234153D02*
X0140008Y0234153D01*
X0140008Y0233155D02*
X0150500Y0233155D01*
X0150500Y0232156D02*
X0139717Y0232156D01*
X0139303Y0231158D02*
X0150500Y0231158D01*
X0150500Y0230159D02*
X0138309Y0230159D01*
X0137500Y0229161D02*
X0150500Y0229161D01*
X0150500Y0228162D02*
X0137500Y0228162D01*
X0137500Y0227164D02*
X0151008Y0227164D01*
X0152007Y0226165D02*
X0137500Y0226165D01*
X0137500Y0225167D02*
X0153005Y0225167D01*
X0154004Y0224168D02*
X0137500Y0224168D01*
X0137500Y0223170D02*
X0154500Y0223170D01*
X0154500Y0222171D02*
X0153744Y0222171D01*
X0156500Y0224500D02*
X0152500Y0228500D01*
X0152500Y0241500D01*
X0119500Y0241500D01*
X0112500Y0234500D01*
X0111736Y0233783D01*
X0108526Y0237149D02*
X0099198Y0237149D01*
X0100001Y0236150D02*
X0107684Y0236150D01*
X0107270Y0235152D02*
X0100433Y0235152D01*
X0100637Y0234153D02*
X0107087Y0234153D01*
X0107087Y0233155D02*
X0100596Y0233155D01*
X0100348Y0232156D02*
X0107378Y0232156D01*
X0107791Y0231158D02*
X0099828Y0231158D01*
X0098910Y0230159D02*
X0108785Y0230159D01*
X0108257Y0221172D02*
X0090500Y0221172D01*
X0090500Y0220174D02*
X0094659Y0220174D01*
X0094885Y0220400D02*
X0092600Y0218115D01*
X0092600Y0216800D01*
X0096200Y0216800D01*
X0096200Y0220400D01*
X0094885Y0220400D01*
X0096200Y0220174D02*
X0096800Y0220174D01*
X0096800Y0220400D02*
X0098115Y0220400D01*
X0100400Y0218115D01*
X0100400Y0216800D01*
X0096800Y0216800D01*
X0096800Y0216200D01*
X0100400Y0216200D01*
X0100400Y0214885D01*
X0098115Y0212600D01*
X0096800Y0212600D01*
X0096800Y0216200D01*
X0096200Y0216200D01*
X0096200Y0212600D01*
X0094885Y0212600D01*
X0092600Y0214885D01*
X0092600Y0216200D01*
X0096200Y0216200D01*
X0096200Y0216800D01*
X0096800Y0216800D01*
X0096800Y0220400D01*
X0096800Y0219175D02*
X0096200Y0219175D01*
X0096200Y0218177D02*
X0096800Y0218177D01*
X0096800Y0217178D02*
X0096200Y0217178D01*
X0096500Y0216500D02*
X0096500Y0228500D01*
X0096177Y0230159D02*
X0095799Y0230159D01*
X0095799Y0231158D02*
X0096177Y0231158D01*
X0096177Y0232156D02*
X0095799Y0232156D01*
X0095799Y0233155D02*
X0096177Y0233155D01*
X0093066Y0230159D02*
X0091065Y0230159D01*
X0092059Y0231158D02*
X0092149Y0231158D01*
X0092778Y0237149D02*
X0091324Y0237149D01*
X0089729Y0238147D02*
X0094372Y0238147D01*
X0086499Y0238147D02*
X0003968Y0238147D01*
X0003968Y0237149D02*
X0084208Y0237149D01*
X0083210Y0236150D02*
X0003968Y0236150D01*
X0003968Y0235152D02*
X0082737Y0235152D01*
X0082500Y0234153D02*
X0003968Y0234153D01*
X0003968Y0233155D02*
X0082500Y0233155D01*
X0082500Y0232156D02*
X0003968Y0232156D01*
X0003968Y0231158D02*
X0082500Y0231158D01*
X0082500Y0230159D02*
X0003968Y0230159D01*
X0003968Y0229161D02*
X0082500Y0229161D01*
X0082500Y0228162D02*
X0003968Y0228162D01*
X0003968Y0227164D02*
X0082500Y0227164D01*
X0082500Y0226165D02*
X0003968Y0226165D01*
X0003968Y0225167D02*
X0082500Y0225167D01*
X0082500Y0224168D02*
X0003968Y0224168D01*
X0003968Y0223170D02*
X0082500Y0223170D01*
X0082500Y0222171D02*
X0003968Y0222171D01*
X0003968Y0221172D02*
X0082500Y0221172D01*
X0086500Y0216500D02*
X0088500Y0215500D01*
X0094500Y0209500D01*
X0116500Y0209500D01*
X0126500Y0199500D01*
X0126500Y0176500D01*
X0131302Y0174242D02*
X0131702Y0174242D01*
X0132314Y0173244D02*
X0130739Y0173244D01*
X0129741Y0172245D02*
X0133339Y0172245D01*
X0135787Y0171247D02*
X0127668Y0171247D01*
X0125332Y0171247D02*
X0117668Y0171247D01*
X0119741Y0172245D02*
X0123259Y0172245D01*
X0122261Y0173244D02*
X0120739Y0173244D01*
X0121302Y0174242D02*
X0121698Y0174242D01*
X0115332Y0171247D02*
X0107668Y0171247D01*
X0107580Y0170248D02*
X0273500Y0170248D01*
X0273500Y0169250D02*
X0108579Y0169250D01*
X0109577Y0168251D02*
X0273500Y0168251D01*
X0273500Y0167253D02*
X0110576Y0167253D01*
X0111574Y0166254D02*
X0273500Y0166254D01*
X0273500Y0165256D02*
X0112573Y0165256D01*
X0113571Y0164257D02*
X0273500Y0164257D01*
X0273500Y0163259D02*
X0114570Y0163259D01*
X0115568Y0162260D02*
X0273500Y0162260D01*
X0273500Y0161262D02*
X0117530Y0161262D01*
X0118086Y0160263D02*
X0273500Y0160263D01*
X0273500Y0159265D02*
X0118181Y0159265D01*
X0117891Y0158266D02*
X0273500Y0158266D01*
X0273500Y0157268D02*
X0117059Y0157268D01*
X0115500Y0159500D02*
X0100500Y0174500D01*
X0100500Y0183500D01*
X0119500Y0202500D01*
X0117406Y0204198D02*
X0075500Y0204198D01*
X0075500Y0205196D02*
X0117975Y0205196D01*
X0116977Y0206195D02*
X0075500Y0206195D01*
X0075500Y0207193D02*
X0115978Y0207193D01*
X0116888Y0203199D02*
X0075500Y0203199D01*
X0075500Y0202201D02*
X0116372Y0202201D01*
X0115374Y0201202D02*
X0075500Y0201202D01*
X0075500Y0200204D02*
X0114375Y0200204D01*
X0113377Y0199205D02*
X0075500Y0199205D01*
X0075500Y0198207D02*
X0112378Y0198207D01*
X0111380Y0197208D02*
X0075500Y0197208D01*
X0075500Y0196210D02*
X0110381Y0196210D01*
X0109383Y0195211D02*
X0075500Y0195211D01*
X0075500Y0194213D02*
X0108384Y0194213D01*
X0107386Y0193214D02*
X0075500Y0193214D01*
X0075500Y0192216D02*
X0106387Y0192216D01*
X0105389Y0191217D02*
X0075500Y0191217D01*
X0075500Y0190219D02*
X0104390Y0190219D01*
X0103392Y0189220D02*
X0075500Y0189220D01*
X0075500Y0188222D02*
X0102393Y0188222D01*
X0101395Y0187223D02*
X0075500Y0187223D01*
X0075500Y0186225D02*
X0100396Y0186225D01*
X0099398Y0185226D02*
X0075500Y0185226D01*
X0075500Y0184228D02*
X0098500Y0184228D01*
X0098500Y0183229D02*
X0075500Y0183229D01*
X0075500Y0182231D02*
X0098500Y0182231D01*
X0098500Y0181232D02*
X0075500Y0181232D01*
X0075500Y0180234D02*
X0098500Y0180234D01*
X0098500Y0179235D02*
X0075500Y0179235D01*
X0075500Y0178237D02*
X0098500Y0178237D01*
X0098500Y0177238D02*
X0075500Y0177238D01*
X0075500Y0176239D02*
X0098500Y0176239D01*
X0098500Y0175241D02*
X0075500Y0175241D01*
X0075500Y0174242D02*
X0098500Y0174242D01*
X0098928Y0173244D02*
X0075500Y0173244D01*
X0075500Y0172245D02*
X0099926Y0172245D01*
X0100925Y0171247D02*
X0075500Y0171247D01*
X0075500Y0170248D02*
X0101923Y0170248D01*
X0102922Y0169250D02*
X0075500Y0169250D01*
X0075500Y0168251D02*
X0103920Y0168251D01*
X0104919Y0167253D02*
X0075500Y0167253D01*
X0075500Y0166254D02*
X0105917Y0166254D01*
X0106916Y0165256D02*
X0075500Y0165256D01*
X0075500Y0164257D02*
X0107914Y0164257D01*
X0108913Y0163259D02*
X0075500Y0163259D01*
X0075500Y0162260D02*
X0109911Y0162260D01*
X0110910Y0161262D02*
X0075500Y0161262D01*
X0075500Y0160263D02*
X0111908Y0160263D01*
X0112819Y0159265D02*
X0075500Y0159265D01*
X0075500Y0158266D02*
X0113109Y0158266D01*
X0113941Y0157268D02*
X0075500Y0157268D01*
X0075500Y0156269D02*
X0273500Y0156269D01*
X0273500Y0155271D02*
X0075500Y0155271D01*
X0075500Y0154272D02*
X0273500Y0154272D01*
X0273500Y0153274D02*
X0075500Y0153274D01*
X0075500Y0152275D02*
X0273500Y0152275D01*
X0273500Y0151277D02*
X0075500Y0151277D01*
X0075500Y0150278D02*
X0273500Y0150278D01*
X0273500Y0149280D02*
X0075500Y0149280D01*
X0075500Y0148281D02*
X0273500Y0148281D01*
X0273500Y0147283D02*
X0075500Y0147283D01*
X0075500Y0146284D02*
X0273500Y0146284D01*
X0273500Y0145286D02*
X0075500Y0145286D01*
X0075500Y0144287D02*
X0273500Y0144287D01*
X0273500Y0143289D02*
X0075500Y0143289D01*
X0075500Y0142290D02*
X0273500Y0142290D01*
X0273500Y0141292D02*
X0075500Y0141292D01*
X0075500Y0140293D02*
X0273500Y0140293D01*
X0273500Y0139295D02*
X0075500Y0139295D01*
X0075500Y0138296D02*
X0273500Y0138296D01*
X0273500Y0137298D02*
X0075500Y0137298D01*
X0075500Y0136299D02*
X0273500Y0136299D01*
X0273500Y0135301D02*
X0075500Y0135301D01*
X0075500Y0134302D02*
X0273500Y0134302D01*
X0273500Y0133303D02*
X0075500Y0133303D01*
X0075500Y0132305D02*
X0273500Y0132305D01*
X0273500Y0131306D02*
X0075500Y0131306D01*
X0075500Y0130308D02*
X0273480Y0130308D01*
X0272481Y0129309D02*
X0075500Y0129309D01*
X0075500Y0128311D02*
X0271483Y0128311D01*
X0270484Y0127312D02*
X0075449Y0127312D01*
X0075035Y0126314D02*
X0269485Y0126314D01*
X0268487Y0125315D02*
X0083200Y0125315D01*
X0081800Y0125315D02*
X0081200Y0125315D01*
X0081200Y0124317D02*
X0081800Y0124317D01*
X0081800Y0123318D02*
X0081200Y0123318D01*
X0081200Y0122320D02*
X0081800Y0122320D01*
X0081800Y0121321D02*
X0104290Y0121321D01*
X0108710Y0121321D02*
X0114290Y0121321D01*
X0112828Y0120323D02*
X0110172Y0120323D01*
X0111067Y0119324D02*
X0111933Y0119324D01*
X0111520Y0118326D02*
X0111480Y0118326D01*
X0106500Y0116500D02*
X0101500Y0111500D01*
X0101500Y0096500D01*
X0105400Y0096359D02*
X0107600Y0096359D01*
X0107600Y0097357D02*
X0105400Y0097357D01*
X0105400Y0098356D02*
X0107600Y0098356D01*
X0107600Y0099354D02*
X0105400Y0099354D01*
X0105120Y0100353D02*
X0107880Y0100353D01*
X0107600Y0099676D02*
X0108194Y0101109D01*
X0109291Y0102206D01*
X0110724Y0102800D01*
X0112276Y0102800D01*
X0113709Y0102206D01*
X0114806Y0101109D01*
X0115400Y0099676D01*
X0115400Y0093324D01*
X0114806Y0091891D01*
X0113709Y0090794D01*
X0112276Y0090200D01*
X0110724Y0090200D01*
X0109291Y0090794D01*
X0108194Y0091891D01*
X0107600Y0093324D01*
X0107600Y0099676D01*
X0108436Y0101351D02*
X0104564Y0101351D01*
X0103500Y0102350D02*
X0109637Y0102350D01*
X0113363Y0102350D02*
X0119637Y0102350D01*
X0119291Y0102206D02*
X0118194Y0101109D01*
X0117600Y0099676D01*
X0117600Y0093324D01*
X0118194Y0091891D01*
X0119291Y0090794D01*
X0120724Y0090200D01*
X0122276Y0090200D01*
X0123709Y0090794D01*
X0124806Y0091891D01*
X0125400Y0093324D01*
X0125400Y0099676D01*
X0124806Y0101109D01*
X0123709Y0102206D01*
X0122276Y0102800D01*
X0120724Y0102800D01*
X0119291Y0102206D01*
X0118436Y0101351D02*
X0114564Y0101351D01*
X0115120Y0100353D02*
X0117880Y0100353D01*
X0117600Y0099354D02*
X0115400Y0099354D01*
X0115400Y0098356D02*
X0117600Y0098356D01*
X0117600Y0097357D02*
X0115400Y0097357D01*
X0115400Y0096359D02*
X0117600Y0096359D01*
X0117600Y0095360D02*
X0115400Y0095360D01*
X0115400Y0094362D02*
X0117600Y0094362D01*
X0117600Y0093363D02*
X0115400Y0093363D01*
X0115002Y0092365D02*
X0117998Y0092365D01*
X0118719Y0091366D02*
X0114281Y0091366D01*
X0112680Y0090368D02*
X0120320Y0090368D01*
X0122680Y0090368D02*
X0130320Y0090368D01*
X0128719Y0091366D02*
X0124281Y0091366D01*
X0125002Y0092365D02*
X0127998Y0092365D01*
X0127600Y0093363D02*
X0125400Y0093363D01*
X0125400Y0094362D02*
X0127600Y0094362D01*
X0127600Y0095360D02*
X0125400Y0095360D01*
X0125400Y0096359D02*
X0127600Y0096359D01*
X0127600Y0097357D02*
X0125400Y0097357D01*
X0125400Y0098356D02*
X0127600Y0098356D01*
X0127600Y0099354D02*
X0125400Y0099354D01*
X0125120Y0100353D02*
X0127880Y0100353D01*
X0128436Y0101351D02*
X0124564Y0101351D01*
X0123363Y0102350D02*
X0129637Y0102350D01*
X0133363Y0102350D02*
X0136521Y0102350D01*
X0137520Y0103348D02*
X0103500Y0103348D01*
X0103500Y0104347D02*
X0138518Y0104347D01*
X0139517Y0105345D02*
X0103500Y0105345D01*
X0103500Y0106344D02*
X0140515Y0106344D01*
X0141514Y0107342D02*
X0103500Y0107342D01*
X0103500Y0108341D02*
X0142512Y0108341D01*
X0143511Y0109339D02*
X0103500Y0109339D01*
X0103500Y0110338D02*
X0144509Y0110338D01*
X0145117Y0111336D02*
X0137883Y0111336D01*
X0139830Y0112335D02*
X0143170Y0112335D01*
X0142171Y0113333D02*
X0140829Y0113333D01*
X0141339Y0114332D02*
X0141661Y0114332D01*
X0147500Y0110500D02*
X0180500Y0110500D01*
X0186500Y0116500D01*
X0187883Y0111336D02*
X0188508Y0111336D01*
X0187509Y0110338D02*
X0183166Y0110338D01*
X0184165Y0111336D02*
X0185117Y0111336D01*
X0186511Y0109339D02*
X0182168Y0109339D01*
X0184514Y0107342D02*
X0147171Y0107342D01*
X0148169Y0108341D02*
X0185512Y0108341D01*
X0183515Y0106344D02*
X0146172Y0106344D01*
X0145174Y0105345D02*
X0159517Y0105345D01*
X0158518Y0104347D02*
X0144175Y0104347D01*
X0143177Y0103348D02*
X0157520Y0103348D01*
X0156521Y0102350D02*
X0153363Y0102350D01*
X0154564Y0101351D02*
X0155523Y0101351D01*
X0153500Y0096500D02*
X0151500Y0096500D01*
X0142500Y0087500D01*
X0099500Y0087500D01*
X0093500Y0093500D01*
X0093500Y0094500D01*
X0091500Y0096500D01*
X0091500Y0101500D01*
X0081500Y0111500D01*
X0078816Y0114332D02*
X0065497Y0114332D01*
X0066495Y0113333D02*
X0077818Y0113333D01*
X0077600Y0112335D02*
X0067494Y0112335D01*
X0068492Y0111336D02*
X0077600Y0111336D01*
X0077600Y0110338D02*
X0069491Y0110338D01*
X0070489Y0109339D02*
X0078145Y0109339D01*
X0079144Y0108341D02*
X0071488Y0108341D01*
X0072486Y0107342D02*
X0082829Y0107342D01*
X0083828Y0106344D02*
X0073485Y0106344D01*
X0074483Y0105345D02*
X0079517Y0105345D01*
X0078518Y0104347D02*
X0075482Y0104347D01*
X0076480Y0103348D02*
X0077520Y0103348D01*
X0075500Y0101500D02*
X0075500Y0084500D01*
X0091500Y0068500D01*
X0091500Y0066500D01*
X0087500Y0068500D02*
X0087500Y0061500D01*
X0096500Y0052500D01*
X0105500Y0061500D01*
X0105500Y0068500D01*
X0110500Y0073500D01*
X0115500Y0072500D02*
X0104500Y0083500D01*
X0093500Y0083500D01*
X0081500Y0095500D01*
X0081500Y0096500D01*
X0085500Y0094500D02*
X0085500Y0100500D01*
X0082500Y0103500D01*
X0080500Y0103500D01*
X0077500Y0100500D01*
X0077500Y0086500D01*
X0087500Y0076500D01*
X0087500Y0068500D02*
X0078500Y0077500D01*
X0073500Y0074500D02*
X0081500Y0066500D01*
X0081500Y0064500D01*
X0093500Y0052500D01*
X0093500Y0048500D01*
X0096500Y0045500D01*
X0119500Y0045500D01*
X0124500Y0040500D01*
X0128500Y0040500D01*
X0129020Y0039807D01*
X0131500Y0035500D02*
X0133500Y0037500D01*
X0133500Y0051500D01*
X0129500Y0055500D01*
X0128500Y0055500D01*
X0128500Y0050500D02*
X0129020Y0049807D01*
X0128500Y0050500D02*
X0115500Y0063500D01*
X0115500Y0072500D01*
X0111500Y0066500D02*
X0109500Y0064500D01*
X0109500Y0050500D01*
X0109020Y0049807D01*
X0109020Y0039807D02*
X0108500Y0039500D01*
X0106500Y0037500D01*
X0111500Y0032500D01*
X0131500Y0032500D01*
X0135500Y0036500D01*
X0135500Y0052500D01*
X0121500Y0066500D01*
X0130500Y0085500D02*
X0094500Y0085500D01*
X0085500Y0094500D01*
X0087500Y0095360D02*
X0087600Y0095360D01*
X0087600Y0096359D02*
X0087500Y0096359D01*
X0087500Y0097357D02*
X0087600Y0097357D01*
X0087600Y0098356D02*
X0087500Y0098356D01*
X0087500Y0099354D02*
X0087600Y0099354D01*
X0087500Y0100353D02*
X0087880Y0100353D01*
X0087477Y0101351D02*
X0088436Y0101351D01*
X0087822Y0102350D02*
X0086479Y0102350D01*
X0086823Y0103348D02*
X0085480Y0103348D01*
X0085825Y0104347D02*
X0084482Y0104347D01*
X0084826Y0105345D02*
X0083483Y0105345D01*
X0075500Y0101500D02*
X0052500Y0124500D01*
X0052500Y0140500D01*
X0056500Y0144500D01*
X0056500Y0147500D01*
X0056618Y0148232D01*
X0052756Y0148281D02*
X0041547Y0148281D01*
X0042500Y0147283D02*
X0052831Y0147283D01*
X0053245Y0146284D02*
X0047217Y0146284D01*
X0048137Y0145286D02*
X0054103Y0145286D01*
X0053459Y0144287D02*
X0048551Y0144287D01*
X0048669Y0143289D02*
X0052460Y0143289D01*
X0051462Y0142290D02*
X0048597Y0142290D01*
X0048184Y0141292D02*
X0050500Y0141292D01*
X0050500Y0140293D02*
X0047500Y0140293D01*
X0047534Y0139295D02*
X0050500Y0139295D01*
X0050500Y0138296D02*
X0048532Y0138296D01*
X0049531Y0137298D02*
X0050500Y0137298D01*
X0050500Y0133500D02*
X0050500Y0123500D01*
X0073500Y0100500D01*
X0073500Y0074500D01*
X0067500Y0074391D02*
X0056437Y0074391D01*
X0057436Y0073393D02*
X0067500Y0073393D01*
X0067500Y0072394D02*
X0058434Y0072394D01*
X0059433Y0071396D02*
X0067500Y0071396D01*
X0067500Y0070397D02*
X0060431Y0070397D01*
X0061430Y0069399D02*
X0067500Y0069399D01*
X0067500Y0068400D02*
X0062428Y0068400D01*
X0063427Y0067402D02*
X0067500Y0067402D01*
X0067500Y0066403D02*
X0064425Y0066403D01*
X0065424Y0065405D02*
X0067500Y0065405D01*
X0067500Y0064672D02*
X0078165Y0054007D01*
X0077280Y0054007D01*
X0077051Y0053778D01*
X0053450Y0077378D01*
X0056000Y0077378D01*
X0059222Y0078713D01*
X0061689Y0081179D01*
X0063024Y0084402D01*
X0063024Y0087890D01*
X0061689Y0091112D01*
X0059222Y0093579D01*
X0056000Y0094913D01*
X0052512Y0094913D01*
X0049289Y0093579D01*
X0046823Y0091112D01*
X0045620Y0088208D01*
X0045328Y0088500D01*
X0036500Y0097328D01*
X0036500Y0112708D01*
X0036773Y0112981D01*
X0037008Y0113549D01*
X0037008Y0112354D01*
X0044307Y0112354D01*
X0044307Y0111354D01*
X0045307Y0111354D01*
X0045307Y0104055D01*
X0048038Y0104055D01*
X0052606Y0108624D01*
X0052606Y0111354D01*
X0045307Y0111354D01*
X0045307Y0112354D01*
X0052606Y0112354D01*
X0052606Y0112565D01*
X0067500Y0097672D01*
X0067500Y0064672D01*
X0067765Y0064406D02*
X0066422Y0064406D01*
X0067421Y0063408D02*
X0068764Y0063408D01*
X0068419Y0062409D02*
X0069762Y0062409D01*
X0069418Y0061411D02*
X0070761Y0061411D01*
X0070416Y0060412D02*
X0071759Y0060412D01*
X0071415Y0059414D02*
X0072758Y0059414D01*
X0072413Y0058415D02*
X0073756Y0058415D01*
X0073412Y0057417D02*
X0074755Y0057417D01*
X0074410Y0056418D02*
X0075753Y0056418D01*
X0075409Y0055420D02*
X0076752Y0055420D01*
X0076407Y0054421D02*
X0077750Y0054421D01*
X0079020Y0049807D02*
X0078500Y0049500D01*
X0044500Y0083500D01*
X0044500Y0086500D01*
X0034500Y0096500D01*
X0034500Y0114500D01*
X0033500Y0116988D02*
X0033500Y0117328D01*
X0032328Y0118500D01*
X0030500Y0120328D01*
X0030500Y0125266D01*
X0030808Y0124958D01*
X0032228Y0124370D01*
X0033764Y0124370D01*
X0035184Y0124958D01*
X0035726Y0125500D01*
X0039672Y0125500D01*
X0045518Y0119654D01*
X0045307Y0119654D01*
X0045307Y0112354D01*
X0044307Y0112354D01*
X0044307Y0119654D01*
X0041577Y0119654D01*
X0037115Y0115192D01*
X0036773Y0116019D01*
X0036019Y0116773D01*
X0035033Y0117181D01*
X0033967Y0117181D01*
X0033500Y0116988D01*
X0033500Y0117327D02*
X0039250Y0117327D01*
X0038252Y0116329D02*
X0036463Y0116329D01*
X0037058Y0115330D02*
X0037253Y0115330D01*
X0037008Y0113333D02*
X0036919Y0113333D01*
X0036500Y0112335D02*
X0044307Y0112335D01*
X0044307Y0111354D02*
X0037008Y0111354D01*
X0037008Y0108624D01*
X0041577Y0104055D01*
X0044307Y0104055D01*
X0044307Y0111354D01*
X0044307Y0111336D02*
X0045307Y0111336D01*
X0045307Y0110338D02*
X0044307Y0110338D01*
X0044307Y0109339D02*
X0045307Y0109339D01*
X0045307Y0108341D02*
X0044307Y0108341D01*
X0044307Y0107342D02*
X0045307Y0107342D01*
X0045307Y0106344D02*
X0044307Y0106344D01*
X0044307Y0105345D02*
X0045307Y0105345D01*
X0045307Y0104347D02*
X0044307Y0104347D01*
X0041285Y0104347D02*
X0036500Y0104347D01*
X0036500Y0105345D02*
X0040286Y0105345D01*
X0039288Y0106344D02*
X0036500Y0106344D01*
X0036500Y0107342D02*
X0038289Y0107342D01*
X0037291Y0108341D02*
X0036500Y0108341D01*
X0036500Y0109339D02*
X0037008Y0109339D01*
X0037008Y0110338D02*
X0036500Y0110338D01*
X0036500Y0111336D02*
X0037008Y0111336D01*
X0031500Y0116500D02*
X0031500Y0096500D01*
X0024500Y0089500D01*
X0024500Y0082500D01*
X0052500Y0054500D01*
X0070500Y0054500D01*
X0074500Y0050500D01*
X0074500Y0047500D01*
X0077500Y0044500D01*
X0084500Y0044500D01*
X0088500Y0040500D01*
X0089020Y0039807D01*
X0090500Y0044500D02*
X0094500Y0040500D01*
X0094500Y0037500D01*
X0096500Y0035500D01*
X0104500Y0035500D01*
X0106500Y0037500D01*
X0112500Y0035500D02*
X0131500Y0035500D01*
X0133500Y0030500D02*
X0101500Y0030500D01*
X0098500Y0033500D01*
X0088500Y0033500D01*
X0091500Y0026500D02*
X0078500Y0039500D01*
X0079020Y0039807D01*
X0078500Y0040500D01*
X0074500Y0044500D01*
X0057500Y0044500D01*
X0022500Y0079500D01*
X0022500Y0090500D01*
X0029500Y0097500D01*
X0029500Y0115500D01*
X0016500Y0128500D01*
X0016500Y0144500D01*
X0019500Y0147500D01*
X0022500Y0147500D01*
X0032500Y0157500D01*
X0032996Y0158232D01*
X0029134Y0158266D02*
X0003968Y0158266D01*
X0003968Y0157268D02*
X0029215Y0157268D01*
X0028441Y0156269D02*
X0023610Y0156269D01*
X0024521Y0155271D02*
X0027442Y0155271D01*
X0026444Y0154272D02*
X0024935Y0154272D01*
X0025047Y0153274D02*
X0025445Y0153274D01*
X0030500Y0152500D02*
X0034500Y0152500D01*
X0040500Y0146500D01*
X0040500Y0130500D01*
X0071500Y0099500D01*
X0071500Y0067500D01*
X0088500Y0050500D01*
X0089020Y0049807D01*
X0084500Y0050500D02*
X0084500Y0047500D01*
X0087500Y0044500D01*
X0090500Y0044500D01*
X0084500Y0050500D02*
X0069500Y0065500D01*
X0069500Y0098500D01*
X0040500Y0127500D01*
X0033500Y0127500D01*
X0032996Y0128232D01*
X0035541Y0125315D02*
X0039856Y0125315D01*
X0040855Y0124317D02*
X0030500Y0124317D01*
X0030500Y0123318D02*
X0041853Y0123318D01*
X0042852Y0122320D02*
X0030500Y0122320D01*
X0030500Y0121321D02*
X0043850Y0121321D01*
X0044849Y0120323D02*
X0030506Y0120323D01*
X0031504Y0119324D02*
X0041247Y0119324D01*
X0040249Y0118326D02*
X0032503Y0118326D01*
X0031500Y0116500D02*
X0028500Y0119500D01*
X0028500Y0139500D01*
X0032500Y0143500D01*
X0032500Y0147500D01*
X0032996Y0148232D01*
X0030500Y0152500D02*
X0021500Y0143500D01*
X0021185Y0143232D01*
X0016454Y0147283D02*
X0003968Y0147283D01*
X0003968Y0148281D02*
X0017453Y0148281D01*
X0018451Y0149280D02*
X0003968Y0149280D01*
X0003968Y0150278D02*
X0018677Y0150278D01*
X0017815Y0151277D02*
X0003968Y0151277D01*
X0003968Y0152275D02*
X0017401Y0152275D01*
X0017323Y0153274D02*
X0003968Y0153274D01*
X0003968Y0154272D02*
X0017435Y0154272D01*
X0017849Y0155271D02*
X0003968Y0155271D01*
X0003968Y0156269D02*
X0018760Y0156269D01*
X0020500Y0158500D02*
X0014500Y0152500D01*
X0014500Y0118500D01*
X0020500Y0112500D01*
X0021185Y0111854D01*
X0020685Y0112335D02*
X0003968Y0112335D01*
X0003968Y0113333D02*
X0013386Y0113333D01*
X0013386Y0114332D02*
X0003968Y0114332D01*
X0003968Y0115330D02*
X0013631Y0115330D01*
X0014630Y0116329D02*
X0003968Y0116329D01*
X0003968Y0117327D02*
X0015628Y0117327D01*
X0016627Y0118326D02*
X0003968Y0118326D01*
X0003968Y0119324D02*
X0017625Y0119324D01*
X0020685Y0119324D02*
X0021685Y0119324D01*
X0021685Y0118326D02*
X0020685Y0118326D01*
X0020685Y0117327D02*
X0021685Y0117327D01*
X0021685Y0116329D02*
X0020685Y0116329D01*
X0020685Y0115330D02*
X0021685Y0115330D01*
X0021685Y0114332D02*
X0020685Y0114332D01*
X0020685Y0113333D02*
X0021685Y0113333D01*
X0021685Y0111336D02*
X0020685Y0111336D01*
X0020685Y0110338D02*
X0021685Y0110338D01*
X0021685Y0109339D02*
X0020685Y0109339D01*
X0020685Y0108341D02*
X0021685Y0108341D01*
X0021685Y0107342D02*
X0020685Y0107342D01*
X0020685Y0106344D02*
X0021685Y0106344D01*
X0021685Y0105345D02*
X0020685Y0105345D01*
X0020685Y0104347D02*
X0021685Y0104347D01*
X0024707Y0104347D02*
X0027500Y0104347D01*
X0027500Y0105345D02*
X0025706Y0105345D01*
X0026704Y0106344D02*
X0027500Y0106344D01*
X0027500Y0103348D02*
X0003968Y0103348D01*
X0003968Y0102350D02*
X0027500Y0102350D01*
X0027500Y0101351D02*
X0003968Y0101351D01*
X0003968Y0100353D02*
X0027500Y0100353D01*
X0027500Y0099354D02*
X0003968Y0099354D01*
X0003968Y0098356D02*
X0027500Y0098356D01*
X0026529Y0097357D02*
X0003968Y0097357D01*
X0003968Y0096359D02*
X0025530Y0096359D01*
X0024532Y0095360D02*
X0003968Y0095360D01*
X0003968Y0094362D02*
X0023533Y0094362D01*
X0022535Y0093363D02*
X0003968Y0093363D01*
X0003968Y0092365D02*
X0021536Y0092365D01*
X0020538Y0091366D02*
X0003968Y0091366D01*
X0003968Y0090368D02*
X0020500Y0090368D01*
X0020500Y0089369D02*
X0003968Y0089369D01*
X0003968Y0088370D02*
X0020500Y0088370D01*
X0020500Y0087372D02*
X0003968Y0087372D01*
X0003968Y0086373D02*
X0020500Y0086373D01*
X0020500Y0085375D02*
X0003968Y0085375D01*
X0003968Y0084376D02*
X0020500Y0084376D01*
X0020500Y0083378D02*
X0003968Y0083378D01*
X0003968Y0082379D02*
X0020500Y0082379D01*
X0020500Y0081381D02*
X0003968Y0081381D01*
X0003968Y0080382D02*
X0020500Y0080382D01*
X0020500Y0079384D02*
X0003968Y0079384D01*
X0003968Y0078385D02*
X0020786Y0078385D01*
X0021785Y0077387D02*
X0003968Y0077387D01*
X0003968Y0076388D02*
X0022783Y0076388D01*
X0023782Y0075390D02*
X0003968Y0075390D01*
X0003968Y0074391D02*
X0024780Y0074391D01*
X0025779Y0073393D02*
X0003968Y0073393D01*
X0003968Y0072394D02*
X0026777Y0072394D01*
X0027776Y0071396D02*
X0003968Y0071396D01*
X0003968Y0070397D02*
X0028774Y0070397D01*
X0029773Y0069399D02*
X0003968Y0069399D01*
X0003968Y0068400D02*
X0030771Y0068400D01*
X0031770Y0067402D02*
X0003968Y0067402D01*
X0003968Y0066403D02*
X0032768Y0066403D01*
X0033767Y0065405D02*
X0003968Y0065405D01*
X0003968Y0064406D02*
X0034765Y0064406D01*
X0035764Y0063408D02*
X0003968Y0063408D01*
X0003968Y0062409D02*
X0036762Y0062409D01*
X0037761Y0061411D02*
X0003968Y0061411D01*
X0003968Y0060412D02*
X0038759Y0060412D01*
X0039758Y0059414D02*
X0003968Y0059414D01*
X0003968Y0058415D02*
X0040756Y0058415D01*
X0041755Y0057417D02*
X0003968Y0057417D01*
X0003968Y0056418D02*
X0042753Y0056418D01*
X0043752Y0055420D02*
X0003968Y0055420D01*
X0003968Y0054421D02*
X0044750Y0054421D01*
X0045749Y0053423D02*
X0003968Y0053423D01*
X0003968Y0052424D02*
X0046747Y0052424D01*
X0047746Y0051426D02*
X0003968Y0051426D01*
X0003968Y0050427D02*
X0048745Y0050427D01*
X0049743Y0049429D02*
X0003968Y0049429D01*
X0003968Y0048430D02*
X0050742Y0048430D01*
X0051740Y0047432D02*
X0003968Y0047432D01*
X0003968Y0046433D02*
X0052739Y0046433D01*
X0053737Y0045434D02*
X0003968Y0045434D01*
X0003968Y0044436D02*
X0054736Y0044436D01*
X0055734Y0043437D02*
X0003968Y0043437D01*
X0003968Y0042439D02*
X0055712Y0042439D01*
X0054820Y0041440D02*
X0003968Y0041440D01*
X0003968Y0040442D02*
X0054820Y0040442D01*
X0054820Y0039443D02*
X0003968Y0039443D01*
X0003968Y0038445D02*
X0054820Y0038445D01*
X0055441Y0037446D02*
X0003968Y0037446D01*
X0003968Y0036448D02*
X0056439Y0036448D01*
X0061600Y0036448D02*
X0066439Y0036448D01*
X0065441Y0037446D02*
X0062599Y0037446D01*
X0063220Y0038445D02*
X0064820Y0038445D01*
X0064820Y0039443D02*
X0063220Y0039443D01*
X0063220Y0040442D02*
X0064820Y0040442D01*
X0064820Y0041440D02*
X0063220Y0041440D01*
X0062327Y0042439D02*
X0065712Y0042439D01*
X0069020Y0039807D02*
X0069500Y0039500D01*
X0084500Y0024500D01*
X0176500Y0024500D01*
X0183500Y0017500D01*
X0213500Y0017500D01*
X0215500Y0019500D01*
X0215500Y0023500D01*
X0201500Y0037500D01*
X0201500Y0066500D01*
X0205400Y0066403D02*
X0207600Y0066403D01*
X0207600Y0065405D02*
X0205400Y0065405D01*
X0205400Y0064406D02*
X0207600Y0064406D01*
X0207600Y0063408D02*
X0205400Y0063408D01*
X0205021Y0062409D02*
X0207979Y0062409D01*
X0208194Y0061891D02*
X0209291Y0060794D01*
X0210724Y0060200D01*
X0212276Y0060200D01*
X0213709Y0060794D01*
X0214806Y0061891D01*
X0215400Y0063324D01*
X0215400Y0069676D01*
X0214806Y0071109D01*
X0213709Y0072206D01*
X0212276Y0072800D01*
X0210724Y0072800D01*
X0209291Y0072206D01*
X0208194Y0071109D01*
X0207600Y0069676D01*
X0207600Y0063324D01*
X0208194Y0061891D01*
X0208674Y0061411D02*
X0204326Y0061411D01*
X0203500Y0060412D02*
X0210212Y0060412D01*
X0212788Y0060412D02*
X0242812Y0060412D01*
X0242600Y0060924D02*
X0243194Y0059491D01*
X0244291Y0058394D01*
X0245724Y0057800D01*
X0247276Y0057800D01*
X0248709Y0058394D01*
X0249806Y0059491D01*
X0250400Y0060924D01*
X0250400Y0067276D01*
X0249806Y0068709D01*
X0248709Y0069806D01*
X0247276Y0070400D01*
X0245724Y0070400D01*
X0244291Y0069806D01*
X0243194Y0068709D01*
X0242600Y0067276D01*
X0242600Y0060924D01*
X0242600Y0061411D02*
X0214326Y0061411D01*
X0215021Y0062409D02*
X0242600Y0062409D01*
X0242600Y0063408D02*
X0215400Y0063408D01*
X0215400Y0064406D02*
X0242600Y0064406D01*
X0242600Y0065405D02*
X0215400Y0065405D01*
X0215400Y0066403D02*
X0242600Y0066403D01*
X0242652Y0067402D02*
X0215400Y0067402D01*
X0215400Y0068400D02*
X0243066Y0068400D01*
X0243883Y0069399D02*
X0215400Y0069399D01*
X0215101Y0070397D02*
X0245718Y0070397D01*
X0247282Y0070397D02*
X0255718Y0070397D01*
X0255724Y0070400D02*
X0254291Y0069806D01*
X0253194Y0068709D01*
X0252600Y0067276D01*
X0252600Y0060924D01*
X0253194Y0059491D01*
X0254291Y0058394D01*
X0255724Y0057800D01*
X0257276Y0057800D01*
X0258709Y0058394D01*
X0259806Y0059491D01*
X0260400Y0060924D01*
X0260400Y0067276D01*
X0259806Y0068709D01*
X0258709Y0069806D01*
X0257276Y0070400D01*
X0255724Y0070400D01*
X0257282Y0070397D02*
X0265718Y0070397D01*
X0265724Y0070400D02*
X0264291Y0069806D01*
X0263194Y0068709D01*
X0262600Y0067276D01*
X0262600Y0060924D01*
X0263194Y0059491D01*
X0264291Y0058394D01*
X0264500Y0058307D01*
X0264500Y0048225D01*
X0263976Y0048749D01*
X0262267Y0049457D01*
X0260418Y0049457D01*
X0259678Y0049150D01*
X0255328Y0053500D01*
X0245015Y0053500D01*
X0243115Y0055400D01*
X0239885Y0055400D01*
X0237600Y0053115D01*
X0237600Y0049885D01*
X0239885Y0047600D01*
X0243115Y0047600D01*
X0245015Y0049500D01*
X0253672Y0049500D01*
X0256912Y0046260D01*
X0256693Y0045732D01*
X0256693Y0043882D01*
X0257401Y0042173D01*
X0258704Y0040870D01*
X0257401Y0039567D01*
X0256693Y0037858D01*
X0256693Y0037500D01*
X0244854Y0037500D01*
X0245908Y0038554D01*
X0246700Y0040466D01*
X0246700Y0042534D01*
X0245908Y0044446D01*
X0244446Y0045908D01*
X0242534Y0046700D01*
X0240466Y0046700D01*
X0239520Y0046308D01*
X0232328Y0053500D01*
X0225015Y0053500D01*
X0223115Y0055400D01*
X0219885Y0055400D01*
X0217600Y0053115D01*
X0217600Y0049885D01*
X0219885Y0047600D01*
X0223115Y0047600D01*
X0225015Y0049500D01*
X0230672Y0049500D01*
X0236692Y0043480D01*
X0236300Y0042534D01*
X0236300Y0041528D01*
X0234328Y0043500D01*
X0216300Y0043500D01*
X0215908Y0044446D01*
X0214446Y0045908D01*
X0212534Y0046700D01*
X0210466Y0046700D01*
X0208554Y0045908D01*
X0207092Y0044446D01*
X0206300Y0042534D01*
X0206300Y0040466D01*
X0207092Y0038554D01*
X0208554Y0037092D01*
X0210466Y0036300D01*
X0212534Y0036300D01*
X0214446Y0037092D01*
X0215908Y0038554D01*
X0216300Y0039500D01*
X0232672Y0039500D01*
X0237500Y0034672D01*
X0238672Y0033500D01*
X0258200Y0033500D01*
X0258709Y0032991D01*
X0260418Y0032283D01*
X0262267Y0032283D01*
X0263976Y0032991D01*
X0265284Y0034299D01*
X0265992Y0036008D01*
X0265992Y0037858D01*
X0265610Y0038781D01*
X0268500Y0041672D01*
X0268500Y0058307D01*
X0268709Y0058394D01*
X0269806Y0059491D01*
X0270400Y0060924D01*
X0270400Y0067276D01*
X0269806Y0068709D01*
X0268709Y0069806D01*
X0267276Y0070400D01*
X0265724Y0070400D01*
X0267282Y0070397D02*
X0275718Y0070397D01*
X0275724Y0070400D02*
X0274291Y0069806D01*
X0273194Y0068709D01*
X0272600Y0067276D01*
X0272600Y0060924D01*
X0273194Y0059491D01*
X0274291Y0058394D01*
X0275724Y0057800D01*
X0277276Y0057800D01*
X0278709Y0058394D01*
X0279806Y0059491D01*
X0280400Y0060924D01*
X0280400Y0067276D01*
X0279806Y0068709D01*
X0278709Y0069806D01*
X0277276Y0070400D01*
X0275724Y0070400D01*
X0277282Y0070397D02*
X0282496Y0070397D01*
X0282496Y0069399D02*
X0279117Y0069399D01*
X0279934Y0068400D02*
X0282496Y0068400D01*
X0282496Y0067402D02*
X0280348Y0067402D01*
X0280400Y0066403D02*
X0282496Y0066403D01*
X0282496Y0065405D02*
X0280400Y0065405D01*
X0280400Y0064406D02*
X0282496Y0064406D01*
X0282496Y0063408D02*
X0280400Y0063408D01*
X0280400Y0062409D02*
X0282496Y0062409D01*
X0282496Y0061411D02*
X0280400Y0061411D01*
X0280188Y0060412D02*
X0282496Y0060412D01*
X0282496Y0059414D02*
X0279729Y0059414D01*
X0278731Y0058415D02*
X0282496Y0058415D01*
X0282496Y0057417D02*
X0268500Y0057417D01*
X0268500Y0056418D02*
X0282496Y0056418D01*
X0282496Y0055420D02*
X0268500Y0055420D01*
X0268500Y0054421D02*
X0282496Y0054421D01*
X0282496Y0053423D02*
X0268500Y0053423D01*
X0268500Y0052424D02*
X0282496Y0052424D01*
X0282496Y0051426D02*
X0268500Y0051426D01*
X0268500Y0050427D02*
X0282496Y0050427D01*
X0282496Y0049429D02*
X0268500Y0049429D01*
X0268500Y0048430D02*
X0282496Y0048430D01*
X0282496Y0047432D02*
X0268500Y0047432D01*
X0268500Y0046433D02*
X0282496Y0046433D01*
X0282496Y0045434D02*
X0268500Y0045434D01*
X0268500Y0044436D02*
X0282496Y0044436D01*
X0282496Y0043437D02*
X0268500Y0043437D01*
X0268500Y0042439D02*
X0282496Y0042439D01*
X0282496Y0041440D02*
X0268269Y0041440D01*
X0267270Y0040442D02*
X0282496Y0040442D01*
X0282496Y0039443D02*
X0266272Y0039443D01*
X0265749Y0038445D02*
X0282496Y0038445D01*
X0282496Y0037446D02*
X0265992Y0037446D01*
X0265992Y0036448D02*
X0282496Y0036448D01*
X0282496Y0035449D02*
X0265761Y0035449D01*
X0265347Y0034451D02*
X0282496Y0034451D01*
X0282496Y0033452D02*
X0264437Y0033452D01*
X0262679Y0032454D02*
X0282496Y0032454D01*
X0282496Y0031455D02*
X0210373Y0031455D01*
X0211372Y0030457D02*
X0282496Y0030457D01*
X0282496Y0029458D02*
X0212370Y0029458D01*
X0213369Y0028460D02*
X0282496Y0028460D01*
X0282496Y0027461D02*
X0214367Y0027461D01*
X0215366Y0026463D02*
X0282496Y0026463D01*
X0282496Y0025464D02*
X0216364Y0025464D01*
X0217363Y0024466D02*
X0228950Y0024466D01*
X0229885Y0025400D02*
X0227600Y0023115D01*
X0227600Y0019885D01*
X0229885Y0017600D01*
X0233115Y0017600D01*
X0235400Y0019885D01*
X0235400Y0023115D01*
X0233115Y0025400D01*
X0229885Y0025400D01*
X0227952Y0023467D02*
X0217500Y0023467D01*
X0217500Y0022469D02*
X0227600Y0022469D01*
X0227600Y0021470D02*
X0217500Y0021470D01*
X0217500Y0020472D02*
X0227600Y0020472D01*
X0228011Y0019473D02*
X0217500Y0019473D01*
X0217303Y0018475D02*
X0229010Y0018475D01*
X0233990Y0018475D02*
X0265918Y0018475D01*
X0265721Y0018278D02*
X0264386Y0015055D01*
X0264386Y0011567D01*
X0265721Y0008345D01*
X0268187Y0005878D01*
X0271410Y0004543D01*
X0274898Y0004543D01*
X0278120Y0005878D01*
X0280586Y0008345D01*
X0281921Y0011567D01*
X0281921Y0015055D01*
X0280586Y0018278D01*
X0278120Y0020744D01*
X0274898Y0022079D01*
X0271410Y0022079D01*
X0268187Y0020744D01*
X0265721Y0018278D01*
X0265389Y0017476D02*
X0216305Y0017476D01*
X0215306Y0016478D02*
X0264975Y0016478D01*
X0264562Y0015479D02*
X0183320Y0015479D01*
X0183496Y0014481D02*
X0264386Y0014481D01*
X0264386Y0013482D02*
X0183496Y0013482D01*
X0183496Y0012484D02*
X0264386Y0012484D01*
X0264420Y0011485D02*
X0183462Y0011485D01*
X0183049Y0010487D02*
X0264833Y0010487D01*
X0265247Y0009488D02*
X0182635Y0009488D01*
X0182221Y0008490D02*
X0265661Y0008490D01*
X0266574Y0007491D02*
X0181308Y0007491D01*
X0180309Y0006493D02*
X0267573Y0006493D01*
X0269114Y0005494D02*
X0178768Y0005494D01*
X0170689Y0005494D02*
X0017350Y0005494D01*
X0018278Y0005878D02*
X0020744Y0008345D01*
X0022079Y0011567D01*
X0022079Y0015055D01*
X0020744Y0018278D01*
X0018278Y0020744D01*
X0015055Y0022079D01*
X0011567Y0022079D01*
X0008345Y0020744D01*
X0005878Y0018278D01*
X0004543Y0015055D01*
X0004543Y0011567D01*
X0005878Y0008345D01*
X0008345Y0005878D01*
X0011567Y0004543D01*
X0015055Y0004543D01*
X0018278Y0005878D01*
X0018892Y0006493D02*
X0169147Y0006493D01*
X0168149Y0007491D02*
X0019890Y0007491D01*
X0020804Y0008490D02*
X0167235Y0008490D01*
X0166822Y0009488D02*
X0021218Y0009488D01*
X0021631Y0010487D02*
X0166408Y0010487D01*
X0165995Y0011485D02*
X0022045Y0011485D01*
X0022079Y0012484D02*
X0165961Y0012484D01*
X0165961Y0013482D02*
X0022079Y0013482D01*
X0022079Y0014481D02*
X0165961Y0014481D01*
X0166136Y0015479D02*
X0021903Y0015479D01*
X0021489Y0016478D02*
X0166550Y0016478D01*
X0166964Y0017476D02*
X0021076Y0017476D01*
X0020547Y0018475D02*
X0167493Y0018475D01*
X0168491Y0019473D02*
X0019548Y0019473D01*
X0018550Y0020472D02*
X0169490Y0020472D01*
X0171515Y0021470D02*
X0016524Y0021470D01*
X0010098Y0021470D02*
X0003968Y0021470D01*
X0003968Y0020472D02*
X0008072Y0020472D01*
X0007074Y0019473D02*
X0003968Y0019473D01*
X0003968Y0018475D02*
X0006075Y0018475D01*
X0005546Y0017476D02*
X0003968Y0017476D01*
X0003968Y0016478D02*
X0005133Y0016478D01*
X0004719Y0015479D02*
X0003968Y0015479D01*
X0003968Y0014481D02*
X0004543Y0014481D01*
X0004543Y0013482D02*
X0003968Y0013482D01*
X0003968Y0012484D02*
X0004543Y0012484D01*
X0004577Y0011485D02*
X0003968Y0011485D01*
X0003968Y0010487D02*
X0004991Y0010487D01*
X0005404Y0009488D02*
X0003968Y0009488D01*
X0003968Y0008490D02*
X0005818Y0008490D01*
X0006732Y0007491D02*
X0003968Y0007491D01*
X0003968Y0006493D02*
X0007730Y0006493D01*
X0009272Y0005494D02*
X0003968Y0005494D01*
X0003968Y0004496D02*
X0282496Y0004496D01*
X0282496Y0005494D02*
X0277193Y0005494D01*
X0278734Y0006493D02*
X0282496Y0006493D01*
X0282496Y0007491D02*
X0279733Y0007491D01*
X0280647Y0008490D02*
X0282496Y0008490D01*
X0282496Y0009488D02*
X0281060Y0009488D01*
X0281474Y0010487D02*
X0282496Y0010487D01*
X0282496Y0011485D02*
X0281887Y0011485D01*
X0281921Y0012484D02*
X0282496Y0012484D01*
X0282496Y0013482D02*
X0281921Y0013482D01*
X0281921Y0014481D02*
X0282496Y0014481D01*
X0282496Y0015479D02*
X0281746Y0015479D01*
X0281332Y0016478D02*
X0282496Y0016478D01*
X0282496Y0017476D02*
X0280918Y0017476D01*
X0280389Y0018475D02*
X0282496Y0018475D01*
X0282496Y0019473D02*
X0279391Y0019473D01*
X0278392Y0020472D02*
X0282496Y0020472D01*
X0282496Y0021470D02*
X0276367Y0021470D01*
X0282496Y0022469D02*
X0235400Y0022469D01*
X0235400Y0021470D02*
X0269940Y0021470D01*
X0267915Y0020472D02*
X0235400Y0020472D01*
X0234989Y0019473D02*
X0266916Y0019473D01*
X0260006Y0032454D02*
X0209375Y0032454D01*
X0208376Y0033452D02*
X0258248Y0033452D01*
X0259500Y0035500D02*
X0260500Y0036500D01*
X0261343Y0036933D01*
X0261500Y0037500D01*
X0266500Y0042500D01*
X0266500Y0066500D01*
X0270400Y0066403D02*
X0272600Y0066403D01*
X0272600Y0065405D02*
X0270400Y0065405D01*
X0270400Y0064406D02*
X0272600Y0064406D01*
X0272600Y0063408D02*
X0270400Y0063408D01*
X0270400Y0062409D02*
X0272600Y0062409D01*
X0272600Y0061411D02*
X0270400Y0061411D01*
X0270188Y0060412D02*
X0272812Y0060412D01*
X0273271Y0059414D02*
X0269729Y0059414D01*
X0268731Y0058415D02*
X0274269Y0058415D01*
X0272652Y0067402D02*
X0270348Y0067402D01*
X0269934Y0068400D02*
X0273066Y0068400D01*
X0273883Y0069399D02*
X0269117Y0069399D01*
X0263883Y0069399D02*
X0259117Y0069399D01*
X0259934Y0068400D02*
X0263066Y0068400D01*
X0262652Y0067402D02*
X0260348Y0067402D01*
X0260400Y0066403D02*
X0262600Y0066403D01*
X0262600Y0065405D02*
X0260400Y0065405D01*
X0260400Y0064406D02*
X0262600Y0064406D01*
X0262600Y0063408D02*
X0260400Y0063408D01*
X0260400Y0062409D02*
X0262600Y0062409D01*
X0262600Y0061411D02*
X0260400Y0061411D01*
X0260188Y0060412D02*
X0262812Y0060412D01*
X0263271Y0059414D02*
X0259729Y0059414D01*
X0258731Y0058415D02*
X0264269Y0058415D01*
X0264500Y0057417D02*
X0203500Y0057417D01*
X0203500Y0058415D02*
X0244269Y0058415D01*
X0243271Y0059414D02*
X0203500Y0059414D01*
X0203500Y0056418D02*
X0264500Y0056418D01*
X0264500Y0055420D02*
X0203500Y0055420D01*
X0203500Y0054421D02*
X0218906Y0054421D01*
X0217907Y0053423D02*
X0203500Y0053423D01*
X0203500Y0052424D02*
X0217600Y0052424D01*
X0217600Y0051426D02*
X0203500Y0051426D01*
X0203500Y0050427D02*
X0217600Y0050427D01*
X0218056Y0049429D02*
X0203500Y0049429D01*
X0203500Y0048430D02*
X0219055Y0048430D01*
X0221500Y0051500D02*
X0231500Y0051500D01*
X0241500Y0041500D01*
X0246326Y0043437D02*
X0256877Y0043437D01*
X0256693Y0044436D02*
X0245912Y0044436D01*
X0244919Y0045434D02*
X0256693Y0045434D01*
X0256739Y0046433D02*
X0243179Y0046433D01*
X0243945Y0048430D02*
X0254742Y0048430D01*
X0255740Y0047432D02*
X0238397Y0047432D01*
X0239055Y0048430D02*
X0237398Y0048430D01*
X0238056Y0049429D02*
X0236400Y0049429D01*
X0235401Y0050427D02*
X0237600Y0050427D01*
X0237600Y0051426D02*
X0234403Y0051426D01*
X0233404Y0052424D02*
X0237600Y0052424D01*
X0237907Y0053423D02*
X0232406Y0053423D01*
X0230743Y0049429D02*
X0224944Y0049429D01*
X0223945Y0048430D02*
X0231742Y0048430D01*
X0232740Y0047432D02*
X0203500Y0047432D01*
X0203500Y0046433D02*
X0209821Y0046433D01*
X0208081Y0045434D02*
X0203500Y0045434D01*
X0203500Y0044436D02*
X0207088Y0044436D01*
X0206674Y0043437D02*
X0203500Y0043437D01*
X0203500Y0042439D02*
X0206300Y0042439D01*
X0206300Y0041440D02*
X0203500Y0041440D01*
X0203500Y0040442D02*
X0206310Y0040442D01*
X0206723Y0039443D02*
X0203500Y0039443D01*
X0203500Y0038445D02*
X0207201Y0038445D01*
X0208200Y0037446D02*
X0204382Y0037446D01*
X0205381Y0036448D02*
X0210109Y0036448D01*
X0212891Y0036448D02*
X0235724Y0036448D01*
X0236722Y0035449D02*
X0206379Y0035449D01*
X0207378Y0034451D02*
X0237721Y0034451D01*
X0239500Y0035500D02*
X0259500Y0035500D01*
X0256936Y0038445D02*
X0245799Y0038445D01*
X0246277Y0039443D02*
X0257350Y0039443D01*
X0258276Y0040442D02*
X0246690Y0040442D01*
X0246700Y0041440D02*
X0258134Y0041440D01*
X0257291Y0042439D02*
X0246700Y0042439D01*
X0244944Y0049429D02*
X0253743Y0049429D01*
X0254500Y0051500D02*
X0260500Y0045500D01*
X0261343Y0044807D01*
X0264295Y0048430D02*
X0264500Y0048430D01*
X0264500Y0049429D02*
X0262335Y0049429D01*
X0260350Y0049429D02*
X0259400Y0049429D01*
X0258401Y0050427D02*
X0264500Y0050427D01*
X0264500Y0051426D02*
X0257403Y0051426D01*
X0256404Y0052424D02*
X0264500Y0052424D01*
X0264500Y0053423D02*
X0255406Y0053423D01*
X0254500Y0051500D02*
X0241500Y0051500D01*
X0238906Y0054421D02*
X0224094Y0054421D01*
X0233739Y0046433D02*
X0213179Y0046433D01*
X0214919Y0045434D02*
X0234737Y0045434D01*
X0235736Y0044436D02*
X0215912Y0044436D01*
X0216277Y0039443D02*
X0232728Y0039443D01*
X0233727Y0038445D02*
X0215799Y0038445D01*
X0214800Y0037446D02*
X0234725Y0037446D01*
X0233500Y0041500D02*
X0239500Y0035500D01*
X0236300Y0042439D02*
X0235389Y0042439D01*
X0234391Y0043437D02*
X0236674Y0043437D01*
X0233500Y0041500D02*
X0211500Y0041500D01*
X0202719Y0033452D02*
X0202376Y0033452D01*
X0201721Y0034451D02*
X0201378Y0034451D01*
X0200722Y0035449D02*
X0200379Y0035449D01*
X0199724Y0036448D02*
X0199381Y0036448D01*
X0199500Y0037446D02*
X0198382Y0037446D01*
X0197383Y0038445D02*
X0199500Y0038445D01*
X0199500Y0039443D02*
X0196385Y0039443D01*
X0195386Y0040442D02*
X0199500Y0040442D01*
X0199500Y0041440D02*
X0194388Y0041440D01*
X0193389Y0042439D02*
X0199500Y0042439D01*
X0199500Y0043437D02*
X0192391Y0043437D01*
X0191392Y0044436D02*
X0199500Y0044436D01*
X0199500Y0045434D02*
X0190394Y0045434D01*
X0189500Y0046433D02*
X0199500Y0046433D01*
X0199500Y0047432D02*
X0189500Y0047432D01*
X0189500Y0048430D02*
X0199500Y0048430D01*
X0199500Y0049429D02*
X0189500Y0049429D01*
X0189500Y0050427D02*
X0199500Y0050427D01*
X0199500Y0051426D02*
X0189500Y0051426D01*
X0189500Y0052424D02*
X0199500Y0052424D01*
X0199500Y0053423D02*
X0189500Y0053423D01*
X0189500Y0054421D02*
X0199500Y0054421D01*
X0199500Y0055420D02*
X0189500Y0055420D01*
X0189500Y0056418D02*
X0199500Y0056418D01*
X0199500Y0057417D02*
X0189500Y0057417D01*
X0189500Y0058415D02*
X0199500Y0058415D01*
X0199500Y0059414D02*
X0189500Y0059414D01*
X0189500Y0060412D02*
X0190212Y0060412D01*
X0192788Y0060412D02*
X0199500Y0060412D01*
X0198674Y0061411D02*
X0194326Y0061411D01*
X0195021Y0062409D02*
X0197979Y0062409D01*
X0197600Y0063408D02*
X0195400Y0063408D01*
X0195400Y0064406D02*
X0197600Y0064406D01*
X0197600Y0065405D02*
X0195400Y0065405D01*
X0195400Y0066403D02*
X0197600Y0066403D01*
X0197600Y0067402D02*
X0195400Y0067402D01*
X0195400Y0068400D02*
X0197600Y0068400D01*
X0197600Y0069399D02*
X0195400Y0069399D01*
X0195101Y0070397D02*
X0197899Y0070397D01*
X0198480Y0071396D02*
X0194520Y0071396D01*
X0193255Y0072394D02*
X0199745Y0072394D01*
X0203255Y0072394D02*
X0209745Y0072394D01*
X0208480Y0071396D02*
X0204520Y0071396D01*
X0205101Y0070397D02*
X0207899Y0070397D01*
X0207600Y0069399D02*
X0205400Y0069399D01*
X0205400Y0068400D02*
X0207600Y0068400D01*
X0207600Y0067402D02*
X0205400Y0067402D01*
X0213255Y0072394D02*
X0282496Y0072394D01*
X0282496Y0071396D02*
X0214520Y0071396D01*
X0228093Y0074391D02*
X0184437Y0074391D01*
X0185436Y0073393D02*
X0229092Y0073393D01*
X0231500Y0076500D02*
X0193500Y0076500D01*
X0173500Y0096500D01*
X0171500Y0096500D01*
X0164500Y0103500D01*
X0160500Y0103500D01*
X0153500Y0096500D01*
X0147600Y0096359D02*
X0141800Y0096359D01*
X0141500Y0096500D02*
X0139500Y0096500D01*
X0132500Y0089500D01*
X0100500Y0089500D01*
X0095500Y0094500D01*
X0095500Y0094362D02*
X0097600Y0094362D01*
X0097600Y0093363D02*
X0096465Y0093363D01*
X0097464Y0092365D02*
X0097998Y0092365D01*
X0098462Y0091366D02*
X0098719Y0091366D01*
X0099461Y0090368D02*
X0100320Y0090368D01*
X0102680Y0090368D02*
X0110320Y0090368D01*
X0108719Y0091366D02*
X0104281Y0091366D01*
X0105002Y0092365D02*
X0107998Y0092365D01*
X0107600Y0093363D02*
X0105400Y0093363D01*
X0105400Y0094362D02*
X0107600Y0094362D01*
X0107600Y0095360D02*
X0105400Y0095360D01*
X0105117Y0111336D02*
X0104165Y0111336D01*
X0107883Y0111336D02*
X0115117Y0111336D01*
X0113170Y0112335D02*
X0109830Y0112335D01*
X0110829Y0113333D02*
X0112171Y0113333D01*
X0111661Y0114332D02*
X0111339Y0114332D01*
X0131500Y0096500D02*
X0133500Y0096500D01*
X0147500Y0110500D01*
X0149637Y0102350D02*
X0143357Y0102350D01*
X0144553Y0101351D02*
X0148436Y0101351D01*
X0147880Y0100353D02*
X0145120Y0100353D01*
X0145386Y0099354D02*
X0147600Y0099354D01*
X0147600Y0098356D02*
X0145400Y0098356D01*
X0145400Y0097357D02*
X0147600Y0097357D01*
X0147532Y0095360D02*
X0145400Y0095360D01*
X0145400Y0094362D02*
X0146533Y0094362D01*
X0145535Y0093363D02*
X0145330Y0093363D01*
X0141800Y0093363D02*
X0141200Y0093363D01*
X0141200Y0092365D02*
X0141800Y0092365D01*
X0141800Y0091366D02*
X0141200Y0091366D01*
X0141200Y0090368D02*
X0141800Y0090368D01*
X0141200Y0090200D02*
X0141200Y0096200D01*
X0137600Y0096200D01*
X0137600Y0093716D01*
X0137750Y0092962D01*
X0138044Y0092253D01*
X0138471Y0091614D01*
X0139014Y0091071D01*
X0139653Y0090644D01*
X0140362Y0090350D01*
X0141116Y0090200D01*
X0141200Y0090200D01*
X0140320Y0090368D02*
X0132680Y0090368D01*
X0134281Y0091366D02*
X0138719Y0091366D01*
X0137998Y0092365D02*
X0135002Y0092365D01*
X0135400Y0093363D02*
X0137670Y0093363D01*
X0137600Y0094362D02*
X0135400Y0094362D01*
X0135400Y0095360D02*
X0137600Y0095360D01*
X0136187Y0096359D02*
X0141200Y0096359D01*
X0141200Y0095360D02*
X0141800Y0095360D01*
X0141800Y0094362D02*
X0141200Y0094362D01*
X0137600Y0097357D02*
X0137185Y0097357D01*
X0135523Y0101351D02*
X0134564Y0101351D01*
X0130500Y0085500D02*
X0149500Y0066500D01*
X0151500Y0066500D01*
X0161500Y0066500D02*
X0163500Y0066500D01*
X0170500Y0073500D01*
X0172500Y0073500D01*
X0175500Y0070500D01*
X0175500Y0062500D01*
X0141500Y0028500D01*
X0099500Y0028500D01*
X0097500Y0030500D01*
X0091500Y0026500D02*
X0142500Y0026500D01*
X0177500Y0061500D01*
X0177500Y0062500D01*
X0181500Y0066500D01*
X0187500Y0068500D02*
X0187500Y0045500D01*
X0211500Y0021500D01*
X0210707Y0025464D02*
X0210364Y0025464D01*
X0209709Y0026463D02*
X0209366Y0026463D01*
X0208710Y0027461D02*
X0208367Y0027461D01*
X0207712Y0028460D02*
X0207369Y0028460D01*
X0206713Y0029458D02*
X0206370Y0029458D01*
X0205715Y0030457D02*
X0205372Y0030457D01*
X0204716Y0031455D02*
X0204373Y0031455D01*
X0203718Y0032454D02*
X0203375Y0032454D01*
X0175703Y0022469D02*
X0003968Y0022469D01*
X0003968Y0023467D02*
X0082704Y0023467D01*
X0081706Y0024466D02*
X0003968Y0024466D01*
X0003968Y0025464D02*
X0080707Y0025464D01*
X0079709Y0026463D02*
X0003968Y0026463D01*
X0003968Y0027461D02*
X0078710Y0027461D01*
X0077712Y0028460D02*
X0003968Y0028460D01*
X0003968Y0029458D02*
X0076713Y0029458D01*
X0075715Y0030457D02*
X0003968Y0030457D01*
X0003968Y0031455D02*
X0074716Y0031455D01*
X0073718Y0032454D02*
X0003968Y0032454D01*
X0003968Y0033452D02*
X0072719Y0033452D01*
X0071721Y0034451D02*
X0003968Y0034451D01*
X0003968Y0035449D02*
X0070722Y0035449D01*
X0096500Y0052500D02*
X0098500Y0050500D01*
X0099020Y0049807D01*
X0067500Y0075390D02*
X0055439Y0075390D01*
X0054440Y0076388D02*
X0067500Y0076388D01*
X0067500Y0077387D02*
X0056021Y0077387D01*
X0058432Y0078385D02*
X0067500Y0078385D01*
X0067500Y0079384D02*
X0059894Y0079384D01*
X0060892Y0080382D02*
X0067500Y0080382D01*
X0067500Y0081381D02*
X0061772Y0081381D01*
X0062186Y0082379D02*
X0067500Y0082379D01*
X0067500Y0083378D02*
X0062600Y0083378D01*
X0063013Y0084376D02*
X0067500Y0084376D01*
X0067500Y0085375D02*
X0063024Y0085375D01*
X0063024Y0086373D02*
X0067500Y0086373D01*
X0067500Y0087372D02*
X0063024Y0087372D01*
X0062824Y0088370D02*
X0067500Y0088370D01*
X0067500Y0089369D02*
X0062411Y0089369D01*
X0061997Y0090368D02*
X0067500Y0090368D01*
X0067500Y0091366D02*
X0061435Y0091366D01*
X0060436Y0092365D02*
X0067500Y0092365D01*
X0067500Y0093363D02*
X0059438Y0093363D01*
X0057332Y0094362D02*
X0067500Y0094362D01*
X0067500Y0095360D02*
X0038468Y0095360D01*
X0037470Y0096359D02*
X0067500Y0096359D01*
X0067500Y0097357D02*
X0036500Y0097357D01*
X0036500Y0098356D02*
X0066816Y0098356D01*
X0065817Y0099354D02*
X0036500Y0099354D01*
X0036500Y0100353D02*
X0064819Y0100353D01*
X0063820Y0101351D02*
X0036500Y0101351D01*
X0036500Y0102350D02*
X0062822Y0102350D01*
X0061823Y0103348D02*
X0036500Y0103348D01*
X0045307Y0112335D02*
X0052837Y0112335D01*
X0052606Y0111336D02*
X0053835Y0111336D01*
X0054834Y0110338D02*
X0052606Y0110338D01*
X0052606Y0109339D02*
X0055832Y0109339D01*
X0056831Y0108341D02*
X0052323Y0108341D01*
X0051325Y0107342D02*
X0057829Y0107342D01*
X0058828Y0106344D02*
X0050326Y0106344D01*
X0049328Y0105345D02*
X0059826Y0105345D01*
X0060825Y0104347D02*
X0048329Y0104347D01*
X0045307Y0113333D02*
X0044307Y0113333D01*
X0044307Y0114332D02*
X0045307Y0114332D01*
X0045307Y0115330D02*
X0044307Y0115330D01*
X0044307Y0116329D02*
X0045307Y0116329D01*
X0045307Y0117327D02*
X0044307Y0117327D01*
X0044307Y0118326D02*
X0045307Y0118326D01*
X0045307Y0119324D02*
X0044307Y0119324D01*
X0048500Y0125328D02*
X0044458Y0129370D01*
X0044520Y0129370D01*
X0044520Y0132945D01*
X0045094Y0132945D01*
X0045094Y0129370D01*
X0045187Y0129370D01*
X0045934Y0129519D01*
X0046637Y0129810D01*
X0047269Y0130232D01*
X0047807Y0130770D01*
X0048230Y0131403D01*
X0048500Y0132055D01*
X0048500Y0125328D01*
X0048500Y0126314D02*
X0047514Y0126314D01*
X0048500Y0127312D02*
X0046516Y0127312D01*
X0045517Y0128311D02*
X0048500Y0128311D01*
X0048500Y0129309D02*
X0044519Y0129309D01*
X0044520Y0130308D02*
X0045094Y0130308D01*
X0045094Y0131306D02*
X0044520Y0131306D01*
X0044520Y0132305D02*
X0045094Y0132305D01*
X0047345Y0130308D02*
X0048500Y0130308D01*
X0048500Y0131306D02*
X0048165Y0131306D01*
X0050500Y0133500D02*
X0045500Y0138500D01*
X0045500Y0142500D01*
X0044807Y0143232D01*
X0044039Y0149370D02*
X0042619Y0149958D01*
X0041533Y0151045D01*
X0040945Y0152464D01*
X0040945Y0154001D01*
X0041533Y0155420D01*
X0042619Y0156506D01*
X0044039Y0157094D01*
X0045575Y0157094D01*
X0046995Y0156506D01*
X0048081Y0155420D01*
X0048669Y0154001D01*
X0048669Y0152464D01*
X0048081Y0151045D01*
X0046995Y0149958D01*
X0045575Y0149370D01*
X0044039Y0149370D01*
X0042299Y0150278D02*
X0039550Y0150278D01*
X0038552Y0151277D02*
X0041437Y0151277D01*
X0041023Y0152275D02*
X0037553Y0152275D01*
X0036555Y0153274D02*
X0040945Y0153274D01*
X0041057Y0154272D02*
X0035556Y0154272D01*
X0035497Y0155271D02*
X0041471Y0155271D01*
X0042382Y0156269D02*
X0036363Y0156269D01*
X0036777Y0157268D02*
X0052837Y0157268D01*
X0052756Y0157464D02*
X0053344Y0156045D01*
X0054430Y0154958D01*
X0055850Y0154370D01*
X0057386Y0154370D01*
X0058806Y0154958D01*
X0059892Y0156045D01*
X0060480Y0157464D01*
X0060480Y0159001D01*
X0059892Y0160420D01*
X0058806Y0161506D01*
X0057386Y0162094D01*
X0055850Y0162094D01*
X0054430Y0161506D01*
X0053344Y0160420D01*
X0052756Y0159001D01*
X0052756Y0157464D01*
X0052756Y0158266D02*
X0036858Y0158266D01*
X0036749Y0159265D02*
X0052865Y0159265D01*
X0053279Y0160263D02*
X0036335Y0160263D01*
X0035429Y0161262D02*
X0054186Y0161262D01*
X0059051Y0161262D02*
X0067500Y0161262D01*
X0067500Y0162260D02*
X0003968Y0162260D01*
X0003968Y0161262D02*
X0030564Y0161262D01*
X0029657Y0160263D02*
X0003968Y0160263D01*
X0003968Y0159265D02*
X0029243Y0159265D01*
X0020500Y0158500D02*
X0020500Y0174500D01*
X0021185Y0174610D01*
X0021500Y0174500D01*
X0044500Y0174500D01*
X0044807Y0174610D01*
X0044307Y0174242D02*
X0021685Y0174242D01*
X0021685Y0174110D02*
X0021685Y0175110D01*
X0028984Y0175110D01*
X0028984Y0177841D01*
X0024416Y0182409D01*
X0021685Y0182409D01*
X0021685Y0175110D01*
X0020685Y0175110D01*
X0020685Y0174110D01*
X0021685Y0174110D01*
X0021685Y0166811D01*
X0024416Y0166811D01*
X0028984Y0171380D01*
X0028984Y0174110D01*
X0021685Y0174110D01*
X0021685Y0173244D02*
X0020685Y0173244D01*
X0020685Y0174110D02*
X0020685Y0166811D01*
X0017955Y0166811D01*
X0013386Y0171380D01*
X0013386Y0174110D01*
X0020685Y0174110D01*
X0020685Y0174242D02*
X0003968Y0174242D01*
X0003968Y0173244D02*
X0013386Y0173244D01*
X0013386Y0172245D02*
X0003968Y0172245D01*
X0003968Y0171247D02*
X0013519Y0171247D01*
X0014517Y0170248D02*
X0003968Y0170248D01*
X0003968Y0169250D02*
X0015516Y0169250D01*
X0016514Y0168251D02*
X0003968Y0168251D01*
X0003968Y0167253D02*
X0017513Y0167253D01*
X0020685Y0167253D02*
X0021685Y0167253D01*
X0021685Y0168251D02*
X0020685Y0168251D01*
X0020685Y0169250D02*
X0021685Y0169250D01*
X0021685Y0170248D02*
X0020685Y0170248D01*
X0020685Y0171247D02*
X0021685Y0171247D01*
X0021685Y0172245D02*
X0020685Y0172245D01*
X0020685Y0175110D02*
X0013386Y0175110D01*
X0013386Y0177841D01*
X0017955Y0182409D01*
X0020685Y0182409D01*
X0020685Y0175110D01*
X0020685Y0175241D02*
X0021685Y0175241D01*
X0021685Y0176239D02*
X0020685Y0176239D01*
X0020685Y0177238D02*
X0021685Y0177238D01*
X0021685Y0178237D02*
X0020685Y0178237D01*
X0020685Y0179235D02*
X0021685Y0179235D01*
X0021685Y0180234D02*
X0020685Y0180234D01*
X0020685Y0181232D02*
X0021685Y0181232D01*
X0021685Y0182231D02*
X0020685Y0182231D01*
X0017776Y0182231D02*
X0003968Y0182231D01*
X0003968Y0183229D02*
X0067500Y0183229D01*
X0067500Y0182231D02*
X0048216Y0182231D01*
X0048038Y0182409D02*
X0045307Y0182409D01*
X0045307Y0175110D01*
X0052606Y0175110D01*
X0052606Y0177841D01*
X0048038Y0182409D01*
X0049215Y0181232D02*
X0067500Y0181232D01*
X0067500Y0180234D02*
X0050214Y0180234D01*
X0051212Y0179235D02*
X0067500Y0179235D01*
X0067500Y0178237D02*
X0052211Y0178237D01*
X0052606Y0177238D02*
X0067500Y0177238D01*
X0067500Y0176239D02*
X0052606Y0176239D01*
X0052606Y0175241D02*
X0067500Y0175241D01*
X0067500Y0174242D02*
X0045307Y0174242D01*
X0045307Y0174110D02*
X0045307Y0175110D01*
X0044307Y0175110D01*
X0044307Y0174110D01*
X0045307Y0174110D01*
X0045307Y0166811D01*
X0048038Y0166811D01*
X0052606Y0171380D01*
X0052606Y0174110D01*
X0045307Y0174110D01*
X0045307Y0173244D02*
X0044307Y0173244D01*
X0044307Y0174110D02*
X0044307Y0166811D01*
X0041577Y0166811D01*
X0037008Y0171380D01*
X0037008Y0174110D01*
X0044307Y0174110D01*
X0044307Y0175110D02*
X0037008Y0175110D01*
X0037008Y0177841D01*
X0041577Y0182409D01*
X0044307Y0182409D01*
X0044307Y0175110D01*
X0044307Y0175241D02*
X0045307Y0175241D01*
X0045307Y0176239D02*
X0044307Y0176239D01*
X0044307Y0177238D02*
X0045307Y0177238D01*
X0045307Y0178237D02*
X0044307Y0178237D01*
X0044307Y0179235D02*
X0045307Y0179235D01*
X0045307Y0180234D02*
X0044307Y0180234D01*
X0044307Y0181232D02*
X0045307Y0181232D01*
X0045307Y0182231D02*
X0044307Y0182231D01*
X0041398Y0182231D02*
X0024594Y0182231D01*
X0025593Y0181232D02*
X0040399Y0181232D01*
X0039401Y0180234D02*
X0026591Y0180234D01*
X0027590Y0179235D02*
X0038402Y0179235D01*
X0037404Y0178237D02*
X0028588Y0178237D01*
X0028984Y0177238D02*
X0037008Y0177238D01*
X0037008Y0176239D02*
X0028984Y0176239D01*
X0028984Y0175241D02*
X0037008Y0175241D01*
X0037008Y0173244D02*
X0028984Y0173244D01*
X0028984Y0172245D02*
X0037008Y0172245D01*
X0037141Y0171247D02*
X0028851Y0171247D01*
X0027853Y0170248D02*
X0038139Y0170248D01*
X0039138Y0169250D02*
X0026854Y0169250D01*
X0025856Y0168251D02*
X0040136Y0168251D01*
X0041135Y0167253D02*
X0024857Y0167253D01*
X0013386Y0175241D02*
X0003968Y0175241D01*
X0003968Y0176239D02*
X0013386Y0176239D01*
X0013386Y0177238D02*
X0003968Y0177238D01*
X0003968Y0178237D02*
X0013782Y0178237D01*
X0014780Y0179235D02*
X0003968Y0179235D01*
X0003968Y0180234D02*
X0015779Y0180234D01*
X0016777Y0181232D02*
X0003968Y0181232D01*
X0003968Y0184228D02*
X0067500Y0184228D01*
X0067500Y0185226D02*
X0003968Y0185226D01*
X0003968Y0186225D02*
X0067500Y0186225D01*
X0067500Y0187223D02*
X0003968Y0187223D01*
X0003968Y0188222D02*
X0067500Y0188222D01*
X0067500Y0189220D02*
X0003968Y0189220D01*
X0003968Y0190219D02*
X0067500Y0190219D01*
X0067500Y0191217D02*
X0003968Y0191217D01*
X0003968Y0192216D02*
X0050908Y0192216D01*
X0052512Y0191551D02*
X0049289Y0192886D01*
X0046823Y0195352D01*
X0045488Y0198575D01*
X0045488Y0202063D01*
X0046823Y0205285D01*
X0049289Y0207752D01*
X0052512Y0209087D01*
X0056000Y0209087D01*
X0059222Y0207752D01*
X0061689Y0205285D01*
X0063024Y0202063D01*
X0063024Y0198575D01*
X0061689Y0195352D01*
X0059222Y0192886D01*
X0056000Y0191551D01*
X0052512Y0191551D01*
X0048961Y0193214D02*
X0036697Y0193214D01*
X0037517Y0193554D02*
X0034583Y0192339D01*
X0031409Y0192339D01*
X0028476Y0193554D01*
X0026231Y0195798D01*
X0025016Y0198732D01*
X0025016Y0201906D01*
X0026231Y0204839D01*
X0028476Y0207084D01*
X0031409Y0208299D01*
X0034583Y0208299D01*
X0037517Y0207084D01*
X0039761Y0204839D01*
X0040976Y0201906D01*
X0040976Y0198732D01*
X0039761Y0195798D01*
X0037517Y0193554D01*
X0038176Y0194213D02*
X0047963Y0194213D01*
X0046964Y0195211D02*
X0039174Y0195211D01*
X0039932Y0196210D02*
X0046468Y0196210D01*
X0046054Y0197208D02*
X0040345Y0197208D01*
X0040759Y0198207D02*
X0045641Y0198207D01*
X0045488Y0199205D02*
X0040976Y0199205D01*
X0040976Y0200204D02*
X0045488Y0200204D01*
X0045488Y0201202D02*
X0040976Y0201202D01*
X0040854Y0202201D02*
X0045545Y0202201D01*
X0045959Y0203199D02*
X0040441Y0203199D01*
X0040027Y0204198D02*
X0046373Y0204198D01*
X0046786Y0205196D02*
X0039405Y0205196D01*
X0038406Y0206195D02*
X0047732Y0206195D01*
X0048731Y0207193D02*
X0037253Y0207193D01*
X0034843Y0208192D02*
X0050352Y0208192D01*
X0058160Y0208192D02*
X0067500Y0208192D01*
X0067500Y0209190D02*
X0003968Y0209190D01*
X0003968Y0208192D02*
X0031149Y0208192D01*
X0028739Y0207193D02*
X0003968Y0207193D01*
X0003968Y0206195D02*
X0027586Y0206195D01*
X0026588Y0205196D02*
X0003968Y0205196D01*
X0003968Y0204198D02*
X0025965Y0204198D01*
X0025551Y0203199D02*
X0003968Y0203199D01*
X0003968Y0202201D02*
X0025138Y0202201D01*
X0025016Y0201202D02*
X0003968Y0201202D01*
X0003968Y0200204D02*
X0025016Y0200204D01*
X0025016Y0199205D02*
X0003968Y0199205D01*
X0003968Y0198207D02*
X0025233Y0198207D01*
X0025647Y0197208D02*
X0003968Y0197208D01*
X0003968Y0196210D02*
X0026060Y0196210D01*
X0026818Y0195211D02*
X0003968Y0195211D01*
X0003968Y0194213D02*
X0027816Y0194213D01*
X0029295Y0193214D02*
X0003968Y0193214D01*
X0003968Y0210189D02*
X0067500Y0210189D01*
X0067500Y0211187D02*
X0003968Y0211187D01*
X0003968Y0212186D02*
X0067500Y0212186D01*
X0067500Y0213184D02*
X0003968Y0213184D01*
X0003968Y0214183D02*
X0067500Y0214183D01*
X0067500Y0215181D02*
X0003968Y0215181D01*
X0003968Y0216180D02*
X0067500Y0216180D01*
X0067500Y0217178D02*
X0003968Y0217178D01*
X0003968Y0218177D02*
X0067865Y0218177D01*
X0068519Y0219175D02*
X0003968Y0219175D01*
X0003968Y0220174D02*
X0069917Y0220174D01*
X0075500Y0212186D02*
X0088986Y0212186D01*
X0089984Y0211187D02*
X0075500Y0211187D01*
X0075500Y0210189D02*
X0090983Y0210189D01*
X0091981Y0209190D02*
X0075500Y0209190D01*
X0075500Y0208192D02*
X0092980Y0208192D01*
X0094643Y0212186D02*
X0108072Y0212186D01*
X0107658Y0213184D02*
X0098700Y0213184D01*
X0099698Y0214183D02*
X0107600Y0214183D01*
X0107600Y0215181D02*
X0100400Y0215181D01*
X0100400Y0216180D02*
X0107600Y0216180D01*
X0107600Y0217178D02*
X0100400Y0217178D01*
X0100338Y0218177D02*
X0107600Y0218177D01*
X0107600Y0219175D02*
X0099340Y0219175D01*
X0098341Y0220174D02*
X0107806Y0220174D01*
X0096800Y0216180D02*
X0096200Y0216180D01*
X0096200Y0215181D02*
X0096800Y0215181D01*
X0096800Y0214183D02*
X0096200Y0214183D01*
X0096200Y0213184D02*
X0096800Y0213184D01*
X0094300Y0213184D02*
X0093644Y0213184D01*
X0093302Y0214183D02*
X0092645Y0214183D01*
X0092600Y0215181D02*
X0091647Y0215181D01*
X0092600Y0216180D02*
X0090648Y0216180D01*
X0090500Y0217178D02*
X0092600Y0217178D01*
X0092662Y0218177D02*
X0090500Y0218177D01*
X0090500Y0219175D02*
X0093660Y0219175D01*
X0067500Y0207193D02*
X0059781Y0207193D01*
X0060779Y0206195D02*
X0067500Y0206195D01*
X0067500Y0205196D02*
X0061726Y0205196D01*
X0062139Y0204198D02*
X0067500Y0204198D01*
X0067500Y0203199D02*
X0062553Y0203199D01*
X0062967Y0202201D02*
X0067500Y0202201D01*
X0067500Y0201202D02*
X0063024Y0201202D01*
X0063024Y0200204D02*
X0067500Y0200204D01*
X0067500Y0199205D02*
X0063024Y0199205D01*
X0062871Y0198207D02*
X0067500Y0198207D01*
X0067500Y0197208D02*
X0062458Y0197208D01*
X0062044Y0196210D02*
X0067500Y0196210D01*
X0067500Y0195211D02*
X0061548Y0195211D01*
X0060549Y0194213D02*
X0067500Y0194213D01*
X0067500Y0193214D02*
X0059551Y0193214D01*
X0057604Y0192216D02*
X0067500Y0192216D01*
X0067500Y0173244D02*
X0052606Y0173244D01*
X0052606Y0172245D02*
X0067500Y0172245D01*
X0067500Y0171247D02*
X0052474Y0171247D01*
X0051475Y0170248D02*
X0067500Y0170248D01*
X0067500Y0169250D02*
X0050476Y0169250D01*
X0049478Y0168251D02*
X0067500Y0168251D01*
X0067500Y0167253D02*
X0048479Y0167253D01*
X0045307Y0167253D02*
X0044307Y0167253D01*
X0044307Y0168251D02*
X0045307Y0168251D01*
X0045307Y0169250D02*
X0044307Y0169250D01*
X0044307Y0170248D02*
X0045307Y0170248D01*
X0045307Y0171247D02*
X0044307Y0171247D01*
X0044307Y0172245D02*
X0045307Y0172245D01*
X0059957Y0160263D02*
X0067500Y0160263D01*
X0067500Y0159265D02*
X0060371Y0159265D01*
X0060480Y0158266D02*
X0067500Y0158266D01*
X0067500Y0157268D02*
X0060399Y0157268D01*
X0059985Y0156269D02*
X0067500Y0156269D01*
X0067500Y0155271D02*
X0059119Y0155271D01*
X0059036Y0151277D02*
X0067500Y0151277D01*
X0067500Y0152275D02*
X0048591Y0152275D01*
X0048669Y0153274D02*
X0067500Y0153274D01*
X0067500Y0154272D02*
X0048557Y0154272D01*
X0048143Y0155271D02*
X0054118Y0155271D01*
X0053251Y0156269D02*
X0047232Y0156269D01*
X0048177Y0151277D02*
X0054201Y0151277D01*
X0053285Y0150278D02*
X0047315Y0150278D01*
X0052872Y0149280D02*
X0040549Y0149280D01*
X0057119Y0142290D02*
X0067500Y0142290D01*
X0067500Y0141292D02*
X0059021Y0141292D01*
X0059945Y0140293D02*
X0067500Y0140293D01*
X0067500Y0139295D02*
X0060359Y0139295D01*
X0060480Y0138296D02*
X0067500Y0138296D01*
X0067500Y0137298D02*
X0060411Y0137298D01*
X0059998Y0136299D02*
X0067500Y0136299D01*
X0067500Y0135301D02*
X0059148Y0135301D01*
X0054500Y0134302D02*
X0067500Y0134302D01*
X0067500Y0133303D02*
X0054500Y0133303D01*
X0054500Y0132305D02*
X0067500Y0132305D01*
X0072500Y0124317D02*
X0078801Y0124317D01*
X0077803Y0123318D02*
X0056510Y0123318D01*
X0055618Y0124317D02*
X0055512Y0124317D01*
X0057509Y0122320D02*
X0077600Y0122320D01*
X0077600Y0120323D02*
X0059506Y0120323D01*
X0060504Y0119324D02*
X0078160Y0119324D01*
X0079159Y0118326D02*
X0061503Y0118326D01*
X0064498Y0115330D02*
X0079815Y0115330D01*
X0081200Y0118326D02*
X0081800Y0118326D01*
X0081800Y0119324D02*
X0081200Y0119324D01*
X0081200Y0120323D02*
X0081800Y0120323D01*
X0081200Y0121321D02*
X0058507Y0121321D01*
X0074240Y0125315D02*
X0079800Y0125315D01*
X0084199Y0124317D02*
X0141488Y0124317D01*
X0140490Y0123318D02*
X0085197Y0123318D01*
X0067500Y0143289D02*
X0058117Y0143289D01*
X0058500Y0144287D02*
X0067500Y0144287D01*
X0067500Y0145286D02*
X0059133Y0145286D01*
X0059992Y0146284D02*
X0067500Y0146284D01*
X0067500Y0147283D02*
X0060405Y0147283D01*
X0060480Y0148281D02*
X0067500Y0148281D01*
X0067500Y0149280D02*
X0060365Y0149280D01*
X0059951Y0150278D02*
X0067500Y0150278D01*
X0067500Y0163259D02*
X0003968Y0163259D01*
X0003968Y0164257D02*
X0067500Y0164257D01*
X0067500Y0165256D02*
X0003968Y0165256D01*
X0003968Y0166254D02*
X0067500Y0166254D01*
X0109741Y0172245D02*
X0113259Y0172245D01*
X0112261Y0173244D02*
X0110739Y0173244D01*
X0111302Y0174242D02*
X0111698Y0174242D01*
X0136000Y0174242D02*
X0137000Y0174242D01*
X0137000Y0173244D02*
X0136000Y0173244D01*
X0136000Y0172245D02*
X0137000Y0172245D01*
X0137000Y0171247D02*
X0136000Y0171247D01*
X0137213Y0171247D02*
X0145332Y0171247D01*
X0143259Y0172245D02*
X0139661Y0172245D01*
X0140685Y0173244D02*
X0142261Y0173244D01*
X0141698Y0174242D02*
X0141298Y0174242D01*
X0137000Y0175241D02*
X0136000Y0175241D01*
X0144947Y0182231D02*
X0148053Y0182231D01*
X0147639Y0183229D02*
X0145361Y0183229D01*
X0145400Y0184228D02*
X0147600Y0184228D01*
X0147600Y0185226D02*
X0145400Y0185226D01*
X0145400Y0186225D02*
X0147600Y0186225D01*
X0147600Y0187223D02*
X0145400Y0187223D01*
X0145400Y0188222D02*
X0147600Y0188222D01*
X0147600Y0189220D02*
X0145400Y0189220D01*
X0145175Y0190219D02*
X0147825Y0190219D01*
X0148302Y0191217D02*
X0144698Y0191217D01*
X0143686Y0192216D02*
X0149314Y0192216D01*
X0153686Y0192216D02*
X0154500Y0192216D01*
X0154500Y0193214D02*
X0143500Y0193214D01*
X0143500Y0194213D02*
X0154500Y0194213D01*
X0154500Y0195211D02*
X0143500Y0195211D01*
X0143500Y0196210D02*
X0154500Y0196210D01*
X0154500Y0197208D02*
X0143500Y0197208D01*
X0143500Y0198207D02*
X0154500Y0198207D01*
X0154500Y0199205D02*
X0142623Y0199205D01*
X0141962Y0200204D02*
X0154500Y0200204D01*
X0154500Y0201202D02*
X0142864Y0201202D01*
X0143181Y0202201D02*
X0154500Y0202201D01*
X0154500Y0203199D02*
X0144028Y0203199D01*
X0145948Y0204198D02*
X0154500Y0204198D01*
X0154500Y0205196D02*
X0146862Y0205196D01*
X0147181Y0206195D02*
X0154500Y0206195D01*
X0154500Y0207193D02*
X0147115Y0207193D01*
X0146600Y0208192D02*
X0154500Y0208192D01*
X0154500Y0209190D02*
X0137500Y0209190D01*
X0137500Y0208192D02*
X0142400Y0208192D01*
X0141885Y0207193D02*
X0137500Y0207193D01*
X0137500Y0206195D02*
X0141366Y0206195D01*
X0140368Y0205196D02*
X0137500Y0205196D01*
X0137631Y0204198D02*
X0138406Y0204198D01*
X0140500Y0202500D02*
X0144500Y0206500D01*
X0142276Y0210200D02*
X0143709Y0210794D01*
X0144806Y0211891D01*
X0145400Y0213324D01*
X0145400Y0219676D01*
X0144806Y0221109D01*
X0143709Y0222206D01*
X0142276Y0222800D01*
X0140724Y0222800D01*
X0139291Y0222206D01*
X0138194Y0221109D01*
X0137600Y0219676D01*
X0137600Y0213324D01*
X0138194Y0211891D01*
X0139291Y0210794D01*
X0140724Y0210200D01*
X0142276Y0210200D01*
X0144103Y0211187D02*
X0148897Y0211187D01*
X0148072Y0212186D02*
X0144928Y0212186D01*
X0145342Y0213184D02*
X0147658Y0213184D01*
X0147600Y0214183D02*
X0145400Y0214183D01*
X0145400Y0215181D02*
X0147600Y0215181D01*
X0147600Y0216180D02*
X0145400Y0216180D01*
X0145400Y0217178D02*
X0147600Y0217178D01*
X0147600Y0218177D02*
X0145400Y0218177D01*
X0145400Y0219175D02*
X0147600Y0219175D01*
X0147806Y0220174D02*
X0145194Y0220174D01*
X0144743Y0221172D02*
X0148257Y0221172D01*
X0149256Y0222171D02*
X0143744Y0222171D01*
X0139256Y0222171D02*
X0137500Y0222171D01*
X0137500Y0221172D02*
X0138257Y0221172D01*
X0137806Y0220174D02*
X0137500Y0220174D01*
X0137500Y0219175D02*
X0137600Y0219175D01*
X0137600Y0218177D02*
X0137500Y0218177D01*
X0137500Y0217178D02*
X0137600Y0217178D01*
X0137600Y0216180D02*
X0137500Y0216180D01*
X0137500Y0215181D02*
X0137600Y0215181D01*
X0137600Y0214183D02*
X0137500Y0214183D01*
X0137500Y0213184D02*
X0137658Y0213184D01*
X0137500Y0212186D02*
X0138072Y0212186D01*
X0137500Y0211187D02*
X0138897Y0211187D01*
X0137500Y0210189D02*
X0154500Y0210189D01*
X0154500Y0211187D02*
X0154103Y0211187D01*
X0161500Y0206500D02*
X0169500Y0198500D01*
X0178500Y0198500D01*
X0183500Y0198207D02*
X0197691Y0198207D01*
X0197600Y0198115D02*
X0199500Y0200015D01*
X0199500Y0201328D01*
X0200772Y0202600D01*
X0199885Y0202600D01*
X0197600Y0204885D01*
X0197600Y0206200D01*
X0201200Y0206200D01*
X0201200Y0206800D01*
X0201200Y0210400D01*
X0199885Y0210400D01*
X0197600Y0208115D01*
X0197600Y0206800D01*
X0201200Y0206800D01*
X0201800Y0206800D01*
X0201800Y0210400D01*
X0203115Y0210400D01*
X0205400Y0208115D01*
X0205400Y0207228D01*
X0209128Y0210956D01*
X0208194Y0211891D01*
X0207600Y0213324D01*
X0207600Y0219676D01*
X0208194Y0221109D01*
X0209291Y0222206D01*
X0210724Y0222800D01*
X0212276Y0222800D01*
X0213709Y0222206D01*
X0214806Y0221109D01*
X0215400Y0219676D01*
X0215400Y0213324D01*
X0214806Y0211891D01*
X0213709Y0210794D01*
X0213500Y0210707D01*
X0213500Y0209672D01*
X0212328Y0208500D01*
X0203672Y0199843D01*
X0205400Y0198115D01*
X0205400Y0194885D01*
X0203115Y0192600D01*
X0199885Y0192600D01*
X0197600Y0194885D01*
X0197600Y0198115D01*
X0197600Y0197208D02*
X0183500Y0197208D01*
X0183500Y0196210D02*
X0197600Y0196210D01*
X0197600Y0195211D02*
X0183500Y0195211D01*
X0183500Y0194213D02*
X0198272Y0194213D01*
X0199270Y0193214D02*
X0183500Y0193214D01*
X0183500Y0192293D02*
X0183500Y0207672D01*
X0194328Y0218500D01*
X0195500Y0219672D01*
X0195500Y0229201D01*
X0197047Y0229842D01*
X0198350Y0231145D01*
X0199654Y0229842D01*
X0201363Y0229134D01*
X0203212Y0229134D01*
X0204921Y0229842D01*
X0206224Y0231145D01*
X0207528Y0229842D01*
X0209237Y0229134D01*
X0211086Y0229134D01*
X0212795Y0229842D01*
X0214098Y0231145D01*
X0215402Y0229842D01*
X0217111Y0229134D01*
X0218960Y0229134D01*
X0220669Y0229842D01*
X0221977Y0231150D01*
X0222685Y0232859D01*
X0222685Y0233487D01*
X0223500Y0232672D01*
X0223500Y0222254D01*
X0223347Y0222356D01*
X0222638Y0222650D01*
X0221884Y0222800D01*
X0221800Y0222800D01*
X0221800Y0216800D01*
X0221200Y0216800D01*
X0221200Y0222800D01*
X0221116Y0222800D01*
X0220362Y0222650D01*
X0219653Y0222356D01*
X0219014Y0221929D01*
X0218471Y0221386D01*
X0218044Y0220747D01*
X0217750Y0220038D01*
X0217600Y0219284D01*
X0217600Y0216800D01*
X0221200Y0216800D01*
X0221200Y0216200D01*
X0217600Y0216200D01*
X0217600Y0213716D01*
X0217750Y0212962D01*
X0218044Y0212253D01*
X0218471Y0211614D01*
X0219014Y0211071D01*
X0219653Y0210644D01*
X0220362Y0210350D01*
X0220495Y0210323D01*
X0219500Y0209328D01*
X0219500Y0192293D01*
X0219291Y0192206D01*
X0218194Y0191109D01*
X0217600Y0189676D01*
X0217600Y0183324D01*
X0218194Y0181891D01*
X0218801Y0181284D01*
X0217554Y0181800D01*
X0215446Y0181800D01*
X0214199Y0181284D01*
X0214806Y0181891D01*
X0215400Y0183324D01*
X0215400Y0189676D01*
X0214806Y0191109D01*
X0213709Y0192206D01*
X0212276Y0192800D01*
X0210724Y0192800D01*
X0209291Y0192206D01*
X0208194Y0191109D01*
X0207600Y0189676D01*
X0207600Y0183324D01*
X0208194Y0181891D01*
X0208801Y0181284D01*
X0207554Y0181800D01*
X0205446Y0181800D01*
X0203498Y0180993D01*
X0202007Y0179502D01*
X0201500Y0178278D01*
X0200993Y0179502D01*
X0199502Y0180993D01*
X0197554Y0181800D01*
X0195446Y0181800D01*
X0193498Y0180993D01*
X0192007Y0179502D01*
X0191500Y0178278D01*
X0190993Y0179502D01*
X0189502Y0180993D01*
X0187554Y0181800D01*
X0185446Y0181800D01*
X0184199Y0181284D01*
X0184806Y0181891D01*
X0185400Y0183324D01*
X0185400Y0189676D01*
X0184806Y0191109D01*
X0183709Y0192206D01*
X0183500Y0192293D01*
X0183686Y0192216D02*
X0209314Y0192216D01*
X0208302Y0191217D02*
X0184698Y0191217D01*
X0185175Y0190219D02*
X0207825Y0190219D01*
X0207600Y0189220D02*
X0185400Y0189220D01*
X0185400Y0188222D02*
X0207600Y0188222D01*
X0207600Y0187223D02*
X0185400Y0187223D01*
X0185400Y0186225D02*
X0207600Y0186225D01*
X0207600Y0185226D02*
X0185400Y0185226D01*
X0185400Y0184228D02*
X0207600Y0184228D01*
X0207639Y0183229D02*
X0185361Y0183229D01*
X0184947Y0182231D02*
X0208053Y0182231D01*
X0204075Y0181232D02*
X0198925Y0181232D01*
X0200262Y0180234D02*
X0202738Y0180234D01*
X0201896Y0179235D02*
X0201104Y0179235D01*
X0201302Y0174242D02*
X0201698Y0174242D01*
X0202261Y0173244D02*
X0200739Y0173244D01*
X0199741Y0172245D02*
X0203259Y0172245D01*
X0205332Y0171247D02*
X0197668Y0171247D01*
X0195332Y0171247D02*
X0187668Y0171247D01*
X0189741Y0172245D02*
X0193259Y0172245D01*
X0192261Y0173244D02*
X0190739Y0173244D01*
X0191302Y0174242D02*
X0191698Y0174242D01*
X0191896Y0179235D02*
X0191104Y0179235D01*
X0190262Y0180234D02*
X0192738Y0180234D01*
X0194075Y0181232D02*
X0188925Y0181232D01*
X0181500Y0186500D02*
X0181500Y0208500D01*
X0193500Y0220500D01*
X0193500Y0233500D01*
X0194413Y0233783D01*
X0197365Y0230159D02*
X0199336Y0230159D01*
X0201298Y0229161D02*
X0195500Y0229161D01*
X0195500Y0228162D02*
X0223500Y0228162D01*
X0223500Y0227164D02*
X0195500Y0227164D01*
X0195500Y0226165D02*
X0223500Y0226165D01*
X0223500Y0225167D02*
X0195500Y0225167D01*
X0195500Y0224168D02*
X0223500Y0224168D01*
X0223500Y0223170D02*
X0195500Y0223170D01*
X0195500Y0222171D02*
X0209256Y0222171D01*
X0208257Y0221172D02*
X0195500Y0221172D01*
X0195500Y0220174D02*
X0207806Y0220174D01*
X0207600Y0219175D02*
X0195004Y0219175D01*
X0194005Y0218177D02*
X0207600Y0218177D01*
X0207600Y0217178D02*
X0193007Y0217178D01*
X0192008Y0216180D02*
X0207600Y0216180D01*
X0207600Y0215181D02*
X0191010Y0215181D01*
X0190011Y0214183D02*
X0207600Y0214183D01*
X0207658Y0213184D02*
X0189013Y0213184D01*
X0188014Y0212186D02*
X0208072Y0212186D01*
X0208897Y0211187D02*
X0187016Y0211187D01*
X0186017Y0210189D02*
X0199673Y0210189D01*
X0198675Y0209190D02*
X0185019Y0209190D01*
X0184020Y0208192D02*
X0197676Y0208192D01*
X0197600Y0207193D02*
X0183500Y0207193D01*
X0183500Y0206195D02*
X0197600Y0206195D01*
X0197600Y0205196D02*
X0183500Y0205196D01*
X0183500Y0204198D02*
X0198287Y0204198D01*
X0199285Y0203199D02*
X0183500Y0203199D01*
X0183500Y0202201D02*
X0200372Y0202201D01*
X0199500Y0201202D02*
X0183500Y0201202D01*
X0183500Y0200204D02*
X0199500Y0200204D01*
X0198690Y0199205D02*
X0183500Y0199205D01*
X0168500Y0205500D02*
X0177500Y0214500D01*
X0177500Y0223500D01*
X0192500Y0238500D01*
X0213500Y0238500D01*
X0217500Y0234500D01*
X0218035Y0233783D01*
X0222394Y0232156D02*
X0223500Y0232156D01*
X0223500Y0231158D02*
X0221980Y0231158D01*
X0220987Y0230159D02*
X0223500Y0230159D01*
X0223500Y0229161D02*
X0219025Y0229161D01*
X0217046Y0229161D02*
X0211151Y0229161D01*
X0209172Y0229161D02*
X0203277Y0229161D01*
X0205239Y0230159D02*
X0207210Y0230159D01*
X0213113Y0230159D02*
X0215084Y0230159D01*
X0222685Y0233155D02*
X0223017Y0233155D01*
X0225500Y0233500D02*
X0218500Y0240500D01*
X0183500Y0240500D01*
X0178500Y0235500D01*
X0163500Y0235500D01*
X0159500Y0231500D01*
X0158626Y0231500D01*
X0158500Y0227500D02*
X0156500Y0227500D01*
X0154500Y0229500D01*
X0154500Y0233500D01*
X0158500Y0237500D01*
X0160500Y0237500D01*
X0174500Y0251500D01*
X0174500Y0253500D01*
X0176500Y0255500D01*
X0173293Y0255122D02*
X0160520Y0255122D01*
X0161518Y0254123D02*
X0172500Y0254123D01*
X0172500Y0253125D02*
X0162517Y0253125D01*
X0162526Y0252126D02*
X0172298Y0252126D01*
X0171299Y0251128D02*
X0162526Y0251128D01*
X0162526Y0250129D02*
X0170301Y0250129D01*
X0169302Y0249131D02*
X0161772Y0249131D01*
X0160774Y0248132D02*
X0168304Y0248132D01*
X0165308Y0245137D02*
X0160505Y0245137D01*
X0161503Y0244138D02*
X0164310Y0244138D01*
X0163311Y0243140D02*
X0162502Y0243140D01*
X0158626Y0241500D02*
X0152500Y0241500D01*
X0158500Y0227500D02*
X0169500Y0216500D01*
X0171500Y0216500D01*
X0161500Y0216500D02*
X0161500Y0206500D01*
X0168500Y0205500D02*
X0168500Y0203500D01*
X0156500Y0224500D02*
X0156500Y0176500D01*
X0152261Y0173244D02*
X0150739Y0173244D01*
X0151302Y0174242D02*
X0151698Y0174242D01*
X0153259Y0172245D02*
X0149741Y0172245D01*
X0147668Y0171247D02*
X0155332Y0171247D01*
X0157668Y0171247D02*
X0165332Y0171247D01*
X0163259Y0172245D02*
X0159741Y0172245D01*
X0160739Y0173244D02*
X0162261Y0173244D01*
X0161698Y0174242D02*
X0161302Y0174242D01*
X0167668Y0171247D02*
X0175332Y0171247D01*
X0173259Y0172245D02*
X0169741Y0172245D01*
X0170739Y0173244D02*
X0172261Y0173244D01*
X0171698Y0174242D02*
X0171302Y0174242D01*
X0177668Y0171247D02*
X0185332Y0171247D01*
X0183259Y0172245D02*
X0179741Y0172245D01*
X0180739Y0173244D02*
X0182261Y0173244D01*
X0181698Y0174242D02*
X0181302Y0174242D01*
X0203730Y0193214D02*
X0219500Y0193214D01*
X0219500Y0194213D02*
X0204728Y0194213D01*
X0205400Y0195211D02*
X0219500Y0195211D01*
X0219500Y0196210D02*
X0205400Y0196210D01*
X0205400Y0197208D02*
X0219500Y0197208D01*
X0219500Y0198207D02*
X0205309Y0198207D01*
X0204310Y0199205D02*
X0219500Y0199205D01*
X0219500Y0200204D02*
X0204032Y0200204D01*
X0205031Y0201202D02*
X0219500Y0201202D01*
X0219500Y0202201D02*
X0206029Y0202201D01*
X0207028Y0203199D02*
X0219500Y0203199D01*
X0219500Y0204198D02*
X0208026Y0204198D01*
X0209025Y0205196D02*
X0219500Y0205196D01*
X0219500Y0206195D02*
X0210023Y0206195D01*
X0211022Y0207193D02*
X0219500Y0207193D01*
X0219500Y0208192D02*
X0212020Y0208192D01*
X0213019Y0209190D02*
X0219500Y0209190D01*
X0220360Y0210189D02*
X0213500Y0210189D01*
X0214103Y0211187D02*
X0218897Y0211187D01*
X0218088Y0212186D02*
X0214928Y0212186D01*
X0215342Y0213184D02*
X0217706Y0213184D01*
X0217600Y0214183D02*
X0215400Y0214183D01*
X0215400Y0215181D02*
X0217600Y0215181D01*
X0217600Y0216180D02*
X0215400Y0216180D01*
X0215400Y0217178D02*
X0217600Y0217178D01*
X0217600Y0218177D02*
X0215400Y0218177D01*
X0215400Y0219175D02*
X0217600Y0219175D01*
X0217806Y0220174D02*
X0215194Y0220174D01*
X0214743Y0221172D02*
X0218328Y0221172D01*
X0219376Y0222171D02*
X0213744Y0222171D01*
X0211500Y0216500D02*
X0211500Y0210500D01*
X0201500Y0200500D01*
X0201500Y0196500D01*
X0201200Y0207193D02*
X0201800Y0207193D01*
X0201800Y0208192D02*
X0201200Y0208192D01*
X0201200Y0209190D02*
X0201800Y0209190D01*
X0201800Y0210189D02*
X0201200Y0210189D01*
X0203327Y0210189D02*
X0208360Y0210189D01*
X0207362Y0209190D02*
X0204325Y0209190D01*
X0205324Y0208192D02*
X0206363Y0208192D01*
X0221500Y0208500D02*
X0225500Y0212500D01*
X0225500Y0233500D01*
X0227500Y0234500D02*
X0233500Y0234500D01*
X0233783Y0233783D01*
X0230573Y0237149D02*
X0227680Y0237149D01*
X0226681Y0238147D02*
X0232168Y0238147D01*
X0235398Y0238147D02*
X0240041Y0238147D01*
X0241468Y0238147D02*
X0241846Y0238147D01*
X0241846Y0237149D02*
X0241468Y0237149D01*
X0241468Y0236150D02*
X0241846Y0236150D01*
X0241846Y0235152D02*
X0241468Y0235152D01*
X0241468Y0234153D02*
X0241846Y0234153D01*
X0241657Y0233783D02*
X0242500Y0234500D01*
X0249500Y0241500D01*
X0260500Y0241500D01*
X0261343Y0241657D01*
X0265750Y0243140D02*
X0272032Y0243140D01*
X0271033Y0244138D02*
X0265287Y0244138D01*
X0264439Y0245137D02*
X0270035Y0245137D01*
X0269036Y0246135D02*
X0264522Y0246135D01*
X0265382Y0247134D02*
X0268038Y0247134D01*
X0267039Y0248132D02*
X0265796Y0248132D01*
X0265992Y0249131D02*
X0266041Y0249131D01*
X0268702Y0252126D02*
X0282496Y0252126D01*
X0282496Y0251128D02*
X0269701Y0251128D01*
X0270699Y0250129D02*
X0282496Y0250129D01*
X0282496Y0249131D02*
X0271698Y0249131D01*
X0272696Y0248132D02*
X0282496Y0248132D01*
X0282496Y0247134D02*
X0273695Y0247134D01*
X0274693Y0246135D02*
X0282496Y0246135D01*
X0282496Y0245137D02*
X0275692Y0245137D01*
X0276690Y0244138D02*
X0282496Y0244138D01*
X0282496Y0243140D02*
X0277689Y0243140D01*
X0278687Y0242141D02*
X0282496Y0242141D01*
X0282496Y0241143D02*
X0279686Y0241143D01*
X0280684Y0240144D02*
X0282496Y0240144D01*
X0282496Y0239146D02*
X0281683Y0239146D01*
X0278023Y0237149D02*
X0264553Y0237149D01*
X0264408Y0238147D02*
X0277024Y0238147D01*
X0276026Y0239146D02*
X0265265Y0239146D01*
X0265740Y0240144D02*
X0275027Y0240144D01*
X0274029Y0241143D02*
X0265969Y0241143D01*
X0265973Y0242141D02*
X0273030Y0242141D01*
X0278500Y0236150D02*
X0265395Y0236150D01*
X0265808Y0235152D02*
X0278500Y0235152D01*
X0278500Y0234153D02*
X0265992Y0234153D01*
X0265992Y0233155D02*
X0278500Y0233155D01*
X0278500Y0232156D02*
X0265701Y0232156D01*
X0265288Y0231158D02*
X0278500Y0231158D01*
X0278500Y0230159D02*
X0264294Y0230159D01*
X0258391Y0230159D02*
X0244579Y0230159D01*
X0245497Y0231158D02*
X0257397Y0231158D01*
X0256984Y0232156D02*
X0246018Y0232156D01*
X0246265Y0233155D02*
X0256693Y0233155D01*
X0256693Y0234153D02*
X0246306Y0234153D01*
X0246102Y0235152D02*
X0256877Y0235152D01*
X0257290Y0236150D02*
X0245670Y0236150D01*
X0244868Y0237149D02*
X0258132Y0237149D01*
X0258277Y0238147D02*
X0243274Y0238147D01*
X0238447Y0237149D02*
X0236994Y0237149D01*
X0241657Y0233783D02*
X0241500Y0233500D01*
X0241500Y0223500D01*
X0241800Y0222800D02*
X0241800Y0216800D01*
X0245400Y0216800D01*
X0245400Y0219284D01*
X0245250Y0220038D01*
X0244956Y0220747D01*
X0244529Y0221386D01*
X0243986Y0221929D01*
X0243347Y0222356D01*
X0242638Y0222650D01*
X0241884Y0222800D01*
X0241800Y0222800D01*
X0241200Y0222800D02*
X0241116Y0222800D01*
X0240362Y0222650D01*
X0239653Y0222356D01*
X0239014Y0221929D01*
X0238471Y0221386D01*
X0238044Y0220747D01*
X0237750Y0220038D01*
X0237600Y0219284D01*
X0237600Y0216800D01*
X0241200Y0216800D01*
X0241200Y0222800D01*
X0241200Y0222171D02*
X0241800Y0222171D01*
X0241800Y0221172D02*
X0241200Y0221172D01*
X0241200Y0220174D02*
X0241800Y0220174D01*
X0241800Y0219175D02*
X0241200Y0219175D01*
X0241200Y0218177D02*
X0241800Y0218177D01*
X0241800Y0217178D02*
X0241200Y0217178D01*
X0241200Y0216800D02*
X0241800Y0216800D01*
X0241800Y0216200D01*
X0245400Y0216200D01*
X0245400Y0213716D01*
X0245250Y0212962D01*
X0244956Y0212253D01*
X0244529Y0211614D01*
X0243986Y0211071D01*
X0243347Y0210644D01*
X0242638Y0210350D01*
X0241884Y0210200D01*
X0241800Y0210200D01*
X0241800Y0216200D01*
X0241200Y0216200D01*
X0241200Y0210200D01*
X0241116Y0210200D01*
X0240362Y0210350D01*
X0239653Y0210644D01*
X0239014Y0211071D01*
X0238471Y0211614D01*
X0238044Y0212253D01*
X0237750Y0212962D01*
X0237600Y0213716D01*
X0237600Y0216200D01*
X0241200Y0216200D01*
X0241200Y0216800D01*
X0241200Y0216180D02*
X0241800Y0216180D01*
X0241800Y0215181D02*
X0241200Y0215181D01*
X0241200Y0214183D02*
X0241800Y0214183D01*
X0241800Y0213184D02*
X0241200Y0213184D01*
X0241200Y0212186D02*
X0241800Y0212186D01*
X0241800Y0211187D02*
X0241200Y0211187D01*
X0238897Y0211187D02*
X0234103Y0211187D01*
X0233709Y0210794D02*
X0234806Y0211891D01*
X0235400Y0213324D01*
X0235400Y0219676D01*
X0234806Y0221109D01*
X0233709Y0222206D01*
X0232276Y0222800D01*
X0230724Y0222800D01*
X0229291Y0222206D01*
X0228194Y0221109D01*
X0227600Y0219676D01*
X0227600Y0213324D01*
X0228194Y0211891D01*
X0229291Y0210794D01*
X0230724Y0210200D01*
X0232276Y0210200D01*
X0233709Y0210794D01*
X0234928Y0212186D02*
X0238088Y0212186D01*
X0237706Y0213184D02*
X0235342Y0213184D01*
X0235400Y0214183D02*
X0237600Y0214183D01*
X0237600Y0215181D02*
X0235400Y0215181D01*
X0235400Y0216180D02*
X0237600Y0216180D01*
X0237600Y0217178D02*
X0235400Y0217178D01*
X0235400Y0218177D02*
X0237600Y0218177D01*
X0237600Y0219175D02*
X0235400Y0219175D01*
X0235194Y0220174D02*
X0237806Y0220174D01*
X0238328Y0221172D02*
X0234743Y0221172D01*
X0233744Y0222171D02*
X0239376Y0222171D01*
X0243624Y0222171D02*
X0249256Y0222171D01*
X0248257Y0221172D02*
X0244672Y0221172D01*
X0245194Y0220174D02*
X0247806Y0220174D01*
X0247600Y0219175D02*
X0245400Y0219175D01*
X0245400Y0218177D02*
X0247600Y0218177D01*
X0247600Y0217178D02*
X0245400Y0217178D01*
X0245400Y0216180D02*
X0247600Y0216180D01*
X0247600Y0215181D02*
X0245400Y0215181D01*
X0245400Y0214183D02*
X0247600Y0214183D01*
X0247658Y0213184D02*
X0245294Y0213184D01*
X0244912Y0212186D02*
X0248072Y0212186D01*
X0248897Y0211187D02*
X0244103Y0211187D01*
X0251889Y0201202D02*
X0223500Y0201202D01*
X0223500Y0200204D02*
X0251819Y0200204D01*
X0252134Y0199205D02*
X0223500Y0199205D01*
X0223500Y0198207D02*
X0253030Y0198207D01*
X0254417Y0197208D02*
X0223500Y0197208D01*
X0223500Y0196210D02*
X0253892Y0196210D01*
X0253819Y0195211D02*
X0223500Y0195211D01*
X0223500Y0194213D02*
X0254131Y0194213D01*
X0255012Y0193214D02*
X0223500Y0193214D01*
X0223686Y0192216D02*
X0229442Y0192216D01*
X0228358Y0191217D02*
X0224698Y0191217D01*
X0225175Y0190219D02*
X0227825Y0190219D01*
X0227600Y0189220D02*
X0225400Y0189220D01*
X0225400Y0188222D02*
X0227600Y0188222D01*
X0227600Y0187223D02*
X0225400Y0187223D01*
X0225400Y0186225D02*
X0231200Y0186225D01*
X0231200Y0186200D02*
X0231800Y0186200D01*
X0231800Y0180200D01*
X0231884Y0180200D01*
X0232638Y0180350D01*
X0233008Y0180503D01*
X0232007Y0179502D01*
X0231500Y0178278D01*
X0230993Y0179502D01*
X0229992Y0180503D01*
X0230362Y0180350D01*
X0231116Y0180200D01*
X0231200Y0180200D01*
X0231200Y0186200D01*
X0231500Y0186500D02*
X0233500Y0186500D01*
X0240500Y0193500D01*
X0241500Y0193500D01*
X0239314Y0192216D02*
X0233558Y0192216D01*
X0233347Y0192356D02*
X0232638Y0192650D01*
X0231884Y0192800D01*
X0231800Y0192800D01*
X0231800Y0186800D01*
X0235400Y0186800D01*
X0235400Y0189284D01*
X0235250Y0190038D01*
X0234956Y0190747D01*
X0234529Y0191386D01*
X0233986Y0191929D01*
X0233347Y0192356D01*
X0231800Y0192216D02*
X0231200Y0192216D01*
X0231200Y0191217D02*
X0231800Y0191217D01*
X0231800Y0190219D02*
X0231200Y0190219D01*
X0231200Y0189220D02*
X0231800Y0189220D01*
X0231800Y0188222D02*
X0231200Y0188222D01*
X0231200Y0187223D02*
X0231800Y0187223D01*
X0231800Y0186225D02*
X0237600Y0186225D01*
X0237600Y0187223D02*
X0235400Y0187223D01*
X0235400Y0188222D02*
X0237600Y0188222D01*
X0237600Y0189220D02*
X0235400Y0189220D01*
X0235175Y0190219D02*
X0237825Y0190219D01*
X0238302Y0191217D02*
X0234642Y0191217D01*
X0235400Y0185226D02*
X0237600Y0185226D01*
X0237600Y0184228D02*
X0235400Y0184228D01*
X0235303Y0183229D02*
X0237639Y0183229D01*
X0238053Y0182231D02*
X0234941Y0182231D01*
X0232738Y0180234D02*
X0232053Y0180234D01*
X0231800Y0180234D02*
X0231200Y0180234D01*
X0230947Y0180234D02*
X0230262Y0180234D01*
X0231104Y0179235D02*
X0231896Y0179235D01*
X0231800Y0181232D02*
X0231200Y0181232D01*
X0231200Y0182231D02*
X0231800Y0182231D01*
X0231800Y0183229D02*
X0231200Y0183229D01*
X0231200Y0184228D02*
X0231800Y0184228D01*
X0231800Y0185226D02*
X0231200Y0185226D01*
X0227600Y0185226D02*
X0225400Y0185226D01*
X0225400Y0184228D02*
X0227600Y0184228D01*
X0227697Y0183229D02*
X0225361Y0183229D01*
X0224947Y0182231D02*
X0228059Y0182231D01*
X0221500Y0186500D02*
X0221500Y0208500D01*
X0223500Y0207193D02*
X0278500Y0207193D01*
X0278500Y0206195D02*
X0223500Y0206195D01*
X0223500Y0205196D02*
X0278500Y0205196D01*
X0278500Y0204198D02*
X0223500Y0204198D01*
X0224020Y0208192D02*
X0278500Y0208192D01*
X0278500Y0209190D02*
X0225019Y0209190D01*
X0226017Y0210189D02*
X0278500Y0210189D01*
X0278500Y0211187D02*
X0274103Y0211187D01*
X0274928Y0212186D02*
X0278500Y0212186D01*
X0278500Y0213184D02*
X0275342Y0213184D01*
X0275400Y0214183D02*
X0278500Y0214183D01*
X0278500Y0215181D02*
X0275400Y0215181D01*
X0275400Y0216180D02*
X0278500Y0216180D01*
X0278500Y0217178D02*
X0275400Y0217178D01*
X0275400Y0218177D02*
X0278500Y0218177D01*
X0278500Y0219175D02*
X0275400Y0219175D01*
X0275194Y0220174D02*
X0278500Y0220174D01*
X0278500Y0221172D02*
X0274743Y0221172D01*
X0267600Y0217178D02*
X0265400Y0217178D01*
X0265400Y0216180D02*
X0267600Y0216180D01*
X0267600Y0215181D02*
X0265400Y0215181D01*
X0265400Y0214183D02*
X0267600Y0214183D01*
X0267658Y0213184D02*
X0265294Y0213184D01*
X0264912Y0212186D02*
X0268072Y0212186D01*
X0268897Y0211187D02*
X0264103Y0211187D01*
X0267965Y0198207D02*
X0255970Y0198207D01*
X0256500Y0195500D02*
X0270500Y0195500D01*
X0275500Y0190500D01*
X0271200Y0186225D02*
X0265400Y0186225D01*
X0265400Y0187223D02*
X0267600Y0187223D01*
X0267600Y0188222D02*
X0265400Y0188222D01*
X0265400Y0189220D02*
X0267600Y0189220D01*
X0267825Y0190219D02*
X0265175Y0190219D01*
X0264698Y0191217D02*
X0268358Y0191217D01*
X0269442Y0192216D02*
X0263686Y0192216D01*
X0259314Y0192216D02*
X0253558Y0192216D01*
X0253347Y0192356D02*
X0252638Y0192650D01*
X0251884Y0192800D01*
X0251800Y0192800D01*
X0251800Y0186800D01*
X0255400Y0186800D01*
X0255400Y0189284D01*
X0255250Y0190038D01*
X0254956Y0190747D01*
X0254529Y0191386D01*
X0253986Y0191929D01*
X0253347Y0192356D01*
X0251800Y0192216D02*
X0251200Y0192216D01*
X0251200Y0191217D02*
X0251800Y0191217D01*
X0251800Y0190219D02*
X0251200Y0190219D01*
X0251200Y0189220D02*
X0251800Y0189220D01*
X0251800Y0188222D02*
X0251200Y0188222D01*
X0251200Y0187223D02*
X0251800Y0187223D01*
X0251800Y0186225D02*
X0257600Y0186225D01*
X0257600Y0187223D02*
X0255400Y0187223D01*
X0255400Y0188222D02*
X0257600Y0188222D01*
X0257600Y0189220D02*
X0255400Y0189220D01*
X0255175Y0190219D02*
X0257825Y0190219D01*
X0258302Y0191217D02*
X0254642Y0191217D01*
X0249442Y0192216D02*
X0243686Y0192216D01*
X0244698Y0191217D02*
X0248358Y0191217D01*
X0247825Y0190219D02*
X0245175Y0190219D01*
X0245400Y0189220D02*
X0247600Y0189220D01*
X0247600Y0188222D02*
X0245400Y0188222D01*
X0245400Y0187223D02*
X0247600Y0187223D01*
X0247600Y0185226D02*
X0245400Y0185226D01*
X0245400Y0184228D02*
X0247600Y0184228D01*
X0247697Y0183229D02*
X0245361Y0183229D01*
X0244947Y0182231D02*
X0248059Y0182231D01*
X0249992Y0180503D02*
X0250362Y0180350D01*
X0251116Y0180200D01*
X0251200Y0180200D01*
X0251200Y0186200D01*
X0251800Y0186200D01*
X0251800Y0180200D01*
X0251884Y0180200D01*
X0252638Y0180350D01*
X0253008Y0180503D01*
X0252007Y0179502D01*
X0251500Y0178278D01*
X0250993Y0179502D01*
X0249992Y0180503D01*
X0250262Y0180234D02*
X0250947Y0180234D01*
X0251200Y0180234D02*
X0251800Y0180234D01*
X0252053Y0180234D02*
X0252738Y0180234D01*
X0251896Y0179235D02*
X0251104Y0179235D01*
X0251200Y0181232D02*
X0251800Y0181232D01*
X0251800Y0182231D02*
X0251200Y0182231D01*
X0251200Y0183229D02*
X0251800Y0183229D01*
X0251800Y0184228D02*
X0251200Y0184228D01*
X0251200Y0185226D02*
X0251800Y0185226D01*
X0251200Y0186225D02*
X0245400Y0186225D01*
X0254941Y0182231D02*
X0258053Y0182231D01*
X0257639Y0183229D02*
X0255303Y0183229D01*
X0255400Y0184228D02*
X0257600Y0184228D01*
X0257600Y0185226D02*
X0255400Y0185226D01*
X0257988Y0193214D02*
X0269957Y0193214D01*
X0271200Y0185226D02*
X0271800Y0185226D01*
X0271800Y0184228D02*
X0271200Y0184228D01*
X0271200Y0183229D02*
X0271800Y0183229D01*
X0271800Y0182231D02*
X0271200Y0182231D01*
X0271200Y0181232D02*
X0271800Y0181232D01*
X0271800Y0180234D02*
X0271200Y0180234D01*
X0270947Y0180234D02*
X0270262Y0180234D01*
X0271104Y0179235D02*
X0273500Y0179235D01*
X0273500Y0178237D02*
X0271517Y0178237D01*
X0271800Y0177238D02*
X0273500Y0177238D01*
X0273500Y0176239D02*
X0271800Y0176239D01*
X0271715Y0175241D02*
X0273500Y0175241D01*
X0273500Y0174242D02*
X0271302Y0174242D01*
X0270739Y0173244D02*
X0273500Y0173244D01*
X0273500Y0172245D02*
X0269741Y0172245D01*
X0267668Y0171247D02*
X0273500Y0171247D01*
X0265332Y0171247D02*
X0257668Y0171247D01*
X0259741Y0172245D02*
X0263259Y0172245D01*
X0262261Y0173244D02*
X0260739Y0173244D01*
X0261302Y0174242D02*
X0261698Y0174242D01*
X0255332Y0171247D02*
X0247668Y0171247D01*
X0249741Y0172245D02*
X0253259Y0172245D01*
X0252261Y0173244D02*
X0250739Y0173244D01*
X0251302Y0174242D02*
X0251698Y0174242D01*
X0245332Y0171247D02*
X0237668Y0171247D01*
X0239741Y0172245D02*
X0243259Y0172245D01*
X0242261Y0173244D02*
X0240739Y0173244D01*
X0241302Y0174242D02*
X0241698Y0174242D01*
X0235332Y0171247D02*
X0227668Y0171247D01*
X0229741Y0172245D02*
X0233259Y0172245D01*
X0232261Y0173244D02*
X0230739Y0173244D01*
X0231302Y0174242D02*
X0231698Y0174242D01*
X0225332Y0171247D02*
X0217668Y0171247D01*
X0219741Y0172245D02*
X0223259Y0172245D01*
X0222261Y0173244D02*
X0220739Y0173244D01*
X0221302Y0174242D02*
X0221698Y0174242D01*
X0215332Y0171247D02*
X0207668Y0171247D01*
X0209741Y0172245D02*
X0213259Y0172245D01*
X0212261Y0173244D02*
X0210739Y0173244D01*
X0211302Y0174242D02*
X0211698Y0174242D01*
X0214947Y0182231D02*
X0218053Y0182231D01*
X0217639Y0183229D02*
X0215361Y0183229D01*
X0215400Y0184228D02*
X0217600Y0184228D01*
X0217600Y0185226D02*
X0215400Y0185226D01*
X0215400Y0186225D02*
X0217600Y0186225D01*
X0217600Y0187223D02*
X0215400Y0187223D01*
X0215400Y0188222D02*
X0217600Y0188222D01*
X0217600Y0189220D02*
X0215400Y0189220D01*
X0215175Y0190219D02*
X0217825Y0190219D01*
X0218302Y0191217D02*
X0214698Y0191217D01*
X0213686Y0192216D02*
X0219314Y0192216D01*
X0227016Y0211187D02*
X0228897Y0211187D01*
X0228072Y0212186D02*
X0227500Y0212186D01*
X0227500Y0213184D02*
X0227658Y0213184D01*
X0227600Y0214183D02*
X0227500Y0214183D01*
X0227500Y0215181D02*
X0227600Y0215181D01*
X0227600Y0216180D02*
X0227500Y0216180D01*
X0227500Y0217178D02*
X0227600Y0217178D01*
X0227600Y0218177D02*
X0227500Y0218177D01*
X0227500Y0219175D02*
X0227600Y0219175D01*
X0227500Y0220174D02*
X0227806Y0220174D01*
X0227500Y0221172D02*
X0228257Y0221172D01*
X0227500Y0222171D02*
X0229256Y0222171D01*
X0221800Y0222171D02*
X0221200Y0222171D01*
X0221200Y0221172D02*
X0221800Y0221172D01*
X0221800Y0220174D02*
X0221200Y0220174D01*
X0221200Y0219175D02*
X0221800Y0219175D01*
X0221800Y0218177D02*
X0221200Y0218177D01*
X0221200Y0217178D02*
X0221800Y0217178D01*
X0236735Y0230159D02*
X0238736Y0230159D01*
X0237818Y0231158D02*
X0237728Y0231158D01*
X0241468Y0231158D02*
X0241846Y0231158D01*
X0241846Y0232156D02*
X0241468Y0232156D01*
X0241468Y0233155D02*
X0241846Y0233155D01*
X0241846Y0230159D02*
X0241468Y0230159D01*
X0225683Y0239146D02*
X0257420Y0239146D01*
X0256945Y0240144D02*
X0224684Y0240144D01*
X0223686Y0241143D02*
X0256716Y0241143D01*
X0256712Y0242141D02*
X0222687Y0242141D01*
X0221689Y0243140D02*
X0256935Y0243140D01*
X0257398Y0244138D02*
X0220690Y0244138D01*
X0219692Y0245137D02*
X0258246Y0245137D01*
X0258163Y0246135D02*
X0218693Y0246135D01*
X0217695Y0247134D02*
X0257303Y0247134D01*
X0256889Y0248132D02*
X0216696Y0248132D01*
X0215698Y0249131D02*
X0256693Y0249131D01*
X0256693Y0250129D02*
X0214699Y0250129D01*
X0213701Y0251128D02*
X0256971Y0251128D01*
X0257385Y0252126D02*
X0212702Y0252126D01*
X0211704Y0253125D02*
X0258360Y0253125D01*
X0263710Y0257119D02*
X0282496Y0257119D01*
X0282496Y0256120D02*
X0264708Y0256120D01*
X0265707Y0255122D02*
X0282496Y0255122D01*
X0282496Y0254123D02*
X0266705Y0254123D01*
X0267704Y0253125D02*
X0282496Y0253125D01*
X0269668Y0265107D02*
X0178213Y0265107D01*
X0179695Y0265721D02*
X0182161Y0268187D01*
X0183496Y0271410D01*
X0183496Y0274898D01*
X0182161Y0278120D01*
X0179695Y0280586D01*
X0176472Y0281921D01*
X0172984Y0281921D01*
X0169762Y0280586D01*
X0167295Y0278120D01*
X0165961Y0274898D01*
X0165961Y0271410D01*
X0167295Y0268187D01*
X0169762Y0265721D01*
X0172984Y0264386D01*
X0176472Y0264386D01*
X0179695Y0265721D01*
X0180080Y0266105D02*
X0267802Y0266105D01*
X0266804Y0267104D02*
X0181078Y0267104D01*
X0182077Y0268103D02*
X0265805Y0268103D01*
X0265342Y0269101D02*
X0182540Y0269101D01*
X0182953Y0270100D02*
X0264928Y0270100D01*
X0264515Y0271098D02*
X0183367Y0271098D01*
X0183496Y0272097D02*
X0264386Y0272097D01*
X0264386Y0273095D02*
X0183496Y0273095D01*
X0183496Y0274094D02*
X0264386Y0274094D01*
X0264466Y0275092D02*
X0183415Y0275092D01*
X0183002Y0276091D02*
X0264880Y0276091D01*
X0265294Y0277089D02*
X0182588Y0277089D01*
X0182175Y0278088D02*
X0265707Y0278088D01*
X0266687Y0279086D02*
X0181195Y0279086D01*
X0180197Y0280085D02*
X0267685Y0280085D01*
X0269386Y0281083D02*
X0178496Y0281083D01*
X0170961Y0281083D02*
X0017078Y0281083D01*
X0018278Y0280586D02*
X0015055Y0281921D01*
X0011567Y0281921D01*
X0008345Y0280586D01*
X0005878Y0278120D01*
X0004543Y0274898D01*
X0004543Y0271410D01*
X0005878Y0268187D01*
X0008345Y0265721D01*
X0011567Y0264386D01*
X0015055Y0264386D01*
X0018278Y0265721D01*
X0020744Y0268187D01*
X0022079Y0271410D01*
X0022079Y0274898D01*
X0020744Y0278120D01*
X0018278Y0280586D01*
X0018779Y0280085D02*
X0169260Y0280085D01*
X0168262Y0279086D02*
X0019778Y0279086D01*
X0020757Y0278088D02*
X0167282Y0278088D01*
X0166868Y0277089D02*
X0021171Y0277089D01*
X0021585Y0276091D02*
X0166455Y0276091D01*
X0166041Y0275092D02*
X0021998Y0275092D01*
X0022079Y0274094D02*
X0165961Y0274094D01*
X0165961Y0273095D02*
X0022079Y0273095D01*
X0022079Y0272097D02*
X0165961Y0272097D01*
X0166090Y0271098D02*
X0021950Y0271098D01*
X0021536Y0270100D02*
X0166503Y0270100D01*
X0166917Y0269101D02*
X0021123Y0269101D01*
X0020659Y0268103D02*
X0167380Y0268103D01*
X0168378Y0267104D02*
X0019661Y0267104D01*
X0018662Y0266105D02*
X0169377Y0266105D01*
X0171243Y0265107D02*
X0016796Y0265107D01*
X0009826Y0265107D02*
X0003968Y0265107D01*
X0003968Y0266105D02*
X0007960Y0266105D01*
X0006961Y0267104D02*
X0003968Y0267104D01*
X0003968Y0268103D02*
X0005963Y0268103D01*
X0005500Y0269101D02*
X0003968Y0269101D01*
X0003968Y0270100D02*
X0005086Y0270100D01*
X0004672Y0271098D02*
X0003968Y0271098D01*
X0003968Y0272097D02*
X0004543Y0272097D01*
X0004543Y0273095D02*
X0003968Y0273095D01*
X0003968Y0274094D02*
X0004543Y0274094D01*
X0004624Y0275092D02*
X0003968Y0275092D01*
X0003968Y0276091D02*
X0005038Y0276091D01*
X0005451Y0277089D02*
X0003968Y0277089D01*
X0003968Y0278088D02*
X0005865Y0278088D01*
X0006844Y0279086D02*
X0003968Y0279086D01*
X0003968Y0280085D02*
X0007843Y0280085D01*
X0009544Y0281083D02*
X0003968Y0281083D01*
X0121226Y0238147D02*
X0125869Y0238147D01*
X0124274Y0237149D02*
X0122821Y0237149D01*
X0129099Y0238147D02*
X0133743Y0238147D01*
X0132148Y0237149D02*
X0130695Y0237149D01*
X0135358Y0233783D02*
X0135500Y0233500D01*
X0135500Y0203500D01*
X0141500Y0197500D01*
X0141500Y0186500D01*
X0128897Y0211187D02*
X0124103Y0211187D01*
X0124928Y0212186D02*
X0128072Y0212186D01*
X0127658Y0213184D02*
X0125342Y0213184D01*
X0125400Y0214183D02*
X0127600Y0214183D01*
X0127600Y0215181D02*
X0125400Y0215181D01*
X0125400Y0216180D02*
X0127600Y0216180D01*
X0127600Y0217178D02*
X0125400Y0217178D01*
X0125400Y0218177D02*
X0127600Y0218177D01*
X0127600Y0219175D02*
X0125400Y0219175D01*
X0125194Y0220174D02*
X0127806Y0220174D01*
X0128257Y0221172D02*
X0124743Y0221172D01*
X0123744Y0222171D02*
X0129256Y0222171D01*
X0211339Y0114332D02*
X0211661Y0114332D01*
X0212171Y0113333D02*
X0210829Y0113333D01*
X0209830Y0112335D02*
X0213170Y0112335D01*
X0215117Y0111336D02*
X0207883Y0111336D01*
X0210724Y0102800D02*
X0209291Y0102206D01*
X0208194Y0101109D01*
X0207600Y0099676D01*
X0207600Y0093324D01*
X0208194Y0091891D01*
X0209291Y0090794D01*
X0210724Y0090200D01*
X0212276Y0090200D01*
X0213709Y0090794D01*
X0214806Y0091891D01*
X0215400Y0093324D01*
X0215400Y0099676D01*
X0214806Y0101109D01*
X0213709Y0102206D01*
X0212276Y0102800D01*
X0210724Y0102800D01*
X0209637Y0102350D02*
X0203363Y0102350D01*
X0203709Y0102206D02*
X0202276Y0102800D01*
X0200724Y0102800D01*
X0199291Y0102206D01*
X0198194Y0101109D01*
X0197600Y0099676D01*
X0197600Y0093324D01*
X0198194Y0091891D01*
X0199291Y0090794D01*
X0200724Y0090200D01*
X0202276Y0090200D01*
X0203709Y0090794D01*
X0204806Y0091891D01*
X0205400Y0093324D01*
X0205400Y0099676D01*
X0204806Y0101109D01*
X0203709Y0102206D01*
X0204564Y0101351D02*
X0208436Y0101351D01*
X0207880Y0100353D02*
X0205120Y0100353D01*
X0205400Y0099354D02*
X0207600Y0099354D01*
X0207600Y0098356D02*
X0205400Y0098356D01*
X0205400Y0097357D02*
X0207600Y0097357D01*
X0207600Y0096359D02*
X0205400Y0096359D01*
X0205400Y0095360D02*
X0207600Y0095360D01*
X0207600Y0094362D02*
X0205400Y0094362D01*
X0205400Y0093363D02*
X0207600Y0093363D01*
X0207998Y0092365D02*
X0205002Y0092365D01*
X0204281Y0091366D02*
X0208719Y0091366D01*
X0210320Y0090368D02*
X0202680Y0090368D01*
X0200320Y0090368D02*
X0192680Y0090368D01*
X0194281Y0091366D02*
X0198719Y0091366D01*
X0197998Y0092365D02*
X0195002Y0092365D01*
X0195400Y0093363D02*
X0197600Y0093363D01*
X0197600Y0094362D02*
X0195400Y0094362D01*
X0195400Y0095360D02*
X0197600Y0095360D01*
X0197600Y0096359D02*
X0195400Y0096359D01*
X0195400Y0097357D02*
X0197600Y0097357D01*
X0197600Y0098356D02*
X0195400Y0098356D01*
X0195400Y0099354D02*
X0197600Y0099354D01*
X0197880Y0100353D02*
X0195120Y0100353D01*
X0194564Y0101351D02*
X0198436Y0101351D01*
X0199637Y0102350D02*
X0193363Y0102350D01*
X0187600Y0095360D02*
X0185400Y0095360D01*
X0185400Y0094362D02*
X0187600Y0094362D01*
X0187600Y0093363D02*
X0185400Y0093363D01*
X0185002Y0092365D02*
X0187998Y0092365D01*
X0188719Y0091366D02*
X0184281Y0091366D01*
X0182680Y0090368D02*
X0190320Y0090368D01*
X0186455Y0086373D02*
X0231200Y0086373D01*
X0231200Y0086200D02*
X0227600Y0086200D01*
X0227600Y0084885D01*
X0229885Y0082600D01*
X0231200Y0082600D01*
X0231200Y0086200D01*
X0231200Y0086800D01*
X0231200Y0090400D01*
X0229885Y0090400D01*
X0227600Y0088115D01*
X0227600Y0086800D01*
X0231200Y0086800D01*
X0231800Y0086800D01*
X0231800Y0090400D01*
X0233115Y0090400D01*
X0235400Y0088115D01*
X0235400Y0086800D01*
X0231800Y0086800D01*
X0231800Y0086200D01*
X0235400Y0086200D01*
X0235400Y0084885D01*
X0233115Y0082600D01*
X0231800Y0082600D01*
X0231800Y0086200D01*
X0231200Y0086200D01*
X0231800Y0086373D02*
X0282496Y0086373D01*
X0282496Y0085375D02*
X0235400Y0085375D01*
X0234892Y0084376D02*
X0282496Y0084376D01*
X0282496Y0083378D02*
X0233893Y0083378D01*
X0231800Y0083378D02*
X0231200Y0083378D01*
X0231200Y0084376D02*
X0231800Y0084376D01*
X0231800Y0085375D02*
X0231200Y0085375D01*
X0231200Y0087372D02*
X0231800Y0087372D01*
X0231800Y0088370D02*
X0231200Y0088370D01*
X0231200Y0089369D02*
X0231800Y0089369D01*
X0231800Y0090368D02*
X0231200Y0090368D01*
X0229852Y0090368D02*
X0212680Y0090368D01*
X0214281Y0091366D02*
X0252806Y0091366D01*
X0253804Y0090368D02*
X0233148Y0090368D01*
X0234146Y0089369D02*
X0254803Y0089369D01*
X0251807Y0092365D02*
X0215002Y0092365D01*
X0215400Y0093363D02*
X0244122Y0093363D01*
X0243164Y0094362D02*
X0215400Y0094362D01*
X0215400Y0095360D02*
X0242751Y0095360D01*
X0242600Y0096359D02*
X0215400Y0096359D01*
X0215400Y0097357D02*
X0242600Y0097357D01*
X0242600Y0098356D02*
X0215400Y0098356D01*
X0215400Y0099354D02*
X0242600Y0099354D01*
X0242600Y0100353D02*
X0215120Y0100353D01*
X0214564Y0101351D02*
X0242600Y0101351D01*
X0242713Y0102350D02*
X0213363Y0102350D01*
X0217883Y0111336D02*
X0225117Y0111336D01*
X0223170Y0112335D02*
X0219830Y0112335D01*
X0220829Y0113333D02*
X0222171Y0113333D01*
X0221661Y0114332D02*
X0221339Y0114332D01*
X0228854Y0089369D02*
X0183459Y0089369D01*
X0184458Y0088370D02*
X0227855Y0088370D01*
X0227600Y0087372D02*
X0185456Y0087372D01*
X0187453Y0085375D02*
X0227600Y0085375D01*
X0228108Y0084376D02*
X0188452Y0084376D01*
X0189450Y0083378D02*
X0229107Y0083378D01*
X0229867Y0080382D02*
X0192446Y0080382D01*
X0193445Y0079384D02*
X0228868Y0079384D01*
X0233133Y0080382D02*
X0282496Y0080382D01*
X0282496Y0079384D02*
X0234132Y0079384D01*
X0235130Y0078385D02*
X0282496Y0078385D01*
X0282496Y0077387D02*
X0235400Y0077387D01*
X0235400Y0076388D02*
X0282496Y0076388D01*
X0282496Y0075390D02*
X0235400Y0075390D01*
X0234907Y0074391D02*
X0282496Y0074391D01*
X0282496Y0073393D02*
X0233908Y0073393D01*
X0235400Y0087372D02*
X0282496Y0087372D01*
X0282496Y0088370D02*
X0235145Y0088370D01*
X0248878Y0093363D02*
X0250809Y0093363D01*
X0266500Y0096500D02*
X0266500Y0108500D01*
X0272500Y0114500D01*
X0272500Y0118500D01*
X0268500Y0122500D01*
X0282191Y0093363D02*
X0282496Y0093363D01*
X0282496Y0092365D02*
X0281193Y0092365D01*
X0280194Y0091366D02*
X0282496Y0091366D01*
X0282496Y0090368D02*
X0279196Y0090368D01*
X0278197Y0089369D02*
X0282496Y0089369D01*
X0282496Y0082379D02*
X0190449Y0082379D01*
X0191447Y0081381D02*
X0282496Y0081381D01*
X0253883Y0069399D02*
X0249117Y0069399D01*
X0249934Y0068400D02*
X0253066Y0068400D01*
X0252652Y0067402D02*
X0250348Y0067402D01*
X0250400Y0066403D02*
X0252600Y0066403D01*
X0252600Y0065405D02*
X0250400Y0065405D01*
X0250400Y0064406D02*
X0252600Y0064406D01*
X0252600Y0063408D02*
X0250400Y0063408D01*
X0250400Y0062409D02*
X0252600Y0062409D01*
X0252600Y0061411D02*
X0250400Y0061411D01*
X0250188Y0060412D02*
X0252812Y0060412D01*
X0253271Y0059414D02*
X0249729Y0059414D01*
X0248731Y0058415D02*
X0254269Y0058415D01*
X0244094Y0054421D02*
X0264500Y0054421D01*
X0239821Y0046433D02*
X0239395Y0046433D01*
X0234050Y0024466D02*
X0282496Y0024466D01*
X0282496Y0023467D02*
X0235048Y0023467D01*
X0187500Y0068500D02*
X0161500Y0094500D01*
X0161500Y0096500D01*
X0165400Y0096359D02*
X0167600Y0096359D01*
X0167600Y0097357D02*
X0165400Y0097357D01*
X0165400Y0098356D02*
X0166816Y0098356D01*
X0165817Y0099354D02*
X0165400Y0099354D01*
X0165400Y0095360D02*
X0167600Y0095360D01*
X0167600Y0094362D02*
X0165400Y0094362D01*
X0165465Y0093363D02*
X0167600Y0093363D01*
X0167998Y0092365D02*
X0166464Y0092365D01*
X0167462Y0091366D02*
X0168719Y0091366D01*
X0168461Y0090368D02*
X0170320Y0090368D01*
X0169459Y0089369D02*
X0177803Y0089369D01*
X0178801Y0088370D02*
X0170458Y0088370D01*
X0171456Y0087372D02*
X0179800Y0087372D01*
X0180798Y0086373D02*
X0172455Y0086373D01*
X0173453Y0085375D02*
X0181797Y0085375D01*
X0182795Y0084376D02*
X0174452Y0084376D01*
X0175450Y0083378D02*
X0183794Y0083378D01*
X0184792Y0082379D02*
X0176449Y0082379D01*
X0177448Y0081381D02*
X0185791Y0081381D01*
X0186789Y0080382D02*
X0178446Y0080382D01*
X0179445Y0079384D02*
X0187788Y0079384D01*
X0188786Y0078385D02*
X0180443Y0078385D01*
X0181442Y0077387D02*
X0189785Y0077387D01*
X0190783Y0076388D02*
X0182440Y0076388D01*
X0183439Y0075390D02*
X0191782Y0075390D01*
X0189745Y0072394D02*
X0186434Y0072394D01*
X0187433Y0071396D02*
X0188480Y0071396D01*
X0171500Y0066500D02*
X0169500Y0066500D01*
X0133500Y0030500D01*
X0172680Y0090368D02*
X0176804Y0090368D01*
X0175806Y0091366D02*
X0174281Y0091366D01*
X0177468Y0095360D02*
X0177600Y0095360D01*
X0177600Y0096359D02*
X0176470Y0096359D01*
X0175471Y0097357D02*
X0177600Y0097357D01*
X0177600Y0098356D02*
X0175400Y0098356D01*
X0175400Y0099354D02*
X0177600Y0099354D01*
X0177880Y0100353D02*
X0175120Y0100353D01*
X0174564Y0101351D02*
X0178436Y0101351D01*
X0179521Y0102350D02*
X0173363Y0102350D01*
X0169637Y0102350D02*
X0168479Y0102350D01*
X0167480Y0103348D02*
X0180520Y0103348D01*
X0181518Y0104347D02*
X0166482Y0104347D01*
X0165483Y0105345D02*
X0182517Y0105345D01*
X0264947Y0182231D02*
X0268059Y0182231D01*
X0267697Y0183229D02*
X0265361Y0183229D01*
X0265400Y0184228D02*
X0267600Y0184228D01*
X0267600Y0185226D02*
X0265400Y0185226D01*
X0272053Y0180234D02*
X0273500Y0180234D01*
X0051180Y0094362D02*
X0039467Y0094362D01*
X0040465Y0093363D02*
X0049074Y0093363D01*
X0048075Y0092365D02*
X0041464Y0092365D01*
X0042462Y0091366D02*
X0047077Y0091366D01*
X0046515Y0090368D02*
X0043461Y0090368D01*
X0044459Y0089369D02*
X0046101Y0089369D01*
X0045687Y0088370D02*
X0045458Y0088370D01*
X0017663Y0104347D02*
X0003968Y0104347D01*
X0003968Y0105345D02*
X0016664Y0105345D01*
X0015666Y0106344D02*
X0003968Y0106344D01*
X0003968Y0107342D02*
X0014667Y0107342D01*
X0013669Y0108341D02*
X0003968Y0108341D01*
X0003968Y0109339D02*
X0013386Y0109339D01*
X0013386Y0110338D02*
X0003968Y0110338D01*
X0003968Y0111336D02*
X0013386Y0111336D01*
X0021849Y0120323D02*
X0003968Y0120323D01*
X0003968Y0121321D02*
X0020850Y0121321D01*
X0019852Y0122320D02*
X0003968Y0122320D01*
X0003968Y0123318D02*
X0018853Y0123318D01*
X0017855Y0124317D02*
X0003968Y0124317D01*
X0003968Y0125315D02*
X0016856Y0125315D01*
X0015858Y0126314D02*
X0003968Y0126314D01*
X0003968Y0127312D02*
X0014859Y0127312D01*
X0014500Y0128311D02*
X0003968Y0128311D01*
X0003968Y0129309D02*
X0014500Y0129309D01*
X0014500Y0130308D02*
X0003968Y0130308D01*
X0003968Y0131306D02*
X0014500Y0131306D01*
X0014500Y0132305D02*
X0003968Y0132305D01*
X0003968Y0133303D02*
X0014500Y0133303D01*
X0014500Y0134302D02*
X0003968Y0134302D01*
X0003968Y0135301D02*
X0014500Y0135301D01*
X0014500Y0136299D02*
X0003968Y0136299D01*
X0003968Y0137298D02*
X0014500Y0137298D01*
X0014500Y0138296D02*
X0003968Y0138296D01*
X0003968Y0139295D02*
X0014500Y0139295D01*
X0014500Y0140293D02*
X0003968Y0140293D01*
X0003968Y0141292D02*
X0014500Y0141292D01*
X0014500Y0142290D02*
X0003968Y0142290D01*
X0003968Y0143289D02*
X0014500Y0143289D01*
X0014500Y0144287D02*
X0003968Y0144287D01*
X0003968Y0145286D02*
X0014500Y0145286D01*
X0015456Y0146284D02*
X0003968Y0146284D01*
D20*
X0034500Y0114500D03*
X0078500Y0077500D03*
X0087500Y0076500D03*
X0110500Y0073500D03*
X0128500Y0055500D03*
X0112500Y0035500D03*
X0097500Y0030500D03*
X0088500Y0033500D03*
X0115500Y0159500D03*
X0119500Y0202500D03*
X0140500Y0202500D03*
X0144500Y0206500D03*
X0168500Y0203500D03*
X0178500Y0198500D03*
X0254500Y0200500D03*
X0256500Y0195500D03*
D21*
X0086500Y0216500D02*
X0071500Y0216500D01*
X0071500Y0128232D01*
X0056618Y0128232D01*
X0086500Y0216500D02*
X0086500Y0233783D01*
X0088114Y0233783D01*
M02*
