G75*
%MOIN*%
%OFA0B0*%
%FSLAX25Y25*%
%IPPOS*%
%LPD*%
%AMOC8*
5,1,8,0,0,1.08239X$1,22.5*
%
%ADD10OC8,0.04800*%
%ADD11C,0.04800*%
%ADD12C,0.07400*%
%ADD13C,0.06299*%
%ADD14R,0.04724X0.04724*%
%ADD15C,0.04724*%
%ADD16OC8,0.12598*%
%ADD17OC8,0.05400*%
%ADD18C,0.07600*%
%ADD19C,0.01000*%
%ADD20C,0.02362*%
D10*
X0081500Y0111500D03*
X0081500Y0121500D03*
X0086500Y0216500D03*
X0096500Y0216500D03*
X0158626Y0231500D03*
X0158626Y0241500D03*
X0158626Y0251500D03*
X0178626Y0251500D03*
X0178626Y0241500D03*
X0178626Y0231500D03*
X0201500Y0206500D03*
X0201500Y0196500D03*
X0231500Y0086500D03*
X0231500Y0076500D03*
X0201500Y0051500D03*
X0181500Y0051500D03*
X0226500Y0041500D03*
X0226500Y0026500D03*
X0246500Y0026500D03*
X0246500Y0041500D03*
D11*
X0246500Y0061700D02*
X0246500Y0066500D01*
X0256500Y0066500D02*
X0256500Y0061700D01*
X0266500Y0061700D02*
X0266500Y0066500D01*
X0276500Y0066500D02*
X0276500Y0061700D01*
X0276500Y0096500D02*
X0276500Y0101300D01*
X0266500Y0101300D02*
X0266500Y0096500D01*
X0256500Y0096500D02*
X0256500Y0101300D01*
X0246500Y0101300D02*
X0246500Y0096500D01*
X0211500Y0094100D02*
X0211500Y0098900D01*
X0201500Y0098900D02*
X0201500Y0094100D01*
X0191500Y0094100D02*
X0191500Y0098900D01*
X0181500Y0098900D02*
X0181500Y0094100D01*
X0171500Y0094100D02*
X0171500Y0098900D01*
X0161500Y0098900D02*
X0161500Y0094100D01*
X0151500Y0094100D02*
X0151500Y0098900D01*
X0141500Y0098900D02*
X0141500Y0094100D01*
X0131500Y0094100D02*
X0131500Y0098900D01*
X0121500Y0098900D02*
X0121500Y0094100D01*
X0111500Y0094100D02*
X0111500Y0098900D01*
X0101500Y0098900D02*
X0101500Y0094100D01*
X0091500Y0094100D02*
X0091500Y0098900D01*
X0081500Y0098900D02*
X0081500Y0094100D01*
X0081500Y0068900D02*
X0081500Y0064100D01*
X0091500Y0064100D02*
X0091500Y0068900D01*
X0101500Y0068900D02*
X0101500Y0064100D01*
X0111500Y0064100D02*
X0111500Y0068900D01*
X0121500Y0068900D02*
X0121500Y0064100D01*
X0131500Y0064100D02*
X0131500Y0068900D01*
X0141500Y0068900D02*
X0141500Y0064100D01*
X0151500Y0064100D02*
X0151500Y0068900D01*
X0161500Y0068900D02*
X0161500Y0064100D01*
X0171500Y0064100D02*
X0171500Y0068900D01*
X0181500Y0068900D02*
X0181500Y0064100D01*
X0191500Y0064100D02*
X0191500Y0068900D01*
X0201500Y0068900D02*
X0201500Y0064100D01*
X0211500Y0064100D02*
X0211500Y0068900D01*
X0211500Y0184100D02*
X0211500Y0188900D01*
X0221500Y0188900D02*
X0221500Y0184100D01*
X0231500Y0184100D02*
X0231500Y0188900D01*
X0241500Y0188900D02*
X0241500Y0184100D01*
X0251500Y0184100D02*
X0251500Y0188900D01*
X0261500Y0188900D02*
X0261500Y0184100D01*
X0271500Y0184100D02*
X0271500Y0188900D01*
X0271500Y0214100D02*
X0271500Y0218900D01*
X0261500Y0218900D02*
X0261500Y0214100D01*
X0251500Y0214100D02*
X0251500Y0218900D01*
X0241500Y0218900D02*
X0241500Y0214100D01*
X0231500Y0214100D02*
X0231500Y0218900D01*
X0221500Y0218900D02*
X0221500Y0214100D01*
X0211500Y0214100D02*
X0211500Y0218900D01*
X0181500Y0218900D02*
X0181500Y0214100D01*
X0171500Y0214100D02*
X0171500Y0218900D01*
X0161500Y0218900D02*
X0161500Y0214100D01*
X0151500Y0214100D02*
X0151500Y0218900D01*
X0141500Y0218900D02*
X0141500Y0214100D01*
X0131500Y0214100D02*
X0131500Y0218900D01*
X0121500Y0218900D02*
X0121500Y0214100D01*
X0111500Y0214100D02*
X0111500Y0218900D01*
X0111500Y0188900D02*
X0111500Y0184100D01*
X0121500Y0184100D02*
X0121500Y0188900D01*
X0131500Y0188900D02*
X0131500Y0184100D01*
X0141500Y0184100D02*
X0141500Y0188900D01*
X0151500Y0188900D02*
X0151500Y0184100D01*
X0161500Y0184100D02*
X0161500Y0188900D01*
X0171500Y0188900D02*
X0171500Y0184100D01*
X0181500Y0184100D02*
X0181500Y0188900D01*
D12*
X0216500Y0051500D03*
X0246500Y0051500D03*
D13*
X0261343Y0044807D03*
X0261343Y0036933D03*
X0206224Y0035161D03*
X0198350Y0035161D03*
X0190476Y0035161D03*
X0194413Y0233783D03*
X0202287Y0233783D03*
X0210161Y0233783D03*
X0218035Y0233783D03*
X0233783Y0233783D03*
X0241657Y0233783D03*
X0261343Y0233783D03*
X0261343Y0241657D03*
X0261343Y0249531D03*
X0135358Y0233783D03*
X0127484Y0233783D03*
X0119610Y0233783D03*
X0111736Y0233783D03*
X0095988Y0233783D03*
X0088114Y0233783D03*
D14*
X0056618Y0128232D03*
D15*
X0056618Y0138232D03*
X0056618Y0148232D03*
X0056618Y0158232D03*
X0044807Y0153232D03*
X0044807Y0143232D03*
X0044807Y0133232D03*
X0032996Y0128232D03*
X0032996Y0138232D03*
X0032996Y0148232D03*
X0032996Y0158232D03*
X0021185Y0153232D03*
X0021185Y0143232D03*
X0021185Y0133232D03*
D16*
X0021185Y0111854D03*
X0044807Y0111854D03*
X0044807Y0174610D03*
X0021185Y0174610D03*
D17*
X0059020Y0049807D03*
X0069020Y0049807D03*
X0079020Y0049807D03*
X0089020Y0049807D03*
X0099020Y0049807D03*
X0109020Y0049807D03*
X0119020Y0049807D03*
X0129020Y0049807D03*
X0129020Y0039807D03*
X0119020Y0039807D03*
X0109020Y0039807D03*
X0099020Y0039807D03*
X0089020Y0039807D03*
X0079020Y0039807D03*
X0069020Y0039807D03*
X0059020Y0039807D03*
D18*
X0106500Y0116500D03*
X0116500Y0116500D03*
X0126500Y0116500D03*
X0136500Y0116500D03*
X0146500Y0116500D03*
X0156500Y0116500D03*
X0166500Y0116500D03*
X0176500Y0116500D03*
X0186500Y0116500D03*
X0196500Y0116500D03*
X0206500Y0116500D03*
X0216500Y0116500D03*
X0226500Y0116500D03*
X0236500Y0116500D03*
X0246500Y0116500D03*
X0256500Y0116500D03*
X0266500Y0116500D03*
X0266500Y0176500D03*
X0256500Y0176500D03*
X0246500Y0176500D03*
X0236500Y0176500D03*
X0226500Y0176500D03*
X0216500Y0176500D03*
X0206500Y0176500D03*
X0196500Y0176500D03*
X0186500Y0176500D03*
X0176500Y0176500D03*
X0166500Y0176500D03*
X0156500Y0176500D03*
X0146500Y0176500D03*
X0136500Y0176500D03*
X0126500Y0176500D03*
X0116500Y0176500D03*
X0106500Y0176500D03*
D19*
X0003968Y0282496D02*
X0003968Y0003968D01*
X0282496Y0003968D01*
X0282496Y0282496D01*
X0003968Y0282496D01*
X0003968Y0282082D02*
X0282496Y0282082D01*
X0282496Y0281083D02*
X0276921Y0281083D01*
X0278120Y0280586D02*
X0274898Y0281921D01*
X0271410Y0281921D01*
X0268187Y0280586D01*
X0265721Y0278120D01*
X0264386Y0274898D01*
X0264386Y0271410D01*
X0265721Y0268187D01*
X0268187Y0265721D01*
X0271410Y0264386D01*
X0274898Y0264386D01*
X0278120Y0265721D01*
X0280586Y0268187D01*
X0281921Y0271410D01*
X0281921Y0274898D01*
X0280586Y0278120D01*
X0278120Y0280586D01*
X0278622Y0280085D02*
X0282496Y0280085D01*
X0282496Y0279086D02*
X0279620Y0279086D01*
X0280600Y0278088D02*
X0282496Y0278088D01*
X0282496Y0277089D02*
X0281013Y0277089D01*
X0281427Y0276091D02*
X0282496Y0276091D01*
X0282496Y0275092D02*
X0281841Y0275092D01*
X0281921Y0274094D02*
X0282496Y0274094D01*
X0282496Y0273095D02*
X0281921Y0273095D01*
X0281921Y0272097D02*
X0282496Y0272097D01*
X0282496Y0271098D02*
X0281792Y0271098D01*
X0281379Y0270100D02*
X0282496Y0270100D01*
X0282496Y0269101D02*
X0280965Y0269101D01*
X0280502Y0268103D02*
X0282496Y0268103D01*
X0282496Y0267104D02*
X0279503Y0267104D01*
X0278505Y0266105D02*
X0282496Y0266105D01*
X0282496Y0265107D02*
X0276639Y0265107D01*
X0282496Y0264108D02*
X0003968Y0264108D01*
X0003968Y0263110D02*
X0282496Y0263110D01*
X0282496Y0262111D02*
X0003968Y0262111D01*
X0003968Y0261113D02*
X0282496Y0261113D01*
X0282496Y0260114D02*
X0003968Y0260114D01*
X0003968Y0259116D02*
X0282496Y0259116D01*
X0282496Y0258117D02*
X0265711Y0258117D01*
X0265328Y0258500D02*
X0176672Y0258500D01*
X0175500Y0257328D01*
X0168353Y0250181D01*
X0167967Y0250181D01*
X0166981Y0249773D01*
X0166227Y0249019D01*
X0165819Y0248033D01*
X0165819Y0246967D01*
X0166227Y0245981D01*
X0166981Y0245227D01*
X0167967Y0244819D01*
X0169033Y0244819D01*
X0170019Y0245227D01*
X0170773Y0245981D01*
X0171181Y0246967D01*
X0171181Y0247353D01*
X0174726Y0250898D01*
X0174726Y0249885D01*
X0176391Y0248219D01*
X0167672Y0239500D01*
X0162141Y0239500D01*
X0162526Y0239885D01*
X0162526Y0241698D01*
X0165500Y0244672D01*
X0165500Y0253328D01*
X0164328Y0254500D01*
X0161328Y0257500D01*
X0132672Y0257500D01*
X0131500Y0256328D01*
X0113328Y0238157D01*
X0112661Y0238433D01*
X0110811Y0238433D01*
X0109102Y0237725D01*
X0107794Y0236417D01*
X0107087Y0234708D01*
X0107087Y0232859D01*
X0107794Y0231150D01*
X0109102Y0229842D01*
X0110811Y0229134D01*
X0112661Y0229134D01*
X0114370Y0229842D01*
X0115678Y0231150D01*
X0115714Y0231236D01*
X0116064Y0230754D01*
X0116581Y0230237D01*
X0117173Y0229807D01*
X0117825Y0229475D01*
X0118521Y0229248D01*
X0119244Y0229134D01*
X0119421Y0229134D01*
X0119421Y0233594D01*
X0119799Y0233594D01*
X0119799Y0229134D01*
X0119976Y0229134D01*
X0120699Y0229248D01*
X0121395Y0229475D01*
X0122047Y0229807D01*
X0122639Y0230237D01*
X0123157Y0230754D01*
X0123507Y0231236D01*
X0123543Y0231150D01*
X0124850Y0229842D01*
X0125500Y0229573D01*
X0125500Y0211672D01*
X0126672Y0210500D01*
X0144500Y0192672D01*
X0144500Y0191415D01*
X0143709Y0192206D01*
X0142276Y0192800D01*
X0140724Y0192800D01*
X0139291Y0192206D01*
X0138194Y0191109D01*
X0137600Y0189676D01*
X0137600Y0183324D01*
X0138194Y0181891D01*
X0138817Y0181268D01*
X0138534Y0181412D01*
X0137741Y0181669D01*
X0137000Y0181787D01*
X0137000Y0177000D01*
X0136000Y0177000D01*
X0136000Y0181787D01*
X0135259Y0181669D01*
X0134466Y0181412D01*
X0134183Y0181268D01*
X0134806Y0181891D01*
X0135400Y0183324D01*
X0135400Y0189676D01*
X0134806Y0191109D01*
X0133709Y0192206D01*
X0132276Y0192800D01*
X0130724Y0192800D01*
X0129291Y0192206D01*
X0128194Y0191109D01*
X0127600Y0189676D01*
X0127600Y0183324D01*
X0128194Y0181891D01*
X0128801Y0181284D01*
X0127554Y0181800D01*
X0125446Y0181800D01*
X0124199Y0181284D01*
X0124806Y0181891D01*
X0125400Y0183324D01*
X0125400Y0189676D01*
X0124806Y0191109D01*
X0123709Y0192206D01*
X0122276Y0192800D01*
X0120724Y0192800D01*
X0119291Y0192206D01*
X0118194Y0191109D01*
X0117600Y0189676D01*
X0117600Y0183324D01*
X0118194Y0181891D01*
X0118801Y0181284D01*
X0117554Y0181800D01*
X0115446Y0181800D01*
X0114199Y0181284D01*
X0114806Y0181891D01*
X0115400Y0183324D01*
X0115400Y0189676D01*
X0114806Y0191109D01*
X0113709Y0192206D01*
X0112276Y0192800D01*
X0110724Y0192800D01*
X0109291Y0192206D01*
X0108194Y0191109D01*
X0107600Y0189676D01*
X0107600Y0183324D01*
X0108194Y0181891D01*
X0108801Y0181284D01*
X0107554Y0181800D01*
X0105446Y0181800D01*
X0103498Y0180993D01*
X0102007Y0179502D01*
X0101200Y0177554D01*
X0101200Y0177028D01*
X0097500Y0173328D01*
X0097500Y0127328D01*
X0069181Y0155647D01*
X0069181Y0156033D01*
X0068773Y0157019D01*
X0068019Y0157773D01*
X0067033Y0158181D01*
X0065967Y0158181D01*
X0064981Y0157773D01*
X0064227Y0157019D01*
X0063819Y0156033D01*
X0063819Y0154967D01*
X0064227Y0153981D01*
X0064981Y0153227D01*
X0065967Y0152819D01*
X0066353Y0152819D01*
X0095500Y0123672D01*
X0095500Y0107672D01*
X0100475Y0102697D01*
X0099291Y0102206D01*
X0098194Y0101109D01*
X0097600Y0099676D01*
X0097600Y0093324D01*
X0098194Y0091891D01*
X0099291Y0090794D01*
X0100724Y0090200D01*
X0102276Y0090200D01*
X0103709Y0090794D01*
X0104806Y0091891D01*
X0105400Y0093324D01*
X0105400Y0097772D01*
X0105500Y0097672D01*
X0105500Y0091672D01*
X0121672Y0075500D01*
X0119672Y0075500D01*
X0118500Y0074328D01*
X0115500Y0071328D01*
X0115500Y0065328D01*
X0115400Y0065228D01*
X0115400Y0069676D01*
X0114806Y0071109D01*
X0113709Y0072206D01*
X0112276Y0072800D01*
X0110724Y0072800D01*
X0109525Y0072303D01*
X0091628Y0090200D01*
X0092276Y0090200D01*
X0093709Y0090794D01*
X0094806Y0091891D01*
X0095400Y0093324D01*
X0095400Y0099676D01*
X0094806Y0101109D01*
X0093709Y0102206D01*
X0092276Y0102800D01*
X0090724Y0102800D01*
X0089291Y0102206D01*
X0088194Y0101109D01*
X0088055Y0100774D01*
X0081228Y0107600D01*
X0083115Y0107600D01*
X0085400Y0109885D01*
X0085400Y0113115D01*
X0083115Y0115400D01*
X0079885Y0115400D01*
X0079500Y0115015D01*
X0079500Y0117985D01*
X0079885Y0117600D01*
X0081200Y0117600D01*
X0081200Y0121200D01*
X0081800Y0121200D01*
X0081800Y0121800D01*
X0081200Y0121800D01*
X0081200Y0125400D01*
X0079885Y0125400D01*
X0079500Y0125015D01*
X0079500Y0138328D01*
X0078328Y0139500D01*
X0060446Y0157382D01*
X0060480Y0157464D01*
X0060480Y0159001D01*
X0059892Y0160420D01*
X0058806Y0161506D01*
X0057386Y0162094D01*
X0055850Y0162094D01*
X0054430Y0161506D01*
X0053344Y0160420D01*
X0052777Y0159051D01*
X0050328Y0161500D01*
X0041672Y0161500D01*
X0040500Y0160328D01*
X0036309Y0156137D01*
X0036858Y0157464D01*
X0036858Y0159001D01*
X0036270Y0160420D01*
X0035184Y0161506D01*
X0033764Y0162094D01*
X0032228Y0162094D01*
X0030808Y0161506D01*
X0029722Y0160420D01*
X0029134Y0159001D01*
X0029134Y0157464D01*
X0029722Y0156045D01*
X0030469Y0155297D01*
X0029500Y0154328D01*
X0022174Y0147003D01*
X0021953Y0147094D01*
X0021923Y0147094D01*
X0022500Y0147672D01*
X0022500Y0149597D01*
X0023373Y0149958D01*
X0024459Y0151045D01*
X0025047Y0152464D01*
X0025047Y0154001D01*
X0024459Y0155420D01*
X0023373Y0156506D01*
X0021953Y0157094D01*
X0020417Y0157094D01*
X0018997Y0156506D01*
X0017911Y0155420D01*
X0017323Y0154001D01*
X0017323Y0152464D01*
X0017911Y0151045D01*
X0018500Y0150455D01*
X0018500Y0149328D01*
X0015672Y0146500D01*
X0014500Y0145328D01*
X0014500Y0127672D01*
X0022518Y0119654D01*
X0021685Y0119654D01*
X0021685Y0112354D01*
X0028984Y0112354D01*
X0028984Y0113187D01*
X0042500Y0099672D01*
X0042500Y0082672D01*
X0074820Y0050352D01*
X0074820Y0048648D01*
X0072500Y0046328D01*
X0072500Y0042266D01*
X0070759Y0044007D01*
X0067280Y0044007D01*
X0064820Y0041547D01*
X0064820Y0038648D01*
X0057500Y0031328D01*
X0057500Y0024672D01*
X0058672Y0023500D01*
X0060672Y0021500D01*
X0132328Y0021500D01*
X0133500Y0022672D01*
X0149328Y0038500D01*
X0187239Y0038500D01*
X0186930Y0038190D01*
X0186500Y0037598D01*
X0186167Y0036946D01*
X0185941Y0036250D01*
X0185827Y0035527D01*
X0185827Y0035350D01*
X0190287Y0035350D01*
X0190287Y0034972D01*
X0190665Y0034972D01*
X0190665Y0030512D01*
X0190842Y0030512D01*
X0191565Y0030626D01*
X0192261Y0030852D01*
X0192913Y0031185D01*
X0193505Y0031615D01*
X0194023Y0032132D01*
X0194373Y0032614D01*
X0194409Y0032528D01*
X0195717Y0031220D01*
X0197426Y0030512D01*
X0199275Y0030512D01*
X0200984Y0031220D01*
X0202287Y0032523D01*
X0203591Y0031220D01*
X0205300Y0030512D01*
X0207149Y0030512D01*
X0207510Y0030661D01*
X0219672Y0018500D01*
X0230328Y0018500D01*
X0231500Y0019672D01*
X0236328Y0024500D01*
X0242985Y0024500D01*
X0244885Y0022600D01*
X0248115Y0022600D01*
X0250400Y0024885D01*
X0250400Y0028115D01*
X0248115Y0030400D01*
X0244885Y0030400D01*
X0242985Y0028500D01*
X0234672Y0028500D01*
X0232500Y0026328D01*
X0232500Y0029328D01*
X0231328Y0030500D01*
X0215528Y0046300D01*
X0217534Y0046300D01*
X0219446Y0047092D01*
X0220908Y0048554D01*
X0221300Y0049500D01*
X0229672Y0049500D01*
X0242500Y0036672D01*
X0243672Y0035500D01*
X0256903Y0035500D01*
X0257401Y0034299D01*
X0258709Y0032991D01*
X0260418Y0032283D01*
X0262267Y0032283D01*
X0263976Y0032991D01*
X0265284Y0034299D01*
X0265992Y0036008D01*
X0265992Y0037858D01*
X0265284Y0039567D01*
X0263981Y0040870D01*
X0265284Y0042173D01*
X0265992Y0043882D01*
X0265992Y0045732D01*
X0265284Y0047441D01*
X0263976Y0048749D01*
X0262267Y0049457D01*
X0260418Y0049457D01*
X0258709Y0048749D01*
X0257401Y0047441D01*
X0256693Y0045732D01*
X0256693Y0043882D01*
X0257401Y0042173D01*
X0258704Y0040870D01*
X0257401Y0039567D01*
X0257373Y0039500D01*
X0250015Y0039500D01*
X0250400Y0039885D01*
X0250400Y0043115D01*
X0248115Y0045400D01*
X0244885Y0045400D01*
X0242600Y0043115D01*
X0242600Y0042228D01*
X0231328Y0053500D01*
X0221300Y0053500D01*
X0220908Y0054446D01*
X0219446Y0055908D01*
X0217534Y0056700D01*
X0215466Y0056700D01*
X0213554Y0055908D01*
X0212092Y0054446D01*
X0211300Y0052534D01*
X0211300Y0050528D01*
X0203500Y0058328D01*
X0203500Y0060707D01*
X0203709Y0060794D01*
X0204806Y0061891D01*
X0205400Y0063324D01*
X0205400Y0069676D01*
X0204806Y0071109D01*
X0203709Y0072206D01*
X0202276Y0072800D01*
X0201628Y0072800D01*
X0203328Y0074500D01*
X0227985Y0074500D01*
X0229885Y0072600D01*
X0233115Y0072600D01*
X0235015Y0074500D01*
X0237328Y0074500D01*
X0255515Y0092687D01*
X0255724Y0092600D01*
X0257276Y0092600D01*
X0258709Y0093194D01*
X0259806Y0094291D01*
X0260400Y0095724D01*
X0260400Y0102076D01*
X0259806Y0103509D01*
X0258709Y0104606D01*
X0257276Y0105200D01*
X0255724Y0105200D01*
X0254291Y0104606D01*
X0253194Y0103509D01*
X0252600Y0102076D01*
X0252600Y0095724D01*
X0252687Y0095515D01*
X0235672Y0078500D01*
X0235015Y0078500D01*
X0233115Y0080400D01*
X0229885Y0080400D01*
X0227985Y0078500D01*
X0201672Y0078500D01*
X0197500Y0074328D01*
X0194328Y0077500D01*
X0193328Y0077500D01*
X0180561Y0090268D01*
X0180724Y0090200D01*
X0182276Y0090200D01*
X0183709Y0090794D01*
X0184806Y0091891D01*
X0185400Y0093324D01*
X0185400Y0099676D01*
X0184806Y0101109D01*
X0183709Y0102206D01*
X0182276Y0102800D01*
X0180724Y0102800D01*
X0179291Y0102206D01*
X0178194Y0101109D01*
X0177600Y0099676D01*
X0177600Y0093324D01*
X0177668Y0093161D01*
X0175400Y0095428D01*
X0175400Y0099676D01*
X0174806Y0101109D01*
X0173709Y0102206D01*
X0172276Y0102800D01*
X0170724Y0102800D01*
X0169291Y0102206D01*
X0168194Y0101109D01*
X0167600Y0099676D01*
X0167600Y0095228D01*
X0165400Y0097428D01*
X0165400Y0099676D01*
X0164806Y0101109D01*
X0163709Y0102206D01*
X0162276Y0102800D01*
X0160724Y0102800D01*
X0159291Y0102206D01*
X0158194Y0101109D01*
X0157600Y0099676D01*
X0157600Y0093324D01*
X0158194Y0091891D01*
X0159291Y0090794D01*
X0160724Y0090200D01*
X0162276Y0090200D01*
X0163709Y0090794D01*
X0164806Y0091891D01*
X0164945Y0092226D01*
X0184500Y0072672D01*
X0185672Y0071500D01*
X0188585Y0071500D01*
X0188194Y0071109D01*
X0187600Y0069676D01*
X0187600Y0067428D01*
X0187500Y0067328D01*
X0185400Y0065228D01*
X0185400Y0069676D01*
X0184806Y0071109D01*
X0183709Y0072206D01*
X0182276Y0072800D01*
X0180724Y0072800D01*
X0179291Y0072206D01*
X0178956Y0071872D01*
X0173328Y0077500D01*
X0125328Y0077500D01*
X0112525Y0090303D01*
X0113709Y0090794D01*
X0114806Y0091891D01*
X0115400Y0093324D01*
X0115400Y0099676D01*
X0114806Y0101109D01*
X0113709Y0102206D01*
X0113500Y0102293D01*
X0113500Y0104328D01*
X0106628Y0111200D01*
X0107554Y0111200D01*
X0109502Y0112007D01*
X0110993Y0113498D01*
X0111500Y0114722D01*
X0112007Y0113498D01*
X0113498Y0112007D01*
X0115446Y0111200D01*
X0117554Y0111200D01*
X0119502Y0112007D01*
X0120993Y0113498D01*
X0121500Y0114722D01*
X0122007Y0113498D01*
X0123498Y0112007D01*
X0125446Y0111200D01*
X0127554Y0111200D01*
X0129502Y0112007D01*
X0130993Y0113498D01*
X0131500Y0114722D01*
X0132007Y0113498D01*
X0133498Y0112007D01*
X0135393Y0111222D01*
X0124945Y0100774D01*
X0124806Y0101109D01*
X0123709Y0102206D01*
X0122276Y0102800D01*
X0120724Y0102800D01*
X0119291Y0102206D01*
X0118194Y0101109D01*
X0117600Y0099676D01*
X0117600Y0093324D01*
X0118194Y0091891D01*
X0119291Y0090794D01*
X0120724Y0090200D01*
X0122276Y0090200D01*
X0123709Y0090794D01*
X0124806Y0091891D01*
X0125400Y0093324D01*
X0125400Y0095572D01*
X0127600Y0097772D01*
X0127600Y0093324D01*
X0128194Y0091891D01*
X0129291Y0090794D01*
X0130724Y0090200D01*
X0132276Y0090200D01*
X0133709Y0090794D01*
X0134806Y0091891D01*
X0135400Y0093324D01*
X0135400Y0099676D01*
X0134806Y0101109D01*
X0133709Y0102206D01*
X0132525Y0102697D01*
X0138328Y0108500D01*
X0211328Y0108500D01*
X0214444Y0111615D01*
X0215446Y0111200D01*
X0217554Y0111200D01*
X0219502Y0112007D01*
X0220993Y0113498D01*
X0221500Y0114722D01*
X0222007Y0113498D01*
X0223498Y0112007D01*
X0225446Y0111200D01*
X0227554Y0111200D01*
X0229502Y0112007D01*
X0230993Y0113498D01*
X0231500Y0114722D01*
X0232007Y0113498D01*
X0233498Y0112007D01*
X0235446Y0111200D01*
X0237554Y0111200D01*
X0239502Y0112007D01*
X0240993Y0113498D01*
X0241500Y0114722D01*
X0242007Y0113498D01*
X0243498Y0112007D01*
X0245446Y0111200D01*
X0247554Y0111200D01*
X0249502Y0112007D01*
X0250993Y0113498D01*
X0251500Y0114722D01*
X0252007Y0113498D01*
X0253498Y0112007D01*
X0255446Y0111200D01*
X0257554Y0111200D01*
X0259502Y0112007D01*
X0260993Y0113498D01*
X0261500Y0114722D01*
X0262007Y0113498D01*
X0263498Y0112007D01*
X0265446Y0111200D01*
X0267554Y0111200D01*
X0269502Y0112007D01*
X0270993Y0113498D01*
X0271800Y0115446D01*
X0271800Y0117554D01*
X0270993Y0119502D01*
X0269502Y0120993D01*
X0267554Y0121800D01*
X0265446Y0121800D01*
X0263498Y0120993D01*
X0262007Y0119502D01*
X0261500Y0118278D01*
X0260993Y0119502D01*
X0259502Y0120993D01*
X0257554Y0121800D01*
X0255446Y0121800D01*
X0254050Y0121222D01*
X0277500Y0144672D01*
X0277500Y0246328D01*
X0276328Y0247500D01*
X0265328Y0258500D01*
X0266710Y0257119D02*
X0282496Y0257119D01*
X0282496Y0256120D02*
X0267708Y0256120D01*
X0268707Y0255122D02*
X0282496Y0255122D01*
X0282496Y0254123D02*
X0269705Y0254123D01*
X0270704Y0253125D02*
X0282496Y0253125D01*
X0282496Y0252126D02*
X0271702Y0252126D01*
X0272701Y0251128D02*
X0282496Y0251128D01*
X0282496Y0250129D02*
X0273699Y0250129D01*
X0274698Y0249131D02*
X0282496Y0249131D01*
X0282496Y0248132D02*
X0275696Y0248132D01*
X0276695Y0247134D02*
X0282496Y0247134D01*
X0282496Y0246135D02*
X0277500Y0246135D01*
X0277500Y0245137D02*
X0282496Y0245137D01*
X0282496Y0244138D02*
X0277500Y0244138D01*
X0277500Y0243140D02*
X0282496Y0243140D01*
X0282496Y0242141D02*
X0277500Y0242141D01*
X0277500Y0241143D02*
X0282496Y0241143D01*
X0282496Y0240144D02*
X0277500Y0240144D01*
X0277500Y0239146D02*
X0282496Y0239146D01*
X0282496Y0238147D02*
X0277500Y0238147D01*
X0277500Y0237149D02*
X0282496Y0237149D01*
X0282496Y0236150D02*
X0277500Y0236150D01*
X0277500Y0235152D02*
X0282496Y0235152D01*
X0282496Y0234153D02*
X0277500Y0234153D01*
X0277500Y0233155D02*
X0282496Y0233155D01*
X0282496Y0232156D02*
X0277500Y0232156D01*
X0277500Y0231158D02*
X0282496Y0231158D01*
X0282496Y0230159D02*
X0277500Y0230159D01*
X0277500Y0229161D02*
X0282496Y0229161D01*
X0282496Y0228162D02*
X0277500Y0228162D01*
X0277500Y0227164D02*
X0282496Y0227164D01*
X0282496Y0226165D02*
X0277500Y0226165D01*
X0277500Y0225167D02*
X0282496Y0225167D01*
X0282496Y0224168D02*
X0277500Y0224168D01*
X0277500Y0223170D02*
X0282496Y0223170D01*
X0282496Y0222171D02*
X0277500Y0222171D01*
X0277500Y0221172D02*
X0282496Y0221172D01*
X0282496Y0220174D02*
X0277500Y0220174D01*
X0277500Y0219175D02*
X0282496Y0219175D01*
X0282496Y0218177D02*
X0277500Y0218177D01*
X0277500Y0217178D02*
X0282496Y0217178D01*
X0282496Y0216180D02*
X0277500Y0216180D01*
X0277500Y0215181D02*
X0282496Y0215181D01*
X0282496Y0214183D02*
X0277500Y0214183D01*
X0277500Y0213184D02*
X0282496Y0213184D01*
X0282496Y0212186D02*
X0277500Y0212186D01*
X0277500Y0211187D02*
X0282496Y0211187D01*
X0282496Y0210189D02*
X0277500Y0210189D01*
X0277500Y0209190D02*
X0282496Y0209190D01*
X0282496Y0208192D02*
X0277500Y0208192D01*
X0277500Y0207193D02*
X0282496Y0207193D01*
X0282496Y0206195D02*
X0277500Y0206195D01*
X0277500Y0205196D02*
X0282496Y0205196D01*
X0282496Y0204198D02*
X0277500Y0204198D01*
X0277500Y0203199D02*
X0282496Y0203199D01*
X0282496Y0202201D02*
X0277500Y0202201D01*
X0277500Y0201202D02*
X0282496Y0201202D01*
X0282496Y0200204D02*
X0277500Y0200204D01*
X0277500Y0199205D02*
X0282496Y0199205D01*
X0282496Y0198207D02*
X0277500Y0198207D01*
X0277500Y0197208D02*
X0282496Y0197208D01*
X0282496Y0196210D02*
X0277500Y0196210D01*
X0277500Y0195211D02*
X0282496Y0195211D01*
X0282496Y0194213D02*
X0277500Y0194213D01*
X0277500Y0193214D02*
X0282496Y0193214D01*
X0282496Y0192216D02*
X0277500Y0192216D01*
X0277500Y0191217D02*
X0282496Y0191217D01*
X0282496Y0190219D02*
X0277500Y0190219D01*
X0277500Y0189220D02*
X0282496Y0189220D01*
X0282496Y0188222D02*
X0277500Y0188222D01*
X0277500Y0187223D02*
X0282496Y0187223D01*
X0282496Y0186225D02*
X0277500Y0186225D01*
X0277500Y0185226D02*
X0282496Y0185226D01*
X0282496Y0184228D02*
X0277500Y0184228D01*
X0277500Y0183229D02*
X0282496Y0183229D01*
X0282496Y0182231D02*
X0277500Y0182231D01*
X0277500Y0181232D02*
X0282496Y0181232D01*
X0282496Y0180234D02*
X0277500Y0180234D01*
X0277500Y0179235D02*
X0282496Y0179235D01*
X0282496Y0178237D02*
X0277500Y0178237D01*
X0277500Y0177238D02*
X0282496Y0177238D01*
X0282496Y0176239D02*
X0277500Y0176239D01*
X0277500Y0175241D02*
X0282496Y0175241D01*
X0282496Y0174242D02*
X0277500Y0174242D01*
X0277500Y0173244D02*
X0282496Y0173244D01*
X0282496Y0172245D02*
X0277500Y0172245D01*
X0277500Y0171247D02*
X0282496Y0171247D01*
X0282496Y0170248D02*
X0277500Y0170248D01*
X0277500Y0169250D02*
X0282496Y0169250D01*
X0282496Y0168251D02*
X0277500Y0168251D01*
X0277500Y0167253D02*
X0282496Y0167253D01*
X0282496Y0166254D02*
X0277500Y0166254D01*
X0277500Y0165256D02*
X0282496Y0165256D01*
X0282496Y0164257D02*
X0277500Y0164257D01*
X0277500Y0163259D02*
X0282496Y0163259D01*
X0282496Y0162260D02*
X0277500Y0162260D01*
X0277500Y0161262D02*
X0282496Y0161262D01*
X0282496Y0160263D02*
X0277500Y0160263D01*
X0277500Y0159265D02*
X0282496Y0159265D01*
X0282496Y0158266D02*
X0277500Y0158266D01*
X0277500Y0157268D02*
X0282496Y0157268D01*
X0282496Y0156269D02*
X0277500Y0156269D01*
X0277500Y0155271D02*
X0282496Y0155271D01*
X0282496Y0154272D02*
X0277500Y0154272D01*
X0277500Y0153274D02*
X0282496Y0153274D01*
X0282496Y0152275D02*
X0277500Y0152275D01*
X0277500Y0151277D02*
X0282496Y0151277D01*
X0282496Y0150278D02*
X0277500Y0150278D01*
X0277500Y0149280D02*
X0282496Y0149280D01*
X0282496Y0148281D02*
X0277500Y0148281D01*
X0277500Y0147283D02*
X0282496Y0147283D01*
X0282496Y0146284D02*
X0277500Y0146284D01*
X0277500Y0145286D02*
X0282496Y0145286D01*
X0282496Y0144287D02*
X0277116Y0144287D01*
X0276117Y0143289D02*
X0282496Y0143289D01*
X0282496Y0142290D02*
X0275119Y0142290D01*
X0274120Y0141292D02*
X0282496Y0141292D01*
X0282496Y0140293D02*
X0273121Y0140293D01*
X0272123Y0139295D02*
X0282496Y0139295D01*
X0282496Y0138296D02*
X0271124Y0138296D01*
X0270126Y0137298D02*
X0282496Y0137298D01*
X0282496Y0136299D02*
X0269127Y0136299D01*
X0268129Y0135301D02*
X0282496Y0135301D01*
X0282496Y0134302D02*
X0267130Y0134302D01*
X0266132Y0133303D02*
X0282496Y0133303D01*
X0282496Y0132305D02*
X0265133Y0132305D01*
X0264135Y0131306D02*
X0282496Y0131306D01*
X0282496Y0130308D02*
X0263136Y0130308D01*
X0262138Y0129309D02*
X0282496Y0129309D01*
X0282496Y0128311D02*
X0261139Y0128311D01*
X0260141Y0127312D02*
X0282496Y0127312D01*
X0282496Y0126314D02*
X0259142Y0126314D01*
X0258144Y0125315D02*
X0282496Y0125315D01*
X0282496Y0124317D02*
X0257145Y0124317D01*
X0256147Y0123318D02*
X0282496Y0123318D01*
X0282496Y0122320D02*
X0255148Y0122320D01*
X0254290Y0121321D02*
X0254150Y0121321D01*
X0251488Y0124317D02*
X0201512Y0124317D01*
X0201328Y0124500D02*
X0152328Y0124500D01*
X0130009Y0146819D01*
X0130033Y0146819D01*
X0131019Y0147227D01*
X0131773Y0147981D01*
X0132181Y0148967D01*
X0132181Y0149353D01*
X0154444Y0171615D01*
X0155446Y0171200D01*
X0157554Y0171200D01*
X0159502Y0172007D01*
X0160993Y0173498D01*
X0161500Y0174722D01*
X0162007Y0173498D01*
X0163498Y0172007D01*
X0165446Y0171200D01*
X0167554Y0171200D01*
X0169502Y0172007D01*
X0170993Y0173498D01*
X0171500Y0174722D01*
X0172007Y0173498D01*
X0173498Y0172007D01*
X0175446Y0171200D01*
X0177554Y0171200D01*
X0179502Y0172007D01*
X0180993Y0173498D01*
X0181500Y0174722D01*
X0182007Y0173498D01*
X0183498Y0172007D01*
X0185446Y0171200D01*
X0187554Y0171200D01*
X0189502Y0172007D01*
X0190993Y0173498D01*
X0191500Y0174722D01*
X0192007Y0173498D01*
X0193498Y0172007D01*
X0195446Y0171200D01*
X0197554Y0171200D01*
X0199502Y0172007D01*
X0200993Y0173498D01*
X0201500Y0174722D01*
X0202007Y0173498D01*
X0203498Y0172007D01*
X0205446Y0171200D01*
X0207554Y0171200D01*
X0209502Y0172007D01*
X0210993Y0173498D01*
X0211500Y0174722D01*
X0212007Y0173498D01*
X0213498Y0172007D01*
X0215446Y0171200D01*
X0217554Y0171200D01*
X0219502Y0172007D01*
X0220993Y0173498D01*
X0221500Y0174722D01*
X0222007Y0173498D01*
X0223498Y0172007D01*
X0225446Y0171200D01*
X0227554Y0171200D01*
X0229502Y0172007D01*
X0230993Y0173498D01*
X0231500Y0174722D01*
X0232007Y0173498D01*
X0233498Y0172007D01*
X0235446Y0171200D01*
X0237554Y0171200D01*
X0239502Y0172007D01*
X0240993Y0173498D01*
X0241500Y0174722D01*
X0242007Y0173498D01*
X0243498Y0172007D01*
X0245446Y0171200D01*
X0247554Y0171200D01*
X0249502Y0172007D01*
X0250993Y0173498D01*
X0251500Y0174722D01*
X0252007Y0173498D01*
X0253498Y0172007D01*
X0255446Y0171200D01*
X0257554Y0171200D01*
X0259502Y0172007D01*
X0260993Y0173498D01*
X0261500Y0174722D01*
X0262007Y0173498D01*
X0263498Y0172007D01*
X0265446Y0171200D01*
X0267554Y0171200D01*
X0269502Y0172007D01*
X0270993Y0173498D01*
X0271800Y0175446D01*
X0271800Y0177554D01*
X0270993Y0179502D01*
X0269992Y0180503D01*
X0270362Y0180350D01*
X0271116Y0180200D01*
X0271200Y0180200D01*
X0271200Y0186200D01*
X0271800Y0186200D01*
X0271800Y0180200D01*
X0271884Y0180200D01*
X0272638Y0180350D01*
X0273347Y0180644D01*
X0273500Y0180746D01*
X0273500Y0146328D01*
X0248556Y0121385D01*
X0247554Y0121800D01*
X0245446Y0121800D01*
X0243498Y0120993D01*
X0242007Y0119502D01*
X0241500Y0118278D01*
X0240993Y0119502D01*
X0239502Y0120993D01*
X0237554Y0121800D01*
X0235446Y0121800D01*
X0233498Y0120993D01*
X0232007Y0119502D01*
X0231500Y0118278D01*
X0230993Y0119502D01*
X0229502Y0120993D01*
X0227554Y0121800D01*
X0225446Y0121800D01*
X0223498Y0120993D01*
X0222007Y0119502D01*
X0221500Y0118278D01*
X0220993Y0119502D01*
X0219502Y0120993D01*
X0217554Y0121800D01*
X0215446Y0121800D01*
X0213498Y0120993D01*
X0212007Y0119502D01*
X0211500Y0118278D01*
X0210993Y0119502D01*
X0209502Y0120993D01*
X0207554Y0121800D01*
X0205446Y0121800D01*
X0204444Y0121385D01*
X0201328Y0124500D01*
X0202510Y0123318D02*
X0250490Y0123318D01*
X0249491Y0122320D02*
X0203509Y0122320D01*
X0208710Y0121321D02*
X0214290Y0121321D01*
X0212828Y0120323D02*
X0210172Y0120323D01*
X0211067Y0119324D02*
X0211933Y0119324D01*
X0211520Y0118326D02*
X0211480Y0118326D01*
X0206500Y0116500D02*
X0200500Y0122500D01*
X0151500Y0122500D01*
X0102500Y0171500D01*
X0105628Y0171200D02*
X0107554Y0171200D01*
X0109502Y0172007D01*
X0110993Y0173498D01*
X0111500Y0174722D01*
X0112007Y0173498D01*
X0113498Y0172007D01*
X0115446Y0171200D01*
X0117554Y0171200D01*
X0119502Y0172007D01*
X0120993Y0173498D01*
X0121500Y0174722D01*
X0122007Y0173498D01*
X0123498Y0172007D01*
X0125446Y0171200D01*
X0127554Y0171200D01*
X0129502Y0172007D01*
X0130993Y0173498D01*
X0131503Y0174728D01*
X0131588Y0174466D01*
X0131967Y0173722D01*
X0132457Y0173047D01*
X0133047Y0172457D01*
X0133722Y0171967D01*
X0134466Y0171588D01*
X0135259Y0171330D01*
X0136000Y0171213D01*
X0136000Y0176000D01*
X0137000Y0176000D01*
X0137000Y0171213D01*
X0137741Y0171330D01*
X0138534Y0171588D01*
X0139278Y0171967D01*
X0139953Y0172457D01*
X0140543Y0173047D01*
X0141033Y0173722D01*
X0141412Y0174466D01*
X0141497Y0174728D01*
X0142007Y0173498D01*
X0143498Y0172007D01*
X0145446Y0171200D01*
X0147554Y0171200D01*
X0148950Y0171778D01*
X0129353Y0152181D01*
X0128967Y0152181D01*
X0127981Y0151773D01*
X0127227Y0151019D01*
X0126819Y0150033D01*
X0126819Y0150009D01*
X0105628Y0171200D01*
X0106580Y0170248D02*
X0147420Y0170248D01*
X0147668Y0171247D02*
X0148419Y0171247D01*
X0146421Y0169250D02*
X0107578Y0169250D01*
X0108577Y0168251D02*
X0145423Y0168251D01*
X0144424Y0167253D02*
X0109576Y0167253D01*
X0110574Y0166254D02*
X0143426Y0166254D01*
X0142427Y0165256D02*
X0111573Y0165256D01*
X0112571Y0164257D02*
X0141429Y0164257D01*
X0140430Y0163259D02*
X0113570Y0163259D01*
X0114568Y0162260D02*
X0139432Y0162260D01*
X0138433Y0161262D02*
X0115567Y0161262D01*
X0116565Y0160263D02*
X0137435Y0160263D01*
X0136436Y0159265D02*
X0117564Y0159265D01*
X0118562Y0158266D02*
X0135438Y0158266D01*
X0134439Y0157268D02*
X0119561Y0157268D01*
X0120559Y0156269D02*
X0133441Y0156269D01*
X0132442Y0155271D02*
X0121558Y0155271D01*
X0122556Y0154272D02*
X0131444Y0154272D01*
X0130445Y0153274D02*
X0123555Y0153274D01*
X0124553Y0152275D02*
X0129447Y0152275D01*
X0127485Y0151277D02*
X0125552Y0151277D01*
X0126550Y0150278D02*
X0126920Y0150278D01*
X0129500Y0149500D02*
X0156500Y0176500D01*
X0156500Y0193500D01*
X0137500Y0212500D01*
X0137500Y0220500D01*
X0158500Y0241500D01*
X0158626Y0241500D01*
X0159500Y0241500D01*
X0163500Y0245500D01*
X0163500Y0252500D01*
X0160500Y0255500D01*
X0133500Y0255500D01*
X0112500Y0234500D01*
X0111736Y0233783D01*
X0114687Y0230159D02*
X0116688Y0230159D01*
X0115771Y0231158D02*
X0115681Y0231158D01*
X0115500Y0229500D02*
X0115500Y0214500D01*
X0136500Y0193500D01*
X0136500Y0176500D01*
X0136000Y0177238D02*
X0137000Y0177238D01*
X0137000Y0178237D02*
X0136000Y0178237D01*
X0136000Y0179235D02*
X0137000Y0179235D01*
X0137000Y0180234D02*
X0136000Y0180234D01*
X0136000Y0181232D02*
X0137000Y0181232D01*
X0138053Y0182231D02*
X0134947Y0182231D01*
X0135361Y0183229D02*
X0137639Y0183229D01*
X0137600Y0184228D02*
X0135400Y0184228D01*
X0135400Y0185226D02*
X0137600Y0185226D01*
X0137600Y0186225D02*
X0135400Y0186225D01*
X0135400Y0187223D02*
X0137600Y0187223D01*
X0137600Y0188222D02*
X0135400Y0188222D01*
X0135400Y0189220D02*
X0137600Y0189220D01*
X0137825Y0190219D02*
X0135175Y0190219D01*
X0134698Y0191217D02*
X0138302Y0191217D01*
X0139314Y0192216D02*
X0133686Y0192216D01*
X0129314Y0192216D02*
X0123686Y0192216D01*
X0124698Y0191217D02*
X0128302Y0191217D01*
X0127825Y0190219D02*
X0125175Y0190219D01*
X0125400Y0189220D02*
X0127600Y0189220D01*
X0127600Y0188222D02*
X0125400Y0188222D01*
X0125400Y0187223D02*
X0127600Y0187223D01*
X0127600Y0186225D02*
X0125400Y0186225D01*
X0125400Y0185226D02*
X0127600Y0185226D01*
X0127600Y0184228D02*
X0125400Y0184228D01*
X0125361Y0183229D02*
X0127639Y0183229D01*
X0128053Y0182231D02*
X0124947Y0182231D01*
X0118053Y0182231D02*
X0114947Y0182231D01*
X0115361Y0183229D02*
X0117639Y0183229D01*
X0117600Y0184228D02*
X0115400Y0184228D01*
X0115400Y0185226D02*
X0117600Y0185226D01*
X0117600Y0186225D02*
X0115400Y0186225D01*
X0115400Y0187223D02*
X0117600Y0187223D01*
X0117600Y0188222D02*
X0115400Y0188222D01*
X0115400Y0189220D02*
X0117600Y0189220D01*
X0117825Y0190219D02*
X0115175Y0190219D01*
X0114698Y0191217D02*
X0118302Y0191217D01*
X0119314Y0192216D02*
X0113686Y0192216D01*
X0109314Y0192216D02*
X0057604Y0192216D01*
X0056000Y0191551D02*
X0059222Y0192886D01*
X0061689Y0195352D01*
X0063024Y0198575D01*
X0063024Y0202063D01*
X0061689Y0205285D01*
X0059222Y0207752D01*
X0056000Y0209087D01*
X0052512Y0209087D01*
X0049289Y0207752D01*
X0046823Y0205285D01*
X0045488Y0202063D01*
X0045488Y0198575D01*
X0046823Y0195352D01*
X0049289Y0192886D01*
X0052512Y0191551D01*
X0056000Y0191551D01*
X0059551Y0193214D02*
X0143957Y0193214D01*
X0143686Y0192216D02*
X0144500Y0192216D01*
X0146500Y0193500D02*
X0127500Y0212500D01*
X0127500Y0233500D01*
X0127484Y0233783D01*
X0127500Y0234500D01*
X0144500Y0251500D01*
X0158626Y0251500D01*
X0155111Y0253500D02*
X0155111Y0253500D01*
X0134328Y0253500D01*
X0119261Y0238433D01*
X0119421Y0238433D01*
X0119421Y0233973D01*
X0119799Y0233973D01*
X0119799Y0238433D01*
X0119976Y0238433D01*
X0120699Y0238319D01*
X0121395Y0238092D01*
X0122047Y0237760D01*
X0122639Y0237330D01*
X0123157Y0236812D01*
X0123507Y0236331D01*
X0123543Y0236417D01*
X0124850Y0237725D01*
X0126559Y0238433D01*
X0128409Y0238433D01*
X0128547Y0238376D01*
X0143672Y0253500D01*
X0155111Y0253500D01*
X0161710Y0257119D02*
X0175290Y0257119D01*
X0174292Y0256120D02*
X0162708Y0256120D01*
X0163707Y0255122D02*
X0173293Y0255122D01*
X0172295Y0254123D02*
X0164705Y0254123D01*
X0165500Y0253125D02*
X0171296Y0253125D01*
X0170298Y0252126D02*
X0165500Y0252126D01*
X0165500Y0251128D02*
X0169299Y0251128D01*
X0167842Y0250129D02*
X0165500Y0250129D01*
X0165500Y0249131D02*
X0166339Y0249131D01*
X0165860Y0248132D02*
X0165500Y0248132D01*
X0165500Y0247134D02*
X0165819Y0247134D01*
X0165500Y0246135D02*
X0166163Y0246135D01*
X0165500Y0245137D02*
X0167199Y0245137D01*
X0164967Y0244138D02*
X0172310Y0244138D01*
X0171311Y0243140D02*
X0163968Y0243140D01*
X0162970Y0242141D02*
X0170313Y0242141D01*
X0169314Y0241143D02*
X0162526Y0241143D01*
X0162526Y0240144D02*
X0168316Y0240144D01*
X0168500Y0237500D02*
X0178500Y0247500D01*
X0192500Y0247500D01*
X0199500Y0254500D01*
X0263500Y0254500D01*
X0267500Y0250500D01*
X0267500Y0177500D01*
X0266500Y0176500D01*
X0270262Y0180234D02*
X0270947Y0180234D01*
X0271200Y0180234D02*
X0271800Y0180234D01*
X0272053Y0180234D02*
X0273500Y0180234D01*
X0273500Y0179235D02*
X0271104Y0179235D01*
X0271517Y0178237D02*
X0273500Y0178237D01*
X0273500Y0177238D02*
X0271800Y0177238D01*
X0271800Y0176239D02*
X0273500Y0176239D01*
X0273500Y0175241D02*
X0271715Y0175241D01*
X0271302Y0174242D02*
X0273500Y0174242D01*
X0273500Y0173244D02*
X0270739Y0173244D01*
X0269741Y0172245D02*
X0273500Y0172245D01*
X0273500Y0171247D02*
X0267668Y0171247D01*
X0265332Y0171247D02*
X0257668Y0171247D01*
X0259741Y0172245D02*
X0263259Y0172245D01*
X0262261Y0173244D02*
X0260739Y0173244D01*
X0261302Y0174242D02*
X0261698Y0174242D01*
X0255332Y0171247D02*
X0247668Y0171247D01*
X0249741Y0172245D02*
X0253259Y0172245D01*
X0252261Y0173244D02*
X0250739Y0173244D01*
X0251302Y0174242D02*
X0251698Y0174242D01*
X0251500Y0178278D02*
X0250993Y0179502D01*
X0249992Y0180503D01*
X0250362Y0180350D01*
X0251116Y0180200D01*
X0251200Y0180200D01*
X0251200Y0186200D01*
X0251800Y0186200D01*
X0251800Y0186800D01*
X0251200Y0186800D01*
X0251200Y0192800D01*
X0251116Y0192800D01*
X0250362Y0192650D01*
X0249653Y0192356D01*
X0249014Y0191929D01*
X0248471Y0191386D01*
X0248044Y0190747D01*
X0247750Y0190038D01*
X0247600Y0189284D01*
X0247600Y0186800D01*
X0251200Y0186800D01*
X0251200Y0186200D01*
X0247600Y0186200D01*
X0247600Y0183716D01*
X0247750Y0182962D01*
X0248044Y0182253D01*
X0248471Y0181614D01*
X0248801Y0181284D01*
X0247554Y0181800D01*
X0245446Y0181800D01*
X0244199Y0181284D01*
X0244806Y0181891D01*
X0245400Y0183324D01*
X0245400Y0189676D01*
X0244806Y0191109D01*
X0243709Y0192206D01*
X0242276Y0192800D01*
X0240724Y0192800D01*
X0239291Y0192206D01*
X0238194Y0191109D01*
X0237600Y0189676D01*
X0237600Y0183324D01*
X0238194Y0181891D01*
X0238801Y0181284D01*
X0237554Y0181800D01*
X0235446Y0181800D01*
X0234199Y0181284D01*
X0234529Y0181614D01*
X0234956Y0182253D01*
X0235250Y0182962D01*
X0235400Y0183716D01*
X0235400Y0186200D01*
X0231800Y0186200D01*
X0231800Y0186800D01*
X0231200Y0186800D01*
X0231200Y0192800D01*
X0231116Y0192800D01*
X0230362Y0192650D01*
X0229653Y0192356D01*
X0229014Y0191929D01*
X0228471Y0191386D01*
X0228044Y0190747D01*
X0227750Y0190038D01*
X0227600Y0189284D01*
X0227600Y0186800D01*
X0231200Y0186800D01*
X0231200Y0186200D01*
X0231800Y0186200D01*
X0231800Y0180200D01*
X0231884Y0180200D01*
X0232638Y0180350D01*
X0233008Y0180503D01*
X0232007Y0179502D01*
X0231500Y0178278D01*
X0230993Y0179502D01*
X0229992Y0180503D01*
X0230362Y0180350D01*
X0231116Y0180200D01*
X0231200Y0180200D01*
X0231200Y0186200D01*
X0227600Y0186200D01*
X0227600Y0183716D01*
X0227750Y0182962D01*
X0228044Y0182253D01*
X0228471Y0181614D01*
X0228801Y0181284D01*
X0227554Y0181800D01*
X0225446Y0181800D01*
X0224199Y0181284D01*
X0224806Y0181891D01*
X0225400Y0183324D01*
X0225400Y0189676D01*
X0224806Y0191109D01*
X0223709Y0192206D01*
X0222525Y0192697D01*
X0223328Y0193500D01*
X0262708Y0193500D01*
X0262981Y0193227D01*
X0263967Y0192819D01*
X0265033Y0192819D01*
X0265500Y0193012D01*
X0265500Y0181800D01*
X0265446Y0181800D01*
X0264199Y0181284D01*
X0264806Y0181891D01*
X0265400Y0183324D01*
X0265400Y0189676D01*
X0264806Y0191109D01*
X0263709Y0192206D01*
X0262276Y0192800D01*
X0260724Y0192800D01*
X0259291Y0192206D01*
X0258194Y0191109D01*
X0257600Y0189676D01*
X0257600Y0183324D01*
X0258194Y0181891D01*
X0258801Y0181284D01*
X0257554Y0181800D01*
X0255446Y0181800D01*
X0254199Y0181284D01*
X0254529Y0181614D01*
X0254956Y0182253D01*
X0255250Y0182962D01*
X0255400Y0183716D01*
X0255400Y0186200D01*
X0251800Y0186200D01*
X0251800Y0180200D01*
X0251884Y0180200D01*
X0252638Y0180350D01*
X0253008Y0180503D01*
X0252007Y0179502D01*
X0251500Y0178278D01*
X0251104Y0179235D02*
X0251896Y0179235D01*
X0251800Y0180234D02*
X0251200Y0180234D01*
X0250947Y0180234D02*
X0250262Y0180234D01*
X0251200Y0181232D02*
X0251800Y0181232D01*
X0251800Y0182231D02*
X0251200Y0182231D01*
X0251200Y0183229D02*
X0251800Y0183229D01*
X0251800Y0184228D02*
X0251200Y0184228D01*
X0251200Y0185226D02*
X0251800Y0185226D01*
X0251800Y0186225D02*
X0257600Y0186225D01*
X0257600Y0187223D02*
X0255400Y0187223D01*
X0255400Y0186800D02*
X0255400Y0189284D01*
X0255250Y0190038D01*
X0254956Y0190747D01*
X0254529Y0191386D01*
X0253986Y0191929D01*
X0253347Y0192356D01*
X0252638Y0192650D01*
X0251884Y0192800D01*
X0251800Y0192800D01*
X0251800Y0186800D01*
X0255400Y0186800D01*
X0255400Y0188222D02*
X0257600Y0188222D01*
X0257600Y0189220D02*
X0255400Y0189220D01*
X0255175Y0190219D02*
X0257825Y0190219D01*
X0258302Y0191217D02*
X0254642Y0191217D01*
X0253558Y0192216D02*
X0259314Y0192216D01*
X0263012Y0193214D02*
X0223043Y0193214D01*
X0223686Y0192216D02*
X0229442Y0192216D01*
X0228358Y0191217D02*
X0224698Y0191217D01*
X0225175Y0190219D02*
X0227825Y0190219D01*
X0227600Y0189220D02*
X0225400Y0189220D01*
X0225400Y0188222D02*
X0227600Y0188222D01*
X0227600Y0187223D02*
X0225400Y0187223D01*
X0225400Y0186225D02*
X0231200Y0186225D01*
X0231800Y0186225D02*
X0237600Y0186225D01*
X0237600Y0187223D02*
X0235400Y0187223D01*
X0235400Y0186800D02*
X0235400Y0189284D01*
X0235250Y0190038D01*
X0234956Y0190747D01*
X0234529Y0191386D01*
X0233986Y0191929D01*
X0233347Y0192356D01*
X0232638Y0192650D01*
X0231884Y0192800D01*
X0231800Y0192800D01*
X0231800Y0186800D01*
X0235400Y0186800D01*
X0235400Y0188222D02*
X0237600Y0188222D01*
X0237600Y0189220D02*
X0235400Y0189220D01*
X0235175Y0190219D02*
X0237825Y0190219D01*
X0238302Y0191217D02*
X0234642Y0191217D01*
X0233558Y0192216D02*
X0239314Y0192216D01*
X0243686Y0192216D02*
X0249442Y0192216D01*
X0248358Y0191217D02*
X0244698Y0191217D01*
X0245175Y0190219D02*
X0247825Y0190219D01*
X0247600Y0189220D02*
X0245400Y0189220D01*
X0245400Y0188222D02*
X0247600Y0188222D01*
X0247600Y0187223D02*
X0245400Y0187223D01*
X0245400Y0186225D02*
X0251200Y0186225D01*
X0251200Y0187223D02*
X0251800Y0187223D01*
X0251800Y0188222D02*
X0251200Y0188222D01*
X0251200Y0189220D02*
X0251800Y0189220D01*
X0251800Y0190219D02*
X0251200Y0190219D01*
X0251200Y0191217D02*
X0251800Y0191217D01*
X0251800Y0192216D02*
X0251200Y0192216D01*
X0247600Y0185226D02*
X0245400Y0185226D01*
X0245400Y0184228D02*
X0247600Y0184228D01*
X0247697Y0183229D02*
X0245361Y0183229D01*
X0244947Y0182231D02*
X0248059Y0182231D01*
X0252053Y0180234D02*
X0252738Y0180234D01*
X0254941Y0182231D02*
X0258053Y0182231D01*
X0257639Y0183229D02*
X0255303Y0183229D01*
X0255400Y0184228D02*
X0257600Y0184228D01*
X0257600Y0185226D02*
X0255400Y0185226D01*
X0265400Y0185226D02*
X0265500Y0185226D01*
X0265500Y0184228D02*
X0265400Y0184228D01*
X0265361Y0183229D02*
X0265500Y0183229D01*
X0265500Y0182231D02*
X0264947Y0182231D01*
X0265400Y0186225D02*
X0265500Y0186225D01*
X0265500Y0187223D02*
X0265400Y0187223D01*
X0265400Y0188222D02*
X0265500Y0188222D01*
X0265500Y0189220D02*
X0265400Y0189220D01*
X0265500Y0190219D02*
X0265175Y0190219D01*
X0265500Y0191217D02*
X0264698Y0191217D01*
X0265500Y0192216D02*
X0263686Y0192216D01*
X0264500Y0195500D02*
X0222500Y0195500D01*
X0213500Y0186500D01*
X0211500Y0186500D01*
X0207600Y0186225D02*
X0185400Y0186225D01*
X0185400Y0187223D02*
X0207600Y0187223D01*
X0207600Y0188222D02*
X0185400Y0188222D01*
X0185400Y0189220D02*
X0207600Y0189220D01*
X0207600Y0189676D02*
X0207600Y0183324D01*
X0208194Y0181891D01*
X0208801Y0181284D01*
X0207554Y0181800D01*
X0205446Y0181800D01*
X0203498Y0180993D01*
X0202007Y0179502D01*
X0201500Y0178278D01*
X0200993Y0179502D01*
X0199502Y0180993D01*
X0197554Y0181800D01*
X0195446Y0181800D01*
X0193498Y0180993D01*
X0192007Y0179502D01*
X0191500Y0178278D01*
X0190993Y0179502D01*
X0189502Y0180993D01*
X0187554Y0181800D01*
X0185446Y0181800D01*
X0184199Y0181284D01*
X0184806Y0181891D01*
X0185400Y0183324D01*
X0185400Y0189676D01*
X0184806Y0191109D01*
X0183709Y0192206D01*
X0182276Y0192800D01*
X0180724Y0192800D01*
X0179291Y0192206D01*
X0178194Y0191109D01*
X0177600Y0189676D01*
X0177600Y0183324D01*
X0178194Y0181891D01*
X0178801Y0181284D01*
X0177554Y0181800D01*
X0175446Y0181800D01*
X0174199Y0181284D01*
X0174806Y0181891D01*
X0175400Y0183324D01*
X0175400Y0189676D01*
X0174806Y0191109D01*
X0173709Y0192206D01*
X0173500Y0192293D01*
X0173500Y0194672D01*
X0202328Y0223500D01*
X0203500Y0224672D01*
X0203500Y0229253D01*
X0204921Y0229842D01*
X0206224Y0231145D01*
X0207528Y0229842D01*
X0209237Y0229134D01*
X0211086Y0229134D01*
X0212795Y0229842D01*
X0214098Y0231145D01*
X0215402Y0229842D01*
X0217111Y0229134D01*
X0218960Y0229134D01*
X0220669Y0229842D01*
X0221977Y0231150D01*
X0222685Y0232859D01*
X0222685Y0234708D01*
X0221977Y0236417D01*
X0220669Y0237725D01*
X0218960Y0238433D01*
X0217111Y0238433D01*
X0215402Y0237725D01*
X0214098Y0236422D01*
X0212795Y0237725D01*
X0211086Y0238433D01*
X0209237Y0238433D01*
X0208642Y0238187D01*
X0208328Y0238500D01*
X0253672Y0238500D01*
X0256919Y0235253D01*
X0256693Y0234708D01*
X0256693Y0232859D01*
X0257401Y0231150D01*
X0258709Y0229842D01*
X0260418Y0229134D01*
X0262267Y0229134D01*
X0263976Y0229842D01*
X0265284Y0231150D01*
X0265500Y0231671D01*
X0265500Y0197988D01*
X0265033Y0198181D01*
X0263967Y0198181D01*
X0262981Y0197773D01*
X0262708Y0197500D01*
X0221672Y0197500D01*
X0220500Y0196328D01*
X0214945Y0190774D01*
X0214806Y0191109D01*
X0213709Y0192206D01*
X0212276Y0192800D01*
X0210724Y0192800D01*
X0209291Y0192206D01*
X0208194Y0191109D01*
X0207600Y0189676D01*
X0207825Y0190219D02*
X0185175Y0190219D01*
X0184698Y0191217D02*
X0208302Y0191217D01*
X0209314Y0192216D02*
X0183686Y0192216D01*
X0179314Y0192216D02*
X0173686Y0192216D01*
X0173500Y0193214D02*
X0199270Y0193214D01*
X0199885Y0192600D02*
X0203115Y0192600D01*
X0205400Y0194885D01*
X0205400Y0198115D01*
X0203115Y0200400D01*
X0199885Y0200400D01*
X0197600Y0198115D01*
X0197600Y0194885D01*
X0199885Y0192600D01*
X0198272Y0194213D02*
X0173500Y0194213D01*
X0174040Y0195211D02*
X0197600Y0195211D01*
X0197600Y0196210D02*
X0175038Y0196210D01*
X0176037Y0197208D02*
X0197600Y0197208D01*
X0197691Y0198207D02*
X0177035Y0198207D01*
X0178034Y0199205D02*
X0198690Y0199205D01*
X0199688Y0200204D02*
X0179032Y0200204D01*
X0180031Y0201202D02*
X0265500Y0201202D01*
X0265500Y0200204D02*
X0203312Y0200204D01*
X0204310Y0199205D02*
X0265500Y0199205D01*
X0265500Y0198207D02*
X0205309Y0198207D01*
X0205400Y0197208D02*
X0221380Y0197208D01*
X0220381Y0196210D02*
X0205400Y0196210D01*
X0205400Y0195211D02*
X0219383Y0195211D01*
X0218384Y0194213D02*
X0204728Y0194213D01*
X0203730Y0193214D02*
X0217386Y0193214D01*
X0216387Y0192216D02*
X0213686Y0192216D01*
X0214698Y0191217D02*
X0215389Y0191217D01*
X0207600Y0185226D02*
X0185400Y0185226D01*
X0185400Y0184228D02*
X0207600Y0184228D01*
X0207639Y0183229D02*
X0185361Y0183229D01*
X0184947Y0182231D02*
X0208053Y0182231D01*
X0204075Y0181232D02*
X0198925Y0181232D01*
X0200262Y0180234D02*
X0202738Y0180234D01*
X0201896Y0179235D02*
X0201104Y0179235D01*
X0201302Y0174242D02*
X0201698Y0174242D01*
X0202261Y0173244D02*
X0200739Y0173244D01*
X0199741Y0172245D02*
X0203259Y0172245D01*
X0205332Y0171247D02*
X0197668Y0171247D01*
X0195332Y0171247D02*
X0187668Y0171247D01*
X0189741Y0172245D02*
X0193259Y0172245D01*
X0192261Y0173244D02*
X0190739Y0173244D01*
X0191302Y0174242D02*
X0191698Y0174242D01*
X0191896Y0179235D02*
X0191104Y0179235D01*
X0190262Y0180234D02*
X0192738Y0180234D01*
X0194075Y0181232D02*
X0188925Y0181232D01*
X0181698Y0174242D02*
X0181302Y0174242D01*
X0180739Y0173244D02*
X0182261Y0173244D01*
X0183259Y0172245D02*
X0179741Y0172245D01*
X0177668Y0171247D02*
X0185332Y0171247D01*
X0175332Y0171247D02*
X0167668Y0171247D01*
X0169741Y0172245D02*
X0173259Y0172245D01*
X0172261Y0173244D02*
X0170739Y0173244D01*
X0171302Y0174242D02*
X0171698Y0174242D01*
X0165332Y0171247D02*
X0157668Y0171247D01*
X0159741Y0172245D02*
X0163259Y0172245D01*
X0162261Y0173244D02*
X0160739Y0173244D01*
X0161302Y0174242D02*
X0161698Y0174242D01*
X0155332Y0171247D02*
X0154075Y0171247D01*
X0153077Y0170248D02*
X0273500Y0170248D01*
X0273500Y0169250D02*
X0152078Y0169250D01*
X0151080Y0168251D02*
X0273500Y0168251D01*
X0273500Y0167253D02*
X0150081Y0167253D01*
X0149083Y0166254D02*
X0273500Y0166254D01*
X0273500Y0165256D02*
X0148084Y0165256D01*
X0147086Y0164257D02*
X0273500Y0164257D01*
X0273500Y0163259D02*
X0146087Y0163259D01*
X0145089Y0162260D02*
X0273500Y0162260D01*
X0273500Y0161262D02*
X0144090Y0161262D01*
X0143092Y0160263D02*
X0273500Y0160263D01*
X0273500Y0159265D02*
X0142093Y0159265D01*
X0141095Y0158266D02*
X0273500Y0158266D01*
X0273500Y0157268D02*
X0140096Y0157268D01*
X0139098Y0156269D02*
X0273500Y0156269D01*
X0273500Y0155271D02*
X0138099Y0155271D01*
X0137101Y0154272D02*
X0273500Y0154272D01*
X0273500Y0153274D02*
X0136102Y0153274D01*
X0135104Y0152275D02*
X0273500Y0152275D01*
X0273500Y0151277D02*
X0134105Y0151277D01*
X0133107Y0150278D02*
X0273500Y0150278D01*
X0273500Y0149280D02*
X0132181Y0149280D01*
X0131897Y0148281D02*
X0273500Y0148281D01*
X0273500Y0147283D02*
X0131074Y0147283D01*
X0130544Y0146284D02*
X0273456Y0146284D01*
X0272457Y0145286D02*
X0131543Y0145286D01*
X0132541Y0144287D02*
X0271459Y0144287D01*
X0270460Y0143289D02*
X0133540Y0143289D01*
X0134538Y0142290D02*
X0269462Y0142290D01*
X0268463Y0141292D02*
X0135537Y0141292D01*
X0136535Y0140293D02*
X0267465Y0140293D01*
X0266466Y0139295D02*
X0137534Y0139295D01*
X0138532Y0138296D02*
X0265468Y0138296D01*
X0264469Y0137298D02*
X0139531Y0137298D01*
X0140529Y0136299D02*
X0263471Y0136299D01*
X0262472Y0135301D02*
X0141528Y0135301D01*
X0142526Y0134302D02*
X0261474Y0134302D01*
X0260475Y0133303D02*
X0143525Y0133303D01*
X0144523Y0132305D02*
X0259477Y0132305D01*
X0258478Y0131306D02*
X0145522Y0131306D01*
X0146520Y0130308D02*
X0257480Y0130308D01*
X0256481Y0129309D02*
X0147519Y0129309D01*
X0148517Y0128311D02*
X0255483Y0128311D01*
X0254484Y0127312D02*
X0149516Y0127312D01*
X0150514Y0126314D02*
X0253486Y0126314D01*
X0252487Y0125315D02*
X0151513Y0125315D01*
X0137500Y0110500D02*
X0210500Y0110500D01*
X0216500Y0116500D01*
X0219830Y0112335D02*
X0223170Y0112335D01*
X0222171Y0113333D02*
X0220829Y0113333D01*
X0221339Y0114332D02*
X0221661Y0114332D01*
X0225117Y0111336D02*
X0217883Y0111336D01*
X0215117Y0111336D02*
X0214165Y0111336D01*
X0213166Y0110338D02*
X0282496Y0110338D01*
X0282496Y0111336D02*
X0267883Y0111336D01*
X0269830Y0112335D02*
X0282496Y0112335D01*
X0282496Y0113333D02*
X0270829Y0113333D01*
X0271339Y0114332D02*
X0282496Y0114332D01*
X0282496Y0115330D02*
X0271752Y0115330D01*
X0271800Y0116329D02*
X0282496Y0116329D01*
X0282496Y0117327D02*
X0271800Y0117327D01*
X0271480Y0118326D02*
X0282496Y0118326D01*
X0282496Y0119324D02*
X0271067Y0119324D01*
X0270172Y0120323D02*
X0282496Y0120323D01*
X0282496Y0121321D02*
X0268710Y0121321D01*
X0264290Y0121321D02*
X0258710Y0121321D01*
X0260172Y0120323D02*
X0262828Y0120323D01*
X0261933Y0119324D02*
X0261067Y0119324D01*
X0261480Y0118326D02*
X0261520Y0118326D01*
X0261661Y0114332D02*
X0261339Y0114332D01*
X0260829Y0113333D02*
X0262171Y0113333D01*
X0263170Y0112335D02*
X0259830Y0112335D01*
X0257883Y0111336D02*
X0265117Y0111336D01*
X0265724Y0105200D02*
X0264291Y0104606D01*
X0263194Y0103509D01*
X0262600Y0102076D01*
X0262600Y0095724D01*
X0263194Y0094291D01*
X0264291Y0093194D01*
X0265724Y0092600D01*
X0267276Y0092600D01*
X0268709Y0093194D01*
X0269806Y0094291D01*
X0270400Y0095724D01*
X0270400Y0102076D01*
X0269806Y0103509D01*
X0268709Y0104606D01*
X0267276Y0105200D01*
X0265724Y0105200D01*
X0264031Y0104347D02*
X0258969Y0104347D01*
X0259873Y0103348D02*
X0263127Y0103348D01*
X0262713Y0102350D02*
X0260287Y0102350D01*
X0260400Y0101351D02*
X0262600Y0101351D01*
X0262600Y0100353D02*
X0260400Y0100353D01*
X0260400Y0099354D02*
X0262600Y0099354D01*
X0262600Y0098356D02*
X0260400Y0098356D01*
X0260400Y0097357D02*
X0262600Y0097357D01*
X0262600Y0096359D02*
X0260400Y0096359D01*
X0260249Y0095360D02*
X0262751Y0095360D01*
X0263164Y0094362D02*
X0259836Y0094362D01*
X0258878Y0093363D02*
X0264122Y0093363D01*
X0268878Y0093363D02*
X0274122Y0093363D01*
X0274291Y0093194D02*
X0275724Y0092600D01*
X0277276Y0092600D01*
X0278709Y0093194D01*
X0279806Y0094291D01*
X0280400Y0095724D01*
X0280400Y0102076D01*
X0279806Y0103509D01*
X0278709Y0104606D01*
X0277276Y0105200D01*
X0275724Y0105200D01*
X0274291Y0104606D01*
X0273194Y0103509D01*
X0272600Y0102076D01*
X0272600Y0095724D01*
X0273194Y0094291D01*
X0274291Y0093194D01*
X0273164Y0094362D02*
X0269836Y0094362D01*
X0270249Y0095360D02*
X0272751Y0095360D01*
X0272600Y0096359D02*
X0270400Y0096359D01*
X0270400Y0097357D02*
X0272600Y0097357D01*
X0272600Y0098356D02*
X0270400Y0098356D01*
X0270400Y0099354D02*
X0272600Y0099354D01*
X0272600Y0100353D02*
X0270400Y0100353D01*
X0270400Y0101351D02*
X0272600Y0101351D01*
X0272713Y0102350D02*
X0270287Y0102350D01*
X0269873Y0103348D02*
X0273127Y0103348D01*
X0274031Y0104347D02*
X0268969Y0104347D01*
X0278969Y0104347D02*
X0282496Y0104347D01*
X0282496Y0105345D02*
X0135174Y0105345D01*
X0136172Y0106344D02*
X0282496Y0106344D01*
X0282496Y0107342D02*
X0137171Y0107342D01*
X0138169Y0108341D02*
X0282496Y0108341D01*
X0282496Y0109339D02*
X0212168Y0109339D01*
X0212500Y0103500D02*
X0148500Y0103500D01*
X0141500Y0096500D01*
X0141800Y0096359D02*
X0147600Y0096359D01*
X0147600Y0097357D02*
X0145400Y0097357D01*
X0145400Y0096800D02*
X0145400Y0099284D01*
X0145250Y0100038D01*
X0144956Y0100747D01*
X0144529Y0101386D01*
X0143986Y0101929D01*
X0143347Y0102356D01*
X0142638Y0102650D01*
X0141884Y0102800D01*
X0141800Y0102800D01*
X0141800Y0096800D01*
X0145400Y0096800D01*
X0145400Y0096200D02*
X0141800Y0096200D01*
X0141800Y0096800D01*
X0141200Y0096800D01*
X0141200Y0102800D01*
X0141116Y0102800D01*
X0140362Y0102650D01*
X0139653Y0102356D01*
X0139014Y0101929D01*
X0138471Y0101386D01*
X0138044Y0100747D01*
X0137750Y0100038D01*
X0137600Y0099284D01*
X0137600Y0096800D01*
X0141200Y0096800D01*
X0141200Y0096200D01*
X0141800Y0096200D01*
X0141800Y0090200D01*
X0141884Y0090200D01*
X0142638Y0090350D01*
X0143347Y0090644D01*
X0143986Y0091071D01*
X0144529Y0091614D01*
X0144956Y0092253D01*
X0145250Y0092962D01*
X0145400Y0093716D01*
X0145400Y0096200D01*
X0145400Y0095360D02*
X0147600Y0095360D01*
X0147600Y0094362D02*
X0145400Y0094362D01*
X0145330Y0093363D02*
X0147600Y0093363D01*
X0147600Y0093324D02*
X0148194Y0091891D01*
X0149291Y0090794D01*
X0150724Y0090200D01*
X0152276Y0090200D01*
X0153709Y0090794D01*
X0154806Y0091891D01*
X0155400Y0093324D01*
X0155400Y0099676D01*
X0154806Y0101109D01*
X0153709Y0102206D01*
X0152276Y0102800D01*
X0150724Y0102800D01*
X0149291Y0102206D01*
X0148194Y0101109D01*
X0147600Y0099676D01*
X0147600Y0093324D01*
X0147998Y0092365D02*
X0145002Y0092365D01*
X0144281Y0091366D02*
X0148719Y0091366D01*
X0150320Y0090368D02*
X0142680Y0090368D01*
X0141800Y0090368D02*
X0141200Y0090368D01*
X0141200Y0090200D02*
X0141200Y0096200D01*
X0137600Y0096200D01*
X0137600Y0093716D01*
X0137750Y0092962D01*
X0138044Y0092253D01*
X0138471Y0091614D01*
X0139014Y0091071D01*
X0139653Y0090644D01*
X0140362Y0090350D01*
X0141116Y0090200D01*
X0141200Y0090200D01*
X0140320Y0090368D02*
X0132680Y0090368D01*
X0134281Y0091366D02*
X0138719Y0091366D01*
X0137998Y0092365D02*
X0135002Y0092365D01*
X0135400Y0093363D02*
X0137670Y0093363D01*
X0137600Y0094362D02*
X0135400Y0094362D01*
X0135400Y0095360D02*
X0137600Y0095360D01*
X0137600Y0097357D02*
X0135400Y0097357D01*
X0135400Y0096359D02*
X0141200Y0096359D01*
X0141200Y0097357D02*
X0141800Y0097357D01*
X0141800Y0098356D02*
X0141200Y0098356D01*
X0141200Y0099354D02*
X0141800Y0099354D01*
X0141800Y0100353D02*
X0141200Y0100353D01*
X0141200Y0101351D02*
X0141800Y0101351D01*
X0141800Y0102350D02*
X0141200Y0102350D01*
X0139643Y0102350D02*
X0133363Y0102350D01*
X0133177Y0103348D02*
X0243127Y0103348D01*
X0243194Y0103509D02*
X0242600Y0102076D01*
X0242600Y0095724D01*
X0243194Y0094291D01*
X0244291Y0093194D01*
X0245724Y0092600D01*
X0247276Y0092600D01*
X0248709Y0093194D01*
X0249806Y0094291D01*
X0250400Y0095724D01*
X0250400Y0102076D01*
X0249806Y0103509D01*
X0248709Y0104606D01*
X0247276Y0105200D01*
X0245724Y0105200D01*
X0244291Y0104606D01*
X0243194Y0103509D01*
X0244031Y0104347D02*
X0134175Y0104347D01*
X0134564Y0101351D02*
X0138447Y0101351D01*
X0137880Y0100353D02*
X0135120Y0100353D01*
X0135400Y0099354D02*
X0137614Y0099354D01*
X0137600Y0098356D02*
X0135400Y0098356D01*
X0141200Y0095360D02*
X0141800Y0095360D01*
X0141800Y0094362D02*
X0141200Y0094362D01*
X0141200Y0093363D02*
X0141800Y0093363D01*
X0141800Y0092365D02*
X0141200Y0092365D01*
X0141200Y0091366D02*
X0141800Y0091366D01*
X0145400Y0098356D02*
X0147600Y0098356D01*
X0147600Y0099354D02*
X0145386Y0099354D01*
X0145120Y0100353D02*
X0147880Y0100353D01*
X0148436Y0101351D02*
X0144553Y0101351D01*
X0143357Y0102350D02*
X0149637Y0102350D01*
X0153363Y0102350D02*
X0159637Y0102350D01*
X0158436Y0101351D02*
X0154564Y0101351D01*
X0155120Y0100353D02*
X0157880Y0100353D01*
X0157600Y0099354D02*
X0155400Y0099354D01*
X0155400Y0098356D02*
X0157600Y0098356D01*
X0157600Y0097357D02*
X0155400Y0097357D01*
X0155400Y0096359D02*
X0157600Y0096359D01*
X0157600Y0095360D02*
X0155400Y0095360D01*
X0155400Y0094362D02*
X0157600Y0094362D01*
X0157600Y0093363D02*
X0155400Y0093363D01*
X0155002Y0092365D02*
X0157998Y0092365D01*
X0158719Y0091366D02*
X0154281Y0091366D01*
X0152680Y0090368D02*
X0160320Y0090368D01*
X0162680Y0090368D02*
X0166804Y0090368D01*
X0165806Y0091366D02*
X0164281Y0091366D01*
X0167803Y0089369D02*
X0113459Y0089369D01*
X0112680Y0090368D02*
X0120320Y0090368D01*
X0118719Y0091366D02*
X0114281Y0091366D01*
X0115002Y0092365D02*
X0117998Y0092365D01*
X0117600Y0093363D02*
X0115400Y0093363D01*
X0115400Y0094362D02*
X0117600Y0094362D01*
X0117600Y0095360D02*
X0115400Y0095360D01*
X0115400Y0096359D02*
X0117600Y0096359D01*
X0117600Y0097357D02*
X0115400Y0097357D01*
X0115400Y0098356D02*
X0117600Y0098356D01*
X0117600Y0099354D02*
X0115400Y0099354D01*
X0115120Y0100353D02*
X0117880Y0100353D01*
X0118436Y0101351D02*
X0114564Y0101351D01*
X0113500Y0102350D02*
X0119637Y0102350D01*
X0123363Y0102350D02*
X0126521Y0102350D01*
X0127520Y0103348D02*
X0113500Y0103348D01*
X0113482Y0104347D02*
X0128518Y0104347D01*
X0129517Y0105345D02*
X0112483Y0105345D01*
X0111485Y0106344D02*
X0130515Y0106344D01*
X0131514Y0107342D02*
X0110486Y0107342D01*
X0109488Y0108341D02*
X0132512Y0108341D01*
X0133511Y0109339D02*
X0108489Y0109339D01*
X0107491Y0110338D02*
X0134509Y0110338D01*
X0135117Y0111336D02*
X0127883Y0111336D01*
X0129830Y0112335D02*
X0133170Y0112335D01*
X0132171Y0113333D02*
X0130829Y0113333D01*
X0131339Y0114332D02*
X0131661Y0114332D01*
X0137500Y0110500D02*
X0123500Y0096500D01*
X0121500Y0096500D01*
X0125400Y0095360D02*
X0127600Y0095360D01*
X0127600Y0094362D02*
X0125400Y0094362D01*
X0125400Y0093363D02*
X0127600Y0093363D01*
X0127998Y0092365D02*
X0125002Y0092365D01*
X0124281Y0091366D02*
X0128719Y0091366D01*
X0130320Y0090368D02*
X0122680Y0090368D01*
X0126187Y0096359D02*
X0127600Y0096359D01*
X0127600Y0097357D02*
X0127185Y0097357D01*
X0125523Y0101351D02*
X0124564Y0101351D01*
X0125117Y0111336D02*
X0117883Y0111336D01*
X0119830Y0112335D02*
X0123170Y0112335D01*
X0122171Y0113333D02*
X0120829Y0113333D01*
X0121339Y0114332D02*
X0121661Y0114332D01*
X0115117Y0111336D02*
X0107883Y0111336D01*
X0109830Y0112335D02*
X0113170Y0112335D01*
X0112171Y0113333D02*
X0110829Y0113333D01*
X0111339Y0114332D02*
X0111661Y0114332D01*
X0111500Y0103500D02*
X0099500Y0115500D01*
X0099500Y0172500D01*
X0103500Y0176500D01*
X0106500Y0176500D01*
X0111302Y0174242D02*
X0111698Y0174242D01*
X0112261Y0173244D02*
X0110739Y0173244D01*
X0109741Y0172245D02*
X0113259Y0172245D01*
X0115332Y0171247D02*
X0107668Y0171247D01*
X0100411Y0176239D02*
X0052606Y0176239D01*
X0052606Y0175241D02*
X0099413Y0175241D01*
X0098414Y0174242D02*
X0045307Y0174242D01*
X0045307Y0174110D02*
X0045307Y0175110D01*
X0052606Y0175110D01*
X0052606Y0177841D01*
X0048038Y0182409D01*
X0045307Y0182409D01*
X0045307Y0175110D01*
X0044307Y0175110D01*
X0044307Y0174110D01*
X0045307Y0174110D01*
X0045307Y0166811D01*
X0048038Y0166811D01*
X0052606Y0171380D01*
X0052606Y0174110D01*
X0045307Y0174110D01*
X0044807Y0174610D02*
X0045500Y0175500D01*
X0050500Y0170500D01*
X0096500Y0216500D01*
X0096800Y0216800D02*
X0100400Y0216800D01*
X0100400Y0218115D01*
X0098115Y0220400D01*
X0096800Y0220400D01*
X0096800Y0216800D01*
X0096800Y0216200D01*
X0100400Y0216200D01*
X0100400Y0214885D01*
X0098115Y0212600D01*
X0096800Y0212600D01*
X0096800Y0216200D01*
X0096200Y0216200D01*
X0096200Y0212600D01*
X0094885Y0212600D01*
X0092600Y0214885D01*
X0092600Y0216200D01*
X0096200Y0216200D01*
X0096200Y0216800D01*
X0096200Y0220400D01*
X0094885Y0220400D01*
X0092600Y0218115D01*
X0092600Y0216800D01*
X0096200Y0216800D01*
X0096800Y0216800D01*
X0096800Y0217178D02*
X0096200Y0217178D01*
X0096200Y0216180D02*
X0096800Y0216180D01*
X0096800Y0215181D02*
X0096200Y0215181D01*
X0096200Y0214183D02*
X0096800Y0214183D01*
X0096800Y0213184D02*
X0096200Y0213184D01*
X0094300Y0213184D02*
X0088700Y0213184D01*
X0088115Y0212600D02*
X0090400Y0214885D01*
X0090400Y0218115D01*
X0088115Y0220400D01*
X0084885Y0220400D01*
X0082600Y0218115D01*
X0082600Y0214885D01*
X0084885Y0212600D01*
X0088115Y0212600D01*
X0089698Y0214183D02*
X0093302Y0214183D01*
X0092600Y0215181D02*
X0090400Y0215181D01*
X0090400Y0216180D02*
X0092600Y0216180D01*
X0092600Y0217178D02*
X0090400Y0217178D01*
X0090338Y0218177D02*
X0092662Y0218177D01*
X0093660Y0219175D02*
X0089340Y0219175D01*
X0088341Y0220174D02*
X0094659Y0220174D01*
X0096200Y0220174D02*
X0096800Y0220174D01*
X0096800Y0219175D02*
X0096200Y0219175D01*
X0096200Y0218177D02*
X0096800Y0218177D01*
X0098341Y0220174D02*
X0107806Y0220174D01*
X0107600Y0219676D02*
X0108194Y0221109D01*
X0109291Y0222206D01*
X0110724Y0222800D01*
X0112276Y0222800D01*
X0113709Y0222206D01*
X0114806Y0221109D01*
X0115400Y0219676D01*
X0115400Y0213324D01*
X0114806Y0211891D01*
X0113709Y0210794D01*
X0112276Y0210200D01*
X0110724Y0210200D01*
X0109291Y0210794D01*
X0108194Y0211891D01*
X0107600Y0213324D01*
X0107600Y0219676D01*
X0107600Y0219175D02*
X0099340Y0219175D01*
X0100338Y0218177D02*
X0107600Y0218177D01*
X0107600Y0217178D02*
X0100400Y0217178D01*
X0100400Y0216180D02*
X0107600Y0216180D01*
X0107600Y0215181D02*
X0100400Y0215181D01*
X0099698Y0214183D02*
X0107600Y0214183D01*
X0107658Y0213184D02*
X0098700Y0213184D01*
X0108072Y0212186D02*
X0003968Y0212186D01*
X0003968Y0213184D02*
X0084300Y0213184D01*
X0083302Y0214183D02*
X0003968Y0214183D01*
X0003968Y0215181D02*
X0082600Y0215181D01*
X0082600Y0216180D02*
X0003968Y0216180D01*
X0003968Y0217178D02*
X0082600Y0217178D01*
X0082662Y0218177D02*
X0003968Y0218177D01*
X0003968Y0219175D02*
X0083660Y0219175D01*
X0084659Y0220174D02*
X0003968Y0220174D01*
X0003968Y0221172D02*
X0108257Y0221172D01*
X0109256Y0222171D02*
X0003968Y0222171D01*
X0003968Y0223170D02*
X0125500Y0223170D01*
X0125500Y0224168D02*
X0003968Y0224168D01*
X0003968Y0225167D02*
X0125500Y0225167D01*
X0125500Y0226165D02*
X0003968Y0226165D01*
X0003968Y0227164D02*
X0125500Y0227164D01*
X0125500Y0228162D02*
X0003968Y0228162D01*
X0003968Y0229161D02*
X0087125Y0229161D01*
X0087189Y0229134D02*
X0089039Y0229134D01*
X0090748Y0229842D01*
X0092056Y0231150D01*
X0092092Y0231236D01*
X0092442Y0230754D01*
X0092959Y0230237D01*
X0093551Y0229807D01*
X0094203Y0229475D01*
X0094899Y0229248D01*
X0095622Y0229134D01*
X0095799Y0229134D01*
X0095799Y0233594D01*
X0096177Y0233594D01*
X0096177Y0229134D01*
X0096354Y0229134D01*
X0097077Y0229248D01*
X0097773Y0229475D01*
X0098425Y0229807D01*
X0099017Y0230237D01*
X0099535Y0230754D01*
X0099965Y0231347D01*
X0100297Y0231999D01*
X0100523Y0232695D01*
X0100638Y0233418D01*
X0100638Y0233594D01*
X0096177Y0233594D01*
X0096177Y0233972D01*
X0100638Y0233972D01*
X0100638Y0234149D01*
X0100523Y0234872D01*
X0100297Y0235568D01*
X0099965Y0236220D01*
X0099535Y0236812D01*
X0099017Y0237330D01*
X0098425Y0237760D01*
X0097773Y0238092D01*
X0097077Y0238319D01*
X0096354Y0238433D01*
X0096177Y0238433D01*
X0096177Y0233973D01*
X0095799Y0233973D01*
X0095799Y0238433D01*
X0095622Y0238433D01*
X0094899Y0238319D01*
X0094203Y0238092D01*
X0093551Y0237760D01*
X0092959Y0237330D01*
X0092442Y0236812D01*
X0092092Y0236331D01*
X0092056Y0236417D01*
X0090748Y0237725D01*
X0089039Y0238433D01*
X0087189Y0238433D01*
X0085480Y0237725D01*
X0084172Y0236417D01*
X0083465Y0234708D01*
X0083465Y0232859D01*
X0084172Y0231150D01*
X0085480Y0229842D01*
X0087189Y0229134D01*
X0089104Y0229161D02*
X0095454Y0229161D01*
X0095799Y0229161D02*
X0096177Y0229161D01*
X0096523Y0229161D02*
X0110747Y0229161D01*
X0112726Y0229161D02*
X0119076Y0229161D01*
X0119421Y0229161D02*
X0119799Y0229161D01*
X0120145Y0229161D02*
X0125500Y0229161D01*
X0124533Y0230159D02*
X0122532Y0230159D01*
X0123450Y0231158D02*
X0123539Y0231158D01*
X0119799Y0231158D02*
X0119421Y0231158D01*
X0119421Y0232156D02*
X0119799Y0232156D01*
X0119799Y0233155D02*
X0119421Y0233155D01*
X0119500Y0233500D02*
X0119610Y0233783D01*
X0119500Y0233500D02*
X0115500Y0229500D01*
X0114500Y0228500D01*
X0101500Y0228500D01*
X0096500Y0233500D01*
X0095988Y0233783D01*
X0095799Y0234153D02*
X0096177Y0234153D01*
X0096177Y0233155D02*
X0095799Y0233155D01*
X0095799Y0232156D02*
X0096177Y0232156D01*
X0096177Y0231158D02*
X0095799Y0231158D01*
X0095799Y0230159D02*
X0096177Y0230159D01*
X0098910Y0230159D02*
X0108785Y0230159D01*
X0107791Y0231158D02*
X0099828Y0231158D01*
X0100348Y0232156D02*
X0107378Y0232156D01*
X0107087Y0233155D02*
X0100596Y0233155D01*
X0100637Y0234153D02*
X0107087Y0234153D01*
X0107270Y0235152D02*
X0100433Y0235152D01*
X0100001Y0236150D02*
X0107684Y0236150D01*
X0108526Y0237149D02*
X0099198Y0237149D01*
X0097604Y0238147D02*
X0110121Y0238147D01*
X0114317Y0239146D02*
X0003968Y0239146D01*
X0003968Y0240144D02*
X0115316Y0240144D01*
X0116314Y0241143D02*
X0003968Y0241143D01*
X0003968Y0242141D02*
X0117313Y0242141D01*
X0118311Y0243140D02*
X0003968Y0243140D01*
X0003968Y0244138D02*
X0119310Y0244138D01*
X0120308Y0245137D02*
X0003968Y0245137D01*
X0003968Y0246135D02*
X0121307Y0246135D01*
X0122305Y0247134D02*
X0003968Y0247134D01*
X0003968Y0248132D02*
X0123304Y0248132D01*
X0124302Y0249131D02*
X0003968Y0249131D01*
X0003968Y0250129D02*
X0125301Y0250129D01*
X0126299Y0251128D02*
X0003968Y0251128D01*
X0003968Y0252126D02*
X0127298Y0252126D01*
X0128296Y0253125D02*
X0003968Y0253125D01*
X0003968Y0254123D02*
X0129295Y0254123D01*
X0130293Y0255122D02*
X0003968Y0255122D01*
X0003968Y0256120D02*
X0131292Y0256120D01*
X0132290Y0257119D02*
X0003968Y0257119D01*
X0003968Y0258117D02*
X0176289Y0258117D01*
X0177500Y0256500D02*
X0264500Y0256500D01*
X0275500Y0245500D01*
X0275500Y0145500D01*
X0246500Y0116500D01*
X0251339Y0114332D02*
X0251661Y0114332D01*
X0252171Y0113333D02*
X0250829Y0113333D01*
X0249830Y0112335D02*
X0253170Y0112335D01*
X0255117Y0111336D02*
X0247883Y0111336D01*
X0245117Y0111336D02*
X0237883Y0111336D01*
X0239830Y0112335D02*
X0243170Y0112335D01*
X0242171Y0113333D02*
X0240829Y0113333D01*
X0241339Y0114332D02*
X0241661Y0114332D01*
X0241520Y0118326D02*
X0241480Y0118326D01*
X0241067Y0119324D02*
X0241933Y0119324D01*
X0242828Y0120323D02*
X0240172Y0120323D01*
X0238710Y0121321D02*
X0244290Y0121321D01*
X0234290Y0121321D02*
X0228710Y0121321D01*
X0230172Y0120323D02*
X0232828Y0120323D01*
X0231933Y0119324D02*
X0231067Y0119324D01*
X0231480Y0118326D02*
X0231520Y0118326D01*
X0231661Y0114332D02*
X0231339Y0114332D01*
X0230829Y0113333D02*
X0232171Y0113333D01*
X0233170Y0112335D02*
X0229830Y0112335D01*
X0227883Y0111336D02*
X0235117Y0111336D01*
X0242713Y0102350D02*
X0213363Y0102350D01*
X0213709Y0102206D02*
X0212276Y0102800D01*
X0210724Y0102800D01*
X0209291Y0102206D01*
X0208194Y0101109D01*
X0207600Y0099676D01*
X0207600Y0093324D01*
X0208194Y0091891D01*
X0209291Y0090794D01*
X0210724Y0090200D01*
X0212276Y0090200D01*
X0213709Y0090794D01*
X0214806Y0091891D01*
X0215400Y0093324D01*
X0215400Y0099676D01*
X0214806Y0101109D01*
X0213709Y0102206D01*
X0214564Y0101351D02*
X0242600Y0101351D01*
X0242600Y0100353D02*
X0215120Y0100353D01*
X0215400Y0099354D02*
X0242600Y0099354D01*
X0242600Y0098356D02*
X0215400Y0098356D01*
X0215400Y0097357D02*
X0242600Y0097357D01*
X0242600Y0096359D02*
X0215400Y0096359D01*
X0215400Y0095360D02*
X0242751Y0095360D01*
X0243164Y0094362D02*
X0215400Y0094362D01*
X0215400Y0093363D02*
X0244122Y0093363D01*
X0247539Y0090368D02*
X0233148Y0090368D01*
X0233115Y0090400D02*
X0231800Y0090400D01*
X0231800Y0086800D01*
X0231200Y0086800D01*
X0231200Y0090400D01*
X0229885Y0090400D01*
X0227600Y0088115D01*
X0227600Y0086800D01*
X0231200Y0086800D01*
X0231200Y0086200D01*
X0227600Y0086200D01*
X0227600Y0084885D01*
X0229885Y0082600D01*
X0231200Y0082600D01*
X0231200Y0086200D01*
X0231800Y0086200D01*
X0231800Y0086800D01*
X0235400Y0086800D01*
X0235400Y0088115D01*
X0233115Y0090400D01*
X0231800Y0090368D02*
X0231200Y0090368D01*
X0231200Y0089369D02*
X0231800Y0089369D01*
X0231800Y0088370D02*
X0231200Y0088370D01*
X0231200Y0087372D02*
X0231800Y0087372D01*
X0231500Y0086500D02*
X0229500Y0086500D01*
X0212500Y0103500D01*
X0209637Y0102350D02*
X0203363Y0102350D01*
X0203709Y0102206D02*
X0202276Y0102800D01*
X0200724Y0102800D01*
X0199291Y0102206D01*
X0198194Y0101109D01*
X0197600Y0099676D01*
X0197600Y0093324D01*
X0198194Y0091891D01*
X0199291Y0090794D01*
X0200724Y0090200D01*
X0202276Y0090200D01*
X0203709Y0090794D01*
X0204806Y0091891D01*
X0205400Y0093324D01*
X0205400Y0099676D01*
X0204806Y0101109D01*
X0203709Y0102206D01*
X0204564Y0101351D02*
X0208436Y0101351D01*
X0207880Y0100353D02*
X0205120Y0100353D01*
X0205400Y0099354D02*
X0207600Y0099354D01*
X0207600Y0098356D02*
X0205400Y0098356D01*
X0205400Y0097357D02*
X0207600Y0097357D01*
X0207600Y0096359D02*
X0205400Y0096359D01*
X0205400Y0095360D02*
X0207600Y0095360D01*
X0207600Y0094362D02*
X0205400Y0094362D01*
X0205400Y0093363D02*
X0207600Y0093363D01*
X0207998Y0092365D02*
X0205002Y0092365D01*
X0204281Y0091366D02*
X0208719Y0091366D01*
X0210320Y0090368D02*
X0202680Y0090368D01*
X0200320Y0090368D02*
X0192680Y0090368D01*
X0192276Y0090200D02*
X0193709Y0090794D01*
X0194806Y0091891D01*
X0195400Y0093324D01*
X0195400Y0099676D01*
X0194806Y0101109D01*
X0193709Y0102206D01*
X0192276Y0102800D01*
X0190724Y0102800D01*
X0189291Y0102206D01*
X0188194Y0101109D01*
X0187600Y0099676D01*
X0187600Y0093324D01*
X0188194Y0091891D01*
X0189291Y0090794D01*
X0190724Y0090200D01*
X0192276Y0090200D01*
X0190320Y0090368D02*
X0182680Y0090368D01*
X0181459Y0089369D02*
X0228854Y0089369D01*
X0229852Y0090368D02*
X0212680Y0090368D01*
X0214281Y0091366D02*
X0248538Y0091366D01*
X0249536Y0092365D02*
X0215002Y0092365D01*
X0227855Y0088370D02*
X0182458Y0088370D01*
X0183456Y0087372D02*
X0227600Y0087372D01*
X0227600Y0085375D02*
X0185453Y0085375D01*
X0184455Y0086373D02*
X0231200Y0086373D01*
X0231800Y0086373D02*
X0243545Y0086373D01*
X0242547Y0085375D02*
X0235400Y0085375D01*
X0235400Y0084885D02*
X0235400Y0086200D01*
X0231800Y0086200D01*
X0231800Y0082600D01*
X0233115Y0082600D01*
X0235400Y0084885D01*
X0234892Y0084376D02*
X0241548Y0084376D01*
X0240550Y0083378D02*
X0233893Y0083378D01*
X0231800Y0083378D02*
X0231200Y0083378D01*
X0231200Y0084376D02*
X0231800Y0084376D01*
X0231800Y0085375D02*
X0231200Y0085375D01*
X0229107Y0083378D02*
X0187450Y0083378D01*
X0186452Y0084376D02*
X0228108Y0084376D01*
X0229867Y0080382D02*
X0190446Y0080382D01*
X0191445Y0079384D02*
X0228868Y0079384D01*
X0231500Y0076500D02*
X0202500Y0076500D01*
X0197500Y0071500D01*
X0197500Y0055500D01*
X0201500Y0051500D01*
X0195500Y0051500D02*
X0204500Y0042500D01*
X0210500Y0042500D01*
X0226500Y0026500D01*
X0228500Y0022500D02*
X0230500Y0024500D01*
X0230500Y0028500D01*
X0201500Y0057500D01*
X0201500Y0066500D01*
X0205400Y0066403D02*
X0207600Y0066403D01*
X0207600Y0065405D02*
X0205400Y0065405D01*
X0205400Y0064406D02*
X0207600Y0064406D01*
X0207600Y0063408D02*
X0205400Y0063408D01*
X0205021Y0062409D02*
X0207979Y0062409D01*
X0208194Y0061891D02*
X0209291Y0060794D01*
X0210724Y0060200D01*
X0212276Y0060200D01*
X0213709Y0060794D01*
X0214806Y0061891D01*
X0215400Y0063324D01*
X0215400Y0069676D01*
X0214806Y0071109D01*
X0213709Y0072206D01*
X0212276Y0072800D01*
X0210724Y0072800D01*
X0209291Y0072206D01*
X0208194Y0071109D01*
X0207600Y0069676D01*
X0207600Y0063324D01*
X0208194Y0061891D01*
X0208674Y0061411D02*
X0204326Y0061411D01*
X0203500Y0060412D02*
X0210212Y0060412D01*
X0212788Y0060412D02*
X0242812Y0060412D01*
X0242600Y0060924D02*
X0243194Y0059491D01*
X0244291Y0058394D01*
X0245724Y0057800D01*
X0247276Y0057800D01*
X0248709Y0058394D01*
X0249806Y0059491D01*
X0250400Y0060924D01*
X0250400Y0067276D01*
X0249806Y0068709D01*
X0248709Y0069806D01*
X0247276Y0070400D01*
X0245724Y0070400D01*
X0244291Y0069806D01*
X0243194Y0068709D01*
X0242600Y0067276D01*
X0242600Y0060924D01*
X0242600Y0061411D02*
X0214326Y0061411D01*
X0215021Y0062409D02*
X0242600Y0062409D01*
X0242600Y0063408D02*
X0215400Y0063408D01*
X0215400Y0064406D02*
X0242600Y0064406D01*
X0242600Y0065405D02*
X0215400Y0065405D01*
X0215400Y0066403D02*
X0242600Y0066403D01*
X0242652Y0067402D02*
X0215400Y0067402D01*
X0215400Y0068400D02*
X0243066Y0068400D01*
X0243883Y0069399D02*
X0215400Y0069399D01*
X0215101Y0070397D02*
X0245718Y0070397D01*
X0247282Y0070397D02*
X0255718Y0070397D01*
X0255724Y0070400D02*
X0254291Y0069806D01*
X0253194Y0068709D01*
X0252600Y0067276D01*
X0252600Y0060924D01*
X0253194Y0059491D01*
X0254291Y0058394D01*
X0255724Y0057800D01*
X0257276Y0057800D01*
X0258709Y0058394D01*
X0259806Y0059491D01*
X0260400Y0060924D01*
X0260400Y0067276D01*
X0259806Y0068709D01*
X0258709Y0069806D01*
X0257276Y0070400D01*
X0255724Y0070400D01*
X0257282Y0070397D02*
X0265718Y0070397D01*
X0265724Y0070400D02*
X0264291Y0069806D01*
X0263194Y0068709D01*
X0262600Y0067276D01*
X0262600Y0060924D01*
X0263194Y0059491D01*
X0264291Y0058394D01*
X0265724Y0057800D01*
X0267276Y0057800D01*
X0268709Y0058394D01*
X0269806Y0059491D01*
X0270400Y0060924D01*
X0270400Y0067276D01*
X0269806Y0068709D01*
X0268709Y0069806D01*
X0267276Y0070400D01*
X0265724Y0070400D01*
X0267282Y0070397D02*
X0275718Y0070397D01*
X0275724Y0070400D02*
X0274291Y0069806D01*
X0273194Y0068709D01*
X0272600Y0067276D01*
X0272600Y0060924D01*
X0273194Y0059491D01*
X0274291Y0058394D01*
X0275724Y0057800D01*
X0277276Y0057800D01*
X0278709Y0058394D01*
X0279806Y0059491D01*
X0280400Y0060924D01*
X0280400Y0067276D01*
X0279806Y0068709D01*
X0278709Y0069806D01*
X0277276Y0070400D01*
X0275724Y0070400D01*
X0277282Y0070397D02*
X0282496Y0070397D01*
X0282496Y0069399D02*
X0279117Y0069399D01*
X0279934Y0068400D02*
X0282496Y0068400D01*
X0282496Y0067402D02*
X0280348Y0067402D01*
X0280400Y0066403D02*
X0282496Y0066403D01*
X0282496Y0065405D02*
X0280400Y0065405D01*
X0280400Y0064406D02*
X0282496Y0064406D01*
X0282496Y0063408D02*
X0280400Y0063408D01*
X0280400Y0062409D02*
X0282496Y0062409D01*
X0282496Y0061411D02*
X0280400Y0061411D01*
X0280188Y0060412D02*
X0282496Y0060412D01*
X0282496Y0059414D02*
X0279729Y0059414D01*
X0278731Y0058415D02*
X0282496Y0058415D01*
X0282496Y0057417D02*
X0204412Y0057417D01*
X0203500Y0058415D02*
X0244269Y0058415D01*
X0243271Y0059414D02*
X0203500Y0059414D01*
X0205410Y0056418D02*
X0214785Y0056418D01*
X0213066Y0055420D02*
X0206409Y0055420D01*
X0207407Y0054421D02*
X0212082Y0054421D01*
X0211668Y0053423D02*
X0208406Y0053423D01*
X0209404Y0052424D02*
X0211300Y0052424D01*
X0211300Y0051426D02*
X0210403Y0051426D01*
X0216500Y0051500D02*
X0230500Y0051500D01*
X0244500Y0037500D01*
X0260500Y0037500D01*
X0261343Y0036933D01*
X0264437Y0033452D02*
X0282496Y0033452D01*
X0282496Y0032454D02*
X0262679Y0032454D01*
X0260006Y0032454D02*
X0229375Y0032454D01*
X0230373Y0031455D02*
X0282496Y0031455D01*
X0282496Y0030457D02*
X0231372Y0030457D01*
X0232370Y0029458D02*
X0243943Y0029458D01*
X0246500Y0026500D02*
X0235500Y0026500D01*
X0229500Y0020500D01*
X0220500Y0020500D01*
X0206500Y0034500D01*
X0206224Y0035161D01*
X0202356Y0032454D02*
X0202218Y0032454D01*
X0201220Y0031455D02*
X0203355Y0031455D01*
X0207715Y0030457D02*
X0141285Y0030457D01*
X0140287Y0029458D02*
X0208713Y0029458D01*
X0209712Y0028460D02*
X0139288Y0028460D01*
X0138290Y0027461D02*
X0210710Y0027461D01*
X0211709Y0026463D02*
X0137291Y0026463D01*
X0136293Y0025464D02*
X0212707Y0025464D01*
X0213706Y0024466D02*
X0135294Y0024466D01*
X0134296Y0023467D02*
X0214704Y0023467D01*
X0215703Y0022469D02*
X0133297Y0022469D01*
X0131500Y0023500D02*
X0061500Y0023500D01*
X0059500Y0025500D01*
X0059500Y0030500D01*
X0068500Y0039500D01*
X0069020Y0039807D01*
X0072327Y0042439D02*
X0072500Y0042439D01*
X0072500Y0043437D02*
X0071329Y0043437D01*
X0072500Y0044436D02*
X0003968Y0044436D01*
X0003968Y0045434D02*
X0072500Y0045434D01*
X0072605Y0046433D02*
X0071585Y0046433D01*
X0070759Y0045607D02*
X0067280Y0045607D01*
X0064820Y0048067D01*
X0064820Y0051547D01*
X0067280Y0054007D01*
X0070759Y0054007D01*
X0073220Y0051547D01*
X0073220Y0048067D01*
X0070759Y0045607D01*
X0072584Y0047432D02*
X0073603Y0047432D01*
X0073220Y0048430D02*
X0074602Y0048430D01*
X0074820Y0049429D02*
X0073220Y0049429D01*
X0073220Y0050427D02*
X0074745Y0050427D01*
X0073746Y0051426D02*
X0073220Y0051426D01*
X0072747Y0052424D02*
X0072342Y0052424D01*
X0071749Y0053423D02*
X0071344Y0053423D01*
X0070750Y0054421D02*
X0003968Y0054421D01*
X0003968Y0053423D02*
X0056695Y0053423D01*
X0057280Y0054007D02*
X0054820Y0051547D01*
X0054820Y0048067D01*
X0057280Y0045607D01*
X0060759Y0045607D01*
X0063220Y0048067D01*
X0063220Y0051547D01*
X0060759Y0054007D01*
X0057280Y0054007D01*
X0055697Y0052424D02*
X0003968Y0052424D01*
X0003968Y0051426D02*
X0054820Y0051426D01*
X0054820Y0050427D02*
X0003968Y0050427D01*
X0003968Y0049429D02*
X0054820Y0049429D01*
X0054820Y0048430D02*
X0003968Y0048430D01*
X0003968Y0047432D02*
X0055456Y0047432D01*
X0056454Y0046433D02*
X0003968Y0046433D01*
X0003968Y0043437D02*
X0056710Y0043437D01*
X0057280Y0044007D02*
X0054820Y0041547D01*
X0054820Y0038067D01*
X0057280Y0035607D01*
X0060759Y0035607D01*
X0063220Y0038067D01*
X0063220Y0041547D01*
X0060759Y0044007D01*
X0057280Y0044007D01*
X0055712Y0042439D02*
X0003968Y0042439D01*
X0003968Y0041440D02*
X0054820Y0041440D01*
X0054820Y0040442D02*
X0003968Y0040442D01*
X0003968Y0039443D02*
X0054820Y0039443D01*
X0054820Y0038445D02*
X0003968Y0038445D01*
X0003968Y0037446D02*
X0055441Y0037446D01*
X0056439Y0036448D02*
X0003968Y0036448D01*
X0003968Y0035449D02*
X0061621Y0035449D01*
X0061600Y0036448D02*
X0062619Y0036448D01*
X0062599Y0037446D02*
X0063618Y0037446D01*
X0063220Y0038445D02*
X0064617Y0038445D01*
X0064820Y0039443D02*
X0063220Y0039443D01*
X0063220Y0040442D02*
X0064820Y0040442D01*
X0064820Y0041440D02*
X0063220Y0041440D01*
X0062327Y0042439D02*
X0065712Y0042439D01*
X0066710Y0043437D02*
X0061329Y0043437D01*
X0061585Y0046433D02*
X0066454Y0046433D01*
X0065456Y0047432D02*
X0062584Y0047432D01*
X0063220Y0048430D02*
X0064820Y0048430D01*
X0064820Y0049429D02*
X0063220Y0049429D01*
X0063220Y0050427D02*
X0064820Y0050427D01*
X0064820Y0051426D02*
X0063220Y0051426D01*
X0062342Y0052424D02*
X0065697Y0052424D01*
X0066695Y0053423D02*
X0061344Y0053423D01*
X0066756Y0058415D02*
X0003968Y0058415D01*
X0003968Y0057417D02*
X0067755Y0057417D01*
X0068753Y0056418D02*
X0003968Y0056418D01*
X0003968Y0055420D02*
X0069752Y0055420D01*
X0072413Y0058415D02*
X0073756Y0058415D01*
X0073412Y0057417D02*
X0074755Y0057417D01*
X0074410Y0056418D02*
X0075753Y0056418D01*
X0075409Y0055420D02*
X0076752Y0055420D01*
X0076407Y0054421D02*
X0077750Y0054421D01*
X0078165Y0054007D02*
X0077280Y0054007D01*
X0077051Y0053778D01*
X0053450Y0077378D01*
X0056000Y0077378D01*
X0059222Y0078713D01*
X0061689Y0081179D01*
X0063024Y0084402D01*
X0063024Y0087890D01*
X0061689Y0091112D01*
X0059222Y0093579D01*
X0056000Y0094913D01*
X0052512Y0094913D01*
X0049289Y0093579D01*
X0046823Y0091112D01*
X0046500Y0090332D01*
X0046500Y0101328D01*
X0045328Y0102500D01*
X0043773Y0104055D01*
X0044307Y0104055D01*
X0044307Y0111354D01*
X0045307Y0111354D01*
X0045307Y0104055D01*
X0048038Y0104055D01*
X0052606Y0108624D01*
X0052606Y0111354D01*
X0045307Y0111354D01*
X0045307Y0112354D01*
X0052606Y0112354D01*
X0052606Y0112565D01*
X0069500Y0095672D01*
X0069500Y0062672D01*
X0078165Y0054007D01*
X0079020Y0049807D02*
X0078500Y0049500D01*
X0074500Y0045500D01*
X0074500Y0037500D01*
X0076500Y0035500D01*
X0080500Y0035500D01*
X0086500Y0029500D01*
X0134500Y0029500D01*
X0171500Y0066500D01*
X0177436Y0073393D02*
X0183779Y0073393D01*
X0183255Y0072394D02*
X0184777Y0072394D01*
X0184520Y0071396D02*
X0188480Y0071396D01*
X0187899Y0070397D02*
X0185101Y0070397D01*
X0185400Y0069399D02*
X0187600Y0069399D01*
X0187600Y0068400D02*
X0185400Y0068400D01*
X0185400Y0067402D02*
X0187573Y0067402D01*
X0187500Y0067328D02*
X0187500Y0067328D01*
X0186575Y0066403D02*
X0185400Y0066403D01*
X0185400Y0065405D02*
X0185576Y0065405D01*
X0181500Y0066500D02*
X0172500Y0075500D01*
X0155500Y0075500D01*
X0155500Y0053500D01*
X0133500Y0031500D01*
X0087500Y0031500D01*
X0079500Y0039500D01*
X0079020Y0039807D01*
X0084500Y0037500D02*
X0088500Y0033500D01*
X0102500Y0033500D01*
X0108500Y0039500D01*
X0109020Y0039807D01*
X0109500Y0039500D01*
X0115500Y0033500D01*
X0132500Y0033500D01*
X0141500Y0042500D01*
X0141500Y0044500D01*
X0121500Y0064500D01*
X0121500Y0066500D01*
X0117500Y0064500D02*
X0117500Y0070500D01*
X0120500Y0073500D01*
X0144500Y0073500D01*
X0151500Y0066500D01*
X0155500Y0075500D02*
X0124500Y0075500D01*
X0107500Y0092500D01*
X0107500Y0098500D01*
X0097500Y0108500D01*
X0097500Y0124500D01*
X0066500Y0155500D01*
X0068524Y0157268D02*
X0097500Y0157268D01*
X0097500Y0158266D02*
X0060480Y0158266D01*
X0060500Y0157500D02*
X0060500Y0160500D01*
X0050500Y0170500D01*
X0051475Y0170248D02*
X0097500Y0170248D01*
X0097500Y0169250D02*
X0050476Y0169250D01*
X0049478Y0168251D02*
X0097500Y0168251D01*
X0097500Y0167253D02*
X0048479Y0167253D01*
X0045307Y0167253D02*
X0044307Y0167253D01*
X0044307Y0166811D02*
X0044307Y0174110D01*
X0037008Y0174110D01*
X0037008Y0171380D01*
X0041577Y0166811D01*
X0044307Y0166811D01*
X0044307Y0168251D02*
X0045307Y0168251D01*
X0045307Y0169250D02*
X0044307Y0169250D01*
X0044307Y0170248D02*
X0045307Y0170248D01*
X0045307Y0171247D02*
X0044307Y0171247D01*
X0044307Y0172245D02*
X0045307Y0172245D01*
X0045307Y0173244D02*
X0044307Y0173244D01*
X0044307Y0174242D02*
X0021685Y0174242D01*
X0021685Y0174110D02*
X0021685Y0175110D01*
X0028984Y0175110D01*
X0028984Y0177841D01*
X0024416Y0182409D01*
X0021685Y0182409D01*
X0021685Y0175110D01*
X0020685Y0175110D01*
X0020685Y0174110D01*
X0021685Y0174110D01*
X0021685Y0166811D01*
X0024416Y0166811D01*
X0028984Y0171380D01*
X0028984Y0174110D01*
X0021685Y0174110D01*
X0021685Y0173244D02*
X0020685Y0173244D01*
X0020685Y0174110D02*
X0020685Y0166811D01*
X0017955Y0166811D01*
X0013386Y0171380D01*
X0013386Y0174110D01*
X0020685Y0174110D01*
X0020685Y0174242D02*
X0003968Y0174242D01*
X0003968Y0173244D02*
X0013386Y0173244D01*
X0013386Y0172245D02*
X0003968Y0172245D01*
X0003968Y0171247D02*
X0013519Y0171247D01*
X0014517Y0170248D02*
X0003968Y0170248D01*
X0003968Y0169250D02*
X0015516Y0169250D01*
X0016514Y0168251D02*
X0003968Y0168251D01*
X0003968Y0167253D02*
X0017513Y0167253D01*
X0020685Y0167253D02*
X0021685Y0167253D01*
X0021685Y0168251D02*
X0020685Y0168251D01*
X0020685Y0169250D02*
X0021685Y0169250D01*
X0021685Y0170248D02*
X0020685Y0170248D01*
X0020685Y0171247D02*
X0021685Y0171247D01*
X0021685Y0172245D02*
X0020685Y0172245D01*
X0020685Y0175110D02*
X0013386Y0175110D01*
X0013386Y0177841D01*
X0017955Y0182409D01*
X0020685Y0182409D01*
X0020685Y0175110D01*
X0020685Y0175241D02*
X0021685Y0175241D01*
X0021685Y0176239D02*
X0020685Y0176239D01*
X0020685Y0177238D02*
X0021685Y0177238D01*
X0021685Y0178237D02*
X0020685Y0178237D01*
X0020685Y0179235D02*
X0021685Y0179235D01*
X0021685Y0180234D02*
X0020685Y0180234D01*
X0020685Y0181232D02*
X0021685Y0181232D01*
X0021685Y0182231D02*
X0020685Y0182231D01*
X0017776Y0182231D02*
X0003968Y0182231D01*
X0003968Y0183229D02*
X0107639Y0183229D01*
X0107600Y0184228D02*
X0003968Y0184228D01*
X0003968Y0185226D02*
X0107600Y0185226D01*
X0107600Y0186225D02*
X0003968Y0186225D01*
X0003968Y0187223D02*
X0107600Y0187223D01*
X0107600Y0188222D02*
X0003968Y0188222D01*
X0003968Y0189220D02*
X0107600Y0189220D01*
X0107825Y0190219D02*
X0003968Y0190219D01*
X0003968Y0191217D02*
X0108302Y0191217D01*
X0108053Y0182231D02*
X0048216Y0182231D01*
X0049215Y0181232D02*
X0104075Y0181232D01*
X0102738Y0180234D02*
X0050214Y0180234D01*
X0051212Y0179235D02*
X0101896Y0179235D01*
X0101483Y0178237D02*
X0052211Y0178237D01*
X0052606Y0177238D02*
X0101200Y0177238D01*
X0097500Y0173244D02*
X0052606Y0173244D01*
X0052606Y0172245D02*
X0097500Y0172245D01*
X0097500Y0171247D02*
X0052474Y0171247D01*
X0045307Y0175241D02*
X0044307Y0175241D01*
X0044307Y0175110D02*
X0044307Y0182409D01*
X0041577Y0182409D01*
X0037008Y0177841D01*
X0037008Y0175110D01*
X0044307Y0175110D01*
X0044307Y0176239D02*
X0045307Y0176239D01*
X0045307Y0177238D02*
X0044307Y0177238D01*
X0044307Y0178237D02*
X0045307Y0178237D01*
X0045307Y0179235D02*
X0044307Y0179235D01*
X0044307Y0180234D02*
X0045307Y0180234D01*
X0045307Y0181232D02*
X0044307Y0181232D01*
X0044307Y0182231D02*
X0045307Y0182231D01*
X0041398Y0182231D02*
X0024594Y0182231D01*
X0025593Y0181232D02*
X0040399Y0181232D01*
X0039401Y0180234D02*
X0026591Y0180234D01*
X0027590Y0179235D02*
X0038402Y0179235D01*
X0037404Y0178237D02*
X0028588Y0178237D01*
X0028984Y0177238D02*
X0037008Y0177238D01*
X0037008Y0176239D02*
X0028984Y0176239D01*
X0028984Y0175241D02*
X0037008Y0175241D01*
X0037008Y0173244D02*
X0028984Y0173244D01*
X0028984Y0172245D02*
X0037008Y0172245D01*
X0037141Y0171247D02*
X0028851Y0171247D01*
X0027853Y0170248D02*
X0038139Y0170248D01*
X0039138Y0169250D02*
X0026854Y0169250D01*
X0025856Y0168251D02*
X0040136Y0168251D01*
X0041135Y0167253D02*
X0024857Y0167253D01*
X0030564Y0161262D02*
X0003968Y0161262D01*
X0003968Y0162260D02*
X0097500Y0162260D01*
X0097500Y0161262D02*
X0059051Y0161262D01*
X0059957Y0160263D02*
X0097500Y0160263D01*
X0097500Y0159265D02*
X0060371Y0159265D01*
X0060500Y0157500D02*
X0081500Y0136500D01*
X0081500Y0121500D01*
X0081800Y0121321D02*
X0095500Y0121321D01*
X0095500Y0120323D02*
X0085400Y0120323D01*
X0085400Y0119885D02*
X0085400Y0121200D01*
X0081800Y0121200D01*
X0081800Y0117600D01*
X0083115Y0117600D01*
X0085400Y0119885D01*
X0084840Y0119324D02*
X0095500Y0119324D01*
X0095500Y0118326D02*
X0083841Y0118326D01*
X0081800Y0118326D02*
X0081200Y0118326D01*
X0081200Y0119324D02*
X0081800Y0119324D01*
X0081800Y0120323D02*
X0081200Y0120323D01*
X0081800Y0121800D02*
X0085400Y0121800D01*
X0085400Y0123115D01*
X0083115Y0125400D01*
X0081800Y0125400D01*
X0081800Y0121800D01*
X0081800Y0122320D02*
X0081200Y0122320D01*
X0081200Y0123318D02*
X0081800Y0123318D01*
X0081800Y0124317D02*
X0081200Y0124317D01*
X0081200Y0125315D02*
X0081800Y0125315D01*
X0083200Y0125315D02*
X0093856Y0125315D01*
X0094855Y0124317D02*
X0084199Y0124317D01*
X0085197Y0123318D02*
X0095500Y0123318D01*
X0095500Y0122320D02*
X0085400Y0122320D01*
X0079800Y0125315D02*
X0079500Y0125315D01*
X0079500Y0126314D02*
X0092858Y0126314D01*
X0091859Y0127312D02*
X0079500Y0127312D01*
X0079500Y0128311D02*
X0090861Y0128311D01*
X0089862Y0129309D02*
X0079500Y0129309D01*
X0079500Y0130308D02*
X0088864Y0130308D01*
X0087865Y0131306D02*
X0079500Y0131306D01*
X0079500Y0132305D02*
X0086867Y0132305D01*
X0085868Y0133303D02*
X0079500Y0133303D01*
X0079500Y0134302D02*
X0084870Y0134302D01*
X0083871Y0135301D02*
X0079500Y0135301D01*
X0079500Y0136299D02*
X0082873Y0136299D01*
X0081874Y0137298D02*
X0079500Y0137298D01*
X0079500Y0138296D02*
X0080876Y0138296D01*
X0079877Y0139295D02*
X0078534Y0139295D01*
X0078878Y0140293D02*
X0077535Y0140293D01*
X0077880Y0141292D02*
X0076537Y0141292D01*
X0076881Y0142290D02*
X0075538Y0142290D01*
X0075883Y0143289D02*
X0074540Y0143289D01*
X0074884Y0144287D02*
X0073541Y0144287D01*
X0073886Y0145286D02*
X0072543Y0145286D01*
X0072887Y0146284D02*
X0071544Y0146284D01*
X0071889Y0147283D02*
X0070546Y0147283D01*
X0070890Y0148281D02*
X0069547Y0148281D01*
X0069892Y0149280D02*
X0068549Y0149280D01*
X0068893Y0150278D02*
X0067550Y0150278D01*
X0067895Y0151277D02*
X0066552Y0151277D01*
X0066896Y0152275D02*
X0065553Y0152275D01*
X0064935Y0153274D02*
X0064555Y0153274D01*
X0064107Y0154272D02*
X0063556Y0154272D01*
X0063819Y0155271D02*
X0062558Y0155271D01*
X0061559Y0156269D02*
X0063917Y0156269D01*
X0064476Y0157268D02*
X0060561Y0157268D01*
X0057500Y0157500D02*
X0056618Y0158232D01*
X0057500Y0157500D02*
X0077500Y0137500D01*
X0077500Y0108500D01*
X0087500Y0098500D01*
X0087500Y0091500D01*
X0111500Y0067500D01*
X0111500Y0066500D01*
X0107500Y0068500D02*
X0107500Y0062500D01*
X0110500Y0059500D01*
X0112500Y0059500D01*
X0117500Y0064500D01*
X0115500Y0065405D02*
X0115400Y0065405D01*
X0115400Y0066403D02*
X0115500Y0066403D01*
X0115500Y0067402D02*
X0115400Y0067402D01*
X0115400Y0068400D02*
X0115500Y0068400D01*
X0115500Y0069399D02*
X0115400Y0069399D01*
X0115500Y0070397D02*
X0115101Y0070397D01*
X0115567Y0071396D02*
X0114520Y0071396D01*
X0113255Y0072394D02*
X0116566Y0072394D01*
X0117564Y0073393D02*
X0108436Y0073393D01*
X0109434Y0072394D02*
X0109745Y0072394D01*
X0107437Y0074391D02*
X0118563Y0074391D01*
X0119561Y0075390D02*
X0106439Y0075390D01*
X0105440Y0076388D02*
X0120783Y0076388D01*
X0119785Y0077387D02*
X0104442Y0077387D01*
X0103443Y0078385D02*
X0118786Y0078385D01*
X0117788Y0079384D02*
X0102445Y0079384D01*
X0101446Y0080382D02*
X0116789Y0080382D01*
X0115791Y0081381D02*
X0100447Y0081381D01*
X0099449Y0082379D02*
X0114792Y0082379D01*
X0113794Y0083378D02*
X0098450Y0083378D01*
X0097452Y0084376D02*
X0112795Y0084376D01*
X0111797Y0085375D02*
X0096453Y0085375D01*
X0095455Y0086373D02*
X0110798Y0086373D01*
X0109800Y0087372D02*
X0094456Y0087372D01*
X0093458Y0088370D02*
X0108801Y0088370D01*
X0107803Y0089369D02*
X0092459Y0089369D01*
X0092680Y0090368D02*
X0100320Y0090368D01*
X0098719Y0091366D02*
X0094281Y0091366D01*
X0095002Y0092365D02*
X0097998Y0092365D01*
X0097600Y0093363D02*
X0095400Y0093363D01*
X0095400Y0094362D02*
X0097600Y0094362D01*
X0097600Y0095360D02*
X0095400Y0095360D01*
X0095400Y0096359D02*
X0097600Y0096359D01*
X0097600Y0097357D02*
X0095400Y0097357D01*
X0095400Y0098356D02*
X0097600Y0098356D01*
X0097600Y0099354D02*
X0095400Y0099354D01*
X0095120Y0100353D02*
X0097880Y0100353D01*
X0098436Y0101351D02*
X0094564Y0101351D01*
X0093363Y0102350D02*
X0099637Y0102350D01*
X0099823Y0103348D02*
X0085480Y0103348D01*
X0084482Y0104347D02*
X0098825Y0104347D01*
X0097826Y0105345D02*
X0083483Y0105345D01*
X0082485Y0106344D02*
X0096828Y0106344D01*
X0095829Y0107342D02*
X0081486Y0107342D01*
X0083856Y0108341D02*
X0095500Y0108341D01*
X0095500Y0109339D02*
X0084855Y0109339D01*
X0085400Y0110338D02*
X0095500Y0110338D01*
X0095500Y0111336D02*
X0085400Y0111336D01*
X0085400Y0112335D02*
X0095500Y0112335D01*
X0095500Y0113333D02*
X0085182Y0113333D01*
X0084184Y0114332D02*
X0095500Y0114332D01*
X0095500Y0115330D02*
X0083185Y0115330D01*
X0079815Y0115330D02*
X0079500Y0115330D01*
X0079500Y0116329D02*
X0095500Y0116329D01*
X0095500Y0117327D02*
X0079500Y0117327D01*
X0075500Y0101500D02*
X0077500Y0099500D01*
X0077500Y0092500D01*
X0096500Y0073500D01*
X0102500Y0073500D01*
X0107500Y0068500D01*
X0101500Y0066500D02*
X0100500Y0066500D01*
X0075500Y0091500D01*
X0075500Y0098500D01*
X0052500Y0121500D01*
X0052500Y0141500D01*
X0045500Y0148500D01*
X0045500Y0152500D01*
X0044807Y0153232D01*
X0043500Y0157500D02*
X0040500Y0154500D01*
X0040500Y0130500D01*
X0073500Y0097500D01*
X0073500Y0084500D01*
X0091500Y0066500D01*
X0100500Y0057500D01*
X0111500Y0057500D01*
X0118500Y0050500D01*
X0119020Y0049807D01*
X0119500Y0045500D02*
X0116500Y0045500D01*
X0113500Y0048500D01*
X0113500Y0051500D01*
X0109500Y0055500D01*
X0092500Y0055500D01*
X0081500Y0066500D01*
X0086500Y0057500D02*
X0087500Y0057500D01*
X0093500Y0051500D01*
X0093500Y0048500D01*
X0098500Y0043500D01*
X0098500Y0040500D01*
X0099020Y0039807D01*
X0101500Y0035500D02*
X0093500Y0035500D01*
X0089500Y0039500D01*
X0089020Y0039807D01*
X0084500Y0037500D02*
X0084500Y0050500D01*
X0071500Y0063500D01*
X0071500Y0096500D01*
X0040500Y0127500D01*
X0033500Y0127500D01*
X0032996Y0128232D01*
X0035726Y0125500D02*
X0039672Y0125500D01*
X0045518Y0119654D01*
X0045307Y0119654D01*
X0045307Y0112354D01*
X0044307Y0112354D01*
X0044307Y0111354D01*
X0037008Y0111354D01*
X0037008Y0110821D01*
X0018500Y0129328D01*
X0018500Y0130455D01*
X0018997Y0129958D01*
X0020417Y0129370D01*
X0021953Y0129370D01*
X0023373Y0129958D01*
X0024459Y0131045D01*
X0025047Y0132464D01*
X0025047Y0134001D01*
X0024459Y0135420D01*
X0023373Y0136506D01*
X0021953Y0137094D01*
X0020417Y0137094D01*
X0018997Y0136506D01*
X0018500Y0136009D01*
X0018500Y0140455D01*
X0018997Y0139958D01*
X0020417Y0139370D01*
X0021953Y0139370D01*
X0023373Y0139958D01*
X0024459Y0141045D01*
X0025047Y0142464D01*
X0025047Y0144001D01*
X0024983Y0144155D01*
X0029134Y0148305D01*
X0029134Y0147464D01*
X0029722Y0146045D01*
X0030808Y0144958D01*
X0032228Y0144370D01*
X0033764Y0144370D01*
X0035184Y0144958D01*
X0036270Y0146045D01*
X0036858Y0147464D01*
X0036858Y0149001D01*
X0036270Y0150420D01*
X0035190Y0151500D01*
X0037328Y0151500D01*
X0038500Y0152672D01*
X0038500Y0129672D01*
X0038672Y0129500D01*
X0036651Y0129500D01*
X0036270Y0130420D01*
X0035184Y0131506D01*
X0033764Y0132094D01*
X0032228Y0132094D01*
X0030808Y0131506D01*
X0029722Y0130420D01*
X0029134Y0129001D01*
X0029134Y0127464D01*
X0029722Y0126045D01*
X0030808Y0124958D01*
X0032228Y0124370D01*
X0033764Y0124370D01*
X0035184Y0124958D01*
X0035726Y0125500D01*
X0035541Y0125315D02*
X0039856Y0125315D01*
X0040855Y0124317D02*
X0023512Y0124317D01*
X0024510Y0123318D02*
X0041853Y0123318D01*
X0042852Y0122320D02*
X0025509Y0122320D01*
X0026507Y0121321D02*
X0043850Y0121321D01*
X0044849Y0120323D02*
X0027506Y0120323D01*
X0028504Y0119324D02*
X0041247Y0119324D01*
X0041577Y0119654D02*
X0037008Y0115085D01*
X0037008Y0112354D01*
X0044307Y0112354D01*
X0044307Y0119654D01*
X0041577Y0119654D01*
X0040249Y0118326D02*
X0029503Y0118326D01*
X0030501Y0117327D02*
X0039250Y0117327D01*
X0038252Y0116329D02*
X0031500Y0116329D01*
X0032498Y0115330D02*
X0037253Y0115330D01*
X0037008Y0114332D02*
X0033497Y0114332D01*
X0034495Y0113333D02*
X0037008Y0113333D01*
X0035494Y0112335D02*
X0044307Y0112335D01*
X0044307Y0113333D02*
X0045307Y0113333D01*
X0045307Y0112335D02*
X0052837Y0112335D01*
X0052606Y0111336D02*
X0053835Y0111336D01*
X0054834Y0110338D02*
X0052606Y0110338D01*
X0052606Y0109339D02*
X0055832Y0109339D01*
X0056831Y0108341D02*
X0052323Y0108341D01*
X0051325Y0107342D02*
X0057829Y0107342D01*
X0058828Y0106344D02*
X0050326Y0106344D01*
X0049328Y0105345D02*
X0059826Y0105345D01*
X0060825Y0104347D02*
X0048329Y0104347D01*
X0045307Y0104347D02*
X0044307Y0104347D01*
X0044307Y0105345D02*
X0045307Y0105345D01*
X0045307Y0106344D02*
X0044307Y0106344D01*
X0044307Y0107342D02*
X0045307Y0107342D01*
X0045307Y0108341D02*
X0044307Y0108341D01*
X0044307Y0109339D02*
X0045307Y0109339D01*
X0045307Y0110338D02*
X0044307Y0110338D01*
X0044307Y0111336D02*
X0045307Y0111336D01*
X0045307Y0114332D02*
X0044307Y0114332D01*
X0044307Y0115330D02*
X0045307Y0115330D01*
X0045307Y0116329D02*
X0044307Y0116329D01*
X0044307Y0117327D02*
X0045307Y0117327D01*
X0045307Y0118326D02*
X0044307Y0118326D01*
X0044307Y0119324D02*
X0045307Y0119324D01*
X0049512Y0124317D02*
X0050500Y0124317D01*
X0050500Y0123328D02*
X0044458Y0129370D01*
X0044520Y0129370D01*
X0044520Y0132945D01*
X0045094Y0132945D01*
X0045094Y0129370D01*
X0045187Y0129370D01*
X0045934Y0129519D01*
X0046637Y0129810D01*
X0047269Y0130232D01*
X0047807Y0130770D01*
X0048230Y0131403D01*
X0048521Y0132106D01*
X0048669Y0132852D01*
X0048669Y0132945D01*
X0045095Y0132945D01*
X0045095Y0133520D01*
X0048669Y0133520D01*
X0048669Y0133613D01*
X0048521Y0134359D01*
X0048230Y0135062D01*
X0047807Y0135694D01*
X0047269Y0136232D01*
X0046637Y0136655D01*
X0045934Y0136946D01*
X0045187Y0137094D01*
X0045094Y0137094D01*
X0045094Y0133520D01*
X0044520Y0133520D01*
X0044520Y0137094D01*
X0044427Y0137094D01*
X0043681Y0136946D01*
X0042978Y0136655D01*
X0042500Y0136336D01*
X0042500Y0140077D01*
X0042619Y0139958D01*
X0044039Y0139370D01*
X0045575Y0139370D01*
X0046995Y0139958D01*
X0048081Y0141045D01*
X0048669Y0142464D01*
X0048669Y0142502D01*
X0050500Y0140672D01*
X0050500Y0123328D01*
X0050500Y0125315D02*
X0048513Y0125315D01*
X0047514Y0126314D02*
X0050500Y0126314D01*
X0050500Y0127312D02*
X0046516Y0127312D01*
X0045517Y0128311D02*
X0050500Y0128311D01*
X0050500Y0129309D02*
X0044519Y0129309D01*
X0044520Y0130308D02*
X0045094Y0130308D01*
X0045094Y0131306D02*
X0044520Y0131306D01*
X0044520Y0132305D02*
X0045094Y0132305D01*
X0045095Y0133303D02*
X0050500Y0133303D01*
X0050500Y0132305D02*
X0048560Y0132305D01*
X0048165Y0131306D02*
X0050500Y0131306D01*
X0050500Y0130308D02*
X0047345Y0130308D01*
X0048532Y0134302D02*
X0050500Y0134302D01*
X0050500Y0135301D02*
X0048070Y0135301D01*
X0047169Y0136299D02*
X0050500Y0136299D01*
X0050500Y0137298D02*
X0042500Y0137298D01*
X0042500Y0138296D02*
X0050500Y0138296D01*
X0050500Y0139295D02*
X0042500Y0139295D01*
X0044520Y0136299D02*
X0045094Y0136299D01*
X0045094Y0135301D02*
X0044520Y0135301D01*
X0044520Y0134302D02*
X0045094Y0134302D01*
X0047330Y0140293D02*
X0050500Y0140293D01*
X0049880Y0141292D02*
X0048184Y0141292D01*
X0048597Y0142290D02*
X0048881Y0142290D01*
X0056618Y0148232D02*
X0056500Y0148500D01*
X0047500Y0157500D01*
X0043500Y0157500D01*
X0042500Y0159500D02*
X0049500Y0159500D01*
X0056500Y0152500D01*
X0058500Y0152500D01*
X0075500Y0135500D01*
X0075500Y0101500D01*
X0068813Y0096359D02*
X0046500Y0096359D01*
X0046500Y0097357D02*
X0067814Y0097357D01*
X0066816Y0098356D02*
X0046500Y0098356D01*
X0046500Y0099354D02*
X0065817Y0099354D01*
X0064819Y0100353D02*
X0046500Y0100353D01*
X0046477Y0101351D02*
X0063820Y0101351D01*
X0062822Y0102350D02*
X0045479Y0102350D01*
X0044480Y0103348D02*
X0061823Y0103348D01*
X0069500Y0095360D02*
X0046500Y0095360D01*
X0046500Y0094362D02*
X0051180Y0094362D01*
X0049074Y0093363D02*
X0046500Y0093363D01*
X0046500Y0092365D02*
X0048075Y0092365D01*
X0047077Y0091366D02*
X0046500Y0091366D01*
X0046500Y0090368D02*
X0046515Y0090368D01*
X0042500Y0090368D02*
X0039885Y0090368D01*
X0039761Y0090666D02*
X0037517Y0092911D01*
X0034583Y0094126D01*
X0031409Y0094126D01*
X0028476Y0092911D01*
X0026231Y0090666D01*
X0025016Y0087733D01*
X0025016Y0084558D01*
X0026231Y0081625D01*
X0028476Y0079380D01*
X0031409Y0078165D01*
X0034583Y0078165D01*
X0037517Y0079380D01*
X0039761Y0081625D01*
X0040976Y0084558D01*
X0040976Y0087733D01*
X0039761Y0090666D01*
X0039062Y0091366D02*
X0042500Y0091366D01*
X0042500Y0092365D02*
X0038063Y0092365D01*
X0036425Y0093363D02*
X0042500Y0093363D01*
X0042500Y0094362D02*
X0003968Y0094362D01*
X0003968Y0095360D02*
X0042500Y0095360D01*
X0042500Y0096359D02*
X0003968Y0096359D01*
X0003968Y0097357D02*
X0042500Y0097357D01*
X0042500Y0098356D02*
X0003968Y0098356D01*
X0003968Y0099354D02*
X0042500Y0099354D01*
X0041819Y0100353D02*
X0003968Y0100353D01*
X0003968Y0101351D02*
X0040820Y0101351D01*
X0039822Y0102350D02*
X0003968Y0102350D01*
X0003968Y0103348D02*
X0038823Y0103348D01*
X0037825Y0104347D02*
X0024707Y0104347D01*
X0024416Y0104055D02*
X0028984Y0108624D01*
X0028984Y0111354D01*
X0021685Y0111354D01*
X0021685Y0104055D01*
X0024416Y0104055D01*
X0025706Y0105345D02*
X0036826Y0105345D01*
X0035828Y0106344D02*
X0026704Y0106344D01*
X0027703Y0107342D02*
X0034829Y0107342D01*
X0033831Y0108341D02*
X0028701Y0108341D01*
X0028984Y0109339D02*
X0032832Y0109339D01*
X0031834Y0110338D02*
X0028984Y0110338D01*
X0028984Y0111336D02*
X0030835Y0111336D01*
X0029837Y0112335D02*
X0021685Y0112335D01*
X0021685Y0112354D02*
X0021685Y0111354D01*
X0020685Y0111354D01*
X0020685Y0104055D01*
X0017955Y0104055D01*
X0013386Y0108624D01*
X0013386Y0111354D01*
X0020685Y0111354D01*
X0020685Y0112354D01*
X0013386Y0112354D01*
X0013386Y0115085D01*
X0017955Y0119654D01*
X0020685Y0119654D01*
X0020685Y0112354D01*
X0021685Y0112354D01*
X0021685Y0113333D02*
X0020685Y0113333D01*
X0020685Y0112335D02*
X0003968Y0112335D01*
X0003968Y0113333D02*
X0013386Y0113333D01*
X0013386Y0114332D02*
X0003968Y0114332D01*
X0003968Y0115330D02*
X0013631Y0115330D01*
X0014630Y0116329D02*
X0003968Y0116329D01*
X0003968Y0117327D02*
X0015628Y0117327D01*
X0016627Y0118326D02*
X0003968Y0118326D01*
X0003968Y0119324D02*
X0017625Y0119324D01*
X0020685Y0119324D02*
X0021685Y0119324D01*
X0021685Y0118326D02*
X0020685Y0118326D01*
X0020685Y0117327D02*
X0021685Y0117327D01*
X0021685Y0116329D02*
X0020685Y0116329D01*
X0020685Y0115330D02*
X0021685Y0115330D01*
X0021685Y0114332D02*
X0020685Y0114332D01*
X0020685Y0111336D02*
X0021685Y0111336D01*
X0021685Y0110338D02*
X0020685Y0110338D01*
X0020685Y0109339D02*
X0021685Y0109339D01*
X0021685Y0108341D02*
X0020685Y0108341D01*
X0020685Y0107342D02*
X0021685Y0107342D01*
X0021685Y0106344D02*
X0020685Y0106344D01*
X0020685Y0105345D02*
X0021685Y0105345D01*
X0021685Y0104347D02*
X0020685Y0104347D01*
X0017663Y0104347D02*
X0003968Y0104347D01*
X0003968Y0105345D02*
X0016664Y0105345D01*
X0015666Y0106344D02*
X0003968Y0106344D01*
X0003968Y0107342D02*
X0014667Y0107342D01*
X0013669Y0108341D02*
X0003968Y0108341D01*
X0003968Y0109339D02*
X0013386Y0109339D01*
X0013386Y0110338D02*
X0003968Y0110338D01*
X0003968Y0111336D02*
X0013386Y0111336D01*
X0021849Y0120323D02*
X0003968Y0120323D01*
X0003968Y0121321D02*
X0020850Y0121321D01*
X0019852Y0122320D02*
X0003968Y0122320D01*
X0003968Y0123318D02*
X0018853Y0123318D01*
X0017855Y0124317D02*
X0003968Y0124317D01*
X0003968Y0125315D02*
X0016856Y0125315D01*
X0015858Y0126314D02*
X0003968Y0126314D01*
X0003968Y0127312D02*
X0014859Y0127312D01*
X0014500Y0128311D02*
X0003968Y0128311D01*
X0003968Y0129309D02*
X0014500Y0129309D01*
X0014500Y0130308D02*
X0003968Y0130308D01*
X0003968Y0131306D02*
X0014500Y0131306D01*
X0014500Y0132305D02*
X0003968Y0132305D01*
X0003968Y0133303D02*
X0014500Y0133303D01*
X0014500Y0134302D02*
X0003968Y0134302D01*
X0003968Y0135301D02*
X0014500Y0135301D01*
X0014500Y0136299D02*
X0003968Y0136299D01*
X0003968Y0137298D02*
X0014500Y0137298D01*
X0014500Y0138296D02*
X0003968Y0138296D01*
X0003968Y0139295D02*
X0014500Y0139295D01*
X0014500Y0140293D02*
X0003968Y0140293D01*
X0003968Y0141292D02*
X0014500Y0141292D01*
X0014500Y0142290D02*
X0003968Y0142290D01*
X0003968Y0143289D02*
X0014500Y0143289D01*
X0014500Y0144287D02*
X0003968Y0144287D01*
X0003968Y0145286D02*
X0014500Y0145286D01*
X0015456Y0146284D02*
X0003968Y0146284D01*
X0003968Y0147283D02*
X0016454Y0147283D01*
X0017453Y0148281D02*
X0003968Y0148281D01*
X0003968Y0149280D02*
X0018451Y0149280D01*
X0018500Y0150278D02*
X0003968Y0150278D01*
X0003968Y0151277D02*
X0017815Y0151277D01*
X0017401Y0152275D02*
X0003968Y0152275D01*
X0003968Y0153274D02*
X0017323Y0153274D01*
X0017435Y0154272D02*
X0003968Y0154272D01*
X0003968Y0155271D02*
X0017849Y0155271D01*
X0018760Y0156269D02*
X0003968Y0156269D01*
X0003968Y0157268D02*
X0029215Y0157268D01*
X0029134Y0158266D02*
X0003968Y0158266D01*
X0003968Y0159265D02*
X0029243Y0159265D01*
X0029657Y0160263D02*
X0003968Y0160263D01*
X0003968Y0163259D02*
X0097500Y0163259D01*
X0097500Y0164257D02*
X0003968Y0164257D01*
X0003968Y0165256D02*
X0097500Y0165256D01*
X0097500Y0166254D02*
X0003968Y0166254D01*
X0003968Y0175241D02*
X0013386Y0175241D01*
X0013386Y0176239D02*
X0003968Y0176239D01*
X0003968Y0177238D02*
X0013386Y0177238D01*
X0013782Y0178237D02*
X0003968Y0178237D01*
X0003968Y0179235D02*
X0014780Y0179235D01*
X0015779Y0180234D02*
X0003968Y0180234D01*
X0003968Y0181232D02*
X0016777Y0181232D01*
X0003968Y0192216D02*
X0050908Y0192216D01*
X0048961Y0193214D02*
X0036697Y0193214D01*
X0037517Y0193554D02*
X0034583Y0192339D01*
X0031409Y0192339D01*
X0028476Y0193554D01*
X0026231Y0195798D01*
X0025016Y0198732D01*
X0025016Y0201906D01*
X0026231Y0204839D01*
X0028476Y0207084D01*
X0031409Y0208299D01*
X0034583Y0208299D01*
X0037517Y0207084D01*
X0039761Y0204839D01*
X0040976Y0201906D01*
X0040976Y0198732D01*
X0039761Y0195798D01*
X0037517Y0193554D01*
X0038176Y0194213D02*
X0047963Y0194213D01*
X0046964Y0195211D02*
X0039174Y0195211D01*
X0039932Y0196210D02*
X0046468Y0196210D01*
X0046054Y0197208D02*
X0040345Y0197208D01*
X0040759Y0198207D02*
X0045641Y0198207D01*
X0045488Y0199205D02*
X0040976Y0199205D01*
X0040976Y0200204D02*
X0045488Y0200204D01*
X0045488Y0201202D02*
X0040976Y0201202D01*
X0040854Y0202201D02*
X0045545Y0202201D01*
X0045959Y0203199D02*
X0040441Y0203199D01*
X0040027Y0204198D02*
X0046373Y0204198D01*
X0046786Y0205196D02*
X0039405Y0205196D01*
X0038406Y0206195D02*
X0047732Y0206195D01*
X0048731Y0207193D02*
X0037253Y0207193D01*
X0034843Y0208192D02*
X0050352Y0208192D01*
X0058160Y0208192D02*
X0128980Y0208192D01*
X0129978Y0207193D02*
X0059781Y0207193D01*
X0060779Y0206195D02*
X0130977Y0206195D01*
X0131975Y0205196D02*
X0061726Y0205196D01*
X0062139Y0204198D02*
X0132974Y0204198D01*
X0133972Y0203199D02*
X0062553Y0203199D01*
X0062967Y0202201D02*
X0134971Y0202201D01*
X0135969Y0201202D02*
X0063024Y0201202D01*
X0063024Y0200204D02*
X0136968Y0200204D01*
X0137966Y0199205D02*
X0063024Y0199205D01*
X0062871Y0198207D02*
X0138965Y0198207D01*
X0139963Y0197208D02*
X0062458Y0197208D01*
X0062044Y0196210D02*
X0140962Y0196210D01*
X0141960Y0195211D02*
X0061548Y0195211D01*
X0060549Y0194213D02*
X0142959Y0194213D01*
X0146500Y0193500D02*
X0146500Y0176500D01*
X0143259Y0172245D02*
X0139661Y0172245D01*
X0140685Y0173244D02*
X0142261Y0173244D01*
X0141698Y0174242D02*
X0141298Y0174242D01*
X0145332Y0171247D02*
X0137213Y0171247D01*
X0137000Y0171247D02*
X0136000Y0171247D01*
X0135787Y0171247D02*
X0127668Y0171247D01*
X0129741Y0172245D02*
X0133339Y0172245D01*
X0132314Y0173244D02*
X0130739Y0173244D01*
X0131302Y0174242D02*
X0131702Y0174242D01*
X0136000Y0174242D02*
X0137000Y0174242D01*
X0137000Y0173244D02*
X0136000Y0173244D01*
X0136000Y0172245D02*
X0137000Y0172245D01*
X0137000Y0175241D02*
X0136000Y0175241D01*
X0125332Y0171247D02*
X0117668Y0171247D01*
X0119741Y0172245D02*
X0123259Y0172245D01*
X0122261Y0173244D02*
X0120739Y0173244D01*
X0121302Y0174242D02*
X0121698Y0174242D01*
X0097500Y0156269D02*
X0069083Y0156269D01*
X0069558Y0155271D02*
X0097500Y0155271D01*
X0097500Y0154272D02*
X0070556Y0154272D01*
X0071555Y0153274D02*
X0097500Y0153274D01*
X0097500Y0152275D02*
X0072553Y0152275D01*
X0073552Y0151277D02*
X0097500Y0151277D01*
X0097500Y0150278D02*
X0074550Y0150278D01*
X0075549Y0149280D02*
X0097500Y0149280D01*
X0097500Y0148281D02*
X0076547Y0148281D01*
X0077546Y0147283D02*
X0097500Y0147283D01*
X0097500Y0146284D02*
X0078544Y0146284D01*
X0079543Y0145286D02*
X0097500Y0145286D01*
X0097500Y0144287D02*
X0080541Y0144287D01*
X0081540Y0143289D02*
X0097500Y0143289D01*
X0097500Y0142290D02*
X0082538Y0142290D01*
X0083537Y0141292D02*
X0097500Y0141292D01*
X0097500Y0140293D02*
X0084535Y0140293D01*
X0085534Y0139295D02*
X0097500Y0139295D01*
X0097500Y0138296D02*
X0086532Y0138296D01*
X0087531Y0137298D02*
X0097500Y0137298D01*
X0097500Y0136299D02*
X0088529Y0136299D01*
X0089528Y0135301D02*
X0097500Y0135301D01*
X0097500Y0134302D02*
X0090526Y0134302D01*
X0091525Y0133303D02*
X0097500Y0133303D01*
X0097500Y0132305D02*
X0092523Y0132305D01*
X0093522Y0131306D02*
X0097500Y0131306D01*
X0097500Y0130308D02*
X0094520Y0130308D01*
X0095519Y0129309D02*
X0097500Y0129309D01*
X0097500Y0128311D02*
X0096517Y0128311D01*
X0111500Y0103500D02*
X0111500Y0096500D01*
X0105500Y0096359D02*
X0105400Y0096359D01*
X0105400Y0097357D02*
X0105500Y0097357D01*
X0105500Y0095360D02*
X0105400Y0095360D01*
X0105400Y0094362D02*
X0105500Y0094362D01*
X0105500Y0093363D02*
X0105400Y0093363D01*
X0105500Y0092365D02*
X0105002Y0092365D01*
X0104281Y0091366D02*
X0105806Y0091366D01*
X0106804Y0090368D02*
X0102680Y0090368D01*
X0114458Y0088370D02*
X0168801Y0088370D01*
X0169800Y0087372D02*
X0115456Y0087372D01*
X0116455Y0086373D02*
X0170798Y0086373D01*
X0171797Y0085375D02*
X0117453Y0085375D01*
X0118452Y0084376D02*
X0172795Y0084376D01*
X0173794Y0083378D02*
X0119450Y0083378D01*
X0120449Y0082379D02*
X0174792Y0082379D01*
X0175791Y0081381D02*
X0121448Y0081381D01*
X0122446Y0080382D02*
X0176789Y0080382D01*
X0177788Y0079384D02*
X0123445Y0079384D01*
X0124443Y0078385D02*
X0178786Y0078385D01*
X0179785Y0077387D02*
X0173442Y0077387D01*
X0174440Y0076388D02*
X0180783Y0076388D01*
X0181782Y0075390D02*
X0175439Y0075390D01*
X0176437Y0074391D02*
X0182780Y0074391D01*
X0179745Y0072394D02*
X0178434Y0072394D01*
X0186500Y0073500D02*
X0192500Y0073500D01*
X0195500Y0070500D01*
X0195500Y0051500D01*
X0187184Y0038445D02*
X0149273Y0038445D01*
X0148275Y0037446D02*
X0186422Y0037446D01*
X0186006Y0036448D02*
X0147276Y0036448D01*
X0146278Y0035449D02*
X0185827Y0035449D01*
X0185827Y0034972D02*
X0185827Y0034795D01*
X0185941Y0034073D01*
X0186167Y0033377D01*
X0186500Y0032724D01*
X0186930Y0032132D01*
X0187447Y0031615D01*
X0188039Y0031185D01*
X0188692Y0030852D01*
X0189388Y0030626D01*
X0190110Y0030512D01*
X0190287Y0030512D01*
X0190287Y0034972D01*
X0185827Y0034972D01*
X0185881Y0034451D02*
X0145279Y0034451D01*
X0144281Y0033452D02*
X0186143Y0033452D01*
X0186696Y0032454D02*
X0143282Y0032454D01*
X0142284Y0031455D02*
X0187667Y0031455D01*
X0190287Y0031455D02*
X0190665Y0031455D01*
X0190665Y0032454D02*
X0190287Y0032454D01*
X0190287Y0033452D02*
X0190665Y0033452D01*
X0190665Y0034451D02*
X0190287Y0034451D01*
X0194256Y0032454D02*
X0194482Y0032454D01*
X0195481Y0031455D02*
X0193286Y0031455D01*
X0180966Y0019473D02*
X0218698Y0019473D01*
X0217700Y0020472D02*
X0179967Y0020472D01*
X0179695Y0020744D02*
X0176472Y0022079D01*
X0172984Y0022079D01*
X0169762Y0020744D01*
X0167295Y0018278D01*
X0165961Y0015055D01*
X0165961Y0011567D01*
X0167295Y0008345D01*
X0169762Y0005878D01*
X0172984Y0004543D01*
X0176472Y0004543D01*
X0179695Y0005878D01*
X0182161Y0008345D01*
X0183496Y0011567D01*
X0183496Y0015055D01*
X0182161Y0018278D01*
X0179695Y0020744D01*
X0177941Y0021470D02*
X0216701Y0021470D01*
X0224500Y0022500D02*
X0211500Y0035500D01*
X0211500Y0036500D01*
X0207500Y0040500D01*
X0148500Y0040500D01*
X0131500Y0023500D01*
X0131500Y0035500D02*
X0116500Y0035500D01*
X0113500Y0038500D01*
X0113500Y0041500D01*
X0110500Y0044500D01*
X0107500Y0044500D01*
X0103500Y0040500D01*
X0103500Y0037500D01*
X0101500Y0035500D01*
X0119500Y0045500D02*
X0124500Y0040500D01*
X0128500Y0040500D01*
X0129020Y0039807D01*
X0133500Y0038500D02*
X0133500Y0037500D01*
X0131500Y0035500D01*
X0133500Y0038500D02*
X0138500Y0043500D01*
X0152500Y0043500D02*
X0166500Y0043500D01*
X0189500Y0066500D01*
X0191500Y0066500D01*
X0197500Y0071500D02*
X0193500Y0075500D01*
X0192500Y0075500D01*
X0171500Y0096500D01*
X0167600Y0096359D02*
X0166470Y0096359D01*
X0165471Y0097357D02*
X0167600Y0097357D01*
X0167600Y0098356D02*
X0165400Y0098356D01*
X0165400Y0099354D02*
X0167600Y0099354D01*
X0167880Y0100353D02*
X0165120Y0100353D01*
X0164564Y0101351D02*
X0168436Y0101351D01*
X0169637Y0102350D02*
X0163363Y0102350D01*
X0163500Y0096500D02*
X0161500Y0096500D01*
X0163500Y0096500D02*
X0186500Y0073500D01*
X0192443Y0078385D02*
X0201557Y0078385D01*
X0200558Y0077387D02*
X0194442Y0077387D01*
X0195440Y0076388D02*
X0199560Y0076388D01*
X0198561Y0075390D02*
X0196439Y0075390D01*
X0197437Y0074391D02*
X0197563Y0074391D01*
X0202221Y0073393D02*
X0229092Y0073393D01*
X0228093Y0074391D02*
X0203220Y0074391D01*
X0203255Y0072394D02*
X0209745Y0072394D01*
X0208480Y0071396D02*
X0204520Y0071396D01*
X0205101Y0070397D02*
X0207899Y0070397D01*
X0207600Y0069399D02*
X0205400Y0069399D01*
X0205400Y0068400D02*
X0207600Y0068400D01*
X0207600Y0067402D02*
X0205400Y0067402D01*
X0213255Y0072394D02*
X0282496Y0072394D01*
X0282496Y0071396D02*
X0214520Y0071396D01*
X0218215Y0056418D02*
X0244785Y0056418D01*
X0245466Y0056700D02*
X0243554Y0055908D01*
X0242092Y0054446D01*
X0241300Y0052534D01*
X0241300Y0050466D01*
X0242092Y0048554D01*
X0243554Y0047092D01*
X0245466Y0046300D01*
X0247534Y0046300D01*
X0249446Y0047092D01*
X0250908Y0048554D01*
X0251700Y0050466D01*
X0251700Y0052534D01*
X0250908Y0054446D01*
X0249446Y0055908D01*
X0247534Y0056700D01*
X0245466Y0056700D01*
X0243066Y0055420D02*
X0219934Y0055420D01*
X0220918Y0054421D02*
X0242082Y0054421D01*
X0241668Y0053423D02*
X0231406Y0053423D01*
X0232404Y0052424D02*
X0241300Y0052424D01*
X0241300Y0051426D02*
X0233403Y0051426D01*
X0234401Y0050427D02*
X0241316Y0050427D01*
X0241730Y0049429D02*
X0235400Y0049429D01*
X0236398Y0048430D02*
X0242216Y0048430D01*
X0243215Y0047432D02*
X0237397Y0047432D01*
X0238395Y0046433D02*
X0245145Y0046433D01*
X0243921Y0044436D02*
X0240392Y0044436D01*
X0239394Y0045434D02*
X0256693Y0045434D01*
X0256693Y0044436D02*
X0249079Y0044436D01*
X0250078Y0043437D02*
X0256877Y0043437D01*
X0257291Y0042439D02*
X0250400Y0042439D01*
X0250400Y0041440D02*
X0258134Y0041440D01*
X0258276Y0040442D02*
X0250400Y0040442D01*
X0247855Y0046433D02*
X0256983Y0046433D01*
X0257397Y0047432D02*
X0249785Y0047432D01*
X0250784Y0048430D02*
X0258390Y0048430D01*
X0260350Y0049429D02*
X0251270Y0049429D01*
X0251684Y0050427D02*
X0282496Y0050427D01*
X0282496Y0049429D02*
X0262335Y0049429D01*
X0264295Y0048430D02*
X0282496Y0048430D01*
X0282496Y0047432D02*
X0265288Y0047432D01*
X0265702Y0046433D02*
X0282496Y0046433D01*
X0282496Y0045434D02*
X0265992Y0045434D01*
X0265992Y0044436D02*
X0282496Y0044436D01*
X0282496Y0043437D02*
X0265808Y0043437D01*
X0265394Y0042439D02*
X0282496Y0042439D01*
X0282496Y0041440D02*
X0264551Y0041440D01*
X0264409Y0040442D02*
X0282496Y0040442D01*
X0282496Y0039443D02*
X0265335Y0039443D01*
X0265749Y0038445D02*
X0282496Y0038445D01*
X0282496Y0037446D02*
X0265992Y0037446D01*
X0265992Y0036448D02*
X0282496Y0036448D01*
X0282496Y0035449D02*
X0265761Y0035449D01*
X0265347Y0034451D02*
X0282496Y0034451D01*
X0282496Y0029458D02*
X0249057Y0029458D01*
X0250056Y0028460D02*
X0282496Y0028460D01*
X0282496Y0027461D02*
X0250400Y0027461D01*
X0250400Y0026463D02*
X0282496Y0026463D01*
X0282496Y0025464D02*
X0250400Y0025464D01*
X0249981Y0024466D02*
X0282496Y0024466D01*
X0282496Y0023467D02*
X0248983Y0023467D01*
X0244017Y0023467D02*
X0235296Y0023467D01*
X0236294Y0024466D02*
X0243019Y0024466D01*
X0234297Y0022469D02*
X0282496Y0022469D01*
X0282496Y0021470D02*
X0276367Y0021470D01*
X0274898Y0022079D02*
X0271410Y0022079D01*
X0268187Y0020744D01*
X0265721Y0018278D01*
X0264386Y0015055D01*
X0264386Y0011567D01*
X0265721Y0008345D01*
X0268187Y0005878D01*
X0271410Y0004543D01*
X0274898Y0004543D01*
X0278120Y0005878D01*
X0280586Y0008345D01*
X0281921Y0011567D01*
X0281921Y0015055D01*
X0280586Y0018278D01*
X0278120Y0020744D01*
X0274898Y0022079D01*
X0269940Y0021470D02*
X0233299Y0021470D01*
X0232300Y0020472D02*
X0267915Y0020472D01*
X0266916Y0019473D02*
X0231302Y0019473D01*
X0228500Y0022500D02*
X0224500Y0022500D01*
X0232500Y0026463D02*
X0232634Y0026463D01*
X0232500Y0027461D02*
X0233633Y0027461D01*
X0234631Y0028460D02*
X0232500Y0028460D01*
X0228376Y0033452D02*
X0258248Y0033452D01*
X0257338Y0034451D02*
X0227378Y0034451D01*
X0226379Y0035449D02*
X0256924Y0035449D01*
X0242724Y0036448D02*
X0225381Y0036448D01*
X0224885Y0037600D02*
X0222600Y0039885D01*
X0222600Y0043115D01*
X0224885Y0045400D01*
X0228115Y0045400D01*
X0230400Y0043115D01*
X0230400Y0039885D01*
X0228115Y0037600D01*
X0224885Y0037600D01*
X0224382Y0037446D02*
X0241725Y0037446D01*
X0240727Y0038445D02*
X0228960Y0038445D01*
X0229959Y0039443D02*
X0239728Y0039443D01*
X0238730Y0040442D02*
X0230400Y0040442D01*
X0230400Y0041440D02*
X0237731Y0041440D01*
X0236733Y0042439D02*
X0230400Y0042439D01*
X0230078Y0043437D02*
X0235734Y0043437D01*
X0234736Y0044436D02*
X0229079Y0044436D01*
X0231740Y0047432D02*
X0219785Y0047432D01*
X0220784Y0048430D02*
X0230742Y0048430D01*
X0229743Y0049429D02*
X0221270Y0049429D01*
X0217855Y0046433D02*
X0232739Y0046433D01*
X0233737Y0045434D02*
X0216394Y0045434D01*
X0217392Y0044436D02*
X0223921Y0044436D01*
X0222922Y0043437D02*
X0218391Y0043437D01*
X0219389Y0042439D02*
X0222600Y0042439D01*
X0222600Y0041440D02*
X0220388Y0041440D01*
X0221386Y0040442D02*
X0222600Y0040442D01*
X0222385Y0039443D02*
X0223041Y0039443D01*
X0223383Y0038445D02*
X0224040Y0038445D01*
X0241391Y0043437D02*
X0242922Y0043437D01*
X0242600Y0042439D02*
X0242389Y0042439D01*
X0251700Y0051426D02*
X0282496Y0051426D01*
X0282496Y0052424D02*
X0251700Y0052424D01*
X0251332Y0053423D02*
X0282496Y0053423D01*
X0282496Y0054421D02*
X0250918Y0054421D01*
X0249934Y0055420D02*
X0282496Y0055420D01*
X0282496Y0056418D02*
X0248215Y0056418D01*
X0248731Y0058415D02*
X0254269Y0058415D01*
X0253271Y0059414D02*
X0249729Y0059414D01*
X0250188Y0060412D02*
X0252812Y0060412D01*
X0252600Y0061411D02*
X0250400Y0061411D01*
X0250400Y0062409D02*
X0252600Y0062409D01*
X0252600Y0063408D02*
X0250400Y0063408D01*
X0250400Y0064406D02*
X0252600Y0064406D01*
X0252600Y0065405D02*
X0250400Y0065405D01*
X0250400Y0066403D02*
X0252600Y0066403D01*
X0252652Y0067402D02*
X0250348Y0067402D01*
X0249934Y0068400D02*
X0253066Y0068400D01*
X0253883Y0069399D02*
X0249117Y0069399D01*
X0240215Y0077387D02*
X0282496Y0077387D01*
X0282496Y0078385D02*
X0241214Y0078385D01*
X0242212Y0079384D02*
X0282496Y0079384D01*
X0282496Y0080382D02*
X0243211Y0080382D01*
X0244209Y0081381D02*
X0282496Y0081381D01*
X0282496Y0082379D02*
X0245208Y0082379D01*
X0246206Y0083378D02*
X0282496Y0083378D01*
X0282496Y0084376D02*
X0247205Y0084376D01*
X0248203Y0085375D02*
X0282496Y0085375D01*
X0282496Y0086373D02*
X0249202Y0086373D01*
X0250200Y0087372D02*
X0282496Y0087372D01*
X0282496Y0088370D02*
X0251199Y0088370D01*
X0252197Y0089369D02*
X0282496Y0089369D01*
X0282496Y0090368D02*
X0253196Y0090368D01*
X0254194Y0091366D02*
X0282496Y0091366D01*
X0282496Y0092365D02*
X0255193Y0092365D01*
X0252532Y0095360D02*
X0250249Y0095360D01*
X0250400Y0096359D02*
X0252600Y0096359D01*
X0252600Y0097357D02*
X0250400Y0097357D01*
X0250400Y0098356D02*
X0252600Y0098356D01*
X0252600Y0099354D02*
X0250400Y0099354D01*
X0250400Y0100353D02*
X0252600Y0100353D01*
X0252600Y0101351D02*
X0250400Y0101351D01*
X0250287Y0102350D02*
X0252713Y0102350D01*
X0253127Y0103348D02*
X0249873Y0103348D01*
X0248969Y0104347D02*
X0254031Y0104347D01*
X0256500Y0096500D02*
X0236500Y0076500D01*
X0231500Y0076500D01*
X0234132Y0079384D02*
X0236555Y0079384D01*
X0237554Y0080382D02*
X0233133Y0080382D01*
X0238552Y0081381D02*
X0189448Y0081381D01*
X0188449Y0082379D02*
X0239551Y0082379D01*
X0239217Y0076388D02*
X0282496Y0076388D01*
X0282496Y0075390D02*
X0238218Y0075390D01*
X0234907Y0074391D02*
X0282496Y0074391D01*
X0282496Y0073393D02*
X0233908Y0073393D01*
X0235400Y0087372D02*
X0244544Y0087372D01*
X0245542Y0088370D02*
X0235145Y0088370D01*
X0234146Y0089369D02*
X0246541Y0089369D01*
X0248878Y0093363D02*
X0250535Y0093363D01*
X0249836Y0094362D02*
X0251533Y0094362D01*
X0259117Y0069399D02*
X0263883Y0069399D01*
X0263066Y0068400D02*
X0259934Y0068400D01*
X0260348Y0067402D02*
X0262652Y0067402D01*
X0262600Y0066403D02*
X0260400Y0066403D01*
X0260400Y0065405D02*
X0262600Y0065405D01*
X0262600Y0064406D02*
X0260400Y0064406D01*
X0260400Y0063408D02*
X0262600Y0063408D01*
X0262600Y0062409D02*
X0260400Y0062409D01*
X0260400Y0061411D02*
X0262600Y0061411D01*
X0262812Y0060412D02*
X0260188Y0060412D01*
X0259729Y0059414D02*
X0263271Y0059414D01*
X0264269Y0058415D02*
X0258731Y0058415D01*
X0268731Y0058415D02*
X0274269Y0058415D01*
X0273271Y0059414D02*
X0269729Y0059414D01*
X0270188Y0060412D02*
X0272812Y0060412D01*
X0272600Y0061411D02*
X0270400Y0061411D01*
X0270400Y0062409D02*
X0272600Y0062409D01*
X0272600Y0063408D02*
X0270400Y0063408D01*
X0270400Y0064406D02*
X0272600Y0064406D01*
X0272600Y0065405D02*
X0270400Y0065405D01*
X0270400Y0066403D02*
X0272600Y0066403D01*
X0272652Y0067402D02*
X0270348Y0067402D01*
X0269934Y0068400D02*
X0273066Y0068400D01*
X0273883Y0069399D02*
X0269117Y0069399D01*
X0278878Y0093363D02*
X0282496Y0093363D01*
X0282496Y0094362D02*
X0279836Y0094362D01*
X0280249Y0095360D02*
X0282496Y0095360D01*
X0282496Y0096359D02*
X0280400Y0096359D01*
X0280400Y0097357D02*
X0282496Y0097357D01*
X0282496Y0098356D02*
X0280400Y0098356D01*
X0280400Y0099354D02*
X0282496Y0099354D01*
X0282496Y0100353D02*
X0280400Y0100353D01*
X0280400Y0101351D02*
X0282496Y0101351D01*
X0282496Y0102350D02*
X0280287Y0102350D01*
X0279873Y0103348D02*
X0282496Y0103348D01*
X0224290Y0121321D02*
X0218710Y0121321D01*
X0220172Y0120323D02*
X0222828Y0120323D01*
X0221933Y0119324D02*
X0221067Y0119324D01*
X0221480Y0118326D02*
X0221520Y0118326D01*
X0199637Y0102350D02*
X0193363Y0102350D01*
X0194564Y0101351D02*
X0198436Y0101351D01*
X0197880Y0100353D02*
X0195120Y0100353D01*
X0195400Y0099354D02*
X0197600Y0099354D01*
X0197600Y0098356D02*
X0195400Y0098356D01*
X0195400Y0097357D02*
X0197600Y0097357D01*
X0197600Y0096359D02*
X0195400Y0096359D01*
X0195400Y0095360D02*
X0197600Y0095360D01*
X0197600Y0094362D02*
X0195400Y0094362D01*
X0195400Y0093363D02*
X0197600Y0093363D01*
X0197998Y0092365D02*
X0195002Y0092365D01*
X0194281Y0091366D02*
X0198719Y0091366D01*
X0188719Y0091366D02*
X0184281Y0091366D01*
X0185002Y0092365D02*
X0187998Y0092365D01*
X0187600Y0093363D02*
X0185400Y0093363D01*
X0185400Y0094362D02*
X0187600Y0094362D01*
X0187600Y0095360D02*
X0185400Y0095360D01*
X0185400Y0096359D02*
X0187600Y0096359D01*
X0187600Y0097357D02*
X0185400Y0097357D01*
X0185400Y0098356D02*
X0187600Y0098356D01*
X0187600Y0099354D02*
X0185400Y0099354D01*
X0185120Y0100353D02*
X0187880Y0100353D01*
X0188436Y0101351D02*
X0184564Y0101351D01*
X0183363Y0102350D02*
X0189637Y0102350D01*
X0179637Y0102350D02*
X0173363Y0102350D01*
X0174564Y0101351D02*
X0178436Y0101351D01*
X0177880Y0100353D02*
X0175120Y0100353D01*
X0175400Y0099354D02*
X0177600Y0099354D01*
X0177600Y0098356D02*
X0175400Y0098356D01*
X0175400Y0097357D02*
X0177600Y0097357D01*
X0177600Y0096359D02*
X0175400Y0096359D01*
X0175468Y0095360D02*
X0177600Y0095360D01*
X0177600Y0094362D02*
X0176467Y0094362D01*
X0177465Y0093363D02*
X0177600Y0093363D01*
X0167600Y0095360D02*
X0167468Y0095360D01*
X0171515Y0021470D02*
X0016524Y0021470D01*
X0015055Y0022079D02*
X0011567Y0022079D01*
X0008345Y0020744D01*
X0005878Y0018278D01*
X0004543Y0015055D01*
X0004543Y0011567D01*
X0005878Y0008345D01*
X0008345Y0005878D01*
X0011567Y0004543D01*
X0015055Y0004543D01*
X0018278Y0005878D01*
X0020744Y0008345D01*
X0022079Y0011567D01*
X0022079Y0015055D01*
X0020744Y0018278D01*
X0018278Y0020744D01*
X0015055Y0022079D01*
X0018550Y0020472D02*
X0169490Y0020472D01*
X0168491Y0019473D02*
X0019548Y0019473D01*
X0020547Y0018475D02*
X0167493Y0018475D01*
X0166964Y0017476D02*
X0021076Y0017476D01*
X0021489Y0016478D02*
X0166550Y0016478D01*
X0166136Y0015479D02*
X0021903Y0015479D01*
X0022079Y0014481D02*
X0165961Y0014481D01*
X0165961Y0013482D02*
X0022079Y0013482D01*
X0022079Y0012484D02*
X0165961Y0012484D01*
X0165995Y0011485D02*
X0022045Y0011485D01*
X0021631Y0010487D02*
X0166408Y0010487D01*
X0166822Y0009488D02*
X0021218Y0009488D01*
X0020804Y0008490D02*
X0167235Y0008490D01*
X0168149Y0007491D02*
X0019890Y0007491D01*
X0018892Y0006493D02*
X0169147Y0006493D01*
X0170689Y0005494D02*
X0017350Y0005494D01*
X0009272Y0005494D02*
X0003968Y0005494D01*
X0003968Y0004496D02*
X0282496Y0004496D01*
X0282496Y0005494D02*
X0277193Y0005494D01*
X0278734Y0006493D02*
X0282496Y0006493D01*
X0282496Y0007491D02*
X0279733Y0007491D01*
X0280647Y0008490D02*
X0282496Y0008490D01*
X0282496Y0009488D02*
X0281060Y0009488D01*
X0281474Y0010487D02*
X0282496Y0010487D01*
X0282496Y0011485D02*
X0281887Y0011485D01*
X0281921Y0012484D02*
X0282496Y0012484D01*
X0282496Y0013482D02*
X0281921Y0013482D01*
X0281921Y0014481D02*
X0282496Y0014481D01*
X0282496Y0015479D02*
X0281746Y0015479D01*
X0281332Y0016478D02*
X0282496Y0016478D01*
X0282496Y0017476D02*
X0280918Y0017476D01*
X0280389Y0018475D02*
X0282496Y0018475D01*
X0282496Y0019473D02*
X0279391Y0019473D01*
X0278392Y0020472D02*
X0282496Y0020472D01*
X0267573Y0006493D02*
X0180309Y0006493D01*
X0181308Y0007491D02*
X0266574Y0007491D01*
X0265661Y0008490D02*
X0182221Y0008490D01*
X0182635Y0009488D02*
X0265247Y0009488D01*
X0264833Y0010487D02*
X0183049Y0010487D01*
X0183462Y0011485D02*
X0264420Y0011485D01*
X0264386Y0012484D02*
X0183496Y0012484D01*
X0183496Y0013482D02*
X0264386Y0013482D01*
X0264386Y0014481D02*
X0183496Y0014481D01*
X0183320Y0015479D02*
X0264562Y0015479D01*
X0264975Y0016478D02*
X0182907Y0016478D01*
X0182493Y0017476D02*
X0265389Y0017476D01*
X0265918Y0018475D02*
X0181964Y0018475D01*
X0178768Y0005494D02*
X0269114Y0005494D01*
X0245332Y0171247D02*
X0237668Y0171247D01*
X0239741Y0172245D02*
X0243259Y0172245D01*
X0242261Y0173244D02*
X0240739Y0173244D01*
X0241302Y0174242D02*
X0241698Y0174242D01*
X0235332Y0171247D02*
X0227668Y0171247D01*
X0229741Y0172245D02*
X0233259Y0172245D01*
X0232261Y0173244D02*
X0230739Y0173244D01*
X0231302Y0174242D02*
X0231698Y0174242D01*
X0231896Y0179235D02*
X0231104Y0179235D01*
X0231200Y0180234D02*
X0231800Y0180234D01*
X0232053Y0180234D02*
X0232738Y0180234D01*
X0231800Y0181232D02*
X0231200Y0181232D01*
X0231200Y0182231D02*
X0231800Y0182231D01*
X0231800Y0183229D02*
X0231200Y0183229D01*
X0231200Y0184228D02*
X0231800Y0184228D01*
X0231800Y0185226D02*
X0231200Y0185226D01*
X0231200Y0187223D02*
X0231800Y0187223D01*
X0231800Y0188222D02*
X0231200Y0188222D01*
X0231200Y0189220D02*
X0231800Y0189220D01*
X0231800Y0190219D02*
X0231200Y0190219D01*
X0231200Y0191217D02*
X0231800Y0191217D01*
X0231800Y0192216D02*
X0231200Y0192216D01*
X0227600Y0185226D02*
X0225400Y0185226D01*
X0225400Y0184228D02*
X0227600Y0184228D01*
X0227697Y0183229D02*
X0225361Y0183229D01*
X0224947Y0182231D02*
X0228059Y0182231D01*
X0230262Y0180234D02*
X0230947Y0180234D01*
X0234941Y0182231D02*
X0238053Y0182231D01*
X0237639Y0183229D02*
X0235303Y0183229D01*
X0235400Y0184228D02*
X0237600Y0184228D01*
X0237600Y0185226D02*
X0235400Y0185226D01*
X0225332Y0171247D02*
X0217668Y0171247D01*
X0219741Y0172245D02*
X0223259Y0172245D01*
X0222261Y0173244D02*
X0220739Y0173244D01*
X0221302Y0174242D02*
X0221698Y0174242D01*
X0215332Y0171247D02*
X0207668Y0171247D01*
X0209741Y0172245D02*
X0213259Y0172245D01*
X0212261Y0173244D02*
X0210739Y0173244D01*
X0211302Y0174242D02*
X0211698Y0174242D01*
X0203115Y0202600D02*
X0205400Y0204885D01*
X0205400Y0206200D01*
X0201800Y0206200D01*
X0201800Y0206800D01*
X0201200Y0206800D01*
X0201200Y0210400D01*
X0199885Y0210400D01*
X0197600Y0208115D01*
X0197600Y0206800D01*
X0201200Y0206800D01*
X0201200Y0206200D01*
X0197600Y0206200D01*
X0197600Y0204885D01*
X0199885Y0202600D01*
X0201200Y0202600D01*
X0201200Y0206200D01*
X0201800Y0206200D01*
X0201800Y0202600D01*
X0203115Y0202600D01*
X0203715Y0203199D02*
X0265500Y0203199D01*
X0265500Y0202201D02*
X0181029Y0202201D01*
X0182028Y0203199D02*
X0199285Y0203199D01*
X0198287Y0204198D02*
X0183026Y0204198D01*
X0184025Y0205196D02*
X0197600Y0205196D01*
X0197600Y0206195D02*
X0185023Y0206195D01*
X0186022Y0207193D02*
X0197600Y0207193D01*
X0197676Y0208192D02*
X0187020Y0208192D01*
X0188019Y0209190D02*
X0198675Y0209190D01*
X0199673Y0210189D02*
X0189017Y0210189D01*
X0190016Y0211187D02*
X0208897Y0211187D01*
X0209291Y0210794D02*
X0208194Y0211891D01*
X0207600Y0213324D01*
X0207600Y0219676D01*
X0208194Y0221109D01*
X0209291Y0222206D01*
X0210724Y0222800D01*
X0212276Y0222800D01*
X0213709Y0222206D01*
X0214044Y0221872D01*
X0227672Y0235500D01*
X0229462Y0235500D01*
X0229842Y0236417D01*
X0231150Y0237725D01*
X0232859Y0238433D01*
X0234708Y0238433D01*
X0236417Y0237725D01*
X0237725Y0236417D01*
X0237761Y0236331D01*
X0238111Y0236812D01*
X0238628Y0237330D01*
X0239221Y0237760D01*
X0239873Y0238092D01*
X0240569Y0238319D01*
X0241292Y0238433D01*
X0241468Y0238433D01*
X0241468Y0233973D01*
X0241846Y0233973D01*
X0241846Y0238433D01*
X0242023Y0238433D01*
X0242746Y0238319D01*
X0243442Y0238092D01*
X0244094Y0237760D01*
X0244686Y0237330D01*
X0245204Y0236812D01*
X0245634Y0236220D01*
X0245966Y0235568D01*
X0246193Y0234872D01*
X0246307Y0234149D01*
X0246307Y0233972D01*
X0241847Y0233972D01*
X0241847Y0233594D01*
X0246307Y0233594D01*
X0246307Y0233418D01*
X0246193Y0232695D01*
X0245966Y0231999D01*
X0245634Y0231347D01*
X0245204Y0230754D01*
X0244686Y0230237D01*
X0244094Y0229807D01*
X0243442Y0229475D01*
X0242746Y0229248D01*
X0242023Y0229134D01*
X0241846Y0229134D01*
X0241846Y0233594D01*
X0241468Y0233594D01*
X0241468Y0229134D01*
X0241292Y0229134D01*
X0240569Y0229248D01*
X0239873Y0229475D01*
X0239221Y0229807D01*
X0238628Y0230237D01*
X0238111Y0230754D01*
X0237761Y0231236D01*
X0237725Y0231150D01*
X0236417Y0229842D01*
X0234708Y0229134D01*
X0232859Y0229134D01*
X0231150Y0229842D01*
X0229842Y0231150D01*
X0229697Y0231500D01*
X0229328Y0231500D01*
X0220507Y0222679D01*
X0221116Y0222800D01*
X0221200Y0222800D01*
X0221200Y0216800D01*
X0221800Y0216800D01*
X0221800Y0222800D01*
X0221884Y0222800D01*
X0222638Y0222650D01*
X0223347Y0222356D01*
X0223986Y0221929D01*
X0224529Y0221386D01*
X0224956Y0220747D01*
X0225250Y0220038D01*
X0225400Y0219284D01*
X0225400Y0216800D01*
X0221800Y0216800D01*
X0221800Y0216200D01*
X0225400Y0216200D01*
X0225400Y0213716D01*
X0225250Y0212962D01*
X0224956Y0212253D01*
X0224529Y0211614D01*
X0223986Y0211071D01*
X0223347Y0210644D01*
X0222638Y0210350D01*
X0221884Y0210200D01*
X0221800Y0210200D01*
X0221800Y0216200D01*
X0221200Y0216200D01*
X0221200Y0210200D01*
X0221116Y0210200D01*
X0220362Y0210350D01*
X0219653Y0210644D01*
X0219014Y0211071D01*
X0218471Y0211614D01*
X0218044Y0212253D01*
X0217750Y0212962D01*
X0217600Y0213716D01*
X0217600Y0216200D01*
X0221200Y0216200D01*
X0221200Y0216800D01*
X0217600Y0216800D01*
X0217600Y0219284D01*
X0217721Y0219893D01*
X0215400Y0217572D01*
X0215400Y0213324D01*
X0214806Y0211891D01*
X0213709Y0210794D01*
X0212276Y0210200D01*
X0210724Y0210200D01*
X0209291Y0210794D01*
X0208072Y0212186D02*
X0191014Y0212186D01*
X0192013Y0213184D02*
X0207658Y0213184D01*
X0207600Y0214183D02*
X0193011Y0214183D01*
X0194010Y0215181D02*
X0207600Y0215181D01*
X0207600Y0216180D02*
X0195008Y0216180D01*
X0196007Y0217178D02*
X0207600Y0217178D01*
X0207600Y0218177D02*
X0197005Y0218177D01*
X0198004Y0219175D02*
X0207600Y0219175D01*
X0207806Y0220174D02*
X0199002Y0220174D01*
X0200001Y0221172D02*
X0208257Y0221172D01*
X0209256Y0222171D02*
X0200999Y0222171D01*
X0201998Y0223170D02*
X0215341Y0223170D01*
X0216340Y0224168D02*
X0202996Y0224168D01*
X0203500Y0225167D02*
X0217338Y0225167D01*
X0218337Y0226165D02*
X0203500Y0226165D01*
X0203500Y0227164D02*
X0219335Y0227164D01*
X0220334Y0228162D02*
X0203500Y0228162D01*
X0203500Y0229161D02*
X0209172Y0229161D01*
X0211151Y0229161D02*
X0217046Y0229161D01*
X0219025Y0229161D02*
X0221332Y0229161D01*
X0220987Y0230159D02*
X0222331Y0230159D01*
X0221980Y0231158D02*
X0223329Y0231158D01*
X0222394Y0232156D02*
X0224328Y0232156D01*
X0225326Y0233155D02*
X0222685Y0233155D01*
X0222685Y0234153D02*
X0226325Y0234153D01*
X0227323Y0235152D02*
X0222501Y0235152D01*
X0222088Y0236150D02*
X0229731Y0236150D01*
X0230573Y0237149D02*
X0221246Y0237149D01*
X0219650Y0238147D02*
X0232168Y0238147D01*
X0235398Y0238147D02*
X0240041Y0238147D01*
X0241468Y0238147D02*
X0241846Y0238147D01*
X0241846Y0237149D02*
X0241468Y0237149D01*
X0241468Y0236150D02*
X0241846Y0236150D01*
X0241846Y0235152D02*
X0241468Y0235152D01*
X0241468Y0234153D02*
X0241846Y0234153D01*
X0241846Y0233155D02*
X0241468Y0233155D01*
X0241468Y0232156D02*
X0241846Y0232156D01*
X0241846Y0231158D02*
X0241468Y0231158D01*
X0241468Y0230159D02*
X0241846Y0230159D01*
X0241846Y0229161D02*
X0241468Y0229161D01*
X0241123Y0229161D02*
X0234773Y0229161D01*
X0232794Y0229161D02*
X0226989Y0229161D01*
X0227988Y0230159D02*
X0230832Y0230159D01*
X0229838Y0231158D02*
X0228986Y0231158D01*
X0228500Y0233500D02*
X0211500Y0216500D01*
X0215400Y0216180D02*
X0217600Y0216180D01*
X0217600Y0217178D02*
X0215400Y0217178D01*
X0216005Y0218177D02*
X0217600Y0218177D01*
X0217600Y0219175D02*
X0217004Y0219175D01*
X0214343Y0222171D02*
X0213744Y0222171D01*
X0215400Y0215181D02*
X0217600Y0215181D01*
X0217600Y0214183D02*
X0215400Y0214183D01*
X0215342Y0213184D02*
X0217706Y0213184D01*
X0218088Y0212186D02*
X0214928Y0212186D01*
X0214103Y0211187D02*
X0218897Y0211187D01*
X0221200Y0211187D02*
X0221800Y0211187D01*
X0221800Y0212186D02*
X0221200Y0212186D01*
X0221200Y0213184D02*
X0221800Y0213184D01*
X0221800Y0214183D02*
X0221200Y0214183D01*
X0221200Y0215181D02*
X0221800Y0215181D01*
X0221800Y0216180D02*
X0221200Y0216180D01*
X0221500Y0216500D02*
X0223500Y0216500D01*
X0230500Y0223500D01*
X0234500Y0223500D01*
X0241500Y0216500D01*
X0241800Y0216800D02*
X0245400Y0216800D01*
X0245400Y0219284D01*
X0245250Y0220038D01*
X0244956Y0220747D01*
X0244529Y0221386D01*
X0243986Y0221929D01*
X0243347Y0222356D01*
X0242638Y0222650D01*
X0241884Y0222800D01*
X0241800Y0222800D01*
X0241800Y0216800D01*
X0241800Y0216200D01*
X0245400Y0216200D01*
X0245400Y0213716D01*
X0245250Y0212962D01*
X0244956Y0212253D01*
X0244529Y0211614D01*
X0243986Y0211071D01*
X0243347Y0210644D01*
X0242638Y0210350D01*
X0241884Y0210200D01*
X0241800Y0210200D01*
X0241800Y0216200D01*
X0241200Y0216200D01*
X0241200Y0210200D01*
X0241116Y0210200D01*
X0240362Y0210350D01*
X0239653Y0210644D01*
X0239014Y0211071D01*
X0238471Y0211614D01*
X0238044Y0212253D01*
X0237750Y0212962D01*
X0237600Y0213716D01*
X0237600Y0216200D01*
X0241200Y0216200D01*
X0241200Y0216800D01*
X0241200Y0222800D01*
X0241116Y0222800D01*
X0240362Y0222650D01*
X0239653Y0222356D01*
X0239014Y0221929D01*
X0238471Y0221386D01*
X0238044Y0220747D01*
X0237750Y0220038D01*
X0237600Y0219284D01*
X0237600Y0216800D01*
X0241200Y0216800D01*
X0241800Y0216800D01*
X0241800Y0217178D02*
X0241200Y0217178D01*
X0241200Y0216180D02*
X0241800Y0216180D01*
X0241800Y0215181D02*
X0241200Y0215181D01*
X0241200Y0214183D02*
X0241800Y0214183D01*
X0241800Y0213184D02*
X0241200Y0213184D01*
X0241200Y0212186D02*
X0241800Y0212186D01*
X0241800Y0211187D02*
X0241200Y0211187D01*
X0238897Y0211187D02*
X0234103Y0211187D01*
X0233709Y0210794D02*
X0234806Y0211891D01*
X0235400Y0213324D01*
X0235400Y0219676D01*
X0234806Y0221109D01*
X0233709Y0222206D01*
X0232276Y0222800D01*
X0230724Y0222800D01*
X0229291Y0222206D01*
X0228194Y0221109D01*
X0227600Y0219676D01*
X0227600Y0213324D01*
X0228194Y0211891D01*
X0229291Y0210794D01*
X0230724Y0210200D01*
X0232276Y0210200D01*
X0233709Y0210794D01*
X0234928Y0212186D02*
X0238088Y0212186D01*
X0237706Y0213184D02*
X0235342Y0213184D01*
X0235400Y0214183D02*
X0237600Y0214183D01*
X0237600Y0215181D02*
X0235400Y0215181D01*
X0235400Y0216180D02*
X0237600Y0216180D01*
X0237600Y0217178D02*
X0235400Y0217178D01*
X0235400Y0218177D02*
X0237600Y0218177D01*
X0237600Y0219175D02*
X0235400Y0219175D01*
X0235194Y0220174D02*
X0237806Y0220174D01*
X0238328Y0221172D02*
X0234743Y0221172D01*
X0233744Y0222171D02*
X0239376Y0222171D01*
X0241200Y0222171D02*
X0241800Y0222171D01*
X0241800Y0221172D02*
X0241200Y0221172D01*
X0241200Y0220174D02*
X0241800Y0220174D01*
X0241800Y0219175D02*
X0241200Y0219175D01*
X0241200Y0218177D02*
X0241800Y0218177D01*
X0245400Y0218177D02*
X0247600Y0218177D01*
X0247600Y0219175D02*
X0245400Y0219175D01*
X0245194Y0220174D02*
X0247806Y0220174D01*
X0247600Y0219676D02*
X0248194Y0221109D01*
X0249291Y0222206D01*
X0250724Y0222800D01*
X0252276Y0222800D01*
X0253709Y0222206D01*
X0254806Y0221109D01*
X0255400Y0219676D01*
X0255400Y0213324D01*
X0254806Y0211891D01*
X0253709Y0210794D01*
X0252276Y0210200D01*
X0250724Y0210200D01*
X0249291Y0210794D01*
X0248194Y0211891D01*
X0247600Y0213324D01*
X0247600Y0219676D01*
X0248257Y0221172D02*
X0244672Y0221172D01*
X0243624Y0222171D02*
X0249256Y0222171D01*
X0253744Y0222171D02*
X0259376Y0222171D01*
X0259653Y0222356D02*
X0259014Y0221929D01*
X0258471Y0221386D01*
X0258044Y0220747D01*
X0257750Y0220038D01*
X0257600Y0219284D01*
X0257600Y0216800D01*
X0261200Y0216800D01*
X0261200Y0222800D01*
X0261116Y0222800D01*
X0260362Y0222650D01*
X0259653Y0222356D01*
X0261200Y0222171D02*
X0261800Y0222171D01*
X0261800Y0222800D02*
X0261800Y0216800D01*
X0265400Y0216800D01*
X0265400Y0219284D01*
X0265250Y0220038D01*
X0264956Y0220747D01*
X0264529Y0221386D01*
X0263986Y0221929D01*
X0263347Y0222356D01*
X0262638Y0222650D01*
X0261884Y0222800D01*
X0261800Y0222800D01*
X0261800Y0221172D02*
X0261200Y0221172D01*
X0261200Y0220174D02*
X0261800Y0220174D01*
X0261800Y0219175D02*
X0261200Y0219175D01*
X0261200Y0218177D02*
X0261800Y0218177D01*
X0261800Y0217178D02*
X0261200Y0217178D01*
X0261200Y0216800D02*
X0261800Y0216800D01*
X0261800Y0216200D01*
X0265400Y0216200D01*
X0265400Y0213716D01*
X0265250Y0212962D01*
X0264956Y0212253D01*
X0264529Y0211614D01*
X0263986Y0211071D01*
X0263347Y0210644D01*
X0262638Y0210350D01*
X0261884Y0210200D01*
X0261800Y0210200D01*
X0261800Y0216200D01*
X0261200Y0216200D01*
X0261200Y0210200D01*
X0261116Y0210200D01*
X0260362Y0210350D01*
X0259653Y0210644D01*
X0259014Y0211071D01*
X0258471Y0211614D01*
X0258044Y0212253D01*
X0257750Y0212962D01*
X0257600Y0213716D01*
X0257600Y0216200D01*
X0261200Y0216200D01*
X0261200Y0216800D01*
X0261200Y0216180D02*
X0261800Y0216180D01*
X0261800Y0215181D02*
X0261200Y0215181D01*
X0261200Y0214183D02*
X0261800Y0214183D01*
X0261800Y0213184D02*
X0261200Y0213184D01*
X0261200Y0212186D02*
X0261800Y0212186D01*
X0261800Y0211187D02*
X0261200Y0211187D01*
X0258897Y0211187D02*
X0254103Y0211187D01*
X0254928Y0212186D02*
X0258088Y0212186D01*
X0257706Y0213184D02*
X0255342Y0213184D01*
X0255400Y0214183D02*
X0257600Y0214183D01*
X0257600Y0215181D02*
X0255400Y0215181D01*
X0255400Y0216180D02*
X0257600Y0216180D01*
X0257600Y0217178D02*
X0255400Y0217178D01*
X0255400Y0218177D02*
X0257600Y0218177D01*
X0257600Y0219175D02*
X0255400Y0219175D01*
X0255194Y0220174D02*
X0257806Y0220174D01*
X0258328Y0221172D02*
X0254743Y0221172D01*
X0247600Y0217178D02*
X0245400Y0217178D01*
X0245400Y0216180D02*
X0247600Y0216180D01*
X0247600Y0215181D02*
X0245400Y0215181D01*
X0245400Y0214183D02*
X0247600Y0214183D01*
X0247658Y0213184D02*
X0245294Y0213184D01*
X0244912Y0212186D02*
X0248072Y0212186D01*
X0248897Y0211187D02*
X0244103Y0211187D01*
X0229256Y0222171D02*
X0223624Y0222171D01*
X0224672Y0221172D02*
X0228257Y0221172D01*
X0227806Y0220174D02*
X0225194Y0220174D01*
X0225400Y0219175D02*
X0227600Y0219175D01*
X0227600Y0218177D02*
X0225400Y0218177D01*
X0225400Y0217178D02*
X0227600Y0217178D01*
X0227600Y0216180D02*
X0225400Y0216180D01*
X0225400Y0215181D02*
X0227600Y0215181D01*
X0227600Y0214183D02*
X0225400Y0214183D01*
X0225294Y0213184D02*
X0227658Y0213184D01*
X0228072Y0212186D02*
X0224912Y0212186D01*
X0224103Y0211187D02*
X0228897Y0211187D01*
X0221500Y0216500D02*
X0211500Y0206500D01*
X0201500Y0206500D01*
X0201800Y0206800D02*
X0201800Y0210400D01*
X0203115Y0210400D01*
X0205400Y0208115D01*
X0205400Y0206800D01*
X0201800Y0206800D01*
X0201800Y0207193D02*
X0201200Y0207193D01*
X0201200Y0206195D02*
X0201800Y0206195D01*
X0201800Y0205196D02*
X0201200Y0205196D01*
X0201200Y0204198D02*
X0201800Y0204198D01*
X0201800Y0203199D02*
X0201200Y0203199D01*
X0204713Y0204198D02*
X0265500Y0204198D01*
X0265500Y0205196D02*
X0205400Y0205196D01*
X0205400Y0206195D02*
X0265500Y0206195D01*
X0265500Y0207193D02*
X0205400Y0207193D01*
X0205324Y0208192D02*
X0265500Y0208192D01*
X0265500Y0209190D02*
X0204325Y0209190D01*
X0203327Y0210189D02*
X0265500Y0210189D01*
X0265500Y0211187D02*
X0264103Y0211187D01*
X0264912Y0212186D02*
X0265500Y0212186D01*
X0265500Y0213184D02*
X0265294Y0213184D01*
X0265400Y0214183D02*
X0265500Y0214183D01*
X0265500Y0215181D02*
X0265400Y0215181D01*
X0265400Y0216180D02*
X0265500Y0216180D01*
X0265500Y0217178D02*
X0265400Y0217178D01*
X0265400Y0218177D02*
X0265500Y0218177D01*
X0265500Y0219175D02*
X0265400Y0219175D01*
X0265500Y0220174D02*
X0265194Y0220174D01*
X0265500Y0221172D02*
X0264672Y0221172D01*
X0265500Y0222171D02*
X0263624Y0222171D01*
X0265500Y0223170D02*
X0220998Y0223170D01*
X0221200Y0222171D02*
X0221800Y0222171D01*
X0221800Y0221172D02*
X0221200Y0221172D01*
X0221200Y0220174D02*
X0221800Y0220174D01*
X0221800Y0219175D02*
X0221200Y0219175D01*
X0221200Y0218177D02*
X0221800Y0218177D01*
X0221800Y0217178D02*
X0221200Y0217178D01*
X0221996Y0224168D02*
X0265500Y0224168D01*
X0265500Y0225167D02*
X0222995Y0225167D01*
X0223993Y0226165D02*
X0265500Y0226165D01*
X0265500Y0227164D02*
X0224992Y0227164D01*
X0225990Y0228162D02*
X0265500Y0228162D01*
X0265500Y0229161D02*
X0262332Y0229161D01*
X0260353Y0229161D02*
X0242192Y0229161D01*
X0244579Y0230159D02*
X0258391Y0230159D01*
X0257397Y0231158D02*
X0245497Y0231158D01*
X0246018Y0232156D02*
X0256984Y0232156D01*
X0256693Y0233155D02*
X0246265Y0233155D01*
X0246306Y0234153D02*
X0256693Y0234153D01*
X0256877Y0235152D02*
X0246102Y0235152D01*
X0245670Y0236150D02*
X0256021Y0236150D01*
X0255023Y0237149D02*
X0244868Y0237149D01*
X0243274Y0238147D02*
X0254024Y0238147D01*
X0254500Y0240500D02*
X0260500Y0234500D01*
X0261343Y0233783D01*
X0264294Y0230159D02*
X0265500Y0230159D01*
X0265500Y0231158D02*
X0265288Y0231158D01*
X0261153Y0241468D02*
X0256693Y0241468D01*
X0256693Y0241292D01*
X0256722Y0241106D01*
X0255328Y0242500D01*
X0193328Y0242500D01*
X0198328Y0247500D01*
X0257151Y0247500D01*
X0257401Y0246898D01*
X0258709Y0245590D01*
X0258795Y0245554D01*
X0258313Y0245204D01*
X0257796Y0244686D01*
X0257366Y0244094D01*
X0257034Y0243442D01*
X0256807Y0242746D01*
X0256693Y0242023D01*
X0256693Y0241846D01*
X0261153Y0241846D01*
X0261153Y0241468D01*
X0258246Y0245137D02*
X0195965Y0245137D01*
X0196964Y0246135D02*
X0258163Y0246135D01*
X0257303Y0247134D02*
X0197962Y0247134D01*
X0197500Y0249500D02*
X0260500Y0249500D01*
X0261343Y0249531D01*
X0257398Y0244138D02*
X0194967Y0244138D01*
X0193968Y0243140D02*
X0256935Y0243140D01*
X0256712Y0242141D02*
X0255687Y0242141D01*
X0256686Y0241143D02*
X0256716Y0241143D01*
X0254500Y0240500D02*
X0191500Y0240500D01*
X0182500Y0231500D01*
X0178626Y0231500D01*
X0178626Y0241500D02*
X0189500Y0241500D01*
X0197500Y0249500D01*
X0192500Y0238500D02*
X0205500Y0238500D01*
X0209500Y0234500D01*
X0210161Y0233783D01*
X0213372Y0237149D02*
X0214825Y0237149D01*
X0216420Y0238147D02*
X0211776Y0238147D01*
X0213113Y0230159D02*
X0215084Y0230159D01*
X0207210Y0230159D02*
X0205239Y0230159D01*
X0202287Y0233783D02*
X0201500Y0233500D01*
X0201500Y0225500D01*
X0171500Y0195500D01*
X0171500Y0186500D01*
X0174698Y0191217D02*
X0178302Y0191217D01*
X0177825Y0190219D02*
X0175175Y0190219D01*
X0175400Y0189220D02*
X0177600Y0189220D01*
X0177600Y0188222D02*
X0175400Y0188222D01*
X0175400Y0187223D02*
X0177600Y0187223D01*
X0177600Y0186225D02*
X0175400Y0186225D01*
X0175400Y0185226D02*
X0177600Y0185226D01*
X0177600Y0184228D02*
X0175400Y0184228D01*
X0175361Y0183229D02*
X0177639Y0183229D01*
X0178053Y0182231D02*
X0174947Y0182231D01*
X0161500Y0186500D02*
X0161500Y0188500D01*
X0189500Y0216500D01*
X0189500Y0235500D01*
X0192500Y0238500D01*
X0176304Y0248132D02*
X0171961Y0248132D01*
X0171181Y0247134D02*
X0175305Y0247134D01*
X0174307Y0246135D02*
X0170837Y0246135D01*
X0169801Y0245137D02*
X0173308Y0245137D01*
X0172959Y0249131D02*
X0175480Y0249131D01*
X0174726Y0250129D02*
X0173958Y0250129D01*
X0168500Y0247500D02*
X0177500Y0256500D01*
X0176472Y0264386D02*
X0172984Y0264386D01*
X0169762Y0265721D01*
X0167295Y0268187D01*
X0165961Y0271410D01*
X0165961Y0274898D01*
X0167295Y0278120D01*
X0169762Y0280586D01*
X0172984Y0281921D01*
X0176472Y0281921D01*
X0179695Y0280586D01*
X0182161Y0278120D01*
X0183496Y0274898D01*
X0183496Y0271410D01*
X0182161Y0268187D01*
X0179695Y0265721D01*
X0176472Y0264386D01*
X0178213Y0265107D02*
X0269668Y0265107D01*
X0267802Y0266105D02*
X0180080Y0266105D01*
X0181078Y0267104D02*
X0266804Y0267104D01*
X0265805Y0268103D02*
X0182077Y0268103D01*
X0182540Y0269101D02*
X0265342Y0269101D01*
X0264928Y0270100D02*
X0182953Y0270100D01*
X0183367Y0271098D02*
X0264515Y0271098D01*
X0264386Y0272097D02*
X0183496Y0272097D01*
X0183496Y0273095D02*
X0264386Y0273095D01*
X0264386Y0274094D02*
X0183496Y0274094D01*
X0183415Y0275092D02*
X0264466Y0275092D01*
X0264880Y0276091D02*
X0183002Y0276091D01*
X0182588Y0277089D02*
X0265294Y0277089D01*
X0265707Y0278088D02*
X0182175Y0278088D01*
X0181195Y0279086D02*
X0266687Y0279086D01*
X0267685Y0280085D02*
X0180197Y0280085D01*
X0178496Y0281083D02*
X0269386Y0281083D01*
X0238447Y0237149D02*
X0236994Y0237149D01*
X0233783Y0233783D02*
X0233500Y0233500D01*
X0228500Y0233500D01*
X0236735Y0230159D02*
X0238736Y0230159D01*
X0237818Y0231158D02*
X0237728Y0231158D01*
X0269500Y0210707D02*
X0270724Y0210200D01*
X0272276Y0210200D01*
X0273500Y0210707D01*
X0273500Y0192254D01*
X0273347Y0192356D01*
X0272638Y0192650D01*
X0271884Y0192800D01*
X0271800Y0192800D01*
X0271800Y0186800D01*
X0271200Y0186800D01*
X0271200Y0192800D01*
X0271116Y0192800D01*
X0270362Y0192650D01*
X0269653Y0192356D01*
X0269500Y0192254D01*
X0269500Y0210707D01*
X0269500Y0210189D02*
X0273500Y0210189D01*
X0273500Y0209190D02*
X0269500Y0209190D01*
X0269500Y0208192D02*
X0273500Y0208192D01*
X0273500Y0207193D02*
X0269500Y0207193D01*
X0269500Y0206195D02*
X0273500Y0206195D01*
X0273500Y0205196D02*
X0269500Y0205196D01*
X0269500Y0204198D02*
X0273500Y0204198D01*
X0273500Y0203199D02*
X0269500Y0203199D01*
X0269500Y0202201D02*
X0273500Y0202201D01*
X0273500Y0201202D02*
X0269500Y0201202D01*
X0269500Y0200204D02*
X0273500Y0200204D01*
X0273500Y0199205D02*
X0269500Y0199205D01*
X0269500Y0198207D02*
X0273500Y0198207D01*
X0273500Y0197208D02*
X0269500Y0197208D01*
X0269500Y0196210D02*
X0273500Y0196210D01*
X0273500Y0195211D02*
X0269500Y0195211D01*
X0269500Y0194213D02*
X0273500Y0194213D01*
X0273500Y0193214D02*
X0269500Y0193214D01*
X0271200Y0192216D02*
X0271800Y0192216D01*
X0271800Y0191217D02*
X0271200Y0191217D01*
X0271200Y0190219D02*
X0271800Y0190219D01*
X0271800Y0189220D02*
X0271200Y0189220D01*
X0271200Y0188222D02*
X0271800Y0188222D01*
X0271800Y0187223D02*
X0271200Y0187223D01*
X0271200Y0185226D02*
X0271800Y0185226D01*
X0271800Y0184228D02*
X0271200Y0184228D01*
X0271200Y0183229D02*
X0271800Y0183229D01*
X0271800Y0182231D02*
X0271200Y0182231D01*
X0271200Y0181232D02*
X0271800Y0181232D01*
X0201800Y0208192D02*
X0201200Y0208192D01*
X0201200Y0209190D02*
X0201800Y0209190D01*
X0201800Y0210189D02*
X0201200Y0210189D01*
X0181500Y0216500D02*
X0179500Y0216500D01*
X0172500Y0209500D01*
X0146500Y0209500D01*
X0141500Y0216500D02*
X0141500Y0220500D01*
X0158500Y0237500D01*
X0168500Y0237500D01*
X0143296Y0253125D02*
X0133953Y0253125D01*
X0132955Y0252126D02*
X0142298Y0252126D01*
X0141299Y0251128D02*
X0131956Y0251128D01*
X0130958Y0250129D02*
X0140301Y0250129D01*
X0139302Y0249131D02*
X0129959Y0249131D01*
X0128961Y0248132D02*
X0138304Y0248132D01*
X0137305Y0247134D02*
X0127962Y0247134D01*
X0126964Y0246135D02*
X0136307Y0246135D01*
X0135308Y0245137D02*
X0125965Y0245137D01*
X0124967Y0244138D02*
X0134310Y0244138D01*
X0133311Y0243140D02*
X0123968Y0243140D01*
X0122970Y0242141D02*
X0132313Y0242141D01*
X0131314Y0241143D02*
X0121971Y0241143D01*
X0120973Y0240144D02*
X0130316Y0240144D01*
X0129317Y0239146D02*
X0119974Y0239146D01*
X0119799Y0238147D02*
X0119421Y0238147D01*
X0119421Y0237149D02*
X0119799Y0237149D01*
X0119799Y0236150D02*
X0119421Y0236150D01*
X0119421Y0235152D02*
X0119799Y0235152D01*
X0119799Y0234153D02*
X0119421Y0234153D01*
X0119421Y0230159D02*
X0119799Y0230159D01*
X0122821Y0237149D02*
X0124274Y0237149D01*
X0125869Y0238147D02*
X0121226Y0238147D01*
X0120724Y0222800D02*
X0119291Y0222206D01*
X0118194Y0221109D01*
X0117600Y0219676D01*
X0117600Y0213324D01*
X0118194Y0211891D01*
X0119291Y0210794D01*
X0120724Y0210200D01*
X0122276Y0210200D01*
X0123709Y0210794D01*
X0124806Y0211891D01*
X0125400Y0213324D01*
X0125400Y0219676D01*
X0124806Y0221109D01*
X0123709Y0222206D01*
X0122276Y0222800D01*
X0120724Y0222800D01*
X0119256Y0222171D02*
X0113744Y0222171D01*
X0114743Y0221172D02*
X0118257Y0221172D01*
X0117806Y0220174D02*
X0115194Y0220174D01*
X0115400Y0219175D02*
X0117600Y0219175D01*
X0117600Y0218177D02*
X0115400Y0218177D01*
X0115400Y0217178D02*
X0117600Y0217178D01*
X0117600Y0216180D02*
X0115400Y0216180D01*
X0115400Y0215181D02*
X0117600Y0215181D01*
X0117600Y0214183D02*
X0115400Y0214183D01*
X0115342Y0213184D02*
X0117658Y0213184D01*
X0118072Y0212186D02*
X0114928Y0212186D01*
X0114103Y0211187D02*
X0118897Y0211187D01*
X0124103Y0211187D02*
X0125984Y0211187D01*
X0125500Y0212186D02*
X0124928Y0212186D01*
X0125342Y0213184D02*
X0125500Y0213184D01*
X0125500Y0214183D02*
X0125400Y0214183D01*
X0125400Y0215181D02*
X0125500Y0215181D01*
X0125500Y0216180D02*
X0125400Y0216180D01*
X0125400Y0217178D02*
X0125500Y0217178D01*
X0125500Y0218177D02*
X0125400Y0218177D01*
X0125400Y0219175D02*
X0125500Y0219175D01*
X0125500Y0220174D02*
X0125194Y0220174D01*
X0125500Y0221172D02*
X0124743Y0221172D01*
X0125500Y0222171D02*
X0123744Y0222171D01*
X0126983Y0210189D02*
X0003968Y0210189D01*
X0003968Y0211187D02*
X0108897Y0211187D01*
X0127981Y0209190D02*
X0003968Y0209190D01*
X0003968Y0208192D02*
X0031149Y0208192D01*
X0028739Y0207193D02*
X0003968Y0207193D01*
X0003968Y0206195D02*
X0027586Y0206195D01*
X0026588Y0205196D02*
X0003968Y0205196D01*
X0003968Y0204198D02*
X0025965Y0204198D01*
X0025551Y0203199D02*
X0003968Y0203199D01*
X0003968Y0202201D02*
X0025138Y0202201D01*
X0025016Y0201202D02*
X0003968Y0201202D01*
X0003968Y0200204D02*
X0025016Y0200204D01*
X0025016Y0199205D02*
X0003968Y0199205D01*
X0003968Y0198207D02*
X0025233Y0198207D01*
X0025647Y0197208D02*
X0003968Y0197208D01*
X0003968Y0196210D02*
X0026060Y0196210D01*
X0026818Y0195211D02*
X0003968Y0195211D01*
X0003968Y0194213D02*
X0027816Y0194213D01*
X0029295Y0193214D02*
X0003968Y0193214D01*
X0035429Y0161262D02*
X0041433Y0161262D01*
X0040435Y0160263D02*
X0036335Y0160263D01*
X0036749Y0159265D02*
X0039436Y0159265D01*
X0038438Y0158266D02*
X0036858Y0158266D01*
X0036777Y0157268D02*
X0037439Y0157268D01*
X0036441Y0156269D02*
X0036363Y0156269D01*
X0036500Y0153500D02*
X0042500Y0159500D01*
X0038500Y0152275D02*
X0038104Y0152275D01*
X0038500Y0151277D02*
X0035414Y0151277D01*
X0036329Y0150278D02*
X0038500Y0150278D01*
X0038500Y0149280D02*
X0036743Y0149280D01*
X0036858Y0148281D02*
X0038500Y0148281D01*
X0038500Y0147283D02*
X0036783Y0147283D01*
X0036370Y0146284D02*
X0038500Y0146284D01*
X0038500Y0145286D02*
X0035511Y0145286D01*
X0038500Y0144287D02*
X0025116Y0144287D01*
X0025047Y0143289D02*
X0038500Y0143289D01*
X0038500Y0142290D02*
X0024975Y0142290D01*
X0024562Y0141292D02*
X0030593Y0141292D01*
X0030808Y0141506D02*
X0029722Y0140420D01*
X0029134Y0139001D01*
X0029134Y0137464D01*
X0029722Y0136045D01*
X0030808Y0134958D01*
X0032228Y0134370D01*
X0033764Y0134370D01*
X0035184Y0134958D01*
X0036270Y0136045D01*
X0036858Y0137464D01*
X0036858Y0139001D01*
X0036270Y0140420D01*
X0035184Y0141506D01*
X0033764Y0142094D01*
X0032228Y0142094D01*
X0030808Y0141506D01*
X0029669Y0140293D02*
X0023708Y0140293D01*
X0023580Y0136299D02*
X0029616Y0136299D01*
X0029203Y0137298D02*
X0018500Y0137298D01*
X0018500Y0138296D02*
X0029134Y0138296D01*
X0029256Y0139295D02*
X0018500Y0139295D01*
X0018500Y0140293D02*
X0018662Y0140293D01*
X0018790Y0136299D02*
X0018500Y0136299D01*
X0018500Y0130308D02*
X0018647Y0130308D01*
X0018519Y0129309D02*
X0029262Y0129309D01*
X0029134Y0128311D02*
X0019517Y0128311D01*
X0020516Y0127312D02*
X0029197Y0127312D01*
X0029610Y0126314D02*
X0021514Y0126314D01*
X0022513Y0125315D02*
X0030451Y0125315D01*
X0029675Y0130308D02*
X0023723Y0130308D01*
X0024568Y0131306D02*
X0030608Y0131306D01*
X0030466Y0135301D02*
X0024509Y0135301D01*
X0024922Y0134302D02*
X0038500Y0134302D01*
X0038500Y0133303D02*
X0025047Y0133303D01*
X0024981Y0132305D02*
X0038500Y0132305D01*
X0038500Y0131306D02*
X0035384Y0131306D01*
X0036317Y0130308D02*
X0038500Y0130308D01*
X0038500Y0135301D02*
X0035526Y0135301D01*
X0036376Y0136299D02*
X0038500Y0136299D01*
X0038500Y0137298D02*
X0036789Y0137298D01*
X0036858Y0138296D02*
X0038500Y0138296D01*
X0038500Y0139295D02*
X0036736Y0139295D01*
X0036323Y0140293D02*
X0038500Y0140293D01*
X0038500Y0141292D02*
X0035399Y0141292D01*
X0030481Y0145286D02*
X0026114Y0145286D01*
X0027113Y0146284D02*
X0029623Y0146284D01*
X0029209Y0147283D02*
X0028111Y0147283D01*
X0029110Y0148281D02*
X0029134Y0148281D01*
X0026448Y0151277D02*
X0024555Y0151277D01*
X0024969Y0152275D02*
X0027447Y0152275D01*
X0028445Y0153274D02*
X0025047Y0153274D01*
X0024935Y0154272D02*
X0029444Y0154272D01*
X0029500Y0154328D02*
X0029500Y0154328D01*
X0030442Y0155271D02*
X0024521Y0155271D01*
X0023610Y0156269D02*
X0029629Y0156269D01*
X0031500Y0153500D02*
X0036500Y0153500D01*
X0031500Y0153500D02*
X0021500Y0143500D01*
X0021185Y0143232D01*
X0022111Y0147283D02*
X0022454Y0147283D01*
X0022500Y0148281D02*
X0023453Y0148281D01*
X0022500Y0149280D02*
X0024451Y0149280D01*
X0023693Y0150278D02*
X0025450Y0150278D01*
X0021185Y0153232D02*
X0020500Y0152500D01*
X0020500Y0148500D01*
X0016500Y0144500D01*
X0016500Y0128500D01*
X0044500Y0100500D01*
X0044500Y0083500D01*
X0078500Y0049500D01*
X0072758Y0059414D02*
X0071415Y0059414D01*
X0071759Y0060412D02*
X0070416Y0060412D01*
X0070761Y0061411D02*
X0069418Y0061411D01*
X0069762Y0062409D02*
X0068419Y0062409D01*
X0067421Y0063408D02*
X0069500Y0063408D01*
X0069500Y0064406D02*
X0066422Y0064406D01*
X0065424Y0065405D02*
X0069500Y0065405D01*
X0069500Y0066403D02*
X0064425Y0066403D01*
X0063427Y0067402D02*
X0069500Y0067402D01*
X0069500Y0068400D02*
X0062428Y0068400D01*
X0061430Y0069399D02*
X0069500Y0069399D01*
X0069500Y0070397D02*
X0060431Y0070397D01*
X0059433Y0071396D02*
X0069500Y0071396D01*
X0069500Y0072394D02*
X0058434Y0072394D01*
X0057436Y0073393D02*
X0069500Y0073393D01*
X0069500Y0074391D02*
X0056437Y0074391D01*
X0055439Y0075390D02*
X0069500Y0075390D01*
X0069500Y0076388D02*
X0054440Y0076388D01*
X0056021Y0077387D02*
X0069500Y0077387D01*
X0069500Y0078385D02*
X0058432Y0078385D01*
X0059894Y0079384D02*
X0069500Y0079384D01*
X0069500Y0080382D02*
X0060892Y0080382D01*
X0061772Y0081381D02*
X0069500Y0081381D01*
X0069500Y0082379D02*
X0062186Y0082379D01*
X0062600Y0083378D02*
X0069500Y0083378D01*
X0069500Y0084376D02*
X0063013Y0084376D01*
X0063024Y0085375D02*
X0069500Y0085375D01*
X0069500Y0086373D02*
X0063024Y0086373D01*
X0063024Y0087372D02*
X0069500Y0087372D01*
X0069500Y0088370D02*
X0062824Y0088370D01*
X0062411Y0089369D02*
X0069500Y0089369D01*
X0069500Y0090368D02*
X0061997Y0090368D01*
X0061435Y0091366D02*
X0069500Y0091366D01*
X0069500Y0092365D02*
X0060436Y0092365D01*
X0059438Y0093363D02*
X0069500Y0093363D01*
X0069500Y0094362D02*
X0057332Y0094362D01*
X0043791Y0081381D02*
X0039517Y0081381D01*
X0040074Y0082379D02*
X0042792Y0082379D01*
X0042500Y0083378D02*
X0040487Y0083378D01*
X0040901Y0084376D02*
X0042500Y0084376D01*
X0042500Y0085375D02*
X0040976Y0085375D01*
X0040976Y0086373D02*
X0042500Y0086373D01*
X0042500Y0087372D02*
X0040976Y0087372D01*
X0040712Y0088370D02*
X0042500Y0088370D01*
X0042500Y0089369D02*
X0040299Y0089369D01*
X0038519Y0080382D02*
X0044789Y0080382D01*
X0045788Y0079384D02*
X0037520Y0079384D01*
X0035115Y0078385D02*
X0046786Y0078385D01*
X0047785Y0077387D02*
X0003968Y0077387D01*
X0003968Y0078385D02*
X0030877Y0078385D01*
X0028472Y0079384D02*
X0003968Y0079384D01*
X0003968Y0080382D02*
X0027473Y0080382D01*
X0026475Y0081381D02*
X0003968Y0081381D01*
X0003968Y0082379D02*
X0025918Y0082379D01*
X0025505Y0083378D02*
X0003968Y0083378D01*
X0003968Y0084376D02*
X0025091Y0084376D01*
X0025016Y0085375D02*
X0003968Y0085375D01*
X0003968Y0086373D02*
X0025016Y0086373D01*
X0025016Y0087372D02*
X0003968Y0087372D01*
X0003968Y0088370D02*
X0025280Y0088370D01*
X0025693Y0089369D02*
X0003968Y0089369D01*
X0003968Y0090368D02*
X0026107Y0090368D01*
X0026931Y0091366D02*
X0003968Y0091366D01*
X0003968Y0092365D02*
X0027929Y0092365D01*
X0029567Y0093363D02*
X0003968Y0093363D01*
X0003968Y0076388D02*
X0048783Y0076388D01*
X0049782Y0075390D02*
X0003968Y0075390D01*
X0003968Y0074391D02*
X0050780Y0074391D01*
X0051779Y0073393D02*
X0003968Y0073393D01*
X0003968Y0072394D02*
X0052777Y0072394D01*
X0053776Y0071396D02*
X0003968Y0071396D01*
X0003968Y0070397D02*
X0054774Y0070397D01*
X0055773Y0069399D02*
X0003968Y0069399D01*
X0003968Y0068400D02*
X0056771Y0068400D01*
X0057770Y0067402D02*
X0003968Y0067402D01*
X0003968Y0066403D02*
X0058768Y0066403D01*
X0059767Y0065405D02*
X0003968Y0065405D01*
X0003968Y0064406D02*
X0060765Y0064406D01*
X0061764Y0063408D02*
X0003968Y0063408D01*
X0003968Y0062409D02*
X0062762Y0062409D01*
X0063761Y0061411D02*
X0003968Y0061411D01*
X0003968Y0060412D02*
X0064759Y0060412D01*
X0065758Y0059414D02*
X0003968Y0059414D01*
X0003968Y0034451D02*
X0060622Y0034451D01*
X0059624Y0033452D02*
X0003968Y0033452D01*
X0003968Y0032454D02*
X0058625Y0032454D01*
X0057627Y0031455D02*
X0003968Y0031455D01*
X0003968Y0030457D02*
X0057500Y0030457D01*
X0057500Y0029458D02*
X0003968Y0029458D01*
X0003968Y0028460D02*
X0057500Y0028460D01*
X0057500Y0027461D02*
X0003968Y0027461D01*
X0003968Y0026463D02*
X0057500Y0026463D01*
X0057500Y0025464D02*
X0003968Y0025464D01*
X0003968Y0024466D02*
X0057706Y0024466D01*
X0058704Y0023467D02*
X0003968Y0023467D01*
X0003968Y0022469D02*
X0059703Y0022469D01*
X0062500Y0026500D02*
X0075500Y0026500D01*
X0080500Y0031500D01*
X0087477Y0101351D02*
X0088436Y0101351D01*
X0089637Y0102350D02*
X0086479Y0102350D01*
X0037008Y0111336D02*
X0036492Y0111336D01*
X0052564Y0159265D02*
X0052865Y0159265D01*
X0053279Y0160263D02*
X0051565Y0160263D01*
X0050567Y0161262D02*
X0054186Y0161262D01*
X0085163Y0230159D02*
X0003968Y0230159D01*
X0003968Y0231158D02*
X0084169Y0231158D01*
X0083756Y0232156D02*
X0003968Y0232156D01*
X0003968Y0233155D02*
X0083465Y0233155D01*
X0083465Y0234153D02*
X0003968Y0234153D01*
X0003968Y0235152D02*
X0083648Y0235152D01*
X0084062Y0236150D02*
X0003968Y0236150D01*
X0003968Y0237149D02*
X0084904Y0237149D01*
X0086499Y0238147D02*
X0003968Y0238147D01*
X0003968Y0265107D02*
X0009826Y0265107D01*
X0008345Y0265721D02*
X0005878Y0268187D01*
X0004543Y0271410D01*
X0004543Y0274898D01*
X0005878Y0278120D01*
X0008345Y0280586D01*
X0011567Y0281921D01*
X0015055Y0281921D01*
X0018278Y0280586D01*
X0020744Y0278120D01*
X0022079Y0274898D01*
X0022079Y0271410D01*
X0020744Y0268187D01*
X0018278Y0265721D01*
X0015055Y0264386D01*
X0011567Y0264386D01*
X0008345Y0265721D01*
X0007960Y0266105D02*
X0003968Y0266105D01*
X0003968Y0267104D02*
X0006961Y0267104D01*
X0005963Y0268103D02*
X0003968Y0268103D01*
X0003968Y0269101D02*
X0005500Y0269101D01*
X0005086Y0270100D02*
X0003968Y0270100D01*
X0003968Y0271098D02*
X0004672Y0271098D01*
X0004543Y0272097D02*
X0003968Y0272097D01*
X0003968Y0273095D02*
X0004543Y0273095D01*
X0004543Y0274094D02*
X0003968Y0274094D01*
X0003968Y0275092D02*
X0004624Y0275092D01*
X0005038Y0276091D02*
X0003968Y0276091D01*
X0003968Y0277089D02*
X0005451Y0277089D01*
X0005865Y0278088D02*
X0003968Y0278088D01*
X0003968Y0279086D02*
X0006844Y0279086D01*
X0007843Y0280085D02*
X0003968Y0280085D01*
X0003968Y0281083D02*
X0009544Y0281083D01*
X0017078Y0281083D02*
X0170961Y0281083D01*
X0169260Y0280085D02*
X0018779Y0280085D01*
X0019778Y0279086D02*
X0168262Y0279086D01*
X0167282Y0278088D02*
X0020757Y0278088D01*
X0021171Y0277089D02*
X0166868Y0277089D01*
X0166455Y0276091D02*
X0021585Y0276091D01*
X0021998Y0275092D02*
X0166041Y0275092D01*
X0165961Y0274094D02*
X0022079Y0274094D01*
X0022079Y0273095D02*
X0165961Y0273095D01*
X0165961Y0272097D02*
X0022079Y0272097D01*
X0021950Y0271098D02*
X0166090Y0271098D01*
X0166503Y0270100D02*
X0021536Y0270100D01*
X0021123Y0269101D02*
X0166917Y0269101D01*
X0167380Y0268103D02*
X0020659Y0268103D01*
X0019661Y0267104D02*
X0168378Y0267104D01*
X0169377Y0266105D02*
X0018662Y0266105D01*
X0016796Y0265107D02*
X0171243Y0265107D01*
X0096177Y0238147D02*
X0095799Y0238147D01*
X0095799Y0237149D02*
X0096177Y0237149D01*
X0096177Y0236150D02*
X0095799Y0236150D01*
X0095799Y0235152D02*
X0096177Y0235152D01*
X0094372Y0238147D02*
X0089729Y0238147D01*
X0091324Y0237149D02*
X0092778Y0237149D01*
X0092149Y0231158D02*
X0092059Y0231158D01*
X0091065Y0230159D02*
X0093066Y0230159D01*
X0010098Y0021470D02*
X0003968Y0021470D01*
X0003968Y0020472D02*
X0008072Y0020472D01*
X0007074Y0019473D02*
X0003968Y0019473D01*
X0003968Y0018475D02*
X0006075Y0018475D01*
X0005546Y0017476D02*
X0003968Y0017476D01*
X0003968Y0016478D02*
X0005133Y0016478D01*
X0004719Y0015479D02*
X0003968Y0015479D01*
X0003968Y0014481D02*
X0004543Y0014481D01*
X0004543Y0013482D02*
X0003968Y0013482D01*
X0003968Y0012484D02*
X0004543Y0012484D01*
X0004577Y0011485D02*
X0003968Y0011485D01*
X0003968Y0010487D02*
X0004991Y0010487D01*
X0005404Y0009488D02*
X0003968Y0009488D01*
X0003968Y0008490D02*
X0005818Y0008490D01*
X0006732Y0007491D02*
X0003968Y0007491D01*
X0003968Y0006493D02*
X0007730Y0006493D01*
D20*
X0062500Y0026500D03*
X0080500Y0031500D03*
X0086500Y0057500D03*
X0138500Y0043500D03*
X0152500Y0043500D03*
X0129500Y0149500D03*
X0102500Y0171500D03*
X0066500Y0155500D03*
X0146500Y0209500D03*
X0168500Y0247500D03*
X0264500Y0195500D03*
M02*
