G75*
%MOIN*%
%OFA0B0*%
%FSLAX25Y25*%
%IPPOS*%
%LPD*%
%AMOC8*
5,1,8,0,0,1.08239X$1,22.5*
%
%ADD10C,0.00300*%
%ADD11C,0.00200*%
%ADD12C,0.00600*%
%ADD13C,0.01000*%
%ADD14C,0.00800*%
%ADD15C,0.00500*%
%ADD16C,0.02000*%
%ADD17R,0.02000X0.23000*%
%ADD18R,0.09000X0.02000*%
%ADD19R,0.07000X0.02000*%
%ADD20R,0.05000X0.02000*%
%ADD21R,0.03000X0.02000*%
%ADD22R,0.01000X0.01000*%
%ADD23R,0.02000X0.03000*%
D10*
X0099415Y0128971D02*
X0098448Y0129938D01*
X0099415Y0130906D01*
X0101350Y0130906D01*
X0101350Y0131917D02*
X0099415Y0131917D01*
X0100383Y0131917D02*
X0099415Y0132885D01*
X0099415Y0133369D01*
X0099899Y0134373D02*
X0099415Y0134857D01*
X0099415Y0136308D01*
X0098448Y0136308D02*
X0101350Y0136308D01*
X0101350Y0134857D01*
X0100866Y0134373D01*
X0099899Y0134373D01*
X0099415Y0137319D02*
X0100866Y0137319D01*
X0101350Y0137803D01*
X0101350Y0139254D01*
X0099415Y0139254D01*
X0099415Y0140266D02*
X0099415Y0140750D01*
X0101350Y0140750D01*
X0101350Y0141233D02*
X0101350Y0140266D01*
X0101350Y0142230D02*
X0099415Y0142230D01*
X0099415Y0143681D01*
X0099899Y0144165D01*
X0101350Y0144165D01*
X0100866Y0145177D02*
X0101350Y0145660D01*
X0101350Y0146628D01*
X0100866Y0147112D01*
X0099899Y0147112D01*
X0099415Y0146628D01*
X0099415Y0145660D01*
X0099899Y0145177D01*
X0100866Y0145177D01*
X0098448Y0140750D02*
X0097964Y0140750D01*
X0098448Y0151070D02*
X0099415Y0152037D01*
X0098448Y0153005D01*
X0101350Y0153005D01*
X0101350Y0154016D02*
X0101350Y0154984D01*
X0101350Y0154500D02*
X0099415Y0154500D01*
X0099415Y0154016D01*
X0098448Y0154500D02*
X0097964Y0154500D01*
X0099899Y0155981D02*
X0100866Y0155981D01*
X0101350Y0156464D01*
X0101350Y0157916D01*
X0101350Y0158927D02*
X0099415Y0158927D01*
X0100383Y0158927D02*
X0099415Y0159895D01*
X0099415Y0160378D01*
X0099899Y0161383D02*
X0100866Y0161383D01*
X0101350Y0161866D01*
X0101350Y0162834D01*
X0100866Y0163318D01*
X0099899Y0163318D01*
X0099415Y0162834D01*
X0099415Y0161866D01*
X0099899Y0161383D01*
X0099415Y0157916D02*
X0099415Y0156464D01*
X0099899Y0155981D01*
X0101350Y0151070D02*
X0098448Y0151070D01*
X0099899Y0130906D02*
X0099899Y0128971D01*
X0099415Y0128971D02*
X0101350Y0128971D01*
X0026494Y0217218D02*
X0026978Y0217702D01*
X0026978Y0220120D01*
X0025527Y0220120D01*
X0025043Y0219637D01*
X0025043Y0218669D01*
X0025527Y0218185D01*
X0026978Y0218185D01*
X0027990Y0218185D02*
X0027990Y0221088D01*
X0028473Y0220120D02*
X0029441Y0220120D01*
X0029925Y0219637D01*
X0029925Y0218185D01*
X0031420Y0218669D02*
X0031904Y0218185D01*
X0031420Y0218669D02*
X0031420Y0220604D01*
X0030936Y0220120D02*
X0031904Y0220120D01*
X0032901Y0221088D02*
X0032901Y0218185D01*
X0034352Y0218185D01*
X0034836Y0218669D01*
X0034836Y0220604D01*
X0034352Y0221088D01*
X0032901Y0221088D01*
X0035847Y0220120D02*
X0035847Y0218185D01*
X0035847Y0219153D02*
X0036815Y0220120D01*
X0037298Y0220120D01*
X0038302Y0220120D02*
X0038786Y0220120D01*
X0038786Y0218185D01*
X0038302Y0218185D02*
X0039270Y0218185D01*
X0041234Y0218185D02*
X0042202Y0220120D01*
X0043213Y0219637D02*
X0043697Y0220120D01*
X0044665Y0220120D01*
X0045148Y0219637D01*
X0045148Y0219153D01*
X0043213Y0219153D01*
X0043213Y0218669D02*
X0043213Y0219637D01*
X0043213Y0218669D02*
X0043697Y0218185D01*
X0044665Y0218185D01*
X0041234Y0218185D02*
X0040267Y0220120D01*
X0038786Y0221088D02*
X0038786Y0221572D01*
X0028473Y0220120D02*
X0027990Y0219637D01*
X0026494Y0217218D02*
X0026011Y0217218D01*
X0024046Y0218185D02*
X0023079Y0218185D01*
X0023563Y0218185D02*
X0023563Y0220120D01*
X0023079Y0220120D01*
X0023563Y0221088D02*
X0023563Y0221572D01*
X0020132Y0221088D02*
X0020132Y0218185D01*
X0022067Y0218185D01*
X0042460Y0272069D02*
X0042460Y0275772D01*
X0044312Y0275772D01*
X0044929Y0275155D01*
X0044929Y0273921D01*
X0044312Y0273304D01*
X0042460Y0273304D01*
X0041246Y0273304D02*
X0039394Y0273304D01*
X0038777Y0273921D01*
X0039394Y0274538D01*
X0041246Y0274538D01*
X0041246Y0275155D02*
X0041246Y0273304D01*
X0041246Y0275155D02*
X0040628Y0275772D01*
X0039394Y0275772D01*
X0037563Y0275155D02*
X0037563Y0274538D01*
X0035094Y0274538D01*
X0035094Y0273921D02*
X0035094Y0275155D01*
X0035711Y0275772D01*
X0036945Y0275772D01*
X0037563Y0275155D01*
X0036945Y0273304D02*
X0035711Y0273304D01*
X0035094Y0273921D01*
X0033879Y0273304D02*
X0033879Y0275155D01*
X0033262Y0275772D01*
X0031411Y0275772D01*
X0031411Y0273304D01*
X0030190Y0273304D02*
X0028955Y0273304D01*
X0029572Y0273304D02*
X0029572Y0275772D01*
X0028955Y0275772D01*
X0027741Y0275155D02*
X0027124Y0274538D01*
X0025272Y0274538D01*
X0025272Y0273304D02*
X0025272Y0277007D01*
X0027124Y0277007D01*
X0027741Y0276390D01*
X0027741Y0275155D01*
X0029572Y0277007D02*
X0029572Y0277624D01*
X0046143Y0275772D02*
X0046143Y0272069D01*
X0046143Y0273304D02*
X0047995Y0273304D01*
X0048612Y0273921D01*
X0048612Y0275155D01*
X0047995Y0275772D01*
X0046143Y0275772D01*
X0049826Y0277007D02*
X0050444Y0277007D01*
X0050444Y0273304D01*
X0051061Y0273304D02*
X0049826Y0273304D01*
X0052282Y0273921D02*
X0052282Y0275155D01*
X0052899Y0275772D01*
X0054133Y0275772D01*
X0054751Y0275155D01*
X0054751Y0274538D01*
X0052282Y0274538D01*
X0052282Y0273921D02*
X0052899Y0273304D01*
X0054133Y0273304D01*
X0059648Y0273304D02*
X0060882Y0273304D01*
X0060265Y0273304D02*
X0060265Y0277007D01*
X0059648Y0277007D02*
X0060882Y0277007D01*
X0065787Y0275772D02*
X0067021Y0277007D01*
X0067021Y0273304D01*
X0065787Y0273304D02*
X0068255Y0273304D01*
X0069470Y0273304D02*
X0070087Y0273304D01*
X0070087Y0273921D01*
X0069470Y0273921D01*
X0069470Y0273304D01*
X0071311Y0273921D02*
X0073780Y0276390D01*
X0073780Y0273921D01*
X0073163Y0273304D01*
X0071929Y0273304D01*
X0071311Y0273921D01*
X0071311Y0276390D01*
X0071929Y0277007D01*
X0073163Y0277007D01*
X0073780Y0276390D01*
X0074994Y0273921D02*
X0075612Y0273921D01*
X0075612Y0273304D01*
X0074994Y0273304D01*
X0074994Y0273921D01*
X0076836Y0273921D02*
X0079305Y0276390D01*
X0079305Y0273921D01*
X0078688Y0273304D01*
X0077453Y0273304D01*
X0076836Y0273921D01*
X0076836Y0276390D01*
X0077453Y0277007D01*
X0078688Y0277007D01*
X0079305Y0276390D01*
X0084202Y0277007D02*
X0084202Y0273304D01*
X0086054Y0273304D01*
X0086671Y0273921D01*
X0086671Y0275155D01*
X0086054Y0275772D01*
X0084202Y0275772D01*
X0087885Y0275772D02*
X0087885Y0273921D01*
X0088503Y0273304D01*
X0090354Y0273304D01*
X0090354Y0272686D02*
X0089737Y0272069D01*
X0089120Y0272069D01*
X0090354Y0272686D02*
X0090354Y0275772D01*
X0095252Y0274538D02*
X0097103Y0274538D01*
X0097721Y0275155D01*
X0097721Y0276390D01*
X0097103Y0277007D01*
X0095252Y0277007D01*
X0095252Y0273304D01*
X0098935Y0273304D02*
X0100169Y0273304D01*
X0099552Y0273304D02*
X0099552Y0275772D01*
X0098935Y0275772D01*
X0099552Y0277007D02*
X0099552Y0277624D01*
X0101390Y0275772D02*
X0101390Y0273304D01*
X0101390Y0275772D02*
X0103242Y0275772D01*
X0103859Y0275155D01*
X0103859Y0273304D01*
X0105073Y0273921D02*
X0105073Y0275155D01*
X0105691Y0275772D01*
X0106925Y0275772D01*
X0107542Y0275155D01*
X0107542Y0274538D01*
X0105073Y0274538D01*
X0105073Y0273921D02*
X0105691Y0273304D01*
X0106925Y0273304D01*
X0108757Y0273921D02*
X0109374Y0274538D01*
X0111225Y0274538D01*
X0111225Y0275155D02*
X0111225Y0273304D01*
X0109374Y0273304D01*
X0108757Y0273921D01*
X0109374Y0275772D02*
X0110608Y0275772D01*
X0111225Y0275155D01*
X0112440Y0275772D02*
X0114291Y0275772D01*
X0114909Y0275155D01*
X0114909Y0273921D01*
X0114291Y0273304D01*
X0112440Y0273304D01*
X0112440Y0272069D02*
X0112440Y0275772D01*
X0116123Y0275772D02*
X0117975Y0275772D01*
X0118592Y0275155D01*
X0118592Y0273921D01*
X0117975Y0273304D01*
X0116123Y0273304D01*
X0116123Y0272069D02*
X0116123Y0275772D01*
X0119806Y0277007D02*
X0120423Y0277007D01*
X0120423Y0273304D01*
X0119806Y0273304D02*
X0121040Y0273304D01*
X0122262Y0273921D02*
X0122262Y0275155D01*
X0122879Y0275772D01*
X0124113Y0275772D01*
X0124730Y0275155D01*
X0124730Y0274538D01*
X0122262Y0274538D01*
X0122262Y0273921D02*
X0122879Y0273304D01*
X0124113Y0273304D01*
X0129628Y0273304D02*
X0131479Y0273304D01*
X0132097Y0273921D01*
X0132097Y0276390D01*
X0131479Y0277007D01*
X0129628Y0277007D01*
X0129628Y0273304D01*
X0133311Y0273921D02*
X0133311Y0275155D01*
X0133928Y0275772D01*
X0135163Y0275772D01*
X0135780Y0275155D01*
X0135780Y0274538D01*
X0133311Y0274538D01*
X0133311Y0273921D02*
X0133928Y0273304D01*
X0135163Y0273304D01*
X0136994Y0273304D02*
X0138846Y0273304D01*
X0139463Y0273921D01*
X0138846Y0274538D01*
X0137611Y0274538D01*
X0136994Y0275155D01*
X0137611Y0275772D01*
X0139463Y0275772D01*
X0140677Y0275772D02*
X0141294Y0275772D01*
X0141294Y0273304D01*
X0140677Y0273304D02*
X0141912Y0273304D01*
X0143133Y0273921D02*
X0143750Y0273304D01*
X0145601Y0273304D01*
X0145601Y0272686D02*
X0145601Y0275772D01*
X0143750Y0275772D01*
X0143133Y0275155D01*
X0143133Y0273921D01*
X0144367Y0272069D02*
X0144984Y0272069D01*
X0145601Y0272686D01*
X0146816Y0273304D02*
X0146816Y0275772D01*
X0148667Y0275772D01*
X0149285Y0275155D01*
X0149285Y0273304D01*
X0141294Y0277007D02*
X0141294Y0277624D01*
X0130052Y0264395D02*
X0128117Y0264395D01*
X0129085Y0264395D02*
X0129085Y0261493D01*
X0127105Y0261493D02*
X0127105Y0264395D01*
X0125171Y0264395D02*
X0125171Y0261493D01*
X0124159Y0261976D02*
X0124159Y0263911D01*
X0123675Y0264395D01*
X0122708Y0264395D01*
X0122224Y0263911D01*
X0122224Y0261976D01*
X0122708Y0261493D01*
X0123675Y0261493D01*
X0124159Y0261976D01*
X0125171Y0264395D02*
X0127105Y0261493D01*
X0121212Y0261493D02*
X0120245Y0262460D01*
X0120729Y0262460D02*
X0119277Y0262460D01*
X0119277Y0261493D02*
X0119277Y0264395D01*
X0120729Y0264395D01*
X0121212Y0263911D01*
X0121212Y0262944D01*
X0120729Y0262460D01*
X0118266Y0264395D02*
X0116331Y0264395D01*
X0116331Y0261493D01*
X0116331Y0262944D02*
X0117298Y0262944D01*
X0100029Y0262460D02*
X0100029Y0264395D01*
X0098094Y0264395D02*
X0098094Y0262460D01*
X0099062Y0261493D01*
X0100029Y0262460D01*
X0097083Y0263427D02*
X0097083Y0263911D01*
X0096599Y0264395D01*
X0095631Y0264395D01*
X0095148Y0263911D01*
X0097083Y0263427D02*
X0095148Y0261493D01*
X0097083Y0261493D01*
X0094136Y0261493D02*
X0092201Y0261493D01*
X0093169Y0261493D02*
X0093169Y0264395D01*
X0092201Y0263427D01*
X0091190Y0263911D02*
X0091190Y0262944D01*
X0090706Y0262460D01*
X0089255Y0262460D01*
X0090222Y0262460D02*
X0091190Y0261493D01*
X0089255Y0261493D02*
X0089255Y0264395D01*
X0090706Y0264395D01*
X0091190Y0263911D01*
X0088243Y0264395D02*
X0088243Y0261493D01*
X0087276Y0262460D01*
X0086308Y0261493D01*
X0086308Y0264395D01*
X0085297Y0263911D02*
X0085297Y0262944D01*
X0084813Y0262460D01*
X0083362Y0262460D01*
X0083362Y0261493D02*
X0083362Y0264395D01*
X0084813Y0264395D01*
X0085297Y0263911D01*
X0201955Y0264395D02*
X0201955Y0261493D01*
X0203890Y0261493D01*
X0204901Y0261493D02*
X0206836Y0261493D01*
X0207848Y0261493D02*
X0209299Y0261493D01*
X0209783Y0261976D01*
X0209783Y0263911D01*
X0209299Y0264395D01*
X0207848Y0264395D01*
X0207848Y0261493D01*
X0205869Y0262944D02*
X0204901Y0262944D01*
X0204901Y0264395D02*
X0204901Y0261493D01*
X0204901Y0264395D02*
X0206836Y0264395D01*
X0229031Y0264395D02*
X0229031Y0261493D01*
X0230966Y0261493D01*
X0231977Y0261493D02*
X0233912Y0261493D01*
X0234924Y0261493D02*
X0234924Y0264395D01*
X0236375Y0264395D01*
X0236859Y0263911D01*
X0236859Y0261976D01*
X0236375Y0261493D01*
X0234924Y0261493D01*
X0232945Y0262944D02*
X0231977Y0262944D01*
X0231977Y0264395D02*
X0231977Y0261493D01*
X0231977Y0264395D02*
X0233912Y0264395D01*
X0237870Y0264395D02*
X0237870Y0261493D01*
X0237870Y0262460D02*
X0239322Y0262460D01*
X0239805Y0262944D01*
X0239805Y0263911D01*
X0239322Y0264395D01*
X0237870Y0264395D01*
X0240817Y0264395D02*
X0240817Y0261493D01*
X0241784Y0262460D01*
X0242752Y0261493D01*
X0242752Y0264395D01*
X0243764Y0264395D02*
X0243764Y0261493D01*
X0243764Y0262460D02*
X0245215Y0262460D01*
X0245698Y0262944D01*
X0245698Y0263911D01*
X0245215Y0264395D01*
X0243764Y0264395D01*
X0244731Y0262460D02*
X0245698Y0261493D01*
X0258290Y0261493D02*
X0259258Y0262460D01*
X0258290Y0263427D01*
X0261193Y0263427D01*
X0261193Y0264439D02*
X0261193Y0265407D01*
X0261193Y0264923D02*
X0258290Y0264923D01*
X0258290Y0264439D02*
X0258290Y0265407D01*
X0258290Y0266403D02*
X0258290Y0267855D01*
X0258774Y0268338D01*
X0260709Y0268338D01*
X0261193Y0267855D01*
X0261193Y0266403D01*
X0258290Y0266403D01*
X0258290Y0261493D02*
X0261193Y0261493D01*
X0261193Y0269350D02*
X0261193Y0270317D01*
X0261193Y0269834D02*
X0258290Y0269834D01*
X0258290Y0270317D02*
X0258290Y0269350D01*
X0258774Y0271314D02*
X0260709Y0271314D01*
X0261193Y0271798D01*
X0261193Y0272765D01*
X0260709Y0273249D01*
X0258774Y0273249D01*
X0258290Y0272765D01*
X0258290Y0271798D01*
X0258774Y0271314D01*
X0258290Y0274261D02*
X0260709Y0274261D01*
X0261193Y0274745D01*
X0261193Y0275712D01*
X0260709Y0276196D01*
X0258290Y0276196D01*
X0258290Y0277207D02*
X0258290Y0279142D01*
X0258290Y0278175D02*
X0261193Y0278175D01*
X0261193Y0023245D02*
X0258290Y0023245D01*
X0258290Y0021310D02*
X0261193Y0023245D01*
X0261193Y0021310D02*
X0258290Y0021310D01*
X0258290Y0020313D02*
X0258290Y0019346D01*
X0258290Y0019829D02*
X0261193Y0019829D01*
X0261193Y0019346D02*
X0261193Y0020313D01*
X0261193Y0018349D02*
X0261193Y0017381D01*
X0261193Y0017865D02*
X0258290Y0017865D01*
X0258290Y0017381D02*
X0258290Y0018349D01*
X0258774Y0016370D02*
X0258290Y0015886D01*
X0258290Y0014435D01*
X0261193Y0014435D01*
X0261193Y0015886D01*
X0260709Y0016370D01*
X0258774Y0016370D01*
X0258290Y0013438D02*
X0258290Y0012471D01*
X0258290Y0012954D02*
X0261193Y0012954D01*
X0261193Y0012471D02*
X0261193Y0013438D01*
X0261193Y0011459D02*
X0258290Y0011459D01*
X0259258Y0010491D01*
X0258290Y0009524D01*
X0261193Y0009524D01*
X0233898Y0011650D02*
X0231963Y0011650D01*
X0231963Y0014552D01*
X0233898Y0014552D01*
X0232930Y0013101D02*
X0231963Y0013101D01*
X0230951Y0012134D02*
X0230468Y0011650D01*
X0229500Y0011650D01*
X0229016Y0012134D01*
X0229016Y0014069D01*
X0229500Y0014552D01*
X0230468Y0014552D01*
X0230951Y0014069D01*
X0228005Y0014552D02*
X0228005Y0011650D01*
X0226070Y0014552D01*
X0226070Y0011650D01*
X0225058Y0011650D02*
X0223123Y0011650D01*
X0223123Y0014552D01*
X0225058Y0014552D01*
X0224091Y0013101D02*
X0223123Y0013101D01*
X0222112Y0013101D02*
X0221628Y0012617D01*
X0220177Y0012617D01*
X0220177Y0011650D02*
X0220177Y0014552D01*
X0221628Y0014552D01*
X0222112Y0014069D01*
X0222112Y0013101D01*
X0221144Y0012617D02*
X0222112Y0011650D01*
X0219165Y0011650D02*
X0217230Y0011650D01*
X0217230Y0014552D01*
X0219165Y0014552D01*
X0218198Y0013101D02*
X0217230Y0013101D01*
X0216219Y0014552D02*
X0214284Y0014552D01*
X0214284Y0011650D01*
X0213272Y0011650D02*
X0211337Y0011650D01*
X0211337Y0014552D01*
X0213272Y0014552D01*
X0212305Y0013101D02*
X0211337Y0013101D01*
X0210326Y0013101D02*
X0209842Y0012617D01*
X0208391Y0012617D01*
X0208391Y0011650D02*
X0208391Y0014552D01*
X0209842Y0014552D01*
X0210326Y0014069D01*
X0210326Y0013101D01*
X0209358Y0012617D02*
X0210326Y0011650D01*
X0214284Y0013101D02*
X0215251Y0013101D01*
D11*
X0205278Y0021600D02*
X0203810Y0021600D01*
X0205278Y0023068D01*
X0205278Y0023435D01*
X0204911Y0023802D01*
X0204177Y0023802D01*
X0203810Y0023435D01*
X0203068Y0023435D02*
X0203068Y0022701D01*
X0202701Y0022334D01*
X0201600Y0022334D01*
X0202334Y0022334D02*
X0203068Y0021600D01*
X0201600Y0021600D02*
X0201600Y0023802D01*
X0202701Y0023802D01*
X0203068Y0023435D01*
X0211600Y0051600D02*
X0211600Y0053802D01*
X0212701Y0053802D01*
X0213068Y0053435D01*
X0213068Y0052701D01*
X0212701Y0052334D01*
X0211600Y0052334D01*
X0212334Y0052334D02*
X0213068Y0051600D01*
X0213810Y0051967D02*
X0214177Y0051600D01*
X0214911Y0051600D01*
X0215278Y0051967D01*
X0215278Y0052701D01*
X0214911Y0053068D01*
X0214544Y0053068D01*
X0213810Y0052701D01*
X0213810Y0053802D01*
X0215278Y0053802D01*
X0249198Y0078652D02*
X0249565Y0078285D01*
X0251033Y0078285D01*
X0251400Y0078652D01*
X0251400Y0079386D01*
X0251033Y0079753D01*
X0249565Y0079753D01*
X0249198Y0079386D01*
X0249198Y0078652D01*
X0249198Y0080495D02*
X0251400Y0080495D01*
X0250666Y0080495D02*
X0249198Y0081963D01*
X0249932Y0082705D02*
X0249198Y0083439D01*
X0251400Y0083439D01*
X0251400Y0082705D02*
X0251400Y0084173D01*
X0251400Y0081963D02*
X0250299Y0080862D01*
X0230278Y0091967D02*
X0229911Y0091600D01*
X0229177Y0091600D01*
X0228810Y0091967D01*
X0228068Y0091967D02*
X0227701Y0091600D01*
X0226967Y0091600D01*
X0226600Y0091967D01*
X0226600Y0093435D01*
X0226967Y0093802D01*
X0227701Y0093802D01*
X0228068Y0093435D01*
X0228810Y0093435D02*
X0229177Y0093802D01*
X0229911Y0093802D01*
X0230278Y0093435D01*
X0230278Y0093068D01*
X0229911Y0092701D01*
X0230278Y0092334D01*
X0230278Y0091967D01*
X0229911Y0092701D02*
X0229544Y0092701D01*
X0269198Y0143285D02*
X0271033Y0143285D01*
X0271400Y0143652D01*
X0271400Y0144386D01*
X0271033Y0144753D01*
X0269198Y0144753D01*
X0269565Y0145495D02*
X0269198Y0145862D01*
X0269198Y0146596D01*
X0269565Y0146963D01*
X0270299Y0146596D02*
X0270666Y0146963D01*
X0271033Y0146963D01*
X0271400Y0146596D01*
X0271400Y0145862D01*
X0271033Y0145495D01*
X0270299Y0145862D02*
X0270299Y0146596D01*
X0270299Y0145862D02*
X0269932Y0145495D01*
X0269565Y0145495D01*
X0269198Y0147705D02*
X0269198Y0148806D01*
X0269565Y0149173D01*
X0269932Y0149173D01*
X0270299Y0148806D01*
X0270299Y0147705D01*
X0270299Y0148806D02*
X0270666Y0149173D01*
X0271033Y0149173D01*
X0271400Y0148806D01*
X0271400Y0147705D01*
X0269198Y0147705D01*
X0216400Y0198653D02*
X0216400Y0199387D01*
X0216400Y0199020D02*
X0214198Y0199020D01*
X0214198Y0198653D02*
X0214198Y0199387D01*
X0214565Y0200127D02*
X0216033Y0200127D01*
X0216400Y0200494D01*
X0216400Y0201228D01*
X0216033Y0201595D01*
X0216400Y0202337D02*
X0216400Y0203805D01*
X0216400Y0203071D02*
X0214198Y0203071D01*
X0214932Y0202337D01*
X0214565Y0201595D02*
X0214198Y0201228D01*
X0214198Y0200494D01*
X0214565Y0200127D01*
X0199911Y0211600D02*
X0199911Y0213802D01*
X0198810Y0212701D01*
X0200278Y0212701D01*
X0198068Y0213435D02*
X0197701Y0213802D01*
X0196967Y0213802D01*
X0196600Y0213435D01*
X0196600Y0211967D01*
X0196967Y0211600D01*
X0197701Y0211600D01*
X0198068Y0211967D01*
X0149911Y0236600D02*
X0149911Y0238802D01*
X0148810Y0237701D01*
X0150278Y0237701D01*
X0148068Y0237701D02*
X0148068Y0238435D01*
X0147701Y0238802D01*
X0146600Y0238802D01*
X0146600Y0236600D01*
X0146600Y0237334D02*
X0147701Y0237334D01*
X0148068Y0237701D01*
X0147334Y0237334D02*
X0148068Y0236600D01*
X0148068Y0246600D02*
X0147334Y0247334D01*
X0147701Y0247334D02*
X0146600Y0247334D01*
X0146600Y0246600D02*
X0146600Y0248802D01*
X0147701Y0248802D01*
X0148068Y0248435D01*
X0148068Y0247701D01*
X0147701Y0247334D01*
X0148810Y0246967D02*
X0149177Y0246600D01*
X0149911Y0246600D01*
X0150278Y0246967D01*
X0150278Y0247334D01*
X0149911Y0247701D01*
X0149544Y0247701D01*
X0149911Y0247701D02*
X0150278Y0248068D01*
X0150278Y0248435D01*
X0149911Y0248802D01*
X0149177Y0248802D01*
X0148810Y0248435D01*
X0148810Y0256600D02*
X0150278Y0256600D01*
X0149544Y0256600D02*
X0149544Y0258802D01*
X0148810Y0258068D01*
X0148068Y0258435D02*
X0148068Y0257701D01*
X0147701Y0257334D01*
X0146600Y0257334D01*
X0147334Y0257334D02*
X0148068Y0256600D01*
X0146600Y0256600D02*
X0146600Y0258802D01*
X0147701Y0258802D01*
X0148068Y0258435D01*
X0116400Y0204173D02*
X0116400Y0202705D01*
X0116400Y0203439D02*
X0114198Y0203439D01*
X0114932Y0202705D01*
X0114198Y0201963D02*
X0116400Y0201963D01*
X0114198Y0200495D01*
X0116400Y0200495D01*
X0116400Y0199753D02*
X0115666Y0199019D01*
X0115666Y0199386D02*
X0115666Y0198285D01*
X0116400Y0198285D02*
X0114198Y0198285D01*
X0114198Y0199386D01*
X0114565Y0199753D01*
X0115299Y0199753D01*
X0115666Y0199386D01*
X0085278Y0221600D02*
X0083810Y0221600D01*
X0084544Y0221600D02*
X0084544Y0223802D01*
X0083810Y0223068D01*
X0083068Y0223435D02*
X0082701Y0223802D01*
X0081967Y0223802D01*
X0081600Y0223435D01*
X0081600Y0221967D01*
X0081967Y0221600D01*
X0082701Y0221600D01*
X0083068Y0221967D01*
X0064392Y0144800D02*
X0064392Y0143332D01*
X0064392Y0144066D02*
X0062190Y0144066D01*
X0062924Y0143332D01*
X0062190Y0142590D02*
X0064392Y0141122D01*
X0064392Y0142590D02*
X0062190Y0141122D01*
X0076600Y0128435D02*
X0076600Y0126967D01*
X0076967Y0126600D01*
X0077701Y0126600D01*
X0078068Y0126967D01*
X0078810Y0126600D02*
X0080278Y0128068D01*
X0080278Y0128435D01*
X0079911Y0128802D01*
X0079177Y0128802D01*
X0078810Y0128435D01*
X0078068Y0128435D02*
X0077701Y0128802D01*
X0076967Y0128802D01*
X0076600Y0128435D01*
X0078810Y0126600D02*
X0080278Y0126600D01*
X0086400Y0083068D02*
X0086400Y0081600D01*
X0086400Y0082334D02*
X0084198Y0082334D01*
X0084932Y0081600D01*
X0084198Y0080858D02*
X0086033Y0080858D01*
X0086400Y0080491D01*
X0086400Y0079757D01*
X0086033Y0079390D01*
X0084198Y0079390D01*
X0046754Y0048802D02*
X0046754Y0046600D01*
X0046020Y0046600D02*
X0047488Y0046600D01*
X0046020Y0048068D02*
X0046754Y0048802D01*
X0045278Y0048802D02*
X0045278Y0047334D01*
X0044544Y0046600D01*
X0043810Y0047334D01*
X0043810Y0048802D01*
X0043068Y0048435D02*
X0042701Y0048802D01*
X0041967Y0048802D01*
X0041600Y0048435D01*
X0041600Y0048068D01*
X0041967Y0047701D01*
X0042701Y0047701D01*
X0043068Y0047334D01*
X0043068Y0046967D01*
X0042701Y0046600D01*
X0041967Y0046600D01*
X0041600Y0046967D01*
D12*
X0044315Y0023185D02*
X0045216Y0021384D01*
X0047017Y0019582D01*
X0047017Y0022285D01*
X0047918Y0023185D01*
X0048819Y0023185D01*
X0049720Y0022285D01*
X0049720Y0020483D01*
X0048819Y0019582D01*
X0047017Y0019582D01*
X0049720Y0017661D02*
X0049720Y0014058D01*
X0049720Y0015859D02*
X0044315Y0015859D01*
X0046117Y0014058D01*
X0077500Y0107000D02*
X0085500Y0107000D01*
X0085560Y0107002D01*
X0085621Y0107007D01*
X0085680Y0107016D01*
X0085739Y0107029D01*
X0085798Y0107045D01*
X0085855Y0107065D01*
X0085910Y0107088D01*
X0085965Y0107115D01*
X0086017Y0107144D01*
X0086068Y0107177D01*
X0086117Y0107213D01*
X0086163Y0107251D01*
X0086207Y0107293D01*
X0086249Y0107337D01*
X0086287Y0107383D01*
X0086323Y0107432D01*
X0086356Y0107483D01*
X0086385Y0107535D01*
X0086412Y0107590D01*
X0086435Y0107645D01*
X0086455Y0107702D01*
X0086471Y0107761D01*
X0086484Y0107820D01*
X0086493Y0107879D01*
X0086498Y0107940D01*
X0086500Y0108000D01*
X0086500Y0125000D01*
X0086498Y0125060D01*
X0086493Y0125121D01*
X0086484Y0125180D01*
X0086471Y0125239D01*
X0086455Y0125298D01*
X0086435Y0125355D01*
X0086412Y0125410D01*
X0086385Y0125465D01*
X0086356Y0125517D01*
X0086323Y0125568D01*
X0086287Y0125617D01*
X0086249Y0125663D01*
X0086207Y0125707D01*
X0086163Y0125749D01*
X0086117Y0125787D01*
X0086068Y0125823D01*
X0086017Y0125856D01*
X0085965Y0125885D01*
X0085910Y0125912D01*
X0085855Y0125935D01*
X0085798Y0125955D01*
X0085739Y0125971D01*
X0085680Y0125984D01*
X0085621Y0125993D01*
X0085560Y0125998D01*
X0085500Y0126000D01*
X0077500Y0126000D01*
X0077440Y0125998D01*
X0077379Y0125993D01*
X0077320Y0125984D01*
X0077261Y0125971D01*
X0077202Y0125955D01*
X0077145Y0125935D01*
X0077090Y0125912D01*
X0077035Y0125885D01*
X0076983Y0125856D01*
X0076932Y0125823D01*
X0076883Y0125787D01*
X0076837Y0125749D01*
X0076793Y0125707D01*
X0076751Y0125663D01*
X0076713Y0125617D01*
X0076677Y0125568D01*
X0076644Y0125517D01*
X0076615Y0125465D01*
X0076588Y0125410D01*
X0076565Y0125355D01*
X0076545Y0125298D01*
X0076529Y0125239D01*
X0076516Y0125180D01*
X0076507Y0125121D01*
X0076502Y0125060D01*
X0076500Y0125000D01*
X0076500Y0108000D01*
X0076502Y0107940D01*
X0076507Y0107879D01*
X0076516Y0107820D01*
X0076529Y0107761D01*
X0076545Y0107702D01*
X0076565Y0107645D01*
X0076588Y0107590D01*
X0076615Y0107535D01*
X0076644Y0107483D01*
X0076677Y0107432D01*
X0076713Y0107383D01*
X0076751Y0107337D01*
X0076793Y0107293D01*
X0076837Y0107251D01*
X0076883Y0107213D01*
X0076932Y0107177D01*
X0076983Y0107144D01*
X0077035Y0107115D01*
X0077090Y0107088D01*
X0077145Y0107065D01*
X0077202Y0107045D01*
X0077261Y0107029D01*
X0077320Y0107016D01*
X0077379Y0107007D01*
X0077440Y0107002D01*
X0077500Y0107000D01*
X0081500Y0115000D02*
X0081500Y0115500D01*
X0081500Y0117500D02*
X0081500Y0118000D01*
X0106500Y0190000D02*
X0106500Y0197500D01*
X0106626Y0197502D01*
X0106751Y0197508D01*
X0106876Y0197518D01*
X0107001Y0197532D01*
X0107126Y0197549D01*
X0107250Y0197571D01*
X0107373Y0197596D01*
X0107495Y0197626D01*
X0107616Y0197659D01*
X0107736Y0197696D01*
X0107855Y0197736D01*
X0107972Y0197781D01*
X0108089Y0197829D01*
X0108203Y0197881D01*
X0108316Y0197936D01*
X0108427Y0197995D01*
X0108536Y0198057D01*
X0108643Y0198123D01*
X0108748Y0198192D01*
X0108851Y0198264D01*
X0108952Y0198339D01*
X0109050Y0198418D01*
X0109145Y0198500D01*
X0109238Y0198584D01*
X0109328Y0198672D01*
X0109416Y0198762D01*
X0109500Y0198855D01*
X0109582Y0198950D01*
X0109661Y0199048D01*
X0109736Y0199149D01*
X0109808Y0199252D01*
X0109877Y0199357D01*
X0109943Y0199464D01*
X0110005Y0199573D01*
X0110064Y0199684D01*
X0110119Y0199797D01*
X0110171Y0199911D01*
X0110219Y0200028D01*
X0110264Y0200145D01*
X0110304Y0200264D01*
X0110341Y0200384D01*
X0110374Y0200505D01*
X0110404Y0200627D01*
X0110429Y0200750D01*
X0110451Y0200874D01*
X0110468Y0200999D01*
X0110482Y0201124D01*
X0110492Y0201249D01*
X0110498Y0201374D01*
X0110500Y0201500D01*
X0110498Y0201626D01*
X0110492Y0201751D01*
X0110482Y0201876D01*
X0110468Y0202001D01*
X0110451Y0202126D01*
X0110429Y0202250D01*
X0110404Y0202373D01*
X0110374Y0202495D01*
X0110341Y0202616D01*
X0110304Y0202736D01*
X0110264Y0202855D01*
X0110219Y0202972D01*
X0110171Y0203089D01*
X0110119Y0203203D01*
X0110064Y0203316D01*
X0110005Y0203427D01*
X0109943Y0203536D01*
X0109877Y0203643D01*
X0109808Y0203748D01*
X0109736Y0203851D01*
X0109661Y0203952D01*
X0109582Y0204050D01*
X0109500Y0204145D01*
X0109416Y0204238D01*
X0109328Y0204328D01*
X0109238Y0204416D01*
X0109145Y0204500D01*
X0109050Y0204582D01*
X0108952Y0204661D01*
X0108851Y0204736D01*
X0108748Y0204808D01*
X0108643Y0204877D01*
X0108536Y0204943D01*
X0108427Y0205005D01*
X0108316Y0205064D01*
X0108203Y0205119D01*
X0108089Y0205171D01*
X0107972Y0205219D01*
X0107855Y0205264D01*
X0107736Y0205304D01*
X0107616Y0205341D01*
X0107495Y0205374D01*
X0107373Y0205404D01*
X0107250Y0205429D01*
X0107126Y0205451D01*
X0107001Y0205468D01*
X0106876Y0205482D01*
X0106751Y0205492D01*
X0106626Y0205498D01*
X0106500Y0205500D01*
X0106500Y0213000D01*
X0186500Y0213000D01*
X0186500Y0190000D01*
X0106500Y0190000D01*
X0100000Y0211500D02*
X0083000Y0211500D01*
X0082940Y0211502D01*
X0082879Y0211507D01*
X0082820Y0211516D01*
X0082761Y0211529D01*
X0082702Y0211545D01*
X0082645Y0211565D01*
X0082590Y0211588D01*
X0082535Y0211615D01*
X0082483Y0211644D01*
X0082432Y0211677D01*
X0082383Y0211713D01*
X0082337Y0211751D01*
X0082293Y0211793D01*
X0082251Y0211837D01*
X0082213Y0211883D01*
X0082177Y0211932D01*
X0082144Y0211983D01*
X0082115Y0212035D01*
X0082088Y0212090D01*
X0082065Y0212145D01*
X0082045Y0212202D01*
X0082029Y0212261D01*
X0082016Y0212320D01*
X0082007Y0212379D01*
X0082002Y0212440D01*
X0082000Y0212500D01*
X0082000Y0220500D01*
X0082002Y0220560D01*
X0082007Y0220621D01*
X0082016Y0220680D01*
X0082029Y0220739D01*
X0082045Y0220798D01*
X0082065Y0220855D01*
X0082088Y0220910D01*
X0082115Y0220965D01*
X0082144Y0221017D01*
X0082177Y0221068D01*
X0082213Y0221117D01*
X0082251Y0221163D01*
X0082293Y0221207D01*
X0082337Y0221249D01*
X0082383Y0221287D01*
X0082432Y0221323D01*
X0082483Y0221356D01*
X0082535Y0221385D01*
X0082590Y0221412D01*
X0082645Y0221435D01*
X0082702Y0221455D01*
X0082761Y0221471D01*
X0082820Y0221484D01*
X0082879Y0221493D01*
X0082940Y0221498D01*
X0083000Y0221500D01*
X0100000Y0221500D01*
X0100060Y0221498D01*
X0100121Y0221493D01*
X0100180Y0221484D01*
X0100239Y0221471D01*
X0100298Y0221455D01*
X0100355Y0221435D01*
X0100410Y0221412D01*
X0100465Y0221385D01*
X0100517Y0221356D01*
X0100568Y0221323D01*
X0100617Y0221287D01*
X0100663Y0221249D01*
X0100707Y0221207D01*
X0100749Y0221163D01*
X0100787Y0221117D01*
X0100823Y0221068D01*
X0100856Y0221017D01*
X0100885Y0220965D01*
X0100912Y0220910D01*
X0100935Y0220855D01*
X0100955Y0220798D01*
X0100971Y0220739D01*
X0100984Y0220680D01*
X0100993Y0220621D01*
X0100998Y0220560D01*
X0101000Y0220500D01*
X0101000Y0212500D01*
X0100998Y0212440D01*
X0100993Y0212379D01*
X0100984Y0212320D01*
X0100971Y0212261D01*
X0100955Y0212202D01*
X0100935Y0212145D01*
X0100912Y0212090D01*
X0100885Y0212035D01*
X0100856Y0211983D01*
X0100823Y0211932D01*
X0100787Y0211883D01*
X0100749Y0211837D01*
X0100707Y0211793D01*
X0100663Y0211751D01*
X0100617Y0211713D01*
X0100568Y0211677D01*
X0100517Y0211644D01*
X0100465Y0211615D01*
X0100410Y0211588D01*
X0100355Y0211565D01*
X0100298Y0211545D01*
X0100239Y0211529D01*
X0100180Y0211516D01*
X0100121Y0211507D01*
X0100060Y0211502D01*
X0100000Y0211500D01*
X0093000Y0216500D02*
X0092500Y0216500D01*
X0090500Y0216500D02*
X0090000Y0216500D01*
X0162626Y0228000D02*
X0163626Y0228000D01*
X0164126Y0228500D01*
X0173126Y0228500D01*
X0173626Y0228000D01*
X0174626Y0228000D01*
X0174686Y0228002D01*
X0174747Y0228007D01*
X0174806Y0228016D01*
X0174865Y0228029D01*
X0174924Y0228045D01*
X0174981Y0228065D01*
X0175036Y0228088D01*
X0175091Y0228115D01*
X0175143Y0228144D01*
X0175194Y0228177D01*
X0175243Y0228213D01*
X0175289Y0228251D01*
X0175333Y0228293D01*
X0175375Y0228337D01*
X0175413Y0228383D01*
X0175449Y0228432D01*
X0175482Y0228483D01*
X0175511Y0228535D01*
X0175538Y0228590D01*
X0175561Y0228645D01*
X0175581Y0228702D01*
X0175597Y0228761D01*
X0175610Y0228820D01*
X0175619Y0228879D01*
X0175624Y0228940D01*
X0175626Y0229000D01*
X0175626Y0234000D02*
X0175624Y0234060D01*
X0175619Y0234121D01*
X0175610Y0234180D01*
X0175597Y0234239D01*
X0175581Y0234298D01*
X0175561Y0234355D01*
X0175538Y0234410D01*
X0175511Y0234465D01*
X0175482Y0234517D01*
X0175449Y0234568D01*
X0175413Y0234617D01*
X0175375Y0234663D01*
X0175333Y0234707D01*
X0175289Y0234749D01*
X0175243Y0234787D01*
X0175194Y0234823D01*
X0175143Y0234856D01*
X0175091Y0234885D01*
X0175036Y0234912D01*
X0174981Y0234935D01*
X0174924Y0234955D01*
X0174865Y0234971D01*
X0174806Y0234984D01*
X0174747Y0234993D01*
X0174686Y0234998D01*
X0174626Y0235000D01*
X0173626Y0235000D01*
X0173126Y0234500D01*
X0164126Y0234500D01*
X0163626Y0235000D01*
X0162626Y0235000D01*
X0162566Y0234998D01*
X0162505Y0234993D01*
X0162446Y0234984D01*
X0162387Y0234971D01*
X0162328Y0234955D01*
X0162271Y0234935D01*
X0162216Y0234912D01*
X0162161Y0234885D01*
X0162109Y0234856D01*
X0162058Y0234823D01*
X0162009Y0234787D01*
X0161963Y0234749D01*
X0161919Y0234707D01*
X0161877Y0234663D01*
X0161839Y0234617D01*
X0161803Y0234568D01*
X0161770Y0234517D01*
X0161741Y0234465D01*
X0161714Y0234410D01*
X0161691Y0234355D01*
X0161671Y0234298D01*
X0161655Y0234239D01*
X0161642Y0234180D01*
X0161633Y0234121D01*
X0161628Y0234060D01*
X0161626Y0234000D01*
X0162626Y0238000D02*
X0163626Y0238000D01*
X0164126Y0238500D01*
X0173126Y0238500D01*
X0173626Y0238000D01*
X0174626Y0238000D01*
X0174686Y0238002D01*
X0174747Y0238007D01*
X0174806Y0238016D01*
X0174865Y0238029D01*
X0174924Y0238045D01*
X0174981Y0238065D01*
X0175036Y0238088D01*
X0175091Y0238115D01*
X0175143Y0238144D01*
X0175194Y0238177D01*
X0175243Y0238213D01*
X0175289Y0238251D01*
X0175333Y0238293D01*
X0175375Y0238337D01*
X0175413Y0238383D01*
X0175449Y0238432D01*
X0175482Y0238483D01*
X0175511Y0238535D01*
X0175538Y0238590D01*
X0175561Y0238645D01*
X0175581Y0238702D01*
X0175597Y0238761D01*
X0175610Y0238820D01*
X0175619Y0238879D01*
X0175624Y0238940D01*
X0175626Y0239000D01*
X0175626Y0244000D02*
X0175624Y0244060D01*
X0175619Y0244121D01*
X0175610Y0244180D01*
X0175597Y0244239D01*
X0175581Y0244298D01*
X0175561Y0244355D01*
X0175538Y0244410D01*
X0175511Y0244465D01*
X0175482Y0244517D01*
X0175449Y0244568D01*
X0175413Y0244617D01*
X0175375Y0244663D01*
X0175333Y0244707D01*
X0175289Y0244749D01*
X0175243Y0244787D01*
X0175194Y0244823D01*
X0175143Y0244856D01*
X0175091Y0244885D01*
X0175036Y0244912D01*
X0174981Y0244935D01*
X0174924Y0244955D01*
X0174865Y0244971D01*
X0174806Y0244984D01*
X0174747Y0244993D01*
X0174686Y0244998D01*
X0174626Y0245000D01*
X0173626Y0245000D01*
X0173126Y0244500D01*
X0164126Y0244500D01*
X0163626Y0245000D01*
X0162626Y0245000D01*
X0162566Y0244998D01*
X0162505Y0244993D01*
X0162446Y0244984D01*
X0162387Y0244971D01*
X0162328Y0244955D01*
X0162271Y0244935D01*
X0162216Y0244912D01*
X0162161Y0244885D01*
X0162109Y0244856D01*
X0162058Y0244823D01*
X0162009Y0244787D01*
X0161963Y0244749D01*
X0161919Y0244707D01*
X0161877Y0244663D01*
X0161839Y0244617D01*
X0161803Y0244568D01*
X0161770Y0244517D01*
X0161741Y0244465D01*
X0161714Y0244410D01*
X0161691Y0244355D01*
X0161671Y0244298D01*
X0161655Y0244239D01*
X0161642Y0244180D01*
X0161633Y0244121D01*
X0161628Y0244060D01*
X0161626Y0244000D01*
X0162626Y0248000D02*
X0163626Y0248000D01*
X0164126Y0248500D01*
X0173126Y0248500D01*
X0173626Y0248000D01*
X0174626Y0248000D01*
X0174686Y0248002D01*
X0174747Y0248007D01*
X0174806Y0248016D01*
X0174865Y0248029D01*
X0174924Y0248045D01*
X0174981Y0248065D01*
X0175036Y0248088D01*
X0175091Y0248115D01*
X0175143Y0248144D01*
X0175194Y0248177D01*
X0175243Y0248213D01*
X0175289Y0248251D01*
X0175333Y0248293D01*
X0175375Y0248337D01*
X0175413Y0248383D01*
X0175449Y0248432D01*
X0175482Y0248483D01*
X0175511Y0248535D01*
X0175538Y0248590D01*
X0175561Y0248645D01*
X0175581Y0248702D01*
X0175597Y0248761D01*
X0175610Y0248820D01*
X0175619Y0248879D01*
X0175624Y0248940D01*
X0175626Y0249000D01*
X0175626Y0254000D02*
X0175624Y0254060D01*
X0175619Y0254121D01*
X0175610Y0254180D01*
X0175597Y0254239D01*
X0175581Y0254298D01*
X0175561Y0254355D01*
X0175538Y0254410D01*
X0175511Y0254465D01*
X0175482Y0254517D01*
X0175449Y0254568D01*
X0175413Y0254617D01*
X0175375Y0254663D01*
X0175333Y0254707D01*
X0175289Y0254749D01*
X0175243Y0254787D01*
X0175194Y0254823D01*
X0175143Y0254856D01*
X0175091Y0254885D01*
X0175036Y0254912D01*
X0174981Y0254935D01*
X0174924Y0254955D01*
X0174865Y0254971D01*
X0174806Y0254984D01*
X0174747Y0254993D01*
X0174686Y0254998D01*
X0174626Y0255000D01*
X0173626Y0255000D01*
X0173126Y0254500D01*
X0164126Y0254500D01*
X0163626Y0255000D01*
X0162626Y0255000D01*
X0162566Y0254998D01*
X0162505Y0254993D01*
X0162446Y0254984D01*
X0162387Y0254971D01*
X0162328Y0254955D01*
X0162271Y0254935D01*
X0162216Y0254912D01*
X0162161Y0254885D01*
X0162109Y0254856D01*
X0162058Y0254823D01*
X0162009Y0254787D01*
X0161963Y0254749D01*
X0161919Y0254707D01*
X0161877Y0254663D01*
X0161839Y0254617D01*
X0161803Y0254568D01*
X0161770Y0254517D01*
X0161741Y0254465D01*
X0161714Y0254410D01*
X0161691Y0254355D01*
X0161671Y0254298D01*
X0161655Y0254239D01*
X0161642Y0254180D01*
X0161633Y0254121D01*
X0161628Y0254060D01*
X0161626Y0254000D01*
X0161626Y0249000D02*
X0161628Y0248940D01*
X0161633Y0248879D01*
X0161642Y0248820D01*
X0161655Y0248761D01*
X0161671Y0248702D01*
X0161691Y0248645D01*
X0161714Y0248590D01*
X0161741Y0248535D01*
X0161770Y0248483D01*
X0161803Y0248432D01*
X0161839Y0248383D01*
X0161877Y0248337D01*
X0161919Y0248293D01*
X0161963Y0248251D01*
X0162009Y0248213D01*
X0162058Y0248177D01*
X0162109Y0248144D01*
X0162161Y0248115D01*
X0162216Y0248088D01*
X0162271Y0248065D01*
X0162328Y0248045D01*
X0162387Y0248029D01*
X0162446Y0248016D01*
X0162505Y0248007D01*
X0162566Y0248002D01*
X0162626Y0248000D01*
X0161626Y0239000D02*
X0161628Y0238940D01*
X0161633Y0238879D01*
X0161642Y0238820D01*
X0161655Y0238761D01*
X0161671Y0238702D01*
X0161691Y0238645D01*
X0161714Y0238590D01*
X0161741Y0238535D01*
X0161770Y0238483D01*
X0161803Y0238432D01*
X0161839Y0238383D01*
X0161877Y0238337D01*
X0161919Y0238293D01*
X0161963Y0238251D01*
X0162009Y0238213D01*
X0162058Y0238177D01*
X0162109Y0238144D01*
X0162161Y0238115D01*
X0162216Y0238088D01*
X0162271Y0238065D01*
X0162328Y0238045D01*
X0162387Y0238029D01*
X0162446Y0238016D01*
X0162505Y0238007D01*
X0162566Y0238002D01*
X0162626Y0238000D01*
X0161626Y0229000D02*
X0161628Y0228940D01*
X0161633Y0228879D01*
X0161642Y0228820D01*
X0161655Y0228761D01*
X0161671Y0228702D01*
X0161691Y0228645D01*
X0161714Y0228590D01*
X0161741Y0228535D01*
X0161770Y0228483D01*
X0161803Y0228432D01*
X0161839Y0228383D01*
X0161877Y0228337D01*
X0161919Y0228293D01*
X0161963Y0228251D01*
X0162009Y0228213D01*
X0162058Y0228177D01*
X0162109Y0228144D01*
X0162161Y0228115D01*
X0162216Y0228088D01*
X0162271Y0228065D01*
X0162328Y0228045D01*
X0162387Y0228029D01*
X0162446Y0228016D01*
X0162505Y0228007D01*
X0162566Y0228002D01*
X0162626Y0228000D01*
X0196500Y0210000D02*
X0196500Y0193000D01*
X0196502Y0192940D01*
X0196507Y0192879D01*
X0196516Y0192820D01*
X0196529Y0192761D01*
X0196545Y0192702D01*
X0196565Y0192645D01*
X0196588Y0192590D01*
X0196615Y0192535D01*
X0196644Y0192483D01*
X0196677Y0192432D01*
X0196713Y0192383D01*
X0196751Y0192337D01*
X0196793Y0192293D01*
X0196837Y0192251D01*
X0196883Y0192213D01*
X0196932Y0192177D01*
X0196983Y0192144D01*
X0197035Y0192115D01*
X0197090Y0192088D01*
X0197145Y0192065D01*
X0197202Y0192045D01*
X0197261Y0192029D01*
X0197320Y0192016D01*
X0197379Y0192007D01*
X0197440Y0192002D01*
X0197500Y0192000D01*
X0205500Y0192000D01*
X0205560Y0192002D01*
X0205621Y0192007D01*
X0205680Y0192016D01*
X0205739Y0192029D01*
X0205798Y0192045D01*
X0205855Y0192065D01*
X0205910Y0192088D01*
X0205965Y0192115D01*
X0206017Y0192144D01*
X0206068Y0192177D01*
X0206117Y0192213D01*
X0206163Y0192251D01*
X0206207Y0192293D01*
X0206249Y0192337D01*
X0206287Y0192383D01*
X0206323Y0192432D01*
X0206356Y0192483D01*
X0206385Y0192535D01*
X0206412Y0192590D01*
X0206435Y0192645D01*
X0206455Y0192702D01*
X0206471Y0192761D01*
X0206484Y0192820D01*
X0206493Y0192879D01*
X0206498Y0192940D01*
X0206500Y0193000D01*
X0206500Y0210000D01*
X0206498Y0210060D01*
X0206493Y0210121D01*
X0206484Y0210180D01*
X0206471Y0210239D01*
X0206455Y0210298D01*
X0206435Y0210355D01*
X0206412Y0210410D01*
X0206385Y0210465D01*
X0206356Y0210517D01*
X0206323Y0210568D01*
X0206287Y0210617D01*
X0206249Y0210663D01*
X0206207Y0210707D01*
X0206163Y0210749D01*
X0206117Y0210787D01*
X0206068Y0210823D01*
X0206017Y0210856D01*
X0205965Y0210885D01*
X0205910Y0210912D01*
X0205855Y0210935D01*
X0205798Y0210955D01*
X0205739Y0210971D01*
X0205680Y0210984D01*
X0205621Y0210993D01*
X0205560Y0210998D01*
X0205500Y0211000D01*
X0197500Y0211000D01*
X0197440Y0210998D01*
X0197379Y0210993D01*
X0197320Y0210984D01*
X0197261Y0210971D01*
X0197202Y0210955D01*
X0197145Y0210935D01*
X0197090Y0210912D01*
X0197035Y0210885D01*
X0196983Y0210856D01*
X0196932Y0210823D01*
X0196883Y0210787D01*
X0196837Y0210749D01*
X0196793Y0210707D01*
X0196751Y0210663D01*
X0196713Y0210617D01*
X0196677Y0210568D01*
X0196644Y0210517D01*
X0196615Y0210465D01*
X0196588Y0210410D01*
X0196565Y0210355D01*
X0196545Y0210298D01*
X0196529Y0210239D01*
X0196516Y0210180D01*
X0196507Y0210121D01*
X0196502Y0210060D01*
X0196500Y0210000D01*
X0201500Y0203000D02*
X0201500Y0202500D01*
X0201500Y0200500D02*
X0201500Y0200000D01*
X0206500Y0197500D02*
X0206626Y0197502D01*
X0206751Y0197508D01*
X0206876Y0197518D01*
X0207001Y0197532D01*
X0207126Y0197549D01*
X0207250Y0197571D01*
X0207373Y0197596D01*
X0207495Y0197626D01*
X0207616Y0197659D01*
X0207736Y0197696D01*
X0207855Y0197736D01*
X0207972Y0197781D01*
X0208089Y0197829D01*
X0208203Y0197881D01*
X0208316Y0197936D01*
X0208427Y0197995D01*
X0208536Y0198057D01*
X0208643Y0198123D01*
X0208748Y0198192D01*
X0208851Y0198264D01*
X0208952Y0198339D01*
X0209050Y0198418D01*
X0209145Y0198500D01*
X0209238Y0198584D01*
X0209328Y0198672D01*
X0209416Y0198762D01*
X0209500Y0198855D01*
X0209582Y0198950D01*
X0209661Y0199048D01*
X0209736Y0199149D01*
X0209808Y0199252D01*
X0209877Y0199357D01*
X0209943Y0199464D01*
X0210005Y0199573D01*
X0210064Y0199684D01*
X0210119Y0199797D01*
X0210171Y0199911D01*
X0210219Y0200028D01*
X0210264Y0200145D01*
X0210304Y0200264D01*
X0210341Y0200384D01*
X0210374Y0200505D01*
X0210404Y0200627D01*
X0210429Y0200750D01*
X0210451Y0200874D01*
X0210468Y0200999D01*
X0210482Y0201124D01*
X0210492Y0201249D01*
X0210498Y0201374D01*
X0210500Y0201500D01*
X0210498Y0201626D01*
X0210492Y0201751D01*
X0210482Y0201876D01*
X0210468Y0202001D01*
X0210451Y0202126D01*
X0210429Y0202250D01*
X0210404Y0202373D01*
X0210374Y0202495D01*
X0210341Y0202616D01*
X0210304Y0202736D01*
X0210264Y0202855D01*
X0210219Y0202972D01*
X0210171Y0203089D01*
X0210119Y0203203D01*
X0210064Y0203316D01*
X0210005Y0203427D01*
X0209943Y0203536D01*
X0209877Y0203643D01*
X0209808Y0203748D01*
X0209736Y0203851D01*
X0209661Y0203952D01*
X0209582Y0204050D01*
X0209500Y0204145D01*
X0209416Y0204238D01*
X0209328Y0204328D01*
X0209238Y0204416D01*
X0209145Y0204500D01*
X0209050Y0204582D01*
X0208952Y0204661D01*
X0208851Y0204736D01*
X0208748Y0204808D01*
X0208643Y0204877D01*
X0208536Y0204943D01*
X0208427Y0205005D01*
X0208316Y0205064D01*
X0208203Y0205119D01*
X0208089Y0205171D01*
X0207972Y0205219D01*
X0207855Y0205264D01*
X0207736Y0205304D01*
X0207616Y0205341D01*
X0207495Y0205374D01*
X0207373Y0205404D01*
X0207250Y0205429D01*
X0207126Y0205451D01*
X0207001Y0205468D01*
X0206876Y0205482D01*
X0206751Y0205492D01*
X0206626Y0205498D01*
X0206500Y0205500D01*
X0206500Y0213000D01*
X0276500Y0213000D01*
X0276500Y0190000D01*
X0206500Y0190000D01*
X0206500Y0197500D01*
X0241500Y0093000D02*
X0241500Y0085500D01*
X0241626Y0085498D01*
X0241751Y0085492D01*
X0241876Y0085482D01*
X0242001Y0085468D01*
X0242126Y0085451D01*
X0242250Y0085429D01*
X0242373Y0085404D01*
X0242495Y0085374D01*
X0242616Y0085341D01*
X0242736Y0085304D01*
X0242855Y0085264D01*
X0242972Y0085219D01*
X0243089Y0085171D01*
X0243203Y0085119D01*
X0243316Y0085064D01*
X0243427Y0085005D01*
X0243536Y0084943D01*
X0243643Y0084877D01*
X0243748Y0084808D01*
X0243851Y0084736D01*
X0243952Y0084661D01*
X0244050Y0084582D01*
X0244145Y0084500D01*
X0244238Y0084416D01*
X0244328Y0084328D01*
X0244416Y0084238D01*
X0244500Y0084145D01*
X0244582Y0084050D01*
X0244661Y0083952D01*
X0244736Y0083851D01*
X0244808Y0083748D01*
X0244877Y0083643D01*
X0244943Y0083536D01*
X0245005Y0083427D01*
X0245064Y0083316D01*
X0245119Y0083203D01*
X0245171Y0083089D01*
X0245219Y0082972D01*
X0245264Y0082855D01*
X0245304Y0082736D01*
X0245341Y0082616D01*
X0245374Y0082495D01*
X0245404Y0082373D01*
X0245429Y0082250D01*
X0245451Y0082126D01*
X0245468Y0082001D01*
X0245482Y0081876D01*
X0245492Y0081751D01*
X0245498Y0081626D01*
X0245500Y0081500D01*
X0245498Y0081374D01*
X0245492Y0081249D01*
X0245482Y0081124D01*
X0245468Y0080999D01*
X0245451Y0080874D01*
X0245429Y0080750D01*
X0245404Y0080627D01*
X0245374Y0080505D01*
X0245341Y0080384D01*
X0245304Y0080264D01*
X0245264Y0080145D01*
X0245219Y0080028D01*
X0245171Y0079911D01*
X0245119Y0079797D01*
X0245064Y0079684D01*
X0245005Y0079573D01*
X0244943Y0079464D01*
X0244877Y0079357D01*
X0244808Y0079252D01*
X0244736Y0079149D01*
X0244661Y0079048D01*
X0244582Y0078950D01*
X0244500Y0078855D01*
X0244416Y0078762D01*
X0244328Y0078672D01*
X0244238Y0078584D01*
X0244145Y0078500D01*
X0244050Y0078418D01*
X0243952Y0078339D01*
X0243851Y0078264D01*
X0243748Y0078192D01*
X0243643Y0078123D01*
X0243536Y0078057D01*
X0243427Y0077995D01*
X0243316Y0077936D01*
X0243203Y0077881D01*
X0243089Y0077829D01*
X0242972Y0077781D01*
X0242855Y0077736D01*
X0242736Y0077696D01*
X0242616Y0077659D01*
X0242495Y0077626D01*
X0242373Y0077596D01*
X0242250Y0077571D01*
X0242126Y0077549D01*
X0242001Y0077532D01*
X0241876Y0077518D01*
X0241751Y0077508D01*
X0241626Y0077502D01*
X0241500Y0077500D01*
X0241500Y0070000D01*
X0281500Y0070000D01*
X0281500Y0093000D01*
X0241500Y0093000D01*
X0236500Y0090000D02*
X0236500Y0073000D01*
X0236498Y0072940D01*
X0236493Y0072879D01*
X0236484Y0072820D01*
X0236471Y0072761D01*
X0236455Y0072702D01*
X0236435Y0072645D01*
X0236412Y0072590D01*
X0236385Y0072535D01*
X0236356Y0072483D01*
X0236323Y0072432D01*
X0236287Y0072383D01*
X0236249Y0072337D01*
X0236207Y0072293D01*
X0236163Y0072251D01*
X0236117Y0072213D01*
X0236068Y0072177D01*
X0236017Y0072144D01*
X0235965Y0072115D01*
X0235910Y0072088D01*
X0235855Y0072065D01*
X0235798Y0072045D01*
X0235739Y0072029D01*
X0235680Y0072016D01*
X0235621Y0072007D01*
X0235560Y0072002D01*
X0235500Y0072000D01*
X0227500Y0072000D01*
X0227440Y0072002D01*
X0227379Y0072007D01*
X0227320Y0072016D01*
X0227261Y0072029D01*
X0227202Y0072045D01*
X0227145Y0072065D01*
X0227090Y0072088D01*
X0227035Y0072115D01*
X0226983Y0072144D01*
X0226932Y0072177D01*
X0226883Y0072213D01*
X0226837Y0072251D01*
X0226793Y0072293D01*
X0226751Y0072337D01*
X0226713Y0072383D01*
X0226677Y0072432D01*
X0226644Y0072483D01*
X0226615Y0072535D01*
X0226588Y0072590D01*
X0226565Y0072645D01*
X0226545Y0072702D01*
X0226529Y0072761D01*
X0226516Y0072820D01*
X0226507Y0072879D01*
X0226502Y0072940D01*
X0226500Y0073000D01*
X0226500Y0090000D01*
X0226502Y0090060D01*
X0226507Y0090121D01*
X0226516Y0090180D01*
X0226529Y0090239D01*
X0226545Y0090298D01*
X0226565Y0090355D01*
X0226588Y0090410D01*
X0226615Y0090465D01*
X0226644Y0090517D01*
X0226677Y0090568D01*
X0226713Y0090617D01*
X0226751Y0090663D01*
X0226793Y0090707D01*
X0226837Y0090749D01*
X0226883Y0090787D01*
X0226932Y0090823D01*
X0226983Y0090856D01*
X0227035Y0090885D01*
X0227090Y0090912D01*
X0227145Y0090935D01*
X0227202Y0090955D01*
X0227261Y0090971D01*
X0227320Y0090984D01*
X0227379Y0090993D01*
X0227440Y0090998D01*
X0227500Y0091000D01*
X0235500Y0091000D01*
X0235560Y0090998D01*
X0235621Y0090993D01*
X0235680Y0090984D01*
X0235739Y0090971D01*
X0235798Y0090955D01*
X0235855Y0090935D01*
X0235910Y0090912D01*
X0235965Y0090885D01*
X0236017Y0090856D01*
X0236068Y0090823D01*
X0236117Y0090787D01*
X0236163Y0090749D01*
X0236207Y0090707D01*
X0236249Y0090663D01*
X0236287Y0090617D01*
X0236323Y0090568D01*
X0236356Y0090517D01*
X0236385Y0090465D01*
X0236412Y0090410D01*
X0236435Y0090355D01*
X0236455Y0090298D01*
X0236471Y0090239D01*
X0236484Y0090180D01*
X0236493Y0090121D01*
X0236498Y0090060D01*
X0236500Y0090000D01*
X0231500Y0083000D02*
X0231500Y0082500D01*
X0231500Y0080500D02*
X0231500Y0080000D01*
X0226500Y0055000D02*
X0225500Y0055000D01*
X0225440Y0054998D01*
X0225379Y0054993D01*
X0225320Y0054984D01*
X0225261Y0054971D01*
X0225202Y0054955D01*
X0225145Y0054935D01*
X0225090Y0054912D01*
X0225035Y0054885D01*
X0224983Y0054856D01*
X0224932Y0054823D01*
X0224883Y0054787D01*
X0224837Y0054749D01*
X0224793Y0054707D01*
X0224751Y0054663D01*
X0224713Y0054617D01*
X0224677Y0054568D01*
X0224644Y0054517D01*
X0224615Y0054465D01*
X0224588Y0054410D01*
X0224565Y0054355D01*
X0224545Y0054298D01*
X0224529Y0054239D01*
X0224516Y0054180D01*
X0224507Y0054121D01*
X0224502Y0054060D01*
X0224500Y0054000D01*
X0226500Y0055000D02*
X0227000Y0054500D01*
X0236000Y0054500D01*
X0236500Y0055000D01*
X0237500Y0055000D01*
X0237560Y0054998D01*
X0237621Y0054993D01*
X0237680Y0054984D01*
X0237739Y0054971D01*
X0237798Y0054955D01*
X0237855Y0054935D01*
X0237910Y0054912D01*
X0237965Y0054885D01*
X0238017Y0054856D01*
X0238068Y0054823D01*
X0238117Y0054787D01*
X0238163Y0054749D01*
X0238207Y0054707D01*
X0238249Y0054663D01*
X0238287Y0054617D01*
X0238323Y0054568D01*
X0238356Y0054517D01*
X0238385Y0054465D01*
X0238412Y0054410D01*
X0238435Y0054355D01*
X0238455Y0054298D01*
X0238471Y0054239D01*
X0238484Y0054180D01*
X0238493Y0054121D01*
X0238498Y0054060D01*
X0238500Y0054000D01*
X0238500Y0049000D02*
X0238498Y0048940D01*
X0238493Y0048879D01*
X0238484Y0048820D01*
X0238471Y0048761D01*
X0238455Y0048702D01*
X0238435Y0048645D01*
X0238412Y0048590D01*
X0238385Y0048535D01*
X0238356Y0048483D01*
X0238323Y0048432D01*
X0238287Y0048383D01*
X0238249Y0048337D01*
X0238207Y0048293D01*
X0238163Y0048251D01*
X0238117Y0048213D01*
X0238068Y0048177D01*
X0238017Y0048144D01*
X0237965Y0048115D01*
X0237910Y0048088D01*
X0237855Y0048065D01*
X0237798Y0048045D01*
X0237739Y0048029D01*
X0237680Y0048016D01*
X0237621Y0048007D01*
X0237560Y0048002D01*
X0237500Y0048000D01*
X0236500Y0048000D01*
X0236000Y0048500D01*
X0227000Y0048500D01*
X0226500Y0048000D01*
X0225500Y0048000D01*
X0225440Y0048002D01*
X0225379Y0048007D01*
X0225320Y0048016D01*
X0225261Y0048029D01*
X0225202Y0048045D01*
X0225145Y0048065D01*
X0225090Y0048088D01*
X0225035Y0048115D01*
X0224983Y0048144D01*
X0224932Y0048177D01*
X0224883Y0048213D01*
X0224837Y0048251D01*
X0224793Y0048293D01*
X0224751Y0048337D01*
X0224713Y0048383D01*
X0224677Y0048432D01*
X0224644Y0048483D01*
X0224615Y0048535D01*
X0224588Y0048590D01*
X0224565Y0048645D01*
X0224545Y0048702D01*
X0224529Y0048761D01*
X0224516Y0048820D01*
X0224507Y0048879D01*
X0224502Y0048940D01*
X0224500Y0049000D01*
X0226500Y0025000D02*
X0226000Y0024500D01*
X0217000Y0024500D01*
X0216500Y0025000D01*
X0215500Y0025000D01*
X0215440Y0024998D01*
X0215379Y0024993D01*
X0215320Y0024984D01*
X0215261Y0024971D01*
X0215202Y0024955D01*
X0215145Y0024935D01*
X0215090Y0024912D01*
X0215035Y0024885D01*
X0214983Y0024856D01*
X0214932Y0024823D01*
X0214883Y0024787D01*
X0214837Y0024749D01*
X0214793Y0024707D01*
X0214751Y0024663D01*
X0214713Y0024617D01*
X0214677Y0024568D01*
X0214644Y0024517D01*
X0214615Y0024465D01*
X0214588Y0024410D01*
X0214565Y0024355D01*
X0214545Y0024298D01*
X0214529Y0024239D01*
X0214516Y0024180D01*
X0214507Y0024121D01*
X0214502Y0024060D01*
X0214500Y0024000D01*
X0214500Y0019000D02*
X0214502Y0018940D01*
X0214507Y0018879D01*
X0214516Y0018820D01*
X0214529Y0018761D01*
X0214545Y0018702D01*
X0214565Y0018645D01*
X0214588Y0018590D01*
X0214615Y0018535D01*
X0214644Y0018483D01*
X0214677Y0018432D01*
X0214713Y0018383D01*
X0214751Y0018337D01*
X0214793Y0018293D01*
X0214837Y0018251D01*
X0214883Y0018213D01*
X0214932Y0018177D01*
X0214983Y0018144D01*
X0215035Y0018115D01*
X0215090Y0018088D01*
X0215145Y0018065D01*
X0215202Y0018045D01*
X0215261Y0018029D01*
X0215320Y0018016D01*
X0215379Y0018007D01*
X0215440Y0018002D01*
X0215500Y0018000D01*
X0216500Y0018000D01*
X0217000Y0018500D01*
X0226000Y0018500D01*
X0226500Y0018000D01*
X0227500Y0018000D01*
X0227560Y0018002D01*
X0227621Y0018007D01*
X0227680Y0018016D01*
X0227739Y0018029D01*
X0227798Y0018045D01*
X0227855Y0018065D01*
X0227910Y0018088D01*
X0227965Y0018115D01*
X0228017Y0018144D01*
X0228068Y0018177D01*
X0228117Y0018213D01*
X0228163Y0018251D01*
X0228207Y0018293D01*
X0228249Y0018337D01*
X0228287Y0018383D01*
X0228323Y0018432D01*
X0228356Y0018483D01*
X0228385Y0018535D01*
X0228412Y0018590D01*
X0228435Y0018645D01*
X0228455Y0018702D01*
X0228471Y0018761D01*
X0228484Y0018820D01*
X0228493Y0018879D01*
X0228498Y0018940D01*
X0228500Y0019000D01*
X0228500Y0024000D02*
X0228498Y0024060D01*
X0228493Y0024121D01*
X0228484Y0024180D01*
X0228471Y0024239D01*
X0228455Y0024298D01*
X0228435Y0024355D01*
X0228412Y0024410D01*
X0228385Y0024465D01*
X0228356Y0024517D01*
X0228323Y0024568D01*
X0228287Y0024617D01*
X0228249Y0024663D01*
X0228207Y0024707D01*
X0228163Y0024749D01*
X0228117Y0024787D01*
X0228068Y0024823D01*
X0228017Y0024856D01*
X0227965Y0024885D01*
X0227910Y0024912D01*
X0227855Y0024935D01*
X0227798Y0024955D01*
X0227739Y0024971D01*
X0227680Y0024984D01*
X0227621Y0024993D01*
X0227560Y0024998D01*
X0227500Y0025000D01*
X0226500Y0025000D01*
D13*
X0228500Y0080500D02*
X0231500Y0080500D01*
X0234500Y0080500D01*
X0234500Y0082500D02*
X0231500Y0082500D01*
X0228500Y0082500D01*
X0129020Y0014807D02*
X0134020Y0004807D01*
X0124020Y0004807D01*
X0129020Y0014807D01*
X0084500Y0115500D02*
X0081500Y0115500D01*
X0078500Y0115500D01*
X0078500Y0117500D02*
X0081500Y0117500D01*
X0084500Y0117500D01*
X0090500Y0213500D02*
X0090500Y0216500D01*
X0090500Y0219500D01*
X0092500Y0219500D02*
X0092500Y0216500D01*
X0092500Y0213500D01*
X0198500Y0202500D02*
X0201500Y0202500D01*
X0204500Y0202500D01*
X0204500Y0200500D02*
X0201500Y0200500D01*
X0198500Y0200500D01*
D14*
X0189295Y0227484D02*
X0186736Y0227484D01*
X0186736Y0257406D01*
X0225713Y0257406D01*
X0225713Y0227484D01*
X0223154Y0227484D01*
X0223154Y0233783D01*
X0228665Y0233783D02*
X0228665Y0227484D01*
X0226106Y0227484D01*
X0226106Y0257406D01*
X0249335Y0257406D01*
X0249335Y0227484D01*
X0246776Y0227484D01*
X0246776Y0233783D01*
X0255043Y0228665D02*
X0255043Y0226106D01*
X0284965Y0226106D01*
X0284965Y0257209D01*
X0255043Y0257209D01*
X0255043Y0254650D01*
X0261343Y0254650D01*
X0261343Y0228665D02*
X0255043Y0228665D01*
X0189295Y0227484D02*
X0189295Y0233783D01*
X0143035Y0227484D02*
X0140476Y0227484D01*
X0140476Y0233783D01*
X0143035Y0227484D02*
X0143035Y0257406D01*
X0104059Y0257406D01*
X0104059Y0227484D01*
X0106618Y0227484D01*
X0106618Y0233783D01*
X0077500Y0093500D02*
X0076500Y0093500D01*
X0076500Y0086500D01*
X0076640Y0086498D01*
X0076780Y0086492D01*
X0076920Y0086482D01*
X0077060Y0086469D01*
X0077199Y0086451D01*
X0077338Y0086429D01*
X0077475Y0086404D01*
X0077613Y0086375D01*
X0077749Y0086342D01*
X0077884Y0086305D01*
X0078018Y0086264D01*
X0078151Y0086219D01*
X0078283Y0086171D01*
X0078413Y0086119D01*
X0078542Y0086064D01*
X0078669Y0086005D01*
X0078795Y0085942D01*
X0078919Y0085876D01*
X0079040Y0085807D01*
X0079160Y0085734D01*
X0079278Y0085657D01*
X0079393Y0085578D01*
X0079507Y0085495D01*
X0079617Y0085409D01*
X0079726Y0085320D01*
X0079832Y0085228D01*
X0079935Y0085133D01*
X0080036Y0085036D01*
X0080133Y0084935D01*
X0080228Y0084832D01*
X0080320Y0084726D01*
X0080409Y0084617D01*
X0080495Y0084507D01*
X0080578Y0084393D01*
X0080657Y0084278D01*
X0080734Y0084160D01*
X0080807Y0084040D01*
X0080876Y0083919D01*
X0080942Y0083795D01*
X0081005Y0083669D01*
X0081064Y0083542D01*
X0081119Y0083413D01*
X0081171Y0083283D01*
X0081219Y0083151D01*
X0081264Y0083018D01*
X0081305Y0082884D01*
X0081342Y0082749D01*
X0081375Y0082613D01*
X0081404Y0082475D01*
X0081429Y0082338D01*
X0081451Y0082199D01*
X0081469Y0082060D01*
X0081482Y0081920D01*
X0081492Y0081780D01*
X0081498Y0081640D01*
X0081500Y0081500D01*
X0081498Y0081360D01*
X0081492Y0081220D01*
X0081482Y0081080D01*
X0081469Y0080940D01*
X0081451Y0080801D01*
X0081429Y0080662D01*
X0081404Y0080525D01*
X0081375Y0080387D01*
X0081342Y0080251D01*
X0081305Y0080116D01*
X0081264Y0079982D01*
X0081219Y0079849D01*
X0081171Y0079717D01*
X0081119Y0079587D01*
X0081064Y0079458D01*
X0081005Y0079331D01*
X0080942Y0079205D01*
X0080876Y0079081D01*
X0080807Y0078960D01*
X0080734Y0078840D01*
X0080657Y0078722D01*
X0080578Y0078607D01*
X0080495Y0078493D01*
X0080409Y0078383D01*
X0080320Y0078274D01*
X0080228Y0078168D01*
X0080133Y0078065D01*
X0080036Y0077964D01*
X0079935Y0077867D01*
X0079832Y0077772D01*
X0079726Y0077680D01*
X0079617Y0077591D01*
X0079507Y0077505D01*
X0079393Y0077422D01*
X0079278Y0077343D01*
X0079160Y0077266D01*
X0079040Y0077193D01*
X0078919Y0077124D01*
X0078795Y0077058D01*
X0078669Y0076995D01*
X0078542Y0076936D01*
X0078413Y0076881D01*
X0078283Y0076829D01*
X0078151Y0076781D01*
X0078018Y0076736D01*
X0077884Y0076695D01*
X0077749Y0076658D01*
X0077613Y0076625D01*
X0077475Y0076596D01*
X0077338Y0076571D01*
X0077199Y0076549D01*
X0077060Y0076531D01*
X0076920Y0076518D01*
X0076780Y0076508D01*
X0076640Y0076502D01*
X0076500Y0076500D01*
X0076500Y0069500D01*
X0077500Y0069500D01*
X0215500Y0069500D02*
X0216500Y0069500D01*
X0216500Y0093500D01*
X0215500Y0093500D01*
X0216500Y0044500D02*
X0216500Y0041500D01*
X0215500Y0041500D01*
X0216500Y0041500D02*
X0216500Y0038500D01*
X0236500Y0038500D01*
X0236500Y0041500D01*
X0237500Y0041500D01*
X0236500Y0041500D02*
X0236500Y0044500D01*
X0216500Y0044500D01*
X0234000Y0044000D02*
X0234000Y0039000D01*
D15*
X0039020Y0036807D02*
X0039020Y0001807D01*
X0072520Y0001807D01*
X0072520Y0030307D01*
X0072520Y0036807D01*
X0071520Y0036807D01*
X0072520Y0036807D02*
X0076520Y0036807D01*
X0081520Y0036807D02*
X0086520Y0036807D01*
X0091520Y0036807D02*
X0096520Y0036807D01*
X0101520Y0036807D02*
X0105520Y0036807D01*
X0105520Y0030307D01*
X0105520Y0001807D01*
X0102520Y0001807D01*
X0085520Y0001807D01*
X0072520Y0001807D01*
X0068020Y0001807D02*
X0068020Y0005807D01*
X0060020Y0005807D01*
X0060020Y0001807D01*
X0055520Y0001807D02*
X0055520Y0030307D01*
X0055520Y0036807D01*
X0056520Y0036807D01*
X0055520Y0036807D02*
X0047520Y0036807D01*
X0047520Y0039307D01*
X0043520Y0039307D01*
X0043520Y0036807D01*
X0047520Y0036807D01*
X0043520Y0036807D02*
X0039020Y0036807D01*
X0041520Y0027307D02*
X0041520Y0012307D01*
X0052520Y0012307D01*
X0052520Y0027307D01*
X0041520Y0027307D01*
X0055520Y0030307D02*
X0061020Y0030307D01*
X0061020Y0027307D01*
X0067020Y0027307D01*
X0067020Y0030307D01*
X0072520Y0030307D01*
X0067020Y0027307D02*
X0067020Y0021307D01*
X0067018Y0021199D01*
X0067012Y0021091D01*
X0067002Y0020983D01*
X0066989Y0020875D01*
X0066971Y0020768D01*
X0066950Y0020662D01*
X0066925Y0020557D01*
X0066896Y0020452D01*
X0066863Y0020349D01*
X0066827Y0020247D01*
X0066786Y0020146D01*
X0066743Y0020047D01*
X0066695Y0019950D01*
X0066645Y0019854D01*
X0066591Y0019760D01*
X0066533Y0019669D01*
X0066472Y0019579D01*
X0066408Y0019491D01*
X0066341Y0019406D01*
X0066271Y0019324D01*
X0066198Y0019244D01*
X0066122Y0019167D01*
X0066043Y0019092D01*
X0065962Y0019021D01*
X0065878Y0018952D01*
X0065792Y0018886D01*
X0065704Y0018824D01*
X0065613Y0018765D01*
X0065520Y0018709D01*
X0065425Y0018656D01*
X0065329Y0018607D01*
X0065230Y0018562D01*
X0065130Y0018520D01*
X0065029Y0018482D01*
X0064926Y0018447D01*
X0064823Y0018416D01*
X0064718Y0018389D01*
X0064612Y0018366D01*
X0064505Y0018347D01*
X0064398Y0018331D01*
X0064290Y0018319D01*
X0064182Y0018311D01*
X0064074Y0018307D01*
X0063966Y0018307D01*
X0063858Y0018311D01*
X0063750Y0018319D01*
X0063642Y0018331D01*
X0063535Y0018347D01*
X0063428Y0018366D01*
X0063322Y0018389D01*
X0063217Y0018416D01*
X0063114Y0018447D01*
X0063011Y0018482D01*
X0062910Y0018520D01*
X0062810Y0018562D01*
X0062711Y0018607D01*
X0062615Y0018656D01*
X0062520Y0018709D01*
X0062427Y0018765D01*
X0062336Y0018824D01*
X0062248Y0018886D01*
X0062162Y0018952D01*
X0062078Y0019021D01*
X0061997Y0019092D01*
X0061918Y0019167D01*
X0061842Y0019244D01*
X0061769Y0019324D01*
X0061699Y0019406D01*
X0061632Y0019491D01*
X0061568Y0019579D01*
X0061507Y0019669D01*
X0061449Y0019760D01*
X0061395Y0019854D01*
X0061345Y0019950D01*
X0061297Y0020047D01*
X0061254Y0020146D01*
X0061213Y0020247D01*
X0061177Y0020349D01*
X0061144Y0020452D01*
X0061115Y0020557D01*
X0061090Y0020662D01*
X0061069Y0020768D01*
X0061051Y0020875D01*
X0061038Y0020983D01*
X0061028Y0021091D01*
X0061022Y0021199D01*
X0061020Y0021307D01*
X0061020Y0027307D01*
X0061520Y0036807D02*
X0066520Y0036807D01*
X0085520Y0031307D02*
X0085520Y0027307D01*
X0102520Y0027307D01*
X0102520Y0031307D01*
X0085520Y0031307D01*
X0085520Y0027307D02*
X0085520Y0001807D01*
X0102520Y0001807D02*
X0102520Y0027307D01*
X0105520Y0030307D02*
X0111020Y0030307D01*
X0111020Y0027307D01*
X0111020Y0021307D01*
X0111022Y0021199D01*
X0111028Y0021091D01*
X0111038Y0020983D01*
X0111051Y0020875D01*
X0111069Y0020768D01*
X0111090Y0020662D01*
X0111115Y0020557D01*
X0111144Y0020452D01*
X0111177Y0020349D01*
X0111213Y0020247D01*
X0111254Y0020146D01*
X0111297Y0020047D01*
X0111345Y0019950D01*
X0111395Y0019854D01*
X0111449Y0019760D01*
X0111507Y0019669D01*
X0111568Y0019579D01*
X0111632Y0019491D01*
X0111699Y0019406D01*
X0111769Y0019324D01*
X0111842Y0019244D01*
X0111918Y0019167D01*
X0111997Y0019092D01*
X0112078Y0019021D01*
X0112162Y0018952D01*
X0112248Y0018886D01*
X0112336Y0018824D01*
X0112427Y0018765D01*
X0112520Y0018709D01*
X0112615Y0018656D01*
X0112711Y0018607D01*
X0112810Y0018562D01*
X0112910Y0018520D01*
X0113011Y0018482D01*
X0113114Y0018447D01*
X0113217Y0018416D01*
X0113322Y0018389D01*
X0113428Y0018366D01*
X0113535Y0018347D01*
X0113642Y0018331D01*
X0113750Y0018319D01*
X0113858Y0018311D01*
X0113966Y0018307D01*
X0114074Y0018307D01*
X0114182Y0018311D01*
X0114290Y0018319D01*
X0114398Y0018331D01*
X0114505Y0018347D01*
X0114612Y0018366D01*
X0114718Y0018389D01*
X0114823Y0018416D01*
X0114926Y0018447D01*
X0115029Y0018482D01*
X0115130Y0018520D01*
X0115230Y0018562D01*
X0115329Y0018607D01*
X0115425Y0018656D01*
X0115520Y0018709D01*
X0115613Y0018765D01*
X0115704Y0018824D01*
X0115792Y0018886D01*
X0115878Y0018952D01*
X0115962Y0019021D01*
X0116043Y0019092D01*
X0116122Y0019167D01*
X0116198Y0019244D01*
X0116271Y0019324D01*
X0116341Y0019406D01*
X0116408Y0019491D01*
X0116472Y0019579D01*
X0116533Y0019669D01*
X0116591Y0019760D01*
X0116645Y0019854D01*
X0116695Y0019950D01*
X0116743Y0020047D01*
X0116786Y0020146D01*
X0116827Y0020247D01*
X0116863Y0020349D01*
X0116896Y0020452D01*
X0116925Y0020557D01*
X0116950Y0020662D01*
X0116971Y0020768D01*
X0116989Y0020875D01*
X0117002Y0020983D01*
X0117012Y0021091D01*
X0117018Y0021199D01*
X0117020Y0021307D01*
X0117020Y0027307D01*
X0111020Y0027307D01*
X0117020Y0027307D02*
X0117020Y0030307D01*
X0122520Y0030307D01*
X0122520Y0001807D01*
X0149020Y0001807D01*
X0149020Y0036807D01*
X0144520Y0036807D01*
X0144520Y0039307D01*
X0140520Y0039307D01*
X0140520Y0036807D01*
X0131520Y0036807D01*
X0132966Y0038157D02*
X0135968Y0041160D01*
X0135968Y0041910D01*
X0135218Y0042661D01*
X0133716Y0042661D01*
X0132966Y0041910D01*
X0132966Y0038157D02*
X0135968Y0038157D01*
X0140520Y0036807D02*
X0144520Y0036807D01*
X0135868Y0046657D02*
X0132866Y0046657D01*
X0134367Y0046657D02*
X0134367Y0051161D01*
X0132866Y0049660D01*
X0126520Y0036807D02*
X0122520Y0036807D01*
X0121520Y0036807D01*
X0122520Y0036807D02*
X0122520Y0030307D01*
X0116520Y0036807D02*
X0111520Y0036807D01*
X0106520Y0036807D02*
X0105520Y0036807D01*
X0110020Y0005807D02*
X0110020Y0001807D01*
X0105520Y0001807D01*
X0110020Y0001807D02*
X0118020Y0001807D01*
X0118020Y0005807D01*
X0110020Y0005807D01*
X0118020Y0001807D02*
X0122520Y0001807D01*
X0060555Y0072366D02*
X0060555Y0214098D01*
X0001500Y0214098D01*
X0001500Y0072366D01*
X0060555Y0072366D01*
X0091500Y0110500D02*
X0281500Y0110500D01*
X0281500Y0182500D01*
X0091500Y0182500D01*
X0091500Y0110500D01*
X0201750Y0048652D02*
X0202701Y0048652D01*
X0203018Y0048335D01*
X0203018Y0047067D01*
X0202701Y0046750D01*
X0201750Y0046750D01*
X0201750Y0048652D01*
X0203960Y0048018D02*
X0204594Y0048652D01*
X0204594Y0046750D01*
X0203960Y0046750D02*
X0205228Y0046750D01*
X0271002Y0045703D02*
X0272904Y0045703D01*
X0271002Y0044435D01*
X0272904Y0044435D01*
X0272904Y0043595D02*
X0272904Y0042962D01*
X0272904Y0043279D02*
X0271002Y0043279D01*
X0271002Y0043595D02*
X0271002Y0042962D01*
X0271002Y0042122D02*
X0271002Y0041488D01*
X0271002Y0041805D02*
X0272904Y0041805D01*
X0272904Y0041488D02*
X0272904Y0042122D01*
X0272587Y0040546D02*
X0271319Y0040546D01*
X0271002Y0040229D01*
X0271002Y0039278D01*
X0272904Y0039278D01*
X0272904Y0040229D01*
X0272587Y0040546D01*
X0272904Y0038439D02*
X0272904Y0037805D01*
X0272904Y0038122D02*
X0271002Y0038122D01*
X0271002Y0037805D02*
X0271002Y0038439D01*
X0271002Y0036863D02*
X0272904Y0036863D01*
X0272904Y0035595D02*
X0271002Y0035595D01*
X0271636Y0036229D01*
X0271002Y0036863D01*
X0271002Y0234909D02*
X0271636Y0235543D01*
X0271002Y0236177D01*
X0272904Y0236177D01*
X0272904Y0237119D02*
X0272904Y0237753D01*
X0272904Y0237436D02*
X0271002Y0237436D01*
X0271002Y0237119D02*
X0271002Y0237753D01*
X0271002Y0238593D02*
X0271002Y0239543D01*
X0271319Y0239860D01*
X0272587Y0239860D01*
X0272904Y0239543D01*
X0272904Y0238593D01*
X0271002Y0238593D01*
X0271002Y0240803D02*
X0271002Y0241436D01*
X0271002Y0241119D02*
X0272904Y0241119D01*
X0272904Y0240803D02*
X0272904Y0241436D01*
X0272587Y0242276D02*
X0272904Y0242593D01*
X0272904Y0243227D01*
X0272587Y0243544D01*
X0271319Y0243544D01*
X0271002Y0243227D01*
X0271002Y0242593D01*
X0271319Y0242276D01*
X0272587Y0242276D01*
X0272587Y0244486D02*
X0271002Y0244486D01*
X0271002Y0245753D02*
X0272587Y0245753D01*
X0272904Y0245436D01*
X0272904Y0244803D01*
X0272587Y0244486D01*
X0271002Y0246696D02*
X0271002Y0247963D01*
X0271002Y0247329D02*
X0272904Y0247329D01*
X0272904Y0234909D02*
X0271002Y0234909D01*
X0243658Y0245844D02*
X0243024Y0246478D01*
X0243341Y0246478D02*
X0242390Y0246478D01*
X0242390Y0245844D02*
X0242390Y0247746D01*
X0243341Y0247746D01*
X0243658Y0247429D01*
X0243658Y0246795D01*
X0243341Y0246478D01*
X0241448Y0245844D02*
X0241448Y0247746D01*
X0240180Y0247746D02*
X0240180Y0245844D01*
X0240814Y0246478D01*
X0241448Y0245844D01*
X0239238Y0246795D02*
X0238921Y0246478D01*
X0237970Y0246478D01*
X0237970Y0245844D02*
X0237970Y0247746D01*
X0238921Y0247746D01*
X0239238Y0247429D01*
X0239238Y0246795D01*
X0237028Y0246161D02*
X0237028Y0247429D01*
X0236711Y0247746D01*
X0235761Y0247746D01*
X0235761Y0245844D01*
X0236711Y0245844D01*
X0237028Y0246161D01*
X0234818Y0245844D02*
X0233551Y0245844D01*
X0233551Y0247746D01*
X0234818Y0247746D01*
X0234185Y0246795D02*
X0233551Y0246795D01*
X0232609Y0245844D02*
X0231341Y0245844D01*
X0231341Y0247746D01*
X0208847Y0247429D02*
X0208847Y0246161D01*
X0208530Y0245844D01*
X0207579Y0245844D01*
X0207579Y0247746D01*
X0208530Y0247746D01*
X0208847Y0247429D01*
X0206637Y0247746D02*
X0205369Y0247746D01*
X0205369Y0245844D01*
X0206637Y0245844D01*
X0206003Y0246795D02*
X0205369Y0246795D01*
X0204427Y0245844D02*
X0203160Y0245844D01*
X0203160Y0247746D01*
X0128380Y0247746D02*
X0127112Y0247746D01*
X0127746Y0247746D02*
X0127746Y0245844D01*
X0126170Y0245844D02*
X0126170Y0247746D01*
X0124902Y0247746D02*
X0124902Y0245844D01*
X0123960Y0246161D02*
X0123960Y0247429D01*
X0123643Y0247746D01*
X0123009Y0247746D01*
X0122692Y0247429D01*
X0122692Y0246161D01*
X0123009Y0245844D01*
X0123643Y0245844D01*
X0123960Y0246161D01*
X0124902Y0247746D02*
X0126170Y0245844D01*
X0121750Y0245844D02*
X0121116Y0246478D01*
X0121433Y0246478D02*
X0120482Y0246478D01*
X0120482Y0245844D02*
X0120482Y0247746D01*
X0121433Y0247746D01*
X0121750Y0247429D01*
X0121750Y0246795D01*
X0121433Y0246478D01*
X0119540Y0247746D02*
X0118273Y0247746D01*
X0118273Y0245844D01*
X0118273Y0246795D02*
X0118906Y0246795D01*
X0097989Y0246478D02*
X0097989Y0247746D01*
X0097989Y0246478D02*
X0097355Y0245844D01*
X0096721Y0246478D01*
X0096721Y0247746D01*
X0095779Y0247429D02*
X0095462Y0247746D01*
X0094828Y0247746D01*
X0094511Y0247429D01*
X0095779Y0247429D02*
X0095779Y0247112D01*
X0094511Y0245844D01*
X0095779Y0245844D01*
X0093569Y0245844D02*
X0092301Y0245844D01*
X0092935Y0245844D02*
X0092935Y0247746D01*
X0092301Y0247112D01*
X0091359Y0246795D02*
X0091042Y0246478D01*
X0090091Y0246478D01*
X0090091Y0245844D02*
X0090091Y0247746D01*
X0091042Y0247746D01*
X0091359Y0247429D01*
X0091359Y0246795D01*
X0090725Y0246478D02*
X0091359Y0245844D01*
X0089149Y0245844D02*
X0089149Y0247746D01*
X0087881Y0247746D02*
X0087881Y0245844D01*
X0088515Y0246478D01*
X0089149Y0245844D01*
X0086939Y0246795D02*
X0086622Y0246478D01*
X0085672Y0246478D01*
X0085672Y0245844D02*
X0085672Y0247746D01*
X0086622Y0247746D01*
X0086939Y0247429D01*
X0086939Y0246795D01*
D16*
X0089020Y0005307D02*
X0089020Y0004307D01*
X0099020Y0004307D02*
X0099020Y0005307D01*
D17*
X0099020Y0015807D03*
X0089020Y0015807D03*
D18*
X0129020Y0005807D03*
D19*
X0129020Y0007807D03*
D20*
X0129020Y0009807D03*
D21*
X0129020Y0011807D03*
D22*
X0129020Y0013307D03*
D23*
X0129020Y0044807D03*
X0119020Y0044807D03*
X0109020Y0044807D03*
X0099020Y0044807D03*
X0089020Y0044807D03*
X0079020Y0044807D03*
X0069020Y0044807D03*
X0059020Y0044807D03*
M02*
