%
M48
M72
T01C0.01181
T02C0.02756
T03C0.03150
T04C0.03200
T05C0.03543
T06C0.03937
T07C0.04000
T08C0.04331
T09C0.08661
T10C0.11024
T11C0.12598
%
T01
X51250Y38250
X56250Y27250
X57250Y23250
X60250Y38250
X76250Y41250
X80250Y41250
X94250Y52250
X97250Y37250
X95250Y29250
X93250Y11250
X51250Y66250
X77250Y96250
X60250Y116250
X59250Y109250
X54250Y110250
X41250Y123250
X22250Y138250
X10250Y143250
X29250Y184250
X32250Y188250
X36250Y181250
X23250Y198250
X35250Y210250
X28250Y217250
X25250Y225250
X13250Y217250
X7250Y207250
X10250Y193250
X44250Y222250
X60250Y222250
X62250Y226250
X62250Y232250
X70250Y235250
X72250Y232250
X74250Y226250
X68250Y219250
X61250Y216250
X56250Y189250
X62250Y180250
X77250Y158250
X100250Y185250
X106250Y187250
X103250Y194250
X100250Y197250
X109250Y176250
X125250Y208250
X99250Y218250
X90250Y221250
X91250Y225250
X85250Y222250
X85250Y218250
X80250Y211250
X75250Y251250
X77250Y261250
X71250Y261250
X67250Y278250
X95250Y272250
X96250Y259250
X152250Y188250
X157250Y174250
X171250Y181250
X173250Y226250
X180250Y134250
X177250Y111250
X177250Y93250
X180250Y71250
X171250Y70250
X145250Y51250
X119250Y96250
X96250Y87250
X157250Y110250
X21250Y85250
T02
X56368Y52431
X56368Y44557
X162667Y40620
X162667Y32746
X162667Y56368
X162667Y64242
X162667Y72116
X83927Y233533
X83927Y241407
X83927Y249281
X83927Y257156
T03
X56368Y157982
X56368Y147982
X56368Y137982
X56368Y127982
X44557Y132982
X44557Y142982
X44557Y152982
X32746Y147982
X32746Y137982
X32746Y127982
X20935Y132982
X20935Y142982
X20935Y152982
X32746Y157982
T04
X86250Y161250
X86250Y171250
X86250Y181250
X86250Y191250
X86250Y201250
X96250Y211250
X106250Y211250
X116250Y201250
X116250Y191250
X116250Y181250
X116250Y171250
X116250Y161250
X116250Y151250
X116250Y141250
X116250Y131250
X116250Y121250
X116250Y111250
X116250Y101250
X116250Y91250
X116250Y81250
X116250Y71250
X116250Y56250
X116250Y46250
X116250Y36250
X116250Y26250
X116250Y16250
X106250Y16250
X96250Y16250
X86250Y26250
X86250Y36250
X86250Y46250
X86250Y56250
X86250Y71250
X86250Y81250
X86250Y91250
X86250Y101250
X86250Y111250
X86250Y121250
X86250Y131250
X86250Y141250
X86250Y151250
X106250Y226250
X116250Y226250
X126250Y226250
X146250Y221250
X146250Y231250
X146250Y241250
X146250Y251250
X126250Y256250
X126250Y271250
X106250Y271250
X106250Y256250
X86250Y271250
X66250Y271250
X146250Y211250
X146250Y201250
X146250Y191250
X156250Y181250
X166250Y181250
X176250Y191250
X176250Y201250
X176250Y211250
X176250Y221250
X176250Y231250
X176250Y241250
X176250Y251250
X146250Y66250
X146250Y46250
X146250Y36250
X146250Y16250
X136250Y16250
X71250Y26250
X61250Y26250
T05
X56250Y16250
X86250Y16250
T06
X71250Y36250
X131250Y36250
T07
X146250Y76250
X146250Y86250
X146250Y96250
X146250Y106250
X146250Y116250
X146250Y126250
X156250Y141250
X156250Y151250
X156250Y161250
X166250Y161250
X166250Y151250
X166250Y141250
X46250Y236250
X46250Y246250
X46250Y256250
X46250Y266250
X46250Y26250
X36250Y26250
X26250Y26250
T08
X71250Y46250
X71250Y56250
X71250Y66250
X71250Y76250
X71250Y86250
X71250Y96250
X71250Y106250
X71250Y116250
X71250Y126250
X71250Y136250
X71250Y146250
X71250Y156250
X71250Y166250
X71250Y176250
X71250Y186250
X71250Y196250
X71250Y206250
X131250Y206250
X131250Y196250
X131250Y186250
X131250Y176250
X131250Y166250
X131250Y156250
X131250Y146250
X131250Y136250
X131250Y126250
X131250Y116250
X131250Y106250
X131250Y96250
X131250Y86250
X131250Y76250
X131250Y66250
X131250Y56250
X131250Y46250
T09
X44557Y111604
X20935Y111604
X20935Y174360
X44557Y174360
T10
X32746Y200069
X32746Y85896
T11
X13061Y13061
X54006Y85896
X54006Y200069
X13061Y272904
X174478Y272904
X174478Y13061
M30
