G75*
%MOIN*%
%OFA0B0*%
%FSLAX25Y25*%
%IPPOS*%
%LPD*%
%AMOC8*
5,1,8,0,0,1.08239X$1,22.5*
%
%ADD10C,0.04800*%
%ADD11OC8,0.04800*%
%ADD12C,0.07400*%
%ADD13C,0.06299*%
%ADD14R,0.04724X0.04724*%
%ADD15C,0.04724*%
%ADD16OC8,0.12598*%
%ADD17C,0.07600*%
%ADD18C,0.06000*%
%ADD19OC8,0.06000*%
%ADD20C,0.01000*%
%ADD21C,0.02362*%
%ADD22C,0.00500*%
D10*
X0081450Y0026250D02*
X0086250Y0026250D01*
X0086250Y0036250D02*
X0081450Y0036250D01*
X0081450Y0046250D02*
X0086250Y0046250D01*
X0086250Y0056250D02*
X0081450Y0056250D01*
X0083850Y0071250D02*
X0088650Y0071250D01*
X0088650Y0081250D02*
X0083850Y0081250D01*
X0083850Y0091250D02*
X0088650Y0091250D01*
X0088650Y0101250D02*
X0083850Y0101250D01*
X0083850Y0111250D02*
X0088650Y0111250D01*
X0088650Y0121250D02*
X0083850Y0121250D01*
X0083850Y0131250D02*
X0088650Y0131250D01*
X0088650Y0141250D02*
X0083850Y0141250D01*
X0083850Y0151250D02*
X0088650Y0151250D01*
X0088650Y0161250D02*
X0083850Y0161250D01*
X0083850Y0171250D02*
X0088650Y0171250D01*
X0088650Y0181250D02*
X0083850Y0181250D01*
X0083850Y0191250D02*
X0088650Y0191250D01*
X0088650Y0201250D02*
X0083850Y0201250D01*
X0106250Y0223850D02*
X0106250Y0228650D01*
X0116250Y0228650D02*
X0116250Y0223850D01*
X0126250Y0223850D02*
X0126250Y0228650D01*
X0143850Y0231250D02*
X0148650Y0231250D01*
X0148650Y0221250D02*
X0143850Y0221250D01*
X0143850Y0211250D02*
X0148650Y0211250D01*
X0148650Y0201250D02*
X0143850Y0201250D01*
X0143850Y0191250D02*
X0148650Y0191250D01*
X0173850Y0191250D02*
X0178650Y0191250D01*
X0178650Y0201250D02*
X0173850Y0201250D01*
X0173850Y0211250D02*
X0178650Y0211250D01*
X0178650Y0221250D02*
X0173850Y0221250D01*
X0173850Y0231250D02*
X0178650Y0231250D01*
X0178650Y0241250D02*
X0173850Y0241250D01*
X0173850Y0251250D02*
X0178650Y0251250D01*
X0148650Y0251250D02*
X0143850Y0251250D01*
X0143850Y0241250D02*
X0148650Y0241250D01*
X0126250Y0253850D02*
X0126250Y0258650D01*
X0106250Y0258650D02*
X0106250Y0253850D01*
X0113850Y0201250D02*
X0118650Y0201250D01*
X0118650Y0191250D02*
X0113850Y0191250D01*
X0113850Y0181250D02*
X0118650Y0181250D01*
X0118650Y0171250D02*
X0113850Y0171250D01*
X0113850Y0161250D02*
X0118650Y0161250D01*
X0118650Y0151250D02*
X0113850Y0151250D01*
X0113850Y0141250D02*
X0118650Y0141250D01*
X0118650Y0131250D02*
X0113850Y0131250D01*
X0113850Y0121250D02*
X0118650Y0121250D01*
X0118650Y0111250D02*
X0113850Y0111250D01*
X0113850Y0101250D02*
X0118650Y0101250D01*
X0118650Y0091250D02*
X0113850Y0091250D01*
X0113850Y0081250D02*
X0118650Y0081250D01*
X0118650Y0071250D02*
X0113850Y0071250D01*
X0116250Y0056250D02*
X0121050Y0056250D01*
X0121050Y0046250D02*
X0116250Y0046250D01*
X0116250Y0036250D02*
X0121050Y0036250D01*
X0121050Y0026250D02*
X0116250Y0026250D01*
D11*
X0116250Y0016250D03*
X0106250Y0016250D03*
X0096250Y0016250D03*
X0071250Y0026250D03*
X0061250Y0026250D03*
X0136250Y0016250D03*
X0146250Y0016250D03*
X0146250Y0036250D03*
X0146250Y0046250D03*
X0146250Y0066250D03*
X0156250Y0181250D03*
X0166250Y0181250D03*
X0126250Y0271250D03*
X0106250Y0271250D03*
X0086250Y0271250D03*
X0066250Y0271250D03*
X0096250Y0211250D03*
X0106250Y0211250D03*
D12*
X0086250Y0016250D03*
X0056250Y0016250D03*
D13*
X0056368Y0044557D03*
X0056368Y0052431D03*
X0019163Y0048494D03*
X0019163Y0040620D03*
X0019163Y0056368D03*
X0083927Y0233533D03*
X0083927Y0241407D03*
X0083927Y0249281D03*
X0083927Y0257156D03*
X0162667Y0072116D03*
X0162667Y0064242D03*
X0162667Y0056368D03*
X0162667Y0040620D03*
X0162667Y0032746D03*
D14*
X0056368Y0127982D03*
D15*
X0056368Y0137982D03*
X0056368Y0147982D03*
X0056368Y0157982D03*
X0044557Y0152982D03*
X0044557Y0142982D03*
X0044557Y0132982D03*
X0032746Y0127982D03*
X0032746Y0137982D03*
X0032746Y0147982D03*
X0032746Y0157982D03*
X0020935Y0152982D03*
X0020935Y0142982D03*
X0020935Y0132982D03*
D16*
X0020935Y0111604D03*
X0044557Y0111604D03*
X0044557Y0174360D03*
X0020935Y0174360D03*
D17*
X0071250Y0176250D03*
X0071250Y0166250D03*
X0071250Y0156250D03*
X0071250Y0146250D03*
X0071250Y0136250D03*
X0071250Y0126250D03*
X0071250Y0116250D03*
X0071250Y0106250D03*
X0071250Y0096250D03*
X0071250Y0086250D03*
X0071250Y0076250D03*
X0071250Y0066250D03*
X0071250Y0056250D03*
X0071250Y0046250D03*
X0131250Y0046250D03*
X0131250Y0056250D03*
X0131250Y0066250D03*
X0131250Y0076250D03*
X0131250Y0086250D03*
X0131250Y0096250D03*
X0131250Y0106250D03*
X0131250Y0116250D03*
X0131250Y0126250D03*
X0131250Y0136250D03*
X0131250Y0146250D03*
X0131250Y0156250D03*
X0131250Y0166250D03*
X0131250Y0176250D03*
X0131250Y0186250D03*
X0131250Y0196250D03*
X0131250Y0206250D03*
X0071250Y0206250D03*
X0071250Y0196250D03*
X0071250Y0186250D03*
D18*
X0049250Y0236250D02*
X0043250Y0236250D01*
X0043250Y0246250D02*
X0049250Y0246250D01*
X0049250Y0256250D02*
X0043250Y0256250D01*
X0043250Y0266250D02*
X0049250Y0266250D01*
X0029250Y0256250D02*
X0023250Y0256250D01*
X0023250Y0246250D02*
X0029250Y0246250D01*
X0029250Y0236250D02*
X0023250Y0236250D01*
X0143250Y0161250D02*
X0149250Y0161250D01*
X0149250Y0151250D02*
X0143250Y0151250D01*
X0143250Y0141250D02*
X0149250Y0141250D01*
X0149250Y0126250D02*
X0143250Y0126250D01*
X0143250Y0116250D02*
X0149250Y0116250D01*
X0149250Y0106250D02*
X0143250Y0106250D01*
X0143250Y0096250D02*
X0149250Y0096250D01*
X0149250Y0086250D02*
X0143250Y0086250D01*
X0143250Y0076250D02*
X0149250Y0076250D01*
D19*
X0161250Y0141250D03*
X0161250Y0151250D03*
X0161250Y0161250D03*
X0171250Y0161250D03*
X0171250Y0151250D03*
X0171250Y0141250D03*
D20*
X0166250Y0139250D02*
X0166250Y0153250D01*
X0169250Y0156250D01*
X0173250Y0156250D01*
X0179250Y0162250D01*
X0179250Y0186250D01*
X0166250Y0191250D02*
X0176250Y0201250D01*
X0166250Y0191250D02*
X0166250Y0181250D01*
X0162250Y0170250D02*
X0171250Y0161250D01*
X0171250Y0151250D02*
X0183250Y0163250D01*
X0183250Y0242250D01*
X0180250Y0245250D01*
X0174250Y0245250D01*
X0163250Y0256250D01*
X0126250Y0256250D01*
X0122250Y0260250D02*
X0122250Y0238250D01*
X0130250Y0230250D01*
X0130250Y0222250D01*
X0123250Y0215250D01*
X0120250Y0212250D02*
X0120250Y0230250D01*
X0102250Y0248250D01*
X0102250Y0264250D01*
X0089250Y0277250D01*
X0037250Y0277250D01*
X0018250Y0258250D01*
X0018250Y0234250D01*
X0024250Y0228250D01*
X0024250Y0197250D01*
X0033250Y0188250D01*
X0033250Y0174250D01*
X0042250Y0165250D01*
X0042250Y0159250D01*
X0039250Y0158250D02*
X0039250Y0165250D01*
X0031250Y0173250D01*
X0031250Y0187250D01*
X0021250Y0197250D01*
X0021250Y0216250D01*
X0026250Y0218250D02*
X0033250Y0211250D01*
X0035250Y0208250D02*
X0049250Y0222250D01*
X0068250Y0222250D01*
X0069250Y0223250D01*
X0074250Y0223250D01*
X0079250Y0218250D01*
X0079250Y0207250D01*
X0077250Y0205250D01*
X0077250Y0184250D01*
X0079250Y0182250D01*
X0079250Y0158250D01*
X0086250Y0151250D01*
X0077250Y0142250D02*
X0077250Y0180250D01*
X0076250Y0181250D01*
X0080250Y0185250D02*
X0080250Y0189250D01*
X0079250Y0190250D01*
X0079250Y0204250D01*
X0081250Y0206250D01*
X0081250Y0219250D01*
X0073250Y0227250D01*
X0064250Y0227250D01*
X0054250Y0237250D01*
X0054250Y0238250D01*
X0046250Y0246250D01*
X0041250Y0251250D02*
X0056250Y0251250D01*
X0076250Y0271250D01*
X0086250Y0271250D01*
X0088250Y0275250D02*
X0055250Y0275250D01*
X0046250Y0266250D01*
X0054250Y0265250D02*
X0054250Y0264250D01*
X0046250Y0256250D01*
X0041250Y0251250D02*
X0038250Y0248250D01*
X0038250Y0234250D01*
X0047250Y0225250D01*
X0060250Y0225250D01*
X0061250Y0220250D02*
X0069250Y0220250D01*
X0070250Y0221250D01*
X0073250Y0221250D01*
X0076250Y0218250D01*
X0076250Y0210250D01*
X0083250Y0220250D02*
X0074250Y0229250D01*
X0065250Y0229250D01*
X0063250Y0231250D01*
X0063250Y0233250D01*
X0069250Y0239250D01*
X0078250Y0239250D01*
X0083250Y0234250D01*
X0083927Y0233533D01*
X0082250Y0228250D02*
X0089250Y0228250D01*
X0101250Y0216250D01*
X0100250Y0213250D02*
X0100250Y0153250D01*
X0101250Y0152250D01*
X0101250Y0132250D01*
X0098250Y0129250D01*
X0095250Y0128250D02*
X0100250Y0123250D01*
X0100250Y0097250D01*
X0094250Y0091250D01*
X0086250Y0091250D01*
X0079250Y0081250D02*
X0079250Y0104250D01*
X0086250Y0111250D01*
X0084250Y0115250D02*
X0090250Y0115250D01*
X0095250Y0110250D01*
X0095250Y0108250D01*
X0098250Y0107250D02*
X0093250Y0102250D01*
X0093250Y0094250D01*
X0093250Y0088250D02*
X0093250Y0070250D01*
X0090250Y0067250D01*
X0086250Y0067250D01*
X0077250Y0058250D01*
X0077250Y0035250D01*
X0073250Y0031250D01*
X0059250Y0031250D01*
X0049250Y0041250D01*
X0049250Y0045250D01*
X0010250Y0084250D01*
X0010250Y0132250D01*
X0010250Y0137250D02*
X0027250Y0120250D01*
X0047250Y0120250D01*
X0065250Y0102250D01*
X0065250Y0062250D01*
X0071250Y0056250D01*
X0071250Y0046250D02*
X0064250Y0039250D01*
X0054250Y0039250D01*
X0051250Y0042250D01*
X0051250Y0046250D01*
X0013250Y0084250D01*
X0013250Y0089250D01*
X0009250Y0081250D02*
X0009250Y0073250D01*
X0057250Y0025250D01*
X0057250Y0024250D01*
X0061250Y0020250D01*
X0082250Y0020250D01*
X0084250Y0022250D01*
X0096250Y0022250D01*
X0099250Y0025250D01*
X0098250Y0030250D02*
X0079250Y0030250D01*
X0075250Y0026250D01*
X0075250Y0024250D01*
X0073250Y0022250D01*
X0065250Y0022250D01*
X0061250Y0026250D01*
X0054250Y0010250D02*
X0089250Y0010250D01*
X0092250Y0013250D01*
X0096250Y0013250D02*
X0091250Y0008250D01*
X0051250Y0008250D01*
X0019250Y0040250D01*
X0019163Y0040620D01*
X0014250Y0038250D02*
X0014250Y0050250D01*
X0018250Y0054250D01*
X0018250Y0056250D01*
X0019163Y0056368D01*
X0014250Y0038250D02*
X0046250Y0006250D01*
X0092250Y0006250D01*
X0101250Y0015250D01*
X0096250Y0016250D02*
X0096250Y0013250D01*
X0090250Y0020250D02*
X0086250Y0016250D01*
X0090250Y0020250D02*
X0130250Y0020250D01*
X0142250Y0032250D01*
X0162250Y0032250D01*
X0162667Y0032746D01*
X0170250Y0033250D02*
X0170250Y0114250D01*
X0171250Y0115250D01*
X0171250Y0124250D01*
X0156250Y0139250D01*
X0156250Y0175250D01*
X0152250Y0179250D01*
X0152250Y0189250D01*
X0153250Y0190250D01*
X0153250Y0234250D01*
X0146250Y0241250D01*
X0150250Y0245250D02*
X0142250Y0245250D01*
X0138250Y0241250D01*
X0138250Y0230250D01*
X0137250Y0227250D02*
X0142250Y0227250D01*
X0146250Y0231250D01*
X0137250Y0227250D02*
X0135250Y0229250D01*
X0135250Y0241250D01*
X0141250Y0247250D01*
X0151250Y0247250D01*
X0157250Y0241250D01*
X0176250Y0241250D01*
X0162250Y0233250D02*
X0162250Y0170250D01*
X0154250Y0163250D02*
X0154250Y0103250D01*
X0157250Y0100250D01*
X0157250Y0051250D01*
X0146250Y0040250D01*
X0144250Y0040250D01*
X0131250Y0027250D01*
X0131250Y0025250D01*
X0128250Y0022250D01*
X0106250Y0022250D01*
X0098250Y0030250D01*
X0102250Y0030250D02*
X0124250Y0030250D01*
X0128250Y0026250D01*
X0123250Y0032250D02*
X0126250Y0035250D01*
X0126250Y0041250D01*
X0131250Y0046250D01*
X0125250Y0044250D02*
X0125250Y0060250D01*
X0131250Y0066250D01*
X0137250Y0064250D02*
X0131250Y0058250D01*
X0131250Y0056250D01*
X0137250Y0064250D02*
X0137250Y0123250D01*
X0137250Y0132250D02*
X0146250Y0141250D01*
X0146250Y0126250D02*
X0131250Y0126250D01*
X0120250Y0115250D02*
X0123250Y0112250D01*
X0123250Y0090250D01*
X0119250Y0086250D01*
X0125250Y0082250D02*
X0125250Y0169250D01*
X0123250Y0171250D01*
X0123250Y0202250D01*
X0106250Y0219250D01*
X0105250Y0219250D01*
X0092250Y0232250D01*
X0092250Y0271250D01*
X0088250Y0275250D01*
X0090250Y0279250D02*
X0036250Y0279250D01*
X0010250Y0253250D01*
X0010250Y0137250D01*
X0012250Y0145250D02*
X0012250Y0192250D01*
X0015250Y0195250D01*
X0018250Y0188250D02*
X0029250Y0177250D01*
X0029250Y0167250D01*
X0037250Y0159250D01*
X0037250Y0134250D01*
X0065250Y0106250D01*
X0071250Y0106250D01*
X0076250Y0109250D02*
X0077250Y0108250D01*
X0077250Y0082250D01*
X0071250Y0076250D01*
X0077250Y0079250D02*
X0077250Y0068250D01*
X0077250Y0079250D02*
X0079250Y0081250D01*
X0096250Y0078250D02*
X0096250Y0086250D01*
X0099250Y0072250D02*
X0099250Y0041250D01*
X0108250Y0032250D01*
X0123250Y0032250D01*
X0121250Y0040250D02*
X0125250Y0044250D01*
X0121250Y0040250D02*
X0106250Y0040250D01*
X0102250Y0042250D02*
X0102250Y0129250D01*
X0095250Y0128250D02*
X0095250Y0201250D01*
X0098250Y0202250D02*
X0086250Y0214250D01*
X0084250Y0220250D02*
X0083250Y0220250D01*
X0084250Y0220250D02*
X0093250Y0211250D01*
X0096250Y0211250D01*
X0100250Y0213250D02*
X0088250Y0225250D01*
X0085250Y0225250D01*
X0084250Y0222250D02*
X0074250Y0232250D01*
X0066250Y0232250D01*
X0074250Y0236250D02*
X0082250Y0228250D01*
X0084250Y0222250D02*
X0086250Y0222250D01*
X0092250Y0216250D01*
X0102250Y0213250D02*
X0102250Y0179250D01*
X0103250Y0178250D01*
X0092250Y0187250D02*
X0086250Y0181250D01*
X0098250Y0202250D02*
X0098250Y0151250D01*
X0103250Y0154250D02*
X0105250Y0152250D01*
X0105250Y0058250D01*
X0112250Y0051250D01*
X0112250Y0043250D01*
X0116250Y0046250D02*
X0116250Y0050250D01*
X0109250Y0057250D01*
X0109250Y0104250D01*
X0116250Y0111250D01*
X0114250Y0115250D02*
X0120250Y0115250D01*
X0114250Y0115250D02*
X0109250Y0120250D01*
X0109250Y0205250D01*
X0102250Y0213250D02*
X0104250Y0215250D01*
X0104250Y0217250D01*
X0090250Y0231250D01*
X0090250Y0258250D01*
X0086250Y0262250D01*
X0082250Y0262250D01*
X0076250Y0256250D01*
X0065250Y0256250D01*
X0054250Y0265250D02*
X0059250Y0270250D01*
X0038250Y0274250D02*
X0026250Y0262250D01*
X0026250Y0256250D01*
X0026250Y0236250D02*
X0026250Y0218250D01*
X0018250Y0221250D02*
X0018250Y0188250D01*
X0028250Y0208250D02*
X0035250Y0208250D01*
X0042250Y0211250D02*
X0042250Y0196250D01*
X0053250Y0185250D01*
X0053250Y0174250D01*
X0058250Y0169250D01*
X0061250Y0168250D02*
X0055250Y0162250D01*
X0054250Y0162250D01*
X0049250Y0157250D01*
X0049250Y0151250D01*
X0045250Y0147250D01*
X0043250Y0147250D01*
X0040250Y0144250D01*
X0040250Y0141250D01*
X0044250Y0137250D01*
X0051250Y0137250D01*
X0056250Y0132250D01*
X0059250Y0132250D01*
X0065250Y0126250D01*
X0065250Y0122250D01*
X0071250Y0116250D01*
X0076250Y0110250D02*
X0076250Y0109250D01*
X0084250Y0115250D02*
X0079250Y0120250D01*
X0079250Y0136250D01*
X0071250Y0144250D01*
X0071250Y0146250D01*
X0065250Y0150250D02*
X0071250Y0156250D01*
X0066250Y0159250D02*
X0066250Y0160250D01*
X0066250Y0159250D02*
X0063250Y0156250D01*
X0063250Y0131250D01*
X0068250Y0126250D01*
X0071250Y0126250D01*
X0066250Y0132250D02*
X0066250Y0133250D01*
X0065250Y0134250D01*
X0065250Y0150250D01*
X0057250Y0153250D02*
X0063250Y0159250D01*
X0063250Y0214250D01*
X0065250Y0216250D01*
X0061250Y0220250D02*
X0044250Y0203250D01*
X0044250Y0197250D01*
X0058250Y0183250D01*
X0058250Y0173250D01*
X0060250Y0175250D02*
X0061250Y0174250D01*
X0061250Y0168250D01*
X0060250Y0175250D02*
X0060250Y0185250D01*
X0057250Y0153250D02*
X0055250Y0153250D01*
X0045250Y0143250D01*
X0044557Y0142982D01*
X0044557Y0152982D02*
X0044250Y0153250D01*
X0039250Y0158250D01*
X0020935Y0132982D02*
X0020250Y0133250D01*
X0020250Y0137250D01*
X0012250Y0145250D01*
X0020935Y0111604D02*
X0021250Y0111250D01*
X0044250Y0111250D01*
X0044557Y0111604D01*
X0044250Y0111250D01*
X0044250Y0069250D01*
X0056250Y0057250D01*
X0056250Y0053250D01*
X0056368Y0052431D01*
X0052250Y0057250D02*
X0042250Y0067250D01*
X0042250Y0088250D01*
X0028250Y0102250D01*
X0028250Y0104250D01*
X0038250Y0052250D02*
X0046250Y0044250D01*
X0043250Y0021250D02*
X0054250Y0010250D01*
X0044250Y0004250D02*
X0110250Y0004250D01*
X0121250Y0015250D01*
X0137250Y0021250D02*
X0142250Y0016250D01*
X0142250Y0014250D01*
X0144250Y0012250D01*
X0153250Y0012250D01*
X0176250Y0035250D01*
X0176250Y0129250D01*
X0166250Y0139250D01*
X0161250Y0141250D02*
X0173250Y0129250D01*
X0173250Y0036250D01*
X0170250Y0033250D02*
X0153250Y0016250D01*
X0146250Y0016250D01*
X0146250Y0046250D02*
X0146250Y0060250D01*
X0154250Y0068250D01*
X0154250Y0099250D01*
X0168250Y0116250D02*
X0168250Y0123250D01*
X0157250Y0134250D01*
X0146250Y0161250D02*
X0131250Y0176250D01*
X0125250Y0172250D02*
X0131250Y0166250D01*
X0125250Y0172250D02*
X0125250Y0203250D01*
X0112250Y0216250D01*
X0112250Y0228250D01*
X0096250Y0244250D01*
X0100250Y0244250D02*
X0116250Y0228250D01*
X0116250Y0226250D01*
X0126250Y0228250D02*
X0116250Y0238250D01*
X0126250Y0228250D02*
X0126250Y0226250D01*
X0106250Y0256250D02*
X0106250Y0263250D01*
X0090250Y0279250D01*
X0122250Y0260250D02*
X0126250Y0264250D01*
X0126250Y0271250D01*
X0150250Y0245250D02*
X0162250Y0233250D01*
X0131250Y0186250D02*
X0154250Y0163250D01*
X0125250Y0082250D02*
X0116250Y0073250D01*
X0116250Y0071250D01*
X0090250Y0046250D02*
X0103250Y0033250D01*
X0102250Y0030250D02*
X0091250Y0041250D01*
X0090250Y0046250D02*
X0086250Y0046250D01*
X0098250Y0107250D02*
X0098250Y0119250D01*
X0086250Y0131250D01*
X0083250Y0136250D02*
X0077250Y0142250D01*
X0083250Y0136250D02*
X0089250Y0136250D01*
X0086250Y0121250D02*
X0089250Y0118250D01*
X0095250Y0118250D01*
X0010250Y0038250D02*
X0044250Y0004250D01*
D21*
X0010250Y0038250D03*
X0038250Y0052250D03*
X0046250Y0044250D03*
X0052250Y0057250D03*
X0043250Y0021250D03*
X0077250Y0068250D03*
X0093250Y0088250D03*
X0096250Y0086250D03*
X0093250Y0094250D03*
X0095250Y0108250D03*
X0095250Y0118250D03*
X0098250Y0129250D03*
X0102250Y0129250D03*
X0089250Y0136250D03*
X0098250Y0151250D03*
X0103250Y0154250D03*
X0103250Y0178250D03*
X0092250Y0187250D03*
X0095250Y0201250D03*
X0092250Y0216250D03*
X0086250Y0214250D03*
X0085250Y0225250D03*
X0076250Y0210250D03*
X0065250Y0216250D03*
X0060250Y0225250D03*
X0066250Y0232250D03*
X0074250Y0236250D03*
X0065250Y0256250D03*
X0059250Y0270250D03*
X0038250Y0274250D03*
X0018250Y0221250D03*
X0021250Y0216250D03*
X0028250Y0208250D03*
X0033250Y0211250D03*
X0042250Y0211250D03*
X0060250Y0185250D03*
X0058250Y0173250D03*
X0058250Y0169250D03*
X0066250Y0160250D03*
X0076250Y0181250D03*
X0080250Y0185250D03*
X0101250Y0216250D03*
X0109250Y0205250D03*
X0120250Y0212250D03*
X0123250Y0215250D03*
X0138250Y0230250D03*
X0116250Y0238250D03*
X0100250Y0244250D03*
X0096250Y0244250D03*
X0042250Y0159250D03*
X0066250Y0132250D03*
X0076250Y0110250D03*
X0096250Y0078250D03*
X0099250Y0072250D03*
X0112250Y0043250D03*
X0106250Y0040250D03*
X0102250Y0042250D03*
X0103250Y0033250D03*
X0099250Y0025250D03*
X0101250Y0015250D03*
X0092250Y0013250D03*
X0091250Y0041250D03*
X0121250Y0015250D03*
X0128250Y0026250D03*
X0137250Y0021250D03*
X0173250Y0036250D03*
X0154250Y0099250D03*
X0168250Y0116250D03*
X0157250Y0134250D03*
X0137250Y0132250D03*
X0137250Y0123250D03*
X0119250Y0086250D03*
X0179250Y0186250D03*
X0028250Y0104250D03*
X0013250Y0089250D03*
X0009250Y0081250D03*
X0010250Y0132250D03*
X0015250Y0195250D03*
D22*
X0015294Y0192819D02*
X0015734Y0192819D01*
X0016500Y0193136D01*
X0016500Y0187525D01*
X0022116Y0181909D01*
X0021185Y0181909D01*
X0021185Y0174610D01*
X0020685Y0174610D01*
X0020685Y0181909D01*
X0017808Y0181909D01*
X0014000Y0178101D01*
X0014000Y0191525D01*
X0015294Y0192819D01*
X0015153Y0192678D02*
X0016500Y0192678D01*
X0016500Y0192180D02*
X0014655Y0192180D01*
X0014156Y0191681D02*
X0016500Y0191681D01*
X0016500Y0191183D02*
X0014000Y0191183D01*
X0014000Y0190684D02*
X0016500Y0190684D01*
X0016500Y0190186D02*
X0014000Y0190186D01*
X0014000Y0189687D02*
X0016500Y0189687D01*
X0016500Y0189189D02*
X0014000Y0189189D01*
X0014000Y0188690D02*
X0016500Y0188690D01*
X0016500Y0188192D02*
X0014000Y0188192D01*
X0014000Y0187693D02*
X0016500Y0187693D01*
X0016830Y0187195D02*
X0014000Y0187195D01*
X0014000Y0186696D02*
X0017329Y0186696D01*
X0017827Y0186198D02*
X0014000Y0186198D01*
X0014000Y0185699D02*
X0018326Y0185699D01*
X0018824Y0185201D02*
X0014000Y0185201D01*
X0014000Y0184702D02*
X0019323Y0184702D01*
X0019821Y0184204D02*
X0014000Y0184204D01*
X0014000Y0183705D02*
X0020320Y0183705D01*
X0020818Y0183207D02*
X0014000Y0183207D01*
X0014000Y0182708D02*
X0021317Y0182708D01*
X0021816Y0182210D02*
X0014000Y0182210D01*
X0014000Y0181711D02*
X0017610Y0181711D01*
X0017111Y0181213D02*
X0014000Y0181213D01*
X0014000Y0180714D02*
X0016613Y0180714D01*
X0016114Y0180216D02*
X0014000Y0180216D01*
X0014000Y0179717D02*
X0015616Y0179717D01*
X0015117Y0179219D02*
X0014000Y0179219D01*
X0014000Y0178720D02*
X0014619Y0178720D01*
X0014120Y0178222D02*
X0014000Y0178222D01*
X0014000Y0170619D02*
X0017808Y0166811D01*
X0020685Y0166811D01*
X0020685Y0174110D01*
X0021185Y0174110D01*
X0021185Y0166811D01*
X0024062Y0166811D01*
X0027500Y0170249D01*
X0027500Y0166525D01*
X0032431Y0161594D01*
X0032028Y0161594D01*
X0030700Y0161045D01*
X0029684Y0160028D01*
X0029134Y0158701D01*
X0029134Y0157264D01*
X0029684Y0155936D01*
X0030700Y0154920D01*
X0032028Y0154370D01*
X0033465Y0154370D01*
X0034792Y0154920D01*
X0035500Y0155628D01*
X0035500Y0150337D01*
X0034792Y0151045D01*
X0033465Y0151594D01*
X0032028Y0151594D01*
X0030700Y0151045D01*
X0029684Y0150028D01*
X0029134Y0148701D01*
X0029134Y0147264D01*
X0029684Y0145936D01*
X0030700Y0144920D01*
X0032028Y0144370D01*
X0033465Y0144370D01*
X0034792Y0144920D01*
X0035500Y0145628D01*
X0035500Y0140337D01*
X0034792Y0141045D01*
X0033465Y0141594D01*
X0032028Y0141594D01*
X0030700Y0141045D01*
X0029684Y0140028D01*
X0029134Y0138701D01*
X0029134Y0137264D01*
X0029684Y0135936D01*
X0030700Y0134920D01*
X0032028Y0134370D01*
X0033465Y0134370D01*
X0034792Y0134920D01*
X0035500Y0135628D01*
X0035500Y0133525D01*
X0047025Y0122000D01*
X0027975Y0122000D01*
X0020605Y0129370D01*
X0021654Y0129370D01*
X0022981Y0129920D01*
X0023997Y0130936D01*
X0024547Y0132264D01*
X0024547Y0133701D01*
X0023997Y0135028D01*
X0022981Y0136045D01*
X0022000Y0136451D01*
X0022000Y0137975D01*
X0020605Y0139370D01*
X0021654Y0139370D01*
X0022981Y0139920D01*
X0023997Y0140936D01*
X0024547Y0142264D01*
X0024547Y0143701D01*
X0023997Y0145028D01*
X0022981Y0146045D01*
X0021654Y0146594D01*
X0020217Y0146594D01*
X0018889Y0146045D01*
X0017873Y0145028D01*
X0017323Y0143701D01*
X0017323Y0142652D01*
X0014000Y0145975D01*
X0014000Y0170619D01*
X0014000Y0170245D02*
X0014374Y0170245D01*
X0014000Y0169747D02*
X0014872Y0169747D01*
X0015371Y0169248D02*
X0014000Y0169248D01*
X0014000Y0168750D02*
X0015869Y0168750D01*
X0016368Y0168251D02*
X0014000Y0168251D01*
X0014000Y0167753D02*
X0016866Y0167753D01*
X0017365Y0167254D02*
X0014000Y0167254D01*
X0014000Y0166756D02*
X0027500Y0166756D01*
X0027500Y0167254D02*
X0024505Y0167254D01*
X0025004Y0167753D02*
X0027500Y0167753D01*
X0027500Y0168251D02*
X0025502Y0168251D01*
X0026001Y0168750D02*
X0027500Y0168750D01*
X0027500Y0169248D02*
X0026499Y0169248D01*
X0026998Y0169747D02*
X0027500Y0169747D01*
X0027496Y0170245D02*
X0027500Y0170245D01*
X0027768Y0166257D02*
X0014000Y0166257D01*
X0014000Y0165759D02*
X0028266Y0165759D01*
X0028765Y0165260D02*
X0014000Y0165260D01*
X0014000Y0164762D02*
X0029263Y0164762D01*
X0029762Y0164263D02*
X0014000Y0164263D01*
X0014000Y0163765D02*
X0030260Y0163765D01*
X0030759Y0163266D02*
X0014000Y0163266D01*
X0014000Y0162768D02*
X0031257Y0162768D01*
X0031756Y0162269D02*
X0014000Y0162269D01*
X0014000Y0161771D02*
X0032254Y0161771D01*
X0031249Y0161272D02*
X0014000Y0161272D01*
X0014000Y0160774D02*
X0030429Y0160774D01*
X0029930Y0160275D02*
X0014000Y0160275D01*
X0014000Y0159777D02*
X0029579Y0159777D01*
X0029373Y0159278D02*
X0014000Y0159278D01*
X0014000Y0158780D02*
X0029166Y0158780D01*
X0029134Y0158281D02*
X0014000Y0158281D01*
X0014000Y0157783D02*
X0029134Y0157783D01*
X0029134Y0157284D02*
X0014000Y0157284D01*
X0014000Y0156786D02*
X0029332Y0156786D01*
X0029538Y0156287D02*
X0022396Y0156287D01*
X0022981Y0156045D02*
X0021654Y0156594D01*
X0020217Y0156594D01*
X0018889Y0156045D01*
X0017873Y0155028D01*
X0017323Y0153701D01*
X0017323Y0152264D01*
X0017873Y0150936D01*
X0018889Y0149920D01*
X0020217Y0149370D01*
X0021654Y0149370D01*
X0022981Y0149920D01*
X0023997Y0150936D01*
X0024547Y0152264D01*
X0024547Y0153701D01*
X0023997Y0155028D01*
X0022981Y0156045D01*
X0023237Y0155789D02*
X0029831Y0155789D01*
X0030330Y0155290D02*
X0023736Y0155290D01*
X0024095Y0154791D02*
X0031010Y0154791D01*
X0034482Y0154791D02*
X0035500Y0154791D01*
X0035500Y0154293D02*
X0024302Y0154293D01*
X0024508Y0153794D02*
X0035500Y0153794D01*
X0035500Y0153296D02*
X0024547Y0153296D01*
X0024547Y0152797D02*
X0035500Y0152797D01*
X0035500Y0152299D02*
X0024547Y0152299D01*
X0024355Y0151800D02*
X0035500Y0151800D01*
X0035500Y0151302D02*
X0034171Y0151302D01*
X0035033Y0150803D02*
X0035500Y0150803D01*
X0031321Y0151302D02*
X0024149Y0151302D01*
X0023865Y0150803D02*
X0030459Y0150803D01*
X0029960Y0150305D02*
X0023366Y0150305D01*
X0022707Y0149806D02*
X0029592Y0149806D01*
X0029385Y0149308D02*
X0014000Y0149308D01*
X0014000Y0149806D02*
X0019163Y0149806D01*
X0018504Y0150305D02*
X0014000Y0150305D01*
X0014000Y0150803D02*
X0018005Y0150803D01*
X0017721Y0151302D02*
X0014000Y0151302D01*
X0014000Y0151800D02*
X0017515Y0151800D01*
X0017323Y0152299D02*
X0014000Y0152299D01*
X0014000Y0152797D02*
X0017323Y0152797D01*
X0017323Y0153296D02*
X0014000Y0153296D01*
X0014000Y0153794D02*
X0017362Y0153794D01*
X0017568Y0154293D02*
X0014000Y0154293D01*
X0014000Y0154791D02*
X0017775Y0154791D01*
X0018134Y0155290D02*
X0014000Y0155290D01*
X0014000Y0155789D02*
X0018633Y0155789D01*
X0019474Y0156287D02*
X0014000Y0156287D01*
X0014000Y0148809D02*
X0029179Y0148809D01*
X0029134Y0148311D02*
X0014000Y0148311D01*
X0014000Y0147812D02*
X0029134Y0147812D01*
X0029134Y0147314D02*
X0014000Y0147314D01*
X0014000Y0146815D02*
X0029320Y0146815D01*
X0029526Y0146317D02*
X0022324Y0146317D01*
X0023207Y0145818D02*
X0029802Y0145818D01*
X0030300Y0145320D02*
X0023706Y0145320D01*
X0024083Y0144821D02*
X0030938Y0144821D01*
X0031393Y0141332D02*
X0024161Y0141332D01*
X0024368Y0141830D02*
X0035500Y0141830D01*
X0035500Y0141332D02*
X0034099Y0141332D01*
X0035004Y0140833D02*
X0035500Y0140833D01*
X0035500Y0142329D02*
X0024547Y0142329D01*
X0024547Y0142827D02*
X0035500Y0142827D01*
X0035500Y0143326D02*
X0024547Y0143326D01*
X0024496Y0143824D02*
X0035500Y0143824D01*
X0035500Y0144323D02*
X0024290Y0144323D01*
X0023894Y0140833D02*
X0030489Y0140833D01*
X0029990Y0140335D02*
X0023396Y0140335D01*
X0022779Y0139836D02*
X0029604Y0139836D01*
X0029398Y0139338D02*
X0020637Y0139338D01*
X0021136Y0138839D02*
X0029191Y0138839D01*
X0029134Y0138341D02*
X0021634Y0138341D01*
X0022000Y0137842D02*
X0029134Y0137842D01*
X0029134Y0137344D02*
X0022000Y0137344D01*
X0022000Y0136845D02*
X0029307Y0136845D01*
X0029514Y0136347D02*
X0022252Y0136347D01*
X0023178Y0135848D02*
X0029772Y0135848D01*
X0030270Y0135350D02*
X0023676Y0135350D01*
X0024071Y0134851D02*
X0030866Y0134851D01*
X0032028Y0131594D02*
X0030700Y0131045D01*
X0029684Y0130028D01*
X0029134Y0128701D01*
X0029134Y0127264D01*
X0029684Y0125936D01*
X0030700Y0124920D01*
X0032028Y0124370D01*
X0033465Y0124370D01*
X0034792Y0124920D01*
X0035808Y0125936D01*
X0036358Y0127264D01*
X0036358Y0128701D01*
X0035808Y0130028D01*
X0034792Y0131045D01*
X0033465Y0131594D01*
X0032028Y0131594D01*
X0031465Y0131361D02*
X0024173Y0131361D01*
X0024380Y0131860D02*
X0037165Y0131860D01*
X0036667Y0132358D02*
X0024547Y0132358D01*
X0024547Y0132857D02*
X0036168Y0132857D01*
X0035670Y0133355D02*
X0024547Y0133355D01*
X0024484Y0133854D02*
X0035500Y0133854D01*
X0035500Y0134353D02*
X0024277Y0134353D01*
X0023924Y0130863D02*
X0030518Y0130863D01*
X0030020Y0130364D02*
X0023426Y0130364D01*
X0022851Y0129866D02*
X0029616Y0129866D01*
X0029410Y0129367D02*
X0020607Y0129367D01*
X0021106Y0128869D02*
X0029203Y0128869D01*
X0029134Y0128370D02*
X0021604Y0128370D01*
X0022103Y0127872D02*
X0029134Y0127872D01*
X0029134Y0127373D02*
X0022601Y0127373D01*
X0023100Y0126875D02*
X0029295Y0126875D01*
X0029501Y0126376D02*
X0023599Y0126376D01*
X0024097Y0125878D02*
X0029742Y0125878D01*
X0030241Y0125379D02*
X0024596Y0125379D01*
X0025094Y0124881D02*
X0030795Y0124881D01*
X0031998Y0124382D02*
X0025593Y0124382D01*
X0026091Y0123884D02*
X0045141Y0123884D01*
X0044643Y0124382D02*
X0033494Y0124382D01*
X0034698Y0124881D02*
X0044144Y0124881D01*
X0043646Y0125379D02*
X0035252Y0125379D01*
X0035750Y0125878D02*
X0043147Y0125878D01*
X0042649Y0126376D02*
X0035991Y0126376D01*
X0036197Y0126875D02*
X0042150Y0126875D01*
X0041652Y0127373D02*
X0036358Y0127373D01*
X0036358Y0127872D02*
X0041153Y0127872D01*
X0040655Y0128370D02*
X0036358Y0128370D01*
X0036289Y0128869D02*
X0040156Y0128869D01*
X0039658Y0129367D02*
X0036082Y0129367D01*
X0035876Y0129866D02*
X0039159Y0129866D01*
X0038661Y0130364D02*
X0035472Y0130364D01*
X0034974Y0130863D02*
X0038162Y0130863D01*
X0037664Y0131361D02*
X0034027Y0131361D01*
X0034626Y0134851D02*
X0035500Y0134851D01*
X0035500Y0135350D02*
X0035222Y0135350D01*
X0039000Y0135350D02*
X0041816Y0135350D01*
X0041751Y0135285D02*
X0041356Y0134693D01*
X0041084Y0134036D01*
X0040945Y0133338D01*
X0040945Y0133232D01*
X0044307Y0133232D01*
X0044307Y0132732D01*
X0044307Y0129668D01*
X0065975Y0108000D01*
X0066509Y0108000D01*
X0066969Y0109111D01*
X0068389Y0110531D01*
X0070125Y0111250D01*
X0068389Y0111969D01*
X0066969Y0113389D01*
X0066200Y0115245D01*
X0066200Y0117255D01*
X0066660Y0118365D01*
X0063500Y0121525D01*
X0063500Y0125525D01*
X0059980Y0129045D01*
X0059980Y0125102D01*
X0059248Y0124370D01*
X0053488Y0124370D01*
X0052756Y0125102D01*
X0052756Y0130862D01*
X0053488Y0131594D01*
X0054431Y0131594D01*
X0050525Y0135500D01*
X0047148Y0135500D01*
X0047363Y0135285D01*
X0047758Y0134693D01*
X0048030Y0134036D01*
X0048169Y0133338D01*
X0048169Y0133232D01*
X0044807Y0133232D01*
X0044807Y0132732D01*
X0044807Y0129370D01*
X0044913Y0129370D01*
X0045611Y0129509D01*
X0046268Y0129781D01*
X0046860Y0130177D01*
X0047363Y0130680D01*
X0047758Y0131271D01*
X0048030Y0131929D01*
X0048169Y0132627D01*
X0048169Y0132732D01*
X0044807Y0132732D01*
X0044307Y0132732D01*
X0041243Y0132732D01*
X0039000Y0134975D01*
X0039000Y0140025D01*
X0042500Y0136525D01*
X0042843Y0136182D01*
X0042254Y0135788D01*
X0041751Y0135285D01*
X0041461Y0134851D02*
X0039124Y0134851D01*
X0039622Y0134353D02*
X0041215Y0134353D01*
X0041048Y0133854D02*
X0040121Y0133854D01*
X0040619Y0133355D02*
X0040948Y0133355D01*
X0041118Y0132857D02*
X0044307Y0132857D01*
X0044307Y0132358D02*
X0044807Y0132358D01*
X0044807Y0131860D02*
X0044307Y0131860D01*
X0044307Y0131361D02*
X0044807Y0131361D01*
X0044807Y0130863D02*
X0044307Y0130863D01*
X0044307Y0130364D02*
X0044807Y0130364D01*
X0044807Y0129866D02*
X0044307Y0129866D01*
X0044607Y0129367D02*
X0052756Y0129367D01*
X0052756Y0128869D02*
X0045106Y0128869D01*
X0045604Y0128370D02*
X0052756Y0128370D01*
X0052756Y0127872D02*
X0046103Y0127872D01*
X0046601Y0127373D02*
X0052756Y0127373D01*
X0052756Y0126875D02*
X0047100Y0126875D01*
X0047599Y0126376D02*
X0052756Y0126376D01*
X0052756Y0125878D02*
X0048097Y0125878D01*
X0048596Y0125379D02*
X0052756Y0125379D01*
X0052977Y0124881D02*
X0049094Y0124881D01*
X0049593Y0124382D02*
X0053476Y0124382D01*
X0051587Y0122388D02*
X0063500Y0122388D01*
X0063500Y0121890D02*
X0052085Y0121890D01*
X0052584Y0121391D02*
X0063634Y0121391D01*
X0064132Y0120893D02*
X0053082Y0120893D01*
X0053581Y0120394D02*
X0064631Y0120394D01*
X0065129Y0119896D02*
X0054079Y0119896D01*
X0054578Y0119397D02*
X0065628Y0119397D01*
X0066126Y0118899D02*
X0055076Y0118899D01*
X0055575Y0118400D02*
X0066625Y0118400D01*
X0066468Y0117902D02*
X0056073Y0117902D01*
X0056572Y0117403D02*
X0066262Y0117403D01*
X0066200Y0116905D02*
X0057070Y0116905D01*
X0057569Y0116406D02*
X0066200Y0116406D01*
X0066200Y0115908D02*
X0058067Y0115908D01*
X0058566Y0115409D02*
X0066200Y0115409D01*
X0066339Y0114911D02*
X0059064Y0114911D01*
X0059563Y0114412D02*
X0066545Y0114412D01*
X0066752Y0113914D02*
X0060061Y0113914D01*
X0060560Y0113415D02*
X0066958Y0113415D01*
X0067442Y0112917D02*
X0061058Y0112917D01*
X0061557Y0112418D02*
X0067940Y0112418D01*
X0068508Y0111920D02*
X0062055Y0111920D01*
X0062554Y0111421D02*
X0069712Y0111421D01*
X0069334Y0110922D02*
X0063052Y0110922D01*
X0063551Y0110424D02*
X0068282Y0110424D01*
X0067784Y0109925D02*
X0064049Y0109925D01*
X0064548Y0109427D02*
X0067285Y0109427D01*
X0066893Y0108928D02*
X0065046Y0108928D01*
X0065545Y0108430D02*
X0066687Y0108430D01*
X0062079Y0102946D02*
X0030341Y0102946D01*
X0030311Y0102873D02*
X0030681Y0103766D01*
X0030681Y0104734D01*
X0030311Y0105627D01*
X0029627Y0106311D01*
X0028734Y0106681D01*
X0027766Y0106681D01*
X0026873Y0106311D01*
X0026189Y0105627D01*
X0025819Y0104734D01*
X0025819Y0103766D01*
X0026189Y0102873D01*
X0026500Y0102562D01*
X0026500Y0101525D01*
X0034481Y0093544D01*
X0034284Y0093626D01*
X0031208Y0093626D01*
X0028367Y0092449D01*
X0026193Y0090275D01*
X0025016Y0087433D01*
X0025016Y0084358D01*
X0026193Y0081517D01*
X0028367Y0079342D01*
X0031208Y0078165D01*
X0034284Y0078165D01*
X0037125Y0079342D01*
X0039299Y0081517D01*
X0040476Y0084358D01*
X0040476Y0087433D01*
X0040395Y0087630D01*
X0040500Y0087525D01*
X0040500Y0066525D01*
X0049819Y0057206D01*
X0049819Y0056766D01*
X0050189Y0055873D01*
X0050873Y0055189D01*
X0051766Y0054819D01*
X0052665Y0054819D01*
X0052605Y0054737D01*
X0052291Y0054120D01*
X0052077Y0053461D01*
X0051969Y0052777D01*
X0051969Y0052681D01*
X0056118Y0052681D01*
X0056118Y0052181D01*
X0051969Y0052181D01*
X0051969Y0052085D01*
X0052077Y0051401D01*
X0052291Y0050742D01*
X0052605Y0050125D01*
X0053012Y0049565D01*
X0053502Y0049075D01*
X0054062Y0048668D01*
X0054392Y0048500D01*
X0053876Y0048287D01*
X0052782Y0047193D01*
X0051975Y0048000D01*
X0015000Y0084975D01*
X0015000Y0087562D01*
X0015311Y0087873D01*
X0015681Y0088766D01*
X0015681Y0089734D01*
X0015311Y0090627D01*
X0014627Y0091311D01*
X0013734Y0091681D01*
X0012766Y0091681D01*
X0012000Y0091364D01*
X0012000Y0130562D01*
X0012311Y0130873D01*
X0012681Y0131766D01*
X0012681Y0132344D01*
X0025500Y0119525D01*
X0026525Y0118500D01*
X0040777Y0118500D01*
X0037008Y0114731D01*
X0037008Y0111854D01*
X0044307Y0111854D01*
X0044307Y0111354D01*
X0044807Y0111354D01*
X0044807Y0104055D01*
X0047684Y0104055D01*
X0052106Y0108477D01*
X0052106Y0111354D01*
X0044807Y0111354D01*
X0044807Y0111854D01*
X0052106Y0111854D01*
X0052106Y0112919D01*
X0063500Y0101525D01*
X0063500Y0061525D01*
X0066660Y0058365D01*
X0066200Y0057255D01*
X0066200Y0055245D01*
X0066969Y0053389D01*
X0068389Y0051969D01*
X0070125Y0051250D01*
X0068389Y0050531D01*
X0066969Y0049111D01*
X0066200Y0047255D01*
X0066200Y0045245D01*
X0066660Y0044135D01*
X0063525Y0041000D01*
X0059033Y0041000D01*
X0060098Y0042065D01*
X0060768Y0043682D01*
X0060768Y0045432D01*
X0060098Y0047049D01*
X0058860Y0048287D01*
X0058345Y0048500D01*
X0058674Y0048668D01*
X0059234Y0049075D01*
X0059724Y0049565D01*
X0060131Y0050125D01*
X0060445Y0050742D01*
X0060659Y0051401D01*
X0060768Y0052085D01*
X0060768Y0052181D01*
X0056618Y0052181D01*
X0056618Y0052681D01*
X0056118Y0052681D01*
X0056118Y0056831D01*
X0056022Y0056831D01*
X0055338Y0056722D01*
X0054679Y0056508D01*
X0054546Y0056441D01*
X0054681Y0056766D01*
X0054681Y0057734D01*
X0054311Y0058627D01*
X0053627Y0059311D01*
X0052734Y0059681D01*
X0052294Y0059681D01*
X0044000Y0067975D01*
X0044000Y0088975D01*
X0042975Y0090000D01*
X0030206Y0102768D01*
X0030311Y0102873D01*
X0030527Y0102448D02*
X0062577Y0102448D01*
X0063076Y0101949D02*
X0031026Y0101949D01*
X0031524Y0101451D02*
X0063500Y0101451D01*
X0063500Y0100952D02*
X0032023Y0100952D01*
X0032521Y0100454D02*
X0063500Y0100454D01*
X0063500Y0099955D02*
X0033020Y0099955D01*
X0033518Y0099457D02*
X0063500Y0099457D01*
X0063500Y0098958D02*
X0034017Y0098958D01*
X0034515Y0098460D02*
X0063500Y0098460D01*
X0063500Y0097961D02*
X0035014Y0097961D01*
X0035512Y0097463D02*
X0063500Y0097463D01*
X0063500Y0096964D02*
X0036011Y0096964D01*
X0036509Y0096466D02*
X0063500Y0096466D01*
X0063500Y0095967D02*
X0037008Y0095967D01*
X0037506Y0095469D02*
X0063500Y0095469D01*
X0063500Y0094970D02*
X0038005Y0094970D01*
X0038503Y0094472D02*
X0063500Y0094472D01*
X0063500Y0093973D02*
X0056763Y0093973D01*
X0055700Y0094413D02*
X0052312Y0094413D01*
X0049181Y0093117D01*
X0046785Y0090721D01*
X0045488Y0087590D01*
X0045488Y0084201D01*
X0046785Y0081071D01*
X0049181Y0078675D01*
X0052312Y0077378D01*
X0055700Y0077378D01*
X0058831Y0078675D01*
X0061227Y0081071D01*
X0062524Y0084201D01*
X0062524Y0087590D01*
X0061227Y0090721D01*
X0058831Y0093117D01*
X0055700Y0094413D01*
X0057967Y0093475D02*
X0063500Y0093475D01*
X0063500Y0092976D02*
X0058971Y0092976D01*
X0059470Y0092478D02*
X0063500Y0092478D01*
X0063500Y0091979D02*
X0059968Y0091979D01*
X0060467Y0091481D02*
X0063500Y0091481D01*
X0063500Y0090982D02*
X0060965Y0090982D01*
X0061325Y0090484D02*
X0063500Y0090484D01*
X0063500Y0089985D02*
X0061532Y0089985D01*
X0061738Y0089487D02*
X0063500Y0089487D01*
X0063500Y0088988D02*
X0061945Y0088988D01*
X0062151Y0088489D02*
X0063500Y0088489D01*
X0063500Y0087991D02*
X0062358Y0087991D01*
X0062524Y0087492D02*
X0063500Y0087492D01*
X0063500Y0086994D02*
X0062524Y0086994D01*
X0062524Y0086495D02*
X0063500Y0086495D01*
X0063500Y0085997D02*
X0062524Y0085997D01*
X0062524Y0085498D02*
X0063500Y0085498D01*
X0063500Y0085000D02*
X0062524Y0085000D01*
X0062524Y0084501D02*
X0063500Y0084501D01*
X0063500Y0084003D02*
X0062441Y0084003D01*
X0062235Y0083504D02*
X0063500Y0083504D01*
X0063500Y0083006D02*
X0062028Y0083006D01*
X0061822Y0082507D02*
X0063500Y0082507D01*
X0063500Y0082009D02*
X0061615Y0082009D01*
X0061409Y0081510D02*
X0063500Y0081510D01*
X0063500Y0081012D02*
X0061168Y0081012D01*
X0060669Y0080513D02*
X0063500Y0080513D01*
X0063500Y0080015D02*
X0060171Y0080015D01*
X0059672Y0079516D02*
X0063500Y0079516D01*
X0063500Y0079018D02*
X0059174Y0079018D01*
X0058456Y0078519D02*
X0063500Y0078519D01*
X0063500Y0078021D02*
X0057252Y0078021D01*
X0056048Y0077522D02*
X0063500Y0077522D01*
X0063500Y0077024D02*
X0044000Y0077024D01*
X0044000Y0077522D02*
X0051963Y0077522D01*
X0050760Y0078021D02*
X0044000Y0078021D01*
X0044000Y0078519D02*
X0049556Y0078519D01*
X0048838Y0079018D02*
X0044000Y0079018D01*
X0044000Y0079516D02*
X0048339Y0079516D01*
X0047841Y0080015D02*
X0044000Y0080015D01*
X0044000Y0080513D02*
X0047342Y0080513D01*
X0046844Y0081012D02*
X0044000Y0081012D01*
X0044000Y0081510D02*
X0046603Y0081510D01*
X0046396Y0082009D02*
X0044000Y0082009D01*
X0044000Y0082507D02*
X0046190Y0082507D01*
X0045983Y0083006D02*
X0044000Y0083006D01*
X0044000Y0083504D02*
X0045777Y0083504D01*
X0045570Y0084003D02*
X0044000Y0084003D01*
X0044000Y0084501D02*
X0045488Y0084501D01*
X0045488Y0085000D02*
X0044000Y0085000D01*
X0044000Y0085498D02*
X0045488Y0085498D01*
X0045488Y0085997D02*
X0044000Y0085997D01*
X0044000Y0086495D02*
X0045488Y0086495D01*
X0045488Y0086994D02*
X0044000Y0086994D01*
X0044000Y0087492D02*
X0045488Y0087492D01*
X0045654Y0087991D02*
X0044000Y0087991D01*
X0044000Y0088489D02*
X0045861Y0088489D01*
X0046067Y0088988D02*
X0043987Y0088988D01*
X0043488Y0089487D02*
X0046274Y0089487D01*
X0046480Y0089985D02*
X0042990Y0089985D01*
X0042491Y0090484D02*
X0046687Y0090484D01*
X0047046Y0090982D02*
X0041993Y0090982D01*
X0041494Y0091481D02*
X0047545Y0091481D01*
X0048043Y0091979D02*
X0040996Y0091979D01*
X0040497Y0092478D02*
X0048542Y0092478D01*
X0049040Y0092976D02*
X0039999Y0092976D01*
X0039500Y0093475D02*
X0050045Y0093475D01*
X0051249Y0093973D02*
X0039002Y0093973D01*
X0034052Y0093973D02*
X0012000Y0093973D01*
X0012000Y0093475D02*
X0030843Y0093475D01*
X0029639Y0092976D02*
X0012000Y0092976D01*
X0012000Y0092478D02*
X0028436Y0092478D01*
X0027897Y0091979D02*
X0012000Y0091979D01*
X0012000Y0091481D02*
X0012282Y0091481D01*
X0014218Y0091481D02*
X0027399Y0091481D01*
X0026900Y0090982D02*
X0014956Y0090982D01*
X0015370Y0090484D02*
X0026402Y0090484D01*
X0026073Y0089985D02*
X0015577Y0089985D01*
X0015681Y0089487D02*
X0025866Y0089487D01*
X0025660Y0088988D02*
X0015681Y0088988D01*
X0015566Y0088489D02*
X0025453Y0088489D01*
X0025247Y0087991D02*
X0015360Y0087991D01*
X0015000Y0087492D02*
X0025040Y0087492D01*
X0025016Y0086994D02*
X0015000Y0086994D01*
X0015000Y0086495D02*
X0025016Y0086495D01*
X0025016Y0085997D02*
X0015000Y0085997D01*
X0015000Y0085498D02*
X0025016Y0085498D01*
X0025016Y0085000D02*
X0015000Y0085000D01*
X0015473Y0084501D02*
X0025016Y0084501D01*
X0025163Y0084003D02*
X0015972Y0084003D01*
X0016470Y0083504D02*
X0025369Y0083504D01*
X0025576Y0083006D02*
X0016969Y0083006D01*
X0017468Y0082507D02*
X0025782Y0082507D01*
X0025989Y0082009D02*
X0017966Y0082009D01*
X0018465Y0081510D02*
X0026199Y0081510D01*
X0026698Y0081012D02*
X0018963Y0081012D01*
X0019462Y0080513D02*
X0027196Y0080513D01*
X0027695Y0080015D02*
X0019960Y0080015D01*
X0020459Y0079516D02*
X0028193Y0079516D01*
X0029150Y0079018D02*
X0020957Y0079018D01*
X0021456Y0078519D02*
X0030354Y0078519D01*
X0035138Y0078519D02*
X0040500Y0078519D01*
X0040500Y0078021D02*
X0021954Y0078021D01*
X0022453Y0077522D02*
X0040500Y0077522D01*
X0040500Y0077024D02*
X0022951Y0077024D01*
X0023450Y0076525D02*
X0040500Y0076525D01*
X0040500Y0076027D02*
X0023948Y0076027D01*
X0024447Y0075528D02*
X0040500Y0075528D01*
X0040500Y0075030D02*
X0024945Y0075030D01*
X0025444Y0074531D02*
X0040500Y0074531D01*
X0040500Y0074033D02*
X0025942Y0074033D01*
X0026441Y0073534D02*
X0040500Y0073534D01*
X0040500Y0073036D02*
X0026939Y0073036D01*
X0027438Y0072537D02*
X0040500Y0072537D01*
X0040500Y0072039D02*
X0027936Y0072039D01*
X0028435Y0071540D02*
X0040500Y0071540D01*
X0040500Y0071042D02*
X0028933Y0071042D01*
X0029432Y0070543D02*
X0040500Y0070543D01*
X0040500Y0070045D02*
X0029930Y0070045D01*
X0030429Y0069546D02*
X0040500Y0069546D01*
X0040500Y0069048D02*
X0030927Y0069048D01*
X0031426Y0068549D02*
X0040500Y0068549D01*
X0040500Y0068051D02*
X0031924Y0068051D01*
X0032423Y0067552D02*
X0040500Y0067552D01*
X0040500Y0067053D02*
X0032921Y0067053D01*
X0033420Y0066555D02*
X0040500Y0066555D01*
X0040969Y0066056D02*
X0033918Y0066056D01*
X0034417Y0065558D02*
X0041467Y0065558D01*
X0041966Y0065059D02*
X0034915Y0065059D01*
X0035414Y0064561D02*
X0042464Y0064561D01*
X0042963Y0064062D02*
X0035912Y0064062D01*
X0036411Y0063564D02*
X0043461Y0063564D01*
X0043960Y0063065D02*
X0036909Y0063065D01*
X0037408Y0062567D02*
X0044458Y0062567D01*
X0044957Y0062068D02*
X0037906Y0062068D01*
X0038405Y0061570D02*
X0045455Y0061570D01*
X0045954Y0061071D02*
X0038903Y0061071D01*
X0039402Y0060573D02*
X0046452Y0060573D01*
X0046951Y0060074D02*
X0039901Y0060074D01*
X0040399Y0059576D02*
X0047449Y0059576D01*
X0047948Y0059077D02*
X0040898Y0059077D01*
X0041396Y0058579D02*
X0048446Y0058579D01*
X0048945Y0058080D02*
X0041895Y0058080D01*
X0042393Y0057582D02*
X0049443Y0057582D01*
X0049819Y0057083D02*
X0042892Y0057083D01*
X0043390Y0056585D02*
X0049894Y0056585D01*
X0050101Y0056086D02*
X0043889Y0056086D01*
X0044387Y0055588D02*
X0050474Y0055588D01*
X0051114Y0055089D02*
X0044886Y0055089D01*
X0045384Y0054591D02*
X0052531Y0054591D01*
X0052282Y0054092D02*
X0045883Y0054092D01*
X0046381Y0053594D02*
X0052120Y0053594D01*
X0052019Y0053095D02*
X0046880Y0053095D01*
X0047378Y0052597D02*
X0056118Y0052597D01*
X0056118Y0053095D02*
X0056618Y0053095D01*
X0056618Y0052681D02*
X0056618Y0056831D01*
X0056714Y0056831D01*
X0057398Y0056722D01*
X0058057Y0056508D01*
X0058674Y0056194D01*
X0059234Y0055787D01*
X0059724Y0055297D01*
X0060131Y0054737D01*
X0060445Y0054120D01*
X0060659Y0053461D01*
X0060768Y0052777D01*
X0060768Y0052681D01*
X0056618Y0052681D01*
X0056618Y0052597D02*
X0067762Y0052597D01*
X0068260Y0052098D02*
X0060768Y0052098D01*
X0060691Y0051600D02*
X0069281Y0051600D01*
X0069765Y0051101D02*
X0060562Y0051101D01*
X0060374Y0050603D02*
X0068562Y0050603D01*
X0067962Y0050104D02*
X0060116Y0050104D01*
X0059753Y0049606D02*
X0067464Y0049606D01*
X0066967Y0049107D02*
X0059266Y0049107D01*
X0058557Y0048609D02*
X0066761Y0048609D01*
X0066554Y0048110D02*
X0059037Y0048110D01*
X0059536Y0047612D02*
X0066348Y0047612D01*
X0066200Y0047113D02*
X0060034Y0047113D01*
X0060278Y0046615D02*
X0066200Y0046615D01*
X0066200Y0046116D02*
X0060484Y0046116D01*
X0060691Y0045618D02*
X0066200Y0045618D01*
X0066252Y0045119D02*
X0060768Y0045119D01*
X0060768Y0044620D02*
X0066459Y0044620D01*
X0066647Y0044122D02*
X0060768Y0044122D01*
X0060743Y0043623D02*
X0066149Y0043623D01*
X0065650Y0043125D02*
X0060537Y0043125D01*
X0060330Y0042626D02*
X0065152Y0042626D01*
X0064653Y0042128D02*
X0060124Y0042128D01*
X0059662Y0041629D02*
X0064155Y0041629D01*
X0063656Y0041131D02*
X0059164Y0041131D01*
X0053201Y0047612D02*
X0052363Y0047612D01*
X0051865Y0048110D02*
X0053699Y0048110D01*
X0054179Y0048609D02*
X0051366Y0048609D01*
X0050868Y0049107D02*
X0053470Y0049107D01*
X0052983Y0049606D02*
X0050369Y0049606D01*
X0049871Y0050104D02*
X0052621Y0050104D01*
X0052362Y0050603D02*
X0049372Y0050603D01*
X0048874Y0051101D02*
X0052174Y0051101D01*
X0052045Y0051600D02*
X0048375Y0051600D01*
X0047877Y0052098D02*
X0051969Y0052098D01*
X0056118Y0053594D02*
X0056618Y0053594D01*
X0056618Y0054092D02*
X0056118Y0054092D01*
X0056118Y0054591D02*
X0056618Y0054591D01*
X0056618Y0055089D02*
X0056118Y0055089D01*
X0056118Y0055588D02*
X0056618Y0055588D01*
X0056618Y0056086D02*
X0056118Y0056086D01*
X0056118Y0056585D02*
X0056618Y0056585D01*
X0057822Y0056585D02*
X0066200Y0056585D01*
X0066200Y0057083D02*
X0054681Y0057083D01*
X0054681Y0057582D02*
X0066336Y0057582D01*
X0066542Y0058080D02*
X0054537Y0058080D01*
X0054331Y0058579D02*
X0066446Y0058579D01*
X0065948Y0059077D02*
X0053861Y0059077D01*
X0052988Y0059576D02*
X0065449Y0059576D01*
X0064951Y0060074D02*
X0051901Y0060074D01*
X0051402Y0060573D02*
X0064452Y0060573D01*
X0063954Y0061071D02*
X0050903Y0061071D01*
X0050405Y0061570D02*
X0063500Y0061570D01*
X0063500Y0062068D02*
X0049906Y0062068D01*
X0049408Y0062567D02*
X0063500Y0062567D01*
X0063500Y0063065D02*
X0048909Y0063065D01*
X0048411Y0063564D02*
X0063500Y0063564D01*
X0063500Y0064062D02*
X0047912Y0064062D01*
X0047414Y0064561D02*
X0063500Y0064561D01*
X0063500Y0065059D02*
X0046915Y0065059D01*
X0046417Y0065558D02*
X0063500Y0065558D01*
X0063500Y0066056D02*
X0045918Y0066056D01*
X0045420Y0066555D02*
X0063500Y0066555D01*
X0063500Y0067053D02*
X0044921Y0067053D01*
X0044423Y0067552D02*
X0063500Y0067552D01*
X0063500Y0068051D02*
X0044000Y0068051D01*
X0044000Y0068549D02*
X0063500Y0068549D01*
X0063500Y0069048D02*
X0044000Y0069048D01*
X0044000Y0069546D02*
X0063500Y0069546D01*
X0063500Y0070045D02*
X0044000Y0070045D01*
X0044000Y0070543D02*
X0063500Y0070543D01*
X0063500Y0071042D02*
X0044000Y0071042D01*
X0044000Y0071540D02*
X0063500Y0071540D01*
X0063500Y0072039D02*
X0044000Y0072039D01*
X0044000Y0072537D02*
X0063500Y0072537D01*
X0063500Y0073036D02*
X0044000Y0073036D01*
X0044000Y0073534D02*
X0063500Y0073534D01*
X0063500Y0074033D02*
X0044000Y0074033D01*
X0044000Y0074531D02*
X0063500Y0074531D01*
X0063500Y0075030D02*
X0044000Y0075030D01*
X0044000Y0075528D02*
X0063500Y0075528D01*
X0063500Y0076027D02*
X0044000Y0076027D01*
X0044000Y0076525D02*
X0063500Y0076525D01*
X0066200Y0056086D02*
X0058822Y0056086D01*
X0059433Y0055588D02*
X0066200Y0055588D01*
X0066265Y0055089D02*
X0059875Y0055089D01*
X0060206Y0054591D02*
X0066471Y0054591D01*
X0066678Y0054092D02*
X0060454Y0054092D01*
X0060616Y0053594D02*
X0066884Y0053594D01*
X0067263Y0053095D02*
X0060717Y0053095D01*
X0054914Y0056585D02*
X0054606Y0056585D01*
X0041387Y0038638D02*
X0023336Y0038638D01*
X0023173Y0038802D02*
X0040819Y0021156D01*
X0040819Y0021734D01*
X0041189Y0022627D01*
X0041873Y0023311D01*
X0042766Y0023681D01*
X0043734Y0023681D01*
X0044627Y0023311D01*
X0045311Y0022627D01*
X0045681Y0021734D01*
X0045681Y0021294D01*
X0051300Y0015675D01*
X0051300Y0017235D01*
X0052054Y0019054D01*
X0053446Y0020446D01*
X0055265Y0021200D01*
X0057235Y0021200D01*
X0058243Y0020782D01*
X0055500Y0023525D01*
X0055500Y0024525D01*
X0023563Y0056462D01*
X0023563Y0055493D01*
X0022893Y0053876D01*
X0021656Y0052638D01*
X0021140Y0052425D01*
X0021469Y0052257D01*
X0022030Y0051850D01*
X0022519Y0051360D01*
X0022926Y0050800D01*
X0023241Y0050183D01*
X0023455Y0049524D01*
X0023563Y0048840D01*
X0023563Y0048744D01*
X0019413Y0048744D01*
X0019413Y0048244D01*
X0023563Y0048244D01*
X0023563Y0048148D01*
X0023455Y0047464D01*
X0023241Y0046805D01*
X0022926Y0046188D01*
X0022519Y0045628D01*
X0022030Y0045138D01*
X0021469Y0044731D01*
X0021140Y0044563D01*
X0021656Y0044350D01*
X0022893Y0043112D01*
X0023563Y0041495D01*
X0023563Y0039745D01*
X0023173Y0038802D01*
X0023311Y0039137D02*
X0040888Y0039137D01*
X0040390Y0039635D02*
X0023518Y0039635D01*
X0023563Y0040134D02*
X0039891Y0040134D01*
X0039393Y0040632D02*
X0023563Y0040632D01*
X0023563Y0041131D02*
X0038894Y0041131D01*
X0038396Y0041629D02*
X0023507Y0041629D01*
X0023301Y0042128D02*
X0037897Y0042128D01*
X0037399Y0042626D02*
X0023094Y0042626D01*
X0022880Y0043125D02*
X0036900Y0043125D01*
X0036402Y0043623D02*
X0022382Y0043623D01*
X0021883Y0044122D02*
X0035903Y0044122D01*
X0035405Y0044620D02*
X0021252Y0044620D01*
X0022003Y0045119D02*
X0034906Y0045119D01*
X0034408Y0045618D02*
X0022509Y0045618D01*
X0022874Y0046116D02*
X0033909Y0046116D01*
X0033411Y0046615D02*
X0023143Y0046615D01*
X0023341Y0047113D02*
X0032912Y0047113D01*
X0032414Y0047612D02*
X0023478Y0047612D01*
X0023557Y0048110D02*
X0031915Y0048110D01*
X0031417Y0048609D02*
X0019413Y0048609D01*
X0023027Y0050603D02*
X0029423Y0050603D01*
X0029921Y0050104D02*
X0023266Y0050104D01*
X0023428Y0049606D02*
X0030420Y0049606D01*
X0030918Y0049107D02*
X0023521Y0049107D01*
X0022707Y0051101D02*
X0028924Y0051101D01*
X0028425Y0051600D02*
X0022280Y0051600D01*
X0021688Y0052098D02*
X0027927Y0052098D01*
X0027428Y0052597D02*
X0021555Y0052597D01*
X0022112Y0053095D02*
X0026930Y0053095D01*
X0026431Y0053594D02*
X0022611Y0053594D01*
X0022983Y0054092D02*
X0025933Y0054092D01*
X0025434Y0054591D02*
X0023189Y0054591D01*
X0023396Y0055089D02*
X0024936Y0055089D01*
X0024437Y0055588D02*
X0023563Y0055588D01*
X0023563Y0056086D02*
X0023939Y0056086D01*
X0023835Y0038140D02*
X0041885Y0038140D01*
X0042384Y0037641D02*
X0024334Y0037641D01*
X0024832Y0037143D02*
X0042882Y0037143D01*
X0043381Y0036644D02*
X0025331Y0036644D01*
X0025829Y0036146D02*
X0043879Y0036146D01*
X0044378Y0035647D02*
X0026328Y0035647D01*
X0026826Y0035149D02*
X0044876Y0035149D01*
X0045375Y0034650D02*
X0027325Y0034650D01*
X0027823Y0034152D02*
X0045873Y0034152D01*
X0046372Y0033653D02*
X0028322Y0033653D01*
X0028820Y0033155D02*
X0046870Y0033155D01*
X0047369Y0032656D02*
X0029319Y0032656D01*
X0029817Y0032158D02*
X0047867Y0032158D01*
X0048366Y0031659D02*
X0030316Y0031659D01*
X0030814Y0031161D02*
X0048864Y0031161D01*
X0049363Y0030662D02*
X0031313Y0030662D01*
X0031811Y0030164D02*
X0049861Y0030164D01*
X0050360Y0029665D02*
X0032310Y0029665D01*
X0032808Y0029167D02*
X0050858Y0029167D01*
X0051357Y0028668D02*
X0033307Y0028668D01*
X0033805Y0028170D02*
X0051856Y0028170D01*
X0052354Y0027671D02*
X0034304Y0027671D01*
X0034802Y0027173D02*
X0052853Y0027173D01*
X0053351Y0026674D02*
X0035301Y0026674D01*
X0035799Y0026176D02*
X0053850Y0026176D01*
X0054348Y0025677D02*
X0036298Y0025677D01*
X0036796Y0025179D02*
X0054847Y0025179D01*
X0055345Y0024680D02*
X0037295Y0024680D01*
X0037793Y0024182D02*
X0055500Y0024182D01*
X0055500Y0023683D02*
X0038292Y0023683D01*
X0038790Y0023184D02*
X0041746Y0023184D01*
X0041248Y0022686D02*
X0039289Y0022686D01*
X0039787Y0022187D02*
X0041007Y0022187D01*
X0040819Y0021689D02*
X0040286Y0021689D01*
X0040784Y0021190D02*
X0040819Y0021190D01*
X0044754Y0023184D02*
X0055841Y0023184D01*
X0056339Y0022686D02*
X0045252Y0022686D01*
X0045493Y0022187D02*
X0056838Y0022187D01*
X0057336Y0021689D02*
X0045681Y0021689D01*
X0045784Y0021190D02*
X0055242Y0021190D01*
X0054039Y0020692D02*
X0046283Y0020692D01*
X0046781Y0020193D02*
X0053193Y0020193D01*
X0052695Y0019695D02*
X0047280Y0019695D01*
X0047778Y0019196D02*
X0052196Y0019196D01*
X0051906Y0018698D02*
X0048277Y0018698D01*
X0048775Y0018199D02*
X0051700Y0018199D01*
X0051493Y0017701D02*
X0049274Y0017701D01*
X0049772Y0017202D02*
X0051300Y0017202D01*
X0051300Y0016704D02*
X0050271Y0016704D01*
X0050770Y0016205D02*
X0051300Y0016205D01*
X0051300Y0015707D02*
X0051268Y0015707D01*
X0057258Y0021190D02*
X0057835Y0021190D01*
X0064900Y0027762D02*
X0063162Y0029500D01*
X0069338Y0029500D01*
X0067600Y0027762D01*
X0067600Y0026500D01*
X0071000Y0026500D01*
X0071000Y0026000D01*
X0067600Y0026000D01*
X0067600Y0024738D01*
X0068338Y0024000D01*
X0065975Y0024000D01*
X0064900Y0025075D01*
X0064900Y0027762D01*
X0064900Y0027671D02*
X0067600Y0027671D01*
X0067600Y0027173D02*
X0064900Y0027173D01*
X0064900Y0026674D02*
X0067600Y0026674D01*
X0067600Y0025677D02*
X0064900Y0025677D01*
X0064900Y0025179D02*
X0067600Y0025179D01*
X0067658Y0024680D02*
X0065295Y0024680D01*
X0065793Y0024182D02*
X0068157Y0024182D01*
X0071000Y0026176D02*
X0064900Y0026176D01*
X0064492Y0028170D02*
X0068008Y0028170D01*
X0068506Y0028668D02*
X0063994Y0028668D01*
X0063495Y0029167D02*
X0069005Y0029167D01*
X0094475Y0006000D02*
X0101294Y0012819D01*
X0101734Y0012819D01*
X0102627Y0013189D01*
X0103311Y0013873D01*
X0103356Y0013982D01*
X0104738Y0012600D01*
X0106000Y0012600D01*
X0106000Y0016000D01*
X0106500Y0016000D01*
X0106500Y0016500D01*
X0109900Y0016500D01*
X0109900Y0017762D01*
X0109162Y0018500D01*
X0113338Y0018500D01*
X0112600Y0017762D01*
X0112600Y0014738D01*
X0114738Y0012600D01*
X0116125Y0012600D01*
X0109525Y0006000D01*
X0094475Y0006000D01*
X0094710Y0006235D02*
X0109760Y0006235D01*
X0110259Y0006734D02*
X0095208Y0006734D01*
X0095707Y0007232D02*
X0110757Y0007232D01*
X0111256Y0007731D02*
X0096205Y0007731D01*
X0096704Y0008229D02*
X0111754Y0008229D01*
X0112253Y0008728D02*
X0097203Y0008728D01*
X0097701Y0009226D02*
X0112751Y0009226D01*
X0113250Y0009725D02*
X0098200Y0009725D01*
X0098698Y0010223D02*
X0113748Y0010223D01*
X0114247Y0010722D02*
X0099197Y0010722D01*
X0099695Y0011220D02*
X0114745Y0011220D01*
X0115244Y0011719D02*
X0100194Y0011719D01*
X0100692Y0012217D02*
X0115742Y0012217D01*
X0114622Y0012716D02*
X0107878Y0012716D01*
X0107762Y0012600D02*
X0109900Y0014738D01*
X0109900Y0016000D01*
X0106500Y0016000D01*
X0106500Y0012600D01*
X0107762Y0012600D01*
X0108376Y0013214D02*
X0114124Y0013214D01*
X0113625Y0013713D02*
X0108875Y0013713D01*
X0109373Y0014211D02*
X0113127Y0014211D01*
X0112628Y0014710D02*
X0109872Y0014710D01*
X0109900Y0015208D02*
X0112600Y0015208D01*
X0112600Y0015707D02*
X0109900Y0015707D01*
X0109900Y0016704D02*
X0112600Y0016704D01*
X0112600Y0017202D02*
X0109900Y0017202D01*
X0109900Y0017701D02*
X0112600Y0017701D01*
X0113038Y0018199D02*
X0109462Y0018199D01*
X0106500Y0016205D02*
X0112600Y0016205D01*
X0106500Y0015707D02*
X0106000Y0015707D01*
X0106000Y0015208D02*
X0106500Y0015208D01*
X0106500Y0014710D02*
X0106000Y0014710D01*
X0106000Y0014211D02*
X0106500Y0014211D01*
X0106500Y0013713D02*
X0106000Y0013713D01*
X0106000Y0013214D02*
X0106500Y0013214D01*
X0106500Y0012716D02*
X0106000Y0012716D01*
X0104622Y0012716D02*
X0101191Y0012716D01*
X0102652Y0013214D02*
X0104124Y0013214D01*
X0103625Y0013713D02*
X0103151Y0013713D01*
X0107500Y0058475D02*
X0107000Y0058975D01*
X0107000Y0152975D01*
X0105681Y0154294D01*
X0105681Y0154734D01*
X0105311Y0155627D01*
X0104627Y0156311D01*
X0103734Y0156681D01*
X0102766Y0156681D01*
X0102000Y0156364D01*
X0102000Y0176136D01*
X0102766Y0175819D01*
X0103734Y0175819D01*
X0104627Y0176189D01*
X0105311Y0176873D01*
X0105681Y0177766D01*
X0105681Y0178734D01*
X0105311Y0179627D01*
X0104627Y0180311D01*
X0104000Y0180571D01*
X0104000Y0208338D01*
X0104738Y0207600D01*
X0106000Y0207600D01*
X0106000Y0211000D01*
X0106500Y0211000D01*
X0106500Y0211500D01*
X0106000Y0211500D01*
X0106000Y0214900D01*
X0106000Y0217025D01*
X0118125Y0204900D01*
X0113124Y0204900D01*
X0111782Y0204344D01*
X0111000Y0203562D01*
X0111311Y0203873D01*
X0111681Y0204766D01*
X0111681Y0205734D01*
X0111311Y0206627D01*
X0110627Y0207311D01*
X0109734Y0207681D01*
X0108766Y0207681D01*
X0107873Y0207311D01*
X0107189Y0206627D01*
X0106819Y0205734D01*
X0106819Y0204766D01*
X0107189Y0203873D01*
X0107500Y0203562D01*
X0107500Y0119525D01*
X0112418Y0114607D01*
X0111782Y0114344D01*
X0110756Y0113318D01*
X0110200Y0111976D01*
X0110200Y0110524D01*
X0110756Y0109182D01*
X0111232Y0108706D01*
X0107500Y0104975D01*
X0107500Y0058475D01*
X0107500Y0058579D02*
X0107396Y0058579D01*
X0107500Y0059077D02*
X0107000Y0059077D01*
X0107000Y0059576D02*
X0107500Y0059576D01*
X0107500Y0060074D02*
X0107000Y0060074D01*
X0107000Y0060573D02*
X0107500Y0060573D01*
X0107500Y0061071D02*
X0107000Y0061071D01*
X0107000Y0061570D02*
X0107500Y0061570D01*
X0107500Y0062068D02*
X0107000Y0062068D01*
X0107000Y0062567D02*
X0107500Y0062567D01*
X0107500Y0063065D02*
X0107000Y0063065D01*
X0107000Y0063564D02*
X0107500Y0063564D01*
X0107500Y0064062D02*
X0107000Y0064062D01*
X0107000Y0064561D02*
X0107500Y0064561D01*
X0107500Y0065059D02*
X0107000Y0065059D01*
X0107000Y0065558D02*
X0107500Y0065558D01*
X0107500Y0066056D02*
X0107000Y0066056D01*
X0107000Y0066555D02*
X0107500Y0066555D01*
X0107500Y0067053D02*
X0107000Y0067053D01*
X0107000Y0067552D02*
X0107500Y0067552D01*
X0107500Y0068051D02*
X0107000Y0068051D01*
X0107000Y0068549D02*
X0107500Y0068549D01*
X0107500Y0069048D02*
X0107000Y0069048D01*
X0107000Y0069546D02*
X0107500Y0069546D01*
X0107500Y0070045D02*
X0107000Y0070045D01*
X0107000Y0070543D02*
X0107500Y0070543D01*
X0107500Y0071042D02*
X0107000Y0071042D01*
X0107000Y0071540D02*
X0107500Y0071540D01*
X0107500Y0072039D02*
X0107000Y0072039D01*
X0107000Y0072537D02*
X0107500Y0072537D01*
X0107500Y0073036D02*
X0107000Y0073036D01*
X0107000Y0073534D02*
X0107500Y0073534D01*
X0107500Y0074033D02*
X0107000Y0074033D01*
X0107000Y0074531D02*
X0107500Y0074531D01*
X0107500Y0075030D02*
X0107000Y0075030D01*
X0107000Y0075528D02*
X0107500Y0075528D01*
X0107500Y0076027D02*
X0107000Y0076027D01*
X0107000Y0076525D02*
X0107500Y0076525D01*
X0107500Y0077024D02*
X0107000Y0077024D01*
X0107000Y0077522D02*
X0107500Y0077522D01*
X0107500Y0078021D02*
X0107000Y0078021D01*
X0107000Y0078519D02*
X0107500Y0078519D01*
X0107500Y0079018D02*
X0107000Y0079018D01*
X0107000Y0079516D02*
X0107500Y0079516D01*
X0107500Y0080015D02*
X0107000Y0080015D01*
X0107000Y0080513D02*
X0107500Y0080513D01*
X0107500Y0081012D02*
X0107000Y0081012D01*
X0107000Y0081510D02*
X0107500Y0081510D01*
X0107500Y0082009D02*
X0107000Y0082009D01*
X0107000Y0082507D02*
X0107500Y0082507D01*
X0107500Y0083006D02*
X0107000Y0083006D01*
X0107000Y0083504D02*
X0107500Y0083504D01*
X0107500Y0084003D02*
X0107000Y0084003D01*
X0107000Y0084501D02*
X0107500Y0084501D01*
X0107500Y0085000D02*
X0107000Y0085000D01*
X0107000Y0085498D02*
X0107500Y0085498D01*
X0107500Y0085997D02*
X0107000Y0085997D01*
X0107000Y0086495D02*
X0107500Y0086495D01*
X0107500Y0086994D02*
X0107000Y0086994D01*
X0107000Y0087492D02*
X0107500Y0087492D01*
X0107500Y0087991D02*
X0107000Y0087991D01*
X0107000Y0088489D02*
X0107500Y0088489D01*
X0107500Y0088988D02*
X0107000Y0088988D01*
X0107000Y0089487D02*
X0107500Y0089487D01*
X0107500Y0089985D02*
X0107000Y0089985D01*
X0107000Y0090484D02*
X0107500Y0090484D01*
X0107500Y0090982D02*
X0107000Y0090982D01*
X0107000Y0091481D02*
X0107500Y0091481D01*
X0107500Y0091979D02*
X0107000Y0091979D01*
X0107000Y0092478D02*
X0107500Y0092478D01*
X0107500Y0092976D02*
X0107000Y0092976D01*
X0107000Y0093475D02*
X0107500Y0093475D01*
X0107500Y0093973D02*
X0107000Y0093973D01*
X0107000Y0094472D02*
X0107500Y0094472D01*
X0107500Y0094970D02*
X0107000Y0094970D01*
X0107000Y0095469D02*
X0107500Y0095469D01*
X0107500Y0095967D02*
X0107000Y0095967D01*
X0107000Y0096466D02*
X0107500Y0096466D01*
X0107500Y0096964D02*
X0107000Y0096964D01*
X0107000Y0097463D02*
X0107500Y0097463D01*
X0107500Y0097961D02*
X0107000Y0097961D01*
X0107000Y0098460D02*
X0107500Y0098460D01*
X0107500Y0098958D02*
X0107000Y0098958D01*
X0107000Y0099457D02*
X0107500Y0099457D01*
X0107500Y0099955D02*
X0107000Y0099955D01*
X0107000Y0100454D02*
X0107500Y0100454D01*
X0107500Y0100952D02*
X0107000Y0100952D01*
X0107000Y0101451D02*
X0107500Y0101451D01*
X0107500Y0101949D02*
X0107000Y0101949D01*
X0107000Y0102448D02*
X0107500Y0102448D01*
X0107500Y0102946D02*
X0107000Y0102946D01*
X0107000Y0103445D02*
X0107500Y0103445D01*
X0107500Y0103943D02*
X0107000Y0103943D01*
X0107000Y0104442D02*
X0107500Y0104442D01*
X0107500Y0104940D02*
X0107000Y0104940D01*
X0107000Y0105439D02*
X0107964Y0105439D01*
X0108463Y0105937D02*
X0107000Y0105937D01*
X0107000Y0106436D02*
X0108961Y0106436D01*
X0109460Y0106934D02*
X0107000Y0106934D01*
X0107000Y0107433D02*
X0109958Y0107433D01*
X0110457Y0107931D02*
X0107000Y0107931D01*
X0107000Y0108430D02*
X0110955Y0108430D01*
X0111010Y0108928D02*
X0107000Y0108928D01*
X0107000Y0109427D02*
X0110654Y0109427D01*
X0110448Y0109925D02*
X0107000Y0109925D01*
X0107000Y0110424D02*
X0110241Y0110424D01*
X0110200Y0110922D02*
X0107000Y0110922D01*
X0107000Y0111421D02*
X0110200Y0111421D01*
X0110200Y0111920D02*
X0107000Y0111920D01*
X0107000Y0112418D02*
X0110383Y0112418D01*
X0110590Y0112917D02*
X0107000Y0112917D01*
X0107000Y0113415D02*
X0110853Y0113415D01*
X0111352Y0113914D02*
X0107000Y0113914D01*
X0107000Y0114412D02*
X0111946Y0114412D01*
X0112115Y0114911D02*
X0107000Y0114911D01*
X0107000Y0115409D02*
X0111616Y0115409D01*
X0111118Y0115908D02*
X0107000Y0115908D01*
X0107000Y0116406D02*
X0110619Y0116406D01*
X0110120Y0116905D02*
X0107000Y0116905D01*
X0107000Y0117403D02*
X0109622Y0117403D01*
X0109123Y0117902D02*
X0107000Y0117902D01*
X0107000Y0118400D02*
X0108625Y0118400D01*
X0108126Y0118899D02*
X0107000Y0118899D01*
X0107000Y0119397D02*
X0107628Y0119397D01*
X0107500Y0119896D02*
X0107000Y0119896D01*
X0107000Y0120394D02*
X0107500Y0120394D01*
X0107500Y0120893D02*
X0107000Y0120893D01*
X0107000Y0121391D02*
X0107500Y0121391D01*
X0107500Y0121890D02*
X0107000Y0121890D01*
X0107000Y0122388D02*
X0107500Y0122388D01*
X0107500Y0122887D02*
X0107000Y0122887D01*
X0107000Y0123385D02*
X0107500Y0123385D01*
X0107500Y0123884D02*
X0107000Y0123884D01*
X0107000Y0124382D02*
X0107500Y0124382D01*
X0107500Y0124881D02*
X0107000Y0124881D01*
X0107000Y0125379D02*
X0107500Y0125379D01*
X0107500Y0125878D02*
X0107000Y0125878D01*
X0107000Y0126376D02*
X0107500Y0126376D01*
X0107500Y0126875D02*
X0107000Y0126875D01*
X0107000Y0127373D02*
X0107500Y0127373D01*
X0107500Y0127872D02*
X0107000Y0127872D01*
X0107000Y0128370D02*
X0107500Y0128370D01*
X0107500Y0128869D02*
X0107000Y0128869D01*
X0107000Y0129367D02*
X0107500Y0129367D01*
X0107500Y0129866D02*
X0107000Y0129866D01*
X0107000Y0130364D02*
X0107500Y0130364D01*
X0107500Y0130863D02*
X0107000Y0130863D01*
X0107000Y0131361D02*
X0107500Y0131361D01*
X0107500Y0131860D02*
X0107000Y0131860D01*
X0107000Y0132358D02*
X0107500Y0132358D01*
X0107500Y0132857D02*
X0107000Y0132857D01*
X0107000Y0133355D02*
X0107500Y0133355D01*
X0107500Y0133854D02*
X0107000Y0133854D01*
X0107000Y0134353D02*
X0107500Y0134353D01*
X0107500Y0134851D02*
X0107000Y0134851D01*
X0107000Y0135350D02*
X0107500Y0135350D01*
X0107500Y0135848D02*
X0107000Y0135848D01*
X0107000Y0136347D02*
X0107500Y0136347D01*
X0107500Y0136845D02*
X0107000Y0136845D01*
X0107000Y0137344D02*
X0107500Y0137344D01*
X0107500Y0137842D02*
X0107000Y0137842D01*
X0107000Y0138341D02*
X0107500Y0138341D01*
X0107500Y0138839D02*
X0107000Y0138839D01*
X0107000Y0139338D02*
X0107500Y0139338D01*
X0107500Y0139836D02*
X0107000Y0139836D01*
X0107000Y0140335D02*
X0107500Y0140335D01*
X0107500Y0140833D02*
X0107000Y0140833D01*
X0107000Y0141332D02*
X0107500Y0141332D01*
X0107500Y0141830D02*
X0107000Y0141830D01*
X0107000Y0142329D02*
X0107500Y0142329D01*
X0107500Y0142827D02*
X0107000Y0142827D01*
X0107000Y0143326D02*
X0107500Y0143326D01*
X0107500Y0143824D02*
X0107000Y0143824D01*
X0107000Y0144323D02*
X0107500Y0144323D01*
X0107500Y0144821D02*
X0107000Y0144821D01*
X0107000Y0145320D02*
X0107500Y0145320D01*
X0107500Y0145818D02*
X0107000Y0145818D01*
X0107000Y0146317D02*
X0107500Y0146317D01*
X0107500Y0146815D02*
X0107000Y0146815D01*
X0107000Y0147314D02*
X0107500Y0147314D01*
X0107500Y0147812D02*
X0107000Y0147812D01*
X0107000Y0148311D02*
X0107500Y0148311D01*
X0107500Y0148809D02*
X0107000Y0148809D01*
X0107000Y0149308D02*
X0107500Y0149308D01*
X0107500Y0149806D02*
X0107000Y0149806D01*
X0107000Y0150305D02*
X0107500Y0150305D01*
X0107500Y0150803D02*
X0107000Y0150803D01*
X0107000Y0151302D02*
X0107500Y0151302D01*
X0107500Y0151800D02*
X0107000Y0151800D01*
X0107000Y0152299D02*
X0107500Y0152299D01*
X0107500Y0152797D02*
X0107000Y0152797D01*
X0106679Y0153296D02*
X0107500Y0153296D01*
X0107500Y0153794D02*
X0106180Y0153794D01*
X0105682Y0154293D02*
X0107500Y0154293D01*
X0107500Y0154791D02*
X0105657Y0154791D01*
X0105451Y0155290D02*
X0107500Y0155290D01*
X0107500Y0155789D02*
X0105150Y0155789D01*
X0104651Y0156287D02*
X0107500Y0156287D01*
X0107500Y0156786D02*
X0102000Y0156786D01*
X0102000Y0157284D02*
X0107500Y0157284D01*
X0107500Y0157783D02*
X0102000Y0157783D01*
X0102000Y0158281D02*
X0107500Y0158281D01*
X0107500Y0158780D02*
X0102000Y0158780D01*
X0102000Y0159278D02*
X0107500Y0159278D01*
X0107500Y0159777D02*
X0102000Y0159777D01*
X0102000Y0160275D02*
X0107500Y0160275D01*
X0107500Y0160774D02*
X0102000Y0160774D01*
X0102000Y0161272D02*
X0107500Y0161272D01*
X0107500Y0161771D02*
X0102000Y0161771D01*
X0102000Y0162269D02*
X0107500Y0162269D01*
X0107500Y0162768D02*
X0102000Y0162768D01*
X0102000Y0163266D02*
X0107500Y0163266D01*
X0107500Y0163765D02*
X0102000Y0163765D01*
X0102000Y0164263D02*
X0107500Y0164263D01*
X0107500Y0164762D02*
X0102000Y0164762D01*
X0102000Y0165260D02*
X0107500Y0165260D01*
X0107500Y0165759D02*
X0102000Y0165759D01*
X0102000Y0166257D02*
X0107500Y0166257D01*
X0107500Y0166756D02*
X0102000Y0166756D01*
X0102000Y0167254D02*
X0107500Y0167254D01*
X0107500Y0167753D02*
X0102000Y0167753D01*
X0102000Y0168251D02*
X0107500Y0168251D01*
X0107500Y0168750D02*
X0102000Y0168750D01*
X0102000Y0169248D02*
X0107500Y0169248D01*
X0107500Y0169747D02*
X0102000Y0169747D01*
X0102000Y0170245D02*
X0107500Y0170245D01*
X0107500Y0170744D02*
X0102000Y0170744D01*
X0102000Y0171242D02*
X0107500Y0171242D01*
X0107500Y0171741D02*
X0102000Y0171741D01*
X0102000Y0172239D02*
X0107500Y0172239D01*
X0107500Y0172738D02*
X0102000Y0172738D01*
X0102000Y0173236D02*
X0107500Y0173236D01*
X0107500Y0173735D02*
X0102000Y0173735D01*
X0102000Y0174233D02*
X0107500Y0174233D01*
X0107500Y0174732D02*
X0102000Y0174732D01*
X0102000Y0175230D02*
X0107500Y0175230D01*
X0107500Y0175729D02*
X0102000Y0175729D01*
X0104666Y0176227D02*
X0107500Y0176227D01*
X0107500Y0176726D02*
X0105164Y0176726D01*
X0105457Y0177224D02*
X0107500Y0177224D01*
X0107500Y0177723D02*
X0105663Y0177723D01*
X0105681Y0178222D02*
X0107500Y0178222D01*
X0107500Y0178720D02*
X0105681Y0178720D01*
X0105480Y0179219D02*
X0107500Y0179219D01*
X0107500Y0179717D02*
X0105221Y0179717D01*
X0104723Y0180216D02*
X0107500Y0180216D01*
X0107500Y0180714D02*
X0104000Y0180714D01*
X0104000Y0181213D02*
X0107500Y0181213D01*
X0107500Y0181711D02*
X0104000Y0181711D01*
X0104000Y0182210D02*
X0107500Y0182210D01*
X0107500Y0182708D02*
X0104000Y0182708D01*
X0104000Y0183207D02*
X0107500Y0183207D01*
X0107500Y0183705D02*
X0104000Y0183705D01*
X0104000Y0184204D02*
X0107500Y0184204D01*
X0107500Y0184702D02*
X0104000Y0184702D01*
X0104000Y0185201D02*
X0107500Y0185201D01*
X0107500Y0185699D02*
X0104000Y0185699D01*
X0104000Y0186198D02*
X0107500Y0186198D01*
X0107500Y0186696D02*
X0104000Y0186696D01*
X0104000Y0187195D02*
X0107500Y0187195D01*
X0107500Y0187693D02*
X0104000Y0187693D01*
X0104000Y0188192D02*
X0107500Y0188192D01*
X0107500Y0188690D02*
X0104000Y0188690D01*
X0104000Y0189189D02*
X0107500Y0189189D01*
X0107500Y0189687D02*
X0104000Y0189687D01*
X0104000Y0190186D02*
X0107500Y0190186D01*
X0107500Y0190684D02*
X0104000Y0190684D01*
X0104000Y0191183D02*
X0107500Y0191183D01*
X0107500Y0191681D02*
X0104000Y0191681D01*
X0104000Y0192180D02*
X0107500Y0192180D01*
X0107500Y0192678D02*
X0104000Y0192678D01*
X0104000Y0193177D02*
X0107500Y0193177D01*
X0107500Y0193675D02*
X0104000Y0193675D01*
X0104000Y0194174D02*
X0107500Y0194174D01*
X0107500Y0194672D02*
X0104000Y0194672D01*
X0104000Y0195171D02*
X0107500Y0195171D01*
X0107500Y0195669D02*
X0104000Y0195669D01*
X0104000Y0196168D02*
X0107500Y0196168D01*
X0107500Y0196666D02*
X0104000Y0196666D01*
X0104000Y0197165D02*
X0107500Y0197165D01*
X0107500Y0197663D02*
X0104000Y0197663D01*
X0104000Y0198162D02*
X0107500Y0198162D01*
X0107500Y0198660D02*
X0104000Y0198660D01*
X0104000Y0199159D02*
X0107500Y0199159D01*
X0107500Y0199658D02*
X0104000Y0199658D01*
X0104000Y0200156D02*
X0107500Y0200156D01*
X0107500Y0200655D02*
X0104000Y0200655D01*
X0104000Y0201153D02*
X0107500Y0201153D01*
X0107500Y0201652D02*
X0104000Y0201652D01*
X0104000Y0202150D02*
X0107500Y0202150D01*
X0107500Y0202649D02*
X0104000Y0202649D01*
X0104000Y0203147D02*
X0107500Y0203147D01*
X0107416Y0203646D02*
X0104000Y0203646D01*
X0104000Y0204144D02*
X0107077Y0204144D01*
X0106870Y0204643D02*
X0104000Y0204643D01*
X0104000Y0205141D02*
X0106819Y0205141D01*
X0106819Y0205640D02*
X0104000Y0205640D01*
X0104000Y0206138D02*
X0106986Y0206138D01*
X0107199Y0206637D02*
X0104000Y0206637D01*
X0104000Y0207135D02*
X0107697Y0207135D01*
X0107762Y0207600D02*
X0109900Y0209738D01*
X0109900Y0211000D01*
X0106500Y0211000D01*
X0106500Y0207600D01*
X0107762Y0207600D01*
X0107796Y0207634D02*
X0108652Y0207634D01*
X0108294Y0208132D02*
X0114893Y0208132D01*
X0115391Y0207634D02*
X0109848Y0207634D01*
X0110803Y0207135D02*
X0115890Y0207135D01*
X0116388Y0206637D02*
X0111301Y0206637D01*
X0111514Y0206138D02*
X0116887Y0206138D01*
X0117385Y0205640D02*
X0111681Y0205640D01*
X0111681Y0205141D02*
X0117884Y0205141D01*
X0114394Y0208631D02*
X0108793Y0208631D01*
X0109291Y0209129D02*
X0113896Y0209129D01*
X0113397Y0209628D02*
X0109790Y0209628D01*
X0109900Y0210126D02*
X0112899Y0210126D01*
X0112400Y0210625D02*
X0109900Y0210625D01*
X0109900Y0211500D02*
X0109900Y0212762D01*
X0107762Y0214900D01*
X0106500Y0214900D01*
X0106500Y0211500D01*
X0109900Y0211500D01*
X0109900Y0211622D02*
X0111403Y0211622D01*
X0110905Y0212120D02*
X0109900Y0212120D01*
X0109900Y0212619D02*
X0110406Y0212619D01*
X0109908Y0213117D02*
X0109545Y0213117D01*
X0109409Y0213616D02*
X0109046Y0213616D01*
X0108911Y0214114D02*
X0108548Y0214114D01*
X0108412Y0214613D02*
X0108049Y0214613D01*
X0107914Y0215111D02*
X0106000Y0215111D01*
X0106000Y0214900D02*
X0106000Y0214900D01*
X0106000Y0214613D02*
X0106500Y0214613D01*
X0106500Y0214114D02*
X0106000Y0214114D01*
X0106000Y0213616D02*
X0106500Y0213616D01*
X0106500Y0213117D02*
X0106000Y0213117D01*
X0106000Y0212619D02*
X0106500Y0212619D01*
X0106500Y0212120D02*
X0106000Y0212120D01*
X0106000Y0211622D02*
X0106500Y0211622D01*
X0106500Y0211123D02*
X0111902Y0211123D01*
X0115863Y0215111D02*
X0118500Y0215111D01*
X0118500Y0214613D02*
X0116362Y0214613D01*
X0116861Y0214114D02*
X0118500Y0214114D01*
X0118500Y0213938D02*
X0118189Y0213627D01*
X0117943Y0213032D01*
X0114000Y0216975D01*
X0114000Y0220964D01*
X0114521Y0220615D01*
X0115185Y0220340D01*
X0115890Y0220200D01*
X0116000Y0220200D01*
X0116000Y0226000D01*
X0116500Y0226000D01*
X0116500Y0220200D01*
X0116609Y0220200D01*
X0117315Y0220340D01*
X0117979Y0220615D01*
X0118500Y0220964D01*
X0118500Y0213938D01*
X0118184Y0213616D02*
X0117359Y0213616D01*
X0117858Y0213117D02*
X0117978Y0213117D01*
X0118500Y0215610D02*
X0115365Y0215610D01*
X0114866Y0216108D02*
X0118500Y0216108D01*
X0118500Y0216607D02*
X0114368Y0216607D01*
X0114000Y0217105D02*
X0118500Y0217105D01*
X0118500Y0217604D02*
X0114000Y0217604D01*
X0114000Y0218102D02*
X0118500Y0218102D01*
X0118500Y0218601D02*
X0114000Y0218601D01*
X0114000Y0219099D02*
X0118500Y0219099D01*
X0118500Y0219598D02*
X0114000Y0219598D01*
X0114000Y0220096D02*
X0118500Y0220096D01*
X0118500Y0220595D02*
X0117930Y0220595D01*
X0116500Y0220595D02*
X0116000Y0220595D01*
X0116000Y0221093D02*
X0116500Y0221093D01*
X0116500Y0221592D02*
X0116000Y0221592D01*
X0116000Y0222091D02*
X0116500Y0222091D01*
X0116500Y0222589D02*
X0116000Y0222589D01*
X0116000Y0223088D02*
X0116500Y0223088D01*
X0116500Y0223586D02*
X0116000Y0223586D01*
X0116000Y0224085D02*
X0116500Y0224085D01*
X0116500Y0224583D02*
X0116000Y0224583D01*
X0116000Y0225082D02*
X0116500Y0225082D01*
X0116500Y0225580D02*
X0116000Y0225580D01*
X0116000Y0226500D02*
X0116000Y0232025D01*
X0116500Y0231525D01*
X0116500Y0226500D01*
X0116000Y0226500D01*
X0116000Y0226577D02*
X0116500Y0226577D01*
X0116500Y0227076D02*
X0116000Y0227076D01*
X0116000Y0227574D02*
X0116500Y0227574D01*
X0116500Y0228073D02*
X0116000Y0228073D01*
X0116000Y0228571D02*
X0116500Y0228571D01*
X0116500Y0229070D02*
X0116000Y0229070D01*
X0116000Y0229568D02*
X0116500Y0229568D01*
X0116500Y0230067D02*
X0116000Y0230067D01*
X0116000Y0230565D02*
X0116500Y0230565D01*
X0116500Y0231064D02*
X0116000Y0231064D01*
X0116000Y0231562D02*
X0116463Y0231562D01*
X0115753Y0232273D02*
X0115185Y0232160D01*
X0114521Y0231885D01*
X0113923Y0231485D01*
X0113415Y0230977D01*
X0113015Y0230379D01*
X0112893Y0230082D01*
X0098681Y0244294D01*
X0098681Y0244734D01*
X0098311Y0245627D01*
X0097627Y0246311D01*
X0096734Y0246681D01*
X0095766Y0246681D01*
X0094873Y0246311D01*
X0094189Y0245627D01*
X0094000Y0245171D01*
X0094000Y0270025D01*
X0100500Y0263525D01*
X0100500Y0247525D01*
X0115753Y0232273D01*
X0115466Y0232559D02*
X0110416Y0232559D01*
X0110914Y0232061D02*
X0114946Y0232061D01*
X0114967Y0233058D02*
X0109917Y0233058D01*
X0109419Y0233556D02*
X0114469Y0233556D01*
X0113970Y0234055D02*
X0108920Y0234055D01*
X0108422Y0234553D02*
X0113472Y0234553D01*
X0112973Y0235052D02*
X0107923Y0235052D01*
X0107425Y0235550D02*
X0112475Y0235550D01*
X0111976Y0236049D02*
X0106926Y0236049D01*
X0106428Y0236547D02*
X0111478Y0236547D01*
X0110979Y0237046D02*
X0105929Y0237046D01*
X0105430Y0237544D02*
X0110481Y0237544D01*
X0109982Y0238043D02*
X0104932Y0238043D01*
X0104433Y0238541D02*
X0109484Y0238541D01*
X0108985Y0239040D02*
X0103935Y0239040D01*
X0103436Y0239538D02*
X0108487Y0239538D01*
X0107988Y0240037D02*
X0102938Y0240037D01*
X0102439Y0240535D02*
X0107490Y0240535D01*
X0106991Y0241034D02*
X0101941Y0241034D01*
X0101442Y0241532D02*
X0106493Y0241532D01*
X0105994Y0242031D02*
X0100944Y0242031D01*
X0100445Y0242529D02*
X0105496Y0242529D01*
X0104997Y0243028D02*
X0099947Y0243028D01*
X0099448Y0243527D02*
X0104499Y0243527D01*
X0104000Y0244025D02*
X0098950Y0244025D01*
X0098681Y0244524D02*
X0103502Y0244524D01*
X0103003Y0245022D02*
X0098562Y0245022D01*
X0098355Y0245521D02*
X0102505Y0245521D01*
X0102006Y0246019D02*
X0097919Y0246019D01*
X0097128Y0246518D02*
X0101508Y0246518D01*
X0101009Y0247016D02*
X0094000Y0247016D01*
X0094000Y0246518D02*
X0095372Y0246518D01*
X0094581Y0246019D02*
X0094000Y0246019D01*
X0094000Y0245521D02*
X0094145Y0245521D01*
X0094000Y0247515D02*
X0100511Y0247515D01*
X0100500Y0248013D02*
X0094000Y0248013D01*
X0094000Y0248512D02*
X0100500Y0248512D01*
X0100500Y0249010D02*
X0094000Y0249010D01*
X0094000Y0249509D02*
X0100500Y0249509D01*
X0100500Y0250007D02*
X0094000Y0250007D01*
X0094000Y0250506D02*
X0100500Y0250506D01*
X0100500Y0251004D02*
X0094000Y0251004D01*
X0094000Y0251503D02*
X0100500Y0251503D01*
X0100500Y0252001D02*
X0094000Y0252001D01*
X0094000Y0252500D02*
X0100500Y0252500D01*
X0100500Y0252998D02*
X0094000Y0252998D01*
X0094000Y0253497D02*
X0100500Y0253497D01*
X0100500Y0253995D02*
X0094000Y0253995D01*
X0094000Y0254494D02*
X0100500Y0254494D01*
X0100500Y0254992D02*
X0094000Y0254992D01*
X0094000Y0255491D02*
X0100500Y0255491D01*
X0100500Y0255989D02*
X0094000Y0255989D01*
X0094000Y0256488D02*
X0100500Y0256488D01*
X0100500Y0256986D02*
X0094000Y0256986D01*
X0094000Y0257485D02*
X0100500Y0257485D01*
X0100500Y0257983D02*
X0094000Y0257983D01*
X0094000Y0258482D02*
X0100500Y0258482D01*
X0100500Y0258980D02*
X0094000Y0258980D01*
X0094000Y0259479D02*
X0100500Y0259479D01*
X0100500Y0259977D02*
X0094000Y0259977D01*
X0094000Y0260476D02*
X0100500Y0260476D01*
X0100500Y0260974D02*
X0094000Y0260974D01*
X0094000Y0261473D02*
X0100500Y0261473D01*
X0100500Y0261971D02*
X0094000Y0261971D01*
X0094000Y0262470D02*
X0100500Y0262470D01*
X0100500Y0262968D02*
X0094000Y0262968D01*
X0094000Y0263467D02*
X0100500Y0263467D01*
X0100060Y0263965D02*
X0094000Y0263965D01*
X0094000Y0264464D02*
X0099561Y0264464D01*
X0099063Y0264962D02*
X0094000Y0264962D01*
X0094000Y0265461D02*
X0098564Y0265461D01*
X0098066Y0265960D02*
X0094000Y0265960D01*
X0094000Y0266458D02*
X0097567Y0266458D01*
X0097069Y0266957D02*
X0094000Y0266957D01*
X0094000Y0267455D02*
X0096570Y0267455D01*
X0096072Y0267954D02*
X0094000Y0267954D01*
X0094000Y0268452D02*
X0095573Y0268452D01*
X0095075Y0268951D02*
X0094000Y0268951D01*
X0094000Y0269449D02*
X0094576Y0269449D01*
X0094078Y0269948D02*
X0094000Y0269948D01*
X0088327Y0257698D02*
X0088500Y0257525D01*
X0088500Y0230525D01*
X0089025Y0230000D01*
X0088525Y0230000D01*
X0086616Y0230000D01*
X0087657Y0231041D01*
X0088327Y0232658D01*
X0088327Y0234409D01*
X0087657Y0236026D01*
X0086419Y0237263D01*
X0085904Y0237477D01*
X0086233Y0237645D01*
X0086793Y0238052D01*
X0087283Y0238541D01*
X0087690Y0239102D01*
X0088004Y0239719D01*
X0088218Y0240377D01*
X0088327Y0241061D01*
X0088327Y0241157D01*
X0084177Y0241157D01*
X0084177Y0241657D01*
X0088327Y0241657D01*
X0088327Y0241754D01*
X0088218Y0242438D01*
X0088004Y0243096D01*
X0087690Y0243713D01*
X0087283Y0244274D01*
X0086793Y0244763D01*
X0086233Y0245170D01*
X0085904Y0245338D01*
X0086419Y0245552D01*
X0087657Y0246789D01*
X0088327Y0248406D01*
X0088327Y0250157D01*
X0087657Y0251774D01*
X0086419Y0253011D01*
X0085919Y0253218D01*
X0086419Y0253426D01*
X0087657Y0254663D01*
X0088327Y0256280D01*
X0088327Y0257698D01*
X0088327Y0257485D02*
X0088500Y0257485D01*
X0088500Y0256986D02*
X0088327Y0256986D01*
X0088327Y0256488D02*
X0088500Y0256488D01*
X0088500Y0255989D02*
X0088206Y0255989D01*
X0088000Y0255491D02*
X0088500Y0255491D01*
X0088500Y0254992D02*
X0087793Y0254992D01*
X0087487Y0254494D02*
X0088500Y0254494D01*
X0088500Y0253995D02*
X0086989Y0253995D01*
X0086490Y0253497D02*
X0088500Y0253497D01*
X0088500Y0252998D02*
X0086432Y0252998D01*
X0086931Y0252500D02*
X0088500Y0252500D01*
X0088500Y0252001D02*
X0087429Y0252001D01*
X0087769Y0251503D02*
X0088500Y0251503D01*
X0088500Y0251004D02*
X0087976Y0251004D01*
X0088182Y0250506D02*
X0088500Y0250506D01*
X0088500Y0250007D02*
X0088327Y0250007D01*
X0088327Y0249509D02*
X0088500Y0249509D01*
X0088500Y0249010D02*
X0088327Y0249010D01*
X0088327Y0248512D02*
X0088500Y0248512D01*
X0088500Y0248013D02*
X0088164Y0248013D01*
X0087957Y0247515D02*
X0088500Y0247515D01*
X0088500Y0247016D02*
X0087751Y0247016D01*
X0087385Y0246518D02*
X0088500Y0246518D01*
X0088500Y0246019D02*
X0086887Y0246019D01*
X0086344Y0245521D02*
X0088500Y0245521D01*
X0088500Y0245022D02*
X0086437Y0245022D01*
X0087033Y0244524D02*
X0088500Y0244524D01*
X0088500Y0244025D02*
X0087464Y0244025D01*
X0087785Y0243527D02*
X0088500Y0243527D01*
X0088500Y0243028D02*
X0088027Y0243028D01*
X0088189Y0242529D02*
X0088500Y0242529D01*
X0088500Y0242031D02*
X0088283Y0242031D01*
X0088500Y0241532D02*
X0084177Y0241532D01*
X0083677Y0241532D02*
X0053442Y0241532D01*
X0053941Y0241034D02*
X0079532Y0241034D01*
X0079528Y0241061D02*
X0079636Y0240377D01*
X0079654Y0240321D01*
X0078975Y0241000D01*
X0068525Y0241000D01*
X0067500Y0239975D01*
X0061500Y0233975D01*
X0061500Y0232475D01*
X0056000Y0237975D01*
X0056000Y0238975D01*
X0051993Y0242982D01*
X0052853Y0243843D01*
X0053500Y0245405D01*
X0053500Y0247095D01*
X0052853Y0248657D01*
X0052010Y0249500D01*
X0056975Y0249500D01*
X0062943Y0255468D01*
X0063189Y0254873D01*
X0063873Y0254189D01*
X0064766Y0253819D01*
X0065734Y0253819D01*
X0066627Y0254189D01*
X0066938Y0254500D01*
X0076975Y0254500D01*
X0079528Y0257053D01*
X0079528Y0256280D01*
X0080197Y0254663D01*
X0081435Y0253426D01*
X0081935Y0253218D01*
X0081435Y0253011D01*
X0080197Y0251774D01*
X0079528Y0250157D01*
X0079528Y0248406D01*
X0080197Y0246789D01*
X0081435Y0245552D01*
X0081951Y0245338D01*
X0081621Y0245170D01*
X0081061Y0244763D01*
X0080571Y0244274D01*
X0080164Y0243713D01*
X0079850Y0243096D01*
X0079636Y0242438D01*
X0079528Y0241754D01*
X0079528Y0241657D01*
X0083677Y0241657D01*
X0083677Y0241157D01*
X0079528Y0241157D01*
X0079528Y0241061D01*
X0079611Y0240535D02*
X0079439Y0240535D01*
X0079571Y0242031D02*
X0052944Y0242031D01*
X0052445Y0242529D02*
X0079666Y0242529D01*
X0079828Y0243028D02*
X0052038Y0243028D01*
X0052537Y0243527D02*
X0080069Y0243527D01*
X0080391Y0244025D02*
X0052929Y0244025D01*
X0053135Y0244524D02*
X0080821Y0244524D01*
X0081417Y0245022D02*
X0053342Y0245022D01*
X0053500Y0245521D02*
X0081510Y0245521D01*
X0080968Y0246019D02*
X0053500Y0246019D01*
X0053500Y0246518D02*
X0080469Y0246518D01*
X0080103Y0247016D02*
X0053500Y0247016D01*
X0053326Y0247515D02*
X0079897Y0247515D01*
X0079690Y0248013D02*
X0053120Y0248013D01*
X0052913Y0248512D02*
X0079528Y0248512D01*
X0079528Y0249010D02*
X0052500Y0249010D01*
X0056984Y0249509D02*
X0079528Y0249509D01*
X0079528Y0250007D02*
X0057482Y0250007D01*
X0057981Y0250506D02*
X0079672Y0250506D01*
X0079879Y0251004D02*
X0058479Y0251004D01*
X0058978Y0251503D02*
X0080085Y0251503D01*
X0080425Y0252001D02*
X0059476Y0252001D01*
X0059975Y0252500D02*
X0080923Y0252500D01*
X0081422Y0252998D02*
X0060473Y0252998D01*
X0060972Y0253497D02*
X0081364Y0253497D01*
X0080865Y0253995D02*
X0066159Y0253995D01*
X0066932Y0254494D02*
X0080367Y0254494D01*
X0080061Y0254992D02*
X0077467Y0254992D01*
X0077966Y0255491D02*
X0079855Y0255491D01*
X0079648Y0255989D02*
X0078464Y0255989D01*
X0078963Y0256488D02*
X0079528Y0256488D01*
X0079528Y0256986D02*
X0079461Y0256986D01*
X0088322Y0241034D02*
X0088500Y0241034D01*
X0088500Y0240535D02*
X0088243Y0240535D01*
X0088108Y0240037D02*
X0088500Y0240037D01*
X0088500Y0239538D02*
X0087913Y0239538D01*
X0087645Y0239040D02*
X0088500Y0239040D01*
X0088500Y0238541D02*
X0087283Y0238541D01*
X0086781Y0238043D02*
X0088500Y0238043D01*
X0088500Y0237544D02*
X0086036Y0237544D01*
X0086637Y0237046D02*
X0088500Y0237046D01*
X0088500Y0236547D02*
X0087135Y0236547D01*
X0087634Y0236049D02*
X0088500Y0236049D01*
X0088500Y0235550D02*
X0087854Y0235550D01*
X0088060Y0235052D02*
X0088500Y0235052D01*
X0088500Y0234553D02*
X0088267Y0234553D01*
X0088327Y0234055D02*
X0088500Y0234055D01*
X0088500Y0233556D02*
X0088327Y0233556D01*
X0088327Y0233058D02*
X0088500Y0233058D01*
X0088500Y0232559D02*
X0088286Y0232559D01*
X0088079Y0232061D02*
X0088500Y0232061D01*
X0088500Y0231562D02*
X0087873Y0231562D01*
X0087666Y0231064D02*
X0088500Y0231064D01*
X0088500Y0230565D02*
X0087181Y0230565D01*
X0086682Y0230067D02*
X0088958Y0230067D01*
X0104000Y0208132D02*
X0104206Y0208132D01*
X0104000Y0207634D02*
X0104704Y0207634D01*
X0106000Y0207634D02*
X0106500Y0207634D01*
X0106500Y0208132D02*
X0106000Y0208132D01*
X0106000Y0208631D02*
X0106500Y0208631D01*
X0106500Y0209129D02*
X0106000Y0209129D01*
X0106000Y0209628D02*
X0106500Y0209628D01*
X0106500Y0210126D02*
X0106000Y0210126D01*
X0106000Y0210625D02*
X0106500Y0210625D01*
X0106000Y0215610D02*
X0107415Y0215610D01*
X0106917Y0216108D02*
X0106000Y0216108D01*
X0106000Y0216607D02*
X0106418Y0216607D01*
X0114000Y0220595D02*
X0114570Y0220595D01*
X0113140Y0230565D02*
X0112410Y0230565D01*
X0111911Y0231064D02*
X0113502Y0231064D01*
X0114039Y0231562D02*
X0111413Y0231562D01*
X0122621Y0212879D02*
X0122766Y0212819D01*
X0123734Y0212819D01*
X0124627Y0213189D01*
X0125311Y0213873D01*
X0125681Y0214766D01*
X0125681Y0215206D01*
X0127063Y0216588D01*
X0127063Y0215417D01*
X0127700Y0213878D01*
X0128878Y0212700D01*
X0130417Y0212063D01*
X0132083Y0212063D01*
X0133622Y0212700D01*
X0134800Y0213878D01*
X0135437Y0215417D01*
X0135437Y0217083D01*
X0134800Y0218622D01*
X0133622Y0219800D01*
X0132083Y0220437D01*
X0130912Y0220437D01*
X0132000Y0221525D01*
X0132000Y0230975D01*
X0130975Y0232000D01*
X0130975Y0232000D01*
X0124000Y0238975D01*
X0124000Y0250938D01*
X0124182Y0250756D01*
X0125524Y0250200D01*
X0126976Y0250200D01*
X0128318Y0250756D01*
X0129344Y0251782D01*
X0129900Y0253124D01*
X0129900Y0254500D01*
X0142158Y0254500D01*
X0141782Y0254344D01*
X0140756Y0253318D01*
X0140200Y0251976D01*
X0140200Y0250524D01*
X0140756Y0249182D01*
X0141782Y0248156D01*
X0143124Y0247600D01*
X0149376Y0247600D01*
X0150718Y0248156D01*
X0151744Y0249182D01*
X0152300Y0250524D01*
X0152300Y0251976D01*
X0151744Y0253318D01*
X0150718Y0254344D01*
X0150342Y0254500D01*
X0162525Y0254500D01*
X0172418Y0244607D01*
X0172121Y0244485D01*
X0171523Y0244085D01*
X0171015Y0243577D01*
X0170615Y0242979D01*
X0170340Y0242315D01*
X0170200Y0241609D01*
X0170200Y0241500D01*
X0176000Y0241500D01*
X0176000Y0241000D01*
X0176500Y0241000D01*
X0176500Y0237600D01*
X0179009Y0237600D01*
X0179715Y0237740D01*
X0180379Y0238015D01*
X0180977Y0238415D01*
X0181485Y0238923D01*
X0181500Y0238946D01*
X0181500Y0233562D01*
X0180718Y0234344D01*
X0179376Y0234900D01*
X0173124Y0234900D01*
X0171782Y0234344D01*
X0170756Y0233318D01*
X0170200Y0231976D01*
X0170200Y0230524D01*
X0170756Y0229182D01*
X0171782Y0228156D01*
X0173124Y0227600D01*
X0179376Y0227600D01*
X0180718Y0228156D01*
X0181500Y0228938D01*
X0181500Y0223554D01*
X0181485Y0223577D01*
X0180977Y0224085D01*
X0180379Y0224485D01*
X0179715Y0224760D01*
X0179009Y0224900D01*
X0176500Y0224900D01*
X0176500Y0221500D01*
X0176000Y0221500D01*
X0176000Y0224900D01*
X0173490Y0224900D01*
X0172785Y0224760D01*
X0172121Y0224485D01*
X0171523Y0224085D01*
X0171015Y0223577D01*
X0170615Y0222979D01*
X0170340Y0222315D01*
X0170200Y0221609D01*
X0170200Y0221500D01*
X0176000Y0221500D01*
X0176000Y0221000D01*
X0176500Y0221000D01*
X0176500Y0217600D01*
X0179009Y0217600D01*
X0179715Y0217740D01*
X0180379Y0218015D01*
X0180977Y0218415D01*
X0181485Y0218923D01*
X0181500Y0218946D01*
X0181500Y0213562D01*
X0180718Y0214344D01*
X0179376Y0214900D01*
X0173124Y0214900D01*
X0171782Y0214344D01*
X0170756Y0213318D01*
X0170200Y0211976D01*
X0170200Y0210524D01*
X0170756Y0209182D01*
X0171782Y0208156D01*
X0173124Y0207600D01*
X0179376Y0207600D01*
X0180718Y0208156D01*
X0181500Y0208938D01*
X0181500Y0203554D01*
X0181485Y0203577D01*
X0180977Y0204085D01*
X0180379Y0204485D01*
X0179715Y0204760D01*
X0179009Y0204900D01*
X0176500Y0204900D01*
X0176500Y0201500D01*
X0176000Y0201500D01*
X0176000Y0204900D01*
X0173490Y0204900D01*
X0172785Y0204760D01*
X0172121Y0204485D01*
X0171523Y0204085D01*
X0171015Y0203577D01*
X0170615Y0202979D01*
X0170340Y0202315D01*
X0170200Y0201609D01*
X0170200Y0201500D01*
X0176000Y0201500D01*
X0176000Y0201000D01*
X0176500Y0201000D01*
X0176500Y0197600D01*
X0179009Y0197600D01*
X0179715Y0197740D01*
X0180379Y0198015D01*
X0180977Y0198415D01*
X0181485Y0198923D01*
X0181500Y0198946D01*
X0181500Y0193562D01*
X0180718Y0194344D01*
X0179376Y0194900D01*
X0173124Y0194900D01*
X0171782Y0194344D01*
X0170756Y0193318D01*
X0170200Y0191976D01*
X0170200Y0190524D01*
X0170756Y0189182D01*
X0171782Y0188156D01*
X0173124Y0187600D01*
X0177178Y0187600D01*
X0176819Y0186734D01*
X0176819Y0185766D01*
X0177189Y0184873D01*
X0177500Y0184562D01*
X0177500Y0162975D01*
X0175500Y0160975D01*
X0175500Y0163010D01*
X0173010Y0165500D01*
X0169490Y0165500D01*
X0169482Y0165493D01*
X0164000Y0170975D01*
X0164000Y0178338D01*
X0164738Y0177600D01*
X0166000Y0177600D01*
X0166000Y0181000D01*
X0166500Y0181000D01*
X0166500Y0181500D01*
X0166000Y0181500D01*
X0166000Y0184900D01*
X0164738Y0184900D01*
X0164000Y0184162D01*
X0164000Y0233975D01*
X0162975Y0235000D01*
X0150975Y0247000D01*
X0141525Y0247000D01*
X0140500Y0245975D01*
X0136500Y0241975D01*
X0136500Y0231938D01*
X0136189Y0231627D01*
X0135819Y0230734D01*
X0135819Y0229766D01*
X0136189Y0228873D01*
X0136873Y0228189D01*
X0137766Y0227819D01*
X0138734Y0227819D01*
X0139627Y0228189D01*
X0140311Y0228873D01*
X0140597Y0229564D01*
X0140615Y0229521D01*
X0141015Y0228923D01*
X0141523Y0228415D01*
X0142121Y0228015D01*
X0142785Y0227740D01*
X0143490Y0227600D01*
X0146000Y0227600D01*
X0146000Y0231000D01*
X0146500Y0231000D01*
X0146500Y0227600D01*
X0149009Y0227600D01*
X0149715Y0227740D01*
X0150379Y0228015D01*
X0150977Y0228415D01*
X0151485Y0228923D01*
X0151500Y0228946D01*
X0151500Y0223562D01*
X0150718Y0224344D01*
X0149376Y0224900D01*
X0143124Y0224900D01*
X0141782Y0224344D01*
X0140756Y0223318D01*
X0140200Y0221976D01*
X0140200Y0220524D01*
X0140756Y0219182D01*
X0141782Y0218156D01*
X0143124Y0217600D01*
X0149376Y0217600D01*
X0150718Y0218156D01*
X0151500Y0218938D01*
X0151500Y0213554D01*
X0151485Y0213577D01*
X0150977Y0214085D01*
X0150379Y0214485D01*
X0149715Y0214760D01*
X0149009Y0214900D01*
X0146500Y0214900D01*
X0146500Y0211500D01*
X0146000Y0211500D01*
X0146000Y0214900D01*
X0143490Y0214900D01*
X0142785Y0214760D01*
X0142121Y0214485D01*
X0141523Y0214085D01*
X0141015Y0213577D01*
X0140615Y0212979D01*
X0140340Y0212315D01*
X0140200Y0211609D01*
X0140200Y0211500D01*
X0146000Y0211500D01*
X0146000Y0211000D01*
X0146500Y0211000D01*
X0146500Y0207600D01*
X0149009Y0207600D01*
X0149715Y0207740D01*
X0150379Y0208015D01*
X0150977Y0208415D01*
X0151485Y0208923D01*
X0151500Y0208946D01*
X0151500Y0203562D01*
X0150718Y0204344D01*
X0149376Y0204900D01*
X0143124Y0204900D01*
X0141782Y0204344D01*
X0140756Y0203318D01*
X0140200Y0201976D01*
X0140200Y0200524D01*
X0140756Y0199182D01*
X0141782Y0198156D01*
X0143124Y0197600D01*
X0149376Y0197600D01*
X0150718Y0198156D01*
X0151500Y0198938D01*
X0151500Y0193554D01*
X0151485Y0193577D01*
X0150977Y0194085D01*
X0150379Y0194485D01*
X0149715Y0194760D01*
X0149009Y0194900D01*
X0146500Y0194900D01*
X0146500Y0191500D01*
X0146000Y0191500D01*
X0146000Y0194900D01*
X0143490Y0194900D01*
X0142785Y0194760D01*
X0142121Y0194485D01*
X0141523Y0194085D01*
X0141015Y0193577D01*
X0140615Y0192979D01*
X0140340Y0192315D01*
X0140200Y0191609D01*
X0140200Y0191500D01*
X0146000Y0191500D01*
X0146000Y0191000D01*
X0146500Y0191000D01*
X0146500Y0187600D01*
X0149009Y0187600D01*
X0149715Y0187740D01*
X0150379Y0188015D01*
X0150500Y0188096D01*
X0150500Y0178525D01*
X0151525Y0177500D01*
X0154500Y0174525D01*
X0154500Y0165475D01*
X0135840Y0184135D01*
X0136300Y0185245D01*
X0136300Y0187255D01*
X0135531Y0189111D01*
X0134111Y0190531D01*
X0132375Y0191250D01*
X0134111Y0191969D01*
X0135531Y0193389D01*
X0136300Y0195245D01*
X0136300Y0197255D01*
X0135531Y0199111D01*
X0134111Y0200531D01*
X0132375Y0201250D01*
X0134111Y0201969D01*
X0135531Y0203389D01*
X0136300Y0205245D01*
X0136300Y0207255D01*
X0135531Y0209111D01*
X0134111Y0210531D01*
X0132255Y0211300D01*
X0130245Y0211300D01*
X0128389Y0210531D01*
X0126969Y0209111D01*
X0126200Y0207255D01*
X0126200Y0205245D01*
X0126533Y0204442D01*
X0125975Y0205000D01*
X0121032Y0209943D01*
X0121627Y0210189D01*
X0122311Y0210873D01*
X0122681Y0211766D01*
X0122681Y0212734D01*
X0122621Y0212879D01*
X0122681Y0212619D02*
X0129075Y0212619D01*
X0128461Y0213117D02*
X0124454Y0213117D01*
X0125054Y0213616D02*
X0127963Y0213616D01*
X0127603Y0214114D02*
X0125411Y0214114D01*
X0125617Y0214613D02*
X0127396Y0214613D01*
X0127190Y0215111D02*
X0125681Y0215111D01*
X0126085Y0215610D02*
X0127063Y0215610D01*
X0127063Y0216108D02*
X0126583Y0216108D01*
X0130279Y0212120D02*
X0122681Y0212120D01*
X0122621Y0211622D02*
X0140202Y0211622D01*
X0140302Y0212120D02*
X0132221Y0212120D01*
X0132681Y0211123D02*
X0146000Y0211123D01*
X0146000Y0211000D02*
X0140200Y0211000D01*
X0140200Y0210890D01*
X0140340Y0210185D01*
X0140615Y0209521D01*
X0141015Y0208923D01*
X0141523Y0208415D01*
X0142121Y0208015D01*
X0142785Y0207740D01*
X0143490Y0207600D01*
X0146000Y0207600D01*
X0146000Y0211000D01*
X0146000Y0210625D02*
X0146500Y0210625D01*
X0146500Y0210126D02*
X0146000Y0210126D01*
X0146000Y0209628D02*
X0146500Y0209628D01*
X0146500Y0209129D02*
X0146000Y0209129D01*
X0146000Y0208631D02*
X0146500Y0208631D01*
X0146500Y0208132D02*
X0146000Y0208132D01*
X0146000Y0207634D02*
X0146500Y0207634D01*
X0149179Y0207634D02*
X0151500Y0207634D01*
X0151500Y0208132D02*
X0150554Y0208132D01*
X0151193Y0208631D02*
X0151500Y0208631D01*
X0151500Y0207135D02*
X0136300Y0207135D01*
X0136300Y0206637D02*
X0151500Y0206637D01*
X0151500Y0206138D02*
X0136300Y0206138D01*
X0136300Y0205640D02*
X0151500Y0205640D01*
X0151500Y0205141D02*
X0136257Y0205141D01*
X0136050Y0204643D02*
X0142503Y0204643D01*
X0141582Y0204144D02*
X0135844Y0204144D01*
X0135637Y0203646D02*
X0141084Y0203646D01*
X0140685Y0203147D02*
X0135289Y0203147D01*
X0134790Y0202649D02*
X0140479Y0202649D01*
X0140272Y0202150D02*
X0134292Y0202150D01*
X0133345Y0201652D02*
X0140200Y0201652D01*
X0140200Y0201153D02*
X0132609Y0201153D01*
X0133813Y0200655D02*
X0140200Y0200655D01*
X0140352Y0200156D02*
X0134486Y0200156D01*
X0134984Y0199658D02*
X0140559Y0199658D01*
X0140779Y0199159D02*
X0135483Y0199159D01*
X0135718Y0198660D02*
X0141278Y0198660D01*
X0141776Y0198162D02*
X0135924Y0198162D01*
X0136131Y0197663D02*
X0142971Y0197663D01*
X0142575Y0194672D02*
X0136063Y0194672D01*
X0135856Y0194174D02*
X0141656Y0194174D01*
X0141113Y0193675D02*
X0135650Y0193675D01*
X0135319Y0193177D02*
X0140748Y0193177D01*
X0140491Y0192678D02*
X0134820Y0192678D01*
X0134322Y0192180D02*
X0140313Y0192180D01*
X0140214Y0191681D02*
X0133417Y0191681D01*
X0132537Y0191183D02*
X0146000Y0191183D01*
X0146000Y0191000D02*
X0140200Y0191000D01*
X0140200Y0190890D01*
X0140340Y0190185D01*
X0140615Y0189521D01*
X0141015Y0188923D01*
X0141523Y0188415D01*
X0142121Y0188015D01*
X0142785Y0187740D01*
X0143490Y0187600D01*
X0146000Y0187600D01*
X0146000Y0191000D01*
X0146000Y0190684D02*
X0146500Y0190684D01*
X0146500Y0190186D02*
X0146000Y0190186D01*
X0146000Y0189687D02*
X0146500Y0189687D01*
X0146500Y0189189D02*
X0146000Y0189189D01*
X0146000Y0188690D02*
X0146500Y0188690D01*
X0146500Y0188192D02*
X0146000Y0188192D01*
X0146000Y0187693D02*
X0146500Y0187693D01*
X0149478Y0187693D02*
X0150500Y0187693D01*
X0150500Y0187195D02*
X0136300Y0187195D01*
X0136300Y0186696D02*
X0150500Y0186696D01*
X0150500Y0186198D02*
X0136300Y0186198D01*
X0136300Y0185699D02*
X0150500Y0185699D01*
X0150500Y0185201D02*
X0136281Y0185201D01*
X0136075Y0184702D02*
X0150500Y0184702D01*
X0150500Y0184204D02*
X0135868Y0184204D01*
X0136270Y0183705D02*
X0150500Y0183705D01*
X0150500Y0183207D02*
X0136768Y0183207D01*
X0137267Y0182708D02*
X0150500Y0182708D01*
X0150500Y0182210D02*
X0137765Y0182210D01*
X0138264Y0181711D02*
X0150500Y0181711D01*
X0150500Y0181213D02*
X0138762Y0181213D01*
X0139261Y0180714D02*
X0150500Y0180714D01*
X0150500Y0180216D02*
X0139759Y0180216D01*
X0140258Y0179717D02*
X0150500Y0179717D01*
X0150500Y0179219D02*
X0140756Y0179219D01*
X0141255Y0178720D02*
X0150500Y0178720D01*
X0150804Y0178222D02*
X0141753Y0178222D01*
X0142252Y0177723D02*
X0151302Y0177723D01*
X0151801Y0177224D02*
X0142750Y0177224D01*
X0143249Y0176726D02*
X0152299Y0176726D01*
X0152798Y0176227D02*
X0143747Y0176227D01*
X0144246Y0175729D02*
X0153296Y0175729D01*
X0153795Y0175230D02*
X0144744Y0175230D01*
X0145243Y0174732D02*
X0154293Y0174732D01*
X0154500Y0174233D02*
X0145741Y0174233D01*
X0146240Y0173735D02*
X0154500Y0173735D01*
X0154500Y0173236D02*
X0146738Y0173236D01*
X0147237Y0172738D02*
X0154500Y0172738D01*
X0154500Y0172239D02*
X0147735Y0172239D01*
X0148234Y0171741D02*
X0154500Y0171741D01*
X0154500Y0171242D02*
X0148732Y0171242D01*
X0149231Y0170744D02*
X0154500Y0170744D01*
X0154500Y0170245D02*
X0149730Y0170245D01*
X0150228Y0169747D02*
X0154500Y0169747D01*
X0154500Y0169248D02*
X0150727Y0169248D01*
X0151225Y0168750D02*
X0154500Y0168750D01*
X0154500Y0168251D02*
X0151724Y0168251D01*
X0152222Y0167753D02*
X0154500Y0167753D01*
X0154500Y0167254D02*
X0152721Y0167254D01*
X0153219Y0166756D02*
X0154500Y0166756D01*
X0154500Y0166257D02*
X0153718Y0166257D01*
X0154216Y0165759D02*
X0154500Y0165759D01*
X0152500Y0158493D02*
X0152500Y0154010D01*
X0151657Y0154853D01*
X0150095Y0155500D01*
X0142405Y0155500D01*
X0140843Y0154853D01*
X0139647Y0153657D01*
X0139000Y0152095D01*
X0139000Y0150405D01*
X0139647Y0148843D01*
X0140843Y0147647D01*
X0142405Y0147000D01*
X0150095Y0147000D01*
X0151657Y0147647D01*
X0152500Y0148490D01*
X0152500Y0144010D01*
X0151657Y0144853D01*
X0150095Y0145500D01*
X0142405Y0145500D01*
X0140843Y0144853D01*
X0139647Y0143657D01*
X0139000Y0142095D01*
X0139000Y0140405D01*
X0139647Y0138843D01*
X0140507Y0137982D01*
X0137206Y0134681D01*
X0136766Y0134681D01*
X0135921Y0134331D01*
X0136300Y0135245D01*
X0136300Y0137255D01*
X0135531Y0139111D01*
X0134111Y0140531D01*
X0132375Y0141250D01*
X0134111Y0141969D01*
X0135531Y0143389D01*
X0136300Y0145245D01*
X0136300Y0147255D01*
X0135531Y0149111D01*
X0134111Y0150531D01*
X0132375Y0151250D01*
X0134111Y0151969D01*
X0135531Y0153389D01*
X0136300Y0155245D01*
X0136300Y0157255D01*
X0135531Y0159111D01*
X0134111Y0160531D01*
X0132375Y0161250D01*
X0134111Y0161969D01*
X0135531Y0163389D01*
X0136300Y0165245D01*
X0136300Y0167255D01*
X0135531Y0169111D01*
X0134111Y0170531D01*
X0132261Y0171297D01*
X0132433Y0171324D01*
X0133189Y0171570D01*
X0133897Y0171931D01*
X0134540Y0172398D01*
X0135102Y0172960D01*
X0135569Y0173603D01*
X0135930Y0174311D01*
X0136176Y0175067D01*
X0136300Y0175853D01*
X0136300Y0176000D01*
X0131500Y0176000D01*
X0131500Y0176500D01*
X0136300Y0176500D01*
X0136300Y0176647D01*
X0136176Y0177433D01*
X0135930Y0178189D01*
X0135569Y0178897D01*
X0135102Y0179540D01*
X0134540Y0180102D01*
X0133897Y0180569D01*
X0133189Y0180930D01*
X0132433Y0181176D01*
X0132261Y0181203D01*
X0133365Y0181660D01*
X0149525Y0165500D01*
X0146500Y0165500D01*
X0146500Y0161500D01*
X0146000Y0161500D01*
X0146000Y0165500D01*
X0142916Y0165500D01*
X0142255Y0165395D01*
X0141619Y0165189D01*
X0141023Y0164885D01*
X0140481Y0164492D01*
X0140008Y0164019D01*
X0139615Y0163477D01*
X0139311Y0162881D01*
X0139105Y0162245D01*
X0139000Y0161584D01*
X0139000Y0161500D01*
X0146000Y0161500D01*
X0146000Y0161000D01*
X0146500Y0161000D01*
X0146500Y0157000D01*
X0149584Y0157000D01*
X0150245Y0157105D01*
X0150881Y0157311D01*
X0151477Y0157615D01*
X0152019Y0158008D01*
X0152492Y0158481D01*
X0152500Y0158493D01*
X0152500Y0158281D02*
X0152291Y0158281D01*
X0152500Y0157783D02*
X0151708Y0157783D01*
X0152500Y0157284D02*
X0150797Y0157284D01*
X0152500Y0156786D02*
X0136300Y0156786D01*
X0136288Y0157284D02*
X0141703Y0157284D01*
X0141619Y0157311D02*
X0142255Y0157105D01*
X0142916Y0157000D01*
X0146000Y0157000D01*
X0146000Y0161000D01*
X0139000Y0161000D01*
X0139000Y0160916D01*
X0139105Y0160255D01*
X0139311Y0159619D01*
X0139615Y0159023D01*
X0140008Y0158481D01*
X0140481Y0158008D01*
X0141023Y0157615D01*
X0141619Y0157311D01*
X0140792Y0157783D02*
X0136081Y0157783D01*
X0135875Y0158281D02*
X0140209Y0158281D01*
X0139792Y0158780D02*
X0135668Y0158780D01*
X0135364Y0159278D02*
X0139485Y0159278D01*
X0139260Y0159777D02*
X0134865Y0159777D01*
X0134367Y0160275D02*
X0139101Y0160275D01*
X0139022Y0160774D02*
X0133525Y0160774D01*
X0133632Y0161771D02*
X0139029Y0161771D01*
X0139112Y0162269D02*
X0134411Y0162269D01*
X0134909Y0162768D02*
X0139274Y0162768D01*
X0139507Y0163266D02*
X0135408Y0163266D01*
X0135687Y0163765D02*
X0139824Y0163765D01*
X0140253Y0164263D02*
X0135893Y0164263D01*
X0136100Y0164762D02*
X0140853Y0164762D01*
X0141839Y0165260D02*
X0136300Y0165260D01*
X0136300Y0165759D02*
X0149266Y0165759D01*
X0148768Y0166257D02*
X0136300Y0166257D01*
X0136300Y0166756D02*
X0148269Y0166756D01*
X0147771Y0167254D02*
X0136300Y0167254D01*
X0136094Y0167753D02*
X0147272Y0167753D01*
X0146774Y0168251D02*
X0135887Y0168251D01*
X0135681Y0168750D02*
X0146275Y0168750D01*
X0145777Y0169248D02*
X0135393Y0169248D01*
X0134895Y0169747D02*
X0145278Y0169747D01*
X0144780Y0170245D02*
X0134396Y0170245D01*
X0133597Y0170744D02*
X0144281Y0170744D01*
X0143783Y0171242D02*
X0132394Y0171242D01*
X0133524Y0171741D02*
X0143284Y0171741D01*
X0142786Y0172239D02*
X0134321Y0172239D01*
X0134880Y0172738D02*
X0142287Y0172738D01*
X0141789Y0173236D02*
X0135303Y0173236D01*
X0135636Y0173735D02*
X0141290Y0173735D01*
X0140792Y0174233D02*
X0135890Y0174233D01*
X0136067Y0174732D02*
X0140293Y0174732D01*
X0139795Y0175230D02*
X0136201Y0175230D01*
X0136280Y0175729D02*
X0139296Y0175729D01*
X0138798Y0176227D02*
X0131500Y0176227D01*
X0134925Y0179717D02*
X0135308Y0179717D01*
X0135335Y0179219D02*
X0135807Y0179219D01*
X0135659Y0178720D02*
X0136305Y0178720D01*
X0135913Y0178222D02*
X0136804Y0178222D01*
X0137302Y0177723D02*
X0136081Y0177723D01*
X0136209Y0177224D02*
X0137801Y0177224D01*
X0138299Y0176726D02*
X0136288Y0176726D01*
X0134810Y0180216D02*
X0134383Y0180216D01*
X0134311Y0180714D02*
X0133612Y0180714D01*
X0133813Y0181213D02*
X0132285Y0181213D01*
X0136118Y0187693D02*
X0143022Y0187693D01*
X0141857Y0188192D02*
X0135912Y0188192D01*
X0135705Y0188690D02*
X0141248Y0188690D01*
X0140837Y0189189D02*
X0135453Y0189189D01*
X0134954Y0189687D02*
X0140547Y0189687D01*
X0140340Y0190186D02*
X0134456Y0190186D01*
X0133741Y0190684D02*
X0140241Y0190684D01*
X0136269Y0195171D02*
X0151500Y0195171D01*
X0151500Y0195669D02*
X0136300Y0195669D01*
X0136300Y0196168D02*
X0151500Y0196168D01*
X0151500Y0196666D02*
X0136300Y0196666D01*
X0136300Y0197165D02*
X0151500Y0197165D01*
X0151500Y0197663D02*
X0149529Y0197663D01*
X0150724Y0198162D02*
X0151500Y0198162D01*
X0151500Y0198660D02*
X0151222Y0198660D01*
X0151500Y0194672D02*
X0149925Y0194672D01*
X0150844Y0194174D02*
X0151500Y0194174D01*
X0151500Y0193675D02*
X0151386Y0193675D01*
X0146500Y0193675D02*
X0146000Y0193675D01*
X0146000Y0193177D02*
X0146500Y0193177D01*
X0146500Y0192678D02*
X0146000Y0192678D01*
X0146000Y0192180D02*
X0146500Y0192180D01*
X0146500Y0191681D02*
X0146000Y0191681D01*
X0146000Y0194174D02*
X0146500Y0194174D01*
X0146500Y0194672D02*
X0146000Y0194672D01*
X0151416Y0203646D02*
X0151500Y0203646D01*
X0151500Y0204144D02*
X0150918Y0204144D01*
X0151500Y0204643D02*
X0149997Y0204643D01*
X0143321Y0207634D02*
X0136143Y0207634D01*
X0135936Y0208132D02*
X0141946Y0208132D01*
X0141307Y0208631D02*
X0135730Y0208631D01*
X0135513Y0209129D02*
X0140877Y0209129D01*
X0140571Y0209628D02*
X0135014Y0209628D01*
X0134516Y0210126D02*
X0140365Y0210126D01*
X0140253Y0210625D02*
X0133885Y0210625D01*
X0133425Y0212619D02*
X0140466Y0212619D01*
X0140708Y0213117D02*
X0134039Y0213117D01*
X0134537Y0213616D02*
X0141054Y0213616D01*
X0141567Y0214114D02*
X0134897Y0214114D01*
X0135104Y0214613D02*
X0142431Y0214613D01*
X0143115Y0217604D02*
X0135221Y0217604D01*
X0135015Y0218102D02*
X0141911Y0218102D01*
X0141337Y0218601D02*
X0134808Y0218601D01*
X0134322Y0219099D02*
X0140839Y0219099D01*
X0140584Y0219598D02*
X0133823Y0219598D01*
X0132905Y0220096D02*
X0140377Y0220096D01*
X0140200Y0220595D02*
X0131070Y0220595D01*
X0131568Y0221093D02*
X0140200Y0221093D01*
X0140200Y0221592D02*
X0132000Y0221592D01*
X0132000Y0222091D02*
X0140247Y0222091D01*
X0140454Y0222589D02*
X0132000Y0222589D01*
X0132000Y0223088D02*
X0140660Y0223088D01*
X0141024Y0223586D02*
X0132000Y0223586D01*
X0132000Y0224085D02*
X0141523Y0224085D01*
X0142359Y0224583D02*
X0132000Y0224583D01*
X0132000Y0225082D02*
X0151500Y0225082D01*
X0151500Y0225580D02*
X0132000Y0225580D01*
X0132000Y0226079D02*
X0151500Y0226079D01*
X0151500Y0226577D02*
X0132000Y0226577D01*
X0132000Y0227076D02*
X0151500Y0227076D01*
X0151500Y0227574D02*
X0132000Y0227574D01*
X0132000Y0228073D02*
X0137154Y0228073D01*
X0136491Y0228571D02*
X0132000Y0228571D01*
X0132000Y0229070D02*
X0136107Y0229070D01*
X0135901Y0229568D02*
X0132000Y0229568D01*
X0132000Y0230067D02*
X0135819Y0230067D01*
X0135819Y0230565D02*
X0132000Y0230565D01*
X0131911Y0231064D02*
X0135956Y0231064D01*
X0136162Y0231562D02*
X0131413Y0231562D01*
X0130914Y0232061D02*
X0136500Y0232061D01*
X0136500Y0232559D02*
X0130416Y0232559D01*
X0129917Y0233058D02*
X0136500Y0233058D01*
X0136500Y0233556D02*
X0129419Y0233556D01*
X0128920Y0234055D02*
X0136500Y0234055D01*
X0136500Y0234553D02*
X0128422Y0234553D01*
X0127923Y0235052D02*
X0136500Y0235052D01*
X0136500Y0235550D02*
X0127425Y0235550D01*
X0126926Y0236049D02*
X0136500Y0236049D01*
X0136500Y0236547D02*
X0126428Y0236547D01*
X0125929Y0237046D02*
X0136500Y0237046D01*
X0136500Y0237544D02*
X0125430Y0237544D01*
X0124932Y0238043D02*
X0136500Y0238043D01*
X0136500Y0238541D02*
X0124433Y0238541D01*
X0124000Y0239040D02*
X0136500Y0239040D01*
X0136500Y0239538D02*
X0124000Y0239538D01*
X0124000Y0240037D02*
X0136500Y0240037D01*
X0136500Y0240535D02*
X0124000Y0240535D01*
X0124000Y0241034D02*
X0136500Y0241034D01*
X0136500Y0241532D02*
X0124000Y0241532D01*
X0124000Y0242031D02*
X0136556Y0242031D01*
X0137055Y0242529D02*
X0124000Y0242529D01*
X0124000Y0243028D02*
X0137553Y0243028D01*
X0138052Y0243527D02*
X0124000Y0243527D01*
X0124000Y0244025D02*
X0138550Y0244025D01*
X0139049Y0244524D02*
X0124000Y0244524D01*
X0124000Y0245022D02*
X0139547Y0245022D01*
X0140046Y0245521D02*
X0124000Y0245521D01*
X0124000Y0246019D02*
X0140544Y0246019D01*
X0141043Y0246518D02*
X0124000Y0246518D01*
X0124000Y0247016D02*
X0170009Y0247016D01*
X0170508Y0246518D02*
X0151457Y0246518D01*
X0151956Y0246019D02*
X0171006Y0246019D01*
X0171505Y0245521D02*
X0152454Y0245521D01*
X0152953Y0245022D02*
X0172003Y0245022D01*
X0172215Y0244524D02*
X0153451Y0244524D01*
X0153950Y0244025D02*
X0171463Y0244025D01*
X0170981Y0243527D02*
X0154448Y0243527D01*
X0154947Y0243028D02*
X0170648Y0243028D01*
X0170429Y0242529D02*
X0155445Y0242529D01*
X0155944Y0242031D02*
X0170284Y0242031D01*
X0170200Y0241532D02*
X0156442Y0241532D01*
X0156941Y0241034D02*
X0176000Y0241034D01*
X0176000Y0241000D02*
X0170200Y0241000D01*
X0170200Y0240890D01*
X0170340Y0240185D01*
X0170615Y0239521D01*
X0171015Y0238923D01*
X0171523Y0238415D01*
X0172121Y0238015D01*
X0172785Y0237740D01*
X0173490Y0237600D01*
X0176000Y0237600D01*
X0176000Y0241000D01*
X0176000Y0240535D02*
X0176500Y0240535D01*
X0176500Y0240037D02*
X0176000Y0240037D01*
X0176000Y0239538D02*
X0176500Y0239538D01*
X0176500Y0239040D02*
X0176000Y0239040D01*
X0176000Y0238541D02*
X0176500Y0238541D01*
X0176500Y0238043D02*
X0176000Y0238043D01*
X0172080Y0238043D02*
X0159932Y0238043D01*
X0159433Y0238541D02*
X0171397Y0238541D01*
X0170937Y0239040D02*
X0158935Y0239040D01*
X0158436Y0239538D02*
X0170608Y0239538D01*
X0170402Y0240037D02*
X0157938Y0240037D01*
X0157439Y0240535D02*
X0170271Y0240535D01*
X0172287Y0234553D02*
X0163422Y0234553D01*
X0163920Y0234055D02*
X0171493Y0234055D01*
X0170994Y0233556D02*
X0164000Y0233556D01*
X0164000Y0233058D02*
X0170648Y0233058D01*
X0170442Y0232559D02*
X0164000Y0232559D01*
X0164000Y0232061D02*
X0170235Y0232061D01*
X0170200Y0231562D02*
X0164000Y0231562D01*
X0164000Y0231064D02*
X0170200Y0231064D01*
X0170200Y0230565D02*
X0164000Y0230565D01*
X0164000Y0230067D02*
X0170389Y0230067D01*
X0170596Y0229568D02*
X0164000Y0229568D01*
X0164000Y0229070D02*
X0170868Y0229070D01*
X0171367Y0228571D02*
X0164000Y0228571D01*
X0164000Y0228073D02*
X0171983Y0228073D01*
X0172359Y0224583D02*
X0164000Y0224583D01*
X0164000Y0224085D02*
X0171523Y0224085D01*
X0171024Y0223586D02*
X0164000Y0223586D01*
X0164000Y0223088D02*
X0170688Y0223088D01*
X0170454Y0222589D02*
X0164000Y0222589D01*
X0164000Y0222091D02*
X0170296Y0222091D01*
X0170200Y0221592D02*
X0164000Y0221592D01*
X0164000Y0221093D02*
X0176000Y0221093D01*
X0176000Y0221000D02*
X0170200Y0221000D01*
X0170200Y0220890D01*
X0170340Y0220185D01*
X0170615Y0219521D01*
X0171015Y0218923D01*
X0171523Y0218415D01*
X0172121Y0218015D01*
X0172785Y0217740D01*
X0173490Y0217600D01*
X0176000Y0217600D01*
X0176000Y0221000D01*
X0176000Y0220595D02*
X0176500Y0220595D01*
X0176500Y0220096D02*
X0176000Y0220096D01*
X0176000Y0219598D02*
X0176500Y0219598D01*
X0176500Y0219099D02*
X0176000Y0219099D01*
X0176000Y0218601D02*
X0176500Y0218601D01*
X0176500Y0218102D02*
X0176000Y0218102D01*
X0176000Y0217604D02*
X0176500Y0217604D01*
X0179029Y0217604D02*
X0181500Y0217604D01*
X0181500Y0218102D02*
X0180509Y0218102D01*
X0181163Y0218601D02*
X0181500Y0218601D01*
X0181500Y0217105D02*
X0164000Y0217105D01*
X0164000Y0216607D02*
X0181500Y0216607D01*
X0181500Y0216108D02*
X0164000Y0216108D01*
X0164000Y0215610D02*
X0181500Y0215610D01*
X0181500Y0215111D02*
X0164000Y0215111D01*
X0164000Y0214613D02*
X0172431Y0214613D01*
X0171552Y0214114D02*
X0164000Y0214114D01*
X0164000Y0213616D02*
X0171054Y0213616D01*
X0170673Y0213117D02*
X0164000Y0213117D01*
X0164000Y0212619D02*
X0170466Y0212619D01*
X0170260Y0212120D02*
X0164000Y0212120D01*
X0164000Y0211622D02*
X0170200Y0211622D01*
X0170200Y0211123D02*
X0164000Y0211123D01*
X0164000Y0210625D02*
X0170200Y0210625D01*
X0170365Y0210126D02*
X0164000Y0210126D01*
X0164000Y0209628D02*
X0170571Y0209628D01*
X0170809Y0209129D02*
X0164000Y0209129D01*
X0164000Y0208631D02*
X0171307Y0208631D01*
X0171839Y0208132D02*
X0164000Y0208132D01*
X0164000Y0207634D02*
X0173043Y0207634D01*
X0172503Y0204643D02*
X0164000Y0204643D01*
X0164000Y0205141D02*
X0181500Y0205141D01*
X0181500Y0204643D02*
X0179997Y0204643D01*
X0180888Y0204144D02*
X0181500Y0204144D01*
X0181500Y0203646D02*
X0181416Y0203646D01*
X0181500Y0205640D02*
X0164000Y0205640D01*
X0164000Y0206138D02*
X0181500Y0206138D01*
X0181500Y0206637D02*
X0164000Y0206637D01*
X0164000Y0207135D02*
X0181500Y0207135D01*
X0181500Y0207634D02*
X0179457Y0207634D01*
X0180661Y0208132D02*
X0181500Y0208132D01*
X0181500Y0208631D02*
X0181193Y0208631D01*
X0181446Y0213616D02*
X0181500Y0213616D01*
X0181500Y0214114D02*
X0180948Y0214114D01*
X0181500Y0214613D02*
X0180069Y0214613D01*
X0176500Y0221592D02*
X0176000Y0221592D01*
X0176000Y0222091D02*
X0176500Y0222091D01*
X0176500Y0222589D02*
X0176000Y0222589D01*
X0176000Y0223088D02*
X0176500Y0223088D01*
X0176500Y0223586D02*
X0176000Y0223586D01*
X0176000Y0224085D02*
X0176500Y0224085D01*
X0176500Y0224583D02*
X0176000Y0224583D01*
X0180141Y0224583D02*
X0181500Y0224583D01*
X0181500Y0224085D02*
X0180977Y0224085D01*
X0181476Y0223586D02*
X0181500Y0223586D01*
X0181500Y0225082D02*
X0164000Y0225082D01*
X0164000Y0225580D02*
X0181500Y0225580D01*
X0181500Y0226079D02*
X0164000Y0226079D01*
X0164000Y0226577D02*
X0181500Y0226577D01*
X0181500Y0227076D02*
X0164000Y0227076D01*
X0164000Y0227574D02*
X0181500Y0227574D01*
X0181500Y0228073D02*
X0180517Y0228073D01*
X0181133Y0228571D02*
X0181500Y0228571D01*
X0181500Y0234055D02*
X0181007Y0234055D01*
X0181500Y0234553D02*
X0180213Y0234553D01*
X0181500Y0235052D02*
X0162923Y0235052D01*
X0162425Y0235550D02*
X0181500Y0235550D01*
X0181500Y0236049D02*
X0161926Y0236049D01*
X0161428Y0236547D02*
X0181500Y0236547D01*
X0181500Y0237046D02*
X0160929Y0237046D01*
X0160430Y0237544D02*
X0181500Y0237544D01*
X0181500Y0238043D02*
X0180420Y0238043D01*
X0181103Y0238541D02*
X0181500Y0238541D01*
X0169511Y0247515D02*
X0124000Y0247515D01*
X0124000Y0248013D02*
X0142127Y0248013D01*
X0141426Y0248512D02*
X0124000Y0248512D01*
X0124000Y0249010D02*
X0140928Y0249010D01*
X0140621Y0249509D02*
X0124000Y0249509D01*
X0124000Y0250007D02*
X0140414Y0250007D01*
X0140208Y0250506D02*
X0127714Y0250506D01*
X0128566Y0251004D02*
X0140200Y0251004D01*
X0140200Y0251503D02*
X0129065Y0251503D01*
X0129435Y0252001D02*
X0140210Y0252001D01*
X0140417Y0252500D02*
X0129641Y0252500D01*
X0129848Y0252998D02*
X0140623Y0252998D01*
X0140935Y0253497D02*
X0129900Y0253497D01*
X0129900Y0253995D02*
X0141433Y0253995D01*
X0142143Y0254494D02*
X0129900Y0254494D01*
X0124786Y0250506D02*
X0124000Y0250506D01*
X0140000Y0240525D02*
X0140000Y0231938D01*
X0140221Y0231717D01*
X0140340Y0232315D01*
X0140615Y0232979D01*
X0141015Y0233577D01*
X0141523Y0234085D01*
X0142121Y0234485D01*
X0142785Y0234760D01*
X0143490Y0234900D01*
X0146000Y0234900D01*
X0146000Y0231500D01*
X0146500Y0231500D01*
X0146500Y0234900D01*
X0149009Y0234900D01*
X0149715Y0234760D01*
X0150379Y0234485D01*
X0150866Y0234159D01*
X0147425Y0237600D01*
X0143124Y0237600D01*
X0141782Y0238156D01*
X0140756Y0239182D01*
X0140200Y0240524D01*
X0140200Y0240725D01*
X0140000Y0240525D01*
X0140010Y0240535D02*
X0140200Y0240535D01*
X0140000Y0240037D02*
X0140402Y0240037D01*
X0140608Y0239538D02*
X0140000Y0239538D01*
X0140000Y0239040D02*
X0140898Y0239040D01*
X0141397Y0238541D02*
X0140000Y0238541D01*
X0140000Y0238043D02*
X0142055Y0238043D01*
X0140000Y0237544D02*
X0147481Y0237544D01*
X0147979Y0237046D02*
X0140000Y0237046D01*
X0140000Y0236547D02*
X0148478Y0236547D01*
X0148976Y0236049D02*
X0140000Y0236049D01*
X0140000Y0235550D02*
X0149475Y0235550D01*
X0149973Y0235052D02*
X0140000Y0235052D01*
X0140000Y0234553D02*
X0142287Y0234553D01*
X0141493Y0234055D02*
X0140000Y0234055D01*
X0140000Y0233556D02*
X0141001Y0233556D01*
X0140668Y0233058D02*
X0140000Y0233058D01*
X0140000Y0232559D02*
X0140442Y0232559D01*
X0140290Y0232061D02*
X0140000Y0232061D01*
X0140392Y0229070D02*
X0140917Y0229070D01*
X0141367Y0228571D02*
X0140009Y0228571D01*
X0139346Y0228073D02*
X0142035Y0228073D01*
X0146000Y0228073D02*
X0146500Y0228073D01*
X0146500Y0228571D02*
X0146000Y0228571D01*
X0146000Y0229070D02*
X0146500Y0229070D01*
X0146500Y0229568D02*
X0146000Y0229568D01*
X0146000Y0230067D02*
X0146500Y0230067D01*
X0146500Y0230565D02*
X0146000Y0230565D01*
X0146000Y0231562D02*
X0146500Y0231562D01*
X0146500Y0232061D02*
X0146000Y0232061D01*
X0146000Y0232559D02*
X0146500Y0232559D01*
X0146500Y0233058D02*
X0146000Y0233058D01*
X0146000Y0233556D02*
X0146500Y0233556D01*
X0146500Y0234055D02*
X0146000Y0234055D01*
X0146000Y0234553D02*
X0146500Y0234553D01*
X0150213Y0234553D02*
X0150472Y0234553D01*
X0151133Y0228571D02*
X0151500Y0228571D01*
X0151500Y0228073D02*
X0150465Y0228073D01*
X0150141Y0224583D02*
X0151500Y0224583D01*
X0151500Y0224085D02*
X0150977Y0224085D01*
X0151476Y0223586D02*
X0151500Y0223586D01*
X0151500Y0218601D02*
X0151163Y0218601D01*
X0151500Y0218102D02*
X0150589Y0218102D01*
X0151500Y0217604D02*
X0149385Y0217604D01*
X0151500Y0217105D02*
X0135428Y0217105D01*
X0135437Y0216607D02*
X0151500Y0216607D01*
X0151500Y0216108D02*
X0135437Y0216108D01*
X0135437Y0215610D02*
X0151500Y0215610D01*
X0151500Y0215111D02*
X0135310Y0215111D01*
X0129819Y0211123D02*
X0122415Y0211123D01*
X0122063Y0210625D02*
X0128615Y0210625D01*
X0127984Y0210126D02*
X0121476Y0210126D01*
X0121347Y0209628D02*
X0127486Y0209628D01*
X0126987Y0209129D02*
X0121846Y0209129D01*
X0122344Y0208631D02*
X0126770Y0208631D01*
X0126564Y0208132D02*
X0122843Y0208132D01*
X0123341Y0207634D02*
X0126357Y0207634D01*
X0126200Y0207135D02*
X0123840Y0207135D01*
X0124338Y0206637D02*
X0126200Y0206637D01*
X0126200Y0206138D02*
X0124837Y0206138D01*
X0125335Y0205640D02*
X0126200Y0205640D01*
X0126243Y0205141D02*
X0125834Y0205141D01*
X0126332Y0204643D02*
X0126450Y0204643D01*
X0112503Y0204643D02*
X0111630Y0204643D01*
X0111582Y0204144D02*
X0111423Y0204144D01*
X0111084Y0203646D02*
X0111084Y0203646D01*
X0111000Y0203562D02*
X0111000Y0203562D01*
X0111000Y0168938D02*
X0111782Y0168156D01*
X0113124Y0167600D01*
X0119376Y0167600D01*
X0120718Y0168156D01*
X0121744Y0169182D01*
X0122066Y0169959D01*
X0122525Y0169500D01*
X0123500Y0168525D01*
X0123500Y0114475D01*
X0120975Y0117000D01*
X0114975Y0117000D01*
X0114375Y0117600D01*
X0119376Y0117600D01*
X0120718Y0118156D01*
X0121744Y0119182D01*
X0122300Y0120524D01*
X0122300Y0121976D01*
X0121744Y0123318D01*
X0120718Y0124344D01*
X0119376Y0124900D01*
X0113124Y0124900D01*
X0111782Y0124344D01*
X0111000Y0123562D01*
X0111000Y0128938D01*
X0111782Y0128156D01*
X0113124Y0127600D01*
X0119376Y0127600D01*
X0120718Y0128156D01*
X0121744Y0129182D01*
X0122300Y0130524D01*
X0122300Y0131976D01*
X0121744Y0133318D01*
X0120718Y0134344D01*
X0119376Y0134900D01*
X0113124Y0134900D01*
X0111782Y0134344D01*
X0111000Y0133562D01*
X0111000Y0138946D01*
X0111015Y0138923D01*
X0111523Y0138415D01*
X0112121Y0138015D01*
X0112785Y0137740D01*
X0113490Y0137600D01*
X0116000Y0137600D01*
X0116000Y0141000D01*
X0116500Y0141000D01*
X0116500Y0141500D01*
X0116000Y0141500D01*
X0116000Y0144900D01*
X0113490Y0144900D01*
X0112785Y0144760D01*
X0112121Y0144485D01*
X0111523Y0144085D01*
X0111015Y0143577D01*
X0111000Y0143554D01*
X0111000Y0148938D01*
X0111782Y0148156D01*
X0113124Y0147600D01*
X0119376Y0147600D01*
X0120718Y0148156D01*
X0121744Y0149182D01*
X0122300Y0150524D01*
X0122300Y0151976D01*
X0121744Y0153318D01*
X0120718Y0154344D01*
X0119376Y0154900D01*
X0113124Y0154900D01*
X0111782Y0154344D01*
X0111000Y0153562D01*
X0111000Y0158938D01*
X0111782Y0158156D01*
X0113124Y0157600D01*
X0119376Y0157600D01*
X0120718Y0158156D01*
X0121744Y0159182D01*
X0122300Y0160524D01*
X0122300Y0161976D01*
X0121744Y0163318D01*
X0120718Y0164344D01*
X0119376Y0164900D01*
X0113124Y0164900D01*
X0111782Y0164344D01*
X0111000Y0163562D01*
X0111000Y0168938D01*
X0111000Y0168750D02*
X0111188Y0168750D01*
X0111000Y0168251D02*
X0111687Y0168251D01*
X0111000Y0167753D02*
X0112755Y0167753D01*
X0111000Y0167254D02*
X0123500Y0167254D01*
X0123500Y0166756D02*
X0111000Y0166756D01*
X0111000Y0166257D02*
X0123500Y0166257D01*
X0123500Y0165759D02*
X0111000Y0165759D01*
X0111000Y0165260D02*
X0123500Y0165260D01*
X0123500Y0164762D02*
X0119710Y0164762D01*
X0120799Y0164263D02*
X0123500Y0164263D01*
X0123500Y0163765D02*
X0121297Y0163765D01*
X0121766Y0163266D02*
X0123500Y0163266D01*
X0123500Y0162768D02*
X0121972Y0162768D01*
X0122179Y0162269D02*
X0123500Y0162269D01*
X0123500Y0161771D02*
X0122300Y0161771D01*
X0122300Y0161272D02*
X0123500Y0161272D01*
X0123500Y0160774D02*
X0122300Y0160774D01*
X0122197Y0160275D02*
X0123500Y0160275D01*
X0123500Y0159777D02*
X0121990Y0159777D01*
X0121784Y0159278D02*
X0123500Y0159278D01*
X0123500Y0158780D02*
X0121341Y0158780D01*
X0120843Y0158281D02*
X0123500Y0158281D01*
X0123500Y0157783D02*
X0119817Y0157783D01*
X0119638Y0154791D02*
X0123500Y0154791D01*
X0123500Y0154293D02*
X0120769Y0154293D01*
X0121267Y0153794D02*
X0123500Y0153794D01*
X0123500Y0153296D02*
X0121753Y0153296D01*
X0121960Y0152797D02*
X0123500Y0152797D01*
X0123500Y0152299D02*
X0122166Y0152299D01*
X0122300Y0151800D02*
X0123500Y0151800D01*
X0123500Y0151302D02*
X0122300Y0151302D01*
X0122300Y0150803D02*
X0123500Y0150803D01*
X0123500Y0150305D02*
X0122209Y0150305D01*
X0122003Y0149806D02*
X0123500Y0149806D01*
X0123500Y0149308D02*
X0121796Y0149308D01*
X0121371Y0148809D02*
X0123500Y0148809D01*
X0123500Y0148311D02*
X0120873Y0148311D01*
X0119889Y0147812D02*
X0123500Y0147812D01*
X0123500Y0147314D02*
X0111000Y0147314D01*
X0111000Y0147812D02*
X0112611Y0147812D01*
X0111627Y0148311D02*
X0111000Y0148311D01*
X0111000Y0148809D02*
X0111129Y0148809D01*
X0111000Y0146815D02*
X0123500Y0146815D01*
X0123500Y0146317D02*
X0111000Y0146317D01*
X0111000Y0145818D02*
X0123500Y0145818D01*
X0123500Y0145320D02*
X0111000Y0145320D01*
X0111000Y0144821D02*
X0113095Y0144821D01*
X0111879Y0144323D02*
X0111000Y0144323D01*
X0111000Y0143824D02*
X0111262Y0143824D01*
X0116000Y0143824D02*
X0116500Y0143824D01*
X0116500Y0143326D02*
X0116000Y0143326D01*
X0116000Y0142827D02*
X0116500Y0142827D01*
X0116500Y0142329D02*
X0116000Y0142329D01*
X0116000Y0141830D02*
X0116500Y0141830D01*
X0116500Y0141500D02*
X0116500Y0144900D01*
X0119009Y0144900D01*
X0119715Y0144760D01*
X0120379Y0144485D01*
X0120977Y0144085D01*
X0121485Y0143577D01*
X0121885Y0142979D01*
X0122160Y0142315D01*
X0122300Y0141609D01*
X0122300Y0141500D01*
X0116500Y0141500D01*
X0116500Y0141332D02*
X0123500Y0141332D01*
X0123500Y0141830D02*
X0122256Y0141830D01*
X0122154Y0142329D02*
X0123500Y0142329D01*
X0123500Y0142827D02*
X0121947Y0142827D01*
X0121653Y0143326D02*
X0123500Y0143326D01*
X0123500Y0143824D02*
X0121238Y0143824D01*
X0120621Y0144323D02*
X0123500Y0144323D01*
X0123500Y0144821D02*
X0119405Y0144821D01*
X0116500Y0144821D02*
X0116000Y0144821D01*
X0116000Y0144323D02*
X0116500Y0144323D01*
X0116500Y0141000D02*
X0122300Y0141000D01*
X0122300Y0140890D01*
X0122160Y0140185D01*
X0121885Y0139521D01*
X0121485Y0138923D01*
X0120977Y0138415D01*
X0120379Y0138015D01*
X0119715Y0137740D01*
X0119009Y0137600D01*
X0116500Y0137600D01*
X0116500Y0141000D01*
X0116500Y0140833D02*
X0116000Y0140833D01*
X0116000Y0140335D02*
X0116500Y0140335D01*
X0116500Y0139836D02*
X0116000Y0139836D01*
X0116000Y0139338D02*
X0116500Y0139338D01*
X0116500Y0138839D02*
X0116000Y0138839D01*
X0116000Y0138341D02*
X0116500Y0138341D01*
X0116500Y0137842D02*
X0116000Y0137842D01*
X0113006Y0134851D02*
X0111000Y0134851D01*
X0111000Y0134353D02*
X0111802Y0134353D01*
X0111292Y0133854D02*
X0111000Y0133854D01*
X0111000Y0135350D02*
X0123500Y0135350D01*
X0123500Y0135848D02*
X0111000Y0135848D01*
X0111000Y0136347D02*
X0123500Y0136347D01*
X0123500Y0136845D02*
X0111000Y0136845D01*
X0111000Y0137344D02*
X0123500Y0137344D01*
X0123500Y0137842D02*
X0119960Y0137842D01*
X0120866Y0138341D02*
X0123500Y0138341D01*
X0123500Y0138839D02*
X0121401Y0138839D01*
X0121762Y0139338D02*
X0123500Y0139338D01*
X0123500Y0139836D02*
X0122015Y0139836D01*
X0122189Y0140335D02*
X0123500Y0140335D01*
X0123500Y0140833D02*
X0122289Y0140833D01*
X0123500Y0134851D02*
X0119494Y0134851D01*
X0120698Y0134353D02*
X0123500Y0134353D01*
X0123500Y0133854D02*
X0121208Y0133854D01*
X0121706Y0133355D02*
X0123500Y0133355D01*
X0123500Y0132857D02*
X0121935Y0132857D01*
X0122142Y0132358D02*
X0123500Y0132358D01*
X0123500Y0131860D02*
X0122300Y0131860D01*
X0122300Y0131361D02*
X0123500Y0131361D01*
X0123500Y0130863D02*
X0122300Y0130863D01*
X0122234Y0130364D02*
X0123500Y0130364D01*
X0123500Y0129866D02*
X0122027Y0129866D01*
X0121821Y0129367D02*
X0123500Y0129367D01*
X0123500Y0128869D02*
X0121431Y0128869D01*
X0120932Y0128370D02*
X0123500Y0128370D01*
X0123500Y0127872D02*
X0120032Y0127872D01*
X0119422Y0124881D02*
X0123500Y0124881D01*
X0123500Y0125379D02*
X0111000Y0125379D01*
X0111000Y0124881D02*
X0113078Y0124881D01*
X0111874Y0124382D02*
X0111000Y0124382D01*
X0111000Y0123884D02*
X0111322Y0123884D01*
X0111000Y0125878D02*
X0123500Y0125878D01*
X0123500Y0126376D02*
X0111000Y0126376D01*
X0111000Y0126875D02*
X0123500Y0126875D01*
X0123500Y0127373D02*
X0111000Y0127373D01*
X0111000Y0127872D02*
X0112468Y0127872D01*
X0111568Y0128370D02*
X0111000Y0128370D01*
X0111000Y0128869D02*
X0111069Y0128869D01*
X0111000Y0137842D02*
X0112539Y0137842D01*
X0111634Y0138341D02*
X0111000Y0138341D01*
X0111000Y0138839D02*
X0111099Y0138839D01*
X0111000Y0153794D02*
X0111233Y0153794D01*
X0111000Y0154293D02*
X0111731Y0154293D01*
X0111000Y0154791D02*
X0112862Y0154791D01*
X0111000Y0155290D02*
X0123500Y0155290D01*
X0123500Y0155789D02*
X0111000Y0155789D01*
X0111000Y0156287D02*
X0123500Y0156287D01*
X0123500Y0156786D02*
X0111000Y0156786D01*
X0111000Y0157284D02*
X0123500Y0157284D01*
X0123500Y0167753D02*
X0119745Y0167753D01*
X0120813Y0168251D02*
X0123500Y0168251D01*
X0123275Y0168750D02*
X0121312Y0168750D01*
X0121772Y0169248D02*
X0122777Y0169248D01*
X0122278Y0169747D02*
X0121978Y0169747D01*
X0112790Y0164762D02*
X0111000Y0164762D01*
X0111000Y0164263D02*
X0111701Y0164263D01*
X0111203Y0163765D02*
X0111000Y0163765D01*
X0111000Y0158780D02*
X0111159Y0158780D01*
X0111000Y0158281D02*
X0111657Y0158281D01*
X0111000Y0157783D02*
X0112683Y0157783D01*
X0132429Y0161272D02*
X0146000Y0161272D01*
X0146000Y0160774D02*
X0146500Y0160774D01*
X0146500Y0160275D02*
X0146000Y0160275D01*
X0146000Y0159777D02*
X0146500Y0159777D01*
X0146500Y0159278D02*
X0146000Y0159278D01*
X0146000Y0158780D02*
X0146500Y0158780D01*
X0146500Y0158281D02*
X0146000Y0158281D01*
X0146000Y0157783D02*
X0146500Y0157783D01*
X0146500Y0157284D02*
X0146000Y0157284D01*
X0146000Y0161771D02*
X0146500Y0161771D01*
X0146500Y0162269D02*
X0146000Y0162269D01*
X0146000Y0162768D02*
X0146500Y0162768D01*
X0146500Y0163266D02*
X0146000Y0163266D01*
X0146000Y0163765D02*
X0146500Y0163765D01*
X0146500Y0164263D02*
X0146000Y0164263D01*
X0146000Y0164762D02*
X0146500Y0164762D01*
X0146500Y0165260D02*
X0146000Y0165260D01*
X0141898Y0155290D02*
X0136300Y0155290D01*
X0136300Y0155789D02*
X0152500Y0155789D01*
X0152500Y0156287D02*
X0136300Y0156287D01*
X0136112Y0154791D02*
X0140781Y0154791D01*
X0140283Y0154293D02*
X0135905Y0154293D01*
X0135699Y0153794D02*
X0139784Y0153794D01*
X0139497Y0153296D02*
X0135438Y0153296D01*
X0134939Y0152797D02*
X0139291Y0152797D01*
X0139084Y0152299D02*
X0134441Y0152299D01*
X0133704Y0151800D02*
X0139000Y0151800D01*
X0139000Y0151302D02*
X0132500Y0151302D01*
X0133453Y0150803D02*
X0139000Y0150803D01*
X0139041Y0150305D02*
X0134337Y0150305D01*
X0134835Y0149806D02*
X0139248Y0149806D01*
X0139454Y0149308D02*
X0135334Y0149308D01*
X0135656Y0148809D02*
X0139680Y0148809D01*
X0140179Y0148311D02*
X0135862Y0148311D01*
X0136069Y0147812D02*
X0140677Y0147812D01*
X0141647Y0147314D02*
X0136275Y0147314D01*
X0136300Y0146815D02*
X0152500Y0146815D01*
X0152500Y0146317D02*
X0136300Y0146317D01*
X0136300Y0145818D02*
X0152500Y0145818D01*
X0152500Y0145320D02*
X0150530Y0145320D01*
X0151689Y0144821D02*
X0152500Y0144821D01*
X0152500Y0144323D02*
X0152188Y0144323D01*
X0152500Y0147314D02*
X0150853Y0147314D01*
X0151823Y0147812D02*
X0152500Y0147812D01*
X0152500Y0148311D02*
X0152321Y0148311D01*
X0152217Y0154293D02*
X0152500Y0154293D01*
X0152500Y0154791D02*
X0151719Y0154791D01*
X0152500Y0155290D02*
X0150602Y0155290D01*
X0141970Y0145320D02*
X0136300Y0145320D01*
X0136124Y0144821D02*
X0140811Y0144821D01*
X0140312Y0144323D02*
X0135918Y0144323D01*
X0135711Y0143824D02*
X0139814Y0143824D01*
X0139510Y0143326D02*
X0135468Y0143326D01*
X0134969Y0142827D02*
X0139303Y0142827D01*
X0139097Y0142329D02*
X0134470Y0142329D01*
X0133776Y0141830D02*
X0139000Y0141830D01*
X0139000Y0141332D02*
X0132572Y0141332D01*
X0133382Y0140833D02*
X0139000Y0140833D01*
X0139029Y0140335D02*
X0134307Y0140335D01*
X0134806Y0139836D02*
X0139235Y0139836D01*
X0139442Y0139338D02*
X0135304Y0139338D01*
X0135644Y0138839D02*
X0139650Y0138839D01*
X0140149Y0138341D02*
X0135850Y0138341D01*
X0136057Y0137842D02*
X0140367Y0137842D01*
X0139869Y0137344D02*
X0136263Y0137344D01*
X0136300Y0136845D02*
X0139370Y0136845D01*
X0138872Y0136347D02*
X0136300Y0136347D01*
X0136300Y0135848D02*
X0138373Y0135848D01*
X0137875Y0135350D02*
X0136300Y0135350D01*
X0136137Y0134851D02*
X0137376Y0134851D01*
X0135973Y0134353D02*
X0135930Y0134353D01*
X0123500Y0124382D02*
X0120626Y0124382D01*
X0121178Y0123884D02*
X0123500Y0123884D01*
X0123500Y0123385D02*
X0121677Y0123385D01*
X0121923Y0122887D02*
X0123500Y0122887D01*
X0123500Y0122388D02*
X0122129Y0122388D01*
X0122300Y0121890D02*
X0123500Y0121890D01*
X0123500Y0121391D02*
X0122300Y0121391D01*
X0122300Y0120893D02*
X0123500Y0120893D01*
X0123500Y0120394D02*
X0122246Y0120394D01*
X0122040Y0119896D02*
X0123500Y0119896D01*
X0123500Y0119397D02*
X0121833Y0119397D01*
X0121461Y0118899D02*
X0123500Y0118899D01*
X0123500Y0118400D02*
X0120962Y0118400D01*
X0120104Y0117902D02*
X0123500Y0117902D01*
X0123500Y0117403D02*
X0114572Y0117403D01*
X0121070Y0116905D02*
X0123500Y0116905D01*
X0123500Y0116406D02*
X0121569Y0116406D01*
X0122067Y0115908D02*
X0123500Y0115908D01*
X0123500Y0115409D02*
X0122566Y0115409D01*
X0123064Y0114911D02*
X0123500Y0114911D01*
X0156000Y0114911D02*
X0166173Y0114911D01*
X0166189Y0114873D02*
X0166873Y0114189D01*
X0167766Y0113819D01*
X0168500Y0113819D01*
X0168500Y0033975D01*
X0167067Y0032542D01*
X0167067Y0033621D01*
X0166397Y0035238D01*
X0165159Y0036476D01*
X0164659Y0036683D01*
X0165159Y0036890D01*
X0166397Y0038128D01*
X0167067Y0039745D01*
X0167067Y0041495D01*
X0166397Y0043112D01*
X0165159Y0044350D01*
X0163542Y0045020D01*
X0161792Y0045020D01*
X0160175Y0044350D01*
X0158938Y0043112D01*
X0158268Y0041495D01*
X0158268Y0039745D01*
X0158938Y0038128D01*
X0160175Y0036890D01*
X0160675Y0036683D01*
X0160175Y0036476D01*
X0158938Y0035238D01*
X0158425Y0034000D01*
X0149162Y0034000D01*
X0149900Y0034738D01*
X0149900Y0037762D01*
X0148068Y0039594D01*
X0159000Y0050525D01*
X0159000Y0053813D01*
X0160175Y0052638D01*
X0161792Y0051969D01*
X0163542Y0051969D01*
X0165159Y0052638D01*
X0166397Y0053876D01*
X0167067Y0055493D01*
X0167067Y0057243D01*
X0166397Y0058860D01*
X0165159Y0060098D01*
X0164644Y0060311D01*
X0164973Y0060479D01*
X0165533Y0060886D01*
X0166023Y0061376D01*
X0166430Y0061936D01*
X0166745Y0062553D01*
X0166959Y0063212D01*
X0167067Y0063896D01*
X0167067Y0063992D01*
X0162917Y0063992D01*
X0162917Y0064492D01*
X0167067Y0064492D01*
X0167067Y0064588D01*
X0166959Y0065272D01*
X0166745Y0065931D01*
X0166430Y0066548D01*
X0166023Y0067108D01*
X0165533Y0067598D01*
X0164973Y0068005D01*
X0164644Y0068173D01*
X0165159Y0068386D01*
X0166397Y0069624D01*
X0167067Y0071241D01*
X0167067Y0072991D01*
X0166397Y0074608D01*
X0165159Y0075846D01*
X0163542Y0076516D01*
X0161792Y0076516D01*
X0160175Y0075846D01*
X0159000Y0074671D01*
X0159000Y0100975D01*
X0157975Y0102000D01*
X0156000Y0103975D01*
X0156000Y0132136D01*
X0156766Y0131819D01*
X0157206Y0131819D01*
X0166500Y0122525D01*
X0166500Y0117938D01*
X0166189Y0117627D01*
X0165819Y0116734D01*
X0165819Y0115766D01*
X0166189Y0114873D01*
X0165967Y0115409D02*
X0156000Y0115409D01*
X0156000Y0115908D02*
X0165819Y0115908D01*
X0165819Y0116406D02*
X0156000Y0116406D01*
X0156000Y0116905D02*
X0165890Y0116905D01*
X0166096Y0117403D02*
X0156000Y0117403D01*
X0156000Y0117902D02*
X0166464Y0117902D01*
X0166500Y0118400D02*
X0156000Y0118400D01*
X0156000Y0118899D02*
X0166500Y0118899D01*
X0166500Y0119397D02*
X0156000Y0119397D01*
X0156000Y0119896D02*
X0166500Y0119896D01*
X0166500Y0120394D02*
X0156000Y0120394D01*
X0156000Y0120893D02*
X0166500Y0120893D01*
X0166500Y0121391D02*
X0156000Y0121391D01*
X0156000Y0121890D02*
X0166500Y0121890D01*
X0166500Y0122388D02*
X0156000Y0122388D01*
X0156000Y0122887D02*
X0166138Y0122887D01*
X0165640Y0123385D02*
X0156000Y0123385D01*
X0156000Y0123884D02*
X0165141Y0123884D01*
X0164643Y0124382D02*
X0156000Y0124382D01*
X0156000Y0124881D02*
X0164144Y0124881D01*
X0163646Y0125379D02*
X0156000Y0125379D01*
X0156000Y0125878D02*
X0163147Y0125878D01*
X0162649Y0126376D02*
X0156000Y0126376D01*
X0156000Y0126875D02*
X0162150Y0126875D01*
X0161652Y0127373D02*
X0156000Y0127373D01*
X0156000Y0127872D02*
X0161153Y0127872D01*
X0160655Y0128370D02*
X0156000Y0128370D01*
X0156000Y0128869D02*
X0160156Y0128869D01*
X0159658Y0129367D02*
X0156000Y0129367D01*
X0156000Y0129866D02*
X0159159Y0129866D01*
X0158661Y0130364D02*
X0156000Y0130364D01*
X0156000Y0130863D02*
X0158162Y0130863D01*
X0157664Y0131361D02*
X0156000Y0131361D01*
X0156000Y0131860D02*
X0156667Y0131860D01*
X0156000Y0114412D02*
X0166650Y0114412D01*
X0167538Y0113914D02*
X0156000Y0113914D01*
X0156000Y0113415D02*
X0168500Y0113415D01*
X0168500Y0112917D02*
X0156000Y0112917D01*
X0156000Y0112418D02*
X0168500Y0112418D01*
X0168500Y0111920D02*
X0156000Y0111920D01*
X0156000Y0111421D02*
X0168500Y0111421D01*
X0168500Y0110922D02*
X0156000Y0110922D01*
X0156000Y0110424D02*
X0168500Y0110424D01*
X0168500Y0109925D02*
X0156000Y0109925D01*
X0156000Y0109427D02*
X0168500Y0109427D01*
X0168500Y0108928D02*
X0156000Y0108928D01*
X0156000Y0108430D02*
X0168500Y0108430D01*
X0168500Y0107931D02*
X0156000Y0107931D01*
X0156000Y0107433D02*
X0168500Y0107433D01*
X0168500Y0106934D02*
X0156000Y0106934D01*
X0156000Y0106436D02*
X0168500Y0106436D01*
X0168500Y0105937D02*
X0156000Y0105937D01*
X0156000Y0105439D02*
X0168500Y0105439D01*
X0168500Y0104940D02*
X0156000Y0104940D01*
X0156000Y0104442D02*
X0168500Y0104442D01*
X0168500Y0103943D02*
X0156032Y0103943D01*
X0156530Y0103445D02*
X0168500Y0103445D01*
X0168500Y0102946D02*
X0157029Y0102946D01*
X0157527Y0102448D02*
X0168500Y0102448D01*
X0168500Y0101949D02*
X0158026Y0101949D01*
X0158524Y0101451D02*
X0168500Y0101451D01*
X0168500Y0100952D02*
X0159000Y0100952D01*
X0159000Y0100454D02*
X0168500Y0100454D01*
X0168500Y0099955D02*
X0159000Y0099955D01*
X0159000Y0099457D02*
X0168500Y0099457D01*
X0168500Y0098958D02*
X0159000Y0098958D01*
X0159000Y0098460D02*
X0168500Y0098460D01*
X0168500Y0097961D02*
X0159000Y0097961D01*
X0159000Y0097463D02*
X0168500Y0097463D01*
X0168500Y0096964D02*
X0159000Y0096964D01*
X0159000Y0096466D02*
X0168500Y0096466D01*
X0168500Y0095967D02*
X0159000Y0095967D01*
X0159000Y0095469D02*
X0168500Y0095469D01*
X0168500Y0094970D02*
X0159000Y0094970D01*
X0159000Y0094472D02*
X0168500Y0094472D01*
X0168500Y0093973D02*
X0159000Y0093973D01*
X0159000Y0093475D02*
X0168500Y0093475D01*
X0168500Y0092976D02*
X0159000Y0092976D01*
X0159000Y0092478D02*
X0168500Y0092478D01*
X0168500Y0091979D02*
X0159000Y0091979D01*
X0159000Y0091481D02*
X0168500Y0091481D01*
X0168500Y0090982D02*
X0159000Y0090982D01*
X0159000Y0090484D02*
X0168500Y0090484D01*
X0168500Y0089985D02*
X0159000Y0089985D01*
X0159000Y0089487D02*
X0168500Y0089487D01*
X0168500Y0088988D02*
X0159000Y0088988D01*
X0159000Y0088489D02*
X0168500Y0088489D01*
X0168500Y0087991D02*
X0159000Y0087991D01*
X0159000Y0087492D02*
X0168500Y0087492D01*
X0168500Y0086994D02*
X0159000Y0086994D01*
X0159000Y0086495D02*
X0168500Y0086495D01*
X0168500Y0085997D02*
X0159000Y0085997D01*
X0159000Y0085498D02*
X0168500Y0085498D01*
X0168500Y0085000D02*
X0159000Y0085000D01*
X0159000Y0084501D02*
X0168500Y0084501D01*
X0168500Y0084003D02*
X0159000Y0084003D01*
X0159000Y0083504D02*
X0168500Y0083504D01*
X0168500Y0083006D02*
X0159000Y0083006D01*
X0159000Y0082507D02*
X0168500Y0082507D01*
X0168500Y0082009D02*
X0159000Y0082009D01*
X0159000Y0081510D02*
X0168500Y0081510D01*
X0168500Y0081012D02*
X0159000Y0081012D01*
X0159000Y0080513D02*
X0168500Y0080513D01*
X0168500Y0080015D02*
X0159000Y0080015D01*
X0159000Y0079516D02*
X0168500Y0079516D01*
X0168500Y0079018D02*
X0159000Y0079018D01*
X0159000Y0078519D02*
X0168500Y0078519D01*
X0168500Y0078021D02*
X0159000Y0078021D01*
X0159000Y0077522D02*
X0168500Y0077522D01*
X0168500Y0077024D02*
X0159000Y0077024D01*
X0159000Y0076525D02*
X0168500Y0076525D01*
X0168500Y0076027D02*
X0164723Y0076027D01*
X0165477Y0075528D02*
X0168500Y0075528D01*
X0168500Y0075030D02*
X0165976Y0075030D01*
X0166429Y0074531D02*
X0168500Y0074531D01*
X0168500Y0074033D02*
X0166636Y0074033D01*
X0166842Y0073534D02*
X0168500Y0073534D01*
X0168500Y0073036D02*
X0167049Y0073036D01*
X0167067Y0072537D02*
X0168500Y0072537D01*
X0168500Y0072039D02*
X0167067Y0072039D01*
X0167067Y0071540D02*
X0168500Y0071540D01*
X0168500Y0071042D02*
X0166984Y0071042D01*
X0166778Y0070543D02*
X0168500Y0070543D01*
X0168500Y0070045D02*
X0166571Y0070045D01*
X0166319Y0069546D02*
X0168500Y0069546D01*
X0168500Y0069048D02*
X0165821Y0069048D01*
X0165322Y0068549D02*
X0168500Y0068549D01*
X0168500Y0068051D02*
X0164884Y0068051D01*
X0165579Y0067552D02*
X0168500Y0067552D01*
X0168500Y0067053D02*
X0166063Y0067053D01*
X0166425Y0066555D02*
X0168500Y0066555D01*
X0168500Y0066056D02*
X0166681Y0066056D01*
X0166866Y0065558D02*
X0168500Y0065558D01*
X0168500Y0065059D02*
X0166992Y0065059D01*
X0167067Y0064561D02*
X0168500Y0064561D01*
X0168500Y0064062D02*
X0162917Y0064062D01*
X0165102Y0060573D02*
X0168500Y0060573D01*
X0168500Y0061071D02*
X0165719Y0061071D01*
X0166164Y0061570D02*
X0168500Y0061570D01*
X0168500Y0062068D02*
X0166498Y0062068D01*
X0166749Y0062567D02*
X0168500Y0062567D01*
X0168500Y0063065D02*
X0166911Y0063065D01*
X0167014Y0063564D02*
X0168500Y0063564D01*
X0168500Y0060074D02*
X0165183Y0060074D01*
X0165682Y0059576D02*
X0168500Y0059576D01*
X0168500Y0059077D02*
X0166180Y0059077D01*
X0166514Y0058579D02*
X0168500Y0058579D01*
X0168500Y0058080D02*
X0166720Y0058080D01*
X0166927Y0057582D02*
X0168500Y0057582D01*
X0168500Y0057083D02*
X0167067Y0057083D01*
X0167067Y0056585D02*
X0168500Y0056585D01*
X0168500Y0056086D02*
X0167067Y0056086D01*
X0167067Y0055588D02*
X0168500Y0055588D01*
X0168500Y0055089D02*
X0166900Y0055089D01*
X0166693Y0054591D02*
X0168500Y0054591D01*
X0168500Y0054092D02*
X0166487Y0054092D01*
X0166115Y0053594D02*
X0168500Y0053594D01*
X0168500Y0053095D02*
X0165616Y0053095D01*
X0165059Y0052597D02*
X0168500Y0052597D01*
X0168500Y0052098D02*
X0163855Y0052098D01*
X0161479Y0052098D02*
X0159000Y0052098D01*
X0159000Y0051600D02*
X0168500Y0051600D01*
X0168500Y0051101D02*
X0159000Y0051101D01*
X0159000Y0050603D02*
X0168500Y0050603D01*
X0168500Y0050104D02*
X0158579Y0050104D01*
X0158080Y0049606D02*
X0168500Y0049606D01*
X0168500Y0049107D02*
X0157582Y0049107D01*
X0157083Y0048609D02*
X0168500Y0048609D01*
X0168500Y0048110D02*
X0156585Y0048110D01*
X0156086Y0047612D02*
X0168500Y0047612D01*
X0168500Y0047113D02*
X0155588Y0047113D01*
X0155089Y0046615D02*
X0168500Y0046615D01*
X0168500Y0046116D02*
X0154591Y0046116D01*
X0154092Y0045618D02*
X0168500Y0045618D01*
X0168500Y0045119D02*
X0153594Y0045119D01*
X0153095Y0044620D02*
X0160828Y0044620D01*
X0159947Y0044122D02*
X0152597Y0044122D01*
X0152098Y0043623D02*
X0159449Y0043623D01*
X0158950Y0043125D02*
X0151600Y0043125D01*
X0151101Y0042626D02*
X0158736Y0042626D01*
X0158530Y0042128D02*
X0150603Y0042128D01*
X0150104Y0041629D02*
X0158323Y0041629D01*
X0158268Y0041131D02*
X0149606Y0041131D01*
X0149107Y0040632D02*
X0158268Y0040632D01*
X0158268Y0040134D02*
X0148609Y0040134D01*
X0148110Y0039635D02*
X0158313Y0039635D01*
X0158520Y0039137D02*
X0148525Y0039137D01*
X0149024Y0038638D02*
X0158726Y0038638D01*
X0158933Y0038140D02*
X0149522Y0038140D01*
X0149900Y0037641D02*
X0159424Y0037641D01*
X0159923Y0037143D02*
X0149900Y0037143D01*
X0149900Y0036644D02*
X0160582Y0036644D01*
X0159845Y0036146D02*
X0149900Y0036146D01*
X0149900Y0035647D02*
X0159347Y0035647D01*
X0158900Y0035149D02*
X0149900Y0035149D01*
X0149812Y0034650D02*
X0158694Y0034650D01*
X0158487Y0034152D02*
X0149314Y0034152D01*
X0159000Y0052597D02*
X0160276Y0052597D01*
X0159718Y0053095D02*
X0159000Y0053095D01*
X0159000Y0053594D02*
X0159220Y0053594D01*
X0164506Y0044620D02*
X0168500Y0044620D01*
X0168500Y0044122D02*
X0165387Y0044122D01*
X0165886Y0043623D02*
X0168500Y0043623D01*
X0168500Y0043125D02*
X0166384Y0043125D01*
X0166598Y0042626D02*
X0168500Y0042626D01*
X0168500Y0042128D02*
X0166805Y0042128D01*
X0167011Y0041629D02*
X0168500Y0041629D01*
X0168500Y0041131D02*
X0167067Y0041131D01*
X0167067Y0040632D02*
X0168500Y0040632D01*
X0168500Y0040134D02*
X0167067Y0040134D01*
X0167022Y0039635D02*
X0168500Y0039635D01*
X0168500Y0039137D02*
X0166815Y0039137D01*
X0166609Y0038638D02*
X0168500Y0038638D01*
X0168500Y0038140D02*
X0166402Y0038140D01*
X0165911Y0037641D02*
X0168500Y0037641D01*
X0168500Y0037143D02*
X0165412Y0037143D01*
X0164753Y0036644D02*
X0168500Y0036644D01*
X0168500Y0036146D02*
X0165490Y0036146D01*
X0165988Y0035647D02*
X0168500Y0035647D01*
X0168500Y0035149D02*
X0166434Y0035149D01*
X0166641Y0034650D02*
X0168500Y0034650D01*
X0168500Y0034152D02*
X0166847Y0034152D01*
X0167054Y0033653D02*
X0168178Y0033653D01*
X0167680Y0033155D02*
X0167067Y0033155D01*
X0167067Y0032656D02*
X0167181Y0032656D01*
X0159359Y0075030D02*
X0159000Y0075030D01*
X0159000Y0075528D02*
X0159857Y0075528D01*
X0160612Y0076027D02*
X0159000Y0076027D01*
X0175500Y0161272D02*
X0175797Y0161272D01*
X0175500Y0161771D02*
X0176296Y0161771D01*
X0176794Y0162269D02*
X0175500Y0162269D01*
X0175500Y0162768D02*
X0177293Y0162768D01*
X0177500Y0163266D02*
X0175244Y0163266D01*
X0174746Y0163765D02*
X0177500Y0163765D01*
X0177500Y0164263D02*
X0174247Y0164263D01*
X0173749Y0164762D02*
X0177500Y0164762D01*
X0177500Y0165260D02*
X0173250Y0165260D01*
X0169216Y0165759D02*
X0177500Y0165759D01*
X0177500Y0166257D02*
X0168718Y0166257D01*
X0168219Y0166756D02*
X0177500Y0166756D01*
X0177500Y0167254D02*
X0167721Y0167254D01*
X0167222Y0167753D02*
X0177500Y0167753D01*
X0177500Y0168251D02*
X0166724Y0168251D01*
X0166225Y0168750D02*
X0177500Y0168750D01*
X0177500Y0169248D02*
X0165727Y0169248D01*
X0165228Y0169747D02*
X0177500Y0169747D01*
X0177500Y0170245D02*
X0164730Y0170245D01*
X0164231Y0170744D02*
X0177500Y0170744D01*
X0177500Y0171242D02*
X0164000Y0171242D01*
X0164000Y0171741D02*
X0177500Y0171741D01*
X0177500Y0172239D02*
X0164000Y0172239D01*
X0164000Y0172738D02*
X0177500Y0172738D01*
X0177500Y0173236D02*
X0164000Y0173236D01*
X0164000Y0173735D02*
X0177500Y0173735D01*
X0177500Y0174233D02*
X0164000Y0174233D01*
X0164000Y0174732D02*
X0177500Y0174732D01*
X0177500Y0175230D02*
X0164000Y0175230D01*
X0164000Y0175729D02*
X0177500Y0175729D01*
X0177500Y0176227D02*
X0164000Y0176227D01*
X0164000Y0176726D02*
X0177500Y0176726D01*
X0177500Y0177224D02*
X0164000Y0177224D01*
X0164000Y0177723D02*
X0164615Y0177723D01*
X0164117Y0178222D02*
X0164000Y0178222D01*
X0166000Y0178222D02*
X0166500Y0178222D01*
X0166500Y0178720D02*
X0166000Y0178720D01*
X0166000Y0179219D02*
X0166500Y0179219D01*
X0166500Y0179717D02*
X0166000Y0179717D01*
X0166000Y0180216D02*
X0166500Y0180216D01*
X0166500Y0180714D02*
X0166000Y0180714D01*
X0166500Y0181000D02*
X0166500Y0177600D01*
X0167762Y0177600D01*
X0169900Y0179738D01*
X0169900Y0181000D01*
X0166500Y0181000D01*
X0166500Y0181213D02*
X0177500Y0181213D01*
X0177500Y0181711D02*
X0169900Y0181711D01*
X0169900Y0181500D02*
X0169900Y0182762D01*
X0167762Y0184900D01*
X0166500Y0184900D01*
X0166500Y0181500D01*
X0169900Y0181500D01*
X0169900Y0182210D02*
X0177500Y0182210D01*
X0177500Y0182708D02*
X0169900Y0182708D01*
X0169455Y0183207D02*
X0177500Y0183207D01*
X0177500Y0183705D02*
X0168957Y0183705D01*
X0168458Y0184204D02*
X0177500Y0184204D01*
X0177360Y0184702D02*
X0167960Y0184702D01*
X0166500Y0184702D02*
X0166000Y0184702D01*
X0166000Y0184204D02*
X0166500Y0184204D01*
X0166500Y0183705D02*
X0166000Y0183705D01*
X0166000Y0183207D02*
X0166500Y0183207D01*
X0166500Y0182708D02*
X0166000Y0182708D01*
X0166000Y0182210D02*
X0166500Y0182210D01*
X0166500Y0181711D02*
X0166000Y0181711D01*
X0164042Y0184204D02*
X0164000Y0184204D01*
X0164000Y0184702D02*
X0164540Y0184702D01*
X0164000Y0185201D02*
X0177053Y0185201D01*
X0176847Y0185699D02*
X0164000Y0185699D01*
X0164000Y0186198D02*
X0176819Y0186198D01*
X0176819Y0186696D02*
X0164000Y0186696D01*
X0164000Y0187195D02*
X0177010Y0187195D01*
X0172899Y0187693D02*
X0164000Y0187693D01*
X0164000Y0188192D02*
X0171746Y0188192D01*
X0171248Y0188690D02*
X0164000Y0188690D01*
X0164000Y0189189D02*
X0170753Y0189189D01*
X0170547Y0189687D02*
X0164000Y0189687D01*
X0164000Y0190186D02*
X0170340Y0190186D01*
X0170200Y0190684D02*
X0164000Y0190684D01*
X0164000Y0191183D02*
X0170200Y0191183D01*
X0170200Y0191681D02*
X0164000Y0191681D01*
X0164000Y0192180D02*
X0170284Y0192180D01*
X0170491Y0192678D02*
X0164000Y0192678D01*
X0164000Y0193177D02*
X0170697Y0193177D01*
X0171113Y0193675D02*
X0164000Y0193675D01*
X0164000Y0194174D02*
X0171612Y0194174D01*
X0172574Y0194672D02*
X0164000Y0194672D01*
X0164000Y0195171D02*
X0181500Y0195171D01*
X0181500Y0195669D02*
X0164000Y0195669D01*
X0164000Y0196168D02*
X0181500Y0196168D01*
X0181500Y0196666D02*
X0164000Y0196666D01*
X0164000Y0197165D02*
X0181500Y0197165D01*
X0181500Y0197663D02*
X0179329Y0197663D01*
X0180598Y0198162D02*
X0181500Y0198162D01*
X0181500Y0198660D02*
X0181222Y0198660D01*
X0181500Y0194672D02*
X0179926Y0194672D01*
X0180888Y0194174D02*
X0181500Y0194174D01*
X0181500Y0193675D02*
X0181387Y0193675D01*
X0176500Y0197663D02*
X0176000Y0197663D01*
X0176000Y0197600D02*
X0176000Y0201000D01*
X0170200Y0201000D01*
X0170200Y0200890D01*
X0170340Y0200185D01*
X0170615Y0199521D01*
X0171015Y0198923D01*
X0171523Y0198415D01*
X0172121Y0198015D01*
X0172785Y0197740D01*
X0173490Y0197600D01*
X0176000Y0197600D01*
X0176000Y0198162D02*
X0176500Y0198162D01*
X0176500Y0198660D02*
X0176000Y0198660D01*
X0176000Y0199159D02*
X0176500Y0199159D01*
X0176500Y0199658D02*
X0176000Y0199658D01*
X0176000Y0200156D02*
X0176500Y0200156D01*
X0176500Y0200655D02*
X0176000Y0200655D01*
X0176000Y0201153D02*
X0164000Y0201153D01*
X0164000Y0200655D02*
X0170247Y0200655D01*
X0170352Y0200156D02*
X0164000Y0200156D01*
X0164000Y0199658D02*
X0170559Y0199658D01*
X0170857Y0199159D02*
X0164000Y0199159D01*
X0164000Y0198660D02*
X0171278Y0198660D01*
X0171902Y0198162D02*
X0164000Y0198162D01*
X0164000Y0197663D02*
X0173171Y0197663D01*
X0176000Y0201652D02*
X0176500Y0201652D01*
X0176500Y0202150D02*
X0176000Y0202150D01*
X0176000Y0202649D02*
X0176500Y0202649D01*
X0176500Y0203147D02*
X0176000Y0203147D01*
X0176000Y0203646D02*
X0176500Y0203646D01*
X0176500Y0204144D02*
X0176000Y0204144D01*
X0176000Y0204643D02*
X0176500Y0204643D01*
X0171612Y0204144D02*
X0164000Y0204144D01*
X0164000Y0203646D02*
X0171084Y0203646D01*
X0170728Y0203147D02*
X0164000Y0203147D01*
X0164000Y0202649D02*
X0170479Y0202649D01*
X0170308Y0202150D02*
X0164000Y0202150D01*
X0164000Y0201652D02*
X0170208Y0201652D01*
X0173471Y0217604D02*
X0164000Y0217604D01*
X0164000Y0218102D02*
X0171991Y0218102D01*
X0171337Y0218601D02*
X0164000Y0218601D01*
X0164000Y0219099D02*
X0170897Y0219099D01*
X0170584Y0219598D02*
X0164000Y0219598D01*
X0164000Y0220096D02*
X0170377Y0220096D01*
X0170259Y0220595D02*
X0164000Y0220595D01*
X0151500Y0214613D02*
X0150069Y0214613D01*
X0150933Y0214114D02*
X0151500Y0214114D01*
X0151500Y0213616D02*
X0151446Y0213616D01*
X0146500Y0213616D02*
X0146000Y0213616D01*
X0146000Y0214114D02*
X0146500Y0214114D01*
X0146500Y0214613D02*
X0146000Y0214613D01*
X0146000Y0213117D02*
X0146500Y0213117D01*
X0146500Y0212619D02*
X0146000Y0212619D01*
X0146000Y0212120D02*
X0146500Y0212120D01*
X0146500Y0211622D02*
X0146000Y0211622D01*
X0150373Y0248013D02*
X0169012Y0248013D01*
X0168514Y0248512D02*
X0151073Y0248512D01*
X0151572Y0249010D02*
X0168015Y0249010D01*
X0167516Y0249509D02*
X0151879Y0249509D01*
X0152086Y0250007D02*
X0167018Y0250007D01*
X0166519Y0250506D02*
X0152292Y0250506D01*
X0152300Y0251004D02*
X0166021Y0251004D01*
X0165522Y0251503D02*
X0152300Y0251503D01*
X0152290Y0252001D02*
X0165024Y0252001D01*
X0164525Y0252500D02*
X0152083Y0252500D01*
X0151877Y0252998D02*
X0164027Y0252998D01*
X0163528Y0253497D02*
X0151565Y0253497D01*
X0151067Y0253995D02*
X0163030Y0253995D01*
X0162531Y0254494D02*
X0150357Y0254494D01*
X0169900Y0180714D02*
X0177500Y0180714D01*
X0177500Y0180216D02*
X0169900Y0180216D01*
X0169879Y0179717D02*
X0177500Y0179717D01*
X0177500Y0179219D02*
X0169380Y0179219D01*
X0168882Y0178720D02*
X0177500Y0178720D01*
X0177500Y0178222D02*
X0168383Y0178222D01*
X0167885Y0177723D02*
X0177500Y0177723D01*
X0166500Y0177723D02*
X0166000Y0177723D01*
X0071000Y0156500D02*
X0071000Y0156000D01*
X0066200Y0156000D01*
X0066200Y0155853D01*
X0066324Y0155067D01*
X0066570Y0154311D01*
X0066931Y0153603D01*
X0067398Y0152960D01*
X0067960Y0152398D01*
X0068603Y0151931D01*
X0069311Y0151570D01*
X0070067Y0151324D01*
X0070239Y0151297D01*
X0068389Y0150531D01*
X0066969Y0149111D01*
X0066200Y0147255D01*
X0066200Y0145245D01*
X0066969Y0143389D01*
X0068389Y0141969D01*
X0070125Y0141250D01*
X0068389Y0140531D01*
X0066969Y0139111D01*
X0066200Y0137255D01*
X0066200Y0135245D01*
X0066969Y0133389D01*
X0068389Y0131969D01*
X0070125Y0131250D01*
X0068389Y0130531D01*
X0067417Y0129558D01*
X0065000Y0131975D01*
X0065000Y0155525D01*
X0066215Y0156740D01*
X0066200Y0156647D01*
X0066200Y0156500D01*
X0071000Y0156500D01*
X0071000Y0156287D02*
X0065762Y0156287D01*
X0066210Y0155789D02*
X0065263Y0155789D01*
X0065000Y0155290D02*
X0066289Y0155290D01*
X0066414Y0154791D02*
X0065000Y0154791D01*
X0065000Y0154293D02*
X0066579Y0154293D01*
X0066833Y0153794D02*
X0065000Y0153794D01*
X0065000Y0153296D02*
X0067154Y0153296D01*
X0067561Y0152797D02*
X0065000Y0152797D01*
X0065000Y0152299D02*
X0068097Y0152299D01*
X0068859Y0151800D02*
X0065000Y0151800D01*
X0065000Y0151302D02*
X0070209Y0151302D01*
X0069047Y0150803D02*
X0065000Y0150803D01*
X0065000Y0150305D02*
X0068163Y0150305D01*
X0067665Y0149806D02*
X0065000Y0149806D01*
X0065000Y0149308D02*
X0067166Y0149308D01*
X0066844Y0148809D02*
X0065000Y0148809D01*
X0065000Y0148311D02*
X0066638Y0148311D01*
X0066431Y0147812D02*
X0065000Y0147812D01*
X0065000Y0147314D02*
X0066225Y0147314D01*
X0066200Y0146815D02*
X0065000Y0146815D01*
X0065000Y0146317D02*
X0066200Y0146317D01*
X0066200Y0145818D02*
X0065000Y0145818D01*
X0065000Y0145320D02*
X0066200Y0145320D01*
X0066376Y0144821D02*
X0065000Y0144821D01*
X0065000Y0144323D02*
X0066582Y0144323D01*
X0066789Y0143824D02*
X0065000Y0143824D01*
X0065000Y0143326D02*
X0067032Y0143326D01*
X0067531Y0142827D02*
X0065000Y0142827D01*
X0065000Y0142329D02*
X0068030Y0142329D01*
X0068724Y0141830D02*
X0065000Y0141830D01*
X0065000Y0141332D02*
X0069928Y0141332D01*
X0069118Y0140833D02*
X0065000Y0140833D01*
X0065000Y0140335D02*
X0068193Y0140335D01*
X0067694Y0139836D02*
X0065000Y0139836D01*
X0065000Y0139338D02*
X0067196Y0139338D01*
X0066856Y0138839D02*
X0065000Y0138839D01*
X0065000Y0138341D02*
X0066650Y0138341D01*
X0066443Y0137842D02*
X0065000Y0137842D01*
X0065000Y0137344D02*
X0066237Y0137344D01*
X0066200Y0136845D02*
X0065000Y0136845D01*
X0065000Y0136347D02*
X0066200Y0136347D01*
X0066200Y0135848D02*
X0065000Y0135848D01*
X0065000Y0135350D02*
X0066200Y0135350D01*
X0066363Y0134851D02*
X0065000Y0134851D01*
X0065000Y0134353D02*
X0066570Y0134353D01*
X0066776Y0133854D02*
X0065000Y0133854D01*
X0065000Y0133355D02*
X0067003Y0133355D01*
X0067501Y0132857D02*
X0065000Y0132857D01*
X0065000Y0132358D02*
X0068000Y0132358D01*
X0068652Y0131860D02*
X0065115Y0131860D01*
X0065613Y0131361D02*
X0069856Y0131361D01*
X0069190Y0130863D02*
X0066112Y0130863D01*
X0066610Y0130364D02*
X0068223Y0130364D01*
X0067724Y0129866D02*
X0067109Y0129866D01*
X0063147Y0125878D02*
X0059980Y0125878D01*
X0059980Y0126376D02*
X0062649Y0126376D01*
X0062150Y0126875D02*
X0059980Y0126875D01*
X0059980Y0127373D02*
X0061652Y0127373D01*
X0061153Y0127872D02*
X0059980Y0127872D01*
X0059980Y0128370D02*
X0060655Y0128370D01*
X0060156Y0128869D02*
X0059980Y0128869D01*
X0059980Y0125379D02*
X0063500Y0125379D01*
X0063500Y0124881D02*
X0059759Y0124881D01*
X0059260Y0124382D02*
X0063500Y0124382D01*
X0063500Y0123884D02*
X0050091Y0123884D01*
X0050590Y0123385D02*
X0063500Y0123385D01*
X0063500Y0122887D02*
X0051088Y0122887D01*
X0046637Y0122388D02*
X0027587Y0122388D01*
X0027088Y0122887D02*
X0046138Y0122887D01*
X0045640Y0123385D02*
X0026590Y0123385D01*
X0024631Y0120394D02*
X0012000Y0120394D01*
X0012000Y0119896D02*
X0025129Y0119896D01*
X0025628Y0119397D02*
X0012000Y0119397D01*
X0012000Y0118899D02*
X0017553Y0118899D01*
X0017808Y0119154D02*
X0013386Y0114731D01*
X0013386Y0111854D01*
X0020685Y0111854D01*
X0020685Y0111354D01*
X0021185Y0111354D01*
X0021185Y0104055D01*
X0024062Y0104055D01*
X0028484Y0108477D01*
X0028484Y0111354D01*
X0021185Y0111354D01*
X0021185Y0111854D01*
X0028484Y0111854D01*
X0028484Y0114731D01*
X0024062Y0119154D01*
X0021185Y0119154D01*
X0021185Y0111854D01*
X0020685Y0111854D01*
X0020685Y0119154D01*
X0017808Y0119154D01*
X0017055Y0118400D02*
X0012000Y0118400D01*
X0012000Y0117902D02*
X0016556Y0117902D01*
X0016058Y0117403D02*
X0012000Y0117403D01*
X0012000Y0116905D02*
X0015559Y0116905D01*
X0015061Y0116406D02*
X0012000Y0116406D01*
X0012000Y0115908D02*
X0014562Y0115908D01*
X0014064Y0115409D02*
X0012000Y0115409D01*
X0012000Y0114911D02*
X0013565Y0114911D01*
X0013386Y0114412D02*
X0012000Y0114412D01*
X0012000Y0113914D02*
X0013386Y0113914D01*
X0013386Y0113415D02*
X0012000Y0113415D01*
X0012000Y0112917D02*
X0013386Y0112917D01*
X0013386Y0112418D02*
X0012000Y0112418D01*
X0012000Y0111920D02*
X0013386Y0111920D01*
X0013386Y0111354D02*
X0013386Y0108477D01*
X0017808Y0104055D01*
X0020685Y0104055D01*
X0020685Y0111354D01*
X0013386Y0111354D01*
X0013386Y0110922D02*
X0012000Y0110922D01*
X0012000Y0110424D02*
X0013386Y0110424D01*
X0013386Y0109925D02*
X0012000Y0109925D01*
X0012000Y0109427D02*
X0013386Y0109427D01*
X0013386Y0108928D02*
X0012000Y0108928D01*
X0012000Y0108430D02*
X0013433Y0108430D01*
X0013932Y0107931D02*
X0012000Y0107931D01*
X0012000Y0107433D02*
X0014430Y0107433D01*
X0014929Y0106934D02*
X0012000Y0106934D01*
X0012000Y0106436D02*
X0015427Y0106436D01*
X0015926Y0105937D02*
X0012000Y0105937D01*
X0012000Y0105439D02*
X0016424Y0105439D01*
X0016923Y0104940D02*
X0012000Y0104940D01*
X0012000Y0104442D02*
X0017421Y0104442D01*
X0020685Y0104442D02*
X0021185Y0104442D01*
X0021185Y0104940D02*
X0020685Y0104940D01*
X0020685Y0105439D02*
X0021185Y0105439D01*
X0021185Y0105937D02*
X0020685Y0105937D01*
X0020685Y0106436D02*
X0021185Y0106436D01*
X0021185Y0106934D02*
X0020685Y0106934D01*
X0020685Y0107433D02*
X0021185Y0107433D01*
X0021185Y0107931D02*
X0020685Y0107931D01*
X0020685Y0108430D02*
X0021185Y0108430D01*
X0021185Y0108928D02*
X0020685Y0108928D01*
X0020685Y0109427D02*
X0021185Y0109427D01*
X0021185Y0109925D02*
X0020685Y0109925D01*
X0020685Y0110424D02*
X0021185Y0110424D01*
X0021185Y0110922D02*
X0020685Y0110922D01*
X0020685Y0111421D02*
X0012000Y0111421D01*
X0012000Y0103943D02*
X0025819Y0103943D01*
X0025819Y0104442D02*
X0024449Y0104442D01*
X0024947Y0104940D02*
X0025905Y0104940D01*
X0026111Y0105439D02*
X0025446Y0105439D01*
X0025944Y0105937D02*
X0026499Y0105937D01*
X0026443Y0106436D02*
X0027174Y0106436D01*
X0026941Y0106934D02*
X0038551Y0106934D01*
X0039049Y0106436D02*
X0029326Y0106436D01*
X0030001Y0105937D02*
X0039548Y0105937D01*
X0040046Y0105439D02*
X0030389Y0105439D01*
X0030595Y0104940D02*
X0040545Y0104940D01*
X0041043Y0104442D02*
X0030681Y0104442D01*
X0030681Y0103943D02*
X0061082Y0103943D01*
X0061580Y0103445D02*
X0030548Y0103445D01*
X0028437Y0108430D02*
X0037055Y0108430D01*
X0037008Y0108477D02*
X0041430Y0104055D01*
X0044307Y0104055D01*
X0044307Y0111354D01*
X0037008Y0111354D01*
X0037008Y0108477D01*
X0037008Y0108928D02*
X0028484Y0108928D01*
X0028484Y0109427D02*
X0037008Y0109427D01*
X0037008Y0109925D02*
X0028484Y0109925D01*
X0028484Y0110424D02*
X0037008Y0110424D01*
X0037008Y0110922D02*
X0028484Y0110922D01*
X0028484Y0111920D02*
X0037008Y0111920D01*
X0037008Y0112418D02*
X0028484Y0112418D01*
X0028484Y0112917D02*
X0037008Y0112917D01*
X0037008Y0113415D02*
X0028484Y0113415D01*
X0028484Y0113914D02*
X0037008Y0113914D01*
X0037008Y0114412D02*
X0028484Y0114412D01*
X0028305Y0114911D02*
X0037187Y0114911D01*
X0037686Y0115409D02*
X0027806Y0115409D01*
X0027308Y0115908D02*
X0038184Y0115908D01*
X0038683Y0116406D02*
X0026809Y0116406D01*
X0026311Y0116905D02*
X0039181Y0116905D01*
X0039680Y0117403D02*
X0025812Y0117403D01*
X0025314Y0117902D02*
X0040178Y0117902D01*
X0040677Y0118400D02*
X0024815Y0118400D01*
X0024317Y0118899D02*
X0026126Y0118899D01*
X0024132Y0120893D02*
X0012000Y0120893D01*
X0012000Y0121391D02*
X0023634Y0121391D01*
X0023135Y0121890D02*
X0012000Y0121890D01*
X0012000Y0122388D02*
X0022637Y0122388D01*
X0022138Y0122887D02*
X0012000Y0122887D01*
X0012000Y0123385D02*
X0021640Y0123385D01*
X0021141Y0123884D02*
X0012000Y0123884D01*
X0012000Y0124382D02*
X0020643Y0124382D01*
X0020144Y0124881D02*
X0012000Y0124881D01*
X0012000Y0125379D02*
X0019646Y0125379D01*
X0019147Y0125878D02*
X0012000Y0125878D01*
X0012000Y0126376D02*
X0018649Y0126376D01*
X0018150Y0126875D02*
X0012000Y0126875D01*
X0012000Y0127373D02*
X0017652Y0127373D01*
X0017153Y0127872D02*
X0012000Y0127872D01*
X0012000Y0128370D02*
X0016655Y0128370D01*
X0016156Y0128869D02*
X0012000Y0128869D01*
X0012000Y0129367D02*
X0015658Y0129367D01*
X0015159Y0129866D02*
X0012000Y0129866D01*
X0012000Y0130364D02*
X0014661Y0130364D01*
X0014162Y0130863D02*
X0012301Y0130863D01*
X0012513Y0131361D02*
X0013664Y0131361D01*
X0013165Y0131860D02*
X0012681Y0131860D01*
X0017148Y0142827D02*
X0017323Y0142827D01*
X0017323Y0143326D02*
X0016649Y0143326D01*
X0016151Y0143824D02*
X0017374Y0143824D01*
X0017580Y0144323D02*
X0015652Y0144323D01*
X0015154Y0144821D02*
X0017787Y0144821D01*
X0018164Y0145320D02*
X0014655Y0145320D01*
X0014157Y0145818D02*
X0018663Y0145818D01*
X0019546Y0146317D02*
X0014000Y0146317D01*
X0020685Y0167254D02*
X0021185Y0167254D01*
X0021185Y0167753D02*
X0020685Y0167753D01*
X0020685Y0168251D02*
X0021185Y0168251D01*
X0021185Y0168750D02*
X0020685Y0168750D01*
X0020685Y0169248D02*
X0021185Y0169248D01*
X0021185Y0169747D02*
X0020685Y0169747D01*
X0020685Y0170245D02*
X0021185Y0170245D01*
X0021185Y0170744D02*
X0020685Y0170744D01*
X0020685Y0171242D02*
X0021185Y0171242D01*
X0021185Y0171741D02*
X0020685Y0171741D01*
X0020685Y0172239D02*
X0021185Y0172239D01*
X0021185Y0172738D02*
X0020685Y0172738D01*
X0020685Y0173236D02*
X0021185Y0173236D01*
X0021185Y0173735D02*
X0020685Y0173735D01*
X0020685Y0174732D02*
X0021185Y0174732D01*
X0021185Y0175230D02*
X0020685Y0175230D01*
X0020685Y0175729D02*
X0021185Y0175729D01*
X0021185Y0176227D02*
X0020685Y0176227D01*
X0020685Y0176726D02*
X0021185Y0176726D01*
X0021185Y0177224D02*
X0020685Y0177224D01*
X0020685Y0177723D02*
X0021185Y0177723D01*
X0021185Y0178222D02*
X0020685Y0178222D01*
X0020685Y0178720D02*
X0021185Y0178720D01*
X0021185Y0179219D02*
X0020685Y0179219D01*
X0020685Y0179717D02*
X0021185Y0179717D01*
X0021185Y0180216D02*
X0020685Y0180216D01*
X0020685Y0180714D02*
X0021185Y0180714D01*
X0021185Y0181213D02*
X0020685Y0181213D01*
X0020685Y0181711D02*
X0021185Y0181711D01*
X0031795Y0192180D02*
X0043845Y0192180D01*
X0043347Y0192678D02*
X0035104Y0192678D01*
X0034284Y0192339D02*
X0037125Y0193515D01*
X0039299Y0195690D01*
X0040476Y0198531D01*
X0040476Y0201607D01*
X0039299Y0204448D01*
X0037125Y0206622D01*
X0036398Y0206923D01*
X0039943Y0210468D01*
X0040189Y0209873D01*
X0040500Y0209562D01*
X0040500Y0195525D01*
X0041525Y0194500D01*
X0051500Y0184525D01*
X0051500Y0178093D01*
X0047684Y0181909D01*
X0044807Y0181909D01*
X0044807Y0174610D01*
X0044307Y0174610D01*
X0044307Y0174110D01*
X0044807Y0174110D01*
X0044807Y0166811D01*
X0047684Y0166811D01*
X0052106Y0171233D01*
X0052106Y0172919D01*
X0052525Y0172500D01*
X0055819Y0169206D01*
X0055819Y0168766D01*
X0056189Y0167873D01*
X0056873Y0167189D01*
X0057468Y0166943D01*
X0054525Y0164000D01*
X0053525Y0164000D01*
X0048525Y0159000D01*
X0047500Y0157975D01*
X0047500Y0155148D01*
X0046603Y0156045D01*
X0045276Y0156594D01*
X0043839Y0156594D01*
X0043515Y0156460D01*
X0043032Y0156943D01*
X0043627Y0157189D01*
X0044311Y0157873D01*
X0044681Y0158766D01*
X0044681Y0159734D01*
X0044311Y0160627D01*
X0044000Y0160938D01*
X0044000Y0165975D01*
X0043164Y0166811D01*
X0044307Y0166811D01*
X0044307Y0174110D01*
X0037008Y0174110D01*
X0037008Y0172967D01*
X0035000Y0174975D01*
X0035000Y0188975D01*
X0031636Y0192339D01*
X0034284Y0192339D01*
X0032792Y0191183D02*
X0044842Y0191183D01*
X0044344Y0191681D02*
X0032294Y0191681D01*
X0033291Y0190684D02*
X0045341Y0190684D01*
X0045839Y0190186D02*
X0033789Y0190186D01*
X0034288Y0189687D02*
X0046338Y0189687D01*
X0046836Y0189189D02*
X0034786Y0189189D01*
X0035000Y0188690D02*
X0047335Y0188690D01*
X0047833Y0188192D02*
X0035000Y0188192D01*
X0035000Y0187693D02*
X0048332Y0187693D01*
X0048830Y0187195D02*
X0035000Y0187195D01*
X0035000Y0186696D02*
X0049329Y0186696D01*
X0049827Y0186198D02*
X0035000Y0186198D01*
X0035000Y0185699D02*
X0050326Y0185699D01*
X0050824Y0185201D02*
X0035000Y0185201D01*
X0035000Y0184702D02*
X0051323Y0184702D01*
X0051500Y0184204D02*
X0035000Y0184204D01*
X0035000Y0183705D02*
X0051500Y0183705D01*
X0051500Y0183207D02*
X0035000Y0183207D01*
X0035000Y0182708D02*
X0051500Y0182708D01*
X0051500Y0182210D02*
X0035000Y0182210D01*
X0035000Y0181711D02*
X0041232Y0181711D01*
X0041430Y0181909D02*
X0037008Y0177487D01*
X0037008Y0174610D01*
X0044307Y0174610D01*
X0044307Y0181909D01*
X0041430Y0181909D01*
X0040733Y0181213D02*
X0035000Y0181213D01*
X0035000Y0180714D02*
X0040235Y0180714D01*
X0039736Y0180216D02*
X0035000Y0180216D01*
X0035000Y0179717D02*
X0039238Y0179717D01*
X0038739Y0179219D02*
X0035000Y0179219D01*
X0035000Y0178720D02*
X0038241Y0178720D01*
X0037742Y0178222D02*
X0035000Y0178222D01*
X0035000Y0177723D02*
X0037244Y0177723D01*
X0037008Y0177224D02*
X0035000Y0177224D01*
X0035000Y0176726D02*
X0037008Y0176726D01*
X0037008Y0176227D02*
X0035000Y0176227D01*
X0035000Y0175729D02*
X0037008Y0175729D01*
X0037008Y0175230D02*
X0035000Y0175230D01*
X0035243Y0174732D02*
X0037008Y0174732D01*
X0037008Y0173735D02*
X0036240Y0173735D01*
X0035741Y0174233D02*
X0044307Y0174233D01*
X0044307Y0173735D02*
X0044807Y0173735D01*
X0044807Y0173236D02*
X0044307Y0173236D01*
X0044307Y0172738D02*
X0044807Y0172738D01*
X0044807Y0172239D02*
X0044307Y0172239D01*
X0044307Y0171741D02*
X0044807Y0171741D01*
X0044807Y0171242D02*
X0044307Y0171242D01*
X0044307Y0170744D02*
X0044807Y0170744D01*
X0044807Y0170245D02*
X0044307Y0170245D01*
X0044307Y0169747D02*
X0044807Y0169747D01*
X0044807Y0169248D02*
X0044307Y0169248D01*
X0044307Y0168750D02*
X0044807Y0168750D01*
X0044807Y0168251D02*
X0044307Y0168251D01*
X0044307Y0167753D02*
X0044807Y0167753D01*
X0044807Y0167254D02*
X0044307Y0167254D01*
X0043718Y0166257D02*
X0056782Y0166257D01*
X0056284Y0165759D02*
X0044000Y0165759D01*
X0044000Y0165260D02*
X0055785Y0165260D01*
X0055287Y0164762D02*
X0044000Y0164762D01*
X0044000Y0164263D02*
X0054788Y0164263D01*
X0053290Y0163765D02*
X0044000Y0163765D01*
X0044000Y0163266D02*
X0052791Y0163266D01*
X0052293Y0162768D02*
X0044000Y0162768D01*
X0044000Y0162269D02*
X0051794Y0162269D01*
X0051296Y0161771D02*
X0044000Y0161771D01*
X0044000Y0161272D02*
X0050797Y0161272D01*
X0050299Y0160774D02*
X0044164Y0160774D01*
X0044457Y0160275D02*
X0049800Y0160275D01*
X0049302Y0159777D02*
X0044663Y0159777D01*
X0044681Y0159278D02*
X0048803Y0159278D01*
X0048305Y0158780D02*
X0044681Y0158780D01*
X0044480Y0158281D02*
X0047806Y0158281D01*
X0047500Y0157783D02*
X0044221Y0157783D01*
X0043722Y0157284D02*
X0047500Y0157284D01*
X0047500Y0156786D02*
X0043189Y0156786D01*
X0046018Y0156287D02*
X0047500Y0156287D01*
X0047500Y0155789D02*
X0046859Y0155789D01*
X0047358Y0155290D02*
X0047500Y0155290D01*
X0048127Y0167254D02*
X0056808Y0167254D01*
X0057281Y0166756D02*
X0043219Y0166756D01*
X0048626Y0167753D02*
X0056309Y0167753D01*
X0056032Y0168251D02*
X0049124Y0168251D01*
X0049623Y0168750D02*
X0055826Y0168750D01*
X0055777Y0169248D02*
X0050121Y0169248D01*
X0050620Y0169747D02*
X0055278Y0169747D01*
X0054780Y0170245D02*
X0051118Y0170245D01*
X0051617Y0170744D02*
X0054281Y0170744D01*
X0053783Y0171242D02*
X0052106Y0171242D01*
X0052106Y0171741D02*
X0053284Y0171741D01*
X0052786Y0172239D02*
X0052106Y0172239D01*
X0052106Y0172738D02*
X0052287Y0172738D01*
X0051500Y0178222D02*
X0051372Y0178222D01*
X0051500Y0178720D02*
X0050873Y0178720D01*
X0050375Y0179219D02*
X0051500Y0179219D01*
X0051500Y0179717D02*
X0049876Y0179717D01*
X0049378Y0180216D02*
X0051500Y0180216D01*
X0051500Y0180714D02*
X0048879Y0180714D01*
X0048381Y0181213D02*
X0051500Y0181213D01*
X0051500Y0181711D02*
X0047882Y0181711D01*
X0044807Y0181711D02*
X0044307Y0181711D01*
X0044307Y0181213D02*
X0044807Y0181213D01*
X0044807Y0180714D02*
X0044307Y0180714D01*
X0044307Y0180216D02*
X0044807Y0180216D01*
X0044807Y0179717D02*
X0044307Y0179717D01*
X0044307Y0179219D02*
X0044807Y0179219D01*
X0044807Y0178720D02*
X0044307Y0178720D01*
X0044307Y0178222D02*
X0044807Y0178222D01*
X0044807Y0177723D02*
X0044307Y0177723D01*
X0044307Y0177224D02*
X0044807Y0177224D01*
X0044807Y0176726D02*
X0044307Y0176726D01*
X0044307Y0176227D02*
X0044807Y0176227D01*
X0044807Y0175729D02*
X0044307Y0175729D01*
X0044307Y0175230D02*
X0044807Y0175230D01*
X0044807Y0174732D02*
X0044307Y0174732D01*
X0037008Y0173236D02*
X0036738Y0173236D01*
X0035500Y0155290D02*
X0035162Y0155290D01*
X0035192Y0145320D02*
X0035500Y0145320D01*
X0035500Y0144821D02*
X0034554Y0144821D01*
X0039000Y0139836D02*
X0039189Y0139836D01*
X0039000Y0139338D02*
X0039687Y0139338D01*
X0040186Y0138839D02*
X0039000Y0138839D01*
X0039000Y0138341D02*
X0040685Y0138341D01*
X0041183Y0137842D02*
X0039000Y0137842D01*
X0039000Y0137344D02*
X0041682Y0137344D01*
X0042180Y0136845D02*
X0039000Y0136845D01*
X0039000Y0136347D02*
X0042679Y0136347D01*
X0042344Y0135848D02*
X0039000Y0135848D01*
X0044807Y0132857D02*
X0053168Y0132857D01*
X0052670Y0133355D02*
X0048166Y0133355D01*
X0048067Y0133854D02*
X0052171Y0133854D01*
X0051673Y0134353D02*
X0047899Y0134353D01*
X0047653Y0134851D02*
X0051174Y0134851D01*
X0050676Y0135350D02*
X0047298Y0135350D01*
X0048116Y0132358D02*
X0053667Y0132358D01*
X0054165Y0131860D02*
X0048002Y0131860D01*
X0047796Y0131361D02*
X0053255Y0131361D01*
X0052757Y0130863D02*
X0047485Y0130863D01*
X0047048Y0130364D02*
X0052756Y0130364D01*
X0052756Y0129866D02*
X0046395Y0129866D01*
X0052106Y0112917D02*
X0052109Y0112917D01*
X0052106Y0112418D02*
X0052607Y0112418D01*
X0053106Y0111920D02*
X0052106Y0111920D01*
X0052106Y0110922D02*
X0054103Y0110922D01*
X0054601Y0110424D02*
X0052106Y0110424D01*
X0052106Y0109925D02*
X0055100Y0109925D01*
X0055598Y0109427D02*
X0052106Y0109427D01*
X0052106Y0108928D02*
X0056097Y0108928D01*
X0056595Y0108430D02*
X0052059Y0108430D01*
X0051560Y0107931D02*
X0057094Y0107931D01*
X0057592Y0107433D02*
X0051062Y0107433D01*
X0050563Y0106934D02*
X0058091Y0106934D01*
X0058589Y0106436D02*
X0050065Y0106436D01*
X0049566Y0105937D02*
X0059088Y0105937D01*
X0059586Y0105439D02*
X0049068Y0105439D01*
X0048569Y0104940D02*
X0060085Y0104940D01*
X0060583Y0104442D02*
X0048071Y0104442D01*
X0044807Y0104442D02*
X0044307Y0104442D01*
X0044307Y0104940D02*
X0044807Y0104940D01*
X0044807Y0105439D02*
X0044307Y0105439D01*
X0044307Y0105937D02*
X0044807Y0105937D01*
X0044807Y0106436D02*
X0044307Y0106436D01*
X0044307Y0106934D02*
X0044807Y0106934D01*
X0044807Y0107433D02*
X0044307Y0107433D01*
X0044307Y0107931D02*
X0044807Y0107931D01*
X0044807Y0108430D02*
X0044307Y0108430D01*
X0044307Y0108928D02*
X0044807Y0108928D01*
X0044807Y0109427D02*
X0044307Y0109427D01*
X0044307Y0109925D02*
X0044807Y0109925D01*
X0044807Y0110424D02*
X0044307Y0110424D01*
X0044307Y0110922D02*
X0044807Y0110922D01*
X0044807Y0111421D02*
X0053604Y0111421D01*
X0044307Y0111421D02*
X0021185Y0111421D01*
X0021185Y0111920D02*
X0020685Y0111920D01*
X0020685Y0112418D02*
X0021185Y0112418D01*
X0021185Y0112917D02*
X0020685Y0112917D01*
X0020685Y0113415D02*
X0021185Y0113415D01*
X0021185Y0113914D02*
X0020685Y0113914D01*
X0020685Y0114412D02*
X0021185Y0114412D01*
X0021185Y0114911D02*
X0020685Y0114911D01*
X0020685Y0115409D02*
X0021185Y0115409D01*
X0021185Y0115908D02*
X0020685Y0115908D01*
X0020685Y0116406D02*
X0021185Y0116406D01*
X0021185Y0116905D02*
X0020685Y0116905D01*
X0020685Y0117403D02*
X0021185Y0117403D01*
X0021185Y0117902D02*
X0020685Y0117902D01*
X0020685Y0118400D02*
X0021185Y0118400D01*
X0021185Y0118899D02*
X0020685Y0118899D01*
X0027938Y0107931D02*
X0037554Y0107931D01*
X0038052Y0107433D02*
X0027440Y0107433D01*
X0025952Y0103445D02*
X0012000Y0103445D01*
X0012000Y0102946D02*
X0026159Y0102946D01*
X0026500Y0102448D02*
X0012000Y0102448D01*
X0012000Y0101949D02*
X0026500Y0101949D01*
X0026574Y0101451D02*
X0012000Y0101451D01*
X0012000Y0100952D02*
X0027073Y0100952D01*
X0027571Y0100454D02*
X0012000Y0100454D01*
X0012000Y0099955D02*
X0028070Y0099955D01*
X0028568Y0099457D02*
X0012000Y0099457D01*
X0012000Y0098958D02*
X0029067Y0098958D01*
X0029565Y0098460D02*
X0012000Y0098460D01*
X0012000Y0097961D02*
X0030064Y0097961D01*
X0030562Y0097463D02*
X0012000Y0097463D01*
X0012000Y0096964D02*
X0031061Y0096964D01*
X0031559Y0096466D02*
X0012000Y0096466D01*
X0012000Y0095967D02*
X0032058Y0095967D01*
X0032556Y0095469D02*
X0012000Y0095469D01*
X0012000Y0094970D02*
X0033055Y0094970D01*
X0033554Y0094472D02*
X0012000Y0094472D01*
X0036342Y0079018D02*
X0040500Y0079018D01*
X0040500Y0079516D02*
X0037299Y0079516D01*
X0037797Y0080015D02*
X0040500Y0080015D01*
X0040500Y0080513D02*
X0038296Y0080513D01*
X0038795Y0081012D02*
X0040500Y0081012D01*
X0040500Y0081510D02*
X0039293Y0081510D01*
X0039503Y0082009D02*
X0040500Y0082009D01*
X0040500Y0082507D02*
X0039710Y0082507D01*
X0039916Y0083006D02*
X0040500Y0083006D01*
X0040500Y0083504D02*
X0040123Y0083504D01*
X0040329Y0084003D02*
X0040500Y0084003D01*
X0040476Y0084501D02*
X0040500Y0084501D01*
X0040476Y0085000D02*
X0040500Y0085000D01*
X0040476Y0085498D02*
X0040500Y0085498D01*
X0040476Y0085997D02*
X0040500Y0085997D01*
X0040476Y0086495D02*
X0040500Y0086495D01*
X0040476Y0086994D02*
X0040500Y0086994D01*
X0040500Y0087492D02*
X0040452Y0087492D01*
X0042848Y0193177D02*
X0036307Y0193177D01*
X0037285Y0193675D02*
X0042350Y0193675D01*
X0041851Y0194174D02*
X0037783Y0194174D01*
X0038282Y0194672D02*
X0041353Y0194672D01*
X0040854Y0195171D02*
X0038780Y0195171D01*
X0039279Y0195669D02*
X0040500Y0195669D01*
X0040500Y0196168D02*
X0039497Y0196168D01*
X0039704Y0196666D02*
X0040500Y0196666D01*
X0040500Y0197165D02*
X0039910Y0197165D01*
X0040117Y0197663D02*
X0040500Y0197663D01*
X0040500Y0198162D02*
X0040323Y0198162D01*
X0040476Y0198660D02*
X0040500Y0198660D01*
X0040476Y0199159D02*
X0040500Y0199159D01*
X0040476Y0199658D02*
X0040500Y0199658D01*
X0040476Y0200156D02*
X0040500Y0200156D01*
X0040476Y0200655D02*
X0040500Y0200655D01*
X0040476Y0201153D02*
X0040500Y0201153D01*
X0040500Y0201652D02*
X0040458Y0201652D01*
X0040500Y0202150D02*
X0040251Y0202150D01*
X0040045Y0202649D02*
X0040500Y0202649D01*
X0040500Y0203147D02*
X0039838Y0203147D01*
X0039632Y0203646D02*
X0040500Y0203646D01*
X0040500Y0204144D02*
X0039425Y0204144D01*
X0039105Y0204643D02*
X0040500Y0204643D01*
X0040500Y0205141D02*
X0038606Y0205141D01*
X0038108Y0205640D02*
X0040500Y0205640D01*
X0040500Y0206138D02*
X0037609Y0206138D01*
X0037090Y0206637D02*
X0040500Y0206637D01*
X0040500Y0207135D02*
X0036610Y0207135D01*
X0037109Y0207634D02*
X0040500Y0207634D01*
X0040500Y0208132D02*
X0037607Y0208132D01*
X0038106Y0208631D02*
X0040500Y0208631D01*
X0040500Y0209129D02*
X0038604Y0209129D01*
X0039103Y0209628D02*
X0040434Y0209628D01*
X0040084Y0210126D02*
X0039601Y0210126D01*
X0057926Y0236049D02*
X0063574Y0236049D01*
X0064072Y0236547D02*
X0057428Y0236547D01*
X0056929Y0237046D02*
X0064571Y0237046D01*
X0065070Y0237544D02*
X0056430Y0237544D01*
X0056000Y0238043D02*
X0065568Y0238043D01*
X0066067Y0238541D02*
X0056000Y0238541D01*
X0055935Y0239040D02*
X0066565Y0239040D01*
X0067064Y0239538D02*
X0055436Y0239538D01*
X0054938Y0240037D02*
X0067562Y0240037D01*
X0068061Y0240535D02*
X0054439Y0240535D01*
X0058425Y0235550D02*
X0063075Y0235550D01*
X0062577Y0235052D02*
X0058923Y0235052D01*
X0059422Y0234553D02*
X0062078Y0234553D01*
X0061580Y0234055D02*
X0059920Y0234055D01*
X0060419Y0233556D02*
X0061500Y0233556D01*
X0061500Y0233058D02*
X0060917Y0233058D01*
X0061416Y0232559D02*
X0061500Y0232559D01*
X0061470Y0253995D02*
X0064341Y0253995D01*
X0063568Y0254494D02*
X0061969Y0254494D01*
X0062467Y0254992D02*
X0063140Y0254992D01*
M02*
