%
M48
M72
T01C0.01181
T02C0.02756
T03C0.03150
T04C0.03200
T05C0.03543
T06C0.04000
T07C0.04331
T08C0.08661
T09C0.11024
T10C0.12598
%
T01
X5300Y34300
X21300Y32300
X37300Y12300
X41300Y12300
X41300Y20300
X28300Y7300
X57300Y36300
X62300Y37300
X66300Y37300
X69300Y40300
X63300Y52300
X53300Y66300
X34300Y100300
X55300Y116300
X39300Y132300
X35300Y142300
X42300Y161300
X43300Y165300
X29300Y183300
X26300Y167300
X15300Y148300
X7300Y170300
X7300Y197300
X48300Y189300
X56300Y186300
X79300Y227300
X78300Y232300
X68300Y230300
X72300Y249300
X59300Y270300
X95300Y219300
X99300Y229300
X109300Y218300
X96300Y196300
X96300Y183300
X93300Y180300
X93300Y176300
X98300Y171300
X83300Y156300
X92300Y145300
X80300Y126300
X77300Y124300
X96300Y121300
X96300Y117300
X96300Y113300
X102300Y111300
X102300Y107300
X108300Y107300
X77300Y78300
X99300Y61300
X105300Y44300
X105300Y35300
X113300Y40300
X131300Y25300
X141300Y25300
X115300Y9300
X95300Y37300
X161300Y130300
X174300Y94300
X173300Y40300
X179300Y186300
X139300Y258300
X131300Y277300
X113300Y273300
X101300Y259300
X126300Y244300
X126300Y219300
T02
X83977Y233583
X83977Y241457
X83977Y249331
X83977Y257206
X162717Y72166
X162717Y64292
X162717Y56418
X162717Y40670
X162717Y32796
X56418Y44607
X56418Y52481
T03
X56418Y128032
X56418Y138032
X56418Y148032
X56418Y158032
X44607Y153032
X44607Y143032
X44607Y133032
X32796Y128032
X32796Y138032
X32796Y148032
X32796Y158032
X20985Y153032
X20985Y143032
X20985Y133032
T04
X86300Y131300
X86300Y121300
X86300Y111300
X86300Y101300
X86300Y91300
X86300Y81300
X86300Y71300
X86300Y56300
X86300Y46300
X86300Y36300
X86300Y26300
X96300Y16300
X106300Y16300
X116300Y16300
X116300Y26300
X116300Y36300
X116300Y46300
X116300Y56300
X116300Y71300
X116300Y81300
X116300Y91300
X116300Y101300
X116300Y111300
X116300Y121300
X116300Y131300
X116300Y141300
X116300Y151300
X116300Y161300
X116300Y171300
X116300Y181300
X116300Y191300
X116300Y201300
X106300Y211300
X96300Y211300
X86300Y201300
X86300Y191300
X86300Y181300
X86300Y171300
X86300Y161300
X86300Y151300
X86300Y141300
X106300Y226300
X116300Y226300
X126300Y226300
X146300Y221300
X146300Y231300
X146300Y241300
X146300Y251300
X126300Y256300
X126300Y271300
X106300Y271300
X106300Y256300
X86300Y271300
X66300Y271300
X146300Y211300
X146300Y201300
X146300Y191300
X156300Y181300
X166300Y181300
X176300Y191300
X176300Y201300
X176300Y211300
X176300Y221300
X176300Y231300
X176300Y241300
X176300Y251300
X146300Y66300
X146300Y46300
X146300Y36300
X146300Y16300
X136300Y16300
X71300Y26300
X61300Y26300
T05
X56300Y16300
X86300Y16300
T06
X46300Y26300
X36300Y26300
X26300Y26300
X146300Y76300
X146300Y86300
X146300Y96300
X146300Y106300
X146300Y116300
X146300Y126300
X156300Y141300
X156300Y151300
X156300Y161300
X166300Y161300
X166300Y151300
X166300Y141300
X46300Y236300
X46300Y246300
X46300Y256300
X46300Y266300
T07
X71300Y206300
X71300Y196300
X71300Y186300
X71300Y176300
X71300Y166300
X71300Y156300
X71300Y146300
X71300Y136300
X71300Y126300
X71300Y116300
X71300Y106300
X71300Y96300
X71300Y86300
X71300Y76300
X71300Y66300
X71300Y56300
X71300Y46300
X131300Y46300
X131300Y56300
X131300Y66300
X131300Y76300
X131300Y86300
X131300Y96300
X131300Y106300
X131300Y116300
X131300Y126300
X131300Y136300
X131300Y146300
X131300Y156300
X131300Y166300
X131300Y176300
X131300Y186300
X131300Y196300
X131300Y206300
T08
X44607Y174410
X20985Y174410
X20985Y111654
X44607Y111654
T09
X32796Y85946
X32796Y200119
T10
X13111Y13111
X54056Y85946
X54056Y200119
X13111Y272954
X174528Y272954
X174528Y13111
M30
