%
M48
M72
T01C0.01181
T02C0.02756
T03C0.03150
T04C0.03200
T05C0.03543
T06C0.03600
T07C0.04331
T08C0.08661
T09C0.11024
T10C0.12598
%
T01
X137500Y28500
X110500Y150500
X95500Y165500
X158500Y223500
X178500Y198500
X111500Y240500
X256500Y195500
X263500Y200500
X278500Y239500
X259500Y139500
X277500Y108500
T02
X261343Y44807
X261343Y36933
X261343Y233783
X261343Y241657
X261343Y249531
X241657Y233783
X233783Y233783
X218035Y233783
X210161Y233783
X202287Y233783
X194413Y233783
X135358Y233783
X127484Y233783
X119610Y233783
X111736Y233783
X95988Y233783
X88114Y233783
T03
X56618Y158232
X56618Y148232
X56618Y138232
X56618Y128232
X44807Y133232
X44807Y143232
X44807Y153232
X32996Y148232
X32996Y138232
X32996Y128232
X21185Y133232
X21185Y143232
X21185Y153232
X32996Y158232
T04
X81500Y121500
X81500Y111500
X81500Y96500
X91500Y96500
X101500Y96500
X111500Y96500
X121500Y96500
X131500Y96500
X141500Y96500
X151500Y96500
X161500Y96500
X171500Y96500
X181500Y96500
X191500Y96500
X201500Y96500
X211500Y96500
X231500Y86500
X231500Y76500
X246500Y66500
X256500Y66500
X266500Y66500
X276500Y66500
X276500Y96500
X266500Y96500
X256500Y96500
X246500Y96500
X211500Y66500
X201500Y66500
X191500Y66500
X181500Y66500
X171500Y66500
X161500Y66500
X151500Y66500
X141500Y66500
X131500Y66500
X121500Y66500
X111500Y66500
X101500Y66500
X91500Y66500
X81500Y66500
X111500Y186500
X121500Y186500
X131500Y186500
X141500Y186500
X151500Y186500
X161500Y186500
X171500Y186500
X181500Y186500
X201500Y196500
X211500Y186500
X221500Y186500
X231500Y186500
X241500Y186500
X251500Y186500
X261500Y186500
X271500Y186500
X271500Y216500
X261500Y216500
X251500Y216500
X241500Y216500
X231500Y216500
X221500Y216500
X211500Y216500
X201500Y206500
X181500Y216500
X171500Y216500
X161500Y216500
X151500Y216500
X141500Y216500
X131500Y216500
X121500Y216500
X111500Y216500
X96500Y216500
X86500Y216500
X158626Y231500
X158626Y241500
X158626Y251500
X178626Y251500
X178626Y241500
X178626Y231500
X221500Y51500
X241500Y51500
X231500Y21500
X211500Y21500
T05
X211500Y41500
X241500Y41500
T06
X129020Y39807
X129020Y49807
X119020Y49807
X109020Y49807
X109020Y39807
X119020Y39807
X99020Y39807
X89020Y39807
X89020Y49807
X99020Y49807
X79020Y49807
X69020Y49807
X69020Y39807
X79020Y39807
X59020Y39807
X59020Y49807
T07
X106500Y116500
X116500Y116500
X126500Y116500
X136500Y116500
X146500Y116500
X156500Y116500
X166500Y116500
X176500Y116500
X186500Y116500
X196500Y116500
X206500Y116500
X216500Y116500
X226500Y116500
X236500Y116500
X246500Y116500
X256500Y116500
X266500Y116500
X266500Y176500
X256500Y176500
X246500Y176500
X236500Y176500
X226500Y176500
X216500Y176500
X206500Y176500
X196500Y176500
X186500Y176500
X176500Y176500
X166500Y176500
X156500Y176500
X146500Y176500
X136500Y176500
X126500Y176500
X116500Y176500
X106500Y176500
T08
X44807Y174610
X21185Y174610
X21185Y111854
X44807Y111854
T09
X32996Y86146
X32996Y200319
T10
X13311Y13311
X54256Y86146
X54256Y200319
X13311Y273154
X174728Y273154
X273154Y273154
X273154Y13311
X174728Y13311
M30
