G75*
%MOIN*%
%OFA0B0*%
%FSLAX25Y25*%
%IPPOS*%
%LPD*%
%AMOC8*
5,1,8,0,0,1.08239X$1,22.5*
%
%ADD10C,0.00300*%
%ADD11C,0.00800*%
%ADD12C,0.00200*%
%ADD13C,0.00600*%
%ADD14C,0.01000*%
%ADD15C,0.00500*%
%ADD16R,0.10000X0.02000*%
D10*
X0027409Y0040097D02*
X0027409Y0040903D01*
X0027411Y0040958D01*
X0027417Y0041013D01*
X0027426Y0041067D01*
X0027439Y0041120D01*
X0027456Y0041173D01*
X0027476Y0041224D01*
X0027499Y0041274D01*
X0027526Y0041322D01*
X0027557Y0041368D01*
X0027590Y0041412D01*
X0027626Y0041453D01*
X0027665Y0041492D01*
X0027706Y0041528D01*
X0027750Y0041561D01*
X0027796Y0041592D01*
X0027844Y0041619D01*
X0027894Y0041642D01*
X0027945Y0041662D01*
X0027998Y0041679D01*
X0028051Y0041692D01*
X0028105Y0041701D01*
X0028160Y0041707D01*
X0028215Y0041709D01*
X0028270Y0041707D01*
X0028325Y0041701D01*
X0028379Y0041692D01*
X0028432Y0041679D01*
X0028485Y0041662D01*
X0028536Y0041642D01*
X0028586Y0041619D01*
X0028634Y0041592D01*
X0028680Y0041561D01*
X0028724Y0041528D01*
X0028765Y0041492D01*
X0028804Y0041453D01*
X0028840Y0041412D01*
X0028873Y0041368D01*
X0028904Y0041322D01*
X0028931Y0041274D01*
X0028954Y0041224D01*
X0028974Y0041173D01*
X0028991Y0041120D01*
X0029004Y0041067D01*
X0029013Y0041013D01*
X0029019Y0040958D01*
X0029021Y0040903D01*
X0029020Y0040903D02*
X0029020Y0040097D01*
X0030309Y0040097D02*
X0027409Y0040097D01*
X0027409Y0042735D02*
X0030309Y0043380D01*
X0028376Y0044024D01*
X0030309Y0044669D01*
X0027409Y0045313D01*
X0027409Y0046599D02*
X0027409Y0047405D01*
X0027411Y0047460D01*
X0027417Y0047515D01*
X0027426Y0047569D01*
X0027439Y0047622D01*
X0027456Y0047675D01*
X0027476Y0047726D01*
X0027499Y0047776D01*
X0027526Y0047824D01*
X0027557Y0047870D01*
X0027590Y0047914D01*
X0027626Y0047955D01*
X0027665Y0047994D01*
X0027706Y0048030D01*
X0027750Y0048063D01*
X0027796Y0048094D01*
X0027844Y0048121D01*
X0027894Y0048144D01*
X0027945Y0048164D01*
X0027998Y0048181D01*
X0028051Y0048194D01*
X0028105Y0048203D01*
X0028160Y0048209D01*
X0028215Y0048211D01*
X0028270Y0048209D01*
X0028325Y0048203D01*
X0028379Y0048194D01*
X0028432Y0048181D01*
X0028485Y0048164D01*
X0028536Y0048144D01*
X0028586Y0048121D01*
X0028634Y0048094D01*
X0028680Y0048063D01*
X0028724Y0048030D01*
X0028765Y0047994D01*
X0028804Y0047955D01*
X0028840Y0047914D01*
X0028873Y0047870D01*
X0028904Y0047824D01*
X0028931Y0047776D01*
X0028954Y0047726D01*
X0028974Y0047675D01*
X0028991Y0047622D01*
X0029004Y0047569D01*
X0029013Y0047515D01*
X0029019Y0047460D01*
X0029021Y0047405D01*
X0029020Y0047405D02*
X0029020Y0046599D01*
X0029020Y0047566D02*
X0030309Y0048210D01*
X0030309Y0049459D02*
X0030309Y0051070D01*
X0030309Y0050264D02*
X0027409Y0050264D01*
X0028054Y0049459D01*
X0027409Y0046599D02*
X0030309Y0046599D01*
X0030309Y0052339D02*
X0028698Y0053708D01*
X0027409Y0053225D02*
X0027411Y0053166D01*
X0027416Y0053108D01*
X0027426Y0053050D01*
X0027438Y0052993D01*
X0027455Y0052937D01*
X0027474Y0052882D01*
X0027498Y0052828D01*
X0027524Y0052776D01*
X0027554Y0052726D01*
X0027587Y0052677D01*
X0027623Y0052631D01*
X0027662Y0052587D01*
X0027703Y0052546D01*
X0027747Y0052507D01*
X0027793Y0052471D01*
X0027842Y0052439D01*
X0027892Y0052409D01*
X0027944Y0052382D01*
X0027998Y0052359D01*
X0028053Y0052339D01*
X0028698Y0053708D02*
X0028661Y0053745D01*
X0028621Y0053779D01*
X0028579Y0053811D01*
X0028534Y0053839D01*
X0028488Y0053865D01*
X0028441Y0053887D01*
X0028392Y0053906D01*
X0028342Y0053922D01*
X0028291Y0053934D01*
X0028239Y0053943D01*
X0028187Y0053948D01*
X0028134Y0053950D01*
X0028082Y0053948D01*
X0028031Y0053943D01*
X0027980Y0053933D01*
X0027930Y0053921D01*
X0027881Y0053904D01*
X0027833Y0053884D01*
X0027787Y0053861D01*
X0027742Y0053835D01*
X0027700Y0053805D01*
X0027659Y0053773D01*
X0027621Y0053738D01*
X0027586Y0053700D01*
X0027554Y0053659D01*
X0027524Y0053617D01*
X0027498Y0053572D01*
X0027475Y0053526D01*
X0027455Y0053478D01*
X0027438Y0053429D01*
X0027426Y0053379D01*
X0027416Y0053328D01*
X0027411Y0053277D01*
X0027409Y0053225D01*
X0027409Y0055058D02*
X0030309Y0056024D01*
X0027409Y0056991D01*
X0030309Y0053950D02*
X0030309Y0052339D01*
X0032640Y0017750D02*
X0033446Y0017750D01*
X0033501Y0017748D01*
X0033556Y0017742D01*
X0033610Y0017733D01*
X0033663Y0017720D01*
X0033716Y0017703D01*
X0033767Y0017683D01*
X0033817Y0017660D01*
X0033865Y0017633D01*
X0033911Y0017602D01*
X0033955Y0017569D01*
X0033996Y0017533D01*
X0034035Y0017494D01*
X0034071Y0017453D01*
X0034104Y0017409D01*
X0034135Y0017363D01*
X0034162Y0017315D01*
X0034185Y0017265D01*
X0034205Y0017214D01*
X0034222Y0017161D01*
X0034235Y0017108D01*
X0034244Y0017054D01*
X0034250Y0016999D01*
X0034252Y0016944D01*
X0034250Y0016889D01*
X0034244Y0016834D01*
X0034235Y0016780D01*
X0034222Y0016727D01*
X0034205Y0016674D01*
X0034185Y0016623D01*
X0034162Y0016573D01*
X0034135Y0016525D01*
X0034104Y0016479D01*
X0034071Y0016435D01*
X0034035Y0016394D01*
X0033996Y0016355D01*
X0033955Y0016319D01*
X0033911Y0016286D01*
X0033865Y0016255D01*
X0033817Y0016228D01*
X0033767Y0016205D01*
X0033716Y0016185D01*
X0033663Y0016168D01*
X0033610Y0016155D01*
X0033556Y0016146D01*
X0033501Y0016140D01*
X0033446Y0016138D01*
X0033446Y0016139D02*
X0032640Y0016139D01*
X0033607Y0016139D02*
X0034251Y0014850D01*
X0032640Y0014850D02*
X0032640Y0017750D01*
X0035807Y0016542D02*
X0036693Y0016058D01*
X0036370Y0014850D02*
X0036298Y0014852D01*
X0036227Y0014858D01*
X0036156Y0014867D01*
X0036086Y0014880D01*
X0036016Y0014897D01*
X0035947Y0014917D01*
X0035880Y0014941D01*
X0035814Y0014969D01*
X0035749Y0015000D01*
X0035686Y0015034D01*
X0035625Y0015072D01*
X0035566Y0015113D01*
X0035510Y0015156D01*
X0035455Y0015203D01*
X0035404Y0015253D01*
X0036693Y0016058D02*
X0036733Y0016032D01*
X0036772Y0016003D01*
X0036809Y0015971D01*
X0036843Y0015936D01*
X0036874Y0015899D01*
X0036903Y0015860D01*
X0036929Y0015819D01*
X0036951Y0015776D01*
X0036970Y0015731D01*
X0036986Y0015685D01*
X0036999Y0015639D01*
X0037008Y0015591D01*
X0037013Y0015543D01*
X0037015Y0015494D01*
X0037014Y0015494D02*
X0037012Y0015446D01*
X0037007Y0015398D01*
X0036998Y0015351D01*
X0036985Y0015304D01*
X0036969Y0015259D01*
X0036950Y0015215D01*
X0036928Y0015172D01*
X0036902Y0015131D01*
X0036873Y0015092D01*
X0036842Y0015056D01*
X0036808Y0015022D01*
X0036772Y0014991D01*
X0036733Y0014962D01*
X0036692Y0014936D01*
X0036649Y0014914D01*
X0036605Y0014895D01*
X0036560Y0014879D01*
X0036513Y0014866D01*
X0036466Y0014857D01*
X0036418Y0014852D01*
X0036370Y0014850D01*
X0036854Y0017508D02*
X0036801Y0017546D01*
X0036746Y0017580D01*
X0036690Y0017612D01*
X0036631Y0017641D01*
X0036572Y0017666D01*
X0036511Y0017688D01*
X0036449Y0017707D01*
X0036386Y0017722D01*
X0036323Y0017734D01*
X0036258Y0017743D01*
X0036194Y0017748D01*
X0036129Y0017750D01*
X0036081Y0017748D01*
X0036033Y0017743D01*
X0035986Y0017734D01*
X0035939Y0017721D01*
X0035894Y0017705D01*
X0035850Y0017686D01*
X0035807Y0017664D01*
X0035766Y0017638D01*
X0035727Y0017610D01*
X0035691Y0017578D01*
X0035657Y0017544D01*
X0035626Y0017508D01*
X0035597Y0017469D01*
X0035571Y0017428D01*
X0035549Y0017385D01*
X0035530Y0017341D01*
X0035514Y0017296D01*
X0035501Y0017249D01*
X0035492Y0017202D01*
X0035487Y0017154D01*
X0035485Y0017106D01*
X0035484Y0017106D02*
X0035486Y0017057D01*
X0035491Y0017009D01*
X0035500Y0016961D01*
X0035513Y0016915D01*
X0035529Y0016869D01*
X0035548Y0016824D01*
X0035570Y0016781D01*
X0035596Y0016740D01*
X0035625Y0016701D01*
X0035656Y0016664D01*
X0035690Y0016629D01*
X0035727Y0016597D01*
X0035766Y0016568D01*
X0035806Y0016542D01*
X0038027Y0017750D02*
X0038993Y0014850D01*
X0039960Y0017750D01*
X0154850Y0094229D02*
X0157750Y0095195D01*
X0157025Y0094954D02*
X0157025Y0093504D01*
X0157750Y0093262D02*
X0154850Y0094229D01*
X0154850Y0096399D02*
X0157750Y0098010D01*
X0154850Y0098010D01*
X0154850Y0096399D02*
X0157750Y0096399D01*
X0157750Y0099214D02*
X0154850Y0100181D01*
X0157750Y0101147D01*
X0157025Y0100906D02*
X0157025Y0099456D01*
X0157750Y0102357D02*
X0154850Y0102357D01*
X0155656Y0104751D02*
X0156944Y0104751D01*
X0156999Y0104753D01*
X0157054Y0104759D01*
X0157108Y0104768D01*
X0157161Y0104781D01*
X0157214Y0104798D01*
X0157265Y0104818D01*
X0157315Y0104841D01*
X0157363Y0104868D01*
X0157409Y0104899D01*
X0157453Y0104932D01*
X0157494Y0104968D01*
X0157533Y0105007D01*
X0157569Y0105048D01*
X0157602Y0105092D01*
X0157633Y0105138D01*
X0157660Y0105186D01*
X0157683Y0105236D01*
X0157703Y0105287D01*
X0157720Y0105340D01*
X0157733Y0105393D01*
X0157742Y0105447D01*
X0157748Y0105502D01*
X0157750Y0105557D01*
X0157748Y0105612D01*
X0157742Y0105667D01*
X0157733Y0105721D01*
X0157720Y0105774D01*
X0157703Y0105827D01*
X0157683Y0105878D01*
X0157660Y0105928D01*
X0157633Y0105976D01*
X0157602Y0106022D01*
X0157569Y0106066D01*
X0157533Y0106107D01*
X0157494Y0106146D01*
X0157453Y0106182D01*
X0157409Y0106215D01*
X0157363Y0106246D01*
X0157315Y0106273D01*
X0157265Y0106296D01*
X0157214Y0106316D01*
X0157161Y0106333D01*
X0157108Y0106346D01*
X0157054Y0106355D01*
X0156999Y0106361D01*
X0156944Y0106363D01*
X0156944Y0106362D02*
X0155656Y0106362D01*
X0155656Y0106363D02*
X0155601Y0106361D01*
X0155546Y0106355D01*
X0155492Y0106346D01*
X0155439Y0106333D01*
X0155386Y0106316D01*
X0155335Y0106296D01*
X0155285Y0106273D01*
X0155237Y0106246D01*
X0155191Y0106215D01*
X0155147Y0106182D01*
X0155106Y0106146D01*
X0155067Y0106107D01*
X0155031Y0106066D01*
X0154998Y0106022D01*
X0154967Y0105976D01*
X0154940Y0105928D01*
X0154917Y0105878D01*
X0154897Y0105827D01*
X0154880Y0105774D01*
X0154867Y0105721D01*
X0154858Y0105667D01*
X0154852Y0105612D01*
X0154850Y0105557D01*
X0154852Y0105502D01*
X0154858Y0105447D01*
X0154867Y0105393D01*
X0154880Y0105340D01*
X0154897Y0105287D01*
X0154917Y0105236D01*
X0154940Y0105186D01*
X0154967Y0105138D01*
X0154998Y0105092D01*
X0155031Y0105048D01*
X0155067Y0105007D01*
X0155106Y0104968D01*
X0155147Y0104932D01*
X0155191Y0104899D01*
X0155237Y0104868D01*
X0155285Y0104841D01*
X0155335Y0104818D01*
X0155386Y0104798D01*
X0155439Y0104781D01*
X0155492Y0104768D01*
X0155546Y0104759D01*
X0155601Y0104753D01*
X0155656Y0104751D01*
X0157750Y0103646D02*
X0157750Y0102357D01*
X0157106Y0107727D02*
X0155494Y0107727D01*
X0155443Y0107729D01*
X0155393Y0107735D01*
X0155344Y0107745D01*
X0155295Y0107759D01*
X0155248Y0107776D01*
X0155202Y0107797D01*
X0155158Y0107822D01*
X0155115Y0107850D01*
X0155076Y0107881D01*
X0155039Y0107916D01*
X0155004Y0107953D01*
X0154973Y0107992D01*
X0154945Y0108034D01*
X0154920Y0108079D01*
X0154899Y0108125D01*
X0154882Y0108172D01*
X0154868Y0108221D01*
X0154858Y0108270D01*
X0154852Y0108320D01*
X0154850Y0108371D01*
X0154850Y0109338D01*
X0156139Y0109338D02*
X0157750Y0109338D01*
X0157750Y0108371D01*
X0157748Y0108323D01*
X0157743Y0108275D01*
X0157734Y0108228D01*
X0157721Y0108181D01*
X0157705Y0108136D01*
X0157686Y0108092D01*
X0157664Y0108049D01*
X0157638Y0108008D01*
X0157609Y0107969D01*
X0157578Y0107933D01*
X0157544Y0107899D01*
X0157508Y0107868D01*
X0157469Y0107839D01*
X0157428Y0107813D01*
X0157385Y0107791D01*
X0157341Y0107772D01*
X0157296Y0107756D01*
X0157249Y0107743D01*
X0157202Y0107734D01*
X0157154Y0107729D01*
X0157106Y0107727D01*
X0156139Y0108855D02*
X0156139Y0109338D01*
X0161267Y0094570D02*
X0163362Y0094570D01*
X0163362Y0094571D02*
X0163417Y0094569D01*
X0163472Y0094563D01*
X0163526Y0094554D01*
X0163579Y0094541D01*
X0163632Y0094524D01*
X0163683Y0094504D01*
X0163733Y0094481D01*
X0163781Y0094454D01*
X0163827Y0094423D01*
X0163871Y0094390D01*
X0163912Y0094354D01*
X0163951Y0094315D01*
X0163987Y0094274D01*
X0164020Y0094230D01*
X0164051Y0094184D01*
X0164078Y0094136D01*
X0164101Y0094086D01*
X0164121Y0094035D01*
X0164138Y0093982D01*
X0164151Y0093929D01*
X0164160Y0093875D01*
X0164166Y0093820D01*
X0164168Y0093765D01*
X0164166Y0093710D01*
X0164160Y0093655D01*
X0164151Y0093601D01*
X0164138Y0093548D01*
X0164121Y0093495D01*
X0164101Y0093444D01*
X0164078Y0093394D01*
X0164051Y0093346D01*
X0164020Y0093300D01*
X0163987Y0093256D01*
X0163951Y0093215D01*
X0163912Y0093176D01*
X0163871Y0093140D01*
X0163827Y0093107D01*
X0163781Y0093076D01*
X0163733Y0093049D01*
X0163683Y0093026D01*
X0163632Y0093006D01*
X0163579Y0092989D01*
X0163526Y0092976D01*
X0163472Y0092967D01*
X0163417Y0092961D01*
X0163362Y0092959D01*
X0161267Y0092959D01*
X0161267Y0090809D02*
X0161267Y0090003D01*
X0164167Y0090003D01*
X0162878Y0090003D02*
X0162878Y0090809D01*
X0162878Y0090970D02*
X0164167Y0091614D01*
X0162879Y0090809D02*
X0162877Y0090864D01*
X0162871Y0090919D01*
X0162862Y0090973D01*
X0162849Y0091026D01*
X0162832Y0091079D01*
X0162812Y0091130D01*
X0162789Y0091180D01*
X0162762Y0091228D01*
X0162731Y0091274D01*
X0162698Y0091318D01*
X0162662Y0091359D01*
X0162623Y0091398D01*
X0162582Y0091434D01*
X0162538Y0091467D01*
X0162492Y0091498D01*
X0162444Y0091525D01*
X0162394Y0091548D01*
X0162343Y0091568D01*
X0162290Y0091585D01*
X0162237Y0091598D01*
X0162183Y0091607D01*
X0162128Y0091613D01*
X0162073Y0091615D01*
X0162018Y0091613D01*
X0161963Y0091607D01*
X0161909Y0091598D01*
X0161856Y0091585D01*
X0161803Y0091568D01*
X0161752Y0091548D01*
X0161702Y0091525D01*
X0161654Y0091498D01*
X0161608Y0091467D01*
X0161564Y0091434D01*
X0161523Y0091398D01*
X0161484Y0091359D01*
X0161448Y0091318D01*
X0161415Y0091274D01*
X0161384Y0091228D01*
X0161357Y0091180D01*
X0161334Y0091130D01*
X0161314Y0091079D01*
X0161297Y0091026D01*
X0161284Y0090973D01*
X0161275Y0090919D01*
X0161269Y0090864D01*
X0161267Y0090809D01*
X0161267Y0088522D02*
X0164167Y0088522D01*
X0162556Y0088522D02*
X0162556Y0086911D01*
X0161267Y0086911D02*
X0164167Y0086911D01*
X0164167Y0084933D02*
X0161267Y0084933D01*
X0161267Y0085738D02*
X0161267Y0084127D01*
X0174850Y0145166D02*
X0174850Y0145811D01*
X0174850Y0145489D02*
X0177750Y0145489D01*
X0177750Y0145811D02*
X0177750Y0145166D01*
X0177750Y0146987D02*
X0176139Y0148357D01*
X0174850Y0147873D02*
X0174852Y0147814D01*
X0174857Y0147756D01*
X0174867Y0147698D01*
X0174879Y0147641D01*
X0174896Y0147585D01*
X0174915Y0147530D01*
X0174939Y0147476D01*
X0174965Y0147424D01*
X0174995Y0147374D01*
X0175028Y0147325D01*
X0175064Y0147279D01*
X0175103Y0147235D01*
X0175144Y0147194D01*
X0175188Y0147155D01*
X0175234Y0147119D01*
X0175283Y0147087D01*
X0175333Y0147057D01*
X0175385Y0147030D01*
X0175439Y0147007D01*
X0175494Y0146987D01*
X0176139Y0148357D02*
X0176102Y0148394D01*
X0176062Y0148428D01*
X0176020Y0148460D01*
X0175975Y0148488D01*
X0175929Y0148514D01*
X0175882Y0148536D01*
X0175833Y0148555D01*
X0175783Y0148571D01*
X0175732Y0148583D01*
X0175680Y0148592D01*
X0175628Y0148597D01*
X0175575Y0148599D01*
X0175575Y0148598D02*
X0175523Y0148596D01*
X0175472Y0148591D01*
X0175421Y0148581D01*
X0175371Y0148569D01*
X0175322Y0148552D01*
X0175274Y0148532D01*
X0175228Y0148509D01*
X0175183Y0148483D01*
X0175141Y0148453D01*
X0175100Y0148421D01*
X0175062Y0148386D01*
X0175027Y0148348D01*
X0174995Y0148307D01*
X0174965Y0148265D01*
X0174939Y0148220D01*
X0174916Y0148174D01*
X0174896Y0148126D01*
X0174879Y0148077D01*
X0174867Y0148027D01*
X0174857Y0147976D01*
X0174852Y0147925D01*
X0174850Y0147873D01*
X0175494Y0149858D02*
X0177106Y0149858D01*
X0177154Y0149860D01*
X0177202Y0149865D01*
X0177249Y0149874D01*
X0177296Y0149887D01*
X0177341Y0149903D01*
X0177385Y0149922D01*
X0177428Y0149944D01*
X0177469Y0149970D01*
X0177508Y0149999D01*
X0177544Y0150030D01*
X0177578Y0150064D01*
X0177609Y0150100D01*
X0177638Y0150139D01*
X0177664Y0150180D01*
X0177686Y0150223D01*
X0177705Y0150267D01*
X0177721Y0150312D01*
X0177734Y0150359D01*
X0177743Y0150406D01*
X0177748Y0150454D01*
X0177750Y0150502D01*
X0177750Y0151147D01*
X0176542Y0153461D02*
X0176568Y0153501D01*
X0176597Y0153540D01*
X0176629Y0153577D01*
X0176664Y0153611D01*
X0176701Y0153642D01*
X0176740Y0153671D01*
X0176781Y0153697D01*
X0176824Y0153719D01*
X0176869Y0153738D01*
X0176915Y0153754D01*
X0176961Y0153767D01*
X0177009Y0153776D01*
X0177057Y0153781D01*
X0177106Y0153783D01*
X0177106Y0153782D02*
X0177154Y0153780D01*
X0177202Y0153775D01*
X0177249Y0153766D01*
X0177296Y0153753D01*
X0177341Y0153737D01*
X0177385Y0153718D01*
X0177428Y0153696D01*
X0177469Y0153670D01*
X0177508Y0153641D01*
X0177544Y0153610D01*
X0177578Y0153576D01*
X0177609Y0153540D01*
X0177638Y0153501D01*
X0177664Y0153460D01*
X0177686Y0153417D01*
X0177705Y0153373D01*
X0177721Y0153328D01*
X0177734Y0153281D01*
X0177743Y0153234D01*
X0177748Y0153186D01*
X0177750Y0153138D01*
X0176542Y0153460D02*
X0176058Y0152574D01*
X0174850Y0152896D02*
X0174852Y0152961D01*
X0174857Y0153025D01*
X0174866Y0153090D01*
X0174878Y0153153D01*
X0174893Y0153216D01*
X0174912Y0153278D01*
X0174934Y0153339D01*
X0174959Y0153398D01*
X0174988Y0153457D01*
X0175020Y0153513D01*
X0175054Y0153568D01*
X0175092Y0153621D01*
X0176058Y0152573D02*
X0176032Y0152533D01*
X0176003Y0152494D01*
X0175971Y0152457D01*
X0175936Y0152423D01*
X0175899Y0152392D01*
X0175860Y0152363D01*
X0175819Y0152337D01*
X0175776Y0152315D01*
X0175731Y0152296D01*
X0175685Y0152280D01*
X0175639Y0152267D01*
X0175591Y0152258D01*
X0175543Y0152253D01*
X0175494Y0152251D01*
X0175494Y0152252D02*
X0175446Y0152254D01*
X0175398Y0152259D01*
X0175351Y0152268D01*
X0175304Y0152281D01*
X0175259Y0152297D01*
X0175215Y0152316D01*
X0175172Y0152338D01*
X0175131Y0152364D01*
X0175092Y0152393D01*
X0175056Y0152424D01*
X0175022Y0152458D01*
X0174991Y0152494D01*
X0174962Y0152533D01*
X0174936Y0152574D01*
X0174914Y0152617D01*
X0174895Y0152661D01*
X0174879Y0152706D01*
X0174866Y0152753D01*
X0174857Y0152800D01*
X0174852Y0152848D01*
X0174850Y0152896D01*
X0177347Y0152172D02*
X0177397Y0152223D01*
X0177444Y0152278D01*
X0177487Y0152334D01*
X0177528Y0152393D01*
X0177566Y0152454D01*
X0177600Y0152517D01*
X0177631Y0152582D01*
X0177659Y0152648D01*
X0177683Y0152715D01*
X0177703Y0152784D01*
X0177720Y0152854D01*
X0177733Y0152924D01*
X0177742Y0152995D01*
X0177748Y0153066D01*
X0177750Y0153138D01*
X0177750Y0155500D02*
X0175817Y0156145D01*
X0177750Y0156789D01*
X0174850Y0157434D01*
X0174850Y0154856D02*
X0177750Y0155500D01*
X0174850Y0151147D02*
X0174850Y0150502D01*
X0174852Y0150451D01*
X0174858Y0150401D01*
X0174868Y0150352D01*
X0174882Y0150303D01*
X0174899Y0150256D01*
X0174920Y0150210D01*
X0174945Y0150165D01*
X0174973Y0150123D01*
X0175004Y0150084D01*
X0175039Y0150047D01*
X0175076Y0150012D01*
X0175115Y0149981D01*
X0175158Y0149953D01*
X0175202Y0149928D01*
X0175248Y0149907D01*
X0175295Y0149890D01*
X0175344Y0149876D01*
X0175393Y0149866D01*
X0175443Y0149860D01*
X0175494Y0149858D01*
X0177750Y0148598D02*
X0177750Y0146987D01*
X0142106Y0259242D02*
X0140494Y0259242D01*
X0140443Y0259244D01*
X0140393Y0259250D01*
X0140344Y0259260D01*
X0140295Y0259274D01*
X0140248Y0259291D01*
X0140202Y0259312D01*
X0140158Y0259337D01*
X0140115Y0259365D01*
X0140076Y0259396D01*
X0140039Y0259431D01*
X0140004Y0259468D01*
X0139973Y0259507D01*
X0139945Y0259549D01*
X0139920Y0259594D01*
X0139899Y0259640D01*
X0139882Y0259687D01*
X0139868Y0259736D01*
X0139858Y0259785D01*
X0139852Y0259835D01*
X0139850Y0259886D01*
X0139850Y0260531D01*
X0139850Y0261747D02*
X0142750Y0261747D01*
X0142750Y0260531D02*
X0142750Y0259886D01*
X0142748Y0259838D01*
X0142743Y0259790D01*
X0142734Y0259743D01*
X0142721Y0259696D01*
X0142705Y0259651D01*
X0142686Y0259607D01*
X0142664Y0259564D01*
X0142638Y0259523D01*
X0142609Y0259484D01*
X0142578Y0259448D01*
X0142544Y0259414D01*
X0142508Y0259383D01*
X0142469Y0259354D01*
X0142428Y0259328D01*
X0142385Y0259306D01*
X0142341Y0259287D01*
X0142296Y0259271D01*
X0142249Y0259258D01*
X0142202Y0259249D01*
X0142154Y0259244D01*
X0142106Y0259242D01*
X0141139Y0261747D02*
X0141139Y0263358D01*
X0139850Y0263358D02*
X0142750Y0263358D01*
X0057868Y0250959D02*
X0054968Y0250959D01*
X0054968Y0250154D02*
X0054968Y0251765D01*
X0054968Y0248981D02*
X0057868Y0248981D01*
X0054968Y0247370D01*
X0057868Y0247370D01*
X0057063Y0246005D02*
X0055774Y0246005D01*
X0055719Y0246003D01*
X0055664Y0245997D01*
X0055610Y0245988D01*
X0055557Y0245975D01*
X0055504Y0245958D01*
X0055453Y0245938D01*
X0055403Y0245915D01*
X0055355Y0245888D01*
X0055309Y0245857D01*
X0055265Y0245824D01*
X0055224Y0245788D01*
X0055185Y0245749D01*
X0055149Y0245708D01*
X0055116Y0245664D01*
X0055085Y0245618D01*
X0055058Y0245570D01*
X0055035Y0245520D01*
X0055015Y0245469D01*
X0054998Y0245416D01*
X0054985Y0245363D01*
X0054976Y0245309D01*
X0054970Y0245254D01*
X0054968Y0245199D01*
X0054970Y0245144D01*
X0054976Y0245089D01*
X0054985Y0245035D01*
X0054998Y0244982D01*
X0055015Y0244929D01*
X0055035Y0244878D01*
X0055058Y0244828D01*
X0055085Y0244780D01*
X0055116Y0244734D01*
X0055149Y0244690D01*
X0055185Y0244649D01*
X0055224Y0244610D01*
X0055265Y0244574D01*
X0055309Y0244541D01*
X0055355Y0244510D01*
X0055403Y0244483D01*
X0055453Y0244460D01*
X0055504Y0244440D01*
X0055557Y0244423D01*
X0055610Y0244410D01*
X0055664Y0244401D01*
X0055719Y0244395D01*
X0055774Y0244393D01*
X0055774Y0244394D02*
X0057063Y0244394D01*
X0057063Y0244393D02*
X0057118Y0244395D01*
X0057173Y0244401D01*
X0057227Y0244410D01*
X0057280Y0244423D01*
X0057333Y0244440D01*
X0057384Y0244460D01*
X0057434Y0244483D01*
X0057482Y0244510D01*
X0057528Y0244541D01*
X0057572Y0244574D01*
X0057613Y0244610D01*
X0057652Y0244649D01*
X0057688Y0244690D01*
X0057721Y0244734D01*
X0057752Y0244780D01*
X0057779Y0244828D01*
X0057802Y0244878D01*
X0057822Y0244929D01*
X0057839Y0244982D01*
X0057852Y0245035D01*
X0057861Y0245089D01*
X0057867Y0245144D01*
X0057869Y0245199D01*
X0057867Y0245254D01*
X0057861Y0245309D01*
X0057852Y0245363D01*
X0057839Y0245416D01*
X0057822Y0245469D01*
X0057802Y0245520D01*
X0057779Y0245570D01*
X0057752Y0245618D01*
X0057721Y0245664D01*
X0057688Y0245708D01*
X0057652Y0245749D01*
X0057613Y0245788D01*
X0057572Y0245824D01*
X0057528Y0245857D01*
X0057482Y0245888D01*
X0057434Y0245915D01*
X0057384Y0245938D01*
X0057333Y0245958D01*
X0057280Y0245975D01*
X0057227Y0245988D01*
X0057173Y0245997D01*
X0057118Y0246003D01*
X0057063Y0246005D01*
X0057868Y0243145D02*
X0056579Y0242501D01*
X0056579Y0242340D02*
X0056579Y0241534D01*
X0056580Y0242340D02*
X0056578Y0242395D01*
X0056572Y0242450D01*
X0056563Y0242504D01*
X0056550Y0242557D01*
X0056533Y0242610D01*
X0056513Y0242661D01*
X0056490Y0242711D01*
X0056463Y0242759D01*
X0056432Y0242805D01*
X0056399Y0242849D01*
X0056363Y0242890D01*
X0056324Y0242929D01*
X0056283Y0242965D01*
X0056239Y0242998D01*
X0056193Y0243029D01*
X0056145Y0243056D01*
X0056095Y0243079D01*
X0056044Y0243099D01*
X0055991Y0243116D01*
X0055938Y0243129D01*
X0055884Y0243138D01*
X0055829Y0243144D01*
X0055774Y0243146D01*
X0055719Y0243144D01*
X0055664Y0243138D01*
X0055610Y0243129D01*
X0055557Y0243116D01*
X0055504Y0243099D01*
X0055453Y0243079D01*
X0055403Y0243056D01*
X0055355Y0243029D01*
X0055309Y0242998D01*
X0055265Y0242965D01*
X0055224Y0242929D01*
X0055185Y0242890D01*
X0055149Y0242849D01*
X0055116Y0242805D01*
X0055085Y0242759D01*
X0055058Y0242711D01*
X0055035Y0242661D01*
X0055015Y0242610D01*
X0054998Y0242557D01*
X0054985Y0242504D01*
X0054976Y0242450D01*
X0054970Y0242395D01*
X0054968Y0242340D01*
X0054968Y0241534D01*
X0057868Y0241534D01*
X0056257Y0240313D02*
X0056257Y0239024D01*
X0054968Y0239024D02*
X0054968Y0240313D01*
X0054968Y0239024D02*
X0057868Y0239024D01*
X0037750Y0247678D02*
X0034850Y0249611D01*
X0034850Y0250821D02*
X0037750Y0250821D01*
X0037750Y0252110D01*
X0037750Y0253311D02*
X0037750Y0254117D01*
X0037748Y0254172D01*
X0037742Y0254227D01*
X0037733Y0254281D01*
X0037720Y0254334D01*
X0037703Y0254387D01*
X0037683Y0254438D01*
X0037660Y0254488D01*
X0037633Y0254536D01*
X0037602Y0254582D01*
X0037569Y0254626D01*
X0037533Y0254667D01*
X0037494Y0254706D01*
X0037453Y0254742D01*
X0037409Y0254775D01*
X0037363Y0254806D01*
X0037315Y0254833D01*
X0037265Y0254856D01*
X0037214Y0254876D01*
X0037161Y0254893D01*
X0037108Y0254906D01*
X0037054Y0254915D01*
X0036999Y0254921D01*
X0036944Y0254923D01*
X0036944Y0254922D02*
X0035656Y0254922D01*
X0035656Y0254923D02*
X0035601Y0254921D01*
X0035546Y0254915D01*
X0035492Y0254906D01*
X0035439Y0254893D01*
X0035386Y0254876D01*
X0035335Y0254856D01*
X0035285Y0254833D01*
X0035237Y0254806D01*
X0035191Y0254775D01*
X0035147Y0254742D01*
X0035106Y0254706D01*
X0035067Y0254667D01*
X0035031Y0254626D01*
X0034998Y0254582D01*
X0034967Y0254536D01*
X0034940Y0254488D01*
X0034917Y0254438D01*
X0034897Y0254387D01*
X0034880Y0254334D01*
X0034867Y0254281D01*
X0034858Y0254227D01*
X0034852Y0254172D01*
X0034850Y0254117D01*
X0034850Y0253311D01*
X0037750Y0253311D01*
X0037750Y0249611D02*
X0034850Y0247678D01*
X0032383Y0244382D02*
X0028683Y0244382D01*
X0028683Y0245410D01*
X0028685Y0245458D01*
X0028691Y0245507D01*
X0028700Y0245554D01*
X0028713Y0245601D01*
X0028730Y0245646D01*
X0028750Y0245690D01*
X0028774Y0245732D01*
X0028801Y0245773D01*
X0028831Y0245811D01*
X0028864Y0245846D01*
X0028899Y0245879D01*
X0028937Y0245909D01*
X0028978Y0245936D01*
X0029020Y0245960D01*
X0029064Y0245980D01*
X0029109Y0245997D01*
X0029156Y0246010D01*
X0029203Y0246019D01*
X0029252Y0246025D01*
X0029300Y0246027D01*
X0029300Y0246026D02*
X0030533Y0246026D01*
X0030533Y0246027D02*
X0030581Y0246025D01*
X0030630Y0246019D01*
X0030677Y0246010D01*
X0030724Y0245997D01*
X0030769Y0245980D01*
X0030813Y0245960D01*
X0030855Y0245936D01*
X0030896Y0245909D01*
X0030934Y0245879D01*
X0030969Y0245846D01*
X0031002Y0245811D01*
X0031032Y0245773D01*
X0031059Y0245732D01*
X0031083Y0245690D01*
X0031103Y0245646D01*
X0031120Y0245601D01*
X0031133Y0245554D01*
X0031142Y0245507D01*
X0031148Y0245458D01*
X0031150Y0245410D01*
X0031150Y0244382D01*
X0030533Y0242786D02*
X0029300Y0242786D01*
X0029300Y0242787D02*
X0029252Y0242785D01*
X0029203Y0242779D01*
X0029156Y0242770D01*
X0029109Y0242757D01*
X0029064Y0242740D01*
X0029020Y0242720D01*
X0028978Y0242696D01*
X0028937Y0242669D01*
X0028899Y0242639D01*
X0028864Y0242606D01*
X0028831Y0242571D01*
X0028801Y0242533D01*
X0028774Y0242492D01*
X0028750Y0242450D01*
X0028730Y0242406D01*
X0028713Y0242361D01*
X0028700Y0242314D01*
X0028691Y0242267D01*
X0028685Y0242218D01*
X0028683Y0242170D01*
X0028683Y0241142D01*
X0032383Y0241142D01*
X0031150Y0241142D02*
X0031150Y0242170D01*
X0031148Y0242218D01*
X0031142Y0242267D01*
X0031133Y0242314D01*
X0031120Y0242361D01*
X0031103Y0242406D01*
X0031083Y0242450D01*
X0031059Y0242492D01*
X0031032Y0242533D01*
X0031002Y0242571D01*
X0030969Y0242606D01*
X0030934Y0242639D01*
X0030896Y0242669D01*
X0030855Y0242696D01*
X0030813Y0242720D01*
X0030769Y0242740D01*
X0030724Y0242757D01*
X0030677Y0242770D01*
X0030630Y0242779D01*
X0030581Y0242785D01*
X0030533Y0242787D01*
X0031150Y0239390D02*
X0029300Y0239390D01*
X0029711Y0239390D02*
X0029711Y0238465D01*
X0029300Y0239391D02*
X0029252Y0239389D01*
X0029203Y0239383D01*
X0029156Y0239374D01*
X0029109Y0239361D01*
X0029064Y0239344D01*
X0029020Y0239324D01*
X0028978Y0239300D01*
X0028937Y0239273D01*
X0028899Y0239243D01*
X0028864Y0239210D01*
X0028831Y0239175D01*
X0028801Y0239137D01*
X0028774Y0239096D01*
X0028750Y0239054D01*
X0028730Y0239010D01*
X0028713Y0238965D01*
X0028700Y0238918D01*
X0028691Y0238871D01*
X0028685Y0238822D01*
X0028683Y0238774D01*
X0028683Y0237951D01*
X0029712Y0238465D02*
X0029714Y0238413D01*
X0029720Y0238360D01*
X0029729Y0238309D01*
X0029742Y0238258D01*
X0029759Y0238208D01*
X0029780Y0238160D01*
X0029804Y0238113D01*
X0029831Y0238068D01*
X0029862Y0238026D01*
X0029896Y0237985D01*
X0029932Y0237947D01*
X0029971Y0237912D01*
X0030013Y0237880D01*
X0030056Y0237851D01*
X0030102Y0237826D01*
X0030150Y0237803D01*
X0030199Y0237785D01*
X0030249Y0237769D01*
X0030300Y0237758D01*
X0030352Y0237750D01*
X0030405Y0237746D01*
X0030457Y0237746D01*
X0030510Y0237750D01*
X0030562Y0237758D01*
X0030613Y0237769D01*
X0030663Y0237785D01*
X0030712Y0237803D01*
X0030760Y0237826D01*
X0030806Y0237851D01*
X0030849Y0237880D01*
X0030891Y0237912D01*
X0030930Y0237947D01*
X0030966Y0237985D01*
X0031000Y0238026D01*
X0031031Y0238068D01*
X0031058Y0238113D01*
X0031082Y0238160D01*
X0031103Y0238208D01*
X0031120Y0238258D01*
X0031133Y0238309D01*
X0031142Y0238360D01*
X0031148Y0238413D01*
X0031150Y0238465D01*
X0031150Y0239390D01*
X0031150Y0236288D02*
X0031150Y0235261D01*
X0031148Y0235213D01*
X0031142Y0235164D01*
X0031133Y0235117D01*
X0031120Y0235070D01*
X0031103Y0235025D01*
X0031083Y0234981D01*
X0031059Y0234939D01*
X0031032Y0234898D01*
X0031002Y0234860D01*
X0030969Y0234825D01*
X0030934Y0234792D01*
X0030896Y0234762D01*
X0030855Y0234735D01*
X0030813Y0234711D01*
X0030769Y0234691D01*
X0030724Y0234674D01*
X0030677Y0234661D01*
X0030630Y0234652D01*
X0030581Y0234646D01*
X0030533Y0234644D01*
X0029506Y0234644D01*
X0029917Y0234644D02*
X0029917Y0236288D01*
X0029506Y0236288D01*
X0029450Y0236286D01*
X0029394Y0236280D01*
X0029339Y0236271D01*
X0029284Y0236258D01*
X0029231Y0236241D01*
X0029179Y0236220D01*
X0029128Y0236196D01*
X0029079Y0236168D01*
X0029032Y0236138D01*
X0028987Y0236104D01*
X0028945Y0236067D01*
X0028905Y0236027D01*
X0028868Y0235985D01*
X0028834Y0235940D01*
X0028804Y0235893D01*
X0028776Y0235844D01*
X0028752Y0235793D01*
X0028731Y0235741D01*
X0028714Y0235688D01*
X0028701Y0235633D01*
X0028692Y0235578D01*
X0028686Y0235522D01*
X0028684Y0235466D01*
X0028686Y0235410D01*
X0028692Y0235354D01*
X0028701Y0235299D01*
X0028714Y0235244D01*
X0028731Y0235191D01*
X0028752Y0235139D01*
X0028776Y0235088D01*
X0028804Y0235039D01*
X0028834Y0234992D01*
X0028868Y0234947D01*
X0028905Y0234905D01*
X0028945Y0234865D01*
X0028987Y0234828D01*
X0029032Y0234794D01*
X0029079Y0234764D01*
X0029128Y0234736D01*
X0029179Y0234712D01*
X0029231Y0234691D01*
X0029284Y0234674D01*
X0029339Y0234661D01*
X0029394Y0234652D01*
X0029450Y0234646D01*
X0029506Y0234644D01*
X0029300Y0233048D02*
X0031150Y0233048D01*
X0031150Y0231404D02*
X0028683Y0231404D01*
X0028683Y0232432D01*
X0028685Y0232480D01*
X0028691Y0232529D01*
X0028700Y0232576D01*
X0028713Y0232623D01*
X0028730Y0232668D01*
X0028750Y0232712D01*
X0028774Y0232754D01*
X0028801Y0232795D01*
X0028831Y0232833D01*
X0028864Y0232868D01*
X0028899Y0232901D01*
X0028937Y0232931D01*
X0028978Y0232958D01*
X0029020Y0232982D01*
X0029064Y0233002D01*
X0029109Y0233019D01*
X0029156Y0233032D01*
X0029203Y0233041D01*
X0029252Y0233047D01*
X0029300Y0233049D01*
X0028683Y0229826D02*
X0031150Y0229826D01*
X0029506Y0227478D02*
X0029506Y0226450D01*
X0029506Y0227478D02*
X0029504Y0227541D01*
X0029498Y0227604D01*
X0029488Y0227667D01*
X0029475Y0227729D01*
X0029458Y0227790D01*
X0029437Y0227849D01*
X0029412Y0227908D01*
X0029384Y0227964D01*
X0029352Y0228019D01*
X0029317Y0228072D01*
X0029279Y0228122D01*
X0029238Y0228171D01*
X0029194Y0228216D01*
X0029147Y0228259D01*
X0029098Y0228298D01*
X0029046Y0228335D01*
X0028992Y0228368D01*
X0028936Y0228398D01*
X0028879Y0228425D01*
X0028820Y0228448D01*
X0028759Y0228467D01*
X0028698Y0228482D01*
X0028636Y0228494D01*
X0028573Y0228502D01*
X0028510Y0228506D01*
X0028446Y0228506D01*
X0028383Y0228502D01*
X0028320Y0228494D01*
X0028258Y0228482D01*
X0028197Y0228467D01*
X0028136Y0228448D01*
X0028077Y0228425D01*
X0028020Y0228398D01*
X0027964Y0228368D01*
X0027910Y0228335D01*
X0027858Y0228298D01*
X0027809Y0228259D01*
X0027762Y0228216D01*
X0027718Y0228171D01*
X0027677Y0228122D01*
X0027639Y0228072D01*
X0027604Y0228019D01*
X0027572Y0227964D01*
X0027544Y0227908D01*
X0027519Y0227849D01*
X0027498Y0227790D01*
X0027481Y0227729D01*
X0027468Y0227667D01*
X0027458Y0227604D01*
X0027452Y0227541D01*
X0027450Y0227478D01*
X0027450Y0226450D01*
X0031150Y0226450D01*
X0027656Y0229723D02*
X0027656Y0229929D01*
X0027450Y0229929D01*
X0027450Y0229723D01*
X0027656Y0229723D01*
X0025150Y0229826D02*
X0022683Y0229826D01*
X0021656Y0229929D02*
X0021656Y0229723D01*
X0021450Y0229723D01*
X0021450Y0229929D01*
X0021656Y0229929D01*
X0022683Y0231404D02*
X0022683Y0232432D01*
X0022685Y0232480D01*
X0022691Y0232529D01*
X0022700Y0232576D01*
X0022713Y0232623D01*
X0022730Y0232668D01*
X0022750Y0232712D01*
X0022774Y0232754D01*
X0022801Y0232795D01*
X0022831Y0232833D01*
X0022864Y0232868D01*
X0022899Y0232901D01*
X0022937Y0232931D01*
X0022978Y0232958D01*
X0023020Y0232982D01*
X0023064Y0233002D01*
X0023109Y0233019D01*
X0023156Y0233032D01*
X0023203Y0233041D01*
X0023252Y0233047D01*
X0023300Y0233049D01*
X0023300Y0233048D02*
X0025150Y0233048D01*
X0025150Y0231404D02*
X0022683Y0231404D01*
X0023506Y0227478D02*
X0023504Y0227541D01*
X0023498Y0227604D01*
X0023488Y0227667D01*
X0023475Y0227729D01*
X0023458Y0227790D01*
X0023437Y0227849D01*
X0023412Y0227908D01*
X0023384Y0227964D01*
X0023352Y0228019D01*
X0023317Y0228072D01*
X0023279Y0228122D01*
X0023238Y0228171D01*
X0023194Y0228216D01*
X0023147Y0228259D01*
X0023098Y0228298D01*
X0023046Y0228335D01*
X0022992Y0228368D01*
X0022936Y0228398D01*
X0022879Y0228425D01*
X0022820Y0228448D01*
X0022759Y0228467D01*
X0022698Y0228482D01*
X0022636Y0228494D01*
X0022573Y0228502D01*
X0022510Y0228506D01*
X0022446Y0228506D01*
X0022383Y0228502D01*
X0022320Y0228494D01*
X0022258Y0228482D01*
X0022197Y0228467D01*
X0022136Y0228448D01*
X0022077Y0228425D01*
X0022020Y0228398D01*
X0021964Y0228368D01*
X0021910Y0228335D01*
X0021858Y0228298D01*
X0021809Y0228259D01*
X0021762Y0228216D01*
X0021718Y0228171D01*
X0021677Y0228122D01*
X0021639Y0228072D01*
X0021604Y0228019D01*
X0021572Y0227964D01*
X0021544Y0227908D01*
X0021519Y0227849D01*
X0021498Y0227790D01*
X0021481Y0227729D01*
X0021468Y0227667D01*
X0021458Y0227604D01*
X0021452Y0227541D01*
X0021450Y0227478D01*
X0021450Y0226450D01*
X0025150Y0226450D01*
X0023506Y0226450D02*
X0023506Y0227478D01*
X0022230Y0223222D02*
X0021424Y0223222D01*
X0021424Y0220322D01*
X0022230Y0220322D01*
X0022285Y0220324D01*
X0022340Y0220330D01*
X0022394Y0220339D01*
X0022447Y0220352D01*
X0022500Y0220369D01*
X0022551Y0220389D01*
X0022601Y0220412D01*
X0022649Y0220439D01*
X0022695Y0220470D01*
X0022739Y0220503D01*
X0022780Y0220539D01*
X0022819Y0220578D01*
X0022855Y0220619D01*
X0022888Y0220663D01*
X0022919Y0220709D01*
X0022946Y0220757D01*
X0022969Y0220807D01*
X0022989Y0220858D01*
X0023006Y0220911D01*
X0023019Y0220964D01*
X0023028Y0221018D01*
X0023034Y0221073D01*
X0023036Y0221128D01*
X0023035Y0221128D02*
X0023035Y0222417D01*
X0023036Y0222417D02*
X0023034Y0222472D01*
X0023028Y0222527D01*
X0023019Y0222581D01*
X0023006Y0222634D01*
X0022989Y0222687D01*
X0022969Y0222738D01*
X0022946Y0222788D01*
X0022919Y0222836D01*
X0022888Y0222882D01*
X0022855Y0222926D01*
X0022819Y0222967D01*
X0022780Y0223006D01*
X0022739Y0223042D01*
X0022695Y0223075D01*
X0022649Y0223106D01*
X0022601Y0223133D01*
X0022551Y0223156D01*
X0022500Y0223176D01*
X0022447Y0223193D01*
X0022394Y0223206D01*
X0022340Y0223215D01*
X0022285Y0223221D01*
X0022230Y0223223D01*
X0018935Y0223222D02*
X0018935Y0220322D01*
X0020223Y0220322D01*
X0023506Y0234644D02*
X0024533Y0234644D01*
X0023917Y0234644D02*
X0023917Y0236288D01*
X0023506Y0236288D01*
X0023450Y0236286D01*
X0023394Y0236280D01*
X0023339Y0236271D01*
X0023284Y0236258D01*
X0023231Y0236241D01*
X0023179Y0236220D01*
X0023128Y0236196D01*
X0023079Y0236168D01*
X0023032Y0236138D01*
X0022987Y0236104D01*
X0022945Y0236067D01*
X0022905Y0236027D01*
X0022868Y0235985D01*
X0022834Y0235940D01*
X0022804Y0235893D01*
X0022776Y0235844D01*
X0022752Y0235793D01*
X0022731Y0235741D01*
X0022714Y0235688D01*
X0022701Y0235633D01*
X0022692Y0235578D01*
X0022686Y0235522D01*
X0022684Y0235466D01*
X0022686Y0235410D01*
X0022692Y0235354D01*
X0022701Y0235299D01*
X0022714Y0235244D01*
X0022731Y0235191D01*
X0022752Y0235139D01*
X0022776Y0235088D01*
X0022804Y0235039D01*
X0022834Y0234992D01*
X0022868Y0234947D01*
X0022905Y0234905D01*
X0022945Y0234865D01*
X0022987Y0234828D01*
X0023032Y0234794D01*
X0023079Y0234764D01*
X0023128Y0234736D01*
X0023179Y0234712D01*
X0023231Y0234691D01*
X0023284Y0234674D01*
X0023339Y0234661D01*
X0023394Y0234652D01*
X0023450Y0234646D01*
X0023506Y0234644D01*
X0024533Y0234644D02*
X0024581Y0234646D01*
X0024630Y0234652D01*
X0024677Y0234661D01*
X0024724Y0234674D01*
X0024769Y0234691D01*
X0024813Y0234711D01*
X0024855Y0234735D01*
X0024896Y0234762D01*
X0024934Y0234792D01*
X0024969Y0234825D01*
X0025002Y0234860D01*
X0025032Y0234898D01*
X0025059Y0234939D01*
X0025083Y0234981D01*
X0025103Y0235025D01*
X0025120Y0235070D01*
X0025133Y0235117D01*
X0025142Y0235164D01*
X0025148Y0235213D01*
X0025150Y0235261D01*
X0025150Y0236288D01*
X0025150Y0238465D02*
X0025150Y0239390D01*
X0023300Y0239390D01*
X0023711Y0239390D02*
X0023711Y0238465D01*
X0023300Y0239391D02*
X0023252Y0239389D01*
X0023203Y0239383D01*
X0023156Y0239374D01*
X0023109Y0239361D01*
X0023064Y0239344D01*
X0023020Y0239324D01*
X0022978Y0239300D01*
X0022937Y0239273D01*
X0022899Y0239243D01*
X0022864Y0239210D01*
X0022831Y0239175D01*
X0022801Y0239137D01*
X0022774Y0239096D01*
X0022750Y0239054D01*
X0022730Y0239010D01*
X0022713Y0238965D01*
X0022700Y0238918D01*
X0022691Y0238871D01*
X0022685Y0238822D01*
X0022683Y0238774D01*
X0022683Y0237951D01*
X0023712Y0238465D02*
X0023714Y0238413D01*
X0023720Y0238360D01*
X0023729Y0238309D01*
X0023742Y0238258D01*
X0023759Y0238208D01*
X0023780Y0238160D01*
X0023804Y0238113D01*
X0023831Y0238068D01*
X0023862Y0238026D01*
X0023896Y0237985D01*
X0023932Y0237947D01*
X0023971Y0237912D01*
X0024013Y0237880D01*
X0024056Y0237851D01*
X0024102Y0237826D01*
X0024150Y0237803D01*
X0024199Y0237785D01*
X0024249Y0237769D01*
X0024300Y0237758D01*
X0024352Y0237750D01*
X0024405Y0237746D01*
X0024457Y0237746D01*
X0024510Y0237750D01*
X0024562Y0237758D01*
X0024613Y0237769D01*
X0024663Y0237785D01*
X0024712Y0237803D01*
X0024760Y0237826D01*
X0024806Y0237851D01*
X0024849Y0237880D01*
X0024891Y0237912D01*
X0024930Y0237947D01*
X0024966Y0237985D01*
X0025000Y0238026D01*
X0025031Y0238068D01*
X0025058Y0238113D01*
X0025082Y0238160D01*
X0025103Y0238208D01*
X0025120Y0238258D01*
X0025133Y0238309D01*
X0025142Y0238360D01*
X0025148Y0238413D01*
X0025150Y0238465D01*
X0025150Y0241142D02*
X0025150Y0242170D01*
X0025148Y0242218D01*
X0025142Y0242267D01*
X0025133Y0242314D01*
X0025120Y0242361D01*
X0025103Y0242406D01*
X0025083Y0242450D01*
X0025059Y0242492D01*
X0025032Y0242533D01*
X0025002Y0242571D01*
X0024969Y0242606D01*
X0024934Y0242639D01*
X0024896Y0242669D01*
X0024855Y0242696D01*
X0024813Y0242720D01*
X0024769Y0242740D01*
X0024724Y0242757D01*
X0024677Y0242770D01*
X0024630Y0242779D01*
X0024581Y0242785D01*
X0024533Y0242787D01*
X0024533Y0242786D02*
X0023300Y0242786D01*
X0023300Y0242787D02*
X0023252Y0242785D01*
X0023203Y0242779D01*
X0023156Y0242770D01*
X0023109Y0242757D01*
X0023064Y0242740D01*
X0023020Y0242720D01*
X0022978Y0242696D01*
X0022937Y0242669D01*
X0022899Y0242639D01*
X0022864Y0242606D01*
X0022831Y0242571D01*
X0022801Y0242533D01*
X0022774Y0242492D01*
X0022750Y0242450D01*
X0022730Y0242406D01*
X0022713Y0242361D01*
X0022700Y0242314D01*
X0022691Y0242267D01*
X0022685Y0242218D01*
X0022683Y0242170D01*
X0022683Y0241142D01*
X0026383Y0241142D01*
X0026383Y0244382D02*
X0022683Y0244382D01*
X0022683Y0245410D01*
X0022685Y0245458D01*
X0022691Y0245507D01*
X0022700Y0245554D01*
X0022713Y0245601D01*
X0022730Y0245646D01*
X0022750Y0245690D01*
X0022774Y0245732D01*
X0022801Y0245773D01*
X0022831Y0245811D01*
X0022864Y0245846D01*
X0022899Y0245879D01*
X0022937Y0245909D01*
X0022978Y0245936D01*
X0023020Y0245960D01*
X0023064Y0245980D01*
X0023109Y0245997D01*
X0023156Y0246010D01*
X0023203Y0246019D01*
X0023252Y0246025D01*
X0023300Y0246027D01*
X0023300Y0246026D02*
X0024533Y0246026D01*
X0024533Y0246027D02*
X0024581Y0246025D01*
X0024630Y0246019D01*
X0024677Y0246010D01*
X0024724Y0245997D01*
X0024769Y0245980D01*
X0024813Y0245960D01*
X0024855Y0245936D01*
X0024896Y0245909D01*
X0024934Y0245879D01*
X0024969Y0245846D01*
X0025002Y0245811D01*
X0025032Y0245773D01*
X0025059Y0245732D01*
X0025083Y0245690D01*
X0025103Y0245646D01*
X0025120Y0245601D01*
X0025133Y0245554D01*
X0025142Y0245507D01*
X0025148Y0245458D01*
X0025150Y0245410D01*
X0025150Y0244382D01*
X0024533Y0247533D02*
X0021450Y0247533D01*
X0023506Y0249404D02*
X0024533Y0249404D01*
X0023917Y0249404D02*
X0023917Y0251048D01*
X0023506Y0251048D01*
X0023450Y0251046D01*
X0023394Y0251040D01*
X0023339Y0251031D01*
X0023284Y0251018D01*
X0023231Y0251001D01*
X0023179Y0250980D01*
X0023128Y0250956D01*
X0023079Y0250928D01*
X0023032Y0250898D01*
X0022987Y0250864D01*
X0022945Y0250827D01*
X0022905Y0250787D01*
X0022868Y0250745D01*
X0022834Y0250700D01*
X0022804Y0250653D01*
X0022776Y0250604D01*
X0022752Y0250553D01*
X0022731Y0250501D01*
X0022714Y0250448D01*
X0022701Y0250393D01*
X0022692Y0250338D01*
X0022686Y0250282D01*
X0022684Y0250226D01*
X0022686Y0250170D01*
X0022692Y0250114D01*
X0022701Y0250059D01*
X0022714Y0250004D01*
X0022731Y0249951D01*
X0022752Y0249899D01*
X0022776Y0249848D01*
X0022804Y0249799D01*
X0022834Y0249752D01*
X0022868Y0249707D01*
X0022905Y0249665D01*
X0022945Y0249625D01*
X0022987Y0249588D01*
X0023032Y0249554D01*
X0023079Y0249524D01*
X0023128Y0249496D01*
X0023179Y0249472D01*
X0023231Y0249451D01*
X0023284Y0249434D01*
X0023339Y0249421D01*
X0023394Y0249412D01*
X0023450Y0249406D01*
X0023506Y0249404D01*
X0024533Y0249403D02*
X0024581Y0249405D01*
X0024630Y0249411D01*
X0024677Y0249420D01*
X0024724Y0249433D01*
X0024769Y0249450D01*
X0024813Y0249470D01*
X0024855Y0249494D01*
X0024896Y0249521D01*
X0024934Y0249551D01*
X0024969Y0249584D01*
X0025002Y0249619D01*
X0025032Y0249657D01*
X0025059Y0249698D01*
X0025083Y0249740D01*
X0025103Y0249784D01*
X0025120Y0249829D01*
X0025133Y0249876D01*
X0025142Y0249923D01*
X0025148Y0249972D01*
X0025150Y0250020D01*
X0025150Y0251048D01*
X0025150Y0248150D02*
X0025148Y0248102D01*
X0025142Y0248053D01*
X0025133Y0248006D01*
X0025120Y0247959D01*
X0025103Y0247914D01*
X0025083Y0247870D01*
X0025059Y0247828D01*
X0025032Y0247787D01*
X0025002Y0247749D01*
X0024969Y0247714D01*
X0024934Y0247681D01*
X0024896Y0247651D01*
X0024855Y0247624D01*
X0024813Y0247600D01*
X0024769Y0247580D01*
X0024724Y0247563D01*
X0024677Y0247550D01*
X0024630Y0247541D01*
X0024581Y0247535D01*
X0024533Y0247533D01*
X0027450Y0247533D02*
X0030533Y0247533D01*
X0030581Y0247535D01*
X0030630Y0247541D01*
X0030677Y0247550D01*
X0030724Y0247563D01*
X0030769Y0247580D01*
X0030813Y0247600D01*
X0030855Y0247624D01*
X0030896Y0247651D01*
X0030934Y0247681D01*
X0030969Y0247714D01*
X0031002Y0247749D01*
X0031032Y0247787D01*
X0031059Y0247828D01*
X0031083Y0247870D01*
X0031103Y0247914D01*
X0031120Y0247959D01*
X0031133Y0248006D01*
X0031142Y0248053D01*
X0031148Y0248102D01*
X0031150Y0248150D01*
X0030533Y0249404D02*
X0029506Y0249404D01*
X0029917Y0249404D02*
X0029917Y0251048D01*
X0029506Y0251048D01*
X0029450Y0251046D01*
X0029394Y0251040D01*
X0029339Y0251031D01*
X0029284Y0251018D01*
X0029231Y0251001D01*
X0029179Y0250980D01*
X0029128Y0250956D01*
X0029079Y0250928D01*
X0029032Y0250898D01*
X0028987Y0250864D01*
X0028945Y0250827D01*
X0028905Y0250787D01*
X0028868Y0250745D01*
X0028834Y0250700D01*
X0028804Y0250653D01*
X0028776Y0250604D01*
X0028752Y0250553D01*
X0028731Y0250501D01*
X0028714Y0250448D01*
X0028701Y0250393D01*
X0028692Y0250338D01*
X0028686Y0250282D01*
X0028684Y0250226D01*
X0028686Y0250170D01*
X0028692Y0250114D01*
X0028701Y0250059D01*
X0028714Y0250004D01*
X0028731Y0249951D01*
X0028752Y0249899D01*
X0028776Y0249848D01*
X0028804Y0249799D01*
X0028834Y0249752D01*
X0028868Y0249707D01*
X0028905Y0249665D01*
X0028945Y0249625D01*
X0028987Y0249588D01*
X0029032Y0249554D01*
X0029079Y0249524D01*
X0029128Y0249496D01*
X0029179Y0249472D01*
X0029231Y0249451D01*
X0029284Y0249434D01*
X0029339Y0249421D01*
X0029394Y0249412D01*
X0029450Y0249406D01*
X0029506Y0249404D01*
X0030533Y0249403D02*
X0030581Y0249405D01*
X0030630Y0249411D01*
X0030677Y0249420D01*
X0030724Y0249433D01*
X0030769Y0249450D01*
X0030813Y0249470D01*
X0030855Y0249494D01*
X0030896Y0249521D01*
X0030934Y0249551D01*
X0030969Y0249584D01*
X0031002Y0249619D01*
X0031032Y0249657D01*
X0031059Y0249698D01*
X0031083Y0249740D01*
X0031103Y0249784D01*
X0031120Y0249829D01*
X0031133Y0249876D01*
X0031142Y0249923D01*
X0031148Y0249972D01*
X0031150Y0250020D01*
X0031150Y0251048D01*
X0031150Y0254598D02*
X0027450Y0254598D01*
X0027450Y0255626D01*
X0027452Y0255688D01*
X0027457Y0255750D01*
X0027467Y0255811D01*
X0027480Y0255872D01*
X0027497Y0255932D01*
X0027517Y0255991D01*
X0027541Y0256048D01*
X0027568Y0256104D01*
X0027598Y0256158D01*
X0027632Y0256210D01*
X0027669Y0256260D01*
X0027709Y0256308D01*
X0027751Y0256353D01*
X0027796Y0256395D01*
X0027844Y0256435D01*
X0027894Y0256472D01*
X0027946Y0256506D01*
X0028000Y0256536D01*
X0028056Y0256563D01*
X0028113Y0256587D01*
X0028172Y0256607D01*
X0028232Y0256624D01*
X0028293Y0256637D01*
X0028354Y0256647D01*
X0028416Y0256652D01*
X0028478Y0256654D01*
X0030122Y0256654D01*
X0030184Y0256652D01*
X0030246Y0256647D01*
X0030307Y0256637D01*
X0030368Y0256624D01*
X0030428Y0256607D01*
X0030487Y0256587D01*
X0030544Y0256563D01*
X0030600Y0256536D01*
X0030654Y0256506D01*
X0030706Y0256472D01*
X0030756Y0256435D01*
X0030804Y0256395D01*
X0030849Y0256353D01*
X0030891Y0256308D01*
X0030931Y0256260D01*
X0030968Y0256210D01*
X0031002Y0256158D01*
X0031032Y0256104D01*
X0031059Y0256048D01*
X0031083Y0255991D01*
X0031103Y0255932D01*
X0031120Y0255872D01*
X0031133Y0255811D01*
X0031143Y0255750D01*
X0031148Y0255688D01*
X0031150Y0255626D01*
X0031150Y0254598D01*
X0030533Y0258284D02*
X0029506Y0258284D01*
X0029917Y0258284D02*
X0029917Y0259928D01*
X0029506Y0259928D01*
X0029450Y0259926D01*
X0029394Y0259920D01*
X0029339Y0259911D01*
X0029284Y0259898D01*
X0029231Y0259881D01*
X0029179Y0259860D01*
X0029128Y0259836D01*
X0029079Y0259808D01*
X0029032Y0259778D01*
X0028987Y0259744D01*
X0028945Y0259707D01*
X0028905Y0259667D01*
X0028868Y0259625D01*
X0028834Y0259580D01*
X0028804Y0259533D01*
X0028776Y0259484D01*
X0028752Y0259433D01*
X0028731Y0259381D01*
X0028714Y0259328D01*
X0028701Y0259273D01*
X0028692Y0259218D01*
X0028686Y0259162D01*
X0028684Y0259106D01*
X0028686Y0259050D01*
X0028692Y0258994D01*
X0028701Y0258939D01*
X0028714Y0258884D01*
X0028731Y0258831D01*
X0028752Y0258779D01*
X0028776Y0258728D01*
X0028804Y0258679D01*
X0028834Y0258632D01*
X0028868Y0258587D01*
X0028905Y0258545D01*
X0028945Y0258505D01*
X0028987Y0258468D01*
X0029032Y0258434D01*
X0029079Y0258404D01*
X0029128Y0258376D01*
X0029179Y0258352D01*
X0029231Y0258331D01*
X0029284Y0258314D01*
X0029339Y0258301D01*
X0029394Y0258292D01*
X0029450Y0258286D01*
X0029506Y0258284D01*
X0030533Y0258283D02*
X0030581Y0258285D01*
X0030630Y0258291D01*
X0030677Y0258300D01*
X0030724Y0258313D01*
X0030769Y0258330D01*
X0030813Y0258350D01*
X0030855Y0258374D01*
X0030896Y0258401D01*
X0030934Y0258431D01*
X0030969Y0258464D01*
X0031002Y0258499D01*
X0031032Y0258537D01*
X0031059Y0258578D01*
X0031083Y0258620D01*
X0031103Y0258664D01*
X0031120Y0258709D01*
X0031133Y0258756D01*
X0031142Y0258803D01*
X0031148Y0258852D01*
X0031150Y0258900D01*
X0031150Y0259928D01*
X0028683Y0261917D02*
X0028687Y0262013D01*
X0028694Y0262108D01*
X0028705Y0262203D01*
X0028720Y0262297D01*
X0028739Y0262390D01*
X0028761Y0262483D01*
X0028788Y0262575D01*
X0028818Y0262665D01*
X0028851Y0262754D01*
X0028889Y0262842D01*
X0028683Y0261918D02*
X0028684Y0261873D01*
X0028689Y0261828D01*
X0028698Y0261784D01*
X0028710Y0261741D01*
X0028726Y0261699D01*
X0028746Y0261659D01*
X0028769Y0261620D01*
X0028794Y0261584D01*
X0028823Y0261550D01*
X0028855Y0261518D01*
X0028889Y0261489D01*
X0028926Y0261463D01*
X0028964Y0261440D01*
X0029005Y0261421D01*
X0029047Y0261405D01*
X0029090Y0261392D01*
X0029134Y0261383D01*
X0029178Y0261378D01*
X0029223Y0261377D01*
X0029268Y0261380D01*
X0029312Y0261386D01*
X0029356Y0261396D01*
X0029398Y0261409D01*
X0029440Y0261426D01*
X0029480Y0261447D01*
X0029518Y0261471D01*
X0029553Y0261497D01*
X0029587Y0261527D01*
X0029618Y0261560D01*
X0029646Y0261595D01*
X0029671Y0261632D01*
X0029692Y0261671D01*
X0029711Y0261712D01*
X0030122Y0262740D01*
X0030141Y0262781D01*
X0030162Y0262820D01*
X0030187Y0262857D01*
X0030215Y0262892D01*
X0030246Y0262925D01*
X0030280Y0262955D01*
X0030315Y0262981D01*
X0030353Y0263005D01*
X0030393Y0263026D01*
X0030435Y0263043D01*
X0030477Y0263056D01*
X0030521Y0263066D01*
X0030565Y0263072D01*
X0030610Y0263075D01*
X0030655Y0263074D01*
X0030699Y0263069D01*
X0030743Y0263060D01*
X0030786Y0263047D01*
X0030828Y0263031D01*
X0030869Y0263012D01*
X0030907Y0262989D01*
X0030944Y0262963D01*
X0030978Y0262934D01*
X0031010Y0262902D01*
X0031039Y0262868D01*
X0031064Y0262832D01*
X0031087Y0262793D01*
X0031107Y0262753D01*
X0031123Y0262711D01*
X0031135Y0262668D01*
X0031144Y0262624D01*
X0031149Y0262579D01*
X0031150Y0262534D01*
X0031150Y0264506D02*
X0028683Y0264506D01*
X0027656Y0264609D02*
X0027656Y0264403D01*
X0027450Y0264403D01*
X0027450Y0264609D01*
X0027656Y0264609D01*
X0031151Y0262534D02*
X0031147Y0262419D01*
X0031140Y0262304D01*
X0031129Y0262189D01*
X0031114Y0262074D01*
X0031095Y0261960D01*
X0031072Y0261847D01*
X0031046Y0261735D01*
X0031016Y0261623D01*
X0030982Y0261513D01*
X0030945Y0261404D01*
X0030533Y0265946D02*
X0029300Y0265946D01*
X0029300Y0265945D02*
X0029252Y0265947D01*
X0029203Y0265953D01*
X0029156Y0265962D01*
X0029109Y0265975D01*
X0029064Y0265992D01*
X0029020Y0266012D01*
X0028978Y0266036D01*
X0028937Y0266063D01*
X0028899Y0266093D01*
X0028864Y0266126D01*
X0028831Y0266161D01*
X0028801Y0266199D01*
X0028774Y0266240D01*
X0028750Y0266282D01*
X0028730Y0266326D01*
X0028713Y0266371D01*
X0028700Y0266418D01*
X0028691Y0266465D01*
X0028685Y0266514D01*
X0028683Y0266562D01*
X0028683Y0267590D01*
X0031767Y0267590D01*
X0031815Y0267588D01*
X0031864Y0267582D01*
X0031911Y0267573D01*
X0031958Y0267560D01*
X0032003Y0267543D01*
X0032047Y0267523D01*
X0032089Y0267499D01*
X0032130Y0267472D01*
X0032168Y0267442D01*
X0032203Y0267409D01*
X0032236Y0267374D01*
X0032266Y0267336D01*
X0032293Y0267295D01*
X0032317Y0267253D01*
X0032337Y0267209D01*
X0032354Y0267164D01*
X0032367Y0267117D01*
X0032376Y0267070D01*
X0032382Y0267021D01*
X0032384Y0266973D01*
X0032383Y0266973D02*
X0032383Y0266151D01*
X0031150Y0266562D02*
X0031150Y0267590D01*
X0031150Y0266562D02*
X0031148Y0266514D01*
X0031142Y0266465D01*
X0031133Y0266418D01*
X0031120Y0266371D01*
X0031103Y0266326D01*
X0031083Y0266282D01*
X0031059Y0266240D01*
X0031032Y0266199D01*
X0031002Y0266161D01*
X0030969Y0266126D01*
X0030934Y0266093D01*
X0030896Y0266063D01*
X0030855Y0266036D01*
X0030813Y0266012D01*
X0030769Y0265992D01*
X0030724Y0265975D01*
X0030677Y0265962D01*
X0030630Y0265953D01*
X0030581Y0265947D01*
X0030533Y0265945D01*
X0031150Y0269324D02*
X0028683Y0269324D01*
X0028683Y0270351D01*
X0028685Y0270399D01*
X0028691Y0270448D01*
X0028700Y0270495D01*
X0028713Y0270542D01*
X0028730Y0270587D01*
X0028750Y0270631D01*
X0028774Y0270673D01*
X0028801Y0270714D01*
X0028831Y0270752D01*
X0028864Y0270787D01*
X0028899Y0270820D01*
X0028937Y0270850D01*
X0028978Y0270877D01*
X0029020Y0270901D01*
X0029064Y0270921D01*
X0029109Y0270938D01*
X0029156Y0270951D01*
X0029203Y0270960D01*
X0029252Y0270966D01*
X0029300Y0270968D01*
X0031150Y0270968D01*
X0025150Y0267249D02*
X0025150Y0267043D01*
X0024944Y0267043D01*
X0024944Y0267249D01*
X0025150Y0267249D01*
X0024328Y0268844D02*
X0022272Y0270488D01*
X0021964Y0270386D02*
X0021915Y0270367D01*
X0021868Y0270345D01*
X0021822Y0270320D01*
X0021778Y0270292D01*
X0021736Y0270260D01*
X0021696Y0270226D01*
X0021658Y0270189D01*
X0021624Y0270150D01*
X0021592Y0270108D01*
X0021563Y0270065D01*
X0021537Y0270019D01*
X0021514Y0269972D01*
X0021495Y0269923D01*
X0021479Y0269873D01*
X0021466Y0269822D01*
X0021457Y0269771D01*
X0021452Y0269718D01*
X0021450Y0269666D01*
X0021452Y0269614D01*
X0021457Y0269561D01*
X0021466Y0269510D01*
X0021479Y0269459D01*
X0021495Y0269409D01*
X0021514Y0269360D01*
X0021537Y0269313D01*
X0021563Y0269267D01*
X0021592Y0269224D01*
X0021624Y0269182D01*
X0021658Y0269143D01*
X0021696Y0269106D01*
X0021736Y0269072D01*
X0021778Y0269040D01*
X0021822Y0269012D01*
X0021868Y0268987D01*
X0021915Y0268965D01*
X0021964Y0268946D01*
X0021964Y0270386D02*
X0022060Y0270431D01*
X0022158Y0270472D01*
X0022258Y0270510D01*
X0022358Y0270545D01*
X0022460Y0270576D01*
X0022563Y0270604D01*
X0022666Y0270627D01*
X0022771Y0270648D01*
X0022876Y0270664D01*
X0022981Y0270677D01*
X0023087Y0270687D01*
X0023194Y0270692D01*
X0023300Y0270694D01*
X0023300Y0268638D02*
X0023194Y0268640D01*
X0023087Y0268645D01*
X0022981Y0268655D01*
X0022876Y0268668D01*
X0022771Y0268684D01*
X0022666Y0268705D01*
X0022563Y0268728D01*
X0022460Y0268756D01*
X0022358Y0268787D01*
X0022258Y0268822D01*
X0022158Y0268860D01*
X0022060Y0268901D01*
X0021964Y0268946D01*
X0023300Y0270693D02*
X0023406Y0270691D01*
X0023513Y0270686D01*
X0023619Y0270676D01*
X0023724Y0270663D01*
X0023829Y0270647D01*
X0023934Y0270626D01*
X0024037Y0270603D01*
X0024140Y0270575D01*
X0024242Y0270544D01*
X0024342Y0270509D01*
X0024442Y0270471D01*
X0024540Y0270430D01*
X0024636Y0270385D01*
X0024636Y0270386D02*
X0024685Y0270367D01*
X0024732Y0270345D01*
X0024778Y0270320D01*
X0024822Y0270292D01*
X0024864Y0270260D01*
X0024904Y0270226D01*
X0024942Y0270189D01*
X0024976Y0270150D01*
X0025008Y0270108D01*
X0025037Y0270065D01*
X0025063Y0270019D01*
X0025086Y0269972D01*
X0025105Y0269923D01*
X0025121Y0269873D01*
X0025134Y0269822D01*
X0025143Y0269771D01*
X0025148Y0269718D01*
X0025150Y0269666D01*
X0025148Y0269614D01*
X0025143Y0269561D01*
X0025134Y0269510D01*
X0025121Y0269459D01*
X0025105Y0269409D01*
X0025086Y0269360D01*
X0025063Y0269313D01*
X0025037Y0269267D01*
X0025008Y0269224D01*
X0024976Y0269182D01*
X0024942Y0269143D01*
X0024904Y0269106D01*
X0024864Y0269072D01*
X0024822Y0269040D01*
X0024778Y0269012D01*
X0024732Y0268987D01*
X0024685Y0268965D01*
X0024636Y0268946D01*
X0024636Y0263906D02*
X0024540Y0263861D01*
X0024442Y0263820D01*
X0024342Y0263782D01*
X0024242Y0263747D01*
X0024140Y0263716D01*
X0024037Y0263688D01*
X0023934Y0263665D01*
X0023829Y0263644D01*
X0023724Y0263628D01*
X0023619Y0263615D01*
X0023513Y0263605D01*
X0023406Y0263600D01*
X0023300Y0263598D01*
X0023300Y0265654D02*
X0023194Y0265652D01*
X0023087Y0265647D01*
X0022981Y0265637D01*
X0022876Y0265624D01*
X0022771Y0265608D01*
X0022666Y0265587D01*
X0022563Y0265564D01*
X0022460Y0265536D01*
X0022358Y0265505D01*
X0022258Y0265470D01*
X0022158Y0265432D01*
X0022060Y0265391D01*
X0021964Y0265346D01*
X0022272Y0265448D02*
X0024328Y0263804D01*
X0025150Y0264626D02*
X0025148Y0264678D01*
X0025143Y0264731D01*
X0025134Y0264782D01*
X0025121Y0264833D01*
X0025105Y0264883D01*
X0025086Y0264932D01*
X0025063Y0264979D01*
X0025037Y0265025D01*
X0025008Y0265068D01*
X0024976Y0265110D01*
X0024942Y0265149D01*
X0024904Y0265186D01*
X0024864Y0265220D01*
X0024822Y0265252D01*
X0024778Y0265280D01*
X0024732Y0265305D01*
X0024685Y0265327D01*
X0024636Y0265346D01*
X0025150Y0264626D02*
X0025148Y0264574D01*
X0025143Y0264521D01*
X0025134Y0264470D01*
X0025121Y0264419D01*
X0025105Y0264369D01*
X0025086Y0264320D01*
X0025063Y0264273D01*
X0025037Y0264227D01*
X0025008Y0264184D01*
X0024976Y0264142D01*
X0024942Y0264103D01*
X0024904Y0264066D01*
X0024864Y0264032D01*
X0024822Y0264000D01*
X0024778Y0263972D01*
X0024732Y0263947D01*
X0024685Y0263925D01*
X0024636Y0263906D01*
X0024944Y0262209D02*
X0025150Y0262209D01*
X0025150Y0262003D01*
X0024944Y0262003D01*
X0024944Y0262209D01*
X0025150Y0260614D02*
X0025150Y0258558D01*
X0025150Y0259586D02*
X0021450Y0259586D01*
X0022272Y0258558D01*
X0021450Y0255197D02*
X0021450Y0254375D01*
X0021450Y0254786D02*
X0025150Y0254786D01*
X0025150Y0254375D02*
X0025150Y0255197D01*
X0024636Y0265345D02*
X0024540Y0265390D01*
X0024442Y0265431D01*
X0024342Y0265469D01*
X0024242Y0265504D01*
X0024140Y0265535D01*
X0024037Y0265563D01*
X0023934Y0265586D01*
X0023829Y0265607D01*
X0023724Y0265623D01*
X0023619Y0265636D01*
X0023513Y0265646D01*
X0023406Y0265651D01*
X0023300Y0265653D01*
X0023300Y0263598D02*
X0023194Y0263600D01*
X0023087Y0263605D01*
X0022981Y0263615D01*
X0022876Y0263628D01*
X0022771Y0263644D01*
X0022666Y0263665D01*
X0022563Y0263688D01*
X0022460Y0263716D01*
X0022358Y0263747D01*
X0022258Y0263782D01*
X0022158Y0263820D01*
X0022060Y0263861D01*
X0021964Y0263906D01*
X0021450Y0264626D02*
X0021452Y0264678D01*
X0021457Y0264731D01*
X0021466Y0264782D01*
X0021479Y0264833D01*
X0021495Y0264883D01*
X0021514Y0264932D01*
X0021537Y0264979D01*
X0021563Y0265025D01*
X0021592Y0265068D01*
X0021624Y0265110D01*
X0021658Y0265149D01*
X0021696Y0265186D01*
X0021736Y0265220D01*
X0021778Y0265252D01*
X0021822Y0265280D01*
X0021868Y0265305D01*
X0021915Y0265327D01*
X0021964Y0265346D01*
X0021450Y0264626D02*
X0021452Y0264574D01*
X0021457Y0264521D01*
X0021466Y0264470D01*
X0021479Y0264419D01*
X0021495Y0264369D01*
X0021514Y0264320D01*
X0021537Y0264273D01*
X0021563Y0264227D01*
X0021592Y0264184D01*
X0021624Y0264142D01*
X0021658Y0264103D01*
X0021696Y0264066D01*
X0021736Y0264032D01*
X0021778Y0264000D01*
X0021822Y0263972D01*
X0021868Y0263947D01*
X0021915Y0263925D01*
X0021964Y0263906D01*
X0023300Y0268638D02*
X0023406Y0268640D01*
X0023513Y0268645D01*
X0023619Y0268655D01*
X0023724Y0268668D01*
X0023829Y0268684D01*
X0023934Y0268705D01*
X0024037Y0268728D01*
X0024140Y0268756D01*
X0024242Y0268787D01*
X0024342Y0268822D01*
X0024442Y0268860D01*
X0024540Y0268901D01*
X0024636Y0268946D01*
X0161267Y0020835D02*
X0164167Y0020835D01*
X0161267Y0019224D01*
X0164167Y0019224D01*
X0164167Y0017952D02*
X0164167Y0017307D01*
X0164167Y0017629D02*
X0161267Y0017629D01*
X0161267Y0017307D02*
X0161267Y0017952D01*
D11*
X0156418Y0025119D02*
X0156418Y0027678D01*
X0162717Y0027678D01*
X0156418Y0025119D02*
X0186339Y0025119D01*
X0186339Y0048347D01*
X0156418Y0048347D01*
X0156418Y0045788D01*
X0162717Y0045788D01*
X0162717Y0051300D02*
X0156418Y0051300D01*
X0156418Y0048741D01*
X0186339Y0048741D01*
X0186339Y0079843D01*
X0156418Y0079843D01*
X0156418Y0077284D01*
X0162717Y0077284D01*
X0113300Y0067300D02*
X0113300Y0066300D01*
X0089300Y0066300D01*
X0089300Y0067300D01*
X0062717Y0060158D02*
X0062717Y0057599D01*
X0056418Y0057599D01*
X0062717Y0060158D02*
X0032796Y0060158D01*
X0032796Y0036930D01*
X0062717Y0036930D01*
X0062717Y0039489D01*
X0056418Y0039489D01*
X0061300Y0019300D02*
X0081300Y0019300D01*
X0081300Y0016300D01*
X0082300Y0016300D01*
X0081300Y0016300D02*
X0081300Y0013300D01*
X0061300Y0013300D01*
X0061300Y0016300D01*
X0060300Y0016300D01*
X0061300Y0016300D02*
X0061300Y0019300D01*
X0063800Y0018800D02*
X0063800Y0013800D01*
X0089300Y0205300D02*
X0089300Y0206300D01*
X0096300Y0206300D01*
X0096302Y0206160D01*
X0096308Y0206020D01*
X0096318Y0205880D01*
X0096331Y0205740D01*
X0096349Y0205601D01*
X0096371Y0205462D01*
X0096396Y0205325D01*
X0096425Y0205187D01*
X0096458Y0205051D01*
X0096495Y0204916D01*
X0096536Y0204782D01*
X0096581Y0204649D01*
X0096629Y0204517D01*
X0096681Y0204387D01*
X0096736Y0204258D01*
X0096795Y0204131D01*
X0096858Y0204005D01*
X0096924Y0203881D01*
X0096993Y0203760D01*
X0097066Y0203640D01*
X0097143Y0203522D01*
X0097222Y0203407D01*
X0097305Y0203293D01*
X0097391Y0203183D01*
X0097480Y0203074D01*
X0097572Y0202968D01*
X0097667Y0202865D01*
X0097764Y0202764D01*
X0097865Y0202667D01*
X0097968Y0202572D01*
X0098074Y0202480D01*
X0098183Y0202391D01*
X0098293Y0202305D01*
X0098407Y0202222D01*
X0098522Y0202143D01*
X0098640Y0202066D01*
X0098760Y0201993D01*
X0098881Y0201924D01*
X0099005Y0201858D01*
X0099131Y0201795D01*
X0099258Y0201736D01*
X0099387Y0201681D01*
X0099517Y0201629D01*
X0099649Y0201581D01*
X0099782Y0201536D01*
X0099916Y0201495D01*
X0100051Y0201458D01*
X0100187Y0201425D01*
X0100325Y0201396D01*
X0100462Y0201371D01*
X0100601Y0201349D01*
X0100740Y0201331D01*
X0100880Y0201318D01*
X0101020Y0201308D01*
X0101160Y0201302D01*
X0101300Y0201300D01*
X0101440Y0201302D01*
X0101580Y0201308D01*
X0101720Y0201318D01*
X0101860Y0201331D01*
X0101999Y0201349D01*
X0102138Y0201371D01*
X0102275Y0201396D01*
X0102413Y0201425D01*
X0102549Y0201458D01*
X0102684Y0201495D01*
X0102818Y0201536D01*
X0102951Y0201581D01*
X0103083Y0201629D01*
X0103213Y0201681D01*
X0103342Y0201736D01*
X0103469Y0201795D01*
X0103595Y0201858D01*
X0103719Y0201924D01*
X0103840Y0201993D01*
X0103960Y0202066D01*
X0104078Y0202143D01*
X0104193Y0202222D01*
X0104307Y0202305D01*
X0104417Y0202391D01*
X0104526Y0202480D01*
X0104632Y0202572D01*
X0104735Y0202667D01*
X0104836Y0202764D01*
X0104933Y0202865D01*
X0105028Y0202968D01*
X0105120Y0203074D01*
X0105209Y0203183D01*
X0105295Y0203293D01*
X0105378Y0203407D01*
X0105457Y0203522D01*
X0105534Y0203640D01*
X0105607Y0203760D01*
X0105676Y0203881D01*
X0105742Y0204005D01*
X0105805Y0204131D01*
X0105864Y0204258D01*
X0105919Y0204387D01*
X0105971Y0204517D01*
X0106019Y0204649D01*
X0106064Y0204782D01*
X0106105Y0204916D01*
X0106142Y0205051D01*
X0106175Y0205187D01*
X0106204Y0205325D01*
X0106229Y0205462D01*
X0106251Y0205601D01*
X0106269Y0205740D01*
X0106282Y0205880D01*
X0106292Y0206020D01*
X0106298Y0206160D01*
X0106300Y0206300D01*
X0113300Y0206300D01*
X0113300Y0205300D01*
X0090276Y0225906D02*
X0090276Y0228465D01*
X0083977Y0228465D01*
X0090276Y0225906D02*
X0060355Y0225906D01*
X0060355Y0264883D01*
X0090276Y0264883D01*
X0090276Y0262324D01*
X0083977Y0262324D01*
D12*
X0078974Y0276400D02*
X0078974Y0278600D01*
X0079952Y0278600D01*
X0079952Y0277622D02*
X0078974Y0277622D01*
X0077836Y0277622D02*
X0077102Y0277622D01*
X0077102Y0278600D02*
X0078080Y0278600D01*
X0077102Y0278600D02*
X0077102Y0276400D01*
X0078080Y0276400D01*
X0076102Y0276400D02*
X0075613Y0277378D01*
X0075491Y0277378D02*
X0074880Y0277378D01*
X0075491Y0277378D02*
X0075539Y0277380D01*
X0075587Y0277386D01*
X0075634Y0277395D01*
X0075680Y0277408D01*
X0075725Y0277425D01*
X0075768Y0277445D01*
X0075810Y0277468D01*
X0075850Y0277495D01*
X0075888Y0277524D01*
X0075923Y0277557D01*
X0075956Y0277592D01*
X0075985Y0277630D01*
X0076012Y0277670D01*
X0076035Y0277712D01*
X0076055Y0277755D01*
X0076072Y0277800D01*
X0076085Y0277846D01*
X0076094Y0277893D01*
X0076100Y0277941D01*
X0076102Y0277989D01*
X0076100Y0278037D01*
X0076094Y0278085D01*
X0076085Y0278132D01*
X0076072Y0278178D01*
X0076055Y0278223D01*
X0076035Y0278266D01*
X0076012Y0278308D01*
X0075985Y0278348D01*
X0075956Y0278386D01*
X0075923Y0278421D01*
X0075888Y0278454D01*
X0075850Y0278483D01*
X0075810Y0278510D01*
X0075768Y0278533D01*
X0075725Y0278553D01*
X0075680Y0278570D01*
X0075634Y0278583D01*
X0075587Y0278592D01*
X0075539Y0278598D01*
X0075491Y0278600D01*
X0074880Y0278600D01*
X0074880Y0276400D01*
X0073870Y0276400D02*
X0073381Y0277378D01*
X0073259Y0277378D02*
X0072648Y0277378D01*
X0073259Y0277378D02*
X0073307Y0277380D01*
X0073355Y0277386D01*
X0073402Y0277395D01*
X0073448Y0277408D01*
X0073493Y0277425D01*
X0073536Y0277445D01*
X0073578Y0277468D01*
X0073618Y0277495D01*
X0073656Y0277524D01*
X0073691Y0277557D01*
X0073724Y0277592D01*
X0073753Y0277630D01*
X0073780Y0277670D01*
X0073803Y0277712D01*
X0073823Y0277755D01*
X0073840Y0277800D01*
X0073853Y0277846D01*
X0073862Y0277893D01*
X0073868Y0277941D01*
X0073870Y0277989D01*
X0073868Y0278037D01*
X0073862Y0278085D01*
X0073853Y0278132D01*
X0073840Y0278178D01*
X0073823Y0278223D01*
X0073803Y0278266D01*
X0073780Y0278308D01*
X0073753Y0278348D01*
X0073724Y0278386D01*
X0073691Y0278421D01*
X0073656Y0278454D01*
X0073618Y0278483D01*
X0073578Y0278510D01*
X0073536Y0278533D01*
X0073493Y0278553D01*
X0073448Y0278570D01*
X0073402Y0278583D01*
X0073355Y0278592D01*
X0073307Y0278598D01*
X0073259Y0278600D01*
X0072648Y0278600D01*
X0072648Y0276400D01*
X0114616Y0276400D02*
X0114616Y0278600D01*
X0115227Y0278600D01*
X0115275Y0278598D01*
X0115323Y0278592D01*
X0115370Y0278583D01*
X0115416Y0278570D01*
X0115461Y0278553D01*
X0115504Y0278533D01*
X0115546Y0278510D01*
X0115586Y0278483D01*
X0115624Y0278454D01*
X0115659Y0278421D01*
X0115692Y0278386D01*
X0115721Y0278348D01*
X0115748Y0278308D01*
X0115771Y0278266D01*
X0115791Y0278223D01*
X0115808Y0278178D01*
X0115821Y0278132D01*
X0115830Y0278085D01*
X0115836Y0278037D01*
X0115838Y0277989D01*
X0115836Y0277941D01*
X0115830Y0277893D01*
X0115821Y0277846D01*
X0115808Y0277800D01*
X0115791Y0277755D01*
X0115771Y0277712D01*
X0115748Y0277670D01*
X0115721Y0277630D01*
X0115692Y0277592D01*
X0115659Y0277557D01*
X0115624Y0277524D01*
X0115586Y0277495D01*
X0115546Y0277468D01*
X0115504Y0277445D01*
X0115461Y0277425D01*
X0115416Y0277408D01*
X0115370Y0277395D01*
X0115323Y0277386D01*
X0115275Y0277380D01*
X0115227Y0277378D01*
X0114616Y0277378D01*
X0115349Y0277378D02*
X0115838Y0276400D01*
X0116762Y0276400D02*
X0117984Y0276400D01*
X0117373Y0276400D02*
X0117373Y0278600D01*
X0116762Y0278111D01*
X0159108Y0262400D02*
X0159597Y0262400D01*
X0159353Y0262400D02*
X0159353Y0260200D01*
X0159597Y0260200D02*
X0159108Y0260200D01*
X0160463Y0260689D02*
X0160463Y0261911D01*
X0160465Y0261954D01*
X0160470Y0261996D01*
X0160480Y0262038D01*
X0160492Y0262078D01*
X0160509Y0262118D01*
X0160529Y0262155D01*
X0160551Y0262191D01*
X0160577Y0262225D01*
X0160606Y0262257D01*
X0160638Y0262286D01*
X0160672Y0262312D01*
X0160707Y0262334D01*
X0160745Y0262354D01*
X0160785Y0262371D01*
X0160825Y0262383D01*
X0160867Y0262393D01*
X0160909Y0262398D01*
X0160952Y0262400D01*
X0161441Y0262400D01*
X0162270Y0261911D02*
X0162881Y0262400D01*
X0162881Y0260200D01*
X0162270Y0260200D02*
X0163492Y0260200D01*
X0161441Y0260200D02*
X0160952Y0260200D01*
X0160909Y0260202D01*
X0160867Y0260207D01*
X0160825Y0260217D01*
X0160785Y0260229D01*
X0160745Y0260246D01*
X0160708Y0260266D01*
X0160672Y0260288D01*
X0160638Y0260314D01*
X0160606Y0260343D01*
X0160577Y0260375D01*
X0160551Y0260409D01*
X0160529Y0260445D01*
X0160509Y0260482D01*
X0160492Y0260522D01*
X0160480Y0260562D01*
X0160470Y0260604D01*
X0160465Y0260646D01*
X0160463Y0260689D01*
X0175275Y0182400D02*
X0175763Y0182400D01*
X0175275Y0182400D02*
X0175232Y0182398D01*
X0175190Y0182393D01*
X0175148Y0182383D01*
X0175108Y0182371D01*
X0175068Y0182354D01*
X0175030Y0182334D01*
X0174995Y0182312D01*
X0174961Y0182286D01*
X0174929Y0182257D01*
X0174900Y0182225D01*
X0174874Y0182191D01*
X0174852Y0182155D01*
X0174832Y0182118D01*
X0174815Y0182078D01*
X0174803Y0182038D01*
X0174793Y0181996D01*
X0174788Y0181954D01*
X0174786Y0181911D01*
X0174786Y0180689D01*
X0174788Y0180646D01*
X0174793Y0180604D01*
X0174803Y0180562D01*
X0174815Y0180522D01*
X0174832Y0180482D01*
X0174852Y0180445D01*
X0174874Y0180409D01*
X0174900Y0180375D01*
X0174929Y0180343D01*
X0174961Y0180314D01*
X0174995Y0180288D01*
X0175031Y0180266D01*
X0175068Y0180246D01*
X0175108Y0180229D01*
X0175148Y0180217D01*
X0175190Y0180207D01*
X0175232Y0180202D01*
X0175275Y0180200D01*
X0175763Y0180200D01*
X0176592Y0180689D02*
X0177814Y0180689D01*
X0177448Y0181178D02*
X0177448Y0180200D01*
X0176592Y0180689D02*
X0177081Y0182400D01*
X0102400Y0184668D02*
X0100200Y0184668D01*
X0100200Y0185279D01*
X0100202Y0185327D01*
X0100208Y0185375D01*
X0100217Y0185422D01*
X0100230Y0185468D01*
X0100247Y0185513D01*
X0100267Y0185556D01*
X0100290Y0185598D01*
X0100317Y0185638D01*
X0100346Y0185676D01*
X0100379Y0185711D01*
X0100414Y0185744D01*
X0100452Y0185773D01*
X0100492Y0185800D01*
X0100534Y0185823D01*
X0100577Y0185843D01*
X0100622Y0185860D01*
X0100668Y0185873D01*
X0100715Y0185882D01*
X0100763Y0185888D01*
X0100811Y0185890D01*
X0100859Y0185888D01*
X0100907Y0185882D01*
X0100954Y0185873D01*
X0101000Y0185860D01*
X0101045Y0185843D01*
X0101088Y0185823D01*
X0101130Y0185800D01*
X0101170Y0185773D01*
X0101208Y0185744D01*
X0101243Y0185711D01*
X0101276Y0185676D01*
X0101305Y0185638D01*
X0101332Y0185598D01*
X0101355Y0185556D01*
X0101375Y0185513D01*
X0101392Y0185468D01*
X0101405Y0185422D01*
X0101414Y0185375D01*
X0101420Y0185327D01*
X0101422Y0185279D01*
X0101422Y0184668D01*
X0100200Y0186645D02*
X0102400Y0187134D01*
X0100933Y0187623D01*
X0102400Y0188111D01*
X0100200Y0188600D01*
X0100200Y0189553D02*
X0101422Y0190287D01*
X0100200Y0191020D01*
X0102400Y0191020D01*
X0102400Y0192123D02*
X0100200Y0192123D01*
X0100200Y0192735D01*
X0100202Y0192783D01*
X0100208Y0192831D01*
X0100217Y0192878D01*
X0100230Y0192924D01*
X0100247Y0192969D01*
X0100267Y0193012D01*
X0100290Y0193054D01*
X0100317Y0193094D01*
X0100346Y0193132D01*
X0100379Y0193167D01*
X0100414Y0193200D01*
X0100452Y0193229D01*
X0100492Y0193256D01*
X0100534Y0193279D01*
X0100577Y0193299D01*
X0100622Y0193316D01*
X0100668Y0193329D01*
X0100715Y0193338D01*
X0100763Y0193344D01*
X0100811Y0193346D01*
X0101789Y0193346D01*
X0101837Y0193344D01*
X0101885Y0193338D01*
X0101932Y0193329D01*
X0101978Y0193316D01*
X0102023Y0193299D01*
X0102066Y0193279D01*
X0102108Y0193256D01*
X0102148Y0193229D01*
X0102186Y0193200D01*
X0102221Y0193167D01*
X0102254Y0193132D01*
X0102283Y0193094D01*
X0102310Y0193054D01*
X0102333Y0193012D01*
X0102353Y0192969D01*
X0102370Y0192924D01*
X0102383Y0192878D01*
X0102392Y0192831D01*
X0102398Y0192783D01*
X0102400Y0192735D01*
X0102400Y0192123D01*
X0102400Y0194442D02*
X0100200Y0194442D01*
X0100200Y0195053D01*
X0100202Y0195101D01*
X0100208Y0195149D01*
X0100217Y0195196D01*
X0100230Y0195242D01*
X0100247Y0195287D01*
X0100267Y0195330D01*
X0100290Y0195372D01*
X0100317Y0195412D01*
X0100346Y0195450D01*
X0100379Y0195485D01*
X0100414Y0195518D01*
X0100452Y0195547D01*
X0100492Y0195574D01*
X0100534Y0195597D01*
X0100577Y0195617D01*
X0100622Y0195634D01*
X0100668Y0195647D01*
X0100715Y0195656D01*
X0100763Y0195662D01*
X0100811Y0195664D01*
X0100859Y0195662D01*
X0100907Y0195656D01*
X0100954Y0195647D01*
X0101000Y0195634D01*
X0101045Y0195617D01*
X0101088Y0195597D01*
X0101130Y0195574D01*
X0101170Y0195547D01*
X0101208Y0195518D01*
X0101243Y0195485D01*
X0101276Y0195450D01*
X0101305Y0195412D01*
X0101332Y0195372D01*
X0101355Y0195330D01*
X0101375Y0195287D01*
X0101392Y0195242D01*
X0101405Y0195196D01*
X0101414Y0195149D01*
X0101420Y0195101D01*
X0101422Y0195053D01*
X0101422Y0194442D01*
X0101422Y0195175D02*
X0102400Y0195664D01*
X0102400Y0197199D02*
X0100200Y0197932D01*
X0100200Y0196465D02*
X0102400Y0197199D01*
X0102400Y0189553D02*
X0100200Y0189553D01*
X0087814Y0210200D02*
X0086592Y0210200D01*
X0087631Y0211422D01*
X0087264Y0212400D02*
X0087212Y0212398D01*
X0087160Y0212392D01*
X0087108Y0212383D01*
X0087058Y0212369D01*
X0087008Y0212352D01*
X0086960Y0212331D01*
X0086914Y0212307D01*
X0086870Y0212280D01*
X0086827Y0212249D01*
X0086787Y0212215D01*
X0086750Y0212179D01*
X0086716Y0212139D01*
X0086684Y0212097D01*
X0086656Y0212054D01*
X0086631Y0212008D01*
X0086609Y0211960D01*
X0086591Y0211911D01*
X0087632Y0211422D02*
X0087665Y0211456D01*
X0087695Y0211493D01*
X0087723Y0211533D01*
X0087747Y0211574D01*
X0087767Y0211617D01*
X0087784Y0211662D01*
X0087798Y0211708D01*
X0087807Y0211755D01*
X0087813Y0211802D01*
X0087815Y0211850D01*
X0087814Y0211850D02*
X0087812Y0211895D01*
X0087806Y0211941D01*
X0087797Y0211985D01*
X0087784Y0212029D01*
X0087768Y0212071D01*
X0087748Y0212112D01*
X0087724Y0212151D01*
X0087698Y0212188D01*
X0087669Y0212223D01*
X0087637Y0212255D01*
X0087602Y0212284D01*
X0087565Y0212310D01*
X0087526Y0212334D01*
X0087485Y0212354D01*
X0087443Y0212370D01*
X0087399Y0212383D01*
X0087355Y0212392D01*
X0087309Y0212398D01*
X0087264Y0212400D01*
X0085763Y0212400D02*
X0085275Y0212400D01*
X0085232Y0212398D01*
X0085190Y0212393D01*
X0085148Y0212383D01*
X0085108Y0212371D01*
X0085068Y0212354D01*
X0085030Y0212334D01*
X0084995Y0212312D01*
X0084961Y0212286D01*
X0084929Y0212257D01*
X0084900Y0212225D01*
X0084874Y0212191D01*
X0084852Y0212155D01*
X0084832Y0212118D01*
X0084815Y0212078D01*
X0084803Y0212038D01*
X0084793Y0211996D01*
X0084788Y0211954D01*
X0084786Y0211911D01*
X0084786Y0210689D01*
X0084788Y0210646D01*
X0084793Y0210604D01*
X0084803Y0210562D01*
X0084815Y0210522D01*
X0084832Y0210482D01*
X0084852Y0210445D01*
X0084874Y0210409D01*
X0084900Y0210375D01*
X0084929Y0210343D01*
X0084961Y0210314D01*
X0084995Y0210288D01*
X0085031Y0210266D01*
X0085068Y0210246D01*
X0085108Y0210229D01*
X0085148Y0210217D01*
X0085190Y0210207D01*
X0085232Y0210202D01*
X0085275Y0210200D01*
X0085763Y0210200D01*
X0141178Y0057801D02*
X0142400Y0056762D01*
X0142400Y0057984D01*
X0140689Y0056761D02*
X0140640Y0056779D01*
X0140592Y0056801D01*
X0140546Y0056826D01*
X0140503Y0056854D01*
X0140461Y0056886D01*
X0140421Y0056920D01*
X0140385Y0056957D01*
X0140351Y0056997D01*
X0140320Y0057040D01*
X0140293Y0057084D01*
X0140269Y0057130D01*
X0140248Y0057178D01*
X0140231Y0057228D01*
X0140217Y0057278D01*
X0140208Y0057330D01*
X0140202Y0057382D01*
X0140200Y0057434D01*
X0140202Y0057479D01*
X0140208Y0057525D01*
X0140217Y0057569D01*
X0140230Y0057613D01*
X0140246Y0057655D01*
X0140266Y0057696D01*
X0140290Y0057735D01*
X0140316Y0057772D01*
X0140345Y0057807D01*
X0140377Y0057839D01*
X0140412Y0057868D01*
X0140449Y0057894D01*
X0140488Y0057918D01*
X0140529Y0057938D01*
X0140571Y0057954D01*
X0140615Y0057967D01*
X0140659Y0057976D01*
X0140705Y0057982D01*
X0140750Y0057984D01*
X0140798Y0057982D01*
X0140845Y0057976D01*
X0140892Y0057967D01*
X0140938Y0057953D01*
X0140983Y0057936D01*
X0141026Y0057916D01*
X0141067Y0057892D01*
X0141107Y0057864D01*
X0141144Y0057834D01*
X0141178Y0057801D01*
X0142400Y0055838D02*
X0141422Y0055349D01*
X0141422Y0055227D02*
X0141422Y0054616D01*
X0141422Y0055227D02*
X0141420Y0055275D01*
X0141414Y0055323D01*
X0141405Y0055370D01*
X0141392Y0055416D01*
X0141375Y0055461D01*
X0141355Y0055504D01*
X0141332Y0055546D01*
X0141305Y0055586D01*
X0141276Y0055624D01*
X0141243Y0055659D01*
X0141208Y0055692D01*
X0141170Y0055721D01*
X0141130Y0055748D01*
X0141088Y0055771D01*
X0141045Y0055791D01*
X0141000Y0055808D01*
X0140954Y0055821D01*
X0140907Y0055830D01*
X0140859Y0055836D01*
X0140811Y0055838D01*
X0140763Y0055836D01*
X0140715Y0055830D01*
X0140668Y0055821D01*
X0140622Y0055808D01*
X0140577Y0055791D01*
X0140534Y0055771D01*
X0140492Y0055748D01*
X0140452Y0055721D01*
X0140414Y0055692D01*
X0140379Y0055659D01*
X0140346Y0055624D01*
X0140317Y0055586D01*
X0140290Y0055546D01*
X0140267Y0055504D01*
X0140247Y0055461D01*
X0140230Y0055416D01*
X0140217Y0055370D01*
X0140208Y0055323D01*
X0140202Y0055275D01*
X0140200Y0055227D01*
X0140200Y0054616D01*
X0142400Y0054616D01*
X0141178Y0027495D02*
X0141178Y0027006D01*
X0141178Y0027495D02*
X0141176Y0027538D01*
X0141171Y0027580D01*
X0141161Y0027622D01*
X0141149Y0027662D01*
X0141132Y0027702D01*
X0141112Y0027740D01*
X0141090Y0027775D01*
X0141064Y0027809D01*
X0141035Y0027841D01*
X0141003Y0027870D01*
X0140969Y0027896D01*
X0140934Y0027918D01*
X0140896Y0027938D01*
X0140856Y0027955D01*
X0140816Y0027967D01*
X0140774Y0027977D01*
X0140732Y0027982D01*
X0140689Y0027984D01*
X0140646Y0027982D01*
X0140604Y0027977D01*
X0140562Y0027967D01*
X0140522Y0027955D01*
X0140482Y0027938D01*
X0140445Y0027918D01*
X0140409Y0027896D01*
X0140375Y0027870D01*
X0140343Y0027841D01*
X0140314Y0027809D01*
X0140288Y0027775D01*
X0140266Y0027740D01*
X0140246Y0027702D01*
X0140229Y0027662D01*
X0140217Y0027622D01*
X0140207Y0027580D01*
X0140202Y0027538D01*
X0140200Y0027495D01*
X0140200Y0026762D01*
X0140200Y0025227D02*
X0140200Y0024616D01*
X0142400Y0024616D01*
X0141422Y0024616D02*
X0141422Y0025227D01*
X0141422Y0025349D02*
X0142400Y0025838D01*
X0142400Y0026762D02*
X0142400Y0027373D01*
X0142398Y0027421D01*
X0142392Y0027469D01*
X0142383Y0027516D01*
X0142370Y0027562D01*
X0142353Y0027607D01*
X0142333Y0027650D01*
X0142310Y0027692D01*
X0142283Y0027732D01*
X0142254Y0027770D01*
X0142221Y0027805D01*
X0142186Y0027838D01*
X0142148Y0027867D01*
X0142108Y0027894D01*
X0142066Y0027917D01*
X0142023Y0027937D01*
X0141978Y0027954D01*
X0141932Y0027967D01*
X0141885Y0027976D01*
X0141837Y0027982D01*
X0141789Y0027984D01*
X0141741Y0027982D01*
X0141693Y0027976D01*
X0141646Y0027967D01*
X0141600Y0027954D01*
X0141555Y0027937D01*
X0141512Y0027917D01*
X0141470Y0027894D01*
X0141430Y0027867D01*
X0141392Y0027838D01*
X0141357Y0027805D01*
X0141324Y0027770D01*
X0141295Y0027732D01*
X0141268Y0027692D01*
X0141245Y0027650D01*
X0141225Y0027607D01*
X0141208Y0027562D01*
X0141195Y0027516D01*
X0141186Y0027469D01*
X0141180Y0027421D01*
X0141178Y0027373D01*
X0141422Y0025227D02*
X0141420Y0025275D01*
X0141414Y0025323D01*
X0141405Y0025370D01*
X0141392Y0025416D01*
X0141375Y0025461D01*
X0141355Y0025504D01*
X0141332Y0025546D01*
X0141305Y0025586D01*
X0141276Y0025624D01*
X0141243Y0025659D01*
X0141208Y0025692D01*
X0141170Y0025721D01*
X0141130Y0025748D01*
X0141088Y0025771D01*
X0141045Y0025791D01*
X0141000Y0025808D01*
X0140954Y0025821D01*
X0140907Y0025830D01*
X0140859Y0025836D01*
X0140811Y0025838D01*
X0140763Y0025836D01*
X0140715Y0025830D01*
X0140668Y0025821D01*
X0140622Y0025808D01*
X0140577Y0025791D01*
X0140534Y0025771D01*
X0140492Y0025748D01*
X0140452Y0025721D01*
X0140414Y0025692D01*
X0140379Y0025659D01*
X0140346Y0025624D01*
X0140317Y0025586D01*
X0140290Y0025546D01*
X0140267Y0025504D01*
X0140247Y0025461D01*
X0140230Y0025416D01*
X0140217Y0025370D01*
X0140208Y0025323D01*
X0140202Y0025275D01*
X0140200Y0025227D01*
X0127984Y0020689D02*
X0126762Y0020689D01*
X0127251Y0022400D01*
X0127617Y0021178D02*
X0127617Y0020200D01*
X0125838Y0020200D02*
X0125349Y0021178D01*
X0125227Y0021178D02*
X0124616Y0021178D01*
X0125227Y0021178D02*
X0125275Y0021180D01*
X0125323Y0021186D01*
X0125370Y0021195D01*
X0125416Y0021208D01*
X0125461Y0021225D01*
X0125504Y0021245D01*
X0125546Y0021268D01*
X0125586Y0021295D01*
X0125624Y0021324D01*
X0125659Y0021357D01*
X0125692Y0021392D01*
X0125721Y0021430D01*
X0125748Y0021470D01*
X0125771Y0021512D01*
X0125791Y0021555D01*
X0125808Y0021600D01*
X0125821Y0021646D01*
X0125830Y0021693D01*
X0125836Y0021741D01*
X0125838Y0021789D01*
X0125836Y0021837D01*
X0125830Y0021885D01*
X0125821Y0021932D01*
X0125808Y0021978D01*
X0125791Y0022023D01*
X0125771Y0022066D01*
X0125748Y0022108D01*
X0125721Y0022148D01*
X0125692Y0022186D01*
X0125659Y0022221D01*
X0125624Y0022254D01*
X0125586Y0022283D01*
X0125546Y0022310D01*
X0125504Y0022333D01*
X0125461Y0022353D01*
X0125416Y0022370D01*
X0125370Y0022383D01*
X0125323Y0022392D01*
X0125275Y0022398D01*
X0125227Y0022400D01*
X0124616Y0022400D01*
X0124616Y0020200D01*
X0104071Y0050200D02*
X0102849Y0050200D01*
X0103460Y0050200D02*
X0103460Y0052400D01*
X0102849Y0051911D01*
X0102016Y0052400D02*
X0100794Y0051056D01*
X0101282Y0051544D02*
X0102016Y0050200D01*
X0100794Y0050200D02*
X0100794Y0052400D01*
X0099751Y0051789D02*
X0099751Y0050811D01*
X0099749Y0050763D01*
X0099743Y0050715D01*
X0099734Y0050668D01*
X0099721Y0050622D01*
X0099704Y0050577D01*
X0099684Y0050534D01*
X0099661Y0050492D01*
X0099634Y0050452D01*
X0099605Y0050414D01*
X0099572Y0050379D01*
X0099537Y0050346D01*
X0099499Y0050317D01*
X0099459Y0050290D01*
X0099417Y0050267D01*
X0099374Y0050247D01*
X0099329Y0050230D01*
X0099283Y0050217D01*
X0099236Y0050208D01*
X0099188Y0050202D01*
X0099140Y0050200D01*
X0099092Y0050202D01*
X0099044Y0050208D01*
X0098997Y0050217D01*
X0098951Y0050230D01*
X0098906Y0050247D01*
X0098863Y0050267D01*
X0098821Y0050290D01*
X0098781Y0050317D01*
X0098743Y0050346D01*
X0098708Y0050379D01*
X0098675Y0050414D01*
X0098646Y0050452D01*
X0098619Y0050492D01*
X0098596Y0050534D01*
X0098576Y0050577D01*
X0098559Y0050622D01*
X0098546Y0050668D01*
X0098537Y0050715D01*
X0098531Y0050763D01*
X0098529Y0050811D01*
X0098529Y0051789D01*
X0098531Y0051837D01*
X0098537Y0051885D01*
X0098546Y0051932D01*
X0098559Y0051978D01*
X0098576Y0052023D01*
X0098596Y0052066D01*
X0098619Y0052108D01*
X0098646Y0052148D01*
X0098675Y0052186D01*
X0098708Y0052221D01*
X0098743Y0052254D01*
X0098781Y0052283D01*
X0098821Y0052310D01*
X0098863Y0052333D01*
X0098906Y0052353D01*
X0098951Y0052370D01*
X0098997Y0052383D01*
X0099044Y0052392D01*
X0099092Y0052398D01*
X0099140Y0052400D01*
X0099188Y0052398D01*
X0099236Y0052392D01*
X0099283Y0052383D01*
X0099329Y0052370D01*
X0099374Y0052353D01*
X0099417Y0052333D01*
X0099459Y0052310D01*
X0099499Y0052283D01*
X0099537Y0052254D01*
X0099572Y0052221D01*
X0099605Y0052186D01*
X0099634Y0052148D01*
X0099661Y0052108D01*
X0099684Y0052066D01*
X0099704Y0052023D01*
X0099721Y0051978D01*
X0099734Y0051932D01*
X0099743Y0051885D01*
X0099749Y0051837D01*
X0099751Y0051789D01*
X0100275Y0007400D02*
X0100763Y0007400D01*
X0100275Y0007400D02*
X0100232Y0007398D01*
X0100190Y0007393D01*
X0100148Y0007383D01*
X0100108Y0007371D01*
X0100068Y0007354D01*
X0100030Y0007334D01*
X0099995Y0007312D01*
X0099961Y0007286D01*
X0099929Y0007257D01*
X0099900Y0007225D01*
X0099874Y0007191D01*
X0099852Y0007155D01*
X0099832Y0007118D01*
X0099815Y0007078D01*
X0099803Y0007038D01*
X0099793Y0006996D01*
X0099788Y0006954D01*
X0099786Y0006911D01*
X0099786Y0005689D01*
X0099788Y0005646D01*
X0099793Y0005604D01*
X0099803Y0005562D01*
X0099815Y0005522D01*
X0099832Y0005482D01*
X0099852Y0005445D01*
X0099874Y0005409D01*
X0099900Y0005375D01*
X0099929Y0005343D01*
X0099961Y0005314D01*
X0099995Y0005288D01*
X0100031Y0005266D01*
X0100068Y0005246D01*
X0100108Y0005229D01*
X0100148Y0005217D01*
X0100190Y0005207D01*
X0100232Y0005202D01*
X0100275Y0005200D01*
X0100763Y0005200D01*
X0101592Y0005200D02*
X0102203Y0005200D01*
X0102251Y0005202D01*
X0102299Y0005208D01*
X0102346Y0005217D01*
X0102392Y0005230D01*
X0102437Y0005247D01*
X0102480Y0005267D01*
X0102522Y0005290D01*
X0102562Y0005317D01*
X0102600Y0005346D01*
X0102635Y0005379D01*
X0102668Y0005414D01*
X0102697Y0005452D01*
X0102724Y0005492D01*
X0102747Y0005534D01*
X0102767Y0005577D01*
X0102784Y0005622D01*
X0102797Y0005668D01*
X0102806Y0005715D01*
X0102812Y0005763D01*
X0102814Y0005811D01*
X0102812Y0005859D01*
X0102806Y0005907D01*
X0102797Y0005954D01*
X0102784Y0006000D01*
X0102767Y0006045D01*
X0102747Y0006088D01*
X0102724Y0006130D01*
X0102697Y0006170D01*
X0102668Y0006208D01*
X0102635Y0006243D01*
X0102600Y0006276D01*
X0102562Y0006305D01*
X0102522Y0006332D01*
X0102480Y0006355D01*
X0102437Y0006375D01*
X0102392Y0006392D01*
X0102346Y0006405D01*
X0102299Y0006414D01*
X0102251Y0006420D01*
X0102203Y0006422D01*
X0102325Y0006422D02*
X0101837Y0006422D01*
X0102325Y0006422D02*
X0102368Y0006424D01*
X0102410Y0006429D01*
X0102452Y0006439D01*
X0102492Y0006451D01*
X0102532Y0006468D01*
X0102570Y0006488D01*
X0102605Y0006510D01*
X0102639Y0006536D01*
X0102671Y0006565D01*
X0102700Y0006597D01*
X0102726Y0006631D01*
X0102748Y0006666D01*
X0102768Y0006704D01*
X0102785Y0006744D01*
X0102797Y0006784D01*
X0102807Y0006826D01*
X0102812Y0006868D01*
X0102814Y0006911D01*
X0102812Y0006954D01*
X0102807Y0006996D01*
X0102797Y0007038D01*
X0102785Y0007078D01*
X0102768Y0007118D01*
X0102748Y0007155D01*
X0102726Y0007191D01*
X0102700Y0007225D01*
X0102671Y0007257D01*
X0102639Y0007286D01*
X0102605Y0007312D01*
X0102570Y0007334D01*
X0102532Y0007354D01*
X0102492Y0007371D01*
X0102452Y0007383D01*
X0102410Y0007393D01*
X0102368Y0007398D01*
X0102325Y0007400D01*
X0101592Y0007400D01*
X0047814Y0015200D02*
X0046592Y0015200D01*
X0047203Y0015200D02*
X0047203Y0017400D01*
X0046592Y0016911D01*
X0045763Y0017400D02*
X0045275Y0017400D01*
X0045232Y0017398D01*
X0045190Y0017393D01*
X0045148Y0017383D01*
X0045108Y0017371D01*
X0045068Y0017354D01*
X0045030Y0017334D01*
X0044995Y0017312D01*
X0044961Y0017286D01*
X0044929Y0017257D01*
X0044900Y0017225D01*
X0044874Y0017191D01*
X0044852Y0017155D01*
X0044832Y0017118D01*
X0044815Y0017078D01*
X0044803Y0017038D01*
X0044793Y0016996D01*
X0044788Y0016954D01*
X0044786Y0016911D01*
X0044786Y0015689D01*
X0044788Y0015646D01*
X0044793Y0015604D01*
X0044803Y0015562D01*
X0044815Y0015522D01*
X0044832Y0015482D01*
X0044852Y0015445D01*
X0044874Y0015409D01*
X0044900Y0015375D01*
X0044929Y0015343D01*
X0044961Y0015314D01*
X0044995Y0015288D01*
X0045031Y0015266D01*
X0045068Y0015246D01*
X0045108Y0015229D01*
X0045148Y0015217D01*
X0045190Y0015207D01*
X0045232Y0015202D01*
X0045275Y0015200D01*
X0045763Y0015200D01*
D13*
X0023800Y0021300D02*
X0021300Y0023800D01*
X0021300Y0028800D01*
X0023800Y0031300D01*
X0028800Y0031300D01*
X0031300Y0028800D01*
X0033800Y0031300D01*
X0038800Y0031300D01*
X0041300Y0028800D01*
X0043800Y0031300D01*
X0048800Y0031300D01*
X0051300Y0028800D01*
X0051300Y0023800D01*
X0048800Y0021300D01*
X0043800Y0021300D01*
X0041300Y0023800D01*
X0038800Y0021300D01*
X0033800Y0021300D01*
X0031300Y0023800D01*
X0028800Y0021300D01*
X0023800Y0021300D01*
X0031300Y0023800D02*
X0031300Y0028800D01*
X0041300Y0028800D02*
X0041300Y0023800D01*
X0056800Y0022300D02*
X0056800Y0030300D01*
X0056802Y0030360D01*
X0056807Y0030421D01*
X0056816Y0030480D01*
X0056829Y0030539D01*
X0056845Y0030598D01*
X0056865Y0030655D01*
X0056888Y0030710D01*
X0056915Y0030765D01*
X0056944Y0030817D01*
X0056977Y0030868D01*
X0057013Y0030917D01*
X0057051Y0030963D01*
X0057093Y0031007D01*
X0057137Y0031049D01*
X0057183Y0031087D01*
X0057232Y0031123D01*
X0057283Y0031156D01*
X0057335Y0031185D01*
X0057390Y0031212D01*
X0057445Y0031235D01*
X0057502Y0031255D01*
X0057561Y0031271D01*
X0057620Y0031284D01*
X0057679Y0031293D01*
X0057740Y0031298D01*
X0057800Y0031300D01*
X0074800Y0031300D01*
X0074860Y0031298D01*
X0074921Y0031293D01*
X0074980Y0031284D01*
X0075039Y0031271D01*
X0075098Y0031255D01*
X0075155Y0031235D01*
X0075210Y0031212D01*
X0075265Y0031185D01*
X0075317Y0031156D01*
X0075368Y0031123D01*
X0075417Y0031087D01*
X0075463Y0031049D01*
X0075507Y0031007D01*
X0075549Y0030963D01*
X0075587Y0030917D01*
X0075623Y0030868D01*
X0075656Y0030817D01*
X0075685Y0030765D01*
X0075712Y0030710D01*
X0075735Y0030655D01*
X0075755Y0030598D01*
X0075771Y0030539D01*
X0075784Y0030480D01*
X0075793Y0030421D01*
X0075798Y0030360D01*
X0075800Y0030300D01*
X0075800Y0022300D01*
X0075798Y0022240D01*
X0075793Y0022179D01*
X0075784Y0022120D01*
X0075771Y0022061D01*
X0075755Y0022002D01*
X0075735Y0021945D01*
X0075712Y0021890D01*
X0075685Y0021835D01*
X0075656Y0021783D01*
X0075623Y0021732D01*
X0075587Y0021683D01*
X0075549Y0021637D01*
X0075507Y0021593D01*
X0075463Y0021551D01*
X0075417Y0021513D01*
X0075368Y0021477D01*
X0075317Y0021444D01*
X0075265Y0021415D01*
X0075210Y0021388D01*
X0075155Y0021365D01*
X0075098Y0021345D01*
X0075039Y0021329D01*
X0074980Y0021316D01*
X0074921Y0021307D01*
X0074860Y0021302D01*
X0074800Y0021300D01*
X0057800Y0021300D01*
X0057740Y0021302D01*
X0057679Y0021307D01*
X0057620Y0021316D01*
X0057561Y0021329D01*
X0057502Y0021345D01*
X0057445Y0021365D01*
X0057390Y0021388D01*
X0057335Y0021415D01*
X0057283Y0021444D01*
X0057232Y0021477D01*
X0057183Y0021513D01*
X0057137Y0021551D01*
X0057093Y0021593D01*
X0057051Y0021637D01*
X0057013Y0021683D01*
X0056977Y0021732D01*
X0056944Y0021783D01*
X0056915Y0021835D01*
X0056888Y0021890D01*
X0056865Y0021945D01*
X0056845Y0022002D01*
X0056829Y0022061D01*
X0056816Y0022120D01*
X0056807Y0022179D01*
X0056802Y0022240D01*
X0056800Y0022300D01*
X0064800Y0026300D02*
X0065300Y0026300D01*
X0067300Y0026300D02*
X0067800Y0026300D01*
X0089800Y0021300D02*
X0112800Y0021300D01*
X0112800Y0061300D01*
X0105300Y0061300D01*
X0105298Y0061174D01*
X0105292Y0061049D01*
X0105282Y0060924D01*
X0105268Y0060799D01*
X0105251Y0060674D01*
X0105229Y0060550D01*
X0105204Y0060427D01*
X0105174Y0060305D01*
X0105141Y0060184D01*
X0105104Y0060064D01*
X0105064Y0059945D01*
X0105019Y0059828D01*
X0104971Y0059711D01*
X0104919Y0059597D01*
X0104864Y0059484D01*
X0104805Y0059373D01*
X0104743Y0059264D01*
X0104677Y0059157D01*
X0104608Y0059052D01*
X0104536Y0058949D01*
X0104461Y0058848D01*
X0104382Y0058750D01*
X0104300Y0058655D01*
X0104216Y0058562D01*
X0104128Y0058472D01*
X0104038Y0058384D01*
X0103945Y0058300D01*
X0103850Y0058218D01*
X0103752Y0058139D01*
X0103651Y0058064D01*
X0103548Y0057992D01*
X0103443Y0057923D01*
X0103336Y0057857D01*
X0103227Y0057795D01*
X0103116Y0057736D01*
X0103003Y0057681D01*
X0102889Y0057629D01*
X0102772Y0057581D01*
X0102655Y0057536D01*
X0102536Y0057496D01*
X0102416Y0057459D01*
X0102295Y0057426D01*
X0102173Y0057396D01*
X0102050Y0057371D01*
X0101926Y0057349D01*
X0101801Y0057332D01*
X0101676Y0057318D01*
X0101551Y0057308D01*
X0101426Y0057302D01*
X0101300Y0057300D01*
X0101174Y0057302D01*
X0101049Y0057308D01*
X0100924Y0057318D01*
X0100799Y0057332D01*
X0100674Y0057349D01*
X0100550Y0057371D01*
X0100427Y0057396D01*
X0100305Y0057426D01*
X0100184Y0057459D01*
X0100064Y0057496D01*
X0099945Y0057536D01*
X0099828Y0057581D01*
X0099711Y0057629D01*
X0099597Y0057681D01*
X0099484Y0057736D01*
X0099373Y0057795D01*
X0099264Y0057857D01*
X0099157Y0057923D01*
X0099052Y0057992D01*
X0098949Y0058064D01*
X0098848Y0058139D01*
X0098750Y0058218D01*
X0098655Y0058300D01*
X0098562Y0058384D01*
X0098472Y0058472D01*
X0098384Y0058562D01*
X0098300Y0058655D01*
X0098218Y0058750D01*
X0098139Y0058848D01*
X0098064Y0058949D01*
X0097992Y0059052D01*
X0097923Y0059157D01*
X0097857Y0059264D01*
X0097795Y0059373D01*
X0097736Y0059484D01*
X0097681Y0059597D01*
X0097629Y0059711D01*
X0097581Y0059828D01*
X0097536Y0059945D01*
X0097496Y0060064D01*
X0097459Y0060184D01*
X0097426Y0060305D01*
X0097396Y0060427D01*
X0097371Y0060550D01*
X0097349Y0060674D01*
X0097332Y0060799D01*
X0097318Y0060924D01*
X0097308Y0061049D01*
X0097302Y0061174D01*
X0097300Y0061300D01*
X0089800Y0061300D01*
X0089800Y0021300D01*
X0091800Y0020300D02*
X0091800Y0012300D01*
X0091802Y0012240D01*
X0091807Y0012179D01*
X0091816Y0012120D01*
X0091829Y0012061D01*
X0091845Y0012002D01*
X0091865Y0011945D01*
X0091888Y0011890D01*
X0091915Y0011835D01*
X0091944Y0011783D01*
X0091977Y0011732D01*
X0092013Y0011683D01*
X0092051Y0011637D01*
X0092093Y0011593D01*
X0092137Y0011551D01*
X0092183Y0011513D01*
X0092232Y0011477D01*
X0092283Y0011444D01*
X0092335Y0011415D01*
X0092390Y0011388D01*
X0092445Y0011365D01*
X0092502Y0011345D01*
X0092561Y0011329D01*
X0092620Y0011316D01*
X0092679Y0011307D01*
X0092740Y0011302D01*
X0092800Y0011300D01*
X0109800Y0011300D01*
X0109860Y0011302D01*
X0109921Y0011307D01*
X0109980Y0011316D01*
X0110039Y0011329D01*
X0110098Y0011345D01*
X0110155Y0011365D01*
X0110210Y0011388D01*
X0110265Y0011415D01*
X0110317Y0011444D01*
X0110368Y0011477D01*
X0110417Y0011513D01*
X0110463Y0011551D01*
X0110507Y0011593D01*
X0110549Y0011637D01*
X0110587Y0011683D01*
X0110623Y0011732D01*
X0110656Y0011783D01*
X0110685Y0011835D01*
X0110712Y0011890D01*
X0110735Y0011945D01*
X0110755Y0012002D01*
X0110771Y0012061D01*
X0110784Y0012120D01*
X0110793Y0012179D01*
X0110798Y0012240D01*
X0110800Y0012300D01*
X0110800Y0020300D01*
X0110798Y0020360D01*
X0110793Y0020421D01*
X0110784Y0020480D01*
X0110771Y0020539D01*
X0110755Y0020598D01*
X0110735Y0020655D01*
X0110712Y0020710D01*
X0110685Y0020765D01*
X0110656Y0020817D01*
X0110623Y0020868D01*
X0110587Y0020917D01*
X0110549Y0020963D01*
X0110507Y0021007D01*
X0110463Y0021049D01*
X0110417Y0021087D01*
X0110368Y0021123D01*
X0110317Y0021156D01*
X0110265Y0021185D01*
X0110210Y0021212D01*
X0110155Y0021235D01*
X0110098Y0021255D01*
X0110039Y0021271D01*
X0109980Y0021284D01*
X0109921Y0021293D01*
X0109860Y0021298D01*
X0109800Y0021300D01*
X0092800Y0021300D01*
X0092740Y0021298D01*
X0092679Y0021293D01*
X0092620Y0021284D01*
X0092561Y0021271D01*
X0092502Y0021255D01*
X0092445Y0021235D01*
X0092390Y0021212D01*
X0092335Y0021185D01*
X0092283Y0021156D01*
X0092232Y0021123D01*
X0092183Y0021087D01*
X0092137Y0021049D01*
X0092093Y0021007D01*
X0092051Y0020963D01*
X0092013Y0020917D01*
X0091977Y0020868D01*
X0091944Y0020817D01*
X0091915Y0020765D01*
X0091888Y0020710D01*
X0091865Y0020655D01*
X0091845Y0020598D01*
X0091829Y0020539D01*
X0091816Y0020480D01*
X0091807Y0020421D01*
X0091802Y0020360D01*
X0091800Y0020300D01*
X0099800Y0016300D02*
X0100300Y0016300D01*
X0102300Y0016300D02*
X0102800Y0016300D01*
X0119300Y0013800D02*
X0119302Y0013740D01*
X0119307Y0013679D01*
X0119316Y0013620D01*
X0119329Y0013561D01*
X0119345Y0013502D01*
X0119365Y0013445D01*
X0119388Y0013390D01*
X0119415Y0013335D01*
X0119444Y0013283D01*
X0119477Y0013232D01*
X0119513Y0013183D01*
X0119551Y0013137D01*
X0119593Y0013093D01*
X0119637Y0013051D01*
X0119683Y0013013D01*
X0119732Y0012977D01*
X0119783Y0012944D01*
X0119835Y0012915D01*
X0119890Y0012888D01*
X0119945Y0012865D01*
X0120002Y0012845D01*
X0120061Y0012829D01*
X0120120Y0012816D01*
X0120179Y0012807D01*
X0120240Y0012802D01*
X0120300Y0012800D01*
X0121300Y0012800D01*
X0121800Y0013300D01*
X0130800Y0013300D01*
X0131300Y0012800D01*
X0132300Y0012800D01*
X0132360Y0012802D01*
X0132421Y0012807D01*
X0132480Y0012816D01*
X0132539Y0012829D01*
X0132598Y0012845D01*
X0132655Y0012865D01*
X0132710Y0012888D01*
X0132765Y0012915D01*
X0132817Y0012944D01*
X0132868Y0012977D01*
X0132917Y0013013D01*
X0132963Y0013051D01*
X0133007Y0013093D01*
X0133049Y0013137D01*
X0133087Y0013183D01*
X0133123Y0013232D01*
X0133156Y0013283D01*
X0133185Y0013335D01*
X0133212Y0013390D01*
X0133235Y0013445D01*
X0133255Y0013502D01*
X0133271Y0013561D01*
X0133284Y0013620D01*
X0133293Y0013679D01*
X0133298Y0013740D01*
X0133300Y0013800D01*
X0133300Y0018800D02*
X0133298Y0018860D01*
X0133293Y0018921D01*
X0133284Y0018980D01*
X0133271Y0019039D01*
X0133255Y0019098D01*
X0133235Y0019155D01*
X0133212Y0019210D01*
X0133185Y0019265D01*
X0133156Y0019317D01*
X0133123Y0019368D01*
X0133087Y0019417D01*
X0133049Y0019463D01*
X0133007Y0019507D01*
X0132963Y0019549D01*
X0132917Y0019587D01*
X0132868Y0019623D01*
X0132817Y0019656D01*
X0132765Y0019685D01*
X0132710Y0019712D01*
X0132655Y0019735D01*
X0132598Y0019755D01*
X0132539Y0019771D01*
X0132480Y0019784D01*
X0132421Y0019793D01*
X0132360Y0019798D01*
X0132300Y0019800D01*
X0131300Y0019800D01*
X0130800Y0019300D01*
X0121800Y0019300D01*
X0121300Y0019800D01*
X0120300Y0019800D01*
X0120240Y0019798D01*
X0120179Y0019793D01*
X0120120Y0019784D01*
X0120061Y0019771D01*
X0120002Y0019755D01*
X0119945Y0019735D01*
X0119890Y0019712D01*
X0119835Y0019685D01*
X0119783Y0019656D01*
X0119732Y0019623D01*
X0119683Y0019587D01*
X0119637Y0019549D01*
X0119593Y0019507D01*
X0119551Y0019463D01*
X0119513Y0019417D01*
X0119477Y0019368D01*
X0119444Y0019317D01*
X0119415Y0019265D01*
X0119388Y0019210D01*
X0119365Y0019155D01*
X0119345Y0019098D01*
X0119329Y0019039D01*
X0119316Y0018980D01*
X0119307Y0018921D01*
X0119302Y0018860D01*
X0119300Y0018800D01*
X0142800Y0020300D02*
X0142800Y0021300D01*
X0143300Y0021800D01*
X0143300Y0030800D01*
X0142800Y0031300D01*
X0142800Y0032300D01*
X0142802Y0032360D01*
X0142807Y0032421D01*
X0142816Y0032480D01*
X0142829Y0032539D01*
X0142845Y0032598D01*
X0142865Y0032655D01*
X0142888Y0032710D01*
X0142915Y0032765D01*
X0142944Y0032817D01*
X0142977Y0032868D01*
X0143013Y0032917D01*
X0143051Y0032963D01*
X0143093Y0033007D01*
X0143137Y0033049D01*
X0143183Y0033087D01*
X0143232Y0033123D01*
X0143283Y0033156D01*
X0143335Y0033185D01*
X0143390Y0033212D01*
X0143445Y0033235D01*
X0143502Y0033255D01*
X0143561Y0033271D01*
X0143620Y0033284D01*
X0143679Y0033293D01*
X0143740Y0033298D01*
X0143800Y0033300D01*
X0148800Y0033300D02*
X0148860Y0033298D01*
X0148921Y0033293D01*
X0148980Y0033284D01*
X0149039Y0033271D01*
X0149098Y0033255D01*
X0149155Y0033235D01*
X0149210Y0033212D01*
X0149265Y0033185D01*
X0149317Y0033156D01*
X0149368Y0033123D01*
X0149417Y0033087D01*
X0149463Y0033049D01*
X0149507Y0033007D01*
X0149549Y0032963D01*
X0149587Y0032917D01*
X0149623Y0032868D01*
X0149656Y0032817D01*
X0149685Y0032765D01*
X0149712Y0032710D01*
X0149735Y0032655D01*
X0149755Y0032598D01*
X0149771Y0032539D01*
X0149784Y0032480D01*
X0149793Y0032421D01*
X0149798Y0032360D01*
X0149800Y0032300D01*
X0149800Y0031300D01*
X0149300Y0030800D01*
X0149300Y0021800D01*
X0149800Y0021300D01*
X0149800Y0020300D01*
X0149798Y0020240D01*
X0149793Y0020179D01*
X0149784Y0020120D01*
X0149771Y0020061D01*
X0149755Y0020002D01*
X0149735Y0019945D01*
X0149712Y0019890D01*
X0149685Y0019835D01*
X0149656Y0019783D01*
X0149623Y0019732D01*
X0149587Y0019683D01*
X0149549Y0019637D01*
X0149507Y0019593D01*
X0149463Y0019551D01*
X0149417Y0019513D01*
X0149368Y0019477D01*
X0149317Y0019444D01*
X0149265Y0019415D01*
X0149210Y0019388D01*
X0149155Y0019365D01*
X0149098Y0019345D01*
X0149039Y0019329D01*
X0148980Y0019316D01*
X0148921Y0019307D01*
X0148860Y0019302D01*
X0148800Y0019300D01*
X0143800Y0019300D02*
X0143740Y0019302D01*
X0143679Y0019307D01*
X0143620Y0019316D01*
X0143561Y0019329D01*
X0143502Y0019345D01*
X0143445Y0019365D01*
X0143390Y0019388D01*
X0143335Y0019415D01*
X0143283Y0019444D01*
X0143232Y0019477D01*
X0143183Y0019513D01*
X0143137Y0019551D01*
X0143093Y0019593D01*
X0143051Y0019637D01*
X0143013Y0019683D01*
X0142977Y0019732D01*
X0142944Y0019783D01*
X0142915Y0019835D01*
X0142888Y0019890D01*
X0142865Y0019945D01*
X0142845Y0020002D01*
X0142829Y0020061D01*
X0142816Y0020120D01*
X0142807Y0020179D01*
X0142802Y0020240D01*
X0142800Y0020300D01*
X0142800Y0050300D02*
X0142800Y0051300D01*
X0143300Y0051800D01*
X0143300Y0060800D01*
X0142800Y0061300D01*
X0142800Y0062300D01*
X0142802Y0062360D01*
X0142807Y0062421D01*
X0142816Y0062480D01*
X0142829Y0062539D01*
X0142845Y0062598D01*
X0142865Y0062655D01*
X0142888Y0062710D01*
X0142915Y0062765D01*
X0142944Y0062817D01*
X0142977Y0062868D01*
X0143013Y0062917D01*
X0143051Y0062963D01*
X0143093Y0063007D01*
X0143137Y0063049D01*
X0143183Y0063087D01*
X0143232Y0063123D01*
X0143283Y0063156D01*
X0143335Y0063185D01*
X0143390Y0063212D01*
X0143445Y0063235D01*
X0143502Y0063255D01*
X0143561Y0063271D01*
X0143620Y0063284D01*
X0143679Y0063293D01*
X0143740Y0063298D01*
X0143800Y0063300D01*
X0143800Y0071300D02*
X0141300Y0073800D01*
X0141300Y0078800D01*
X0143800Y0081300D01*
X0141300Y0083800D01*
X0141300Y0088800D01*
X0143800Y0091300D01*
X0148800Y0091300D01*
X0151300Y0088800D01*
X0151300Y0083800D01*
X0148800Y0081300D01*
X0151300Y0078800D01*
X0151300Y0073800D01*
X0148800Y0071300D01*
X0143800Y0071300D01*
X0148800Y0063300D02*
X0148860Y0063298D01*
X0148921Y0063293D01*
X0148980Y0063284D01*
X0149039Y0063271D01*
X0149098Y0063255D01*
X0149155Y0063235D01*
X0149210Y0063212D01*
X0149265Y0063185D01*
X0149317Y0063156D01*
X0149368Y0063123D01*
X0149417Y0063087D01*
X0149463Y0063049D01*
X0149507Y0063007D01*
X0149549Y0062963D01*
X0149587Y0062917D01*
X0149623Y0062868D01*
X0149656Y0062817D01*
X0149685Y0062765D01*
X0149712Y0062710D01*
X0149735Y0062655D01*
X0149755Y0062598D01*
X0149771Y0062539D01*
X0149784Y0062480D01*
X0149793Y0062421D01*
X0149798Y0062360D01*
X0149800Y0062300D01*
X0149800Y0061300D01*
X0149300Y0060800D01*
X0149300Y0051800D01*
X0149800Y0051300D01*
X0149800Y0050300D01*
X0149798Y0050240D01*
X0149793Y0050179D01*
X0149784Y0050120D01*
X0149771Y0050061D01*
X0149755Y0050002D01*
X0149735Y0049945D01*
X0149712Y0049890D01*
X0149685Y0049835D01*
X0149656Y0049783D01*
X0149623Y0049732D01*
X0149587Y0049683D01*
X0149549Y0049637D01*
X0149507Y0049593D01*
X0149463Y0049551D01*
X0149417Y0049513D01*
X0149368Y0049477D01*
X0149317Y0049444D01*
X0149265Y0049415D01*
X0149210Y0049388D01*
X0149155Y0049365D01*
X0149098Y0049345D01*
X0149039Y0049329D01*
X0148980Y0049316D01*
X0148921Y0049307D01*
X0148860Y0049302D01*
X0148800Y0049300D01*
X0143800Y0049300D02*
X0143740Y0049302D01*
X0143679Y0049307D01*
X0143620Y0049316D01*
X0143561Y0049329D01*
X0143502Y0049345D01*
X0143445Y0049365D01*
X0143390Y0049388D01*
X0143335Y0049415D01*
X0143283Y0049444D01*
X0143232Y0049477D01*
X0143183Y0049513D01*
X0143137Y0049551D01*
X0143093Y0049593D01*
X0143051Y0049637D01*
X0143013Y0049683D01*
X0142977Y0049732D01*
X0142944Y0049783D01*
X0142915Y0049835D01*
X0142888Y0049890D01*
X0142865Y0049945D01*
X0142845Y0050002D01*
X0142829Y0050061D01*
X0142816Y0050120D01*
X0142807Y0050179D01*
X0142802Y0050240D01*
X0142800Y0050300D01*
X0143800Y0081300D02*
X0148800Y0081300D01*
X0148800Y0091300D02*
X0151300Y0093800D01*
X0151300Y0098800D01*
X0148800Y0101300D01*
X0151300Y0103800D01*
X0151300Y0108800D01*
X0148800Y0111300D01*
X0151300Y0113800D01*
X0151300Y0118800D01*
X0148800Y0121300D01*
X0151300Y0123800D01*
X0151300Y0128800D01*
X0148800Y0131300D01*
X0143800Y0131300D01*
X0141300Y0128800D01*
X0141300Y0123800D01*
X0143800Y0121300D01*
X0148800Y0121300D01*
X0143800Y0121300D02*
X0141300Y0118800D01*
X0141300Y0113800D01*
X0143800Y0111300D01*
X0148800Y0111300D01*
X0143800Y0111300D02*
X0141300Y0108800D01*
X0141300Y0103800D01*
X0143800Y0101300D01*
X0148800Y0101300D01*
X0143800Y0101300D02*
X0141300Y0098800D01*
X0141300Y0093800D01*
X0143800Y0091300D01*
X0153800Y0136300D02*
X0151300Y0138800D01*
X0151300Y0143800D01*
X0153800Y0146300D01*
X0168800Y0146300D01*
X0171300Y0148800D01*
X0171300Y0153800D01*
X0168800Y0156300D01*
X0171300Y0158800D01*
X0171300Y0163800D01*
X0168800Y0166300D01*
X0153800Y0166300D01*
X0151300Y0163800D01*
X0151300Y0158800D01*
X0153800Y0156300D01*
X0168800Y0156300D01*
X0168800Y0146300D02*
X0171300Y0143800D01*
X0171300Y0138800D01*
X0168800Y0136300D01*
X0153800Y0136300D01*
X0153800Y0146300D02*
X0151300Y0148800D01*
X0151300Y0153800D01*
X0153800Y0156300D01*
X0152800Y0176300D02*
X0169800Y0176300D01*
X0169860Y0176302D01*
X0169921Y0176307D01*
X0169980Y0176316D01*
X0170039Y0176329D01*
X0170098Y0176345D01*
X0170155Y0176365D01*
X0170210Y0176388D01*
X0170265Y0176415D01*
X0170317Y0176444D01*
X0170368Y0176477D01*
X0170417Y0176513D01*
X0170463Y0176551D01*
X0170507Y0176593D01*
X0170549Y0176637D01*
X0170587Y0176683D01*
X0170623Y0176732D01*
X0170656Y0176783D01*
X0170685Y0176835D01*
X0170712Y0176890D01*
X0170735Y0176945D01*
X0170755Y0177002D01*
X0170771Y0177061D01*
X0170784Y0177120D01*
X0170793Y0177179D01*
X0170798Y0177240D01*
X0170800Y0177300D01*
X0170800Y0185300D01*
X0170798Y0185360D01*
X0170793Y0185421D01*
X0170784Y0185480D01*
X0170771Y0185539D01*
X0170755Y0185598D01*
X0170735Y0185655D01*
X0170712Y0185710D01*
X0170685Y0185765D01*
X0170656Y0185817D01*
X0170623Y0185868D01*
X0170587Y0185917D01*
X0170549Y0185963D01*
X0170507Y0186007D01*
X0170463Y0186049D01*
X0170417Y0186087D01*
X0170368Y0186123D01*
X0170317Y0186156D01*
X0170265Y0186185D01*
X0170210Y0186212D01*
X0170155Y0186235D01*
X0170098Y0186255D01*
X0170039Y0186271D01*
X0169980Y0186284D01*
X0169921Y0186293D01*
X0169860Y0186298D01*
X0169800Y0186300D01*
X0152800Y0186300D01*
X0152740Y0186298D01*
X0152679Y0186293D01*
X0152620Y0186284D01*
X0152561Y0186271D01*
X0152502Y0186255D01*
X0152445Y0186235D01*
X0152390Y0186212D01*
X0152335Y0186185D01*
X0152283Y0186156D01*
X0152232Y0186123D01*
X0152183Y0186087D01*
X0152137Y0186049D01*
X0152093Y0186007D01*
X0152051Y0185963D01*
X0152013Y0185917D01*
X0151977Y0185868D01*
X0151944Y0185817D01*
X0151915Y0185765D01*
X0151888Y0185710D01*
X0151865Y0185655D01*
X0151845Y0185598D01*
X0151829Y0185539D01*
X0151816Y0185480D01*
X0151807Y0185421D01*
X0151802Y0185360D01*
X0151800Y0185300D01*
X0151800Y0177300D01*
X0151802Y0177240D01*
X0151807Y0177179D01*
X0151816Y0177120D01*
X0151829Y0177061D01*
X0151845Y0177002D01*
X0151865Y0176945D01*
X0151888Y0176890D01*
X0151915Y0176835D01*
X0151944Y0176783D01*
X0151977Y0176732D01*
X0152013Y0176683D01*
X0152051Y0176637D01*
X0152093Y0176593D01*
X0152137Y0176551D01*
X0152183Y0176513D01*
X0152232Y0176477D01*
X0152283Y0176444D01*
X0152335Y0176415D01*
X0152390Y0176388D01*
X0152445Y0176365D01*
X0152502Y0176345D01*
X0152561Y0176329D01*
X0152620Y0176316D01*
X0152679Y0176307D01*
X0152740Y0176302D01*
X0152800Y0176300D01*
X0159800Y0181300D02*
X0160300Y0181300D01*
X0162300Y0181300D02*
X0162800Y0181300D01*
X0172800Y0186300D02*
X0149800Y0186300D01*
X0149800Y0256300D01*
X0157300Y0256300D01*
X0157302Y0256174D01*
X0157308Y0256049D01*
X0157318Y0255924D01*
X0157332Y0255799D01*
X0157349Y0255674D01*
X0157371Y0255550D01*
X0157396Y0255427D01*
X0157426Y0255305D01*
X0157459Y0255184D01*
X0157496Y0255064D01*
X0157536Y0254945D01*
X0157581Y0254828D01*
X0157629Y0254711D01*
X0157681Y0254597D01*
X0157736Y0254484D01*
X0157795Y0254373D01*
X0157857Y0254264D01*
X0157923Y0254157D01*
X0157992Y0254052D01*
X0158064Y0253949D01*
X0158139Y0253848D01*
X0158218Y0253750D01*
X0158300Y0253655D01*
X0158384Y0253562D01*
X0158472Y0253472D01*
X0158562Y0253384D01*
X0158655Y0253300D01*
X0158750Y0253218D01*
X0158848Y0253139D01*
X0158949Y0253064D01*
X0159052Y0252992D01*
X0159157Y0252923D01*
X0159264Y0252857D01*
X0159373Y0252795D01*
X0159484Y0252736D01*
X0159597Y0252681D01*
X0159711Y0252629D01*
X0159828Y0252581D01*
X0159945Y0252536D01*
X0160064Y0252496D01*
X0160184Y0252459D01*
X0160305Y0252426D01*
X0160427Y0252396D01*
X0160550Y0252371D01*
X0160674Y0252349D01*
X0160799Y0252332D01*
X0160924Y0252318D01*
X0161049Y0252308D01*
X0161174Y0252302D01*
X0161300Y0252300D01*
X0161426Y0252302D01*
X0161551Y0252308D01*
X0161676Y0252318D01*
X0161801Y0252332D01*
X0161926Y0252349D01*
X0162050Y0252371D01*
X0162173Y0252396D01*
X0162295Y0252426D01*
X0162416Y0252459D01*
X0162536Y0252496D01*
X0162655Y0252536D01*
X0162772Y0252581D01*
X0162889Y0252629D01*
X0163003Y0252681D01*
X0163116Y0252736D01*
X0163227Y0252795D01*
X0163336Y0252857D01*
X0163443Y0252923D01*
X0163548Y0252992D01*
X0163651Y0253064D01*
X0163752Y0253139D01*
X0163850Y0253218D01*
X0163945Y0253300D01*
X0164038Y0253384D01*
X0164128Y0253472D01*
X0164216Y0253562D01*
X0164300Y0253655D01*
X0164382Y0253750D01*
X0164461Y0253848D01*
X0164536Y0253949D01*
X0164608Y0254052D01*
X0164677Y0254157D01*
X0164743Y0254264D01*
X0164805Y0254373D01*
X0164864Y0254484D01*
X0164919Y0254597D01*
X0164971Y0254711D01*
X0165019Y0254828D01*
X0165064Y0254945D01*
X0165104Y0255064D01*
X0165141Y0255184D01*
X0165174Y0255305D01*
X0165204Y0255427D01*
X0165229Y0255550D01*
X0165251Y0255674D01*
X0165268Y0255799D01*
X0165282Y0255924D01*
X0165292Y0256049D01*
X0165298Y0256174D01*
X0165300Y0256300D01*
X0172800Y0256300D01*
X0172800Y0186300D01*
X0136300Y0223300D02*
X0136300Y0259300D01*
X0136298Y0259387D01*
X0136292Y0259474D01*
X0136283Y0259561D01*
X0136270Y0259647D01*
X0136253Y0259733D01*
X0136232Y0259818D01*
X0136207Y0259901D01*
X0136179Y0259984D01*
X0136148Y0260065D01*
X0136113Y0260145D01*
X0136074Y0260223D01*
X0136032Y0260300D01*
X0135987Y0260375D01*
X0135938Y0260447D01*
X0135887Y0260518D01*
X0135832Y0260586D01*
X0135775Y0260651D01*
X0135714Y0260714D01*
X0135651Y0260775D01*
X0135586Y0260832D01*
X0135518Y0260887D01*
X0135447Y0260938D01*
X0135375Y0260987D01*
X0135300Y0261032D01*
X0135223Y0261074D01*
X0135145Y0261113D01*
X0135065Y0261148D01*
X0134984Y0261179D01*
X0134901Y0261207D01*
X0134818Y0261232D01*
X0134733Y0261253D01*
X0134647Y0261270D01*
X0134561Y0261283D01*
X0134474Y0261292D01*
X0134387Y0261298D01*
X0134300Y0261300D01*
X0098300Y0261300D01*
X0098213Y0261298D01*
X0098126Y0261292D01*
X0098039Y0261283D01*
X0097953Y0261270D01*
X0097867Y0261253D01*
X0097782Y0261232D01*
X0097699Y0261207D01*
X0097616Y0261179D01*
X0097535Y0261148D01*
X0097455Y0261113D01*
X0097377Y0261074D01*
X0097300Y0261032D01*
X0097225Y0260987D01*
X0097153Y0260938D01*
X0097082Y0260887D01*
X0097014Y0260832D01*
X0096949Y0260775D01*
X0096886Y0260714D01*
X0096825Y0260651D01*
X0096768Y0260586D01*
X0096713Y0260518D01*
X0096662Y0260447D01*
X0096613Y0260375D01*
X0096568Y0260300D01*
X0096526Y0260223D01*
X0096487Y0260145D01*
X0096452Y0260065D01*
X0096421Y0259984D01*
X0096393Y0259901D01*
X0096368Y0259818D01*
X0096347Y0259733D01*
X0096330Y0259647D01*
X0096317Y0259561D01*
X0096308Y0259474D01*
X0096302Y0259387D01*
X0096300Y0259300D01*
X0096300Y0227300D01*
X0102300Y0221300D01*
X0134300Y0221300D01*
X0134387Y0221302D01*
X0134474Y0221308D01*
X0134561Y0221317D01*
X0134647Y0221330D01*
X0134733Y0221347D01*
X0134818Y0221368D01*
X0134901Y0221393D01*
X0134984Y0221421D01*
X0135065Y0221452D01*
X0135145Y0221487D01*
X0135223Y0221526D01*
X0135300Y0221568D01*
X0135375Y0221613D01*
X0135447Y0221662D01*
X0135518Y0221713D01*
X0135586Y0221768D01*
X0135651Y0221825D01*
X0135714Y0221886D01*
X0135775Y0221949D01*
X0135832Y0222014D01*
X0135887Y0222082D01*
X0135938Y0222153D01*
X0135987Y0222225D01*
X0136032Y0222300D01*
X0136074Y0222377D01*
X0136113Y0222455D01*
X0136148Y0222535D01*
X0136179Y0222616D01*
X0136207Y0222699D01*
X0136232Y0222782D01*
X0136253Y0222867D01*
X0136270Y0222953D01*
X0136283Y0223039D01*
X0136292Y0223126D01*
X0136298Y0223213D01*
X0136300Y0223300D01*
X0128700Y0234900D02*
X0127500Y0234700D01*
X0126500Y0235300D01*
X0125700Y0236500D01*
X0125900Y0238300D01*
X0127300Y0237100D02*
X0126500Y0235300D01*
X0125500Y0234100D02*
X0126300Y0233300D01*
X0126100Y0231500D01*
X0124300Y0231300D01*
X0123500Y0232100D01*
X0122300Y0233300D01*
X0123500Y0232100D02*
X0125500Y0234100D01*
X0124300Y0235300D01*
X0122400Y0235200D02*
X0121400Y0236200D01*
X0122800Y0238300D02*
X0124100Y0237700D01*
X0127300Y0237100D02*
X0128300Y0237500D01*
X0129100Y0237100D01*
X0129300Y0236100D01*
X0128700Y0234900D01*
X0128800Y0240000D02*
X0129400Y0240000D01*
X0130100Y0240600D01*
X0130100Y0241800D01*
X0129400Y0242400D01*
X0128800Y0242400D01*
X0128200Y0241800D01*
X0128200Y0240600D01*
X0128800Y0240000D01*
X0128200Y0240600D02*
X0127600Y0240000D01*
X0127000Y0240000D01*
X0126400Y0240600D01*
X0126400Y0241800D01*
X0127000Y0242400D01*
X0127600Y0242400D01*
X0128200Y0241800D01*
X0128900Y0245100D02*
X0125900Y0245900D01*
X0125300Y0245700D01*
X0124500Y0244500D02*
X0123000Y0243900D01*
X0123400Y0241300D02*
X0124900Y0241300D01*
X0128900Y0245100D02*
X0129500Y0245300D01*
X0128500Y0247500D01*
X0127100Y0250100D02*
X0125700Y0250900D01*
X0123900Y0250500D01*
X0123100Y0249700D01*
X0123100Y0248700D01*
X0124100Y0247700D01*
X0125100Y0247700D01*
X0125500Y0248100D01*
X0125500Y0249100D01*
X0123900Y0250500D01*
X0122100Y0251600D02*
X0121800Y0252400D01*
X0120900Y0252800D01*
X0120000Y0252700D01*
X0120800Y0254300D01*
X0123000Y0253300D01*
X0122100Y0251600D02*
X0121600Y0250600D01*
X0120800Y0250300D01*
X0119800Y0250800D01*
X0119500Y0251600D01*
X0119800Y0249300D02*
X0119200Y0247800D01*
X0121300Y0246300D02*
X0122300Y0247300D01*
X0116900Y0251400D02*
X0116900Y0255100D01*
X0115100Y0253200D01*
X0117500Y0253200D01*
X0116300Y0249900D02*
X0116300Y0248400D01*
X0113500Y0247800D02*
X0112900Y0249300D01*
X0111600Y0250100D02*
X0113300Y0250800D01*
X0113500Y0251700D01*
X0113100Y0252500D01*
X0112600Y0252700D01*
X0112700Y0253300D01*
X0112300Y0254100D01*
X0111800Y0254400D01*
X0110100Y0253700D01*
X0109900Y0252700D01*
X0111800Y0252400D02*
X0112600Y0252700D01*
X0110900Y0250500D02*
X0111600Y0250100D01*
X0110200Y0249300D02*
X0108500Y0247700D01*
X0108700Y0251100D01*
X0108200Y0251700D01*
X0107300Y0251700D01*
X0106200Y0250700D01*
X0106200Y0249600D01*
X0103900Y0247000D02*
X0104100Y0245800D01*
X0103900Y0247000D02*
X0107200Y0245500D01*
X0107500Y0246000D02*
X0107000Y0244900D01*
X0108500Y0244900D02*
X0109800Y0244300D01*
X0111300Y0246400D02*
X0110300Y0247400D01*
X0109100Y0241300D02*
X0107600Y0241300D01*
X0106200Y0240700D02*
X0105500Y0240100D01*
X0103100Y0240100D01*
X0102500Y0240700D01*
X0102500Y0241900D01*
X0103100Y0242500D01*
X0105500Y0242500D01*
X0106200Y0241900D01*
X0106200Y0240700D01*
X0108300Y0237900D02*
X0109700Y0238500D01*
X0111200Y0236200D02*
X0110200Y0235200D01*
X0108600Y0235000D02*
X0110100Y0233400D01*
X0108700Y0232000D01*
X0107300Y0230600D01*
X0105600Y0232300D01*
X0107800Y0232900D02*
X0108700Y0232000D01*
X0110900Y0232100D02*
X0109700Y0229600D01*
X0110000Y0228900D01*
X0111700Y0228100D01*
X0113300Y0231700D01*
X0111700Y0232400D01*
X0110900Y0232100D01*
X0107500Y0236600D02*
X0105800Y0235800D01*
X0105200Y0237200D01*
X0105800Y0235800D02*
X0104100Y0235000D01*
X0103200Y0236900D01*
X0113000Y0233400D02*
X0113500Y0234700D01*
X0116300Y0234100D02*
X0116300Y0232600D01*
X0118900Y0231500D02*
X0120900Y0232300D01*
X0121700Y0230500D01*
X0122500Y0228900D01*
X0120700Y0228100D01*
X0120100Y0228300D01*
X0119700Y0229100D01*
X0119900Y0229700D01*
X0119100Y0230100D01*
X0118800Y0230800D01*
X0118900Y0231500D01*
X0119600Y0233200D02*
X0118900Y0234800D01*
X0121700Y0230500D02*
X0119900Y0229700D01*
X0109200Y0241300D02*
X0109202Y0241474D01*
X0109209Y0241648D01*
X0109219Y0241822D01*
X0109234Y0241996D01*
X0109253Y0242169D01*
X0109277Y0242342D01*
X0109305Y0242514D01*
X0109336Y0242685D01*
X0109373Y0242856D01*
X0109413Y0243025D01*
X0109457Y0243194D01*
X0109506Y0243361D01*
X0109558Y0243527D01*
X0109615Y0243692D01*
X0109676Y0243855D01*
X0109740Y0244017D01*
X0109809Y0244177D01*
X0109882Y0244336D01*
X0109958Y0244492D01*
X0110038Y0244647D01*
X0110122Y0244800D01*
X0110210Y0244950D01*
X0110302Y0245098D01*
X0110397Y0245245D01*
X0110495Y0245388D01*
X0110597Y0245529D01*
X0110703Y0245668D01*
X0110812Y0245804D01*
X0110924Y0245938D01*
X0111039Y0246068D01*
X0111158Y0246196D01*
X0111280Y0246320D01*
X0111404Y0246442D01*
X0111532Y0246561D01*
X0111662Y0246676D01*
X0111796Y0246788D01*
X0111932Y0246897D01*
X0112071Y0247003D01*
X0112212Y0247105D01*
X0112355Y0247203D01*
X0112502Y0247298D01*
X0112650Y0247390D01*
X0112800Y0247478D01*
X0112953Y0247562D01*
X0113108Y0247642D01*
X0113264Y0247718D01*
X0113423Y0247791D01*
X0113583Y0247860D01*
X0113745Y0247924D01*
X0113908Y0247985D01*
X0114073Y0248042D01*
X0114239Y0248094D01*
X0114406Y0248143D01*
X0114575Y0248187D01*
X0114744Y0248227D01*
X0114915Y0248264D01*
X0115086Y0248295D01*
X0115258Y0248323D01*
X0115431Y0248347D01*
X0115604Y0248366D01*
X0115778Y0248381D01*
X0115952Y0248391D01*
X0116126Y0248398D01*
X0116300Y0248400D01*
X0116474Y0248398D01*
X0116648Y0248391D01*
X0116822Y0248381D01*
X0116996Y0248366D01*
X0117169Y0248347D01*
X0117342Y0248323D01*
X0117514Y0248295D01*
X0117685Y0248264D01*
X0117856Y0248227D01*
X0118025Y0248187D01*
X0118194Y0248143D01*
X0118361Y0248094D01*
X0118527Y0248042D01*
X0118692Y0247985D01*
X0118855Y0247924D01*
X0119017Y0247860D01*
X0119177Y0247791D01*
X0119336Y0247718D01*
X0119492Y0247642D01*
X0119647Y0247562D01*
X0119800Y0247478D01*
X0119950Y0247390D01*
X0120098Y0247298D01*
X0120245Y0247203D01*
X0120388Y0247105D01*
X0120529Y0247003D01*
X0120668Y0246897D01*
X0120804Y0246788D01*
X0120938Y0246676D01*
X0121068Y0246561D01*
X0121196Y0246442D01*
X0121320Y0246320D01*
X0121442Y0246196D01*
X0121561Y0246068D01*
X0121676Y0245938D01*
X0121788Y0245804D01*
X0121897Y0245668D01*
X0122003Y0245529D01*
X0122105Y0245388D01*
X0122203Y0245245D01*
X0122298Y0245098D01*
X0122390Y0244950D01*
X0122478Y0244800D01*
X0122562Y0244647D01*
X0122642Y0244492D01*
X0122718Y0244336D01*
X0122791Y0244177D01*
X0122860Y0244017D01*
X0122924Y0243855D01*
X0122985Y0243692D01*
X0123042Y0243527D01*
X0123094Y0243361D01*
X0123143Y0243194D01*
X0123187Y0243025D01*
X0123227Y0242856D01*
X0123264Y0242685D01*
X0123295Y0242514D01*
X0123323Y0242342D01*
X0123347Y0242169D01*
X0123366Y0241996D01*
X0123381Y0241822D01*
X0123391Y0241648D01*
X0123398Y0241474D01*
X0123400Y0241300D01*
X0123398Y0241126D01*
X0123391Y0240952D01*
X0123381Y0240778D01*
X0123366Y0240604D01*
X0123347Y0240431D01*
X0123323Y0240258D01*
X0123295Y0240086D01*
X0123264Y0239915D01*
X0123227Y0239744D01*
X0123187Y0239575D01*
X0123143Y0239406D01*
X0123094Y0239239D01*
X0123042Y0239073D01*
X0122985Y0238908D01*
X0122924Y0238745D01*
X0122860Y0238583D01*
X0122791Y0238423D01*
X0122718Y0238264D01*
X0122642Y0238108D01*
X0122562Y0237953D01*
X0122478Y0237800D01*
X0122390Y0237650D01*
X0122298Y0237502D01*
X0122203Y0237355D01*
X0122105Y0237212D01*
X0122003Y0237071D01*
X0121897Y0236932D01*
X0121788Y0236796D01*
X0121676Y0236662D01*
X0121561Y0236532D01*
X0121442Y0236404D01*
X0121320Y0236280D01*
X0121196Y0236158D01*
X0121068Y0236039D01*
X0120938Y0235924D01*
X0120804Y0235812D01*
X0120668Y0235703D01*
X0120529Y0235597D01*
X0120388Y0235495D01*
X0120245Y0235397D01*
X0120098Y0235302D01*
X0119950Y0235210D01*
X0119800Y0235122D01*
X0119647Y0235038D01*
X0119492Y0234958D01*
X0119336Y0234882D01*
X0119177Y0234809D01*
X0119017Y0234740D01*
X0118855Y0234676D01*
X0118692Y0234615D01*
X0118527Y0234558D01*
X0118361Y0234506D01*
X0118194Y0234457D01*
X0118025Y0234413D01*
X0117856Y0234373D01*
X0117685Y0234336D01*
X0117514Y0234305D01*
X0117342Y0234277D01*
X0117169Y0234253D01*
X0116996Y0234234D01*
X0116822Y0234219D01*
X0116648Y0234209D01*
X0116474Y0234202D01*
X0116300Y0234200D01*
X0116126Y0234202D01*
X0115952Y0234209D01*
X0115778Y0234219D01*
X0115604Y0234234D01*
X0115431Y0234253D01*
X0115258Y0234277D01*
X0115086Y0234305D01*
X0114915Y0234336D01*
X0114744Y0234373D01*
X0114575Y0234413D01*
X0114406Y0234457D01*
X0114239Y0234506D01*
X0114073Y0234558D01*
X0113908Y0234615D01*
X0113745Y0234676D01*
X0113583Y0234740D01*
X0113423Y0234809D01*
X0113264Y0234882D01*
X0113108Y0234958D01*
X0112953Y0235038D01*
X0112800Y0235122D01*
X0112650Y0235210D01*
X0112502Y0235302D01*
X0112355Y0235397D01*
X0112212Y0235495D01*
X0112071Y0235597D01*
X0111932Y0235703D01*
X0111796Y0235812D01*
X0111662Y0235924D01*
X0111532Y0236039D01*
X0111404Y0236158D01*
X0111280Y0236280D01*
X0111158Y0236404D01*
X0111039Y0236532D01*
X0110924Y0236662D01*
X0110812Y0236796D01*
X0110703Y0236932D01*
X0110597Y0237071D01*
X0110495Y0237212D01*
X0110397Y0237355D01*
X0110302Y0237502D01*
X0110210Y0237650D01*
X0110122Y0237800D01*
X0110038Y0237953D01*
X0109958Y0238108D01*
X0109882Y0238264D01*
X0109809Y0238423D01*
X0109740Y0238583D01*
X0109676Y0238745D01*
X0109615Y0238908D01*
X0109558Y0239073D01*
X0109506Y0239239D01*
X0109457Y0239406D01*
X0109413Y0239575D01*
X0109373Y0239744D01*
X0109336Y0239915D01*
X0109305Y0240086D01*
X0109277Y0240258D01*
X0109253Y0240431D01*
X0109234Y0240604D01*
X0109219Y0240778D01*
X0109209Y0240952D01*
X0109202Y0241126D01*
X0109200Y0241300D01*
X0109800Y0216300D02*
X0092800Y0216300D01*
X0092740Y0216298D01*
X0092679Y0216293D01*
X0092620Y0216284D01*
X0092561Y0216271D01*
X0092502Y0216255D01*
X0092445Y0216235D01*
X0092390Y0216212D01*
X0092335Y0216185D01*
X0092283Y0216156D01*
X0092232Y0216123D01*
X0092183Y0216087D01*
X0092137Y0216049D01*
X0092093Y0216007D01*
X0092051Y0215963D01*
X0092013Y0215917D01*
X0091977Y0215868D01*
X0091944Y0215817D01*
X0091915Y0215765D01*
X0091888Y0215710D01*
X0091865Y0215655D01*
X0091845Y0215598D01*
X0091829Y0215539D01*
X0091816Y0215480D01*
X0091807Y0215421D01*
X0091802Y0215360D01*
X0091800Y0215300D01*
X0091800Y0207300D01*
X0091802Y0207240D01*
X0091807Y0207179D01*
X0091816Y0207120D01*
X0091829Y0207061D01*
X0091845Y0207002D01*
X0091865Y0206945D01*
X0091888Y0206890D01*
X0091915Y0206835D01*
X0091944Y0206783D01*
X0091977Y0206732D01*
X0092013Y0206683D01*
X0092051Y0206637D01*
X0092093Y0206593D01*
X0092137Y0206551D01*
X0092183Y0206513D01*
X0092232Y0206477D01*
X0092283Y0206444D01*
X0092335Y0206415D01*
X0092390Y0206388D01*
X0092445Y0206365D01*
X0092502Y0206345D01*
X0092561Y0206329D01*
X0092620Y0206316D01*
X0092679Y0206307D01*
X0092740Y0206302D01*
X0092800Y0206300D01*
X0109800Y0206300D01*
X0109860Y0206302D01*
X0109921Y0206307D01*
X0109980Y0206316D01*
X0110039Y0206329D01*
X0110098Y0206345D01*
X0110155Y0206365D01*
X0110210Y0206388D01*
X0110265Y0206415D01*
X0110317Y0206444D01*
X0110368Y0206477D01*
X0110417Y0206513D01*
X0110463Y0206551D01*
X0110507Y0206593D01*
X0110549Y0206637D01*
X0110587Y0206683D01*
X0110623Y0206732D01*
X0110656Y0206783D01*
X0110685Y0206835D01*
X0110712Y0206890D01*
X0110735Y0206945D01*
X0110755Y0207002D01*
X0110771Y0207061D01*
X0110784Y0207120D01*
X0110793Y0207179D01*
X0110798Y0207240D01*
X0110800Y0207300D01*
X0110800Y0215300D01*
X0110798Y0215360D01*
X0110793Y0215421D01*
X0110784Y0215480D01*
X0110771Y0215539D01*
X0110755Y0215598D01*
X0110735Y0215655D01*
X0110712Y0215710D01*
X0110685Y0215765D01*
X0110656Y0215817D01*
X0110623Y0215868D01*
X0110587Y0215917D01*
X0110549Y0215963D01*
X0110507Y0216007D01*
X0110463Y0216049D01*
X0110417Y0216087D01*
X0110368Y0216123D01*
X0110317Y0216156D01*
X0110265Y0216185D01*
X0110210Y0216212D01*
X0110155Y0216235D01*
X0110098Y0216255D01*
X0110039Y0216271D01*
X0109980Y0216284D01*
X0109921Y0216293D01*
X0109860Y0216298D01*
X0109800Y0216300D01*
X0102800Y0211300D02*
X0102300Y0211300D01*
X0100300Y0211300D02*
X0099800Y0211300D01*
X0110300Y0267800D02*
X0111300Y0267800D01*
X0111800Y0268300D01*
X0120800Y0268300D01*
X0121300Y0267800D01*
X0122300Y0267800D01*
X0122360Y0267802D01*
X0122421Y0267807D01*
X0122480Y0267816D01*
X0122539Y0267829D01*
X0122598Y0267845D01*
X0122655Y0267865D01*
X0122710Y0267888D01*
X0122765Y0267915D01*
X0122817Y0267944D01*
X0122868Y0267977D01*
X0122917Y0268013D01*
X0122963Y0268051D01*
X0123007Y0268093D01*
X0123049Y0268137D01*
X0123087Y0268183D01*
X0123123Y0268232D01*
X0123156Y0268283D01*
X0123185Y0268335D01*
X0123212Y0268390D01*
X0123235Y0268445D01*
X0123255Y0268502D01*
X0123271Y0268561D01*
X0123284Y0268620D01*
X0123293Y0268679D01*
X0123298Y0268740D01*
X0123300Y0268800D01*
X0123300Y0273800D02*
X0123298Y0273860D01*
X0123293Y0273921D01*
X0123284Y0273980D01*
X0123271Y0274039D01*
X0123255Y0274098D01*
X0123235Y0274155D01*
X0123212Y0274210D01*
X0123185Y0274265D01*
X0123156Y0274317D01*
X0123123Y0274368D01*
X0123087Y0274417D01*
X0123049Y0274463D01*
X0123007Y0274507D01*
X0122963Y0274549D01*
X0122917Y0274587D01*
X0122868Y0274623D01*
X0122817Y0274656D01*
X0122765Y0274685D01*
X0122710Y0274712D01*
X0122655Y0274735D01*
X0122598Y0274755D01*
X0122539Y0274771D01*
X0122480Y0274784D01*
X0122421Y0274793D01*
X0122360Y0274798D01*
X0122300Y0274800D01*
X0121300Y0274800D01*
X0120800Y0274300D01*
X0111800Y0274300D01*
X0111300Y0274800D01*
X0110300Y0274800D01*
X0110240Y0274798D01*
X0110179Y0274793D01*
X0110120Y0274784D01*
X0110061Y0274771D01*
X0110002Y0274755D01*
X0109945Y0274735D01*
X0109890Y0274712D01*
X0109835Y0274685D01*
X0109783Y0274656D01*
X0109732Y0274623D01*
X0109683Y0274587D01*
X0109637Y0274549D01*
X0109593Y0274507D01*
X0109551Y0274463D01*
X0109513Y0274417D01*
X0109477Y0274368D01*
X0109444Y0274317D01*
X0109415Y0274265D01*
X0109388Y0274210D01*
X0109365Y0274155D01*
X0109345Y0274098D01*
X0109329Y0274039D01*
X0109316Y0273980D01*
X0109307Y0273921D01*
X0109302Y0273860D01*
X0109300Y0273800D01*
X0109300Y0268800D02*
X0109302Y0268740D01*
X0109307Y0268679D01*
X0109316Y0268620D01*
X0109329Y0268561D01*
X0109345Y0268502D01*
X0109365Y0268445D01*
X0109388Y0268390D01*
X0109415Y0268335D01*
X0109444Y0268283D01*
X0109477Y0268232D01*
X0109513Y0268183D01*
X0109551Y0268137D01*
X0109593Y0268093D01*
X0109637Y0268051D01*
X0109683Y0268013D01*
X0109732Y0267977D01*
X0109783Y0267944D01*
X0109835Y0267915D01*
X0109890Y0267888D01*
X0109945Y0267865D01*
X0110002Y0267845D01*
X0110061Y0267829D01*
X0110120Y0267816D01*
X0110179Y0267807D01*
X0110240Y0267802D01*
X0110300Y0267800D01*
X0082300Y0267800D02*
X0081300Y0267800D01*
X0080800Y0268300D01*
X0071800Y0268300D01*
X0071300Y0267800D01*
X0070300Y0267800D01*
X0070240Y0267802D01*
X0070179Y0267807D01*
X0070120Y0267816D01*
X0070061Y0267829D01*
X0070002Y0267845D01*
X0069945Y0267865D01*
X0069890Y0267888D01*
X0069835Y0267915D01*
X0069783Y0267944D01*
X0069732Y0267977D01*
X0069683Y0268013D01*
X0069637Y0268051D01*
X0069593Y0268093D01*
X0069551Y0268137D01*
X0069513Y0268183D01*
X0069477Y0268232D01*
X0069444Y0268283D01*
X0069415Y0268335D01*
X0069388Y0268390D01*
X0069365Y0268445D01*
X0069345Y0268502D01*
X0069329Y0268561D01*
X0069316Y0268620D01*
X0069307Y0268679D01*
X0069302Y0268740D01*
X0069300Y0268800D01*
X0069300Y0273800D02*
X0069302Y0273860D01*
X0069307Y0273921D01*
X0069316Y0273980D01*
X0069329Y0274039D01*
X0069345Y0274098D01*
X0069365Y0274155D01*
X0069388Y0274210D01*
X0069415Y0274265D01*
X0069444Y0274317D01*
X0069477Y0274368D01*
X0069513Y0274417D01*
X0069551Y0274463D01*
X0069593Y0274507D01*
X0069637Y0274549D01*
X0069683Y0274587D01*
X0069732Y0274623D01*
X0069783Y0274656D01*
X0069835Y0274685D01*
X0069890Y0274712D01*
X0069945Y0274735D01*
X0070002Y0274755D01*
X0070061Y0274771D01*
X0070120Y0274784D01*
X0070179Y0274793D01*
X0070240Y0274798D01*
X0070300Y0274800D01*
X0071300Y0274800D01*
X0071800Y0274300D01*
X0080800Y0274300D01*
X0081300Y0274800D01*
X0082300Y0274800D01*
X0082360Y0274798D01*
X0082421Y0274793D01*
X0082480Y0274784D01*
X0082539Y0274771D01*
X0082598Y0274755D01*
X0082655Y0274735D01*
X0082710Y0274712D01*
X0082765Y0274685D01*
X0082817Y0274656D01*
X0082868Y0274623D01*
X0082917Y0274587D01*
X0082963Y0274549D01*
X0083007Y0274507D01*
X0083049Y0274463D01*
X0083087Y0274417D01*
X0083123Y0274368D01*
X0083156Y0274317D01*
X0083185Y0274265D01*
X0083212Y0274210D01*
X0083235Y0274155D01*
X0083255Y0274098D01*
X0083271Y0274039D01*
X0083284Y0273980D01*
X0083293Y0273921D01*
X0083298Y0273860D01*
X0083300Y0273800D01*
X0083300Y0268800D02*
X0083298Y0268740D01*
X0083293Y0268679D01*
X0083284Y0268620D01*
X0083271Y0268561D01*
X0083255Y0268502D01*
X0083235Y0268445D01*
X0083212Y0268390D01*
X0083185Y0268335D01*
X0083156Y0268283D01*
X0083123Y0268232D01*
X0083087Y0268183D01*
X0083049Y0268137D01*
X0083007Y0268093D01*
X0082963Y0268051D01*
X0082917Y0268013D01*
X0082868Y0267977D01*
X0082817Y0267944D01*
X0082765Y0267915D01*
X0082710Y0267888D01*
X0082655Y0267865D01*
X0082598Y0267845D01*
X0082539Y0267829D01*
X0082480Y0267816D01*
X0082421Y0267807D01*
X0082360Y0267802D01*
X0082300Y0267800D01*
X0051300Y0268800D02*
X0051300Y0263800D01*
X0048800Y0261300D01*
X0051300Y0258800D01*
X0051300Y0253800D01*
X0048800Y0251300D01*
X0051300Y0248800D01*
X0051300Y0243800D01*
X0048800Y0241300D01*
X0051300Y0238800D01*
X0051300Y0233800D01*
X0048800Y0231300D01*
X0043800Y0231300D01*
X0041300Y0233800D01*
X0041300Y0238800D01*
X0043800Y0241300D01*
X0041300Y0243800D01*
X0041300Y0248800D01*
X0043800Y0251300D01*
X0048800Y0251300D01*
X0043800Y0251300D02*
X0041300Y0253800D01*
X0041300Y0258800D01*
X0043800Y0261300D01*
X0041300Y0263800D01*
X0041300Y0268800D01*
X0043800Y0271300D01*
X0048800Y0271300D01*
X0051300Y0268800D01*
X0048800Y0261300D02*
X0043800Y0261300D01*
X0043800Y0241300D02*
X0048800Y0241300D01*
D14*
X0100300Y0214300D02*
X0100300Y0211300D01*
X0100300Y0208300D01*
X0102300Y0208300D02*
X0102300Y0211300D01*
X0102300Y0214300D01*
X0112000Y0239300D02*
X0112000Y0243300D01*
X0110000Y0241300D01*
X0112000Y0239300D01*
X0111500Y0240300D02*
X0111500Y0242300D01*
X0111000Y0241300D02*
X0110500Y0241300D01*
X0160300Y0184300D02*
X0160300Y0181300D01*
X0160300Y0178300D01*
X0162300Y0178300D02*
X0162300Y0181300D01*
X0162300Y0184300D01*
X0067300Y0029300D02*
X0067300Y0026300D01*
X0067300Y0023300D01*
X0065300Y0023300D02*
X0065300Y0026300D01*
X0065300Y0029300D01*
X0100300Y0019300D02*
X0100300Y0016300D01*
X0100300Y0013300D01*
X0102300Y0013300D02*
X0102300Y0016300D01*
X0102300Y0019300D01*
D15*
X0072944Y0010350D02*
X0071888Y0010350D01*
X0072416Y0010350D02*
X0072416Y0012250D01*
X0071888Y0011828D01*
X0070712Y0011722D02*
X0070712Y0010878D01*
X0070710Y0010834D01*
X0070705Y0010791D01*
X0070696Y0010748D01*
X0070683Y0010707D01*
X0070668Y0010666D01*
X0070648Y0010627D01*
X0070626Y0010589D01*
X0070601Y0010554D01*
X0070572Y0010520D01*
X0070542Y0010490D01*
X0070508Y0010461D01*
X0070473Y0010436D01*
X0070435Y0010414D01*
X0070396Y0010394D01*
X0070355Y0010379D01*
X0070314Y0010366D01*
X0070271Y0010357D01*
X0070228Y0010352D01*
X0070184Y0010350D01*
X0069656Y0010350D01*
X0069656Y0012250D01*
X0070184Y0012250D01*
X0070228Y0012248D01*
X0070271Y0012243D01*
X0070314Y0012234D01*
X0070355Y0012221D01*
X0070396Y0012206D01*
X0070435Y0012186D01*
X0070473Y0012164D01*
X0070508Y0012139D01*
X0070542Y0012110D01*
X0070572Y0012080D01*
X0070601Y0012046D01*
X0070626Y0012011D01*
X0070648Y0011973D01*
X0070668Y0011934D01*
X0070683Y0011893D01*
X0070696Y0011852D01*
X0070705Y0011809D01*
X0070710Y0011766D01*
X0070712Y0011722D01*
X0065300Y0031300D02*
X0137300Y0031300D01*
X0137300Y0221300D01*
X0065300Y0221300D01*
X0065300Y0031300D01*
X0060355Y0072166D02*
X0060355Y0213898D01*
X0001300Y0213898D01*
X0001300Y0072166D01*
X0060355Y0072166D01*
X0035420Y0049713D02*
X0034576Y0049291D01*
X0034576Y0049185D02*
X0034576Y0048657D01*
X0034576Y0049185D02*
X0034574Y0049230D01*
X0034568Y0049274D01*
X0034559Y0049318D01*
X0034546Y0049361D01*
X0034529Y0049402D01*
X0034509Y0049443D01*
X0034485Y0049481D01*
X0034459Y0049517D01*
X0034429Y0049550D01*
X0034397Y0049581D01*
X0034362Y0049610D01*
X0034325Y0049635D01*
X0034286Y0049656D01*
X0034245Y0049675D01*
X0034203Y0049690D01*
X0034159Y0049701D01*
X0034115Y0049709D01*
X0034070Y0049713D01*
X0034026Y0049713D01*
X0033981Y0049709D01*
X0033937Y0049701D01*
X0033893Y0049690D01*
X0033851Y0049675D01*
X0033810Y0049656D01*
X0033771Y0049635D01*
X0033734Y0049610D01*
X0033699Y0049581D01*
X0033667Y0049550D01*
X0033637Y0049517D01*
X0033611Y0049481D01*
X0033587Y0049443D01*
X0033567Y0049402D01*
X0033550Y0049361D01*
X0033537Y0049318D01*
X0033528Y0049274D01*
X0033522Y0049230D01*
X0033520Y0049185D01*
X0033520Y0048657D01*
X0035420Y0048657D01*
X0035420Y0047062D02*
X0033520Y0047485D01*
X0034153Y0046640D02*
X0035420Y0047062D01*
X0035420Y0046218D02*
X0034153Y0046640D01*
X0033520Y0045796D02*
X0035420Y0046218D01*
X0034576Y0044322D02*
X0034576Y0043794D01*
X0034576Y0044322D02*
X0034574Y0044367D01*
X0034568Y0044411D01*
X0034559Y0044455D01*
X0034546Y0044498D01*
X0034529Y0044539D01*
X0034509Y0044580D01*
X0034485Y0044618D01*
X0034459Y0044654D01*
X0034429Y0044687D01*
X0034397Y0044718D01*
X0034362Y0044747D01*
X0034325Y0044772D01*
X0034286Y0044793D01*
X0034245Y0044812D01*
X0034203Y0044827D01*
X0034159Y0044838D01*
X0034115Y0044846D01*
X0034070Y0044850D01*
X0034026Y0044850D01*
X0033981Y0044846D01*
X0033937Y0044838D01*
X0033893Y0044827D01*
X0033851Y0044812D01*
X0033810Y0044793D01*
X0033771Y0044772D01*
X0033734Y0044747D01*
X0033699Y0044718D01*
X0033667Y0044687D01*
X0033637Y0044654D01*
X0033611Y0044618D01*
X0033587Y0044580D01*
X0033567Y0044539D01*
X0033550Y0044498D01*
X0033537Y0044455D01*
X0033528Y0044411D01*
X0033522Y0044367D01*
X0033520Y0044322D01*
X0033520Y0043794D01*
X0035420Y0043794D01*
X0068327Y0240144D02*
X0068327Y0240989D01*
X0068327Y0240144D02*
X0070227Y0240144D01*
X0069172Y0240144D02*
X0069172Y0240989D01*
X0069383Y0242034D02*
X0069383Y0242562D01*
X0069383Y0242667D02*
X0070227Y0243089D01*
X0070227Y0242034D02*
X0068327Y0242034D01*
X0068327Y0242562D01*
X0068329Y0242607D01*
X0068335Y0242651D01*
X0068344Y0242695D01*
X0068357Y0242738D01*
X0068374Y0242779D01*
X0068394Y0242820D01*
X0068418Y0242858D01*
X0068444Y0242894D01*
X0068474Y0242927D01*
X0068506Y0242958D01*
X0068541Y0242987D01*
X0068578Y0243012D01*
X0068617Y0243033D01*
X0068658Y0243052D01*
X0068700Y0243067D01*
X0068744Y0243078D01*
X0068788Y0243086D01*
X0068833Y0243090D01*
X0068877Y0243090D01*
X0068922Y0243086D01*
X0068966Y0243078D01*
X0069010Y0243067D01*
X0069052Y0243052D01*
X0069093Y0243033D01*
X0069132Y0243012D01*
X0069169Y0242987D01*
X0069204Y0242958D01*
X0069236Y0242927D01*
X0069266Y0242894D01*
X0069292Y0242858D01*
X0069316Y0242820D01*
X0069336Y0242779D01*
X0069353Y0242738D01*
X0069366Y0242695D01*
X0069375Y0242651D01*
X0069381Y0242607D01*
X0069383Y0242562D01*
X0069699Y0244169D02*
X0068855Y0244169D01*
X0068810Y0244171D01*
X0068766Y0244177D01*
X0068722Y0244186D01*
X0068679Y0244199D01*
X0068638Y0244216D01*
X0068597Y0244236D01*
X0068559Y0244260D01*
X0068523Y0244286D01*
X0068490Y0244316D01*
X0068459Y0244348D01*
X0068430Y0244383D01*
X0068405Y0244420D01*
X0068384Y0244459D01*
X0068365Y0244500D01*
X0068350Y0244542D01*
X0068339Y0244586D01*
X0068331Y0244630D01*
X0068327Y0244675D01*
X0068327Y0244719D01*
X0068331Y0244764D01*
X0068339Y0244808D01*
X0068350Y0244852D01*
X0068365Y0244894D01*
X0068384Y0244935D01*
X0068405Y0244974D01*
X0068430Y0245011D01*
X0068459Y0245046D01*
X0068490Y0245078D01*
X0068523Y0245108D01*
X0068559Y0245134D01*
X0068597Y0245158D01*
X0068638Y0245178D01*
X0068679Y0245195D01*
X0068722Y0245208D01*
X0068766Y0245217D01*
X0068810Y0245223D01*
X0068855Y0245225D01*
X0068855Y0245224D02*
X0069699Y0245224D01*
X0069699Y0245225D02*
X0069744Y0245223D01*
X0069788Y0245217D01*
X0069832Y0245208D01*
X0069875Y0245195D01*
X0069916Y0245178D01*
X0069957Y0245158D01*
X0069995Y0245134D01*
X0070031Y0245108D01*
X0070064Y0245078D01*
X0070095Y0245046D01*
X0070124Y0245011D01*
X0070149Y0244974D01*
X0070170Y0244935D01*
X0070189Y0244894D01*
X0070204Y0244852D01*
X0070215Y0244808D01*
X0070223Y0244764D01*
X0070227Y0244719D01*
X0070227Y0244675D01*
X0070223Y0244630D01*
X0070215Y0244586D01*
X0070204Y0244542D01*
X0070189Y0244500D01*
X0070170Y0244459D01*
X0070149Y0244420D01*
X0070124Y0244383D01*
X0070095Y0244348D01*
X0070064Y0244316D01*
X0070031Y0244286D01*
X0069995Y0244260D01*
X0069957Y0244236D01*
X0069916Y0244216D01*
X0069875Y0244199D01*
X0069832Y0244186D01*
X0069788Y0244177D01*
X0069744Y0244171D01*
X0069699Y0244169D01*
X0070227Y0246401D02*
X0068327Y0246401D01*
X0070227Y0247456D01*
X0068327Y0247456D01*
X0068327Y0248489D02*
X0068327Y0249544D01*
X0068327Y0249017D02*
X0070227Y0249017D01*
X0176467Y0069542D02*
X0177840Y0069542D01*
X0177885Y0069540D01*
X0177929Y0069534D01*
X0177973Y0069525D01*
X0178016Y0069512D01*
X0178057Y0069495D01*
X0178098Y0069475D01*
X0178136Y0069451D01*
X0178172Y0069425D01*
X0178205Y0069395D01*
X0178236Y0069363D01*
X0178265Y0069328D01*
X0178290Y0069291D01*
X0178311Y0069252D01*
X0178330Y0069211D01*
X0178345Y0069169D01*
X0178356Y0069125D01*
X0178364Y0069081D01*
X0178368Y0069036D01*
X0178368Y0068992D01*
X0178364Y0068947D01*
X0178356Y0068903D01*
X0178345Y0068859D01*
X0178330Y0068817D01*
X0178311Y0068776D01*
X0178290Y0068737D01*
X0178265Y0068700D01*
X0178236Y0068665D01*
X0178205Y0068633D01*
X0178172Y0068603D01*
X0178136Y0068577D01*
X0178098Y0068553D01*
X0178057Y0068533D01*
X0178016Y0068516D01*
X0177973Y0068503D01*
X0177929Y0068494D01*
X0177885Y0068488D01*
X0177840Y0068486D01*
X0177840Y0068487D02*
X0176467Y0068487D01*
X0176467Y0066807D02*
X0176467Y0066280D01*
X0178367Y0066280D01*
X0177523Y0066280D02*
X0177523Y0066807D01*
X0177523Y0066913D02*
X0178367Y0067335D01*
X0177523Y0066807D02*
X0177521Y0066852D01*
X0177515Y0066896D01*
X0177506Y0066940D01*
X0177493Y0066983D01*
X0177476Y0067024D01*
X0177456Y0067065D01*
X0177432Y0067103D01*
X0177406Y0067139D01*
X0177376Y0067172D01*
X0177344Y0067203D01*
X0177309Y0067232D01*
X0177272Y0067257D01*
X0177233Y0067278D01*
X0177192Y0067297D01*
X0177150Y0067312D01*
X0177106Y0067323D01*
X0177062Y0067331D01*
X0177017Y0067335D01*
X0176973Y0067335D01*
X0176928Y0067331D01*
X0176884Y0067323D01*
X0176840Y0067312D01*
X0176798Y0067297D01*
X0176757Y0067278D01*
X0176718Y0067257D01*
X0176681Y0067232D01*
X0176646Y0067203D01*
X0176614Y0067172D01*
X0176584Y0067139D01*
X0176558Y0067103D01*
X0176534Y0067065D01*
X0176514Y0067024D01*
X0176497Y0066983D01*
X0176484Y0066940D01*
X0176475Y0066896D01*
X0176469Y0066852D01*
X0176467Y0066807D01*
X0176467Y0065006D02*
X0178367Y0065006D01*
X0177312Y0065006D02*
X0177312Y0063951D01*
X0176467Y0063951D02*
X0178367Y0063951D01*
X0178367Y0062390D02*
X0176467Y0062390D01*
X0176467Y0061863D02*
X0176467Y0062918D01*
X0183715Y0041483D02*
X0185615Y0041483D01*
X0183715Y0040428D01*
X0185615Y0040428D01*
X0185615Y0039366D02*
X0185615Y0038944D01*
X0185615Y0039155D02*
X0183715Y0039155D01*
X0183715Y0038944D02*
X0183715Y0039366D01*
D16*
X0117300Y0241300D03*
M02*
