%
M48
M72
T01C0.01181
T02C0.02756
T03C0.03150
T04C0.03200
T05C0.03543
T06C0.03600
T07C0.04000
T08C0.04331
T09C0.08661
T10C0.11024
T11C0.12598
%
T01
X63500Y57500
X63500Y65500
X72500Y62500
X95500Y53500
X112500Y35500
X138500Y47500
X116500Y73500
X126500Y76500
X93500Y83500
X84500Y84500
X106500Y154500
X103500Y161500
X106500Y168500
X100500Y194500
X87500Y198500
X61500Y169500
X153500Y124500
X182500Y154500
X191500Y196500
X242500Y171500
X254500Y168500
X275500Y174500
X223500Y96500
X215500Y71500
T02
X206224Y35161
X198350Y35161
X190476Y35161
X261343Y36933
X261343Y44807
X261343Y233783
X261343Y241657
X261343Y249531
X241657Y233783
X233783Y233783
X218035Y233783
X210161Y233783
X202287Y233783
X194413Y233783
X158980Y233783
X151106Y233783
X135358Y233783
X127484Y233783
X119610Y233783
X111736Y233783
X95988Y233783
X88114Y233783
T03
X56618Y158232
X56618Y148232
X56618Y138232
X56618Y128232
X44807Y133232
X44807Y143232
X44807Y153232
X32996Y148232
X32996Y138232
X32996Y128232
X21185Y133232
X21185Y143232
X21185Y153232
X32996Y158232
T04
X81500Y151500
X81500Y141500
X81500Y121500
X81500Y111500
X81500Y96500
X91500Y96500
X101500Y96500
X111500Y96500
X121500Y96500
X131500Y96500
X141500Y96500
X151500Y96500
X161500Y96500
X171500Y96500
X181500Y96500
X191500Y96500
X201500Y96500
X211500Y96500
X231500Y86500
X231500Y76500
X246500Y66500
X256500Y66500
X266500Y66500
X276500Y66500
X276500Y96500
X266500Y96500
X256500Y96500
X246500Y96500
X211500Y66500
X201500Y66500
X191500Y66500
X181500Y66500
X171500Y66500
X161500Y66500
X151500Y66500
X141500Y66500
X131500Y66500
X121500Y66500
X111500Y66500
X101500Y66500
X91500Y66500
X81500Y66500
X111500Y131500
X121500Y131500
X131500Y131500
X141500Y131500
X151500Y131500
X161500Y131500
X171500Y131500
X181500Y131500
X181500Y161500
X171500Y161500
X161500Y161500
X151500Y161500
X141500Y161500
X131500Y161500
X121500Y161500
X111500Y161500
X116500Y191500
X126500Y191500
X126500Y211500
X116500Y211500
X96500Y211500
X81500Y211500
X81500Y201500
X81500Y191500
X96500Y191500
X156500Y191500
X171500Y196500
X171500Y206500
X181500Y216500
X191500Y216500
X201500Y216500
X211500Y216500
X221500Y216500
X231500Y216500
X241500Y216500
X256500Y211500
X256500Y201500
X256500Y191500
X241500Y186500
X231500Y186500
X221500Y186500
X211500Y186500
X201500Y186500
X191500Y186500
X181500Y186500
X156500Y211500
X276500Y211500
X276500Y201500
X276500Y191500
X201500Y51500
X181500Y51500
X226500Y41500
X226500Y26500
X246500Y26500
X246500Y41500
T05
X246500Y51500
X216500Y51500
X106500Y186500
X106500Y216500
T06
X109020Y49807
X119020Y49807
X129020Y49807
X129020Y39807
X119020Y39807
X109020Y39807
X99020Y39807
X89020Y39807
X89020Y49807
X99020Y49807
X79020Y49807
X69020Y49807
X69020Y39807
X79020Y39807
X59020Y39807
X59020Y49807
T07
X61500Y251500
X51500Y251500
X41500Y251500
X31500Y251500
T08
X106500Y176500
X116500Y176500
X126500Y176500
X136500Y176500
X146500Y176500
X156500Y176500
X166500Y176500
X176500Y176500
X186500Y176500
X196500Y176500
X206500Y176500
X216500Y176500
X226500Y176500
X236500Y176500
X246500Y176500
X256500Y176500
X266500Y176500
X266500Y116500
X256500Y116500
X246500Y116500
X236500Y116500
X226500Y116500
X216500Y116500
X206500Y116500
X196500Y116500
X186500Y116500
X176500Y116500
X166500Y116500
X156500Y116500
X146500Y116500
X136500Y116500
X126500Y116500
X116500Y116500
X106500Y116500
T09
X44807Y111854
X21185Y111854
X21185Y174610
X44807Y174610
T10
X32996Y200319
X32996Y86146
T11
X13311Y13311
X54256Y86146
X54256Y200319
X13311Y273154
X174728Y273154
X273154Y273154
X273154Y13311
X174728Y13311
M30
