G75*
%MOIN*%
%OFA0B0*%
%FSLAX25Y25*%
%IPPOS*%
%LPD*%
%AMOC8*
5,1,8,0,0,1.08239X$1,22.5*
%
%ADD10C,0.00300*%
%ADD11C,0.00200*%
%ADD12C,0.00600*%
%ADD13C,0.01000*%
%ADD14C,0.00800*%
%ADD15C,0.00500*%
%ADD16C,0.02000*%
%ADD17R,0.02000X0.23000*%
%ADD18R,0.09000X0.02000*%
%ADD19R,0.07000X0.02000*%
%ADD20R,0.05000X0.02000*%
%ADD21R,0.03000X0.02000*%
%ADD22R,0.01000X0.01000*%
%ADD23R,0.02000X0.03000*%
D10*
X0099415Y0128971D02*
X0098448Y0129938D01*
X0099415Y0130906D01*
X0101350Y0130906D01*
X0101350Y0131917D02*
X0099415Y0131917D01*
X0100383Y0131917D02*
X0099415Y0132885D01*
X0099415Y0133369D01*
X0099899Y0134373D02*
X0099415Y0134857D01*
X0099415Y0136308D01*
X0098448Y0136308D02*
X0101350Y0136308D01*
X0101350Y0134857D01*
X0100866Y0134373D01*
X0099899Y0134373D01*
X0099415Y0137319D02*
X0100866Y0137319D01*
X0101350Y0137803D01*
X0101350Y0139254D01*
X0099415Y0139254D01*
X0099415Y0140266D02*
X0099415Y0140750D01*
X0101350Y0140750D01*
X0101350Y0141233D02*
X0101350Y0140266D01*
X0101350Y0142230D02*
X0099415Y0142230D01*
X0099415Y0143681D01*
X0099899Y0144165D01*
X0101350Y0144165D01*
X0100866Y0145177D02*
X0101350Y0145660D01*
X0101350Y0146628D01*
X0100866Y0147112D01*
X0099899Y0147112D01*
X0099415Y0146628D01*
X0099415Y0145660D01*
X0099899Y0145177D01*
X0100866Y0145177D01*
X0098448Y0140750D02*
X0097964Y0140750D01*
X0098448Y0151070D02*
X0099415Y0152037D01*
X0098448Y0153005D01*
X0101350Y0153005D01*
X0101350Y0154016D02*
X0101350Y0154984D01*
X0101350Y0154500D02*
X0099415Y0154500D01*
X0099415Y0154016D01*
X0098448Y0154500D02*
X0097964Y0154500D01*
X0099899Y0155981D02*
X0100866Y0155981D01*
X0101350Y0156464D01*
X0101350Y0157916D01*
X0101350Y0158927D02*
X0099415Y0158927D01*
X0100383Y0158927D02*
X0099415Y0159895D01*
X0099415Y0160378D01*
X0099899Y0161383D02*
X0100866Y0161383D01*
X0101350Y0161866D01*
X0101350Y0162834D01*
X0100866Y0163318D01*
X0099899Y0163318D01*
X0099415Y0162834D01*
X0099415Y0161866D01*
X0099899Y0161383D01*
X0099415Y0157916D02*
X0099415Y0156464D01*
X0099899Y0155981D01*
X0101350Y0151070D02*
X0098448Y0151070D01*
X0099899Y0130906D02*
X0099899Y0128971D01*
X0099415Y0128971D02*
X0101350Y0128971D01*
X0026494Y0217218D02*
X0026978Y0217702D01*
X0026978Y0220120D01*
X0025527Y0220120D01*
X0025043Y0219637D01*
X0025043Y0218669D01*
X0025527Y0218185D01*
X0026978Y0218185D01*
X0027990Y0218185D02*
X0027990Y0221088D01*
X0028473Y0220120D02*
X0029441Y0220120D01*
X0029925Y0219637D01*
X0029925Y0218185D01*
X0031420Y0218669D02*
X0031904Y0218185D01*
X0031420Y0218669D02*
X0031420Y0220604D01*
X0030936Y0220120D02*
X0031904Y0220120D01*
X0032901Y0221088D02*
X0032901Y0218185D01*
X0034352Y0218185D01*
X0034836Y0218669D01*
X0034836Y0220604D01*
X0034352Y0221088D01*
X0032901Y0221088D01*
X0035847Y0220120D02*
X0035847Y0218185D01*
X0035847Y0219153D02*
X0036815Y0220120D01*
X0037298Y0220120D01*
X0038302Y0220120D02*
X0038786Y0220120D01*
X0038786Y0218185D01*
X0038302Y0218185D02*
X0039270Y0218185D01*
X0041234Y0218185D02*
X0042202Y0220120D01*
X0043213Y0219637D02*
X0043697Y0220120D01*
X0044665Y0220120D01*
X0045148Y0219637D01*
X0045148Y0219153D01*
X0043213Y0219153D01*
X0043213Y0218669D02*
X0043213Y0219637D01*
X0043213Y0218669D02*
X0043697Y0218185D01*
X0044665Y0218185D01*
X0041234Y0218185D02*
X0040267Y0220120D01*
X0038786Y0221088D02*
X0038786Y0221572D01*
X0028473Y0220120D02*
X0027990Y0219637D01*
X0026494Y0217218D02*
X0026011Y0217218D01*
X0024046Y0218185D02*
X0023079Y0218185D01*
X0023563Y0218185D02*
X0023563Y0220120D01*
X0023079Y0220120D01*
X0023563Y0221088D02*
X0023563Y0221572D01*
X0020132Y0221088D02*
X0020132Y0218185D01*
X0022067Y0218185D01*
X0042460Y0272069D02*
X0042460Y0275772D01*
X0044312Y0275772D01*
X0044929Y0275155D01*
X0044929Y0273921D01*
X0044312Y0273304D01*
X0042460Y0273304D01*
X0041246Y0273304D02*
X0039394Y0273304D01*
X0038777Y0273921D01*
X0039394Y0274538D01*
X0041246Y0274538D01*
X0041246Y0275155D02*
X0041246Y0273304D01*
X0041246Y0275155D02*
X0040628Y0275772D01*
X0039394Y0275772D01*
X0037563Y0275155D02*
X0037563Y0274538D01*
X0035094Y0274538D01*
X0035094Y0273921D02*
X0035094Y0275155D01*
X0035711Y0275772D01*
X0036945Y0275772D01*
X0037563Y0275155D01*
X0036945Y0273304D02*
X0035711Y0273304D01*
X0035094Y0273921D01*
X0033879Y0273304D02*
X0033879Y0275155D01*
X0033262Y0275772D01*
X0031411Y0275772D01*
X0031411Y0273304D01*
X0030190Y0273304D02*
X0028955Y0273304D01*
X0029572Y0273304D02*
X0029572Y0275772D01*
X0028955Y0275772D01*
X0027741Y0275155D02*
X0027124Y0274538D01*
X0025272Y0274538D01*
X0025272Y0273304D02*
X0025272Y0277007D01*
X0027124Y0277007D01*
X0027741Y0276390D01*
X0027741Y0275155D01*
X0029572Y0277007D02*
X0029572Y0277624D01*
X0046143Y0275772D02*
X0046143Y0272069D01*
X0046143Y0273304D02*
X0047995Y0273304D01*
X0048612Y0273921D01*
X0048612Y0275155D01*
X0047995Y0275772D01*
X0046143Y0275772D01*
X0049826Y0277007D02*
X0050444Y0277007D01*
X0050444Y0273304D01*
X0051061Y0273304D02*
X0049826Y0273304D01*
X0052282Y0273921D02*
X0052282Y0275155D01*
X0052899Y0275772D01*
X0054133Y0275772D01*
X0054751Y0275155D01*
X0054751Y0274538D01*
X0052282Y0274538D01*
X0052282Y0273921D02*
X0052899Y0273304D01*
X0054133Y0273304D01*
X0059648Y0273304D02*
X0060882Y0273304D01*
X0060265Y0273304D02*
X0060265Y0277007D01*
X0059648Y0277007D02*
X0060882Y0277007D01*
X0065787Y0275772D02*
X0067021Y0277007D01*
X0067021Y0273304D01*
X0065787Y0273304D02*
X0068255Y0273304D01*
X0069470Y0273304D02*
X0070087Y0273304D01*
X0070087Y0273921D01*
X0069470Y0273921D01*
X0069470Y0273304D01*
X0071311Y0273921D02*
X0073780Y0276390D01*
X0073780Y0273921D01*
X0073163Y0273304D01*
X0071929Y0273304D01*
X0071311Y0273921D01*
X0071311Y0276390D01*
X0071929Y0277007D01*
X0073163Y0277007D01*
X0073780Y0276390D01*
X0074994Y0273921D02*
X0075612Y0273921D01*
X0075612Y0273304D01*
X0074994Y0273304D01*
X0074994Y0273921D01*
X0076836Y0273921D02*
X0079305Y0276390D01*
X0079305Y0273921D01*
X0078688Y0273304D01*
X0077453Y0273304D01*
X0076836Y0273921D01*
X0076836Y0276390D01*
X0077453Y0277007D01*
X0078688Y0277007D01*
X0079305Y0276390D01*
X0084202Y0277007D02*
X0084202Y0273304D01*
X0086054Y0273304D01*
X0086671Y0273921D01*
X0086671Y0275155D01*
X0086054Y0275772D01*
X0084202Y0275772D01*
X0087885Y0275772D02*
X0087885Y0273921D01*
X0088503Y0273304D01*
X0090354Y0273304D01*
X0090354Y0272686D02*
X0089737Y0272069D01*
X0089120Y0272069D01*
X0090354Y0272686D02*
X0090354Y0275772D01*
X0095252Y0274538D02*
X0097103Y0274538D01*
X0097721Y0275155D01*
X0097721Y0276390D01*
X0097103Y0277007D01*
X0095252Y0277007D01*
X0095252Y0273304D01*
X0098935Y0273304D02*
X0100169Y0273304D01*
X0099552Y0273304D02*
X0099552Y0275772D01*
X0098935Y0275772D01*
X0099552Y0277007D02*
X0099552Y0277624D01*
X0101390Y0275772D02*
X0101390Y0273304D01*
X0101390Y0275772D02*
X0103242Y0275772D01*
X0103859Y0275155D01*
X0103859Y0273304D01*
X0105073Y0273921D02*
X0105073Y0275155D01*
X0105691Y0275772D01*
X0106925Y0275772D01*
X0107542Y0275155D01*
X0107542Y0274538D01*
X0105073Y0274538D01*
X0105073Y0273921D02*
X0105691Y0273304D01*
X0106925Y0273304D01*
X0108757Y0273921D02*
X0109374Y0274538D01*
X0111225Y0274538D01*
X0111225Y0275155D02*
X0111225Y0273304D01*
X0109374Y0273304D01*
X0108757Y0273921D01*
X0109374Y0275772D02*
X0110608Y0275772D01*
X0111225Y0275155D01*
X0112440Y0275772D02*
X0114291Y0275772D01*
X0114909Y0275155D01*
X0114909Y0273921D01*
X0114291Y0273304D01*
X0112440Y0273304D01*
X0112440Y0272069D02*
X0112440Y0275772D01*
X0116123Y0275772D02*
X0117975Y0275772D01*
X0118592Y0275155D01*
X0118592Y0273921D01*
X0117975Y0273304D01*
X0116123Y0273304D01*
X0116123Y0272069D02*
X0116123Y0275772D01*
X0119806Y0277007D02*
X0120423Y0277007D01*
X0120423Y0273304D01*
X0119806Y0273304D02*
X0121040Y0273304D01*
X0122262Y0273921D02*
X0122262Y0275155D01*
X0122879Y0275772D01*
X0124113Y0275772D01*
X0124730Y0275155D01*
X0124730Y0274538D01*
X0122262Y0274538D01*
X0122262Y0273921D02*
X0122879Y0273304D01*
X0124113Y0273304D01*
X0129628Y0273304D02*
X0131479Y0273304D01*
X0132097Y0273921D01*
X0132097Y0276390D01*
X0131479Y0277007D01*
X0129628Y0277007D01*
X0129628Y0273304D01*
X0133311Y0273921D02*
X0133311Y0275155D01*
X0133928Y0275772D01*
X0135163Y0275772D01*
X0135780Y0275155D01*
X0135780Y0274538D01*
X0133311Y0274538D01*
X0133311Y0273921D02*
X0133928Y0273304D01*
X0135163Y0273304D01*
X0136994Y0273304D02*
X0138846Y0273304D01*
X0139463Y0273921D01*
X0138846Y0274538D01*
X0137611Y0274538D01*
X0136994Y0275155D01*
X0137611Y0275772D01*
X0139463Y0275772D01*
X0140677Y0275772D02*
X0141294Y0275772D01*
X0141294Y0273304D01*
X0140677Y0273304D02*
X0141912Y0273304D01*
X0143133Y0273921D02*
X0143750Y0273304D01*
X0145601Y0273304D01*
X0145601Y0272686D02*
X0145601Y0275772D01*
X0143750Y0275772D01*
X0143133Y0275155D01*
X0143133Y0273921D01*
X0144367Y0272069D02*
X0144984Y0272069D01*
X0145601Y0272686D01*
X0146816Y0273304D02*
X0146816Y0275772D01*
X0148667Y0275772D01*
X0149285Y0275155D01*
X0149285Y0273304D01*
X0141294Y0277007D02*
X0141294Y0277624D01*
X0147827Y0264395D02*
X0149278Y0264395D01*
X0149762Y0263911D01*
X0149762Y0262944D01*
X0149278Y0262460D01*
X0147827Y0262460D01*
X0147827Y0261493D02*
X0147827Y0264395D01*
X0148795Y0262460D02*
X0149762Y0261493D01*
X0150774Y0261493D02*
X0152709Y0261493D01*
X0153720Y0261493D02*
X0155655Y0261493D01*
X0156667Y0261493D02*
X0156667Y0263427D01*
X0157634Y0264395D01*
X0158602Y0263427D01*
X0158602Y0261493D01*
X0158602Y0262944D02*
X0156667Y0262944D01*
X0159613Y0263911D02*
X0160581Y0262944D01*
X0160581Y0261493D01*
X0160581Y0262944D02*
X0161548Y0263911D01*
X0161548Y0264395D01*
X0159613Y0264395D02*
X0159613Y0263911D01*
X0153720Y0264395D02*
X0153720Y0261493D01*
X0151741Y0262944D02*
X0150774Y0262944D01*
X0150774Y0264395D02*
X0150774Y0261493D01*
X0150774Y0264395D02*
X0152709Y0264395D01*
X0130052Y0264395D02*
X0128117Y0264395D01*
X0129085Y0264395D02*
X0129085Y0261493D01*
X0127105Y0261493D02*
X0127105Y0264395D01*
X0125171Y0264395D02*
X0125171Y0261493D01*
X0124159Y0261976D02*
X0124159Y0263911D01*
X0123675Y0264395D01*
X0122708Y0264395D01*
X0122224Y0263911D01*
X0122224Y0261976D01*
X0122708Y0261493D01*
X0123675Y0261493D01*
X0124159Y0261976D01*
X0125171Y0264395D02*
X0127105Y0261493D01*
X0121212Y0261493D02*
X0120245Y0262460D01*
X0120729Y0262460D02*
X0119277Y0262460D01*
X0119277Y0261493D02*
X0119277Y0264395D01*
X0120729Y0264395D01*
X0121212Y0263911D01*
X0121212Y0262944D01*
X0120729Y0262460D01*
X0118266Y0264395D02*
X0116331Y0264395D01*
X0116331Y0261493D01*
X0116331Y0262944D02*
X0117298Y0262944D01*
X0100029Y0262460D02*
X0100029Y0264395D01*
X0098094Y0264395D02*
X0098094Y0262460D01*
X0099062Y0261493D01*
X0100029Y0262460D01*
X0097083Y0263427D02*
X0097083Y0263911D01*
X0096599Y0264395D01*
X0095631Y0264395D01*
X0095148Y0263911D01*
X0097083Y0263427D02*
X0095148Y0261493D01*
X0097083Y0261493D01*
X0094136Y0261493D02*
X0092201Y0261493D01*
X0093169Y0261493D02*
X0093169Y0264395D01*
X0092201Y0263427D01*
X0091190Y0263911D02*
X0091190Y0262944D01*
X0090706Y0262460D01*
X0089255Y0262460D01*
X0090222Y0262460D02*
X0091190Y0261493D01*
X0089255Y0261493D02*
X0089255Y0264395D01*
X0090706Y0264395D01*
X0091190Y0263911D01*
X0088243Y0264395D02*
X0088243Y0261493D01*
X0087276Y0262460D01*
X0086308Y0261493D01*
X0086308Y0264395D01*
X0085297Y0263911D02*
X0085297Y0262944D01*
X0084813Y0262460D01*
X0083362Y0262460D01*
X0083362Y0261493D02*
X0083362Y0264395D01*
X0084813Y0264395D01*
X0085297Y0263911D01*
X0201955Y0264395D02*
X0201955Y0261493D01*
X0203890Y0261493D01*
X0204901Y0261493D02*
X0206836Y0261493D01*
X0207848Y0261493D02*
X0209299Y0261493D01*
X0209783Y0261976D01*
X0209783Y0263911D01*
X0209299Y0264395D01*
X0207848Y0264395D01*
X0207848Y0261493D01*
X0205869Y0262944D02*
X0204901Y0262944D01*
X0204901Y0264395D02*
X0204901Y0261493D01*
X0204901Y0264395D02*
X0206836Y0264395D01*
X0229031Y0264395D02*
X0229031Y0261493D01*
X0230966Y0261493D01*
X0231977Y0261493D02*
X0233912Y0261493D01*
X0234924Y0261493D02*
X0234924Y0264395D01*
X0236375Y0264395D01*
X0236859Y0263911D01*
X0236859Y0261976D01*
X0236375Y0261493D01*
X0234924Y0261493D01*
X0232945Y0262944D02*
X0231977Y0262944D01*
X0231977Y0264395D02*
X0231977Y0261493D01*
X0231977Y0264395D02*
X0233912Y0264395D01*
X0237870Y0264395D02*
X0237870Y0261493D01*
X0237870Y0262460D02*
X0239322Y0262460D01*
X0239805Y0262944D01*
X0239805Y0263911D01*
X0239322Y0264395D01*
X0237870Y0264395D01*
X0240817Y0264395D02*
X0240817Y0261493D01*
X0241784Y0262460D01*
X0242752Y0261493D01*
X0242752Y0264395D01*
X0243764Y0264395D02*
X0243764Y0261493D01*
X0243764Y0262460D02*
X0245215Y0262460D01*
X0245698Y0262944D01*
X0245698Y0263911D01*
X0245215Y0264395D01*
X0243764Y0264395D01*
X0244731Y0262460D02*
X0245698Y0261493D01*
X0258290Y0261493D02*
X0259258Y0262460D01*
X0258290Y0263427D01*
X0261193Y0263427D01*
X0261193Y0264439D02*
X0261193Y0265407D01*
X0261193Y0264923D02*
X0258290Y0264923D01*
X0258290Y0264439D02*
X0258290Y0265407D01*
X0258290Y0266403D02*
X0258290Y0267855D01*
X0258774Y0268338D01*
X0260709Y0268338D01*
X0261193Y0267855D01*
X0261193Y0266403D01*
X0258290Y0266403D01*
X0258290Y0261493D02*
X0261193Y0261493D01*
X0261193Y0269350D02*
X0261193Y0270317D01*
X0261193Y0269834D02*
X0258290Y0269834D01*
X0258290Y0270317D02*
X0258290Y0269350D01*
X0258774Y0271314D02*
X0260709Y0271314D01*
X0261193Y0271798D01*
X0261193Y0272765D01*
X0260709Y0273249D01*
X0258774Y0273249D01*
X0258290Y0272765D01*
X0258290Y0271798D01*
X0258774Y0271314D01*
X0258290Y0274261D02*
X0260709Y0274261D01*
X0261193Y0274745D01*
X0261193Y0275712D01*
X0260709Y0276196D01*
X0258290Y0276196D01*
X0258290Y0277207D02*
X0258290Y0279142D01*
X0258290Y0278175D02*
X0261193Y0278175D01*
X0261193Y0023245D02*
X0258290Y0023245D01*
X0258290Y0021310D02*
X0261193Y0023245D01*
X0261193Y0021310D02*
X0258290Y0021310D01*
X0258290Y0020313D02*
X0258290Y0019346D01*
X0258290Y0019829D02*
X0261193Y0019829D01*
X0261193Y0019346D02*
X0261193Y0020313D01*
X0261193Y0018349D02*
X0261193Y0017381D01*
X0261193Y0017865D02*
X0258290Y0017865D01*
X0258290Y0017381D02*
X0258290Y0018349D01*
X0258774Y0016370D02*
X0258290Y0015886D01*
X0258290Y0014435D01*
X0261193Y0014435D01*
X0261193Y0015886D01*
X0260709Y0016370D01*
X0258774Y0016370D01*
X0258290Y0013438D02*
X0258290Y0012471D01*
X0258290Y0012954D02*
X0261193Y0012954D01*
X0261193Y0012471D02*
X0261193Y0013438D01*
X0261193Y0011459D02*
X0258290Y0011459D01*
X0259258Y0010491D01*
X0258290Y0009524D01*
X0261193Y0009524D01*
X0248898Y0016650D02*
X0246963Y0016650D01*
X0246963Y0019552D01*
X0248898Y0019552D01*
X0247930Y0018101D02*
X0246963Y0018101D01*
X0245951Y0017134D02*
X0245468Y0016650D01*
X0244500Y0016650D01*
X0244016Y0017134D01*
X0244016Y0019069D01*
X0244500Y0019552D01*
X0245468Y0019552D01*
X0245951Y0019069D01*
X0243005Y0019552D02*
X0243005Y0016650D01*
X0241070Y0019552D01*
X0241070Y0016650D01*
X0240058Y0016650D02*
X0238123Y0016650D01*
X0238123Y0019552D01*
X0240058Y0019552D01*
X0239091Y0018101D02*
X0238123Y0018101D01*
X0237112Y0018101D02*
X0236628Y0017617D01*
X0235177Y0017617D01*
X0235177Y0016650D02*
X0235177Y0019552D01*
X0236628Y0019552D01*
X0237112Y0019069D01*
X0237112Y0018101D01*
X0236144Y0017617D02*
X0237112Y0016650D01*
X0234165Y0016650D02*
X0232230Y0016650D01*
X0232230Y0019552D01*
X0234165Y0019552D01*
X0233198Y0018101D02*
X0232230Y0018101D01*
X0231219Y0019552D02*
X0229284Y0019552D01*
X0229284Y0016650D01*
X0228272Y0016650D02*
X0226337Y0016650D01*
X0226337Y0019552D01*
X0228272Y0019552D01*
X0227305Y0018101D02*
X0226337Y0018101D01*
X0225326Y0018101D02*
X0224842Y0017617D01*
X0223391Y0017617D01*
X0223391Y0016650D02*
X0223391Y0019552D01*
X0224842Y0019552D01*
X0225326Y0019069D01*
X0225326Y0018101D01*
X0224358Y0017617D02*
X0225326Y0016650D01*
X0229284Y0018101D02*
X0230251Y0018101D01*
D11*
X0221400Y0024390D02*
X0219198Y0024390D01*
X0219198Y0025491D01*
X0219565Y0025858D01*
X0220299Y0025858D01*
X0220666Y0025491D01*
X0220666Y0024390D01*
X0220666Y0025124D02*
X0221400Y0025858D01*
X0221400Y0026600D02*
X0219932Y0028068D01*
X0219565Y0028068D01*
X0219198Y0027701D01*
X0219198Y0026967D01*
X0219565Y0026600D01*
X0221400Y0026600D02*
X0221400Y0028068D01*
X0221400Y0039390D02*
X0219198Y0039390D01*
X0219198Y0040491D01*
X0219565Y0040858D01*
X0220299Y0040858D01*
X0220666Y0040491D01*
X0220666Y0039390D01*
X0220666Y0040124D02*
X0221400Y0040858D01*
X0221033Y0041600D02*
X0221400Y0041967D01*
X0221400Y0042701D01*
X0221033Y0043068D01*
X0220666Y0043068D01*
X0220299Y0042701D01*
X0220299Y0041600D01*
X0221033Y0041600D01*
X0220299Y0041600D02*
X0219565Y0042334D01*
X0219198Y0043068D01*
X0224565Y0071600D02*
X0226033Y0071600D01*
X0226400Y0071967D01*
X0226400Y0072701D01*
X0226033Y0073068D01*
X0226033Y0073810D02*
X0226400Y0074177D01*
X0226400Y0074911D01*
X0226033Y0075278D01*
X0225666Y0075278D01*
X0225299Y0074911D01*
X0225299Y0074544D01*
X0225299Y0074911D02*
X0224932Y0075278D01*
X0224565Y0075278D01*
X0224198Y0074911D01*
X0224198Y0074177D01*
X0224565Y0073810D01*
X0224565Y0073068D02*
X0224198Y0072701D01*
X0224198Y0071967D01*
X0224565Y0071600D01*
X0239198Y0078652D02*
X0239565Y0078285D01*
X0241033Y0078285D01*
X0241400Y0078652D01*
X0241400Y0079386D01*
X0241033Y0079753D01*
X0239565Y0079753D01*
X0239198Y0079386D01*
X0239198Y0078652D01*
X0239198Y0080495D02*
X0241400Y0080495D01*
X0240666Y0080495D02*
X0239198Y0081963D01*
X0239932Y0082705D02*
X0239198Y0083439D01*
X0241400Y0083439D01*
X0241400Y0082705D02*
X0241400Y0084173D01*
X0241400Y0081963D02*
X0240299Y0080862D01*
X0176400Y0052701D02*
X0176400Y0051967D01*
X0176033Y0051600D01*
X0176400Y0050858D02*
X0175666Y0050124D01*
X0175666Y0050491D02*
X0175666Y0049390D01*
X0176400Y0049390D02*
X0174198Y0049390D01*
X0174198Y0050491D01*
X0174565Y0050858D01*
X0175299Y0050858D01*
X0175666Y0050491D01*
X0174565Y0051600D02*
X0174198Y0051967D01*
X0174198Y0052701D01*
X0174565Y0053068D01*
X0174932Y0053068D01*
X0175299Y0052701D01*
X0175666Y0053068D01*
X0176033Y0053068D01*
X0176400Y0052701D01*
X0175299Y0052701D02*
X0175299Y0052334D01*
X0106400Y0143285D02*
X0104198Y0143285D01*
X0104198Y0144386D01*
X0104565Y0144753D01*
X0105299Y0144753D01*
X0105666Y0144386D01*
X0105666Y0143285D01*
X0105666Y0144019D02*
X0106400Y0144753D01*
X0106400Y0145495D02*
X0104198Y0145495D01*
X0106400Y0146963D01*
X0104198Y0146963D01*
X0104932Y0147705D02*
X0104198Y0148439D01*
X0106400Y0148439D01*
X0106400Y0147705D02*
X0106400Y0149173D01*
X0076400Y0140278D02*
X0076400Y0138810D01*
X0076400Y0139544D02*
X0074198Y0139544D01*
X0074932Y0138810D01*
X0074565Y0138068D02*
X0074198Y0137701D01*
X0074198Y0136967D01*
X0074565Y0136600D01*
X0076033Y0136600D01*
X0076400Y0136967D01*
X0076400Y0137701D01*
X0076033Y0138068D01*
X0064392Y0141122D02*
X0062190Y0142590D01*
X0062924Y0143332D02*
X0062190Y0144066D01*
X0064392Y0144066D01*
X0064392Y0143332D02*
X0064392Y0144800D01*
X0064392Y0142590D02*
X0062190Y0141122D01*
X0074565Y0110278D02*
X0074198Y0109911D01*
X0074198Y0109177D01*
X0074565Y0108810D01*
X0074565Y0108068D02*
X0074198Y0107701D01*
X0074198Y0106967D01*
X0074565Y0106600D01*
X0076033Y0106600D01*
X0076400Y0106967D01*
X0076400Y0107701D01*
X0076033Y0108068D01*
X0076400Y0108810D02*
X0074932Y0110278D01*
X0074565Y0110278D01*
X0076400Y0110278D02*
X0076400Y0108810D01*
X0076400Y0083068D02*
X0076400Y0081600D01*
X0076400Y0082334D02*
X0074198Y0082334D01*
X0074932Y0081600D01*
X0074198Y0080858D02*
X0076033Y0080858D01*
X0076400Y0080491D01*
X0076400Y0079757D01*
X0076033Y0079390D01*
X0074198Y0079390D01*
X0046754Y0048802D02*
X0046754Y0046600D01*
X0046020Y0046600D02*
X0047488Y0046600D01*
X0046020Y0048068D02*
X0046754Y0048802D01*
X0045278Y0048802D02*
X0045278Y0047334D01*
X0044544Y0046600D01*
X0043810Y0047334D01*
X0043810Y0048802D01*
X0043068Y0048435D02*
X0042701Y0048802D01*
X0041967Y0048802D01*
X0041600Y0048435D01*
X0041600Y0048068D01*
X0041967Y0047701D01*
X0042701Y0047701D01*
X0043068Y0047334D01*
X0043068Y0046967D01*
X0042701Y0046600D01*
X0041967Y0046600D01*
X0041600Y0046967D01*
X0164565Y0191600D02*
X0166033Y0191600D01*
X0166400Y0191967D01*
X0166400Y0192701D01*
X0166033Y0193068D01*
X0165299Y0193810D02*
X0165299Y0195278D01*
X0164198Y0194911D02*
X0165299Y0193810D01*
X0164565Y0193068D02*
X0164198Y0192701D01*
X0164198Y0191967D01*
X0164565Y0191600D01*
X0164198Y0194911D02*
X0166400Y0194911D01*
X0138068Y0221600D02*
X0136600Y0221600D01*
X0137334Y0221600D02*
X0137334Y0223802D01*
X0136600Y0223068D01*
X0135858Y0223802D02*
X0134390Y0222334D01*
X0134757Y0222701D02*
X0135858Y0221600D01*
X0134390Y0221600D02*
X0134390Y0223802D01*
X0096400Y0218810D02*
X0096033Y0218810D01*
X0094565Y0220278D01*
X0094198Y0220278D01*
X0094198Y0218810D01*
X0094565Y0218068D02*
X0094198Y0217701D01*
X0094198Y0216600D01*
X0096400Y0216600D01*
X0095666Y0216600D02*
X0095666Y0217701D01*
X0095299Y0218068D01*
X0094565Y0218068D01*
X0095666Y0217334D02*
X0096400Y0218068D01*
X0081400Y0217334D02*
X0079198Y0217334D01*
X0079198Y0216600D02*
X0079198Y0218068D01*
X0079932Y0218810D02*
X0079198Y0219544D01*
X0081400Y0219544D01*
X0081400Y0218810D02*
X0081400Y0220278D01*
X0064173Y0236600D02*
X0062705Y0236600D01*
X0062705Y0238802D01*
X0061963Y0238435D02*
X0061596Y0238802D01*
X0060862Y0238802D01*
X0060495Y0238435D01*
X0060495Y0236967D01*
X0060862Y0236600D01*
X0061596Y0236600D01*
X0061963Y0236967D01*
X0059753Y0236967D02*
X0059386Y0236600D01*
X0058652Y0236600D01*
X0058285Y0236967D01*
X0058652Y0237701D02*
X0059386Y0237701D01*
X0059753Y0237334D01*
X0059753Y0236967D01*
X0058652Y0237701D02*
X0058285Y0238068D01*
X0058285Y0238435D01*
X0058652Y0238802D01*
X0059386Y0238802D01*
X0059753Y0238435D01*
X0054173Y0238068D02*
X0054173Y0236600D01*
X0054173Y0237701D02*
X0052705Y0237701D01*
X0052705Y0238068D02*
X0052705Y0236600D01*
X0051963Y0236967D02*
X0051963Y0238435D01*
X0051596Y0238802D01*
X0050495Y0238802D01*
X0050495Y0236600D01*
X0051596Y0236600D01*
X0051963Y0236967D01*
X0052705Y0238068D02*
X0053439Y0238802D01*
X0054173Y0238068D01*
X0049753Y0238435D02*
X0049386Y0238802D01*
X0048652Y0238802D01*
X0048285Y0238435D01*
X0048285Y0238068D01*
X0048652Y0237701D01*
X0049386Y0237701D01*
X0049753Y0237334D01*
X0049753Y0236967D01*
X0049386Y0236600D01*
X0048652Y0236600D01*
X0048285Y0236967D01*
X0044173Y0236967D02*
X0044173Y0238435D01*
X0043806Y0238802D01*
X0042705Y0238802D01*
X0042705Y0236600D01*
X0043806Y0236600D01*
X0044173Y0236967D01*
X0041963Y0236600D02*
X0041963Y0238802D01*
X0040495Y0238802D02*
X0041963Y0236600D01*
X0040495Y0236600D02*
X0040495Y0238802D01*
X0039753Y0238435D02*
X0039386Y0238802D01*
X0038652Y0238802D01*
X0038285Y0238435D01*
X0038285Y0236967D01*
X0038652Y0236600D01*
X0039386Y0236600D01*
X0039753Y0236967D01*
X0039753Y0237701D01*
X0039019Y0237701D01*
X0034173Y0238435D02*
X0033806Y0238802D01*
X0033072Y0238802D01*
X0032705Y0238435D01*
X0032705Y0236967D01*
X0033072Y0236600D01*
X0033806Y0236600D01*
X0034173Y0236967D01*
X0031963Y0236967D02*
X0031596Y0236600D01*
X0030862Y0236600D01*
X0030495Y0236967D01*
X0030495Y0238435D01*
X0030862Y0238802D01*
X0031596Y0238802D01*
X0031963Y0238435D01*
X0029753Y0238802D02*
X0029753Y0237334D01*
X0029019Y0236600D01*
X0028285Y0237334D01*
X0028285Y0238802D01*
X0043653Y0261600D02*
X0044387Y0261600D01*
X0044020Y0261600D02*
X0044020Y0263802D01*
X0043653Y0263802D02*
X0044387Y0263802D01*
X0045127Y0263435D02*
X0045494Y0263802D01*
X0046228Y0263802D01*
X0046595Y0263435D01*
X0046595Y0263068D01*
X0045127Y0261600D01*
X0046595Y0261600D01*
X0047337Y0261967D02*
X0047704Y0261600D01*
X0048438Y0261600D01*
X0048805Y0261967D01*
X0048805Y0263435D02*
X0048438Y0263802D01*
X0047704Y0263802D01*
X0047337Y0263435D01*
X0047337Y0261967D01*
X0208653Y0223802D02*
X0209387Y0223802D01*
X0209020Y0223802D02*
X0209020Y0221600D01*
X0208653Y0221600D02*
X0209387Y0221600D01*
X0210127Y0221967D02*
X0210494Y0221600D01*
X0211228Y0221600D01*
X0211595Y0221967D01*
X0212337Y0221600D02*
X0213805Y0221600D01*
X0213071Y0221600D02*
X0213071Y0223802D01*
X0212337Y0223068D01*
X0211595Y0223435D02*
X0211228Y0223802D01*
X0210494Y0223802D01*
X0210127Y0223435D01*
X0210127Y0221967D01*
X0249198Y0212334D02*
X0251400Y0212334D01*
X0251400Y0211600D02*
X0251400Y0213068D01*
X0249932Y0211600D02*
X0249198Y0212334D01*
X0249565Y0210858D02*
X0249198Y0210491D01*
X0249198Y0209390D01*
X0251400Y0209390D01*
X0250666Y0209390D02*
X0250666Y0210491D01*
X0250299Y0210858D01*
X0249565Y0210858D01*
X0250666Y0210124D02*
X0251400Y0210858D01*
X0250299Y0203068D02*
X0250299Y0201600D01*
X0249198Y0202701D01*
X0251400Y0202701D01*
X0251400Y0200858D02*
X0250666Y0200124D01*
X0250666Y0200491D02*
X0250666Y0199390D01*
X0251400Y0199390D02*
X0249198Y0199390D01*
X0249198Y0200491D01*
X0249565Y0200858D01*
X0250299Y0200858D01*
X0250666Y0200491D01*
X0250299Y0193068D02*
X0251033Y0193068D01*
X0251400Y0192701D01*
X0251400Y0191967D01*
X0251033Y0191600D01*
X0250299Y0191600D02*
X0249932Y0192334D01*
X0249932Y0192701D01*
X0250299Y0193068D01*
X0249198Y0193068D02*
X0249198Y0191600D01*
X0250299Y0191600D01*
X0250299Y0190858D02*
X0250666Y0190491D01*
X0250666Y0189390D01*
X0251400Y0189390D02*
X0249198Y0189390D01*
X0249198Y0190491D01*
X0249565Y0190858D01*
X0250299Y0190858D01*
X0250666Y0190124D02*
X0251400Y0190858D01*
X0274565Y0149173D02*
X0274932Y0149173D01*
X0275299Y0148806D01*
X0275299Y0147705D01*
X0275666Y0146963D02*
X0276033Y0146963D01*
X0276400Y0146596D01*
X0276400Y0145862D01*
X0276033Y0145495D01*
X0276033Y0144753D02*
X0274198Y0144753D01*
X0274565Y0145495D02*
X0274932Y0145495D01*
X0275299Y0145862D01*
X0275299Y0146596D01*
X0275666Y0146963D01*
X0276400Y0147705D02*
X0276400Y0148806D01*
X0276033Y0149173D01*
X0275666Y0149173D01*
X0275299Y0148806D01*
X0274565Y0149173D02*
X0274198Y0148806D01*
X0274198Y0147705D01*
X0276400Y0147705D01*
X0274565Y0146963D02*
X0274198Y0146596D01*
X0274198Y0145862D01*
X0274565Y0145495D01*
X0276033Y0144753D02*
X0276400Y0144386D01*
X0276400Y0143652D01*
X0276033Y0143285D01*
X0274198Y0143285D01*
D12*
X0272500Y0188000D02*
X0271500Y0188000D01*
X0271000Y0188500D01*
X0262000Y0188500D01*
X0261500Y0188000D01*
X0260500Y0188000D01*
X0260440Y0188002D01*
X0260379Y0188007D01*
X0260320Y0188016D01*
X0260261Y0188029D01*
X0260202Y0188045D01*
X0260145Y0188065D01*
X0260090Y0188088D01*
X0260035Y0188115D01*
X0259983Y0188144D01*
X0259932Y0188177D01*
X0259883Y0188213D01*
X0259837Y0188251D01*
X0259793Y0188293D01*
X0259751Y0188337D01*
X0259713Y0188383D01*
X0259677Y0188432D01*
X0259644Y0188483D01*
X0259615Y0188535D01*
X0259588Y0188590D01*
X0259565Y0188645D01*
X0259545Y0188702D01*
X0259529Y0188761D01*
X0259516Y0188820D01*
X0259507Y0188879D01*
X0259502Y0188940D01*
X0259500Y0189000D01*
X0259500Y0194000D02*
X0259502Y0194060D01*
X0259507Y0194121D01*
X0259516Y0194180D01*
X0259529Y0194239D01*
X0259545Y0194298D01*
X0259565Y0194355D01*
X0259588Y0194410D01*
X0259615Y0194465D01*
X0259644Y0194517D01*
X0259677Y0194568D01*
X0259713Y0194617D01*
X0259751Y0194663D01*
X0259793Y0194707D01*
X0259837Y0194749D01*
X0259883Y0194787D01*
X0259932Y0194823D01*
X0259983Y0194856D01*
X0260035Y0194885D01*
X0260090Y0194912D01*
X0260145Y0194935D01*
X0260202Y0194955D01*
X0260261Y0194971D01*
X0260320Y0194984D01*
X0260379Y0194993D01*
X0260440Y0194998D01*
X0260500Y0195000D01*
X0261500Y0195000D01*
X0262000Y0194500D01*
X0271000Y0194500D01*
X0271500Y0195000D01*
X0272500Y0195000D01*
X0272560Y0194998D01*
X0272621Y0194993D01*
X0272680Y0194984D01*
X0272739Y0194971D01*
X0272798Y0194955D01*
X0272855Y0194935D01*
X0272910Y0194912D01*
X0272965Y0194885D01*
X0273017Y0194856D01*
X0273068Y0194823D01*
X0273117Y0194787D01*
X0273163Y0194749D01*
X0273207Y0194707D01*
X0273249Y0194663D01*
X0273287Y0194617D01*
X0273323Y0194568D01*
X0273356Y0194517D01*
X0273385Y0194465D01*
X0273412Y0194410D01*
X0273435Y0194355D01*
X0273455Y0194298D01*
X0273471Y0194239D01*
X0273484Y0194180D01*
X0273493Y0194121D01*
X0273498Y0194060D01*
X0273500Y0194000D01*
X0272500Y0198000D02*
X0271500Y0198000D01*
X0271000Y0198500D01*
X0262000Y0198500D01*
X0261500Y0198000D01*
X0260500Y0198000D01*
X0260440Y0198002D01*
X0260379Y0198007D01*
X0260320Y0198016D01*
X0260261Y0198029D01*
X0260202Y0198045D01*
X0260145Y0198065D01*
X0260090Y0198088D01*
X0260035Y0198115D01*
X0259983Y0198144D01*
X0259932Y0198177D01*
X0259883Y0198213D01*
X0259837Y0198251D01*
X0259793Y0198293D01*
X0259751Y0198337D01*
X0259713Y0198383D01*
X0259677Y0198432D01*
X0259644Y0198483D01*
X0259615Y0198535D01*
X0259588Y0198590D01*
X0259565Y0198645D01*
X0259545Y0198702D01*
X0259529Y0198761D01*
X0259516Y0198820D01*
X0259507Y0198879D01*
X0259502Y0198940D01*
X0259500Y0199000D01*
X0259500Y0204000D02*
X0259502Y0204060D01*
X0259507Y0204121D01*
X0259516Y0204180D01*
X0259529Y0204239D01*
X0259545Y0204298D01*
X0259565Y0204355D01*
X0259588Y0204410D01*
X0259615Y0204465D01*
X0259644Y0204517D01*
X0259677Y0204568D01*
X0259713Y0204617D01*
X0259751Y0204663D01*
X0259793Y0204707D01*
X0259837Y0204749D01*
X0259883Y0204787D01*
X0259932Y0204823D01*
X0259983Y0204856D01*
X0260035Y0204885D01*
X0260090Y0204912D01*
X0260145Y0204935D01*
X0260202Y0204955D01*
X0260261Y0204971D01*
X0260320Y0204984D01*
X0260379Y0204993D01*
X0260440Y0204998D01*
X0260500Y0205000D01*
X0261500Y0205000D01*
X0262000Y0204500D01*
X0271000Y0204500D01*
X0271500Y0205000D01*
X0272500Y0205000D01*
X0272560Y0204998D01*
X0272621Y0204993D01*
X0272680Y0204984D01*
X0272739Y0204971D01*
X0272798Y0204955D01*
X0272855Y0204935D01*
X0272910Y0204912D01*
X0272965Y0204885D01*
X0273017Y0204856D01*
X0273068Y0204823D01*
X0273117Y0204787D01*
X0273163Y0204749D01*
X0273207Y0204707D01*
X0273249Y0204663D01*
X0273287Y0204617D01*
X0273323Y0204568D01*
X0273356Y0204517D01*
X0273385Y0204465D01*
X0273412Y0204410D01*
X0273435Y0204355D01*
X0273455Y0204298D01*
X0273471Y0204239D01*
X0273484Y0204180D01*
X0273493Y0204121D01*
X0273498Y0204060D01*
X0273500Y0204000D01*
X0272500Y0208000D02*
X0271500Y0208000D01*
X0271000Y0208500D01*
X0262000Y0208500D01*
X0261500Y0208000D01*
X0260500Y0208000D01*
X0260440Y0208002D01*
X0260379Y0208007D01*
X0260320Y0208016D01*
X0260261Y0208029D01*
X0260202Y0208045D01*
X0260145Y0208065D01*
X0260090Y0208088D01*
X0260035Y0208115D01*
X0259983Y0208144D01*
X0259932Y0208177D01*
X0259883Y0208213D01*
X0259837Y0208251D01*
X0259793Y0208293D01*
X0259751Y0208337D01*
X0259713Y0208383D01*
X0259677Y0208432D01*
X0259644Y0208483D01*
X0259615Y0208535D01*
X0259588Y0208590D01*
X0259565Y0208645D01*
X0259545Y0208702D01*
X0259529Y0208761D01*
X0259516Y0208820D01*
X0259507Y0208879D01*
X0259502Y0208940D01*
X0259500Y0209000D01*
X0259500Y0214000D02*
X0259502Y0214060D01*
X0259507Y0214121D01*
X0259516Y0214180D01*
X0259529Y0214239D01*
X0259545Y0214298D01*
X0259565Y0214355D01*
X0259588Y0214410D01*
X0259615Y0214465D01*
X0259644Y0214517D01*
X0259677Y0214568D01*
X0259713Y0214617D01*
X0259751Y0214663D01*
X0259793Y0214707D01*
X0259837Y0214749D01*
X0259883Y0214787D01*
X0259932Y0214823D01*
X0259983Y0214856D01*
X0260035Y0214885D01*
X0260090Y0214912D01*
X0260145Y0214935D01*
X0260202Y0214955D01*
X0260261Y0214971D01*
X0260320Y0214984D01*
X0260379Y0214993D01*
X0260440Y0214998D01*
X0260500Y0215000D01*
X0261500Y0215000D01*
X0262000Y0214500D01*
X0271000Y0214500D01*
X0271500Y0215000D01*
X0272500Y0215000D01*
X0272560Y0214998D01*
X0272621Y0214993D01*
X0272680Y0214984D01*
X0272739Y0214971D01*
X0272798Y0214955D01*
X0272855Y0214935D01*
X0272910Y0214912D01*
X0272965Y0214885D01*
X0273017Y0214856D01*
X0273068Y0214823D01*
X0273117Y0214787D01*
X0273163Y0214749D01*
X0273207Y0214707D01*
X0273249Y0214663D01*
X0273287Y0214617D01*
X0273323Y0214568D01*
X0273356Y0214517D01*
X0273385Y0214465D01*
X0273412Y0214410D01*
X0273435Y0214355D01*
X0273455Y0214298D01*
X0273471Y0214239D01*
X0273484Y0214180D01*
X0273493Y0214121D01*
X0273498Y0214060D01*
X0273500Y0214000D01*
X0273500Y0209000D02*
X0273498Y0208940D01*
X0273493Y0208879D01*
X0273484Y0208820D01*
X0273471Y0208761D01*
X0273455Y0208702D01*
X0273435Y0208645D01*
X0273412Y0208590D01*
X0273385Y0208535D01*
X0273356Y0208483D01*
X0273323Y0208432D01*
X0273287Y0208383D01*
X0273249Y0208337D01*
X0273207Y0208293D01*
X0273163Y0208251D01*
X0273117Y0208213D01*
X0273068Y0208177D01*
X0273017Y0208144D01*
X0272965Y0208115D01*
X0272910Y0208088D01*
X0272855Y0208065D01*
X0272798Y0208045D01*
X0272739Y0208029D01*
X0272680Y0208016D01*
X0272621Y0208007D01*
X0272560Y0208002D01*
X0272500Y0208000D01*
X0273500Y0199000D02*
X0273498Y0198940D01*
X0273493Y0198879D01*
X0273484Y0198820D01*
X0273471Y0198761D01*
X0273455Y0198702D01*
X0273435Y0198645D01*
X0273412Y0198590D01*
X0273385Y0198535D01*
X0273356Y0198483D01*
X0273323Y0198432D01*
X0273287Y0198383D01*
X0273249Y0198337D01*
X0273207Y0198293D01*
X0273163Y0198251D01*
X0273117Y0198213D01*
X0273068Y0198177D01*
X0273017Y0198144D01*
X0272965Y0198115D01*
X0272910Y0198088D01*
X0272855Y0198065D01*
X0272798Y0198045D01*
X0272739Y0198029D01*
X0272680Y0198016D01*
X0272621Y0198007D01*
X0272560Y0198002D01*
X0272500Y0198000D01*
X0273500Y0189000D02*
X0273498Y0188940D01*
X0273493Y0188879D01*
X0273484Y0188820D01*
X0273471Y0188761D01*
X0273455Y0188702D01*
X0273435Y0188645D01*
X0273412Y0188590D01*
X0273385Y0188535D01*
X0273356Y0188483D01*
X0273323Y0188432D01*
X0273287Y0188383D01*
X0273249Y0188337D01*
X0273207Y0188293D01*
X0273163Y0188251D01*
X0273117Y0188213D01*
X0273068Y0188177D01*
X0273017Y0188144D01*
X0272965Y0188115D01*
X0272910Y0188088D01*
X0272855Y0188065D01*
X0272798Y0188045D01*
X0272739Y0188029D01*
X0272680Y0188016D01*
X0272621Y0188007D01*
X0272560Y0188002D01*
X0272500Y0188000D01*
X0246500Y0190000D02*
X0246500Y0213000D01*
X0176500Y0213000D01*
X0176500Y0205500D01*
X0176626Y0205498D01*
X0176751Y0205492D01*
X0176876Y0205482D01*
X0177001Y0205468D01*
X0177126Y0205451D01*
X0177250Y0205429D01*
X0177373Y0205404D01*
X0177495Y0205374D01*
X0177616Y0205341D01*
X0177736Y0205304D01*
X0177855Y0205264D01*
X0177972Y0205219D01*
X0178089Y0205171D01*
X0178203Y0205119D01*
X0178316Y0205064D01*
X0178427Y0205005D01*
X0178536Y0204943D01*
X0178643Y0204877D01*
X0178748Y0204808D01*
X0178851Y0204736D01*
X0178952Y0204661D01*
X0179050Y0204582D01*
X0179145Y0204500D01*
X0179238Y0204416D01*
X0179328Y0204328D01*
X0179416Y0204238D01*
X0179500Y0204145D01*
X0179582Y0204050D01*
X0179661Y0203952D01*
X0179736Y0203851D01*
X0179808Y0203748D01*
X0179877Y0203643D01*
X0179943Y0203536D01*
X0180005Y0203427D01*
X0180064Y0203316D01*
X0180119Y0203203D01*
X0180171Y0203089D01*
X0180219Y0202972D01*
X0180264Y0202855D01*
X0180304Y0202736D01*
X0180341Y0202616D01*
X0180374Y0202495D01*
X0180404Y0202373D01*
X0180429Y0202250D01*
X0180451Y0202126D01*
X0180468Y0202001D01*
X0180482Y0201876D01*
X0180492Y0201751D01*
X0180498Y0201626D01*
X0180500Y0201500D01*
X0180498Y0201374D01*
X0180492Y0201249D01*
X0180482Y0201124D01*
X0180468Y0200999D01*
X0180451Y0200874D01*
X0180429Y0200750D01*
X0180404Y0200627D01*
X0180374Y0200505D01*
X0180341Y0200384D01*
X0180304Y0200264D01*
X0180264Y0200145D01*
X0180219Y0200028D01*
X0180171Y0199911D01*
X0180119Y0199797D01*
X0180064Y0199684D01*
X0180005Y0199573D01*
X0179943Y0199464D01*
X0179877Y0199357D01*
X0179808Y0199252D01*
X0179736Y0199149D01*
X0179661Y0199048D01*
X0179582Y0198950D01*
X0179500Y0198855D01*
X0179416Y0198762D01*
X0179328Y0198672D01*
X0179238Y0198584D01*
X0179145Y0198500D01*
X0179050Y0198418D01*
X0178952Y0198339D01*
X0178851Y0198264D01*
X0178748Y0198192D01*
X0178643Y0198123D01*
X0178536Y0198057D01*
X0178427Y0197995D01*
X0178316Y0197936D01*
X0178203Y0197881D01*
X0178089Y0197829D01*
X0177972Y0197781D01*
X0177855Y0197736D01*
X0177736Y0197696D01*
X0177616Y0197659D01*
X0177495Y0197626D01*
X0177373Y0197596D01*
X0177250Y0197571D01*
X0177126Y0197549D01*
X0177001Y0197532D01*
X0176876Y0197518D01*
X0176751Y0197508D01*
X0176626Y0197502D01*
X0176500Y0197500D01*
X0176500Y0190000D01*
X0246500Y0190000D01*
X0186500Y0158000D02*
X0186500Y0135000D01*
X0106500Y0135000D01*
X0106500Y0142500D01*
X0106626Y0142502D01*
X0106751Y0142508D01*
X0106876Y0142518D01*
X0107001Y0142532D01*
X0107126Y0142549D01*
X0107250Y0142571D01*
X0107373Y0142596D01*
X0107495Y0142626D01*
X0107616Y0142659D01*
X0107736Y0142696D01*
X0107855Y0142736D01*
X0107972Y0142781D01*
X0108089Y0142829D01*
X0108203Y0142881D01*
X0108316Y0142936D01*
X0108427Y0142995D01*
X0108536Y0143057D01*
X0108643Y0143123D01*
X0108748Y0143192D01*
X0108851Y0143264D01*
X0108952Y0143339D01*
X0109050Y0143418D01*
X0109145Y0143500D01*
X0109238Y0143584D01*
X0109328Y0143672D01*
X0109416Y0143762D01*
X0109500Y0143855D01*
X0109582Y0143950D01*
X0109661Y0144048D01*
X0109736Y0144149D01*
X0109808Y0144252D01*
X0109877Y0144357D01*
X0109943Y0144464D01*
X0110005Y0144573D01*
X0110064Y0144684D01*
X0110119Y0144797D01*
X0110171Y0144911D01*
X0110219Y0145028D01*
X0110264Y0145145D01*
X0110304Y0145264D01*
X0110341Y0145384D01*
X0110374Y0145505D01*
X0110404Y0145627D01*
X0110429Y0145750D01*
X0110451Y0145874D01*
X0110468Y0145999D01*
X0110482Y0146124D01*
X0110492Y0146249D01*
X0110498Y0146374D01*
X0110500Y0146500D01*
X0110498Y0146626D01*
X0110492Y0146751D01*
X0110482Y0146876D01*
X0110468Y0147001D01*
X0110451Y0147126D01*
X0110429Y0147250D01*
X0110404Y0147373D01*
X0110374Y0147495D01*
X0110341Y0147616D01*
X0110304Y0147736D01*
X0110264Y0147855D01*
X0110219Y0147972D01*
X0110171Y0148089D01*
X0110119Y0148203D01*
X0110064Y0148316D01*
X0110005Y0148427D01*
X0109943Y0148536D01*
X0109877Y0148643D01*
X0109808Y0148748D01*
X0109736Y0148851D01*
X0109661Y0148952D01*
X0109582Y0149050D01*
X0109500Y0149145D01*
X0109416Y0149238D01*
X0109328Y0149328D01*
X0109238Y0149416D01*
X0109145Y0149500D01*
X0109050Y0149582D01*
X0108952Y0149661D01*
X0108851Y0149736D01*
X0108748Y0149808D01*
X0108643Y0149877D01*
X0108536Y0149943D01*
X0108427Y0150005D01*
X0108316Y0150064D01*
X0108203Y0150119D01*
X0108089Y0150171D01*
X0107972Y0150219D01*
X0107855Y0150264D01*
X0107736Y0150304D01*
X0107616Y0150341D01*
X0107495Y0150374D01*
X0107373Y0150404D01*
X0107250Y0150429D01*
X0107126Y0150451D01*
X0107001Y0150468D01*
X0106876Y0150482D01*
X0106751Y0150492D01*
X0106626Y0150498D01*
X0106500Y0150500D01*
X0106500Y0158000D01*
X0186500Y0158000D01*
X0175500Y0192000D02*
X0167500Y0192000D01*
X0167440Y0192002D01*
X0167379Y0192007D01*
X0167320Y0192016D01*
X0167261Y0192029D01*
X0167202Y0192045D01*
X0167145Y0192065D01*
X0167090Y0192088D01*
X0167035Y0192115D01*
X0166983Y0192144D01*
X0166932Y0192177D01*
X0166883Y0192213D01*
X0166837Y0192251D01*
X0166793Y0192293D01*
X0166751Y0192337D01*
X0166713Y0192383D01*
X0166677Y0192432D01*
X0166644Y0192483D01*
X0166615Y0192535D01*
X0166588Y0192590D01*
X0166565Y0192645D01*
X0166545Y0192702D01*
X0166529Y0192761D01*
X0166516Y0192820D01*
X0166507Y0192879D01*
X0166502Y0192940D01*
X0166500Y0193000D01*
X0166500Y0210000D01*
X0166502Y0210060D01*
X0166507Y0210121D01*
X0166516Y0210180D01*
X0166529Y0210239D01*
X0166545Y0210298D01*
X0166565Y0210355D01*
X0166588Y0210410D01*
X0166615Y0210465D01*
X0166644Y0210517D01*
X0166677Y0210568D01*
X0166713Y0210617D01*
X0166751Y0210663D01*
X0166793Y0210707D01*
X0166837Y0210749D01*
X0166883Y0210787D01*
X0166932Y0210823D01*
X0166983Y0210856D01*
X0167035Y0210885D01*
X0167090Y0210912D01*
X0167145Y0210935D01*
X0167202Y0210955D01*
X0167261Y0210971D01*
X0167320Y0210984D01*
X0167379Y0210993D01*
X0167440Y0210998D01*
X0167500Y0211000D01*
X0175500Y0211000D01*
X0175560Y0210998D01*
X0175621Y0210993D01*
X0175680Y0210984D01*
X0175739Y0210971D01*
X0175798Y0210955D01*
X0175855Y0210935D01*
X0175910Y0210912D01*
X0175965Y0210885D01*
X0176017Y0210856D01*
X0176068Y0210823D01*
X0176117Y0210787D01*
X0176163Y0210749D01*
X0176207Y0210707D01*
X0176249Y0210663D01*
X0176287Y0210617D01*
X0176323Y0210568D01*
X0176356Y0210517D01*
X0176385Y0210465D01*
X0176412Y0210410D01*
X0176435Y0210355D01*
X0176455Y0210298D01*
X0176471Y0210239D01*
X0176484Y0210180D01*
X0176493Y0210121D01*
X0176498Y0210060D01*
X0176500Y0210000D01*
X0176500Y0193000D01*
X0176498Y0192940D01*
X0176493Y0192879D01*
X0176484Y0192820D01*
X0176471Y0192761D01*
X0176455Y0192702D01*
X0176435Y0192645D01*
X0176412Y0192590D01*
X0176385Y0192535D01*
X0176356Y0192483D01*
X0176323Y0192432D01*
X0176287Y0192383D01*
X0176249Y0192337D01*
X0176207Y0192293D01*
X0176163Y0192251D01*
X0176117Y0192213D01*
X0176068Y0192177D01*
X0176017Y0192144D01*
X0175965Y0192115D01*
X0175910Y0192088D01*
X0175855Y0192065D01*
X0175798Y0192045D01*
X0175739Y0192029D01*
X0175680Y0192016D01*
X0175621Y0192007D01*
X0175560Y0192002D01*
X0175500Y0192000D01*
X0171500Y0200000D02*
X0171500Y0200500D01*
X0171500Y0202500D02*
X0171500Y0203000D01*
X0100000Y0206500D02*
X0099500Y0206000D01*
X0099500Y0197000D01*
X0100000Y0196500D01*
X0100000Y0195500D01*
X0099998Y0195440D01*
X0099993Y0195379D01*
X0099984Y0195320D01*
X0099971Y0195261D01*
X0099955Y0195202D01*
X0099935Y0195145D01*
X0099912Y0195090D01*
X0099885Y0195035D01*
X0099856Y0194983D01*
X0099823Y0194932D01*
X0099787Y0194883D01*
X0099749Y0194837D01*
X0099707Y0194793D01*
X0099663Y0194751D01*
X0099617Y0194713D01*
X0099568Y0194677D01*
X0099517Y0194644D01*
X0099465Y0194615D01*
X0099410Y0194588D01*
X0099355Y0194565D01*
X0099298Y0194545D01*
X0099239Y0194529D01*
X0099180Y0194516D01*
X0099121Y0194507D01*
X0099060Y0194502D01*
X0099000Y0194500D01*
X0094000Y0194500D02*
X0093940Y0194502D01*
X0093879Y0194507D01*
X0093820Y0194516D01*
X0093761Y0194529D01*
X0093702Y0194545D01*
X0093645Y0194565D01*
X0093590Y0194588D01*
X0093535Y0194615D01*
X0093483Y0194644D01*
X0093432Y0194677D01*
X0093383Y0194713D01*
X0093337Y0194751D01*
X0093293Y0194793D01*
X0093251Y0194837D01*
X0093213Y0194883D01*
X0093177Y0194932D01*
X0093144Y0194983D01*
X0093115Y0195035D01*
X0093088Y0195090D01*
X0093065Y0195145D01*
X0093045Y0195202D01*
X0093029Y0195261D01*
X0093016Y0195320D01*
X0093007Y0195379D01*
X0093002Y0195440D01*
X0093000Y0195500D01*
X0093000Y0196500D01*
X0093500Y0197000D01*
X0093500Y0206000D01*
X0093000Y0206500D01*
X0093000Y0207500D01*
X0093002Y0207560D01*
X0093007Y0207621D01*
X0093016Y0207680D01*
X0093029Y0207739D01*
X0093045Y0207798D01*
X0093065Y0207855D01*
X0093088Y0207910D01*
X0093115Y0207965D01*
X0093144Y0208017D01*
X0093177Y0208068D01*
X0093213Y0208117D01*
X0093251Y0208163D01*
X0093293Y0208207D01*
X0093337Y0208249D01*
X0093383Y0208287D01*
X0093432Y0208323D01*
X0093483Y0208356D01*
X0093535Y0208385D01*
X0093590Y0208412D01*
X0093645Y0208435D01*
X0093702Y0208455D01*
X0093761Y0208471D01*
X0093820Y0208484D01*
X0093879Y0208493D01*
X0093940Y0208498D01*
X0094000Y0208500D01*
X0099000Y0208500D02*
X0099060Y0208498D01*
X0099121Y0208493D01*
X0099180Y0208484D01*
X0099239Y0208471D01*
X0099298Y0208455D01*
X0099355Y0208435D01*
X0099410Y0208412D01*
X0099465Y0208385D01*
X0099517Y0208356D01*
X0099568Y0208323D01*
X0099617Y0208287D01*
X0099663Y0208249D01*
X0099707Y0208207D01*
X0099749Y0208163D01*
X0099787Y0208117D01*
X0099823Y0208068D01*
X0099856Y0208017D01*
X0099885Y0207965D01*
X0099912Y0207910D01*
X0099935Y0207855D01*
X0099955Y0207798D01*
X0099971Y0207739D01*
X0099984Y0207680D01*
X0099993Y0207621D01*
X0099998Y0207560D01*
X0100000Y0207500D01*
X0100000Y0206500D01*
X0064000Y0246500D02*
X0059000Y0246500D01*
X0056500Y0249000D01*
X0054000Y0246500D01*
X0049000Y0246500D01*
X0046500Y0249000D01*
X0044000Y0246500D01*
X0039000Y0246500D01*
X0036500Y0249000D01*
X0034000Y0246500D01*
X0029000Y0246500D01*
X0026500Y0249000D01*
X0026500Y0254000D01*
X0029000Y0256500D01*
X0034000Y0256500D01*
X0036500Y0254000D01*
X0039000Y0256500D01*
X0044000Y0256500D01*
X0046500Y0254000D01*
X0046500Y0249000D01*
X0046500Y0254000D02*
X0049000Y0256500D01*
X0054000Y0256500D01*
X0056500Y0254000D01*
X0059000Y0256500D01*
X0064000Y0256500D01*
X0066500Y0254000D01*
X0066500Y0249000D01*
X0064000Y0246500D01*
X0056500Y0249000D02*
X0056500Y0254000D01*
X0036500Y0254000D02*
X0036500Y0249000D01*
X0077500Y0156000D02*
X0085500Y0156000D01*
X0085560Y0155998D01*
X0085621Y0155993D01*
X0085680Y0155984D01*
X0085739Y0155971D01*
X0085798Y0155955D01*
X0085855Y0155935D01*
X0085910Y0155912D01*
X0085965Y0155885D01*
X0086017Y0155856D01*
X0086068Y0155823D01*
X0086117Y0155787D01*
X0086163Y0155749D01*
X0086207Y0155707D01*
X0086249Y0155663D01*
X0086287Y0155617D01*
X0086323Y0155568D01*
X0086356Y0155517D01*
X0086385Y0155465D01*
X0086412Y0155410D01*
X0086435Y0155355D01*
X0086455Y0155298D01*
X0086471Y0155239D01*
X0086484Y0155180D01*
X0086493Y0155121D01*
X0086498Y0155060D01*
X0086500Y0155000D01*
X0086500Y0138000D01*
X0086498Y0137940D01*
X0086493Y0137879D01*
X0086484Y0137820D01*
X0086471Y0137761D01*
X0086455Y0137702D01*
X0086435Y0137645D01*
X0086412Y0137590D01*
X0086385Y0137535D01*
X0086356Y0137483D01*
X0086323Y0137432D01*
X0086287Y0137383D01*
X0086249Y0137337D01*
X0086207Y0137293D01*
X0086163Y0137251D01*
X0086117Y0137213D01*
X0086068Y0137177D01*
X0086017Y0137144D01*
X0085965Y0137115D01*
X0085910Y0137088D01*
X0085855Y0137065D01*
X0085798Y0137045D01*
X0085739Y0137029D01*
X0085680Y0137016D01*
X0085621Y0137007D01*
X0085560Y0137002D01*
X0085500Y0137000D01*
X0077500Y0137000D01*
X0077440Y0137002D01*
X0077379Y0137007D01*
X0077320Y0137016D01*
X0077261Y0137029D01*
X0077202Y0137045D01*
X0077145Y0137065D01*
X0077090Y0137088D01*
X0077035Y0137115D01*
X0076983Y0137144D01*
X0076932Y0137177D01*
X0076883Y0137213D01*
X0076837Y0137251D01*
X0076793Y0137293D01*
X0076751Y0137337D01*
X0076713Y0137383D01*
X0076677Y0137432D01*
X0076644Y0137483D01*
X0076615Y0137535D01*
X0076588Y0137590D01*
X0076565Y0137645D01*
X0076545Y0137702D01*
X0076529Y0137761D01*
X0076516Y0137820D01*
X0076507Y0137879D01*
X0076502Y0137940D01*
X0076500Y0138000D01*
X0076500Y0155000D01*
X0076502Y0155060D01*
X0076507Y0155121D01*
X0076516Y0155180D01*
X0076529Y0155239D01*
X0076545Y0155298D01*
X0076565Y0155355D01*
X0076588Y0155410D01*
X0076615Y0155465D01*
X0076644Y0155517D01*
X0076677Y0155568D01*
X0076713Y0155617D01*
X0076751Y0155663D01*
X0076793Y0155707D01*
X0076837Y0155749D01*
X0076883Y0155787D01*
X0076932Y0155823D01*
X0076983Y0155856D01*
X0077035Y0155885D01*
X0077090Y0155912D01*
X0077145Y0155935D01*
X0077202Y0155955D01*
X0077261Y0155971D01*
X0077320Y0155984D01*
X0077379Y0155993D01*
X0077440Y0155998D01*
X0077500Y0156000D01*
X0081500Y0148000D02*
X0081500Y0147500D01*
X0081500Y0145500D02*
X0081500Y0145000D01*
X0077500Y0126000D02*
X0085500Y0126000D01*
X0085560Y0125998D01*
X0085621Y0125993D01*
X0085680Y0125984D01*
X0085739Y0125971D01*
X0085798Y0125955D01*
X0085855Y0125935D01*
X0085910Y0125912D01*
X0085965Y0125885D01*
X0086017Y0125856D01*
X0086068Y0125823D01*
X0086117Y0125787D01*
X0086163Y0125749D01*
X0086207Y0125707D01*
X0086249Y0125663D01*
X0086287Y0125617D01*
X0086323Y0125568D01*
X0086356Y0125517D01*
X0086385Y0125465D01*
X0086412Y0125410D01*
X0086435Y0125355D01*
X0086455Y0125298D01*
X0086471Y0125239D01*
X0086484Y0125180D01*
X0086493Y0125121D01*
X0086498Y0125060D01*
X0086500Y0125000D01*
X0086500Y0108000D01*
X0086498Y0107940D01*
X0086493Y0107879D01*
X0086484Y0107820D01*
X0086471Y0107761D01*
X0086455Y0107702D01*
X0086435Y0107645D01*
X0086412Y0107590D01*
X0086385Y0107535D01*
X0086356Y0107483D01*
X0086323Y0107432D01*
X0086287Y0107383D01*
X0086249Y0107337D01*
X0086207Y0107293D01*
X0086163Y0107251D01*
X0086117Y0107213D01*
X0086068Y0107177D01*
X0086017Y0107144D01*
X0085965Y0107115D01*
X0085910Y0107088D01*
X0085855Y0107065D01*
X0085798Y0107045D01*
X0085739Y0107029D01*
X0085680Y0107016D01*
X0085621Y0107007D01*
X0085560Y0107002D01*
X0085500Y0107000D01*
X0077500Y0107000D01*
X0077440Y0107002D01*
X0077379Y0107007D01*
X0077320Y0107016D01*
X0077261Y0107029D01*
X0077202Y0107045D01*
X0077145Y0107065D01*
X0077090Y0107088D01*
X0077035Y0107115D01*
X0076983Y0107144D01*
X0076932Y0107177D01*
X0076883Y0107213D01*
X0076837Y0107251D01*
X0076793Y0107293D01*
X0076751Y0107337D01*
X0076713Y0107383D01*
X0076677Y0107432D01*
X0076644Y0107483D01*
X0076615Y0107535D01*
X0076588Y0107590D01*
X0076565Y0107645D01*
X0076545Y0107702D01*
X0076529Y0107761D01*
X0076516Y0107820D01*
X0076507Y0107879D01*
X0076502Y0107940D01*
X0076500Y0108000D01*
X0076500Y0125000D01*
X0076502Y0125060D01*
X0076507Y0125121D01*
X0076516Y0125180D01*
X0076529Y0125239D01*
X0076545Y0125298D01*
X0076565Y0125355D01*
X0076588Y0125410D01*
X0076615Y0125465D01*
X0076644Y0125517D01*
X0076677Y0125568D01*
X0076713Y0125617D01*
X0076751Y0125663D01*
X0076793Y0125707D01*
X0076837Y0125749D01*
X0076883Y0125787D01*
X0076932Y0125823D01*
X0076983Y0125856D01*
X0077035Y0125885D01*
X0077090Y0125912D01*
X0077145Y0125935D01*
X0077202Y0125955D01*
X0077261Y0125971D01*
X0077320Y0125984D01*
X0077379Y0125993D01*
X0077440Y0125998D01*
X0077500Y0126000D01*
X0081500Y0118000D02*
X0081500Y0117500D01*
X0081500Y0115500D02*
X0081500Y0115000D01*
X0048819Y0023185D02*
X0047918Y0023185D01*
X0047017Y0022285D01*
X0047017Y0019582D01*
X0048819Y0019582D01*
X0049720Y0020483D01*
X0049720Y0022285D01*
X0048819Y0023185D01*
X0045216Y0021384D02*
X0047017Y0019582D01*
X0045216Y0021384D02*
X0044315Y0023185D01*
X0049720Y0017661D02*
X0049720Y0014058D01*
X0049720Y0015859D02*
X0044315Y0015859D01*
X0046117Y0014058D01*
X0185500Y0048000D02*
X0186500Y0048000D01*
X0187000Y0048500D01*
X0196000Y0048500D01*
X0196500Y0048000D01*
X0197500Y0048000D01*
X0197560Y0048002D01*
X0197621Y0048007D01*
X0197680Y0048016D01*
X0197739Y0048029D01*
X0197798Y0048045D01*
X0197855Y0048065D01*
X0197910Y0048088D01*
X0197965Y0048115D01*
X0198017Y0048144D01*
X0198068Y0048177D01*
X0198117Y0048213D01*
X0198163Y0048251D01*
X0198207Y0048293D01*
X0198249Y0048337D01*
X0198287Y0048383D01*
X0198323Y0048432D01*
X0198356Y0048483D01*
X0198385Y0048535D01*
X0198412Y0048590D01*
X0198435Y0048645D01*
X0198455Y0048702D01*
X0198471Y0048761D01*
X0198484Y0048820D01*
X0198493Y0048879D01*
X0198498Y0048940D01*
X0198500Y0049000D01*
X0198500Y0054000D02*
X0198498Y0054060D01*
X0198493Y0054121D01*
X0198484Y0054180D01*
X0198471Y0054239D01*
X0198455Y0054298D01*
X0198435Y0054355D01*
X0198412Y0054410D01*
X0198385Y0054465D01*
X0198356Y0054517D01*
X0198323Y0054568D01*
X0198287Y0054617D01*
X0198249Y0054663D01*
X0198207Y0054707D01*
X0198163Y0054749D01*
X0198117Y0054787D01*
X0198068Y0054823D01*
X0198017Y0054856D01*
X0197965Y0054885D01*
X0197910Y0054912D01*
X0197855Y0054935D01*
X0197798Y0054955D01*
X0197739Y0054971D01*
X0197680Y0054984D01*
X0197621Y0054993D01*
X0197560Y0054998D01*
X0197500Y0055000D01*
X0196500Y0055000D01*
X0196000Y0054500D01*
X0187000Y0054500D01*
X0186500Y0055000D01*
X0185500Y0055000D01*
X0185440Y0054998D01*
X0185379Y0054993D01*
X0185320Y0054984D01*
X0185261Y0054971D01*
X0185202Y0054955D01*
X0185145Y0054935D01*
X0185090Y0054912D01*
X0185035Y0054885D01*
X0184983Y0054856D01*
X0184932Y0054823D01*
X0184883Y0054787D01*
X0184837Y0054749D01*
X0184793Y0054707D01*
X0184751Y0054663D01*
X0184713Y0054617D01*
X0184677Y0054568D01*
X0184644Y0054517D01*
X0184615Y0054465D01*
X0184588Y0054410D01*
X0184565Y0054355D01*
X0184545Y0054298D01*
X0184529Y0054239D01*
X0184516Y0054180D01*
X0184507Y0054121D01*
X0184502Y0054060D01*
X0184500Y0054000D01*
X0184500Y0049000D02*
X0184502Y0048940D01*
X0184507Y0048879D01*
X0184516Y0048820D01*
X0184529Y0048761D01*
X0184545Y0048702D01*
X0184565Y0048645D01*
X0184588Y0048590D01*
X0184615Y0048535D01*
X0184644Y0048483D01*
X0184677Y0048432D01*
X0184713Y0048383D01*
X0184751Y0048337D01*
X0184793Y0048293D01*
X0184837Y0048251D01*
X0184883Y0048213D01*
X0184932Y0048177D01*
X0184983Y0048144D01*
X0185035Y0048115D01*
X0185090Y0048088D01*
X0185145Y0048065D01*
X0185202Y0048045D01*
X0185261Y0048029D01*
X0185320Y0048016D01*
X0185379Y0048007D01*
X0185440Y0048002D01*
X0185500Y0048000D01*
X0226500Y0073000D02*
X0226500Y0090000D01*
X0226502Y0090060D01*
X0226507Y0090121D01*
X0226516Y0090180D01*
X0226529Y0090239D01*
X0226545Y0090298D01*
X0226565Y0090355D01*
X0226588Y0090410D01*
X0226615Y0090465D01*
X0226644Y0090517D01*
X0226677Y0090568D01*
X0226713Y0090617D01*
X0226751Y0090663D01*
X0226793Y0090707D01*
X0226837Y0090749D01*
X0226883Y0090787D01*
X0226932Y0090823D01*
X0226983Y0090856D01*
X0227035Y0090885D01*
X0227090Y0090912D01*
X0227145Y0090935D01*
X0227202Y0090955D01*
X0227261Y0090971D01*
X0227320Y0090984D01*
X0227379Y0090993D01*
X0227440Y0090998D01*
X0227500Y0091000D01*
X0235500Y0091000D01*
X0235560Y0090998D01*
X0235621Y0090993D01*
X0235680Y0090984D01*
X0235739Y0090971D01*
X0235798Y0090955D01*
X0235855Y0090935D01*
X0235910Y0090912D01*
X0235965Y0090885D01*
X0236017Y0090856D01*
X0236068Y0090823D01*
X0236117Y0090787D01*
X0236163Y0090749D01*
X0236207Y0090707D01*
X0236249Y0090663D01*
X0236287Y0090617D01*
X0236323Y0090568D01*
X0236356Y0090517D01*
X0236385Y0090465D01*
X0236412Y0090410D01*
X0236435Y0090355D01*
X0236455Y0090298D01*
X0236471Y0090239D01*
X0236484Y0090180D01*
X0236493Y0090121D01*
X0236498Y0090060D01*
X0236500Y0090000D01*
X0236500Y0073000D01*
X0236498Y0072940D01*
X0236493Y0072879D01*
X0236484Y0072820D01*
X0236471Y0072761D01*
X0236455Y0072702D01*
X0236435Y0072645D01*
X0236412Y0072590D01*
X0236385Y0072535D01*
X0236356Y0072483D01*
X0236323Y0072432D01*
X0236287Y0072383D01*
X0236249Y0072337D01*
X0236207Y0072293D01*
X0236163Y0072251D01*
X0236117Y0072213D01*
X0236068Y0072177D01*
X0236017Y0072144D01*
X0235965Y0072115D01*
X0235910Y0072088D01*
X0235855Y0072065D01*
X0235798Y0072045D01*
X0235739Y0072029D01*
X0235680Y0072016D01*
X0235621Y0072007D01*
X0235560Y0072002D01*
X0235500Y0072000D01*
X0227500Y0072000D01*
X0227440Y0072002D01*
X0227379Y0072007D01*
X0227320Y0072016D01*
X0227261Y0072029D01*
X0227202Y0072045D01*
X0227145Y0072065D01*
X0227090Y0072088D01*
X0227035Y0072115D01*
X0226983Y0072144D01*
X0226932Y0072177D01*
X0226883Y0072213D01*
X0226837Y0072251D01*
X0226793Y0072293D01*
X0226751Y0072337D01*
X0226713Y0072383D01*
X0226677Y0072432D01*
X0226644Y0072483D01*
X0226615Y0072535D01*
X0226588Y0072590D01*
X0226565Y0072645D01*
X0226545Y0072702D01*
X0226529Y0072761D01*
X0226516Y0072820D01*
X0226507Y0072879D01*
X0226502Y0072940D01*
X0226500Y0073000D01*
X0231500Y0080000D02*
X0231500Y0080500D01*
X0231500Y0082500D02*
X0231500Y0083000D01*
X0241500Y0085500D02*
X0241626Y0085498D01*
X0241751Y0085492D01*
X0241876Y0085482D01*
X0242001Y0085468D01*
X0242126Y0085451D01*
X0242250Y0085429D01*
X0242373Y0085404D01*
X0242495Y0085374D01*
X0242616Y0085341D01*
X0242736Y0085304D01*
X0242855Y0085264D01*
X0242972Y0085219D01*
X0243089Y0085171D01*
X0243203Y0085119D01*
X0243316Y0085064D01*
X0243427Y0085005D01*
X0243536Y0084943D01*
X0243643Y0084877D01*
X0243748Y0084808D01*
X0243851Y0084736D01*
X0243952Y0084661D01*
X0244050Y0084582D01*
X0244145Y0084500D01*
X0244238Y0084416D01*
X0244328Y0084328D01*
X0244416Y0084238D01*
X0244500Y0084145D01*
X0244582Y0084050D01*
X0244661Y0083952D01*
X0244736Y0083851D01*
X0244808Y0083748D01*
X0244877Y0083643D01*
X0244943Y0083536D01*
X0245005Y0083427D01*
X0245064Y0083316D01*
X0245119Y0083203D01*
X0245171Y0083089D01*
X0245219Y0082972D01*
X0245264Y0082855D01*
X0245304Y0082736D01*
X0245341Y0082616D01*
X0245374Y0082495D01*
X0245404Y0082373D01*
X0245429Y0082250D01*
X0245451Y0082126D01*
X0245468Y0082001D01*
X0245482Y0081876D01*
X0245492Y0081751D01*
X0245498Y0081626D01*
X0245500Y0081500D01*
X0245498Y0081374D01*
X0245492Y0081249D01*
X0245482Y0081124D01*
X0245468Y0080999D01*
X0245451Y0080874D01*
X0245429Y0080750D01*
X0245404Y0080627D01*
X0245374Y0080505D01*
X0245341Y0080384D01*
X0245304Y0080264D01*
X0245264Y0080145D01*
X0245219Y0080028D01*
X0245171Y0079911D01*
X0245119Y0079797D01*
X0245064Y0079684D01*
X0245005Y0079573D01*
X0244943Y0079464D01*
X0244877Y0079357D01*
X0244808Y0079252D01*
X0244736Y0079149D01*
X0244661Y0079048D01*
X0244582Y0078950D01*
X0244500Y0078855D01*
X0244416Y0078762D01*
X0244328Y0078672D01*
X0244238Y0078584D01*
X0244145Y0078500D01*
X0244050Y0078418D01*
X0243952Y0078339D01*
X0243851Y0078264D01*
X0243748Y0078192D01*
X0243643Y0078123D01*
X0243536Y0078057D01*
X0243427Y0077995D01*
X0243316Y0077936D01*
X0243203Y0077881D01*
X0243089Y0077829D01*
X0242972Y0077781D01*
X0242855Y0077736D01*
X0242736Y0077696D01*
X0242616Y0077659D01*
X0242495Y0077626D01*
X0242373Y0077596D01*
X0242250Y0077571D01*
X0242126Y0077549D01*
X0242001Y0077532D01*
X0241876Y0077518D01*
X0241751Y0077508D01*
X0241626Y0077502D01*
X0241500Y0077500D01*
X0241500Y0070000D01*
X0281500Y0070000D01*
X0281500Y0093000D01*
X0241500Y0093000D01*
X0241500Y0085500D01*
X0241500Y0045000D02*
X0242500Y0045000D01*
X0242560Y0044998D01*
X0242621Y0044993D01*
X0242680Y0044984D01*
X0242739Y0044971D01*
X0242798Y0044955D01*
X0242855Y0044935D01*
X0242910Y0044912D01*
X0242965Y0044885D01*
X0243017Y0044856D01*
X0243068Y0044823D01*
X0243117Y0044787D01*
X0243163Y0044749D01*
X0243207Y0044707D01*
X0243249Y0044663D01*
X0243287Y0044617D01*
X0243323Y0044568D01*
X0243356Y0044517D01*
X0243385Y0044465D01*
X0243412Y0044410D01*
X0243435Y0044355D01*
X0243455Y0044298D01*
X0243471Y0044239D01*
X0243484Y0044180D01*
X0243493Y0044121D01*
X0243498Y0044060D01*
X0243500Y0044000D01*
X0241500Y0045000D02*
X0241000Y0044500D01*
X0232000Y0044500D01*
X0231500Y0045000D01*
X0230500Y0045000D01*
X0230440Y0044998D01*
X0230379Y0044993D01*
X0230320Y0044984D01*
X0230261Y0044971D01*
X0230202Y0044955D01*
X0230145Y0044935D01*
X0230090Y0044912D01*
X0230035Y0044885D01*
X0229983Y0044856D01*
X0229932Y0044823D01*
X0229883Y0044787D01*
X0229837Y0044749D01*
X0229793Y0044707D01*
X0229751Y0044663D01*
X0229713Y0044617D01*
X0229677Y0044568D01*
X0229644Y0044517D01*
X0229615Y0044465D01*
X0229588Y0044410D01*
X0229565Y0044355D01*
X0229545Y0044298D01*
X0229529Y0044239D01*
X0229516Y0044180D01*
X0229507Y0044121D01*
X0229502Y0044060D01*
X0229500Y0044000D01*
X0229500Y0039000D02*
X0229502Y0038940D01*
X0229507Y0038879D01*
X0229516Y0038820D01*
X0229529Y0038761D01*
X0229545Y0038702D01*
X0229565Y0038645D01*
X0229588Y0038590D01*
X0229615Y0038535D01*
X0229644Y0038483D01*
X0229677Y0038432D01*
X0229713Y0038383D01*
X0229751Y0038337D01*
X0229793Y0038293D01*
X0229837Y0038251D01*
X0229883Y0038213D01*
X0229932Y0038177D01*
X0229983Y0038144D01*
X0230035Y0038115D01*
X0230090Y0038088D01*
X0230145Y0038065D01*
X0230202Y0038045D01*
X0230261Y0038029D01*
X0230320Y0038016D01*
X0230379Y0038007D01*
X0230440Y0038002D01*
X0230500Y0038000D01*
X0231500Y0038000D01*
X0232000Y0038500D01*
X0241000Y0038500D01*
X0241500Y0038000D01*
X0242500Y0038000D01*
X0242560Y0038002D01*
X0242621Y0038007D01*
X0242680Y0038016D01*
X0242739Y0038029D01*
X0242798Y0038045D01*
X0242855Y0038065D01*
X0242910Y0038088D01*
X0242965Y0038115D01*
X0243017Y0038144D01*
X0243068Y0038177D01*
X0243117Y0038213D01*
X0243163Y0038251D01*
X0243207Y0038293D01*
X0243249Y0038337D01*
X0243287Y0038383D01*
X0243323Y0038432D01*
X0243356Y0038483D01*
X0243385Y0038535D01*
X0243412Y0038590D01*
X0243435Y0038645D01*
X0243455Y0038702D01*
X0243471Y0038761D01*
X0243484Y0038820D01*
X0243493Y0038879D01*
X0243498Y0038940D01*
X0243500Y0039000D01*
X0242500Y0030000D02*
X0241500Y0030000D01*
X0241000Y0029500D01*
X0232000Y0029500D01*
X0231500Y0030000D01*
X0230500Y0030000D01*
X0230440Y0029998D01*
X0230379Y0029993D01*
X0230320Y0029984D01*
X0230261Y0029971D01*
X0230202Y0029955D01*
X0230145Y0029935D01*
X0230090Y0029912D01*
X0230035Y0029885D01*
X0229983Y0029856D01*
X0229932Y0029823D01*
X0229883Y0029787D01*
X0229837Y0029749D01*
X0229793Y0029707D01*
X0229751Y0029663D01*
X0229713Y0029617D01*
X0229677Y0029568D01*
X0229644Y0029517D01*
X0229615Y0029465D01*
X0229588Y0029410D01*
X0229565Y0029355D01*
X0229545Y0029298D01*
X0229529Y0029239D01*
X0229516Y0029180D01*
X0229507Y0029121D01*
X0229502Y0029060D01*
X0229500Y0029000D01*
X0229500Y0024000D02*
X0229502Y0023940D01*
X0229507Y0023879D01*
X0229516Y0023820D01*
X0229529Y0023761D01*
X0229545Y0023702D01*
X0229565Y0023645D01*
X0229588Y0023590D01*
X0229615Y0023535D01*
X0229644Y0023483D01*
X0229677Y0023432D01*
X0229713Y0023383D01*
X0229751Y0023337D01*
X0229793Y0023293D01*
X0229837Y0023251D01*
X0229883Y0023213D01*
X0229932Y0023177D01*
X0229983Y0023144D01*
X0230035Y0023115D01*
X0230090Y0023088D01*
X0230145Y0023065D01*
X0230202Y0023045D01*
X0230261Y0023029D01*
X0230320Y0023016D01*
X0230379Y0023007D01*
X0230440Y0023002D01*
X0230500Y0023000D01*
X0231500Y0023000D01*
X0232000Y0023500D01*
X0241000Y0023500D01*
X0241500Y0023000D01*
X0242500Y0023000D01*
X0242560Y0023002D01*
X0242621Y0023007D01*
X0242680Y0023016D01*
X0242739Y0023029D01*
X0242798Y0023045D01*
X0242855Y0023065D01*
X0242910Y0023088D01*
X0242965Y0023115D01*
X0243017Y0023144D01*
X0243068Y0023177D01*
X0243117Y0023213D01*
X0243163Y0023251D01*
X0243207Y0023293D01*
X0243249Y0023337D01*
X0243287Y0023383D01*
X0243323Y0023432D01*
X0243356Y0023483D01*
X0243385Y0023535D01*
X0243412Y0023590D01*
X0243435Y0023645D01*
X0243455Y0023702D01*
X0243471Y0023761D01*
X0243484Y0023820D01*
X0243493Y0023879D01*
X0243498Y0023940D01*
X0243500Y0024000D01*
X0243500Y0029000D02*
X0243498Y0029060D01*
X0243493Y0029121D01*
X0243484Y0029180D01*
X0243471Y0029239D01*
X0243455Y0029298D01*
X0243435Y0029355D01*
X0243412Y0029410D01*
X0243385Y0029465D01*
X0243356Y0029517D01*
X0243323Y0029568D01*
X0243287Y0029617D01*
X0243249Y0029663D01*
X0243207Y0029707D01*
X0243163Y0029749D01*
X0243117Y0029787D01*
X0243068Y0029823D01*
X0243017Y0029856D01*
X0242965Y0029885D01*
X0242910Y0029912D01*
X0242855Y0029935D01*
X0242798Y0029955D01*
X0242739Y0029971D01*
X0242680Y0029984D01*
X0242621Y0029993D01*
X0242560Y0029998D01*
X0242500Y0030000D01*
D13*
X0234500Y0080500D02*
X0231500Y0080500D01*
X0228500Y0080500D01*
X0228500Y0082500D02*
X0231500Y0082500D01*
X0234500Y0082500D01*
X0129020Y0014807D02*
X0134020Y0004807D01*
X0124020Y0004807D01*
X0129020Y0014807D01*
X0084500Y0115500D02*
X0081500Y0115500D01*
X0078500Y0115500D01*
X0078500Y0117500D02*
X0081500Y0117500D01*
X0084500Y0117500D01*
X0084500Y0145500D02*
X0081500Y0145500D01*
X0078500Y0145500D01*
X0078500Y0147500D02*
X0081500Y0147500D01*
X0084500Y0147500D01*
X0168500Y0200500D02*
X0171500Y0200500D01*
X0174500Y0200500D01*
X0174500Y0202500D02*
X0171500Y0202500D01*
X0168500Y0202500D01*
D14*
X0160319Y0215319D02*
X0160319Y0187524D01*
X0112681Y0187524D01*
X0112681Y0215319D01*
X0160319Y0215319D01*
X0164098Y0227484D02*
X0164098Y0233783D01*
X0164098Y0227484D02*
X0166657Y0227484D01*
X0166657Y0257406D01*
X0143429Y0257406D01*
X0143429Y0227484D01*
X0145988Y0227484D01*
X0145988Y0233783D01*
X0140476Y0233783D02*
X0140476Y0227484D01*
X0143035Y0227484D01*
X0143035Y0257406D01*
X0104059Y0257406D01*
X0104059Y0227484D01*
X0106618Y0227484D01*
X0106618Y0233783D01*
X0101106Y0233783D02*
X0101106Y0227484D01*
X0103665Y0227484D01*
X0103665Y0257406D01*
X0080437Y0257406D01*
X0080437Y0227484D01*
X0082996Y0227484D01*
X0082996Y0233783D01*
X0103500Y0211500D02*
X0106500Y0211500D01*
X0106500Y0212500D01*
X0106500Y0211500D02*
X0109500Y0211500D01*
X0109500Y0191500D01*
X0106500Y0191500D01*
X0106500Y0190500D01*
X0106500Y0191500D02*
X0103500Y0191500D01*
X0103500Y0211500D01*
X0104000Y0209000D02*
X0109000Y0209000D01*
X0186736Y0227484D02*
X0189295Y0227484D01*
X0189295Y0233783D01*
X0186736Y0227484D02*
X0186736Y0257406D01*
X0225713Y0257406D01*
X0225713Y0227484D01*
X0223154Y0227484D01*
X0223154Y0233783D01*
X0228665Y0233783D02*
X0228665Y0227484D01*
X0226106Y0227484D01*
X0226106Y0257406D01*
X0249335Y0257406D01*
X0249335Y0227484D01*
X0246776Y0227484D01*
X0246776Y0233783D01*
X0255043Y0228665D02*
X0255043Y0226106D01*
X0284965Y0226106D01*
X0284965Y0257209D01*
X0255043Y0257209D01*
X0255043Y0254650D01*
X0261343Y0254650D01*
X0261343Y0228665D02*
X0255043Y0228665D01*
X0216500Y0093500D02*
X0215500Y0093500D01*
X0216500Y0093500D02*
X0216500Y0069500D01*
X0215500Y0069500D01*
X0221500Y0054500D02*
X0221500Y0051500D01*
X0220500Y0051500D01*
X0221500Y0051500D02*
X0221500Y0048500D01*
X0241500Y0048500D01*
X0241500Y0051500D01*
X0242500Y0051500D01*
X0241500Y0051500D02*
X0241500Y0054500D01*
X0221500Y0054500D01*
X0213902Y0041854D02*
X0202287Y0041854D01*
X0202287Y0039886D01*
X0194413Y0039886D01*
X0194413Y0041854D01*
X0182799Y0041854D01*
X0182799Y0024138D01*
X0213902Y0024138D01*
X0213902Y0041854D01*
X0239000Y0049000D02*
X0239000Y0054000D01*
X0255043Y0052484D02*
X0255043Y0049925D01*
X0261343Y0049925D01*
X0255043Y0052484D02*
X0284965Y0052484D01*
X0284965Y0029256D01*
X0255043Y0029256D01*
X0255043Y0031815D01*
X0261343Y0031815D01*
X0077500Y0069500D02*
X0076500Y0069500D01*
X0076500Y0076500D01*
X0076640Y0076502D01*
X0076780Y0076508D01*
X0076920Y0076518D01*
X0077060Y0076531D01*
X0077199Y0076549D01*
X0077338Y0076571D01*
X0077475Y0076596D01*
X0077613Y0076625D01*
X0077749Y0076658D01*
X0077884Y0076695D01*
X0078018Y0076736D01*
X0078151Y0076781D01*
X0078283Y0076829D01*
X0078413Y0076881D01*
X0078542Y0076936D01*
X0078669Y0076995D01*
X0078795Y0077058D01*
X0078919Y0077124D01*
X0079040Y0077193D01*
X0079160Y0077266D01*
X0079278Y0077343D01*
X0079393Y0077422D01*
X0079507Y0077505D01*
X0079617Y0077591D01*
X0079726Y0077680D01*
X0079832Y0077772D01*
X0079935Y0077867D01*
X0080036Y0077964D01*
X0080133Y0078065D01*
X0080228Y0078168D01*
X0080320Y0078274D01*
X0080409Y0078383D01*
X0080495Y0078493D01*
X0080578Y0078607D01*
X0080657Y0078722D01*
X0080734Y0078840D01*
X0080807Y0078960D01*
X0080876Y0079081D01*
X0080942Y0079205D01*
X0081005Y0079331D01*
X0081064Y0079458D01*
X0081119Y0079587D01*
X0081171Y0079717D01*
X0081219Y0079849D01*
X0081264Y0079982D01*
X0081305Y0080116D01*
X0081342Y0080251D01*
X0081375Y0080387D01*
X0081404Y0080525D01*
X0081429Y0080662D01*
X0081451Y0080801D01*
X0081469Y0080940D01*
X0081482Y0081080D01*
X0081492Y0081220D01*
X0081498Y0081360D01*
X0081500Y0081500D01*
X0081498Y0081640D01*
X0081492Y0081780D01*
X0081482Y0081920D01*
X0081469Y0082060D01*
X0081451Y0082199D01*
X0081429Y0082338D01*
X0081404Y0082475D01*
X0081375Y0082613D01*
X0081342Y0082749D01*
X0081305Y0082884D01*
X0081264Y0083018D01*
X0081219Y0083151D01*
X0081171Y0083283D01*
X0081119Y0083413D01*
X0081064Y0083542D01*
X0081005Y0083669D01*
X0080942Y0083795D01*
X0080876Y0083919D01*
X0080807Y0084040D01*
X0080734Y0084160D01*
X0080657Y0084278D01*
X0080578Y0084393D01*
X0080495Y0084507D01*
X0080409Y0084617D01*
X0080320Y0084726D01*
X0080228Y0084832D01*
X0080133Y0084935D01*
X0080036Y0085036D01*
X0079935Y0085133D01*
X0079832Y0085228D01*
X0079726Y0085320D01*
X0079617Y0085409D01*
X0079507Y0085495D01*
X0079393Y0085578D01*
X0079278Y0085657D01*
X0079160Y0085734D01*
X0079040Y0085807D01*
X0078919Y0085876D01*
X0078795Y0085942D01*
X0078669Y0086005D01*
X0078542Y0086064D01*
X0078413Y0086119D01*
X0078283Y0086171D01*
X0078151Y0086219D01*
X0078018Y0086264D01*
X0077884Y0086305D01*
X0077749Y0086342D01*
X0077613Y0086375D01*
X0077475Y0086404D01*
X0077338Y0086429D01*
X0077199Y0086451D01*
X0077060Y0086469D01*
X0076920Y0086482D01*
X0076780Y0086492D01*
X0076640Y0086498D01*
X0076500Y0086500D01*
X0076500Y0093500D01*
X0077500Y0093500D01*
D15*
X0039020Y0036807D02*
X0039020Y0001807D01*
X0072520Y0001807D01*
X0072520Y0030307D01*
X0072520Y0036807D01*
X0071520Y0036807D01*
X0072520Y0036807D02*
X0076520Y0036807D01*
X0081520Y0036807D02*
X0086520Y0036807D01*
X0091520Y0036807D02*
X0096520Y0036807D01*
X0101520Y0036807D02*
X0105520Y0036807D01*
X0105520Y0030307D01*
X0105520Y0001807D01*
X0102520Y0001807D01*
X0085520Y0001807D01*
X0072520Y0001807D01*
X0068020Y0001807D02*
X0068020Y0005807D01*
X0060020Y0005807D01*
X0060020Y0001807D01*
X0055520Y0001807D02*
X0055520Y0030307D01*
X0055520Y0036807D01*
X0056520Y0036807D01*
X0055520Y0036807D02*
X0047520Y0036807D01*
X0047520Y0039307D01*
X0043520Y0039307D01*
X0043520Y0036807D01*
X0047520Y0036807D01*
X0043520Y0036807D02*
X0039020Y0036807D01*
X0041520Y0027307D02*
X0041520Y0012307D01*
X0052520Y0012307D01*
X0052520Y0027307D01*
X0041520Y0027307D01*
X0055520Y0030307D02*
X0061020Y0030307D01*
X0061020Y0027307D01*
X0067020Y0027307D01*
X0067020Y0030307D01*
X0072520Y0030307D01*
X0067020Y0027307D02*
X0067020Y0021307D01*
X0067018Y0021199D01*
X0067012Y0021091D01*
X0067002Y0020983D01*
X0066989Y0020875D01*
X0066971Y0020768D01*
X0066950Y0020662D01*
X0066925Y0020557D01*
X0066896Y0020452D01*
X0066863Y0020349D01*
X0066827Y0020247D01*
X0066786Y0020146D01*
X0066743Y0020047D01*
X0066695Y0019950D01*
X0066645Y0019854D01*
X0066591Y0019760D01*
X0066533Y0019669D01*
X0066472Y0019579D01*
X0066408Y0019491D01*
X0066341Y0019406D01*
X0066271Y0019324D01*
X0066198Y0019244D01*
X0066122Y0019167D01*
X0066043Y0019092D01*
X0065962Y0019021D01*
X0065878Y0018952D01*
X0065792Y0018886D01*
X0065704Y0018824D01*
X0065613Y0018765D01*
X0065520Y0018709D01*
X0065425Y0018656D01*
X0065329Y0018607D01*
X0065230Y0018562D01*
X0065130Y0018520D01*
X0065029Y0018482D01*
X0064926Y0018447D01*
X0064823Y0018416D01*
X0064718Y0018389D01*
X0064612Y0018366D01*
X0064505Y0018347D01*
X0064398Y0018331D01*
X0064290Y0018319D01*
X0064182Y0018311D01*
X0064074Y0018307D01*
X0063966Y0018307D01*
X0063858Y0018311D01*
X0063750Y0018319D01*
X0063642Y0018331D01*
X0063535Y0018347D01*
X0063428Y0018366D01*
X0063322Y0018389D01*
X0063217Y0018416D01*
X0063114Y0018447D01*
X0063011Y0018482D01*
X0062910Y0018520D01*
X0062810Y0018562D01*
X0062711Y0018607D01*
X0062615Y0018656D01*
X0062520Y0018709D01*
X0062427Y0018765D01*
X0062336Y0018824D01*
X0062248Y0018886D01*
X0062162Y0018952D01*
X0062078Y0019021D01*
X0061997Y0019092D01*
X0061918Y0019167D01*
X0061842Y0019244D01*
X0061769Y0019324D01*
X0061699Y0019406D01*
X0061632Y0019491D01*
X0061568Y0019579D01*
X0061507Y0019669D01*
X0061449Y0019760D01*
X0061395Y0019854D01*
X0061345Y0019950D01*
X0061297Y0020047D01*
X0061254Y0020146D01*
X0061213Y0020247D01*
X0061177Y0020349D01*
X0061144Y0020452D01*
X0061115Y0020557D01*
X0061090Y0020662D01*
X0061069Y0020768D01*
X0061051Y0020875D01*
X0061038Y0020983D01*
X0061028Y0021091D01*
X0061022Y0021199D01*
X0061020Y0021307D01*
X0061020Y0027307D01*
X0061520Y0036807D02*
X0066520Y0036807D01*
X0085520Y0031307D02*
X0085520Y0027307D01*
X0102520Y0027307D01*
X0102520Y0031307D01*
X0085520Y0031307D01*
X0085520Y0027307D02*
X0085520Y0001807D01*
X0102520Y0001807D02*
X0102520Y0027307D01*
X0105520Y0030307D02*
X0111020Y0030307D01*
X0111020Y0027307D01*
X0111020Y0021307D01*
X0111022Y0021199D01*
X0111028Y0021091D01*
X0111038Y0020983D01*
X0111051Y0020875D01*
X0111069Y0020768D01*
X0111090Y0020662D01*
X0111115Y0020557D01*
X0111144Y0020452D01*
X0111177Y0020349D01*
X0111213Y0020247D01*
X0111254Y0020146D01*
X0111297Y0020047D01*
X0111345Y0019950D01*
X0111395Y0019854D01*
X0111449Y0019760D01*
X0111507Y0019669D01*
X0111568Y0019579D01*
X0111632Y0019491D01*
X0111699Y0019406D01*
X0111769Y0019324D01*
X0111842Y0019244D01*
X0111918Y0019167D01*
X0111997Y0019092D01*
X0112078Y0019021D01*
X0112162Y0018952D01*
X0112248Y0018886D01*
X0112336Y0018824D01*
X0112427Y0018765D01*
X0112520Y0018709D01*
X0112615Y0018656D01*
X0112711Y0018607D01*
X0112810Y0018562D01*
X0112910Y0018520D01*
X0113011Y0018482D01*
X0113114Y0018447D01*
X0113217Y0018416D01*
X0113322Y0018389D01*
X0113428Y0018366D01*
X0113535Y0018347D01*
X0113642Y0018331D01*
X0113750Y0018319D01*
X0113858Y0018311D01*
X0113966Y0018307D01*
X0114074Y0018307D01*
X0114182Y0018311D01*
X0114290Y0018319D01*
X0114398Y0018331D01*
X0114505Y0018347D01*
X0114612Y0018366D01*
X0114718Y0018389D01*
X0114823Y0018416D01*
X0114926Y0018447D01*
X0115029Y0018482D01*
X0115130Y0018520D01*
X0115230Y0018562D01*
X0115329Y0018607D01*
X0115425Y0018656D01*
X0115520Y0018709D01*
X0115613Y0018765D01*
X0115704Y0018824D01*
X0115792Y0018886D01*
X0115878Y0018952D01*
X0115962Y0019021D01*
X0116043Y0019092D01*
X0116122Y0019167D01*
X0116198Y0019244D01*
X0116271Y0019324D01*
X0116341Y0019406D01*
X0116408Y0019491D01*
X0116472Y0019579D01*
X0116533Y0019669D01*
X0116591Y0019760D01*
X0116645Y0019854D01*
X0116695Y0019950D01*
X0116743Y0020047D01*
X0116786Y0020146D01*
X0116827Y0020247D01*
X0116863Y0020349D01*
X0116896Y0020452D01*
X0116925Y0020557D01*
X0116950Y0020662D01*
X0116971Y0020768D01*
X0116989Y0020875D01*
X0117002Y0020983D01*
X0117012Y0021091D01*
X0117018Y0021199D01*
X0117020Y0021307D01*
X0117020Y0027307D01*
X0111020Y0027307D01*
X0117020Y0027307D02*
X0117020Y0030307D01*
X0122520Y0030307D01*
X0122520Y0001807D01*
X0149020Y0001807D01*
X0149020Y0036807D01*
X0144520Y0036807D01*
X0144520Y0039307D01*
X0140520Y0039307D01*
X0140520Y0036807D01*
X0131520Y0036807D01*
X0132966Y0038157D02*
X0135968Y0041160D01*
X0135968Y0041910D01*
X0135218Y0042661D01*
X0133716Y0042661D01*
X0132966Y0041910D01*
X0132966Y0038157D02*
X0135968Y0038157D01*
X0140520Y0036807D02*
X0144520Y0036807D01*
X0135868Y0046657D02*
X0132866Y0046657D01*
X0134367Y0046657D02*
X0134367Y0051161D01*
X0132866Y0049660D01*
X0126520Y0036807D02*
X0122520Y0036807D01*
X0121520Y0036807D01*
X0122520Y0036807D02*
X0122520Y0030307D01*
X0116520Y0036807D02*
X0111520Y0036807D01*
X0106520Y0036807D02*
X0105520Y0036807D01*
X0110020Y0005807D02*
X0110020Y0001807D01*
X0105520Y0001807D01*
X0110020Y0001807D02*
X0118020Y0001807D01*
X0118020Y0005807D01*
X0110020Y0005807D01*
X0118020Y0001807D02*
X0122520Y0001807D01*
X0060555Y0072366D02*
X0060555Y0214098D01*
X0001500Y0214098D01*
X0001500Y0072366D01*
X0060555Y0072366D01*
X0091500Y0110500D02*
X0281500Y0110500D01*
X0281500Y0182500D01*
X0091500Y0182500D01*
X0091500Y0110500D01*
X0075000Y0193252D02*
X0075000Y0209748D01*
X0081000Y0207028D02*
X0081000Y0205972D01*
X0077028Y0211002D02*
X0076813Y0210898D01*
X0076600Y0210789D01*
X0076390Y0210675D01*
X0076183Y0210556D01*
X0075978Y0210433D01*
X0075776Y0210305D01*
X0075577Y0210172D01*
X0075382Y0210035D01*
X0075189Y0209894D01*
X0075000Y0209748D01*
X0085972Y0211000D02*
X0086202Y0210888D01*
X0086429Y0210771D01*
X0086653Y0210649D01*
X0086874Y0210521D01*
X0087091Y0210387D01*
X0087306Y0210249D01*
X0087517Y0210105D01*
X0087724Y0209956D01*
X0087928Y0209802D01*
X0088128Y0209644D01*
X0088324Y0209480D01*
X0088516Y0209312D01*
X0088704Y0209139D01*
X0088888Y0208961D01*
X0089067Y0208780D01*
X0089242Y0208593D01*
X0089412Y0208403D01*
X0089577Y0208209D01*
X0089738Y0208010D01*
X0089894Y0207808D01*
X0090045Y0207602D01*
X0090191Y0207392D01*
X0090331Y0207179D01*
X0090467Y0206963D01*
X0090597Y0206743D01*
X0090722Y0206520D01*
X0090841Y0206295D01*
X0090955Y0206066D01*
X0091063Y0205835D01*
X0091166Y0205601D01*
X0091263Y0205365D01*
X0091354Y0205126D01*
X0091439Y0204886D01*
X0091519Y0204643D01*
X0091592Y0204398D01*
X0091660Y0204152D01*
X0091721Y0203904D01*
X0091776Y0203655D01*
X0091826Y0203405D01*
X0091869Y0203153D01*
X0091906Y0202900D01*
X0091937Y0202647D01*
X0091962Y0202393D01*
X0091981Y0202138D01*
X0091993Y0201883D01*
X0091999Y0201628D01*
X0091999Y0201372D01*
X0091993Y0201117D01*
X0091981Y0200862D01*
X0091962Y0200607D01*
X0091937Y0200353D01*
X0091906Y0200100D01*
X0091869Y0199847D01*
X0091826Y0199595D01*
X0091776Y0199345D01*
X0091721Y0199096D01*
X0091660Y0198848D01*
X0091592Y0198602D01*
X0091519Y0198357D01*
X0091439Y0198114D01*
X0091354Y0197874D01*
X0091263Y0197635D01*
X0091166Y0197399D01*
X0091063Y0197165D01*
X0090955Y0196934D01*
X0090841Y0196705D01*
X0090722Y0196480D01*
X0090597Y0196257D01*
X0090467Y0196037D01*
X0090331Y0195821D01*
X0090191Y0195608D01*
X0090045Y0195398D01*
X0089894Y0195192D01*
X0089738Y0194990D01*
X0089577Y0194791D01*
X0089412Y0194597D01*
X0089242Y0194407D01*
X0089067Y0194220D01*
X0088888Y0194039D01*
X0088704Y0193861D01*
X0088516Y0193688D01*
X0088324Y0193520D01*
X0088128Y0193356D01*
X0087928Y0193198D01*
X0087724Y0193044D01*
X0087517Y0192895D01*
X0087306Y0192751D01*
X0087091Y0192613D01*
X0086874Y0192479D01*
X0086653Y0192351D01*
X0086429Y0192229D01*
X0086202Y0192112D01*
X0085972Y0192000D01*
X0081000Y0195972D02*
X0081000Y0197028D01*
X0077122Y0191954D02*
X0076897Y0192061D01*
X0076674Y0192173D01*
X0076454Y0192290D01*
X0076237Y0192412D01*
X0076022Y0192540D01*
X0075811Y0192673D01*
X0075603Y0192810D01*
X0075399Y0192953D01*
X0075197Y0193100D01*
X0075000Y0193252D01*
X0104540Y0221750D02*
X0105491Y0221750D01*
X0105808Y0222067D01*
X0105808Y0223335D01*
X0105491Y0223652D01*
X0104540Y0223652D01*
X0104540Y0221750D01*
X0106750Y0221750D02*
X0108018Y0223018D01*
X0108018Y0223335D01*
X0107701Y0223652D01*
X0107067Y0223652D01*
X0106750Y0223335D01*
X0106750Y0221750D02*
X0108018Y0221750D01*
X0118273Y0245844D02*
X0118273Y0247746D01*
X0119540Y0247746D01*
X0120482Y0247746D02*
X0120482Y0245844D01*
X0120482Y0246478D02*
X0121433Y0246478D01*
X0121750Y0246795D01*
X0121750Y0247429D01*
X0121433Y0247746D01*
X0120482Y0247746D01*
X0121116Y0246478D02*
X0121750Y0245844D01*
X0122692Y0246161D02*
X0123009Y0245844D01*
X0123643Y0245844D01*
X0123960Y0246161D01*
X0123960Y0247429D01*
X0123643Y0247746D01*
X0123009Y0247746D01*
X0122692Y0247429D01*
X0122692Y0246161D01*
X0124902Y0245844D02*
X0124902Y0247746D01*
X0126170Y0245844D01*
X0126170Y0247746D01*
X0127112Y0247746D02*
X0128380Y0247746D01*
X0127746Y0247746D02*
X0127746Y0245844D01*
X0118906Y0246795D02*
X0118273Y0246795D01*
X0097989Y0246478D02*
X0097989Y0247746D01*
X0097989Y0246478D02*
X0097355Y0245844D01*
X0096721Y0246478D01*
X0096721Y0247746D01*
X0095779Y0247429D02*
X0095462Y0247746D01*
X0094828Y0247746D01*
X0094511Y0247429D01*
X0095779Y0247429D02*
X0095779Y0247112D01*
X0094511Y0245844D01*
X0095779Y0245844D01*
X0093569Y0245844D02*
X0092301Y0245844D01*
X0092935Y0245844D02*
X0092935Y0247746D01*
X0092301Y0247112D01*
X0091359Y0246795D02*
X0091042Y0246478D01*
X0090091Y0246478D01*
X0090091Y0245844D02*
X0090091Y0247746D01*
X0091042Y0247746D01*
X0091359Y0247429D01*
X0091359Y0246795D01*
X0090725Y0246478D02*
X0091359Y0245844D01*
X0089149Y0245844D02*
X0089149Y0247746D01*
X0087881Y0247746D02*
X0087881Y0245844D01*
X0088515Y0246478D01*
X0089149Y0245844D01*
X0086939Y0246795D02*
X0086622Y0246478D01*
X0085672Y0246478D01*
X0085672Y0245844D02*
X0085672Y0247746D01*
X0086622Y0247746D01*
X0086939Y0247429D01*
X0086939Y0246795D01*
X0149769Y0246478D02*
X0150719Y0246478D01*
X0151036Y0246795D01*
X0151036Y0247429D01*
X0150719Y0247746D01*
X0149769Y0247746D01*
X0149769Y0245844D01*
X0150402Y0246478D02*
X0151036Y0245844D01*
X0151978Y0245844D02*
X0151978Y0247746D01*
X0153246Y0247746D01*
X0154188Y0247746D02*
X0154188Y0245844D01*
X0155456Y0245844D01*
X0156398Y0245844D02*
X0156398Y0247112D01*
X0157032Y0247746D01*
X0157666Y0247112D01*
X0157666Y0245844D01*
X0157666Y0246795D02*
X0156398Y0246795D01*
X0158608Y0247429D02*
X0159242Y0246795D01*
X0159242Y0245844D01*
X0159242Y0246795D02*
X0159876Y0247429D01*
X0159876Y0247746D01*
X0158608Y0247746D02*
X0158608Y0247429D01*
X0153246Y0245844D02*
X0151978Y0245844D01*
X0151978Y0246795D02*
X0152612Y0246795D01*
X0203160Y0245844D02*
X0204427Y0245844D01*
X0205369Y0245844D02*
X0206637Y0245844D01*
X0207579Y0245844D02*
X0208530Y0245844D01*
X0208847Y0246161D01*
X0208847Y0247429D01*
X0208530Y0247746D01*
X0207579Y0247746D01*
X0207579Y0245844D01*
X0206003Y0246795D02*
X0205369Y0246795D01*
X0205369Y0247746D02*
X0205369Y0245844D01*
X0205369Y0247746D02*
X0206637Y0247746D01*
X0203160Y0247746D02*
X0203160Y0245844D01*
X0231341Y0245844D02*
X0232609Y0245844D01*
X0233551Y0245844D02*
X0234818Y0245844D01*
X0235761Y0245844D02*
X0235761Y0247746D01*
X0236711Y0247746D01*
X0237028Y0247429D01*
X0237028Y0246161D01*
X0236711Y0245844D01*
X0235761Y0245844D01*
X0234185Y0246795D02*
X0233551Y0246795D01*
X0233551Y0247746D02*
X0233551Y0245844D01*
X0233551Y0247746D02*
X0234818Y0247746D01*
X0231341Y0247746D02*
X0231341Y0245844D01*
X0237970Y0245844D02*
X0237970Y0247746D01*
X0238921Y0247746D01*
X0239238Y0247429D01*
X0239238Y0246795D01*
X0238921Y0246478D01*
X0237970Y0246478D01*
X0240180Y0245844D02*
X0240180Y0247746D01*
X0241448Y0247746D02*
X0241448Y0245844D01*
X0240814Y0246478D01*
X0240180Y0245844D01*
X0242390Y0245844D02*
X0242390Y0247746D01*
X0243341Y0247746D01*
X0243658Y0247429D01*
X0243658Y0246795D01*
X0243341Y0246478D01*
X0242390Y0246478D01*
X0243024Y0246478D02*
X0243658Y0245844D01*
X0271002Y0245753D02*
X0272587Y0245753D01*
X0272904Y0245436D01*
X0272904Y0244803D01*
X0272587Y0244486D01*
X0271002Y0244486D01*
X0271319Y0243544D02*
X0271002Y0243227D01*
X0271002Y0242593D01*
X0271319Y0242276D01*
X0272587Y0242276D01*
X0272904Y0242593D01*
X0272904Y0243227D01*
X0272587Y0243544D01*
X0271319Y0243544D01*
X0271002Y0241436D02*
X0271002Y0240803D01*
X0271002Y0241119D02*
X0272904Y0241119D01*
X0272904Y0240803D02*
X0272904Y0241436D01*
X0272587Y0239860D02*
X0271319Y0239860D01*
X0271002Y0239543D01*
X0271002Y0238593D01*
X0272904Y0238593D01*
X0272904Y0239543D01*
X0272587Y0239860D01*
X0272904Y0237753D02*
X0272904Y0237119D01*
X0272904Y0237436D02*
X0271002Y0237436D01*
X0271002Y0237119D02*
X0271002Y0237753D01*
X0271002Y0236177D02*
X0272904Y0236177D01*
X0272904Y0234909D02*
X0271002Y0234909D01*
X0271636Y0235543D01*
X0271002Y0236177D01*
X0271002Y0246696D02*
X0271002Y0247963D01*
X0271002Y0247329D02*
X0272904Y0247329D01*
X0232384Y0058652D02*
X0231750Y0058018D01*
X0232384Y0058652D02*
X0232384Y0056750D01*
X0231750Y0056750D02*
X0233018Y0056750D01*
X0230808Y0057067D02*
X0230808Y0058335D01*
X0230491Y0058652D01*
X0229540Y0058652D01*
X0229540Y0056750D01*
X0230491Y0056750D01*
X0230808Y0057067D01*
X0200973Y0019400D02*
X0200339Y0018766D01*
X0199705Y0019400D01*
X0199705Y0017498D01*
X0198763Y0017815D02*
X0198763Y0019083D01*
X0198446Y0019400D01*
X0197812Y0019400D01*
X0197495Y0019083D01*
X0197495Y0017815D01*
X0197812Y0017498D01*
X0198446Y0017498D01*
X0198763Y0017815D01*
X0196553Y0017498D02*
X0195919Y0018132D01*
X0196236Y0018132D02*
X0195286Y0018132D01*
X0195286Y0017498D02*
X0195286Y0019400D01*
X0196236Y0019400D01*
X0196553Y0019083D01*
X0196553Y0018449D01*
X0196236Y0018132D01*
X0200973Y0017498D02*
X0200973Y0019400D01*
X0271002Y0035595D02*
X0271636Y0036229D01*
X0271002Y0036863D01*
X0272904Y0036863D01*
X0272904Y0037805D02*
X0272904Y0038439D01*
X0272904Y0038122D02*
X0271002Y0038122D01*
X0271002Y0037805D02*
X0271002Y0038439D01*
X0271002Y0039278D02*
X0271002Y0040229D01*
X0271319Y0040546D01*
X0272587Y0040546D01*
X0272904Y0040229D01*
X0272904Y0039278D01*
X0271002Y0039278D01*
X0271002Y0041488D02*
X0271002Y0042122D01*
X0271002Y0041805D02*
X0272904Y0041805D01*
X0272904Y0041488D02*
X0272904Y0042122D01*
X0272904Y0042962D02*
X0272904Y0043595D01*
X0272904Y0043279D02*
X0271002Y0043279D01*
X0271002Y0043595D02*
X0271002Y0042962D01*
X0271002Y0044435D02*
X0272904Y0045703D01*
X0271002Y0045703D01*
X0271002Y0044435D02*
X0272904Y0044435D01*
X0272904Y0035595D02*
X0271002Y0035595D01*
D16*
X0099020Y0005307D02*
X0099020Y0004307D01*
X0089020Y0004307D02*
X0089020Y0005307D01*
D17*
X0089020Y0015807D03*
X0099020Y0015807D03*
D18*
X0129020Y0005807D03*
D19*
X0129020Y0007807D03*
D20*
X0129020Y0009807D03*
D21*
X0129020Y0011807D03*
D22*
X0129020Y0013307D03*
D23*
X0129020Y0044807D03*
X0119020Y0044807D03*
X0109020Y0044807D03*
X0099020Y0044807D03*
X0089020Y0044807D03*
X0079020Y0044807D03*
X0069020Y0044807D03*
X0059020Y0044807D03*
M02*
