G75*
%MOIN*%
%OFA0B0*%
%FSLAX25Y25*%
%IPPOS*%
%LPD*%
%AMOC8*
5,1,8,0,0,1.08239X$1,22.5*
%
%ADD10C,0.13398*%
%ADD11OC8,0.05600*%
%ADD12C,0.05600*%
%ADD13C,0.08400*%
%ADD14C,0.08200*%
%ADD15C,0.07099*%
%ADD16C,0.06800*%
%ADD17R,0.05524X0.05524*%
%ADD18C,0.05524*%
%ADD19OC8,0.13398*%
%ADD20C,0.11824*%
D10*
X0013111Y0013111D03*
X0054056Y0085946D03*
X0054056Y0200119D03*
X0013111Y0272954D03*
X0272954Y0272954D03*
X0272954Y0013111D03*
D11*
X0231300Y0046300D03*
X0211300Y0046300D03*
X0231300Y0071300D03*
X0231300Y0081300D03*
X0121300Y0046300D03*
X0121300Y0036300D03*
X0086300Y0106300D03*
X0086300Y0116300D03*
X0136300Y0191300D03*
X0136300Y0201300D03*
X0136300Y0211300D03*
X0136300Y0221300D03*
X0156300Y0221300D03*
X0156300Y0211300D03*
X0156300Y0201300D03*
X0156300Y0191300D03*
X0171300Y0201300D03*
X0171300Y0211300D03*
D12*
X0186300Y0218900D02*
X0186300Y0223700D01*
X0196300Y0223700D02*
X0196300Y0218900D01*
X0206300Y0218900D02*
X0206300Y0223700D01*
X0216300Y0223700D02*
X0216300Y0218900D01*
X0226300Y0218900D02*
X0226300Y0223700D01*
X0236300Y0223700D02*
X0236300Y0218900D01*
X0246300Y0218900D02*
X0246300Y0223700D01*
X0246300Y0193700D02*
X0246300Y0188900D01*
X0236300Y0188900D02*
X0236300Y0193700D01*
X0226300Y0193700D02*
X0226300Y0188900D01*
X0216300Y0188900D02*
X0216300Y0193700D01*
X0206300Y0193700D02*
X0206300Y0188900D01*
X0196300Y0188900D02*
X0196300Y0193700D01*
X0186300Y0193700D02*
X0186300Y0188900D01*
X0246300Y0096100D02*
X0246300Y0091300D01*
X0256300Y0091300D02*
X0256300Y0096100D01*
X0266300Y0096100D02*
X0266300Y0091300D01*
X0276300Y0091300D02*
X0276300Y0096100D01*
X0276300Y0061300D02*
X0276300Y0056500D01*
X0266300Y0056500D02*
X0266300Y0061300D01*
X0256300Y0061300D02*
X0256300Y0056500D01*
X0246300Y0056500D02*
X0246300Y0061300D01*
X0216300Y0058900D02*
X0216300Y0063700D01*
X0206300Y0063700D02*
X0206300Y0058900D01*
X0196300Y0058900D02*
X0196300Y0063700D01*
X0186300Y0063700D02*
X0186300Y0058900D01*
X0176300Y0058900D02*
X0176300Y0063700D01*
X0166300Y0063700D02*
X0166300Y0058900D01*
X0156300Y0058900D02*
X0156300Y0063700D01*
X0146300Y0063700D02*
X0146300Y0058900D01*
X0136300Y0058900D02*
X0136300Y0063700D01*
X0126300Y0063700D02*
X0126300Y0058900D01*
X0116300Y0058900D02*
X0116300Y0063700D01*
X0106300Y0063700D02*
X0106300Y0058900D01*
X0096300Y0058900D02*
X0096300Y0063700D01*
X0086300Y0063700D02*
X0086300Y0058900D01*
X0086300Y0088900D02*
X0086300Y0093700D01*
X0096300Y0093700D02*
X0096300Y0088900D01*
X0106300Y0088900D02*
X0106300Y0093700D01*
X0116300Y0093700D02*
X0116300Y0088900D01*
X0126300Y0088900D02*
X0126300Y0093700D01*
X0136300Y0093700D02*
X0136300Y0088900D01*
X0146300Y0088900D02*
X0146300Y0093700D01*
X0156300Y0093700D02*
X0156300Y0088900D01*
X0166300Y0088900D02*
X0166300Y0093700D01*
X0176300Y0093700D02*
X0176300Y0088900D01*
X0186300Y0088900D02*
X0186300Y0093700D01*
X0196300Y0093700D02*
X0196300Y0088900D01*
X0206300Y0088900D02*
X0206300Y0093700D01*
X0216300Y0093700D02*
X0216300Y0088900D01*
D13*
X0211300Y0111300D03*
X0201300Y0111300D03*
X0191300Y0111300D03*
X0181300Y0111300D03*
X0171300Y0111300D03*
X0161300Y0111300D03*
X0151300Y0111300D03*
X0141300Y0111300D03*
X0131300Y0111300D03*
X0121300Y0111300D03*
X0111300Y0111300D03*
X0111300Y0171300D03*
X0121300Y0171300D03*
X0131300Y0171300D03*
X0141300Y0171300D03*
X0151300Y0171300D03*
X0161300Y0171300D03*
X0171300Y0171300D03*
X0181300Y0171300D03*
X0191300Y0171300D03*
X0201300Y0171300D03*
X0211300Y0171300D03*
X0221300Y0171300D03*
X0231300Y0171300D03*
X0241300Y0171300D03*
X0251300Y0171300D03*
X0261300Y0171300D03*
X0271300Y0171300D03*
X0271300Y0111300D03*
X0261300Y0111300D03*
X0251300Y0111300D03*
X0241300Y0111300D03*
X0231300Y0111300D03*
X0221300Y0111300D03*
D14*
X0211300Y0031300D03*
X0241300Y0031300D03*
D15*
X0261300Y0037363D03*
X0261300Y0045237D03*
X0101300Y0045237D03*
X0101300Y0037363D03*
X0101300Y0229489D03*
X0101300Y0237363D03*
X0101300Y0245237D03*
X0101300Y0253111D03*
X0261300Y0249174D03*
X0261300Y0241300D03*
X0261300Y0233426D03*
D16*
X0268300Y0201300D02*
X0274300Y0201300D01*
X0274300Y0191300D02*
X0268300Y0191300D01*
D17*
X0056418Y0128032D03*
D18*
X0056418Y0138032D03*
X0056418Y0148032D03*
X0056418Y0158032D03*
X0044607Y0153032D03*
X0044607Y0143032D03*
X0044607Y0133032D03*
X0032796Y0128032D03*
X0032796Y0138032D03*
X0032796Y0148032D03*
X0032796Y0158032D03*
X0020985Y0153032D03*
X0020985Y0143032D03*
X0020985Y0133032D03*
D19*
X0020985Y0111654D03*
X0044607Y0111654D03*
X0044607Y0174410D03*
X0020985Y0174410D03*
D20*
X0032796Y0200119D03*
X0032796Y0085946D03*
M02*
