G75*
%MOIN*%
%OFA0B0*%
%FSLAX25Y25*%
%IPPOS*%
%LPD*%
%AMOC8*
5,1,8,0,0,1.08239X$1,22.5*
%
%ADD10C,0.00400*%
%ADD11C,0.00600*%
%ADD12C,0.01000*%
%ADD13C,0.00500*%
%ADD14C,0.00800*%
%ADD15C,0.00200*%
D10*
X0061181Y0170262D02*
X0065785Y0170262D01*
X0065785Y0173332D01*
X0065785Y0174866D02*
X0065785Y0176401D01*
X0065785Y0175633D02*
X0061181Y0175633D01*
X0061181Y0174866D02*
X0061181Y0176401D01*
X0061948Y0177935D02*
X0065018Y0177935D01*
X0065785Y0178703D01*
X0065785Y0180237D01*
X0065018Y0181005D01*
X0063483Y0181005D01*
X0063483Y0179470D01*
X0061948Y0177935D02*
X0061181Y0178703D01*
X0061181Y0180237D01*
X0061948Y0181005D01*
X0061181Y0182539D02*
X0065785Y0182539D01*
X0063483Y0182539D02*
X0063483Y0185609D01*
X0061181Y0185609D02*
X0065785Y0185609D01*
X0065785Y0188678D02*
X0061181Y0188678D01*
X0061181Y0187143D02*
X0061181Y0190213D01*
X0061181Y0191747D02*
X0061181Y0194049D01*
X0061948Y0194816D01*
X0065018Y0194816D01*
X0065785Y0194049D01*
X0065785Y0191747D01*
X0061181Y0191747D01*
X0061181Y0196351D02*
X0061181Y0198653D01*
X0061948Y0199420D01*
X0063483Y0199420D01*
X0064250Y0198653D01*
X0064250Y0196351D01*
X0064250Y0197886D02*
X0065785Y0199420D01*
X0065785Y0200955D02*
X0065785Y0202490D01*
X0065785Y0201722D02*
X0061181Y0201722D01*
X0061181Y0200955D02*
X0061181Y0202490D01*
X0061181Y0204024D02*
X0064250Y0204024D01*
X0065785Y0205559D01*
X0064250Y0207094D01*
X0061181Y0207094D01*
X0061181Y0208628D02*
X0065785Y0208628D01*
X0065785Y0211698D01*
X0063483Y0210163D02*
X0063483Y0208628D01*
X0061181Y0208628D02*
X0061181Y0211698D01*
X0061181Y0196351D02*
X0065785Y0196351D01*
X0123600Y0194603D02*
X0123600Y0191100D01*
X0123600Y0192268D02*
X0125351Y0192268D01*
X0125935Y0192851D01*
X0125935Y0194019D01*
X0125351Y0194603D01*
X0123600Y0194603D01*
X0124768Y0192268D02*
X0125935Y0191100D01*
X0127191Y0192851D02*
X0129526Y0192851D01*
X0128943Y0191100D02*
X0128943Y0194603D01*
X0127191Y0192851D01*
X0127775Y0201100D02*
X0127191Y0201684D01*
X0127775Y0201100D02*
X0128943Y0201100D01*
X0129526Y0201684D01*
X0129526Y0202268D01*
X0128943Y0202851D01*
X0128359Y0202851D01*
X0128943Y0202851D02*
X0129526Y0203435D01*
X0129526Y0204019D01*
X0128943Y0204603D01*
X0127775Y0204603D01*
X0127191Y0204019D01*
X0125935Y0204019D02*
X0125935Y0202851D01*
X0125351Y0202268D01*
X0123600Y0202268D01*
X0124768Y0202268D02*
X0125935Y0201100D01*
X0123600Y0201100D02*
X0123600Y0204603D01*
X0125351Y0204603D01*
X0125935Y0204019D01*
X0125935Y0211100D02*
X0124768Y0212268D01*
X0125351Y0212268D02*
X0123600Y0212268D01*
X0123600Y0211100D02*
X0123600Y0214603D01*
X0125351Y0214603D01*
X0125935Y0214019D01*
X0125935Y0212851D01*
X0125351Y0212268D01*
X0127191Y0211100D02*
X0129526Y0213435D01*
X0129526Y0214019D01*
X0128943Y0214603D01*
X0127775Y0214603D01*
X0127191Y0214019D01*
X0127191Y0211100D02*
X0129526Y0211100D01*
X0129526Y0221100D02*
X0127191Y0221100D01*
X0128359Y0221100D02*
X0128359Y0224603D01*
X0127191Y0223435D01*
X0125935Y0222851D02*
X0125351Y0222268D01*
X0123600Y0222268D01*
X0124768Y0222268D02*
X0125935Y0221100D01*
X0125935Y0222851D02*
X0125935Y0224019D01*
X0125351Y0224603D01*
X0123600Y0224603D01*
X0123600Y0221100D01*
X0112069Y0269965D02*
X0111301Y0269965D01*
X0112069Y0269965D02*
X0112836Y0270733D01*
X0112836Y0274569D01*
X0112836Y0271500D02*
X0110534Y0271500D01*
X0109767Y0272267D01*
X0109767Y0274569D01*
X0108232Y0273802D02*
X0107465Y0274569D01*
X0105163Y0274569D01*
X0105163Y0276104D02*
X0105163Y0271500D01*
X0107465Y0271500D01*
X0108232Y0272267D01*
X0108232Y0273802D01*
X0099024Y0275337D02*
X0099024Y0272267D01*
X0098257Y0271500D01*
X0096722Y0271500D01*
X0095955Y0272267D01*
X0099024Y0275337D01*
X0098257Y0276104D01*
X0096722Y0276104D01*
X0095955Y0275337D01*
X0095955Y0272267D01*
X0094420Y0272267D02*
X0094420Y0271500D01*
X0093653Y0271500D01*
X0093653Y0272267D01*
X0094420Y0272267D01*
X0092118Y0272267D02*
X0091351Y0271500D01*
X0089816Y0271500D01*
X0089049Y0272267D01*
X0092118Y0275337D01*
X0092118Y0272267D01*
X0092118Y0275337D02*
X0091351Y0276104D01*
X0089816Y0276104D01*
X0089049Y0275337D01*
X0089049Y0272267D01*
X0087514Y0272267D02*
X0087514Y0271500D01*
X0086747Y0271500D01*
X0086747Y0272267D01*
X0087514Y0272267D01*
X0085212Y0271500D02*
X0082143Y0271500D01*
X0083678Y0271500D02*
X0083678Y0276104D01*
X0082143Y0274569D01*
X0076005Y0276104D02*
X0074470Y0276104D01*
X0075237Y0276104D02*
X0075237Y0271500D01*
X0074470Y0271500D02*
X0076005Y0271500D01*
X0068331Y0273035D02*
X0065262Y0273035D01*
X0065262Y0273802D02*
X0066029Y0274569D01*
X0067564Y0274569D01*
X0068331Y0273802D01*
X0068331Y0273035D01*
X0067564Y0271500D02*
X0066029Y0271500D01*
X0065262Y0272267D01*
X0065262Y0273802D01*
X0063727Y0271500D02*
X0062193Y0271500D01*
X0062960Y0271500D02*
X0062960Y0276104D01*
X0062193Y0276104D01*
X0059891Y0274569D02*
X0060658Y0273802D01*
X0060658Y0272267D01*
X0059891Y0271500D01*
X0057589Y0271500D01*
X0057589Y0269965D02*
X0057589Y0274569D01*
X0059891Y0274569D01*
X0056054Y0273802D02*
X0056054Y0272267D01*
X0055287Y0271500D01*
X0052985Y0271500D01*
X0052985Y0269965D02*
X0052985Y0274569D01*
X0055287Y0274569D01*
X0056054Y0273802D01*
X0051450Y0273802D02*
X0051450Y0271500D01*
X0049148Y0271500D01*
X0048381Y0272267D01*
X0049148Y0273035D01*
X0051450Y0273035D01*
X0051450Y0273802D02*
X0050683Y0274569D01*
X0049148Y0274569D01*
X0046846Y0273802D02*
X0046846Y0273035D01*
X0043777Y0273035D01*
X0043777Y0273802D02*
X0044544Y0274569D01*
X0046079Y0274569D01*
X0046846Y0273802D01*
X0046079Y0271500D02*
X0044544Y0271500D01*
X0043777Y0272267D01*
X0043777Y0273802D01*
X0042242Y0273802D02*
X0042242Y0271500D01*
X0042242Y0273802D02*
X0041475Y0274569D01*
X0039173Y0274569D01*
X0039173Y0271500D01*
X0037639Y0271500D02*
X0036104Y0271500D01*
X0036871Y0271500D02*
X0036871Y0274569D01*
X0036104Y0274569D01*
X0034569Y0273802D02*
X0033802Y0273035D01*
X0031500Y0273035D01*
X0031500Y0271500D02*
X0031500Y0276104D01*
X0033802Y0276104D01*
X0034569Y0275337D01*
X0034569Y0273802D01*
X0036871Y0276104D02*
X0036871Y0276871D01*
X0118975Y0276104D02*
X0118975Y0271500D01*
X0118975Y0273035D02*
X0121277Y0273035D01*
X0122044Y0273802D01*
X0122044Y0275337D01*
X0121277Y0276104D01*
X0118975Y0276104D01*
X0123578Y0274569D02*
X0124346Y0274569D01*
X0124346Y0271500D01*
X0125113Y0271500D02*
X0123578Y0271500D01*
X0126648Y0271500D02*
X0126648Y0274569D01*
X0128950Y0274569D01*
X0129717Y0273802D01*
X0129717Y0271500D01*
X0131252Y0272267D02*
X0132019Y0271500D01*
X0133554Y0271500D01*
X0134321Y0273035D02*
X0131252Y0273035D01*
X0131252Y0273802D02*
X0132019Y0274569D01*
X0133554Y0274569D01*
X0134321Y0273802D01*
X0134321Y0273035D01*
X0135856Y0272267D02*
X0136623Y0271500D01*
X0138925Y0271500D01*
X0138925Y0273802D01*
X0138158Y0274569D01*
X0136623Y0274569D01*
X0136623Y0273035D02*
X0138925Y0273035D01*
X0140460Y0274569D02*
X0142761Y0274569D01*
X0143529Y0273802D01*
X0143529Y0272267D01*
X0142761Y0271500D01*
X0140460Y0271500D01*
X0140460Y0269965D02*
X0140460Y0274569D01*
X0136623Y0273035D02*
X0135856Y0272267D01*
X0131252Y0272267D02*
X0131252Y0273802D01*
X0124346Y0276104D02*
X0124346Y0276871D01*
X0145063Y0274569D02*
X0145063Y0269965D01*
X0145063Y0271500D02*
X0147365Y0271500D01*
X0148133Y0272267D01*
X0148133Y0273802D01*
X0147365Y0274569D01*
X0145063Y0274569D01*
X0149667Y0276104D02*
X0150435Y0276104D01*
X0150435Y0271500D01*
X0151202Y0271500D02*
X0149667Y0271500D01*
X0152737Y0272267D02*
X0152737Y0273802D01*
X0153504Y0274569D01*
X0155039Y0274569D01*
X0155806Y0273802D01*
X0155806Y0273035D01*
X0152737Y0273035D01*
X0152737Y0272267D02*
X0153504Y0271500D01*
X0155039Y0271500D01*
X0161945Y0271500D02*
X0164246Y0271500D01*
X0165014Y0272267D01*
X0165014Y0275337D01*
X0164246Y0276104D01*
X0161945Y0276104D01*
X0161945Y0271500D01*
X0166548Y0272267D02*
X0166548Y0273802D01*
X0167316Y0274569D01*
X0168850Y0274569D01*
X0169618Y0273802D01*
X0169618Y0273035D01*
X0166548Y0273035D01*
X0166548Y0272267D02*
X0167316Y0271500D01*
X0168850Y0271500D01*
X0171152Y0271500D02*
X0173454Y0271500D01*
X0174222Y0272267D01*
X0173454Y0273035D01*
X0171920Y0273035D01*
X0171152Y0273802D01*
X0171920Y0274569D01*
X0174222Y0274569D01*
X0175756Y0274569D02*
X0176524Y0274569D01*
X0176524Y0271500D01*
X0177291Y0271500D02*
X0175756Y0271500D01*
X0178826Y0272267D02*
X0179593Y0271500D01*
X0181895Y0271500D01*
X0181895Y0270733D02*
X0181895Y0274569D01*
X0179593Y0274569D01*
X0178826Y0273802D01*
X0178826Y0272267D01*
X0180360Y0269965D02*
X0181128Y0269965D01*
X0181895Y0270733D01*
X0183429Y0271500D02*
X0183429Y0274569D01*
X0185731Y0274569D01*
X0186499Y0273802D01*
X0186499Y0271500D01*
X0176524Y0276104D02*
X0176524Y0276871D01*
X0198600Y0049603D02*
X0200351Y0049603D01*
X0200935Y0049019D01*
X0200935Y0047851D01*
X0200351Y0047268D01*
X0198600Y0047268D01*
X0199768Y0047268D02*
X0200935Y0046100D01*
X0202191Y0046684D02*
X0202775Y0046100D01*
X0203943Y0046100D01*
X0204526Y0046684D01*
X0204526Y0047851D01*
X0203943Y0048435D01*
X0203359Y0048435D01*
X0202191Y0047851D01*
X0202191Y0049603D01*
X0204526Y0049603D01*
X0198600Y0049603D02*
X0198600Y0046100D01*
D11*
X0214300Y0043800D02*
X0214302Y0043740D01*
X0214307Y0043679D01*
X0214316Y0043620D01*
X0214329Y0043561D01*
X0214345Y0043502D01*
X0214365Y0043445D01*
X0214388Y0043390D01*
X0214415Y0043335D01*
X0214444Y0043283D01*
X0214477Y0043232D01*
X0214513Y0043183D01*
X0214551Y0043137D01*
X0214593Y0043093D01*
X0214637Y0043051D01*
X0214683Y0043013D01*
X0214732Y0042977D01*
X0214783Y0042944D01*
X0214835Y0042915D01*
X0214890Y0042888D01*
X0214945Y0042865D01*
X0215002Y0042845D01*
X0215061Y0042829D01*
X0215120Y0042816D01*
X0215179Y0042807D01*
X0215240Y0042802D01*
X0215300Y0042800D01*
X0216300Y0042800D01*
X0216800Y0043300D01*
X0225800Y0043300D01*
X0226300Y0042800D01*
X0227300Y0042800D01*
X0227360Y0042802D01*
X0227421Y0042807D01*
X0227480Y0042816D01*
X0227539Y0042829D01*
X0227598Y0042845D01*
X0227655Y0042865D01*
X0227710Y0042888D01*
X0227765Y0042915D01*
X0227817Y0042944D01*
X0227868Y0042977D01*
X0227917Y0043013D01*
X0227963Y0043051D01*
X0228007Y0043093D01*
X0228049Y0043137D01*
X0228087Y0043183D01*
X0228123Y0043232D01*
X0228156Y0043283D01*
X0228185Y0043335D01*
X0228212Y0043390D01*
X0228235Y0043445D01*
X0228255Y0043502D01*
X0228271Y0043561D01*
X0228284Y0043620D01*
X0228293Y0043679D01*
X0228298Y0043740D01*
X0228300Y0043800D01*
X0228300Y0048800D02*
X0228298Y0048860D01*
X0228293Y0048921D01*
X0228284Y0048980D01*
X0228271Y0049039D01*
X0228255Y0049098D01*
X0228235Y0049155D01*
X0228212Y0049210D01*
X0228185Y0049265D01*
X0228156Y0049317D01*
X0228123Y0049368D01*
X0228087Y0049417D01*
X0228049Y0049463D01*
X0228007Y0049507D01*
X0227963Y0049549D01*
X0227917Y0049587D01*
X0227868Y0049623D01*
X0227817Y0049656D01*
X0227765Y0049685D01*
X0227710Y0049712D01*
X0227655Y0049735D01*
X0227598Y0049755D01*
X0227539Y0049771D01*
X0227480Y0049784D01*
X0227421Y0049793D01*
X0227360Y0049798D01*
X0227300Y0049800D01*
X0226300Y0049800D01*
X0225800Y0049300D01*
X0216800Y0049300D01*
X0216300Y0049800D01*
X0215300Y0049800D01*
X0215240Y0049798D01*
X0215179Y0049793D01*
X0215120Y0049784D01*
X0215061Y0049771D01*
X0215002Y0049755D01*
X0214945Y0049735D01*
X0214890Y0049712D01*
X0214835Y0049685D01*
X0214783Y0049656D01*
X0214732Y0049623D01*
X0214683Y0049587D01*
X0214637Y0049549D01*
X0214593Y0049507D01*
X0214551Y0049463D01*
X0214513Y0049417D01*
X0214477Y0049368D01*
X0214444Y0049317D01*
X0214415Y0049265D01*
X0214388Y0049210D01*
X0214365Y0049155D01*
X0214345Y0049098D01*
X0214329Y0049039D01*
X0214316Y0048980D01*
X0214307Y0048921D01*
X0214302Y0048860D01*
X0214300Y0048800D01*
X0227300Y0066800D02*
X0235300Y0066800D01*
X0235360Y0066802D01*
X0235421Y0066807D01*
X0235480Y0066816D01*
X0235539Y0066829D01*
X0235598Y0066845D01*
X0235655Y0066865D01*
X0235710Y0066888D01*
X0235765Y0066915D01*
X0235817Y0066944D01*
X0235868Y0066977D01*
X0235917Y0067013D01*
X0235963Y0067051D01*
X0236007Y0067093D01*
X0236049Y0067137D01*
X0236087Y0067183D01*
X0236123Y0067232D01*
X0236156Y0067283D01*
X0236185Y0067335D01*
X0236212Y0067390D01*
X0236235Y0067445D01*
X0236255Y0067502D01*
X0236271Y0067561D01*
X0236284Y0067620D01*
X0236293Y0067679D01*
X0236298Y0067740D01*
X0236300Y0067800D01*
X0236300Y0084800D01*
X0236298Y0084860D01*
X0236293Y0084921D01*
X0236284Y0084980D01*
X0236271Y0085039D01*
X0236255Y0085098D01*
X0236235Y0085155D01*
X0236212Y0085210D01*
X0236185Y0085265D01*
X0236156Y0085317D01*
X0236123Y0085368D01*
X0236087Y0085417D01*
X0236049Y0085463D01*
X0236007Y0085507D01*
X0235963Y0085549D01*
X0235917Y0085587D01*
X0235868Y0085623D01*
X0235817Y0085656D01*
X0235765Y0085685D01*
X0235710Y0085712D01*
X0235655Y0085735D01*
X0235598Y0085755D01*
X0235539Y0085771D01*
X0235480Y0085784D01*
X0235421Y0085793D01*
X0235360Y0085798D01*
X0235300Y0085800D01*
X0227300Y0085800D01*
X0227240Y0085798D01*
X0227179Y0085793D01*
X0227120Y0085784D01*
X0227061Y0085771D01*
X0227002Y0085755D01*
X0226945Y0085735D01*
X0226890Y0085712D01*
X0226835Y0085685D01*
X0226783Y0085656D01*
X0226732Y0085623D01*
X0226683Y0085587D01*
X0226637Y0085549D01*
X0226593Y0085507D01*
X0226551Y0085463D01*
X0226513Y0085417D01*
X0226477Y0085368D01*
X0226444Y0085317D01*
X0226415Y0085265D01*
X0226388Y0085210D01*
X0226365Y0085155D01*
X0226345Y0085098D01*
X0226329Y0085039D01*
X0226316Y0084980D01*
X0226307Y0084921D01*
X0226302Y0084860D01*
X0226300Y0084800D01*
X0226300Y0067800D01*
X0226302Y0067740D01*
X0226307Y0067679D01*
X0226316Y0067620D01*
X0226329Y0067561D01*
X0226345Y0067502D01*
X0226365Y0067445D01*
X0226388Y0067390D01*
X0226415Y0067335D01*
X0226444Y0067283D01*
X0226477Y0067232D01*
X0226513Y0067183D01*
X0226551Y0067137D01*
X0226593Y0067093D01*
X0226637Y0067051D01*
X0226683Y0067013D01*
X0226732Y0066977D01*
X0226783Y0066944D01*
X0226835Y0066915D01*
X0226890Y0066888D01*
X0226945Y0066865D01*
X0227002Y0066845D01*
X0227061Y0066829D01*
X0227120Y0066816D01*
X0227179Y0066807D01*
X0227240Y0066802D01*
X0227300Y0066800D01*
X0231300Y0074800D02*
X0231300Y0075300D01*
X0231300Y0077300D02*
X0231300Y0077800D01*
X0241300Y0080300D02*
X0241426Y0080298D01*
X0241551Y0080292D01*
X0241676Y0080282D01*
X0241801Y0080268D01*
X0241926Y0080251D01*
X0242050Y0080229D01*
X0242173Y0080204D01*
X0242295Y0080174D01*
X0242416Y0080141D01*
X0242536Y0080104D01*
X0242655Y0080064D01*
X0242772Y0080019D01*
X0242889Y0079971D01*
X0243003Y0079919D01*
X0243116Y0079864D01*
X0243227Y0079805D01*
X0243336Y0079743D01*
X0243443Y0079677D01*
X0243548Y0079608D01*
X0243651Y0079536D01*
X0243752Y0079461D01*
X0243850Y0079382D01*
X0243945Y0079300D01*
X0244038Y0079216D01*
X0244128Y0079128D01*
X0244216Y0079038D01*
X0244300Y0078945D01*
X0244382Y0078850D01*
X0244461Y0078752D01*
X0244536Y0078651D01*
X0244608Y0078548D01*
X0244677Y0078443D01*
X0244743Y0078336D01*
X0244805Y0078227D01*
X0244864Y0078116D01*
X0244919Y0078003D01*
X0244971Y0077889D01*
X0245019Y0077772D01*
X0245064Y0077655D01*
X0245104Y0077536D01*
X0245141Y0077416D01*
X0245174Y0077295D01*
X0245204Y0077173D01*
X0245229Y0077050D01*
X0245251Y0076926D01*
X0245268Y0076801D01*
X0245282Y0076676D01*
X0245292Y0076551D01*
X0245298Y0076426D01*
X0245300Y0076300D01*
X0245298Y0076174D01*
X0245292Y0076049D01*
X0245282Y0075924D01*
X0245268Y0075799D01*
X0245251Y0075674D01*
X0245229Y0075550D01*
X0245204Y0075427D01*
X0245174Y0075305D01*
X0245141Y0075184D01*
X0245104Y0075064D01*
X0245064Y0074945D01*
X0245019Y0074828D01*
X0244971Y0074711D01*
X0244919Y0074597D01*
X0244864Y0074484D01*
X0244805Y0074373D01*
X0244743Y0074264D01*
X0244677Y0074157D01*
X0244608Y0074052D01*
X0244536Y0073949D01*
X0244461Y0073848D01*
X0244382Y0073750D01*
X0244300Y0073655D01*
X0244216Y0073562D01*
X0244128Y0073472D01*
X0244038Y0073384D01*
X0243945Y0073300D01*
X0243850Y0073218D01*
X0243752Y0073139D01*
X0243651Y0073064D01*
X0243548Y0072992D01*
X0243443Y0072923D01*
X0243336Y0072857D01*
X0243227Y0072795D01*
X0243116Y0072736D01*
X0243003Y0072681D01*
X0242889Y0072629D01*
X0242772Y0072581D01*
X0242655Y0072536D01*
X0242536Y0072496D01*
X0242416Y0072459D01*
X0242295Y0072426D01*
X0242173Y0072396D01*
X0242050Y0072371D01*
X0241926Y0072349D01*
X0241801Y0072332D01*
X0241676Y0072318D01*
X0241551Y0072308D01*
X0241426Y0072302D01*
X0241300Y0072300D01*
X0241300Y0064800D01*
X0281300Y0064800D01*
X0281300Y0087800D01*
X0241300Y0087800D01*
X0241300Y0080300D01*
X0268800Y0186300D02*
X0266300Y0188800D01*
X0266300Y0193800D01*
X0268800Y0196300D01*
X0266300Y0198800D01*
X0266300Y0203800D01*
X0268800Y0206300D01*
X0273800Y0206300D01*
X0276300Y0203800D01*
X0276300Y0198800D01*
X0273800Y0196300D01*
X0276300Y0193800D01*
X0276300Y0188800D01*
X0273800Y0186300D01*
X0268800Y0186300D01*
X0268800Y0196300D02*
X0273800Y0196300D01*
X0251300Y0194800D02*
X0251300Y0217800D01*
X0181300Y0217800D01*
X0181300Y0210300D01*
X0181426Y0210298D01*
X0181551Y0210292D01*
X0181676Y0210282D01*
X0181801Y0210268D01*
X0181926Y0210251D01*
X0182050Y0210229D01*
X0182173Y0210204D01*
X0182295Y0210174D01*
X0182416Y0210141D01*
X0182536Y0210104D01*
X0182655Y0210064D01*
X0182772Y0210019D01*
X0182889Y0209971D01*
X0183003Y0209919D01*
X0183116Y0209864D01*
X0183227Y0209805D01*
X0183336Y0209743D01*
X0183443Y0209677D01*
X0183548Y0209608D01*
X0183651Y0209536D01*
X0183752Y0209461D01*
X0183850Y0209382D01*
X0183945Y0209300D01*
X0184038Y0209216D01*
X0184128Y0209128D01*
X0184216Y0209038D01*
X0184300Y0208945D01*
X0184382Y0208850D01*
X0184461Y0208752D01*
X0184536Y0208651D01*
X0184608Y0208548D01*
X0184677Y0208443D01*
X0184743Y0208336D01*
X0184805Y0208227D01*
X0184864Y0208116D01*
X0184919Y0208003D01*
X0184971Y0207889D01*
X0185019Y0207772D01*
X0185064Y0207655D01*
X0185104Y0207536D01*
X0185141Y0207416D01*
X0185174Y0207295D01*
X0185204Y0207173D01*
X0185229Y0207050D01*
X0185251Y0206926D01*
X0185268Y0206801D01*
X0185282Y0206676D01*
X0185292Y0206551D01*
X0185298Y0206426D01*
X0185300Y0206300D01*
X0185298Y0206174D01*
X0185292Y0206049D01*
X0185282Y0205924D01*
X0185268Y0205799D01*
X0185251Y0205674D01*
X0185229Y0205550D01*
X0185204Y0205427D01*
X0185174Y0205305D01*
X0185141Y0205184D01*
X0185104Y0205064D01*
X0185064Y0204945D01*
X0185019Y0204828D01*
X0184971Y0204711D01*
X0184919Y0204597D01*
X0184864Y0204484D01*
X0184805Y0204373D01*
X0184743Y0204264D01*
X0184677Y0204157D01*
X0184608Y0204052D01*
X0184536Y0203949D01*
X0184461Y0203848D01*
X0184382Y0203750D01*
X0184300Y0203655D01*
X0184216Y0203562D01*
X0184128Y0203472D01*
X0184038Y0203384D01*
X0183945Y0203300D01*
X0183850Y0203218D01*
X0183752Y0203139D01*
X0183651Y0203064D01*
X0183548Y0202992D01*
X0183443Y0202923D01*
X0183336Y0202857D01*
X0183227Y0202795D01*
X0183116Y0202736D01*
X0183003Y0202681D01*
X0182889Y0202629D01*
X0182772Y0202581D01*
X0182655Y0202536D01*
X0182536Y0202496D01*
X0182416Y0202459D01*
X0182295Y0202426D01*
X0182173Y0202396D01*
X0182050Y0202371D01*
X0181926Y0202349D01*
X0181801Y0202332D01*
X0181676Y0202318D01*
X0181551Y0202308D01*
X0181426Y0202302D01*
X0181300Y0202300D01*
X0181300Y0194800D01*
X0251300Y0194800D01*
X0176300Y0197800D02*
X0176300Y0214800D01*
X0176298Y0214860D01*
X0176293Y0214921D01*
X0176284Y0214980D01*
X0176271Y0215039D01*
X0176255Y0215098D01*
X0176235Y0215155D01*
X0176212Y0215210D01*
X0176185Y0215265D01*
X0176156Y0215317D01*
X0176123Y0215368D01*
X0176087Y0215417D01*
X0176049Y0215463D01*
X0176007Y0215507D01*
X0175963Y0215549D01*
X0175917Y0215587D01*
X0175868Y0215623D01*
X0175817Y0215656D01*
X0175765Y0215685D01*
X0175710Y0215712D01*
X0175655Y0215735D01*
X0175598Y0215755D01*
X0175539Y0215771D01*
X0175480Y0215784D01*
X0175421Y0215793D01*
X0175360Y0215798D01*
X0175300Y0215800D01*
X0167300Y0215800D01*
X0167240Y0215798D01*
X0167179Y0215793D01*
X0167120Y0215784D01*
X0167061Y0215771D01*
X0167002Y0215755D01*
X0166945Y0215735D01*
X0166890Y0215712D01*
X0166835Y0215685D01*
X0166783Y0215656D01*
X0166732Y0215623D01*
X0166683Y0215587D01*
X0166637Y0215549D01*
X0166593Y0215507D01*
X0166551Y0215463D01*
X0166513Y0215417D01*
X0166477Y0215368D01*
X0166444Y0215317D01*
X0166415Y0215265D01*
X0166388Y0215210D01*
X0166365Y0215155D01*
X0166345Y0215098D01*
X0166329Y0215039D01*
X0166316Y0214980D01*
X0166307Y0214921D01*
X0166302Y0214860D01*
X0166300Y0214800D01*
X0166300Y0197800D01*
X0166302Y0197740D01*
X0166307Y0197679D01*
X0166316Y0197620D01*
X0166329Y0197561D01*
X0166345Y0197502D01*
X0166365Y0197445D01*
X0166388Y0197390D01*
X0166415Y0197335D01*
X0166444Y0197283D01*
X0166477Y0197232D01*
X0166513Y0197183D01*
X0166551Y0197137D01*
X0166593Y0197093D01*
X0166637Y0197051D01*
X0166683Y0197013D01*
X0166732Y0196977D01*
X0166783Y0196944D01*
X0166835Y0196915D01*
X0166890Y0196888D01*
X0166945Y0196865D01*
X0167002Y0196845D01*
X0167061Y0196829D01*
X0167120Y0196816D01*
X0167179Y0196807D01*
X0167240Y0196802D01*
X0167300Y0196800D01*
X0175300Y0196800D01*
X0175360Y0196802D01*
X0175421Y0196807D01*
X0175480Y0196816D01*
X0175539Y0196829D01*
X0175598Y0196845D01*
X0175655Y0196865D01*
X0175710Y0196888D01*
X0175765Y0196915D01*
X0175817Y0196944D01*
X0175868Y0196977D01*
X0175917Y0197013D01*
X0175963Y0197051D01*
X0176007Y0197093D01*
X0176049Y0197137D01*
X0176087Y0197183D01*
X0176123Y0197232D01*
X0176156Y0197283D01*
X0176185Y0197335D01*
X0176212Y0197390D01*
X0176235Y0197445D01*
X0176255Y0197502D01*
X0176271Y0197561D01*
X0176284Y0197620D01*
X0176293Y0197679D01*
X0176298Y0197740D01*
X0176300Y0197800D01*
X0171300Y0204800D02*
X0171300Y0205300D01*
X0171300Y0207300D02*
X0171300Y0207800D01*
X0152300Y0207800D02*
X0151300Y0207800D01*
X0150800Y0208300D01*
X0141800Y0208300D01*
X0141300Y0207800D01*
X0140300Y0207800D01*
X0140240Y0207802D01*
X0140179Y0207807D01*
X0140120Y0207816D01*
X0140061Y0207829D01*
X0140002Y0207845D01*
X0139945Y0207865D01*
X0139890Y0207888D01*
X0139835Y0207915D01*
X0139783Y0207944D01*
X0139732Y0207977D01*
X0139683Y0208013D01*
X0139637Y0208051D01*
X0139593Y0208093D01*
X0139551Y0208137D01*
X0139513Y0208183D01*
X0139477Y0208232D01*
X0139444Y0208283D01*
X0139415Y0208335D01*
X0139388Y0208390D01*
X0139365Y0208445D01*
X0139345Y0208502D01*
X0139329Y0208561D01*
X0139316Y0208620D01*
X0139307Y0208679D01*
X0139302Y0208740D01*
X0139300Y0208800D01*
X0140300Y0204800D02*
X0141300Y0204800D01*
X0141800Y0204300D01*
X0150800Y0204300D01*
X0151300Y0204800D01*
X0152300Y0204800D01*
X0152360Y0204798D01*
X0152421Y0204793D01*
X0152480Y0204784D01*
X0152539Y0204771D01*
X0152598Y0204755D01*
X0152655Y0204735D01*
X0152710Y0204712D01*
X0152765Y0204685D01*
X0152817Y0204656D01*
X0152868Y0204623D01*
X0152917Y0204587D01*
X0152963Y0204549D01*
X0153007Y0204507D01*
X0153049Y0204463D01*
X0153087Y0204417D01*
X0153123Y0204368D01*
X0153156Y0204317D01*
X0153185Y0204265D01*
X0153212Y0204210D01*
X0153235Y0204155D01*
X0153255Y0204098D01*
X0153271Y0204039D01*
X0153284Y0203980D01*
X0153293Y0203921D01*
X0153298Y0203860D01*
X0153300Y0203800D01*
X0152300Y0207800D02*
X0152360Y0207802D01*
X0152421Y0207807D01*
X0152480Y0207816D01*
X0152539Y0207829D01*
X0152598Y0207845D01*
X0152655Y0207865D01*
X0152710Y0207888D01*
X0152765Y0207915D01*
X0152817Y0207944D01*
X0152868Y0207977D01*
X0152917Y0208013D01*
X0152963Y0208051D01*
X0153007Y0208093D01*
X0153049Y0208137D01*
X0153087Y0208183D01*
X0153123Y0208232D01*
X0153156Y0208283D01*
X0153185Y0208335D01*
X0153212Y0208390D01*
X0153235Y0208445D01*
X0153255Y0208502D01*
X0153271Y0208561D01*
X0153284Y0208620D01*
X0153293Y0208679D01*
X0153298Y0208740D01*
X0153300Y0208800D01*
X0153300Y0213800D02*
X0153298Y0213860D01*
X0153293Y0213921D01*
X0153284Y0213980D01*
X0153271Y0214039D01*
X0153255Y0214098D01*
X0153235Y0214155D01*
X0153212Y0214210D01*
X0153185Y0214265D01*
X0153156Y0214317D01*
X0153123Y0214368D01*
X0153087Y0214417D01*
X0153049Y0214463D01*
X0153007Y0214507D01*
X0152963Y0214549D01*
X0152917Y0214587D01*
X0152868Y0214623D01*
X0152817Y0214656D01*
X0152765Y0214685D01*
X0152710Y0214712D01*
X0152655Y0214735D01*
X0152598Y0214755D01*
X0152539Y0214771D01*
X0152480Y0214784D01*
X0152421Y0214793D01*
X0152360Y0214798D01*
X0152300Y0214800D01*
X0151300Y0214800D01*
X0150800Y0214300D01*
X0141800Y0214300D01*
X0141300Y0214800D01*
X0140300Y0214800D01*
X0140240Y0214798D01*
X0140179Y0214793D01*
X0140120Y0214784D01*
X0140061Y0214771D01*
X0140002Y0214755D01*
X0139945Y0214735D01*
X0139890Y0214712D01*
X0139835Y0214685D01*
X0139783Y0214656D01*
X0139732Y0214623D01*
X0139683Y0214587D01*
X0139637Y0214549D01*
X0139593Y0214507D01*
X0139551Y0214463D01*
X0139513Y0214417D01*
X0139477Y0214368D01*
X0139444Y0214317D01*
X0139415Y0214265D01*
X0139388Y0214210D01*
X0139365Y0214155D01*
X0139345Y0214098D01*
X0139329Y0214039D01*
X0139316Y0213980D01*
X0139307Y0213921D01*
X0139302Y0213860D01*
X0139300Y0213800D01*
X0140300Y0217800D02*
X0141300Y0217800D01*
X0141800Y0218300D01*
X0150800Y0218300D01*
X0151300Y0217800D01*
X0152300Y0217800D01*
X0152360Y0217802D01*
X0152421Y0217807D01*
X0152480Y0217816D01*
X0152539Y0217829D01*
X0152598Y0217845D01*
X0152655Y0217865D01*
X0152710Y0217888D01*
X0152765Y0217915D01*
X0152817Y0217944D01*
X0152868Y0217977D01*
X0152917Y0218013D01*
X0152963Y0218051D01*
X0153007Y0218093D01*
X0153049Y0218137D01*
X0153087Y0218183D01*
X0153123Y0218232D01*
X0153156Y0218283D01*
X0153185Y0218335D01*
X0153212Y0218390D01*
X0153235Y0218445D01*
X0153255Y0218502D01*
X0153271Y0218561D01*
X0153284Y0218620D01*
X0153293Y0218679D01*
X0153298Y0218740D01*
X0153300Y0218800D01*
X0153300Y0223800D02*
X0153298Y0223860D01*
X0153293Y0223921D01*
X0153284Y0223980D01*
X0153271Y0224039D01*
X0153255Y0224098D01*
X0153235Y0224155D01*
X0153212Y0224210D01*
X0153185Y0224265D01*
X0153156Y0224317D01*
X0153123Y0224368D01*
X0153087Y0224417D01*
X0153049Y0224463D01*
X0153007Y0224507D01*
X0152963Y0224549D01*
X0152917Y0224587D01*
X0152868Y0224623D01*
X0152817Y0224656D01*
X0152765Y0224685D01*
X0152710Y0224712D01*
X0152655Y0224735D01*
X0152598Y0224755D01*
X0152539Y0224771D01*
X0152480Y0224784D01*
X0152421Y0224793D01*
X0152360Y0224798D01*
X0152300Y0224800D01*
X0151300Y0224800D01*
X0150800Y0224300D01*
X0141800Y0224300D01*
X0141300Y0224800D01*
X0140300Y0224800D01*
X0140240Y0224798D01*
X0140179Y0224793D01*
X0140120Y0224784D01*
X0140061Y0224771D01*
X0140002Y0224755D01*
X0139945Y0224735D01*
X0139890Y0224712D01*
X0139835Y0224685D01*
X0139783Y0224656D01*
X0139732Y0224623D01*
X0139683Y0224587D01*
X0139637Y0224549D01*
X0139593Y0224507D01*
X0139551Y0224463D01*
X0139513Y0224417D01*
X0139477Y0224368D01*
X0139444Y0224317D01*
X0139415Y0224265D01*
X0139388Y0224210D01*
X0139365Y0224155D01*
X0139345Y0224098D01*
X0139329Y0224039D01*
X0139316Y0223980D01*
X0139307Y0223921D01*
X0139302Y0223860D01*
X0139300Y0223800D01*
X0139300Y0218800D02*
X0139302Y0218740D01*
X0139307Y0218679D01*
X0139316Y0218620D01*
X0139329Y0218561D01*
X0139345Y0218502D01*
X0139365Y0218445D01*
X0139388Y0218390D01*
X0139415Y0218335D01*
X0139444Y0218283D01*
X0139477Y0218232D01*
X0139513Y0218183D01*
X0139551Y0218137D01*
X0139593Y0218093D01*
X0139637Y0218051D01*
X0139683Y0218013D01*
X0139732Y0217977D01*
X0139783Y0217944D01*
X0139835Y0217915D01*
X0139890Y0217888D01*
X0139945Y0217865D01*
X0140002Y0217845D01*
X0140061Y0217829D01*
X0140120Y0217816D01*
X0140179Y0217807D01*
X0140240Y0217802D01*
X0140300Y0217800D01*
X0140300Y0204800D02*
X0140240Y0204798D01*
X0140179Y0204793D01*
X0140120Y0204784D01*
X0140061Y0204771D01*
X0140002Y0204755D01*
X0139945Y0204735D01*
X0139890Y0204712D01*
X0139835Y0204685D01*
X0139783Y0204656D01*
X0139732Y0204623D01*
X0139683Y0204587D01*
X0139637Y0204549D01*
X0139593Y0204507D01*
X0139551Y0204463D01*
X0139513Y0204417D01*
X0139477Y0204368D01*
X0139444Y0204317D01*
X0139415Y0204265D01*
X0139388Y0204210D01*
X0139365Y0204155D01*
X0139345Y0204098D01*
X0139329Y0204039D01*
X0139316Y0203980D01*
X0139307Y0203921D01*
X0139302Y0203860D01*
X0139300Y0203800D01*
X0139300Y0198800D02*
X0139302Y0198740D01*
X0139307Y0198679D01*
X0139316Y0198620D01*
X0139329Y0198561D01*
X0139345Y0198502D01*
X0139365Y0198445D01*
X0139388Y0198390D01*
X0139415Y0198335D01*
X0139444Y0198283D01*
X0139477Y0198232D01*
X0139513Y0198183D01*
X0139551Y0198137D01*
X0139593Y0198093D01*
X0139637Y0198051D01*
X0139683Y0198013D01*
X0139732Y0197977D01*
X0139783Y0197944D01*
X0139835Y0197915D01*
X0139890Y0197888D01*
X0139945Y0197865D01*
X0140002Y0197845D01*
X0140061Y0197829D01*
X0140120Y0197816D01*
X0140179Y0197807D01*
X0140240Y0197802D01*
X0140300Y0197800D01*
X0141300Y0197800D01*
X0141800Y0198300D01*
X0150800Y0198300D01*
X0151300Y0197800D01*
X0152300Y0197800D01*
X0152360Y0197802D01*
X0152421Y0197807D01*
X0152480Y0197816D01*
X0152539Y0197829D01*
X0152598Y0197845D01*
X0152655Y0197865D01*
X0152710Y0197888D01*
X0152765Y0197915D01*
X0152817Y0197944D01*
X0152868Y0197977D01*
X0152917Y0198013D01*
X0152963Y0198051D01*
X0153007Y0198093D01*
X0153049Y0198137D01*
X0153087Y0198183D01*
X0153123Y0198232D01*
X0153156Y0198283D01*
X0153185Y0198335D01*
X0153212Y0198390D01*
X0153235Y0198445D01*
X0153255Y0198502D01*
X0153271Y0198561D01*
X0153284Y0198620D01*
X0153293Y0198679D01*
X0153298Y0198740D01*
X0153300Y0198800D01*
X0152300Y0194800D02*
X0151300Y0194800D01*
X0150800Y0194300D01*
X0141800Y0194300D01*
X0141300Y0194800D01*
X0140300Y0194800D01*
X0140240Y0194798D01*
X0140179Y0194793D01*
X0140120Y0194784D01*
X0140061Y0194771D01*
X0140002Y0194755D01*
X0139945Y0194735D01*
X0139890Y0194712D01*
X0139835Y0194685D01*
X0139783Y0194656D01*
X0139732Y0194623D01*
X0139683Y0194587D01*
X0139637Y0194549D01*
X0139593Y0194507D01*
X0139551Y0194463D01*
X0139513Y0194417D01*
X0139477Y0194368D01*
X0139444Y0194317D01*
X0139415Y0194265D01*
X0139388Y0194210D01*
X0139365Y0194155D01*
X0139345Y0194098D01*
X0139329Y0194039D01*
X0139316Y0193980D01*
X0139307Y0193921D01*
X0139302Y0193860D01*
X0139300Y0193800D01*
X0139300Y0188800D02*
X0139302Y0188740D01*
X0139307Y0188679D01*
X0139316Y0188620D01*
X0139329Y0188561D01*
X0139345Y0188502D01*
X0139365Y0188445D01*
X0139388Y0188390D01*
X0139415Y0188335D01*
X0139444Y0188283D01*
X0139477Y0188232D01*
X0139513Y0188183D01*
X0139551Y0188137D01*
X0139593Y0188093D01*
X0139637Y0188051D01*
X0139683Y0188013D01*
X0139732Y0187977D01*
X0139783Y0187944D01*
X0139835Y0187915D01*
X0139890Y0187888D01*
X0139945Y0187865D01*
X0140002Y0187845D01*
X0140061Y0187829D01*
X0140120Y0187816D01*
X0140179Y0187807D01*
X0140240Y0187802D01*
X0140300Y0187800D01*
X0141300Y0187800D01*
X0141800Y0188300D01*
X0150800Y0188300D01*
X0151300Y0187800D01*
X0152300Y0187800D01*
X0152360Y0187802D01*
X0152421Y0187807D01*
X0152480Y0187816D01*
X0152539Y0187829D01*
X0152598Y0187845D01*
X0152655Y0187865D01*
X0152710Y0187888D01*
X0152765Y0187915D01*
X0152817Y0187944D01*
X0152868Y0187977D01*
X0152917Y0188013D01*
X0152963Y0188051D01*
X0153007Y0188093D01*
X0153049Y0188137D01*
X0153087Y0188183D01*
X0153123Y0188232D01*
X0153156Y0188283D01*
X0153185Y0188335D01*
X0153212Y0188390D01*
X0153235Y0188445D01*
X0153255Y0188502D01*
X0153271Y0188561D01*
X0153284Y0188620D01*
X0153293Y0188679D01*
X0153298Y0188740D01*
X0153300Y0188800D01*
X0153300Y0193800D02*
X0153298Y0193860D01*
X0153293Y0193921D01*
X0153284Y0193980D01*
X0153271Y0194039D01*
X0153255Y0194098D01*
X0153235Y0194155D01*
X0153212Y0194210D01*
X0153185Y0194265D01*
X0153156Y0194317D01*
X0153123Y0194368D01*
X0153087Y0194417D01*
X0153049Y0194463D01*
X0153007Y0194507D01*
X0152963Y0194549D01*
X0152917Y0194587D01*
X0152868Y0194623D01*
X0152817Y0194656D01*
X0152765Y0194685D01*
X0152710Y0194712D01*
X0152655Y0194735D01*
X0152598Y0194755D01*
X0152539Y0194771D01*
X0152480Y0194784D01*
X0152421Y0194793D01*
X0152360Y0194798D01*
X0152300Y0194800D01*
X0090300Y0120800D02*
X0082300Y0120800D01*
X0082240Y0120798D01*
X0082179Y0120793D01*
X0082120Y0120784D01*
X0082061Y0120771D01*
X0082002Y0120755D01*
X0081945Y0120735D01*
X0081890Y0120712D01*
X0081835Y0120685D01*
X0081783Y0120656D01*
X0081732Y0120623D01*
X0081683Y0120587D01*
X0081637Y0120549D01*
X0081593Y0120507D01*
X0081551Y0120463D01*
X0081513Y0120417D01*
X0081477Y0120368D01*
X0081444Y0120317D01*
X0081415Y0120265D01*
X0081388Y0120210D01*
X0081365Y0120155D01*
X0081345Y0120098D01*
X0081329Y0120039D01*
X0081316Y0119980D01*
X0081307Y0119921D01*
X0081302Y0119860D01*
X0081300Y0119800D01*
X0081300Y0102800D01*
X0081302Y0102740D01*
X0081307Y0102679D01*
X0081316Y0102620D01*
X0081329Y0102561D01*
X0081345Y0102502D01*
X0081365Y0102445D01*
X0081388Y0102390D01*
X0081415Y0102335D01*
X0081444Y0102283D01*
X0081477Y0102232D01*
X0081513Y0102183D01*
X0081551Y0102137D01*
X0081593Y0102093D01*
X0081637Y0102051D01*
X0081683Y0102013D01*
X0081732Y0101977D01*
X0081783Y0101944D01*
X0081835Y0101915D01*
X0081890Y0101888D01*
X0081945Y0101865D01*
X0082002Y0101845D01*
X0082061Y0101829D01*
X0082120Y0101816D01*
X0082179Y0101807D01*
X0082240Y0101802D01*
X0082300Y0101800D01*
X0090300Y0101800D01*
X0090360Y0101802D01*
X0090421Y0101807D01*
X0090480Y0101816D01*
X0090539Y0101829D01*
X0090598Y0101845D01*
X0090655Y0101865D01*
X0090710Y0101888D01*
X0090765Y0101915D01*
X0090817Y0101944D01*
X0090868Y0101977D01*
X0090917Y0102013D01*
X0090963Y0102051D01*
X0091007Y0102093D01*
X0091049Y0102137D01*
X0091087Y0102183D01*
X0091123Y0102232D01*
X0091156Y0102283D01*
X0091185Y0102335D01*
X0091212Y0102390D01*
X0091235Y0102445D01*
X0091255Y0102502D01*
X0091271Y0102561D01*
X0091284Y0102620D01*
X0091293Y0102679D01*
X0091298Y0102740D01*
X0091300Y0102800D01*
X0091300Y0119800D01*
X0091298Y0119860D01*
X0091293Y0119921D01*
X0091284Y0119980D01*
X0091271Y0120039D01*
X0091255Y0120098D01*
X0091235Y0120155D01*
X0091212Y0120210D01*
X0091185Y0120265D01*
X0091156Y0120317D01*
X0091123Y0120368D01*
X0091087Y0120417D01*
X0091049Y0120463D01*
X0091007Y0120507D01*
X0090963Y0120549D01*
X0090917Y0120587D01*
X0090868Y0120623D01*
X0090817Y0120656D01*
X0090765Y0120685D01*
X0090710Y0120712D01*
X0090655Y0120735D01*
X0090598Y0120755D01*
X0090539Y0120771D01*
X0090480Y0120784D01*
X0090421Y0120793D01*
X0090360Y0120798D01*
X0090300Y0120800D01*
X0086300Y0112800D02*
X0086300Y0112300D01*
X0086300Y0110300D02*
X0086300Y0109800D01*
X0117300Y0050800D02*
X0125300Y0050800D01*
X0125360Y0050798D01*
X0125421Y0050793D01*
X0125480Y0050784D01*
X0125539Y0050771D01*
X0125598Y0050755D01*
X0125655Y0050735D01*
X0125710Y0050712D01*
X0125765Y0050685D01*
X0125817Y0050656D01*
X0125868Y0050623D01*
X0125917Y0050587D01*
X0125963Y0050549D01*
X0126007Y0050507D01*
X0126049Y0050463D01*
X0126087Y0050417D01*
X0126123Y0050368D01*
X0126156Y0050317D01*
X0126185Y0050265D01*
X0126212Y0050210D01*
X0126235Y0050155D01*
X0126255Y0050098D01*
X0126271Y0050039D01*
X0126284Y0049980D01*
X0126293Y0049921D01*
X0126298Y0049860D01*
X0126300Y0049800D01*
X0126300Y0032800D01*
X0126298Y0032740D01*
X0126293Y0032679D01*
X0126284Y0032620D01*
X0126271Y0032561D01*
X0126255Y0032502D01*
X0126235Y0032445D01*
X0126212Y0032390D01*
X0126185Y0032335D01*
X0126156Y0032283D01*
X0126123Y0032232D01*
X0126087Y0032183D01*
X0126049Y0032137D01*
X0126007Y0032093D01*
X0125963Y0032051D01*
X0125917Y0032013D01*
X0125868Y0031977D01*
X0125817Y0031944D01*
X0125765Y0031915D01*
X0125710Y0031888D01*
X0125655Y0031865D01*
X0125598Y0031845D01*
X0125539Y0031829D01*
X0125480Y0031816D01*
X0125421Y0031807D01*
X0125360Y0031802D01*
X0125300Y0031800D01*
X0117300Y0031800D01*
X0117240Y0031802D01*
X0117179Y0031807D01*
X0117120Y0031816D01*
X0117061Y0031829D01*
X0117002Y0031845D01*
X0116945Y0031865D01*
X0116890Y0031888D01*
X0116835Y0031915D01*
X0116783Y0031944D01*
X0116732Y0031977D01*
X0116683Y0032013D01*
X0116637Y0032051D01*
X0116593Y0032093D01*
X0116551Y0032137D01*
X0116513Y0032183D01*
X0116477Y0032232D01*
X0116444Y0032283D01*
X0116415Y0032335D01*
X0116388Y0032390D01*
X0116365Y0032445D01*
X0116345Y0032502D01*
X0116329Y0032561D01*
X0116316Y0032620D01*
X0116307Y0032679D01*
X0116302Y0032740D01*
X0116300Y0032800D01*
X0116300Y0049800D01*
X0116302Y0049860D01*
X0116307Y0049921D01*
X0116316Y0049980D01*
X0116329Y0050039D01*
X0116345Y0050098D01*
X0116365Y0050155D01*
X0116388Y0050210D01*
X0116415Y0050265D01*
X0116444Y0050317D01*
X0116477Y0050368D01*
X0116513Y0050417D01*
X0116551Y0050463D01*
X0116593Y0050507D01*
X0116637Y0050549D01*
X0116683Y0050587D01*
X0116732Y0050623D01*
X0116783Y0050656D01*
X0116835Y0050685D01*
X0116890Y0050712D01*
X0116945Y0050735D01*
X0117002Y0050755D01*
X0117061Y0050771D01*
X0117120Y0050784D01*
X0117179Y0050793D01*
X0117240Y0050798D01*
X0117300Y0050800D01*
X0121300Y0042800D02*
X0121300Y0042300D01*
X0121300Y0040300D02*
X0121300Y0039800D01*
D12*
X0121300Y0040300D02*
X0118300Y0040300D01*
X0118300Y0042300D02*
X0121300Y0042300D01*
X0124300Y0042300D01*
X0124300Y0040300D02*
X0121300Y0040300D01*
X0089300Y0110300D02*
X0086300Y0110300D01*
X0083300Y0110300D01*
X0083300Y0112300D02*
X0086300Y0112300D01*
X0089300Y0112300D01*
X0168300Y0205300D02*
X0171300Y0205300D01*
X0174300Y0205300D01*
X0174300Y0207300D02*
X0171300Y0207300D01*
X0168300Y0207300D01*
X0228300Y0077300D02*
X0231300Y0077300D01*
X0234300Y0077300D01*
X0234300Y0075300D02*
X0231300Y0075300D01*
X0228300Y0075300D01*
D13*
X0060355Y0072166D02*
X0001300Y0072166D01*
X0001300Y0213898D01*
X0060355Y0213898D01*
X0060355Y0072166D01*
X0076297Y0102550D02*
X0079299Y0102550D01*
X0080050Y0103301D01*
X0080050Y0104802D01*
X0079299Y0105553D01*
X0080050Y0107154D02*
X0077047Y0110156D01*
X0076297Y0110156D01*
X0075546Y0109406D01*
X0075546Y0107905D01*
X0076297Y0107154D01*
X0076297Y0105553D02*
X0075546Y0104802D01*
X0075546Y0103301D01*
X0076297Y0102550D01*
X0080050Y0107154D02*
X0080050Y0110156D01*
X0096300Y0105300D02*
X0286300Y0105300D01*
X0286300Y0177300D01*
X0096300Y0177300D01*
X0096300Y0105300D01*
X0080302Y0042238D02*
X0079668Y0041604D01*
X0079668Y0041921D02*
X0079668Y0040970D01*
X0080302Y0040970D02*
X0078400Y0040970D01*
X0078400Y0041921D01*
X0078717Y0042238D01*
X0079351Y0042238D01*
X0079668Y0041921D01*
X0080302Y0040028D02*
X0078400Y0040028D01*
X0078400Y0038760D02*
X0080302Y0038760D01*
X0079668Y0039394D01*
X0080302Y0040028D01*
X0079351Y0037818D02*
X0079668Y0037501D01*
X0079668Y0036550D01*
X0080302Y0036550D02*
X0078400Y0036550D01*
X0078400Y0037501D01*
X0078717Y0037818D01*
X0079351Y0037818D01*
X0110546Y0038655D02*
X0112047Y0037154D01*
X0111297Y0035553D02*
X0110546Y0034802D01*
X0110546Y0033301D01*
X0111297Y0032550D01*
X0114299Y0032550D01*
X0115050Y0033301D01*
X0115050Y0034802D01*
X0114299Y0035553D01*
X0115050Y0037154D02*
X0115050Y0040156D01*
X0115050Y0038655D02*
X0110546Y0038655D01*
X0220546Y0068301D02*
X0221297Y0067550D01*
X0224299Y0067550D01*
X0225050Y0068301D01*
X0225050Y0069802D01*
X0224299Y0070553D01*
X0224299Y0072154D02*
X0225050Y0072905D01*
X0225050Y0074406D01*
X0224299Y0075156D01*
X0223549Y0075156D01*
X0222798Y0074406D01*
X0222798Y0073655D01*
X0222798Y0074406D02*
X0222047Y0075156D01*
X0221297Y0075156D01*
X0220546Y0074406D01*
X0220546Y0072905D01*
X0221297Y0072154D01*
X0221297Y0070553D02*
X0220546Y0069802D01*
X0220546Y0068301D01*
X0235546Y0067302D02*
X0236297Y0068053D01*
X0239299Y0068053D01*
X0240050Y0067302D01*
X0240050Y0065801D01*
X0239299Y0065050D01*
X0236297Y0065050D01*
X0235546Y0065801D01*
X0235546Y0067302D01*
X0235546Y0069654D02*
X0240050Y0069654D01*
X0238549Y0069654D02*
X0235546Y0072656D01*
X0237047Y0074258D02*
X0235546Y0075759D01*
X0240050Y0075759D01*
X0240050Y0074258D02*
X0240050Y0077260D01*
X0240050Y0072656D02*
X0237798Y0070405D01*
X0227184Y0037952D02*
X0226550Y0037318D01*
X0227184Y0037952D02*
X0227184Y0036050D01*
X0226550Y0036050D02*
X0227818Y0036050D01*
X0225608Y0036367D02*
X0225608Y0037635D01*
X0225291Y0037952D01*
X0224340Y0037952D01*
X0224340Y0036050D01*
X0225291Y0036050D01*
X0225608Y0036367D01*
X0282296Y0036768D02*
X0284198Y0036768D01*
X0284198Y0037710D02*
X0284198Y0038344D01*
X0284198Y0038027D02*
X0282296Y0038027D01*
X0282296Y0037710D02*
X0282296Y0038344D01*
X0282296Y0039184D02*
X0282296Y0040135D01*
X0282613Y0040451D01*
X0283881Y0040451D01*
X0284198Y0040135D01*
X0284198Y0039184D01*
X0282296Y0039184D01*
X0282296Y0041394D02*
X0282296Y0042027D01*
X0282296Y0041711D02*
X0284198Y0041711D01*
X0284198Y0042027D02*
X0284198Y0041394D01*
X0284198Y0042867D02*
X0284198Y0043501D01*
X0284198Y0043184D02*
X0282296Y0043184D01*
X0282296Y0042867D02*
X0282296Y0043501D01*
X0282296Y0044340D02*
X0284198Y0045608D01*
X0282296Y0045608D01*
X0282296Y0044340D02*
X0284198Y0044340D01*
X0282296Y0036768D02*
X0282930Y0036134D01*
X0282296Y0035501D01*
X0284198Y0035501D01*
X0263850Y0186250D02*
X0259346Y0186250D01*
X0259346Y0188502D01*
X0260097Y0189253D01*
X0261598Y0189253D01*
X0262349Y0188502D01*
X0262349Y0186250D01*
X0262349Y0187751D02*
X0263850Y0189253D01*
X0263850Y0190854D02*
X0263850Y0193856D01*
X0263099Y0195458D02*
X0263850Y0196208D01*
X0263850Y0197710D01*
X0263099Y0198460D01*
X0262349Y0198460D01*
X0261598Y0197710D01*
X0261598Y0196208D01*
X0260847Y0195458D01*
X0260097Y0195458D01*
X0259346Y0196208D01*
X0259346Y0197710D01*
X0260097Y0198460D01*
X0259346Y0200062D02*
X0259346Y0201563D01*
X0259346Y0200812D02*
X0263850Y0200812D01*
X0263850Y0200062D02*
X0263850Y0201563D01*
X0263099Y0203131D02*
X0263850Y0203882D01*
X0263850Y0205383D01*
X0263099Y0206134D01*
X0262349Y0206134D01*
X0261598Y0205383D01*
X0261598Y0203882D01*
X0260847Y0203131D01*
X0260097Y0203131D01*
X0259346Y0203882D01*
X0259346Y0205383D01*
X0260097Y0206134D01*
X0259346Y0207735D02*
X0259346Y0210738D01*
X0259346Y0209236D02*
X0263850Y0209236D01*
X0263099Y0212339D02*
X0260097Y0212339D01*
X0259346Y0213090D01*
X0259346Y0214591D01*
X0260097Y0215341D01*
X0263099Y0215341D01*
X0263850Y0214591D01*
X0263850Y0213090D01*
X0263099Y0212339D01*
X0262349Y0216943D02*
X0262349Y0219195D01*
X0261598Y0219945D01*
X0260097Y0219945D01*
X0259346Y0219195D01*
X0259346Y0216943D01*
X0263850Y0216943D01*
X0262349Y0218444D02*
X0263850Y0219945D01*
X0275048Y0230844D02*
X0275682Y0231478D01*
X0275048Y0232112D01*
X0276950Y0232112D01*
X0276950Y0233054D02*
X0276950Y0233688D01*
X0276950Y0233371D02*
X0275048Y0233371D01*
X0275048Y0233054D02*
X0275048Y0233688D01*
X0275048Y0234527D02*
X0275048Y0235478D01*
X0275365Y0235795D01*
X0276633Y0235795D01*
X0276950Y0235478D01*
X0276950Y0234527D01*
X0275048Y0234527D01*
X0275048Y0236737D02*
X0275048Y0237371D01*
X0275048Y0237054D02*
X0276950Y0237054D01*
X0276950Y0236737D02*
X0276950Y0237371D01*
X0276950Y0238844D02*
X0275048Y0238844D01*
X0275048Y0238210D02*
X0275048Y0239478D01*
X0275048Y0240420D02*
X0276950Y0240420D01*
X0275999Y0240420D02*
X0275999Y0241688D01*
X0275048Y0241688D02*
X0276950Y0241688D01*
X0276950Y0242630D02*
X0275048Y0242630D01*
X0275048Y0243581D01*
X0275365Y0243898D01*
X0275999Y0243898D01*
X0276316Y0243581D01*
X0276316Y0242630D01*
X0276316Y0243264D02*
X0276950Y0243898D01*
X0276633Y0244840D02*
X0276950Y0245157D01*
X0276950Y0245791D01*
X0276633Y0246108D01*
X0275048Y0246108D01*
X0275048Y0244840D02*
X0276633Y0244840D01*
X0276950Y0230844D02*
X0275048Y0230844D01*
X0259346Y0193856D02*
X0259346Y0190854D01*
X0263850Y0190854D01*
X0261598Y0190854D02*
X0261598Y0192355D01*
X0179550Y0194550D02*
X0179550Y0196051D01*
X0179550Y0195301D02*
X0175046Y0195301D01*
X0175046Y0196051D02*
X0175046Y0194550D01*
X0175797Y0197619D02*
X0175046Y0198370D01*
X0175046Y0199871D01*
X0175797Y0200622D01*
X0176547Y0202223D02*
X0175046Y0203724D01*
X0179550Y0203724D01*
X0179550Y0202223D02*
X0179550Y0205226D01*
X0178799Y0200622D02*
X0179550Y0199871D01*
X0179550Y0198370D01*
X0178799Y0197619D01*
X0175797Y0197619D01*
X0165050Y0198301D02*
X0165050Y0199802D01*
X0164299Y0200553D01*
X0162798Y0202154D02*
X0162798Y0205156D01*
X0160546Y0204406D02*
X0162798Y0202154D01*
X0161297Y0200553D02*
X0160546Y0199802D01*
X0160546Y0198301D01*
X0161297Y0197550D01*
X0164299Y0197550D01*
X0165050Y0198301D01*
X0165050Y0204406D02*
X0160546Y0204406D01*
X0087550Y0236050D02*
X0085648Y0236050D01*
X0085648Y0237318D01*
X0085648Y0238260D02*
X0085648Y0239211D01*
X0085965Y0239528D01*
X0086599Y0239528D01*
X0086916Y0239211D01*
X0086916Y0238260D01*
X0086916Y0238894D02*
X0087550Y0239528D01*
X0087233Y0240470D02*
X0085965Y0240470D01*
X0085648Y0240787D01*
X0085648Y0241421D01*
X0085965Y0241737D01*
X0087233Y0241737D01*
X0087550Y0241421D01*
X0087550Y0240787D01*
X0087233Y0240470D01*
X0087550Y0242680D02*
X0085648Y0242680D01*
X0087550Y0243947D01*
X0085648Y0243947D01*
X0085648Y0244890D02*
X0085648Y0246157D01*
X0085648Y0245523D02*
X0087550Y0245523D01*
X0087550Y0238260D02*
X0085648Y0238260D01*
X0086599Y0236684D02*
X0086599Y0236050D01*
D14*
X0077678Y0221812D02*
X0077678Y0260788D01*
X0107599Y0260788D01*
X0107599Y0258229D01*
X0101300Y0258229D01*
X0101300Y0224371D02*
X0107599Y0224371D01*
X0107599Y0221812D01*
X0077678Y0221812D01*
X0081300Y0088300D02*
X0082300Y0088300D01*
X0081300Y0088300D02*
X0081300Y0081300D01*
X0081440Y0081298D01*
X0081580Y0081292D01*
X0081720Y0081282D01*
X0081860Y0081269D01*
X0081999Y0081251D01*
X0082138Y0081229D01*
X0082275Y0081204D01*
X0082413Y0081175D01*
X0082549Y0081142D01*
X0082684Y0081105D01*
X0082818Y0081064D01*
X0082951Y0081019D01*
X0083083Y0080971D01*
X0083213Y0080919D01*
X0083342Y0080864D01*
X0083469Y0080805D01*
X0083595Y0080742D01*
X0083719Y0080676D01*
X0083840Y0080607D01*
X0083960Y0080534D01*
X0084078Y0080457D01*
X0084193Y0080378D01*
X0084307Y0080295D01*
X0084417Y0080209D01*
X0084526Y0080120D01*
X0084632Y0080028D01*
X0084735Y0079933D01*
X0084836Y0079836D01*
X0084933Y0079735D01*
X0085028Y0079632D01*
X0085120Y0079526D01*
X0085209Y0079417D01*
X0085295Y0079307D01*
X0085378Y0079193D01*
X0085457Y0079078D01*
X0085534Y0078960D01*
X0085607Y0078840D01*
X0085676Y0078719D01*
X0085742Y0078595D01*
X0085805Y0078469D01*
X0085864Y0078342D01*
X0085919Y0078213D01*
X0085971Y0078083D01*
X0086019Y0077951D01*
X0086064Y0077818D01*
X0086105Y0077684D01*
X0086142Y0077549D01*
X0086175Y0077413D01*
X0086204Y0077275D01*
X0086229Y0077138D01*
X0086251Y0076999D01*
X0086269Y0076860D01*
X0086282Y0076720D01*
X0086292Y0076580D01*
X0086298Y0076440D01*
X0086300Y0076300D01*
X0086298Y0076160D01*
X0086292Y0076020D01*
X0086282Y0075880D01*
X0086269Y0075740D01*
X0086251Y0075601D01*
X0086229Y0075462D01*
X0086204Y0075325D01*
X0086175Y0075187D01*
X0086142Y0075051D01*
X0086105Y0074916D01*
X0086064Y0074782D01*
X0086019Y0074649D01*
X0085971Y0074517D01*
X0085919Y0074387D01*
X0085864Y0074258D01*
X0085805Y0074131D01*
X0085742Y0074005D01*
X0085676Y0073881D01*
X0085607Y0073760D01*
X0085534Y0073640D01*
X0085457Y0073522D01*
X0085378Y0073407D01*
X0085295Y0073293D01*
X0085209Y0073183D01*
X0085120Y0073074D01*
X0085028Y0072968D01*
X0084933Y0072865D01*
X0084836Y0072764D01*
X0084735Y0072667D01*
X0084632Y0072572D01*
X0084526Y0072480D01*
X0084417Y0072391D01*
X0084307Y0072305D01*
X0084193Y0072222D01*
X0084078Y0072143D01*
X0083960Y0072066D01*
X0083840Y0071993D01*
X0083719Y0071924D01*
X0083595Y0071858D01*
X0083469Y0071795D01*
X0083342Y0071736D01*
X0083213Y0071681D01*
X0083083Y0071629D01*
X0082951Y0071581D01*
X0082818Y0071536D01*
X0082684Y0071495D01*
X0082549Y0071458D01*
X0082413Y0071425D01*
X0082275Y0071396D01*
X0082138Y0071371D01*
X0081999Y0071349D01*
X0081860Y0071331D01*
X0081720Y0071318D01*
X0081580Y0071308D01*
X0081440Y0071302D01*
X0081300Y0071300D01*
X0081300Y0064300D01*
X0082300Y0064300D01*
X0215300Y0031300D02*
X0216300Y0031300D01*
X0216300Y0034300D01*
X0236300Y0034300D01*
X0236300Y0031300D01*
X0237300Y0031300D01*
X0236300Y0031300D02*
X0236300Y0028300D01*
X0216300Y0028300D01*
X0216300Y0031300D01*
X0233800Y0033800D02*
X0233800Y0028800D01*
X0221300Y0064300D02*
X0220300Y0064300D01*
X0221300Y0064300D02*
X0221300Y0088300D01*
X0220300Y0088300D01*
X0255001Y0225749D02*
X0255001Y0228308D01*
X0261300Y0228308D01*
X0255001Y0225749D02*
X0284922Y0225749D01*
X0284922Y0256851D01*
X0255001Y0256851D01*
X0255001Y0254292D01*
X0261300Y0254292D01*
D15*
X0094344Y0078602D02*
X0094344Y0076400D01*
X0093610Y0076400D02*
X0095078Y0076400D01*
X0093610Y0077868D02*
X0094344Y0078602D01*
X0092868Y0078602D02*
X0092868Y0076767D01*
X0092501Y0076400D01*
X0091767Y0076400D01*
X0091400Y0076767D01*
X0091400Y0078602D01*
M02*
