G75*
%MOIN*%
%OFA0B0*%
%FSLAX25Y25*%
%IPPOS*%
%LPD*%
%AMOC8*
5,1,8,0,0,1.08239X$1,22.5*
%
%ADD10C,0.04800*%
%ADD11OC8,0.04800*%
%ADD12C,0.07400*%
%ADD13C,0.06299*%
%ADD14R,0.04724X0.04724*%
%ADD15C,0.04724*%
%ADD16OC8,0.12598*%
%ADD17C,0.07600*%
%ADD18C,0.06000*%
%ADD19OC8,0.06000*%
%ADD20C,0.01000*%
%ADD21C,0.02362*%
%ADD22C,0.00500*%
D10*
X0081450Y0026250D02*
X0086250Y0026250D01*
X0086250Y0036250D02*
X0081450Y0036250D01*
X0081450Y0046250D02*
X0086250Y0046250D01*
X0086250Y0056250D02*
X0081450Y0056250D01*
X0083850Y0071250D02*
X0088650Y0071250D01*
X0088650Y0081250D02*
X0083850Y0081250D01*
X0083850Y0091250D02*
X0088650Y0091250D01*
X0088650Y0101250D02*
X0083850Y0101250D01*
X0083850Y0111250D02*
X0088650Y0111250D01*
X0088650Y0121250D02*
X0083850Y0121250D01*
X0083850Y0131250D02*
X0088650Y0131250D01*
X0088650Y0141250D02*
X0083850Y0141250D01*
X0083850Y0151250D02*
X0088650Y0151250D01*
X0088650Y0161250D02*
X0083850Y0161250D01*
X0083850Y0171250D02*
X0088650Y0171250D01*
X0088650Y0181250D02*
X0083850Y0181250D01*
X0083850Y0191250D02*
X0088650Y0191250D01*
X0088650Y0201250D02*
X0083850Y0201250D01*
X0106250Y0223850D02*
X0106250Y0228650D01*
X0116250Y0228650D02*
X0116250Y0223850D01*
X0126250Y0223850D02*
X0126250Y0228650D01*
X0143850Y0231250D02*
X0148650Y0231250D01*
X0148650Y0221250D02*
X0143850Y0221250D01*
X0143850Y0211250D02*
X0148650Y0211250D01*
X0148650Y0201250D02*
X0143850Y0201250D01*
X0143850Y0191250D02*
X0148650Y0191250D01*
X0173850Y0191250D02*
X0178650Y0191250D01*
X0178650Y0201250D02*
X0173850Y0201250D01*
X0173850Y0211250D02*
X0178650Y0211250D01*
X0178650Y0221250D02*
X0173850Y0221250D01*
X0173850Y0231250D02*
X0178650Y0231250D01*
X0178650Y0241250D02*
X0173850Y0241250D01*
X0173850Y0251250D02*
X0178650Y0251250D01*
X0148650Y0251250D02*
X0143850Y0251250D01*
X0143850Y0241250D02*
X0148650Y0241250D01*
X0126250Y0253850D02*
X0126250Y0258650D01*
X0106250Y0258650D02*
X0106250Y0253850D01*
X0113850Y0201250D02*
X0118650Y0201250D01*
X0118650Y0191250D02*
X0113850Y0191250D01*
X0113850Y0181250D02*
X0118650Y0181250D01*
X0118650Y0171250D02*
X0113850Y0171250D01*
X0113850Y0161250D02*
X0118650Y0161250D01*
X0118650Y0151250D02*
X0113850Y0151250D01*
X0113850Y0141250D02*
X0118650Y0141250D01*
X0118650Y0131250D02*
X0113850Y0131250D01*
X0113850Y0121250D02*
X0118650Y0121250D01*
X0118650Y0111250D02*
X0113850Y0111250D01*
X0113850Y0101250D02*
X0118650Y0101250D01*
X0118650Y0091250D02*
X0113850Y0091250D01*
X0113850Y0081250D02*
X0118650Y0081250D01*
X0118650Y0071250D02*
X0113850Y0071250D01*
X0116250Y0056250D02*
X0121050Y0056250D01*
X0121050Y0046250D02*
X0116250Y0046250D01*
X0116250Y0036250D02*
X0121050Y0036250D01*
X0121050Y0026250D02*
X0116250Y0026250D01*
D11*
X0116250Y0016250D03*
X0106250Y0016250D03*
X0096250Y0016250D03*
X0071250Y0026250D03*
X0061250Y0026250D03*
X0136250Y0016250D03*
X0146250Y0016250D03*
X0146250Y0036250D03*
X0146250Y0046250D03*
X0146250Y0066250D03*
X0156250Y0181250D03*
X0166250Y0181250D03*
X0126250Y0271250D03*
X0106250Y0271250D03*
X0086250Y0271250D03*
X0066250Y0271250D03*
X0096250Y0211250D03*
X0106250Y0211250D03*
D12*
X0086250Y0016250D03*
X0056250Y0016250D03*
D13*
X0056368Y0044557D03*
X0056368Y0052431D03*
X0162667Y0056368D03*
X0162667Y0064242D03*
X0162667Y0072116D03*
X0162667Y0040620D03*
X0162667Y0032746D03*
X0083927Y0233533D03*
X0083927Y0241407D03*
X0083927Y0249281D03*
X0083927Y0257156D03*
D14*
X0056368Y0127982D03*
D15*
X0056368Y0137982D03*
X0056368Y0147982D03*
X0056368Y0157982D03*
X0044557Y0152982D03*
X0044557Y0142982D03*
X0044557Y0132982D03*
X0032746Y0127982D03*
X0032746Y0137982D03*
X0032746Y0147982D03*
X0032746Y0157982D03*
X0020935Y0152982D03*
X0020935Y0142982D03*
X0020935Y0132982D03*
D16*
X0020935Y0111604D03*
X0044557Y0111604D03*
X0044557Y0174360D03*
X0020935Y0174360D03*
D17*
X0071250Y0176250D03*
X0071250Y0166250D03*
X0071250Y0156250D03*
X0071250Y0146250D03*
X0071250Y0136250D03*
X0071250Y0126250D03*
X0071250Y0116250D03*
X0071250Y0106250D03*
X0071250Y0096250D03*
X0071250Y0086250D03*
X0071250Y0076250D03*
X0071250Y0066250D03*
X0071250Y0056250D03*
X0071250Y0046250D03*
X0131250Y0046250D03*
X0131250Y0056250D03*
X0131250Y0066250D03*
X0131250Y0076250D03*
X0131250Y0086250D03*
X0131250Y0096250D03*
X0131250Y0106250D03*
X0131250Y0116250D03*
X0131250Y0126250D03*
X0131250Y0136250D03*
X0131250Y0146250D03*
X0131250Y0156250D03*
X0131250Y0166250D03*
X0131250Y0176250D03*
X0131250Y0186250D03*
X0131250Y0196250D03*
X0131250Y0206250D03*
X0071250Y0206250D03*
X0071250Y0196250D03*
X0071250Y0186250D03*
D18*
X0049250Y0236250D02*
X0043250Y0236250D01*
X0043250Y0246250D02*
X0049250Y0246250D01*
X0049250Y0256250D02*
X0043250Y0256250D01*
X0043250Y0266250D02*
X0049250Y0266250D01*
X0143250Y0126250D02*
X0149250Y0126250D01*
X0149250Y0116250D02*
X0143250Y0116250D01*
X0143250Y0106250D02*
X0149250Y0106250D01*
X0149250Y0096250D02*
X0143250Y0096250D01*
X0143250Y0086250D02*
X0149250Y0086250D01*
X0149250Y0076250D02*
X0143250Y0076250D01*
X0046250Y0029250D02*
X0046250Y0023250D01*
X0036250Y0023250D02*
X0036250Y0029250D01*
X0026250Y0029250D02*
X0026250Y0023250D01*
D19*
X0156250Y0141250D03*
X0156250Y0151250D03*
X0156250Y0161250D03*
X0166250Y0161250D03*
X0166250Y0151250D03*
X0166250Y0141250D03*
D20*
X0170250Y0137250D01*
X0170250Y0116250D01*
X0170250Y0030250D01*
X0149250Y0009250D01*
X0085250Y0009250D01*
X0080250Y0014250D01*
X0080250Y0018250D01*
X0084250Y0022250D01*
X0088250Y0022250D01*
X0099250Y0033250D01*
X0099250Y0116250D01*
X0090250Y0125250D01*
X0084250Y0125250D01*
X0079250Y0130250D01*
X0079250Y0136250D01*
X0071250Y0144250D01*
X0071250Y0146250D01*
X0071250Y0156250D02*
X0080250Y0156250D01*
X0081250Y0155250D01*
X0094250Y0155250D01*
X0091250Y0158250D02*
X0090250Y0157250D01*
X0082250Y0157250D01*
X0077250Y0162250D01*
X0077250Y0170250D01*
X0071250Y0176250D01*
X0065250Y0183250D02*
X0065250Y0201250D01*
X0066250Y0202250D01*
X0063250Y0206250D02*
X0063250Y0196250D01*
X0053250Y0186250D01*
X0053250Y0181250D01*
X0044250Y0189250D02*
X0044250Y0203250D01*
X0055250Y0214250D01*
X0063250Y0213250D02*
X0063250Y0211250D01*
X0063250Y0213250D02*
X0073250Y0223250D01*
X0075250Y0226250D02*
X0103250Y0198250D01*
X0103250Y0178250D01*
X0096250Y0171250D01*
X0086250Y0171250D01*
X0086250Y0161250D02*
X0100250Y0161250D01*
X0105250Y0158250D02*
X0091250Y0158250D01*
X0092250Y0164250D02*
X0105250Y0177250D01*
X0105250Y0199250D01*
X0102250Y0202250D01*
X0102250Y0211250D01*
X0098250Y0215250D01*
X0095250Y0215250D01*
X0066250Y0244250D01*
X0063250Y0245250D02*
X0063250Y0238250D01*
X0042250Y0217250D01*
X0042250Y0190250D01*
X0033250Y0181250D01*
X0033250Y0158250D01*
X0032746Y0157982D01*
X0033250Y0153250D02*
X0031250Y0153250D01*
X0028250Y0156250D01*
X0028250Y0170250D01*
X0029250Y0171250D01*
X0029250Y0188250D01*
X0032250Y0189250D02*
X0024250Y0197250D01*
X0024250Y0203250D01*
X0047250Y0226250D01*
X0044250Y0227250D02*
X0048250Y0231250D01*
X0051250Y0231250D01*
X0061250Y0241250D01*
X0061250Y0246250D01*
X0086250Y0271250D01*
X0086250Y0262250D02*
X0080250Y0262250D01*
X0063250Y0245250D01*
X0046250Y0246250D02*
X0016250Y0216250D01*
X0016250Y0198250D01*
X0008250Y0190250D01*
X0008250Y0081250D01*
X0052250Y0037250D01*
X0070250Y0037250D01*
X0077250Y0044250D01*
X0077250Y0070250D01*
X0086250Y0079250D01*
X0086250Y0081250D01*
X0093250Y0082250D02*
X0086250Y0089250D01*
X0086250Y0091250D01*
X0088250Y0095250D02*
X0082250Y0095250D01*
X0077250Y0090250D01*
X0077250Y0082250D01*
X0071250Y0076250D01*
X0065250Y0087250D02*
X0065250Y0062250D01*
X0071250Y0056250D01*
X0071250Y0046250D02*
X0064250Y0039250D01*
X0054250Y0039250D01*
X0050250Y0043250D01*
X0044250Y0041250D02*
X0052250Y0033250D01*
X0065250Y0033250D01*
X0067250Y0031250D01*
X0067250Y0023250D01*
X0068250Y0022250D01*
X0065250Y0024250D02*
X0065250Y0028250D01*
X0064250Y0029250D01*
X0064250Y0030250D01*
X0061250Y0026250D02*
X0058250Y0026250D01*
X0048250Y0016250D01*
X0048250Y0010250D01*
X0052250Y0006250D01*
X0149250Y0006250D01*
X0173250Y0030250D01*
X0173250Y0141250D01*
X0168250Y0146250D01*
X0164250Y0146250D01*
X0161250Y0143250D01*
X0161250Y0138250D01*
X0159250Y0136250D01*
X0156250Y0134250D02*
X0151250Y0139250D01*
X0151250Y0170250D01*
X0153250Y0172250D01*
X0153250Y0178250D01*
X0152250Y0179250D01*
X0152250Y0183250D01*
X0157250Y0188250D01*
X0157250Y0230250D01*
X0146250Y0241250D01*
X0142250Y0245250D02*
X0172250Y0245250D01*
X0176250Y0241250D01*
X0183250Y0242250D02*
X0176250Y0249250D01*
X0176250Y0251250D01*
X0183250Y0242250D02*
X0183250Y0190250D01*
X0165250Y0172250D01*
X0178250Y0159250D01*
X0178250Y0116250D01*
X0168250Y0114250D02*
X0156250Y0126250D01*
X0156250Y0134250D01*
X0154250Y0128250D02*
X0154250Y0061250D01*
X0157250Y0051250D02*
X0157250Y0098250D01*
X0159250Y0100250D01*
X0164250Y0094250D02*
X0164250Y0084250D01*
X0168250Y0114250D02*
X0168250Y0031250D01*
X0153250Y0016250D01*
X0146250Y0016250D01*
X0150250Y0004250D02*
X0175250Y0029250D01*
X0175250Y0143250D01*
X0174250Y0144250D01*
X0167250Y0151250D01*
X0166250Y0151250D01*
X0165250Y0172250D02*
X0156250Y0181250D01*
X0155250Y0189250D02*
X0137250Y0171250D01*
X0137250Y0044250D01*
X0133250Y0040250D01*
X0129250Y0040250D01*
X0125250Y0044250D01*
X0125250Y0098250D01*
X0123250Y0100250D01*
X0123250Y0112250D01*
X0120250Y0115250D01*
X0108250Y0115250D01*
X0112250Y0117250D02*
X0107250Y0122250D01*
X0107250Y0156250D01*
X0105250Y0158250D01*
X0104250Y0155250D02*
X0093250Y0144250D01*
X0100250Y0143250D02*
X0100250Y0127250D01*
X0101250Y0126250D01*
X0101250Y0120250D01*
X0100250Y0119250D01*
X0096250Y0115250D02*
X0096250Y0103250D01*
X0088250Y0095250D01*
X0080250Y0097250D02*
X0079250Y0096250D01*
X0071250Y0096250D01*
X0065250Y0087250D02*
X0060250Y0092250D01*
X0060250Y0107250D01*
X0047250Y0120250D01*
X0027250Y0120250D01*
X0016250Y0131250D01*
X0016250Y0154250D01*
X0012250Y0158250D01*
X0012250Y0177250D01*
X0018250Y0183250D01*
X0018250Y0204250D01*
X0021250Y0207250D01*
X0021250Y0203250D02*
X0044250Y0226250D01*
X0044250Y0227250D01*
X0063250Y0206250D02*
X0069250Y0212250D01*
X0083250Y0212250D01*
X0099250Y0196250D01*
X0099250Y0181250D01*
X0096250Y0178250D01*
X0093250Y0177250D02*
X0095250Y0175250D01*
X0097250Y0175250D01*
X0101250Y0179250D01*
X0101250Y0197250D01*
X0081250Y0217250D01*
X0074250Y0217250D01*
X0071250Y0206250D02*
X0080250Y0197250D01*
X0088250Y0197250D01*
X0096250Y0189250D01*
X0093250Y0184250D02*
X0086250Y0191250D01*
X0077250Y0190250D02*
X0086250Y0181250D01*
X0093250Y0184250D02*
X0093250Y0177250D01*
X0077250Y0190250D02*
X0077250Y0194250D01*
X0065250Y0183250D02*
X0045250Y0163250D01*
X0045250Y0153250D01*
X0044557Y0152982D01*
X0044250Y0147250D02*
X0037250Y0154250D01*
X0037250Y0170250D01*
X0036250Y0171250D01*
X0036250Y0181250D01*
X0044250Y0189250D01*
X0037250Y0189250D02*
X0032250Y0189250D01*
X0021250Y0174250D02*
X0020935Y0174360D01*
X0021250Y0174250D02*
X0021250Y0163250D01*
X0025250Y0163250D01*
X0021250Y0163250D02*
X0021250Y0158250D01*
X0028250Y0151250D01*
X0028250Y0136250D01*
X0032250Y0132250D01*
X0036250Y0132250D01*
X0042250Y0126250D01*
X0047250Y0126250D01*
X0054250Y0133250D01*
X0057250Y0133250D01*
X0060250Y0136250D01*
X0060250Y0141250D01*
X0058250Y0143250D01*
X0071250Y0156250D01*
X0058250Y0143250D02*
X0057250Y0142250D01*
X0054250Y0142250D01*
X0045250Y0133250D01*
X0044557Y0132982D01*
X0043250Y0128250D02*
X0037250Y0134250D01*
X0037250Y0149250D01*
X0033250Y0153250D01*
X0044250Y0147250D02*
X0044250Y0143250D01*
X0044557Y0142982D01*
X0053250Y0135250D02*
X0046250Y0128250D01*
X0043250Y0128250D01*
X0053250Y0135250D02*
X0054250Y0135250D01*
X0056250Y0137250D01*
X0056368Y0137982D01*
X0056368Y0127982D02*
X0057250Y0127250D01*
X0057250Y0113250D01*
X0063250Y0107250D01*
X0063250Y0093250D01*
X0042250Y0085250D02*
X0062250Y0065250D01*
X0062250Y0043250D01*
X0068250Y0034250D02*
X0070250Y0034250D01*
X0082250Y0046250D01*
X0086250Y0046250D01*
X0086250Y0040250D02*
X0079250Y0040250D01*
X0075250Y0036250D01*
X0075250Y0024250D01*
X0062250Y0011250D01*
X0063250Y0008250D02*
X0054250Y0008250D01*
X0051250Y0011250D01*
X0056250Y0016250D02*
X0057250Y0016250D01*
X0065250Y0024250D01*
X0077250Y0022250D02*
X0063250Y0008250D01*
X0048250Y0004250D02*
X0150250Y0004250D01*
X0162250Y0032250D02*
X0162667Y0032746D01*
X0162250Y0032250D02*
X0102250Y0032250D01*
X0086250Y0016250D01*
X0077250Y0022250D02*
X0077250Y0028250D01*
X0079250Y0030250D01*
X0086250Y0030250D01*
X0094250Y0038250D01*
X0086250Y0040250D02*
X0093250Y0047250D01*
X0093250Y0082250D01*
X0104250Y0095250D02*
X0103250Y0096250D01*
X0103250Y0150250D01*
X0108250Y0159250D02*
X0108250Y0201250D01*
X0126250Y0219250D01*
X0126250Y0226250D01*
X0125250Y0233250D02*
X0139250Y0233250D01*
X0139250Y0242250D01*
X0142250Y0245250D01*
X0134250Y0236250D02*
X0095250Y0275250D01*
X0045250Y0275250D01*
X0004250Y0234250D01*
X0004250Y0078250D01*
X0013250Y0069250D01*
X0006250Y0080250D02*
X0006250Y0226250D01*
X0046250Y0266250D01*
X0046250Y0256250D02*
X0010250Y0220250D01*
X0010250Y0196250D01*
X0011250Y0155250D02*
X0011250Y0092250D01*
X0040250Y0063250D01*
X0052250Y0063250D01*
X0056250Y0063250D02*
X0042250Y0077250D01*
X0029250Y0077250D01*
X0021250Y0085250D01*
X0021250Y0111250D01*
X0020935Y0111604D01*
X0021250Y0111250D01*
X0044250Y0111250D01*
X0044557Y0111604D01*
X0042250Y0102250D02*
X0042250Y0085250D01*
X0056250Y0063250D02*
X0056250Y0053250D01*
X0056368Y0052431D01*
X0041250Y0045250D02*
X0006250Y0080250D01*
X0023250Y0039250D02*
X0031250Y0031250D01*
X0031250Y0021250D01*
X0048250Y0004250D01*
X0045250Y0015250D02*
X0045250Y0017250D01*
X0041250Y0021250D01*
X0041250Y0045250D01*
X0009250Y0034250D02*
X0005250Y0030250D01*
X0025250Y0127250D02*
X0032250Y0127250D01*
X0032746Y0127982D01*
X0077250Y0124250D02*
X0077250Y0120250D01*
X0086250Y0111250D01*
X0093250Y0125250D02*
X0087250Y0131250D01*
X0086250Y0131250D01*
X0093250Y0125250D02*
X0098250Y0125250D01*
X0112250Y0117250D02*
X0121250Y0117250D01*
X0125250Y0113250D01*
X0125250Y0104250D01*
X0126250Y0103250D01*
X0126250Y0101250D01*
X0116250Y0111250D02*
X0109250Y0104250D01*
X0109250Y0057250D01*
X0116250Y0050250D01*
X0116250Y0046250D01*
X0120250Y0046250D01*
X0128250Y0038250D01*
X0138250Y0038250D01*
X0146250Y0046250D01*
X0146250Y0042250D02*
X0148250Y0042250D01*
X0157250Y0051250D01*
X0146250Y0042250D02*
X0140250Y0036250D01*
X0127250Y0036250D01*
X0123250Y0040250D01*
X0116250Y0040250D01*
X0107250Y0049250D01*
X0107250Y0067250D01*
X0106250Y0068250D01*
X0106250Y0097250D01*
X0104250Y0095250D02*
X0104250Y0066250D01*
X0106250Y0022250D02*
X0113250Y0022250D01*
X0110250Y0016250D02*
X0114250Y0012250D01*
X0126250Y0012250D01*
X0110250Y0016250D02*
X0106250Y0016250D01*
X0106250Y0022250D02*
X0100250Y0016250D01*
X0096250Y0016250D01*
X0116250Y0121250D02*
X0125250Y0121250D01*
X0126250Y0120250D01*
X0116250Y0131250D02*
X0116250Y0133250D01*
X0125250Y0142250D01*
X0125250Y0154250D01*
X0127250Y0156250D01*
X0131250Y0156250D01*
X0127250Y0156250D02*
X0123250Y0160250D01*
X0123250Y0182250D01*
X0116250Y0189250D01*
X0116250Y0191250D01*
X0125250Y0200250D02*
X0125250Y0162250D01*
X0126250Y0161250D01*
X0131250Y0166250D02*
X0131250Y0168250D01*
X0153250Y0190250D01*
X0153250Y0192250D01*
X0150250Y0195250D01*
X0144250Y0195250D01*
X0139250Y0200250D01*
X0139250Y0206250D01*
X0133250Y0212250D01*
X0132250Y0212250D01*
X0129250Y0215250D01*
X0134250Y0215250D02*
X0144250Y0205250D01*
X0150250Y0205250D01*
X0155250Y0200250D01*
X0155250Y0189250D01*
X0146250Y0191250D02*
X0131250Y0176250D01*
X0125250Y0200250D02*
X0119250Y0206250D01*
X0119250Y0208250D01*
X0106250Y0211250D02*
X0106250Y0214250D01*
X0098250Y0222250D01*
X0098250Y0227250D01*
X0084250Y0241250D01*
X0083927Y0241407D01*
X0101250Y0247250D02*
X0086250Y0262250D01*
X0101250Y0247250D02*
X0101250Y0223250D01*
X0106250Y0216250D02*
X0116250Y0226250D01*
X0118250Y0226250D01*
X0125250Y0233250D01*
X0134250Y0230250D02*
X0134250Y0215250D01*
X0139250Y0233250D02*
X0144250Y0233250D01*
X0146250Y0231250D01*
X0176250Y0199250D02*
X0166250Y0189250D01*
X0166250Y0181250D01*
X0176250Y0199250D02*
X0176250Y0201250D01*
X0150250Y0173250D02*
X0150250Y0172250D01*
X0149250Y0171250D01*
X0149250Y0133250D01*
X0154250Y0128250D01*
X0106250Y0214250D02*
X0106250Y0216250D01*
D21*
X0005250Y0030250D03*
X0009250Y0034250D03*
X0023250Y0039250D03*
X0044250Y0041250D03*
X0050250Y0043250D03*
X0062250Y0043250D03*
X0068250Y0034250D03*
X0064250Y0030250D03*
X0068250Y0022250D03*
X0062250Y0011250D03*
X0051250Y0011250D03*
X0045250Y0015250D03*
X0052250Y0063250D03*
X0063250Y0093250D03*
X0080250Y0097250D03*
X0096250Y0115250D03*
X0100250Y0119250D03*
X0098250Y0125250D03*
X0108250Y0115250D03*
X0106250Y0097250D03*
X0126250Y0101250D03*
X0126250Y0120250D03*
X0104250Y0155250D03*
X0103250Y0150250D03*
X0100250Y0143250D03*
X0093250Y0144250D03*
X0094250Y0155250D03*
X0100250Y0161250D03*
X0108250Y0159250D03*
X0096250Y0178250D03*
X0096250Y0189250D03*
X0092250Y0164250D03*
X0077250Y0194250D03*
X0066250Y0202250D03*
X0063250Y0211250D03*
X0055250Y0214250D03*
X0047250Y0226250D03*
X0066250Y0244250D03*
X0075250Y0226250D03*
X0073250Y0223250D03*
X0074250Y0217250D03*
X0053250Y0181250D03*
X0037250Y0189250D03*
X0029250Y0188250D03*
X0021250Y0203250D03*
X0021250Y0207250D03*
X0010250Y0196250D03*
X0025250Y0163250D03*
X0011250Y0155250D03*
X0025250Y0127250D03*
X0042250Y0102250D03*
X0013250Y0069250D03*
X0077250Y0124250D03*
X0104250Y0066250D03*
X0094250Y0038250D03*
X0113250Y0022250D03*
X0126250Y0012250D03*
X0154250Y0061250D03*
X0164250Y0084250D03*
X0164250Y0094250D03*
X0159250Y0100250D03*
X0170250Y0116250D03*
X0178250Y0116250D03*
X0159250Y0136250D03*
X0174250Y0144250D03*
X0150250Y0173250D03*
X0126250Y0161250D03*
X0119250Y0208250D03*
X0129250Y0215250D03*
X0134250Y0230250D03*
X0134250Y0236250D03*
X0101250Y0223250D03*
D22*
X0099500Y0224938D02*
X0099189Y0224627D01*
X0098819Y0223734D01*
X0098819Y0222766D01*
X0099189Y0221873D01*
X0099873Y0221189D01*
X0100766Y0220819D01*
X0101734Y0220819D01*
X0102627Y0221189D01*
X0103188Y0221750D01*
X0104182Y0220756D01*
X0105524Y0220200D01*
X0106976Y0220200D01*
X0108318Y0220756D01*
X0109344Y0221782D01*
X0109900Y0223124D01*
X0109900Y0229376D01*
X0109344Y0230718D01*
X0108318Y0231744D01*
X0106976Y0232300D01*
X0105524Y0232300D01*
X0104182Y0231744D01*
X0103156Y0230718D01*
X0103000Y0230342D01*
X0103000Y0247975D01*
X0101975Y0249000D01*
X0086975Y0264000D01*
X0081475Y0264000D01*
X0085075Y0267600D01*
X0087762Y0267600D01*
X0089900Y0269738D01*
X0089900Y0272762D01*
X0089162Y0273500D01*
X0094525Y0273500D01*
X0105725Y0262300D01*
X0105524Y0262300D01*
X0104182Y0261744D01*
X0103156Y0260718D01*
X0102600Y0259376D01*
X0102600Y0253124D01*
X0103156Y0251782D01*
X0104182Y0250756D01*
X0105524Y0250200D01*
X0106976Y0250200D01*
X0108318Y0250756D01*
X0109344Y0251782D01*
X0109900Y0253124D01*
X0109900Y0258125D01*
X0131819Y0236206D01*
X0131819Y0235766D01*
X0132189Y0234873D01*
X0132873Y0234189D01*
X0133766Y0233819D01*
X0134734Y0233819D01*
X0135627Y0234189D01*
X0136311Y0234873D01*
X0136681Y0235766D01*
X0136681Y0236734D01*
X0136311Y0237627D01*
X0135627Y0238311D01*
X0134734Y0238681D01*
X0134294Y0238681D01*
X0105375Y0267600D01*
X0107762Y0267600D01*
X0109900Y0269738D01*
X0109900Y0272762D01*
X0107762Y0274900D01*
X0104738Y0274900D01*
X0102600Y0272762D01*
X0102600Y0270375D01*
X0095975Y0277000D01*
X0044525Y0277000D01*
X0043500Y0275975D01*
X0003468Y0235943D01*
X0003468Y0282496D01*
X0184071Y0282496D01*
X0184071Y0243904D01*
X0183975Y0244000D01*
X0180082Y0247893D01*
X0180718Y0248156D01*
X0181744Y0249182D01*
X0182300Y0250524D01*
X0182300Y0251976D01*
X0181744Y0253318D01*
X0180718Y0254344D01*
X0179376Y0254900D01*
X0173124Y0254900D01*
X0171782Y0254344D01*
X0170756Y0253318D01*
X0170200Y0251976D01*
X0170200Y0250524D01*
X0170756Y0249182D01*
X0171782Y0248156D01*
X0173124Y0247600D01*
X0175425Y0247600D01*
X0178125Y0244900D01*
X0176500Y0244900D01*
X0176500Y0241500D01*
X0176000Y0241500D01*
X0176000Y0244900D01*
X0173490Y0244900D01*
X0172785Y0244760D01*
X0172121Y0244485D01*
X0171523Y0244085D01*
X0171015Y0243577D01*
X0170615Y0242979D01*
X0170340Y0242315D01*
X0170200Y0241609D01*
X0170200Y0241500D01*
X0176000Y0241500D01*
X0176000Y0241000D01*
X0176500Y0241000D01*
X0176500Y0237600D01*
X0179009Y0237600D01*
X0179715Y0237740D01*
X0180379Y0238015D01*
X0180977Y0238415D01*
X0181485Y0238923D01*
X0181500Y0238946D01*
X0181500Y0233562D01*
X0180718Y0234344D01*
X0179376Y0234900D01*
X0173124Y0234900D01*
X0171782Y0234344D01*
X0170756Y0233318D01*
X0170200Y0231976D01*
X0170200Y0230524D01*
X0170756Y0229182D01*
X0171782Y0228156D01*
X0173124Y0227600D01*
X0179376Y0227600D01*
X0180718Y0228156D01*
X0181500Y0228938D01*
X0181500Y0223554D01*
X0181485Y0223577D01*
X0180977Y0224085D01*
X0180379Y0224485D01*
X0179715Y0224760D01*
X0179009Y0224900D01*
X0176500Y0224900D01*
X0176500Y0221500D01*
X0176000Y0221500D01*
X0176000Y0224900D01*
X0173490Y0224900D01*
X0172785Y0224760D01*
X0172121Y0224485D01*
X0171523Y0224085D01*
X0171015Y0223577D01*
X0170615Y0222979D01*
X0170340Y0222315D01*
X0170200Y0221609D01*
X0170200Y0221500D01*
X0176000Y0221500D01*
X0176000Y0221000D01*
X0176500Y0221000D01*
X0176500Y0217600D01*
X0179009Y0217600D01*
X0179715Y0217740D01*
X0180379Y0218015D01*
X0180977Y0218415D01*
X0181485Y0218923D01*
X0181500Y0218946D01*
X0181500Y0213562D01*
X0180718Y0214344D01*
X0179376Y0214900D01*
X0173124Y0214900D01*
X0171782Y0214344D01*
X0170756Y0213318D01*
X0170200Y0211976D01*
X0170200Y0210524D01*
X0170756Y0209182D01*
X0171782Y0208156D01*
X0173124Y0207600D01*
X0179376Y0207600D01*
X0180718Y0208156D01*
X0181500Y0208938D01*
X0181500Y0203554D01*
X0181485Y0203577D01*
X0180977Y0204085D01*
X0180379Y0204485D01*
X0179715Y0204760D01*
X0179009Y0204900D01*
X0176500Y0204900D01*
X0176500Y0201500D01*
X0176000Y0201500D01*
X0176000Y0204900D01*
X0173490Y0204900D01*
X0172785Y0204760D01*
X0172121Y0204485D01*
X0171523Y0204085D01*
X0171015Y0203577D01*
X0170615Y0202979D01*
X0170340Y0202315D01*
X0170200Y0201609D01*
X0170200Y0201500D01*
X0176000Y0201500D01*
X0176000Y0201000D01*
X0176500Y0201000D01*
X0176500Y0197600D01*
X0179009Y0197600D01*
X0179715Y0197740D01*
X0180379Y0198015D01*
X0180977Y0198415D01*
X0181485Y0198923D01*
X0181500Y0198946D01*
X0181500Y0193562D01*
X0180718Y0194344D01*
X0179376Y0194900D01*
X0173124Y0194900D01*
X0171782Y0194344D01*
X0170756Y0193318D01*
X0170200Y0191976D01*
X0170200Y0190524D01*
X0170756Y0189182D01*
X0171782Y0188156D01*
X0173124Y0187600D01*
X0178125Y0187600D01*
X0165250Y0174725D01*
X0159900Y0180075D01*
X0159900Y0182762D01*
X0157762Y0184900D01*
X0156375Y0184900D01*
X0157975Y0186500D01*
X0159000Y0187525D01*
X0159000Y0230975D01*
X0151268Y0238706D01*
X0151744Y0239182D01*
X0152300Y0240524D01*
X0152300Y0241976D01*
X0151744Y0243318D01*
X0150718Y0244344D01*
X0149376Y0244900D01*
X0143124Y0244900D01*
X0141782Y0244344D01*
X0140756Y0243318D01*
X0140200Y0241976D01*
X0140200Y0240524D01*
X0140756Y0239182D01*
X0141782Y0238156D01*
X0143124Y0237600D01*
X0147425Y0237600D01*
X0150866Y0234159D01*
X0150379Y0234485D01*
X0149715Y0234760D01*
X0149009Y0234900D01*
X0146500Y0234900D01*
X0146500Y0231500D01*
X0152300Y0231500D01*
X0152300Y0231609D01*
X0152160Y0232315D01*
X0151885Y0232979D01*
X0151559Y0233466D01*
X0155500Y0229525D01*
X0155500Y0202475D01*
X0150975Y0207000D01*
X0144975Y0207000D01*
X0144375Y0207600D01*
X0146000Y0207600D01*
X0146000Y0211000D01*
X0146500Y0211000D01*
X0146500Y0211500D01*
X0146000Y0211500D01*
X0146000Y0214900D01*
X0143490Y0214900D01*
X0142785Y0214760D01*
X0142121Y0214485D01*
X0141523Y0214085D01*
X0141015Y0213577D01*
X0140615Y0212979D01*
X0140340Y0212315D01*
X0140227Y0211747D01*
X0136000Y0215975D01*
X0136000Y0228562D01*
X0136311Y0228873D01*
X0136681Y0229766D01*
X0136681Y0230734D01*
X0136311Y0231627D01*
X0135627Y0232311D01*
X0134734Y0232681D01*
X0133766Y0232681D01*
X0132873Y0232311D01*
X0132189Y0231627D01*
X0131819Y0230734D01*
X0131819Y0229766D01*
X0132189Y0228873D01*
X0132500Y0228562D01*
X0132500Y0214525D01*
X0133025Y0214000D01*
X0132975Y0214000D01*
X0131681Y0215294D01*
X0131681Y0215734D01*
X0131311Y0216627D01*
X0130627Y0217311D01*
X0129734Y0217681D01*
X0128766Y0217681D01*
X0127873Y0217311D01*
X0127189Y0216627D01*
X0126819Y0215734D01*
X0126819Y0214766D01*
X0127189Y0213873D01*
X0127873Y0213189D01*
X0128766Y0212819D01*
X0129206Y0212819D01*
X0130500Y0211525D01*
X0130725Y0211300D01*
X0130245Y0211300D01*
X0128389Y0210531D01*
X0126969Y0209111D01*
X0126200Y0207255D01*
X0126200Y0205245D01*
X0126969Y0203389D01*
X0128389Y0201969D01*
X0130125Y0201250D01*
X0128389Y0200531D01*
X0127000Y0199142D01*
X0127000Y0200975D01*
X0125975Y0202000D01*
X0121206Y0206768D01*
X0121311Y0206873D01*
X0121681Y0207766D01*
X0121681Y0208734D01*
X0121311Y0209627D01*
X0120627Y0210311D01*
X0120032Y0210557D01*
X0128000Y0218525D01*
X0128000Y0220624D01*
X0128318Y0220756D01*
X0129344Y0221782D01*
X0129900Y0223124D01*
X0129900Y0229376D01*
X0129344Y0230718D01*
X0128318Y0231744D01*
X0126976Y0232300D01*
X0125524Y0232300D01*
X0124182Y0231744D01*
X0123156Y0230718D01*
X0122600Y0229376D01*
X0122600Y0223124D01*
X0123156Y0221782D01*
X0124182Y0220756D01*
X0124500Y0220624D01*
X0124500Y0219975D01*
X0107525Y0203000D01*
X0106500Y0201975D01*
X0106500Y0200475D01*
X0105975Y0201000D01*
X0104000Y0202975D01*
X0104000Y0208338D01*
X0104738Y0207600D01*
X0106000Y0207600D01*
X0106000Y0211000D01*
X0106500Y0211000D01*
X0106500Y0211500D01*
X0106000Y0211500D01*
X0106000Y0214900D01*
X0104738Y0214900D01*
X0102906Y0213068D01*
X0098975Y0217000D01*
X0095975Y0217000D01*
X0083841Y0229134D01*
X0084802Y0229134D01*
X0086419Y0229804D01*
X0087657Y0231041D01*
X0088327Y0232658D01*
X0088327Y0234409D01*
X0087657Y0236026D01*
X0086419Y0237263D01*
X0085904Y0237477D01*
X0086233Y0237645D01*
X0086793Y0238052D01*
X0087283Y0238541D01*
X0087690Y0239102D01*
X0088004Y0239719D01*
X0088218Y0240377D01*
X0088327Y0241061D01*
X0088327Y0241157D01*
X0084177Y0241157D01*
X0084177Y0241657D01*
X0088327Y0241657D01*
X0088327Y0241754D01*
X0088218Y0242438D01*
X0088004Y0243096D01*
X0087690Y0243713D01*
X0087283Y0244274D01*
X0086793Y0244763D01*
X0086233Y0245170D01*
X0085904Y0245338D01*
X0086419Y0245552D01*
X0087657Y0246789D01*
X0088327Y0248406D01*
X0088327Y0250157D01*
X0087657Y0251774D01*
X0086419Y0253011D01*
X0085919Y0253219D01*
X0086419Y0253426D01*
X0087657Y0254663D01*
X0088327Y0256280D01*
X0088327Y0257698D01*
X0099500Y0246525D01*
X0099500Y0224938D01*
X0099500Y0225082D02*
X0087893Y0225082D01*
X0087395Y0225580D02*
X0099500Y0225580D01*
X0099500Y0226079D02*
X0086896Y0226079D01*
X0086398Y0226577D02*
X0099500Y0226577D01*
X0099500Y0227076D02*
X0085899Y0227076D01*
X0085401Y0227574D02*
X0099500Y0227574D01*
X0099500Y0228073D02*
X0084902Y0228073D01*
X0084404Y0228571D02*
X0099500Y0228571D01*
X0099500Y0229070D02*
X0083905Y0229070D01*
X0085851Y0229568D02*
X0099500Y0229568D01*
X0099500Y0230067D02*
X0086682Y0230067D01*
X0087181Y0230565D02*
X0099500Y0230565D01*
X0099500Y0231064D02*
X0087666Y0231064D01*
X0087873Y0231562D02*
X0099500Y0231562D01*
X0099500Y0232061D02*
X0088079Y0232061D01*
X0088286Y0232559D02*
X0099500Y0232559D01*
X0099500Y0233058D02*
X0088327Y0233058D01*
X0088327Y0233556D02*
X0099500Y0233556D01*
X0099500Y0234055D02*
X0088327Y0234055D01*
X0088267Y0234553D02*
X0099500Y0234553D01*
X0099500Y0235052D02*
X0088060Y0235052D01*
X0087854Y0235550D02*
X0099500Y0235550D01*
X0099500Y0236049D02*
X0087634Y0236049D01*
X0087135Y0236547D02*
X0099500Y0236547D01*
X0099500Y0237046D02*
X0086637Y0237046D01*
X0086036Y0237544D02*
X0099500Y0237544D01*
X0099500Y0238043D02*
X0086781Y0238043D01*
X0087283Y0238541D02*
X0099500Y0238541D01*
X0099500Y0239040D02*
X0087645Y0239040D01*
X0087913Y0239538D02*
X0099500Y0239538D01*
X0099500Y0240037D02*
X0088108Y0240037D01*
X0088243Y0240535D02*
X0099500Y0240535D01*
X0099500Y0241034D02*
X0088322Y0241034D01*
X0088283Y0242031D02*
X0099500Y0242031D01*
X0099500Y0242529D02*
X0088189Y0242529D01*
X0088027Y0243028D02*
X0099500Y0243028D01*
X0099500Y0243527D02*
X0087785Y0243527D01*
X0087464Y0244025D02*
X0099500Y0244025D01*
X0099500Y0244524D02*
X0087033Y0244524D01*
X0086437Y0245022D02*
X0099500Y0245022D01*
X0099500Y0245521D02*
X0086344Y0245521D01*
X0086887Y0246019D02*
X0099500Y0246019D01*
X0099500Y0246518D02*
X0087385Y0246518D01*
X0087751Y0247016D02*
X0099009Y0247016D01*
X0098511Y0247515D02*
X0087957Y0247515D01*
X0088164Y0248013D02*
X0098012Y0248013D01*
X0097514Y0248512D02*
X0088327Y0248512D01*
X0088327Y0249010D02*
X0097015Y0249010D01*
X0096516Y0249509D02*
X0088327Y0249509D01*
X0088327Y0250007D02*
X0096018Y0250007D01*
X0095519Y0250506D02*
X0088182Y0250506D01*
X0087976Y0251004D02*
X0095021Y0251004D01*
X0094522Y0251503D02*
X0087769Y0251503D01*
X0087429Y0252001D02*
X0094024Y0252001D01*
X0093525Y0252500D02*
X0086931Y0252500D01*
X0086432Y0252998D02*
X0093027Y0252998D01*
X0092528Y0253497D02*
X0086490Y0253497D01*
X0086989Y0253995D02*
X0092030Y0253995D01*
X0091531Y0254494D02*
X0087487Y0254494D01*
X0087793Y0254992D02*
X0091033Y0254992D01*
X0090534Y0255491D02*
X0088000Y0255491D01*
X0088206Y0255989D02*
X0090036Y0255989D01*
X0089537Y0256488D02*
X0088327Y0256488D01*
X0088327Y0256986D02*
X0089039Y0256986D01*
X0088540Y0257485D02*
X0088327Y0257485D01*
X0090000Y0260974D02*
X0103413Y0260974D01*
X0103056Y0260476D02*
X0090499Y0260476D01*
X0090997Y0259977D02*
X0102849Y0259977D01*
X0102643Y0259479D02*
X0091496Y0259479D01*
X0091995Y0258980D02*
X0102600Y0258980D01*
X0102600Y0258482D02*
X0092493Y0258482D01*
X0092992Y0257983D02*
X0102600Y0257983D01*
X0102600Y0257485D02*
X0093490Y0257485D01*
X0093989Y0256986D02*
X0102600Y0256986D01*
X0102600Y0256488D02*
X0094487Y0256488D01*
X0094986Y0255989D02*
X0102600Y0255989D01*
X0102600Y0255491D02*
X0095484Y0255491D01*
X0095983Y0254992D02*
X0102600Y0254992D01*
X0102600Y0254494D02*
X0096481Y0254494D01*
X0096980Y0253995D02*
X0102600Y0253995D01*
X0102600Y0253497D02*
X0097478Y0253497D01*
X0097977Y0252998D02*
X0102652Y0252998D01*
X0102859Y0252500D02*
X0098475Y0252500D01*
X0098974Y0252001D02*
X0103065Y0252001D01*
X0103435Y0251503D02*
X0099472Y0251503D01*
X0099971Y0251004D02*
X0103934Y0251004D01*
X0104786Y0250506D02*
X0100469Y0250506D01*
X0100968Y0250007D02*
X0118018Y0250007D01*
X0118516Y0249509D02*
X0101466Y0249509D01*
X0101965Y0249010D02*
X0119015Y0249010D01*
X0119514Y0248512D02*
X0102463Y0248512D01*
X0102962Y0248013D02*
X0120012Y0248013D01*
X0120511Y0247515D02*
X0103000Y0247515D01*
X0103000Y0247016D02*
X0121009Y0247016D01*
X0121508Y0246518D02*
X0103000Y0246518D01*
X0103000Y0246019D02*
X0122006Y0246019D01*
X0122505Y0245521D02*
X0103000Y0245521D01*
X0103000Y0245022D02*
X0123003Y0245022D01*
X0123502Y0244524D02*
X0103000Y0244524D01*
X0103000Y0244025D02*
X0124000Y0244025D01*
X0124499Y0243527D02*
X0103000Y0243527D01*
X0103000Y0243028D02*
X0124997Y0243028D01*
X0125496Y0242529D02*
X0103000Y0242529D01*
X0103000Y0242031D02*
X0125994Y0242031D01*
X0126493Y0241532D02*
X0103000Y0241532D01*
X0103000Y0241034D02*
X0126991Y0241034D01*
X0127490Y0240535D02*
X0103000Y0240535D01*
X0103000Y0240037D02*
X0127988Y0240037D01*
X0128487Y0239538D02*
X0103000Y0239538D01*
X0103000Y0239040D02*
X0128985Y0239040D01*
X0129484Y0238541D02*
X0103000Y0238541D01*
X0103000Y0238043D02*
X0129982Y0238043D01*
X0130481Y0237544D02*
X0103000Y0237544D01*
X0103000Y0237046D02*
X0130979Y0237046D01*
X0131478Y0236547D02*
X0103000Y0236547D01*
X0103000Y0236049D02*
X0131819Y0236049D01*
X0131908Y0235550D02*
X0103000Y0235550D01*
X0103000Y0235052D02*
X0132115Y0235052D01*
X0132509Y0234553D02*
X0103000Y0234553D01*
X0103000Y0234055D02*
X0133197Y0234055D01*
X0133472Y0232559D02*
X0103000Y0232559D01*
X0103000Y0232061D02*
X0104946Y0232061D01*
X0104000Y0231562D02*
X0103000Y0231562D01*
X0103000Y0231064D02*
X0103502Y0231064D01*
X0103093Y0230565D02*
X0103000Y0230565D01*
X0103000Y0233058D02*
X0140668Y0233058D01*
X0140615Y0232979D02*
X0140340Y0232315D01*
X0140200Y0231609D01*
X0140200Y0231500D01*
X0146000Y0231500D01*
X0146000Y0234900D01*
X0143490Y0234900D01*
X0142785Y0234760D01*
X0142121Y0234485D01*
X0141523Y0234085D01*
X0141015Y0233577D01*
X0140615Y0232979D01*
X0140442Y0232559D02*
X0135028Y0232559D01*
X0135877Y0232061D02*
X0140290Y0232061D01*
X0140200Y0231562D02*
X0136338Y0231562D01*
X0136544Y0231064D02*
X0146000Y0231064D01*
X0146000Y0231000D02*
X0140200Y0231000D01*
X0140200Y0230890D01*
X0140340Y0230185D01*
X0140615Y0229521D01*
X0141015Y0228923D01*
X0141523Y0228415D01*
X0142121Y0228015D01*
X0142785Y0227740D01*
X0143490Y0227600D01*
X0146000Y0227600D01*
X0146000Y0231000D01*
X0146500Y0231000D01*
X0146500Y0231500D01*
X0146000Y0231500D01*
X0146000Y0231000D01*
X0146000Y0230565D02*
X0146500Y0230565D01*
X0146500Y0231000D02*
X0146500Y0227600D01*
X0149009Y0227600D01*
X0149715Y0227740D01*
X0150379Y0228015D01*
X0150977Y0228415D01*
X0151485Y0228923D01*
X0151885Y0229521D01*
X0152160Y0230185D01*
X0152300Y0230890D01*
X0152300Y0231000D01*
X0146500Y0231000D01*
X0146500Y0231064D02*
X0153961Y0231064D01*
X0153463Y0231562D02*
X0152300Y0231562D01*
X0152210Y0232061D02*
X0152964Y0232061D01*
X0152466Y0232559D02*
X0152058Y0232559D01*
X0151967Y0233058D02*
X0151832Y0233058D01*
X0150472Y0234553D02*
X0150213Y0234553D01*
X0149973Y0235052D02*
X0136385Y0235052D01*
X0136592Y0235550D02*
X0149475Y0235550D01*
X0148976Y0236049D02*
X0136681Y0236049D01*
X0136681Y0236547D02*
X0148478Y0236547D01*
X0147979Y0237046D02*
X0136552Y0237046D01*
X0136345Y0237544D02*
X0147481Y0237544D01*
X0146500Y0234553D02*
X0146000Y0234553D01*
X0146000Y0234055D02*
X0146500Y0234055D01*
X0146500Y0233556D02*
X0146000Y0233556D01*
X0146000Y0233058D02*
X0146500Y0233058D01*
X0146500Y0232559D02*
X0146000Y0232559D01*
X0146000Y0232061D02*
X0146500Y0232061D01*
X0146500Y0231562D02*
X0146000Y0231562D01*
X0146000Y0230067D02*
X0146500Y0230067D01*
X0146500Y0229568D02*
X0146000Y0229568D01*
X0146000Y0229070D02*
X0146500Y0229070D01*
X0146500Y0228571D02*
X0146000Y0228571D01*
X0146000Y0228073D02*
X0146500Y0228073D01*
X0149376Y0224900D02*
X0143124Y0224900D01*
X0141782Y0224344D01*
X0140756Y0223318D01*
X0140200Y0221976D01*
X0140200Y0220524D01*
X0140756Y0219182D01*
X0141782Y0218156D01*
X0143124Y0217600D01*
X0149376Y0217600D01*
X0150718Y0218156D01*
X0151744Y0219182D01*
X0152300Y0220524D01*
X0152300Y0221976D01*
X0151744Y0223318D01*
X0150718Y0224344D01*
X0149376Y0224900D01*
X0150141Y0224583D02*
X0155500Y0224583D01*
X0155500Y0224085D02*
X0150977Y0224085D01*
X0151476Y0223586D02*
X0155500Y0223586D01*
X0155500Y0223088D02*
X0151840Y0223088D01*
X0152046Y0222589D02*
X0155500Y0222589D01*
X0155500Y0222091D02*
X0152253Y0222091D01*
X0152300Y0221592D02*
X0155500Y0221592D01*
X0155500Y0221093D02*
X0152300Y0221093D01*
X0152300Y0220595D02*
X0155500Y0220595D01*
X0155500Y0220096D02*
X0152123Y0220096D01*
X0151916Y0219598D02*
X0155500Y0219598D01*
X0155500Y0219099D02*
X0151661Y0219099D01*
X0151163Y0218601D02*
X0155500Y0218601D01*
X0155500Y0218102D02*
X0150589Y0218102D01*
X0149385Y0217604D02*
X0155500Y0217604D01*
X0155500Y0217105D02*
X0136000Y0217105D01*
X0136000Y0216607D02*
X0155500Y0216607D01*
X0155500Y0216108D02*
X0136000Y0216108D01*
X0136365Y0215610D02*
X0155500Y0215610D01*
X0155500Y0215111D02*
X0136863Y0215111D01*
X0137362Y0214613D02*
X0142431Y0214613D01*
X0141567Y0214114D02*
X0137861Y0214114D01*
X0138359Y0213616D02*
X0141054Y0213616D01*
X0140708Y0213117D02*
X0138858Y0213117D01*
X0139356Y0212619D02*
X0140466Y0212619D01*
X0140302Y0212120D02*
X0139855Y0212120D01*
X0141911Y0218102D02*
X0136000Y0218102D01*
X0136000Y0217604D02*
X0143115Y0217604D01*
X0141337Y0218601D02*
X0136000Y0218601D01*
X0136000Y0219099D02*
X0140839Y0219099D01*
X0140584Y0219598D02*
X0136000Y0219598D01*
X0136000Y0220096D02*
X0140377Y0220096D01*
X0140200Y0220595D02*
X0136000Y0220595D01*
X0136000Y0221093D02*
X0140200Y0221093D01*
X0140200Y0221592D02*
X0136000Y0221592D01*
X0136000Y0222091D02*
X0140247Y0222091D01*
X0140454Y0222589D02*
X0136000Y0222589D01*
X0136000Y0223088D02*
X0140660Y0223088D01*
X0141024Y0223586D02*
X0136000Y0223586D01*
X0136000Y0224085D02*
X0141523Y0224085D01*
X0142359Y0224583D02*
X0136000Y0224583D01*
X0136000Y0225082D02*
X0155500Y0225082D01*
X0155500Y0225580D02*
X0136000Y0225580D01*
X0136000Y0226079D02*
X0155500Y0226079D01*
X0155500Y0226577D02*
X0136000Y0226577D01*
X0136000Y0227076D02*
X0155500Y0227076D01*
X0155500Y0227574D02*
X0136000Y0227574D01*
X0136000Y0228073D02*
X0142035Y0228073D01*
X0141367Y0228571D02*
X0136009Y0228571D01*
X0136392Y0229070D02*
X0140917Y0229070D01*
X0140596Y0229568D02*
X0136599Y0229568D01*
X0136681Y0230067D02*
X0140389Y0230067D01*
X0140265Y0230565D02*
X0136681Y0230565D01*
X0135303Y0234055D02*
X0141493Y0234055D01*
X0141001Y0233556D02*
X0103000Y0233556D01*
X0107554Y0232061D02*
X0114946Y0232061D01*
X0115185Y0232160D02*
X0114521Y0231885D01*
X0113923Y0231485D01*
X0113415Y0230977D01*
X0113015Y0230379D01*
X0112740Y0229715D01*
X0112600Y0229009D01*
X0112600Y0226500D01*
X0116000Y0226500D01*
X0116000Y0232300D01*
X0115890Y0232300D01*
X0115185Y0232160D01*
X0116000Y0232061D02*
X0116500Y0232061D01*
X0116500Y0232300D02*
X0116500Y0226500D01*
X0116000Y0226500D01*
X0116000Y0226000D01*
X0112600Y0226000D01*
X0112600Y0223490D01*
X0112740Y0222785D01*
X0113015Y0222121D01*
X0113415Y0221523D01*
X0113923Y0221015D01*
X0114521Y0220615D01*
X0115185Y0220340D01*
X0115890Y0220200D01*
X0116000Y0220200D01*
X0116000Y0226000D01*
X0116500Y0226000D01*
X0116500Y0226500D01*
X0119900Y0226500D01*
X0119900Y0229009D01*
X0119760Y0229715D01*
X0119485Y0230379D01*
X0119085Y0230977D01*
X0118577Y0231485D01*
X0117979Y0231885D01*
X0117315Y0232160D01*
X0116609Y0232300D01*
X0116500Y0232300D01*
X0116500Y0231562D02*
X0116000Y0231562D01*
X0116000Y0231064D02*
X0116500Y0231064D01*
X0116500Y0230565D02*
X0116000Y0230565D01*
X0116000Y0230067D02*
X0116500Y0230067D01*
X0116500Y0229568D02*
X0116000Y0229568D01*
X0116000Y0229070D02*
X0116500Y0229070D01*
X0116500Y0228571D02*
X0116000Y0228571D01*
X0116000Y0228073D02*
X0116500Y0228073D01*
X0116500Y0227574D02*
X0116000Y0227574D01*
X0116000Y0227076D02*
X0116500Y0227076D01*
X0116500Y0226577D02*
X0116000Y0226577D01*
X0116000Y0226079D02*
X0109900Y0226079D01*
X0109900Y0226577D02*
X0112600Y0226577D01*
X0112600Y0227076D02*
X0109900Y0227076D01*
X0109900Y0227574D02*
X0112600Y0227574D01*
X0112600Y0228073D02*
X0109900Y0228073D01*
X0109900Y0228571D02*
X0112600Y0228571D01*
X0112612Y0229070D02*
X0109900Y0229070D01*
X0109820Y0229568D02*
X0112711Y0229568D01*
X0112886Y0230067D02*
X0109614Y0230067D01*
X0109407Y0230565D02*
X0113140Y0230565D01*
X0113502Y0231064D02*
X0108998Y0231064D01*
X0108500Y0231562D02*
X0114039Y0231562D01*
X0116500Y0226079D02*
X0122600Y0226079D01*
X0122600Y0226577D02*
X0119900Y0226577D01*
X0119900Y0227076D02*
X0122600Y0227076D01*
X0122600Y0227574D02*
X0119900Y0227574D01*
X0119900Y0228073D02*
X0122600Y0228073D01*
X0122600Y0228571D02*
X0119900Y0228571D01*
X0119888Y0229070D02*
X0122600Y0229070D01*
X0122680Y0229568D02*
X0119789Y0229568D01*
X0119614Y0230067D02*
X0122886Y0230067D01*
X0123093Y0230565D02*
X0119360Y0230565D01*
X0118998Y0231064D02*
X0123502Y0231064D01*
X0124000Y0231562D02*
X0118461Y0231562D01*
X0117554Y0232061D02*
X0124946Y0232061D01*
X0127554Y0232061D02*
X0132623Y0232061D01*
X0132162Y0231562D02*
X0128500Y0231562D01*
X0128998Y0231064D02*
X0131956Y0231064D01*
X0131819Y0230565D02*
X0129407Y0230565D01*
X0129614Y0230067D02*
X0131819Y0230067D01*
X0131901Y0229568D02*
X0129820Y0229568D01*
X0129900Y0229070D02*
X0132107Y0229070D01*
X0132491Y0228571D02*
X0129900Y0228571D01*
X0129900Y0228073D02*
X0132500Y0228073D01*
X0132500Y0227574D02*
X0129900Y0227574D01*
X0129900Y0227076D02*
X0132500Y0227076D01*
X0132500Y0226577D02*
X0129900Y0226577D01*
X0129900Y0226079D02*
X0132500Y0226079D01*
X0132500Y0225580D02*
X0129900Y0225580D01*
X0129900Y0225082D02*
X0132500Y0225082D01*
X0132500Y0224583D02*
X0129900Y0224583D01*
X0129900Y0224085D02*
X0132500Y0224085D01*
X0132500Y0223586D02*
X0129900Y0223586D01*
X0129885Y0223088D02*
X0132500Y0223088D01*
X0132500Y0222589D02*
X0129678Y0222589D01*
X0129472Y0222091D02*
X0132500Y0222091D01*
X0132500Y0221592D02*
X0129154Y0221592D01*
X0128655Y0221093D02*
X0132500Y0221093D01*
X0132500Y0220595D02*
X0128000Y0220595D01*
X0128000Y0220096D02*
X0132500Y0220096D01*
X0132500Y0219598D02*
X0128000Y0219598D01*
X0128000Y0219099D02*
X0132500Y0219099D01*
X0132500Y0218601D02*
X0128000Y0218601D01*
X0127577Y0218102D02*
X0132500Y0218102D01*
X0132500Y0217604D02*
X0129920Y0217604D01*
X0130833Y0217105D02*
X0132500Y0217105D01*
X0132500Y0216607D02*
X0131319Y0216607D01*
X0131526Y0216108D02*
X0132500Y0216108D01*
X0132500Y0215610D02*
X0131681Y0215610D01*
X0131863Y0215111D02*
X0132500Y0215111D01*
X0132500Y0214613D02*
X0132362Y0214613D01*
X0132861Y0214114D02*
X0132911Y0214114D01*
X0130403Y0211622D02*
X0121097Y0211622D01*
X0121595Y0212120D02*
X0129905Y0212120D01*
X0129406Y0212619D02*
X0122094Y0212619D01*
X0122592Y0213117D02*
X0128046Y0213117D01*
X0127446Y0213616D02*
X0123091Y0213616D01*
X0123589Y0214114D02*
X0127089Y0214114D01*
X0126883Y0214613D02*
X0124088Y0214613D01*
X0124586Y0215111D02*
X0126819Y0215111D01*
X0126819Y0215610D02*
X0125085Y0215610D01*
X0125583Y0216108D02*
X0126974Y0216108D01*
X0127181Y0216607D02*
X0126082Y0216607D01*
X0126580Y0217105D02*
X0127667Y0217105D01*
X0127079Y0217604D02*
X0128580Y0217604D01*
X0124500Y0220096D02*
X0092878Y0220096D01*
X0093377Y0219598D02*
X0124123Y0219598D01*
X0123625Y0219099D02*
X0093875Y0219099D01*
X0094374Y0218601D02*
X0123126Y0218601D01*
X0122628Y0218102D02*
X0094872Y0218102D01*
X0095371Y0217604D02*
X0122129Y0217604D01*
X0121631Y0217105D02*
X0095869Y0217105D01*
X0099368Y0216607D02*
X0121132Y0216607D01*
X0120634Y0216108D02*
X0099866Y0216108D01*
X0100365Y0215610D02*
X0120135Y0215610D01*
X0119636Y0215111D02*
X0100863Y0215111D01*
X0101362Y0214613D02*
X0104451Y0214613D01*
X0103952Y0214114D02*
X0101861Y0214114D01*
X0102359Y0213616D02*
X0103454Y0213616D01*
X0102955Y0213117D02*
X0102858Y0213117D01*
X0106000Y0213117D02*
X0106500Y0213117D01*
X0106500Y0212619D02*
X0106000Y0212619D01*
X0106000Y0212120D02*
X0106500Y0212120D01*
X0106500Y0211622D02*
X0106000Y0211622D01*
X0106500Y0211500D02*
X0106500Y0214900D01*
X0107762Y0214900D01*
X0109900Y0212762D01*
X0109900Y0211500D01*
X0106500Y0211500D01*
X0106500Y0211123D02*
X0115648Y0211123D01*
X0115150Y0210625D02*
X0109900Y0210625D01*
X0109900Y0211000D02*
X0106500Y0211000D01*
X0106500Y0207600D01*
X0107762Y0207600D01*
X0109900Y0209738D01*
X0109900Y0211000D01*
X0109900Y0211622D02*
X0116147Y0211622D01*
X0116645Y0212120D02*
X0109900Y0212120D01*
X0109900Y0212619D02*
X0117144Y0212619D01*
X0117642Y0213117D02*
X0109545Y0213117D01*
X0109046Y0213616D02*
X0118141Y0213616D01*
X0118639Y0214114D02*
X0108548Y0214114D01*
X0108049Y0214613D02*
X0119138Y0214613D01*
X0120598Y0211123D02*
X0129819Y0211123D01*
X0128615Y0210625D02*
X0120100Y0210625D01*
X0120812Y0210126D02*
X0127984Y0210126D01*
X0127486Y0209628D02*
X0121310Y0209628D01*
X0121517Y0209129D02*
X0126987Y0209129D01*
X0126770Y0208631D02*
X0121681Y0208631D01*
X0121681Y0208132D02*
X0126564Y0208132D01*
X0126357Y0207634D02*
X0121626Y0207634D01*
X0121420Y0207135D02*
X0126200Y0207135D01*
X0126200Y0206637D02*
X0121338Y0206637D01*
X0121837Y0206138D02*
X0126200Y0206138D01*
X0126200Y0205640D02*
X0122335Y0205640D01*
X0122834Y0205141D02*
X0126243Y0205141D01*
X0126450Y0204643D02*
X0123332Y0204643D01*
X0123831Y0204144D02*
X0126656Y0204144D01*
X0126863Y0203646D02*
X0124329Y0203646D01*
X0124828Y0203147D02*
X0127211Y0203147D01*
X0127710Y0202649D02*
X0125326Y0202649D01*
X0125825Y0202150D02*
X0128208Y0202150D01*
X0129155Y0201652D02*
X0126323Y0201652D01*
X0126822Y0201153D02*
X0129891Y0201153D01*
X0128687Y0200655D02*
X0127000Y0200655D01*
X0127000Y0200156D02*
X0128014Y0200156D01*
X0127516Y0199658D02*
X0127000Y0199658D01*
X0127000Y0199159D02*
X0127017Y0199159D01*
X0132375Y0201250D02*
X0134111Y0201969D01*
X0135531Y0203389D01*
X0136300Y0205245D01*
X0136300Y0206725D01*
X0137500Y0205525D01*
X0137500Y0199525D01*
X0142418Y0194607D01*
X0142121Y0194485D01*
X0141523Y0194085D01*
X0141015Y0193577D01*
X0140615Y0192979D01*
X0140340Y0192315D01*
X0140200Y0191609D01*
X0140200Y0191500D01*
X0146000Y0191500D01*
X0146000Y0191000D01*
X0146500Y0191000D01*
X0146500Y0187600D01*
X0148125Y0187600D01*
X0136285Y0175760D01*
X0136300Y0175853D01*
X0136300Y0176000D01*
X0131500Y0176000D01*
X0131500Y0176500D01*
X0136300Y0176500D01*
X0136300Y0176647D01*
X0136176Y0177433D01*
X0135930Y0178189D01*
X0135569Y0178897D01*
X0135102Y0179540D01*
X0134540Y0180102D01*
X0133897Y0180569D01*
X0133189Y0180930D01*
X0132433Y0181176D01*
X0132261Y0181203D01*
X0134111Y0181969D01*
X0135531Y0183389D01*
X0136300Y0185245D01*
X0136300Y0187255D01*
X0135531Y0189111D01*
X0134111Y0190531D01*
X0132375Y0191250D01*
X0134111Y0191969D01*
X0135531Y0193389D01*
X0136300Y0195245D01*
X0136300Y0197255D01*
X0135531Y0199111D01*
X0134111Y0200531D01*
X0132375Y0201250D01*
X0132609Y0201153D02*
X0137500Y0201153D01*
X0137500Y0200655D02*
X0133813Y0200655D01*
X0134486Y0200156D02*
X0137500Y0200156D01*
X0137500Y0199658D02*
X0134984Y0199658D01*
X0135483Y0199159D02*
X0137866Y0199159D01*
X0138365Y0198660D02*
X0135718Y0198660D01*
X0135924Y0198162D02*
X0138863Y0198162D01*
X0139362Y0197663D02*
X0136131Y0197663D01*
X0136300Y0197165D02*
X0139860Y0197165D01*
X0140359Y0196666D02*
X0136300Y0196666D01*
X0136300Y0196168D02*
X0140857Y0196168D01*
X0141356Y0195669D02*
X0136300Y0195669D01*
X0136269Y0195171D02*
X0141854Y0195171D01*
X0142353Y0194672D02*
X0136063Y0194672D01*
X0135856Y0194174D02*
X0141656Y0194174D01*
X0141113Y0193675D02*
X0135650Y0193675D01*
X0135319Y0193177D02*
X0140748Y0193177D01*
X0140491Y0192678D02*
X0134820Y0192678D01*
X0134322Y0192180D02*
X0140313Y0192180D01*
X0140214Y0191681D02*
X0133417Y0191681D01*
X0132537Y0191183D02*
X0146000Y0191183D01*
X0146000Y0191000D02*
X0140200Y0191000D01*
X0140200Y0190890D01*
X0140340Y0190185D01*
X0140615Y0189521D01*
X0141015Y0188923D01*
X0141523Y0188415D01*
X0142121Y0188015D01*
X0142785Y0187740D01*
X0143490Y0187600D01*
X0146000Y0187600D01*
X0146000Y0191000D01*
X0146000Y0190684D02*
X0146500Y0190684D01*
X0146500Y0190186D02*
X0146000Y0190186D01*
X0146000Y0189687D02*
X0146500Y0189687D01*
X0146500Y0189189D02*
X0146000Y0189189D01*
X0146000Y0188690D02*
X0146500Y0188690D01*
X0146500Y0188192D02*
X0146000Y0188192D01*
X0146000Y0187693D02*
X0146500Y0187693D01*
X0147221Y0186696D02*
X0136300Y0186696D01*
X0136300Y0186198D02*
X0146723Y0186198D01*
X0146224Y0185699D02*
X0136300Y0185699D01*
X0136281Y0185201D02*
X0145726Y0185201D01*
X0145227Y0184702D02*
X0136075Y0184702D01*
X0135868Y0184204D02*
X0144729Y0184204D01*
X0144230Y0183705D02*
X0135662Y0183705D01*
X0135348Y0183207D02*
X0143732Y0183207D01*
X0143233Y0182708D02*
X0134850Y0182708D01*
X0134351Y0182210D02*
X0142735Y0182210D01*
X0142236Y0181711D02*
X0133488Y0181711D01*
X0133612Y0180714D02*
X0141239Y0180714D01*
X0140741Y0180216D02*
X0134383Y0180216D01*
X0134925Y0179717D02*
X0140242Y0179717D01*
X0139744Y0179219D02*
X0135335Y0179219D01*
X0135659Y0178720D02*
X0139245Y0178720D01*
X0138747Y0178222D02*
X0135913Y0178222D01*
X0136081Y0177723D02*
X0138248Y0177723D01*
X0137750Y0177224D02*
X0136209Y0177224D01*
X0136288Y0176726D02*
X0137251Y0176726D01*
X0136753Y0176227D02*
X0131500Y0176227D01*
X0132285Y0181213D02*
X0141738Y0181213D01*
X0143022Y0187693D02*
X0136118Y0187693D01*
X0136300Y0187195D02*
X0147720Y0187195D01*
X0141857Y0188192D02*
X0135912Y0188192D01*
X0135705Y0188690D02*
X0141248Y0188690D01*
X0140837Y0189189D02*
X0135453Y0189189D01*
X0134954Y0189687D02*
X0140547Y0189687D01*
X0140340Y0190186D02*
X0134456Y0190186D01*
X0133741Y0190684D02*
X0140241Y0190684D01*
X0137500Y0201652D02*
X0133345Y0201652D01*
X0134292Y0202150D02*
X0137500Y0202150D01*
X0137500Y0202649D02*
X0134790Y0202649D01*
X0135289Y0203147D02*
X0137500Y0203147D01*
X0137500Y0203646D02*
X0135637Y0203646D01*
X0135844Y0204144D02*
X0137500Y0204144D01*
X0137500Y0204643D02*
X0136050Y0204643D01*
X0136257Y0205141D02*
X0137500Y0205141D01*
X0137385Y0205640D02*
X0136300Y0205640D01*
X0136300Y0206138D02*
X0136887Y0206138D01*
X0136388Y0206637D02*
X0136300Y0206637D01*
X0144840Y0207135D02*
X0155500Y0207135D01*
X0155500Y0206637D02*
X0151338Y0206637D01*
X0151837Y0206138D02*
X0155500Y0206138D01*
X0155500Y0205640D02*
X0152335Y0205640D01*
X0152834Y0205141D02*
X0155500Y0205141D01*
X0155500Y0204643D02*
X0153332Y0204643D01*
X0153831Y0204144D02*
X0155500Y0204144D01*
X0155500Y0203646D02*
X0154329Y0203646D01*
X0154828Y0203147D02*
X0155500Y0203147D01*
X0155500Y0202649D02*
X0155326Y0202649D01*
X0159000Y0202649D02*
X0170479Y0202649D01*
X0170308Y0202150D02*
X0159000Y0202150D01*
X0159000Y0201652D02*
X0170208Y0201652D01*
X0170200Y0201000D02*
X0170200Y0200890D01*
X0170340Y0200185D01*
X0170615Y0199521D01*
X0171015Y0198923D01*
X0171523Y0198415D01*
X0172121Y0198015D01*
X0172785Y0197740D01*
X0173490Y0197600D01*
X0176000Y0197600D01*
X0176000Y0201000D01*
X0170200Y0201000D01*
X0170247Y0200655D02*
X0159000Y0200655D01*
X0159000Y0201153D02*
X0176000Y0201153D01*
X0176000Y0200655D02*
X0176500Y0200655D01*
X0176500Y0200156D02*
X0176000Y0200156D01*
X0176000Y0199658D02*
X0176500Y0199658D01*
X0176500Y0199159D02*
X0176000Y0199159D01*
X0176000Y0198660D02*
X0176500Y0198660D01*
X0176500Y0198162D02*
X0176000Y0198162D01*
X0176000Y0197663D02*
X0176500Y0197663D01*
X0173171Y0197663D02*
X0159000Y0197663D01*
X0159000Y0197165D02*
X0181500Y0197165D01*
X0181500Y0197663D02*
X0179329Y0197663D01*
X0180598Y0198162D02*
X0181500Y0198162D01*
X0181500Y0198660D02*
X0181222Y0198660D01*
X0181500Y0196666D02*
X0159000Y0196666D01*
X0159000Y0196168D02*
X0181500Y0196168D01*
X0181500Y0195669D02*
X0159000Y0195669D01*
X0159000Y0195171D02*
X0181500Y0195171D01*
X0181500Y0194672D02*
X0179926Y0194672D01*
X0180888Y0194174D02*
X0181500Y0194174D01*
X0181500Y0193675D02*
X0181387Y0193675D01*
X0177720Y0187195D02*
X0158670Y0187195D01*
X0159000Y0187693D02*
X0172899Y0187693D01*
X0171746Y0188192D02*
X0159000Y0188192D01*
X0159000Y0188690D02*
X0171248Y0188690D01*
X0170753Y0189189D02*
X0159000Y0189189D01*
X0159000Y0189687D02*
X0170547Y0189687D01*
X0170340Y0190186D02*
X0159000Y0190186D01*
X0159000Y0190684D02*
X0170200Y0190684D01*
X0170200Y0191183D02*
X0159000Y0191183D01*
X0159000Y0191681D02*
X0170200Y0191681D01*
X0170284Y0192180D02*
X0159000Y0192180D01*
X0159000Y0192678D02*
X0170491Y0192678D01*
X0170697Y0193177D02*
X0159000Y0193177D01*
X0159000Y0193675D02*
X0171113Y0193675D01*
X0171612Y0194174D02*
X0159000Y0194174D01*
X0159000Y0194672D02*
X0172574Y0194672D01*
X0171902Y0198162D02*
X0159000Y0198162D01*
X0159000Y0198660D02*
X0171278Y0198660D01*
X0170857Y0199159D02*
X0159000Y0199159D01*
X0159000Y0199658D02*
X0170559Y0199658D01*
X0170352Y0200156D02*
X0159000Y0200156D01*
X0159000Y0203147D02*
X0170728Y0203147D01*
X0171084Y0203646D02*
X0159000Y0203646D01*
X0159000Y0204144D02*
X0171612Y0204144D01*
X0172503Y0204643D02*
X0159000Y0204643D01*
X0159000Y0205141D02*
X0181500Y0205141D01*
X0181500Y0204643D02*
X0179997Y0204643D01*
X0180888Y0204144D02*
X0181500Y0204144D01*
X0181500Y0203646D02*
X0181416Y0203646D01*
X0181500Y0205640D02*
X0159000Y0205640D01*
X0159000Y0206138D02*
X0181500Y0206138D01*
X0181500Y0206637D02*
X0159000Y0206637D01*
X0159000Y0207135D02*
X0181500Y0207135D01*
X0181500Y0207634D02*
X0179457Y0207634D01*
X0180661Y0208132D02*
X0181500Y0208132D01*
X0181500Y0208631D02*
X0181193Y0208631D01*
X0181446Y0213616D02*
X0181500Y0213616D01*
X0181500Y0214114D02*
X0180948Y0214114D01*
X0181500Y0214613D02*
X0180069Y0214613D01*
X0181500Y0215111D02*
X0159000Y0215111D01*
X0159000Y0214613D02*
X0172431Y0214613D01*
X0171552Y0214114D02*
X0159000Y0214114D01*
X0159000Y0213616D02*
X0171054Y0213616D01*
X0170673Y0213117D02*
X0159000Y0213117D01*
X0159000Y0212619D02*
X0170466Y0212619D01*
X0170260Y0212120D02*
X0159000Y0212120D01*
X0159000Y0211622D02*
X0170200Y0211622D01*
X0170200Y0211123D02*
X0159000Y0211123D01*
X0159000Y0210625D02*
X0170200Y0210625D01*
X0170365Y0210126D02*
X0159000Y0210126D01*
X0159000Y0209628D02*
X0170571Y0209628D01*
X0170809Y0209129D02*
X0159000Y0209129D01*
X0159000Y0208631D02*
X0171307Y0208631D01*
X0171839Y0208132D02*
X0159000Y0208132D01*
X0159000Y0207634D02*
X0173043Y0207634D01*
X0176000Y0204643D02*
X0176500Y0204643D01*
X0176500Y0204144D02*
X0176000Y0204144D01*
X0176000Y0203646D02*
X0176500Y0203646D01*
X0176500Y0203147D02*
X0176000Y0203147D01*
X0176000Y0202649D02*
X0176500Y0202649D01*
X0176500Y0202150D02*
X0176000Y0202150D01*
X0176000Y0201652D02*
X0176500Y0201652D01*
X0181500Y0215610D02*
X0159000Y0215610D01*
X0159000Y0216108D02*
X0181500Y0216108D01*
X0181500Y0216607D02*
X0159000Y0216607D01*
X0159000Y0217105D02*
X0181500Y0217105D01*
X0181500Y0217604D02*
X0179029Y0217604D01*
X0180509Y0218102D02*
X0181500Y0218102D01*
X0181500Y0218601D02*
X0181163Y0218601D01*
X0181476Y0223586D02*
X0181500Y0223586D01*
X0181500Y0224085D02*
X0180977Y0224085D01*
X0181500Y0224583D02*
X0180141Y0224583D01*
X0181500Y0225082D02*
X0159000Y0225082D01*
X0159000Y0225580D02*
X0181500Y0225580D01*
X0181500Y0226079D02*
X0159000Y0226079D01*
X0159000Y0226577D02*
X0181500Y0226577D01*
X0181500Y0227076D02*
X0159000Y0227076D01*
X0159000Y0227574D02*
X0181500Y0227574D01*
X0181500Y0228073D02*
X0180517Y0228073D01*
X0181133Y0228571D02*
X0181500Y0228571D01*
X0181500Y0234055D02*
X0181007Y0234055D01*
X0181500Y0234553D02*
X0180213Y0234553D01*
X0181500Y0235052D02*
X0154923Y0235052D01*
X0154425Y0235550D02*
X0181500Y0235550D01*
X0181500Y0236049D02*
X0153926Y0236049D01*
X0153428Y0236547D02*
X0181500Y0236547D01*
X0181500Y0237046D02*
X0152929Y0237046D01*
X0152430Y0237544D02*
X0181500Y0237544D01*
X0181500Y0238043D02*
X0180420Y0238043D01*
X0181103Y0238541D02*
X0181500Y0238541D01*
X0183950Y0244025D02*
X0184071Y0244025D01*
X0184071Y0244524D02*
X0183451Y0244524D01*
X0182953Y0245022D02*
X0184071Y0245022D01*
X0184071Y0245521D02*
X0182454Y0245521D01*
X0181956Y0246019D02*
X0184071Y0246019D01*
X0184071Y0246518D02*
X0181457Y0246518D01*
X0180959Y0247016D02*
X0184071Y0247016D01*
X0184071Y0247515D02*
X0180460Y0247515D01*
X0180373Y0248013D02*
X0184071Y0248013D01*
X0184071Y0248512D02*
X0181073Y0248512D01*
X0181572Y0249010D02*
X0184071Y0249010D01*
X0184071Y0249509D02*
X0181879Y0249509D01*
X0182086Y0250007D02*
X0184071Y0250007D01*
X0184071Y0250506D02*
X0182292Y0250506D01*
X0182300Y0251004D02*
X0184071Y0251004D01*
X0184071Y0251503D02*
X0182300Y0251503D01*
X0182290Y0252001D02*
X0184071Y0252001D01*
X0184071Y0252500D02*
X0182083Y0252500D01*
X0181877Y0252998D02*
X0184071Y0252998D01*
X0184071Y0253497D02*
X0181565Y0253497D01*
X0181067Y0253995D02*
X0184071Y0253995D01*
X0184071Y0254494D02*
X0180357Y0254494D01*
X0184071Y0254992D02*
X0129900Y0254992D01*
X0129900Y0254494D02*
X0142143Y0254494D01*
X0141782Y0254344D02*
X0140756Y0253318D01*
X0140200Y0251976D01*
X0140200Y0250524D01*
X0140756Y0249182D01*
X0141782Y0248156D01*
X0143124Y0247600D01*
X0149376Y0247600D01*
X0150718Y0248156D01*
X0151744Y0249182D01*
X0152300Y0250524D01*
X0152300Y0251976D01*
X0151744Y0253318D01*
X0150718Y0254344D01*
X0149376Y0254900D01*
X0143124Y0254900D01*
X0141782Y0254344D01*
X0141433Y0253995D02*
X0129900Y0253995D01*
X0129900Y0253497D02*
X0140935Y0253497D01*
X0140623Y0252998D02*
X0129848Y0252998D01*
X0129900Y0253124D02*
X0129344Y0251782D01*
X0128318Y0250756D01*
X0126976Y0250200D01*
X0125524Y0250200D01*
X0124182Y0250756D01*
X0123156Y0251782D01*
X0122600Y0253124D01*
X0122600Y0259376D01*
X0123156Y0260718D01*
X0124182Y0261744D01*
X0125524Y0262300D01*
X0126976Y0262300D01*
X0128318Y0261744D01*
X0129344Y0260718D01*
X0129900Y0259376D01*
X0129900Y0253124D01*
X0129641Y0252500D02*
X0140417Y0252500D01*
X0140210Y0252001D02*
X0129435Y0252001D01*
X0129065Y0251503D02*
X0140200Y0251503D01*
X0140200Y0251004D02*
X0128566Y0251004D01*
X0127714Y0250506D02*
X0140208Y0250506D01*
X0140414Y0250007D02*
X0122968Y0250007D01*
X0123466Y0249509D02*
X0140621Y0249509D01*
X0140928Y0249010D02*
X0123965Y0249010D01*
X0124463Y0248512D02*
X0141426Y0248512D01*
X0142127Y0248013D02*
X0124962Y0248013D01*
X0125460Y0247515D02*
X0175511Y0247515D01*
X0176009Y0247016D02*
X0125959Y0247016D01*
X0126457Y0246518D02*
X0176508Y0246518D01*
X0177006Y0246019D02*
X0126956Y0246019D01*
X0127454Y0245521D02*
X0177505Y0245521D01*
X0178003Y0245022D02*
X0127953Y0245022D01*
X0128451Y0244524D02*
X0142215Y0244524D01*
X0141463Y0244025D02*
X0128950Y0244025D01*
X0129448Y0243527D02*
X0140965Y0243527D01*
X0140636Y0243028D02*
X0129947Y0243028D01*
X0130445Y0242529D02*
X0140429Y0242529D01*
X0140223Y0242031D02*
X0130944Y0242031D01*
X0131442Y0241532D02*
X0140200Y0241532D01*
X0140200Y0241034D02*
X0131941Y0241034D01*
X0132439Y0240535D02*
X0140200Y0240535D01*
X0140402Y0240037D02*
X0132938Y0240037D01*
X0133436Y0239538D02*
X0140608Y0239538D01*
X0140898Y0239040D02*
X0133935Y0239040D01*
X0135071Y0238541D02*
X0141397Y0238541D01*
X0142055Y0238043D02*
X0135895Y0238043D01*
X0135991Y0234553D02*
X0142287Y0234553D01*
X0150285Y0244524D02*
X0172215Y0244524D01*
X0171463Y0244025D02*
X0151037Y0244025D01*
X0151535Y0243527D02*
X0170981Y0243527D01*
X0170648Y0243028D02*
X0151864Y0243028D01*
X0152071Y0242529D02*
X0170429Y0242529D01*
X0170284Y0242031D02*
X0152277Y0242031D01*
X0152300Y0241532D02*
X0170200Y0241532D01*
X0170200Y0241000D02*
X0170200Y0240890D01*
X0170340Y0240185D01*
X0170615Y0239521D01*
X0171015Y0238923D01*
X0171523Y0238415D01*
X0172121Y0238015D01*
X0172785Y0237740D01*
X0173490Y0237600D01*
X0176000Y0237600D01*
X0176000Y0241000D01*
X0170200Y0241000D01*
X0170271Y0240535D02*
X0152300Y0240535D01*
X0152300Y0241034D02*
X0176000Y0241034D01*
X0176000Y0241532D02*
X0176500Y0241532D01*
X0176500Y0242031D02*
X0176000Y0242031D01*
X0176000Y0242529D02*
X0176500Y0242529D01*
X0176500Y0243028D02*
X0176000Y0243028D01*
X0176000Y0243527D02*
X0176500Y0243527D01*
X0176500Y0244025D02*
X0176000Y0244025D01*
X0176000Y0244524D02*
X0176500Y0244524D01*
X0176500Y0240535D02*
X0176000Y0240535D01*
X0176000Y0240037D02*
X0176500Y0240037D01*
X0176500Y0239538D02*
X0176000Y0239538D01*
X0176000Y0239040D02*
X0176500Y0239040D01*
X0176500Y0238541D02*
X0176000Y0238541D01*
X0176000Y0238043D02*
X0176500Y0238043D01*
X0172080Y0238043D02*
X0151932Y0238043D01*
X0151433Y0238541D02*
X0171397Y0238541D01*
X0170937Y0239040D02*
X0151602Y0239040D01*
X0151892Y0239538D02*
X0170608Y0239538D01*
X0170402Y0240037D02*
X0152098Y0240037D01*
X0155422Y0234553D02*
X0172287Y0234553D01*
X0171493Y0234055D02*
X0155920Y0234055D01*
X0156419Y0233556D02*
X0170994Y0233556D01*
X0170648Y0233058D02*
X0156917Y0233058D01*
X0157416Y0232559D02*
X0170442Y0232559D01*
X0170235Y0232061D02*
X0157914Y0232061D01*
X0158413Y0231562D02*
X0170200Y0231562D01*
X0170200Y0231064D02*
X0158911Y0231064D01*
X0159000Y0230565D02*
X0170200Y0230565D01*
X0170389Y0230067D02*
X0159000Y0230067D01*
X0159000Y0229568D02*
X0170596Y0229568D01*
X0170868Y0229070D02*
X0159000Y0229070D01*
X0159000Y0228571D02*
X0171367Y0228571D01*
X0171983Y0228073D02*
X0159000Y0228073D01*
X0159000Y0224583D02*
X0172359Y0224583D01*
X0171523Y0224085D02*
X0159000Y0224085D01*
X0159000Y0223586D02*
X0171024Y0223586D01*
X0170688Y0223088D02*
X0159000Y0223088D01*
X0159000Y0222589D02*
X0170454Y0222589D01*
X0170296Y0222091D02*
X0159000Y0222091D01*
X0159000Y0221592D02*
X0170200Y0221592D01*
X0170200Y0221000D02*
X0170200Y0220890D01*
X0170340Y0220185D01*
X0170615Y0219521D01*
X0171015Y0218923D01*
X0171523Y0218415D01*
X0172121Y0218015D01*
X0172785Y0217740D01*
X0173490Y0217600D01*
X0176000Y0217600D01*
X0176000Y0221000D01*
X0170200Y0221000D01*
X0170259Y0220595D02*
X0159000Y0220595D01*
X0159000Y0221093D02*
X0176000Y0221093D01*
X0176000Y0220595D02*
X0176500Y0220595D01*
X0176500Y0220096D02*
X0176000Y0220096D01*
X0176000Y0219598D02*
X0176500Y0219598D01*
X0176500Y0219099D02*
X0176000Y0219099D01*
X0176000Y0218601D02*
X0176500Y0218601D01*
X0176500Y0218102D02*
X0176000Y0218102D01*
X0176000Y0217604D02*
X0176500Y0217604D01*
X0173471Y0217604D02*
X0159000Y0217604D01*
X0159000Y0218102D02*
X0171991Y0218102D01*
X0171337Y0218601D02*
X0159000Y0218601D01*
X0159000Y0219099D02*
X0170897Y0219099D01*
X0170584Y0219598D02*
X0159000Y0219598D01*
X0159000Y0220096D02*
X0170377Y0220096D01*
X0176000Y0221592D02*
X0176500Y0221592D01*
X0176500Y0222091D02*
X0176000Y0222091D01*
X0176000Y0222589D02*
X0176500Y0222589D01*
X0176500Y0223088D02*
X0176000Y0223088D01*
X0176000Y0223586D02*
X0176500Y0223586D01*
X0176500Y0224085D02*
X0176000Y0224085D01*
X0176000Y0224583D02*
X0176500Y0224583D01*
X0172127Y0248013D02*
X0150373Y0248013D01*
X0151073Y0248512D02*
X0171426Y0248512D01*
X0170928Y0249010D02*
X0151572Y0249010D01*
X0151879Y0249509D02*
X0170621Y0249509D01*
X0170414Y0250007D02*
X0152086Y0250007D01*
X0152292Y0250506D02*
X0170208Y0250506D01*
X0170200Y0251004D02*
X0152300Y0251004D01*
X0152300Y0251503D02*
X0170200Y0251503D01*
X0170210Y0252001D02*
X0152290Y0252001D01*
X0152083Y0252500D02*
X0170417Y0252500D01*
X0170623Y0252998D02*
X0151877Y0252998D01*
X0151565Y0253497D02*
X0170935Y0253497D01*
X0171433Y0253995D02*
X0151067Y0253995D01*
X0150357Y0254494D02*
X0172143Y0254494D01*
X0172784Y0264386D02*
X0169653Y0265683D01*
X0167257Y0268079D01*
X0165961Y0271209D01*
X0165961Y0274598D01*
X0167257Y0277728D01*
X0169653Y0280125D01*
X0172784Y0281421D01*
X0176173Y0281421D01*
X0179303Y0280125D01*
X0181699Y0277728D01*
X0182996Y0274598D01*
X0182996Y0271209D01*
X0181699Y0268079D01*
X0179303Y0265683D01*
X0176173Y0264386D01*
X0172784Y0264386D01*
X0172595Y0264464D02*
X0108511Y0264464D01*
X0109009Y0263965D02*
X0184071Y0263965D01*
X0184071Y0263467D02*
X0109508Y0263467D01*
X0110006Y0262968D02*
X0184071Y0262968D01*
X0184071Y0262470D02*
X0110505Y0262470D01*
X0111003Y0261971D02*
X0124731Y0261971D01*
X0123911Y0261473D02*
X0111502Y0261473D01*
X0112000Y0260974D02*
X0123413Y0260974D01*
X0123056Y0260476D02*
X0112499Y0260476D01*
X0112997Y0259977D02*
X0122849Y0259977D01*
X0122643Y0259479D02*
X0113496Y0259479D01*
X0113994Y0258980D02*
X0122600Y0258980D01*
X0122600Y0258482D02*
X0114493Y0258482D01*
X0114992Y0257983D02*
X0122600Y0257983D01*
X0122600Y0257485D02*
X0115490Y0257485D01*
X0115989Y0256986D02*
X0122600Y0256986D01*
X0122600Y0256488D02*
X0116487Y0256488D01*
X0116986Y0255989D02*
X0122600Y0255989D01*
X0122600Y0255491D02*
X0117484Y0255491D01*
X0117983Y0254992D02*
X0122600Y0254992D01*
X0122600Y0254494D02*
X0118481Y0254494D01*
X0118980Y0253995D02*
X0122600Y0253995D01*
X0122600Y0253497D02*
X0119478Y0253497D01*
X0119977Y0252998D02*
X0122652Y0252998D01*
X0122859Y0252500D02*
X0120475Y0252500D01*
X0120974Y0252001D02*
X0123065Y0252001D01*
X0123435Y0251503D02*
X0121472Y0251503D01*
X0121971Y0251004D02*
X0123934Y0251004D01*
X0124786Y0250506D02*
X0122469Y0250506D01*
X0117519Y0250506D02*
X0107714Y0250506D01*
X0108566Y0251004D02*
X0117021Y0251004D01*
X0116522Y0251503D02*
X0109065Y0251503D01*
X0109435Y0252001D02*
X0116024Y0252001D01*
X0115525Y0252500D02*
X0109641Y0252500D01*
X0109848Y0252998D02*
X0115027Y0252998D01*
X0114528Y0253497D02*
X0109900Y0253497D01*
X0109900Y0253995D02*
X0114030Y0253995D01*
X0113531Y0254494D02*
X0109900Y0254494D01*
X0109900Y0254992D02*
X0113033Y0254992D01*
X0112534Y0255491D02*
X0109900Y0255491D01*
X0109900Y0255989D02*
X0112036Y0255989D01*
X0111537Y0256488D02*
X0109900Y0256488D01*
X0109900Y0256986D02*
X0111039Y0256986D01*
X0110540Y0257485D02*
X0109900Y0257485D01*
X0109900Y0257983D02*
X0110042Y0257983D01*
X0105555Y0262470D02*
X0088505Y0262470D01*
X0089003Y0261971D02*
X0104731Y0261971D01*
X0103911Y0261473D02*
X0089502Y0261473D01*
X0088006Y0262968D02*
X0105057Y0262968D01*
X0104558Y0263467D02*
X0087508Y0263467D01*
X0087009Y0263965D02*
X0104060Y0263965D01*
X0103561Y0264464D02*
X0081939Y0264464D01*
X0082437Y0264962D02*
X0103063Y0264962D01*
X0102564Y0265461D02*
X0082936Y0265461D01*
X0083434Y0265960D02*
X0102066Y0265960D01*
X0101567Y0266458D02*
X0083933Y0266458D01*
X0084431Y0266957D02*
X0101069Y0266957D01*
X0100570Y0267455D02*
X0084930Y0267455D01*
X0088115Y0267954D02*
X0100072Y0267954D01*
X0099573Y0268452D02*
X0088614Y0268452D01*
X0089112Y0268951D02*
X0099075Y0268951D01*
X0098576Y0269449D02*
X0089611Y0269449D01*
X0089900Y0269948D02*
X0098078Y0269948D01*
X0097579Y0270446D02*
X0089900Y0270446D01*
X0089900Y0270945D02*
X0097080Y0270945D01*
X0096582Y0271443D02*
X0089900Y0271443D01*
X0089900Y0271942D02*
X0096083Y0271942D01*
X0095585Y0272440D02*
X0089900Y0272440D01*
X0089723Y0272939D02*
X0095086Y0272939D01*
X0094588Y0273437D02*
X0089225Y0273437D01*
X0096048Y0276927D02*
X0166925Y0276927D01*
X0167132Y0277425D02*
X0020408Y0277425D01*
X0020282Y0277728D02*
X0017886Y0280125D01*
X0014755Y0281421D01*
X0011367Y0281421D01*
X0008236Y0280125D01*
X0005840Y0277728D01*
X0004543Y0274598D01*
X0004543Y0271209D01*
X0005840Y0268079D01*
X0008236Y0265683D01*
X0011367Y0264386D01*
X0014755Y0264386D01*
X0017886Y0265683D01*
X0020282Y0268079D01*
X0021579Y0271209D01*
X0021579Y0274598D01*
X0020282Y0277728D01*
X0020087Y0277924D02*
X0167453Y0277924D01*
X0167951Y0278422D02*
X0019588Y0278422D01*
X0019090Y0278921D02*
X0168450Y0278921D01*
X0168948Y0279419D02*
X0018591Y0279419D01*
X0018093Y0279918D02*
X0169447Y0279918D01*
X0170358Y0280416D02*
X0017181Y0280416D01*
X0015978Y0280915D02*
X0171562Y0280915D01*
X0172765Y0281413D02*
X0014774Y0281413D01*
X0011348Y0281413D02*
X0003468Y0281413D01*
X0003468Y0280915D02*
X0010144Y0280915D01*
X0008941Y0280416D02*
X0003468Y0280416D01*
X0003468Y0279918D02*
X0008029Y0279918D01*
X0007531Y0279419D02*
X0003468Y0279419D01*
X0003468Y0278921D02*
X0007032Y0278921D01*
X0006534Y0278422D02*
X0003468Y0278422D01*
X0003468Y0277924D02*
X0006035Y0277924D01*
X0005714Y0277425D02*
X0003468Y0277425D01*
X0003468Y0276927D02*
X0005508Y0276927D01*
X0005302Y0276428D02*
X0003468Y0276428D01*
X0003468Y0275930D02*
X0005095Y0275930D01*
X0004889Y0275431D02*
X0003468Y0275431D01*
X0003468Y0274933D02*
X0004682Y0274933D01*
X0004543Y0274434D02*
X0003468Y0274434D01*
X0003468Y0273936D02*
X0004543Y0273936D01*
X0004543Y0273437D02*
X0003468Y0273437D01*
X0003468Y0272939D02*
X0004543Y0272939D01*
X0004543Y0272440D02*
X0003468Y0272440D01*
X0003468Y0271942D02*
X0004543Y0271942D01*
X0004543Y0271443D02*
X0003468Y0271443D01*
X0003468Y0270945D02*
X0004653Y0270945D01*
X0004859Y0270446D02*
X0003468Y0270446D01*
X0003468Y0269948D02*
X0005066Y0269948D01*
X0005272Y0269449D02*
X0003468Y0269449D01*
X0003468Y0268951D02*
X0005479Y0268951D01*
X0005685Y0268452D02*
X0003468Y0268452D01*
X0003468Y0267954D02*
X0005965Y0267954D01*
X0006464Y0267455D02*
X0003468Y0267455D01*
X0003468Y0266957D02*
X0006962Y0266957D01*
X0007461Y0266458D02*
X0003468Y0266458D01*
X0003468Y0265960D02*
X0007959Y0265960D01*
X0008771Y0265461D02*
X0003468Y0265461D01*
X0003468Y0264962D02*
X0009975Y0264962D01*
X0011178Y0264464D02*
X0003468Y0264464D01*
X0003468Y0263965D02*
X0031491Y0263965D01*
X0030992Y0263467D02*
X0003468Y0263467D01*
X0003468Y0262968D02*
X0030494Y0262968D01*
X0029995Y0262470D02*
X0003468Y0262470D01*
X0003468Y0261971D02*
X0029497Y0261971D01*
X0028998Y0261473D02*
X0003468Y0261473D01*
X0003468Y0260974D02*
X0028500Y0260974D01*
X0028001Y0260476D02*
X0003468Y0260476D01*
X0003468Y0259977D02*
X0027503Y0259977D01*
X0027004Y0259479D02*
X0003468Y0259479D01*
X0003468Y0258980D02*
X0026505Y0258980D01*
X0026007Y0258482D02*
X0003468Y0258482D01*
X0003468Y0257983D02*
X0025508Y0257983D01*
X0025010Y0257485D02*
X0003468Y0257485D01*
X0003468Y0256986D02*
X0024511Y0256986D01*
X0024013Y0256488D02*
X0003468Y0256488D01*
X0003468Y0255989D02*
X0023514Y0255989D01*
X0023016Y0255491D02*
X0003468Y0255491D01*
X0003468Y0254992D02*
X0022517Y0254992D01*
X0022019Y0254494D02*
X0003468Y0254494D01*
X0003468Y0253995D02*
X0021520Y0253995D01*
X0021022Y0253497D02*
X0003468Y0253497D01*
X0003468Y0252998D02*
X0020523Y0252998D01*
X0020025Y0252500D02*
X0003468Y0252500D01*
X0003468Y0252001D02*
X0019526Y0252001D01*
X0019028Y0251503D02*
X0003468Y0251503D01*
X0003468Y0251004D02*
X0018529Y0251004D01*
X0018031Y0250506D02*
X0003468Y0250506D01*
X0003468Y0250007D02*
X0017532Y0250007D01*
X0017034Y0249509D02*
X0003468Y0249509D01*
X0003468Y0249010D02*
X0016535Y0249010D01*
X0016037Y0248512D02*
X0003468Y0248512D01*
X0003468Y0248013D02*
X0015538Y0248013D01*
X0015040Y0247515D02*
X0003468Y0247515D01*
X0003468Y0247016D02*
X0014541Y0247016D01*
X0014043Y0246518D02*
X0003468Y0246518D01*
X0003468Y0246019D02*
X0013544Y0246019D01*
X0013046Y0245521D02*
X0003468Y0245521D01*
X0003468Y0245022D02*
X0012547Y0245022D01*
X0012049Y0244524D02*
X0003468Y0244524D01*
X0003468Y0244025D02*
X0011550Y0244025D01*
X0011052Y0243527D02*
X0003468Y0243527D01*
X0003468Y0243028D02*
X0010553Y0243028D01*
X0010055Y0242529D02*
X0003468Y0242529D01*
X0003468Y0242031D02*
X0009556Y0242031D01*
X0009058Y0241532D02*
X0003468Y0241532D01*
X0003468Y0241034D02*
X0008559Y0241034D01*
X0008061Y0240535D02*
X0003468Y0240535D01*
X0003468Y0240037D02*
X0007562Y0240037D01*
X0007064Y0239538D02*
X0003468Y0239538D01*
X0003468Y0239040D02*
X0006565Y0239040D01*
X0006067Y0238541D02*
X0003468Y0238541D01*
X0003468Y0238043D02*
X0005568Y0238043D01*
X0005070Y0237544D02*
X0003468Y0237544D01*
X0003468Y0237046D02*
X0004571Y0237046D01*
X0004072Y0236547D02*
X0003468Y0236547D01*
X0003468Y0236049D02*
X0003574Y0236049D01*
X0014944Y0264464D02*
X0031989Y0264464D01*
X0032488Y0264962D02*
X0016147Y0264962D01*
X0017351Y0265461D02*
X0032986Y0265461D01*
X0033485Y0265960D02*
X0018163Y0265960D01*
X0018661Y0266458D02*
X0033983Y0266458D01*
X0034482Y0266957D02*
X0019160Y0266957D01*
X0019658Y0267455D02*
X0034980Y0267455D01*
X0035479Y0267954D02*
X0020157Y0267954D01*
X0020437Y0268452D02*
X0035977Y0268452D01*
X0036476Y0268951D02*
X0020643Y0268951D01*
X0020850Y0269449D02*
X0036974Y0269449D01*
X0037473Y0269948D02*
X0021056Y0269948D01*
X0021263Y0270446D02*
X0037971Y0270446D01*
X0038470Y0270945D02*
X0021469Y0270945D01*
X0021579Y0271443D02*
X0038968Y0271443D01*
X0039467Y0271942D02*
X0021579Y0271942D01*
X0021579Y0272440D02*
X0039965Y0272440D01*
X0040464Y0272939D02*
X0021579Y0272939D01*
X0021579Y0273437D02*
X0040962Y0273437D01*
X0041461Y0273936D02*
X0021579Y0273936D01*
X0021579Y0274434D02*
X0041959Y0274434D01*
X0042458Y0274933D02*
X0021440Y0274933D01*
X0021234Y0275431D02*
X0042956Y0275431D01*
X0043455Y0275930D02*
X0021027Y0275930D01*
X0020821Y0276428D02*
X0043953Y0276428D01*
X0044452Y0276927D02*
X0020614Y0276927D01*
X0003468Y0281912D02*
X0184071Y0281912D01*
X0184071Y0282410D02*
X0003468Y0282410D01*
X0020000Y0201136D02*
X0020766Y0200819D01*
X0021734Y0200819D01*
X0022500Y0201136D01*
X0022500Y0196525D01*
X0023525Y0195500D01*
X0023525Y0195500D01*
X0028468Y0190557D01*
X0027873Y0190311D01*
X0027189Y0189627D01*
X0026819Y0188734D01*
X0026819Y0187766D01*
X0027189Y0186873D01*
X0027500Y0186562D01*
X0027500Y0178471D01*
X0024062Y0181909D01*
X0021185Y0181909D01*
X0021185Y0174610D01*
X0027500Y0174610D01*
X0027500Y0174110D01*
X0021185Y0174110D01*
X0021185Y0166811D01*
X0024062Y0166811D01*
X0026500Y0169249D01*
X0026500Y0155525D01*
X0027525Y0154500D01*
X0030525Y0151500D01*
X0031799Y0151500D01*
X0030700Y0151045D01*
X0029684Y0150028D01*
X0029134Y0148701D01*
X0029134Y0147264D01*
X0029684Y0145936D01*
X0030700Y0144920D01*
X0032028Y0144370D01*
X0033465Y0144370D01*
X0034792Y0144920D01*
X0035500Y0145628D01*
X0035500Y0140337D01*
X0034792Y0141045D01*
X0033465Y0141594D01*
X0032028Y0141594D01*
X0030700Y0141045D01*
X0029684Y0140028D01*
X0029134Y0138701D01*
X0029134Y0137264D01*
X0029684Y0135936D01*
X0030700Y0134920D01*
X0032028Y0134370D01*
X0033465Y0134370D01*
X0034792Y0134920D01*
X0035500Y0135628D01*
X0035500Y0133525D01*
X0036525Y0132500D01*
X0042525Y0126500D01*
X0046975Y0126500D01*
X0048000Y0127525D01*
X0053975Y0133500D01*
X0054975Y0133500D01*
X0055845Y0134370D01*
X0057087Y0134370D01*
X0058414Y0134920D01*
X0059430Y0135936D01*
X0059980Y0137264D01*
X0059980Y0138701D01*
X0059430Y0140028D01*
X0058414Y0141045D01*
X0057087Y0141594D01*
X0055650Y0141594D01*
X0054322Y0141045D01*
X0053306Y0140028D01*
X0052756Y0138701D01*
X0052756Y0137264D01*
X0052865Y0137000D01*
X0052525Y0137000D01*
X0048169Y0132644D01*
X0048169Y0132732D01*
X0044807Y0132732D01*
X0044807Y0133232D01*
X0048169Y0133232D01*
X0048169Y0133338D01*
X0048030Y0134036D01*
X0047758Y0134693D01*
X0047363Y0135285D01*
X0046860Y0135788D01*
X0046268Y0136183D01*
X0045611Y0136456D01*
X0044913Y0136594D01*
X0044807Y0136594D01*
X0044807Y0133232D01*
X0044307Y0133232D01*
X0044307Y0132732D01*
X0041243Y0132732D01*
X0039000Y0134975D01*
X0039000Y0149975D01*
X0037975Y0151000D01*
X0037975Y0151000D01*
X0035000Y0153975D01*
X0034271Y0154704D01*
X0034792Y0154920D01*
X0035500Y0155628D01*
X0035500Y0153525D01*
X0036525Y0152500D01*
X0042500Y0146525D01*
X0042500Y0146034D01*
X0041495Y0145028D01*
X0040945Y0143701D01*
X0040945Y0142264D01*
X0041495Y0140936D01*
X0042511Y0139920D01*
X0043839Y0139370D01*
X0045276Y0139370D01*
X0046603Y0139920D01*
X0047619Y0140936D01*
X0048169Y0142264D01*
X0048169Y0143701D01*
X0047619Y0145028D01*
X0046603Y0146045D01*
X0046000Y0146294D01*
X0046000Y0147975D01*
X0044605Y0149370D01*
X0045276Y0149370D01*
X0046603Y0149920D01*
X0047619Y0150936D01*
X0048169Y0152264D01*
X0048169Y0153701D01*
X0047619Y0155028D01*
X0047000Y0155648D01*
X0047000Y0162525D01*
X0065975Y0181500D01*
X0067000Y0182525D01*
X0067000Y0183358D01*
X0068389Y0181969D01*
X0070125Y0181250D01*
X0068389Y0180531D01*
X0066969Y0179111D01*
X0066200Y0177255D01*
X0066200Y0175245D01*
X0066969Y0173389D01*
X0068389Y0171969D01*
X0070125Y0171250D01*
X0068389Y0170531D01*
X0066969Y0169111D01*
X0066200Y0167255D01*
X0066200Y0165245D01*
X0066969Y0163389D01*
X0068389Y0161969D01*
X0070239Y0161203D01*
X0070067Y0161176D01*
X0069311Y0160930D01*
X0068603Y0160569D01*
X0067960Y0160102D01*
X0067398Y0159540D01*
X0066931Y0158897D01*
X0066570Y0158189D01*
X0066324Y0157433D01*
X0066200Y0156647D01*
X0066200Y0156500D01*
X0071000Y0156500D01*
X0071000Y0156000D01*
X0066200Y0156000D01*
X0066200Y0155853D01*
X0066324Y0155067D01*
X0066570Y0154311D01*
X0066931Y0153603D01*
X0067398Y0152960D01*
X0067960Y0152398D01*
X0068603Y0151931D01*
X0069311Y0151570D01*
X0070067Y0151324D01*
X0070239Y0151297D01*
X0068389Y0150531D01*
X0066969Y0149111D01*
X0066200Y0147255D01*
X0066200Y0145245D01*
X0066969Y0143389D01*
X0068389Y0141969D01*
X0070125Y0141250D01*
X0068389Y0140531D01*
X0066969Y0139111D01*
X0066200Y0137255D01*
X0066200Y0135245D01*
X0066969Y0133389D01*
X0068389Y0131969D01*
X0070125Y0131250D01*
X0068389Y0130531D01*
X0066969Y0129111D01*
X0066200Y0127255D01*
X0066200Y0125245D01*
X0066969Y0123389D01*
X0068389Y0121969D01*
X0070125Y0121250D01*
X0068389Y0120531D01*
X0066969Y0119111D01*
X0066200Y0117255D01*
X0066200Y0115245D01*
X0066969Y0113389D01*
X0068389Y0111969D01*
X0070125Y0111250D01*
X0068389Y0110531D01*
X0066969Y0109111D01*
X0066200Y0107255D01*
X0066200Y0105245D01*
X0066969Y0103389D01*
X0068389Y0101969D01*
X0070125Y0101250D01*
X0068389Y0100531D01*
X0066969Y0099111D01*
X0066200Y0097255D01*
X0066200Y0095245D01*
X0066969Y0093389D01*
X0068389Y0091969D01*
X0070125Y0091250D01*
X0068389Y0090531D01*
X0066969Y0089111D01*
X0066645Y0088330D01*
X0065975Y0089000D01*
X0065975Y0089000D01*
X0064032Y0090943D01*
X0064627Y0091189D01*
X0065311Y0091873D01*
X0065681Y0092766D01*
X0065681Y0093734D01*
X0065311Y0094627D01*
X0065000Y0094938D01*
X0065000Y0107975D01*
X0063975Y0109000D01*
X0059000Y0113975D01*
X0059000Y0124370D01*
X0059248Y0124370D01*
X0059980Y0125102D01*
X0059980Y0130862D01*
X0059248Y0131594D01*
X0053488Y0131594D01*
X0052756Y0130862D01*
X0052756Y0125102D01*
X0053488Y0124370D01*
X0055500Y0124370D01*
X0055500Y0114475D01*
X0047975Y0122000D01*
X0027975Y0122000D01*
X0025156Y0124819D01*
X0025734Y0124819D01*
X0026627Y0125189D01*
X0026938Y0125500D01*
X0030120Y0125500D01*
X0030700Y0124920D01*
X0032028Y0124370D01*
X0033465Y0124370D01*
X0034792Y0124920D01*
X0035808Y0125936D01*
X0036358Y0127264D01*
X0036358Y0128701D01*
X0035808Y0130028D01*
X0034792Y0131045D01*
X0033465Y0131594D01*
X0032028Y0131594D01*
X0030700Y0131045D01*
X0029684Y0130028D01*
X0029258Y0129000D01*
X0026938Y0129000D01*
X0026627Y0129311D01*
X0025734Y0129681D01*
X0024766Y0129681D01*
X0023873Y0129311D01*
X0023189Y0128627D01*
X0022819Y0127734D01*
X0022819Y0127156D01*
X0020605Y0129370D01*
X0021654Y0129370D01*
X0022981Y0129920D01*
X0023997Y0130936D01*
X0024547Y0132264D01*
X0024547Y0133701D01*
X0023997Y0135028D01*
X0022981Y0136045D01*
X0021654Y0136594D01*
X0020217Y0136594D01*
X0018889Y0136045D01*
X0018000Y0135156D01*
X0018000Y0140809D01*
X0018889Y0139920D01*
X0020217Y0139370D01*
X0021654Y0139370D01*
X0022981Y0139920D01*
X0023997Y0140936D01*
X0024547Y0142264D01*
X0024547Y0143701D01*
X0023997Y0145028D01*
X0022981Y0146045D01*
X0021654Y0146594D01*
X0020217Y0146594D01*
X0018889Y0146045D01*
X0018000Y0145156D01*
X0018000Y0150809D01*
X0018889Y0149920D01*
X0020217Y0149370D01*
X0021654Y0149370D01*
X0022981Y0149920D01*
X0023997Y0150936D01*
X0024547Y0152264D01*
X0024547Y0153701D01*
X0023997Y0155028D01*
X0022981Y0156045D01*
X0021654Y0156594D01*
X0020217Y0156594D01*
X0018889Y0156045D01*
X0017910Y0155065D01*
X0016975Y0156000D01*
X0014000Y0158975D01*
X0014000Y0170619D01*
X0017808Y0166811D01*
X0020685Y0166811D01*
X0020685Y0174110D01*
X0021185Y0174110D01*
X0021185Y0174610D01*
X0020685Y0174610D01*
X0020685Y0181909D01*
X0019384Y0181909D01*
X0020000Y0182525D01*
X0020000Y0201136D01*
X0020000Y0200655D02*
X0022500Y0200655D01*
X0022500Y0200156D02*
X0020000Y0200156D01*
X0020000Y0199658D02*
X0022500Y0199658D01*
X0022500Y0199159D02*
X0020000Y0199159D01*
X0020000Y0198660D02*
X0022500Y0198660D01*
X0022500Y0198162D02*
X0020000Y0198162D01*
X0020000Y0197663D02*
X0022500Y0197663D01*
X0022500Y0197165D02*
X0020000Y0197165D01*
X0020000Y0196666D02*
X0022500Y0196666D01*
X0022857Y0196168D02*
X0020000Y0196168D01*
X0020000Y0195669D02*
X0023356Y0195669D01*
X0023854Y0195171D02*
X0020000Y0195171D01*
X0020000Y0194672D02*
X0024353Y0194672D01*
X0024851Y0194174D02*
X0020000Y0194174D01*
X0020000Y0193675D02*
X0025350Y0193675D01*
X0025848Y0193177D02*
X0020000Y0193177D01*
X0020000Y0192678D02*
X0026347Y0192678D01*
X0026845Y0192180D02*
X0020000Y0192180D01*
X0020000Y0191681D02*
X0027344Y0191681D01*
X0027842Y0191183D02*
X0020000Y0191183D01*
X0020000Y0190684D02*
X0028341Y0190684D01*
X0027748Y0190186D02*
X0020000Y0190186D01*
X0020000Y0189687D02*
X0027249Y0189687D01*
X0027007Y0189189D02*
X0020000Y0189189D01*
X0020000Y0188690D02*
X0026819Y0188690D01*
X0026819Y0188192D02*
X0020000Y0188192D01*
X0020000Y0187693D02*
X0026849Y0187693D01*
X0027056Y0187195D02*
X0020000Y0187195D01*
X0020000Y0186696D02*
X0027366Y0186696D01*
X0027500Y0186198D02*
X0020000Y0186198D01*
X0020000Y0185699D02*
X0027500Y0185699D01*
X0027500Y0185201D02*
X0020000Y0185201D01*
X0020000Y0184702D02*
X0027500Y0184702D01*
X0027500Y0184204D02*
X0020000Y0184204D01*
X0020000Y0183705D02*
X0027500Y0183705D01*
X0027500Y0183207D02*
X0020000Y0183207D01*
X0020000Y0182708D02*
X0027500Y0182708D01*
X0027500Y0182210D02*
X0019684Y0182210D01*
X0020685Y0181711D02*
X0021185Y0181711D01*
X0021185Y0181213D02*
X0020685Y0181213D01*
X0020685Y0180714D02*
X0021185Y0180714D01*
X0021185Y0180216D02*
X0020685Y0180216D01*
X0020685Y0179717D02*
X0021185Y0179717D01*
X0021185Y0179219D02*
X0020685Y0179219D01*
X0020685Y0178720D02*
X0021185Y0178720D01*
X0021185Y0178222D02*
X0020685Y0178222D01*
X0020685Y0177723D02*
X0021185Y0177723D01*
X0021185Y0177224D02*
X0020685Y0177224D01*
X0020685Y0176726D02*
X0021185Y0176726D01*
X0021185Y0176227D02*
X0020685Y0176227D01*
X0020685Y0175729D02*
X0021185Y0175729D01*
X0021185Y0175230D02*
X0020685Y0175230D01*
X0020685Y0174732D02*
X0021185Y0174732D01*
X0021185Y0174233D02*
X0027500Y0174233D01*
X0026499Y0169248D02*
X0026500Y0169248D01*
X0026500Y0168750D02*
X0026001Y0168750D01*
X0025502Y0168251D02*
X0026500Y0168251D01*
X0026500Y0167753D02*
X0025004Y0167753D01*
X0024505Y0167254D02*
X0026500Y0167254D01*
X0026500Y0166756D02*
X0014000Y0166756D01*
X0014000Y0167254D02*
X0017365Y0167254D01*
X0016866Y0167753D02*
X0014000Y0167753D01*
X0014000Y0168251D02*
X0016368Y0168251D01*
X0015869Y0168750D02*
X0014000Y0168750D01*
X0014000Y0169248D02*
X0015371Y0169248D01*
X0014872Y0169747D02*
X0014000Y0169747D01*
X0014000Y0170245D02*
X0014374Y0170245D01*
X0014000Y0166257D02*
X0026500Y0166257D01*
X0026500Y0165759D02*
X0014000Y0165759D01*
X0014000Y0165260D02*
X0026500Y0165260D01*
X0026500Y0164762D02*
X0014000Y0164762D01*
X0014000Y0164263D02*
X0026500Y0164263D01*
X0026500Y0163765D02*
X0014000Y0163765D01*
X0014000Y0163266D02*
X0026500Y0163266D01*
X0026500Y0162768D02*
X0014000Y0162768D01*
X0014000Y0162269D02*
X0026500Y0162269D01*
X0026500Y0161771D02*
X0014000Y0161771D01*
X0014000Y0161272D02*
X0026500Y0161272D01*
X0026500Y0160774D02*
X0014000Y0160774D01*
X0014000Y0160275D02*
X0026500Y0160275D01*
X0026500Y0159777D02*
X0014000Y0159777D01*
X0014000Y0159278D02*
X0026500Y0159278D01*
X0026500Y0158780D02*
X0014195Y0158780D01*
X0014694Y0158281D02*
X0026500Y0158281D01*
X0026500Y0157783D02*
X0015192Y0157783D01*
X0015691Y0157284D02*
X0026500Y0157284D01*
X0026500Y0156786D02*
X0016189Y0156786D01*
X0016688Y0156287D02*
X0019474Y0156287D01*
X0018633Y0155789D02*
X0017186Y0155789D01*
X0017685Y0155290D02*
X0018134Y0155290D01*
X0014500Y0153525D02*
X0014500Y0130525D01*
X0025500Y0119525D01*
X0026525Y0118500D01*
X0040777Y0118500D01*
X0037008Y0114731D01*
X0037008Y0111854D01*
X0044307Y0111854D01*
X0044307Y0111354D01*
X0044807Y0111354D01*
X0044807Y0104055D01*
X0047684Y0104055D01*
X0052106Y0108477D01*
X0052106Y0111354D01*
X0044807Y0111354D01*
X0044807Y0111854D01*
X0052106Y0111854D01*
X0052106Y0112919D01*
X0058500Y0106525D01*
X0058500Y0093254D01*
X0055700Y0094413D01*
X0052312Y0094413D01*
X0049181Y0093117D01*
X0046785Y0090721D01*
X0045488Y0087590D01*
X0045488Y0084487D01*
X0044000Y0085975D01*
X0044000Y0100562D01*
X0044311Y0100873D01*
X0044681Y0101766D01*
X0044681Y0102734D01*
X0044311Y0103627D01*
X0043883Y0104055D01*
X0044307Y0104055D01*
X0044307Y0111354D01*
X0037008Y0111354D01*
X0037008Y0108477D01*
X0041086Y0104399D01*
X0040873Y0104311D01*
X0040189Y0103627D01*
X0039819Y0102734D01*
X0039819Y0101766D01*
X0040189Y0100873D01*
X0040500Y0100562D01*
X0040500Y0084525D01*
X0041525Y0083500D01*
X0060500Y0064525D01*
X0060500Y0053952D01*
X0060445Y0054120D01*
X0060131Y0054737D01*
X0059724Y0055297D01*
X0059234Y0055787D01*
X0058674Y0056194D01*
X0058057Y0056508D01*
X0057398Y0056722D01*
X0056714Y0056831D01*
X0056618Y0056831D01*
X0056618Y0052681D01*
X0056118Y0052681D01*
X0056118Y0052181D01*
X0051969Y0052181D01*
X0051969Y0052085D01*
X0052077Y0051401D01*
X0052291Y0050742D01*
X0052605Y0050125D01*
X0053012Y0049565D01*
X0053502Y0049075D01*
X0054062Y0048668D01*
X0054392Y0048500D01*
X0053876Y0048287D01*
X0052638Y0047049D01*
X0051969Y0045432D01*
X0051969Y0044970D01*
X0051627Y0045311D01*
X0050734Y0045681D01*
X0049766Y0045681D01*
X0048873Y0045311D01*
X0048189Y0044627D01*
X0047943Y0044032D01*
X0010000Y0081975D01*
X0010000Y0091025D01*
X0010525Y0090500D01*
X0039525Y0061500D01*
X0050562Y0061500D01*
X0050873Y0061189D01*
X0051766Y0060819D01*
X0052734Y0060819D01*
X0053627Y0061189D01*
X0054311Y0061873D01*
X0054681Y0062766D01*
X0054681Y0063734D01*
X0054311Y0064627D01*
X0053627Y0065311D01*
X0052734Y0065681D01*
X0051766Y0065681D01*
X0050873Y0065311D01*
X0050562Y0065000D01*
X0040975Y0065000D01*
X0013000Y0092975D01*
X0013000Y0153562D01*
X0013311Y0153873D01*
X0013557Y0154468D01*
X0014500Y0153525D01*
X0014500Y0153296D02*
X0013000Y0153296D01*
X0013000Y0152797D02*
X0014500Y0152797D01*
X0014500Y0152299D02*
X0013000Y0152299D01*
X0013000Y0151800D02*
X0014500Y0151800D01*
X0014500Y0151302D02*
X0013000Y0151302D01*
X0013000Y0150803D02*
X0014500Y0150803D01*
X0014500Y0150305D02*
X0013000Y0150305D01*
X0013000Y0149806D02*
X0014500Y0149806D01*
X0014500Y0149308D02*
X0013000Y0149308D01*
X0013000Y0148809D02*
X0014500Y0148809D01*
X0014500Y0148311D02*
X0013000Y0148311D01*
X0013000Y0147812D02*
X0014500Y0147812D01*
X0014500Y0147314D02*
X0013000Y0147314D01*
X0013000Y0146815D02*
X0014500Y0146815D01*
X0014500Y0146317D02*
X0013000Y0146317D01*
X0013000Y0145818D02*
X0014500Y0145818D01*
X0014500Y0145320D02*
X0013000Y0145320D01*
X0013000Y0144821D02*
X0014500Y0144821D01*
X0014500Y0144323D02*
X0013000Y0144323D01*
X0013000Y0143824D02*
X0014500Y0143824D01*
X0014500Y0143326D02*
X0013000Y0143326D01*
X0013000Y0142827D02*
X0014500Y0142827D01*
X0014500Y0142329D02*
X0013000Y0142329D01*
X0013000Y0141830D02*
X0014500Y0141830D01*
X0014500Y0141332D02*
X0013000Y0141332D01*
X0013000Y0140833D02*
X0014500Y0140833D01*
X0014500Y0140335D02*
X0013000Y0140335D01*
X0013000Y0139836D02*
X0014500Y0139836D01*
X0014500Y0139338D02*
X0013000Y0139338D01*
X0013000Y0138839D02*
X0014500Y0138839D01*
X0014500Y0138341D02*
X0013000Y0138341D01*
X0013000Y0137842D02*
X0014500Y0137842D01*
X0014500Y0137344D02*
X0013000Y0137344D01*
X0013000Y0136845D02*
X0014500Y0136845D01*
X0014500Y0136347D02*
X0013000Y0136347D01*
X0013000Y0135848D02*
X0014500Y0135848D01*
X0014500Y0135350D02*
X0013000Y0135350D01*
X0013000Y0134851D02*
X0014500Y0134851D01*
X0014500Y0134353D02*
X0013000Y0134353D01*
X0013000Y0133854D02*
X0014500Y0133854D01*
X0014500Y0133355D02*
X0013000Y0133355D01*
X0013000Y0132857D02*
X0014500Y0132857D01*
X0014500Y0132358D02*
X0013000Y0132358D01*
X0013000Y0131860D02*
X0014500Y0131860D01*
X0014500Y0131361D02*
X0013000Y0131361D01*
X0013000Y0130863D02*
X0014500Y0130863D01*
X0014661Y0130364D02*
X0013000Y0130364D01*
X0013000Y0129866D02*
X0015159Y0129866D01*
X0015658Y0129367D02*
X0013000Y0129367D01*
X0013000Y0128869D02*
X0016156Y0128869D01*
X0016655Y0128370D02*
X0013000Y0128370D01*
X0013000Y0127872D02*
X0017153Y0127872D01*
X0017652Y0127373D02*
X0013000Y0127373D01*
X0013000Y0126875D02*
X0018150Y0126875D01*
X0018649Y0126376D02*
X0013000Y0126376D01*
X0013000Y0125878D02*
X0019147Y0125878D01*
X0019646Y0125379D02*
X0013000Y0125379D01*
X0013000Y0124881D02*
X0020144Y0124881D01*
X0020643Y0124382D02*
X0013000Y0124382D01*
X0013000Y0123884D02*
X0021141Y0123884D01*
X0021640Y0123385D02*
X0013000Y0123385D01*
X0013000Y0122887D02*
X0022138Y0122887D01*
X0022637Y0122388D02*
X0013000Y0122388D01*
X0013000Y0121890D02*
X0023135Y0121890D01*
X0023634Y0121391D02*
X0013000Y0121391D01*
X0013000Y0120893D02*
X0024132Y0120893D01*
X0024631Y0120394D02*
X0013000Y0120394D01*
X0013000Y0119896D02*
X0025129Y0119896D01*
X0025628Y0119397D02*
X0013000Y0119397D01*
X0013000Y0118899D02*
X0017553Y0118899D01*
X0017808Y0119154D02*
X0013386Y0114731D01*
X0013386Y0111854D01*
X0020685Y0111854D01*
X0020685Y0111354D01*
X0021185Y0111354D01*
X0021185Y0104055D01*
X0024062Y0104055D01*
X0028484Y0108477D01*
X0028484Y0111354D01*
X0021185Y0111354D01*
X0021185Y0111854D01*
X0028484Y0111854D01*
X0028484Y0114731D01*
X0024062Y0119154D01*
X0021185Y0119154D01*
X0021185Y0111854D01*
X0020685Y0111854D01*
X0020685Y0119154D01*
X0017808Y0119154D01*
X0017055Y0118400D02*
X0013000Y0118400D01*
X0013000Y0117902D02*
X0016556Y0117902D01*
X0016058Y0117403D02*
X0013000Y0117403D01*
X0013000Y0116905D02*
X0015559Y0116905D01*
X0015061Y0116406D02*
X0013000Y0116406D01*
X0013000Y0115908D02*
X0014562Y0115908D01*
X0014064Y0115409D02*
X0013000Y0115409D01*
X0013000Y0114911D02*
X0013565Y0114911D01*
X0013386Y0114412D02*
X0013000Y0114412D01*
X0013000Y0113914D02*
X0013386Y0113914D01*
X0013386Y0113415D02*
X0013000Y0113415D01*
X0013000Y0112917D02*
X0013386Y0112917D01*
X0013386Y0112418D02*
X0013000Y0112418D01*
X0013000Y0111920D02*
X0013386Y0111920D01*
X0013386Y0111354D02*
X0013386Y0108477D01*
X0017808Y0104055D01*
X0020685Y0104055D01*
X0020685Y0111354D01*
X0013386Y0111354D01*
X0013000Y0111421D02*
X0020685Y0111421D01*
X0020685Y0110922D02*
X0021185Y0110922D01*
X0021185Y0110424D02*
X0020685Y0110424D01*
X0020685Y0109925D02*
X0021185Y0109925D01*
X0021185Y0109427D02*
X0020685Y0109427D01*
X0020685Y0108928D02*
X0021185Y0108928D01*
X0021185Y0108430D02*
X0020685Y0108430D01*
X0020685Y0107931D02*
X0021185Y0107931D01*
X0021185Y0107433D02*
X0020685Y0107433D01*
X0020685Y0106934D02*
X0021185Y0106934D01*
X0021185Y0106436D02*
X0020685Y0106436D01*
X0020685Y0105937D02*
X0021185Y0105937D01*
X0021185Y0105439D02*
X0020685Y0105439D01*
X0020685Y0104940D02*
X0021185Y0104940D01*
X0021185Y0104442D02*
X0020685Y0104442D01*
X0017421Y0104442D02*
X0013000Y0104442D01*
X0013000Y0104940D02*
X0016923Y0104940D01*
X0016424Y0105439D02*
X0013000Y0105439D01*
X0013000Y0105937D02*
X0015926Y0105937D01*
X0015427Y0106436D02*
X0013000Y0106436D01*
X0013000Y0106934D02*
X0014929Y0106934D01*
X0014430Y0107433D02*
X0013000Y0107433D01*
X0013000Y0107931D02*
X0013932Y0107931D01*
X0013433Y0108430D02*
X0013000Y0108430D01*
X0013000Y0108928D02*
X0013386Y0108928D01*
X0013386Y0109427D02*
X0013000Y0109427D01*
X0013000Y0109925D02*
X0013386Y0109925D01*
X0013386Y0110424D02*
X0013000Y0110424D01*
X0013000Y0110922D02*
X0013386Y0110922D01*
X0013000Y0103943D02*
X0040505Y0103943D01*
X0040114Y0103445D02*
X0013000Y0103445D01*
X0013000Y0102946D02*
X0039907Y0102946D01*
X0039819Y0102448D02*
X0013000Y0102448D01*
X0013000Y0101949D02*
X0039819Y0101949D01*
X0039950Y0101451D02*
X0013000Y0101451D01*
X0013000Y0100952D02*
X0040156Y0100952D01*
X0040500Y0100454D02*
X0013000Y0100454D01*
X0013000Y0099955D02*
X0040500Y0099955D01*
X0040500Y0099457D02*
X0013000Y0099457D01*
X0013000Y0098958D02*
X0040500Y0098958D01*
X0040500Y0098460D02*
X0013000Y0098460D01*
X0013000Y0097961D02*
X0040500Y0097961D01*
X0040500Y0097463D02*
X0013000Y0097463D01*
X0013000Y0096964D02*
X0040500Y0096964D01*
X0040500Y0096466D02*
X0013000Y0096466D01*
X0013000Y0095967D02*
X0040500Y0095967D01*
X0040500Y0095469D02*
X0013000Y0095469D01*
X0013000Y0094970D02*
X0040500Y0094970D01*
X0040500Y0094472D02*
X0013000Y0094472D01*
X0013000Y0093973D02*
X0040500Y0093973D01*
X0040500Y0093475D02*
X0034649Y0093475D01*
X0034284Y0093626D02*
X0031208Y0093626D01*
X0028367Y0092449D01*
X0026193Y0090275D01*
X0025016Y0087433D01*
X0025016Y0084358D01*
X0026193Y0081517D01*
X0028367Y0079342D01*
X0031208Y0078165D01*
X0034284Y0078165D01*
X0037125Y0079342D01*
X0039299Y0081517D01*
X0040476Y0084358D01*
X0040476Y0087433D01*
X0039299Y0090275D01*
X0037125Y0092449D01*
X0034284Y0093626D01*
X0035853Y0092976D02*
X0040500Y0092976D01*
X0040500Y0092478D02*
X0037056Y0092478D01*
X0037595Y0091979D02*
X0040500Y0091979D01*
X0040500Y0091481D02*
X0038093Y0091481D01*
X0038592Y0090982D02*
X0040500Y0090982D01*
X0040500Y0090484D02*
X0039091Y0090484D01*
X0039419Y0089985D02*
X0040500Y0089985D01*
X0040500Y0089487D02*
X0039626Y0089487D01*
X0039832Y0088988D02*
X0040500Y0088988D01*
X0040500Y0088489D02*
X0040039Y0088489D01*
X0040245Y0087991D02*
X0040500Y0087991D01*
X0040500Y0087492D02*
X0040452Y0087492D01*
X0040476Y0086994D02*
X0040500Y0086994D01*
X0040476Y0086495D02*
X0040500Y0086495D01*
X0040476Y0085997D02*
X0040500Y0085997D01*
X0040476Y0085498D02*
X0040500Y0085498D01*
X0040476Y0085000D02*
X0040500Y0085000D01*
X0040476Y0084501D02*
X0040524Y0084501D01*
X0040329Y0084003D02*
X0041022Y0084003D01*
X0041521Y0083504D02*
X0040123Y0083504D01*
X0039916Y0083006D02*
X0042019Y0083006D01*
X0042518Y0082507D02*
X0039710Y0082507D01*
X0039503Y0082009D02*
X0043016Y0082009D01*
X0043515Y0081510D02*
X0039293Y0081510D01*
X0038795Y0081012D02*
X0044013Y0081012D01*
X0044512Y0080513D02*
X0038296Y0080513D01*
X0037797Y0080015D02*
X0045010Y0080015D01*
X0045509Y0079516D02*
X0037299Y0079516D01*
X0036342Y0079018D02*
X0046007Y0079018D01*
X0046506Y0078519D02*
X0035138Y0078519D01*
X0030354Y0078519D02*
X0027456Y0078519D01*
X0027954Y0078021D02*
X0047004Y0078021D01*
X0047503Y0077522D02*
X0028453Y0077522D01*
X0028951Y0077024D02*
X0048001Y0077024D01*
X0048500Y0076525D02*
X0029450Y0076525D01*
X0029948Y0076027D02*
X0048998Y0076027D01*
X0049497Y0075528D02*
X0030447Y0075528D01*
X0030945Y0075030D02*
X0049995Y0075030D01*
X0050494Y0074531D02*
X0031444Y0074531D01*
X0031942Y0074033D02*
X0050992Y0074033D01*
X0051491Y0073534D02*
X0032441Y0073534D01*
X0032939Y0073036D02*
X0051989Y0073036D01*
X0052488Y0072537D02*
X0033438Y0072537D01*
X0033936Y0072039D02*
X0052987Y0072039D01*
X0053485Y0071540D02*
X0034435Y0071540D01*
X0034933Y0071042D02*
X0053984Y0071042D01*
X0054482Y0070543D02*
X0035432Y0070543D01*
X0035930Y0070045D02*
X0054981Y0070045D01*
X0055479Y0069546D02*
X0036429Y0069546D01*
X0036927Y0069048D02*
X0055978Y0069048D01*
X0056476Y0068549D02*
X0037426Y0068549D01*
X0037924Y0068051D02*
X0056975Y0068051D01*
X0057473Y0067552D02*
X0038423Y0067552D01*
X0038921Y0067053D02*
X0057972Y0067053D01*
X0058470Y0066555D02*
X0039420Y0066555D01*
X0039918Y0066056D02*
X0058969Y0066056D01*
X0059467Y0065558D02*
X0053031Y0065558D01*
X0053879Y0065059D02*
X0059966Y0065059D01*
X0060464Y0064561D02*
X0054338Y0064561D01*
X0054545Y0064062D02*
X0060500Y0064062D01*
X0060500Y0063564D02*
X0054681Y0063564D01*
X0054681Y0063065D02*
X0060500Y0063065D01*
X0060500Y0062567D02*
X0054598Y0062567D01*
X0054392Y0062068D02*
X0060500Y0062068D01*
X0060500Y0061570D02*
X0054008Y0061570D01*
X0053343Y0061071D02*
X0060500Y0061071D01*
X0060500Y0060573D02*
X0031402Y0060573D01*
X0030903Y0061071D02*
X0051157Y0061071D01*
X0050621Y0065059D02*
X0040915Y0065059D01*
X0040417Y0065558D02*
X0051469Y0065558D01*
X0054679Y0056508D02*
X0054062Y0056194D01*
X0053502Y0055787D01*
X0053012Y0055297D01*
X0052605Y0054737D01*
X0052291Y0054120D01*
X0052077Y0053461D01*
X0051969Y0052777D01*
X0051969Y0052681D01*
X0056118Y0052681D01*
X0056118Y0056831D01*
X0056022Y0056831D01*
X0055338Y0056722D01*
X0054679Y0056508D01*
X0054914Y0056585D02*
X0035390Y0056585D01*
X0034892Y0057083D02*
X0060500Y0057083D01*
X0060500Y0056585D02*
X0057822Y0056585D01*
X0058822Y0056086D02*
X0060500Y0056086D01*
X0060500Y0055588D02*
X0059433Y0055588D01*
X0059875Y0055089D02*
X0060500Y0055089D01*
X0060500Y0054591D02*
X0060206Y0054591D01*
X0060454Y0054092D02*
X0060500Y0054092D01*
X0060500Y0057582D02*
X0034393Y0057582D01*
X0033895Y0058080D02*
X0060500Y0058080D01*
X0060500Y0058579D02*
X0033396Y0058579D01*
X0032898Y0059077D02*
X0060500Y0059077D01*
X0060500Y0059576D02*
X0032399Y0059576D01*
X0031901Y0060074D02*
X0060500Y0060074D01*
X0056618Y0056585D02*
X0056118Y0056585D01*
X0056118Y0056086D02*
X0056618Y0056086D01*
X0056618Y0055588D02*
X0056118Y0055588D01*
X0056118Y0055089D02*
X0056618Y0055089D01*
X0056618Y0054591D02*
X0056118Y0054591D01*
X0056118Y0054092D02*
X0056618Y0054092D01*
X0056618Y0053594D02*
X0056118Y0053594D01*
X0056118Y0053095D02*
X0056618Y0053095D01*
X0056118Y0052597D02*
X0039378Y0052597D01*
X0038880Y0053095D02*
X0052019Y0053095D01*
X0052120Y0053594D02*
X0038381Y0053594D01*
X0037883Y0054092D02*
X0052282Y0054092D01*
X0052531Y0054591D02*
X0037384Y0054591D01*
X0036886Y0055089D02*
X0052861Y0055089D01*
X0053303Y0055588D02*
X0036387Y0055588D01*
X0035889Y0056086D02*
X0053914Y0056086D01*
X0051969Y0052098D02*
X0039877Y0052098D01*
X0040375Y0051600D02*
X0052045Y0051600D01*
X0052174Y0051101D02*
X0040874Y0051101D01*
X0041372Y0050603D02*
X0052362Y0050603D01*
X0052621Y0050104D02*
X0041871Y0050104D01*
X0042369Y0049606D02*
X0052983Y0049606D01*
X0053470Y0049107D02*
X0042868Y0049107D01*
X0043366Y0048609D02*
X0054179Y0048609D01*
X0053699Y0048110D02*
X0043865Y0048110D01*
X0044363Y0047612D02*
X0053201Y0047612D01*
X0052702Y0047113D02*
X0044862Y0047113D01*
X0045360Y0046615D02*
X0052458Y0046615D01*
X0052252Y0046116D02*
X0045859Y0046116D01*
X0046357Y0045618D02*
X0049613Y0045618D01*
X0048681Y0045119D02*
X0046856Y0045119D01*
X0047354Y0044620D02*
X0048186Y0044620D01*
X0047980Y0044122D02*
X0047853Y0044122D01*
X0050887Y0045618D02*
X0052045Y0045618D01*
X0051969Y0045119D02*
X0051819Y0045119D01*
X0039455Y0061570D02*
X0030405Y0061570D01*
X0029906Y0062068D02*
X0038957Y0062068D01*
X0038458Y0062567D02*
X0029408Y0062567D01*
X0028909Y0063065D02*
X0037960Y0063065D01*
X0037461Y0063564D02*
X0028411Y0063564D01*
X0027912Y0064062D02*
X0036963Y0064062D01*
X0036464Y0064561D02*
X0027414Y0064561D01*
X0026915Y0065059D02*
X0035966Y0065059D01*
X0035467Y0065558D02*
X0026417Y0065558D01*
X0025918Y0066056D02*
X0034969Y0066056D01*
X0034470Y0066555D02*
X0025420Y0066555D01*
X0024921Y0067053D02*
X0033972Y0067053D01*
X0033473Y0067552D02*
X0024423Y0067552D01*
X0023924Y0068051D02*
X0032975Y0068051D01*
X0032476Y0068549D02*
X0023426Y0068549D01*
X0022927Y0069048D02*
X0031978Y0069048D01*
X0031479Y0069546D02*
X0022429Y0069546D01*
X0021930Y0070045D02*
X0030981Y0070045D01*
X0030482Y0070543D02*
X0021432Y0070543D01*
X0020933Y0071042D02*
X0029984Y0071042D01*
X0029485Y0071540D02*
X0020435Y0071540D01*
X0019936Y0072039D02*
X0028987Y0072039D01*
X0028488Y0072537D02*
X0019438Y0072537D01*
X0018939Y0073036D02*
X0027989Y0073036D01*
X0027491Y0073534D02*
X0018441Y0073534D01*
X0017942Y0074033D02*
X0026992Y0074033D01*
X0026494Y0074531D02*
X0017444Y0074531D01*
X0016945Y0075030D02*
X0025995Y0075030D01*
X0025497Y0075528D02*
X0016447Y0075528D01*
X0015948Y0076027D02*
X0024998Y0076027D01*
X0024500Y0076525D02*
X0015450Y0076525D01*
X0014951Y0077024D02*
X0024001Y0077024D01*
X0023503Y0077522D02*
X0014453Y0077522D01*
X0013954Y0078021D02*
X0023004Y0078021D01*
X0022506Y0078519D02*
X0013456Y0078519D01*
X0012957Y0079018D02*
X0022007Y0079018D01*
X0021509Y0079516D02*
X0012459Y0079516D01*
X0011960Y0080015D02*
X0021010Y0080015D01*
X0020512Y0080513D02*
X0011462Y0080513D01*
X0010963Y0081012D02*
X0020013Y0081012D01*
X0019515Y0081510D02*
X0010465Y0081510D01*
X0010000Y0082009D02*
X0019016Y0082009D01*
X0018518Y0082507D02*
X0010000Y0082507D01*
X0010000Y0083006D02*
X0018019Y0083006D01*
X0017521Y0083504D02*
X0010000Y0083504D01*
X0010000Y0084003D02*
X0017022Y0084003D01*
X0016524Y0084501D02*
X0010000Y0084501D01*
X0010000Y0085000D02*
X0016025Y0085000D01*
X0015527Y0085498D02*
X0010000Y0085498D01*
X0010000Y0085997D02*
X0015028Y0085997D01*
X0014530Y0086495D02*
X0010000Y0086495D01*
X0010000Y0086994D02*
X0014031Y0086994D01*
X0013533Y0087492D02*
X0010000Y0087492D01*
X0010000Y0087991D02*
X0013034Y0087991D01*
X0012536Y0088489D02*
X0010000Y0088489D01*
X0010000Y0088988D02*
X0012037Y0088988D01*
X0011539Y0089487D02*
X0010000Y0089487D01*
X0010000Y0089985D02*
X0011040Y0089985D01*
X0010542Y0090484D02*
X0010000Y0090484D01*
X0010000Y0090982D02*
X0010043Y0090982D01*
X0013000Y0092976D02*
X0029639Y0092976D01*
X0028436Y0092478D02*
X0013497Y0092478D01*
X0013996Y0091979D02*
X0027897Y0091979D01*
X0027399Y0091481D02*
X0014494Y0091481D01*
X0014993Y0090982D02*
X0026900Y0090982D01*
X0026402Y0090484D02*
X0015491Y0090484D01*
X0015990Y0089985D02*
X0026073Y0089985D01*
X0025866Y0089487D02*
X0016488Y0089487D01*
X0016987Y0088988D02*
X0025660Y0088988D01*
X0025453Y0088489D02*
X0017485Y0088489D01*
X0017984Y0087991D02*
X0025247Y0087991D01*
X0025040Y0087492D02*
X0018482Y0087492D01*
X0018981Y0086994D02*
X0025016Y0086994D01*
X0025016Y0086495D02*
X0019479Y0086495D01*
X0019978Y0085997D02*
X0025016Y0085997D01*
X0025016Y0085498D02*
X0020476Y0085498D01*
X0020975Y0085000D02*
X0025016Y0085000D01*
X0025016Y0084501D02*
X0021473Y0084501D01*
X0021972Y0084003D02*
X0025163Y0084003D01*
X0025369Y0083504D02*
X0022470Y0083504D01*
X0022969Y0083006D02*
X0025576Y0083006D01*
X0025782Y0082507D02*
X0023468Y0082507D01*
X0023966Y0082009D02*
X0025989Y0082009D01*
X0026199Y0081510D02*
X0024465Y0081510D01*
X0024963Y0081012D02*
X0026698Y0081012D01*
X0027196Y0080513D02*
X0025462Y0080513D01*
X0025960Y0080015D02*
X0027695Y0080015D01*
X0028193Y0079516D02*
X0026459Y0079516D01*
X0026957Y0079018D02*
X0029150Y0079018D01*
X0030843Y0093475D02*
X0013000Y0093475D01*
X0021185Y0111421D02*
X0044307Y0111421D01*
X0044307Y0110922D02*
X0044807Y0110922D01*
X0044807Y0110424D02*
X0044307Y0110424D01*
X0044307Y0109925D02*
X0044807Y0109925D01*
X0044807Y0109427D02*
X0044307Y0109427D01*
X0044307Y0108928D02*
X0044807Y0108928D01*
X0044807Y0108430D02*
X0044307Y0108430D01*
X0044307Y0107931D02*
X0044807Y0107931D01*
X0044807Y0107433D02*
X0044307Y0107433D01*
X0044307Y0106934D02*
X0044807Y0106934D01*
X0044807Y0106436D02*
X0044307Y0106436D01*
X0044307Y0105937D02*
X0044807Y0105937D01*
X0044807Y0105439D02*
X0044307Y0105439D01*
X0044307Y0104940D02*
X0044807Y0104940D01*
X0044807Y0104442D02*
X0044307Y0104442D01*
X0043995Y0103943D02*
X0058500Y0103943D01*
X0058500Y0103445D02*
X0044386Y0103445D01*
X0044593Y0102946D02*
X0058500Y0102946D01*
X0058500Y0102448D02*
X0044681Y0102448D01*
X0044681Y0101949D02*
X0058500Y0101949D01*
X0058500Y0101451D02*
X0044550Y0101451D01*
X0044344Y0100952D02*
X0058500Y0100952D01*
X0058500Y0100454D02*
X0044000Y0100454D01*
X0044000Y0099955D02*
X0058500Y0099955D01*
X0058500Y0099457D02*
X0044000Y0099457D01*
X0044000Y0098958D02*
X0058500Y0098958D01*
X0058500Y0098460D02*
X0044000Y0098460D01*
X0044000Y0097961D02*
X0058500Y0097961D01*
X0058500Y0097463D02*
X0044000Y0097463D01*
X0044000Y0096964D02*
X0058500Y0096964D01*
X0058500Y0096466D02*
X0044000Y0096466D01*
X0044000Y0095967D02*
X0058500Y0095967D01*
X0058500Y0095469D02*
X0044000Y0095469D01*
X0044000Y0094970D02*
X0058500Y0094970D01*
X0058500Y0094472D02*
X0044000Y0094472D01*
X0044000Y0093973D02*
X0051249Y0093973D01*
X0050045Y0093475D02*
X0044000Y0093475D01*
X0044000Y0092976D02*
X0049040Y0092976D01*
X0048542Y0092478D02*
X0044000Y0092478D01*
X0044000Y0091979D02*
X0048043Y0091979D01*
X0047545Y0091481D02*
X0044000Y0091481D01*
X0044000Y0090982D02*
X0047046Y0090982D01*
X0046687Y0090484D02*
X0044000Y0090484D01*
X0044000Y0089985D02*
X0046480Y0089985D01*
X0046274Y0089487D02*
X0044000Y0089487D01*
X0044000Y0088988D02*
X0046067Y0088988D01*
X0045861Y0088489D02*
X0044000Y0088489D01*
X0044000Y0087991D02*
X0045654Y0087991D01*
X0045488Y0087492D02*
X0044000Y0087492D01*
X0044000Y0086994D02*
X0045488Y0086994D01*
X0045488Y0086495D02*
X0044000Y0086495D01*
X0044000Y0085997D02*
X0045488Y0085997D01*
X0045488Y0085498D02*
X0044476Y0085498D01*
X0044975Y0085000D02*
X0045488Y0085000D01*
X0045473Y0084501D02*
X0045488Y0084501D01*
X0056763Y0093973D02*
X0058500Y0093973D01*
X0058500Y0093475D02*
X0057967Y0093475D01*
X0064127Y0090982D02*
X0069478Y0090982D01*
X0069568Y0091481D02*
X0064919Y0091481D01*
X0065355Y0091979D02*
X0068379Y0091979D01*
X0067881Y0092478D02*
X0065561Y0092478D01*
X0065681Y0092976D02*
X0067382Y0092976D01*
X0066934Y0093475D02*
X0065681Y0093475D01*
X0065582Y0093973D02*
X0066727Y0093973D01*
X0066521Y0094472D02*
X0065375Y0094472D01*
X0065000Y0094970D02*
X0066314Y0094970D01*
X0066200Y0095469D02*
X0065000Y0095469D01*
X0065000Y0095967D02*
X0066200Y0095967D01*
X0066200Y0096466D02*
X0065000Y0096466D01*
X0065000Y0096964D02*
X0066200Y0096964D01*
X0066286Y0097463D02*
X0065000Y0097463D01*
X0065000Y0097961D02*
X0066493Y0097961D01*
X0066699Y0098460D02*
X0065000Y0098460D01*
X0065000Y0098958D02*
X0066906Y0098958D01*
X0067315Y0099457D02*
X0065000Y0099457D01*
X0065000Y0099955D02*
X0067813Y0099955D01*
X0068312Y0100454D02*
X0065000Y0100454D01*
X0065000Y0100952D02*
X0069406Y0100952D01*
X0069640Y0101451D02*
X0065000Y0101451D01*
X0065000Y0101949D02*
X0068437Y0101949D01*
X0067910Y0102448D02*
X0065000Y0102448D01*
X0065000Y0102946D02*
X0067412Y0102946D01*
X0066946Y0103445D02*
X0065000Y0103445D01*
X0065000Y0103943D02*
X0066739Y0103943D01*
X0066533Y0104442D02*
X0065000Y0104442D01*
X0065000Y0104940D02*
X0066326Y0104940D01*
X0066200Y0105439D02*
X0065000Y0105439D01*
X0065000Y0105937D02*
X0066200Y0105937D01*
X0066200Y0106436D02*
X0065000Y0106436D01*
X0065000Y0106934D02*
X0066200Y0106934D01*
X0066274Y0107433D02*
X0065000Y0107433D01*
X0065000Y0107931D02*
X0066480Y0107931D01*
X0066687Y0108430D02*
X0064545Y0108430D01*
X0064046Y0108928D02*
X0066893Y0108928D01*
X0067285Y0109427D02*
X0063548Y0109427D01*
X0063049Y0109925D02*
X0067784Y0109925D01*
X0068282Y0110424D02*
X0062551Y0110424D01*
X0062052Y0110922D02*
X0069334Y0110922D01*
X0069712Y0111421D02*
X0061554Y0111421D01*
X0061055Y0111920D02*
X0068508Y0111920D01*
X0067940Y0112418D02*
X0060557Y0112418D01*
X0060058Y0112917D02*
X0067442Y0112917D01*
X0066958Y0113415D02*
X0059560Y0113415D01*
X0059061Y0113914D02*
X0066752Y0113914D01*
X0066545Y0114412D02*
X0059000Y0114412D01*
X0059000Y0114911D02*
X0066339Y0114911D01*
X0066200Y0115409D02*
X0059000Y0115409D01*
X0059000Y0115908D02*
X0066200Y0115908D01*
X0066200Y0116406D02*
X0059000Y0116406D01*
X0059000Y0116905D02*
X0066200Y0116905D01*
X0066262Y0117403D02*
X0059000Y0117403D01*
X0059000Y0117902D02*
X0066468Y0117902D01*
X0066675Y0118400D02*
X0059000Y0118400D01*
X0059000Y0118899D02*
X0066881Y0118899D01*
X0067255Y0119397D02*
X0059000Y0119397D01*
X0059000Y0119896D02*
X0067754Y0119896D01*
X0068252Y0120394D02*
X0059000Y0120394D01*
X0059000Y0120893D02*
X0069262Y0120893D01*
X0069784Y0121391D02*
X0059000Y0121391D01*
X0059000Y0121890D02*
X0068580Y0121890D01*
X0067970Y0122388D02*
X0059000Y0122388D01*
X0059000Y0122887D02*
X0067471Y0122887D01*
X0066973Y0123385D02*
X0059000Y0123385D01*
X0059000Y0123884D02*
X0066764Y0123884D01*
X0066558Y0124382D02*
X0059260Y0124382D01*
X0059759Y0124881D02*
X0066351Y0124881D01*
X0066200Y0125379D02*
X0059980Y0125379D01*
X0059980Y0125878D02*
X0066200Y0125878D01*
X0066200Y0126376D02*
X0059980Y0126376D01*
X0059980Y0126875D02*
X0066200Y0126875D01*
X0066249Y0127373D02*
X0059980Y0127373D01*
X0059980Y0127872D02*
X0066456Y0127872D01*
X0066662Y0128370D02*
X0059980Y0128370D01*
X0059980Y0128869D02*
X0066869Y0128869D01*
X0067226Y0129367D02*
X0059980Y0129367D01*
X0059980Y0129866D02*
X0067724Y0129866D01*
X0068223Y0130364D02*
X0059980Y0130364D01*
X0059980Y0130863D02*
X0069190Y0130863D01*
X0069856Y0131361D02*
X0059481Y0131361D01*
X0058248Y0134851D02*
X0066363Y0134851D01*
X0066200Y0135350D02*
X0058844Y0135350D01*
X0059342Y0135848D02*
X0066200Y0135848D01*
X0066200Y0136347D02*
X0059600Y0136347D01*
X0059807Y0136845D02*
X0066200Y0136845D01*
X0066237Y0137344D02*
X0059980Y0137344D01*
X0059980Y0137842D02*
X0066443Y0137842D01*
X0066650Y0138341D02*
X0059980Y0138341D01*
X0059923Y0138839D02*
X0066856Y0138839D01*
X0067196Y0139338D02*
X0059717Y0139338D01*
X0059510Y0139836D02*
X0067694Y0139836D01*
X0068193Y0140335D02*
X0059124Y0140335D01*
X0058626Y0140833D02*
X0069118Y0140833D01*
X0069928Y0141332D02*
X0057721Y0141332D01*
X0055015Y0141332D02*
X0047783Y0141332D01*
X0047990Y0141830D02*
X0068724Y0141830D01*
X0068030Y0142329D02*
X0048169Y0142329D01*
X0048169Y0142827D02*
X0067531Y0142827D01*
X0067032Y0143326D02*
X0048169Y0143326D01*
X0048118Y0143824D02*
X0066789Y0143824D01*
X0066582Y0144323D02*
X0047912Y0144323D01*
X0047705Y0144821D02*
X0054560Y0144821D01*
X0054322Y0144920D02*
X0055650Y0144370D01*
X0057087Y0144370D01*
X0058414Y0144920D01*
X0059430Y0145936D01*
X0059980Y0147264D01*
X0059980Y0148701D01*
X0059430Y0150028D01*
X0058414Y0151045D01*
X0057087Y0151594D01*
X0055650Y0151594D01*
X0054322Y0151045D01*
X0053306Y0150028D01*
X0052756Y0148701D01*
X0052756Y0147264D01*
X0053306Y0145936D01*
X0054322Y0144920D01*
X0053922Y0145320D02*
X0047328Y0145320D01*
X0046829Y0145818D02*
X0053424Y0145818D01*
X0053148Y0146317D02*
X0046000Y0146317D01*
X0046000Y0146815D02*
X0052942Y0146815D01*
X0052756Y0147314D02*
X0046000Y0147314D01*
X0046000Y0147812D02*
X0052756Y0147812D01*
X0052756Y0148311D02*
X0045664Y0148311D01*
X0045166Y0148809D02*
X0052801Y0148809D01*
X0053007Y0149308D02*
X0044667Y0149308D01*
X0046329Y0149806D02*
X0053214Y0149806D01*
X0053582Y0150305D02*
X0046988Y0150305D01*
X0047487Y0150803D02*
X0054081Y0150803D01*
X0054943Y0151302D02*
X0047771Y0151302D01*
X0047977Y0151800D02*
X0068859Y0151800D01*
X0068097Y0152299D02*
X0048169Y0152299D01*
X0048169Y0152797D02*
X0067561Y0152797D01*
X0067154Y0153296D02*
X0048169Y0153296D01*
X0048130Y0153794D02*
X0066833Y0153794D01*
X0066579Y0154293D02*
X0047924Y0154293D01*
X0047717Y0154791D02*
X0054632Y0154791D01*
X0054322Y0154920D02*
X0055650Y0154370D01*
X0057087Y0154370D01*
X0058414Y0154920D01*
X0059430Y0155936D01*
X0059980Y0157264D01*
X0059980Y0158701D01*
X0059430Y0160028D01*
X0058414Y0161045D01*
X0057087Y0161594D01*
X0055650Y0161594D01*
X0054322Y0161045D01*
X0053306Y0160028D01*
X0052756Y0158701D01*
X0052756Y0157264D01*
X0053306Y0155936D01*
X0054322Y0154920D01*
X0053952Y0155290D02*
X0047358Y0155290D01*
X0047000Y0155789D02*
X0053453Y0155789D01*
X0053160Y0156287D02*
X0047000Y0156287D01*
X0047000Y0156786D02*
X0052954Y0156786D01*
X0052756Y0157284D02*
X0047000Y0157284D01*
X0047000Y0157783D02*
X0052756Y0157783D01*
X0052756Y0158281D02*
X0047000Y0158281D01*
X0047000Y0158780D02*
X0052789Y0158780D01*
X0052995Y0159278D02*
X0047000Y0159278D01*
X0047000Y0159777D02*
X0053202Y0159777D01*
X0053553Y0160275D02*
X0047000Y0160275D01*
X0047000Y0160774D02*
X0054051Y0160774D01*
X0054871Y0161272D02*
X0047000Y0161272D01*
X0047000Y0161771D02*
X0068868Y0161771D01*
X0068089Y0162269D02*
X0047000Y0162269D01*
X0047243Y0162768D02*
X0067591Y0162768D01*
X0067092Y0163266D02*
X0047741Y0163266D01*
X0048240Y0163765D02*
X0066813Y0163765D01*
X0066607Y0164263D02*
X0048738Y0164263D01*
X0049237Y0164762D02*
X0066400Y0164762D01*
X0066200Y0165260D02*
X0049735Y0165260D01*
X0050234Y0165759D02*
X0066200Y0165759D01*
X0066200Y0166257D02*
X0050732Y0166257D01*
X0051231Y0166756D02*
X0066200Y0166756D01*
X0066200Y0167254D02*
X0051729Y0167254D01*
X0052228Y0167753D02*
X0066406Y0167753D01*
X0066613Y0168251D02*
X0052726Y0168251D01*
X0053225Y0168750D02*
X0066819Y0168750D01*
X0067107Y0169248D02*
X0053723Y0169248D01*
X0054222Y0169747D02*
X0067605Y0169747D01*
X0068104Y0170245D02*
X0054720Y0170245D01*
X0055219Y0170744D02*
X0068903Y0170744D01*
X0068940Y0171741D02*
X0056216Y0171741D01*
X0056714Y0172239D02*
X0068119Y0172239D01*
X0067620Y0172738D02*
X0057213Y0172738D01*
X0057711Y0173236D02*
X0067122Y0173236D01*
X0066826Y0173735D02*
X0058210Y0173735D01*
X0058708Y0174233D02*
X0066619Y0174233D01*
X0066413Y0174732D02*
X0059207Y0174732D01*
X0059705Y0175230D02*
X0066206Y0175230D01*
X0066200Y0175729D02*
X0060204Y0175729D01*
X0060702Y0176227D02*
X0066200Y0176227D01*
X0066200Y0176726D02*
X0061201Y0176726D01*
X0061699Y0177224D02*
X0066200Y0177224D01*
X0066394Y0177723D02*
X0062198Y0177723D01*
X0062696Y0178222D02*
X0066601Y0178222D01*
X0066807Y0178720D02*
X0063195Y0178720D01*
X0063693Y0179219D02*
X0067077Y0179219D01*
X0067575Y0179717D02*
X0064192Y0179717D01*
X0064690Y0180216D02*
X0068074Y0180216D01*
X0068831Y0180714D02*
X0065189Y0180714D01*
X0065687Y0181213D02*
X0070035Y0181213D01*
X0069012Y0181711D02*
X0066186Y0181711D01*
X0066684Y0182210D02*
X0068149Y0182210D01*
X0067650Y0182708D02*
X0067000Y0182708D01*
X0067000Y0183207D02*
X0067152Y0183207D01*
X0063500Y0183975D02*
X0052106Y0172581D01*
X0052106Y0174110D01*
X0044807Y0174110D01*
X0044807Y0166811D01*
X0046336Y0166811D01*
X0043500Y0163975D01*
X0043500Y0162525D01*
X0043500Y0156454D01*
X0042511Y0156045D01*
X0041495Y0155028D01*
X0040945Y0153701D01*
X0040945Y0153030D01*
X0039000Y0154975D01*
X0039000Y0169241D01*
X0041430Y0166811D01*
X0044307Y0166811D01*
X0044307Y0174110D01*
X0044807Y0174110D01*
X0044807Y0174610D01*
X0052106Y0174610D01*
X0052106Y0177487D01*
X0047684Y0181909D01*
X0044807Y0181909D01*
X0044807Y0174610D01*
X0044307Y0174610D01*
X0044307Y0181909D01*
X0041430Y0181909D01*
X0038000Y0178479D01*
X0038000Y0180525D01*
X0044975Y0187500D01*
X0046000Y0188525D01*
X0046000Y0197139D01*
X0046785Y0195244D01*
X0049181Y0192848D01*
X0052312Y0191551D01*
X0055700Y0191551D01*
X0056342Y0191817D01*
X0051500Y0186975D01*
X0051500Y0182938D01*
X0051189Y0182627D01*
X0050819Y0181734D01*
X0050819Y0180766D01*
X0051189Y0179873D01*
X0051873Y0179189D01*
X0052766Y0178819D01*
X0053734Y0178819D01*
X0054627Y0179189D01*
X0055311Y0179873D01*
X0055681Y0180766D01*
X0055681Y0181734D01*
X0055311Y0182627D01*
X0055000Y0182938D01*
X0055000Y0185525D01*
X0063500Y0194025D01*
X0063500Y0183975D01*
X0063500Y0184204D02*
X0055000Y0184204D01*
X0055000Y0184702D02*
X0063500Y0184702D01*
X0063500Y0185201D02*
X0055000Y0185201D01*
X0055174Y0185699D02*
X0063500Y0185699D01*
X0063500Y0186198D02*
X0055673Y0186198D01*
X0056171Y0186696D02*
X0063500Y0186696D01*
X0063500Y0187195D02*
X0056670Y0187195D01*
X0057168Y0187693D02*
X0063500Y0187693D01*
X0063500Y0188192D02*
X0057667Y0188192D01*
X0058165Y0188690D02*
X0063500Y0188690D01*
X0063500Y0189189D02*
X0058664Y0189189D01*
X0059162Y0189687D02*
X0063500Y0189687D01*
X0063500Y0190186D02*
X0059661Y0190186D01*
X0060159Y0190684D02*
X0063500Y0190684D01*
X0063500Y0191183D02*
X0060658Y0191183D01*
X0061156Y0191681D02*
X0063500Y0191681D01*
X0063500Y0192180D02*
X0061655Y0192180D01*
X0062153Y0192678D02*
X0063500Y0192678D01*
X0063500Y0193177D02*
X0062652Y0193177D01*
X0063150Y0193675D02*
X0063500Y0193675D01*
X0063230Y0183705D02*
X0055000Y0183705D01*
X0055000Y0183207D02*
X0062732Y0183207D01*
X0062233Y0182708D02*
X0055230Y0182708D01*
X0055484Y0182210D02*
X0061735Y0182210D01*
X0061236Y0181711D02*
X0055681Y0181711D01*
X0055681Y0181213D02*
X0060738Y0181213D01*
X0060239Y0180714D02*
X0055659Y0180714D01*
X0055453Y0180216D02*
X0059741Y0180216D01*
X0059242Y0179717D02*
X0055155Y0179717D01*
X0054657Y0179219D02*
X0058744Y0179219D01*
X0058245Y0178720D02*
X0050873Y0178720D01*
X0050375Y0179219D02*
X0051843Y0179219D01*
X0051345Y0179717D02*
X0049876Y0179717D01*
X0049378Y0180216D02*
X0051047Y0180216D01*
X0050841Y0180714D02*
X0048879Y0180714D01*
X0048381Y0181213D02*
X0050819Y0181213D01*
X0050819Y0181711D02*
X0047882Y0181711D01*
X0044807Y0181711D02*
X0044307Y0181711D01*
X0044307Y0181213D02*
X0044807Y0181213D01*
X0044807Y0180714D02*
X0044307Y0180714D01*
X0044307Y0180216D02*
X0044807Y0180216D01*
X0044807Y0179717D02*
X0044307Y0179717D01*
X0044307Y0179219D02*
X0044807Y0179219D01*
X0044807Y0178720D02*
X0044307Y0178720D01*
X0044307Y0178222D02*
X0044807Y0178222D01*
X0044807Y0177723D02*
X0044307Y0177723D01*
X0044307Y0177224D02*
X0044807Y0177224D01*
X0044807Y0176726D02*
X0044307Y0176726D01*
X0044307Y0176227D02*
X0044807Y0176227D01*
X0044807Y0175729D02*
X0044307Y0175729D01*
X0044307Y0175230D02*
X0044807Y0175230D01*
X0044807Y0174732D02*
X0044307Y0174732D01*
X0044807Y0174233D02*
X0053759Y0174233D01*
X0053260Y0173735D02*
X0052106Y0173735D01*
X0052106Y0173236D02*
X0052762Y0173236D01*
X0052263Y0172738D02*
X0052106Y0172738D01*
X0052106Y0174732D02*
X0054257Y0174732D01*
X0054756Y0175230D02*
X0052106Y0175230D01*
X0052106Y0175729D02*
X0055254Y0175729D01*
X0055753Y0176227D02*
X0052106Y0176227D01*
X0052106Y0176726D02*
X0056251Y0176726D01*
X0056750Y0177224D02*
X0052106Y0177224D01*
X0051870Y0177723D02*
X0057248Y0177723D01*
X0057747Y0178222D02*
X0051372Y0178222D01*
X0051016Y0182210D02*
X0039684Y0182210D01*
X0039186Y0181711D02*
X0041232Y0181711D01*
X0040733Y0181213D02*
X0038687Y0181213D01*
X0038189Y0180714D02*
X0040235Y0180714D01*
X0039736Y0180216D02*
X0038000Y0180216D01*
X0038000Y0179717D02*
X0039238Y0179717D01*
X0038739Y0179219D02*
X0038000Y0179219D01*
X0038000Y0178720D02*
X0038241Y0178720D01*
X0040183Y0182708D02*
X0051270Y0182708D01*
X0051500Y0183207D02*
X0040681Y0183207D01*
X0041180Y0183705D02*
X0051500Y0183705D01*
X0051500Y0184204D02*
X0041679Y0184204D01*
X0042177Y0184702D02*
X0051500Y0184702D01*
X0051500Y0185201D02*
X0042676Y0185201D01*
X0043174Y0185699D02*
X0051500Y0185699D01*
X0051500Y0186198D02*
X0043673Y0186198D01*
X0044171Y0186696D02*
X0051500Y0186696D01*
X0051720Y0187195D02*
X0044670Y0187195D01*
X0045168Y0187693D02*
X0052218Y0187693D01*
X0052717Y0188192D02*
X0045667Y0188192D01*
X0046000Y0188690D02*
X0053215Y0188690D01*
X0053714Y0189189D02*
X0046000Y0189189D01*
X0046000Y0189687D02*
X0054212Y0189687D01*
X0054711Y0190186D02*
X0046000Y0190186D01*
X0046000Y0190684D02*
X0055209Y0190684D01*
X0055708Y0191183D02*
X0046000Y0191183D01*
X0046000Y0191681D02*
X0051997Y0191681D01*
X0050794Y0192180D02*
X0046000Y0192180D01*
X0046000Y0192678D02*
X0049590Y0192678D01*
X0048852Y0193177D02*
X0046000Y0193177D01*
X0046000Y0193675D02*
X0048354Y0193675D01*
X0047855Y0194174D02*
X0046000Y0194174D01*
X0046000Y0194672D02*
X0047357Y0194672D01*
X0046858Y0195171D02*
X0046000Y0195171D01*
X0046000Y0195669D02*
X0046609Y0195669D01*
X0046402Y0196168D02*
X0046000Y0196168D01*
X0046000Y0196666D02*
X0046196Y0196666D01*
X0056014Y0191681D02*
X0056206Y0191681D01*
X0044807Y0173735D02*
X0044307Y0173735D01*
X0044307Y0173236D02*
X0044807Y0173236D01*
X0044807Y0172738D02*
X0044307Y0172738D01*
X0044307Y0172239D02*
X0044807Y0172239D01*
X0044807Y0171741D02*
X0044307Y0171741D01*
X0044307Y0171242D02*
X0044807Y0171242D01*
X0044807Y0170744D02*
X0044307Y0170744D01*
X0044307Y0170245D02*
X0044807Y0170245D01*
X0044807Y0169747D02*
X0044307Y0169747D01*
X0044307Y0169248D02*
X0044807Y0169248D01*
X0044807Y0168750D02*
X0044307Y0168750D01*
X0044307Y0168251D02*
X0044807Y0168251D01*
X0044807Y0167753D02*
X0044307Y0167753D01*
X0044307Y0167254D02*
X0044807Y0167254D01*
X0045782Y0166257D02*
X0039000Y0166257D01*
X0039000Y0165759D02*
X0045284Y0165759D01*
X0044785Y0165260D02*
X0039000Y0165260D01*
X0039000Y0164762D02*
X0044287Y0164762D01*
X0043788Y0164263D02*
X0039000Y0164263D01*
X0039000Y0163765D02*
X0043500Y0163765D01*
X0043500Y0163266D02*
X0039000Y0163266D01*
X0039000Y0162768D02*
X0043500Y0162768D01*
X0043500Y0162269D02*
X0039000Y0162269D01*
X0039000Y0161771D02*
X0043500Y0161771D01*
X0043500Y0161272D02*
X0039000Y0161272D01*
X0039000Y0160774D02*
X0043500Y0160774D01*
X0043500Y0160275D02*
X0039000Y0160275D01*
X0039000Y0159777D02*
X0043500Y0159777D01*
X0043500Y0159278D02*
X0039000Y0159278D01*
X0039000Y0158780D02*
X0043500Y0158780D01*
X0043500Y0158281D02*
X0039000Y0158281D01*
X0039000Y0157783D02*
X0043500Y0157783D01*
X0043500Y0157284D02*
X0039000Y0157284D01*
X0039000Y0156786D02*
X0043500Y0156786D01*
X0043096Y0156287D02*
X0039000Y0156287D01*
X0039000Y0155789D02*
X0042255Y0155789D01*
X0041756Y0155290D02*
X0039000Y0155290D01*
X0039183Y0154791D02*
X0041397Y0154791D01*
X0041190Y0154293D02*
X0039682Y0154293D01*
X0040180Y0153794D02*
X0040984Y0153794D01*
X0040945Y0153296D02*
X0040679Y0153296D01*
X0038222Y0150803D02*
X0038171Y0150803D01*
X0037723Y0151302D02*
X0037673Y0151302D01*
X0037225Y0151800D02*
X0037174Y0151800D01*
X0036726Y0152299D02*
X0036676Y0152299D01*
X0036228Y0152797D02*
X0036177Y0152797D01*
X0035729Y0153296D02*
X0035679Y0153296D01*
X0035500Y0153794D02*
X0035180Y0153794D01*
X0035000Y0153975D02*
X0035000Y0153975D01*
X0034682Y0154293D02*
X0035500Y0154293D01*
X0035500Y0154791D02*
X0034482Y0154791D01*
X0035162Y0155290D02*
X0035500Y0155290D01*
X0031321Y0151302D02*
X0024149Y0151302D01*
X0024355Y0151800D02*
X0030225Y0151800D01*
X0029726Y0152299D02*
X0024547Y0152299D01*
X0024547Y0152797D02*
X0029228Y0152797D01*
X0028729Y0153296D02*
X0024547Y0153296D01*
X0024508Y0153794D02*
X0028231Y0153794D01*
X0027732Y0154293D02*
X0024302Y0154293D01*
X0024095Y0154791D02*
X0027234Y0154791D01*
X0026735Y0155290D02*
X0023736Y0155290D01*
X0023237Y0155789D02*
X0026500Y0155789D01*
X0026500Y0156287D02*
X0022396Y0156287D01*
X0023865Y0150803D02*
X0030459Y0150803D01*
X0029960Y0150305D02*
X0023366Y0150305D01*
X0022707Y0149806D02*
X0029592Y0149806D01*
X0029385Y0149308D02*
X0018000Y0149308D01*
X0018000Y0149806D02*
X0019163Y0149806D01*
X0018504Y0150305D02*
X0018000Y0150305D01*
X0018000Y0150803D02*
X0018005Y0150803D01*
X0018000Y0148809D02*
X0029179Y0148809D01*
X0029134Y0148311D02*
X0018000Y0148311D01*
X0018000Y0147812D02*
X0029134Y0147812D01*
X0029134Y0147314D02*
X0018000Y0147314D01*
X0018000Y0146815D02*
X0029320Y0146815D01*
X0029526Y0146317D02*
X0022324Y0146317D01*
X0023207Y0145818D02*
X0029802Y0145818D01*
X0030300Y0145320D02*
X0023706Y0145320D01*
X0024083Y0144821D02*
X0030938Y0144821D01*
X0031393Y0141332D02*
X0024161Y0141332D01*
X0024368Y0141830D02*
X0035500Y0141830D01*
X0035500Y0141332D02*
X0034099Y0141332D01*
X0035004Y0140833D02*
X0035500Y0140833D01*
X0035500Y0142329D02*
X0024547Y0142329D01*
X0024547Y0142827D02*
X0035500Y0142827D01*
X0035500Y0143326D02*
X0024547Y0143326D01*
X0024496Y0143824D02*
X0035500Y0143824D01*
X0035500Y0144323D02*
X0024290Y0144323D01*
X0023894Y0140833D02*
X0030489Y0140833D01*
X0029990Y0140335D02*
X0023396Y0140335D01*
X0022779Y0139836D02*
X0029604Y0139836D01*
X0029398Y0139338D02*
X0018000Y0139338D01*
X0018000Y0139836D02*
X0019091Y0139836D01*
X0018474Y0140335D02*
X0018000Y0140335D01*
X0018000Y0138839D02*
X0029191Y0138839D01*
X0029134Y0138341D02*
X0018000Y0138341D01*
X0018000Y0137842D02*
X0029134Y0137842D01*
X0029134Y0137344D02*
X0018000Y0137344D01*
X0018000Y0136845D02*
X0029307Y0136845D01*
X0029514Y0136347D02*
X0022252Y0136347D01*
X0023178Y0135848D02*
X0029772Y0135848D01*
X0030270Y0135350D02*
X0023676Y0135350D01*
X0024071Y0134851D02*
X0030866Y0134851D01*
X0031465Y0131361D02*
X0024173Y0131361D01*
X0024380Y0131860D02*
X0037165Y0131860D01*
X0036667Y0132358D02*
X0024547Y0132358D01*
X0024547Y0132857D02*
X0036168Y0132857D01*
X0035670Y0133355D02*
X0024547Y0133355D01*
X0024484Y0133854D02*
X0035500Y0133854D01*
X0035500Y0134353D02*
X0024277Y0134353D01*
X0023924Y0130863D02*
X0030518Y0130863D01*
X0030020Y0130364D02*
X0023426Y0130364D01*
X0022851Y0129866D02*
X0029616Y0129866D01*
X0029410Y0129367D02*
X0026491Y0129367D01*
X0024009Y0129367D02*
X0020607Y0129367D01*
X0021106Y0128869D02*
X0023431Y0128869D01*
X0023083Y0128370D02*
X0021604Y0128370D01*
X0022103Y0127872D02*
X0022876Y0127872D01*
X0022819Y0127373D02*
X0022601Y0127373D01*
X0025883Y0124881D02*
X0030795Y0124881D01*
X0030241Y0125379D02*
X0026817Y0125379D01*
X0025593Y0124382D02*
X0031998Y0124382D01*
X0033494Y0124382D02*
X0053476Y0124382D01*
X0052977Y0124881D02*
X0034698Y0124881D01*
X0035252Y0125379D02*
X0052756Y0125379D01*
X0052756Y0125878D02*
X0035750Y0125878D01*
X0035991Y0126376D02*
X0052756Y0126376D01*
X0052756Y0126875D02*
X0047350Y0126875D01*
X0047848Y0127373D02*
X0052756Y0127373D01*
X0052756Y0127872D02*
X0048347Y0127872D01*
X0048845Y0128370D02*
X0052756Y0128370D01*
X0052756Y0128869D02*
X0049344Y0128869D01*
X0049842Y0129367D02*
X0052756Y0129367D01*
X0052756Y0129866D02*
X0050341Y0129866D01*
X0050839Y0130364D02*
X0052756Y0130364D01*
X0052757Y0130863D02*
X0051338Y0130863D01*
X0051836Y0131361D02*
X0053255Y0131361D01*
X0052335Y0131860D02*
X0068652Y0131860D01*
X0068000Y0132358D02*
X0052833Y0132358D01*
X0053332Y0132857D02*
X0067501Y0132857D01*
X0067003Y0133355D02*
X0053830Y0133355D01*
X0055329Y0133854D02*
X0066776Y0133854D01*
X0066570Y0134353D02*
X0055827Y0134353D01*
X0052370Y0136845D02*
X0039000Y0136845D01*
X0039000Y0136347D02*
X0043240Y0136347D01*
X0043503Y0136456D02*
X0042846Y0136183D01*
X0042254Y0135788D01*
X0041751Y0135285D01*
X0041356Y0134693D01*
X0041084Y0134036D01*
X0040945Y0133338D01*
X0040945Y0133232D01*
X0044307Y0133232D01*
X0044307Y0136594D01*
X0044201Y0136594D01*
X0043503Y0136456D01*
X0044307Y0136347D02*
X0044807Y0136347D01*
X0044807Y0135848D02*
X0044307Y0135848D01*
X0044307Y0135350D02*
X0044807Y0135350D01*
X0044807Y0134851D02*
X0044307Y0134851D01*
X0044307Y0134353D02*
X0044807Y0134353D01*
X0044807Y0133854D02*
X0044307Y0133854D01*
X0044307Y0133355D02*
X0044807Y0133355D01*
X0044807Y0132857D02*
X0048382Y0132857D01*
X0048166Y0133355D02*
X0048881Y0133355D01*
X0049379Y0133854D02*
X0048067Y0133854D01*
X0047899Y0134353D02*
X0049878Y0134353D01*
X0050376Y0134851D02*
X0047653Y0134851D01*
X0047298Y0135350D02*
X0050875Y0135350D01*
X0051373Y0135848D02*
X0046770Y0135848D01*
X0045874Y0136347D02*
X0051872Y0136347D01*
X0052756Y0137344D02*
X0039000Y0137344D01*
X0039000Y0137842D02*
X0052756Y0137842D01*
X0052756Y0138341D02*
X0039000Y0138341D01*
X0039000Y0138839D02*
X0052813Y0138839D01*
X0053020Y0139338D02*
X0039000Y0139338D01*
X0039000Y0139836D02*
X0042713Y0139836D01*
X0042096Y0140335D02*
X0039000Y0140335D01*
X0039000Y0140833D02*
X0041598Y0140833D01*
X0041331Y0141332D02*
X0039000Y0141332D01*
X0039000Y0141830D02*
X0041124Y0141830D01*
X0040945Y0142329D02*
X0039000Y0142329D01*
X0039000Y0142827D02*
X0040945Y0142827D01*
X0040945Y0143326D02*
X0039000Y0143326D01*
X0039000Y0143824D02*
X0040996Y0143824D01*
X0041203Y0144323D02*
X0039000Y0144323D01*
X0039000Y0144821D02*
X0041409Y0144821D01*
X0041786Y0145320D02*
X0039000Y0145320D01*
X0039000Y0145818D02*
X0042285Y0145818D01*
X0042500Y0146317D02*
X0039000Y0146317D01*
X0039000Y0146815D02*
X0042210Y0146815D01*
X0041711Y0147314D02*
X0039000Y0147314D01*
X0039000Y0147812D02*
X0041213Y0147812D01*
X0040714Y0148311D02*
X0039000Y0148311D01*
X0039000Y0148809D02*
X0040216Y0148809D01*
X0039717Y0149308D02*
X0039000Y0149308D01*
X0039000Y0149806D02*
X0039219Y0149806D01*
X0038720Y0150305D02*
X0038670Y0150305D01*
X0035500Y0145320D02*
X0035192Y0145320D01*
X0035500Y0144821D02*
X0034554Y0144821D01*
X0035222Y0135350D02*
X0035500Y0135350D01*
X0035500Y0134851D02*
X0034626Y0134851D01*
X0034027Y0131361D02*
X0037664Y0131361D01*
X0038162Y0130863D02*
X0034974Y0130863D01*
X0035472Y0130364D02*
X0038661Y0130364D01*
X0039159Y0129866D02*
X0035876Y0129866D01*
X0036082Y0129367D02*
X0039658Y0129367D01*
X0040156Y0128869D02*
X0036289Y0128869D01*
X0036358Y0128370D02*
X0040655Y0128370D01*
X0041153Y0127872D02*
X0036358Y0127872D01*
X0036358Y0127373D02*
X0041652Y0127373D01*
X0042150Y0126875D02*
X0036197Y0126875D01*
X0041118Y0132857D02*
X0044307Y0132857D01*
X0041461Y0134851D02*
X0039124Y0134851D01*
X0039000Y0135350D02*
X0041816Y0135350D01*
X0042344Y0135848D02*
X0039000Y0135848D01*
X0039622Y0134353D02*
X0041215Y0134353D01*
X0041048Y0133854D02*
X0040121Y0133854D01*
X0040619Y0133355D02*
X0040948Y0133355D01*
X0046401Y0139836D02*
X0053226Y0139836D01*
X0053612Y0140335D02*
X0047018Y0140335D01*
X0047516Y0140833D02*
X0054111Y0140833D01*
X0058176Y0144821D02*
X0066376Y0144821D01*
X0066200Y0145320D02*
X0058814Y0145320D01*
X0059313Y0145818D02*
X0066200Y0145818D01*
X0066200Y0146317D02*
X0059588Y0146317D01*
X0059795Y0146815D02*
X0066200Y0146815D01*
X0066225Y0147314D02*
X0059980Y0147314D01*
X0059980Y0147812D02*
X0066431Y0147812D01*
X0066638Y0148311D02*
X0059980Y0148311D01*
X0059935Y0148809D02*
X0066844Y0148809D01*
X0067166Y0149308D02*
X0059729Y0149308D01*
X0059522Y0149806D02*
X0067665Y0149806D01*
X0068163Y0150305D02*
X0059154Y0150305D01*
X0058655Y0150803D02*
X0069047Y0150803D01*
X0070209Y0151302D02*
X0057793Y0151302D01*
X0058104Y0154791D02*
X0066414Y0154791D01*
X0066289Y0155290D02*
X0058784Y0155290D01*
X0059283Y0155789D02*
X0066210Y0155789D01*
X0066222Y0156786D02*
X0059782Y0156786D01*
X0059980Y0157284D02*
X0066301Y0157284D01*
X0066438Y0157783D02*
X0059980Y0157783D01*
X0059980Y0158281D02*
X0066617Y0158281D01*
X0066871Y0158780D02*
X0059948Y0158780D01*
X0059741Y0159278D02*
X0067208Y0159278D01*
X0067635Y0159777D02*
X0059535Y0159777D01*
X0059184Y0160275D02*
X0068199Y0160275D01*
X0069005Y0160774D02*
X0058685Y0160774D01*
X0057865Y0161272D02*
X0070071Y0161272D01*
X0072261Y0161203D02*
X0074111Y0161969D01*
X0075500Y0163358D01*
X0075500Y0161525D01*
X0076525Y0160500D01*
X0081525Y0155500D01*
X0090975Y0155500D01*
X0091975Y0156500D01*
X0102136Y0156500D01*
X0101819Y0155734D01*
X0101819Y0155294D01*
X0093206Y0146681D01*
X0092766Y0146681D01*
X0091873Y0146311D01*
X0091189Y0145627D01*
X0090819Y0144734D01*
X0090819Y0144243D01*
X0090718Y0144344D01*
X0089376Y0144900D01*
X0083124Y0144900D01*
X0081782Y0144344D01*
X0080756Y0143318D01*
X0080200Y0141976D01*
X0080200Y0140524D01*
X0080756Y0139182D01*
X0081782Y0138156D01*
X0083124Y0137600D01*
X0089376Y0137600D01*
X0090718Y0138156D01*
X0091744Y0139182D01*
X0092300Y0140524D01*
X0092300Y0141976D01*
X0092282Y0142020D01*
X0092766Y0141819D01*
X0093734Y0141819D01*
X0094627Y0142189D01*
X0095311Y0142873D01*
X0095681Y0143766D01*
X0095681Y0144206D01*
X0100943Y0149468D01*
X0101189Y0148873D01*
X0101500Y0148562D01*
X0101500Y0145364D01*
X0100734Y0145681D01*
X0099766Y0145681D01*
X0098873Y0145311D01*
X0098189Y0144627D01*
X0097819Y0143734D01*
X0097819Y0142766D01*
X0098189Y0141873D01*
X0098500Y0141562D01*
X0098500Y0127681D01*
X0097766Y0127681D01*
X0096873Y0127311D01*
X0096562Y0127000D01*
X0093975Y0127000D01*
X0091758Y0129216D01*
X0092300Y0130524D01*
X0092300Y0131976D01*
X0091744Y0133318D01*
X0090718Y0134344D01*
X0089376Y0134900D01*
X0083124Y0134900D01*
X0081782Y0134344D01*
X0081000Y0133562D01*
X0081000Y0136975D01*
X0079975Y0138000D01*
X0075058Y0142917D01*
X0075531Y0143389D01*
X0076300Y0145245D01*
X0076300Y0147255D01*
X0075531Y0149111D01*
X0074111Y0150531D01*
X0072261Y0151297D01*
X0072433Y0151324D01*
X0073189Y0151570D01*
X0073897Y0151931D01*
X0074540Y0152398D01*
X0075102Y0152960D01*
X0075569Y0153603D01*
X0075930Y0154311D01*
X0076176Y0155067D01*
X0076300Y0155853D01*
X0076300Y0156000D01*
X0071500Y0156000D01*
X0071500Y0156500D01*
X0076300Y0156500D01*
X0076300Y0156647D01*
X0076176Y0157433D01*
X0075930Y0158189D01*
X0075569Y0158897D01*
X0075102Y0159540D01*
X0074540Y0160102D01*
X0073897Y0160569D01*
X0073189Y0160930D01*
X0072433Y0161176D01*
X0072261Y0161203D01*
X0072429Y0161272D02*
X0075753Y0161272D01*
X0075500Y0161771D02*
X0073632Y0161771D01*
X0074411Y0162269D02*
X0075500Y0162269D01*
X0075500Y0162768D02*
X0074909Y0162768D01*
X0075408Y0163266D02*
X0075500Y0163266D01*
X0076252Y0160774D02*
X0073495Y0160774D01*
X0074301Y0160275D02*
X0076750Y0160275D01*
X0077249Y0159777D02*
X0074865Y0159777D01*
X0075292Y0159278D02*
X0077747Y0159278D01*
X0078246Y0158780D02*
X0075629Y0158780D01*
X0075883Y0158281D02*
X0078744Y0158281D01*
X0079243Y0157783D02*
X0076062Y0157783D01*
X0076199Y0157284D02*
X0079741Y0157284D01*
X0080240Y0156786D02*
X0076278Y0156786D01*
X0076290Y0155789D02*
X0081237Y0155789D01*
X0080738Y0156287D02*
X0071500Y0156287D01*
X0071000Y0156287D02*
X0059576Y0156287D01*
X0055717Y0171242D02*
X0070106Y0171242D01*
X0076211Y0155290D02*
X0101815Y0155290D01*
X0101842Y0155789D02*
X0091263Y0155789D01*
X0091762Y0156287D02*
X0102048Y0156287D01*
X0101317Y0154791D02*
X0089638Y0154791D01*
X0089376Y0154900D02*
X0090718Y0154344D01*
X0091744Y0153318D01*
X0092300Y0151976D01*
X0092300Y0150524D01*
X0091744Y0149182D01*
X0090718Y0148156D01*
X0089376Y0147600D01*
X0083124Y0147600D01*
X0081782Y0148156D01*
X0080756Y0149182D01*
X0080200Y0150524D01*
X0080200Y0151976D01*
X0080756Y0153318D01*
X0081782Y0154344D01*
X0083124Y0154900D01*
X0089376Y0154900D01*
X0090769Y0154293D02*
X0100818Y0154293D01*
X0100320Y0153794D02*
X0091267Y0153794D01*
X0091753Y0153296D02*
X0099821Y0153296D01*
X0099323Y0152797D02*
X0091960Y0152797D01*
X0092166Y0152299D02*
X0098824Y0152299D01*
X0098326Y0151800D02*
X0092300Y0151800D01*
X0092300Y0151302D02*
X0097827Y0151302D01*
X0097329Y0150803D02*
X0092300Y0150803D01*
X0092209Y0150305D02*
X0096830Y0150305D01*
X0096332Y0149806D02*
X0092003Y0149806D01*
X0091796Y0149308D02*
X0095833Y0149308D01*
X0095334Y0148809D02*
X0091371Y0148809D01*
X0090873Y0148311D02*
X0094836Y0148311D01*
X0094337Y0147812D02*
X0089889Y0147812D01*
X0091380Y0145818D02*
X0076300Y0145818D01*
X0076300Y0145320D02*
X0091062Y0145320D01*
X0090855Y0144821D02*
X0089566Y0144821D01*
X0090739Y0144323D02*
X0090819Y0144323D01*
X0091887Y0146317D02*
X0076300Y0146317D01*
X0076300Y0146815D02*
X0093340Y0146815D01*
X0093839Y0147314D02*
X0076275Y0147314D01*
X0076069Y0147812D02*
X0082611Y0147812D01*
X0081627Y0148311D02*
X0075862Y0148311D01*
X0075656Y0148809D02*
X0081129Y0148809D01*
X0080704Y0149308D02*
X0075334Y0149308D01*
X0074835Y0149806D02*
X0080497Y0149806D01*
X0080291Y0150305D02*
X0074337Y0150305D01*
X0073453Y0150803D02*
X0080200Y0150803D01*
X0080200Y0151302D02*
X0072291Y0151302D01*
X0073641Y0151800D02*
X0080200Y0151800D01*
X0080334Y0152299D02*
X0074403Y0152299D01*
X0074939Y0152797D02*
X0080540Y0152797D01*
X0080747Y0153296D02*
X0075346Y0153296D01*
X0075667Y0153794D02*
X0081233Y0153794D01*
X0081731Y0154293D02*
X0075921Y0154293D01*
X0076086Y0154791D02*
X0082862Y0154791D01*
X0082934Y0144821D02*
X0076124Y0144821D01*
X0075918Y0144323D02*
X0081761Y0144323D01*
X0081262Y0143824D02*
X0075711Y0143824D01*
X0075467Y0143326D02*
X0080764Y0143326D01*
X0080553Y0142827D02*
X0075148Y0142827D01*
X0075646Y0142329D02*
X0080346Y0142329D01*
X0080200Y0141830D02*
X0076145Y0141830D01*
X0076643Y0141332D02*
X0080200Y0141332D01*
X0080200Y0140833D02*
X0077142Y0140833D01*
X0077640Y0140335D02*
X0080278Y0140335D01*
X0080485Y0139836D02*
X0078139Y0139836D01*
X0078637Y0139338D02*
X0080691Y0139338D01*
X0081099Y0138839D02*
X0079136Y0138839D01*
X0079634Y0138341D02*
X0081597Y0138341D01*
X0082539Y0137842D02*
X0080133Y0137842D01*
X0080631Y0137344D02*
X0098500Y0137344D01*
X0098500Y0137842D02*
X0089961Y0137842D01*
X0090902Y0138341D02*
X0098500Y0138341D01*
X0098500Y0138839D02*
X0091401Y0138839D01*
X0091809Y0139338D02*
X0098500Y0139338D01*
X0098500Y0139836D02*
X0092015Y0139836D01*
X0092222Y0140335D02*
X0098500Y0140335D01*
X0098500Y0140833D02*
X0092300Y0140833D01*
X0092300Y0141332D02*
X0098500Y0141332D01*
X0098232Y0141830D02*
X0093761Y0141830D01*
X0092739Y0141830D02*
X0092300Y0141830D01*
X0094767Y0142329D02*
X0098000Y0142329D01*
X0097819Y0142827D02*
X0095265Y0142827D01*
X0095499Y0143326D02*
X0097819Y0143326D01*
X0097856Y0143824D02*
X0095681Y0143824D01*
X0095798Y0144323D02*
X0098063Y0144323D01*
X0098383Y0144821D02*
X0096296Y0144821D01*
X0096795Y0145320D02*
X0098894Y0145320D01*
X0097792Y0146317D02*
X0101500Y0146317D01*
X0101500Y0146815D02*
X0098290Y0146815D01*
X0098789Y0147314D02*
X0101500Y0147314D01*
X0101500Y0147812D02*
X0099287Y0147812D01*
X0099786Y0148311D02*
X0101500Y0148311D01*
X0101253Y0148809D02*
X0100284Y0148809D01*
X0100783Y0149308D02*
X0101009Y0149308D01*
X0101500Y0145818D02*
X0097293Y0145818D01*
X0098500Y0136845D02*
X0081000Y0136845D01*
X0081000Y0136347D02*
X0098500Y0136347D01*
X0098500Y0135848D02*
X0081000Y0135848D01*
X0081000Y0135350D02*
X0098500Y0135350D01*
X0098500Y0134851D02*
X0089494Y0134851D01*
X0090698Y0134353D02*
X0098500Y0134353D01*
X0098500Y0133854D02*
X0091208Y0133854D01*
X0091706Y0133355D02*
X0098500Y0133355D01*
X0098500Y0132857D02*
X0091935Y0132857D01*
X0092142Y0132358D02*
X0098500Y0132358D01*
X0098500Y0131860D02*
X0092300Y0131860D01*
X0092300Y0131361D02*
X0098500Y0131361D01*
X0098500Y0130863D02*
X0092300Y0130863D01*
X0092234Y0130364D02*
X0098500Y0130364D01*
X0098500Y0129866D02*
X0092027Y0129866D01*
X0091821Y0129367D02*
X0098500Y0129367D01*
X0098500Y0128869D02*
X0092106Y0128869D01*
X0092604Y0128370D02*
X0098500Y0128370D01*
X0098500Y0127872D02*
X0093103Y0127872D01*
X0093601Y0127373D02*
X0097024Y0127373D01*
X0109000Y0127373D02*
X0126249Y0127373D01*
X0126200Y0127255D02*
X0126200Y0125245D01*
X0126969Y0123389D01*
X0128389Y0121969D01*
X0130125Y0121250D01*
X0128681Y0120652D01*
X0128681Y0120734D01*
X0128311Y0121627D01*
X0127627Y0122311D01*
X0126734Y0122681D01*
X0126294Y0122681D01*
X0125975Y0123000D01*
X0121876Y0123000D01*
X0121744Y0123318D01*
X0120718Y0124344D01*
X0119376Y0124900D01*
X0113124Y0124900D01*
X0111782Y0124344D01*
X0110756Y0123318D01*
X0110200Y0121976D01*
X0110200Y0121775D01*
X0109000Y0122975D01*
X0109000Y0156929D01*
X0109627Y0157189D01*
X0110311Y0157873D01*
X0110681Y0158766D01*
X0110681Y0159363D01*
X0110756Y0159182D01*
X0111782Y0158156D01*
X0113124Y0157600D01*
X0119376Y0157600D01*
X0120718Y0158156D01*
X0121744Y0159182D01*
X0121773Y0159252D01*
X0124775Y0156250D01*
X0123500Y0154975D01*
X0123500Y0142975D01*
X0122273Y0141747D01*
X0122160Y0142315D01*
X0121885Y0142979D01*
X0121485Y0143577D01*
X0120977Y0144085D01*
X0120379Y0144485D01*
X0119715Y0144760D01*
X0119009Y0144900D01*
X0116500Y0144900D01*
X0116500Y0141500D01*
X0116000Y0141500D01*
X0116000Y0144900D01*
X0113490Y0144900D01*
X0112785Y0144760D01*
X0112121Y0144485D01*
X0111523Y0144085D01*
X0111015Y0143577D01*
X0110615Y0142979D01*
X0110340Y0142315D01*
X0110200Y0141609D01*
X0110200Y0141500D01*
X0116000Y0141500D01*
X0116000Y0141000D01*
X0116500Y0141000D01*
X0116500Y0137600D01*
X0118125Y0137600D01*
X0115425Y0134900D01*
X0113124Y0134900D01*
X0111782Y0134344D01*
X0110756Y0133318D01*
X0110200Y0131976D01*
X0110200Y0130524D01*
X0110756Y0129182D01*
X0111782Y0128156D01*
X0113124Y0127600D01*
X0119376Y0127600D01*
X0120718Y0128156D01*
X0121744Y0129182D01*
X0122300Y0130524D01*
X0122300Y0131976D01*
X0121744Y0133318D01*
X0120718Y0134344D01*
X0120082Y0134607D01*
X0125975Y0140500D01*
X0127000Y0141525D01*
X0127000Y0143358D01*
X0128389Y0141969D01*
X0130125Y0141250D01*
X0128389Y0140531D01*
X0126969Y0139111D01*
X0126200Y0137255D01*
X0126200Y0135245D01*
X0126969Y0133389D01*
X0128389Y0131969D01*
X0130125Y0131250D01*
X0128389Y0130531D01*
X0126969Y0129111D01*
X0126200Y0127255D01*
X0126200Y0126875D02*
X0109000Y0126875D01*
X0109000Y0126376D02*
X0126200Y0126376D01*
X0126200Y0125878D02*
X0109000Y0125878D01*
X0109000Y0125379D02*
X0126200Y0125379D01*
X0126351Y0124881D02*
X0119422Y0124881D01*
X0120626Y0124382D02*
X0126558Y0124382D01*
X0126764Y0123884D02*
X0121178Y0123884D01*
X0121677Y0123385D02*
X0126973Y0123385D01*
X0127471Y0122887D02*
X0126088Y0122887D01*
X0127441Y0122388D02*
X0127970Y0122388D01*
X0128048Y0121890D02*
X0128580Y0121890D01*
X0128409Y0121391D02*
X0129784Y0121391D01*
X0129262Y0120893D02*
X0128615Y0120893D01*
X0126456Y0127872D02*
X0120032Y0127872D01*
X0120932Y0128370D02*
X0126662Y0128370D01*
X0126869Y0128869D02*
X0121431Y0128869D01*
X0121821Y0129367D02*
X0127226Y0129367D01*
X0127724Y0129866D02*
X0122027Y0129866D01*
X0122234Y0130364D02*
X0128223Y0130364D01*
X0129190Y0130863D02*
X0122300Y0130863D01*
X0122300Y0131361D02*
X0129856Y0131361D01*
X0128652Y0131860D02*
X0122300Y0131860D01*
X0122142Y0132358D02*
X0128000Y0132358D01*
X0127501Y0132857D02*
X0121935Y0132857D01*
X0121706Y0133355D02*
X0127003Y0133355D01*
X0126776Y0133854D02*
X0121208Y0133854D01*
X0120698Y0134353D02*
X0126570Y0134353D01*
X0126363Y0134851D02*
X0120326Y0134851D01*
X0120824Y0135350D02*
X0126200Y0135350D01*
X0126200Y0135848D02*
X0121323Y0135848D01*
X0121821Y0136347D02*
X0126200Y0136347D01*
X0126200Y0136845D02*
X0122320Y0136845D01*
X0122818Y0137344D02*
X0126237Y0137344D01*
X0126443Y0137842D02*
X0123317Y0137842D01*
X0123815Y0138341D02*
X0126650Y0138341D01*
X0126856Y0138839D02*
X0124314Y0138839D01*
X0124812Y0139338D02*
X0127196Y0139338D01*
X0127694Y0139836D02*
X0125311Y0139836D01*
X0125810Y0140335D02*
X0128193Y0140335D01*
X0129118Y0140833D02*
X0126308Y0140833D01*
X0126807Y0141332D02*
X0129928Y0141332D01*
X0128724Y0141830D02*
X0127000Y0141830D01*
X0127000Y0142329D02*
X0128030Y0142329D01*
X0127531Y0142827D02*
X0127000Y0142827D01*
X0127000Y0143326D02*
X0127032Y0143326D01*
X0123500Y0143326D02*
X0121653Y0143326D01*
X0121947Y0142827D02*
X0123352Y0142827D01*
X0122854Y0142329D02*
X0122154Y0142329D01*
X0122256Y0141830D02*
X0122355Y0141830D01*
X0121238Y0143824D02*
X0123500Y0143824D01*
X0123500Y0144323D02*
X0120621Y0144323D01*
X0119405Y0144821D02*
X0123500Y0144821D01*
X0123500Y0145320D02*
X0109000Y0145320D01*
X0109000Y0145818D02*
X0123500Y0145818D01*
X0123500Y0146317D02*
X0109000Y0146317D01*
X0109000Y0146815D02*
X0123500Y0146815D01*
X0123500Y0147314D02*
X0109000Y0147314D01*
X0109000Y0147812D02*
X0112611Y0147812D01*
X0113124Y0147600D02*
X0111782Y0148156D01*
X0110756Y0149182D01*
X0110200Y0150524D01*
X0110200Y0151976D01*
X0110756Y0153318D01*
X0111782Y0154344D01*
X0113124Y0154900D01*
X0119376Y0154900D01*
X0120718Y0154344D01*
X0121744Y0153318D01*
X0122300Y0151976D01*
X0122300Y0150524D01*
X0121744Y0149182D01*
X0120718Y0148156D01*
X0119376Y0147600D01*
X0113124Y0147600D01*
X0111627Y0148311D02*
X0109000Y0148311D01*
X0109000Y0148809D02*
X0111129Y0148809D01*
X0110704Y0149308D02*
X0109000Y0149308D01*
X0109000Y0149806D02*
X0110497Y0149806D01*
X0110291Y0150305D02*
X0109000Y0150305D01*
X0109000Y0150803D02*
X0110200Y0150803D01*
X0110200Y0151302D02*
X0109000Y0151302D01*
X0109000Y0151800D02*
X0110200Y0151800D01*
X0110334Y0152299D02*
X0109000Y0152299D01*
X0109000Y0152797D02*
X0110540Y0152797D01*
X0110747Y0153296D02*
X0109000Y0153296D01*
X0109000Y0153794D02*
X0111233Y0153794D01*
X0111731Y0154293D02*
X0109000Y0154293D01*
X0109000Y0154791D02*
X0112862Y0154791D01*
X0112683Y0157783D02*
X0110221Y0157783D01*
X0110480Y0158281D02*
X0111657Y0158281D01*
X0111159Y0158780D02*
X0110681Y0158780D01*
X0110681Y0159278D02*
X0110716Y0159278D01*
X0109722Y0157284D02*
X0123741Y0157284D01*
X0123243Y0157783D02*
X0119817Y0157783D01*
X0120843Y0158281D02*
X0122744Y0158281D01*
X0122246Y0158780D02*
X0121341Y0158780D01*
X0123815Y0155290D02*
X0109000Y0155290D01*
X0109000Y0155789D02*
X0124314Y0155789D01*
X0124738Y0156287D02*
X0109000Y0156287D01*
X0109000Y0156786D02*
X0124240Y0156786D01*
X0123500Y0154791D02*
X0119638Y0154791D01*
X0120769Y0154293D02*
X0123500Y0154293D01*
X0123500Y0153794D02*
X0121267Y0153794D01*
X0121753Y0153296D02*
X0123500Y0153296D01*
X0123500Y0152797D02*
X0121960Y0152797D01*
X0122166Y0152299D02*
X0123500Y0152299D01*
X0123500Y0151800D02*
X0122300Y0151800D01*
X0122300Y0151302D02*
X0123500Y0151302D01*
X0123500Y0150803D02*
X0122300Y0150803D01*
X0122209Y0150305D02*
X0123500Y0150305D01*
X0123500Y0149806D02*
X0122003Y0149806D01*
X0121796Y0149308D02*
X0123500Y0149308D01*
X0123500Y0148809D02*
X0121371Y0148809D01*
X0120873Y0148311D02*
X0123500Y0148311D01*
X0123500Y0147812D02*
X0119889Y0147812D01*
X0116500Y0144821D02*
X0116000Y0144821D01*
X0116000Y0144323D02*
X0116500Y0144323D01*
X0116500Y0143824D02*
X0116000Y0143824D01*
X0116000Y0143326D02*
X0116500Y0143326D01*
X0116500Y0142827D02*
X0116000Y0142827D01*
X0116000Y0142329D02*
X0116500Y0142329D01*
X0116500Y0141830D02*
X0116000Y0141830D01*
X0116000Y0141332D02*
X0109000Y0141332D01*
X0109000Y0141830D02*
X0110244Y0141830D01*
X0110346Y0142329D02*
X0109000Y0142329D01*
X0109000Y0142827D02*
X0110553Y0142827D01*
X0110847Y0143326D02*
X0109000Y0143326D01*
X0109000Y0143824D02*
X0111262Y0143824D01*
X0111879Y0144323D02*
X0109000Y0144323D01*
X0109000Y0144821D02*
X0113095Y0144821D01*
X0110200Y0141000D02*
X0116000Y0141000D01*
X0116000Y0137600D01*
X0113490Y0137600D01*
X0112785Y0137740D01*
X0112121Y0138015D01*
X0111523Y0138415D01*
X0111015Y0138923D01*
X0110615Y0139521D01*
X0110340Y0140185D01*
X0110200Y0140890D01*
X0110200Y0141000D01*
X0110211Y0140833D02*
X0109000Y0140833D01*
X0109000Y0140335D02*
X0110311Y0140335D01*
X0110485Y0139836D02*
X0109000Y0139836D01*
X0109000Y0139338D02*
X0110738Y0139338D01*
X0111099Y0138839D02*
X0109000Y0138839D01*
X0109000Y0138341D02*
X0111634Y0138341D01*
X0112539Y0137842D02*
X0109000Y0137842D01*
X0109000Y0137344D02*
X0117869Y0137344D01*
X0117370Y0136845D02*
X0109000Y0136845D01*
X0109000Y0136347D02*
X0116872Y0136347D01*
X0116373Y0135848D02*
X0109000Y0135848D01*
X0109000Y0135350D02*
X0115875Y0135350D01*
X0116000Y0137842D02*
X0116500Y0137842D01*
X0116500Y0138341D02*
X0116000Y0138341D01*
X0116000Y0138839D02*
X0116500Y0138839D01*
X0116500Y0139338D02*
X0116000Y0139338D01*
X0116000Y0139836D02*
X0116500Y0139836D01*
X0116500Y0140335D02*
X0116000Y0140335D01*
X0116000Y0140833D02*
X0116500Y0140833D01*
X0113006Y0134851D02*
X0109000Y0134851D01*
X0109000Y0134353D02*
X0111802Y0134353D01*
X0111292Y0133854D02*
X0109000Y0133854D01*
X0109000Y0133355D02*
X0110794Y0133355D01*
X0110565Y0132857D02*
X0109000Y0132857D01*
X0109000Y0132358D02*
X0110358Y0132358D01*
X0110200Y0131860D02*
X0109000Y0131860D01*
X0109000Y0131361D02*
X0110200Y0131361D01*
X0110200Y0130863D02*
X0109000Y0130863D01*
X0109000Y0130364D02*
X0110266Y0130364D01*
X0110473Y0129866D02*
X0109000Y0129866D01*
X0109000Y0129367D02*
X0110679Y0129367D01*
X0111069Y0128869D02*
X0109000Y0128869D01*
X0109000Y0128370D02*
X0111568Y0128370D01*
X0112468Y0127872D02*
X0109000Y0127872D01*
X0109000Y0124881D02*
X0113078Y0124881D01*
X0111874Y0124382D02*
X0109000Y0124382D01*
X0109000Y0123884D02*
X0111322Y0123884D01*
X0110823Y0123385D02*
X0109000Y0123385D01*
X0109088Y0122887D02*
X0110577Y0122887D01*
X0110371Y0122388D02*
X0109587Y0122388D01*
X0110085Y0121890D02*
X0110200Y0121890D01*
X0083006Y0134851D02*
X0081000Y0134851D01*
X0081000Y0134353D02*
X0081802Y0134353D01*
X0081292Y0133854D02*
X0081000Y0133854D01*
X0058500Y0106436D02*
X0050065Y0106436D01*
X0050563Y0106934D02*
X0058091Y0106934D01*
X0057592Y0107433D02*
X0051062Y0107433D01*
X0051560Y0107931D02*
X0057094Y0107931D01*
X0056595Y0108430D02*
X0052059Y0108430D01*
X0052106Y0108928D02*
X0056097Y0108928D01*
X0055598Y0109427D02*
X0052106Y0109427D01*
X0052106Y0109925D02*
X0055100Y0109925D01*
X0054601Y0110424D02*
X0052106Y0110424D01*
X0052106Y0110922D02*
X0054103Y0110922D01*
X0053604Y0111421D02*
X0044807Y0111421D01*
X0048569Y0104940D02*
X0058500Y0104940D01*
X0058500Y0104442D02*
X0048071Y0104442D01*
X0049068Y0105439D02*
X0058500Y0105439D01*
X0058500Y0105937D02*
X0049566Y0105937D01*
X0052106Y0111920D02*
X0053106Y0111920D01*
X0052607Y0112418D02*
X0052106Y0112418D01*
X0052106Y0112917D02*
X0052109Y0112917D01*
X0054067Y0115908D02*
X0055500Y0115908D01*
X0055500Y0116406D02*
X0053569Y0116406D01*
X0053070Y0116905D02*
X0055500Y0116905D01*
X0055500Y0117403D02*
X0052572Y0117403D01*
X0052073Y0117902D02*
X0055500Y0117902D01*
X0055500Y0118400D02*
X0051575Y0118400D01*
X0051076Y0118899D02*
X0055500Y0118899D01*
X0055500Y0119397D02*
X0050578Y0119397D01*
X0050079Y0119896D02*
X0055500Y0119896D01*
X0055500Y0120394D02*
X0049581Y0120394D01*
X0049082Y0120893D02*
X0055500Y0120893D01*
X0055500Y0121391D02*
X0048584Y0121391D01*
X0048085Y0121890D02*
X0055500Y0121890D01*
X0055500Y0122388D02*
X0027587Y0122388D01*
X0027088Y0122887D02*
X0055500Y0122887D01*
X0055500Y0123385D02*
X0026590Y0123385D01*
X0026091Y0123884D02*
X0055500Y0123884D01*
X0055500Y0115409D02*
X0054566Y0115409D01*
X0055064Y0114911D02*
X0055500Y0114911D01*
X0040677Y0118400D02*
X0024815Y0118400D01*
X0024317Y0118899D02*
X0026126Y0118899D01*
X0025314Y0117902D02*
X0040178Y0117902D01*
X0039680Y0117403D02*
X0025812Y0117403D01*
X0026311Y0116905D02*
X0039181Y0116905D01*
X0038683Y0116406D02*
X0026809Y0116406D01*
X0027308Y0115908D02*
X0038184Y0115908D01*
X0037686Y0115409D02*
X0027806Y0115409D01*
X0028305Y0114911D02*
X0037187Y0114911D01*
X0037008Y0114412D02*
X0028484Y0114412D01*
X0028484Y0113914D02*
X0037008Y0113914D01*
X0037008Y0113415D02*
X0028484Y0113415D01*
X0028484Y0112917D02*
X0037008Y0112917D01*
X0037008Y0112418D02*
X0028484Y0112418D01*
X0028484Y0111920D02*
X0037008Y0111920D01*
X0037008Y0110922D02*
X0028484Y0110922D01*
X0028484Y0110424D02*
X0037008Y0110424D01*
X0037008Y0109925D02*
X0028484Y0109925D01*
X0028484Y0109427D02*
X0037008Y0109427D01*
X0037008Y0108928D02*
X0028484Y0108928D01*
X0028437Y0108430D02*
X0037055Y0108430D01*
X0037554Y0107931D02*
X0027938Y0107931D01*
X0027440Y0107433D02*
X0038052Y0107433D01*
X0038551Y0106934D02*
X0026941Y0106934D01*
X0026443Y0106436D02*
X0039049Y0106436D01*
X0039548Y0105937D02*
X0025944Y0105937D01*
X0025446Y0105439D02*
X0040046Y0105439D01*
X0040545Y0104940D02*
X0024947Y0104940D01*
X0024449Y0104442D02*
X0041043Y0104442D01*
X0021185Y0111920D02*
X0020685Y0111920D01*
X0020685Y0112418D02*
X0021185Y0112418D01*
X0021185Y0112917D02*
X0020685Y0112917D01*
X0020685Y0113415D02*
X0021185Y0113415D01*
X0021185Y0113914D02*
X0020685Y0113914D01*
X0020685Y0114412D02*
X0021185Y0114412D01*
X0021185Y0114911D02*
X0020685Y0114911D01*
X0020685Y0115409D02*
X0021185Y0115409D01*
X0021185Y0115908D02*
X0020685Y0115908D01*
X0020685Y0116406D02*
X0021185Y0116406D01*
X0021185Y0116905D02*
X0020685Y0116905D01*
X0020685Y0117403D02*
X0021185Y0117403D01*
X0021185Y0117902D02*
X0020685Y0117902D01*
X0020685Y0118400D02*
X0021185Y0118400D01*
X0021185Y0118899D02*
X0020685Y0118899D01*
X0018194Y0135350D02*
X0018000Y0135350D01*
X0018000Y0135848D02*
X0018692Y0135848D01*
X0018000Y0136347D02*
X0019618Y0136347D01*
X0018164Y0145320D02*
X0018000Y0145320D01*
X0018000Y0145818D02*
X0018663Y0145818D01*
X0018000Y0146317D02*
X0019546Y0146317D01*
X0014231Y0153794D02*
X0013233Y0153794D01*
X0013485Y0154293D02*
X0013732Y0154293D01*
X0020685Y0167254D02*
X0021185Y0167254D01*
X0021185Y0167753D02*
X0020685Y0167753D01*
X0020685Y0168251D02*
X0021185Y0168251D01*
X0021185Y0168750D02*
X0020685Y0168750D01*
X0020685Y0169248D02*
X0021185Y0169248D01*
X0021185Y0169747D02*
X0020685Y0169747D01*
X0020685Y0170245D02*
X0021185Y0170245D01*
X0021185Y0170744D02*
X0020685Y0170744D01*
X0020685Y0171242D02*
X0021185Y0171242D01*
X0021185Y0171741D02*
X0020685Y0171741D01*
X0020685Y0172239D02*
X0021185Y0172239D01*
X0021185Y0172738D02*
X0020685Y0172738D01*
X0020685Y0173236D02*
X0021185Y0173236D01*
X0021185Y0173735D02*
X0020685Y0173735D01*
X0026254Y0179717D02*
X0027500Y0179717D01*
X0027500Y0179219D02*
X0026753Y0179219D01*
X0027251Y0178720D02*
X0027500Y0178720D01*
X0027500Y0180216D02*
X0025756Y0180216D01*
X0025257Y0180714D02*
X0027500Y0180714D01*
X0027500Y0181213D02*
X0024759Y0181213D01*
X0024260Y0181711D02*
X0027500Y0181711D01*
X0039000Y0168750D02*
X0039491Y0168750D01*
X0039000Y0168251D02*
X0039990Y0168251D01*
X0040488Y0167753D02*
X0039000Y0167753D01*
X0039000Y0167254D02*
X0040987Y0167254D01*
X0039000Y0166756D02*
X0046281Y0166756D01*
X0089887Y0223088D02*
X0098819Y0223088D01*
X0098819Y0223586D02*
X0089389Y0223586D01*
X0088890Y0224085D02*
X0098964Y0224085D01*
X0099171Y0224583D02*
X0088392Y0224583D01*
X0090386Y0222589D02*
X0098892Y0222589D01*
X0099099Y0222091D02*
X0090884Y0222091D01*
X0091383Y0221592D02*
X0099470Y0221592D01*
X0100103Y0221093D02*
X0091881Y0221093D01*
X0092380Y0220595D02*
X0104570Y0220595D01*
X0103845Y0221093D02*
X0102396Y0221093D01*
X0103030Y0221592D02*
X0103346Y0221592D01*
X0106000Y0214613D02*
X0106500Y0214613D01*
X0106500Y0214114D02*
X0106000Y0214114D01*
X0106000Y0213616D02*
X0106500Y0213616D01*
X0106500Y0210625D02*
X0106000Y0210625D01*
X0106000Y0210126D02*
X0106500Y0210126D01*
X0106500Y0209628D02*
X0106000Y0209628D01*
X0106000Y0209129D02*
X0106500Y0209129D01*
X0106500Y0208631D02*
X0106000Y0208631D01*
X0106000Y0208132D02*
X0106500Y0208132D01*
X0106500Y0207634D02*
X0106000Y0207634D01*
X0104704Y0207634D02*
X0104000Y0207634D01*
X0104000Y0208132D02*
X0104206Y0208132D01*
X0104000Y0207135D02*
X0111660Y0207135D01*
X0111162Y0206637D02*
X0104000Y0206637D01*
X0104000Y0206138D02*
X0110663Y0206138D01*
X0110165Y0205640D02*
X0104000Y0205640D01*
X0104000Y0205141D02*
X0109666Y0205141D01*
X0109168Y0204643D02*
X0104000Y0204643D01*
X0104000Y0204144D02*
X0108669Y0204144D01*
X0108171Y0203646D02*
X0104000Y0203646D01*
X0104000Y0203147D02*
X0107672Y0203147D01*
X0107174Y0202649D02*
X0104326Y0202649D01*
X0104825Y0202150D02*
X0106675Y0202150D01*
X0106500Y0201652D02*
X0105323Y0201652D01*
X0105822Y0201153D02*
X0106500Y0201153D01*
X0106500Y0200655D02*
X0106320Y0200655D01*
X0107796Y0207634D02*
X0112159Y0207634D01*
X0112657Y0208132D02*
X0108294Y0208132D01*
X0108793Y0208631D02*
X0113156Y0208631D01*
X0113654Y0209129D02*
X0109291Y0209129D01*
X0109790Y0209628D02*
X0114153Y0209628D01*
X0114651Y0210126D02*
X0109900Y0210126D01*
X0107930Y0220595D02*
X0114570Y0220595D01*
X0113845Y0221093D02*
X0108655Y0221093D01*
X0109154Y0221592D02*
X0113369Y0221592D01*
X0113036Y0222091D02*
X0109472Y0222091D01*
X0109678Y0222589D02*
X0112822Y0222589D01*
X0112680Y0223088D02*
X0109885Y0223088D01*
X0109900Y0223586D02*
X0112600Y0223586D01*
X0112600Y0224085D02*
X0109900Y0224085D01*
X0109900Y0224583D02*
X0112600Y0224583D01*
X0112600Y0225082D02*
X0109900Y0225082D01*
X0109900Y0225580D02*
X0112600Y0225580D01*
X0116000Y0225580D02*
X0116500Y0225580D01*
X0116500Y0226000D02*
X0116500Y0220200D01*
X0116609Y0220200D01*
X0117315Y0220340D01*
X0117979Y0220615D01*
X0118577Y0221015D01*
X0119085Y0221523D01*
X0119485Y0222121D01*
X0119760Y0222785D01*
X0119900Y0223490D01*
X0119900Y0226000D01*
X0116500Y0226000D01*
X0116500Y0225082D02*
X0116000Y0225082D01*
X0116000Y0224583D02*
X0116500Y0224583D01*
X0116500Y0224085D02*
X0116000Y0224085D01*
X0116000Y0223586D02*
X0116500Y0223586D01*
X0116500Y0223088D02*
X0116000Y0223088D01*
X0116000Y0222589D02*
X0116500Y0222589D01*
X0116500Y0222091D02*
X0116000Y0222091D01*
X0116000Y0221592D02*
X0116500Y0221592D01*
X0116500Y0221093D02*
X0116000Y0221093D01*
X0116000Y0220595D02*
X0116500Y0220595D01*
X0117930Y0220595D02*
X0124500Y0220595D01*
X0123845Y0221093D02*
X0118655Y0221093D01*
X0119131Y0221592D02*
X0123346Y0221592D01*
X0123028Y0222091D02*
X0119464Y0222091D01*
X0119678Y0222589D02*
X0122822Y0222589D01*
X0122615Y0223088D02*
X0119820Y0223088D01*
X0119900Y0223586D02*
X0122600Y0223586D01*
X0122600Y0224085D02*
X0119900Y0224085D01*
X0119900Y0224583D02*
X0122600Y0224583D01*
X0122600Y0225082D02*
X0119900Y0225082D01*
X0119900Y0225580D02*
X0122600Y0225580D01*
X0129900Y0255491D02*
X0184071Y0255491D01*
X0184071Y0255989D02*
X0129900Y0255989D01*
X0129900Y0256488D02*
X0184071Y0256488D01*
X0184071Y0256986D02*
X0129900Y0256986D01*
X0129900Y0257485D02*
X0184071Y0257485D01*
X0184071Y0257983D02*
X0129900Y0257983D01*
X0129900Y0258482D02*
X0184071Y0258482D01*
X0184071Y0258980D02*
X0129900Y0258980D01*
X0129857Y0259479D02*
X0184071Y0259479D01*
X0184071Y0259977D02*
X0129651Y0259977D01*
X0129444Y0260476D02*
X0184071Y0260476D01*
X0184071Y0260974D02*
X0129087Y0260974D01*
X0128589Y0261473D02*
X0184071Y0261473D01*
X0184071Y0261971D02*
X0127769Y0261971D01*
X0127762Y0267600D02*
X0124738Y0267600D01*
X0122600Y0269738D01*
X0122600Y0272762D01*
X0124738Y0274900D01*
X0127762Y0274900D01*
X0129900Y0272762D01*
X0129900Y0269738D01*
X0127762Y0267600D01*
X0128115Y0267954D02*
X0167382Y0267954D01*
X0167103Y0268452D02*
X0128614Y0268452D01*
X0129112Y0268951D02*
X0166896Y0268951D01*
X0166690Y0269449D02*
X0129611Y0269449D01*
X0129900Y0269948D02*
X0166483Y0269948D01*
X0166277Y0270446D02*
X0129900Y0270446D01*
X0129900Y0270945D02*
X0166070Y0270945D01*
X0165961Y0271443D02*
X0129900Y0271443D01*
X0129900Y0271942D02*
X0165961Y0271942D01*
X0165961Y0272440D02*
X0129900Y0272440D01*
X0129723Y0272939D02*
X0165961Y0272939D01*
X0165961Y0273437D02*
X0129225Y0273437D01*
X0128726Y0273936D02*
X0165961Y0273936D01*
X0165961Y0274434D02*
X0128228Y0274434D01*
X0124272Y0274434D02*
X0108228Y0274434D01*
X0108726Y0273936D02*
X0123774Y0273936D01*
X0123275Y0273437D02*
X0109225Y0273437D01*
X0109723Y0272939D02*
X0122777Y0272939D01*
X0122600Y0272440D02*
X0109900Y0272440D01*
X0109900Y0271942D02*
X0122600Y0271942D01*
X0122600Y0271443D02*
X0109900Y0271443D01*
X0109900Y0270945D02*
X0122600Y0270945D01*
X0122600Y0270446D02*
X0109900Y0270446D01*
X0109900Y0269948D02*
X0122600Y0269948D01*
X0122889Y0269449D02*
X0109611Y0269449D01*
X0109112Y0268951D02*
X0123388Y0268951D01*
X0123886Y0268452D02*
X0108614Y0268452D01*
X0108115Y0267954D02*
X0124385Y0267954D01*
X0108012Y0264962D02*
X0171392Y0264962D01*
X0170188Y0265461D02*
X0107514Y0265461D01*
X0107015Y0265960D02*
X0169377Y0265960D01*
X0168878Y0266458D02*
X0106517Y0266458D01*
X0106018Y0266957D02*
X0168379Y0266957D01*
X0167881Y0267455D02*
X0105520Y0267455D01*
X0102600Y0270446D02*
X0102529Y0270446D01*
X0102600Y0270945D02*
X0102030Y0270945D01*
X0101532Y0271443D02*
X0102600Y0271443D01*
X0102600Y0271942D02*
X0101033Y0271942D01*
X0100535Y0272440D02*
X0102600Y0272440D01*
X0102777Y0272939D02*
X0100036Y0272939D01*
X0099538Y0273437D02*
X0103275Y0273437D01*
X0103774Y0273936D02*
X0099039Y0273936D01*
X0098541Y0274434D02*
X0104272Y0274434D01*
X0098042Y0274933D02*
X0166099Y0274933D01*
X0166306Y0275431D02*
X0097544Y0275431D01*
X0097045Y0275930D02*
X0166512Y0275930D01*
X0166719Y0276428D02*
X0096547Y0276428D01*
X0081050Y0260500D02*
X0080197Y0259648D01*
X0079528Y0258031D01*
X0079528Y0256280D01*
X0080197Y0254663D01*
X0081435Y0253426D01*
X0081935Y0253219D01*
X0081435Y0253011D01*
X0080197Y0251774D01*
X0079528Y0250157D01*
X0079528Y0248406D01*
X0080197Y0246789D01*
X0081435Y0245552D01*
X0081951Y0245338D01*
X0081621Y0245170D01*
X0081061Y0244763D01*
X0080571Y0244274D01*
X0080164Y0243713D01*
X0079850Y0243096D01*
X0079636Y0242438D01*
X0079528Y0241754D01*
X0079528Y0241657D01*
X0083677Y0241657D01*
X0083677Y0241157D01*
X0079528Y0241157D01*
X0079528Y0241061D01*
X0079636Y0240377D01*
X0079850Y0239719D01*
X0080164Y0239102D01*
X0080571Y0238541D01*
X0081061Y0238052D01*
X0081621Y0237645D01*
X0081951Y0237477D01*
X0081435Y0237263D01*
X0080197Y0236026D01*
X0079528Y0234409D01*
X0079528Y0233447D01*
X0068681Y0244294D01*
X0068681Y0244734D01*
X0068311Y0245627D01*
X0067627Y0246311D01*
X0067032Y0246557D01*
X0080975Y0260500D01*
X0081050Y0260500D01*
X0081026Y0260476D02*
X0080951Y0260476D01*
X0080527Y0259977D02*
X0080452Y0259977D01*
X0080127Y0259479D02*
X0079954Y0259479D01*
X0079921Y0258980D02*
X0079455Y0258980D01*
X0079714Y0258482D02*
X0078957Y0258482D01*
X0078458Y0257983D02*
X0079528Y0257983D01*
X0079528Y0257485D02*
X0077960Y0257485D01*
X0077461Y0256986D02*
X0079528Y0256986D01*
X0079528Y0256488D02*
X0076963Y0256488D01*
X0076464Y0255989D02*
X0079648Y0255989D01*
X0079855Y0255491D02*
X0075966Y0255491D01*
X0075467Y0254992D02*
X0080061Y0254992D01*
X0080367Y0254494D02*
X0074969Y0254494D01*
X0074470Y0253995D02*
X0080865Y0253995D01*
X0081364Y0253497D02*
X0073972Y0253497D01*
X0073473Y0252998D02*
X0081422Y0252998D01*
X0080923Y0252500D02*
X0072975Y0252500D01*
X0072476Y0252001D02*
X0080425Y0252001D01*
X0080085Y0251503D02*
X0071978Y0251503D01*
X0071479Y0251004D02*
X0079879Y0251004D01*
X0079672Y0250506D02*
X0070981Y0250506D01*
X0070482Y0250007D02*
X0079528Y0250007D01*
X0079528Y0249509D02*
X0069983Y0249509D01*
X0069485Y0249010D02*
X0079528Y0249010D01*
X0079528Y0248512D02*
X0068986Y0248512D01*
X0068488Y0248013D02*
X0079690Y0248013D01*
X0079897Y0247515D02*
X0067989Y0247515D01*
X0067491Y0247016D02*
X0080103Y0247016D01*
X0080469Y0246518D02*
X0067128Y0246518D01*
X0067919Y0246019D02*
X0080968Y0246019D01*
X0081510Y0245521D02*
X0068355Y0245521D01*
X0068562Y0245022D02*
X0081417Y0245022D01*
X0080821Y0244524D02*
X0068681Y0244524D01*
X0068950Y0244025D02*
X0080391Y0244025D01*
X0080069Y0243527D02*
X0069448Y0243527D01*
X0069947Y0243028D02*
X0079828Y0243028D01*
X0079666Y0242529D02*
X0070445Y0242529D01*
X0070944Y0242031D02*
X0079571Y0242031D01*
X0079532Y0241034D02*
X0071941Y0241034D01*
X0072439Y0240535D02*
X0079611Y0240535D01*
X0079746Y0240037D02*
X0072938Y0240037D01*
X0073436Y0239538D02*
X0079942Y0239538D01*
X0080209Y0239040D02*
X0073935Y0239040D01*
X0074433Y0238541D02*
X0080571Y0238541D01*
X0081073Y0238043D02*
X0074932Y0238043D01*
X0075430Y0237544D02*
X0081818Y0237544D01*
X0081218Y0237046D02*
X0075929Y0237046D01*
X0076427Y0236547D02*
X0080719Y0236547D01*
X0080221Y0236049D02*
X0076926Y0236049D01*
X0077425Y0235550D02*
X0080000Y0235550D01*
X0079794Y0235052D02*
X0077923Y0235052D01*
X0078422Y0234553D02*
X0079588Y0234553D01*
X0079528Y0234055D02*
X0078920Y0234055D01*
X0079419Y0233556D02*
X0079528Y0233556D01*
X0083677Y0241532D02*
X0071442Y0241532D01*
X0084177Y0241532D02*
X0099500Y0241532D01*
X0146000Y0214613D02*
X0146500Y0214613D01*
X0146500Y0214900D02*
X0146500Y0211500D01*
X0152300Y0211500D01*
X0152300Y0211609D01*
X0152160Y0212315D01*
X0151885Y0212979D01*
X0151485Y0213577D01*
X0150977Y0214085D01*
X0150379Y0214485D01*
X0149715Y0214760D01*
X0149009Y0214900D01*
X0146500Y0214900D01*
X0146500Y0214114D02*
X0146000Y0214114D01*
X0146000Y0213616D02*
X0146500Y0213616D01*
X0146500Y0213117D02*
X0146000Y0213117D01*
X0146000Y0212619D02*
X0146500Y0212619D01*
X0146500Y0212120D02*
X0146000Y0212120D01*
X0146000Y0211622D02*
X0146500Y0211622D01*
X0146500Y0211123D02*
X0155500Y0211123D01*
X0155500Y0210625D02*
X0152247Y0210625D01*
X0152300Y0210890D02*
X0152160Y0210185D01*
X0151885Y0209521D01*
X0151485Y0208923D01*
X0150977Y0208415D01*
X0150379Y0208015D01*
X0149715Y0207740D01*
X0149009Y0207600D01*
X0146500Y0207600D01*
X0146500Y0211000D01*
X0152300Y0211000D01*
X0152300Y0210890D01*
X0152298Y0211622D02*
X0155500Y0211622D01*
X0155500Y0212120D02*
X0152198Y0212120D01*
X0152034Y0212619D02*
X0155500Y0212619D01*
X0155500Y0213117D02*
X0151792Y0213117D01*
X0151446Y0213616D02*
X0155500Y0213616D01*
X0155500Y0214114D02*
X0150933Y0214114D01*
X0150069Y0214613D02*
X0155500Y0214613D01*
X0155500Y0210126D02*
X0152135Y0210126D01*
X0151929Y0209628D02*
X0155500Y0209628D01*
X0155500Y0209129D02*
X0151623Y0209129D01*
X0151193Y0208631D02*
X0155500Y0208631D01*
X0155500Y0208132D02*
X0150554Y0208132D01*
X0149179Y0207634D02*
X0155500Y0207634D01*
X0146500Y0207634D02*
X0146000Y0207634D01*
X0146000Y0208132D02*
X0146500Y0208132D01*
X0146500Y0208631D02*
X0146000Y0208631D01*
X0146000Y0209129D02*
X0146500Y0209129D01*
X0146500Y0209628D02*
X0146000Y0209628D01*
X0146000Y0210126D02*
X0146500Y0210126D01*
X0146500Y0210625D02*
X0146000Y0210625D01*
X0150465Y0228073D02*
X0155500Y0228073D01*
X0155500Y0228571D02*
X0151133Y0228571D01*
X0151583Y0229070D02*
X0155500Y0229070D01*
X0155457Y0229568D02*
X0151904Y0229568D01*
X0152111Y0230067D02*
X0154958Y0230067D01*
X0154460Y0230565D02*
X0152235Y0230565D01*
X0176361Y0264464D02*
X0184071Y0264464D01*
X0184071Y0264962D02*
X0177565Y0264962D01*
X0178768Y0265461D02*
X0184071Y0265461D01*
X0184071Y0265960D02*
X0179580Y0265960D01*
X0180079Y0266458D02*
X0184071Y0266458D01*
X0184071Y0266957D02*
X0180577Y0266957D01*
X0181076Y0267455D02*
X0184071Y0267455D01*
X0184071Y0267954D02*
X0181574Y0267954D01*
X0181854Y0268452D02*
X0184071Y0268452D01*
X0184071Y0268951D02*
X0182060Y0268951D01*
X0182267Y0269449D02*
X0184071Y0269449D01*
X0184071Y0269948D02*
X0182473Y0269948D01*
X0182680Y0270446D02*
X0184071Y0270446D01*
X0184071Y0270945D02*
X0182886Y0270945D01*
X0182996Y0271443D02*
X0184071Y0271443D01*
X0184071Y0271942D02*
X0182996Y0271942D01*
X0182996Y0272440D02*
X0184071Y0272440D01*
X0184071Y0272939D02*
X0182996Y0272939D01*
X0182996Y0273437D02*
X0184071Y0273437D01*
X0184071Y0273936D02*
X0182996Y0273936D01*
X0182996Y0274434D02*
X0184071Y0274434D01*
X0184071Y0274933D02*
X0182857Y0274933D01*
X0182651Y0275431D02*
X0184071Y0275431D01*
X0184071Y0275930D02*
X0182444Y0275930D01*
X0182238Y0276428D02*
X0184071Y0276428D01*
X0184071Y0276927D02*
X0182031Y0276927D01*
X0181825Y0277425D02*
X0184071Y0277425D01*
X0184071Y0277924D02*
X0181504Y0277924D01*
X0181005Y0278422D02*
X0184071Y0278422D01*
X0184071Y0278921D02*
X0180507Y0278921D01*
X0180008Y0279419D02*
X0184071Y0279419D01*
X0184071Y0279918D02*
X0179510Y0279918D01*
X0178599Y0280416D02*
X0184071Y0280416D01*
X0184071Y0280915D02*
X0177395Y0280915D01*
X0176192Y0281413D02*
X0184071Y0281413D01*
X0177221Y0186696D02*
X0158171Y0186696D01*
X0157673Y0186198D02*
X0176723Y0186198D01*
X0176224Y0185699D02*
X0157174Y0185699D01*
X0156676Y0185201D02*
X0175726Y0185201D01*
X0175227Y0184702D02*
X0167960Y0184702D01*
X0167762Y0184900D02*
X0166500Y0184900D01*
X0166500Y0181500D01*
X0169900Y0181500D01*
X0169900Y0182762D01*
X0167762Y0184900D01*
X0168458Y0184204D02*
X0174729Y0184204D01*
X0174230Y0183705D02*
X0168957Y0183705D01*
X0169455Y0183207D02*
X0173732Y0183207D01*
X0173233Y0182708D02*
X0169900Y0182708D01*
X0169900Y0182210D02*
X0172735Y0182210D01*
X0172236Y0181711D02*
X0169900Y0181711D01*
X0169900Y0181000D02*
X0166500Y0181000D01*
X0166500Y0181500D01*
X0166000Y0181500D01*
X0166000Y0184900D01*
X0164738Y0184900D01*
X0162600Y0182762D01*
X0162600Y0181500D01*
X0166000Y0181500D01*
X0166000Y0181000D01*
X0166500Y0181000D01*
X0166500Y0177600D01*
X0167762Y0177600D01*
X0169900Y0179738D01*
X0169900Y0181000D01*
X0169900Y0180714D02*
X0171239Y0180714D01*
X0170741Y0180216D02*
X0169900Y0180216D01*
X0169879Y0179717D02*
X0170242Y0179717D01*
X0169744Y0179219D02*
X0169380Y0179219D01*
X0169245Y0178720D02*
X0168882Y0178720D01*
X0168747Y0178222D02*
X0168383Y0178222D01*
X0168248Y0177723D02*
X0167885Y0177723D01*
X0167750Y0177224D02*
X0162750Y0177224D01*
X0163249Y0176726D02*
X0167251Y0176726D01*
X0166753Y0176227D02*
X0163747Y0176227D01*
X0164246Y0175729D02*
X0166254Y0175729D01*
X0165756Y0175230D02*
X0164744Y0175230D01*
X0165243Y0174732D02*
X0165257Y0174732D01*
X0164738Y0177600D02*
X0162600Y0179738D01*
X0162600Y0181000D01*
X0166000Y0181000D01*
X0166000Y0177600D01*
X0164738Y0177600D01*
X0164615Y0177723D02*
X0162252Y0177723D01*
X0161753Y0178222D02*
X0164117Y0178222D01*
X0163618Y0178720D02*
X0161255Y0178720D01*
X0160756Y0179219D02*
X0163120Y0179219D01*
X0162621Y0179717D02*
X0160258Y0179717D01*
X0159900Y0180216D02*
X0162600Y0180216D01*
X0162600Y0180714D02*
X0159900Y0180714D01*
X0159900Y0181213D02*
X0166000Y0181213D01*
X0166000Y0181711D02*
X0166500Y0181711D01*
X0166500Y0181213D02*
X0171738Y0181213D01*
X0166500Y0180714D02*
X0166000Y0180714D01*
X0166000Y0180216D02*
X0166500Y0180216D01*
X0166500Y0179717D02*
X0166000Y0179717D01*
X0166000Y0179219D02*
X0166500Y0179219D01*
X0166500Y0178720D02*
X0166000Y0178720D01*
X0166000Y0178222D02*
X0166500Y0178222D01*
X0166500Y0177723D02*
X0166000Y0177723D01*
X0166000Y0182210D02*
X0166500Y0182210D01*
X0166500Y0182708D02*
X0166000Y0182708D01*
X0166000Y0183207D02*
X0166500Y0183207D01*
X0166500Y0183705D02*
X0166000Y0183705D01*
X0166000Y0184204D02*
X0166500Y0184204D01*
X0166500Y0184702D02*
X0166000Y0184702D01*
X0164540Y0184702D02*
X0157960Y0184702D01*
X0158458Y0184204D02*
X0164042Y0184204D01*
X0163543Y0183705D02*
X0158957Y0183705D01*
X0159455Y0183207D02*
X0163045Y0183207D01*
X0162600Y0182708D02*
X0159900Y0182708D01*
X0159900Y0182210D02*
X0162600Y0182210D01*
X0162600Y0181711D02*
X0159900Y0181711D01*
X0068342Y0090484D02*
X0064491Y0090484D01*
X0064990Y0089985D02*
X0067843Y0089985D01*
X0067345Y0089487D02*
X0065488Y0089487D01*
X0065987Y0088988D02*
X0066918Y0088988D01*
X0066712Y0088489D02*
X0066485Y0088489D01*
X0073500Y0035025D02*
X0073500Y0029162D01*
X0072762Y0029900D01*
X0071500Y0029900D01*
X0071500Y0026500D01*
X0071000Y0026500D01*
X0071000Y0029900D01*
X0069738Y0029900D01*
X0069000Y0029162D01*
X0069000Y0031929D01*
X0069627Y0032189D01*
X0069938Y0032500D01*
X0070975Y0032500D01*
X0072000Y0033525D01*
X0073500Y0035025D01*
X0073500Y0034650D02*
X0073125Y0034650D01*
X0073500Y0034152D02*
X0072627Y0034152D01*
X0072128Y0033653D02*
X0073500Y0033653D01*
X0073500Y0033155D02*
X0071630Y0033155D01*
X0071131Y0032656D02*
X0073500Y0032656D01*
X0073500Y0032158D02*
X0069552Y0032158D01*
X0069000Y0031659D02*
X0073500Y0031659D01*
X0073500Y0031161D02*
X0069000Y0031161D01*
X0069000Y0030662D02*
X0073500Y0030662D01*
X0073500Y0030164D02*
X0069000Y0030164D01*
X0069000Y0029665D02*
X0069503Y0029665D01*
X0069005Y0029167D02*
X0069000Y0029167D01*
X0071000Y0029167D02*
X0071500Y0029167D01*
X0071500Y0029665D02*
X0071000Y0029665D01*
X0071000Y0028668D02*
X0071500Y0028668D01*
X0071500Y0028170D02*
X0071000Y0028170D01*
X0071000Y0027671D02*
X0071500Y0027671D01*
X0071500Y0027173D02*
X0071000Y0027173D01*
X0071000Y0026674D02*
X0071500Y0026674D01*
X0071500Y0026000D02*
X0071500Y0022975D01*
X0070681Y0022156D01*
X0070681Y0022600D01*
X0071000Y0022600D01*
X0071000Y0026000D01*
X0071500Y0026000D01*
X0071500Y0025677D02*
X0071000Y0025677D01*
X0071000Y0025179D02*
X0071500Y0025179D01*
X0071500Y0024680D02*
X0071000Y0024680D01*
X0071000Y0024182D02*
X0071500Y0024182D01*
X0071500Y0023683D02*
X0071000Y0023683D01*
X0071000Y0023184D02*
X0071500Y0023184D01*
X0071211Y0022686D02*
X0071000Y0022686D01*
X0070713Y0022187D02*
X0070681Y0022187D01*
X0073495Y0029167D02*
X0073500Y0029167D01*
X0073500Y0029665D02*
X0072997Y0029665D01*
X0085675Y0011300D02*
X0087235Y0011300D01*
X0089054Y0012054D01*
X0090446Y0013446D01*
X0091200Y0015265D01*
X0091200Y0017235D01*
X0090763Y0018289D01*
X0102975Y0030500D01*
X0158836Y0030500D01*
X0158938Y0030254D01*
X0160175Y0029016D01*
X0161792Y0028346D01*
X0162872Y0028346D01*
X0152525Y0018000D01*
X0149662Y0018000D01*
X0147762Y0019900D01*
X0144738Y0019900D01*
X0142600Y0017762D01*
X0142600Y0014738D01*
X0144738Y0012600D01*
X0147762Y0012600D01*
X0149662Y0014500D01*
X0152025Y0014500D01*
X0148525Y0011000D01*
X0085975Y0011000D01*
X0085675Y0011300D01*
X0085755Y0011220D02*
X0148745Y0011220D01*
X0149244Y0011719D02*
X0088246Y0011719D01*
X0089218Y0012217D02*
X0149742Y0012217D01*
X0150241Y0012716D02*
X0147878Y0012716D01*
X0148376Y0013214D02*
X0150739Y0013214D01*
X0151238Y0013713D02*
X0148875Y0013713D01*
X0149373Y0014211D02*
X0151736Y0014211D01*
X0152725Y0018199D02*
X0149462Y0018199D01*
X0148964Y0018698D02*
X0153223Y0018698D01*
X0153722Y0019196D02*
X0148465Y0019196D01*
X0147967Y0019695D02*
X0154220Y0019695D01*
X0154719Y0020193D02*
X0114632Y0020193D01*
X0114627Y0020189D02*
X0115311Y0020873D01*
X0115681Y0021766D01*
X0115681Y0022600D01*
X0121776Y0022600D01*
X0123118Y0023156D01*
X0124144Y0024182D01*
X0124700Y0025524D01*
X0124700Y0026976D01*
X0124144Y0028318D01*
X0123118Y0029344D01*
X0121776Y0029900D01*
X0115524Y0029900D01*
X0114182Y0029344D01*
X0113156Y0028318D01*
X0112600Y0026976D01*
X0112600Y0025524D01*
X0112949Y0024681D01*
X0112766Y0024681D01*
X0111873Y0024311D01*
X0111562Y0024000D01*
X0105525Y0024000D01*
X0104500Y0022975D01*
X0099594Y0018068D01*
X0097762Y0019900D01*
X0094738Y0019900D01*
X0092600Y0017762D01*
X0092600Y0014738D01*
X0094738Y0012600D01*
X0097762Y0012600D01*
X0099662Y0014500D01*
X0100975Y0014500D01*
X0102975Y0016500D01*
X0106000Y0016500D01*
X0106000Y0019525D01*
X0106975Y0020500D01*
X0111562Y0020500D01*
X0111873Y0020189D01*
X0112766Y0019819D01*
X0113734Y0019819D01*
X0114627Y0020189D01*
X0114738Y0019900D02*
X0112600Y0017762D01*
X0112600Y0014738D01*
X0114738Y0012600D01*
X0117762Y0012600D01*
X0119900Y0014738D01*
X0119900Y0017762D01*
X0117762Y0019900D01*
X0114738Y0019900D01*
X0114533Y0019695D02*
X0107967Y0019695D01*
X0107762Y0019900D02*
X0106500Y0019900D01*
X0106500Y0016500D01*
X0106000Y0016500D01*
X0106000Y0016000D01*
X0106500Y0016000D01*
X0106500Y0016500D01*
X0109900Y0016500D01*
X0109900Y0017762D01*
X0107762Y0019900D01*
X0108465Y0019196D02*
X0114035Y0019196D01*
X0113536Y0018698D02*
X0108964Y0018698D01*
X0109462Y0018199D02*
X0113038Y0018199D01*
X0112600Y0017701D02*
X0109900Y0017701D01*
X0109900Y0017202D02*
X0112600Y0017202D01*
X0112600Y0016704D02*
X0109900Y0016704D01*
X0109900Y0016000D02*
X0106500Y0016000D01*
X0106500Y0012600D01*
X0107762Y0012600D01*
X0109900Y0014738D01*
X0109900Y0016000D01*
X0109900Y0015707D02*
X0112600Y0015707D01*
X0112600Y0016205D02*
X0106500Y0016205D01*
X0106500Y0015707D02*
X0106000Y0015707D01*
X0106000Y0016000D02*
X0106000Y0012600D01*
X0104738Y0012600D01*
X0102600Y0014738D01*
X0102600Y0016000D01*
X0106000Y0016000D01*
X0106000Y0016205D02*
X0102680Y0016205D01*
X0102600Y0015707D02*
X0102182Y0015707D01*
X0102600Y0015208D02*
X0101683Y0015208D01*
X0101185Y0014710D02*
X0102628Y0014710D01*
X0103127Y0014211D02*
X0099373Y0014211D01*
X0098875Y0013713D02*
X0103625Y0013713D01*
X0104124Y0013214D02*
X0098376Y0013214D01*
X0097878Y0012716D02*
X0104622Y0012716D01*
X0106000Y0012716D02*
X0106500Y0012716D01*
X0106500Y0013214D02*
X0106000Y0013214D01*
X0106000Y0013713D02*
X0106500Y0013713D01*
X0106500Y0014211D02*
X0106000Y0014211D01*
X0106000Y0014710D02*
X0106500Y0014710D01*
X0106500Y0015208D02*
X0106000Y0015208D01*
X0106000Y0016704D02*
X0106500Y0016704D01*
X0106500Y0017202D02*
X0106000Y0017202D01*
X0106000Y0017701D02*
X0106500Y0017701D01*
X0106500Y0018199D02*
X0106000Y0018199D01*
X0106000Y0018698D02*
X0106500Y0018698D01*
X0106500Y0019196D02*
X0106000Y0019196D01*
X0106170Y0019695D02*
X0106500Y0019695D01*
X0106668Y0020193D02*
X0111868Y0020193D01*
X0111743Y0024182D02*
X0096656Y0024182D01*
X0097155Y0024680D02*
X0112764Y0024680D01*
X0112743Y0025179D02*
X0097653Y0025179D01*
X0098152Y0025677D02*
X0112600Y0025677D01*
X0112600Y0026176D02*
X0098650Y0026176D01*
X0099149Y0026674D02*
X0112600Y0026674D01*
X0112681Y0027173D02*
X0099647Y0027173D01*
X0100146Y0027671D02*
X0112888Y0027671D01*
X0113094Y0028170D02*
X0100644Y0028170D01*
X0101143Y0028668D02*
X0113506Y0028668D01*
X0114005Y0029167D02*
X0101641Y0029167D01*
X0102140Y0029665D02*
X0114957Y0029665D01*
X0115681Y0022187D02*
X0156713Y0022187D01*
X0156214Y0021689D02*
X0115649Y0021689D01*
X0115443Y0021190D02*
X0155716Y0021190D01*
X0155217Y0020692D02*
X0115130Y0020692D01*
X0117967Y0019695D02*
X0134533Y0019695D01*
X0134738Y0019900D02*
X0132600Y0017762D01*
X0132600Y0014738D01*
X0134738Y0012600D01*
X0137762Y0012600D01*
X0139900Y0014738D01*
X0139900Y0017762D01*
X0137762Y0019900D01*
X0134738Y0019900D01*
X0134035Y0019196D02*
X0118465Y0019196D01*
X0118964Y0018698D02*
X0133536Y0018698D01*
X0133038Y0018199D02*
X0119462Y0018199D01*
X0119900Y0017701D02*
X0132600Y0017701D01*
X0132600Y0017202D02*
X0119900Y0017202D01*
X0119900Y0016704D02*
X0132600Y0016704D01*
X0132600Y0016205D02*
X0119900Y0016205D01*
X0119900Y0015707D02*
X0132600Y0015707D01*
X0132600Y0015208D02*
X0119900Y0015208D01*
X0119872Y0014710D02*
X0132628Y0014710D01*
X0133127Y0014211D02*
X0119373Y0014211D01*
X0118875Y0013713D02*
X0133625Y0013713D01*
X0134124Y0013214D02*
X0118376Y0013214D01*
X0117878Y0012716D02*
X0134622Y0012716D01*
X0137878Y0012716D02*
X0144622Y0012716D01*
X0144124Y0013214D02*
X0138376Y0013214D01*
X0138875Y0013713D02*
X0143625Y0013713D01*
X0143127Y0014211D02*
X0139373Y0014211D01*
X0139872Y0014710D02*
X0142628Y0014710D01*
X0142600Y0015208D02*
X0139900Y0015208D01*
X0139900Y0015707D02*
X0142600Y0015707D01*
X0142600Y0016205D02*
X0139900Y0016205D01*
X0139900Y0016704D02*
X0142600Y0016704D01*
X0142600Y0017202D02*
X0139900Y0017202D01*
X0139900Y0017701D02*
X0142600Y0017701D01*
X0143038Y0018199D02*
X0139462Y0018199D01*
X0138964Y0018698D02*
X0143536Y0018698D01*
X0144035Y0019196D02*
X0138465Y0019196D01*
X0137967Y0019695D02*
X0144533Y0019695D01*
X0157211Y0022686D02*
X0121984Y0022686D01*
X0123146Y0023184D02*
X0157710Y0023184D01*
X0158208Y0023683D02*
X0123645Y0023683D01*
X0124143Y0024182D02*
X0158707Y0024182D01*
X0159205Y0024680D02*
X0124350Y0024680D01*
X0124557Y0025179D02*
X0159704Y0025179D01*
X0160202Y0025677D02*
X0124700Y0025677D01*
X0124700Y0026176D02*
X0160701Y0026176D01*
X0161199Y0026674D02*
X0124700Y0026674D01*
X0124619Y0027173D02*
X0161698Y0027173D01*
X0162196Y0027671D02*
X0124412Y0027671D01*
X0124206Y0028170D02*
X0162695Y0028170D01*
X0161016Y0028668D02*
X0123794Y0028668D01*
X0123295Y0029167D02*
X0160025Y0029167D01*
X0159526Y0029665D02*
X0122343Y0029665D01*
X0112600Y0015208D02*
X0109900Y0015208D01*
X0109872Y0014710D02*
X0112628Y0014710D01*
X0113127Y0014211D02*
X0109373Y0014211D01*
X0108875Y0013713D02*
X0113625Y0013713D01*
X0114124Y0013214D02*
X0108376Y0013214D01*
X0107878Y0012716D02*
X0114622Y0012716D01*
X0104211Y0022686D02*
X0095161Y0022686D01*
X0095659Y0023184D02*
X0104710Y0023184D01*
X0105208Y0023683D02*
X0096158Y0023683D01*
X0094662Y0022187D02*
X0103713Y0022187D01*
X0103214Y0021689D02*
X0094164Y0021689D01*
X0093665Y0021190D02*
X0102716Y0021190D01*
X0102217Y0020692D02*
X0093167Y0020692D01*
X0092668Y0020193D02*
X0101719Y0020193D01*
X0101220Y0019695D02*
X0097967Y0019695D01*
X0098465Y0019196D02*
X0100722Y0019196D01*
X0100223Y0018698D02*
X0098964Y0018698D01*
X0099462Y0018199D02*
X0099725Y0018199D01*
X0094533Y0019695D02*
X0092170Y0019695D01*
X0091671Y0019196D02*
X0094035Y0019196D01*
X0093536Y0018698D02*
X0091173Y0018698D01*
X0090800Y0018199D02*
X0093038Y0018199D01*
X0092600Y0017701D02*
X0091007Y0017701D01*
X0091200Y0017202D02*
X0092600Y0017202D01*
X0092600Y0016704D02*
X0091200Y0016704D01*
X0091200Y0016205D02*
X0092600Y0016205D01*
X0092600Y0015707D02*
X0091200Y0015707D01*
X0091176Y0015208D02*
X0092600Y0015208D01*
X0092628Y0014710D02*
X0090970Y0014710D01*
X0090763Y0014211D02*
X0093127Y0014211D01*
X0093625Y0013713D02*
X0090557Y0013713D01*
X0090215Y0013214D02*
X0094124Y0013214D01*
X0094622Y0012716D02*
X0089716Y0012716D01*
X0102639Y0030164D02*
X0159028Y0030164D01*
M02*
