G75*
%MOIN*%
%OFA0B0*%
%FSLAX25Y25*%
%IPPOS*%
%LPD*%
%AMOC8*
5,1,8,0,0,1.08239X$1,22.5*
%
%ADD10OC8,0.04800*%
%ADD11C,0.04800*%
%ADD12C,0.07600*%
%ADD13C,0.07400*%
%ADD14C,0.06299*%
%ADD15C,0.06000*%
%ADD16R,0.04724X0.04724*%
%ADD17C,0.04724*%
%ADD18OC8,0.12598*%
%ADD19C,0.01000*%
%ADD20C,0.02362*%
D10*
X0086500Y0106500D03*
X0086500Y0116500D03*
X0121500Y0046500D03*
X0121500Y0036500D03*
X0211500Y0046500D03*
X0231500Y0046500D03*
X0231500Y0071500D03*
X0231500Y0081500D03*
X0156500Y0191500D03*
X0156500Y0201500D03*
X0156500Y0211500D03*
X0156500Y0221500D03*
X0171500Y0211500D03*
X0171500Y0201500D03*
X0136500Y0201500D03*
X0136500Y0211500D03*
X0136500Y0221500D03*
X0136500Y0191500D03*
D11*
X0186500Y0189100D02*
X0186500Y0193900D01*
X0196500Y0193900D02*
X0196500Y0189100D01*
X0206500Y0189100D02*
X0206500Y0193900D01*
X0216500Y0193900D02*
X0216500Y0189100D01*
X0226500Y0189100D02*
X0226500Y0193900D01*
X0236500Y0193900D02*
X0236500Y0189100D01*
X0246500Y0189100D02*
X0246500Y0193900D01*
X0246500Y0219100D02*
X0246500Y0223900D01*
X0236500Y0223900D02*
X0236500Y0219100D01*
X0226500Y0219100D02*
X0226500Y0223900D01*
X0216500Y0223900D02*
X0216500Y0219100D01*
X0206500Y0219100D02*
X0206500Y0223900D01*
X0196500Y0223900D02*
X0196500Y0219100D01*
X0186500Y0219100D02*
X0186500Y0223900D01*
X0246500Y0096300D02*
X0246500Y0091500D01*
X0256500Y0091500D02*
X0256500Y0096300D01*
X0266500Y0096300D02*
X0266500Y0091500D01*
X0276500Y0091500D02*
X0276500Y0096300D01*
X0276500Y0061500D02*
X0276500Y0056700D01*
X0266500Y0056700D02*
X0266500Y0061500D01*
X0256500Y0061500D02*
X0256500Y0056700D01*
X0246500Y0056700D02*
X0246500Y0061500D01*
X0216500Y0059100D02*
X0216500Y0063900D01*
X0206500Y0063900D02*
X0206500Y0059100D01*
X0196500Y0059100D02*
X0196500Y0063900D01*
X0186500Y0063900D02*
X0186500Y0059100D01*
X0176500Y0059100D02*
X0176500Y0063900D01*
X0166500Y0063900D02*
X0166500Y0059100D01*
X0156500Y0059100D02*
X0156500Y0063900D01*
X0146500Y0063900D02*
X0146500Y0059100D01*
X0136500Y0059100D02*
X0136500Y0063900D01*
X0126500Y0063900D02*
X0126500Y0059100D01*
X0116500Y0059100D02*
X0116500Y0063900D01*
X0106500Y0063900D02*
X0106500Y0059100D01*
X0096500Y0059100D02*
X0096500Y0063900D01*
X0086500Y0063900D02*
X0086500Y0059100D01*
X0086500Y0089100D02*
X0086500Y0093900D01*
X0096500Y0093900D02*
X0096500Y0089100D01*
X0106500Y0089100D02*
X0106500Y0093900D01*
X0116500Y0093900D02*
X0116500Y0089100D01*
X0126500Y0089100D02*
X0126500Y0093900D01*
X0136500Y0093900D02*
X0136500Y0089100D01*
X0146500Y0089100D02*
X0146500Y0093900D01*
X0156500Y0093900D02*
X0156500Y0089100D01*
X0166500Y0089100D02*
X0166500Y0093900D01*
X0176500Y0093900D02*
X0176500Y0089100D01*
X0186500Y0089100D02*
X0186500Y0093900D01*
X0196500Y0093900D02*
X0196500Y0089100D01*
X0206500Y0089100D02*
X0206500Y0093900D01*
X0216500Y0093900D02*
X0216500Y0089100D01*
D12*
X0211500Y0111500D03*
X0201500Y0111500D03*
X0191500Y0111500D03*
X0181500Y0111500D03*
X0171500Y0111500D03*
X0161500Y0111500D03*
X0151500Y0111500D03*
X0141500Y0111500D03*
X0131500Y0111500D03*
X0121500Y0111500D03*
X0111500Y0111500D03*
X0111500Y0171500D03*
X0121500Y0171500D03*
X0131500Y0171500D03*
X0141500Y0171500D03*
X0151500Y0171500D03*
X0161500Y0171500D03*
X0171500Y0171500D03*
X0181500Y0171500D03*
X0191500Y0171500D03*
X0201500Y0171500D03*
X0211500Y0171500D03*
X0221500Y0171500D03*
X0231500Y0171500D03*
X0241500Y0171500D03*
X0251500Y0171500D03*
X0261500Y0171500D03*
X0271500Y0171500D03*
X0271500Y0111500D03*
X0261500Y0111500D03*
X0251500Y0111500D03*
X0241500Y0111500D03*
X0231500Y0111500D03*
X0221500Y0111500D03*
D13*
X0211500Y0031500D03*
X0241500Y0031500D03*
D14*
X0261500Y0037563D03*
X0261500Y0045437D03*
X0101500Y0045437D03*
X0101500Y0037563D03*
X0101500Y0229689D03*
X0101500Y0237563D03*
X0101500Y0245437D03*
X0101500Y0253311D03*
X0134689Y0236500D03*
X0142563Y0236500D03*
X0150437Y0236500D03*
X0158311Y0236500D03*
X0177563Y0236500D03*
X0185437Y0236500D03*
X0261500Y0233626D03*
X0261500Y0241500D03*
X0261500Y0249374D03*
D15*
X0268500Y0201500D02*
X0274500Y0201500D01*
X0274500Y0191500D02*
X0268500Y0191500D01*
D16*
X0056618Y0128232D03*
D17*
X0056618Y0138232D03*
X0056618Y0148232D03*
X0056618Y0158232D03*
X0044807Y0153232D03*
X0044807Y0143232D03*
X0044807Y0133232D03*
X0032996Y0128232D03*
X0032996Y0138232D03*
X0032996Y0148232D03*
X0032996Y0158232D03*
X0021185Y0153232D03*
X0021185Y0143232D03*
X0021185Y0133232D03*
D18*
X0021185Y0111854D03*
X0044807Y0111854D03*
X0044807Y0174610D03*
X0021185Y0174610D03*
D19*
X0003968Y0282496D02*
X0003968Y0003968D01*
X0282496Y0003968D01*
X0282496Y0111668D01*
X0282328Y0111500D01*
X0270328Y0099500D01*
X0268815Y0099500D01*
X0269806Y0098509D01*
X0270400Y0097076D01*
X0270400Y0090724D01*
X0269806Y0089291D01*
X0268709Y0088194D01*
X0267276Y0087600D01*
X0265724Y0087600D01*
X0264291Y0088194D01*
X0263194Y0089291D01*
X0262600Y0090724D01*
X0262600Y0097076D01*
X0263194Y0098509D01*
X0264185Y0099500D01*
X0258815Y0099500D01*
X0259806Y0098509D01*
X0260400Y0097076D01*
X0260400Y0090724D01*
X0259806Y0089291D01*
X0258709Y0088194D01*
X0257276Y0087600D01*
X0255724Y0087600D01*
X0254291Y0088194D01*
X0253194Y0089291D01*
X0252600Y0090724D01*
X0252600Y0097076D01*
X0253194Y0098509D01*
X0254185Y0099500D01*
X0248815Y0099500D01*
X0249806Y0098509D01*
X0250400Y0097076D01*
X0250400Y0090724D01*
X0249806Y0089291D01*
X0248709Y0088194D01*
X0247276Y0087600D01*
X0245724Y0087600D01*
X0244291Y0088194D01*
X0243194Y0089291D01*
X0242600Y0090724D01*
X0242600Y0097076D01*
X0243194Y0098509D01*
X0244185Y0099500D01*
X0179328Y0099500D01*
X0177525Y0097697D01*
X0178709Y0097206D01*
X0179806Y0096109D01*
X0180400Y0094676D01*
X0180400Y0088324D01*
X0179806Y0086891D01*
X0178709Y0085794D01*
X0177276Y0085200D01*
X0175724Y0085200D01*
X0174291Y0085794D01*
X0173194Y0086891D01*
X0172600Y0088324D01*
X0172600Y0092772D01*
X0170400Y0090572D01*
X0170400Y0088324D01*
X0169806Y0086891D01*
X0168709Y0085794D01*
X0167276Y0085200D01*
X0165724Y0085200D01*
X0164291Y0085794D01*
X0163194Y0086891D01*
X0162600Y0088324D01*
X0162600Y0094676D01*
X0163194Y0096109D01*
X0164291Y0097206D01*
X0165724Y0097800D01*
X0167276Y0097800D01*
X0168709Y0097206D01*
X0169806Y0096109D01*
X0169945Y0095774D01*
X0175672Y0101500D01*
X0141328Y0101500D01*
X0137525Y0097697D01*
X0138709Y0097206D01*
X0139806Y0096109D01*
X0140400Y0094676D01*
X0140400Y0088324D01*
X0139806Y0086891D01*
X0138709Y0085794D01*
X0137276Y0085200D01*
X0135724Y0085200D01*
X0134291Y0085794D01*
X0133194Y0086891D01*
X0132600Y0088324D01*
X0132600Y0092772D01*
X0130400Y0090572D01*
X0130400Y0088324D01*
X0129806Y0086891D01*
X0128709Y0085794D01*
X0127276Y0085200D01*
X0125724Y0085200D01*
X0124291Y0085794D01*
X0123194Y0086891D01*
X0122600Y0088324D01*
X0122600Y0094676D01*
X0123194Y0096109D01*
X0124291Y0097206D01*
X0125724Y0097800D01*
X0127276Y0097800D01*
X0128709Y0097206D01*
X0129806Y0096109D01*
X0129945Y0095774D01*
X0137672Y0103500D01*
X0111328Y0103500D01*
X0117028Y0097800D01*
X0117276Y0097800D01*
X0118709Y0097206D01*
X0119806Y0096109D01*
X0120400Y0094676D01*
X0120400Y0088324D01*
X0119806Y0086891D01*
X0118709Y0085794D01*
X0117276Y0085200D01*
X0115724Y0085200D01*
X0114291Y0085794D01*
X0113194Y0086891D01*
X0112600Y0088324D01*
X0112600Y0094676D01*
X0113155Y0096016D01*
X0103500Y0105672D01*
X0103500Y0098328D01*
X0104500Y0097328D01*
X0104500Y0097293D01*
X0105724Y0097800D01*
X0107276Y0097800D01*
X0108709Y0097206D01*
X0109806Y0096109D01*
X0110400Y0094676D01*
X0110400Y0088324D01*
X0109806Y0086891D01*
X0108709Y0085794D01*
X0107276Y0085200D01*
X0105724Y0085200D01*
X0104500Y0085707D01*
X0104500Y0067293D01*
X0105724Y0067800D01*
X0107276Y0067800D01*
X0108709Y0067206D01*
X0109806Y0066109D01*
X0110400Y0064676D01*
X0110400Y0058324D01*
X0109806Y0056891D01*
X0109415Y0056500D01*
X0113585Y0056500D01*
X0113194Y0056891D01*
X0112600Y0058324D01*
X0112600Y0064676D01*
X0113194Y0066109D01*
X0114291Y0067206D01*
X0115724Y0067800D01*
X0117276Y0067800D01*
X0118709Y0067206D01*
X0119806Y0066109D01*
X0120400Y0064676D01*
X0120400Y0058324D01*
X0120332Y0058161D01*
X0122600Y0060428D01*
X0122600Y0064676D01*
X0123194Y0066109D01*
X0124291Y0067206D01*
X0125724Y0067800D01*
X0127276Y0067800D01*
X0128709Y0067206D01*
X0129806Y0066109D01*
X0130400Y0064676D01*
X0130400Y0058324D01*
X0130332Y0058161D01*
X0132600Y0060428D01*
X0132600Y0064676D01*
X0133194Y0066109D01*
X0134291Y0067206D01*
X0135724Y0067800D01*
X0137276Y0067800D01*
X0138709Y0067206D01*
X0139806Y0066109D01*
X0140400Y0064676D01*
X0140400Y0058324D01*
X0139806Y0056891D01*
X0138709Y0055794D01*
X0137276Y0055200D01*
X0135724Y0055200D01*
X0134291Y0055794D01*
X0133956Y0056128D01*
X0128328Y0050500D01*
X0114328Y0050500D01*
X0117600Y0047228D01*
X0117600Y0048115D01*
X0119885Y0050400D01*
X0121200Y0050400D01*
X0121200Y0046800D01*
X0121800Y0046800D01*
X0121800Y0050400D01*
X0123115Y0050400D01*
X0125400Y0048115D01*
X0125400Y0046800D01*
X0121800Y0046800D01*
X0121800Y0046200D01*
X0125400Y0046200D01*
X0125400Y0044885D01*
X0125015Y0044500D01*
X0166672Y0044500D01*
X0177439Y0055268D01*
X0177276Y0055200D01*
X0175724Y0055200D01*
X0174291Y0055794D01*
X0173194Y0056891D01*
X0172600Y0058324D01*
X0172600Y0064676D01*
X0173194Y0066109D01*
X0174291Y0067206D01*
X0175724Y0067800D01*
X0177276Y0067800D01*
X0178709Y0067206D01*
X0179806Y0066109D01*
X0180400Y0064676D01*
X0180400Y0058324D01*
X0180332Y0058161D01*
X0182600Y0060428D01*
X0182600Y0064676D01*
X0183194Y0066109D01*
X0184291Y0067206D01*
X0185724Y0067800D01*
X0187276Y0067800D01*
X0188709Y0067206D01*
X0189806Y0066109D01*
X0190400Y0064676D01*
X0190400Y0058324D01*
X0189806Y0056891D01*
X0188709Y0055794D01*
X0187276Y0055200D01*
X0185724Y0055200D01*
X0184291Y0055794D01*
X0183956Y0056128D01*
X0168328Y0040500D01*
X0118672Y0040500D01*
X0117500Y0041672D01*
X0110672Y0048500D01*
X0105013Y0048500D01*
X0105047Y0048466D01*
X0105477Y0047874D01*
X0105809Y0047222D01*
X0106035Y0046526D01*
X0106150Y0045803D01*
X0106150Y0045626D01*
X0101689Y0045626D01*
X0101689Y0045248D01*
X0106150Y0045248D01*
X0106150Y0045071D01*
X0106035Y0044348D01*
X0105809Y0043652D01*
X0105477Y0043000D01*
X0105047Y0042408D01*
X0104529Y0041890D01*
X0104047Y0041541D01*
X0104134Y0041505D01*
X0105442Y0040197D01*
X0106150Y0038488D01*
X0106150Y0036638D01*
X0105442Y0034929D01*
X0104134Y0033621D01*
X0102425Y0032913D01*
X0100575Y0032913D01*
X0098866Y0033621D01*
X0097558Y0034929D01*
X0096850Y0036638D01*
X0096850Y0038488D01*
X0097558Y0040197D01*
X0098866Y0041505D01*
X0098953Y0041541D01*
X0098471Y0041890D01*
X0097953Y0042408D01*
X0097523Y0043000D01*
X0097191Y0043652D01*
X0096965Y0044348D01*
X0096850Y0045071D01*
X0096850Y0045248D01*
X0101311Y0045248D01*
X0101311Y0045626D01*
X0096850Y0045626D01*
X0096850Y0045803D01*
X0096965Y0046526D01*
X0097191Y0047222D01*
X0097523Y0047874D01*
X0097953Y0048466D01*
X0097987Y0048500D01*
X0052672Y0048500D01*
X0051500Y0049672D01*
X0010500Y0090672D01*
X0010500Y0141328D01*
X0011672Y0142500D01*
X0018672Y0149500D01*
X0020103Y0149500D01*
X0018997Y0149958D01*
X0017911Y0151045D01*
X0017323Y0152464D01*
X0017323Y0154001D01*
X0017911Y0155420D01*
X0018997Y0156506D01*
X0020417Y0157094D01*
X0021953Y0157094D01*
X0023373Y0156506D01*
X0024459Y0155420D01*
X0025047Y0154001D01*
X0025047Y0152876D01*
X0029281Y0157109D01*
X0029134Y0157464D01*
X0029134Y0159001D01*
X0029722Y0160420D01*
X0030808Y0161506D01*
X0032228Y0162094D01*
X0033764Y0162094D01*
X0035184Y0161506D01*
X0036270Y0160420D01*
X0036858Y0159001D01*
X0036858Y0157464D01*
X0036270Y0156045D01*
X0035184Y0154958D01*
X0033764Y0154370D01*
X0032228Y0154370D01*
X0032207Y0154379D01*
X0024500Y0146672D01*
X0023854Y0146025D01*
X0024459Y0145420D01*
X0025047Y0144001D01*
X0025047Y0142464D01*
X0024459Y0141045D01*
X0023373Y0139958D01*
X0021953Y0139370D01*
X0020417Y0139370D01*
X0018997Y0139958D01*
X0017911Y0141045D01*
X0017323Y0142464D01*
X0017323Y0142494D01*
X0014500Y0139672D01*
X0014500Y0116199D01*
X0017955Y0119654D01*
X0020685Y0119654D01*
X0020685Y0112354D01*
X0021685Y0112354D01*
X0021685Y0119654D01*
X0022518Y0119654D01*
X0019500Y0122672D01*
X0019500Y0129750D01*
X0018997Y0129958D01*
X0017911Y0131045D01*
X0017323Y0132464D01*
X0017323Y0134001D01*
X0017911Y0135420D01*
X0018997Y0136506D01*
X0020417Y0137094D01*
X0021953Y0137094D01*
X0023373Y0136506D01*
X0024459Y0135420D01*
X0025047Y0134001D01*
X0025047Y0132464D01*
X0024459Y0131045D01*
X0023500Y0130085D01*
X0023500Y0124328D01*
X0030328Y0117500D01*
X0031500Y0116328D01*
X0031500Y0094126D01*
X0034046Y0094126D01*
X0031500Y0096672D01*
X0031500Y0124672D01*
X0030808Y0124958D01*
X0029722Y0126045D01*
X0029134Y0127464D01*
X0029134Y0129001D01*
X0029722Y0130420D01*
X0030808Y0131506D01*
X0032228Y0132094D01*
X0033764Y0132094D01*
X0035184Y0131506D01*
X0035500Y0131190D01*
X0035500Y0132328D01*
X0036672Y0133500D01*
X0036672Y0133500D01*
X0042500Y0139328D01*
X0042500Y0140077D01*
X0041533Y0141045D01*
X0040945Y0142464D01*
X0040945Y0144001D01*
X0041533Y0145420D01*
X0042619Y0146506D01*
X0044039Y0147094D01*
X0045575Y0147094D01*
X0046995Y0146506D01*
X0048081Y0145420D01*
X0048669Y0144001D01*
X0048669Y0142464D01*
X0048081Y0141045D01*
X0046995Y0139958D01*
X0046500Y0139753D01*
X0046500Y0137672D01*
X0045801Y0136972D01*
X0045934Y0136946D01*
X0046637Y0136655D01*
X0047269Y0136232D01*
X0047807Y0135694D01*
X0048230Y0135062D01*
X0048521Y0134359D01*
X0048669Y0133613D01*
X0048669Y0133520D01*
X0045095Y0133520D01*
X0045095Y0132945D01*
X0048669Y0132945D01*
X0048669Y0132852D01*
X0048521Y0132106D01*
X0048230Y0131403D01*
X0047807Y0130770D01*
X0047269Y0130232D01*
X0046637Y0129810D01*
X0045934Y0129519D01*
X0045187Y0129370D01*
X0045094Y0129370D01*
X0045094Y0132945D01*
X0044520Y0132945D01*
X0044520Y0129370D01*
X0044427Y0129370D01*
X0043681Y0129519D01*
X0042978Y0129810D01*
X0042345Y0130232D01*
X0041807Y0130770D01*
X0041384Y0131403D01*
X0041093Y0132106D01*
X0041067Y0132238D01*
X0039500Y0130672D01*
X0039500Y0117577D01*
X0041577Y0119654D01*
X0044307Y0119654D01*
X0044307Y0112354D01*
X0045307Y0112354D01*
X0052606Y0112354D01*
X0052606Y0115085D01*
X0048038Y0119654D01*
X0045307Y0119654D01*
X0045307Y0112354D01*
X0045307Y0111354D01*
X0045307Y0104055D01*
X0048038Y0104055D01*
X0052606Y0108624D01*
X0052606Y0111354D01*
X0045307Y0111354D01*
X0044307Y0111354D01*
X0044307Y0104055D01*
X0043773Y0104055D01*
X0050328Y0097500D01*
X0058328Y0097500D01*
X0087328Y0068500D01*
X0088500Y0067328D01*
X0088500Y0067293D01*
X0088709Y0067206D01*
X0089806Y0066109D01*
X0090400Y0064676D01*
X0090400Y0058324D01*
X0089806Y0056891D01*
X0089415Y0056500D01*
X0093585Y0056500D01*
X0093194Y0056891D01*
X0092600Y0058324D01*
X0092600Y0062572D01*
X0090500Y0064672D01*
X0090500Y0115672D01*
X0090400Y0115772D01*
X0090400Y0114885D01*
X0088115Y0112600D01*
X0086800Y0112600D01*
X0086800Y0116200D01*
X0086200Y0116200D01*
X0086200Y0112600D01*
X0084885Y0112600D01*
X0082600Y0114885D01*
X0082600Y0116200D01*
X0086200Y0116200D01*
X0086200Y0116800D01*
X0082600Y0116800D01*
X0082600Y0118115D01*
X0084885Y0120400D01*
X0085772Y0120400D01*
X0060672Y0145500D01*
X0059348Y0145500D01*
X0058806Y0144958D01*
X0057386Y0144370D01*
X0055850Y0144370D01*
X0054430Y0144958D01*
X0053344Y0146045D01*
X0052756Y0147464D01*
X0052756Y0149001D01*
X0053344Y0150420D01*
X0054430Y0151506D01*
X0055850Y0152094D01*
X0057077Y0152094D01*
X0055500Y0153672D01*
X0055500Y0154515D01*
X0054430Y0154958D01*
X0053344Y0156045D01*
X0052756Y0157464D01*
X0052756Y0157927D01*
X0048669Y0153841D01*
X0048669Y0152464D01*
X0048081Y0151045D01*
X0046995Y0149958D01*
X0045575Y0149370D01*
X0044039Y0149370D01*
X0042619Y0149958D01*
X0041533Y0151045D01*
X0040945Y0152464D01*
X0040945Y0154001D01*
X0041533Y0155420D01*
X0042619Y0156506D01*
X0044039Y0157094D01*
X0045575Y0157094D01*
X0046064Y0156892D01*
X0052500Y0163328D01*
X0053672Y0164500D01*
X0059328Y0164500D01*
X0101500Y0122328D01*
X0101500Y0164328D01*
X0106615Y0169444D01*
X0106200Y0170446D01*
X0106200Y0172554D01*
X0107007Y0174502D01*
X0108498Y0175993D01*
X0110446Y0176800D01*
X0112554Y0176800D01*
X0114502Y0175993D01*
X0115993Y0174502D01*
X0116500Y0173278D01*
X0117007Y0174502D01*
X0118498Y0175993D01*
X0120446Y0176800D01*
X0122554Y0176800D01*
X0124502Y0175993D01*
X0125993Y0174502D01*
X0126500Y0173278D01*
X0127007Y0174502D01*
X0128498Y0175993D01*
X0130446Y0176800D01*
X0132554Y0176800D01*
X0134502Y0175993D01*
X0135993Y0174502D01*
X0136503Y0173272D01*
X0136588Y0173534D01*
X0136967Y0174278D01*
X0137457Y0174953D01*
X0138047Y0175543D01*
X0138722Y0176033D01*
X0139466Y0176412D01*
X0140259Y0176669D01*
X0141000Y0176787D01*
X0141000Y0172000D01*
X0142000Y0172000D01*
X0142000Y0176787D01*
X0142741Y0176669D01*
X0143534Y0176412D01*
X0144278Y0176033D01*
X0144953Y0175543D01*
X0145543Y0174953D01*
X0146033Y0174278D01*
X0146412Y0173534D01*
X0146497Y0173272D01*
X0147007Y0174502D01*
X0148498Y0175993D01*
X0149500Y0176408D01*
X0149500Y0205672D01*
X0137572Y0217600D01*
X0134885Y0217600D01*
X0132985Y0219500D01*
X0123672Y0219500D01*
X0106126Y0237046D01*
X0106035Y0236474D01*
X0105809Y0235778D01*
X0105477Y0235126D01*
X0105047Y0234534D01*
X0104529Y0234016D01*
X0104047Y0233667D01*
X0104134Y0233631D01*
X0105442Y0232323D01*
X0106150Y0230614D01*
X0106150Y0228764D01*
X0105442Y0227055D01*
X0104134Y0225747D01*
X0102425Y0225039D01*
X0100575Y0225039D01*
X0098866Y0225747D01*
X0097558Y0227055D01*
X0096850Y0228764D01*
X0096850Y0230614D01*
X0097558Y0232323D01*
X0098866Y0233631D01*
X0098953Y0233667D01*
X0098471Y0234016D01*
X0097953Y0234534D01*
X0097523Y0235126D01*
X0097191Y0235778D01*
X0096965Y0236474D01*
X0096850Y0237197D01*
X0096850Y0237374D01*
X0101311Y0237374D01*
X0101311Y0237752D01*
X0096850Y0237752D01*
X0096850Y0237929D01*
X0096965Y0238652D01*
X0097191Y0239348D01*
X0097523Y0240000D01*
X0097953Y0240592D01*
X0098471Y0241109D01*
X0098953Y0241459D01*
X0098866Y0241495D01*
X0097558Y0242803D01*
X0096850Y0244512D01*
X0096850Y0246362D01*
X0097558Y0248071D01*
X0098861Y0249374D01*
X0097558Y0250677D01*
X0096850Y0252386D01*
X0096850Y0254236D01*
X0097558Y0255945D01*
X0098866Y0257253D01*
X0100575Y0257961D01*
X0102425Y0257961D01*
X0104134Y0257253D01*
X0105442Y0255945D01*
X0106150Y0254236D01*
X0106150Y0252386D01*
X0105442Y0250677D01*
X0104139Y0249374D01*
X0105442Y0248071D01*
X0106150Y0246362D01*
X0106150Y0244512D01*
X0105613Y0243216D01*
X0125328Y0223500D01*
X0132985Y0223500D01*
X0134885Y0225400D01*
X0138115Y0225400D01*
X0140400Y0223115D01*
X0140400Y0220428D01*
X0153500Y0207328D01*
X0153500Y0204015D01*
X0154885Y0205400D01*
X0158115Y0205400D01*
X0160400Y0203115D01*
X0160400Y0199885D01*
X0158115Y0197600D01*
X0154885Y0197600D01*
X0153500Y0198985D01*
X0153500Y0194015D01*
X0154885Y0195400D01*
X0158115Y0195400D01*
X0160400Y0193115D01*
X0160400Y0189885D01*
X0158115Y0187600D01*
X0154885Y0187600D01*
X0153500Y0188985D01*
X0153500Y0176408D01*
X0154502Y0175993D01*
X0155993Y0174502D01*
X0156500Y0173278D01*
X0157007Y0174502D01*
X0158498Y0175993D01*
X0160446Y0176800D01*
X0162554Y0176800D01*
X0163556Y0176385D01*
X0169500Y0182328D01*
X0169500Y0197985D01*
X0167600Y0199885D01*
X0167600Y0203115D01*
X0169328Y0204843D01*
X0164672Y0209500D01*
X0160015Y0209500D01*
X0158115Y0207600D01*
X0154885Y0207600D01*
X0152600Y0209885D01*
X0152600Y0213115D01*
X0154328Y0214843D01*
X0136821Y0232350D01*
X0135614Y0231850D01*
X0133764Y0231850D01*
X0132055Y0232558D01*
X0130747Y0233866D01*
X0130039Y0235575D01*
X0130039Y0237425D01*
X0130747Y0239134D01*
X0132055Y0240442D01*
X0133764Y0241150D01*
X0135614Y0241150D01*
X0137323Y0240442D01*
X0138626Y0239139D01*
X0139929Y0240442D01*
X0141638Y0241150D01*
X0143488Y0241150D01*
X0145197Y0240442D01*
X0146500Y0239139D01*
X0147803Y0240442D01*
X0149512Y0241150D01*
X0151362Y0241150D01*
X0153071Y0240442D01*
X0154374Y0239139D01*
X0155677Y0240442D01*
X0157386Y0241150D01*
X0159236Y0241150D01*
X0160945Y0240442D01*
X0162253Y0239134D01*
X0162515Y0238500D01*
X0169672Y0238500D01*
X0173500Y0242328D01*
X0174672Y0243500D01*
X0225328Y0243500D01*
X0243055Y0225774D01*
X0243194Y0226109D01*
X0244291Y0227206D01*
X0245724Y0227800D01*
X0247276Y0227800D01*
X0248709Y0227206D01*
X0249806Y0226109D01*
X0250400Y0224676D01*
X0250400Y0218324D01*
X0249806Y0216891D01*
X0248709Y0215794D01*
X0247525Y0215303D01*
X0264328Y0198500D01*
X0265136Y0198500D01*
X0264685Y0198951D01*
X0264000Y0200605D01*
X0264000Y0202395D01*
X0264685Y0204049D01*
X0265951Y0205315D01*
X0267605Y0206000D01*
X0275395Y0206000D01*
X0277049Y0205315D01*
X0278315Y0204049D01*
X0279000Y0202395D01*
X0279000Y0200605D01*
X0278773Y0200056D01*
X0282496Y0196332D01*
X0282496Y0282496D01*
X0003968Y0282496D01*
X0003968Y0282082D02*
X0282496Y0282082D01*
X0282496Y0281083D02*
X0276921Y0281083D01*
X0278120Y0280586D02*
X0274898Y0281921D01*
X0271410Y0281921D01*
X0268187Y0280586D01*
X0265721Y0278120D01*
X0264386Y0274898D01*
X0264386Y0271410D01*
X0265721Y0268187D01*
X0268187Y0265721D01*
X0271410Y0264386D01*
X0274898Y0264386D01*
X0278120Y0265721D01*
X0280586Y0268187D01*
X0281921Y0271410D01*
X0281921Y0274898D01*
X0280586Y0278120D01*
X0278120Y0280586D01*
X0278622Y0280085D02*
X0282496Y0280085D01*
X0282496Y0279086D02*
X0279620Y0279086D01*
X0280600Y0278088D02*
X0282496Y0278088D01*
X0282496Y0277089D02*
X0281013Y0277089D01*
X0281427Y0276091D02*
X0282496Y0276091D01*
X0282496Y0275092D02*
X0281841Y0275092D01*
X0281921Y0274094D02*
X0282496Y0274094D01*
X0282496Y0273095D02*
X0281921Y0273095D01*
X0281921Y0272097D02*
X0282496Y0272097D01*
X0282496Y0271098D02*
X0281792Y0271098D01*
X0281379Y0270100D02*
X0282496Y0270100D01*
X0282496Y0269101D02*
X0280965Y0269101D01*
X0280502Y0268103D02*
X0282496Y0268103D01*
X0282496Y0267104D02*
X0279503Y0267104D01*
X0278505Y0266105D02*
X0282496Y0266105D01*
X0282496Y0265107D02*
X0276639Y0265107D01*
X0282496Y0264108D02*
X0003968Y0264108D01*
X0003968Y0263110D02*
X0282496Y0263110D01*
X0282496Y0262111D02*
X0003968Y0262111D01*
X0003968Y0261113D02*
X0282496Y0261113D01*
X0282496Y0260114D02*
X0003968Y0260114D01*
X0003968Y0259116D02*
X0282496Y0259116D01*
X0282496Y0258117D02*
X0003968Y0258117D01*
X0003968Y0257119D02*
X0098732Y0257119D01*
X0097734Y0256120D02*
X0003968Y0256120D01*
X0003968Y0255122D02*
X0097217Y0255122D01*
X0096850Y0254123D02*
X0003968Y0254123D01*
X0003968Y0253125D02*
X0096850Y0253125D01*
X0096958Y0252126D02*
X0003968Y0252126D01*
X0003968Y0251128D02*
X0097372Y0251128D01*
X0098106Y0250129D02*
X0003968Y0250129D01*
X0003968Y0249131D02*
X0098618Y0249131D01*
X0097620Y0248132D02*
X0003968Y0248132D01*
X0003968Y0247134D02*
X0097170Y0247134D01*
X0096850Y0246135D02*
X0003968Y0246135D01*
X0003968Y0245137D02*
X0096850Y0245137D01*
X0097005Y0244138D02*
X0003968Y0244138D01*
X0003968Y0243140D02*
X0097419Y0243140D01*
X0098220Y0242141D02*
X0003968Y0242141D01*
X0003968Y0241143D02*
X0098517Y0241143D01*
X0097628Y0240144D02*
X0003968Y0240144D01*
X0003968Y0239146D02*
X0097125Y0239146D01*
X0096885Y0238147D02*
X0003968Y0238147D01*
X0003968Y0237149D02*
X0096858Y0237149D01*
X0097070Y0236150D02*
X0003968Y0236150D01*
X0003968Y0235152D02*
X0097510Y0235152D01*
X0098334Y0234153D02*
X0003968Y0234153D01*
X0003968Y0233155D02*
X0098390Y0233155D01*
X0097489Y0232156D02*
X0003968Y0232156D01*
X0003968Y0231158D02*
X0097076Y0231158D01*
X0096850Y0230159D02*
X0003968Y0230159D01*
X0003968Y0229161D02*
X0096850Y0229161D01*
X0097100Y0228162D02*
X0003968Y0228162D01*
X0003968Y0227164D02*
X0097513Y0227164D01*
X0098448Y0226165D02*
X0003968Y0226165D01*
X0003968Y0225167D02*
X0100268Y0225167D01*
X0102732Y0225167D02*
X0118005Y0225167D01*
X0117007Y0226165D02*
X0104552Y0226165D01*
X0105487Y0227164D02*
X0116008Y0227164D01*
X0115009Y0228162D02*
X0105900Y0228162D01*
X0106150Y0229161D02*
X0114011Y0229161D01*
X0113012Y0230159D02*
X0106150Y0230159D01*
X0105924Y0231158D02*
X0112014Y0231158D01*
X0111015Y0232156D02*
X0105511Y0232156D01*
X0104610Y0233155D02*
X0110017Y0233155D01*
X0109018Y0234153D02*
X0104666Y0234153D01*
X0105490Y0235152D02*
X0108020Y0235152D01*
X0107021Y0236150D02*
X0105930Y0236150D01*
X0101500Y0237500D02*
X0101500Y0237563D01*
X0101500Y0237500D02*
X0132500Y0206500D01*
X0132500Y0180500D01*
X0141500Y0171500D01*
X0142000Y0171000D02*
X0142000Y0166213D01*
X0142741Y0166330D01*
X0143534Y0166588D01*
X0144278Y0166967D01*
X0144953Y0167457D01*
X0145543Y0168047D01*
X0146033Y0168722D01*
X0146412Y0169466D01*
X0146497Y0169728D01*
X0147007Y0168498D01*
X0148498Y0167007D01*
X0150446Y0166200D01*
X0152554Y0166200D01*
X0154502Y0167007D01*
X0155993Y0168498D01*
X0156500Y0169722D01*
X0157007Y0168498D01*
X0158498Y0167007D01*
X0160446Y0166200D01*
X0162554Y0166200D01*
X0164502Y0167007D01*
X0165993Y0168498D01*
X0166500Y0169722D01*
X0167007Y0168498D01*
X0168498Y0167007D01*
X0170446Y0166200D01*
X0172554Y0166200D01*
X0174502Y0167007D01*
X0175993Y0168498D01*
X0176500Y0169722D01*
X0177007Y0168498D01*
X0178498Y0167007D01*
X0180446Y0166200D01*
X0182554Y0166200D01*
X0184502Y0167007D01*
X0185993Y0168498D01*
X0186500Y0169722D01*
X0187007Y0168498D01*
X0188498Y0167007D01*
X0190446Y0166200D01*
X0192554Y0166200D01*
X0194502Y0167007D01*
X0195993Y0168498D01*
X0196500Y0169722D01*
X0197007Y0168498D01*
X0198498Y0167007D01*
X0200446Y0166200D01*
X0202554Y0166200D01*
X0204502Y0167007D01*
X0205993Y0168498D01*
X0206500Y0169722D01*
X0207007Y0168498D01*
X0208498Y0167007D01*
X0210446Y0166200D01*
X0212554Y0166200D01*
X0214502Y0167007D01*
X0215993Y0168498D01*
X0216500Y0169722D01*
X0217007Y0168498D01*
X0218498Y0167007D01*
X0220446Y0166200D01*
X0222554Y0166200D01*
X0224502Y0167007D01*
X0225993Y0168498D01*
X0226500Y0169722D01*
X0227007Y0168498D01*
X0228498Y0167007D01*
X0230446Y0166200D01*
X0232554Y0166200D01*
X0234502Y0167007D01*
X0235993Y0168498D01*
X0236500Y0169722D01*
X0237007Y0168498D01*
X0238498Y0167007D01*
X0240446Y0166200D01*
X0242554Y0166200D01*
X0244502Y0167007D01*
X0245993Y0168498D01*
X0246500Y0169722D01*
X0247007Y0168498D01*
X0248498Y0167007D01*
X0250446Y0166200D01*
X0252554Y0166200D01*
X0254502Y0167007D01*
X0255993Y0168498D01*
X0256500Y0169722D01*
X0257007Y0168498D01*
X0258498Y0167007D01*
X0260446Y0166200D01*
X0262554Y0166200D01*
X0264502Y0167007D01*
X0265993Y0168498D01*
X0266500Y0169722D01*
X0267007Y0168498D01*
X0268498Y0167007D01*
X0270446Y0166200D01*
X0271372Y0166200D01*
X0224672Y0119500D01*
X0216672Y0119500D01*
X0213556Y0116385D01*
X0212554Y0116800D01*
X0210446Y0116800D01*
X0208498Y0115993D01*
X0207007Y0114502D01*
X0206500Y0113278D01*
X0205993Y0114502D01*
X0204502Y0115993D01*
X0202554Y0116800D01*
X0200446Y0116800D01*
X0198498Y0115993D01*
X0197007Y0114502D01*
X0196500Y0113278D01*
X0195993Y0114502D01*
X0194502Y0115993D01*
X0192554Y0116800D01*
X0190446Y0116800D01*
X0188498Y0115993D01*
X0187007Y0114502D01*
X0186500Y0113278D01*
X0185993Y0114502D01*
X0184502Y0115993D01*
X0182554Y0116800D01*
X0180446Y0116800D01*
X0178498Y0115993D01*
X0177007Y0114502D01*
X0176500Y0113278D01*
X0175993Y0114502D01*
X0174502Y0115993D01*
X0172554Y0116800D01*
X0170446Y0116800D01*
X0168498Y0115993D01*
X0167007Y0114502D01*
X0166500Y0113278D01*
X0165993Y0114502D01*
X0164502Y0115993D01*
X0162554Y0116800D01*
X0160446Y0116800D01*
X0158498Y0115993D01*
X0157007Y0114502D01*
X0156500Y0113278D01*
X0155993Y0114502D01*
X0154502Y0115993D01*
X0152554Y0116800D01*
X0150446Y0116800D01*
X0148498Y0115993D01*
X0147007Y0114502D01*
X0146500Y0113278D01*
X0145993Y0114502D01*
X0144502Y0115993D01*
X0142554Y0116800D01*
X0140446Y0116800D01*
X0138498Y0115993D01*
X0137007Y0114502D01*
X0136500Y0113278D01*
X0135993Y0114502D01*
X0134502Y0115993D01*
X0132554Y0116800D01*
X0130446Y0116800D01*
X0128498Y0115993D01*
X0127007Y0114502D01*
X0126500Y0113278D01*
X0125993Y0114502D01*
X0124502Y0115993D01*
X0122554Y0116800D01*
X0120446Y0116800D01*
X0118498Y0115993D01*
X0117007Y0114502D01*
X0116500Y0113278D01*
X0115993Y0114502D01*
X0114502Y0115993D01*
X0112554Y0116800D01*
X0110446Y0116800D01*
X0108500Y0115994D01*
X0108500Y0148708D01*
X0108773Y0148981D01*
X0109181Y0149967D01*
X0109181Y0151033D01*
X0108773Y0152019D01*
X0108019Y0152773D01*
X0107033Y0153181D01*
X0105967Y0153181D01*
X0105500Y0152988D01*
X0105500Y0162672D01*
X0109444Y0166615D01*
X0110446Y0166200D01*
X0112554Y0166200D01*
X0114502Y0167007D01*
X0115993Y0168498D01*
X0116500Y0169722D01*
X0117007Y0168498D01*
X0118498Y0167007D01*
X0120446Y0166200D01*
X0122554Y0166200D01*
X0124502Y0167007D01*
X0125993Y0168498D01*
X0126500Y0169722D01*
X0127007Y0168498D01*
X0128498Y0167007D01*
X0130446Y0166200D01*
X0132554Y0166200D01*
X0134502Y0167007D01*
X0135993Y0168498D01*
X0136503Y0169728D01*
X0136588Y0169466D01*
X0136967Y0168722D01*
X0137457Y0168047D01*
X0138047Y0167457D01*
X0138722Y0166967D01*
X0139466Y0166588D01*
X0140259Y0166330D01*
X0141000Y0166213D01*
X0141000Y0171000D01*
X0142000Y0171000D01*
X0142000Y0170248D02*
X0141000Y0170248D01*
X0141000Y0169250D02*
X0142000Y0169250D01*
X0142000Y0168251D02*
X0141000Y0168251D01*
X0141000Y0167253D02*
X0142000Y0167253D01*
X0142000Y0166254D02*
X0141000Y0166254D01*
X0140740Y0166254D02*
X0132685Y0166254D01*
X0134748Y0167253D02*
X0138329Y0167253D01*
X0137309Y0168251D02*
X0135747Y0168251D01*
X0136305Y0169250D02*
X0136698Y0169250D01*
X0136949Y0174242D02*
X0136101Y0174242D01*
X0135254Y0175241D02*
X0137746Y0175241D01*
X0139128Y0176239D02*
X0133907Y0176239D01*
X0129093Y0176239D02*
X0123907Y0176239D01*
X0125254Y0175241D02*
X0127746Y0175241D01*
X0126899Y0174242D02*
X0126101Y0174242D01*
X0126305Y0169250D02*
X0126695Y0169250D01*
X0127253Y0168251D02*
X0125747Y0168251D01*
X0124748Y0167253D02*
X0128252Y0167253D01*
X0130314Y0166254D02*
X0122685Y0166254D01*
X0120314Y0166254D02*
X0112685Y0166254D01*
X0114748Y0167253D02*
X0118252Y0167253D01*
X0117253Y0168251D02*
X0115747Y0168251D01*
X0116305Y0169250D02*
X0116695Y0169250D01*
X0116899Y0174242D02*
X0116101Y0174242D01*
X0115254Y0175241D02*
X0117746Y0175241D01*
X0119093Y0176239D02*
X0113907Y0176239D01*
X0109093Y0176239D02*
X0052606Y0176239D01*
X0052606Y0175241D02*
X0107746Y0175241D01*
X0106899Y0174242D02*
X0045307Y0174242D01*
X0045307Y0174110D02*
X0045307Y0175110D01*
X0052606Y0175110D01*
X0052606Y0177841D01*
X0048038Y0182409D01*
X0045307Y0182409D01*
X0045307Y0175110D01*
X0044307Y0175110D01*
X0044307Y0174110D01*
X0045307Y0174110D01*
X0045307Y0166811D01*
X0048038Y0166811D01*
X0052606Y0171380D01*
X0052606Y0174110D01*
X0045307Y0174110D01*
X0045307Y0173244D02*
X0044307Y0173244D01*
X0044307Y0174110D02*
X0044307Y0166811D01*
X0041577Y0166811D01*
X0037008Y0171380D01*
X0037008Y0174110D01*
X0044307Y0174110D01*
X0044307Y0174242D02*
X0021685Y0174242D01*
X0021685Y0174110D02*
X0021685Y0175110D01*
X0028984Y0175110D01*
X0028984Y0177841D01*
X0024416Y0182409D01*
X0021685Y0182409D01*
X0021685Y0175110D01*
X0020685Y0175110D01*
X0020685Y0174110D01*
X0021685Y0174110D01*
X0021685Y0166811D01*
X0024416Y0166811D01*
X0028984Y0171380D01*
X0028984Y0174110D01*
X0021685Y0174110D01*
X0021685Y0173244D02*
X0020685Y0173244D01*
X0020685Y0174110D02*
X0020685Y0166811D01*
X0017955Y0166811D01*
X0013386Y0171380D01*
X0013386Y0174110D01*
X0020685Y0174110D01*
X0020685Y0174242D02*
X0003968Y0174242D01*
X0003968Y0173244D02*
X0013386Y0173244D01*
X0013386Y0172245D02*
X0003968Y0172245D01*
X0003968Y0171247D02*
X0013519Y0171247D01*
X0014517Y0170248D02*
X0003968Y0170248D01*
X0003968Y0169250D02*
X0015516Y0169250D01*
X0016514Y0168251D02*
X0003968Y0168251D01*
X0003968Y0167253D02*
X0017513Y0167253D01*
X0020685Y0167253D02*
X0021685Y0167253D01*
X0021685Y0168251D02*
X0020685Y0168251D01*
X0020685Y0169250D02*
X0021685Y0169250D01*
X0021685Y0170248D02*
X0020685Y0170248D01*
X0020685Y0171247D02*
X0021685Y0171247D01*
X0021685Y0172245D02*
X0020685Y0172245D01*
X0020685Y0175110D02*
X0013386Y0175110D01*
X0013386Y0177841D01*
X0017955Y0182409D01*
X0020685Y0182409D01*
X0020685Y0175110D01*
X0020685Y0175241D02*
X0021685Y0175241D01*
X0021685Y0176239D02*
X0020685Y0176239D01*
X0020685Y0177238D02*
X0021685Y0177238D01*
X0021685Y0178237D02*
X0020685Y0178237D01*
X0020685Y0179235D02*
X0021685Y0179235D01*
X0021685Y0180234D02*
X0020685Y0180234D01*
X0020685Y0181232D02*
X0021685Y0181232D01*
X0021685Y0182231D02*
X0020685Y0182231D01*
X0017776Y0182231D02*
X0003968Y0182231D01*
X0003968Y0183229D02*
X0149500Y0183229D01*
X0149500Y0182231D02*
X0048216Y0182231D01*
X0049215Y0181232D02*
X0149500Y0181232D01*
X0149500Y0180234D02*
X0050214Y0180234D01*
X0051212Y0179235D02*
X0149500Y0179235D01*
X0149500Y0178237D02*
X0052211Y0178237D01*
X0052606Y0177238D02*
X0149500Y0177238D01*
X0149093Y0176239D02*
X0143872Y0176239D01*
X0145254Y0175241D02*
X0147746Y0175241D01*
X0146899Y0174242D02*
X0146051Y0174242D01*
X0142000Y0174242D02*
X0141000Y0174242D01*
X0141000Y0173244D02*
X0142000Y0173244D01*
X0142000Y0172245D02*
X0141000Y0172245D01*
X0141000Y0175241D02*
X0142000Y0175241D01*
X0142000Y0176239D02*
X0141000Y0176239D01*
X0146302Y0169250D02*
X0146695Y0169250D01*
X0147253Y0168251D02*
X0145691Y0168251D01*
X0144671Y0167253D02*
X0148252Y0167253D01*
X0150314Y0166254D02*
X0142260Y0166254D01*
X0151500Y0171500D02*
X0151500Y0206500D01*
X0136500Y0221500D01*
X0124500Y0221500D01*
X0101500Y0244500D01*
X0101500Y0245437D01*
X0105830Y0247134D02*
X0257395Y0247134D01*
X0257558Y0246740D02*
X0258866Y0245432D01*
X0258953Y0245396D01*
X0258471Y0245047D01*
X0257953Y0244529D01*
X0257523Y0243937D01*
X0257191Y0243285D01*
X0256965Y0242589D01*
X0256850Y0241866D01*
X0256850Y0241689D01*
X0261311Y0241689D01*
X0261311Y0241311D01*
X0256850Y0241311D01*
X0256850Y0241134D01*
X0256965Y0240411D01*
X0257191Y0239715D01*
X0257523Y0239063D01*
X0257953Y0238471D01*
X0258471Y0237953D01*
X0258953Y0237604D01*
X0258866Y0237568D01*
X0257558Y0236260D01*
X0256850Y0234551D01*
X0256850Y0232701D01*
X0257558Y0230992D01*
X0258866Y0229684D01*
X0260575Y0228976D01*
X0262425Y0228976D01*
X0264134Y0229684D01*
X0265442Y0230992D01*
X0266150Y0232701D01*
X0266150Y0234551D01*
X0265442Y0236260D01*
X0264134Y0237568D01*
X0264047Y0237604D01*
X0264529Y0237953D01*
X0265047Y0238471D01*
X0265477Y0239063D01*
X0265809Y0239715D01*
X0266035Y0240411D01*
X0266150Y0241134D01*
X0266150Y0241311D01*
X0261689Y0241311D01*
X0261689Y0241689D01*
X0266150Y0241689D01*
X0266150Y0241866D01*
X0266035Y0242589D01*
X0265809Y0243285D01*
X0265477Y0243937D01*
X0265047Y0244529D01*
X0264529Y0245047D01*
X0264047Y0245396D01*
X0264134Y0245432D01*
X0265442Y0246740D01*
X0266150Y0248449D01*
X0266150Y0250299D01*
X0265442Y0252008D01*
X0264134Y0253316D01*
X0262425Y0254024D01*
X0260575Y0254024D01*
X0258866Y0253316D01*
X0257558Y0252008D01*
X0256850Y0250299D01*
X0256850Y0248449D01*
X0257558Y0246740D01*
X0258163Y0246135D02*
X0106150Y0246135D01*
X0106150Y0245137D02*
X0258595Y0245137D01*
X0257670Y0244138D02*
X0105995Y0244138D01*
X0105689Y0243140D02*
X0174311Y0243140D01*
X0173313Y0242141D02*
X0106687Y0242141D01*
X0107686Y0241143D02*
X0133748Y0241143D01*
X0135630Y0241143D02*
X0141622Y0241143D01*
X0143504Y0241143D02*
X0149496Y0241143D01*
X0151378Y0241143D02*
X0157370Y0241143D01*
X0159252Y0241143D02*
X0172314Y0241143D01*
X0171316Y0240144D02*
X0161242Y0240144D01*
X0162241Y0239146D02*
X0170317Y0239146D01*
X0170500Y0236500D02*
X0175500Y0241500D01*
X0224500Y0241500D01*
X0242500Y0223500D01*
X0242500Y0217500D01*
X0263500Y0196500D01*
X0276500Y0196500D01*
X0279500Y0193500D01*
X0279500Y0129500D01*
X0261500Y0111500D01*
X0263500Y0103500D02*
X0271500Y0111500D01*
X0277172Y0106344D02*
X0282496Y0106344D01*
X0282496Y0107342D02*
X0278171Y0107342D01*
X0279169Y0108341D02*
X0282496Y0108341D01*
X0282496Y0109339D02*
X0280168Y0109339D01*
X0281166Y0110338D02*
X0282496Y0110338D01*
X0282496Y0111336D02*
X0282165Y0111336D01*
X0281500Y0113500D02*
X0281500Y0194500D01*
X0274500Y0201500D01*
X0271500Y0201500D01*
X0277168Y0205196D02*
X0282496Y0205196D01*
X0282496Y0204198D02*
X0278166Y0204198D01*
X0278667Y0203199D02*
X0282496Y0203199D01*
X0282496Y0202201D02*
X0279000Y0202201D01*
X0279000Y0201202D02*
X0282496Y0201202D01*
X0282496Y0200204D02*
X0278834Y0200204D01*
X0279623Y0199205D02*
X0282496Y0199205D01*
X0282496Y0198207D02*
X0280622Y0198207D01*
X0281620Y0197208D02*
X0282496Y0197208D01*
X0282496Y0206195D02*
X0256634Y0206195D01*
X0257632Y0205196D02*
X0265832Y0205196D01*
X0264834Y0204198D02*
X0258631Y0204198D01*
X0259629Y0203199D02*
X0264333Y0203199D01*
X0264000Y0202201D02*
X0260628Y0202201D01*
X0261626Y0201202D02*
X0264000Y0201202D01*
X0264166Y0200204D02*
X0262625Y0200204D01*
X0263623Y0199205D02*
X0264580Y0199205D01*
X0260962Y0196210D02*
X0260619Y0196210D01*
X0259963Y0197208D02*
X0259620Y0197208D01*
X0258965Y0198207D02*
X0258622Y0198207D01*
X0257966Y0199205D02*
X0257623Y0199205D01*
X0256968Y0200204D02*
X0256625Y0200204D01*
X0255969Y0201202D02*
X0255626Y0201202D01*
X0254971Y0202201D02*
X0254628Y0202201D01*
X0253972Y0203199D02*
X0253629Y0203199D01*
X0252974Y0204198D02*
X0252631Y0204198D01*
X0251975Y0205196D02*
X0251632Y0205196D01*
X0250977Y0206195D02*
X0250634Y0206195D01*
X0249978Y0207193D02*
X0249635Y0207193D01*
X0248980Y0208192D02*
X0248637Y0208192D01*
X0247981Y0209190D02*
X0247638Y0209190D01*
X0246983Y0210189D02*
X0246640Y0210189D01*
X0245984Y0211187D02*
X0245641Y0211187D01*
X0244986Y0212186D02*
X0244643Y0212186D01*
X0243987Y0213184D02*
X0243644Y0213184D01*
X0242989Y0214183D02*
X0242645Y0214183D01*
X0241990Y0215181D02*
X0241647Y0215181D01*
X0241500Y0215328D02*
X0240328Y0216500D01*
X0239415Y0216500D01*
X0239529Y0216614D01*
X0239956Y0217253D01*
X0240250Y0217962D01*
X0240400Y0218716D01*
X0240400Y0221200D01*
X0236800Y0221200D01*
X0236800Y0221800D01*
X0240400Y0221800D01*
X0240400Y0222772D01*
X0240500Y0222672D01*
X0240500Y0216672D01*
X0262672Y0194500D01*
X0265136Y0194500D01*
X0264685Y0194049D01*
X0264458Y0193500D01*
X0263328Y0193500D01*
X0241500Y0215328D01*
X0240992Y0216180D02*
X0240648Y0216180D01*
X0240500Y0217178D02*
X0239907Y0217178D01*
X0240293Y0218177D02*
X0240500Y0218177D01*
X0240500Y0219175D02*
X0240400Y0219175D01*
X0240400Y0220174D02*
X0240500Y0220174D01*
X0240500Y0221172D02*
X0240400Y0221172D01*
X0240400Y0222171D02*
X0240500Y0222171D01*
X0236200Y0221800D02*
X0236200Y0221200D01*
X0232600Y0221200D01*
X0232600Y0218716D01*
X0232750Y0217962D01*
X0233044Y0217253D01*
X0233471Y0216614D01*
X0233585Y0216500D01*
X0229415Y0216500D01*
X0229806Y0216891D01*
X0230400Y0218324D01*
X0230400Y0224676D01*
X0229806Y0226109D01*
X0228709Y0227206D01*
X0227276Y0227800D01*
X0225724Y0227800D01*
X0224291Y0227206D01*
X0223194Y0226109D01*
X0222600Y0224676D01*
X0222600Y0218324D01*
X0223194Y0216891D01*
X0223585Y0216500D01*
X0219415Y0216500D01*
X0219529Y0216614D01*
X0219956Y0217253D01*
X0220250Y0217962D01*
X0220400Y0218716D01*
X0220400Y0221200D01*
X0216800Y0221200D01*
X0216800Y0221800D01*
X0216200Y0221800D01*
X0216200Y0227800D01*
X0216116Y0227800D01*
X0215362Y0227650D01*
X0214653Y0227356D01*
X0214014Y0226929D01*
X0213471Y0226386D01*
X0213044Y0225747D01*
X0212750Y0225038D01*
X0212600Y0224284D01*
X0212600Y0221800D01*
X0216200Y0221800D01*
X0216200Y0221200D01*
X0212600Y0221200D01*
X0212600Y0218716D01*
X0212750Y0217962D01*
X0213044Y0217253D01*
X0213471Y0216614D01*
X0213585Y0216500D01*
X0209415Y0216500D01*
X0209806Y0216891D01*
X0210400Y0218324D01*
X0210400Y0224676D01*
X0209806Y0226109D01*
X0208709Y0227206D01*
X0207276Y0227800D01*
X0205724Y0227800D01*
X0204291Y0227206D01*
X0203194Y0226109D01*
X0202600Y0224676D01*
X0202600Y0218324D01*
X0203194Y0216891D01*
X0203585Y0216500D01*
X0199415Y0216500D01*
X0199529Y0216614D01*
X0199956Y0217253D01*
X0200250Y0217962D01*
X0200400Y0218716D01*
X0200400Y0221200D01*
X0196800Y0221200D01*
X0196800Y0221800D01*
X0196200Y0221800D01*
X0196200Y0227800D01*
X0196116Y0227800D01*
X0195362Y0227650D01*
X0194653Y0227356D01*
X0194014Y0226929D01*
X0193471Y0226386D01*
X0193044Y0225747D01*
X0192750Y0225038D01*
X0192600Y0224284D01*
X0192600Y0221800D01*
X0196200Y0221800D01*
X0196200Y0221200D01*
X0192600Y0221200D01*
X0192600Y0218716D01*
X0192721Y0218107D01*
X0190400Y0220428D01*
X0190400Y0224676D01*
X0189806Y0226109D01*
X0188709Y0227206D01*
X0188500Y0227293D01*
X0188500Y0229328D01*
X0185954Y0231874D01*
X0186526Y0231965D01*
X0187222Y0232191D01*
X0187874Y0232523D01*
X0188466Y0232953D01*
X0188984Y0233471D01*
X0189414Y0234063D01*
X0189746Y0234715D01*
X0189972Y0235411D01*
X0190087Y0236134D01*
X0190087Y0236311D01*
X0185626Y0236311D01*
X0185626Y0236689D01*
X0190087Y0236689D01*
X0190087Y0236866D01*
X0189972Y0237589D01*
X0189746Y0238285D01*
X0189414Y0238937D01*
X0189005Y0239500D01*
X0223672Y0239500D01*
X0235495Y0227677D01*
X0235362Y0227650D01*
X0234653Y0227356D01*
X0234014Y0226929D01*
X0233471Y0226386D01*
X0233044Y0225747D01*
X0232750Y0225038D01*
X0232600Y0224284D01*
X0232600Y0221800D01*
X0236200Y0221800D01*
X0233323Y0226165D02*
X0229750Y0226165D01*
X0230197Y0225167D02*
X0232803Y0225167D01*
X0232600Y0224168D02*
X0230400Y0224168D01*
X0230400Y0223170D02*
X0232600Y0223170D01*
X0232600Y0222171D02*
X0230400Y0222171D01*
X0230400Y0221172D02*
X0232600Y0221172D01*
X0232600Y0220174D02*
X0230400Y0220174D01*
X0230400Y0219175D02*
X0232600Y0219175D01*
X0232707Y0218177D02*
X0230339Y0218177D01*
X0229925Y0217178D02*
X0233093Y0217178D01*
X0239500Y0214500D02*
X0193500Y0214500D01*
X0186500Y0221500D01*
X0186500Y0228500D01*
X0178500Y0236500D01*
X0177563Y0236500D01*
X0170500Y0236500D02*
X0158311Y0236500D01*
X0155380Y0240144D02*
X0153368Y0240144D01*
X0154367Y0239146D02*
X0154381Y0239146D01*
X0147506Y0240144D02*
X0145494Y0240144D01*
X0146493Y0239146D02*
X0146507Y0239146D01*
X0139632Y0240144D02*
X0137620Y0240144D01*
X0138619Y0239146D02*
X0138633Y0239146D01*
X0135500Y0236500D02*
X0134689Y0236500D01*
X0135500Y0236500D02*
X0156500Y0215500D01*
X0184500Y0215500D01*
X0201500Y0198500D01*
X0252500Y0198500D01*
X0277500Y0173500D01*
X0277500Y0169500D01*
X0225500Y0117500D01*
X0217500Y0117500D01*
X0211500Y0111500D01*
X0207835Y0115330D02*
X0205165Y0115330D01*
X0206064Y0114332D02*
X0206936Y0114332D01*
X0206523Y0113333D02*
X0206477Y0113333D01*
X0203692Y0116329D02*
X0209308Y0116329D01*
X0214499Y0117327D02*
X0108500Y0117327D01*
X0108500Y0116329D02*
X0109308Y0116329D01*
X0108500Y0118326D02*
X0215497Y0118326D01*
X0216496Y0119324D02*
X0108500Y0119324D01*
X0108500Y0120323D02*
X0225494Y0120323D01*
X0226493Y0121321D02*
X0108500Y0121321D01*
X0108500Y0122320D02*
X0227491Y0122320D01*
X0228490Y0123318D02*
X0108500Y0123318D01*
X0108500Y0124317D02*
X0229488Y0124317D01*
X0230487Y0125315D02*
X0108500Y0125315D01*
X0108500Y0126314D02*
X0231486Y0126314D01*
X0232484Y0127312D02*
X0108500Y0127312D01*
X0108500Y0128311D02*
X0233483Y0128311D01*
X0234481Y0129309D02*
X0108500Y0129309D01*
X0108500Y0130308D02*
X0235480Y0130308D01*
X0236478Y0131306D02*
X0108500Y0131306D01*
X0108500Y0132305D02*
X0237477Y0132305D01*
X0238475Y0133303D02*
X0108500Y0133303D01*
X0108500Y0134302D02*
X0239474Y0134302D01*
X0240472Y0135301D02*
X0108500Y0135301D01*
X0108500Y0136299D02*
X0241471Y0136299D01*
X0242469Y0137298D02*
X0108500Y0137298D01*
X0108500Y0138296D02*
X0243468Y0138296D01*
X0244466Y0139295D02*
X0108500Y0139295D01*
X0108500Y0140293D02*
X0245465Y0140293D01*
X0246463Y0141292D02*
X0108500Y0141292D01*
X0108500Y0142290D02*
X0247462Y0142290D01*
X0248460Y0143289D02*
X0108500Y0143289D01*
X0108500Y0144287D02*
X0249459Y0144287D01*
X0250457Y0145286D02*
X0108500Y0145286D01*
X0108500Y0146284D02*
X0251456Y0146284D01*
X0252454Y0147283D02*
X0108500Y0147283D01*
X0108500Y0148281D02*
X0253453Y0148281D01*
X0254451Y0149280D02*
X0108897Y0149280D01*
X0109181Y0150278D02*
X0255450Y0150278D01*
X0256448Y0151277D02*
X0109080Y0151277D01*
X0108516Y0152275D02*
X0257447Y0152275D01*
X0258445Y0153274D02*
X0105500Y0153274D01*
X0105500Y0154272D02*
X0259444Y0154272D01*
X0260442Y0155271D02*
X0105500Y0155271D01*
X0105500Y0156269D02*
X0261441Y0156269D01*
X0262439Y0157268D02*
X0105500Y0157268D01*
X0105500Y0158266D02*
X0263438Y0158266D01*
X0264436Y0159265D02*
X0105500Y0159265D01*
X0105500Y0160263D02*
X0265435Y0160263D01*
X0266433Y0161262D02*
X0105500Y0161262D01*
X0105500Y0162260D02*
X0267432Y0162260D01*
X0268430Y0163259D02*
X0106087Y0163259D01*
X0107086Y0164257D02*
X0269429Y0164257D01*
X0270427Y0165256D02*
X0108084Y0165256D01*
X0109083Y0166254D02*
X0110314Y0166254D01*
X0111500Y0171500D02*
X0103500Y0163500D01*
X0103500Y0108500D01*
X0116500Y0095500D01*
X0116500Y0091500D01*
X0120400Y0091366D02*
X0122600Y0091366D01*
X0122600Y0090368D02*
X0120400Y0090368D01*
X0120400Y0089369D02*
X0122600Y0089369D01*
X0122600Y0088370D02*
X0120400Y0088370D01*
X0120006Y0087372D02*
X0122994Y0087372D01*
X0123711Y0086373D02*
X0119289Y0086373D01*
X0117698Y0085375D02*
X0125302Y0085375D01*
X0127698Y0085375D02*
X0135302Y0085375D01*
X0133711Y0086373D02*
X0129289Y0086373D01*
X0130006Y0087372D02*
X0132994Y0087372D01*
X0132600Y0088370D02*
X0130400Y0088370D01*
X0130400Y0089369D02*
X0132600Y0089369D01*
X0132600Y0090368D02*
X0130400Y0090368D01*
X0131194Y0091366D02*
X0132600Y0091366D01*
X0132600Y0092365D02*
X0132193Y0092365D01*
X0128500Y0091500D02*
X0140500Y0103500D01*
X0263500Y0103500D01*
X0264039Y0099354D02*
X0258961Y0099354D01*
X0259870Y0098356D02*
X0263130Y0098356D01*
X0262717Y0097357D02*
X0260283Y0097357D01*
X0260400Y0096359D02*
X0262600Y0096359D01*
X0262600Y0095360D02*
X0260400Y0095360D01*
X0260400Y0094362D02*
X0262600Y0094362D01*
X0262600Y0093363D02*
X0260400Y0093363D01*
X0260400Y0092365D02*
X0262600Y0092365D01*
X0262600Y0091366D02*
X0260400Y0091366D01*
X0260252Y0090368D02*
X0262748Y0090368D01*
X0263161Y0089369D02*
X0259839Y0089369D01*
X0258886Y0088370D02*
X0264114Y0088370D01*
X0268886Y0088370D02*
X0274114Y0088370D01*
X0274291Y0088194D02*
X0275724Y0087600D01*
X0277276Y0087600D01*
X0278709Y0088194D01*
X0279806Y0089291D01*
X0280400Y0090724D01*
X0280400Y0097076D01*
X0279806Y0098509D01*
X0278709Y0099606D01*
X0277276Y0100200D01*
X0275724Y0100200D01*
X0274291Y0099606D01*
X0273194Y0098509D01*
X0272600Y0097076D01*
X0272600Y0090724D01*
X0273194Y0089291D01*
X0274291Y0088194D01*
X0273161Y0089369D02*
X0269839Y0089369D01*
X0270252Y0090368D02*
X0272748Y0090368D01*
X0272600Y0091366D02*
X0270400Y0091366D01*
X0270400Y0092365D02*
X0272600Y0092365D01*
X0272600Y0093363D02*
X0270400Y0093363D01*
X0270400Y0094362D02*
X0272600Y0094362D01*
X0272600Y0095360D02*
X0270400Y0095360D01*
X0270400Y0096359D02*
X0272600Y0096359D01*
X0272717Y0097357D02*
X0270283Y0097357D01*
X0269870Y0098356D02*
X0273130Y0098356D01*
X0274039Y0099354D02*
X0268961Y0099354D01*
X0269500Y0101500D02*
X0281500Y0113500D01*
X0282496Y0105345D02*
X0276174Y0105345D01*
X0275175Y0104347D02*
X0282496Y0104347D01*
X0282496Y0103348D02*
X0274177Y0103348D01*
X0273178Y0102350D02*
X0282496Y0102350D01*
X0282496Y0101351D02*
X0272180Y0101351D01*
X0271181Y0100353D02*
X0282496Y0100353D01*
X0282496Y0099354D02*
X0278961Y0099354D01*
X0279870Y0098356D02*
X0282496Y0098356D01*
X0282496Y0097357D02*
X0280283Y0097357D01*
X0280400Y0096359D02*
X0282496Y0096359D01*
X0282496Y0095360D02*
X0280400Y0095360D01*
X0280400Y0094362D02*
X0282496Y0094362D01*
X0282496Y0093363D02*
X0280400Y0093363D01*
X0280400Y0092365D02*
X0282496Y0092365D01*
X0282496Y0091366D02*
X0280400Y0091366D01*
X0280252Y0090368D02*
X0282496Y0090368D01*
X0282496Y0089369D02*
X0279839Y0089369D01*
X0278886Y0088370D02*
X0282496Y0088370D01*
X0282496Y0087372D02*
X0220006Y0087372D01*
X0219806Y0086891D02*
X0220400Y0088324D01*
X0220400Y0094676D01*
X0219806Y0096109D01*
X0218709Y0097206D01*
X0217276Y0097800D01*
X0215724Y0097800D01*
X0214291Y0097206D01*
X0213194Y0096109D01*
X0212600Y0094676D01*
X0212600Y0088324D01*
X0213194Y0086891D01*
X0214291Y0085794D01*
X0215724Y0085200D01*
X0217276Y0085200D01*
X0218709Y0085794D01*
X0219806Y0086891D01*
X0219289Y0086373D02*
X0282496Y0086373D01*
X0282496Y0085375D02*
X0233140Y0085375D01*
X0233115Y0085400D02*
X0231800Y0085400D01*
X0231800Y0081800D01*
X0231200Y0081800D01*
X0231200Y0085400D01*
X0229885Y0085400D01*
X0227600Y0083115D01*
X0227600Y0081800D01*
X0231200Y0081800D01*
X0231200Y0081200D01*
X0227600Y0081200D01*
X0227600Y0079885D01*
X0229885Y0077600D01*
X0231200Y0077600D01*
X0231200Y0081200D01*
X0231800Y0081200D01*
X0231800Y0081800D01*
X0235400Y0081800D01*
X0235400Y0083115D01*
X0233115Y0085400D01*
X0231800Y0085375D02*
X0231200Y0085375D01*
X0231200Y0084376D02*
X0231800Y0084376D01*
X0231800Y0083378D02*
X0231200Y0083378D01*
X0231200Y0082379D02*
X0231800Y0082379D01*
X0231500Y0081500D02*
X0146500Y0081500D01*
X0146500Y0091500D01*
X0146800Y0091366D02*
X0152600Y0091366D01*
X0152600Y0090368D02*
X0150400Y0090368D01*
X0150400Y0091200D02*
X0146800Y0091200D01*
X0146800Y0091800D01*
X0150400Y0091800D01*
X0150400Y0094284D01*
X0150250Y0095038D01*
X0149956Y0095747D01*
X0149529Y0096386D01*
X0148986Y0096929D01*
X0148347Y0097356D01*
X0147638Y0097650D01*
X0146884Y0097800D01*
X0146800Y0097800D01*
X0146800Y0091800D01*
X0146200Y0091800D01*
X0146200Y0097800D01*
X0146116Y0097800D01*
X0145362Y0097650D01*
X0144653Y0097356D01*
X0144014Y0096929D01*
X0143471Y0096386D01*
X0143044Y0095747D01*
X0142750Y0095038D01*
X0142600Y0094284D01*
X0142600Y0091800D01*
X0146200Y0091800D01*
X0146200Y0091200D01*
X0146800Y0091200D01*
X0146800Y0085200D01*
X0146884Y0085200D01*
X0147638Y0085350D01*
X0148347Y0085644D01*
X0148986Y0086071D01*
X0149529Y0086614D01*
X0149956Y0087253D01*
X0150250Y0087962D01*
X0150400Y0088716D01*
X0150400Y0091200D01*
X0150400Y0092365D02*
X0152600Y0092365D01*
X0152600Y0093363D02*
X0150400Y0093363D01*
X0150385Y0094362D02*
X0152600Y0094362D01*
X0152600Y0094676D02*
X0153194Y0096109D01*
X0154291Y0097206D01*
X0155724Y0097800D01*
X0157276Y0097800D01*
X0158709Y0097206D01*
X0159806Y0096109D01*
X0160400Y0094676D01*
X0160400Y0088324D01*
X0159806Y0086891D01*
X0158709Y0085794D01*
X0157276Y0085200D01*
X0155724Y0085200D01*
X0154291Y0085794D01*
X0153194Y0086891D01*
X0152600Y0088324D01*
X0152600Y0094676D01*
X0152883Y0095360D02*
X0150117Y0095360D01*
X0149548Y0096359D02*
X0153443Y0096359D01*
X0154655Y0097357D02*
X0148345Y0097357D01*
X0146800Y0097357D02*
X0146200Y0097357D01*
X0146200Y0096359D02*
X0146800Y0096359D01*
X0146800Y0095360D02*
X0146200Y0095360D01*
X0146200Y0094362D02*
X0146800Y0094362D01*
X0146800Y0093363D02*
X0146200Y0093363D01*
X0146200Y0092365D02*
X0146800Y0092365D01*
X0146200Y0091366D02*
X0140400Y0091366D01*
X0140400Y0090368D02*
X0142600Y0090368D01*
X0142600Y0091200D02*
X0142600Y0088716D01*
X0142750Y0087962D01*
X0143044Y0087253D01*
X0143471Y0086614D01*
X0144014Y0086071D01*
X0144653Y0085644D01*
X0145362Y0085350D01*
X0146116Y0085200D01*
X0146200Y0085200D01*
X0146200Y0091200D01*
X0142600Y0091200D01*
X0142600Y0092365D02*
X0140400Y0092365D01*
X0140400Y0093363D02*
X0142600Y0093363D01*
X0142615Y0094362D02*
X0140400Y0094362D01*
X0140117Y0095360D02*
X0142883Y0095360D01*
X0143452Y0096359D02*
X0139557Y0096359D01*
X0138345Y0097357D02*
X0144655Y0097357D01*
X0141180Y0101351D02*
X0175523Y0101351D01*
X0174524Y0100353D02*
X0140181Y0100353D01*
X0139183Y0099354D02*
X0173526Y0099354D01*
X0172527Y0098356D02*
X0138184Y0098356D01*
X0135523Y0101351D02*
X0113477Y0101351D01*
X0112479Y0102350D02*
X0136521Y0102350D01*
X0137520Y0103348D02*
X0111480Y0103348D01*
X0109500Y0105500D02*
X0235500Y0105500D01*
X0241500Y0111500D01*
X0244039Y0099354D02*
X0179183Y0099354D01*
X0178184Y0098356D02*
X0243130Y0098356D01*
X0242717Y0097357D02*
X0218345Y0097357D01*
X0219557Y0096359D02*
X0242600Y0096359D01*
X0242600Y0095360D02*
X0220117Y0095360D01*
X0220400Y0094362D02*
X0242600Y0094362D01*
X0242600Y0093363D02*
X0220400Y0093363D01*
X0220400Y0092365D02*
X0242600Y0092365D01*
X0242600Y0091366D02*
X0220400Y0091366D01*
X0220400Y0090368D02*
X0242748Y0090368D01*
X0243161Y0089369D02*
X0220400Y0089369D01*
X0220400Y0088370D02*
X0244114Y0088370D01*
X0248886Y0088370D02*
X0254114Y0088370D01*
X0253161Y0089369D02*
X0249839Y0089369D01*
X0250252Y0090368D02*
X0252748Y0090368D01*
X0252600Y0091366D02*
X0250400Y0091366D01*
X0250400Y0092365D02*
X0252600Y0092365D01*
X0252600Y0093363D02*
X0250400Y0093363D01*
X0250400Y0094362D02*
X0252600Y0094362D01*
X0252600Y0095360D02*
X0250400Y0095360D01*
X0250400Y0096359D02*
X0252600Y0096359D01*
X0252717Y0097357D02*
X0250283Y0097357D01*
X0249870Y0098356D02*
X0253130Y0098356D01*
X0254039Y0099354D02*
X0248961Y0099354D01*
X0234139Y0084376D02*
X0282496Y0084376D01*
X0282496Y0083378D02*
X0235137Y0083378D01*
X0235400Y0082379D02*
X0282496Y0082379D01*
X0282496Y0081381D02*
X0231800Y0081381D01*
X0231800Y0081200D02*
X0235400Y0081200D01*
X0235400Y0079885D01*
X0233115Y0077600D01*
X0231800Y0077600D01*
X0231800Y0081200D01*
X0231200Y0081381D02*
X0104500Y0081381D01*
X0104500Y0082379D02*
X0227600Y0082379D01*
X0227863Y0083378D02*
X0104500Y0083378D01*
X0104500Y0084376D02*
X0228861Y0084376D01*
X0229860Y0085375D02*
X0217698Y0085375D01*
X0215302Y0085375D02*
X0207698Y0085375D01*
X0207276Y0085200D02*
X0208709Y0085794D01*
X0209806Y0086891D01*
X0210400Y0088324D01*
X0210400Y0094676D01*
X0209806Y0096109D01*
X0208709Y0097206D01*
X0207276Y0097800D01*
X0205724Y0097800D01*
X0204291Y0097206D01*
X0203194Y0096109D01*
X0202600Y0094676D01*
X0202600Y0088324D01*
X0203194Y0086891D01*
X0204291Y0085794D01*
X0205724Y0085200D01*
X0207276Y0085200D01*
X0205302Y0085375D02*
X0197698Y0085375D01*
X0197276Y0085200D02*
X0198709Y0085794D01*
X0199806Y0086891D01*
X0200400Y0088324D01*
X0200400Y0094676D01*
X0199806Y0096109D01*
X0198709Y0097206D01*
X0197276Y0097800D01*
X0195724Y0097800D01*
X0194291Y0097206D01*
X0193194Y0096109D01*
X0192600Y0094676D01*
X0192600Y0088324D01*
X0193194Y0086891D01*
X0194291Y0085794D01*
X0195724Y0085200D01*
X0197276Y0085200D01*
X0195302Y0085375D02*
X0187698Y0085375D01*
X0187276Y0085200D02*
X0188709Y0085794D01*
X0189806Y0086891D01*
X0190400Y0088324D01*
X0190400Y0094676D01*
X0189806Y0096109D01*
X0188709Y0097206D01*
X0187276Y0097800D01*
X0185724Y0097800D01*
X0184291Y0097206D01*
X0183194Y0096109D01*
X0182600Y0094676D01*
X0182600Y0088324D01*
X0183194Y0086891D01*
X0184291Y0085794D01*
X0185724Y0085200D01*
X0187276Y0085200D01*
X0185302Y0085375D02*
X0177698Y0085375D01*
X0179289Y0086373D02*
X0183711Y0086373D01*
X0182994Y0087372D02*
X0180006Y0087372D01*
X0180400Y0088370D02*
X0182600Y0088370D01*
X0182600Y0089369D02*
X0180400Y0089369D01*
X0180400Y0090368D02*
X0182600Y0090368D01*
X0182600Y0091366D02*
X0180400Y0091366D01*
X0180400Y0092365D02*
X0182600Y0092365D01*
X0182600Y0093363D02*
X0180400Y0093363D01*
X0180400Y0094362D02*
X0182600Y0094362D01*
X0182883Y0095360D02*
X0180117Y0095360D01*
X0179557Y0096359D02*
X0183443Y0096359D01*
X0184655Y0097357D02*
X0178345Y0097357D01*
X0178500Y0101500D02*
X0269500Y0101500D01*
X0282496Y0080382D02*
X0235400Y0080382D01*
X0234899Y0079384D02*
X0282496Y0079384D01*
X0282496Y0078385D02*
X0233901Y0078385D01*
X0231800Y0078385D02*
X0231200Y0078385D01*
X0231200Y0079384D02*
X0231800Y0079384D01*
X0231800Y0080382D02*
X0231200Y0080382D01*
X0229099Y0078385D02*
X0104500Y0078385D01*
X0104500Y0077387D02*
X0282496Y0077387D01*
X0282496Y0076388D02*
X0104500Y0076388D01*
X0104500Y0075390D02*
X0229874Y0075390D01*
X0229885Y0075400D02*
X0227600Y0073115D01*
X0227600Y0069885D01*
X0229885Y0067600D01*
X0233115Y0067600D01*
X0235400Y0069885D01*
X0235400Y0073115D01*
X0233115Y0075400D01*
X0229885Y0075400D01*
X0228876Y0074391D02*
X0104500Y0074391D01*
X0104500Y0073393D02*
X0227877Y0073393D01*
X0227600Y0072394D02*
X0104500Y0072394D01*
X0104500Y0071396D02*
X0227600Y0071396D01*
X0227600Y0070397D02*
X0104500Y0070397D01*
X0104500Y0069399D02*
X0228086Y0069399D01*
X0229084Y0068400D02*
X0104500Y0068400D01*
X0104500Y0067402D02*
X0104763Y0067402D01*
X0102500Y0065500D02*
X0106500Y0061500D01*
X0110400Y0061411D02*
X0112600Y0061411D01*
X0112600Y0062409D02*
X0110400Y0062409D01*
X0110400Y0063408D02*
X0112600Y0063408D01*
X0112600Y0064406D02*
X0110400Y0064406D01*
X0110098Y0065405D02*
X0112902Y0065405D01*
X0113488Y0066403D02*
X0109512Y0066403D01*
X0108237Y0067402D02*
X0114763Y0067402D01*
X0118237Y0067402D02*
X0124763Y0067402D01*
X0123488Y0066403D02*
X0119512Y0066403D01*
X0120098Y0065405D02*
X0122902Y0065405D01*
X0122600Y0064406D02*
X0120400Y0064406D01*
X0120400Y0063408D02*
X0122600Y0063408D01*
X0122600Y0062409D02*
X0120400Y0062409D01*
X0120400Y0061411D02*
X0122600Y0061411D01*
X0122584Y0060412D02*
X0120400Y0060412D01*
X0120400Y0059414D02*
X0121585Y0059414D01*
X0120587Y0058415D02*
X0120400Y0058415D01*
X0119500Y0054500D02*
X0126500Y0061500D01*
X0130400Y0061411D02*
X0132600Y0061411D01*
X0132600Y0062409D02*
X0130400Y0062409D01*
X0130400Y0063408D02*
X0132600Y0063408D01*
X0132600Y0064406D02*
X0130400Y0064406D01*
X0130098Y0065405D02*
X0132902Y0065405D01*
X0133488Y0066403D02*
X0129512Y0066403D01*
X0128237Y0067402D02*
X0134763Y0067402D01*
X0138237Y0067402D02*
X0144763Y0067402D01*
X0144291Y0067206D02*
X0143194Y0066109D01*
X0142600Y0064676D01*
X0142600Y0058324D01*
X0143194Y0056891D01*
X0144291Y0055794D01*
X0145724Y0055200D01*
X0147276Y0055200D01*
X0148709Y0055794D01*
X0149806Y0056891D01*
X0150400Y0058324D01*
X0150400Y0064676D01*
X0149806Y0066109D01*
X0148709Y0067206D01*
X0147276Y0067800D01*
X0145724Y0067800D01*
X0144291Y0067206D01*
X0143488Y0066403D02*
X0139512Y0066403D01*
X0140098Y0065405D02*
X0142902Y0065405D01*
X0142600Y0064406D02*
X0140400Y0064406D01*
X0140500Y0063500D02*
X0140500Y0057500D01*
X0129500Y0046500D01*
X0121500Y0046500D01*
X0121800Y0046433D02*
X0168605Y0046433D01*
X0169603Y0047432D02*
X0125400Y0047432D01*
X0125085Y0048430D02*
X0170602Y0048430D01*
X0171600Y0049429D02*
X0124087Y0049429D01*
X0121800Y0049429D02*
X0121200Y0049429D01*
X0121200Y0048430D02*
X0121800Y0048430D01*
X0121800Y0047432D02*
X0121200Y0047432D01*
X0118913Y0049429D02*
X0115400Y0049429D01*
X0114401Y0050427D02*
X0172599Y0050427D01*
X0173597Y0051426D02*
X0129254Y0051426D01*
X0130252Y0052424D02*
X0174596Y0052424D01*
X0175594Y0053423D02*
X0131251Y0053423D01*
X0132250Y0054421D02*
X0176593Y0054421D01*
X0175194Y0055420D02*
X0167806Y0055420D01*
X0167276Y0055200D02*
X0168709Y0055794D01*
X0169806Y0056891D01*
X0170400Y0058324D01*
X0170400Y0064676D01*
X0169806Y0066109D01*
X0168709Y0067206D01*
X0167276Y0067800D01*
X0165724Y0067800D01*
X0164291Y0067206D01*
X0163194Y0066109D01*
X0162600Y0064676D01*
X0162600Y0058324D01*
X0163194Y0056891D01*
X0164291Y0055794D01*
X0165724Y0055200D01*
X0167276Y0055200D01*
X0165194Y0055420D02*
X0157806Y0055420D01*
X0157276Y0055200D02*
X0158709Y0055794D01*
X0159806Y0056891D01*
X0160400Y0058324D01*
X0160400Y0064676D01*
X0159806Y0066109D01*
X0158709Y0067206D01*
X0157276Y0067800D01*
X0155724Y0067800D01*
X0154291Y0067206D01*
X0153194Y0066109D01*
X0152600Y0064676D01*
X0152600Y0058324D01*
X0153194Y0056891D01*
X0154291Y0055794D01*
X0155724Y0055200D01*
X0157276Y0055200D01*
X0155194Y0055420D02*
X0147806Y0055420D01*
X0149334Y0056418D02*
X0153666Y0056418D01*
X0152976Y0057417D02*
X0150024Y0057417D01*
X0150400Y0058415D02*
X0152600Y0058415D01*
X0152600Y0059414D02*
X0150400Y0059414D01*
X0150400Y0060412D02*
X0152600Y0060412D01*
X0152600Y0061411D02*
X0150400Y0061411D01*
X0150400Y0062409D02*
X0152600Y0062409D01*
X0152600Y0063408D02*
X0150400Y0063408D01*
X0150400Y0064406D02*
X0152600Y0064406D01*
X0152902Y0065405D02*
X0150098Y0065405D01*
X0149512Y0066403D02*
X0153488Y0066403D01*
X0154763Y0067402D02*
X0148237Y0067402D01*
X0146500Y0069500D02*
X0140500Y0063500D01*
X0140400Y0063408D02*
X0142600Y0063408D01*
X0142600Y0062409D02*
X0140400Y0062409D01*
X0140400Y0061411D02*
X0142600Y0061411D01*
X0142600Y0060412D02*
X0140400Y0060412D01*
X0140400Y0059414D02*
X0142600Y0059414D01*
X0142600Y0058415D02*
X0140400Y0058415D01*
X0140024Y0057417D02*
X0142976Y0057417D01*
X0143666Y0056418D02*
X0139334Y0056418D01*
X0137806Y0055420D02*
X0145194Y0055420D01*
X0136500Y0061500D02*
X0127500Y0052500D01*
X0054500Y0052500D01*
X0024500Y0082500D01*
X0024500Y0089500D01*
X0029500Y0094500D01*
X0029500Y0115500D01*
X0021500Y0123500D01*
X0021500Y0132500D01*
X0021185Y0133232D01*
X0017323Y0133303D02*
X0014500Y0133303D01*
X0014500Y0132305D02*
X0017389Y0132305D01*
X0017802Y0131306D02*
X0014500Y0131306D01*
X0014500Y0130308D02*
X0018647Y0130308D01*
X0019500Y0129309D02*
X0014500Y0129309D01*
X0014500Y0128311D02*
X0019500Y0128311D01*
X0019500Y0127312D02*
X0014500Y0127312D01*
X0014500Y0126314D02*
X0019500Y0126314D01*
X0019500Y0125315D02*
X0014500Y0125315D01*
X0014500Y0124317D02*
X0019500Y0124317D01*
X0019500Y0123318D02*
X0014500Y0123318D01*
X0014500Y0122320D02*
X0019852Y0122320D01*
X0020850Y0121321D02*
X0014500Y0121321D01*
X0014500Y0120323D02*
X0021849Y0120323D01*
X0021685Y0119324D02*
X0020685Y0119324D01*
X0020685Y0118326D02*
X0021685Y0118326D01*
X0021685Y0117327D02*
X0020685Y0117327D01*
X0020685Y0116329D02*
X0021685Y0116329D01*
X0021685Y0115330D02*
X0020685Y0115330D01*
X0020685Y0114332D02*
X0021685Y0114332D01*
X0021685Y0113333D02*
X0020685Y0113333D01*
X0020685Y0111354D02*
X0021685Y0111354D01*
X0021685Y0104055D01*
X0024416Y0104055D01*
X0027500Y0107140D01*
X0027500Y0095328D01*
X0023672Y0091500D01*
X0022500Y0090328D01*
X0022500Y0084328D01*
X0014500Y0092328D01*
X0014500Y0107510D01*
X0017955Y0104055D01*
X0020685Y0104055D01*
X0020685Y0111354D01*
X0020685Y0111336D02*
X0021685Y0111336D01*
X0021685Y0110338D02*
X0020685Y0110338D01*
X0020685Y0109339D02*
X0021685Y0109339D01*
X0021685Y0108341D02*
X0020685Y0108341D01*
X0020685Y0107342D02*
X0021685Y0107342D01*
X0021685Y0106344D02*
X0020685Y0106344D01*
X0020685Y0105345D02*
X0021685Y0105345D01*
X0021685Y0104347D02*
X0020685Y0104347D01*
X0017663Y0104347D02*
X0014500Y0104347D01*
X0014500Y0105345D02*
X0016664Y0105345D01*
X0015666Y0106344D02*
X0014500Y0106344D01*
X0014500Y0107342D02*
X0014667Y0107342D01*
X0014500Y0103348D02*
X0027500Y0103348D01*
X0027500Y0102350D02*
X0014500Y0102350D01*
X0014500Y0101351D02*
X0027500Y0101351D01*
X0027500Y0100353D02*
X0014500Y0100353D01*
X0014500Y0099354D02*
X0027500Y0099354D01*
X0027500Y0098356D02*
X0014500Y0098356D01*
X0014500Y0097357D02*
X0027500Y0097357D01*
X0027500Y0096359D02*
X0014500Y0096359D01*
X0014500Y0095360D02*
X0027500Y0095360D01*
X0026533Y0094362D02*
X0014500Y0094362D01*
X0014500Y0093363D02*
X0025535Y0093363D01*
X0024536Y0092365D02*
X0014500Y0092365D01*
X0015462Y0091366D02*
X0023538Y0091366D01*
X0022539Y0090368D02*
X0016461Y0090368D01*
X0017459Y0089369D02*
X0022500Y0089369D01*
X0022500Y0088370D02*
X0018458Y0088370D01*
X0019456Y0087372D02*
X0022500Y0087372D01*
X0022500Y0086373D02*
X0020455Y0086373D01*
X0021453Y0085375D02*
X0022500Y0085375D01*
X0022500Y0084376D02*
X0022452Y0084376D01*
X0019791Y0081381D02*
X0003968Y0081381D01*
X0003968Y0082379D02*
X0018792Y0082379D01*
X0017794Y0083378D02*
X0003968Y0083378D01*
X0003968Y0084376D02*
X0016795Y0084376D01*
X0015797Y0085375D02*
X0003968Y0085375D01*
X0003968Y0086373D02*
X0014798Y0086373D01*
X0013800Y0087372D02*
X0003968Y0087372D01*
X0003968Y0088370D02*
X0012801Y0088370D01*
X0011803Y0089369D02*
X0003968Y0089369D01*
X0003968Y0090368D02*
X0010804Y0090368D01*
X0010500Y0091366D02*
X0003968Y0091366D01*
X0003968Y0092365D02*
X0010500Y0092365D01*
X0010500Y0093363D02*
X0003968Y0093363D01*
X0003968Y0094362D02*
X0010500Y0094362D01*
X0010500Y0095360D02*
X0003968Y0095360D01*
X0003968Y0096359D02*
X0010500Y0096359D01*
X0010500Y0097357D02*
X0003968Y0097357D01*
X0003968Y0098356D02*
X0010500Y0098356D01*
X0010500Y0099354D02*
X0003968Y0099354D01*
X0003968Y0100353D02*
X0010500Y0100353D01*
X0010500Y0101351D02*
X0003968Y0101351D01*
X0003968Y0102350D02*
X0010500Y0102350D01*
X0010500Y0103348D02*
X0003968Y0103348D01*
X0003968Y0104347D02*
X0010500Y0104347D01*
X0010500Y0105345D02*
X0003968Y0105345D01*
X0003968Y0106344D02*
X0010500Y0106344D01*
X0010500Y0107342D02*
X0003968Y0107342D01*
X0003968Y0108341D02*
X0010500Y0108341D01*
X0010500Y0109339D02*
X0003968Y0109339D01*
X0003968Y0110338D02*
X0010500Y0110338D01*
X0010500Y0111336D02*
X0003968Y0111336D01*
X0003968Y0112335D02*
X0010500Y0112335D01*
X0010500Y0113333D02*
X0003968Y0113333D01*
X0003968Y0114332D02*
X0010500Y0114332D01*
X0010500Y0115330D02*
X0003968Y0115330D01*
X0003968Y0116329D02*
X0010500Y0116329D01*
X0010500Y0117327D02*
X0003968Y0117327D01*
X0003968Y0118326D02*
X0010500Y0118326D01*
X0010500Y0119324D02*
X0003968Y0119324D01*
X0003968Y0120323D02*
X0010500Y0120323D01*
X0010500Y0121321D02*
X0003968Y0121321D01*
X0003968Y0122320D02*
X0010500Y0122320D01*
X0010500Y0123318D02*
X0003968Y0123318D01*
X0003968Y0124317D02*
X0010500Y0124317D01*
X0010500Y0125315D02*
X0003968Y0125315D01*
X0003968Y0126314D02*
X0010500Y0126314D01*
X0010500Y0127312D02*
X0003968Y0127312D01*
X0003968Y0128311D02*
X0010500Y0128311D01*
X0010500Y0129309D02*
X0003968Y0129309D01*
X0003968Y0130308D02*
X0010500Y0130308D01*
X0010500Y0131306D02*
X0003968Y0131306D01*
X0003968Y0132305D02*
X0010500Y0132305D01*
X0010500Y0133303D02*
X0003968Y0133303D01*
X0003968Y0134302D02*
X0010500Y0134302D01*
X0010500Y0135301D02*
X0003968Y0135301D01*
X0003968Y0136299D02*
X0010500Y0136299D01*
X0010500Y0137298D02*
X0003968Y0137298D01*
X0003968Y0138296D02*
X0010500Y0138296D01*
X0010500Y0139295D02*
X0003968Y0139295D01*
X0003968Y0140293D02*
X0010500Y0140293D01*
X0010500Y0141292D02*
X0003968Y0141292D01*
X0003968Y0142290D02*
X0011462Y0142290D01*
X0012460Y0143289D02*
X0003968Y0143289D01*
X0003968Y0144287D02*
X0013459Y0144287D01*
X0014457Y0145286D02*
X0003968Y0145286D01*
X0003968Y0146284D02*
X0015456Y0146284D01*
X0016454Y0147283D02*
X0003968Y0147283D01*
X0003968Y0148281D02*
X0017453Y0148281D01*
X0018451Y0149280D02*
X0003968Y0149280D01*
X0003968Y0150278D02*
X0018677Y0150278D01*
X0017815Y0151277D02*
X0003968Y0151277D01*
X0003968Y0152275D02*
X0017401Y0152275D01*
X0017323Y0153274D02*
X0003968Y0153274D01*
X0003968Y0154272D02*
X0017435Y0154272D01*
X0017849Y0155271D02*
X0003968Y0155271D01*
X0003968Y0156269D02*
X0018760Y0156269D01*
X0023610Y0156269D02*
X0028441Y0156269D01*
X0029215Y0157268D02*
X0003968Y0157268D01*
X0003968Y0158266D02*
X0029134Y0158266D01*
X0029243Y0159265D02*
X0003968Y0159265D01*
X0003968Y0160263D02*
X0029657Y0160263D01*
X0030564Y0161262D02*
X0003968Y0161262D01*
X0003968Y0162260D02*
X0051432Y0162260D01*
X0050433Y0161262D02*
X0035429Y0161262D01*
X0036335Y0160263D02*
X0049435Y0160263D01*
X0048436Y0159265D02*
X0036749Y0159265D01*
X0036858Y0158266D02*
X0047438Y0158266D01*
X0046439Y0157268D02*
X0036777Y0157268D01*
X0036363Y0156269D02*
X0042382Y0156269D01*
X0041471Y0155271D02*
X0035497Y0155271D01*
X0032101Y0154272D02*
X0041057Y0154272D01*
X0040945Y0153274D02*
X0031102Y0153274D01*
X0030104Y0152275D02*
X0041023Y0152275D01*
X0041437Y0151277D02*
X0035414Y0151277D01*
X0035184Y0151506D02*
X0033764Y0152094D01*
X0032228Y0152094D01*
X0030808Y0151506D01*
X0029722Y0150420D01*
X0029134Y0149001D01*
X0029134Y0147464D01*
X0029722Y0146045D01*
X0030808Y0144958D01*
X0032228Y0144370D01*
X0033764Y0144370D01*
X0035184Y0144958D01*
X0036270Y0146045D01*
X0036858Y0147464D01*
X0036858Y0149001D01*
X0036270Y0150420D01*
X0035184Y0151506D01*
X0036329Y0150278D02*
X0042299Y0150278D01*
X0044807Y0153232D02*
X0045500Y0153500D01*
X0054500Y0162500D01*
X0058500Y0162500D01*
X0101500Y0119500D01*
X0101500Y0097500D01*
X0102500Y0096500D01*
X0102500Y0065500D01*
X0096500Y0061500D02*
X0092500Y0065500D01*
X0092500Y0116500D01*
X0061500Y0147500D01*
X0057500Y0147500D01*
X0056618Y0148232D01*
X0052756Y0148281D02*
X0036858Y0148281D01*
X0036783Y0147283D02*
X0052831Y0147283D01*
X0053245Y0146284D02*
X0047217Y0146284D01*
X0048137Y0145286D02*
X0054103Y0145286D01*
X0054500Y0142500D02*
X0045500Y0133500D01*
X0044807Y0133232D01*
X0044500Y0132500D01*
X0044500Y0112500D01*
X0044807Y0111854D01*
X0045307Y0112335D02*
X0076837Y0112335D01*
X0075838Y0113333D02*
X0052606Y0113333D01*
X0052606Y0114332D02*
X0074840Y0114332D01*
X0073841Y0115330D02*
X0052361Y0115330D01*
X0051362Y0116329D02*
X0072843Y0116329D01*
X0071844Y0117327D02*
X0050364Y0117327D01*
X0049365Y0118326D02*
X0070846Y0118326D01*
X0069847Y0119324D02*
X0048367Y0119324D01*
X0045307Y0119324D02*
X0044307Y0119324D01*
X0044307Y0118326D02*
X0045307Y0118326D01*
X0045307Y0117327D02*
X0044307Y0117327D01*
X0044307Y0116329D02*
X0045307Y0116329D01*
X0045307Y0115330D02*
X0044307Y0115330D01*
X0044307Y0114332D02*
X0045307Y0114332D01*
X0045307Y0113333D02*
X0044307Y0113333D01*
X0044307Y0111336D02*
X0045307Y0111336D01*
X0045307Y0110338D02*
X0044307Y0110338D01*
X0044307Y0109339D02*
X0045307Y0109339D01*
X0045307Y0108341D02*
X0044307Y0108341D01*
X0044307Y0107342D02*
X0045307Y0107342D01*
X0045307Y0106344D02*
X0044307Y0106344D01*
X0044307Y0105345D02*
X0045307Y0105345D01*
X0045307Y0104347D02*
X0044307Y0104347D01*
X0044480Y0103348D02*
X0080500Y0103348D01*
X0080500Y0102350D02*
X0045479Y0102350D01*
X0046477Y0101351D02*
X0080500Y0101351D01*
X0080500Y0100353D02*
X0047476Y0100353D01*
X0048474Y0099354D02*
X0080500Y0099354D01*
X0080500Y0098356D02*
X0049473Y0098356D01*
X0049500Y0095500D02*
X0057500Y0095500D01*
X0086500Y0066500D01*
X0086500Y0061500D01*
X0090400Y0061411D02*
X0092600Y0061411D01*
X0092600Y0062409D02*
X0090400Y0062409D01*
X0090400Y0063408D02*
X0091764Y0063408D01*
X0090765Y0064406D02*
X0090400Y0064406D01*
X0090500Y0065405D02*
X0090098Y0065405D01*
X0090500Y0066403D02*
X0089512Y0066403D01*
X0090500Y0067402D02*
X0088427Y0067402D01*
X0087428Y0068400D02*
X0090500Y0068400D01*
X0090500Y0069399D02*
X0086430Y0069399D01*
X0085431Y0070397D02*
X0090500Y0070397D01*
X0090500Y0071396D02*
X0084433Y0071396D01*
X0083434Y0072394D02*
X0090500Y0072394D01*
X0090500Y0073393D02*
X0082436Y0073393D01*
X0081437Y0074391D02*
X0090500Y0074391D01*
X0090500Y0075390D02*
X0080439Y0075390D01*
X0079440Y0076388D02*
X0090500Y0076388D01*
X0090500Y0077387D02*
X0078442Y0077387D01*
X0077443Y0078385D02*
X0090500Y0078385D01*
X0090500Y0079384D02*
X0076445Y0079384D01*
X0075446Y0080382D02*
X0090500Y0080382D01*
X0090500Y0081381D02*
X0074448Y0081381D01*
X0073449Y0082379D02*
X0090500Y0082379D01*
X0090500Y0083378D02*
X0072450Y0083378D01*
X0071452Y0084376D02*
X0090500Y0084376D01*
X0090500Y0085375D02*
X0087698Y0085375D01*
X0087276Y0085200D02*
X0088709Y0085794D01*
X0089806Y0086891D01*
X0090400Y0088324D01*
X0090400Y0094676D01*
X0089806Y0096109D01*
X0088709Y0097206D01*
X0087276Y0097800D01*
X0085724Y0097800D01*
X0084500Y0097293D01*
X0084500Y0102985D01*
X0084885Y0102600D01*
X0088115Y0102600D01*
X0090400Y0104885D01*
X0090400Y0108115D01*
X0088115Y0110400D01*
X0084885Y0110400D01*
X0084500Y0110015D01*
X0084500Y0110328D01*
X0083328Y0111500D01*
X0059500Y0135328D01*
X0059500Y0135652D01*
X0059892Y0136045D01*
X0060480Y0137464D01*
X0060480Y0139001D01*
X0059892Y0140420D01*
X0058806Y0141506D01*
X0057386Y0142094D01*
X0055850Y0142094D01*
X0054430Y0141506D01*
X0053344Y0140420D01*
X0052756Y0139001D01*
X0052756Y0137464D01*
X0053344Y0136045D01*
X0054430Y0134958D01*
X0055500Y0134515D01*
X0055500Y0133672D01*
X0057077Y0132094D01*
X0053635Y0132094D01*
X0052756Y0131216D01*
X0052756Y0125249D01*
X0053635Y0124370D01*
X0059602Y0124370D01*
X0060480Y0125249D01*
X0060480Y0128691D01*
X0080500Y0108672D01*
X0080500Y0094672D01*
X0082600Y0092572D01*
X0082600Y0088324D01*
X0083194Y0086891D01*
X0084291Y0085794D01*
X0085724Y0085200D01*
X0087276Y0085200D01*
X0085302Y0085375D02*
X0070453Y0085375D01*
X0069455Y0086373D02*
X0083711Y0086373D01*
X0082994Y0087372D02*
X0068456Y0087372D01*
X0067458Y0088370D02*
X0082600Y0088370D01*
X0082600Y0089369D02*
X0066459Y0089369D01*
X0065461Y0090368D02*
X0082600Y0090368D01*
X0082600Y0091366D02*
X0064462Y0091366D01*
X0063464Y0092365D02*
X0082600Y0092365D01*
X0081809Y0093363D02*
X0062465Y0093363D01*
X0061467Y0094362D02*
X0080810Y0094362D01*
X0080500Y0095360D02*
X0060468Y0095360D01*
X0059470Y0096359D02*
X0080500Y0096359D01*
X0080500Y0097357D02*
X0058471Y0097357D01*
X0049500Y0095500D02*
X0036500Y0108500D01*
X0036500Y0115500D01*
X0037500Y0116500D01*
X0037500Y0131500D01*
X0044500Y0138500D01*
X0044500Y0142500D01*
X0044807Y0143232D01*
X0040945Y0143289D02*
X0025047Y0143289D01*
X0024975Y0142290D02*
X0041017Y0142290D01*
X0041431Y0141292D02*
X0035399Y0141292D01*
X0035184Y0141506D02*
X0033764Y0142094D01*
X0032228Y0142094D01*
X0030808Y0141506D01*
X0029722Y0140420D01*
X0029134Y0139001D01*
X0029134Y0137464D01*
X0029722Y0136045D01*
X0030808Y0134958D01*
X0032228Y0134370D01*
X0033764Y0134370D01*
X0035184Y0134958D01*
X0036270Y0136045D01*
X0036858Y0137464D01*
X0036858Y0139001D01*
X0036270Y0140420D01*
X0035184Y0141506D01*
X0036323Y0140293D02*
X0042284Y0140293D01*
X0042466Y0139295D02*
X0036736Y0139295D01*
X0036858Y0138296D02*
X0041468Y0138296D01*
X0040469Y0137298D02*
X0036789Y0137298D01*
X0036376Y0136299D02*
X0039471Y0136299D01*
X0038472Y0135301D02*
X0035526Y0135301D01*
X0037474Y0134302D02*
X0024922Y0134302D01*
X0025047Y0133303D02*
X0036475Y0133303D01*
X0035500Y0132305D02*
X0024981Y0132305D01*
X0024568Y0131306D02*
X0030608Y0131306D01*
X0029675Y0130308D02*
X0023723Y0130308D01*
X0023500Y0129309D02*
X0029262Y0129309D01*
X0029134Y0128311D02*
X0023500Y0128311D01*
X0023500Y0127312D02*
X0029197Y0127312D01*
X0029610Y0126314D02*
X0023500Y0126314D01*
X0023500Y0125315D02*
X0030451Y0125315D01*
X0031500Y0124317D02*
X0023512Y0124317D01*
X0024510Y0123318D02*
X0031500Y0123318D01*
X0031500Y0122320D02*
X0025509Y0122320D01*
X0026507Y0121321D02*
X0031500Y0121321D01*
X0031500Y0120323D02*
X0027506Y0120323D01*
X0028504Y0119324D02*
X0031500Y0119324D01*
X0031500Y0118326D02*
X0029503Y0118326D01*
X0030501Y0117327D02*
X0031500Y0117327D01*
X0031500Y0116329D02*
X0031500Y0116329D01*
X0031500Y0115330D02*
X0031500Y0115330D01*
X0031500Y0114332D02*
X0031500Y0114332D01*
X0031500Y0113333D02*
X0031500Y0113333D01*
X0031500Y0112335D02*
X0031500Y0112335D01*
X0031500Y0111336D02*
X0031500Y0111336D01*
X0031500Y0110338D02*
X0031500Y0110338D01*
X0031500Y0109339D02*
X0031500Y0109339D01*
X0031500Y0108341D02*
X0031500Y0108341D01*
X0031500Y0107342D02*
X0031500Y0107342D01*
X0031500Y0106344D02*
X0031500Y0106344D01*
X0031500Y0105345D02*
X0031500Y0105345D01*
X0031500Y0104347D02*
X0031500Y0104347D01*
X0031500Y0103348D02*
X0031500Y0103348D01*
X0031500Y0102350D02*
X0031500Y0102350D01*
X0031500Y0101351D02*
X0031500Y0101351D01*
X0031500Y0100353D02*
X0031500Y0100353D01*
X0031500Y0099354D02*
X0031500Y0099354D01*
X0031500Y0098356D02*
X0031500Y0098356D01*
X0031500Y0097357D02*
X0031500Y0097357D01*
X0031500Y0096359D02*
X0031813Y0096359D01*
X0031500Y0095360D02*
X0032812Y0095360D01*
X0033810Y0094362D02*
X0031500Y0094362D01*
X0033500Y0097500D02*
X0044500Y0086500D01*
X0044500Y0083500D01*
X0073500Y0054500D01*
X0119500Y0054500D01*
X0112976Y0057417D02*
X0110024Y0057417D01*
X0110400Y0058415D02*
X0112600Y0058415D01*
X0112600Y0059414D02*
X0110400Y0059414D01*
X0110400Y0060412D02*
X0112600Y0060412D01*
X0111500Y0050500D02*
X0119500Y0042500D01*
X0167500Y0042500D01*
X0186500Y0061500D01*
X0182600Y0061411D02*
X0180400Y0061411D01*
X0180400Y0062409D02*
X0182600Y0062409D01*
X0182600Y0063408D02*
X0180400Y0063408D01*
X0180400Y0064406D02*
X0182600Y0064406D01*
X0182902Y0065405D02*
X0180098Y0065405D01*
X0179512Y0066403D02*
X0183488Y0066403D01*
X0184763Y0067402D02*
X0178237Y0067402D01*
X0174763Y0067402D02*
X0168237Y0067402D01*
X0169512Y0066403D02*
X0173488Y0066403D01*
X0172902Y0065405D02*
X0170098Y0065405D01*
X0170400Y0064406D02*
X0172600Y0064406D01*
X0172600Y0063408D02*
X0170400Y0063408D01*
X0170400Y0062409D02*
X0172600Y0062409D01*
X0172600Y0061411D02*
X0170400Y0061411D01*
X0170400Y0060412D02*
X0172600Y0060412D01*
X0172600Y0059414D02*
X0170400Y0059414D01*
X0170400Y0058415D02*
X0172600Y0058415D01*
X0172976Y0057417D02*
X0170024Y0057417D01*
X0169334Y0056418D02*
X0173666Y0056418D01*
X0180400Y0058415D02*
X0180587Y0058415D01*
X0180400Y0059414D02*
X0181585Y0059414D01*
X0182584Y0060412D02*
X0180400Y0060412D01*
X0183248Y0055420D02*
X0185194Y0055420D01*
X0187806Y0055420D02*
X0195194Y0055420D01*
X0195724Y0055200D02*
X0194291Y0055794D01*
X0193194Y0056891D01*
X0192600Y0058324D01*
X0192600Y0064676D01*
X0193194Y0066109D01*
X0194291Y0067206D01*
X0195724Y0067800D01*
X0197276Y0067800D01*
X0198709Y0067206D01*
X0199806Y0066109D01*
X0200400Y0064676D01*
X0200400Y0058324D01*
X0199806Y0056891D01*
X0198709Y0055794D01*
X0197276Y0055200D01*
X0195724Y0055200D01*
X0197806Y0055420D02*
X0205194Y0055420D01*
X0205724Y0055200D02*
X0207276Y0055200D01*
X0208709Y0055794D01*
X0209806Y0056891D01*
X0210400Y0058324D01*
X0210400Y0064676D01*
X0209806Y0066109D01*
X0208709Y0067206D01*
X0207276Y0067800D01*
X0205724Y0067800D01*
X0204291Y0067206D01*
X0203194Y0066109D01*
X0202600Y0064676D01*
X0202600Y0058324D01*
X0203194Y0056891D01*
X0204291Y0055794D01*
X0205724Y0055200D01*
X0207806Y0055420D02*
X0215194Y0055420D01*
X0215724Y0055200D02*
X0217276Y0055200D01*
X0218709Y0055794D01*
X0219806Y0056891D01*
X0220400Y0058324D01*
X0220400Y0064676D01*
X0219806Y0066109D01*
X0218709Y0067206D01*
X0217276Y0067800D01*
X0215724Y0067800D01*
X0214291Y0067206D01*
X0213194Y0066109D01*
X0212600Y0064676D01*
X0212600Y0058324D01*
X0213194Y0056891D01*
X0214291Y0055794D01*
X0215724Y0055200D01*
X0217806Y0055420D02*
X0242809Y0055420D01*
X0242600Y0055924D02*
X0243194Y0054491D01*
X0244291Y0053394D01*
X0245724Y0052800D01*
X0247276Y0052800D01*
X0248709Y0053394D01*
X0249806Y0054491D01*
X0250400Y0055924D01*
X0250400Y0062276D01*
X0249806Y0063709D01*
X0248709Y0064806D01*
X0247276Y0065400D01*
X0245724Y0065400D01*
X0244291Y0064806D01*
X0243194Y0063709D01*
X0242600Y0062276D01*
X0242600Y0055924D01*
X0242600Y0056418D02*
X0219334Y0056418D01*
X0220024Y0057417D02*
X0242600Y0057417D01*
X0242600Y0058415D02*
X0220400Y0058415D01*
X0220400Y0059414D02*
X0242600Y0059414D01*
X0242600Y0060412D02*
X0220400Y0060412D01*
X0220400Y0061411D02*
X0242600Y0061411D01*
X0242655Y0062409D02*
X0220400Y0062409D01*
X0220400Y0063408D02*
X0243069Y0063408D01*
X0243891Y0064406D02*
X0220400Y0064406D01*
X0220098Y0065405D02*
X0282496Y0065405D01*
X0282496Y0066403D02*
X0219512Y0066403D01*
X0218237Y0067402D02*
X0282496Y0067402D01*
X0282496Y0068400D02*
X0233916Y0068400D01*
X0234914Y0069399D02*
X0282496Y0069399D01*
X0282496Y0070397D02*
X0235400Y0070397D01*
X0235400Y0071396D02*
X0282496Y0071396D01*
X0282496Y0072394D02*
X0235400Y0072394D01*
X0235123Y0073393D02*
X0282496Y0073393D01*
X0282496Y0074391D02*
X0234124Y0074391D01*
X0233126Y0075390D02*
X0282496Y0075390D01*
X0282496Y0064406D02*
X0279109Y0064406D01*
X0278709Y0064806D02*
X0277276Y0065400D01*
X0275724Y0065400D01*
X0274291Y0064806D01*
X0273194Y0063709D01*
X0272600Y0062276D01*
X0272600Y0055924D01*
X0273194Y0054491D01*
X0274291Y0053394D01*
X0275724Y0052800D01*
X0277276Y0052800D01*
X0278709Y0053394D01*
X0279806Y0054491D01*
X0280400Y0055924D01*
X0280400Y0062276D01*
X0279806Y0063709D01*
X0278709Y0064806D01*
X0279931Y0063408D02*
X0282496Y0063408D01*
X0282496Y0062409D02*
X0280345Y0062409D01*
X0280400Y0061411D02*
X0282496Y0061411D01*
X0282496Y0060412D02*
X0280400Y0060412D01*
X0280400Y0059414D02*
X0282496Y0059414D01*
X0282496Y0058415D02*
X0280400Y0058415D01*
X0280400Y0057417D02*
X0282496Y0057417D01*
X0282496Y0056418D02*
X0280400Y0056418D01*
X0280191Y0055420D02*
X0282496Y0055420D01*
X0282496Y0054421D02*
X0279737Y0054421D01*
X0278738Y0053423D02*
X0282496Y0053423D01*
X0282496Y0052424D02*
X0258500Y0052424D01*
X0258500Y0053307D02*
X0258709Y0053394D01*
X0259806Y0054491D01*
X0260400Y0055924D01*
X0260400Y0062276D01*
X0259806Y0063709D01*
X0258709Y0064806D01*
X0257276Y0065400D01*
X0255724Y0065400D01*
X0254291Y0064806D01*
X0253194Y0063709D01*
X0252600Y0062276D01*
X0252600Y0055924D01*
X0253194Y0054491D01*
X0254291Y0053394D01*
X0254500Y0053307D01*
X0254500Y0047328D01*
X0243480Y0036308D01*
X0242534Y0036700D01*
X0240466Y0036700D01*
X0238554Y0035908D01*
X0237092Y0034446D01*
X0236300Y0032534D01*
X0236300Y0030466D01*
X0237092Y0028554D01*
X0238554Y0027092D01*
X0240466Y0026300D01*
X0242534Y0026300D01*
X0244446Y0027092D01*
X0245908Y0028554D01*
X0246700Y0030466D01*
X0246700Y0032534D01*
X0246308Y0033480D01*
X0256994Y0044166D01*
X0257558Y0042803D01*
X0258861Y0041500D01*
X0257558Y0040197D01*
X0256850Y0038488D01*
X0256850Y0036638D01*
X0257558Y0034929D01*
X0258866Y0033621D01*
X0260575Y0032913D01*
X0262425Y0032913D01*
X0264134Y0033621D01*
X0265442Y0034929D01*
X0266150Y0036638D01*
X0266150Y0038488D01*
X0265442Y0040197D01*
X0264139Y0041500D01*
X0265442Y0042803D01*
X0266150Y0044512D01*
X0266150Y0046362D01*
X0265442Y0048071D01*
X0264134Y0049379D01*
X0262425Y0050087D01*
X0260575Y0050087D01*
X0258866Y0049379D01*
X0258500Y0049013D01*
X0258500Y0053307D01*
X0258738Y0053423D02*
X0264262Y0053423D01*
X0264291Y0053394D02*
X0265724Y0052800D01*
X0267276Y0052800D01*
X0268709Y0053394D01*
X0269806Y0054491D01*
X0270400Y0055924D01*
X0270400Y0062276D01*
X0269806Y0063709D01*
X0268709Y0064806D01*
X0267276Y0065400D01*
X0265724Y0065400D01*
X0264291Y0064806D01*
X0263194Y0063709D01*
X0262600Y0062276D01*
X0262600Y0055924D01*
X0263194Y0054491D01*
X0264291Y0053394D01*
X0263263Y0054421D02*
X0259737Y0054421D01*
X0260191Y0055420D02*
X0262809Y0055420D01*
X0262600Y0056418D02*
X0260400Y0056418D01*
X0260400Y0057417D02*
X0262600Y0057417D01*
X0262600Y0058415D02*
X0260400Y0058415D01*
X0260400Y0059414D02*
X0262600Y0059414D01*
X0262600Y0060412D02*
X0260400Y0060412D01*
X0260400Y0061411D02*
X0262600Y0061411D01*
X0262655Y0062409D02*
X0260345Y0062409D01*
X0259931Y0063408D02*
X0263069Y0063408D01*
X0263891Y0064406D02*
X0259109Y0064406D01*
X0256500Y0061500D02*
X0256500Y0046500D01*
X0241500Y0031500D01*
X0236680Y0033452D02*
X0216320Y0033452D01*
X0216700Y0032534D02*
X0215908Y0034446D01*
X0214446Y0035908D01*
X0212534Y0036700D01*
X0210466Y0036700D01*
X0208554Y0035908D01*
X0207092Y0034446D01*
X0206300Y0032534D01*
X0206300Y0030466D01*
X0207092Y0028554D01*
X0208554Y0027092D01*
X0210466Y0026300D01*
X0212534Y0026300D01*
X0214446Y0027092D01*
X0215908Y0028554D01*
X0216700Y0030466D01*
X0216700Y0032534D01*
X0216700Y0032454D02*
X0236300Y0032454D01*
X0236300Y0031455D02*
X0216700Y0031455D01*
X0216696Y0030457D02*
X0236304Y0030457D01*
X0236717Y0029458D02*
X0216283Y0029458D01*
X0215814Y0028460D02*
X0237186Y0028460D01*
X0238185Y0027461D02*
X0214815Y0027461D01*
X0212927Y0026463D02*
X0240073Y0026463D01*
X0242927Y0026463D02*
X0282496Y0026463D01*
X0282496Y0027461D02*
X0244815Y0027461D01*
X0245814Y0028460D02*
X0282496Y0028460D01*
X0282496Y0029458D02*
X0246283Y0029458D01*
X0246696Y0030457D02*
X0282496Y0030457D01*
X0282496Y0031455D02*
X0246700Y0031455D01*
X0246700Y0032454D02*
X0282496Y0032454D01*
X0282496Y0033452D02*
X0263726Y0033452D01*
X0264963Y0034451D02*
X0282496Y0034451D01*
X0282496Y0035449D02*
X0265657Y0035449D01*
X0266071Y0036448D02*
X0282496Y0036448D01*
X0282496Y0037446D02*
X0266150Y0037446D01*
X0266150Y0038445D02*
X0282496Y0038445D01*
X0282496Y0039443D02*
X0265754Y0039443D01*
X0265197Y0040442D02*
X0282496Y0040442D01*
X0282496Y0041440D02*
X0264198Y0041440D01*
X0265077Y0042439D02*
X0282496Y0042439D01*
X0282496Y0043437D02*
X0265704Y0043437D01*
X0266118Y0044436D02*
X0282496Y0044436D01*
X0282496Y0045434D02*
X0266150Y0045434D01*
X0266120Y0046433D02*
X0282496Y0046433D01*
X0282496Y0047432D02*
X0265707Y0047432D01*
X0265082Y0048430D02*
X0282496Y0048430D01*
X0282496Y0049429D02*
X0264014Y0049429D01*
X0258986Y0049429D02*
X0258500Y0049429D01*
X0258500Y0050427D02*
X0282496Y0050427D01*
X0282496Y0051426D02*
X0258500Y0051426D01*
X0254500Y0051426D02*
X0179254Y0051426D01*
X0180252Y0052424D02*
X0254500Y0052424D01*
X0254262Y0053423D02*
X0248738Y0053423D01*
X0249737Y0054421D02*
X0253263Y0054421D01*
X0252809Y0055420D02*
X0250191Y0055420D01*
X0250400Y0056418D02*
X0252600Y0056418D01*
X0252600Y0057417D02*
X0250400Y0057417D01*
X0250400Y0058415D02*
X0252600Y0058415D01*
X0252600Y0059414D02*
X0250400Y0059414D01*
X0250400Y0060412D02*
X0252600Y0060412D01*
X0252600Y0061411D02*
X0250400Y0061411D01*
X0250345Y0062409D02*
X0252655Y0062409D01*
X0253069Y0063408D02*
X0249931Y0063408D01*
X0249109Y0064406D02*
X0253891Y0064406D01*
X0243263Y0054421D02*
X0182250Y0054421D01*
X0181251Y0053423D02*
X0244262Y0053423D01*
X0235400Y0048115D02*
X0235400Y0044885D01*
X0233115Y0042600D01*
X0229885Y0042600D01*
X0227600Y0044885D01*
X0227600Y0048115D01*
X0229885Y0050400D01*
X0233115Y0050400D01*
X0235400Y0048115D01*
X0235085Y0048430D02*
X0254500Y0048430D01*
X0254500Y0047432D02*
X0235400Y0047432D01*
X0235400Y0046433D02*
X0253605Y0046433D01*
X0252606Y0045434D02*
X0235400Y0045434D01*
X0234951Y0044436D02*
X0251608Y0044436D01*
X0250609Y0043437D02*
X0233953Y0043437D01*
X0229047Y0043437D02*
X0213953Y0043437D01*
X0213115Y0042600D02*
X0215400Y0044885D01*
X0215400Y0048115D01*
X0213115Y0050400D01*
X0209885Y0050400D01*
X0207600Y0048115D01*
X0207600Y0044885D01*
X0209885Y0042600D01*
X0213115Y0042600D01*
X0214951Y0044436D02*
X0228049Y0044436D01*
X0227600Y0045434D02*
X0215400Y0045434D01*
X0215400Y0046433D02*
X0227600Y0046433D01*
X0227600Y0047432D02*
X0215400Y0047432D01*
X0215085Y0048430D02*
X0227915Y0048430D01*
X0228913Y0049429D02*
X0214087Y0049429D01*
X0208913Y0049429D02*
X0177257Y0049429D01*
X0178255Y0050427D02*
X0254500Y0050427D01*
X0254500Y0049429D02*
X0234087Y0049429D01*
X0245617Y0038445D02*
X0125070Y0038445D01*
X0125400Y0038115D02*
X0123115Y0040400D01*
X0119885Y0040400D01*
X0117600Y0038115D01*
X0117600Y0034885D01*
X0119885Y0032600D01*
X0123115Y0032600D01*
X0125400Y0034885D01*
X0125400Y0038115D01*
X0125400Y0037446D02*
X0244618Y0037446D01*
X0243619Y0036448D02*
X0243143Y0036448D01*
X0239857Y0036448D02*
X0213143Y0036448D01*
X0214905Y0035449D02*
X0238095Y0035449D01*
X0237097Y0034451D02*
X0215903Y0034451D01*
X0209857Y0036448D02*
X0125400Y0036448D01*
X0125400Y0035449D02*
X0208095Y0035449D01*
X0207097Y0034451D02*
X0124966Y0034451D01*
X0123968Y0033452D02*
X0206680Y0033452D01*
X0206300Y0032454D02*
X0003968Y0032454D01*
X0003968Y0033452D02*
X0099274Y0033452D01*
X0098037Y0034451D02*
X0003968Y0034451D01*
X0003968Y0035449D02*
X0097343Y0035449D01*
X0096929Y0036448D02*
X0003968Y0036448D01*
X0003968Y0037446D02*
X0096850Y0037446D01*
X0096850Y0038445D02*
X0003968Y0038445D01*
X0003968Y0039443D02*
X0097246Y0039443D01*
X0097803Y0040442D02*
X0003968Y0040442D01*
X0003968Y0041440D02*
X0098802Y0041440D01*
X0097931Y0042439D02*
X0003968Y0042439D01*
X0003968Y0043437D02*
X0097300Y0043437D01*
X0096951Y0044436D02*
X0003968Y0044436D01*
X0003968Y0045434D02*
X0101311Y0045434D01*
X0101689Y0045434D02*
X0113737Y0045434D01*
X0114736Y0044436D02*
X0106049Y0044436D01*
X0105700Y0043437D02*
X0115734Y0043437D01*
X0116733Y0042439D02*
X0105069Y0042439D01*
X0104198Y0041440D02*
X0117731Y0041440D01*
X0118928Y0039443D02*
X0105754Y0039443D01*
X0106150Y0038445D02*
X0117930Y0038445D01*
X0117600Y0037446D02*
X0106150Y0037446D01*
X0106071Y0036448D02*
X0117600Y0036448D01*
X0117600Y0035449D02*
X0105657Y0035449D01*
X0104963Y0034451D02*
X0118034Y0034451D01*
X0119032Y0033452D02*
X0103726Y0033452D01*
X0105197Y0040442D02*
X0247614Y0040442D01*
X0248612Y0041440D02*
X0169269Y0041440D01*
X0170267Y0042439D02*
X0249611Y0042439D01*
X0252272Y0039443D02*
X0257246Y0039443D01*
X0256850Y0038445D02*
X0251273Y0038445D01*
X0250275Y0037446D02*
X0256850Y0037446D01*
X0256929Y0036448D02*
X0249276Y0036448D01*
X0248278Y0035449D02*
X0257343Y0035449D01*
X0258037Y0034451D02*
X0247279Y0034451D01*
X0246320Y0033452D02*
X0259274Y0033452D01*
X0257803Y0040442D02*
X0253270Y0040442D01*
X0254269Y0041440D02*
X0258802Y0041440D01*
X0257923Y0042439D02*
X0255267Y0042439D01*
X0256266Y0043437D02*
X0257296Y0043437D01*
X0246615Y0039443D02*
X0124072Y0039443D01*
X0125400Y0045434D02*
X0167606Y0045434D01*
X0171266Y0043437D02*
X0209047Y0043437D01*
X0208049Y0044436D02*
X0172264Y0044436D01*
X0173263Y0045434D02*
X0207600Y0045434D01*
X0207600Y0046433D02*
X0174261Y0046433D01*
X0175260Y0047432D02*
X0207600Y0047432D01*
X0207915Y0048430D02*
X0176258Y0048430D01*
X0189334Y0056418D02*
X0193666Y0056418D01*
X0192976Y0057417D02*
X0190024Y0057417D01*
X0190400Y0058415D02*
X0192600Y0058415D01*
X0192600Y0059414D02*
X0190400Y0059414D01*
X0190400Y0060412D02*
X0192600Y0060412D01*
X0192600Y0061411D02*
X0190400Y0061411D01*
X0190400Y0062409D02*
X0192600Y0062409D01*
X0192600Y0063408D02*
X0190400Y0063408D01*
X0190400Y0064406D02*
X0192600Y0064406D01*
X0192902Y0065405D02*
X0190098Y0065405D01*
X0189512Y0066403D02*
X0193488Y0066403D01*
X0194763Y0067402D02*
X0188237Y0067402D01*
X0198237Y0067402D02*
X0204763Y0067402D01*
X0203488Y0066403D02*
X0199512Y0066403D01*
X0200098Y0065405D02*
X0202902Y0065405D01*
X0202600Y0064406D02*
X0200400Y0064406D01*
X0200400Y0063408D02*
X0202600Y0063408D01*
X0202600Y0062409D02*
X0200400Y0062409D01*
X0200400Y0061411D02*
X0202600Y0061411D01*
X0202600Y0060412D02*
X0200400Y0060412D01*
X0200400Y0059414D02*
X0202600Y0059414D01*
X0202600Y0058415D02*
X0200400Y0058415D01*
X0200024Y0057417D02*
X0202976Y0057417D01*
X0203666Y0056418D02*
X0199334Y0056418D01*
X0209334Y0056418D02*
X0213666Y0056418D01*
X0212976Y0057417D02*
X0210024Y0057417D01*
X0210400Y0058415D02*
X0212600Y0058415D01*
X0212600Y0059414D02*
X0210400Y0059414D01*
X0210400Y0060412D02*
X0212600Y0060412D01*
X0212600Y0061411D02*
X0210400Y0061411D01*
X0210400Y0062409D02*
X0212600Y0062409D01*
X0212600Y0063408D02*
X0210400Y0063408D01*
X0210400Y0064406D02*
X0212600Y0064406D01*
X0212902Y0065405D02*
X0210098Y0065405D01*
X0209512Y0066403D02*
X0213488Y0066403D01*
X0214763Y0067402D02*
X0208237Y0067402D01*
X0209289Y0086373D02*
X0213711Y0086373D01*
X0212994Y0087372D02*
X0210006Y0087372D01*
X0210400Y0088370D02*
X0212600Y0088370D01*
X0212600Y0089369D02*
X0210400Y0089369D01*
X0210400Y0090368D02*
X0212600Y0090368D01*
X0212600Y0091366D02*
X0210400Y0091366D01*
X0210400Y0092365D02*
X0212600Y0092365D01*
X0212600Y0093363D02*
X0210400Y0093363D01*
X0210400Y0094362D02*
X0212600Y0094362D01*
X0212883Y0095360D02*
X0210117Y0095360D01*
X0209557Y0096359D02*
X0213443Y0096359D01*
X0214655Y0097357D02*
X0208345Y0097357D01*
X0204655Y0097357D02*
X0198345Y0097357D01*
X0199557Y0096359D02*
X0203443Y0096359D01*
X0202883Y0095360D02*
X0200117Y0095360D01*
X0200400Y0094362D02*
X0202600Y0094362D01*
X0202600Y0093363D02*
X0200400Y0093363D01*
X0200400Y0092365D02*
X0202600Y0092365D01*
X0202600Y0091366D02*
X0200400Y0091366D01*
X0200400Y0090368D02*
X0202600Y0090368D01*
X0202600Y0089369D02*
X0200400Y0089369D01*
X0200400Y0088370D02*
X0202600Y0088370D01*
X0202994Y0087372D02*
X0200006Y0087372D01*
X0199289Y0086373D02*
X0203711Y0086373D01*
X0193711Y0086373D02*
X0189289Y0086373D01*
X0190006Y0087372D02*
X0192994Y0087372D01*
X0192600Y0088370D02*
X0190400Y0088370D01*
X0190400Y0089369D02*
X0192600Y0089369D01*
X0192600Y0090368D02*
X0190400Y0090368D01*
X0190400Y0091366D02*
X0192600Y0091366D01*
X0192600Y0092365D02*
X0190400Y0092365D01*
X0190400Y0093363D02*
X0192600Y0093363D01*
X0192600Y0094362D02*
X0190400Y0094362D01*
X0190117Y0095360D02*
X0192883Y0095360D01*
X0193443Y0096359D02*
X0189557Y0096359D01*
X0188345Y0097357D02*
X0194655Y0097357D01*
X0178500Y0101500D02*
X0168500Y0091500D01*
X0166500Y0091500D01*
X0162600Y0091366D02*
X0160400Y0091366D01*
X0160400Y0090368D02*
X0162600Y0090368D01*
X0162600Y0089369D02*
X0160400Y0089369D01*
X0160400Y0088370D02*
X0162600Y0088370D01*
X0162994Y0087372D02*
X0160006Y0087372D01*
X0159289Y0086373D02*
X0163711Y0086373D01*
X0165302Y0085375D02*
X0157698Y0085375D01*
X0155302Y0085375D02*
X0147698Y0085375D01*
X0146800Y0085375D02*
X0146200Y0085375D01*
X0145302Y0085375D02*
X0137698Y0085375D01*
X0139289Y0086373D02*
X0143711Y0086373D01*
X0142994Y0087372D02*
X0140006Y0087372D01*
X0140400Y0088370D02*
X0142669Y0088370D01*
X0142600Y0089369D02*
X0140400Y0089369D01*
X0146200Y0089369D02*
X0146800Y0089369D01*
X0146800Y0090368D02*
X0146200Y0090368D01*
X0146200Y0088370D02*
X0146800Y0088370D01*
X0146800Y0087372D02*
X0146200Y0087372D01*
X0146200Y0086373D02*
X0146800Y0086373D01*
X0149289Y0086373D02*
X0153711Y0086373D01*
X0152994Y0087372D02*
X0150006Y0087372D01*
X0150331Y0088370D02*
X0152600Y0088370D01*
X0152600Y0089369D02*
X0150400Y0089369D01*
X0146500Y0081500D02*
X0146500Y0069500D01*
X0158237Y0067402D02*
X0164763Y0067402D01*
X0163488Y0066403D02*
X0159512Y0066403D01*
X0160098Y0065405D02*
X0162902Y0065405D01*
X0162600Y0064406D02*
X0160400Y0064406D01*
X0160400Y0063408D02*
X0162600Y0063408D01*
X0162600Y0062409D02*
X0160400Y0062409D01*
X0160400Y0061411D02*
X0162600Y0061411D01*
X0162600Y0060412D02*
X0160400Y0060412D01*
X0160400Y0059414D02*
X0162600Y0059414D01*
X0162600Y0058415D02*
X0160400Y0058415D01*
X0160024Y0057417D02*
X0162976Y0057417D01*
X0163666Y0056418D02*
X0159334Y0056418D01*
X0135194Y0055420D02*
X0133248Y0055420D01*
X0130587Y0058415D02*
X0130400Y0058415D01*
X0130400Y0059414D02*
X0131585Y0059414D01*
X0132584Y0060412D02*
X0130400Y0060412D01*
X0117915Y0048430D02*
X0116398Y0048430D01*
X0117397Y0047432D02*
X0117600Y0047432D01*
X0112739Y0046433D02*
X0106050Y0046433D01*
X0105702Y0047432D02*
X0111740Y0047432D01*
X0110742Y0048430D02*
X0105073Y0048430D01*
X0111500Y0050500D02*
X0053500Y0050500D01*
X0012500Y0091500D01*
X0012500Y0140500D01*
X0019500Y0147500D01*
X0022500Y0147500D01*
X0032500Y0157500D01*
X0032996Y0158232D01*
X0027442Y0155271D02*
X0024521Y0155271D01*
X0024935Y0154272D02*
X0026444Y0154272D01*
X0025445Y0153274D02*
X0025047Y0153274D01*
X0028107Y0150278D02*
X0029663Y0150278D01*
X0029249Y0149280D02*
X0027108Y0149280D01*
X0026110Y0148281D02*
X0029134Y0148281D01*
X0029209Y0147283D02*
X0025111Y0147283D01*
X0024113Y0146284D02*
X0029623Y0146284D01*
X0030481Y0145286D02*
X0024515Y0145286D01*
X0024929Y0144287D02*
X0041064Y0144287D01*
X0041477Y0145286D02*
X0035511Y0145286D01*
X0036370Y0146284D02*
X0042397Y0146284D01*
X0047315Y0150278D02*
X0053285Y0150278D01*
X0052872Y0149280D02*
X0036743Y0149280D01*
X0030578Y0151277D02*
X0029105Y0151277D01*
X0030593Y0141292D02*
X0024562Y0141292D01*
X0023708Y0140293D02*
X0029669Y0140293D01*
X0029256Y0139295D02*
X0014500Y0139295D01*
X0014500Y0138296D02*
X0029134Y0138296D01*
X0029203Y0137298D02*
X0014500Y0137298D01*
X0014500Y0136299D02*
X0018790Y0136299D01*
X0017861Y0135301D02*
X0014500Y0135301D01*
X0014500Y0134302D02*
X0017448Y0134302D01*
X0018662Y0140293D02*
X0015121Y0140293D01*
X0016120Y0141292D02*
X0017808Y0141292D01*
X0017395Y0142290D02*
X0017119Y0142290D01*
X0023580Y0136299D02*
X0029616Y0136299D01*
X0030466Y0135301D02*
X0024509Y0135301D01*
X0032996Y0128232D02*
X0033500Y0127500D01*
X0033500Y0097500D01*
X0027500Y0104347D02*
X0024707Y0104347D01*
X0025706Y0105345D02*
X0027500Y0105345D01*
X0027500Y0106344D02*
X0026704Y0106344D01*
X0015628Y0117327D02*
X0014500Y0117327D01*
X0014500Y0116329D02*
X0014630Y0116329D01*
X0014500Y0118326D02*
X0016627Y0118326D01*
X0017625Y0119324D02*
X0014500Y0119324D01*
X0035384Y0131306D02*
X0035500Y0131306D01*
X0039500Y0130308D02*
X0042269Y0130308D01*
X0041449Y0131306D02*
X0040135Y0131306D01*
X0039500Y0129309D02*
X0052756Y0129309D01*
X0052756Y0128311D02*
X0039500Y0128311D01*
X0039500Y0127312D02*
X0052756Y0127312D01*
X0052756Y0126314D02*
X0039500Y0126314D01*
X0039500Y0125315D02*
X0052756Y0125315D01*
X0052756Y0130308D02*
X0047345Y0130308D01*
X0048165Y0131306D02*
X0052847Y0131306D01*
X0055868Y0133303D02*
X0045095Y0133303D01*
X0045094Y0132305D02*
X0044520Y0132305D01*
X0044520Y0131306D02*
X0045094Y0131306D01*
X0045094Y0130308D02*
X0044520Y0130308D01*
X0048560Y0132305D02*
X0056867Y0132305D01*
X0057500Y0134500D02*
X0082500Y0109500D01*
X0082500Y0095500D01*
X0086500Y0091500D01*
X0090400Y0091366D02*
X0090500Y0091366D01*
X0090500Y0090368D02*
X0090400Y0090368D01*
X0090400Y0089369D02*
X0090500Y0089369D01*
X0090500Y0088370D02*
X0090400Y0088370D01*
X0090500Y0087372D02*
X0090006Y0087372D01*
X0090500Y0086373D02*
X0089289Y0086373D01*
X0090400Y0092365D02*
X0090500Y0092365D01*
X0090500Y0093363D02*
X0090400Y0093363D01*
X0090400Y0094362D02*
X0090500Y0094362D01*
X0090500Y0095360D02*
X0090117Y0095360D01*
X0090500Y0096359D02*
X0089557Y0096359D01*
X0090500Y0097357D02*
X0088345Y0097357D01*
X0090500Y0098356D02*
X0084500Y0098356D01*
X0084500Y0099354D02*
X0090500Y0099354D01*
X0090500Y0100353D02*
X0084500Y0100353D01*
X0084500Y0101351D02*
X0090500Y0101351D01*
X0090500Y0102350D02*
X0084500Y0102350D01*
X0088864Y0103348D02*
X0090500Y0103348D01*
X0090500Y0104347D02*
X0089862Y0104347D01*
X0090400Y0105345D02*
X0090500Y0105345D01*
X0090500Y0106344D02*
X0090400Y0106344D01*
X0090400Y0107342D02*
X0090500Y0107342D01*
X0090500Y0108341D02*
X0090175Y0108341D01*
X0090500Y0109339D02*
X0089176Y0109339D01*
X0088178Y0110338D02*
X0090500Y0110338D01*
X0090500Y0111336D02*
X0083492Y0111336D01*
X0084491Y0110338D02*
X0084822Y0110338D01*
X0082494Y0112335D02*
X0090500Y0112335D01*
X0090500Y0113333D02*
X0088849Y0113333D01*
X0089847Y0114332D02*
X0090500Y0114332D01*
X0090500Y0115330D02*
X0090400Y0115330D01*
X0086800Y0115330D02*
X0086200Y0115330D01*
X0086200Y0114332D02*
X0086800Y0114332D01*
X0086800Y0113333D02*
X0086200Y0113333D01*
X0084151Y0113333D02*
X0081495Y0113333D01*
X0080497Y0114332D02*
X0083153Y0114332D01*
X0082600Y0115330D02*
X0079498Y0115330D01*
X0078500Y0116329D02*
X0086200Y0116329D01*
X0086500Y0116500D02*
X0084500Y0116500D01*
X0058500Y0142500D01*
X0054500Y0142500D01*
X0054215Y0141292D02*
X0048184Y0141292D01*
X0048597Y0142290D02*
X0063881Y0142290D01*
X0062883Y0143289D02*
X0048669Y0143289D01*
X0048551Y0144287D02*
X0061884Y0144287D01*
X0060886Y0145286D02*
X0059133Y0145286D01*
X0059021Y0141292D02*
X0064880Y0141292D01*
X0065878Y0140293D02*
X0059945Y0140293D01*
X0060359Y0139295D02*
X0066877Y0139295D01*
X0067876Y0138296D02*
X0060480Y0138296D01*
X0060411Y0137298D02*
X0068874Y0137298D01*
X0069873Y0136299D02*
X0059998Y0136299D01*
X0059528Y0135301D02*
X0070871Y0135301D01*
X0071870Y0134302D02*
X0060526Y0134302D01*
X0061525Y0133303D02*
X0072868Y0133303D01*
X0073867Y0132305D02*
X0062523Y0132305D01*
X0063522Y0131306D02*
X0074865Y0131306D01*
X0075864Y0130308D02*
X0064520Y0130308D01*
X0065519Y0129309D02*
X0076862Y0129309D01*
X0077861Y0128311D02*
X0066517Y0128311D01*
X0067516Y0127312D02*
X0078859Y0127312D01*
X0079858Y0126314D02*
X0068514Y0126314D01*
X0069513Y0125315D02*
X0080856Y0125315D01*
X0081855Y0124317D02*
X0070512Y0124317D01*
X0071510Y0123318D02*
X0082853Y0123318D01*
X0083852Y0122320D02*
X0072509Y0122320D01*
X0073507Y0121321D02*
X0084850Y0121321D01*
X0084807Y0120323D02*
X0074506Y0120323D01*
X0075504Y0119324D02*
X0083809Y0119324D01*
X0082810Y0118326D02*
X0076503Y0118326D01*
X0077501Y0117327D02*
X0082600Y0117327D01*
X0077835Y0111336D02*
X0052606Y0111336D01*
X0052606Y0110338D02*
X0078834Y0110338D01*
X0079832Y0109339D02*
X0052606Y0109339D01*
X0052323Y0108341D02*
X0080500Y0108341D01*
X0080500Y0107342D02*
X0051325Y0107342D01*
X0050326Y0106344D02*
X0080500Y0106344D01*
X0080500Y0105345D02*
X0049328Y0105345D01*
X0048329Y0104347D02*
X0080500Y0104347D01*
X0084500Y0097357D02*
X0084655Y0097357D01*
X0099500Y0096500D02*
X0100500Y0095500D01*
X0100500Y0079500D01*
X0099500Y0078500D01*
X0104500Y0079384D02*
X0228101Y0079384D01*
X0227600Y0080382D02*
X0104500Y0080382D01*
X0104500Y0085375D02*
X0105302Y0085375D01*
X0107698Y0085375D02*
X0115302Y0085375D01*
X0113711Y0086373D02*
X0109289Y0086373D01*
X0110006Y0087372D02*
X0112994Y0087372D01*
X0112600Y0088370D02*
X0110400Y0088370D01*
X0110400Y0089369D02*
X0112600Y0089369D01*
X0112600Y0090368D02*
X0110400Y0090368D01*
X0110400Y0091366D02*
X0112600Y0091366D01*
X0112600Y0092365D02*
X0110400Y0092365D01*
X0110400Y0093363D02*
X0112600Y0093363D01*
X0112600Y0094362D02*
X0110400Y0094362D01*
X0110117Y0095360D02*
X0112883Y0095360D01*
X0112813Y0096359D02*
X0109557Y0096359D01*
X0108345Y0097357D02*
X0111814Y0097357D01*
X0110816Y0098356D02*
X0103500Y0098356D01*
X0103500Y0099354D02*
X0109817Y0099354D01*
X0108819Y0100353D02*
X0103500Y0100353D01*
X0103500Y0101351D02*
X0107820Y0101351D01*
X0106822Y0102350D02*
X0103500Y0102350D01*
X0103500Y0103348D02*
X0105823Y0103348D01*
X0104825Y0104347D02*
X0103500Y0104347D01*
X0103500Y0105345D02*
X0103826Y0105345D01*
X0105500Y0109500D02*
X0109500Y0105500D01*
X0114476Y0100353D02*
X0134524Y0100353D01*
X0133526Y0099354D02*
X0115474Y0099354D01*
X0116473Y0098356D02*
X0132527Y0098356D01*
X0131529Y0097357D02*
X0128345Y0097357D01*
X0129557Y0096359D02*
X0130530Y0096359D01*
X0128500Y0091500D02*
X0126500Y0091500D01*
X0122600Y0092365D02*
X0120400Y0092365D01*
X0120400Y0093363D02*
X0122600Y0093363D01*
X0122600Y0094362D02*
X0120400Y0094362D01*
X0120117Y0095360D02*
X0122883Y0095360D01*
X0123443Y0096359D02*
X0119557Y0096359D01*
X0118345Y0097357D02*
X0124655Y0097357D01*
X0126477Y0113333D02*
X0126523Y0113333D01*
X0126936Y0114332D02*
X0126064Y0114332D01*
X0125165Y0115330D02*
X0127835Y0115330D01*
X0129308Y0116329D02*
X0123692Y0116329D01*
X0119308Y0116329D02*
X0113692Y0116329D01*
X0115165Y0115330D02*
X0117835Y0115330D01*
X0116936Y0114332D02*
X0116064Y0114332D01*
X0116477Y0113333D02*
X0116523Y0113333D01*
X0106500Y0114500D02*
X0105500Y0113500D01*
X0105500Y0109500D01*
X0106500Y0114500D02*
X0106500Y0150500D01*
X0101500Y0150278D02*
X0073550Y0150278D01*
X0072552Y0151277D02*
X0101500Y0151277D01*
X0101500Y0152275D02*
X0071553Y0152275D01*
X0070555Y0153274D02*
X0101500Y0153274D01*
X0101500Y0154272D02*
X0069556Y0154272D01*
X0068558Y0155271D02*
X0101500Y0155271D01*
X0101500Y0156269D02*
X0067559Y0156269D01*
X0066561Y0157268D02*
X0101500Y0157268D01*
X0101500Y0158266D02*
X0065562Y0158266D01*
X0064564Y0159265D02*
X0101500Y0159265D01*
X0101500Y0160263D02*
X0063565Y0160263D01*
X0062567Y0161262D02*
X0101500Y0161262D01*
X0101500Y0162260D02*
X0061568Y0162260D01*
X0060570Y0163259D02*
X0101500Y0163259D01*
X0101500Y0164257D02*
X0059571Y0164257D01*
X0053429Y0164257D02*
X0003968Y0164257D01*
X0003968Y0163259D02*
X0052430Y0163259D01*
X0056618Y0158232D02*
X0057500Y0157500D01*
X0057500Y0154500D01*
X0099500Y0112500D01*
X0099500Y0096500D01*
X0104471Y0097357D02*
X0104655Y0097357D01*
X0101500Y0123318D02*
X0100510Y0123318D01*
X0101500Y0124317D02*
X0099512Y0124317D01*
X0098513Y0125315D02*
X0101500Y0125315D01*
X0101500Y0126314D02*
X0097514Y0126314D01*
X0096516Y0127312D02*
X0101500Y0127312D01*
X0101500Y0128311D02*
X0095517Y0128311D01*
X0094519Y0129309D02*
X0101500Y0129309D01*
X0101500Y0130308D02*
X0093520Y0130308D01*
X0092522Y0131306D02*
X0101500Y0131306D01*
X0101500Y0132305D02*
X0091523Y0132305D01*
X0090525Y0133303D02*
X0101500Y0133303D01*
X0101500Y0134302D02*
X0089526Y0134302D01*
X0088528Y0135301D02*
X0101500Y0135301D01*
X0101500Y0136299D02*
X0087529Y0136299D01*
X0086531Y0137298D02*
X0101500Y0137298D01*
X0101500Y0138296D02*
X0085532Y0138296D01*
X0084534Y0139295D02*
X0101500Y0139295D01*
X0101500Y0140293D02*
X0083535Y0140293D01*
X0082537Y0141292D02*
X0101500Y0141292D01*
X0101500Y0142290D02*
X0081538Y0142290D01*
X0080540Y0143289D02*
X0101500Y0143289D01*
X0101500Y0144287D02*
X0079541Y0144287D01*
X0078543Y0145286D02*
X0101500Y0145286D01*
X0101500Y0146284D02*
X0077544Y0146284D01*
X0076546Y0147283D02*
X0101500Y0147283D01*
X0101500Y0148281D02*
X0075547Y0148281D01*
X0074549Y0149280D02*
X0101500Y0149280D01*
X0102427Y0165256D02*
X0003968Y0165256D01*
X0003968Y0166254D02*
X0103426Y0166254D01*
X0104424Y0167253D02*
X0048479Y0167253D01*
X0049478Y0168251D02*
X0105423Y0168251D01*
X0106421Y0169250D02*
X0050476Y0169250D01*
X0051475Y0170248D02*
X0106282Y0170248D01*
X0106200Y0171247D02*
X0052474Y0171247D01*
X0052606Y0172245D02*
X0106200Y0172245D01*
X0106486Y0173244D02*
X0052606Y0173244D01*
X0045307Y0172245D02*
X0044307Y0172245D01*
X0044307Y0171247D02*
X0045307Y0171247D01*
X0045307Y0170248D02*
X0044307Y0170248D01*
X0044307Y0169250D02*
X0045307Y0169250D01*
X0045307Y0168251D02*
X0044307Y0168251D01*
X0044307Y0167253D02*
X0045307Y0167253D01*
X0041135Y0167253D02*
X0024857Y0167253D01*
X0025856Y0168251D02*
X0040136Y0168251D01*
X0039138Y0169250D02*
X0026854Y0169250D01*
X0027853Y0170248D02*
X0038139Y0170248D01*
X0037141Y0171247D02*
X0028851Y0171247D01*
X0028984Y0172245D02*
X0037008Y0172245D01*
X0037008Y0173244D02*
X0028984Y0173244D01*
X0028984Y0175241D02*
X0037008Y0175241D01*
X0037008Y0175110D02*
X0044307Y0175110D01*
X0044307Y0182409D01*
X0041577Y0182409D01*
X0037008Y0177841D01*
X0037008Y0175110D01*
X0037008Y0176239D02*
X0028984Y0176239D01*
X0028984Y0177238D02*
X0037008Y0177238D01*
X0037404Y0178237D02*
X0028588Y0178237D01*
X0027590Y0179235D02*
X0038402Y0179235D01*
X0039401Y0180234D02*
X0026591Y0180234D01*
X0025593Y0181232D02*
X0040399Y0181232D01*
X0041398Y0182231D02*
X0024594Y0182231D01*
X0016777Y0181232D02*
X0003968Y0181232D01*
X0003968Y0180234D02*
X0015779Y0180234D01*
X0014780Y0179235D02*
X0003968Y0179235D01*
X0003968Y0178237D02*
X0013782Y0178237D01*
X0013386Y0177238D02*
X0003968Y0177238D01*
X0003968Y0176239D02*
X0013386Y0176239D01*
X0013386Y0175241D02*
X0003968Y0175241D01*
X0003968Y0184228D02*
X0149500Y0184228D01*
X0149500Y0185226D02*
X0003968Y0185226D01*
X0003968Y0186225D02*
X0149500Y0186225D01*
X0149500Y0187223D02*
X0003968Y0187223D01*
X0003968Y0188222D02*
X0134263Y0188222D01*
X0134885Y0187600D02*
X0138115Y0187600D01*
X0140400Y0189885D01*
X0140400Y0193115D01*
X0138115Y0195400D01*
X0134885Y0195400D01*
X0132600Y0193115D01*
X0132600Y0189885D01*
X0134885Y0187600D01*
X0133264Y0189220D02*
X0003968Y0189220D01*
X0003968Y0190219D02*
X0132600Y0190219D01*
X0132600Y0191217D02*
X0003968Y0191217D01*
X0003968Y0192216D02*
X0050908Y0192216D01*
X0052512Y0191551D02*
X0049289Y0192886D01*
X0046823Y0195352D01*
X0045488Y0198575D01*
X0045488Y0202063D01*
X0046823Y0205285D01*
X0049289Y0207752D01*
X0052512Y0209087D01*
X0056000Y0209087D01*
X0059222Y0207752D01*
X0061689Y0205285D01*
X0063024Y0202063D01*
X0063024Y0198575D01*
X0061689Y0195352D01*
X0059222Y0192886D01*
X0056000Y0191551D01*
X0052512Y0191551D01*
X0048961Y0193214D02*
X0036697Y0193214D01*
X0037517Y0193554D02*
X0034583Y0192339D01*
X0031409Y0192339D01*
X0028476Y0193554D01*
X0026231Y0195798D01*
X0025016Y0198732D01*
X0025016Y0201906D01*
X0026231Y0204839D01*
X0028476Y0207084D01*
X0031409Y0208299D01*
X0034583Y0208299D01*
X0037517Y0207084D01*
X0039761Y0204839D01*
X0040976Y0201906D01*
X0040976Y0198732D01*
X0039761Y0195798D01*
X0037517Y0193554D01*
X0038176Y0194213D02*
X0047963Y0194213D01*
X0046964Y0195211D02*
X0039174Y0195211D01*
X0039932Y0196210D02*
X0046468Y0196210D01*
X0046054Y0197208D02*
X0040345Y0197208D01*
X0040759Y0198207D02*
X0045641Y0198207D01*
X0045488Y0199205D02*
X0040976Y0199205D01*
X0040976Y0200204D02*
X0045488Y0200204D01*
X0045488Y0201202D02*
X0040976Y0201202D01*
X0040854Y0202201D02*
X0045545Y0202201D01*
X0045959Y0203199D02*
X0040441Y0203199D01*
X0040027Y0204198D02*
X0046373Y0204198D01*
X0046786Y0205196D02*
X0039405Y0205196D01*
X0038406Y0206195D02*
X0047732Y0206195D01*
X0048731Y0207193D02*
X0037253Y0207193D01*
X0034843Y0208192D02*
X0050352Y0208192D01*
X0058160Y0208192D02*
X0134293Y0208192D01*
X0134885Y0207600D02*
X0138115Y0207600D01*
X0140400Y0209885D01*
X0140400Y0213115D01*
X0138115Y0215400D01*
X0134885Y0215400D01*
X0132600Y0213115D01*
X0132600Y0209885D01*
X0134885Y0207600D01*
X0134885Y0205400D02*
X0132600Y0203115D01*
X0132600Y0199885D01*
X0134885Y0197600D01*
X0138115Y0197600D01*
X0140400Y0199885D01*
X0140400Y0203115D01*
X0138115Y0205400D01*
X0134885Y0205400D01*
X0134681Y0205196D02*
X0061726Y0205196D01*
X0062139Y0204198D02*
X0133682Y0204198D01*
X0132684Y0203199D02*
X0062553Y0203199D01*
X0062967Y0202201D02*
X0132600Y0202201D01*
X0132600Y0201202D02*
X0063024Y0201202D01*
X0063024Y0200204D02*
X0132600Y0200204D01*
X0133279Y0199205D02*
X0063024Y0199205D01*
X0062871Y0198207D02*
X0134278Y0198207D01*
X0134696Y0195211D02*
X0061548Y0195211D01*
X0062044Y0196210D02*
X0149500Y0196210D01*
X0149500Y0197208D02*
X0062458Y0197208D01*
X0060549Y0194213D02*
X0133697Y0194213D01*
X0132699Y0193214D02*
X0059551Y0193214D01*
X0057604Y0192216D02*
X0132600Y0192216D01*
X0138304Y0195211D02*
X0149500Y0195211D01*
X0149500Y0194213D02*
X0139303Y0194213D01*
X0140301Y0193214D02*
X0149500Y0193214D01*
X0149500Y0192216D02*
X0140400Y0192216D01*
X0140400Y0191217D02*
X0149500Y0191217D01*
X0149500Y0190219D02*
X0140400Y0190219D01*
X0139736Y0189220D02*
X0149500Y0189220D01*
X0149500Y0188222D02*
X0138737Y0188222D01*
X0138722Y0198207D02*
X0149500Y0198207D01*
X0149500Y0199205D02*
X0139721Y0199205D01*
X0140400Y0200204D02*
X0149500Y0200204D01*
X0149500Y0201202D02*
X0140400Y0201202D01*
X0140400Y0202201D02*
X0149500Y0202201D01*
X0149500Y0203199D02*
X0140316Y0203199D01*
X0139318Y0204198D02*
X0149500Y0204198D01*
X0149500Y0205196D02*
X0138319Y0205196D01*
X0138707Y0208192D02*
X0146980Y0208192D01*
X0147978Y0207193D02*
X0059781Y0207193D01*
X0060779Y0206195D02*
X0148977Y0206195D01*
X0151638Y0209190D02*
X0153294Y0209190D01*
X0152637Y0208192D02*
X0154293Y0208192D01*
X0153500Y0207193D02*
X0166978Y0207193D01*
X0167977Y0206195D02*
X0153500Y0206195D01*
X0153500Y0205196D02*
X0154681Y0205196D01*
X0153682Y0204198D02*
X0153500Y0204198D01*
X0158319Y0205196D02*
X0168975Y0205196D01*
X0168682Y0204198D02*
X0159318Y0204198D01*
X0160316Y0203199D02*
X0167684Y0203199D01*
X0167600Y0202201D02*
X0160400Y0202201D01*
X0160400Y0201202D02*
X0167600Y0201202D01*
X0167600Y0200204D02*
X0160400Y0200204D01*
X0159721Y0199205D02*
X0168279Y0199205D01*
X0169278Y0198207D02*
X0158722Y0198207D01*
X0158304Y0195211D02*
X0169500Y0195211D01*
X0169500Y0194213D02*
X0159303Y0194213D01*
X0160301Y0193214D02*
X0169500Y0193214D01*
X0169500Y0192216D02*
X0160400Y0192216D01*
X0160400Y0191217D02*
X0169500Y0191217D01*
X0169500Y0190219D02*
X0160400Y0190219D01*
X0159736Y0189220D02*
X0169500Y0189220D01*
X0169500Y0188222D02*
X0158737Y0188222D01*
X0154263Y0188222D02*
X0153500Y0188222D01*
X0153500Y0187223D02*
X0169500Y0187223D01*
X0169500Y0186225D02*
X0153500Y0186225D01*
X0153500Y0185226D02*
X0169500Y0185226D01*
X0169500Y0184228D02*
X0153500Y0184228D01*
X0153500Y0183229D02*
X0169500Y0183229D01*
X0169402Y0182231D02*
X0153500Y0182231D01*
X0153500Y0181232D02*
X0168404Y0181232D01*
X0167405Y0180234D02*
X0153500Y0180234D01*
X0153500Y0179235D02*
X0166407Y0179235D01*
X0165408Y0178237D02*
X0153500Y0178237D01*
X0153500Y0177238D02*
X0164410Y0177238D01*
X0159093Y0176239D02*
X0153907Y0176239D01*
X0155254Y0175241D02*
X0157746Y0175241D01*
X0156899Y0174242D02*
X0156101Y0174242D01*
X0156305Y0169250D02*
X0156695Y0169250D01*
X0157253Y0168251D02*
X0155747Y0168251D01*
X0154748Y0167253D02*
X0158252Y0167253D01*
X0160314Y0166254D02*
X0152685Y0166254D01*
X0162685Y0166254D02*
X0170314Y0166254D01*
X0168252Y0167253D02*
X0164748Y0167253D01*
X0165747Y0168251D02*
X0167253Y0168251D01*
X0166695Y0169250D02*
X0166305Y0169250D01*
X0161500Y0171500D02*
X0171500Y0181500D01*
X0171500Y0201500D01*
X0171500Y0205500D02*
X0180500Y0205500D01*
X0192500Y0193500D01*
X0192500Y0187500D01*
X0202500Y0177500D01*
X0265500Y0177500D01*
X0271500Y0171500D01*
X0268252Y0167253D02*
X0264748Y0167253D01*
X0265747Y0168251D02*
X0267253Y0168251D01*
X0266695Y0169250D02*
X0266305Y0169250D01*
X0262685Y0166254D02*
X0270314Y0166254D01*
X0260314Y0166254D02*
X0252685Y0166254D01*
X0254748Y0167253D02*
X0258252Y0167253D01*
X0257253Y0168251D02*
X0255747Y0168251D01*
X0256305Y0169250D02*
X0256695Y0169250D01*
X0250314Y0166254D02*
X0242685Y0166254D01*
X0244748Y0167253D02*
X0248252Y0167253D01*
X0247253Y0168251D02*
X0245747Y0168251D01*
X0246305Y0169250D02*
X0246695Y0169250D01*
X0240314Y0166254D02*
X0232685Y0166254D01*
X0234748Y0167253D02*
X0238252Y0167253D01*
X0237253Y0168251D02*
X0235747Y0168251D01*
X0236305Y0169250D02*
X0236695Y0169250D01*
X0230314Y0166254D02*
X0222685Y0166254D01*
X0224748Y0167253D02*
X0228252Y0167253D01*
X0227253Y0168251D02*
X0225747Y0168251D01*
X0226305Y0169250D02*
X0226695Y0169250D01*
X0220314Y0166254D02*
X0212685Y0166254D01*
X0214748Y0167253D02*
X0218252Y0167253D01*
X0217253Y0168251D02*
X0215747Y0168251D01*
X0216305Y0169250D02*
X0216695Y0169250D01*
X0210314Y0166254D02*
X0202685Y0166254D01*
X0204748Y0167253D02*
X0208252Y0167253D01*
X0207253Y0168251D02*
X0205747Y0168251D01*
X0206305Y0169250D02*
X0206695Y0169250D01*
X0200314Y0166254D02*
X0192685Y0166254D01*
X0194748Y0167253D02*
X0198252Y0167253D01*
X0197253Y0168251D02*
X0195747Y0168251D01*
X0196305Y0169250D02*
X0196695Y0169250D01*
X0190314Y0166254D02*
X0182685Y0166254D01*
X0184748Y0167253D02*
X0188252Y0167253D01*
X0187253Y0168251D02*
X0185747Y0168251D01*
X0186305Y0169250D02*
X0186695Y0169250D01*
X0180314Y0166254D02*
X0172685Y0166254D01*
X0174748Y0167253D02*
X0178252Y0167253D01*
X0177253Y0168251D02*
X0175747Y0168251D01*
X0176305Y0169250D02*
X0176695Y0169250D01*
X0197525Y0185303D02*
X0198709Y0185794D01*
X0199806Y0186891D01*
X0200400Y0188324D01*
X0200400Y0194676D01*
X0199806Y0196109D01*
X0198709Y0197206D01*
X0197276Y0197800D01*
X0195724Y0197800D01*
X0194291Y0197206D01*
X0193194Y0196109D01*
X0193055Y0195774D01*
X0181328Y0207500D01*
X0172328Y0207500D01*
X0172228Y0207600D01*
X0173115Y0207600D01*
X0175400Y0209885D01*
X0175400Y0211200D01*
X0171800Y0211200D01*
X0171800Y0211800D01*
X0175400Y0211800D01*
X0175400Y0213115D01*
X0175015Y0213500D01*
X0183672Y0213500D01*
X0199500Y0197672D01*
X0200672Y0196500D01*
X0203585Y0196500D01*
X0203471Y0196386D01*
X0203044Y0195747D01*
X0202750Y0195038D01*
X0202600Y0194284D01*
X0202600Y0191800D01*
X0206200Y0191800D01*
X0206200Y0191200D01*
X0206800Y0191200D01*
X0206800Y0191800D01*
X0210400Y0191800D01*
X0210400Y0194284D01*
X0210250Y0195038D01*
X0209956Y0195747D01*
X0209529Y0196386D01*
X0209415Y0196500D01*
X0213585Y0196500D01*
X0213194Y0196109D01*
X0212600Y0194676D01*
X0212600Y0188324D01*
X0213194Y0186891D01*
X0214291Y0185794D01*
X0215724Y0185200D01*
X0217276Y0185200D01*
X0218709Y0185794D01*
X0219806Y0186891D01*
X0220400Y0188324D01*
X0220400Y0194676D01*
X0219806Y0196109D01*
X0219415Y0196500D01*
X0223585Y0196500D01*
X0223471Y0196386D01*
X0223044Y0195747D01*
X0222750Y0195038D01*
X0222600Y0194284D01*
X0222600Y0191800D01*
X0226200Y0191800D01*
X0226200Y0191200D01*
X0226800Y0191200D01*
X0226800Y0191800D01*
X0230400Y0191800D01*
X0230400Y0194284D01*
X0230250Y0195038D01*
X0229956Y0195747D01*
X0229529Y0196386D01*
X0229415Y0196500D01*
X0233585Y0196500D01*
X0233194Y0196109D01*
X0232600Y0194676D01*
X0232600Y0188324D01*
X0233194Y0186891D01*
X0234291Y0185794D01*
X0235724Y0185200D01*
X0237276Y0185200D01*
X0238709Y0185794D01*
X0239806Y0186891D01*
X0240400Y0188324D01*
X0240400Y0194676D01*
X0239806Y0196109D01*
X0239415Y0196500D01*
X0243585Y0196500D01*
X0243471Y0196386D01*
X0243044Y0195747D01*
X0242750Y0195038D01*
X0242600Y0194284D01*
X0242600Y0191800D01*
X0246200Y0191800D01*
X0246200Y0191200D01*
X0246800Y0191200D01*
X0246800Y0191800D01*
X0250400Y0191800D01*
X0250400Y0194284D01*
X0250250Y0195038D01*
X0249956Y0195747D01*
X0249529Y0196386D01*
X0249415Y0196500D01*
X0251672Y0196500D01*
X0271372Y0176800D01*
X0270446Y0176800D01*
X0269444Y0176385D01*
X0266328Y0179500D01*
X0203328Y0179500D01*
X0197525Y0185303D01*
X0197602Y0185226D02*
X0205985Y0185226D01*
X0206116Y0185200D02*
X0206200Y0185200D01*
X0206200Y0191200D01*
X0202600Y0191200D01*
X0202600Y0188716D01*
X0202750Y0187962D01*
X0203044Y0187253D01*
X0203471Y0186614D01*
X0204014Y0186071D01*
X0204653Y0185644D01*
X0205362Y0185350D01*
X0206116Y0185200D01*
X0206200Y0185226D02*
X0206800Y0185226D01*
X0206800Y0185200D02*
X0206884Y0185200D01*
X0207638Y0185350D01*
X0208347Y0185644D01*
X0208986Y0186071D01*
X0209529Y0186614D01*
X0209956Y0187253D01*
X0210250Y0187962D01*
X0210400Y0188716D01*
X0210400Y0191200D01*
X0206800Y0191200D01*
X0206800Y0185200D01*
X0207015Y0185226D02*
X0215661Y0185226D01*
X0217339Y0185226D02*
X0225985Y0185226D01*
X0226116Y0185200D02*
X0226200Y0185200D01*
X0226200Y0191200D01*
X0222600Y0191200D01*
X0222600Y0188716D01*
X0222750Y0187962D01*
X0223044Y0187253D01*
X0223471Y0186614D01*
X0224014Y0186071D01*
X0224653Y0185644D01*
X0225362Y0185350D01*
X0226116Y0185200D01*
X0226200Y0185226D02*
X0226800Y0185226D01*
X0226800Y0185200D02*
X0226884Y0185200D01*
X0227638Y0185350D01*
X0228347Y0185644D01*
X0228986Y0186071D01*
X0229529Y0186614D01*
X0229956Y0187253D01*
X0230250Y0187962D01*
X0230400Y0188716D01*
X0230400Y0191200D01*
X0226800Y0191200D01*
X0226800Y0185200D01*
X0227015Y0185226D02*
X0235661Y0185226D01*
X0237339Y0185226D02*
X0245985Y0185226D01*
X0246116Y0185200D02*
X0246200Y0185200D01*
X0246200Y0191200D01*
X0242600Y0191200D01*
X0242600Y0188716D01*
X0242750Y0187962D01*
X0243044Y0187253D01*
X0243471Y0186614D01*
X0244014Y0186071D01*
X0244653Y0185644D01*
X0245362Y0185350D01*
X0246116Y0185200D01*
X0246200Y0185226D02*
X0246800Y0185226D01*
X0246800Y0185200D02*
X0246884Y0185200D01*
X0247638Y0185350D01*
X0248347Y0185644D01*
X0248986Y0186071D01*
X0249529Y0186614D01*
X0249956Y0187253D01*
X0250250Y0187962D01*
X0250400Y0188716D01*
X0250400Y0191200D01*
X0246800Y0191200D01*
X0246800Y0185200D01*
X0247015Y0185226D02*
X0262945Y0185226D01*
X0261947Y0186225D02*
X0249140Y0186225D01*
X0249936Y0187223D02*
X0260948Y0187223D01*
X0259950Y0188222D02*
X0250302Y0188222D01*
X0250400Y0189220D02*
X0258951Y0189220D01*
X0257953Y0190219D02*
X0250400Y0190219D01*
X0250400Y0192216D02*
X0255956Y0192216D01*
X0254957Y0193214D02*
X0250400Y0193214D01*
X0250400Y0194213D02*
X0253959Y0194213D01*
X0252960Y0195211D02*
X0250178Y0195211D01*
X0249647Y0196210D02*
X0251962Y0196210D01*
X0256954Y0191217D02*
X0246800Y0191217D01*
X0246200Y0191217D02*
X0240400Y0191217D01*
X0240400Y0190219D02*
X0242600Y0190219D01*
X0242600Y0189220D02*
X0240400Y0189220D01*
X0240357Y0188222D02*
X0242698Y0188222D01*
X0243064Y0187223D02*
X0239944Y0187223D01*
X0239140Y0186225D02*
X0243860Y0186225D01*
X0246200Y0186225D02*
X0246800Y0186225D01*
X0246800Y0187223D02*
X0246200Y0187223D01*
X0246200Y0188222D02*
X0246800Y0188222D01*
X0246800Y0189220D02*
X0246200Y0189220D01*
X0246200Y0190219D02*
X0246800Y0190219D01*
X0242600Y0192216D02*
X0240400Y0192216D01*
X0240400Y0193214D02*
X0242600Y0193214D01*
X0242600Y0194213D02*
X0240400Y0194213D01*
X0240178Y0195211D02*
X0242822Y0195211D01*
X0243353Y0196210D02*
X0239706Y0196210D01*
X0233294Y0196210D02*
X0229647Y0196210D01*
X0230178Y0195211D02*
X0232822Y0195211D01*
X0232600Y0194213D02*
X0230400Y0194213D01*
X0230400Y0193214D02*
X0232600Y0193214D01*
X0232600Y0192216D02*
X0230400Y0192216D01*
X0230400Y0190219D02*
X0232600Y0190219D01*
X0232600Y0191217D02*
X0226800Y0191217D01*
X0226200Y0191217D02*
X0220400Y0191217D01*
X0220400Y0190219D02*
X0222600Y0190219D01*
X0222600Y0189220D02*
X0220400Y0189220D01*
X0220357Y0188222D02*
X0222698Y0188222D01*
X0223064Y0187223D02*
X0219944Y0187223D01*
X0219140Y0186225D02*
X0223860Y0186225D01*
X0226200Y0186225D02*
X0226800Y0186225D01*
X0226800Y0187223D02*
X0226200Y0187223D01*
X0226200Y0188222D02*
X0226800Y0188222D01*
X0226800Y0189220D02*
X0226200Y0189220D01*
X0226200Y0190219D02*
X0226800Y0190219D01*
X0229936Y0187223D02*
X0233056Y0187223D01*
X0232642Y0188222D02*
X0230302Y0188222D01*
X0230400Y0189220D02*
X0232600Y0189220D01*
X0233860Y0186225D02*
X0229140Y0186225D01*
X0222600Y0192216D02*
X0220400Y0192216D01*
X0220400Y0193214D02*
X0222600Y0193214D01*
X0222600Y0194213D02*
X0220400Y0194213D01*
X0220178Y0195211D02*
X0222822Y0195211D01*
X0223353Y0196210D02*
X0219706Y0196210D01*
X0213294Y0196210D02*
X0209647Y0196210D01*
X0210178Y0195211D02*
X0212822Y0195211D01*
X0212600Y0194213D02*
X0210400Y0194213D01*
X0210400Y0193214D02*
X0212600Y0193214D01*
X0212600Y0192216D02*
X0210400Y0192216D01*
X0210400Y0190219D02*
X0212600Y0190219D01*
X0212600Y0191217D02*
X0206800Y0191217D01*
X0206500Y0191500D02*
X0204500Y0191500D01*
X0184500Y0211500D01*
X0171500Y0211500D01*
X0175400Y0211187D02*
X0185984Y0211187D01*
X0186983Y0210189D02*
X0175400Y0210189D01*
X0174706Y0209190D02*
X0187981Y0209190D01*
X0188980Y0208192D02*
X0173707Y0208192D01*
X0171500Y0205500D02*
X0165500Y0211500D01*
X0156500Y0211500D01*
X0153668Y0214183D02*
X0146645Y0214183D01*
X0145647Y0215181D02*
X0153990Y0215181D01*
X0152992Y0216180D02*
X0144648Y0216180D01*
X0143650Y0217178D02*
X0151993Y0217178D01*
X0150995Y0218177D02*
X0142651Y0218177D01*
X0141653Y0219175D02*
X0149996Y0219175D01*
X0148998Y0220174D02*
X0140654Y0220174D01*
X0140400Y0221172D02*
X0147999Y0221172D01*
X0147001Y0222171D02*
X0140400Y0222171D01*
X0140346Y0223170D02*
X0146002Y0223170D01*
X0145004Y0224168D02*
X0139347Y0224168D01*
X0138349Y0225167D02*
X0144005Y0225167D01*
X0143007Y0226165D02*
X0122663Y0226165D01*
X0121665Y0227164D02*
X0142008Y0227164D01*
X0141010Y0228162D02*
X0120666Y0228162D01*
X0119668Y0229161D02*
X0140011Y0229161D01*
X0139012Y0230159D02*
X0118669Y0230159D01*
X0117671Y0231158D02*
X0138014Y0231158D01*
X0137015Y0232156D02*
X0136352Y0232156D01*
X0133026Y0232156D02*
X0116672Y0232156D01*
X0115674Y0233155D02*
X0131459Y0233155D01*
X0130628Y0234153D02*
X0114675Y0234153D01*
X0113677Y0235152D02*
X0130215Y0235152D01*
X0130039Y0236150D02*
X0112678Y0236150D01*
X0111680Y0237149D02*
X0130039Y0237149D01*
X0130339Y0238147D02*
X0110681Y0238147D01*
X0109683Y0239146D02*
X0130759Y0239146D01*
X0131758Y0240144D02*
X0108684Y0240144D01*
X0105380Y0248132D02*
X0256982Y0248132D01*
X0256850Y0249131D02*
X0104382Y0249131D01*
X0104894Y0250129D02*
X0256850Y0250129D01*
X0257194Y0251128D02*
X0105628Y0251128D01*
X0106042Y0252126D02*
X0257677Y0252126D01*
X0258675Y0253125D02*
X0106150Y0253125D01*
X0106150Y0254123D02*
X0282496Y0254123D01*
X0282496Y0253125D02*
X0264325Y0253125D01*
X0265323Y0252126D02*
X0282496Y0252126D01*
X0282496Y0251128D02*
X0265806Y0251128D01*
X0266150Y0250129D02*
X0282496Y0250129D01*
X0282496Y0249131D02*
X0266150Y0249131D01*
X0266018Y0248132D02*
X0282496Y0248132D01*
X0282496Y0247134D02*
X0265605Y0247134D01*
X0264837Y0246135D02*
X0282496Y0246135D01*
X0282496Y0245137D02*
X0264405Y0245137D01*
X0265330Y0244138D02*
X0282496Y0244138D01*
X0282496Y0243140D02*
X0265856Y0243140D01*
X0266106Y0242141D02*
X0282496Y0242141D01*
X0282496Y0241143D02*
X0266150Y0241143D01*
X0265948Y0240144D02*
X0282496Y0240144D01*
X0282496Y0239146D02*
X0265519Y0239146D01*
X0264723Y0238147D02*
X0282496Y0238147D01*
X0282496Y0237149D02*
X0264553Y0237149D01*
X0265487Y0236150D02*
X0282496Y0236150D01*
X0282496Y0235152D02*
X0265901Y0235152D01*
X0266150Y0234153D02*
X0282496Y0234153D01*
X0282496Y0233155D02*
X0266150Y0233155D01*
X0265924Y0232156D02*
X0282496Y0232156D01*
X0282496Y0231158D02*
X0265510Y0231158D01*
X0264609Y0230159D02*
X0282496Y0230159D01*
X0282496Y0229161D02*
X0262870Y0229161D01*
X0260130Y0229161D02*
X0239668Y0229161D01*
X0238669Y0230159D02*
X0258391Y0230159D01*
X0257490Y0231158D02*
X0237671Y0231158D01*
X0236672Y0232156D02*
X0257076Y0232156D01*
X0256850Y0233155D02*
X0235674Y0233155D01*
X0234675Y0234153D02*
X0256850Y0234153D01*
X0257099Y0235152D02*
X0233677Y0235152D01*
X0232678Y0236150D02*
X0257513Y0236150D01*
X0258447Y0237149D02*
X0231680Y0237149D01*
X0230681Y0238147D02*
X0258277Y0238147D01*
X0257481Y0239146D02*
X0229683Y0239146D01*
X0228684Y0240144D02*
X0257052Y0240144D01*
X0256850Y0241143D02*
X0227686Y0241143D01*
X0226687Y0242141D02*
X0256894Y0242141D01*
X0257144Y0243140D02*
X0225689Y0243140D01*
X0224026Y0239146D02*
X0189262Y0239146D01*
X0189791Y0238147D02*
X0225024Y0238147D01*
X0226023Y0237149D02*
X0190042Y0237149D01*
X0190087Y0236150D02*
X0227021Y0236150D01*
X0228020Y0235152D02*
X0189888Y0235152D01*
X0189460Y0234153D02*
X0229018Y0234153D01*
X0230017Y0233155D02*
X0188667Y0233155D01*
X0187114Y0232156D02*
X0231015Y0232156D01*
X0232014Y0231158D02*
X0186671Y0231158D01*
X0187669Y0230159D02*
X0233012Y0230159D01*
X0234011Y0229161D02*
X0188500Y0229161D01*
X0188500Y0228162D02*
X0235009Y0228162D01*
X0234364Y0227164D02*
X0228752Y0227164D01*
X0224248Y0227164D02*
X0218636Y0227164D01*
X0218347Y0227356D02*
X0217638Y0227650D01*
X0216884Y0227800D01*
X0216800Y0227800D01*
X0216800Y0221800D01*
X0220400Y0221800D01*
X0220400Y0224284D01*
X0220250Y0225038D01*
X0219956Y0225747D01*
X0219529Y0226386D01*
X0218986Y0226929D01*
X0218347Y0227356D01*
X0216800Y0227164D02*
X0216200Y0227164D01*
X0216200Y0226165D02*
X0216800Y0226165D01*
X0216800Y0225167D02*
X0216200Y0225167D01*
X0216200Y0224168D02*
X0216800Y0224168D01*
X0216800Y0223170D02*
X0216200Y0223170D01*
X0216200Y0222171D02*
X0216800Y0222171D01*
X0220400Y0222171D02*
X0222600Y0222171D01*
X0222600Y0223170D02*
X0220400Y0223170D01*
X0220400Y0224168D02*
X0222600Y0224168D01*
X0222803Y0225167D02*
X0220197Y0225167D01*
X0219677Y0226165D02*
X0223250Y0226165D01*
X0222600Y0221172D02*
X0220400Y0221172D01*
X0220400Y0220174D02*
X0222600Y0220174D01*
X0222600Y0219175D02*
X0220400Y0219175D01*
X0220293Y0218177D02*
X0222661Y0218177D01*
X0223075Y0217178D02*
X0219907Y0217178D01*
X0213093Y0217178D02*
X0209925Y0217178D01*
X0210339Y0218177D02*
X0212707Y0218177D01*
X0212600Y0219175D02*
X0210400Y0219175D01*
X0210400Y0220174D02*
X0212600Y0220174D01*
X0212600Y0221172D02*
X0210400Y0221172D01*
X0210400Y0222171D02*
X0212600Y0222171D01*
X0212600Y0223170D02*
X0210400Y0223170D01*
X0210400Y0224168D02*
X0212600Y0224168D01*
X0212803Y0225167D02*
X0210197Y0225167D01*
X0209750Y0226165D02*
X0213323Y0226165D01*
X0214364Y0227164D02*
X0208752Y0227164D01*
X0204248Y0227164D02*
X0198636Y0227164D01*
X0198347Y0227356D02*
X0198986Y0226929D01*
X0199529Y0226386D01*
X0199956Y0225747D01*
X0200250Y0225038D01*
X0200400Y0224284D01*
X0200400Y0221800D01*
X0196800Y0221800D01*
X0196800Y0227800D01*
X0196884Y0227800D01*
X0197638Y0227650D01*
X0198347Y0227356D01*
X0196800Y0227164D02*
X0196200Y0227164D01*
X0196200Y0226165D02*
X0196800Y0226165D01*
X0196800Y0225167D02*
X0196200Y0225167D01*
X0196200Y0224168D02*
X0196800Y0224168D01*
X0196800Y0223170D02*
X0196200Y0223170D01*
X0196200Y0222171D02*
X0196800Y0222171D01*
X0196500Y0221500D02*
X0185500Y0232500D01*
X0185500Y0236500D01*
X0185437Y0236500D01*
X0185248Y0236311D02*
X0185248Y0232580D01*
X0185626Y0232202D01*
X0185626Y0236311D01*
X0185248Y0236311D01*
X0185248Y0236150D02*
X0185626Y0236150D01*
X0185626Y0235152D02*
X0185248Y0235152D01*
X0185248Y0234153D02*
X0185626Y0234153D01*
X0185626Y0233155D02*
X0185248Y0233155D01*
X0188752Y0227164D02*
X0194364Y0227164D01*
X0193323Y0226165D02*
X0189750Y0226165D01*
X0190197Y0225167D02*
X0192803Y0225167D01*
X0192600Y0224168D02*
X0190400Y0224168D01*
X0190400Y0223170D02*
X0192600Y0223170D01*
X0192600Y0222171D02*
X0190400Y0222171D01*
X0190400Y0221172D02*
X0192600Y0221172D01*
X0192600Y0220174D02*
X0190654Y0220174D01*
X0191653Y0219175D02*
X0192600Y0219175D01*
X0192651Y0218177D02*
X0192707Y0218177D01*
X0184986Y0212186D02*
X0175400Y0212186D01*
X0175331Y0213184D02*
X0183987Y0213184D01*
X0181635Y0207193D02*
X0189978Y0207193D01*
X0190977Y0206195D02*
X0182634Y0206195D01*
X0183632Y0205196D02*
X0191975Y0205196D01*
X0192974Y0204198D02*
X0184631Y0204198D01*
X0185629Y0203199D02*
X0193972Y0203199D01*
X0194971Y0202201D02*
X0186628Y0202201D01*
X0187626Y0201202D02*
X0195969Y0201202D01*
X0196968Y0200204D02*
X0188625Y0200204D01*
X0189623Y0199205D02*
X0197966Y0199205D01*
X0198965Y0198207D02*
X0190622Y0198207D01*
X0191620Y0197208D02*
X0194296Y0197208D01*
X0193294Y0196210D02*
X0192619Y0196210D01*
X0198704Y0197208D02*
X0199963Y0197208D01*
X0199706Y0196210D02*
X0203353Y0196210D01*
X0202822Y0195211D02*
X0200178Y0195211D01*
X0200400Y0194213D02*
X0202600Y0194213D01*
X0202600Y0193214D02*
X0200400Y0193214D01*
X0200400Y0192216D02*
X0202600Y0192216D01*
X0202600Y0190219D02*
X0200400Y0190219D01*
X0200400Y0191217D02*
X0206200Y0191217D01*
X0206200Y0190219D02*
X0206800Y0190219D01*
X0206800Y0189220D02*
X0206200Y0189220D01*
X0206200Y0188222D02*
X0206800Y0188222D01*
X0206800Y0187223D02*
X0206200Y0187223D01*
X0206200Y0186225D02*
X0206800Y0186225D01*
X0209140Y0186225D02*
X0213860Y0186225D01*
X0213056Y0187223D02*
X0209936Y0187223D01*
X0210302Y0188222D02*
X0212642Y0188222D01*
X0212600Y0189220D02*
X0210400Y0189220D01*
X0203860Y0186225D02*
X0199140Y0186225D01*
X0199944Y0187223D02*
X0203064Y0187223D01*
X0202698Y0188222D02*
X0200357Y0188222D01*
X0200400Y0189220D02*
X0202600Y0189220D01*
X0198601Y0184228D02*
X0263944Y0184228D01*
X0264943Y0183229D02*
X0199599Y0183229D01*
X0200598Y0182231D02*
X0265941Y0182231D01*
X0266940Y0181232D02*
X0201596Y0181232D01*
X0202595Y0180234D02*
X0267938Y0180234D01*
X0268937Y0179235D02*
X0266593Y0179235D01*
X0267592Y0178237D02*
X0269935Y0178237D01*
X0270934Y0177238D02*
X0268590Y0177238D01*
X0271500Y0191500D02*
X0262500Y0191500D01*
X0239500Y0214500D01*
X0247647Y0215181D02*
X0282496Y0215181D01*
X0282496Y0214183D02*
X0248645Y0214183D01*
X0249644Y0213184D02*
X0282496Y0213184D01*
X0282496Y0212186D02*
X0250643Y0212186D01*
X0251641Y0211187D02*
X0282496Y0211187D01*
X0282496Y0210189D02*
X0252640Y0210189D01*
X0253638Y0209190D02*
X0282496Y0209190D01*
X0282496Y0208192D02*
X0254637Y0208192D01*
X0255635Y0207193D02*
X0282496Y0207193D01*
X0282496Y0216180D02*
X0249095Y0216180D01*
X0249925Y0217178D02*
X0282496Y0217178D01*
X0282496Y0218177D02*
X0250339Y0218177D01*
X0250400Y0219175D02*
X0282496Y0219175D01*
X0282496Y0220174D02*
X0250400Y0220174D01*
X0250400Y0221172D02*
X0282496Y0221172D01*
X0282496Y0222171D02*
X0250400Y0222171D01*
X0250400Y0223170D02*
X0282496Y0223170D01*
X0282496Y0224168D02*
X0250400Y0224168D01*
X0250197Y0225167D02*
X0282496Y0225167D01*
X0282496Y0226165D02*
X0249750Y0226165D01*
X0248752Y0227164D02*
X0282496Y0227164D01*
X0282496Y0228162D02*
X0240666Y0228162D01*
X0241665Y0227164D02*
X0244248Y0227164D01*
X0243250Y0226165D02*
X0242663Y0226165D01*
X0261617Y0195211D02*
X0261960Y0195211D01*
X0262616Y0194213D02*
X0264849Y0194213D01*
X0282496Y0255122D02*
X0105783Y0255122D01*
X0105266Y0256120D02*
X0282496Y0256120D01*
X0282496Y0257119D02*
X0104268Y0257119D01*
X0119004Y0224168D02*
X0003968Y0224168D01*
X0003968Y0223170D02*
X0120002Y0223170D01*
X0121001Y0222171D02*
X0003968Y0222171D01*
X0003968Y0221172D02*
X0121999Y0221172D01*
X0122998Y0220174D02*
X0003968Y0220174D01*
X0003968Y0219175D02*
X0133309Y0219175D01*
X0134308Y0218177D02*
X0003968Y0218177D01*
X0003968Y0217178D02*
X0137993Y0217178D01*
X0138992Y0216180D02*
X0003968Y0216180D01*
X0003968Y0215181D02*
X0134666Y0215181D01*
X0133667Y0214183D02*
X0003968Y0214183D01*
X0003968Y0213184D02*
X0132669Y0213184D01*
X0132600Y0212186D02*
X0003968Y0212186D01*
X0003968Y0211187D02*
X0132600Y0211187D01*
X0132600Y0210189D02*
X0003968Y0210189D01*
X0003968Y0209190D02*
X0133294Y0209190D01*
X0139706Y0209190D02*
X0145981Y0209190D01*
X0144983Y0210189D02*
X0140400Y0210189D01*
X0140400Y0211187D02*
X0143984Y0211187D01*
X0142986Y0212186D02*
X0140400Y0212186D01*
X0140331Y0213184D02*
X0141987Y0213184D01*
X0140989Y0214183D02*
X0139332Y0214183D01*
X0139990Y0215181D02*
X0138334Y0215181D01*
X0147644Y0213184D02*
X0152669Y0213184D01*
X0152600Y0212186D02*
X0148643Y0212186D01*
X0149641Y0211187D02*
X0152600Y0211187D01*
X0152600Y0210189D02*
X0150640Y0210189D01*
X0158707Y0208192D02*
X0165980Y0208192D01*
X0164981Y0209190D02*
X0159706Y0209190D01*
X0154278Y0198207D02*
X0153500Y0198207D01*
X0153500Y0197208D02*
X0169500Y0197208D01*
X0169500Y0196210D02*
X0153500Y0196210D01*
X0153500Y0195211D02*
X0154696Y0195211D01*
X0153697Y0194213D02*
X0153500Y0194213D01*
X0133653Y0224168D02*
X0124660Y0224168D01*
X0123662Y0225167D02*
X0134651Y0225167D01*
X0199677Y0226165D02*
X0203250Y0226165D01*
X0202803Y0225167D02*
X0200197Y0225167D01*
X0200400Y0224168D02*
X0202600Y0224168D01*
X0202600Y0223170D02*
X0200400Y0223170D01*
X0200400Y0222171D02*
X0202600Y0222171D01*
X0202600Y0221172D02*
X0200400Y0221172D01*
X0200400Y0220174D02*
X0202600Y0220174D01*
X0202600Y0219175D02*
X0200400Y0219175D01*
X0200293Y0218177D02*
X0202661Y0218177D01*
X0203075Y0217178D02*
X0199907Y0217178D01*
X0264515Y0271098D02*
X0021950Y0271098D01*
X0022079Y0271410D02*
X0020744Y0268187D01*
X0018278Y0265721D01*
X0015055Y0264386D01*
X0011567Y0264386D01*
X0008345Y0265721D01*
X0005878Y0268187D01*
X0004543Y0271410D01*
X0004543Y0274898D01*
X0005878Y0278120D01*
X0008345Y0280586D01*
X0011567Y0281921D01*
X0015055Y0281921D01*
X0018278Y0280586D01*
X0020744Y0278120D01*
X0022079Y0274898D01*
X0022079Y0271410D01*
X0022079Y0272097D02*
X0264386Y0272097D01*
X0264386Y0273095D02*
X0022079Y0273095D01*
X0022079Y0274094D02*
X0264386Y0274094D01*
X0264466Y0275092D02*
X0021998Y0275092D01*
X0021585Y0276091D02*
X0264880Y0276091D01*
X0265294Y0277089D02*
X0021171Y0277089D01*
X0020757Y0278088D02*
X0265707Y0278088D01*
X0266687Y0279086D02*
X0019778Y0279086D01*
X0018779Y0280085D02*
X0267685Y0280085D01*
X0269386Y0281083D02*
X0017078Y0281083D01*
X0009544Y0281083D02*
X0003968Y0281083D01*
X0003968Y0280085D02*
X0007843Y0280085D01*
X0006844Y0279086D02*
X0003968Y0279086D01*
X0003968Y0278088D02*
X0005865Y0278088D01*
X0005451Y0277089D02*
X0003968Y0277089D01*
X0003968Y0276091D02*
X0005038Y0276091D01*
X0004624Y0275092D02*
X0003968Y0275092D01*
X0003968Y0274094D02*
X0004543Y0274094D01*
X0004543Y0273095D02*
X0003968Y0273095D01*
X0003968Y0272097D02*
X0004543Y0272097D01*
X0004672Y0271098D02*
X0003968Y0271098D01*
X0003968Y0270100D02*
X0005086Y0270100D01*
X0005500Y0269101D02*
X0003968Y0269101D01*
X0003968Y0268103D02*
X0005963Y0268103D01*
X0006961Y0267104D02*
X0003968Y0267104D01*
X0003968Y0266105D02*
X0007960Y0266105D01*
X0009826Y0265107D02*
X0003968Y0265107D01*
X0016796Y0265107D02*
X0269668Y0265107D01*
X0267802Y0266105D02*
X0018662Y0266105D01*
X0019661Y0267104D02*
X0266804Y0267104D01*
X0265805Y0268103D02*
X0020659Y0268103D01*
X0021123Y0269101D02*
X0265342Y0269101D01*
X0264928Y0270100D02*
X0021536Y0270100D01*
X0031149Y0208192D02*
X0003968Y0208192D01*
X0003968Y0207193D02*
X0028739Y0207193D01*
X0027586Y0206195D02*
X0003968Y0206195D01*
X0003968Y0205196D02*
X0026588Y0205196D01*
X0025965Y0204198D02*
X0003968Y0204198D01*
X0003968Y0203199D02*
X0025551Y0203199D01*
X0025138Y0202201D02*
X0003968Y0202201D01*
X0003968Y0201202D02*
X0025016Y0201202D01*
X0025016Y0200204D02*
X0003968Y0200204D01*
X0003968Y0199205D02*
X0025016Y0199205D01*
X0025233Y0198207D02*
X0003968Y0198207D01*
X0003968Y0197208D02*
X0025647Y0197208D01*
X0026060Y0196210D02*
X0003968Y0196210D01*
X0003968Y0195211D02*
X0026818Y0195211D01*
X0027816Y0194213D02*
X0003968Y0194213D01*
X0003968Y0193214D02*
X0029295Y0193214D01*
X0044307Y0182231D02*
X0045307Y0182231D01*
X0045307Y0181232D02*
X0044307Y0181232D01*
X0044307Y0180234D02*
X0045307Y0180234D01*
X0045307Y0179235D02*
X0044307Y0179235D01*
X0044307Y0178237D02*
X0045307Y0178237D01*
X0045307Y0177238D02*
X0044307Y0177238D01*
X0044307Y0176239D02*
X0045307Y0176239D01*
X0045307Y0175241D02*
X0044307Y0175241D01*
X0052096Y0157268D02*
X0052837Y0157268D01*
X0053251Y0156269D02*
X0051098Y0156269D01*
X0050099Y0155271D02*
X0054118Y0155271D01*
X0055500Y0154272D02*
X0049101Y0154272D01*
X0048669Y0153274D02*
X0055898Y0153274D01*
X0056896Y0152275D02*
X0048591Y0152275D01*
X0048177Y0151277D02*
X0054201Y0151277D01*
X0053291Y0140293D02*
X0047330Y0140293D01*
X0046500Y0139295D02*
X0052878Y0139295D01*
X0052756Y0138296D02*
X0046500Y0138296D01*
X0046126Y0137298D02*
X0052825Y0137298D01*
X0053238Y0136299D02*
X0047169Y0136299D01*
X0048070Y0135301D02*
X0054088Y0135301D01*
X0055500Y0134302D02*
X0048532Y0134302D01*
X0057500Y0134500D02*
X0057500Y0137500D01*
X0056618Y0138232D01*
X0060480Y0128311D02*
X0060861Y0128311D01*
X0060480Y0127312D02*
X0061859Y0127312D01*
X0062858Y0126314D02*
X0060480Y0126314D01*
X0060480Y0125315D02*
X0063856Y0125315D01*
X0064855Y0124317D02*
X0039500Y0124317D01*
X0039500Y0123318D02*
X0065853Y0123318D01*
X0066852Y0122320D02*
X0039500Y0122320D01*
X0039500Y0121321D02*
X0067850Y0121321D01*
X0068849Y0120323D02*
X0039500Y0120323D01*
X0039500Y0119324D02*
X0041247Y0119324D01*
X0040249Y0118326D02*
X0039500Y0118326D01*
X0020789Y0080382D02*
X0003968Y0080382D01*
X0003968Y0079384D02*
X0021788Y0079384D01*
X0022786Y0078385D02*
X0003968Y0078385D01*
X0003968Y0077387D02*
X0023785Y0077387D01*
X0024783Y0076388D02*
X0003968Y0076388D01*
X0003968Y0075390D02*
X0025782Y0075390D01*
X0026780Y0074391D02*
X0003968Y0074391D01*
X0003968Y0073393D02*
X0027779Y0073393D01*
X0028777Y0072394D02*
X0003968Y0072394D01*
X0003968Y0071396D02*
X0029776Y0071396D01*
X0030774Y0070397D02*
X0003968Y0070397D01*
X0003968Y0069399D02*
X0031773Y0069399D01*
X0032771Y0068400D02*
X0003968Y0068400D01*
X0003968Y0067402D02*
X0033770Y0067402D01*
X0034768Y0066403D02*
X0003968Y0066403D01*
X0003968Y0065405D02*
X0035767Y0065405D01*
X0036765Y0064406D02*
X0003968Y0064406D01*
X0003968Y0063408D02*
X0037764Y0063408D01*
X0038762Y0062409D02*
X0003968Y0062409D01*
X0003968Y0061411D02*
X0039761Y0061411D01*
X0040759Y0060412D02*
X0003968Y0060412D01*
X0003968Y0059414D02*
X0041758Y0059414D01*
X0042756Y0058415D02*
X0003968Y0058415D01*
X0003968Y0057417D02*
X0043755Y0057417D01*
X0044753Y0056418D02*
X0003968Y0056418D01*
X0003968Y0055420D02*
X0045752Y0055420D01*
X0046750Y0054421D02*
X0003968Y0054421D01*
X0003968Y0053423D02*
X0047749Y0053423D01*
X0048747Y0052424D02*
X0003968Y0052424D01*
X0003968Y0051426D02*
X0049746Y0051426D01*
X0050745Y0050427D02*
X0003968Y0050427D01*
X0003968Y0049429D02*
X0051743Y0049429D01*
X0020744Y0018278D02*
X0018278Y0020744D01*
X0015055Y0022079D01*
X0011567Y0022079D01*
X0008345Y0020744D01*
X0005878Y0018278D01*
X0004543Y0015055D01*
X0004543Y0011567D01*
X0005878Y0008345D01*
X0008345Y0005878D01*
X0011567Y0004543D01*
X0015055Y0004543D01*
X0018278Y0005878D01*
X0020744Y0008345D01*
X0022079Y0011567D01*
X0022079Y0015055D01*
X0020744Y0018278D01*
X0020547Y0018475D02*
X0265918Y0018475D01*
X0265721Y0018278D02*
X0264386Y0015055D01*
X0264386Y0011567D01*
X0265721Y0008345D01*
X0268187Y0005878D01*
X0271410Y0004543D01*
X0274898Y0004543D01*
X0278120Y0005878D01*
X0280586Y0008345D01*
X0281921Y0011567D01*
X0281921Y0015055D01*
X0280586Y0018278D01*
X0278120Y0020744D01*
X0274898Y0022079D01*
X0271410Y0022079D01*
X0268187Y0020744D01*
X0265721Y0018278D01*
X0265389Y0017476D02*
X0021076Y0017476D01*
X0021489Y0016478D02*
X0264975Y0016478D01*
X0264562Y0015479D02*
X0021903Y0015479D01*
X0022079Y0014481D02*
X0264386Y0014481D01*
X0264386Y0013482D02*
X0022079Y0013482D01*
X0022079Y0012484D02*
X0264386Y0012484D01*
X0264420Y0011485D02*
X0022045Y0011485D01*
X0021631Y0010487D02*
X0264833Y0010487D01*
X0265247Y0009488D02*
X0021218Y0009488D01*
X0020804Y0008490D02*
X0265661Y0008490D01*
X0266574Y0007491D02*
X0019890Y0007491D01*
X0018892Y0006493D02*
X0267573Y0006493D01*
X0269114Y0005494D02*
X0017350Y0005494D01*
X0009272Y0005494D02*
X0003968Y0005494D01*
X0003968Y0004496D02*
X0282496Y0004496D01*
X0282496Y0005494D02*
X0277193Y0005494D01*
X0278734Y0006493D02*
X0282496Y0006493D01*
X0282496Y0007491D02*
X0279733Y0007491D01*
X0280647Y0008490D02*
X0282496Y0008490D01*
X0282496Y0009488D02*
X0281060Y0009488D01*
X0281474Y0010487D02*
X0282496Y0010487D01*
X0282496Y0011485D02*
X0281887Y0011485D01*
X0281921Y0012484D02*
X0282496Y0012484D01*
X0282496Y0013482D02*
X0281921Y0013482D01*
X0281921Y0014481D02*
X0282496Y0014481D01*
X0282496Y0015479D02*
X0281746Y0015479D01*
X0281332Y0016478D02*
X0282496Y0016478D01*
X0282496Y0017476D02*
X0280918Y0017476D01*
X0280389Y0018475D02*
X0282496Y0018475D01*
X0282496Y0019473D02*
X0279391Y0019473D01*
X0278392Y0020472D02*
X0282496Y0020472D01*
X0282496Y0021470D02*
X0276367Y0021470D01*
X0282496Y0022469D02*
X0003968Y0022469D01*
X0003968Y0023467D02*
X0282496Y0023467D01*
X0282496Y0024466D02*
X0003968Y0024466D01*
X0003968Y0025464D02*
X0282496Y0025464D01*
X0269940Y0021470D02*
X0016524Y0021470D01*
X0018550Y0020472D02*
X0267915Y0020472D01*
X0266916Y0019473D02*
X0019548Y0019473D01*
X0010098Y0021470D02*
X0003968Y0021470D01*
X0003968Y0020472D02*
X0008072Y0020472D01*
X0007074Y0019473D02*
X0003968Y0019473D01*
X0003968Y0018475D02*
X0006075Y0018475D01*
X0005546Y0017476D02*
X0003968Y0017476D01*
X0003968Y0016478D02*
X0005133Y0016478D01*
X0004719Y0015479D02*
X0003968Y0015479D01*
X0003968Y0014481D02*
X0004543Y0014481D01*
X0004543Y0013482D02*
X0003968Y0013482D01*
X0003968Y0012484D02*
X0004543Y0012484D01*
X0004577Y0011485D02*
X0003968Y0011485D01*
X0003968Y0010487D02*
X0004991Y0010487D01*
X0005404Y0009488D02*
X0003968Y0009488D01*
X0003968Y0008490D02*
X0005818Y0008490D01*
X0006732Y0007491D02*
X0003968Y0007491D01*
X0003968Y0006493D02*
X0007730Y0006493D01*
X0003968Y0026463D02*
X0210073Y0026463D01*
X0208185Y0027461D02*
X0003968Y0027461D01*
X0003968Y0028460D02*
X0207186Y0028460D01*
X0206717Y0029458D02*
X0003968Y0029458D01*
X0003968Y0030457D02*
X0206304Y0030457D01*
X0206300Y0031455D02*
X0003968Y0031455D01*
X0003968Y0046433D02*
X0096950Y0046433D01*
X0097298Y0047432D02*
X0003968Y0047432D01*
X0003968Y0048430D02*
X0097927Y0048430D01*
X0092976Y0057417D02*
X0090024Y0057417D01*
X0090400Y0058415D02*
X0092600Y0058415D01*
X0092600Y0059414D02*
X0090400Y0059414D01*
X0090400Y0060412D02*
X0092600Y0060412D01*
X0136477Y0113333D02*
X0136523Y0113333D01*
X0136936Y0114332D02*
X0136064Y0114332D01*
X0135165Y0115330D02*
X0137835Y0115330D01*
X0139308Y0116329D02*
X0133692Y0116329D01*
X0143692Y0116329D02*
X0149308Y0116329D01*
X0147835Y0115330D02*
X0145165Y0115330D01*
X0146064Y0114332D02*
X0146936Y0114332D01*
X0146523Y0113333D02*
X0146477Y0113333D01*
X0153692Y0116329D02*
X0159308Y0116329D01*
X0157835Y0115330D02*
X0155165Y0115330D01*
X0156064Y0114332D02*
X0156936Y0114332D01*
X0156523Y0113333D02*
X0156477Y0113333D01*
X0163692Y0116329D02*
X0169308Y0116329D01*
X0167835Y0115330D02*
X0165165Y0115330D01*
X0166064Y0114332D02*
X0166936Y0114332D01*
X0166523Y0113333D02*
X0166477Y0113333D01*
X0173692Y0116329D02*
X0179308Y0116329D01*
X0177835Y0115330D02*
X0175165Y0115330D01*
X0176064Y0114332D02*
X0176936Y0114332D01*
X0176523Y0113333D02*
X0176477Y0113333D01*
X0183692Y0116329D02*
X0189308Y0116329D01*
X0187835Y0115330D02*
X0185165Y0115330D01*
X0186064Y0114332D02*
X0186936Y0114332D01*
X0186523Y0113333D02*
X0186477Y0113333D01*
X0193692Y0116329D02*
X0199308Y0116329D01*
X0197835Y0115330D02*
X0195165Y0115330D01*
X0196064Y0114332D02*
X0196936Y0114332D01*
X0196523Y0113333D02*
X0196477Y0113333D01*
X0171529Y0097357D02*
X0168345Y0097357D01*
X0169557Y0096359D02*
X0170530Y0096359D01*
X0172193Y0092365D02*
X0172600Y0092365D01*
X0172600Y0091366D02*
X0171194Y0091366D01*
X0170400Y0090368D02*
X0172600Y0090368D01*
X0172600Y0089369D02*
X0170400Y0089369D01*
X0170400Y0088370D02*
X0172600Y0088370D01*
X0172994Y0087372D02*
X0170006Y0087372D01*
X0169289Y0086373D02*
X0173711Y0086373D01*
X0175302Y0085375D02*
X0167698Y0085375D01*
X0162600Y0092365D02*
X0160400Y0092365D01*
X0160400Y0093363D02*
X0162600Y0093363D01*
X0162600Y0094362D02*
X0160400Y0094362D01*
X0160117Y0095360D02*
X0162883Y0095360D01*
X0163443Y0096359D02*
X0159557Y0096359D01*
X0158345Y0097357D02*
X0164655Y0097357D01*
X0269109Y0064406D02*
X0273891Y0064406D01*
X0273069Y0063408D02*
X0269931Y0063408D01*
X0270345Y0062409D02*
X0272655Y0062409D01*
X0272600Y0061411D02*
X0270400Y0061411D01*
X0270400Y0060412D02*
X0272600Y0060412D01*
X0272600Y0059414D02*
X0270400Y0059414D01*
X0270400Y0058415D02*
X0272600Y0058415D01*
X0272600Y0057417D02*
X0270400Y0057417D01*
X0270400Y0056418D02*
X0272600Y0056418D01*
X0272809Y0055420D02*
X0270191Y0055420D01*
X0269737Y0054421D02*
X0273263Y0054421D01*
X0274262Y0053423D02*
X0268738Y0053423D01*
D20*
X0106500Y0150500D03*
X0099500Y0078500D03*
M02*
