G75*
%MOIN*%
%OFA0B0*%
%FSLAX25Y25*%
%IPPOS*%
%LPD*%
%AMOC8*
5,1,8,0,0,1.08239X$1,22.5*
%
%ADD10OC8,0.04800*%
%ADD11C,0.04800*%
%ADD12C,0.07600*%
%ADD13C,0.07400*%
%ADD14C,0.06299*%
%ADD15R,0.04724X0.04724*%
%ADD16C,0.04724*%
%ADD17OC8,0.12598*%
%ADD18OC8,0.05400*%
%ADD19C,0.01000*%
%ADD20C,0.02362*%
D10*
X0081500Y0111500D03*
X0081500Y0121500D03*
X0126500Y0191500D03*
X0126500Y0201500D03*
X0126500Y0211500D03*
X0126500Y0221500D03*
X0146500Y0221500D03*
X0146500Y0211500D03*
X0146500Y0201500D03*
X0146500Y0191500D03*
X0166500Y0191500D03*
X0166500Y0201500D03*
X0166500Y0211500D03*
X0166500Y0221500D03*
X0186500Y0221500D03*
X0186500Y0211500D03*
X0186500Y0201500D03*
X0186500Y0191500D03*
X0201500Y0196500D03*
X0201500Y0206500D03*
X0106500Y0216500D03*
X0096500Y0216500D03*
X0231500Y0086500D03*
X0231500Y0076500D03*
X0221500Y0051500D03*
X0241500Y0051500D03*
X0231500Y0021500D03*
X0211500Y0021500D03*
D11*
X0246500Y0061700D02*
X0246500Y0066500D01*
X0256500Y0066500D02*
X0256500Y0061700D01*
X0266500Y0061700D02*
X0266500Y0066500D01*
X0276500Y0066500D02*
X0276500Y0061700D01*
X0276500Y0096500D02*
X0276500Y0101300D01*
X0266500Y0101300D02*
X0266500Y0096500D01*
X0256500Y0096500D02*
X0256500Y0101300D01*
X0246500Y0101300D02*
X0246500Y0096500D01*
X0211500Y0094100D02*
X0211500Y0098900D01*
X0201500Y0098900D02*
X0201500Y0094100D01*
X0191500Y0094100D02*
X0191500Y0098900D01*
X0181500Y0098900D02*
X0181500Y0094100D01*
X0171500Y0094100D02*
X0171500Y0098900D01*
X0161500Y0098900D02*
X0161500Y0094100D01*
X0151500Y0094100D02*
X0151500Y0098900D01*
X0141500Y0098900D02*
X0141500Y0094100D01*
X0131500Y0094100D02*
X0131500Y0098900D01*
X0121500Y0098900D02*
X0121500Y0094100D01*
X0111500Y0094100D02*
X0111500Y0098900D01*
X0101500Y0098900D02*
X0101500Y0094100D01*
X0091500Y0094100D02*
X0091500Y0098900D01*
X0081500Y0098900D02*
X0081500Y0094100D01*
X0081500Y0068900D02*
X0081500Y0064100D01*
X0091500Y0064100D02*
X0091500Y0068900D01*
X0101500Y0068900D02*
X0101500Y0064100D01*
X0111500Y0064100D02*
X0111500Y0068900D01*
X0121500Y0068900D02*
X0121500Y0064100D01*
X0131500Y0064100D02*
X0131500Y0068900D01*
X0141500Y0068900D02*
X0141500Y0064100D01*
X0151500Y0064100D02*
X0151500Y0068900D01*
X0161500Y0068900D02*
X0161500Y0064100D01*
X0171500Y0064100D02*
X0171500Y0068900D01*
X0181500Y0068900D02*
X0181500Y0064100D01*
X0191500Y0064100D02*
X0191500Y0068900D01*
X0201500Y0068900D02*
X0201500Y0064100D01*
X0211500Y0064100D02*
X0211500Y0068900D01*
X0211500Y0184100D02*
X0211500Y0188900D01*
X0221500Y0188900D02*
X0221500Y0184100D01*
X0231500Y0184100D02*
X0231500Y0188900D01*
X0241500Y0188900D02*
X0241500Y0184100D01*
X0251500Y0184100D02*
X0251500Y0188900D01*
X0261500Y0188900D02*
X0261500Y0184100D01*
X0271500Y0184100D02*
X0271500Y0188900D01*
X0271500Y0214100D02*
X0271500Y0218900D01*
X0261500Y0218900D02*
X0261500Y0214100D01*
X0251500Y0214100D02*
X0251500Y0218900D01*
X0241500Y0218900D02*
X0241500Y0214100D01*
X0231500Y0214100D02*
X0231500Y0218900D01*
X0221500Y0218900D02*
X0221500Y0214100D01*
X0211500Y0214100D02*
X0211500Y0218900D01*
D12*
X0206539Y0173232D03*
X0216539Y0173232D03*
X0226539Y0173232D03*
X0236539Y0173232D03*
X0246539Y0173232D03*
X0256539Y0173232D03*
X0266539Y0173232D03*
X0266539Y0113232D03*
X0256539Y0113232D03*
X0246539Y0113232D03*
X0236539Y0113232D03*
X0226539Y0113232D03*
X0216539Y0113232D03*
X0206539Y0113232D03*
X0196539Y0113232D03*
X0186539Y0113232D03*
X0176539Y0113232D03*
X0166539Y0113232D03*
X0156539Y0113232D03*
X0146539Y0113232D03*
X0136539Y0113232D03*
X0126539Y0113232D03*
X0116539Y0113232D03*
X0106539Y0113232D03*
X0106539Y0173232D03*
X0116539Y0173232D03*
X0126539Y0173232D03*
X0136539Y0173232D03*
X0146539Y0173232D03*
X0156539Y0173232D03*
X0166539Y0173232D03*
X0176539Y0173232D03*
X0186539Y0173232D03*
X0196539Y0173232D03*
D13*
X0211500Y0041500D03*
X0241500Y0041500D03*
D14*
X0261343Y0044807D03*
X0261343Y0036933D03*
X0261343Y0233783D03*
X0261343Y0241657D03*
X0261343Y0249531D03*
X0218035Y0233783D03*
X0210161Y0233783D03*
X0190476Y0233783D03*
X0182602Y0233783D03*
X0174728Y0233783D03*
X0166854Y0233783D03*
X0147169Y0233783D03*
X0139295Y0233783D03*
X0131421Y0233783D03*
X0123547Y0233783D03*
X0103862Y0233783D03*
X0095988Y0233783D03*
D15*
X0056618Y0128232D03*
D16*
X0056618Y0138232D03*
X0056618Y0148232D03*
X0056618Y0158232D03*
X0044807Y0153232D03*
X0044807Y0143232D03*
X0044807Y0133232D03*
X0032996Y0128232D03*
X0032996Y0138232D03*
X0032996Y0148232D03*
X0032996Y0158232D03*
X0021185Y0153232D03*
X0021185Y0143232D03*
X0021185Y0133232D03*
D17*
X0021185Y0111854D03*
X0044807Y0111854D03*
X0044807Y0174610D03*
X0021185Y0174610D03*
D18*
X0108232Y0049807D03*
X0108232Y0039807D03*
X0118232Y0039807D03*
X0128232Y0039807D03*
X0128232Y0049807D03*
X0118232Y0049807D03*
X0138232Y0049807D03*
X0148232Y0049807D03*
X0148232Y0039807D03*
X0138232Y0039807D03*
X0158232Y0039807D03*
X0168232Y0039807D03*
X0168232Y0049807D03*
X0158232Y0049807D03*
X0178232Y0049807D03*
X0178232Y0039807D03*
D19*
X0003968Y0003968D02*
X0003968Y0094203D01*
X0004672Y0093500D01*
X0077672Y0020500D01*
X0163328Y0020500D01*
X0164500Y0021672D01*
X0178435Y0035607D01*
X0179972Y0035607D01*
X0182432Y0038067D01*
X0182432Y0041547D01*
X0180479Y0043500D01*
X0191328Y0043500D01*
X0192500Y0044672D01*
X0208956Y0061128D01*
X0209291Y0060794D01*
X0210724Y0060200D01*
X0212276Y0060200D01*
X0213709Y0060794D01*
X0214806Y0061891D01*
X0215400Y0063324D01*
X0215400Y0069676D01*
X0214806Y0071109D01*
X0213709Y0072206D01*
X0212276Y0072800D01*
X0210724Y0072800D01*
X0209291Y0072206D01*
X0208194Y0071109D01*
X0207600Y0069676D01*
X0207600Y0065428D01*
X0205332Y0063161D01*
X0205400Y0063324D01*
X0205400Y0069676D01*
X0204806Y0071109D01*
X0203709Y0072206D01*
X0202276Y0072800D01*
X0200724Y0072800D01*
X0199291Y0072206D01*
X0198194Y0071109D01*
X0197600Y0069676D01*
X0197600Y0063324D01*
X0198194Y0061891D01*
X0199291Y0060794D01*
X0200724Y0060200D01*
X0202276Y0060200D01*
X0202439Y0060268D01*
X0193181Y0051009D01*
X0193181Y0051033D01*
X0192773Y0052019D01*
X0192019Y0052773D01*
X0191033Y0053181D01*
X0190647Y0053181D01*
X0189500Y0054328D01*
X0189500Y0060707D01*
X0190724Y0060200D01*
X0192276Y0060200D01*
X0193709Y0060794D01*
X0194806Y0061891D01*
X0195400Y0063324D01*
X0195400Y0069676D01*
X0194806Y0071109D01*
X0193709Y0072206D01*
X0192276Y0072800D01*
X0190724Y0072800D01*
X0189291Y0072206D01*
X0188194Y0071109D01*
X0188055Y0070774D01*
X0183328Y0075500D01*
X0179672Y0075500D01*
X0178500Y0074328D01*
X0176500Y0072328D01*
X0164500Y0084328D01*
X0163328Y0085500D01*
X0122328Y0085500D01*
X0121181Y0086647D01*
X0121181Y0087033D01*
X0120773Y0088019D01*
X0120019Y0088773D01*
X0119033Y0089181D01*
X0117967Y0089181D01*
X0116981Y0088773D01*
X0116227Y0088019D01*
X0115819Y0087033D01*
X0115819Y0085967D01*
X0116012Y0085500D01*
X0083328Y0085500D01*
X0077500Y0091328D01*
X0077500Y0099328D01*
X0076328Y0100500D01*
X0050328Y0126500D01*
X0048328Y0126500D01*
X0045413Y0129415D01*
X0045934Y0129519D01*
X0046637Y0129810D01*
X0047269Y0130232D01*
X0047807Y0130770D01*
X0048230Y0131403D01*
X0048521Y0132106D01*
X0048669Y0132852D01*
X0048669Y0132945D01*
X0045095Y0132945D01*
X0045095Y0133520D01*
X0048669Y0133520D01*
X0048669Y0133613D01*
X0048521Y0134359D01*
X0048230Y0135062D01*
X0047807Y0135694D01*
X0047269Y0136232D01*
X0046637Y0136655D01*
X0045934Y0136946D01*
X0045187Y0137094D01*
X0045094Y0137094D01*
X0045094Y0133520D01*
X0044520Y0133520D01*
X0044520Y0137094D01*
X0044427Y0137094D01*
X0043681Y0136946D01*
X0042978Y0136655D01*
X0042345Y0136232D01*
X0041807Y0135694D01*
X0041384Y0135062D01*
X0041093Y0134359D01*
X0040990Y0133839D01*
X0040328Y0134500D01*
X0034078Y0134500D01*
X0035184Y0134958D01*
X0036270Y0136045D01*
X0036858Y0137464D01*
X0036858Y0139001D01*
X0036850Y0139021D01*
X0040945Y0143116D01*
X0040945Y0142464D01*
X0041533Y0141045D01*
X0042619Y0139958D01*
X0044039Y0139370D01*
X0045575Y0139370D01*
X0046995Y0139958D01*
X0048081Y0141045D01*
X0048669Y0142464D01*
X0048669Y0143841D01*
X0052756Y0147927D01*
X0052756Y0147464D01*
X0053344Y0146045D01*
X0054430Y0144958D01*
X0055850Y0144370D01*
X0057386Y0144370D01*
X0058806Y0144958D01*
X0059348Y0145500D01*
X0060672Y0145500D01*
X0080772Y0125400D01*
X0079885Y0125400D01*
X0077600Y0123115D01*
X0077600Y0121800D01*
X0081200Y0121800D01*
X0081200Y0121200D01*
X0081800Y0121200D01*
X0081800Y0117600D01*
X0083115Y0117600D01*
X0083500Y0117985D01*
X0083500Y0115015D01*
X0083115Y0115400D01*
X0079885Y0115400D01*
X0077600Y0113115D01*
X0077600Y0109885D01*
X0079885Y0107600D01*
X0083115Y0107600D01*
X0083500Y0107985D01*
X0083500Y0102293D01*
X0082276Y0102800D01*
X0080724Y0102800D01*
X0079291Y0102206D01*
X0078194Y0101109D01*
X0077600Y0099676D01*
X0077600Y0093324D01*
X0078194Y0091891D01*
X0079291Y0090794D01*
X0080724Y0090200D01*
X0082276Y0090200D01*
X0082502Y0090294D01*
X0082227Y0090019D01*
X0081819Y0089033D01*
X0081819Y0087967D01*
X0082227Y0086981D01*
X0082981Y0086227D01*
X0083967Y0085819D01*
X0085033Y0085819D01*
X0086019Y0086227D01*
X0086773Y0086981D01*
X0086988Y0087500D01*
X0093328Y0087500D01*
X0094500Y0088672D01*
X0095034Y0089205D01*
X0095967Y0088819D01*
X0097033Y0088819D01*
X0098019Y0089227D01*
X0098773Y0089981D01*
X0099163Y0090922D01*
X0099291Y0090794D01*
X0100724Y0090200D01*
X0102276Y0090200D01*
X0103709Y0090794D01*
X0104806Y0091891D01*
X0105400Y0093324D01*
X0105400Y0099676D01*
X0104806Y0101109D01*
X0103709Y0102206D01*
X0102276Y0102800D01*
X0100724Y0102800D01*
X0099291Y0102206D01*
X0098194Y0101109D01*
X0097600Y0099676D01*
X0097600Y0093946D01*
X0097033Y0094181D01*
X0095967Y0094181D01*
X0095400Y0093946D01*
X0095400Y0099676D01*
X0094806Y0101109D01*
X0093709Y0102206D01*
X0092276Y0102800D01*
X0090724Y0102800D01*
X0089291Y0102206D01*
X0088194Y0101109D01*
X0087600Y0099676D01*
X0087600Y0093324D01*
X0088194Y0091891D01*
X0088585Y0091500D01*
X0087500Y0091500D01*
X0087500Y0124328D01*
X0086328Y0125500D01*
X0077009Y0134819D01*
X0078033Y0134819D01*
X0079019Y0135227D01*
X0079773Y0135981D01*
X0080181Y0136967D01*
X0080181Y0138033D01*
X0079773Y0139019D01*
X0079019Y0139773D01*
X0078033Y0140181D01*
X0077647Y0140181D01*
X0060446Y0157382D01*
X0060480Y0157464D01*
X0060480Y0159001D01*
X0059892Y0160420D01*
X0058806Y0161506D01*
X0057386Y0162094D01*
X0055850Y0162094D01*
X0054430Y0161506D01*
X0053344Y0160420D01*
X0052756Y0159001D01*
X0052756Y0157464D01*
X0053033Y0156796D01*
X0052328Y0157500D01*
X0043328Y0166500D01*
X0022672Y0166500D01*
X0021500Y0165328D01*
X0003968Y0147797D01*
X0003968Y0282496D01*
X0282496Y0282496D01*
X0282496Y0003968D01*
X0003968Y0003968D01*
X0003968Y0004496D02*
X0282496Y0004496D01*
X0282496Y0005494D02*
X0277193Y0005494D01*
X0278120Y0005878D02*
X0280586Y0008345D01*
X0281921Y0011567D01*
X0281921Y0015055D01*
X0280586Y0018278D01*
X0278120Y0020744D01*
X0274898Y0022079D01*
X0271410Y0022079D01*
X0268187Y0020744D01*
X0265721Y0018278D01*
X0264386Y0015055D01*
X0264386Y0011567D01*
X0265721Y0008345D01*
X0268187Y0005878D01*
X0271410Y0004543D01*
X0274898Y0004543D01*
X0278120Y0005878D01*
X0278734Y0006493D02*
X0282496Y0006493D01*
X0282496Y0007491D02*
X0279733Y0007491D01*
X0280647Y0008490D02*
X0282496Y0008490D01*
X0282496Y0009488D02*
X0281060Y0009488D01*
X0281474Y0010487D02*
X0282496Y0010487D01*
X0282496Y0011485D02*
X0281887Y0011485D01*
X0281921Y0012484D02*
X0282496Y0012484D01*
X0282496Y0013482D02*
X0281921Y0013482D01*
X0281921Y0014481D02*
X0282496Y0014481D01*
X0282496Y0015479D02*
X0281746Y0015479D01*
X0281332Y0016478D02*
X0282496Y0016478D01*
X0282496Y0017476D02*
X0280918Y0017476D01*
X0280389Y0018475D02*
X0282496Y0018475D01*
X0282496Y0019473D02*
X0279391Y0019473D01*
X0278392Y0020472D02*
X0282496Y0020472D01*
X0282496Y0021470D02*
X0276367Y0021470D01*
X0282496Y0022469D02*
X0235400Y0022469D01*
X0235400Y0023115D02*
X0233115Y0025400D01*
X0229885Y0025400D01*
X0227600Y0023115D01*
X0227600Y0019885D01*
X0229885Y0017600D01*
X0233115Y0017600D01*
X0235400Y0019885D01*
X0235400Y0023115D01*
X0235048Y0023467D02*
X0282496Y0023467D01*
X0282496Y0024466D02*
X0234050Y0024466D01*
X0235400Y0021470D02*
X0269940Y0021470D01*
X0267915Y0020472D02*
X0235400Y0020472D01*
X0234989Y0019473D02*
X0266916Y0019473D01*
X0265918Y0018475D02*
X0233990Y0018475D01*
X0229010Y0018475D02*
X0213990Y0018475D01*
X0213115Y0017600D02*
X0215400Y0019885D01*
X0215400Y0023115D01*
X0213500Y0025015D01*
X0213500Y0032672D01*
X0232328Y0051500D01*
X0233500Y0052672D01*
X0233500Y0072985D01*
X0235400Y0074885D01*
X0235400Y0076572D01*
X0241328Y0082500D01*
X0242500Y0083672D01*
X0253172Y0094344D01*
X0253194Y0094291D01*
X0254291Y0093194D01*
X0255724Y0092600D01*
X0257276Y0092600D01*
X0258709Y0093194D01*
X0259806Y0094291D01*
X0260400Y0095724D01*
X0260400Y0102076D01*
X0259806Y0103509D01*
X0258709Y0104606D01*
X0257276Y0105200D01*
X0255724Y0105200D01*
X0254291Y0104606D01*
X0253194Y0103509D01*
X0252600Y0102076D01*
X0252600Y0098500D01*
X0251672Y0098500D01*
X0250400Y0097228D01*
X0250400Y0102076D01*
X0249806Y0103509D01*
X0248709Y0104606D01*
X0247276Y0105200D01*
X0245724Y0105200D01*
X0244291Y0104606D01*
X0243194Y0103509D01*
X0242600Y0102076D01*
X0242600Y0095724D01*
X0243194Y0094291D01*
X0244291Y0093194D01*
X0245724Y0092600D01*
X0245772Y0092600D01*
X0240500Y0087328D01*
X0236500Y0091328D01*
X0235328Y0092500D01*
X0215059Y0092500D01*
X0215400Y0093324D01*
X0215400Y0099676D01*
X0214806Y0101109D01*
X0213709Y0102206D01*
X0212276Y0102800D01*
X0210724Y0102800D01*
X0209291Y0102206D01*
X0208194Y0101109D01*
X0208055Y0100774D01*
X0204500Y0104328D01*
X0203328Y0105500D01*
X0159672Y0105500D01*
X0154945Y0100774D01*
X0154806Y0101109D01*
X0153709Y0102206D01*
X0152276Y0102800D01*
X0150724Y0102800D01*
X0149291Y0102206D01*
X0148194Y0101109D01*
X0147600Y0099676D01*
X0147600Y0093324D01*
X0148194Y0091891D01*
X0149291Y0090794D01*
X0149794Y0090585D01*
X0149227Y0090019D01*
X0148819Y0089033D01*
X0148819Y0087967D01*
X0149227Y0086981D01*
X0149981Y0086227D01*
X0150967Y0085819D01*
X0152033Y0085819D01*
X0153019Y0086227D01*
X0153773Y0086981D01*
X0154181Y0087967D01*
X0154181Y0088353D01*
X0157500Y0091672D01*
X0157500Y0097672D01*
X0157600Y0097772D01*
X0157600Y0093324D01*
X0158194Y0091891D01*
X0159291Y0090794D01*
X0160724Y0090200D01*
X0162276Y0090200D01*
X0163709Y0090794D01*
X0164806Y0091891D01*
X0165400Y0093324D01*
X0165400Y0099676D01*
X0164806Y0101109D01*
X0164415Y0101500D01*
X0168585Y0101500D01*
X0168194Y0101109D01*
X0167600Y0099676D01*
X0167600Y0093324D01*
X0168194Y0091891D01*
X0169291Y0090794D01*
X0170724Y0090200D01*
X0172276Y0090200D01*
X0173709Y0090794D01*
X0174043Y0091128D01*
X0177672Y0087500D01*
X0213328Y0087500D01*
X0214328Y0088500D01*
X0227985Y0088500D01*
X0227600Y0088115D01*
X0227600Y0086800D01*
X0231200Y0086800D01*
X0231200Y0086200D01*
X0231800Y0086200D01*
X0231800Y0086800D01*
X0235372Y0086800D01*
X0237672Y0084500D01*
X0233343Y0080172D01*
X0233115Y0080400D01*
X0229885Y0080400D01*
X0227600Y0078115D01*
X0227600Y0074885D01*
X0229500Y0072985D01*
X0229500Y0054328D01*
X0225400Y0050228D01*
X0225400Y0053115D01*
X0223115Y0055400D01*
X0219885Y0055400D01*
X0217600Y0053115D01*
X0217600Y0049885D01*
X0219885Y0047600D01*
X0222772Y0047600D01*
X0216700Y0041528D01*
X0216700Y0042534D01*
X0215908Y0044446D01*
X0214446Y0045908D01*
X0212534Y0046700D01*
X0210466Y0046700D01*
X0208554Y0045908D01*
X0207092Y0044446D01*
X0206300Y0042534D01*
X0206300Y0040466D01*
X0207092Y0038554D01*
X0208554Y0037092D01*
X0210466Y0036300D01*
X0211472Y0036300D01*
X0209500Y0034328D01*
X0209500Y0025015D01*
X0207600Y0023115D01*
X0207600Y0019885D01*
X0209885Y0017600D01*
X0213115Y0017600D01*
X0214989Y0019473D02*
X0228011Y0019473D01*
X0227600Y0020472D02*
X0215400Y0020472D01*
X0215400Y0021470D02*
X0227600Y0021470D01*
X0227600Y0022469D02*
X0215400Y0022469D01*
X0215048Y0023467D02*
X0227952Y0023467D01*
X0228950Y0024466D02*
X0214050Y0024466D01*
X0213500Y0025464D02*
X0282496Y0025464D01*
X0282496Y0026463D02*
X0213500Y0026463D01*
X0213500Y0027461D02*
X0282496Y0027461D01*
X0282496Y0028460D02*
X0213500Y0028460D01*
X0213500Y0029458D02*
X0282496Y0029458D01*
X0282496Y0030457D02*
X0213500Y0030457D01*
X0213500Y0031455D02*
X0282496Y0031455D01*
X0282496Y0032454D02*
X0262679Y0032454D01*
X0262267Y0032283D02*
X0263976Y0032991D01*
X0265284Y0034299D01*
X0265992Y0036008D01*
X0265992Y0037858D01*
X0265284Y0039567D01*
X0263981Y0040870D01*
X0265284Y0042173D01*
X0265992Y0043882D01*
X0265992Y0045732D01*
X0265284Y0047441D01*
X0263976Y0048749D01*
X0262267Y0049457D01*
X0260418Y0049457D01*
X0258709Y0048749D01*
X0257401Y0047441D01*
X0256693Y0045732D01*
X0256693Y0043882D01*
X0257401Y0042173D01*
X0258704Y0040870D01*
X0257401Y0039567D01*
X0256693Y0037858D01*
X0256693Y0036008D01*
X0257401Y0034299D01*
X0258709Y0032991D01*
X0260418Y0032283D01*
X0262267Y0032283D01*
X0260006Y0032454D02*
X0213500Y0032454D01*
X0214281Y0033452D02*
X0258248Y0033452D01*
X0257338Y0034451D02*
X0215279Y0034451D01*
X0216278Y0035449D02*
X0256924Y0035449D01*
X0256693Y0036448D02*
X0242891Y0036448D01*
X0242534Y0036300D02*
X0244446Y0037092D01*
X0245908Y0038554D01*
X0246700Y0040466D01*
X0246700Y0042534D01*
X0246308Y0043480D01*
X0258500Y0055672D01*
X0258500Y0058307D01*
X0258709Y0058394D01*
X0259806Y0059491D01*
X0260400Y0060924D01*
X0260400Y0067276D01*
X0259806Y0068709D01*
X0258709Y0069806D01*
X0257276Y0070400D01*
X0255724Y0070400D01*
X0254291Y0069806D01*
X0253194Y0068709D01*
X0252600Y0067276D01*
X0252600Y0060924D01*
X0253194Y0059491D01*
X0254291Y0058394D01*
X0254500Y0058307D01*
X0254500Y0057328D01*
X0243480Y0046308D01*
X0242534Y0046700D01*
X0240466Y0046700D01*
X0238554Y0045908D01*
X0237092Y0044446D01*
X0236300Y0042534D01*
X0236300Y0040466D01*
X0237092Y0038554D01*
X0238554Y0037092D01*
X0240466Y0036300D01*
X0242534Y0036300D01*
X0240109Y0036448D02*
X0217276Y0036448D01*
X0218275Y0037446D02*
X0238200Y0037446D01*
X0237201Y0038445D02*
X0219273Y0038445D01*
X0220272Y0039443D02*
X0236723Y0039443D01*
X0236310Y0040442D02*
X0221270Y0040442D01*
X0222269Y0041440D02*
X0236300Y0041440D01*
X0236300Y0042439D02*
X0223267Y0042439D01*
X0224266Y0043437D02*
X0236674Y0043437D01*
X0237088Y0044436D02*
X0225264Y0044436D01*
X0226263Y0045434D02*
X0238081Y0045434D01*
X0239821Y0046433D02*
X0227261Y0046433D01*
X0228260Y0047432D02*
X0244603Y0047432D01*
X0243945Y0048430D02*
X0245602Y0048430D01*
X0244944Y0049429D02*
X0246600Y0049429D01*
X0245400Y0049885D02*
X0245400Y0053115D01*
X0243115Y0055400D01*
X0239885Y0055400D01*
X0237600Y0053115D01*
X0237600Y0049885D01*
X0239885Y0047600D01*
X0243115Y0047600D01*
X0245400Y0049885D01*
X0245400Y0050427D02*
X0247599Y0050427D01*
X0248597Y0051426D02*
X0245400Y0051426D01*
X0245400Y0052424D02*
X0249596Y0052424D01*
X0250594Y0053423D02*
X0245093Y0053423D01*
X0244094Y0054421D02*
X0251593Y0054421D01*
X0252591Y0055420D02*
X0233500Y0055420D01*
X0233500Y0056418D02*
X0253590Y0056418D01*
X0254500Y0057417D02*
X0233500Y0057417D01*
X0233500Y0058415D02*
X0244269Y0058415D01*
X0244291Y0058394D02*
X0245724Y0057800D01*
X0247276Y0057800D01*
X0248709Y0058394D01*
X0249806Y0059491D01*
X0250400Y0060924D01*
X0250400Y0067276D01*
X0249806Y0068709D01*
X0248709Y0069806D01*
X0247276Y0070400D01*
X0245724Y0070400D01*
X0244291Y0069806D01*
X0243194Y0068709D01*
X0242600Y0067276D01*
X0242600Y0060924D01*
X0243194Y0059491D01*
X0244291Y0058394D01*
X0243271Y0059414D02*
X0233500Y0059414D01*
X0233500Y0060412D02*
X0242812Y0060412D01*
X0242600Y0061411D02*
X0233500Y0061411D01*
X0233500Y0062409D02*
X0242600Y0062409D01*
X0242600Y0063408D02*
X0233500Y0063408D01*
X0233500Y0064406D02*
X0242600Y0064406D01*
X0242600Y0065405D02*
X0233500Y0065405D01*
X0233500Y0066403D02*
X0242600Y0066403D01*
X0242652Y0067402D02*
X0233500Y0067402D01*
X0233500Y0068400D02*
X0243066Y0068400D01*
X0243883Y0069399D02*
X0233500Y0069399D01*
X0233500Y0070397D02*
X0245718Y0070397D01*
X0247282Y0070397D02*
X0255718Y0070397D01*
X0257282Y0070397D02*
X0265718Y0070397D01*
X0265724Y0070400D02*
X0264291Y0069806D01*
X0263194Y0068709D01*
X0262600Y0067276D01*
X0262600Y0060924D01*
X0263194Y0059491D01*
X0264291Y0058394D01*
X0265724Y0057800D01*
X0267276Y0057800D01*
X0268709Y0058394D01*
X0269806Y0059491D01*
X0270400Y0060924D01*
X0270400Y0067276D01*
X0269806Y0068709D01*
X0268709Y0069806D01*
X0267276Y0070400D01*
X0265724Y0070400D01*
X0267282Y0070397D02*
X0275718Y0070397D01*
X0275724Y0070400D02*
X0274291Y0069806D01*
X0273194Y0068709D01*
X0272600Y0067276D01*
X0272600Y0060924D01*
X0273194Y0059491D01*
X0274291Y0058394D01*
X0275724Y0057800D01*
X0277276Y0057800D01*
X0278709Y0058394D01*
X0279806Y0059491D01*
X0280400Y0060924D01*
X0280400Y0067276D01*
X0279806Y0068709D01*
X0278709Y0069806D01*
X0277276Y0070400D01*
X0275724Y0070400D01*
X0277282Y0070397D02*
X0282496Y0070397D01*
X0282496Y0069399D02*
X0279117Y0069399D01*
X0279934Y0068400D02*
X0282496Y0068400D01*
X0282496Y0067402D02*
X0280348Y0067402D01*
X0280400Y0066403D02*
X0282496Y0066403D01*
X0282496Y0065405D02*
X0280400Y0065405D01*
X0280400Y0064406D02*
X0282496Y0064406D01*
X0282496Y0063408D02*
X0280400Y0063408D01*
X0280400Y0062409D02*
X0282496Y0062409D01*
X0282496Y0061411D02*
X0280400Y0061411D01*
X0280188Y0060412D02*
X0282496Y0060412D01*
X0282496Y0059414D02*
X0279729Y0059414D01*
X0278731Y0058415D02*
X0282496Y0058415D01*
X0282496Y0057417D02*
X0258500Y0057417D01*
X0258500Y0056418D02*
X0282496Y0056418D01*
X0282496Y0055420D02*
X0258248Y0055420D01*
X0257250Y0054421D02*
X0282496Y0054421D01*
X0282496Y0053423D02*
X0256251Y0053423D01*
X0255252Y0052424D02*
X0282496Y0052424D01*
X0282496Y0051426D02*
X0254254Y0051426D01*
X0253255Y0050427D02*
X0282496Y0050427D01*
X0282496Y0049429D02*
X0262335Y0049429D01*
X0260350Y0049429D02*
X0252257Y0049429D01*
X0251258Y0048430D02*
X0258390Y0048430D01*
X0257397Y0047432D02*
X0250260Y0047432D01*
X0249261Y0046433D02*
X0256983Y0046433D01*
X0256693Y0045434D02*
X0248263Y0045434D01*
X0247264Y0044436D02*
X0256693Y0044436D01*
X0256877Y0043437D02*
X0246326Y0043437D01*
X0246700Y0042439D02*
X0257291Y0042439D01*
X0258134Y0041440D02*
X0246700Y0041440D01*
X0246690Y0040442D02*
X0258276Y0040442D01*
X0257350Y0039443D02*
X0246277Y0039443D01*
X0245799Y0038445D02*
X0256936Y0038445D01*
X0256693Y0037446D02*
X0244800Y0037446D01*
X0241500Y0041500D02*
X0256500Y0056500D01*
X0256500Y0066500D01*
X0260400Y0066403D02*
X0262600Y0066403D01*
X0262600Y0065405D02*
X0260400Y0065405D01*
X0260400Y0064406D02*
X0262600Y0064406D01*
X0262600Y0063408D02*
X0260400Y0063408D01*
X0260400Y0062409D02*
X0262600Y0062409D01*
X0262600Y0061411D02*
X0260400Y0061411D01*
X0260188Y0060412D02*
X0262812Y0060412D01*
X0263271Y0059414D02*
X0259729Y0059414D01*
X0258731Y0058415D02*
X0264269Y0058415D01*
X0268731Y0058415D02*
X0274269Y0058415D01*
X0273271Y0059414D02*
X0269729Y0059414D01*
X0270188Y0060412D02*
X0272812Y0060412D01*
X0272600Y0061411D02*
X0270400Y0061411D01*
X0270400Y0062409D02*
X0272600Y0062409D01*
X0272600Y0063408D02*
X0270400Y0063408D01*
X0270400Y0064406D02*
X0272600Y0064406D01*
X0272600Y0065405D02*
X0270400Y0065405D01*
X0270400Y0066403D02*
X0272600Y0066403D01*
X0272652Y0067402D02*
X0270348Y0067402D01*
X0269934Y0068400D02*
X0273066Y0068400D01*
X0273883Y0069399D02*
X0269117Y0069399D01*
X0263883Y0069399D02*
X0259117Y0069399D01*
X0259934Y0068400D02*
X0263066Y0068400D01*
X0262652Y0067402D02*
X0260348Y0067402D01*
X0253883Y0069399D02*
X0249117Y0069399D01*
X0249934Y0068400D02*
X0253066Y0068400D01*
X0252652Y0067402D02*
X0250348Y0067402D01*
X0250400Y0066403D02*
X0252600Y0066403D01*
X0252600Y0065405D02*
X0250400Y0065405D01*
X0250400Y0064406D02*
X0252600Y0064406D01*
X0252600Y0063408D02*
X0250400Y0063408D01*
X0250400Y0062409D02*
X0252600Y0062409D01*
X0252600Y0061411D02*
X0250400Y0061411D01*
X0250188Y0060412D02*
X0252812Y0060412D01*
X0253271Y0059414D02*
X0249729Y0059414D01*
X0248731Y0058415D02*
X0254269Y0058415D01*
X0264295Y0048430D02*
X0282496Y0048430D01*
X0282496Y0047432D02*
X0265288Y0047432D01*
X0265702Y0046433D02*
X0282496Y0046433D01*
X0282496Y0045434D02*
X0265992Y0045434D01*
X0265992Y0044436D02*
X0282496Y0044436D01*
X0282496Y0043437D02*
X0265808Y0043437D01*
X0265394Y0042439D02*
X0282496Y0042439D01*
X0282496Y0041440D02*
X0264551Y0041440D01*
X0264409Y0040442D02*
X0282496Y0040442D01*
X0282496Y0039443D02*
X0265335Y0039443D01*
X0265749Y0038445D02*
X0282496Y0038445D01*
X0282496Y0037446D02*
X0265992Y0037446D01*
X0265992Y0036448D02*
X0282496Y0036448D01*
X0282496Y0035449D02*
X0265761Y0035449D01*
X0265347Y0034451D02*
X0282496Y0034451D01*
X0282496Y0033452D02*
X0264437Y0033452D01*
X0265389Y0017476D02*
X0021076Y0017476D01*
X0020744Y0018278D02*
X0018278Y0020744D01*
X0015055Y0022079D01*
X0011567Y0022079D01*
X0008345Y0020744D01*
X0005878Y0018278D01*
X0004543Y0015055D01*
X0004543Y0011567D01*
X0005878Y0008345D01*
X0008345Y0005878D01*
X0011567Y0004543D01*
X0015055Y0004543D01*
X0018278Y0005878D01*
X0020744Y0008345D01*
X0022079Y0011567D01*
X0022079Y0015055D01*
X0020744Y0018278D01*
X0020547Y0018475D02*
X0209010Y0018475D01*
X0208011Y0019473D02*
X0019548Y0019473D01*
X0018550Y0020472D02*
X0207600Y0020472D01*
X0207600Y0021470D02*
X0164299Y0021470D01*
X0165297Y0022469D02*
X0207600Y0022469D01*
X0207952Y0023467D02*
X0166296Y0023467D01*
X0167294Y0024466D02*
X0208950Y0024466D01*
X0209500Y0025464D02*
X0168293Y0025464D01*
X0169291Y0026463D02*
X0209500Y0026463D01*
X0209500Y0027461D02*
X0170290Y0027461D01*
X0171288Y0028460D02*
X0209500Y0028460D01*
X0209500Y0029458D02*
X0172287Y0029458D01*
X0173285Y0030457D02*
X0209500Y0030457D01*
X0209500Y0031455D02*
X0174284Y0031455D01*
X0175282Y0032454D02*
X0209500Y0032454D01*
X0209500Y0033452D02*
X0176281Y0033452D01*
X0177279Y0034451D02*
X0209622Y0034451D01*
X0210621Y0035449D02*
X0178278Y0035449D01*
X0177500Y0037500D02*
X0162500Y0022500D01*
X0078500Y0022500D01*
X0005500Y0095500D01*
X0005500Y0146500D01*
X0023500Y0164500D01*
X0042500Y0164500D01*
X0051500Y0155500D01*
X0051500Y0149500D01*
X0045500Y0143500D01*
X0044807Y0143232D01*
X0048669Y0143289D02*
X0062883Y0143289D01*
X0061884Y0144287D02*
X0049116Y0144287D01*
X0050114Y0145286D02*
X0054103Y0145286D01*
X0053245Y0146284D02*
X0051113Y0146284D01*
X0052111Y0147283D02*
X0052831Y0147283D01*
X0056618Y0148232D02*
X0057500Y0147500D01*
X0061500Y0147500D01*
X0085500Y0123500D01*
X0085500Y0089500D01*
X0092500Y0089500D01*
X0094500Y0091500D01*
X0096500Y0091500D01*
X0098933Y0090368D02*
X0100320Y0090368D01*
X0098500Y0089500D02*
X0094500Y0085500D01*
X0083500Y0085500D01*
X0077500Y0091500D01*
X0077500Y0121500D01*
X0081500Y0121500D01*
X0081200Y0121321D02*
X0055507Y0121321D01*
X0056500Y0121500D02*
X0045500Y0132500D01*
X0044807Y0133232D01*
X0045095Y0133303D02*
X0072868Y0133303D01*
X0073867Y0132305D02*
X0048560Y0132305D01*
X0048165Y0131306D02*
X0052847Y0131306D01*
X0052756Y0131216D02*
X0052756Y0125249D01*
X0053635Y0124370D01*
X0059602Y0124370D01*
X0060480Y0125249D01*
X0060480Y0131216D01*
X0059602Y0132094D01*
X0053635Y0132094D01*
X0052756Y0131216D01*
X0052756Y0130308D02*
X0047345Y0130308D01*
X0045519Y0129309D02*
X0052756Y0129309D01*
X0052756Y0128311D02*
X0046517Y0128311D01*
X0047516Y0127312D02*
X0052756Y0127312D01*
X0052756Y0126314D02*
X0050514Y0126314D01*
X0051513Y0125315D02*
X0052756Y0125315D01*
X0052512Y0124317D02*
X0078801Y0124317D01*
X0077803Y0123318D02*
X0053510Y0123318D01*
X0054509Y0122320D02*
X0077600Y0122320D01*
X0077500Y0121500D02*
X0056500Y0121500D01*
X0056506Y0120323D02*
X0077600Y0120323D01*
X0077600Y0119885D02*
X0077600Y0121200D01*
X0081200Y0121200D01*
X0081200Y0117600D01*
X0079885Y0117600D01*
X0077600Y0119885D01*
X0078160Y0119324D02*
X0057504Y0119324D01*
X0058503Y0118326D02*
X0079159Y0118326D01*
X0081200Y0118326D02*
X0081800Y0118326D01*
X0081800Y0119324D02*
X0081200Y0119324D01*
X0081200Y0120323D02*
X0081800Y0120323D01*
X0079800Y0125315D02*
X0060480Y0125315D01*
X0060480Y0126314D02*
X0079858Y0126314D01*
X0078859Y0127312D02*
X0060480Y0127312D01*
X0060480Y0128311D02*
X0077861Y0128311D01*
X0076862Y0129309D02*
X0060480Y0129309D01*
X0060480Y0130308D02*
X0075864Y0130308D01*
X0074865Y0131306D02*
X0060390Y0131306D01*
X0058806Y0134958D02*
X0057386Y0134370D01*
X0055850Y0134370D01*
X0054430Y0134958D01*
X0053344Y0136045D01*
X0052756Y0137464D01*
X0052756Y0139001D01*
X0053344Y0140420D01*
X0054430Y0141506D01*
X0055850Y0142094D01*
X0057386Y0142094D01*
X0058806Y0141506D01*
X0059892Y0140420D01*
X0060480Y0139001D01*
X0060480Y0137464D01*
X0059892Y0136045D01*
X0058806Y0134958D01*
X0059148Y0135301D02*
X0070871Y0135301D01*
X0069873Y0136299D02*
X0059998Y0136299D01*
X0060411Y0137298D02*
X0068874Y0137298D01*
X0067876Y0138296D02*
X0060480Y0138296D01*
X0060359Y0139295D02*
X0066877Y0139295D01*
X0065878Y0140293D02*
X0059945Y0140293D01*
X0059021Y0141292D02*
X0064880Y0141292D01*
X0063881Y0142290D02*
X0048597Y0142290D01*
X0048184Y0141292D02*
X0054215Y0141292D01*
X0053291Y0140293D02*
X0047330Y0140293D01*
X0047169Y0136299D02*
X0053238Y0136299D01*
X0052825Y0137298D02*
X0036789Y0137298D01*
X0036858Y0138296D02*
X0052756Y0138296D01*
X0052878Y0139295D02*
X0037123Y0139295D01*
X0038121Y0140293D02*
X0042284Y0140293D01*
X0041431Y0141292D02*
X0039120Y0141292D01*
X0040119Y0142290D02*
X0041017Y0142290D01*
X0042445Y0136299D02*
X0036376Y0136299D01*
X0035526Y0135301D02*
X0041544Y0135301D01*
X0041082Y0134302D02*
X0040526Y0134302D01*
X0039500Y0132500D02*
X0047500Y0124500D01*
X0049500Y0124500D01*
X0075500Y0098500D01*
X0075500Y0090500D01*
X0082500Y0083500D01*
X0118500Y0083500D01*
X0131500Y0070500D01*
X0131500Y0066500D01*
X0147500Y0050500D01*
X0148232Y0049807D01*
X0150500Y0054500D02*
X0151500Y0055500D01*
X0151500Y0066500D01*
X0155500Y0064500D02*
X0155500Y0070500D01*
X0152500Y0073500D01*
X0132500Y0073500D01*
X0124500Y0073500D02*
X0115500Y0073500D01*
X0108500Y0080500D01*
X0095500Y0080500D01*
X0093500Y0075500D02*
X0101500Y0067500D01*
X0101500Y0066500D01*
X0097500Y0068500D02*
X0097500Y0062500D01*
X0101500Y0058500D01*
X0129500Y0058500D01*
X0137500Y0050500D01*
X0138232Y0049807D01*
X0128232Y0049807D02*
X0127500Y0050500D01*
X0123500Y0054500D01*
X0118500Y0054500D01*
X0118500Y0055500D01*
X0118500Y0054500D02*
X0073500Y0054500D01*
X0044500Y0083500D01*
X0044500Y0086500D01*
X0036500Y0094500D01*
X0027500Y0094500D01*
X0012500Y0109500D01*
X0011500Y0111988D02*
X0011500Y0136672D01*
X0017323Y0142494D01*
X0017323Y0142464D01*
X0017414Y0142243D01*
X0013672Y0138500D01*
X0012500Y0137328D01*
X0012500Y0129672D01*
X0022500Y0119672D01*
X0022518Y0119654D01*
X0021685Y0119654D01*
X0021685Y0112354D01*
X0028984Y0112354D01*
X0028984Y0115085D01*
X0025569Y0118500D01*
X0040423Y0118500D01*
X0037008Y0115085D01*
X0037008Y0112354D01*
X0044307Y0112354D01*
X0044307Y0111354D01*
X0045307Y0111354D01*
X0045307Y0104055D01*
X0048038Y0104055D01*
X0052606Y0108624D01*
X0052606Y0111354D01*
X0045307Y0111354D01*
X0045307Y0112354D01*
X0052606Y0112354D01*
X0052606Y0112565D01*
X0069500Y0095672D01*
X0069500Y0087672D01*
X0084500Y0072672D01*
X0085672Y0071500D01*
X0088585Y0071500D01*
X0088194Y0071109D01*
X0087600Y0069676D01*
X0087600Y0063324D01*
X0088194Y0061891D01*
X0089291Y0060794D01*
X0090724Y0060200D01*
X0092276Y0060200D01*
X0093709Y0060794D01*
X0094806Y0061891D01*
X0095400Y0063324D01*
X0095400Y0067772D01*
X0095500Y0067672D01*
X0095500Y0061672D01*
X0096672Y0060500D01*
X0099500Y0057672D01*
X0099500Y0057672D01*
X0100672Y0056500D01*
X0116012Y0056500D01*
X0074328Y0056500D01*
X0053450Y0077378D01*
X0056000Y0077378D01*
X0059222Y0078713D01*
X0061689Y0081179D01*
X0063024Y0084402D01*
X0063024Y0087890D01*
X0061689Y0091112D01*
X0059222Y0093579D01*
X0056000Y0094913D01*
X0052512Y0094913D01*
X0049289Y0093579D01*
X0046823Y0091112D01*
X0045620Y0088208D01*
X0045328Y0088500D01*
X0037328Y0096500D01*
X0028328Y0096500D01*
X0020685Y0104143D01*
X0020685Y0111354D01*
X0021685Y0111354D01*
X0021685Y0104055D01*
X0024416Y0104055D01*
X0028984Y0108624D01*
X0028984Y0111354D01*
X0021685Y0111354D01*
X0021685Y0112354D01*
X0020685Y0112354D01*
X0020685Y0111354D01*
X0014437Y0111354D01*
X0014019Y0111773D01*
X0013033Y0112181D01*
X0011967Y0112181D01*
X0011500Y0111988D01*
X0011500Y0112335D02*
X0020685Y0112335D01*
X0020685Y0112354D02*
X0013386Y0112354D01*
X0013386Y0115085D01*
X0017955Y0119654D01*
X0020685Y0119654D01*
X0020685Y0112354D01*
X0021185Y0111854D02*
X0021500Y0111500D01*
X0044500Y0111500D01*
X0044807Y0111854D01*
X0044307Y0112335D02*
X0021685Y0112335D01*
X0021685Y0113333D02*
X0020685Y0113333D01*
X0020685Y0114332D02*
X0021685Y0114332D01*
X0021685Y0115330D02*
X0020685Y0115330D01*
X0020685Y0116329D02*
X0021685Y0116329D01*
X0021685Y0117327D02*
X0020685Y0117327D01*
X0020685Y0118326D02*
X0021685Y0118326D01*
X0021685Y0119324D02*
X0020685Y0119324D01*
X0021849Y0120323D02*
X0011500Y0120323D01*
X0011500Y0121321D02*
X0020850Y0121321D01*
X0019852Y0122320D02*
X0011500Y0122320D01*
X0011500Y0123318D02*
X0018853Y0123318D01*
X0017855Y0124317D02*
X0011500Y0124317D01*
X0011500Y0125315D02*
X0016856Y0125315D01*
X0015858Y0126314D02*
X0011500Y0126314D01*
X0011500Y0127312D02*
X0014859Y0127312D01*
X0013861Y0128311D02*
X0011500Y0128311D01*
X0011500Y0129309D02*
X0012862Y0129309D01*
X0012500Y0130308D02*
X0011500Y0130308D01*
X0011500Y0131306D02*
X0012500Y0131306D01*
X0012500Y0132305D02*
X0011500Y0132305D01*
X0011500Y0133303D02*
X0012500Y0133303D01*
X0012500Y0134302D02*
X0011500Y0134302D01*
X0011500Y0135301D02*
X0012500Y0135301D01*
X0012500Y0136299D02*
X0011500Y0136299D01*
X0012126Y0137298D02*
X0012500Y0137298D01*
X0013124Y0138296D02*
X0013468Y0138296D01*
X0014123Y0139295D02*
X0014466Y0139295D01*
X0015121Y0140293D02*
X0015465Y0140293D01*
X0016120Y0141292D02*
X0016463Y0141292D01*
X0017119Y0142290D02*
X0017395Y0142290D01*
X0020500Y0142500D02*
X0021185Y0143232D01*
X0020500Y0142500D02*
X0014500Y0136500D01*
X0014500Y0130500D01*
X0024500Y0120500D01*
X0047500Y0120500D01*
X0071500Y0096500D01*
X0071500Y0088500D01*
X0086500Y0073500D01*
X0092500Y0073500D01*
X0097500Y0068500D01*
X0095500Y0067402D02*
X0095400Y0067402D01*
X0095400Y0066403D02*
X0095500Y0066403D01*
X0095500Y0065405D02*
X0095400Y0065405D01*
X0095400Y0064406D02*
X0095500Y0064406D01*
X0095500Y0063408D02*
X0095400Y0063408D01*
X0095500Y0062409D02*
X0095021Y0062409D01*
X0094326Y0061411D02*
X0095761Y0061411D01*
X0096672Y0060500D02*
X0096672Y0060500D01*
X0096759Y0060412D02*
X0092788Y0060412D01*
X0090212Y0060412D02*
X0082788Y0060412D01*
X0082276Y0060200D02*
X0083709Y0060794D01*
X0084806Y0061891D01*
X0085400Y0063324D01*
X0085400Y0069676D01*
X0084806Y0071109D01*
X0083709Y0072206D01*
X0082276Y0072800D01*
X0080724Y0072800D01*
X0079291Y0072206D01*
X0078194Y0071109D01*
X0077600Y0069676D01*
X0077600Y0063324D01*
X0078194Y0061891D01*
X0079291Y0060794D01*
X0080724Y0060200D01*
X0082276Y0060200D01*
X0080212Y0060412D02*
X0070416Y0060412D01*
X0069418Y0061411D02*
X0078674Y0061411D01*
X0077979Y0062409D02*
X0068419Y0062409D01*
X0067421Y0063408D02*
X0077600Y0063408D01*
X0077600Y0064406D02*
X0066422Y0064406D01*
X0065424Y0065405D02*
X0077600Y0065405D01*
X0077600Y0066403D02*
X0064425Y0066403D01*
X0063427Y0067402D02*
X0077600Y0067402D01*
X0077600Y0068400D02*
X0062428Y0068400D01*
X0061430Y0069399D02*
X0077600Y0069399D01*
X0077899Y0070397D02*
X0060431Y0070397D01*
X0059433Y0071396D02*
X0078480Y0071396D01*
X0079745Y0072394D02*
X0058434Y0072394D01*
X0057436Y0073393D02*
X0083779Y0073393D01*
X0083255Y0072394D02*
X0084777Y0072394D01*
X0084520Y0071396D02*
X0088480Y0071396D01*
X0087899Y0070397D02*
X0085101Y0070397D01*
X0085400Y0069399D02*
X0087600Y0069399D01*
X0087600Y0068400D02*
X0085400Y0068400D01*
X0085400Y0067402D02*
X0087600Y0067402D01*
X0087600Y0066403D02*
X0085400Y0066403D01*
X0085400Y0065405D02*
X0087600Y0065405D01*
X0087600Y0064406D02*
X0085400Y0064406D01*
X0085400Y0063408D02*
X0087600Y0063408D01*
X0087979Y0062409D02*
X0085021Y0062409D01*
X0084326Y0061411D02*
X0088674Y0061411D01*
X0097758Y0059414D02*
X0071415Y0059414D01*
X0072413Y0058415D02*
X0098756Y0058415D01*
X0099755Y0057417D02*
X0073412Y0057417D01*
X0082780Y0074391D02*
X0056437Y0074391D01*
X0055439Y0075390D02*
X0081782Y0075390D01*
X0080783Y0076388D02*
X0054440Y0076388D01*
X0056021Y0077387D02*
X0079785Y0077387D01*
X0078786Y0078385D02*
X0058432Y0078385D01*
X0059894Y0079384D02*
X0077788Y0079384D01*
X0076789Y0080382D02*
X0060892Y0080382D01*
X0061772Y0081381D02*
X0075791Y0081381D01*
X0074792Y0082379D02*
X0062186Y0082379D01*
X0062600Y0083378D02*
X0073794Y0083378D01*
X0072795Y0084376D02*
X0063013Y0084376D01*
X0063024Y0085375D02*
X0071797Y0085375D01*
X0070798Y0086373D02*
X0063024Y0086373D01*
X0063024Y0087372D02*
X0069800Y0087372D01*
X0069500Y0088370D02*
X0062824Y0088370D01*
X0062411Y0089369D02*
X0069500Y0089369D01*
X0069500Y0090368D02*
X0061997Y0090368D01*
X0061435Y0091366D02*
X0069500Y0091366D01*
X0069500Y0092365D02*
X0060436Y0092365D01*
X0059438Y0093363D02*
X0069500Y0093363D01*
X0069500Y0094362D02*
X0057332Y0094362D01*
X0065817Y0099354D02*
X0025474Y0099354D01*
X0024476Y0100353D02*
X0064819Y0100353D01*
X0063820Y0101351D02*
X0023477Y0101351D01*
X0022479Y0102350D02*
X0062822Y0102350D01*
X0061823Y0103348D02*
X0021480Y0103348D01*
X0021685Y0104347D02*
X0020685Y0104347D01*
X0020685Y0105345D02*
X0021685Y0105345D01*
X0021685Y0106344D02*
X0020685Y0106344D01*
X0020685Y0107342D02*
X0021685Y0107342D01*
X0021685Y0108341D02*
X0020685Y0108341D01*
X0020685Y0109339D02*
X0021685Y0109339D01*
X0021685Y0110338D02*
X0020685Y0110338D01*
X0020685Y0111336D02*
X0021685Y0111336D01*
X0026704Y0106344D02*
X0039288Y0106344D01*
X0038289Y0107342D02*
X0027703Y0107342D01*
X0028701Y0108341D02*
X0037291Y0108341D01*
X0037008Y0108624D02*
X0037008Y0111354D01*
X0044307Y0111354D01*
X0044307Y0104055D01*
X0041577Y0104055D01*
X0037008Y0108624D01*
X0037008Y0109339D02*
X0028984Y0109339D01*
X0028984Y0110338D02*
X0037008Y0110338D01*
X0037008Y0111336D02*
X0028984Y0111336D01*
X0028984Y0113333D02*
X0037008Y0113333D01*
X0037008Y0114332D02*
X0028984Y0114332D01*
X0028739Y0115330D02*
X0037253Y0115330D01*
X0038252Y0116329D02*
X0027740Y0116329D01*
X0026742Y0117327D02*
X0039250Y0117327D01*
X0040249Y0118326D02*
X0025743Y0118326D01*
X0025500Y0122500D02*
X0048500Y0122500D01*
X0073500Y0097500D01*
X0073500Y0089500D01*
X0087500Y0075500D01*
X0093500Y0075500D01*
X0100500Y0073500D02*
X0112500Y0073500D01*
X0119500Y0066500D01*
X0121500Y0066500D01*
X0116012Y0056500D02*
X0116012Y0056500D01*
X0108232Y0049807D02*
X0108500Y0049500D01*
X0112500Y0045500D01*
X0190500Y0045500D01*
X0211500Y0066500D01*
X0207600Y0066403D02*
X0205400Y0066403D01*
X0205400Y0065405D02*
X0207576Y0065405D01*
X0206578Y0064406D02*
X0205400Y0064406D01*
X0205400Y0063408D02*
X0205579Y0063408D01*
X0205400Y0067402D02*
X0207600Y0067402D01*
X0207600Y0068400D02*
X0205400Y0068400D01*
X0205400Y0069399D02*
X0207600Y0069399D01*
X0207899Y0070397D02*
X0205101Y0070397D01*
X0204520Y0071396D02*
X0208480Y0071396D01*
X0209745Y0072394D02*
X0203255Y0072394D01*
X0199745Y0072394D02*
X0193255Y0072394D01*
X0194520Y0071396D02*
X0198480Y0071396D01*
X0197899Y0070397D02*
X0195101Y0070397D01*
X0195400Y0069399D02*
X0197600Y0069399D01*
X0197600Y0068400D02*
X0195400Y0068400D01*
X0195400Y0067402D02*
X0197600Y0067402D01*
X0197600Y0066403D02*
X0195400Y0066403D01*
X0195400Y0065405D02*
X0197600Y0065405D01*
X0197600Y0064406D02*
X0195400Y0064406D01*
X0195400Y0063408D02*
X0197600Y0063408D01*
X0197979Y0062409D02*
X0195021Y0062409D01*
X0194326Y0061411D02*
X0198674Y0061411D01*
X0200212Y0060412D02*
X0192788Y0060412D01*
X0190212Y0060412D02*
X0189500Y0060412D01*
X0189500Y0059414D02*
X0201585Y0059414D01*
X0200587Y0058415D02*
X0189500Y0058415D01*
X0189500Y0057417D02*
X0199588Y0057417D01*
X0198590Y0056418D02*
X0189500Y0056418D01*
X0189500Y0055420D02*
X0197591Y0055420D01*
X0196593Y0054421D02*
X0189500Y0054421D01*
X0190406Y0053423D02*
X0195594Y0053423D01*
X0194596Y0052424D02*
X0192368Y0052424D01*
X0193019Y0051426D02*
X0193597Y0051426D01*
X0190500Y0050500D02*
X0187500Y0053500D01*
X0187500Y0068500D01*
X0182500Y0073500D01*
X0180500Y0073500D01*
X0177500Y0070500D01*
X0177500Y0055500D01*
X0175500Y0053500D01*
X0173500Y0053500D01*
X0171500Y0055500D01*
X0171500Y0056500D01*
X0161500Y0066500D01*
X0155500Y0064500D02*
X0160500Y0059500D01*
X0164500Y0059500D01*
X0173500Y0050500D01*
X0177500Y0050500D01*
X0178232Y0049807D01*
X0181500Y0054500D02*
X0187500Y0048500D01*
X0192264Y0044436D02*
X0207088Y0044436D01*
X0206674Y0043437D02*
X0180542Y0043437D01*
X0181540Y0042439D02*
X0206300Y0042439D01*
X0206300Y0041440D02*
X0182432Y0041440D01*
X0182432Y0040442D02*
X0206310Y0040442D01*
X0206723Y0039443D02*
X0182432Y0039443D01*
X0182432Y0038445D02*
X0207201Y0038445D01*
X0208200Y0037446D02*
X0181811Y0037446D01*
X0180813Y0036448D02*
X0210109Y0036448D01*
X0211500Y0033500D02*
X0231500Y0053500D01*
X0231500Y0075500D01*
X0231500Y0076500D01*
X0231500Y0075500D02*
X0240500Y0084500D01*
X0234500Y0090500D01*
X0213500Y0090500D01*
X0212500Y0089500D01*
X0178500Y0089500D01*
X0171500Y0096500D01*
X0167600Y0096359D02*
X0165400Y0096359D01*
X0165400Y0097357D02*
X0167600Y0097357D01*
X0167600Y0098356D02*
X0165400Y0098356D01*
X0165400Y0099354D02*
X0167600Y0099354D01*
X0167880Y0100353D02*
X0165120Y0100353D01*
X0164564Y0101351D02*
X0168436Y0101351D01*
X0167600Y0095360D02*
X0165400Y0095360D01*
X0165400Y0094362D02*
X0167600Y0094362D01*
X0167600Y0093363D02*
X0165400Y0093363D01*
X0165002Y0092365D02*
X0167998Y0092365D01*
X0168719Y0091366D02*
X0164281Y0091366D01*
X0162680Y0090368D02*
X0170320Y0090368D01*
X0172680Y0090368D02*
X0174804Y0090368D01*
X0175803Y0089369D02*
X0155197Y0089369D01*
X0154199Y0088370D02*
X0176801Y0088370D01*
X0168446Y0080382D02*
X0229867Y0080382D01*
X0228868Y0079384D02*
X0169445Y0079384D01*
X0170443Y0078385D02*
X0227870Y0078385D01*
X0227600Y0077387D02*
X0171442Y0077387D01*
X0172440Y0076388D02*
X0227600Y0076388D01*
X0227600Y0075390D02*
X0183439Y0075390D01*
X0184437Y0074391D02*
X0228093Y0074391D01*
X0229092Y0073393D02*
X0185436Y0073393D01*
X0186434Y0072394D02*
X0189745Y0072394D01*
X0188480Y0071396D02*
X0187433Y0071396D01*
X0181500Y0066500D02*
X0181500Y0054500D01*
X0174500Y0061500D02*
X0175500Y0062500D01*
X0175500Y0070500D01*
X0162500Y0083500D01*
X0121500Y0083500D01*
X0118500Y0086500D01*
X0120421Y0088370D02*
X0148819Y0088370D01*
X0148958Y0089369D02*
X0098161Y0089369D01*
X0098500Y0089500D02*
X0132500Y0089500D01*
X0137500Y0094500D01*
X0141500Y0094500D01*
X0141500Y0096500D01*
X0141800Y0096359D02*
X0147600Y0096359D01*
X0147600Y0097357D02*
X0145400Y0097357D01*
X0145400Y0096800D02*
X0145400Y0099284D01*
X0145250Y0100038D01*
X0144956Y0100747D01*
X0144529Y0101386D01*
X0143986Y0101929D01*
X0143347Y0102356D01*
X0142638Y0102650D01*
X0141884Y0102800D01*
X0141800Y0102800D01*
X0141800Y0096800D01*
X0145400Y0096800D01*
X0145400Y0096200D02*
X0141800Y0096200D01*
X0141800Y0096800D01*
X0141200Y0096800D01*
X0141200Y0102800D01*
X0141116Y0102800D01*
X0140362Y0102650D01*
X0139653Y0102356D01*
X0139014Y0101929D01*
X0138471Y0101386D01*
X0138044Y0100747D01*
X0137750Y0100038D01*
X0137600Y0099284D01*
X0137600Y0096800D01*
X0141200Y0096800D01*
X0141200Y0096200D01*
X0141800Y0096200D01*
X0141800Y0090200D01*
X0141884Y0090200D01*
X0142638Y0090350D01*
X0143347Y0090644D01*
X0143986Y0091071D01*
X0144529Y0091614D01*
X0144956Y0092253D01*
X0145250Y0092962D01*
X0145400Y0093716D01*
X0145400Y0096200D01*
X0145400Y0095360D02*
X0147600Y0095360D01*
X0147600Y0094362D02*
X0145400Y0094362D01*
X0145330Y0093363D02*
X0147600Y0093363D01*
X0147998Y0092365D02*
X0145002Y0092365D01*
X0144281Y0091366D02*
X0148719Y0091366D01*
X0149576Y0090368D02*
X0142680Y0090368D01*
X0141800Y0090368D02*
X0141200Y0090368D01*
X0141200Y0090200D02*
X0141200Y0096200D01*
X0137600Y0096200D01*
X0137600Y0093716D01*
X0137750Y0092962D01*
X0138044Y0092253D01*
X0138471Y0091614D01*
X0139014Y0091071D01*
X0139653Y0090644D01*
X0140362Y0090350D01*
X0141116Y0090200D01*
X0141200Y0090200D01*
X0140320Y0090368D02*
X0132680Y0090368D01*
X0132276Y0090200D02*
X0133709Y0090794D01*
X0134806Y0091891D01*
X0135400Y0093324D01*
X0135400Y0099676D01*
X0134806Y0101109D01*
X0133709Y0102206D01*
X0132525Y0102697D01*
X0135328Y0105500D01*
X0262328Y0105500D01*
X0264973Y0108144D01*
X0265485Y0107932D01*
X0266104Y0107932D01*
X0265672Y0107500D01*
X0265672Y0107500D01*
X0264500Y0106328D01*
X0264500Y0104693D01*
X0264291Y0104606D01*
X0263194Y0103509D01*
X0262600Y0102076D01*
X0262600Y0095724D01*
X0263194Y0094291D01*
X0264291Y0093194D01*
X0265724Y0092600D01*
X0267276Y0092600D01*
X0268709Y0093194D01*
X0269806Y0094291D01*
X0270400Y0095724D01*
X0270400Y0102076D01*
X0269806Y0103509D01*
X0268709Y0104606D01*
X0268515Y0104687D01*
X0273328Y0109500D01*
X0273328Y0109500D01*
X0274500Y0110672D01*
X0274500Y0116328D01*
X0271328Y0119500D01*
X0274500Y0122672D01*
X0274500Y0139012D01*
X0274967Y0138819D01*
X0276033Y0138819D01*
X0277019Y0139227D01*
X0277773Y0139981D01*
X0278181Y0140967D01*
X0278181Y0142033D01*
X0277773Y0143019D01*
X0277500Y0143292D01*
X0277500Y0243328D01*
X0276328Y0244500D01*
X0264328Y0256500D01*
X0222672Y0256500D01*
X0221500Y0255328D01*
X0203500Y0237328D01*
X0203500Y0235328D01*
X0190400Y0222228D01*
X0190400Y0223115D01*
X0188115Y0225400D01*
X0184885Y0225400D01*
X0182600Y0223115D01*
X0182600Y0219885D01*
X0184885Y0217600D01*
X0185772Y0217600D01*
X0184500Y0216328D01*
X0184500Y0215015D01*
X0182600Y0213115D01*
X0182600Y0209885D01*
X0184328Y0208156D01*
X0180500Y0204328D01*
X0180500Y0202328D01*
X0170400Y0192228D01*
X0170400Y0193115D01*
X0168500Y0195015D01*
X0168500Y0196328D01*
X0167228Y0197600D01*
X0168115Y0197600D01*
X0170400Y0199885D01*
X0170400Y0203115D01*
X0168115Y0205400D01*
X0164885Y0205400D01*
X0164500Y0205015D01*
X0164500Y0207985D01*
X0164885Y0207600D01*
X0168115Y0207600D01*
X0170400Y0209885D01*
X0170400Y0213115D01*
X0168672Y0214843D01*
X0182962Y0229134D01*
X0183527Y0229134D01*
X0185236Y0229842D01*
X0186539Y0231145D01*
X0187843Y0229842D01*
X0189552Y0229134D01*
X0191401Y0229134D01*
X0193110Y0229842D01*
X0194418Y0231150D01*
X0195126Y0232859D01*
X0195126Y0234708D01*
X0194418Y0236417D01*
X0193110Y0237725D01*
X0191401Y0238433D01*
X0189552Y0238433D01*
X0187843Y0237725D01*
X0186539Y0236422D01*
X0185236Y0237725D01*
X0183527Y0238433D01*
X0181677Y0238433D01*
X0179969Y0237725D01*
X0178665Y0236422D01*
X0177362Y0237725D01*
X0175653Y0238433D01*
X0173803Y0238433D01*
X0172095Y0237725D01*
X0170791Y0236422D01*
X0169488Y0237725D01*
X0167779Y0238433D01*
X0165929Y0238433D01*
X0164221Y0237725D01*
X0162913Y0236417D01*
X0162205Y0234708D01*
X0162205Y0232859D01*
X0162446Y0232275D01*
X0160500Y0230328D01*
X0160500Y0198672D01*
X0164328Y0194843D01*
X0162600Y0193115D01*
X0162600Y0192228D01*
X0151328Y0203500D01*
X0150015Y0203500D01*
X0148115Y0205400D01*
X0147228Y0205400D01*
X0148500Y0206672D01*
X0148500Y0207985D01*
X0150400Y0209885D01*
X0150400Y0213115D01*
X0148115Y0215400D01*
X0144885Y0215400D01*
X0142600Y0213115D01*
X0142600Y0209885D01*
X0144328Y0208156D01*
X0141672Y0205500D01*
X0140500Y0204328D01*
X0140500Y0191328D01*
X0132500Y0199328D01*
X0132500Y0218328D01*
X0130400Y0220428D01*
X0130400Y0223115D01*
X0128115Y0225400D01*
X0124885Y0225400D01*
X0122600Y0223115D01*
X0122600Y0219885D01*
X0124885Y0217600D01*
X0127572Y0217600D01*
X0128500Y0216672D01*
X0128500Y0215015D01*
X0128115Y0215400D01*
X0124885Y0215400D01*
X0122600Y0213115D01*
X0122600Y0209885D01*
X0124885Y0207600D01*
X0128115Y0207600D01*
X0128500Y0207985D01*
X0128500Y0205015D01*
X0128115Y0205400D01*
X0124885Y0205400D01*
X0122600Y0203115D01*
X0122600Y0199885D01*
X0124885Y0197600D01*
X0128115Y0197600D01*
X0128500Y0197985D01*
X0128500Y0197672D01*
X0129672Y0196500D01*
X0144500Y0181672D01*
X0144500Y0178124D01*
X0143537Y0177725D01*
X0142046Y0176234D01*
X0141536Y0175004D01*
X0141451Y0175267D01*
X0141072Y0176010D01*
X0140582Y0176685D01*
X0139992Y0177275D01*
X0139317Y0177765D01*
X0138574Y0178144D01*
X0137780Y0178402D01*
X0137039Y0178519D01*
X0137039Y0173732D01*
X0136039Y0173732D01*
X0136039Y0178519D01*
X0135298Y0178402D01*
X0134505Y0178144D01*
X0133762Y0177765D01*
X0133087Y0177275D01*
X0132497Y0176685D01*
X0132006Y0176010D01*
X0131628Y0175267D01*
X0131542Y0175004D01*
X0131032Y0176234D01*
X0129542Y0177725D01*
X0128500Y0178157D01*
X0128500Y0183328D01*
X0098672Y0213156D01*
X0100400Y0214885D01*
X0100400Y0218115D01*
X0098115Y0220400D01*
X0094885Y0220400D01*
X0092600Y0218115D01*
X0092600Y0214885D01*
X0094500Y0212985D01*
X0094500Y0211672D01*
X0095672Y0210500D01*
X0124500Y0181672D01*
X0124500Y0178124D01*
X0123537Y0177725D01*
X0122046Y0176234D01*
X0121539Y0175011D01*
X0121032Y0176234D01*
X0119542Y0177725D01*
X0117594Y0178532D01*
X0115485Y0178532D01*
X0113537Y0177725D01*
X0112046Y0176234D01*
X0111539Y0175011D01*
X0111032Y0176234D01*
X0109542Y0177725D01*
X0107594Y0178532D01*
X0105485Y0178532D01*
X0103537Y0177725D01*
X0102046Y0176234D01*
X0101239Y0174287D01*
X0101239Y0172178D01*
X0101857Y0170686D01*
X0098500Y0167328D01*
X0098500Y0110672D01*
X0099672Y0109500D01*
X0108155Y0101016D01*
X0107600Y0099676D01*
X0107600Y0093324D01*
X0108194Y0091891D01*
X0109291Y0090794D01*
X0110724Y0090200D01*
X0112276Y0090200D01*
X0113709Y0090794D01*
X0114806Y0091891D01*
X0115400Y0093324D01*
X0115400Y0099676D01*
X0114806Y0101109D01*
X0113709Y0102206D01*
X0112276Y0102800D01*
X0112028Y0102800D01*
X0106896Y0107932D01*
X0107594Y0107932D01*
X0109542Y0108739D01*
X0111032Y0110230D01*
X0111539Y0111454D01*
X0112046Y0110230D01*
X0113537Y0108739D01*
X0115485Y0107932D01*
X0117594Y0107932D01*
X0119542Y0108739D01*
X0121032Y0110230D01*
X0121539Y0111454D01*
X0122046Y0110230D01*
X0123537Y0108739D01*
X0125485Y0107932D01*
X0127594Y0107932D01*
X0129542Y0108739D01*
X0131032Y0110230D01*
X0131539Y0111454D01*
X0132046Y0110230D01*
X0133224Y0109052D01*
X0132500Y0108328D01*
X0124945Y0100774D01*
X0124806Y0101109D01*
X0123709Y0102206D01*
X0122276Y0102800D01*
X0120724Y0102800D01*
X0119291Y0102206D01*
X0118194Y0101109D01*
X0117600Y0099676D01*
X0117600Y0093324D01*
X0118194Y0091891D01*
X0119291Y0090794D01*
X0120724Y0090200D01*
X0122276Y0090200D01*
X0123709Y0090794D01*
X0124806Y0091891D01*
X0125400Y0093324D01*
X0125400Y0095572D01*
X0127600Y0097772D01*
X0127600Y0093324D01*
X0128194Y0091891D01*
X0129291Y0090794D01*
X0130724Y0090200D01*
X0132276Y0090200D01*
X0130320Y0090368D02*
X0122680Y0090368D01*
X0124281Y0091366D02*
X0128719Y0091366D01*
X0127998Y0092365D02*
X0125002Y0092365D01*
X0125400Y0093363D02*
X0127600Y0093363D01*
X0127600Y0094362D02*
X0125400Y0094362D01*
X0125400Y0095360D02*
X0127600Y0095360D01*
X0127600Y0096359D02*
X0126187Y0096359D01*
X0127185Y0097357D02*
X0127600Y0097357D01*
X0123500Y0096500D02*
X0134500Y0107500D01*
X0261500Y0107500D01*
X0266500Y0112500D01*
X0266539Y0113232D01*
X0265514Y0107342D02*
X0264171Y0107342D01*
X0264515Y0106344D02*
X0263172Y0106344D01*
X0264500Y0105345D02*
X0203483Y0105345D01*
X0204482Y0104347D02*
X0244031Y0104347D01*
X0243127Y0103348D02*
X0205480Y0103348D01*
X0206479Y0102350D02*
X0209637Y0102350D01*
X0208436Y0101351D02*
X0207477Y0101351D01*
X0209500Y0096500D02*
X0202500Y0103500D01*
X0160500Y0103500D01*
X0155500Y0098500D01*
X0155500Y0092500D01*
X0151500Y0088500D01*
X0153935Y0087372D02*
X0227600Y0087372D01*
X0227855Y0088370D02*
X0214199Y0088370D01*
X0215400Y0093363D02*
X0244122Y0093363D01*
X0243164Y0094362D02*
X0215400Y0094362D01*
X0215400Y0095360D02*
X0242751Y0095360D01*
X0242600Y0096359D02*
X0215400Y0096359D01*
X0215400Y0097357D02*
X0242600Y0097357D01*
X0242600Y0098356D02*
X0215400Y0098356D01*
X0215400Y0099354D02*
X0242600Y0099354D01*
X0242600Y0100353D02*
X0215120Y0100353D01*
X0214564Y0101351D02*
X0242600Y0101351D01*
X0242713Y0102350D02*
X0213363Y0102350D01*
X0211500Y0096500D02*
X0209500Y0096500D01*
X0227600Y0086200D02*
X0227600Y0084885D01*
X0229885Y0082600D01*
X0231200Y0082600D01*
X0231200Y0086200D01*
X0227600Y0086200D01*
X0227600Y0085375D02*
X0163453Y0085375D01*
X0164452Y0084376D02*
X0228108Y0084376D01*
X0229107Y0083378D02*
X0165450Y0083378D01*
X0166449Y0082379D02*
X0235551Y0082379D01*
X0234552Y0081381D02*
X0167448Y0081381D01*
X0161500Y0076500D02*
X0171500Y0066500D01*
X0174500Y0061500D02*
X0174500Y0056500D01*
X0176434Y0072394D02*
X0176566Y0072394D01*
X0177564Y0073393D02*
X0175436Y0073393D01*
X0174437Y0074391D02*
X0178563Y0074391D01*
X0179561Y0075390D02*
X0173439Y0075390D01*
X0160320Y0090368D02*
X0156196Y0090368D01*
X0157194Y0091366D02*
X0158719Y0091366D01*
X0157998Y0092365D02*
X0157500Y0092365D01*
X0157500Y0093363D02*
X0157600Y0093363D01*
X0157600Y0094362D02*
X0157500Y0094362D01*
X0157500Y0095360D02*
X0157600Y0095360D01*
X0157600Y0096359D02*
X0157500Y0096359D01*
X0157500Y0097357D02*
X0157600Y0097357D01*
X0155523Y0101351D02*
X0154564Y0101351D01*
X0153363Y0102350D02*
X0156521Y0102350D01*
X0157520Y0103348D02*
X0133177Y0103348D01*
X0133363Y0102350D02*
X0139643Y0102350D01*
X0141200Y0102350D02*
X0141800Y0102350D01*
X0141800Y0101351D02*
X0141200Y0101351D01*
X0141200Y0100353D02*
X0141800Y0100353D01*
X0141800Y0099354D02*
X0141200Y0099354D01*
X0141200Y0098356D02*
X0141800Y0098356D01*
X0141800Y0097357D02*
X0141200Y0097357D01*
X0141200Y0096359D02*
X0135400Y0096359D01*
X0135400Y0097357D02*
X0137600Y0097357D01*
X0137600Y0098356D02*
X0135400Y0098356D01*
X0135400Y0099354D02*
X0137614Y0099354D01*
X0137880Y0100353D02*
X0135120Y0100353D01*
X0134564Y0101351D02*
X0138447Y0101351D01*
X0135174Y0105345D02*
X0159517Y0105345D01*
X0158518Y0104347D02*
X0134175Y0104347D01*
X0131514Y0107342D02*
X0107486Y0107342D01*
X0108485Y0106344D02*
X0130515Y0106344D01*
X0129517Y0105345D02*
X0109483Y0105345D01*
X0110482Y0104347D02*
X0128518Y0104347D01*
X0127520Y0103348D02*
X0111480Y0103348D01*
X0113363Y0102350D02*
X0119637Y0102350D01*
X0118436Y0101351D02*
X0114564Y0101351D01*
X0115120Y0100353D02*
X0117880Y0100353D01*
X0117600Y0099354D02*
X0115400Y0099354D01*
X0115400Y0098356D02*
X0117600Y0098356D01*
X0117600Y0097357D02*
X0115400Y0097357D01*
X0115400Y0096359D02*
X0117600Y0096359D01*
X0117600Y0095360D02*
X0115400Y0095360D01*
X0115400Y0094362D02*
X0117600Y0094362D01*
X0117600Y0093363D02*
X0115400Y0093363D01*
X0115002Y0092365D02*
X0117998Y0092365D01*
X0118719Y0091366D02*
X0114281Y0091366D01*
X0112680Y0090368D02*
X0120320Y0090368D01*
X0121041Y0087372D02*
X0149065Y0087372D01*
X0149835Y0086373D02*
X0121455Y0086373D01*
X0116579Y0088370D02*
X0094199Y0088370D01*
X0095400Y0094362D02*
X0097600Y0094362D01*
X0097600Y0095360D02*
X0095400Y0095360D01*
X0095400Y0096359D02*
X0097600Y0096359D01*
X0097600Y0097357D02*
X0095400Y0097357D01*
X0095400Y0098356D02*
X0097600Y0098356D01*
X0097600Y0099354D02*
X0095400Y0099354D01*
X0095120Y0100353D02*
X0097880Y0100353D01*
X0098436Y0101351D02*
X0094564Y0101351D01*
X0093363Y0102350D02*
X0099637Y0102350D01*
X0103363Y0102350D02*
X0106822Y0102350D01*
X0105823Y0103348D02*
X0087500Y0103348D01*
X0087500Y0102350D02*
X0089637Y0102350D01*
X0088436Y0101351D02*
X0087500Y0101351D01*
X0087500Y0100353D02*
X0087880Y0100353D01*
X0087600Y0099354D02*
X0087500Y0099354D01*
X0087500Y0098356D02*
X0087600Y0098356D01*
X0087600Y0097357D02*
X0087500Y0097357D01*
X0087500Y0096359D02*
X0087600Y0096359D01*
X0087600Y0095360D02*
X0087500Y0095360D01*
X0087500Y0094362D02*
X0087600Y0094362D01*
X0087600Y0093363D02*
X0087500Y0093363D01*
X0087500Y0092365D02*
X0087998Y0092365D01*
X0085500Y0089500D02*
X0084500Y0088500D01*
X0086935Y0087372D02*
X0115959Y0087372D01*
X0115819Y0086373D02*
X0086165Y0086373D01*
X0082835Y0086373D02*
X0082455Y0086373D01*
X0082065Y0087372D02*
X0081456Y0087372D01*
X0081819Y0088370D02*
X0080458Y0088370D01*
X0079459Y0089369D02*
X0081958Y0089369D01*
X0080320Y0090368D02*
X0078461Y0090368D01*
X0078719Y0091366D02*
X0077500Y0091366D01*
X0077500Y0092365D02*
X0077998Y0092365D01*
X0077600Y0093363D02*
X0077500Y0093363D01*
X0077500Y0094362D02*
X0077600Y0094362D01*
X0077600Y0095360D02*
X0077500Y0095360D01*
X0077500Y0096359D02*
X0077600Y0096359D01*
X0077600Y0097357D02*
X0077500Y0097357D01*
X0077500Y0098356D02*
X0077600Y0098356D01*
X0077600Y0099354D02*
X0077474Y0099354D01*
X0077880Y0100353D02*
X0076476Y0100353D01*
X0075477Y0101351D02*
X0078436Y0101351D01*
X0079637Y0102350D02*
X0074479Y0102350D01*
X0073480Y0103348D02*
X0083500Y0103348D01*
X0083500Y0102350D02*
X0083363Y0102350D01*
X0083500Y0104347D02*
X0072482Y0104347D01*
X0071483Y0105345D02*
X0083500Y0105345D01*
X0083500Y0106344D02*
X0070485Y0106344D01*
X0069486Y0107342D02*
X0083500Y0107342D01*
X0087500Y0107342D02*
X0101829Y0107342D01*
X0100831Y0108341D02*
X0087500Y0108341D01*
X0087500Y0109339D02*
X0099832Y0109339D01*
X0098834Y0110338D02*
X0087500Y0110338D01*
X0087500Y0111336D02*
X0098500Y0111336D01*
X0098500Y0112335D02*
X0087500Y0112335D01*
X0087500Y0113333D02*
X0098500Y0113333D01*
X0098500Y0114332D02*
X0087500Y0114332D01*
X0087500Y0115330D02*
X0098500Y0115330D01*
X0098500Y0116329D02*
X0087500Y0116329D01*
X0087500Y0117327D02*
X0098500Y0117327D01*
X0098500Y0118326D02*
X0087500Y0118326D01*
X0087500Y0119324D02*
X0098500Y0119324D01*
X0098500Y0120323D02*
X0087500Y0120323D01*
X0087500Y0121321D02*
X0098500Y0121321D01*
X0098500Y0122320D02*
X0087500Y0122320D01*
X0087500Y0123318D02*
X0098500Y0123318D01*
X0098500Y0124317D02*
X0087500Y0124317D01*
X0086513Y0125315D02*
X0098500Y0125315D01*
X0098500Y0126314D02*
X0085514Y0126314D01*
X0084516Y0127312D02*
X0098500Y0127312D01*
X0098500Y0128311D02*
X0083517Y0128311D01*
X0082519Y0129309D02*
X0098500Y0129309D01*
X0098500Y0130308D02*
X0081520Y0130308D01*
X0080522Y0131306D02*
X0098500Y0131306D01*
X0098500Y0132305D02*
X0079523Y0132305D01*
X0078525Y0133303D02*
X0098500Y0133303D01*
X0098500Y0134302D02*
X0077526Y0134302D01*
X0079092Y0135301D02*
X0098500Y0135301D01*
X0098500Y0136299D02*
X0079905Y0136299D01*
X0080181Y0137298D02*
X0098500Y0137298D01*
X0098500Y0138296D02*
X0080072Y0138296D01*
X0079497Y0139295D02*
X0098500Y0139295D01*
X0098500Y0140293D02*
X0077535Y0140293D01*
X0076537Y0141292D02*
X0098500Y0141292D01*
X0098500Y0142290D02*
X0075538Y0142290D01*
X0074540Y0143289D02*
X0098500Y0143289D01*
X0098500Y0144287D02*
X0073541Y0144287D01*
X0072543Y0145286D02*
X0098500Y0145286D01*
X0098500Y0146284D02*
X0071544Y0146284D01*
X0070546Y0147283D02*
X0098500Y0147283D01*
X0098500Y0148281D02*
X0069547Y0148281D01*
X0068549Y0149280D02*
X0098500Y0149280D01*
X0098500Y0150278D02*
X0067550Y0150278D01*
X0066552Y0151277D02*
X0098500Y0151277D01*
X0098500Y0152275D02*
X0065553Y0152275D01*
X0064555Y0153274D02*
X0098500Y0153274D01*
X0098500Y0154272D02*
X0063556Y0154272D01*
X0062558Y0155271D02*
X0098500Y0155271D01*
X0098500Y0156269D02*
X0061559Y0156269D01*
X0060561Y0157268D02*
X0098500Y0157268D01*
X0098500Y0158266D02*
X0060480Y0158266D01*
X0060371Y0159265D02*
X0098500Y0159265D01*
X0098500Y0160263D02*
X0059957Y0160263D01*
X0059051Y0161262D02*
X0098500Y0161262D01*
X0098500Y0162260D02*
X0047568Y0162260D01*
X0048567Y0161262D02*
X0054186Y0161262D01*
X0053279Y0160263D02*
X0049565Y0160263D01*
X0050564Y0159265D02*
X0052865Y0159265D01*
X0052756Y0158266D02*
X0051562Y0158266D01*
X0052561Y0157268D02*
X0052837Y0157268D01*
X0056618Y0158232D02*
X0057500Y0157500D01*
X0077500Y0137500D01*
X0071870Y0134302D02*
X0048532Y0134302D01*
X0048070Y0135301D02*
X0054088Y0135301D01*
X0045094Y0135301D02*
X0044520Y0135301D01*
X0044520Y0136299D02*
X0045094Y0136299D01*
X0045094Y0134302D02*
X0044520Y0134302D01*
X0039500Y0132500D02*
X0021500Y0132500D01*
X0021185Y0133232D01*
X0021500Y0137500D02*
X0019500Y0137500D01*
X0016500Y0134500D01*
X0016500Y0131500D01*
X0025500Y0122500D01*
X0017625Y0119324D02*
X0011500Y0119324D01*
X0011500Y0118326D02*
X0016627Y0118326D01*
X0015628Y0117327D02*
X0011500Y0117327D01*
X0011500Y0116329D02*
X0014630Y0116329D01*
X0013631Y0115330D02*
X0011500Y0115330D01*
X0011500Y0114332D02*
X0013386Y0114332D01*
X0013386Y0113333D02*
X0011500Y0113333D01*
X0024707Y0104347D02*
X0041285Y0104347D01*
X0040286Y0105345D02*
X0025706Y0105345D01*
X0026473Y0098356D02*
X0066816Y0098356D01*
X0067814Y0097357D02*
X0027471Y0097357D01*
X0037470Y0096359D02*
X0068813Y0096359D01*
X0069500Y0095360D02*
X0038468Y0095360D01*
X0039467Y0094362D02*
X0051180Y0094362D01*
X0049074Y0093363D02*
X0040465Y0093363D01*
X0041464Y0092365D02*
X0048075Y0092365D01*
X0047077Y0091366D02*
X0042462Y0091366D01*
X0043461Y0090368D02*
X0046515Y0090368D01*
X0046101Y0089369D02*
X0044459Y0089369D01*
X0045458Y0088370D02*
X0045687Y0088370D01*
X0045307Y0104347D02*
X0044307Y0104347D01*
X0044307Y0105345D02*
X0045307Y0105345D01*
X0045307Y0106344D02*
X0044307Y0106344D01*
X0044307Y0107342D02*
X0045307Y0107342D01*
X0045307Y0108341D02*
X0044307Y0108341D01*
X0044307Y0109339D02*
X0045307Y0109339D01*
X0045307Y0110338D02*
X0044307Y0110338D01*
X0044307Y0111336D02*
X0045307Y0111336D01*
X0045307Y0112335D02*
X0052837Y0112335D01*
X0052606Y0111336D02*
X0053835Y0111336D01*
X0054834Y0110338D02*
X0052606Y0110338D01*
X0052606Y0109339D02*
X0055832Y0109339D01*
X0056831Y0108341D02*
X0052323Y0108341D01*
X0051325Y0107342D02*
X0057829Y0107342D01*
X0058828Y0106344D02*
X0050326Y0106344D01*
X0049328Y0105345D02*
X0059826Y0105345D01*
X0060825Y0104347D02*
X0048329Y0104347D01*
X0059501Y0117327D02*
X0083500Y0117327D01*
X0083500Y0116329D02*
X0060500Y0116329D01*
X0061498Y0115330D02*
X0079815Y0115330D01*
X0078816Y0114332D02*
X0062497Y0114332D01*
X0063495Y0113333D02*
X0077818Y0113333D01*
X0077600Y0112335D02*
X0064494Y0112335D01*
X0065492Y0111336D02*
X0077600Y0111336D01*
X0077600Y0110338D02*
X0066491Y0110338D01*
X0067489Y0109339D02*
X0078145Y0109339D01*
X0079144Y0108341D02*
X0068488Y0108341D01*
X0083185Y0115330D02*
X0083500Y0115330D01*
X0087500Y0106344D02*
X0102828Y0106344D01*
X0103826Y0105345D02*
X0087500Y0105345D01*
X0087500Y0104347D02*
X0104825Y0104347D01*
X0104564Y0101351D02*
X0107820Y0101351D01*
X0107880Y0100353D02*
X0105120Y0100353D01*
X0105400Y0099354D02*
X0107600Y0099354D01*
X0107600Y0098356D02*
X0105400Y0098356D01*
X0105400Y0097357D02*
X0107600Y0097357D01*
X0107600Y0096359D02*
X0105400Y0096359D01*
X0105400Y0095360D02*
X0107600Y0095360D01*
X0107600Y0094362D02*
X0105400Y0094362D01*
X0105400Y0093363D02*
X0107600Y0093363D01*
X0107998Y0092365D02*
X0105002Y0092365D01*
X0104281Y0091366D02*
X0108719Y0091366D01*
X0110320Y0090368D02*
X0102680Y0090368D01*
X0111500Y0096500D02*
X0111500Y0100500D01*
X0100500Y0111500D01*
X0100500Y0166500D01*
X0106500Y0172500D01*
X0106539Y0173232D01*
X0111454Y0171247D02*
X0111625Y0171247D01*
X0111539Y0171454D02*
X0112046Y0170230D01*
X0113537Y0168739D01*
X0115485Y0167932D01*
X0117594Y0167932D01*
X0119542Y0168739D01*
X0121032Y0170230D01*
X0121539Y0171454D01*
X0122046Y0170230D01*
X0123537Y0168739D01*
X0125485Y0167932D01*
X0127594Y0167932D01*
X0129542Y0168739D01*
X0131032Y0170230D01*
X0131542Y0171461D01*
X0131628Y0171198D01*
X0132006Y0170454D01*
X0132497Y0169780D01*
X0133087Y0169190D01*
X0133762Y0168699D01*
X0134505Y0168321D01*
X0135298Y0168063D01*
X0136039Y0167945D01*
X0136039Y0172732D01*
X0137039Y0172732D01*
X0137039Y0167945D01*
X0137780Y0168063D01*
X0138574Y0168321D01*
X0139317Y0168699D01*
X0139992Y0169190D01*
X0140582Y0169780D01*
X0141072Y0170454D01*
X0141451Y0171198D01*
X0141536Y0171461D01*
X0142046Y0170230D01*
X0143537Y0168739D01*
X0145485Y0167932D01*
X0147594Y0167932D01*
X0149542Y0168739D01*
X0151032Y0170230D01*
X0151539Y0171454D01*
X0152046Y0170230D01*
X0153537Y0168739D01*
X0155485Y0167932D01*
X0157594Y0167932D01*
X0159542Y0168739D01*
X0161032Y0170230D01*
X0161539Y0171454D01*
X0162046Y0170230D01*
X0163537Y0168739D01*
X0165485Y0167932D01*
X0167594Y0167932D01*
X0169542Y0168739D01*
X0171032Y0170230D01*
X0171539Y0171454D01*
X0172046Y0170230D01*
X0173537Y0168739D01*
X0175485Y0167932D01*
X0177594Y0167932D01*
X0179542Y0168739D01*
X0181032Y0170230D01*
X0181539Y0171454D01*
X0182046Y0170230D01*
X0183537Y0168739D01*
X0185485Y0167932D01*
X0187594Y0167932D01*
X0189542Y0168739D01*
X0191032Y0170230D01*
X0191539Y0171454D01*
X0192046Y0170230D01*
X0193537Y0168739D01*
X0195485Y0167932D01*
X0197594Y0167932D01*
X0199542Y0168739D01*
X0201032Y0170230D01*
X0201539Y0171454D01*
X0202046Y0170230D01*
X0203537Y0168739D01*
X0205485Y0167932D01*
X0207594Y0167932D01*
X0209542Y0168739D01*
X0211032Y0170230D01*
X0211539Y0171454D01*
X0212046Y0170230D01*
X0213537Y0168739D01*
X0215485Y0167932D01*
X0217594Y0167932D01*
X0219542Y0168739D01*
X0221032Y0170230D01*
X0221539Y0171454D01*
X0222046Y0170230D01*
X0223537Y0168739D01*
X0225485Y0167932D01*
X0227594Y0167932D01*
X0229542Y0168739D01*
X0231032Y0170230D01*
X0231539Y0171454D01*
X0232046Y0170230D01*
X0233537Y0168739D01*
X0235485Y0167932D01*
X0237594Y0167932D01*
X0239542Y0168739D01*
X0241032Y0170230D01*
X0241539Y0171454D01*
X0242046Y0170230D01*
X0243537Y0168739D01*
X0245485Y0167932D01*
X0247594Y0167932D01*
X0249542Y0168739D01*
X0251032Y0170230D01*
X0251539Y0171454D01*
X0252046Y0170230D01*
X0253537Y0168739D01*
X0255485Y0167932D01*
X0257594Y0167932D01*
X0259542Y0168739D01*
X0261032Y0170230D01*
X0261539Y0171454D01*
X0262046Y0170230D01*
X0263537Y0168739D01*
X0265485Y0167932D01*
X0267594Y0167932D01*
X0269542Y0168739D01*
X0270500Y0169698D01*
X0270500Y0124328D01*
X0267672Y0121500D01*
X0142672Y0121500D01*
X0139086Y0117914D01*
X0137594Y0118532D01*
X0135485Y0118532D01*
X0133537Y0117725D01*
X0132046Y0116234D01*
X0131539Y0115011D01*
X0131032Y0116234D01*
X0129542Y0117725D01*
X0127594Y0118532D01*
X0125485Y0118532D01*
X0123537Y0117725D01*
X0122046Y0116234D01*
X0121539Y0115011D01*
X0121032Y0116234D01*
X0119542Y0117725D01*
X0117594Y0118532D01*
X0115485Y0118532D01*
X0113537Y0117725D01*
X0112046Y0116234D01*
X0111539Y0115011D01*
X0111032Y0116234D01*
X0109542Y0117725D01*
X0107594Y0118532D01*
X0105485Y0118532D01*
X0103537Y0117725D01*
X0102500Y0116688D01*
X0102500Y0165672D01*
X0104973Y0168144D01*
X0105485Y0167932D01*
X0107594Y0167932D01*
X0109542Y0168739D01*
X0111032Y0170230D01*
X0111539Y0171454D01*
X0111040Y0170248D02*
X0112039Y0170248D01*
X0113026Y0169250D02*
X0110052Y0169250D01*
X0108364Y0168251D02*
X0114715Y0168251D01*
X0118364Y0168251D02*
X0124715Y0168251D01*
X0123026Y0169250D02*
X0120052Y0169250D01*
X0121040Y0170248D02*
X0122039Y0170248D01*
X0121625Y0171247D02*
X0121454Y0171247D01*
X0121444Y0175241D02*
X0121635Y0175241D01*
X0122051Y0176239D02*
X0121027Y0176239D01*
X0120029Y0177238D02*
X0123050Y0177238D01*
X0124500Y0178237D02*
X0118308Y0178237D01*
X0114771Y0178237D02*
X0108308Y0178237D01*
X0110029Y0177238D02*
X0113050Y0177238D01*
X0112051Y0176239D02*
X0111027Y0176239D01*
X0111444Y0175241D02*
X0111635Y0175241D01*
X0104771Y0178237D02*
X0052211Y0178237D01*
X0052606Y0177841D02*
X0048038Y0182409D01*
X0045307Y0182409D01*
X0045307Y0175110D01*
X0052606Y0175110D01*
X0052606Y0177841D01*
X0052606Y0177238D02*
X0103050Y0177238D01*
X0102051Y0176239D02*
X0052606Y0176239D01*
X0052606Y0175241D02*
X0101635Y0175241D01*
X0101239Y0174242D02*
X0045307Y0174242D01*
X0045307Y0174110D02*
X0045307Y0175110D01*
X0044307Y0175110D01*
X0044307Y0174110D01*
X0045307Y0174110D01*
X0045307Y0166811D01*
X0048038Y0166811D01*
X0052606Y0171380D01*
X0052606Y0174110D01*
X0045307Y0174110D01*
X0044807Y0174610D02*
X0045500Y0175500D01*
X0103500Y0233500D01*
X0103862Y0233783D01*
X0103673Y0233594D02*
X0104051Y0233594D01*
X0104051Y0229134D01*
X0104228Y0229134D01*
X0104951Y0229248D01*
X0105647Y0229475D01*
X0106299Y0229807D01*
X0106891Y0230237D01*
X0107409Y0230754D01*
X0107839Y0231347D01*
X0108171Y0231999D01*
X0108397Y0232695D01*
X0108512Y0233418D01*
X0108512Y0233594D01*
X0104051Y0233594D01*
X0104051Y0233972D01*
X0108512Y0233972D01*
X0108512Y0234149D01*
X0108397Y0234872D01*
X0108171Y0235568D01*
X0107839Y0236220D01*
X0107409Y0236812D01*
X0106891Y0237330D01*
X0106299Y0237760D01*
X0105647Y0238092D01*
X0104951Y0238319D01*
X0104228Y0238433D01*
X0104051Y0238433D01*
X0104051Y0233973D01*
X0103673Y0233973D01*
X0103673Y0238433D01*
X0103496Y0238433D01*
X0102773Y0238319D01*
X0102077Y0238092D01*
X0101425Y0237760D01*
X0100833Y0237330D01*
X0100316Y0236812D01*
X0099966Y0236331D01*
X0099930Y0236417D01*
X0098622Y0237725D01*
X0096913Y0238433D01*
X0095063Y0238433D01*
X0093354Y0237725D01*
X0092046Y0236417D01*
X0091339Y0234708D01*
X0091339Y0232859D01*
X0092046Y0231150D01*
X0093354Y0229842D01*
X0095063Y0229134D01*
X0096913Y0229134D01*
X0098622Y0229842D01*
X0099930Y0231150D01*
X0099966Y0231236D01*
X0100316Y0230754D01*
X0100833Y0230237D01*
X0101425Y0229807D01*
X0102077Y0229475D01*
X0102773Y0229248D01*
X0103496Y0229134D01*
X0103673Y0229134D01*
X0103673Y0233594D01*
X0103673Y0233155D02*
X0104051Y0233155D01*
X0104051Y0234153D02*
X0103673Y0234153D01*
X0103673Y0235152D02*
X0104051Y0235152D01*
X0104051Y0236150D02*
X0103673Y0236150D01*
X0103673Y0237149D02*
X0104051Y0237149D01*
X0104051Y0238147D02*
X0103673Y0238147D01*
X0102246Y0238147D02*
X0097603Y0238147D01*
X0099198Y0237149D02*
X0100652Y0237149D01*
X0105478Y0238147D02*
X0121932Y0238147D01*
X0122622Y0238433D02*
X0120913Y0237725D01*
X0119605Y0236417D01*
X0118898Y0234708D01*
X0118898Y0232859D01*
X0119605Y0231150D01*
X0120913Y0229842D01*
X0122622Y0229134D01*
X0124472Y0229134D01*
X0125579Y0229592D01*
X0134500Y0220672D01*
X0135672Y0219500D01*
X0142985Y0219500D01*
X0144885Y0217600D01*
X0148115Y0217600D01*
X0150400Y0219885D01*
X0150400Y0223115D01*
X0148115Y0225400D01*
X0144885Y0225400D01*
X0142985Y0223500D01*
X0137328Y0223500D01*
X0131695Y0229134D01*
X0131787Y0229134D01*
X0132510Y0229248D01*
X0133206Y0229475D01*
X0133858Y0229807D01*
X0134450Y0230237D01*
X0134968Y0230754D01*
X0135318Y0231236D01*
X0135354Y0231150D01*
X0136661Y0229842D01*
X0138370Y0229134D01*
X0140220Y0229134D01*
X0141929Y0229842D01*
X0143232Y0231145D01*
X0144535Y0229842D01*
X0146244Y0229134D01*
X0148094Y0229134D01*
X0149803Y0229842D01*
X0151111Y0231150D01*
X0151819Y0232859D01*
X0151819Y0234708D01*
X0151111Y0236417D01*
X0149803Y0237725D01*
X0148094Y0238433D01*
X0146244Y0238433D01*
X0144535Y0237725D01*
X0143232Y0236422D01*
X0141929Y0237725D01*
X0140220Y0238433D01*
X0138370Y0238433D01*
X0136661Y0237725D01*
X0135354Y0236417D01*
X0135318Y0236331D01*
X0134968Y0236812D01*
X0134450Y0237330D01*
X0133858Y0237760D01*
X0133206Y0238092D01*
X0132510Y0238319D01*
X0131787Y0238433D01*
X0131610Y0238433D01*
X0131610Y0233973D01*
X0131232Y0233973D01*
X0131232Y0238433D01*
X0131055Y0238433D01*
X0130332Y0238319D01*
X0129636Y0238092D01*
X0128984Y0237760D01*
X0128392Y0237330D01*
X0127875Y0236812D01*
X0127525Y0236331D01*
X0127489Y0236417D01*
X0126181Y0237725D01*
X0124472Y0238433D01*
X0122622Y0238433D01*
X0125162Y0238147D02*
X0129805Y0238147D01*
X0131232Y0238147D02*
X0131610Y0238147D01*
X0131610Y0237149D02*
X0131232Y0237149D01*
X0131232Y0236150D02*
X0131610Y0236150D01*
X0131610Y0235152D02*
X0131232Y0235152D01*
X0131232Y0234153D02*
X0131610Y0234153D01*
X0134632Y0237149D02*
X0136085Y0237149D01*
X0137680Y0238147D02*
X0133038Y0238147D01*
X0128211Y0237149D02*
X0126758Y0237149D01*
X0124500Y0233500D02*
X0123547Y0233783D01*
X0124500Y0233500D02*
X0136500Y0221500D01*
X0146500Y0221500D01*
X0149347Y0224168D02*
X0160500Y0224168D01*
X0160500Y0223170D02*
X0150346Y0223170D01*
X0150400Y0222171D02*
X0160500Y0222171D01*
X0160500Y0221172D02*
X0150400Y0221172D01*
X0150400Y0220174D02*
X0160500Y0220174D01*
X0160500Y0219175D02*
X0149691Y0219175D01*
X0148692Y0218177D02*
X0160500Y0218177D01*
X0160500Y0217178D02*
X0132500Y0217178D01*
X0132500Y0216180D02*
X0160500Y0216180D01*
X0160500Y0215181D02*
X0148334Y0215181D01*
X0149332Y0214183D02*
X0160500Y0214183D01*
X0160500Y0213184D02*
X0150331Y0213184D01*
X0150400Y0212186D02*
X0160500Y0212186D01*
X0160500Y0211187D02*
X0150400Y0211187D01*
X0150400Y0210189D02*
X0160500Y0210189D01*
X0160500Y0209190D02*
X0149706Y0209190D01*
X0148707Y0208192D02*
X0160500Y0208192D01*
X0160500Y0207193D02*
X0148500Y0207193D01*
X0148023Y0206195D02*
X0160500Y0206195D01*
X0160500Y0205196D02*
X0148319Y0205196D01*
X0149318Y0204198D02*
X0160500Y0204198D01*
X0160500Y0203199D02*
X0151629Y0203199D01*
X0152628Y0202201D02*
X0160500Y0202201D01*
X0160500Y0201202D02*
X0153626Y0201202D01*
X0154625Y0200204D02*
X0160500Y0200204D01*
X0160500Y0199205D02*
X0155623Y0199205D01*
X0156622Y0198207D02*
X0160965Y0198207D01*
X0161963Y0197208D02*
X0157620Y0197208D01*
X0158619Y0196210D02*
X0162962Y0196210D01*
X0163960Y0195211D02*
X0159617Y0195211D01*
X0160616Y0194213D02*
X0163697Y0194213D01*
X0162699Y0193214D02*
X0161614Y0193214D01*
X0157500Y0191500D02*
X0163500Y0185500D01*
X0198500Y0185500D01*
X0227500Y0214500D01*
X0227500Y0220500D01*
X0233500Y0226500D01*
X0253500Y0226500D01*
X0260500Y0233500D01*
X0261343Y0233783D01*
X0264553Y0237149D02*
X0273500Y0237149D01*
X0273500Y0238147D02*
X0264408Y0238147D01*
X0264372Y0238111D02*
X0264889Y0238628D01*
X0265319Y0239221D01*
X0265651Y0239873D01*
X0265878Y0240569D01*
X0265992Y0241292D01*
X0265992Y0241468D01*
X0261532Y0241468D01*
X0261532Y0241846D01*
X0265992Y0241846D01*
X0265992Y0242023D01*
X0265878Y0242746D01*
X0265651Y0243442D01*
X0265319Y0244094D01*
X0264889Y0244686D01*
X0264372Y0245204D01*
X0263890Y0245554D01*
X0263976Y0245590D01*
X0265284Y0246898D01*
X0265992Y0248607D01*
X0265992Y0249179D01*
X0273500Y0241672D01*
X0273500Y0222293D01*
X0272276Y0222800D01*
X0270724Y0222800D01*
X0269291Y0222206D01*
X0268194Y0221109D01*
X0267600Y0219676D01*
X0267600Y0213324D01*
X0268194Y0211891D01*
X0269291Y0210794D01*
X0270724Y0210200D01*
X0272276Y0210200D01*
X0273500Y0210707D01*
X0273500Y0192254D01*
X0273347Y0192356D01*
X0272638Y0192650D01*
X0271884Y0192800D01*
X0271800Y0192800D01*
X0271800Y0186800D01*
X0271200Y0186800D01*
X0271200Y0192800D01*
X0271116Y0192800D01*
X0270362Y0192650D01*
X0269653Y0192356D01*
X0269014Y0191929D01*
X0268471Y0191386D01*
X0268059Y0190770D01*
X0261328Y0197500D01*
X0221672Y0197500D01*
X0220500Y0196328D01*
X0214945Y0190774D01*
X0214806Y0191109D01*
X0213709Y0192206D01*
X0212276Y0192800D01*
X0210724Y0192800D01*
X0209291Y0192206D01*
X0208194Y0191109D01*
X0207600Y0189676D01*
X0207600Y0183324D01*
X0208194Y0181891D01*
X0208585Y0181500D01*
X0153328Y0181500D01*
X0147228Y0187600D01*
X0148115Y0187600D01*
X0150015Y0189500D01*
X0156672Y0189500D01*
X0161500Y0184672D01*
X0162672Y0183500D01*
X0199328Y0183500D01*
X0228055Y0212226D01*
X0228194Y0211891D01*
X0229291Y0210794D01*
X0230724Y0210200D01*
X0232276Y0210200D01*
X0233709Y0210794D01*
X0234806Y0211891D01*
X0235400Y0213324D01*
X0235400Y0219676D01*
X0234806Y0221109D01*
X0233709Y0222206D01*
X0232525Y0222697D01*
X0234328Y0224500D01*
X0254328Y0224500D01*
X0259389Y0229560D01*
X0260418Y0229134D01*
X0262267Y0229134D01*
X0263976Y0229842D01*
X0265284Y0231150D01*
X0265992Y0232859D01*
X0265992Y0234708D01*
X0265284Y0236417D01*
X0263976Y0237725D01*
X0263890Y0237761D01*
X0264372Y0238111D01*
X0265265Y0239146D02*
X0273500Y0239146D01*
X0273500Y0240144D02*
X0265740Y0240144D01*
X0265969Y0241143D02*
X0273500Y0241143D01*
X0273030Y0242141D02*
X0265973Y0242141D01*
X0265750Y0243140D02*
X0272032Y0243140D01*
X0271033Y0244138D02*
X0265287Y0244138D01*
X0264439Y0245137D02*
X0270035Y0245137D01*
X0269036Y0246135D02*
X0264522Y0246135D01*
X0265382Y0247134D02*
X0268038Y0247134D01*
X0267039Y0248132D02*
X0265796Y0248132D01*
X0265992Y0249131D02*
X0266041Y0249131D01*
X0261343Y0249531D02*
X0260500Y0249500D01*
X0239500Y0228500D01*
X0209500Y0228500D01*
X0188500Y0207500D01*
X0186500Y0207500D01*
X0182500Y0203500D01*
X0182500Y0201500D01*
X0168500Y0187500D01*
X0164500Y0187500D01*
X0150500Y0201500D01*
X0146500Y0201500D01*
X0142500Y0203500D02*
X0146500Y0207500D01*
X0146500Y0211500D01*
X0143667Y0214183D02*
X0132500Y0214183D01*
X0132500Y0215181D02*
X0144666Y0215181D01*
X0142669Y0213184D02*
X0132500Y0213184D01*
X0132500Y0212186D02*
X0142600Y0212186D01*
X0142600Y0211187D02*
X0132500Y0211187D01*
X0132500Y0210189D02*
X0142600Y0210189D01*
X0143294Y0209190D02*
X0132500Y0209190D01*
X0132500Y0208192D02*
X0144293Y0208192D01*
X0143365Y0207193D02*
X0132500Y0207193D01*
X0132500Y0206195D02*
X0142366Y0206195D01*
X0141368Y0205196D02*
X0132500Y0205196D01*
X0132500Y0204198D02*
X0140500Y0204198D01*
X0140500Y0203199D02*
X0132500Y0203199D01*
X0132500Y0202201D02*
X0140500Y0202201D01*
X0140500Y0201202D02*
X0132500Y0201202D01*
X0132500Y0200204D02*
X0140500Y0200204D01*
X0140500Y0199205D02*
X0132623Y0199205D01*
X0133622Y0198207D02*
X0140500Y0198207D01*
X0140500Y0197208D02*
X0134620Y0197208D01*
X0135619Y0196210D02*
X0140500Y0196210D01*
X0140500Y0195211D02*
X0136617Y0195211D01*
X0137616Y0194213D02*
X0140500Y0194213D01*
X0140500Y0193214D02*
X0138614Y0193214D01*
X0139613Y0192216D02*
X0140500Y0192216D01*
X0142500Y0189500D02*
X0152500Y0179500D01*
X0260500Y0179500D01*
X0266500Y0173500D01*
X0266539Y0173232D01*
X0270052Y0169250D02*
X0270500Y0169250D01*
X0270500Y0168251D02*
X0268364Y0168251D01*
X0270500Y0167253D02*
X0104081Y0167253D01*
X0103083Y0166254D02*
X0270500Y0166254D01*
X0270500Y0165256D02*
X0102500Y0165256D01*
X0102500Y0164257D02*
X0270500Y0164257D01*
X0270500Y0163259D02*
X0102500Y0163259D01*
X0102500Y0162260D02*
X0270500Y0162260D01*
X0270500Y0161262D02*
X0102500Y0161262D01*
X0102500Y0160263D02*
X0270500Y0160263D01*
X0270500Y0159265D02*
X0102500Y0159265D01*
X0102500Y0158266D02*
X0270500Y0158266D01*
X0270500Y0157268D02*
X0102500Y0157268D01*
X0102500Y0156269D02*
X0270500Y0156269D01*
X0270500Y0155271D02*
X0102500Y0155271D01*
X0102500Y0154272D02*
X0270500Y0154272D01*
X0270500Y0153274D02*
X0102500Y0153274D01*
X0102500Y0152275D02*
X0270500Y0152275D01*
X0270500Y0151277D02*
X0102500Y0151277D01*
X0102500Y0150278D02*
X0270500Y0150278D01*
X0270500Y0149280D02*
X0102500Y0149280D01*
X0102500Y0148281D02*
X0270500Y0148281D01*
X0270500Y0147283D02*
X0102500Y0147283D01*
X0102500Y0146284D02*
X0270500Y0146284D01*
X0270500Y0145286D02*
X0102500Y0145286D01*
X0102500Y0144287D02*
X0270500Y0144287D01*
X0270500Y0143289D02*
X0102500Y0143289D01*
X0102500Y0142290D02*
X0270500Y0142290D01*
X0270500Y0141292D02*
X0102500Y0141292D01*
X0102500Y0140293D02*
X0270500Y0140293D01*
X0270500Y0139295D02*
X0102500Y0139295D01*
X0102500Y0138296D02*
X0270500Y0138296D01*
X0270500Y0137298D02*
X0102500Y0137298D01*
X0102500Y0136299D02*
X0270500Y0136299D01*
X0270500Y0135301D02*
X0102500Y0135301D01*
X0102500Y0134302D02*
X0270500Y0134302D01*
X0270500Y0133303D02*
X0102500Y0133303D01*
X0102500Y0132305D02*
X0270500Y0132305D01*
X0270500Y0131306D02*
X0102500Y0131306D01*
X0102500Y0130308D02*
X0270500Y0130308D01*
X0270500Y0129309D02*
X0102500Y0129309D01*
X0102500Y0128311D02*
X0270500Y0128311D01*
X0270500Y0127312D02*
X0102500Y0127312D01*
X0102500Y0126314D02*
X0270500Y0126314D01*
X0270500Y0125315D02*
X0102500Y0125315D01*
X0102500Y0124317D02*
X0270488Y0124317D01*
X0269490Y0123318D02*
X0102500Y0123318D01*
X0102500Y0122320D02*
X0268491Y0122320D01*
X0268500Y0119500D02*
X0272500Y0123500D01*
X0272500Y0175500D01*
X0267500Y0180500D01*
X0267500Y0188500D01*
X0260500Y0195500D01*
X0222500Y0195500D01*
X0213500Y0186500D01*
X0211500Y0186500D01*
X0207600Y0186225D02*
X0202053Y0186225D01*
X0203052Y0187223D02*
X0207600Y0187223D01*
X0207600Y0188222D02*
X0204050Y0188222D01*
X0205049Y0189220D02*
X0207600Y0189220D01*
X0207825Y0190219D02*
X0206047Y0190219D01*
X0207046Y0191217D02*
X0208302Y0191217D01*
X0208044Y0192216D02*
X0209314Y0192216D01*
X0209043Y0193214D02*
X0217386Y0193214D01*
X0218384Y0194213D02*
X0210041Y0194213D01*
X0211040Y0195211D02*
X0219383Y0195211D01*
X0220381Y0196210D02*
X0212038Y0196210D01*
X0213037Y0197208D02*
X0221380Y0197208D01*
X0223328Y0193500D02*
X0259672Y0193500D01*
X0260475Y0192697D01*
X0259291Y0192206D01*
X0258194Y0191109D01*
X0257600Y0189676D01*
X0257600Y0183324D01*
X0258194Y0181891D01*
X0258585Y0181500D01*
X0254415Y0181500D01*
X0254529Y0181614D01*
X0254956Y0182253D01*
X0255250Y0182962D01*
X0255400Y0183716D01*
X0255400Y0186200D01*
X0251800Y0186200D01*
X0251800Y0186800D01*
X0255400Y0186800D01*
X0255400Y0189284D01*
X0255250Y0190038D01*
X0254956Y0190747D01*
X0254529Y0191386D01*
X0253986Y0191929D01*
X0253347Y0192356D01*
X0252638Y0192650D01*
X0251884Y0192800D01*
X0251800Y0192800D01*
X0251800Y0186800D01*
X0251200Y0186800D01*
X0251200Y0192800D01*
X0251116Y0192800D01*
X0250362Y0192650D01*
X0249653Y0192356D01*
X0249014Y0191929D01*
X0248471Y0191386D01*
X0248044Y0190747D01*
X0247750Y0190038D01*
X0247600Y0189284D01*
X0247600Y0186800D01*
X0251200Y0186800D01*
X0251200Y0186200D01*
X0247600Y0186200D01*
X0247600Y0183716D01*
X0247750Y0182962D01*
X0248044Y0182253D01*
X0248471Y0181614D01*
X0248585Y0181500D01*
X0244415Y0181500D01*
X0244806Y0181891D01*
X0245400Y0183324D01*
X0245400Y0189676D01*
X0244806Y0191109D01*
X0243709Y0192206D01*
X0242276Y0192800D01*
X0240724Y0192800D01*
X0239291Y0192206D01*
X0238194Y0191109D01*
X0237600Y0189676D01*
X0237600Y0183324D01*
X0238194Y0181891D01*
X0238585Y0181500D01*
X0234415Y0181500D01*
X0234529Y0181614D01*
X0234956Y0182253D01*
X0235250Y0182962D01*
X0235400Y0183716D01*
X0235400Y0186200D01*
X0231800Y0186200D01*
X0231800Y0186800D01*
X0231200Y0186800D01*
X0231200Y0192800D01*
X0231116Y0192800D01*
X0230362Y0192650D01*
X0229653Y0192356D01*
X0229014Y0191929D01*
X0228471Y0191386D01*
X0228044Y0190747D01*
X0227750Y0190038D01*
X0227600Y0189284D01*
X0227600Y0186800D01*
X0231200Y0186800D01*
X0231200Y0186200D01*
X0227600Y0186200D01*
X0227600Y0183716D01*
X0227750Y0182962D01*
X0228044Y0182253D01*
X0228471Y0181614D01*
X0228585Y0181500D01*
X0224415Y0181500D01*
X0224806Y0181891D01*
X0225400Y0183324D01*
X0225400Y0189676D01*
X0224806Y0191109D01*
X0223709Y0192206D01*
X0222525Y0192697D01*
X0223328Y0193500D01*
X0223043Y0193214D02*
X0259957Y0193214D01*
X0259314Y0192216D02*
X0253558Y0192216D01*
X0254642Y0191217D02*
X0258302Y0191217D01*
X0257825Y0190219D02*
X0255175Y0190219D01*
X0255400Y0189220D02*
X0257600Y0189220D01*
X0257600Y0188222D02*
X0255400Y0188222D01*
X0255400Y0187223D02*
X0257600Y0187223D01*
X0257600Y0186225D02*
X0251800Y0186225D01*
X0251500Y0186500D02*
X0244500Y0193500D01*
X0240500Y0193500D01*
X0233500Y0186500D01*
X0231500Y0186500D01*
X0231800Y0186225D02*
X0237600Y0186225D01*
X0237600Y0187223D02*
X0235400Y0187223D01*
X0235400Y0186800D02*
X0235400Y0189284D01*
X0235250Y0190038D01*
X0234956Y0190747D01*
X0234529Y0191386D01*
X0233986Y0191929D01*
X0233347Y0192356D01*
X0232638Y0192650D01*
X0231884Y0192800D01*
X0231800Y0192800D01*
X0231800Y0186800D01*
X0235400Y0186800D01*
X0235400Y0188222D02*
X0237600Y0188222D01*
X0237600Y0189220D02*
X0235400Y0189220D01*
X0235175Y0190219D02*
X0237825Y0190219D01*
X0238302Y0191217D02*
X0234642Y0191217D01*
X0233558Y0192216D02*
X0239314Y0192216D01*
X0243686Y0192216D02*
X0249442Y0192216D01*
X0248358Y0191217D02*
X0244698Y0191217D01*
X0245175Y0190219D02*
X0247825Y0190219D01*
X0247600Y0189220D02*
X0245400Y0189220D01*
X0245400Y0188222D02*
X0247600Y0188222D01*
X0247600Y0187223D02*
X0245400Y0187223D01*
X0245400Y0186225D02*
X0251200Y0186225D01*
X0251200Y0187223D02*
X0251800Y0187223D01*
X0251800Y0188222D02*
X0251200Y0188222D01*
X0251200Y0189220D02*
X0251800Y0189220D01*
X0251800Y0190219D02*
X0251200Y0190219D01*
X0251200Y0191217D02*
X0251800Y0191217D01*
X0251800Y0192216D02*
X0251200Y0192216D01*
X0247600Y0185226D02*
X0245400Y0185226D01*
X0245400Y0184228D02*
X0247600Y0184228D01*
X0247697Y0183229D02*
X0245361Y0183229D01*
X0244947Y0182231D02*
X0248059Y0182231D01*
X0254941Y0182231D02*
X0258053Y0182231D01*
X0257639Y0183229D02*
X0255303Y0183229D01*
X0255400Y0184228D02*
X0257600Y0184228D01*
X0257600Y0185226D02*
X0255400Y0185226D01*
X0264616Y0194213D02*
X0273500Y0194213D01*
X0273500Y0195211D02*
X0263617Y0195211D01*
X0262619Y0196210D02*
X0273500Y0196210D01*
X0273500Y0197208D02*
X0261620Y0197208D01*
X0265614Y0193214D02*
X0273500Y0193214D01*
X0271800Y0192216D02*
X0271200Y0192216D01*
X0271200Y0191217D02*
X0271800Y0191217D01*
X0271800Y0190219D02*
X0271200Y0190219D01*
X0271200Y0189220D02*
X0271800Y0189220D01*
X0271800Y0188222D02*
X0271200Y0188222D01*
X0271200Y0187223D02*
X0271800Y0187223D01*
X0271500Y0186500D02*
X0271500Y0206500D01*
X0261500Y0216500D01*
X0261800Y0216800D02*
X0265400Y0216800D01*
X0265400Y0219284D01*
X0265250Y0220038D01*
X0264956Y0220747D01*
X0264529Y0221386D01*
X0263986Y0221929D01*
X0263347Y0222356D01*
X0262638Y0222650D01*
X0261884Y0222800D01*
X0261800Y0222800D01*
X0261800Y0216800D01*
X0261800Y0216200D01*
X0265400Y0216200D01*
X0265400Y0213716D01*
X0265250Y0212962D01*
X0264956Y0212253D01*
X0264529Y0211614D01*
X0263986Y0211071D01*
X0263347Y0210644D01*
X0262638Y0210350D01*
X0261884Y0210200D01*
X0261800Y0210200D01*
X0261800Y0216200D01*
X0261200Y0216200D01*
X0261200Y0210200D01*
X0261116Y0210200D01*
X0260362Y0210350D01*
X0259653Y0210644D01*
X0259014Y0211071D01*
X0258471Y0211614D01*
X0258044Y0212253D01*
X0257750Y0212962D01*
X0257600Y0213716D01*
X0257600Y0216200D01*
X0261200Y0216200D01*
X0261200Y0216800D01*
X0261200Y0222800D01*
X0261116Y0222800D01*
X0260362Y0222650D01*
X0259653Y0222356D01*
X0259014Y0221929D01*
X0258471Y0221386D01*
X0258044Y0220747D01*
X0257750Y0220038D01*
X0257600Y0219284D01*
X0257600Y0216800D01*
X0261200Y0216800D01*
X0261800Y0216800D01*
X0261800Y0217178D02*
X0261200Y0217178D01*
X0261200Y0216180D02*
X0261800Y0216180D01*
X0261800Y0215181D02*
X0261200Y0215181D01*
X0261200Y0214183D02*
X0261800Y0214183D01*
X0261800Y0213184D02*
X0261200Y0213184D01*
X0261200Y0212186D02*
X0261800Y0212186D01*
X0261800Y0211187D02*
X0261200Y0211187D01*
X0258897Y0211187D02*
X0254103Y0211187D01*
X0253709Y0210794D02*
X0254806Y0211891D01*
X0255400Y0213324D01*
X0255400Y0219676D01*
X0254806Y0221109D01*
X0253709Y0222206D01*
X0252276Y0222800D01*
X0250724Y0222800D01*
X0249291Y0222206D01*
X0248194Y0221109D01*
X0247600Y0219676D01*
X0247600Y0213324D01*
X0248194Y0211891D01*
X0249291Y0210794D01*
X0250724Y0210200D01*
X0252276Y0210200D01*
X0253709Y0210794D01*
X0254928Y0212186D02*
X0258088Y0212186D01*
X0257706Y0213184D02*
X0255342Y0213184D01*
X0255400Y0214183D02*
X0257600Y0214183D01*
X0257600Y0215181D02*
X0255400Y0215181D01*
X0255400Y0216180D02*
X0257600Y0216180D01*
X0257600Y0217178D02*
X0255400Y0217178D01*
X0255400Y0218177D02*
X0257600Y0218177D01*
X0257600Y0219175D02*
X0255400Y0219175D01*
X0255194Y0220174D02*
X0257806Y0220174D01*
X0258328Y0221172D02*
X0254743Y0221172D01*
X0253744Y0222171D02*
X0259376Y0222171D01*
X0261200Y0222171D02*
X0261800Y0222171D01*
X0261800Y0221172D02*
X0261200Y0221172D01*
X0261200Y0220174D02*
X0261800Y0220174D01*
X0261800Y0219175D02*
X0261200Y0219175D01*
X0261200Y0218177D02*
X0261800Y0218177D01*
X0265400Y0218177D02*
X0267600Y0218177D01*
X0267600Y0219175D02*
X0265400Y0219175D01*
X0265194Y0220174D02*
X0267806Y0220174D01*
X0268257Y0221172D02*
X0264672Y0221172D01*
X0263624Y0222171D02*
X0269256Y0222171D01*
X0273500Y0223170D02*
X0232998Y0223170D01*
X0233744Y0222171D02*
X0239376Y0222171D01*
X0239653Y0222356D02*
X0239014Y0221929D01*
X0238471Y0221386D01*
X0238044Y0220747D01*
X0237750Y0220038D01*
X0237600Y0219284D01*
X0237600Y0216800D01*
X0241200Y0216800D01*
X0241200Y0222800D01*
X0241116Y0222800D01*
X0240362Y0222650D01*
X0239653Y0222356D01*
X0241200Y0222171D02*
X0241800Y0222171D01*
X0241800Y0222800D02*
X0241800Y0216800D01*
X0245400Y0216800D01*
X0245400Y0219284D01*
X0245250Y0220038D01*
X0244956Y0220747D01*
X0244529Y0221386D01*
X0243986Y0221929D01*
X0243347Y0222356D01*
X0242638Y0222650D01*
X0241884Y0222800D01*
X0241800Y0222800D01*
X0241800Y0221172D02*
X0241200Y0221172D01*
X0241200Y0220174D02*
X0241800Y0220174D01*
X0241800Y0219175D02*
X0241200Y0219175D01*
X0241200Y0218177D02*
X0241800Y0218177D01*
X0241800Y0217178D02*
X0241200Y0217178D01*
X0241200Y0216800D02*
X0241800Y0216800D01*
X0241800Y0216200D01*
X0245400Y0216200D01*
X0245400Y0213716D01*
X0245250Y0212962D01*
X0244956Y0212253D01*
X0244529Y0211614D01*
X0243986Y0211071D01*
X0243347Y0210644D01*
X0242638Y0210350D01*
X0241884Y0210200D01*
X0241800Y0210200D01*
X0241800Y0216200D01*
X0241200Y0216200D01*
X0241200Y0210200D01*
X0241116Y0210200D01*
X0240362Y0210350D01*
X0239653Y0210644D01*
X0239014Y0211071D01*
X0238471Y0211614D01*
X0238044Y0212253D01*
X0237750Y0212962D01*
X0237600Y0213716D01*
X0237600Y0216200D01*
X0241200Y0216200D01*
X0241200Y0216800D01*
X0241200Y0216180D02*
X0241800Y0216180D01*
X0241800Y0215181D02*
X0241200Y0215181D01*
X0241200Y0214183D02*
X0241800Y0214183D01*
X0241800Y0213184D02*
X0241200Y0213184D01*
X0241200Y0212186D02*
X0241800Y0212186D01*
X0241800Y0211187D02*
X0241200Y0211187D01*
X0238897Y0211187D02*
X0234103Y0211187D01*
X0234928Y0212186D02*
X0238088Y0212186D01*
X0237706Y0213184D02*
X0235342Y0213184D01*
X0235400Y0214183D02*
X0237600Y0214183D01*
X0237600Y0215181D02*
X0235400Y0215181D01*
X0235400Y0216180D02*
X0237600Y0216180D01*
X0237600Y0217178D02*
X0235400Y0217178D01*
X0235400Y0218177D02*
X0237600Y0218177D01*
X0237600Y0219175D02*
X0235400Y0219175D01*
X0235194Y0220174D02*
X0237806Y0220174D01*
X0238328Y0221172D02*
X0234743Y0221172D01*
X0233996Y0224168D02*
X0273500Y0224168D01*
X0273500Y0225167D02*
X0254995Y0225167D01*
X0255993Y0226165D02*
X0273500Y0226165D01*
X0273500Y0227164D02*
X0256992Y0227164D01*
X0257990Y0228162D02*
X0273500Y0228162D01*
X0273500Y0229161D02*
X0262332Y0229161D01*
X0260353Y0229161D02*
X0258989Y0229161D01*
X0255329Y0231158D02*
X0244986Y0231158D01*
X0245985Y0232156D02*
X0256328Y0232156D01*
X0256792Y0232620D02*
X0252672Y0228500D01*
X0242328Y0228500D01*
X0256919Y0243091D01*
X0256807Y0242746D01*
X0256693Y0242023D01*
X0256693Y0241846D01*
X0261153Y0241846D01*
X0261153Y0241468D01*
X0256693Y0241468D01*
X0256693Y0241292D01*
X0256807Y0240569D01*
X0257034Y0239873D01*
X0257366Y0239221D01*
X0257796Y0238628D01*
X0258313Y0238111D01*
X0258795Y0237761D01*
X0258709Y0237725D01*
X0257401Y0236417D01*
X0256693Y0234708D01*
X0256693Y0232859D01*
X0256792Y0232620D01*
X0256693Y0233155D02*
X0246983Y0233155D01*
X0247982Y0234153D02*
X0256693Y0234153D01*
X0256877Y0235152D02*
X0248980Y0235152D01*
X0249979Y0236150D02*
X0257290Y0236150D01*
X0258132Y0237149D02*
X0250977Y0237149D01*
X0251976Y0238147D02*
X0258277Y0238147D01*
X0257420Y0239146D02*
X0252974Y0239146D01*
X0253973Y0240144D02*
X0256945Y0240144D01*
X0256716Y0241143D02*
X0254971Y0241143D01*
X0255970Y0242141D02*
X0256712Y0242141D01*
X0253308Y0245137D02*
X0216965Y0245137D01*
X0217964Y0246135D02*
X0254307Y0246135D01*
X0255305Y0247134D02*
X0218962Y0247134D01*
X0219961Y0248132D02*
X0256304Y0248132D01*
X0256718Y0248546D02*
X0238672Y0230500D01*
X0221327Y0230500D01*
X0221582Y0230754D01*
X0222012Y0231347D01*
X0222344Y0231999D01*
X0222571Y0232695D01*
X0222685Y0233418D01*
X0222685Y0233594D01*
X0218224Y0233594D01*
X0218224Y0233972D01*
X0218224Y0233973D02*
X0217846Y0233973D01*
X0217846Y0238433D01*
X0217669Y0238433D01*
X0216947Y0238319D01*
X0216251Y0238092D01*
X0215598Y0237760D01*
X0215006Y0237330D01*
X0214489Y0236812D01*
X0214139Y0236331D01*
X0214103Y0236417D01*
X0212795Y0237725D01*
X0211086Y0238433D01*
X0210261Y0238433D01*
X0224328Y0252500D01*
X0257736Y0252500D01*
X0257401Y0252165D01*
X0256693Y0250456D01*
X0256693Y0248607D01*
X0256718Y0248546D01*
X0256693Y0249131D02*
X0220959Y0249131D01*
X0221958Y0250129D02*
X0256693Y0250129D01*
X0256971Y0251128D02*
X0222956Y0251128D01*
X0223955Y0252126D02*
X0257385Y0252126D01*
X0263500Y0254500D02*
X0275500Y0242500D01*
X0275500Y0141500D01*
X0277503Y0143289D02*
X0282496Y0143289D01*
X0282496Y0144287D02*
X0277500Y0144287D01*
X0277500Y0145286D02*
X0282496Y0145286D01*
X0282496Y0146284D02*
X0277500Y0146284D01*
X0277500Y0147283D02*
X0282496Y0147283D01*
X0282496Y0148281D02*
X0277500Y0148281D01*
X0277500Y0149280D02*
X0282496Y0149280D01*
X0282496Y0150278D02*
X0277500Y0150278D01*
X0277500Y0151277D02*
X0282496Y0151277D01*
X0282496Y0152275D02*
X0277500Y0152275D01*
X0277500Y0153274D02*
X0282496Y0153274D01*
X0282496Y0154272D02*
X0277500Y0154272D01*
X0277500Y0155271D02*
X0282496Y0155271D01*
X0282496Y0156269D02*
X0277500Y0156269D01*
X0277500Y0157268D02*
X0282496Y0157268D01*
X0282496Y0158266D02*
X0277500Y0158266D01*
X0277500Y0159265D02*
X0282496Y0159265D01*
X0282496Y0160263D02*
X0277500Y0160263D01*
X0277500Y0161262D02*
X0282496Y0161262D01*
X0282496Y0162260D02*
X0277500Y0162260D01*
X0277500Y0163259D02*
X0282496Y0163259D01*
X0282496Y0164257D02*
X0277500Y0164257D01*
X0277500Y0165256D02*
X0282496Y0165256D01*
X0282496Y0166254D02*
X0277500Y0166254D01*
X0277500Y0167253D02*
X0282496Y0167253D01*
X0282496Y0168251D02*
X0277500Y0168251D01*
X0277500Y0169250D02*
X0282496Y0169250D01*
X0282496Y0170248D02*
X0277500Y0170248D01*
X0277500Y0171247D02*
X0282496Y0171247D01*
X0282496Y0172245D02*
X0277500Y0172245D01*
X0277500Y0173244D02*
X0282496Y0173244D01*
X0282496Y0174242D02*
X0277500Y0174242D01*
X0277500Y0175241D02*
X0282496Y0175241D01*
X0282496Y0176239D02*
X0277500Y0176239D01*
X0277500Y0177238D02*
X0282496Y0177238D01*
X0282496Y0178237D02*
X0277500Y0178237D01*
X0277500Y0179235D02*
X0282496Y0179235D01*
X0282496Y0180234D02*
X0277500Y0180234D01*
X0277500Y0181232D02*
X0282496Y0181232D01*
X0282496Y0182231D02*
X0277500Y0182231D01*
X0277500Y0183229D02*
X0282496Y0183229D01*
X0282496Y0184228D02*
X0277500Y0184228D01*
X0277500Y0185226D02*
X0282496Y0185226D01*
X0282496Y0186225D02*
X0277500Y0186225D01*
X0277500Y0187223D02*
X0282496Y0187223D01*
X0282496Y0188222D02*
X0277500Y0188222D01*
X0277500Y0189220D02*
X0282496Y0189220D01*
X0282496Y0190219D02*
X0277500Y0190219D01*
X0277500Y0191217D02*
X0282496Y0191217D01*
X0282496Y0192216D02*
X0277500Y0192216D01*
X0277500Y0193214D02*
X0282496Y0193214D01*
X0282496Y0194213D02*
X0277500Y0194213D01*
X0277500Y0195211D02*
X0282496Y0195211D01*
X0282496Y0196210D02*
X0277500Y0196210D01*
X0277500Y0197208D02*
X0282496Y0197208D01*
X0282496Y0198207D02*
X0277500Y0198207D01*
X0277500Y0199205D02*
X0282496Y0199205D01*
X0282496Y0200204D02*
X0277500Y0200204D01*
X0277500Y0201202D02*
X0282496Y0201202D01*
X0282496Y0202201D02*
X0277500Y0202201D01*
X0277500Y0203199D02*
X0282496Y0203199D01*
X0282496Y0204198D02*
X0277500Y0204198D01*
X0277500Y0205196D02*
X0282496Y0205196D01*
X0282496Y0206195D02*
X0277500Y0206195D01*
X0277500Y0207193D02*
X0282496Y0207193D01*
X0282496Y0208192D02*
X0277500Y0208192D01*
X0277500Y0209190D02*
X0282496Y0209190D01*
X0282496Y0210189D02*
X0277500Y0210189D01*
X0277500Y0211187D02*
X0282496Y0211187D01*
X0282496Y0212186D02*
X0277500Y0212186D01*
X0277500Y0213184D02*
X0282496Y0213184D01*
X0282496Y0214183D02*
X0277500Y0214183D01*
X0277500Y0215181D02*
X0282496Y0215181D01*
X0282496Y0216180D02*
X0277500Y0216180D01*
X0277500Y0217178D02*
X0282496Y0217178D01*
X0282496Y0218177D02*
X0277500Y0218177D01*
X0277500Y0219175D02*
X0282496Y0219175D01*
X0282496Y0220174D02*
X0277500Y0220174D01*
X0277500Y0221172D02*
X0282496Y0221172D01*
X0282496Y0222171D02*
X0277500Y0222171D01*
X0277500Y0223170D02*
X0282496Y0223170D01*
X0282496Y0224168D02*
X0277500Y0224168D01*
X0277500Y0225167D02*
X0282496Y0225167D01*
X0282496Y0226165D02*
X0277500Y0226165D01*
X0277500Y0227164D02*
X0282496Y0227164D01*
X0282496Y0228162D02*
X0277500Y0228162D01*
X0277500Y0229161D02*
X0282496Y0229161D01*
X0282496Y0230159D02*
X0277500Y0230159D01*
X0277500Y0231158D02*
X0282496Y0231158D01*
X0282496Y0232156D02*
X0277500Y0232156D01*
X0277500Y0233155D02*
X0282496Y0233155D01*
X0282496Y0234153D02*
X0277500Y0234153D01*
X0277500Y0235152D02*
X0282496Y0235152D01*
X0282496Y0236150D02*
X0277500Y0236150D01*
X0277500Y0237149D02*
X0282496Y0237149D01*
X0282496Y0238147D02*
X0277500Y0238147D01*
X0277500Y0239146D02*
X0282496Y0239146D01*
X0282496Y0240144D02*
X0277500Y0240144D01*
X0277500Y0241143D02*
X0282496Y0241143D01*
X0282496Y0242141D02*
X0277500Y0242141D01*
X0277500Y0243140D02*
X0282496Y0243140D01*
X0282496Y0244138D02*
X0276690Y0244138D01*
X0275692Y0245137D02*
X0282496Y0245137D01*
X0282496Y0246135D02*
X0274693Y0246135D01*
X0273695Y0247134D02*
X0282496Y0247134D01*
X0282496Y0248132D02*
X0272696Y0248132D01*
X0271698Y0249131D02*
X0282496Y0249131D01*
X0282496Y0250129D02*
X0270699Y0250129D01*
X0269701Y0251128D02*
X0282496Y0251128D01*
X0282496Y0252126D02*
X0268702Y0252126D01*
X0267704Y0253125D02*
X0282496Y0253125D01*
X0282496Y0254123D02*
X0266705Y0254123D01*
X0265707Y0255122D02*
X0282496Y0255122D01*
X0282496Y0256120D02*
X0264708Y0256120D01*
X0263500Y0254500D02*
X0223500Y0254500D01*
X0205500Y0236500D01*
X0205500Y0234500D01*
X0186500Y0215500D01*
X0186500Y0211500D01*
X0183668Y0214183D02*
X0169332Y0214183D01*
X0169010Y0215181D02*
X0184500Y0215181D01*
X0184500Y0216180D02*
X0170008Y0216180D01*
X0171007Y0217178D02*
X0185350Y0217178D01*
X0184308Y0218177D02*
X0172005Y0218177D01*
X0173004Y0219175D02*
X0183309Y0219175D01*
X0182600Y0220174D02*
X0174002Y0220174D01*
X0175001Y0221172D02*
X0182600Y0221172D01*
X0182600Y0222171D02*
X0175999Y0222171D01*
X0176998Y0223170D02*
X0182654Y0223170D01*
X0183653Y0224168D02*
X0177996Y0224168D01*
X0178995Y0225167D02*
X0184651Y0225167D01*
X0188349Y0225167D02*
X0193338Y0225167D01*
X0194337Y0226165D02*
X0179993Y0226165D01*
X0180992Y0227164D02*
X0195335Y0227164D01*
X0196334Y0228162D02*
X0181990Y0228162D01*
X0183592Y0229161D02*
X0189487Y0229161D01*
X0191466Y0229161D02*
X0197332Y0229161D01*
X0198331Y0230159D02*
X0193428Y0230159D01*
X0194421Y0231158D02*
X0199329Y0231158D01*
X0200328Y0232156D02*
X0194835Y0232156D01*
X0195126Y0233155D02*
X0201326Y0233155D01*
X0202325Y0234153D02*
X0195126Y0234153D01*
X0194942Y0235152D02*
X0203323Y0235152D01*
X0203500Y0236150D02*
X0194529Y0236150D01*
X0193687Y0237149D02*
X0203500Y0237149D01*
X0204319Y0238147D02*
X0192091Y0238147D01*
X0188861Y0238147D02*
X0184217Y0238147D01*
X0185813Y0237149D02*
X0187266Y0237149D01*
X0182602Y0233783D02*
X0182500Y0233500D01*
X0182500Y0231500D01*
X0166500Y0215500D01*
X0166500Y0211500D01*
X0170400Y0211187D02*
X0182600Y0211187D01*
X0182600Y0210189D02*
X0170400Y0210189D01*
X0169706Y0209190D02*
X0183294Y0209190D01*
X0184293Y0208192D02*
X0168707Y0208192D01*
X0168319Y0205196D02*
X0181368Y0205196D01*
X0180500Y0204198D02*
X0169318Y0204198D01*
X0170316Y0203199D02*
X0180500Y0203199D01*
X0180372Y0202201D02*
X0170400Y0202201D01*
X0170400Y0201202D02*
X0179374Y0201202D01*
X0178375Y0200204D02*
X0170400Y0200204D01*
X0169721Y0199205D02*
X0177377Y0199205D01*
X0176378Y0198207D02*
X0168722Y0198207D01*
X0167620Y0197208D02*
X0175380Y0197208D01*
X0174381Y0196210D02*
X0168500Y0196210D01*
X0168500Y0195211D02*
X0173383Y0195211D01*
X0172384Y0194213D02*
X0169303Y0194213D01*
X0170301Y0193214D02*
X0171386Y0193214D01*
X0174047Y0190219D02*
X0182600Y0190219D01*
X0182600Y0189885D02*
X0184885Y0187600D01*
X0188115Y0187600D01*
X0190400Y0189885D01*
X0190400Y0193115D01*
X0188115Y0195400D01*
X0184885Y0195400D01*
X0182600Y0193115D01*
X0182600Y0189885D01*
X0183264Y0189220D02*
X0173049Y0189220D01*
X0172050Y0188222D02*
X0184263Y0188222D01*
X0182600Y0191217D02*
X0175046Y0191217D01*
X0176044Y0192216D02*
X0182600Y0192216D01*
X0182699Y0193214D02*
X0177043Y0193214D01*
X0178041Y0194213D02*
X0183697Y0194213D01*
X0184696Y0195211D02*
X0179040Y0195211D01*
X0180038Y0196210D02*
X0197600Y0196210D01*
X0197600Y0197208D02*
X0181037Y0197208D01*
X0182035Y0198207D02*
X0184278Y0198207D01*
X0184885Y0197600D02*
X0188115Y0197600D01*
X0190400Y0199885D01*
X0190400Y0202572D01*
X0200328Y0212500D01*
X0201500Y0213672D01*
X0201500Y0214672D01*
X0210328Y0223500D01*
X0214708Y0223500D01*
X0214981Y0223227D01*
X0215967Y0222819D01*
X0217033Y0222819D01*
X0218019Y0223227D01*
X0218773Y0223981D01*
X0219181Y0224967D01*
X0219181Y0226033D01*
X0218988Y0226500D01*
X0230672Y0226500D01*
X0225500Y0221328D01*
X0225500Y0215328D01*
X0225400Y0215228D01*
X0225400Y0216200D01*
X0221800Y0216200D01*
X0221800Y0216800D01*
X0221200Y0216800D01*
X0221200Y0222800D01*
X0221116Y0222800D01*
X0220362Y0222650D01*
X0219653Y0222356D01*
X0219014Y0221929D01*
X0218471Y0221386D01*
X0218044Y0220747D01*
X0217750Y0220038D01*
X0217600Y0219284D01*
X0217600Y0216800D01*
X0221200Y0216800D01*
X0221200Y0216200D01*
X0217600Y0216200D01*
X0217600Y0213716D01*
X0217750Y0212962D01*
X0218044Y0212253D01*
X0218471Y0211614D01*
X0219014Y0211071D01*
X0219653Y0210644D01*
X0220362Y0210350D01*
X0220495Y0210323D01*
X0205400Y0195228D01*
X0205400Y0198115D01*
X0203672Y0199843D01*
X0212328Y0208500D01*
X0213500Y0209672D01*
X0213500Y0210707D01*
X0213709Y0210794D01*
X0214806Y0211891D01*
X0215400Y0213324D01*
X0215400Y0219676D01*
X0214806Y0221109D01*
X0213709Y0222206D01*
X0212276Y0222800D01*
X0210724Y0222800D01*
X0209291Y0222206D01*
X0208194Y0221109D01*
X0207600Y0219676D01*
X0207600Y0213324D01*
X0208194Y0211891D01*
X0209128Y0210956D01*
X0205400Y0207228D01*
X0205400Y0208115D01*
X0203115Y0210400D01*
X0201800Y0210400D01*
X0201800Y0206800D01*
X0201200Y0206800D01*
X0201200Y0210400D01*
X0199885Y0210400D01*
X0197600Y0208115D01*
X0197600Y0206800D01*
X0201200Y0206800D01*
X0201200Y0206200D01*
X0197600Y0206200D01*
X0197600Y0204885D01*
X0199885Y0202600D01*
X0200772Y0202600D01*
X0199500Y0201328D01*
X0199500Y0200015D01*
X0197600Y0198115D01*
X0197600Y0194885D01*
X0199885Y0192600D01*
X0202772Y0192600D01*
X0197672Y0187500D01*
X0171328Y0187500D01*
X0183156Y0199328D01*
X0184885Y0197600D01*
X0183279Y0199205D02*
X0183034Y0199205D01*
X0186500Y0201500D02*
X0199500Y0214500D01*
X0199500Y0215500D01*
X0209500Y0225500D01*
X0216500Y0225500D01*
X0218850Y0224168D02*
X0228340Y0224168D01*
X0229338Y0225167D02*
X0219181Y0225167D01*
X0219127Y0226165D02*
X0230337Y0226165D01*
X0227341Y0223170D02*
X0217880Y0223170D01*
X0219376Y0222171D02*
X0213744Y0222171D01*
X0214743Y0221172D02*
X0218328Y0221172D01*
X0217806Y0220174D02*
X0215194Y0220174D01*
X0215400Y0219175D02*
X0217600Y0219175D01*
X0217600Y0218177D02*
X0215400Y0218177D01*
X0215400Y0217178D02*
X0217600Y0217178D01*
X0217600Y0216180D02*
X0215400Y0216180D01*
X0215400Y0215181D02*
X0217600Y0215181D01*
X0217600Y0214183D02*
X0215400Y0214183D01*
X0215342Y0213184D02*
X0217706Y0213184D01*
X0218088Y0212186D02*
X0214928Y0212186D01*
X0214103Y0211187D02*
X0218897Y0211187D01*
X0220360Y0210189D02*
X0213500Y0210189D01*
X0213019Y0209190D02*
X0219362Y0209190D01*
X0218363Y0208192D02*
X0212020Y0208192D01*
X0211022Y0207193D02*
X0217365Y0207193D01*
X0216366Y0206195D02*
X0210023Y0206195D01*
X0209025Y0205196D02*
X0215368Y0205196D01*
X0214369Y0204198D02*
X0208026Y0204198D01*
X0207028Y0203199D02*
X0213371Y0203199D01*
X0212372Y0202201D02*
X0206029Y0202201D01*
X0205031Y0201202D02*
X0211374Y0201202D01*
X0210375Y0200204D02*
X0204032Y0200204D01*
X0204310Y0199205D02*
X0209377Y0199205D01*
X0208378Y0198207D02*
X0205309Y0198207D01*
X0205400Y0197208D02*
X0207380Y0197208D01*
X0206381Y0196210D02*
X0205400Y0196210D01*
X0201500Y0196500D02*
X0201500Y0200500D01*
X0211500Y0210500D01*
X0211500Y0216500D01*
X0207600Y0216180D02*
X0203008Y0216180D01*
X0202010Y0215181D02*
X0207600Y0215181D01*
X0207600Y0214183D02*
X0201500Y0214183D01*
X0201500Y0214500D02*
X0210500Y0223500D01*
X0214500Y0223500D01*
X0221500Y0216500D01*
X0221800Y0216800D02*
X0221800Y0222800D01*
X0221884Y0222800D01*
X0222638Y0222650D01*
X0223347Y0222356D01*
X0223986Y0221929D01*
X0224529Y0221386D01*
X0224956Y0220747D01*
X0225250Y0220038D01*
X0225400Y0219284D01*
X0225400Y0216800D01*
X0221800Y0216800D01*
X0221800Y0217178D02*
X0221200Y0217178D01*
X0221200Y0218177D02*
X0221800Y0218177D01*
X0221800Y0219175D02*
X0221200Y0219175D01*
X0221200Y0220174D02*
X0221800Y0220174D01*
X0221800Y0221172D02*
X0221200Y0221172D01*
X0221200Y0222171D02*
X0221800Y0222171D01*
X0223624Y0222171D02*
X0226343Y0222171D01*
X0225500Y0221172D02*
X0224672Y0221172D01*
X0225194Y0220174D02*
X0225500Y0220174D01*
X0225500Y0219175D02*
X0225400Y0219175D01*
X0225400Y0218177D02*
X0225500Y0218177D01*
X0225500Y0217178D02*
X0225400Y0217178D01*
X0225400Y0216180D02*
X0225500Y0216180D01*
X0228014Y0212186D02*
X0228072Y0212186D01*
X0228897Y0211187D02*
X0227016Y0211187D01*
X0226017Y0210189D02*
X0273500Y0210189D01*
X0273500Y0209190D02*
X0225019Y0209190D01*
X0224020Y0208192D02*
X0273500Y0208192D01*
X0273500Y0207193D02*
X0223022Y0207193D01*
X0222023Y0206195D02*
X0273500Y0206195D01*
X0273500Y0205196D02*
X0221025Y0205196D01*
X0220026Y0204198D02*
X0273500Y0204198D01*
X0273500Y0203199D02*
X0219028Y0203199D01*
X0218029Y0202201D02*
X0273500Y0202201D01*
X0273500Y0201202D02*
X0217031Y0201202D01*
X0216032Y0200204D02*
X0273500Y0200204D01*
X0273500Y0199205D02*
X0215034Y0199205D01*
X0214035Y0198207D02*
X0273500Y0198207D01*
X0269442Y0192216D02*
X0266613Y0192216D01*
X0267611Y0191217D02*
X0268358Y0191217D01*
X0271200Y0186200D02*
X0271800Y0186200D01*
X0271800Y0180200D01*
X0271884Y0180200D01*
X0272638Y0180350D01*
X0273347Y0180644D01*
X0273500Y0180746D01*
X0273500Y0177328D01*
X0273328Y0177500D01*
X0270507Y0180321D01*
X0271116Y0180200D01*
X0271200Y0180200D01*
X0271200Y0186200D01*
X0271200Y0185226D02*
X0271800Y0185226D01*
X0271800Y0184228D02*
X0271200Y0184228D01*
X0271200Y0183229D02*
X0271800Y0183229D01*
X0271800Y0182231D02*
X0271200Y0182231D01*
X0271200Y0181232D02*
X0271800Y0181232D01*
X0271800Y0180234D02*
X0271200Y0180234D01*
X0270947Y0180234D02*
X0270595Y0180234D01*
X0271593Y0179235D02*
X0273500Y0179235D01*
X0273500Y0178237D02*
X0272592Y0178237D01*
X0272053Y0180234D02*
X0273500Y0180234D01*
X0264715Y0168251D02*
X0258364Y0168251D01*
X0260052Y0169250D02*
X0263026Y0169250D01*
X0262039Y0170248D02*
X0261040Y0170248D01*
X0261454Y0171247D02*
X0261625Y0171247D01*
X0254715Y0168251D02*
X0248364Y0168251D01*
X0250052Y0169250D02*
X0253026Y0169250D01*
X0252039Y0170248D02*
X0251040Y0170248D01*
X0251454Y0171247D02*
X0251625Y0171247D01*
X0244715Y0168251D02*
X0238364Y0168251D01*
X0240052Y0169250D02*
X0243026Y0169250D01*
X0242039Y0170248D02*
X0241040Y0170248D01*
X0241454Y0171247D02*
X0241625Y0171247D01*
X0234715Y0168251D02*
X0228364Y0168251D01*
X0230052Y0169250D02*
X0233026Y0169250D01*
X0232039Y0170248D02*
X0231040Y0170248D01*
X0231454Y0171247D02*
X0231625Y0171247D01*
X0224715Y0168251D02*
X0218364Y0168251D01*
X0220052Y0169250D02*
X0223026Y0169250D01*
X0222039Y0170248D02*
X0221040Y0170248D01*
X0221454Y0171247D02*
X0221625Y0171247D01*
X0214715Y0168251D02*
X0208364Y0168251D01*
X0210052Y0169250D02*
X0213026Y0169250D01*
X0212039Y0170248D02*
X0211040Y0170248D01*
X0211454Y0171247D02*
X0211625Y0171247D01*
X0204715Y0168251D02*
X0198364Y0168251D01*
X0200052Y0169250D02*
X0203026Y0169250D01*
X0202039Y0170248D02*
X0201040Y0170248D01*
X0201454Y0171247D02*
X0201625Y0171247D01*
X0194715Y0168251D02*
X0188364Y0168251D01*
X0190052Y0169250D02*
X0193026Y0169250D01*
X0192039Y0170248D02*
X0191040Y0170248D01*
X0191454Y0171247D02*
X0191625Y0171247D01*
X0184715Y0168251D02*
X0178364Y0168251D01*
X0180052Y0169250D02*
X0183026Y0169250D01*
X0182039Y0170248D02*
X0181040Y0170248D01*
X0181454Y0171247D02*
X0181625Y0171247D01*
X0174715Y0168251D02*
X0168364Y0168251D01*
X0170052Y0169250D02*
X0173026Y0169250D01*
X0172039Y0170248D02*
X0171040Y0170248D01*
X0171454Y0171247D02*
X0171625Y0171247D01*
X0164715Y0168251D02*
X0158364Y0168251D01*
X0160052Y0169250D02*
X0163026Y0169250D01*
X0162039Y0170248D02*
X0161040Y0170248D01*
X0161454Y0171247D02*
X0161625Y0171247D01*
X0154715Y0168251D02*
X0148364Y0168251D01*
X0150052Y0169250D02*
X0153026Y0169250D01*
X0152039Y0170248D02*
X0151040Y0170248D01*
X0151454Y0171247D02*
X0151625Y0171247D01*
X0146539Y0173232D02*
X0146500Y0173500D01*
X0146500Y0182500D01*
X0130500Y0198500D01*
X0130500Y0217500D01*
X0126500Y0221500D01*
X0129347Y0224168D02*
X0131004Y0224168D01*
X0130346Y0223170D02*
X0132002Y0223170D01*
X0133001Y0222171D02*
X0130400Y0222171D01*
X0130400Y0221172D02*
X0133999Y0221172D01*
X0134998Y0220174D02*
X0130654Y0220174D01*
X0131653Y0219175D02*
X0143309Y0219175D01*
X0144308Y0218177D02*
X0132500Y0218177D01*
X0128500Y0216180D02*
X0110400Y0216180D01*
X0110400Y0216200D02*
X0106800Y0216200D01*
X0106800Y0216800D01*
X0110400Y0216800D01*
X0110400Y0218115D01*
X0108115Y0220400D01*
X0106800Y0220400D01*
X0106800Y0216800D01*
X0106200Y0216800D01*
X0106200Y0220400D01*
X0104885Y0220400D01*
X0102600Y0218115D01*
X0102600Y0216800D01*
X0106200Y0216800D01*
X0106200Y0216200D01*
X0106800Y0216200D01*
X0106800Y0212600D01*
X0108115Y0212600D01*
X0110400Y0214885D01*
X0110400Y0216200D01*
X0110400Y0217178D02*
X0127993Y0217178D01*
X0128334Y0215181D02*
X0128500Y0215181D01*
X0124666Y0215181D02*
X0110400Y0215181D01*
X0109698Y0214183D02*
X0123667Y0214183D01*
X0122669Y0213184D02*
X0108700Y0213184D01*
X0106800Y0213184D02*
X0106200Y0213184D01*
X0106200Y0212600D02*
X0106200Y0216200D01*
X0102600Y0216200D01*
X0102600Y0214885D01*
X0104885Y0212600D01*
X0106200Y0212600D01*
X0106200Y0214183D02*
X0106800Y0214183D01*
X0106800Y0215181D02*
X0106200Y0215181D01*
X0106200Y0216180D02*
X0106800Y0216180D01*
X0106500Y0216500D02*
X0106500Y0205500D01*
X0136500Y0175500D01*
X0136500Y0173500D01*
X0136539Y0173232D01*
X0136039Y0172245D02*
X0137039Y0172245D01*
X0137039Y0171247D02*
X0136039Y0171247D01*
X0136039Y0170248D02*
X0137039Y0170248D01*
X0137039Y0169250D02*
X0136039Y0169250D01*
X0136039Y0168251D02*
X0137039Y0168251D01*
X0138361Y0168251D02*
X0144715Y0168251D01*
X0143026Y0169250D02*
X0140052Y0169250D01*
X0140923Y0170248D02*
X0142039Y0170248D01*
X0141625Y0171247D02*
X0141467Y0171247D01*
X0141459Y0175241D02*
X0141635Y0175241D01*
X0142051Y0176239D02*
X0140906Y0176239D01*
X0140029Y0177238D02*
X0143050Y0177238D01*
X0144500Y0178237D02*
X0138289Y0178237D01*
X0137039Y0178237D02*
X0136039Y0178237D01*
X0136039Y0177238D02*
X0137039Y0177238D01*
X0137039Y0176239D02*
X0136039Y0176239D01*
X0136039Y0175241D02*
X0137039Y0175241D01*
X0137039Y0174242D02*
X0136039Y0174242D01*
X0133050Y0177238D02*
X0130029Y0177238D01*
X0131027Y0176239D02*
X0132173Y0176239D01*
X0131619Y0175241D02*
X0131444Y0175241D01*
X0128500Y0178237D02*
X0134790Y0178237D01*
X0128500Y0183229D02*
X0142943Y0183229D01*
X0143941Y0182231D02*
X0128500Y0182231D01*
X0128500Y0181232D02*
X0144500Y0181232D01*
X0144500Y0180234D02*
X0128500Y0180234D01*
X0128500Y0179235D02*
X0144500Y0179235D01*
X0141944Y0184228D02*
X0127601Y0184228D01*
X0126602Y0185226D02*
X0140945Y0185226D01*
X0139947Y0186225D02*
X0125604Y0186225D01*
X0124605Y0187223D02*
X0138948Y0187223D01*
X0137950Y0188222D02*
X0128737Y0188222D01*
X0128115Y0187600D02*
X0130400Y0189885D01*
X0130400Y0193115D01*
X0128115Y0195400D01*
X0124885Y0195400D01*
X0122600Y0193115D01*
X0122600Y0189885D01*
X0124885Y0187600D01*
X0128115Y0187600D01*
X0129736Y0189220D02*
X0136951Y0189220D01*
X0135953Y0190219D02*
X0130400Y0190219D01*
X0130400Y0191217D02*
X0134954Y0191217D01*
X0133956Y0192216D02*
X0130400Y0192216D01*
X0130301Y0193214D02*
X0132957Y0193214D01*
X0131959Y0194213D02*
X0129303Y0194213D01*
X0128304Y0195211D02*
X0130960Y0195211D01*
X0129962Y0196210D02*
X0115619Y0196210D01*
X0114620Y0197208D02*
X0128963Y0197208D01*
X0124696Y0195211D02*
X0116617Y0195211D01*
X0117616Y0194213D02*
X0123697Y0194213D01*
X0122699Y0193214D02*
X0118614Y0193214D01*
X0119613Y0192216D02*
X0122600Y0192216D01*
X0122600Y0191217D02*
X0120611Y0191217D01*
X0121610Y0190219D02*
X0122600Y0190219D01*
X0122608Y0189220D02*
X0123264Y0189220D01*
X0123607Y0188222D02*
X0124263Y0188222D01*
X0120945Y0185226D02*
X0003968Y0185226D01*
X0003968Y0184228D02*
X0121944Y0184228D01*
X0122943Y0183229D02*
X0003968Y0183229D01*
X0003968Y0182231D02*
X0017776Y0182231D01*
X0017955Y0182409D02*
X0013386Y0177841D01*
X0013386Y0175110D01*
X0020685Y0175110D01*
X0020685Y0174110D01*
X0021685Y0174110D01*
X0021685Y0166811D01*
X0024416Y0166811D01*
X0028984Y0171380D01*
X0028984Y0174110D01*
X0021685Y0174110D01*
X0021685Y0175110D01*
X0028984Y0175110D01*
X0028984Y0177841D01*
X0024416Y0182409D01*
X0021685Y0182409D01*
X0021685Y0175110D01*
X0020685Y0175110D01*
X0020685Y0182409D01*
X0017955Y0182409D01*
X0016777Y0181232D02*
X0003968Y0181232D01*
X0003968Y0180234D02*
X0015779Y0180234D01*
X0014780Y0179235D02*
X0003968Y0179235D01*
X0003968Y0178237D02*
X0013782Y0178237D01*
X0013386Y0177238D02*
X0003968Y0177238D01*
X0003968Y0176239D02*
X0013386Y0176239D01*
X0013386Y0175241D02*
X0003968Y0175241D01*
X0003968Y0174242D02*
X0020685Y0174242D01*
X0020685Y0174110D02*
X0013386Y0174110D01*
X0013386Y0171380D01*
X0017955Y0166811D01*
X0020685Y0166811D01*
X0020685Y0174110D01*
X0020685Y0173244D02*
X0021685Y0173244D01*
X0021685Y0174242D02*
X0044307Y0174242D01*
X0044307Y0174110D02*
X0037008Y0174110D01*
X0037008Y0171380D01*
X0041577Y0166811D01*
X0044307Y0166811D01*
X0044307Y0174110D01*
X0044307Y0173244D02*
X0045307Y0173244D01*
X0045307Y0172245D02*
X0044307Y0172245D01*
X0044307Y0171247D02*
X0045307Y0171247D01*
X0045307Y0170248D02*
X0044307Y0170248D01*
X0044307Y0169250D02*
X0045307Y0169250D01*
X0045307Y0168251D02*
X0044307Y0168251D01*
X0044307Y0167253D02*
X0045307Y0167253D01*
X0043574Y0166254D02*
X0098500Y0166254D01*
X0098500Y0165256D02*
X0044573Y0165256D01*
X0045571Y0164257D02*
X0098500Y0164257D01*
X0098500Y0163259D02*
X0046570Y0163259D01*
X0048479Y0167253D02*
X0098500Y0167253D01*
X0099423Y0168251D02*
X0049478Y0168251D01*
X0050476Y0169250D02*
X0100421Y0169250D01*
X0101420Y0170248D02*
X0051475Y0170248D01*
X0052474Y0171247D02*
X0101625Y0171247D01*
X0101239Y0172245D02*
X0052606Y0172245D01*
X0052606Y0173244D02*
X0101239Y0173244D01*
X0116951Y0189220D02*
X0003968Y0189220D01*
X0003968Y0188222D02*
X0117950Y0188222D01*
X0118948Y0187223D02*
X0003968Y0187223D01*
X0003968Y0186225D02*
X0119947Y0186225D01*
X0115953Y0190219D02*
X0003968Y0190219D01*
X0003968Y0191217D02*
X0114954Y0191217D01*
X0113956Y0192216D02*
X0057604Y0192216D01*
X0056000Y0191551D02*
X0059222Y0192886D01*
X0061689Y0195352D01*
X0063024Y0198575D01*
X0063024Y0202063D01*
X0061689Y0205285D01*
X0059222Y0207752D01*
X0056000Y0209087D01*
X0052512Y0209087D01*
X0049289Y0207752D01*
X0046823Y0205285D01*
X0045488Y0202063D01*
X0045488Y0198575D01*
X0046823Y0195352D01*
X0049289Y0192886D01*
X0052512Y0191551D01*
X0056000Y0191551D01*
X0059551Y0193214D02*
X0112957Y0193214D01*
X0111959Y0194213D02*
X0060549Y0194213D01*
X0061548Y0195211D02*
X0110960Y0195211D01*
X0109962Y0196210D02*
X0062044Y0196210D01*
X0062458Y0197208D02*
X0108963Y0197208D01*
X0107965Y0198207D02*
X0062871Y0198207D01*
X0063024Y0199205D02*
X0106966Y0199205D01*
X0105968Y0200204D02*
X0063024Y0200204D01*
X0063024Y0201202D02*
X0104969Y0201202D01*
X0103971Y0202201D02*
X0062967Y0202201D01*
X0062553Y0203199D02*
X0102972Y0203199D01*
X0101974Y0204198D02*
X0062139Y0204198D01*
X0061726Y0205196D02*
X0100975Y0205196D01*
X0099977Y0206195D02*
X0060779Y0206195D01*
X0059781Y0207193D02*
X0098978Y0207193D01*
X0097980Y0208192D02*
X0058160Y0208192D01*
X0050352Y0208192D02*
X0034843Y0208192D01*
X0034583Y0208299D02*
X0031409Y0208299D01*
X0028476Y0207084D01*
X0026231Y0204839D01*
X0025016Y0201906D01*
X0025016Y0198732D01*
X0026231Y0195798D01*
X0028476Y0193554D01*
X0031409Y0192339D01*
X0034583Y0192339D01*
X0037517Y0193554D01*
X0039761Y0195798D01*
X0040976Y0198732D01*
X0040976Y0201906D01*
X0039761Y0204839D01*
X0037517Y0207084D01*
X0034583Y0208299D01*
X0037253Y0207193D02*
X0048731Y0207193D01*
X0047732Y0206195D02*
X0038406Y0206195D01*
X0039405Y0205196D02*
X0046786Y0205196D01*
X0046373Y0204198D02*
X0040027Y0204198D01*
X0040441Y0203199D02*
X0045959Y0203199D01*
X0045545Y0202201D02*
X0040854Y0202201D01*
X0040976Y0201202D02*
X0045488Y0201202D01*
X0045488Y0200204D02*
X0040976Y0200204D01*
X0040976Y0199205D02*
X0045488Y0199205D01*
X0045641Y0198207D02*
X0040759Y0198207D01*
X0040345Y0197208D02*
X0046054Y0197208D01*
X0046468Y0196210D02*
X0039932Y0196210D01*
X0039174Y0195211D02*
X0046964Y0195211D01*
X0047963Y0194213D02*
X0038176Y0194213D01*
X0036697Y0193214D02*
X0048961Y0193214D01*
X0050908Y0192216D02*
X0003968Y0192216D01*
X0003968Y0193214D02*
X0029295Y0193214D01*
X0027816Y0194213D02*
X0003968Y0194213D01*
X0003968Y0195211D02*
X0026818Y0195211D01*
X0026060Y0196210D02*
X0003968Y0196210D01*
X0003968Y0197208D02*
X0025647Y0197208D01*
X0025233Y0198207D02*
X0003968Y0198207D01*
X0003968Y0199205D02*
X0025016Y0199205D01*
X0025016Y0200204D02*
X0003968Y0200204D01*
X0003968Y0201202D02*
X0025016Y0201202D01*
X0025138Y0202201D02*
X0003968Y0202201D01*
X0003968Y0203199D02*
X0025551Y0203199D01*
X0025965Y0204198D02*
X0003968Y0204198D01*
X0003968Y0205196D02*
X0026588Y0205196D01*
X0027586Y0206195D02*
X0003968Y0206195D01*
X0003968Y0207193D02*
X0028739Y0207193D01*
X0031149Y0208192D02*
X0003968Y0208192D01*
X0003968Y0209190D02*
X0096981Y0209190D01*
X0095983Y0210189D02*
X0003968Y0210189D01*
X0003968Y0211187D02*
X0094984Y0211187D01*
X0094500Y0212186D02*
X0003968Y0212186D01*
X0003968Y0213184D02*
X0094300Y0213184D01*
X0093302Y0214183D02*
X0003968Y0214183D01*
X0003968Y0215181D02*
X0092600Y0215181D01*
X0092600Y0216180D02*
X0003968Y0216180D01*
X0003968Y0217178D02*
X0092600Y0217178D01*
X0092662Y0218177D02*
X0003968Y0218177D01*
X0003968Y0219175D02*
X0093660Y0219175D01*
X0094659Y0220174D02*
X0003968Y0220174D01*
X0003968Y0221172D02*
X0122600Y0221172D01*
X0122600Y0220174D02*
X0108341Y0220174D01*
X0109340Y0219175D02*
X0123309Y0219175D01*
X0124308Y0218177D02*
X0110338Y0218177D01*
X0106800Y0218177D02*
X0106200Y0218177D01*
X0106200Y0219175D02*
X0106800Y0219175D01*
X0106800Y0220174D02*
X0106200Y0220174D01*
X0104659Y0220174D02*
X0098341Y0220174D01*
X0099340Y0219175D02*
X0103660Y0219175D01*
X0102662Y0218177D02*
X0100338Y0218177D01*
X0100400Y0217178D02*
X0102600Y0217178D01*
X0102600Y0216180D02*
X0100400Y0216180D01*
X0100400Y0215181D02*
X0102600Y0215181D01*
X0103302Y0214183D02*
X0099698Y0214183D01*
X0098700Y0213184D02*
X0104300Y0213184D01*
X0101640Y0210189D02*
X0122600Y0210189D01*
X0122600Y0211187D02*
X0100641Y0211187D01*
X0099643Y0212186D02*
X0122600Y0212186D01*
X0123294Y0209190D02*
X0102638Y0209190D01*
X0103637Y0208192D02*
X0124293Y0208192D01*
X0124681Y0205196D02*
X0106632Y0205196D01*
X0107631Y0204198D02*
X0123682Y0204198D01*
X0122684Y0203199D02*
X0108629Y0203199D01*
X0109628Y0202201D02*
X0122600Y0202201D01*
X0122600Y0201202D02*
X0110626Y0201202D01*
X0111625Y0200204D02*
X0122600Y0200204D01*
X0123279Y0199205D02*
X0112623Y0199205D01*
X0113622Y0198207D02*
X0124278Y0198207D01*
X0128319Y0205196D02*
X0128500Y0205196D01*
X0128500Y0206195D02*
X0105634Y0206195D01*
X0104635Y0207193D02*
X0128500Y0207193D01*
X0142500Y0203500D02*
X0142500Y0189500D01*
X0146500Y0191500D02*
X0157500Y0191500D01*
X0156951Y0189220D02*
X0149736Y0189220D01*
X0148737Y0188222D02*
X0157950Y0188222D01*
X0158948Y0187223D02*
X0147605Y0187223D01*
X0148604Y0186225D02*
X0159947Y0186225D01*
X0160945Y0185226D02*
X0149602Y0185226D01*
X0150601Y0184228D02*
X0161944Y0184228D01*
X0166500Y0191500D02*
X0166500Y0195500D01*
X0162500Y0199500D01*
X0162500Y0229500D01*
X0166500Y0233500D01*
X0166854Y0233783D01*
X0163644Y0237149D02*
X0150380Y0237149D01*
X0151222Y0236150D02*
X0162802Y0236150D01*
X0162388Y0235152D02*
X0151635Y0235152D01*
X0151819Y0234153D02*
X0162205Y0234153D01*
X0162205Y0233155D02*
X0151819Y0233155D01*
X0151528Y0232156D02*
X0162328Y0232156D01*
X0161329Y0231158D02*
X0151114Y0231158D01*
X0150120Y0230159D02*
X0160500Y0230159D01*
X0160500Y0229161D02*
X0148159Y0229161D01*
X0146180Y0229161D02*
X0140285Y0229161D01*
X0138306Y0229161D02*
X0131956Y0229161D01*
X0132666Y0228162D02*
X0160500Y0228162D01*
X0160500Y0227164D02*
X0133665Y0227164D01*
X0134663Y0226165D02*
X0160500Y0226165D01*
X0160500Y0225167D02*
X0148349Y0225167D01*
X0144651Y0225167D02*
X0135662Y0225167D01*
X0136660Y0224168D02*
X0143653Y0224168D01*
X0144218Y0230159D02*
X0142246Y0230159D01*
X0136344Y0230159D02*
X0134343Y0230159D01*
X0135261Y0231158D02*
X0135350Y0231158D01*
X0130005Y0225167D02*
X0128349Y0225167D01*
X0129007Y0226165D02*
X0003968Y0226165D01*
X0003968Y0225167D02*
X0124651Y0225167D01*
X0123653Y0224168D02*
X0003968Y0224168D01*
X0003968Y0223170D02*
X0122654Y0223170D01*
X0122600Y0222171D02*
X0003968Y0222171D01*
X0003968Y0227164D02*
X0128008Y0227164D01*
X0127009Y0228162D02*
X0003968Y0228162D01*
X0003968Y0229161D02*
X0094999Y0229161D01*
X0096978Y0229161D02*
X0103328Y0229161D01*
X0103673Y0229161D02*
X0104051Y0229161D01*
X0104397Y0229161D02*
X0122558Y0229161D01*
X0124537Y0229161D02*
X0126011Y0229161D01*
X0120596Y0230159D02*
X0106784Y0230159D01*
X0107702Y0231158D02*
X0119602Y0231158D01*
X0119189Y0232156D02*
X0108222Y0232156D01*
X0108470Y0233155D02*
X0118898Y0233155D01*
X0118898Y0234153D02*
X0108511Y0234153D01*
X0108307Y0235152D02*
X0119081Y0235152D01*
X0119495Y0236150D02*
X0107875Y0236150D01*
X0107073Y0237149D02*
X0120337Y0237149D01*
X0104051Y0232156D02*
X0103673Y0232156D01*
X0103673Y0231158D02*
X0104051Y0231158D01*
X0104051Y0230159D02*
X0103673Y0230159D01*
X0100940Y0230159D02*
X0098939Y0230159D01*
X0099933Y0231158D02*
X0100023Y0231158D01*
X0093037Y0230159D02*
X0003968Y0230159D01*
X0003968Y0231158D02*
X0092043Y0231158D01*
X0091630Y0232156D02*
X0003968Y0232156D01*
X0003968Y0233155D02*
X0091339Y0233155D01*
X0091339Y0234153D02*
X0003968Y0234153D01*
X0003968Y0235152D02*
X0091522Y0235152D01*
X0091936Y0236150D02*
X0003968Y0236150D01*
X0003968Y0237149D02*
X0092778Y0237149D01*
X0094373Y0238147D02*
X0003968Y0238147D01*
X0003968Y0239146D02*
X0205317Y0239146D01*
X0206316Y0240144D02*
X0003968Y0240144D01*
X0003968Y0241143D02*
X0207314Y0241143D01*
X0208313Y0242141D02*
X0003968Y0242141D01*
X0003968Y0243140D02*
X0209311Y0243140D01*
X0210310Y0244138D02*
X0003968Y0244138D01*
X0003968Y0245137D02*
X0211308Y0245137D01*
X0212307Y0246135D02*
X0003968Y0246135D01*
X0003968Y0247134D02*
X0213305Y0247134D01*
X0214304Y0248132D02*
X0003968Y0248132D01*
X0003968Y0249131D02*
X0215302Y0249131D01*
X0216301Y0250129D02*
X0003968Y0250129D01*
X0003968Y0251128D02*
X0217299Y0251128D01*
X0218298Y0252126D02*
X0003968Y0252126D01*
X0003968Y0253125D02*
X0219296Y0253125D01*
X0220295Y0254123D02*
X0003968Y0254123D01*
X0003968Y0255122D02*
X0221293Y0255122D01*
X0222292Y0256120D02*
X0003968Y0256120D01*
X0003968Y0257119D02*
X0282496Y0257119D01*
X0282496Y0258117D02*
X0003968Y0258117D01*
X0003968Y0259116D02*
X0282496Y0259116D01*
X0282496Y0260114D02*
X0003968Y0260114D01*
X0003968Y0261113D02*
X0282496Y0261113D01*
X0282496Y0262111D02*
X0003968Y0262111D01*
X0003968Y0263110D02*
X0282496Y0263110D01*
X0282496Y0264108D02*
X0003968Y0264108D01*
X0003968Y0265107D02*
X0009826Y0265107D01*
X0008345Y0265721D02*
X0005878Y0268187D01*
X0004543Y0271410D01*
X0004543Y0274898D01*
X0005878Y0278120D01*
X0008345Y0280586D01*
X0011567Y0281921D01*
X0015055Y0281921D01*
X0018278Y0280586D01*
X0020744Y0278120D01*
X0022079Y0274898D01*
X0022079Y0271410D01*
X0020744Y0268187D01*
X0018278Y0265721D01*
X0015055Y0264386D01*
X0011567Y0264386D01*
X0008345Y0265721D01*
X0007960Y0266105D02*
X0003968Y0266105D01*
X0003968Y0267104D02*
X0006961Y0267104D01*
X0005963Y0268103D02*
X0003968Y0268103D01*
X0003968Y0269101D02*
X0005500Y0269101D01*
X0005086Y0270100D02*
X0003968Y0270100D01*
X0003968Y0271098D02*
X0004672Y0271098D01*
X0004543Y0272097D02*
X0003968Y0272097D01*
X0003968Y0273095D02*
X0004543Y0273095D01*
X0004543Y0274094D02*
X0003968Y0274094D01*
X0003968Y0275092D02*
X0004624Y0275092D01*
X0005038Y0276091D02*
X0003968Y0276091D01*
X0003968Y0277089D02*
X0005451Y0277089D01*
X0005865Y0278088D02*
X0003968Y0278088D01*
X0003968Y0279086D02*
X0006844Y0279086D01*
X0007843Y0280085D02*
X0003968Y0280085D01*
X0003968Y0281083D02*
X0009544Y0281083D01*
X0003968Y0282082D02*
X0282496Y0282082D01*
X0282496Y0281083D02*
X0276921Y0281083D01*
X0278120Y0280586D02*
X0274898Y0281921D01*
X0271410Y0281921D01*
X0268187Y0280586D01*
X0265721Y0278120D01*
X0264386Y0274898D01*
X0264386Y0271410D01*
X0265721Y0268187D01*
X0268187Y0265721D01*
X0271410Y0264386D01*
X0274898Y0264386D01*
X0278120Y0265721D01*
X0280586Y0268187D01*
X0281921Y0271410D01*
X0281921Y0274898D01*
X0280586Y0278120D01*
X0278120Y0280586D01*
X0278622Y0280085D02*
X0282496Y0280085D01*
X0282496Y0279086D02*
X0279620Y0279086D01*
X0280600Y0278088D02*
X0282496Y0278088D01*
X0282496Y0277089D02*
X0281013Y0277089D01*
X0281427Y0276091D02*
X0282496Y0276091D01*
X0282496Y0275092D02*
X0281841Y0275092D01*
X0281921Y0274094D02*
X0282496Y0274094D01*
X0282496Y0273095D02*
X0281921Y0273095D01*
X0281921Y0272097D02*
X0282496Y0272097D01*
X0282496Y0271098D02*
X0281792Y0271098D01*
X0281379Y0270100D02*
X0282496Y0270100D01*
X0282496Y0269101D02*
X0280965Y0269101D01*
X0280502Y0268103D02*
X0282496Y0268103D01*
X0282496Y0267104D02*
X0279503Y0267104D01*
X0278505Y0266105D02*
X0282496Y0266105D01*
X0282496Y0265107D02*
X0276639Y0265107D01*
X0269668Y0265107D02*
X0016796Y0265107D01*
X0018662Y0266105D02*
X0267802Y0266105D01*
X0266804Y0267104D02*
X0019661Y0267104D01*
X0020659Y0268103D02*
X0265805Y0268103D01*
X0265342Y0269101D02*
X0021123Y0269101D01*
X0021536Y0270100D02*
X0264928Y0270100D01*
X0264515Y0271098D02*
X0021950Y0271098D01*
X0022079Y0272097D02*
X0264386Y0272097D01*
X0264386Y0273095D02*
X0022079Y0273095D01*
X0022079Y0274094D02*
X0264386Y0274094D01*
X0264466Y0275092D02*
X0021998Y0275092D01*
X0021585Y0276091D02*
X0264880Y0276091D01*
X0265294Y0277089D02*
X0021171Y0277089D01*
X0020757Y0278088D02*
X0265707Y0278088D01*
X0266687Y0279086D02*
X0019778Y0279086D01*
X0018779Y0280085D02*
X0267685Y0280085D01*
X0269386Y0281083D02*
X0017078Y0281083D01*
X0096500Y0216500D02*
X0096500Y0212500D01*
X0126500Y0182500D01*
X0126500Y0173500D01*
X0126539Y0173232D01*
X0131454Y0171247D02*
X0131612Y0171247D01*
X0132156Y0170248D02*
X0131040Y0170248D01*
X0130052Y0169250D02*
X0133026Y0169250D01*
X0134718Y0168251D02*
X0128364Y0168251D01*
X0124500Y0179235D02*
X0051212Y0179235D01*
X0050214Y0180234D02*
X0124500Y0180234D01*
X0124500Y0181232D02*
X0049215Y0181232D01*
X0048216Y0182231D02*
X0123941Y0182231D01*
X0151599Y0183229D02*
X0207639Y0183229D01*
X0207600Y0184228D02*
X0200056Y0184228D01*
X0201054Y0185226D02*
X0207600Y0185226D01*
X0208053Y0182231D02*
X0152598Y0182231D01*
X0164500Y0205196D02*
X0164681Y0205196D01*
X0164500Y0206195D02*
X0182366Y0206195D01*
X0183365Y0207193D02*
X0164500Y0207193D01*
X0170400Y0212186D02*
X0182600Y0212186D01*
X0182669Y0213184D02*
X0170331Y0213184D01*
X0185554Y0230159D02*
X0187525Y0230159D01*
X0189347Y0224168D02*
X0192340Y0224168D01*
X0191341Y0223170D02*
X0190346Y0223170D01*
X0200014Y0212186D02*
X0208072Y0212186D01*
X0207658Y0213184D02*
X0201013Y0213184D01*
X0201500Y0214500D02*
X0201500Y0206500D01*
X0201200Y0207193D02*
X0201800Y0207193D01*
X0201800Y0208192D02*
X0201200Y0208192D01*
X0201200Y0209190D02*
X0201800Y0209190D01*
X0201800Y0210189D02*
X0201200Y0210189D01*
X0199673Y0210189D02*
X0198017Y0210189D01*
X0198675Y0209190D02*
X0197019Y0209190D01*
X0197676Y0208192D02*
X0196020Y0208192D01*
X0195022Y0207193D02*
X0197600Y0207193D01*
X0197600Y0206195D02*
X0194023Y0206195D01*
X0193025Y0205196D02*
X0197600Y0205196D01*
X0198287Y0204198D02*
X0192026Y0204198D01*
X0191028Y0203199D02*
X0199285Y0203199D01*
X0200372Y0202201D02*
X0190400Y0202201D01*
X0190400Y0201202D02*
X0199500Y0201202D01*
X0199500Y0200204D02*
X0190400Y0200204D01*
X0189721Y0199205D02*
X0198690Y0199205D01*
X0197691Y0198207D02*
X0188722Y0198207D01*
X0188304Y0195211D02*
X0197600Y0195211D01*
X0198272Y0194213D02*
X0189303Y0194213D01*
X0190301Y0193214D02*
X0199270Y0193214D01*
X0201389Y0191217D02*
X0190400Y0191217D01*
X0190400Y0190219D02*
X0200390Y0190219D01*
X0199392Y0189220D02*
X0189736Y0189220D01*
X0188737Y0188222D02*
X0198393Y0188222D01*
X0202387Y0192216D02*
X0190400Y0192216D01*
X0205324Y0208192D02*
X0206363Y0208192D01*
X0207362Y0209190D02*
X0204325Y0209190D01*
X0203327Y0210189D02*
X0208360Y0210189D01*
X0208897Y0211187D02*
X0199016Y0211187D01*
X0204007Y0217178D02*
X0207600Y0217178D01*
X0207600Y0218177D02*
X0205005Y0218177D01*
X0206004Y0219175D02*
X0207600Y0219175D01*
X0207806Y0220174D02*
X0207002Y0220174D01*
X0208001Y0221172D02*
X0208257Y0221172D01*
X0208999Y0222171D02*
X0209256Y0222171D01*
X0209998Y0223170D02*
X0215120Y0223170D01*
X0221875Y0231158D02*
X0239329Y0231158D01*
X0240328Y0232156D02*
X0222396Y0232156D01*
X0222643Y0233155D02*
X0241326Y0233155D01*
X0242325Y0234153D02*
X0222684Y0234153D01*
X0222685Y0234149D02*
X0222571Y0234872D01*
X0222344Y0235568D01*
X0222012Y0236220D01*
X0221582Y0236812D01*
X0221064Y0237330D01*
X0220472Y0237760D01*
X0219820Y0238092D01*
X0219124Y0238319D01*
X0218401Y0238433D01*
X0218224Y0238433D01*
X0218224Y0233973D01*
X0218224Y0233972D02*
X0222685Y0233972D01*
X0222685Y0234149D01*
X0222480Y0235152D02*
X0243323Y0235152D01*
X0244322Y0236150D02*
X0222048Y0236150D01*
X0221246Y0237149D02*
X0245320Y0237149D01*
X0246319Y0238147D02*
X0219652Y0238147D01*
X0218224Y0238147D02*
X0217846Y0238147D01*
X0217846Y0237149D02*
X0218224Y0237149D01*
X0218224Y0236150D02*
X0217846Y0236150D01*
X0217846Y0235152D02*
X0218224Y0235152D01*
X0218224Y0234153D02*
X0217846Y0234153D01*
X0216419Y0238147D02*
X0211776Y0238147D01*
X0210974Y0239146D02*
X0247317Y0239146D01*
X0248316Y0240144D02*
X0211973Y0240144D01*
X0212971Y0241143D02*
X0249314Y0241143D01*
X0250313Y0242141D02*
X0213970Y0242141D01*
X0214968Y0243140D02*
X0251311Y0243140D01*
X0252310Y0244138D02*
X0215967Y0244138D01*
X0214825Y0237149D02*
X0213372Y0237149D01*
X0242989Y0229161D02*
X0253332Y0229161D01*
X0254331Y0230159D02*
X0243987Y0230159D01*
X0243624Y0222171D02*
X0249256Y0222171D01*
X0248257Y0221172D02*
X0244672Y0221172D01*
X0245194Y0220174D02*
X0247806Y0220174D01*
X0247600Y0219175D02*
X0245400Y0219175D01*
X0245400Y0218177D02*
X0247600Y0218177D01*
X0247600Y0217178D02*
X0245400Y0217178D01*
X0245400Y0216180D02*
X0247600Y0216180D01*
X0247600Y0215181D02*
X0245400Y0215181D01*
X0245400Y0214183D02*
X0247600Y0214183D01*
X0247658Y0213184D02*
X0245294Y0213184D01*
X0244912Y0212186D02*
X0248072Y0212186D01*
X0248897Y0211187D02*
X0244103Y0211187D01*
X0231800Y0192216D02*
X0231200Y0192216D01*
X0231200Y0191217D02*
X0231800Y0191217D01*
X0231800Y0190219D02*
X0231200Y0190219D01*
X0231200Y0189220D02*
X0231800Y0189220D01*
X0231800Y0188222D02*
X0231200Y0188222D01*
X0231200Y0187223D02*
X0231800Y0187223D01*
X0231200Y0186225D02*
X0225400Y0186225D01*
X0225400Y0187223D02*
X0227600Y0187223D01*
X0227600Y0188222D02*
X0225400Y0188222D01*
X0225400Y0189220D02*
X0227600Y0189220D01*
X0227825Y0190219D02*
X0225175Y0190219D01*
X0224698Y0191217D02*
X0228358Y0191217D01*
X0229442Y0192216D02*
X0223686Y0192216D01*
X0225400Y0185226D02*
X0227600Y0185226D01*
X0227600Y0184228D02*
X0225400Y0184228D01*
X0225361Y0183229D02*
X0227697Y0183229D01*
X0228059Y0182231D02*
X0224947Y0182231D01*
X0215389Y0191217D02*
X0214698Y0191217D01*
X0213686Y0192216D02*
X0216387Y0192216D01*
X0235400Y0185226D02*
X0237600Y0185226D01*
X0237600Y0184228D02*
X0235400Y0184228D01*
X0235303Y0183229D02*
X0237639Y0183229D01*
X0238053Y0182231D02*
X0234941Y0182231D01*
X0264103Y0211187D02*
X0268897Y0211187D01*
X0268072Y0212186D02*
X0264912Y0212186D01*
X0265294Y0213184D02*
X0267658Y0213184D01*
X0267600Y0214183D02*
X0265400Y0214183D01*
X0265400Y0215181D02*
X0267600Y0215181D01*
X0267600Y0216180D02*
X0265400Y0216180D01*
X0265400Y0217178D02*
X0267600Y0217178D01*
X0264294Y0230159D02*
X0273500Y0230159D01*
X0273500Y0231158D02*
X0265288Y0231158D01*
X0265701Y0232156D02*
X0273500Y0232156D01*
X0273500Y0233155D02*
X0265992Y0233155D01*
X0265992Y0234153D02*
X0273500Y0234153D01*
X0273500Y0235152D02*
X0265808Y0235152D01*
X0265395Y0236150D02*
X0273500Y0236150D01*
X0180987Y0238147D02*
X0176343Y0238147D01*
X0177939Y0237149D02*
X0179392Y0237149D01*
X0173113Y0238147D02*
X0168469Y0238147D01*
X0170065Y0237149D02*
X0171518Y0237149D01*
X0165239Y0238147D02*
X0148784Y0238147D01*
X0145554Y0238147D02*
X0140910Y0238147D01*
X0142506Y0237149D02*
X0143959Y0237149D01*
X0106800Y0217178D02*
X0106200Y0217178D01*
X0045307Y0182231D02*
X0044307Y0182231D01*
X0044307Y0182409D02*
X0041577Y0182409D01*
X0037008Y0177841D01*
X0037008Y0175110D01*
X0044307Y0175110D01*
X0044307Y0182409D01*
X0044307Y0181232D02*
X0045307Y0181232D01*
X0045307Y0180234D02*
X0044307Y0180234D01*
X0044307Y0179235D02*
X0045307Y0179235D01*
X0045307Y0178237D02*
X0044307Y0178237D01*
X0044307Y0177238D02*
X0045307Y0177238D01*
X0045307Y0176239D02*
X0044307Y0176239D01*
X0044307Y0175241D02*
X0045307Y0175241D01*
X0039401Y0180234D02*
X0026591Y0180234D01*
X0025593Y0181232D02*
X0040399Y0181232D01*
X0041398Y0182231D02*
X0024594Y0182231D01*
X0021685Y0182231D02*
X0020685Y0182231D01*
X0020685Y0181232D02*
X0021685Y0181232D01*
X0021685Y0180234D02*
X0020685Y0180234D01*
X0020685Y0179235D02*
X0021685Y0179235D01*
X0021685Y0178237D02*
X0020685Y0178237D01*
X0020685Y0177238D02*
X0021685Y0177238D01*
X0021685Y0176239D02*
X0020685Y0176239D01*
X0020685Y0175241D02*
X0021685Y0175241D01*
X0021685Y0172245D02*
X0020685Y0172245D01*
X0020685Y0171247D02*
X0021685Y0171247D01*
X0021685Y0170248D02*
X0020685Y0170248D01*
X0020685Y0169250D02*
X0021685Y0169250D01*
X0021685Y0168251D02*
X0020685Y0168251D01*
X0020685Y0167253D02*
X0021685Y0167253D01*
X0022426Y0166254D02*
X0003968Y0166254D01*
X0003968Y0165256D02*
X0021427Y0165256D01*
X0020429Y0164257D02*
X0003968Y0164257D01*
X0003968Y0163259D02*
X0019430Y0163259D01*
X0018432Y0162260D02*
X0003968Y0162260D01*
X0003968Y0161262D02*
X0017433Y0161262D01*
X0016435Y0160263D02*
X0003968Y0160263D01*
X0003968Y0159265D02*
X0015436Y0159265D01*
X0014438Y0158266D02*
X0003968Y0158266D01*
X0003968Y0157268D02*
X0013439Y0157268D01*
X0012441Y0156269D02*
X0003968Y0156269D01*
X0003968Y0155271D02*
X0011442Y0155271D01*
X0010444Y0154272D02*
X0003968Y0154272D01*
X0003968Y0153274D02*
X0009445Y0153274D01*
X0008447Y0152275D02*
X0003968Y0152275D01*
X0003968Y0151277D02*
X0007448Y0151277D01*
X0006450Y0150278D02*
X0003968Y0150278D01*
X0003968Y0149280D02*
X0005451Y0149280D01*
X0004453Y0148281D02*
X0003968Y0148281D01*
X0007500Y0145500D02*
X0007500Y0096500D01*
X0073500Y0030500D01*
X0144500Y0030500D01*
X0147500Y0027500D01*
X0156500Y0027500D01*
X0158500Y0029500D01*
X0160500Y0027500D01*
X0158500Y0029500D02*
X0158500Y0031500D01*
X0150500Y0039500D01*
X0148500Y0039500D01*
X0148232Y0039807D01*
X0147500Y0030500D02*
X0138500Y0039500D01*
X0138232Y0039807D01*
X0137500Y0039500D01*
X0131500Y0033500D01*
X0073500Y0033500D01*
X0009500Y0097500D01*
X0009500Y0137500D01*
X0019500Y0147500D01*
X0032500Y0147500D01*
X0032996Y0148232D01*
X0034500Y0142500D02*
X0026500Y0142500D01*
X0021500Y0137500D01*
X0032996Y0138232D02*
X0033500Y0138500D01*
X0043500Y0148500D01*
X0046500Y0148500D01*
X0049500Y0151500D01*
X0049500Y0154500D01*
X0041500Y0162500D01*
X0024500Y0162500D01*
X0007500Y0145500D01*
X0003968Y0167253D02*
X0017513Y0167253D01*
X0016514Y0168251D02*
X0003968Y0168251D01*
X0003968Y0169250D02*
X0015516Y0169250D01*
X0014517Y0170248D02*
X0003968Y0170248D01*
X0003968Y0171247D02*
X0013519Y0171247D01*
X0013386Y0172245D02*
X0003968Y0172245D01*
X0003968Y0173244D02*
X0013386Y0173244D01*
X0024857Y0167253D02*
X0041135Y0167253D01*
X0040136Y0168251D02*
X0025856Y0168251D01*
X0026854Y0169250D02*
X0039138Y0169250D01*
X0038139Y0170248D02*
X0027853Y0170248D01*
X0028851Y0171247D02*
X0037141Y0171247D01*
X0037008Y0172245D02*
X0028984Y0172245D01*
X0028984Y0173244D02*
X0037008Y0173244D01*
X0037008Y0175241D02*
X0028984Y0175241D01*
X0028984Y0176239D02*
X0037008Y0176239D01*
X0037008Y0177238D02*
X0028984Y0177238D01*
X0028588Y0178237D02*
X0037404Y0178237D01*
X0038402Y0179235D02*
X0027590Y0179235D01*
X0044807Y0153232D02*
X0044500Y0152500D01*
X0034500Y0142500D01*
X0059133Y0145286D02*
X0060886Y0145286D01*
X0102500Y0121321D02*
X0142493Y0121321D01*
X0141494Y0120323D02*
X0102500Y0120323D01*
X0102500Y0119324D02*
X0140496Y0119324D01*
X0139497Y0118326D02*
X0138092Y0118326D01*
X0134987Y0118326D02*
X0128092Y0118326D01*
X0129940Y0117327D02*
X0133139Y0117327D01*
X0132141Y0116329D02*
X0130938Y0116329D01*
X0131407Y0115330D02*
X0131672Y0115330D01*
X0131588Y0111336D02*
X0131491Y0111336D01*
X0131077Y0110338D02*
X0132002Y0110338D01*
X0132937Y0109339D02*
X0130142Y0109339D01*
X0128580Y0108341D02*
X0132512Y0108341D01*
X0136539Y0113232D02*
X0137500Y0113500D01*
X0143500Y0119500D01*
X0268500Y0119500D01*
X0272500Y0115500D01*
X0272500Y0111500D01*
X0266500Y0105500D01*
X0266500Y0096500D01*
X0270400Y0096359D02*
X0272600Y0096359D01*
X0272600Y0095724D02*
X0273194Y0094291D01*
X0274291Y0093194D01*
X0275724Y0092600D01*
X0277276Y0092600D01*
X0278709Y0093194D01*
X0279806Y0094291D01*
X0280400Y0095724D01*
X0280400Y0102076D01*
X0279806Y0103509D01*
X0278709Y0104606D01*
X0277276Y0105200D01*
X0275724Y0105200D01*
X0274291Y0104606D01*
X0273194Y0103509D01*
X0272600Y0102076D01*
X0272600Y0095724D01*
X0272751Y0095360D02*
X0270249Y0095360D01*
X0269836Y0094362D02*
X0273164Y0094362D01*
X0274122Y0093363D02*
X0268878Y0093363D01*
X0270400Y0097357D02*
X0272600Y0097357D01*
X0272600Y0098356D02*
X0270400Y0098356D01*
X0270400Y0099354D02*
X0272600Y0099354D01*
X0272600Y0100353D02*
X0270400Y0100353D01*
X0270400Y0101351D02*
X0272600Y0101351D01*
X0272713Y0102350D02*
X0270287Y0102350D01*
X0269873Y0103348D02*
X0273127Y0103348D01*
X0274031Y0104347D02*
X0268969Y0104347D01*
X0269174Y0105345D02*
X0282496Y0105345D01*
X0282496Y0104347D02*
X0278969Y0104347D01*
X0279873Y0103348D02*
X0282496Y0103348D01*
X0282496Y0102350D02*
X0280287Y0102350D01*
X0280400Y0101351D02*
X0282496Y0101351D01*
X0282496Y0100353D02*
X0280400Y0100353D01*
X0280400Y0099354D02*
X0282496Y0099354D01*
X0282496Y0098356D02*
X0280400Y0098356D01*
X0280400Y0097357D02*
X0282496Y0097357D01*
X0282496Y0096359D02*
X0280400Y0096359D01*
X0280249Y0095360D02*
X0282496Y0095360D01*
X0282496Y0094362D02*
X0279836Y0094362D01*
X0278878Y0093363D02*
X0282496Y0093363D01*
X0282496Y0092365D02*
X0251193Y0092365D01*
X0252191Y0093363D02*
X0254122Y0093363D01*
X0252500Y0096500D02*
X0240500Y0084500D01*
X0242206Y0083378D02*
X0282496Y0083378D01*
X0282496Y0084376D02*
X0243205Y0084376D01*
X0244203Y0085375D02*
X0282496Y0085375D01*
X0282496Y0086373D02*
X0245202Y0086373D01*
X0246200Y0087372D02*
X0282496Y0087372D01*
X0282496Y0088370D02*
X0247199Y0088370D01*
X0248197Y0089369D02*
X0282496Y0089369D01*
X0282496Y0090368D02*
X0249196Y0090368D01*
X0250194Y0091366D02*
X0282496Y0091366D01*
X0282496Y0082379D02*
X0241208Y0082379D01*
X0240209Y0081381D02*
X0282496Y0081381D01*
X0282496Y0080382D02*
X0239211Y0080382D01*
X0238212Y0079384D02*
X0282496Y0079384D01*
X0282496Y0078385D02*
X0237214Y0078385D01*
X0236215Y0077387D02*
X0282496Y0077387D01*
X0282496Y0076388D02*
X0235400Y0076388D01*
X0235400Y0075390D02*
X0282496Y0075390D01*
X0282496Y0074391D02*
X0234907Y0074391D01*
X0233908Y0073393D02*
X0282496Y0073393D01*
X0282496Y0072394D02*
X0233500Y0072394D01*
X0233500Y0071396D02*
X0282496Y0071396D01*
X0264122Y0093363D02*
X0258878Y0093363D01*
X0259836Y0094362D02*
X0263164Y0094362D01*
X0262751Y0095360D02*
X0260249Y0095360D01*
X0260400Y0096359D02*
X0262600Y0096359D01*
X0262600Y0097357D02*
X0260400Y0097357D01*
X0260400Y0098356D02*
X0262600Y0098356D01*
X0262600Y0099354D02*
X0260400Y0099354D01*
X0260400Y0100353D02*
X0262600Y0100353D01*
X0262600Y0101351D02*
X0260400Y0101351D01*
X0260287Y0102350D02*
X0262713Y0102350D01*
X0263127Y0103348D02*
X0259873Y0103348D01*
X0258969Y0104347D02*
X0264031Y0104347D01*
X0270172Y0106344D02*
X0282496Y0106344D01*
X0282496Y0107342D02*
X0271171Y0107342D01*
X0272169Y0108341D02*
X0282496Y0108341D01*
X0282496Y0109339D02*
X0273168Y0109339D01*
X0274166Y0110338D02*
X0282496Y0110338D01*
X0282496Y0111336D02*
X0274500Y0111336D01*
X0274500Y0112335D02*
X0282496Y0112335D01*
X0282496Y0113333D02*
X0274500Y0113333D01*
X0274500Y0114332D02*
X0282496Y0114332D01*
X0282496Y0115330D02*
X0274500Y0115330D01*
X0274500Y0116329D02*
X0282496Y0116329D01*
X0282496Y0117327D02*
X0273501Y0117327D01*
X0272503Y0118326D02*
X0282496Y0118326D01*
X0282496Y0119324D02*
X0271504Y0119324D01*
X0272151Y0120323D02*
X0282496Y0120323D01*
X0282496Y0121321D02*
X0273150Y0121321D01*
X0274148Y0122320D02*
X0282496Y0122320D01*
X0282496Y0123318D02*
X0274500Y0123318D01*
X0274500Y0124317D02*
X0282496Y0124317D01*
X0282496Y0125315D02*
X0274500Y0125315D01*
X0274500Y0126314D02*
X0282496Y0126314D01*
X0282496Y0127312D02*
X0274500Y0127312D01*
X0274500Y0128311D02*
X0282496Y0128311D01*
X0282496Y0129309D02*
X0274500Y0129309D01*
X0274500Y0130308D02*
X0282496Y0130308D01*
X0282496Y0131306D02*
X0274500Y0131306D01*
X0274500Y0132305D02*
X0282496Y0132305D01*
X0282496Y0133303D02*
X0274500Y0133303D01*
X0274500Y0134302D02*
X0282496Y0134302D01*
X0282496Y0135301D02*
X0274500Y0135301D01*
X0274500Y0136299D02*
X0282496Y0136299D01*
X0282496Y0137298D02*
X0274500Y0137298D01*
X0274500Y0138296D02*
X0282496Y0138296D01*
X0282496Y0139295D02*
X0277086Y0139295D01*
X0277902Y0140293D02*
X0282496Y0140293D01*
X0282496Y0141292D02*
X0278181Y0141292D01*
X0278075Y0142290D02*
X0282496Y0142290D01*
X0254031Y0104347D02*
X0248969Y0104347D01*
X0249873Y0103348D02*
X0253127Y0103348D01*
X0252713Y0102350D02*
X0250287Y0102350D01*
X0250400Y0101351D02*
X0252600Y0101351D01*
X0252600Y0100353D02*
X0250400Y0100353D01*
X0250400Y0099354D02*
X0252600Y0099354D01*
X0251527Y0098356D02*
X0250400Y0098356D01*
X0250400Y0097357D02*
X0250529Y0097357D01*
X0252500Y0096500D02*
X0256500Y0096500D01*
X0245536Y0092365D02*
X0235464Y0092365D01*
X0236462Y0091366D02*
X0244538Y0091366D01*
X0243539Y0090368D02*
X0237461Y0090368D01*
X0238459Y0089369D02*
X0242541Y0089369D01*
X0241542Y0088370D02*
X0239458Y0088370D01*
X0240456Y0087372D02*
X0240544Y0087372D01*
X0237548Y0084376D02*
X0234892Y0084376D01*
X0235400Y0084885D02*
X0233115Y0082600D01*
X0231800Y0082600D01*
X0231800Y0086200D01*
X0235400Y0086200D01*
X0235400Y0084885D01*
X0235400Y0085375D02*
X0236797Y0085375D01*
X0235798Y0086373D02*
X0231800Y0086373D01*
X0231500Y0086500D02*
X0230500Y0085500D01*
X0150500Y0085500D01*
X0141500Y0094500D01*
X0141200Y0094362D02*
X0141800Y0094362D01*
X0141800Y0095360D02*
X0141200Y0095360D01*
X0141200Y0093363D02*
X0141800Y0093363D01*
X0141800Y0092365D02*
X0141200Y0092365D01*
X0141200Y0091366D02*
X0141800Y0091366D01*
X0138719Y0091366D02*
X0134281Y0091366D01*
X0135002Y0092365D02*
X0137998Y0092365D01*
X0137670Y0093363D02*
X0135400Y0093363D01*
X0135400Y0094362D02*
X0137600Y0094362D01*
X0137600Y0095360D02*
X0135400Y0095360D01*
X0145400Y0098356D02*
X0147600Y0098356D01*
X0147600Y0099354D02*
X0145386Y0099354D01*
X0145120Y0100353D02*
X0147880Y0100353D01*
X0148436Y0101351D02*
X0144553Y0101351D01*
X0143357Y0102350D02*
X0149637Y0102350D01*
X0153165Y0086373D02*
X0231200Y0086373D01*
X0231200Y0085375D02*
X0231800Y0085375D01*
X0231800Y0084376D02*
X0231200Y0084376D01*
X0231200Y0083378D02*
X0231800Y0083378D01*
X0233893Y0083378D02*
X0236550Y0083378D01*
X0233554Y0080382D02*
X0233133Y0080382D01*
X0229500Y0072394D02*
X0213255Y0072394D01*
X0214520Y0071396D02*
X0229500Y0071396D01*
X0229500Y0070397D02*
X0215101Y0070397D01*
X0215400Y0069399D02*
X0229500Y0069399D01*
X0229500Y0068400D02*
X0215400Y0068400D01*
X0215400Y0067402D02*
X0229500Y0067402D01*
X0229500Y0066403D02*
X0215400Y0066403D01*
X0215400Y0065405D02*
X0229500Y0065405D01*
X0229500Y0064406D02*
X0215400Y0064406D01*
X0215400Y0063408D02*
X0229500Y0063408D01*
X0229500Y0062409D02*
X0215021Y0062409D01*
X0214326Y0061411D02*
X0229500Y0061411D01*
X0229500Y0060412D02*
X0212788Y0060412D01*
X0210212Y0060412D02*
X0208241Y0060412D01*
X0207242Y0059414D02*
X0229500Y0059414D01*
X0229500Y0058415D02*
X0206244Y0058415D01*
X0205245Y0057417D02*
X0229500Y0057417D01*
X0229500Y0056418D02*
X0204247Y0056418D01*
X0203248Y0055420D02*
X0229500Y0055420D01*
X0229500Y0054421D02*
X0224094Y0054421D01*
X0225093Y0053423D02*
X0228594Y0053423D01*
X0227596Y0052424D02*
X0225400Y0052424D01*
X0225400Y0051426D02*
X0226597Y0051426D01*
X0225599Y0050427D02*
X0225400Y0050427D01*
X0222603Y0047432D02*
X0195260Y0047432D01*
X0196258Y0048430D02*
X0219055Y0048430D01*
X0218056Y0049429D02*
X0197257Y0049429D01*
X0198255Y0050427D02*
X0217600Y0050427D01*
X0217600Y0051426D02*
X0199254Y0051426D01*
X0200252Y0052424D02*
X0217600Y0052424D01*
X0217907Y0053423D02*
X0201251Y0053423D01*
X0202250Y0054421D02*
X0218906Y0054421D01*
X0221605Y0046433D02*
X0213179Y0046433D01*
X0214919Y0045434D02*
X0220606Y0045434D01*
X0219608Y0044436D02*
X0215912Y0044436D01*
X0216326Y0043437D02*
X0218609Y0043437D01*
X0217611Y0042439D02*
X0216700Y0042439D01*
X0209821Y0046433D02*
X0194261Y0046433D01*
X0193263Y0045434D02*
X0208081Y0045434D01*
X0211500Y0033500D02*
X0211500Y0021500D01*
X0229258Y0048430D02*
X0239055Y0048430D01*
X0238056Y0049429D02*
X0230257Y0049429D01*
X0231255Y0050427D02*
X0237600Y0050427D01*
X0237600Y0051426D02*
X0232254Y0051426D01*
X0233252Y0052424D02*
X0237600Y0052424D01*
X0237907Y0053423D02*
X0233500Y0053423D01*
X0233500Y0054421D02*
X0238906Y0054421D01*
X0243179Y0046433D02*
X0243605Y0046433D01*
X0264975Y0016478D02*
X0021489Y0016478D01*
X0021903Y0015479D02*
X0264562Y0015479D01*
X0264386Y0014481D02*
X0022079Y0014481D01*
X0022079Y0013482D02*
X0264386Y0013482D01*
X0264386Y0012484D02*
X0022079Y0012484D01*
X0022045Y0011485D02*
X0264420Y0011485D01*
X0264833Y0010487D02*
X0021631Y0010487D01*
X0021218Y0009488D02*
X0265247Y0009488D01*
X0265661Y0008490D02*
X0020804Y0008490D01*
X0019890Y0007491D02*
X0266574Y0007491D01*
X0267573Y0006493D02*
X0018892Y0006493D01*
X0017350Y0005494D02*
X0269114Y0005494D01*
X0178232Y0039807D02*
X0177500Y0039500D01*
X0177500Y0037500D01*
X0168232Y0039807D02*
X0167500Y0039500D01*
X0167500Y0030500D01*
X0161500Y0024500D01*
X0114500Y0024500D01*
X0111500Y0027500D01*
X0106500Y0035500D02*
X0105500Y0036500D01*
X0091500Y0036500D01*
X0076701Y0021470D02*
X0016524Y0021470D01*
X0010098Y0021470D02*
X0003968Y0021470D01*
X0003968Y0020472D02*
X0008072Y0020472D01*
X0007074Y0019473D02*
X0003968Y0019473D01*
X0003968Y0018475D02*
X0006075Y0018475D01*
X0005546Y0017476D02*
X0003968Y0017476D01*
X0003968Y0016478D02*
X0005133Y0016478D01*
X0004719Y0015479D02*
X0003968Y0015479D01*
X0003968Y0014481D02*
X0004543Y0014481D01*
X0004543Y0013482D02*
X0003968Y0013482D01*
X0003968Y0012484D02*
X0004543Y0012484D01*
X0004577Y0011485D02*
X0003968Y0011485D01*
X0003968Y0010487D02*
X0004991Y0010487D01*
X0005404Y0009488D02*
X0003968Y0009488D01*
X0003968Y0008490D02*
X0005818Y0008490D01*
X0006732Y0007491D02*
X0003968Y0007491D01*
X0003968Y0006493D02*
X0007730Y0006493D01*
X0009272Y0005494D02*
X0003968Y0005494D01*
X0003968Y0022469D02*
X0075703Y0022469D01*
X0074704Y0023467D02*
X0003968Y0023467D01*
X0003968Y0024466D02*
X0073706Y0024466D01*
X0072707Y0025464D02*
X0003968Y0025464D01*
X0003968Y0026463D02*
X0071709Y0026463D01*
X0070710Y0027461D02*
X0003968Y0027461D01*
X0003968Y0028460D02*
X0069712Y0028460D01*
X0068713Y0029458D02*
X0003968Y0029458D01*
X0003968Y0030457D02*
X0067715Y0030457D01*
X0066716Y0031455D02*
X0003968Y0031455D01*
X0003968Y0032454D02*
X0065718Y0032454D01*
X0064719Y0033452D02*
X0003968Y0033452D01*
X0003968Y0034451D02*
X0063721Y0034451D01*
X0062722Y0035449D02*
X0003968Y0035449D01*
X0003968Y0036448D02*
X0061724Y0036448D01*
X0060725Y0037446D02*
X0003968Y0037446D01*
X0003968Y0038445D02*
X0059727Y0038445D01*
X0058728Y0039443D02*
X0003968Y0039443D01*
X0003968Y0040442D02*
X0057730Y0040442D01*
X0056731Y0041440D02*
X0003968Y0041440D01*
X0003968Y0042439D02*
X0055733Y0042439D01*
X0054734Y0043437D02*
X0003968Y0043437D01*
X0003968Y0044436D02*
X0053736Y0044436D01*
X0052737Y0045434D02*
X0003968Y0045434D01*
X0003968Y0046433D02*
X0051739Y0046433D01*
X0050740Y0047432D02*
X0003968Y0047432D01*
X0003968Y0048430D02*
X0049742Y0048430D01*
X0048743Y0049429D02*
X0003968Y0049429D01*
X0003968Y0050427D02*
X0047745Y0050427D01*
X0046746Y0051426D02*
X0003968Y0051426D01*
X0003968Y0052424D02*
X0045747Y0052424D01*
X0044749Y0053423D02*
X0003968Y0053423D01*
X0003968Y0054421D02*
X0043750Y0054421D01*
X0042752Y0055420D02*
X0003968Y0055420D01*
X0003968Y0056418D02*
X0041753Y0056418D01*
X0040755Y0057417D02*
X0003968Y0057417D01*
X0003968Y0058415D02*
X0039756Y0058415D01*
X0038758Y0059414D02*
X0003968Y0059414D01*
X0003968Y0060412D02*
X0037759Y0060412D01*
X0036761Y0061411D02*
X0003968Y0061411D01*
X0003968Y0062409D02*
X0035762Y0062409D01*
X0034764Y0063408D02*
X0003968Y0063408D01*
X0003968Y0064406D02*
X0033765Y0064406D01*
X0032767Y0065405D02*
X0003968Y0065405D01*
X0003968Y0066403D02*
X0031768Y0066403D01*
X0030770Y0067402D02*
X0003968Y0067402D01*
X0003968Y0068400D02*
X0029771Y0068400D01*
X0028773Y0069399D02*
X0003968Y0069399D01*
X0003968Y0070397D02*
X0027774Y0070397D01*
X0026776Y0071396D02*
X0003968Y0071396D01*
X0003968Y0072394D02*
X0025777Y0072394D01*
X0024779Y0073393D02*
X0003968Y0073393D01*
X0003968Y0074391D02*
X0023780Y0074391D01*
X0022782Y0075390D02*
X0003968Y0075390D01*
X0003968Y0076388D02*
X0021783Y0076388D01*
X0020785Y0077387D02*
X0003968Y0077387D01*
X0003968Y0078385D02*
X0019786Y0078385D01*
X0018788Y0079384D02*
X0003968Y0079384D01*
X0003968Y0080382D02*
X0017789Y0080382D01*
X0016791Y0081381D02*
X0003968Y0081381D01*
X0003968Y0082379D02*
X0015792Y0082379D01*
X0014794Y0083378D02*
X0003968Y0083378D01*
X0003968Y0084376D02*
X0013795Y0084376D01*
X0012797Y0085375D02*
X0003968Y0085375D01*
X0003968Y0086373D02*
X0011798Y0086373D01*
X0010800Y0087372D02*
X0003968Y0087372D01*
X0003968Y0088370D02*
X0009801Y0088370D01*
X0008803Y0089369D02*
X0003968Y0089369D01*
X0003968Y0090368D02*
X0007804Y0090368D01*
X0006806Y0091366D02*
X0003968Y0091366D01*
X0003968Y0092365D02*
X0005807Y0092365D01*
X0004809Y0093363D02*
X0003968Y0093363D01*
X0102500Y0117327D02*
X0103139Y0117327D01*
X0102500Y0118326D02*
X0104987Y0118326D01*
X0108092Y0118326D02*
X0114987Y0118326D01*
X0113139Y0117327D02*
X0109940Y0117327D01*
X0110938Y0116329D02*
X0112141Y0116329D01*
X0111672Y0115330D02*
X0111407Y0115330D01*
X0111491Y0111336D02*
X0111588Y0111336D01*
X0112002Y0110338D02*
X0111077Y0110338D01*
X0110142Y0109339D02*
X0112937Y0109339D01*
X0114499Y0108341D02*
X0108580Y0108341D01*
X0118580Y0108341D02*
X0124499Y0108341D01*
X0122937Y0109339D02*
X0120142Y0109339D01*
X0121077Y0110338D02*
X0122002Y0110338D01*
X0121588Y0111336D02*
X0121491Y0111336D01*
X0121407Y0115330D02*
X0121672Y0115330D01*
X0122141Y0116329D02*
X0120938Y0116329D01*
X0119940Y0117327D02*
X0123139Y0117327D01*
X0124987Y0118326D02*
X0118092Y0118326D01*
X0123363Y0102350D02*
X0126521Y0102350D01*
X0125523Y0101351D02*
X0124564Y0101351D01*
X0123500Y0096500D02*
X0121500Y0096500D01*
X0128232Y0039807D02*
X0127500Y0039500D01*
X0123500Y0035500D01*
X0106500Y0035500D01*
X0147500Y0030500D02*
X0155500Y0030500D01*
D20*
X0155500Y0030500D03*
X0160500Y0027500D03*
X0187500Y0048500D03*
X0190500Y0050500D03*
X0174500Y0056500D03*
X0161500Y0076500D03*
X0151500Y0088500D03*
X0132500Y0073500D03*
X0124500Y0073500D03*
X0118500Y0086500D03*
X0100500Y0073500D03*
X0095500Y0080500D03*
X0096500Y0091500D03*
X0084500Y0088500D03*
X0118500Y0055500D03*
X0111500Y0027500D03*
X0091500Y0036500D03*
X0150500Y0054500D03*
X0077500Y0137500D03*
X0012500Y0109500D03*
X0216500Y0225500D03*
X0275500Y0141500D03*
M02*
