G75*
%MOIN*%
%OFA0B0*%
%FSLAX25Y25*%
%IPPOS*%
%LPD*%
%AMOC8*
5,1,8,0,0,1.08239X$1,22.5*
%
%ADD10C,0.04800*%
%ADD11OC8,0.04800*%
%ADD12C,0.07400*%
%ADD13C,0.06299*%
%ADD14R,0.04724X0.04724*%
%ADD15C,0.04724*%
%ADD16OC8,0.12598*%
%ADD17C,0.07600*%
%ADD18R,0.04724X0.07874*%
%ADD19R,0.02362X0.05315*%
%ADD20C,0.06000*%
%ADD21C,0.03937*%
%ADD22C,0.01000*%
%ADD23C,0.02362*%
%ADD24C,0.00500*%
D10*
X0091450Y0036250D02*
X0096250Y0036250D01*
X0096250Y0046250D02*
X0091450Y0046250D01*
X0091450Y0056250D02*
X0096250Y0056250D01*
X0096250Y0066250D02*
X0091450Y0066250D01*
X0093850Y0081250D02*
X0098650Y0081250D01*
X0098650Y0091250D02*
X0093850Y0091250D01*
X0093850Y0101250D02*
X0098650Y0101250D01*
X0098650Y0111250D02*
X0093850Y0111250D01*
X0093850Y0121250D02*
X0098650Y0121250D01*
X0098650Y0131250D02*
X0093850Y0131250D01*
X0093850Y0141250D02*
X0098650Y0141250D01*
X0098650Y0151250D02*
X0093850Y0151250D01*
X0093850Y0161250D02*
X0098650Y0161250D01*
X0098650Y0171250D02*
X0093850Y0171250D01*
X0093850Y0181250D02*
X0098650Y0181250D01*
X0098650Y0191250D02*
X0093850Y0191250D01*
X0093850Y0201250D02*
X0098650Y0201250D01*
X0098650Y0211250D02*
X0093850Y0211250D01*
X0116250Y0223850D02*
X0116250Y0228650D01*
X0126250Y0228650D02*
X0126250Y0223850D01*
X0136250Y0223850D02*
X0136250Y0228650D01*
X0146250Y0228650D02*
X0146250Y0223850D01*
X0156250Y0223850D02*
X0156250Y0228650D01*
X0166250Y0228650D02*
X0166250Y0223850D01*
X0176250Y0223850D02*
X0176250Y0228650D01*
X0176250Y0253850D02*
X0176250Y0258650D01*
X0166250Y0258650D02*
X0166250Y0253850D01*
X0156250Y0253850D02*
X0156250Y0258650D01*
X0146250Y0258650D02*
X0146250Y0253850D01*
X0136250Y0253850D02*
X0136250Y0258650D01*
X0126250Y0258650D02*
X0126250Y0253850D01*
X0116250Y0253850D02*
X0116250Y0258650D01*
X0123850Y0211250D02*
X0128650Y0211250D01*
X0128650Y0201250D02*
X0123850Y0201250D01*
X0123850Y0191250D02*
X0128650Y0191250D01*
X0128650Y0181250D02*
X0123850Y0181250D01*
X0123850Y0171250D02*
X0128650Y0171250D01*
X0128650Y0161250D02*
X0123850Y0161250D01*
X0123850Y0151250D02*
X0128650Y0151250D01*
X0128650Y0141250D02*
X0123850Y0141250D01*
X0123850Y0131250D02*
X0128650Y0131250D01*
X0128650Y0121250D02*
X0123850Y0121250D01*
X0123850Y0111250D02*
X0128650Y0111250D01*
X0128650Y0101250D02*
X0123850Y0101250D01*
X0123850Y0091250D02*
X0128650Y0091250D01*
X0128650Y0081250D02*
X0123850Y0081250D01*
X0126250Y0066250D02*
X0131050Y0066250D01*
X0131050Y0056250D02*
X0126250Y0056250D01*
X0126250Y0046250D02*
X0131050Y0046250D01*
X0131050Y0036250D02*
X0126250Y0036250D01*
D11*
X0131250Y0026250D03*
X0141250Y0026250D03*
X0156250Y0031250D03*
X0166250Y0031250D03*
X0176250Y0031250D03*
X0176250Y0051250D03*
X0166250Y0051250D03*
X0156250Y0051250D03*
X0091250Y0026250D03*
X0081250Y0026250D03*
X0156250Y0181250D03*
X0166250Y0181250D03*
X0176250Y0181250D03*
X0176250Y0201250D03*
X0176998Y0213691D03*
X0166998Y0213691D03*
X0166250Y0201250D03*
X0156250Y0201250D03*
D12*
X0171250Y0091250D03*
X0171250Y0061250D03*
D13*
X0162667Y0127234D03*
X0162667Y0135108D03*
X0162667Y0150856D03*
X0162667Y0158730D03*
X0162667Y0166604D03*
X0099675Y0229596D03*
X0099675Y0237470D03*
X0099675Y0245344D03*
X0099675Y0253219D03*
X0068179Y0060305D03*
X0068179Y0052431D03*
X0068179Y0036683D03*
X0068179Y0028809D03*
X0068179Y0020935D03*
D14*
X0056368Y0127982D03*
D15*
X0056368Y0137982D03*
X0056368Y0147982D03*
X0056368Y0157982D03*
X0044557Y0152982D03*
X0044557Y0142982D03*
X0044557Y0132982D03*
X0032746Y0127982D03*
X0032746Y0137982D03*
X0032746Y0147982D03*
X0032746Y0157982D03*
X0020935Y0152982D03*
X0020935Y0142982D03*
X0020935Y0132982D03*
D16*
X0020935Y0111604D03*
X0044557Y0111604D03*
X0044557Y0174360D03*
X0020935Y0174360D03*
D17*
X0081250Y0176250D03*
X0081250Y0166250D03*
X0081250Y0156250D03*
X0081250Y0146250D03*
X0081250Y0136250D03*
X0081250Y0126250D03*
X0081250Y0116250D03*
X0081250Y0106250D03*
X0081250Y0096250D03*
X0081250Y0086250D03*
X0081250Y0076250D03*
X0081250Y0066250D03*
X0081250Y0056250D03*
X0081250Y0046250D03*
X0141250Y0046250D03*
X0141250Y0056250D03*
X0141250Y0066250D03*
X0141250Y0076250D03*
X0141250Y0086250D03*
X0141250Y0096250D03*
X0141250Y0106250D03*
X0141250Y0116250D03*
X0141250Y0126250D03*
X0141250Y0136250D03*
X0141250Y0146250D03*
X0141250Y0156250D03*
X0141250Y0166250D03*
X0141250Y0176250D03*
X0141250Y0186250D03*
X0141250Y0196250D03*
X0141250Y0206250D03*
X0081250Y0206250D03*
X0081250Y0196250D03*
X0081250Y0186250D03*
D18*
X0098258Y0011781D03*
X0124242Y0011781D03*
D19*
X0119124Y0026250D03*
X0115187Y0026250D03*
X0111250Y0026250D03*
X0107313Y0026250D03*
X0103376Y0026250D03*
D20*
X0168250Y0101250D02*
X0174250Y0101250D01*
X0174250Y0111250D02*
X0168250Y0111250D01*
X0156250Y0268250D02*
X0156250Y0274250D01*
X0146250Y0274250D02*
X0146250Y0268250D01*
X0136250Y0268250D02*
X0136250Y0274250D01*
X0126250Y0274250D02*
X0126250Y0268250D01*
X0116250Y0268250D02*
X0116250Y0274250D01*
D21*
X0156250Y0111250D03*
X0156250Y0106250D03*
X0156250Y0101250D03*
X0156250Y0096250D03*
X0156250Y0091250D03*
X0156250Y0086250D03*
D22*
X0151250Y0086250D01*
X0141250Y0076250D01*
X0133250Y0080250D02*
X0133250Y0112250D01*
X0128250Y0117250D01*
X0122250Y0117250D01*
X0105250Y0134250D01*
X0105250Y0152250D01*
X0096250Y0161250D01*
X0098250Y0167250D02*
X0090250Y0167250D01*
X0081250Y0176250D01*
X0081250Y0166250D02*
X0087250Y0160250D01*
X0087250Y0122250D01*
X0093250Y0116250D01*
X0099250Y0116250D01*
X0103250Y0100250D02*
X0103250Y0134250D01*
X0096250Y0141250D01*
X0112250Y0151250D02*
X0112250Y0153250D01*
X0098250Y0167250D01*
X0096250Y0171250D02*
X0112250Y0187250D01*
X0130250Y0187250D01*
X0133250Y0190250D01*
X0133250Y0212250D01*
X0130250Y0215250D01*
X0130250Y0238250D01*
X0133250Y0240250D02*
X0133250Y0231250D01*
X0132250Y0230250D01*
X0132250Y0216250D01*
X0136250Y0212250D01*
X0141250Y0206250D02*
X0135250Y0200250D01*
X0135250Y0189250D01*
X0131250Y0185250D01*
X0130250Y0185250D01*
X0126250Y0181250D01*
X0126250Y0191250D02*
X0111250Y0191250D01*
X0109250Y0189250D01*
X0106250Y0189250D01*
X0098250Y0197250D01*
X0090250Y0197250D01*
X0081250Y0206250D01*
X0076250Y0209250D02*
X0076250Y0218250D01*
X0079250Y0221250D01*
X0083250Y0221250D01*
X0089250Y0215250D01*
X0096250Y0212250D02*
X0085250Y0223250D01*
X0064250Y0223250D01*
X0044250Y0203250D01*
X0044250Y0197250D01*
X0053250Y0188250D01*
X0053250Y0171250D01*
X0052250Y0170250D01*
X0052250Y0154250D01*
X0045250Y0147250D01*
X0045250Y0143250D01*
X0044557Y0142982D01*
X0038250Y0138250D02*
X0038250Y0129250D01*
X0069250Y0098250D01*
X0065250Y0106250D02*
X0081250Y0106250D01*
X0081250Y0116250D02*
X0077250Y0116250D01*
X0070250Y0123250D01*
X0070250Y0160250D01*
X0062250Y0158250D02*
X0062250Y0177250D01*
X0066250Y0178250D02*
X0063250Y0181250D01*
X0064250Y0184250D02*
X0061250Y0184250D01*
X0064250Y0184250D02*
X0075250Y0173250D01*
X0075250Y0122250D01*
X0066250Y0109250D02*
X0066250Y0178250D01*
X0057250Y0190250D02*
X0076250Y0209250D01*
X0080250Y0225250D02*
X0092250Y0225250D01*
X0095250Y0222250D01*
X0104250Y0222250D01*
X0115250Y0233250D01*
X0117250Y0233250D01*
X0122250Y0228250D01*
X0122250Y0215250D01*
X0126250Y0211250D01*
X0116250Y0200250D02*
X0116250Y0226250D01*
X0105250Y0247250D02*
X0100250Y0252250D01*
X0099675Y0253219D01*
X0101250Y0258250D02*
X0095250Y0258250D01*
X0085250Y0248250D01*
X0081250Y0245250D02*
X0070250Y0234250D01*
X0070250Y0237250D02*
X0069250Y0237250D01*
X0047250Y0215250D01*
X0047250Y0209250D01*
X0041250Y0203250D01*
X0041250Y0182250D01*
X0036250Y0177250D01*
X0036250Y0160250D01*
X0040250Y0156250D01*
X0040250Y0131250D01*
X0065250Y0106250D01*
X0060250Y0096250D02*
X0060250Y0092250D01*
X0063250Y0089250D01*
X0063250Y0082250D01*
X0057250Y0076250D01*
X0056250Y0076250D01*
X0060250Y0075250D02*
X0081250Y0096250D01*
X0090250Y0095250D02*
X0081250Y0086250D01*
X0090250Y0095250D02*
X0102250Y0095250D01*
X0115250Y0108250D01*
X0126250Y0109250D02*
X0103250Y0086250D01*
X0103250Y0080250D01*
X0093250Y0070250D01*
X0085250Y0070250D01*
X0081250Y0066250D01*
X0075250Y0064250D02*
X0075250Y0052250D01*
X0081250Y0046250D01*
X0087250Y0048250D02*
X0089250Y0050250D01*
X0099250Y0050250D01*
X0100250Y0047250D02*
X0133250Y0080250D01*
X0141250Y0086250D02*
X0146250Y0091250D01*
X0156250Y0091250D01*
X0156250Y0096250D02*
X0141250Y0096250D01*
X0146250Y0101250D02*
X0141250Y0106250D01*
X0146250Y0101250D02*
X0156250Y0101250D01*
X0156250Y0106250D02*
X0151250Y0106250D01*
X0141250Y0116250D01*
X0141250Y0126250D02*
X0156250Y0111250D01*
X0157250Y0115250D02*
X0171250Y0101250D01*
X0171250Y0099250D01*
X0165250Y0093250D01*
X0165250Y0052250D01*
X0166250Y0051250D01*
X0176250Y0051250D01*
X0176250Y0047250D02*
X0178250Y0047250D01*
X0181250Y0050250D01*
X0181250Y0203250D01*
X0171250Y0213250D01*
X0171250Y0215250D01*
X0167250Y0219250D01*
X0165250Y0219250D01*
X0160250Y0224250D01*
X0160250Y0230250D01*
X0143250Y0247250D01*
X0105250Y0247250D01*
X0110250Y0249250D02*
X0101250Y0258250D01*
X0096250Y0263250D02*
X0070250Y0237250D01*
X0069250Y0240250D02*
X0044250Y0215250D01*
X0038250Y0213250D02*
X0091250Y0266250D01*
X0110250Y0266250D01*
X0100250Y0279250D02*
X0024250Y0203250D01*
X0024250Y0197250D01*
X0037250Y0184250D01*
X0021250Y0175250D02*
X0020935Y0174360D01*
X0021250Y0175250D02*
X0021250Y0203250D01*
X0099250Y0281250D01*
X0146250Y0281250D01*
X0151250Y0276250D01*
X0151250Y0265250D01*
X0153250Y0263250D01*
X0146250Y0256250D01*
X0139250Y0263250D01*
X0135250Y0263250D01*
X0128250Y0256250D01*
X0126250Y0256250D01*
X0128250Y0263250D02*
X0096250Y0263250D01*
X0100250Y0279250D02*
X0138250Y0279250D01*
X0146250Y0271250D01*
X0153250Y0263250D02*
X0157250Y0263250D01*
X0164250Y0256250D01*
X0166250Y0256250D01*
X0170250Y0252250D02*
X0167250Y0249250D01*
X0110250Y0249250D01*
X0099675Y0245344D02*
X0099250Y0245250D01*
X0081250Y0245250D01*
X0082250Y0242250D02*
X0070250Y0230250D01*
X0073250Y0226250D02*
X0079250Y0226250D01*
X0080250Y0225250D01*
X0081250Y0228250D02*
X0082250Y0229250D01*
X0082250Y0238250D01*
X0082250Y0242250D02*
X0083250Y0242250D01*
X0088250Y0228250D02*
X0093250Y0228250D01*
X0096250Y0225250D01*
X0096250Y0212250D02*
X0096250Y0211250D01*
X0108250Y0192250D02*
X0116250Y0200250D01*
X0119250Y0184250D02*
X0119250Y0138250D01*
X0119250Y0134250D02*
X0126250Y0141250D01*
X0140250Y0155250D01*
X0141250Y0156250D01*
X0140250Y0155250D02*
X0157250Y0138250D01*
X0157250Y0115250D01*
X0171250Y0111250D02*
X0171250Y0137250D01*
X0172250Y0144250D02*
X0163250Y0135250D01*
X0162667Y0135108D01*
X0172250Y0144250D02*
X0172250Y0183250D01*
X0176250Y0187250D01*
X0176250Y0201250D01*
X0176998Y0213691D02*
X0176250Y0214250D01*
X0176250Y0226250D01*
X0166998Y0213691D02*
X0166250Y0213250D01*
X0162250Y0213250D01*
X0152250Y0203250D01*
X0152250Y0188250D01*
X0156250Y0184250D01*
X0156250Y0181250D01*
X0147250Y0172250D01*
X0141250Y0176250D02*
X0141250Y0178250D01*
X0150250Y0187250D01*
X0150250Y0220250D01*
X0156250Y0226250D01*
X0149250Y0233250D01*
X0145250Y0233250D01*
X0138250Y0226250D01*
X0136250Y0226250D01*
X0156250Y0201250D02*
X0156250Y0187250D01*
X0162250Y0181250D01*
X0162250Y0167250D01*
X0162667Y0166604D01*
X0162250Y0159250D02*
X0162667Y0158730D01*
X0162250Y0159250D02*
X0156250Y0159250D01*
X0140250Y0175250D01*
X0141250Y0176250D01*
X0140250Y0175250D02*
X0135250Y0170250D01*
X0135250Y0162250D01*
X0126250Y0153250D01*
X0126250Y0151250D01*
X0119250Y0134250D02*
X0119250Y0130250D01*
X0126250Y0123250D01*
X0126250Y0121250D01*
X0126250Y0111250D02*
X0126250Y0109250D01*
X0119250Y0060250D02*
X0137250Y0060250D01*
X0141250Y0056250D01*
X0146250Y0051250D02*
X0141250Y0046250D01*
X0146250Y0051250D02*
X0156250Y0051250D01*
X0156250Y0031250D02*
X0160250Y0031250D01*
X0176250Y0047250D01*
X0177250Y0044250D02*
X0172250Y0039250D01*
X0172250Y0031250D01*
X0168250Y0027250D01*
X0154250Y0027250D01*
X0151250Y0030250D01*
X0140250Y0030250D01*
X0136250Y0034250D01*
X0136250Y0037250D01*
X0133250Y0040250D01*
X0126250Y0040250D01*
X0118250Y0048250D01*
X0114250Y0048250D01*
X0118250Y0056250D02*
X0126250Y0056250D01*
X0119250Y0060250D02*
X0102250Y0043250D01*
X0102250Y0031250D01*
X0084250Y0013250D01*
X0066250Y0013250D01*
X0066250Y0016250D02*
X0077250Y0016250D01*
X0087250Y0026250D01*
X0087250Y0028250D01*
X0091250Y0032250D01*
X0098250Y0032250D01*
X0100250Y0034250D01*
X0100250Y0047250D01*
X0104250Y0042250D02*
X0118250Y0056250D01*
X0122250Y0040250D02*
X0122250Y0023250D01*
X0105250Y0006250D01*
X0066250Y0006250D01*
X0009250Y0063250D01*
X0009250Y0147250D01*
X0019250Y0157250D01*
X0032250Y0157250D01*
X0032746Y0157982D01*
X0020935Y0152982D02*
X0021250Y0152250D01*
X0031250Y0142250D01*
X0034250Y0142250D01*
X0038250Y0138250D01*
X0032746Y0127982D02*
X0032250Y0128250D01*
X0022250Y0138250D01*
X0019250Y0138250D01*
X0012250Y0145250D01*
X0020935Y0132982D02*
X0020250Y0132250D01*
X0020250Y0122250D01*
X0012250Y0114250D01*
X0012250Y0070250D01*
X0066250Y0016250D01*
X0068179Y0020935D02*
X0067250Y0021250D01*
X0061250Y0027250D01*
X0061250Y0056250D01*
X0063250Y0054250D02*
X0063250Y0033250D01*
X0067250Y0029250D01*
X0068179Y0028809D01*
X0073250Y0037250D02*
X0079250Y0031250D01*
X0083250Y0031250D01*
X0087250Y0035250D01*
X0087250Y0048250D01*
X0075250Y0064250D02*
X0072250Y0067250D01*
X0073250Y0062250D02*
X0073250Y0037250D01*
X0063250Y0054250D02*
X0067250Y0058250D01*
X0067250Y0060250D01*
X0068179Y0060305D01*
X0067250Y0061250D01*
X0051250Y0077250D01*
X0050250Y0077250D01*
X0044250Y0083250D01*
X0044250Y0111250D01*
X0044557Y0111604D01*
X0044250Y0111250D02*
X0021250Y0111250D01*
X0020935Y0111604D01*
X0056368Y0147982D02*
X0057250Y0148250D01*
X0057250Y0153250D01*
X0062250Y0158250D01*
X0057250Y0158250D02*
X0056368Y0157982D01*
X0057250Y0158250D02*
X0057250Y0190250D01*
X0128250Y0263250D02*
X0136250Y0271250D01*
X0156250Y0271250D02*
X0159250Y0271250D01*
X0170250Y0260250D01*
X0170250Y0252250D01*
X0166250Y0201250D02*
X0166250Y0187250D01*
X0170250Y0183250D01*
X0170250Y0158250D01*
X0163250Y0151250D01*
X0162667Y0150856D01*
X0176250Y0181250D02*
X0176250Y0116250D01*
X0179250Y0113250D01*
X0179250Y0099250D01*
X0171250Y0091250D01*
X0176250Y0031250D02*
X0154250Y0009250D01*
X0141250Y0026250D02*
X0130250Y0015250D01*
X0125250Y0022250D02*
X0125250Y0031250D01*
X0119250Y0031250D02*
X0119250Y0026250D01*
X0119124Y0026250D01*
X0115187Y0026250D02*
X0114250Y0026250D01*
X0114250Y0019250D01*
X0110250Y0015250D01*
X0107250Y0023250D02*
X0101250Y0017250D01*
X0091250Y0017250D01*
X0084250Y0010250D01*
X0065250Y0010250D01*
X0056250Y0019250D01*
X0056250Y0022250D01*
X0081250Y0016250D02*
X0091250Y0026250D01*
X0096250Y0020250D02*
X0102250Y0026250D01*
X0103376Y0026250D01*
X0104250Y0026250D01*
X0104250Y0042250D01*
X0113250Y0031250D02*
X0111250Y0029250D01*
X0111250Y0026250D01*
X0107313Y0026250D02*
X0107250Y0026250D01*
X0107250Y0023250D01*
X0109250Y0006250D02*
X0125250Y0022250D01*
X0073250Y0062250D02*
X0066250Y0069250D01*
D23*
X0066250Y0069250D03*
X0072250Y0067250D03*
X0061250Y0056250D03*
X0060250Y0075250D03*
X0056250Y0076250D03*
X0060250Y0096250D03*
X0069250Y0098250D03*
X0066250Y0109250D03*
X0075250Y0122250D03*
X0099250Y0116250D03*
X0103250Y0100250D03*
X0115250Y0108250D03*
X0119250Y0138250D03*
X0112250Y0151250D03*
X0119250Y0184250D03*
X0108250Y0192250D03*
X0089250Y0215250D03*
X0096250Y0225250D03*
X0088250Y0228250D03*
X0081250Y0228250D03*
X0082250Y0238250D03*
X0083250Y0242250D03*
X0085250Y0248250D03*
X0073250Y0226250D03*
X0070250Y0230250D03*
X0070250Y0234250D03*
X0069250Y0240250D03*
X0044250Y0215250D03*
X0038250Y0213250D03*
X0037250Y0184250D03*
X0061250Y0184250D03*
X0063250Y0181250D03*
X0062250Y0177250D03*
X0070250Y0160250D03*
X0012250Y0145250D03*
X0056250Y0022250D03*
X0066250Y0013250D03*
X0081250Y0016250D03*
X0096250Y0020250D03*
X0110250Y0015250D03*
X0109250Y0006250D03*
X0113250Y0031250D03*
X0119250Y0031250D03*
X0125250Y0031250D03*
X0122250Y0040250D03*
X0114250Y0048250D03*
X0099250Y0050250D03*
X0130250Y0015250D03*
X0154250Y0009250D03*
X0177250Y0044250D03*
X0171250Y0137250D03*
X0147250Y0172250D03*
X0136250Y0212250D03*
X0130250Y0238250D03*
X0133250Y0240250D03*
X0110250Y0266250D03*
D24*
X0003468Y0282496D02*
X0003468Y0003468D01*
X0184071Y0003468D01*
X0184071Y0282496D01*
X0003468Y0282496D01*
X0003468Y0282410D02*
X0184071Y0282410D01*
X0184071Y0281912D02*
X0003468Y0281912D01*
X0003468Y0281413D02*
X0011348Y0281413D01*
X0011367Y0281421D02*
X0008236Y0280125D01*
X0005840Y0277728D01*
X0004543Y0274598D01*
X0004543Y0271209D01*
X0005840Y0268079D01*
X0008236Y0265683D01*
X0011367Y0264386D01*
X0014755Y0264386D01*
X0017886Y0265683D01*
X0020282Y0268079D01*
X0021579Y0271209D01*
X0021579Y0274598D01*
X0020282Y0277728D01*
X0017886Y0280125D01*
X0014755Y0281421D01*
X0011367Y0281421D01*
X0010144Y0280915D02*
X0003468Y0280915D01*
X0003468Y0280416D02*
X0008941Y0280416D01*
X0008029Y0279918D02*
X0003468Y0279918D01*
X0003468Y0279419D02*
X0007531Y0279419D01*
X0007032Y0278921D02*
X0003468Y0278921D01*
X0003468Y0278422D02*
X0006534Y0278422D01*
X0006035Y0277924D02*
X0003468Y0277924D01*
X0003468Y0277425D02*
X0005714Y0277425D01*
X0005508Y0276927D02*
X0003468Y0276927D01*
X0003468Y0276428D02*
X0005302Y0276428D01*
X0005095Y0275930D02*
X0003468Y0275930D01*
X0003468Y0275431D02*
X0004889Y0275431D01*
X0004682Y0274933D02*
X0003468Y0274933D01*
X0003468Y0274434D02*
X0004543Y0274434D01*
X0004543Y0273936D02*
X0003468Y0273936D01*
X0003468Y0273437D02*
X0004543Y0273437D01*
X0004543Y0272939D02*
X0003468Y0272939D01*
X0003468Y0272440D02*
X0004543Y0272440D01*
X0004543Y0271942D02*
X0003468Y0271942D01*
X0003468Y0271443D02*
X0004543Y0271443D01*
X0004653Y0270945D02*
X0003468Y0270945D01*
X0003468Y0270446D02*
X0004859Y0270446D01*
X0005066Y0269948D02*
X0003468Y0269948D01*
X0003468Y0269449D02*
X0005272Y0269449D01*
X0005479Y0268951D02*
X0003468Y0268951D01*
X0003468Y0268452D02*
X0005685Y0268452D01*
X0005965Y0267954D02*
X0003468Y0267954D01*
X0003468Y0267455D02*
X0006464Y0267455D01*
X0006962Y0266957D02*
X0003468Y0266957D01*
X0003468Y0266458D02*
X0007461Y0266458D01*
X0007959Y0265960D02*
X0003468Y0265960D01*
X0003468Y0265461D02*
X0008771Y0265461D01*
X0009975Y0264962D02*
X0003468Y0264962D01*
X0003468Y0264464D02*
X0011178Y0264464D01*
X0014944Y0264464D02*
X0082989Y0264464D01*
X0082491Y0263965D02*
X0003468Y0263965D01*
X0003468Y0263467D02*
X0081992Y0263467D01*
X0081494Y0262968D02*
X0003468Y0262968D01*
X0003468Y0262470D02*
X0080995Y0262470D01*
X0080497Y0261971D02*
X0003468Y0261971D01*
X0003468Y0261473D02*
X0079998Y0261473D01*
X0079500Y0260974D02*
X0003468Y0260974D01*
X0003468Y0260476D02*
X0079001Y0260476D01*
X0078503Y0259977D02*
X0003468Y0259977D01*
X0003468Y0259479D02*
X0078004Y0259479D01*
X0077505Y0258980D02*
X0003468Y0258980D01*
X0003468Y0258482D02*
X0077007Y0258482D01*
X0076508Y0257983D02*
X0003468Y0257983D01*
X0003468Y0257485D02*
X0076010Y0257485D01*
X0075511Y0256986D02*
X0003468Y0256986D01*
X0003468Y0256488D02*
X0075013Y0256488D01*
X0074514Y0255989D02*
X0003468Y0255989D01*
X0003468Y0255491D02*
X0074016Y0255491D01*
X0073517Y0254992D02*
X0003468Y0254992D01*
X0003468Y0254494D02*
X0073019Y0254494D01*
X0072520Y0253995D02*
X0003468Y0253995D01*
X0003468Y0253497D02*
X0072022Y0253497D01*
X0071523Y0252998D02*
X0003468Y0252998D01*
X0003468Y0252500D02*
X0071025Y0252500D01*
X0070526Y0252001D02*
X0003468Y0252001D01*
X0003468Y0251503D02*
X0070028Y0251503D01*
X0069529Y0251004D02*
X0003468Y0251004D01*
X0003468Y0250506D02*
X0069031Y0250506D01*
X0068532Y0250007D02*
X0003468Y0250007D01*
X0003468Y0249509D02*
X0068034Y0249509D01*
X0067535Y0249010D02*
X0003468Y0249010D01*
X0003468Y0248512D02*
X0067037Y0248512D01*
X0066538Y0248013D02*
X0003468Y0248013D01*
X0003468Y0247515D02*
X0066040Y0247515D01*
X0065541Y0247016D02*
X0003468Y0247016D01*
X0003468Y0246518D02*
X0065043Y0246518D01*
X0064544Y0246019D02*
X0003468Y0246019D01*
X0003468Y0245521D02*
X0064046Y0245521D01*
X0063547Y0245022D02*
X0003468Y0245022D01*
X0003468Y0244524D02*
X0063049Y0244524D01*
X0062550Y0244025D02*
X0003468Y0244025D01*
X0003468Y0243527D02*
X0062052Y0243527D01*
X0061553Y0243028D02*
X0003468Y0243028D01*
X0003468Y0242529D02*
X0061055Y0242529D01*
X0060556Y0242031D02*
X0003468Y0242031D01*
X0003468Y0241532D02*
X0060058Y0241532D01*
X0059559Y0241034D02*
X0003468Y0241034D01*
X0003468Y0240535D02*
X0059061Y0240535D01*
X0058562Y0240037D02*
X0003468Y0240037D01*
X0003468Y0239538D02*
X0058064Y0239538D01*
X0057565Y0239040D02*
X0003468Y0239040D01*
X0003468Y0238541D02*
X0057067Y0238541D01*
X0056568Y0238043D02*
X0003468Y0238043D01*
X0003468Y0237544D02*
X0056070Y0237544D01*
X0055571Y0237046D02*
X0003468Y0237046D01*
X0003468Y0236547D02*
X0055072Y0236547D01*
X0054574Y0236049D02*
X0003468Y0236049D01*
X0003468Y0235550D02*
X0054075Y0235550D01*
X0053577Y0235052D02*
X0003468Y0235052D01*
X0003468Y0234553D02*
X0053078Y0234553D01*
X0052580Y0234055D02*
X0003468Y0234055D01*
X0003468Y0233556D02*
X0052081Y0233556D01*
X0051583Y0233058D02*
X0003468Y0233058D01*
X0003468Y0232559D02*
X0051084Y0232559D01*
X0050586Y0232061D02*
X0003468Y0232061D01*
X0003468Y0231562D02*
X0050087Y0231562D01*
X0049589Y0231064D02*
X0003468Y0231064D01*
X0003468Y0230565D02*
X0049090Y0230565D01*
X0048592Y0230067D02*
X0003468Y0230067D01*
X0003468Y0229568D02*
X0048093Y0229568D01*
X0047595Y0229070D02*
X0003468Y0229070D01*
X0003468Y0228571D02*
X0047096Y0228571D01*
X0046598Y0228073D02*
X0003468Y0228073D01*
X0003468Y0227574D02*
X0046099Y0227574D01*
X0045601Y0227076D02*
X0003468Y0227076D01*
X0003468Y0226577D02*
X0045102Y0226577D01*
X0044604Y0226079D02*
X0003468Y0226079D01*
X0003468Y0225580D02*
X0044105Y0225580D01*
X0043607Y0225082D02*
X0003468Y0225082D01*
X0003468Y0224583D02*
X0043108Y0224583D01*
X0042610Y0224085D02*
X0003468Y0224085D01*
X0003468Y0223586D02*
X0042111Y0223586D01*
X0041613Y0223088D02*
X0003468Y0223088D01*
X0003468Y0222589D02*
X0041114Y0222589D01*
X0040616Y0222091D02*
X0003468Y0222091D01*
X0003468Y0221592D02*
X0040117Y0221592D01*
X0039619Y0221093D02*
X0003468Y0221093D01*
X0003468Y0220595D02*
X0039120Y0220595D01*
X0038622Y0220096D02*
X0003468Y0220096D01*
X0003468Y0219598D02*
X0038123Y0219598D01*
X0037625Y0219099D02*
X0003468Y0219099D01*
X0003468Y0218601D02*
X0037126Y0218601D01*
X0036628Y0218102D02*
X0003468Y0218102D01*
X0003468Y0217604D02*
X0036129Y0217604D01*
X0035631Y0217105D02*
X0003468Y0217105D01*
X0003468Y0216607D02*
X0035132Y0216607D01*
X0034634Y0216108D02*
X0003468Y0216108D01*
X0003468Y0215610D02*
X0034135Y0215610D01*
X0033636Y0215111D02*
X0003468Y0215111D01*
X0003468Y0214613D02*
X0033138Y0214613D01*
X0032639Y0214114D02*
X0003468Y0214114D01*
X0003468Y0213616D02*
X0032141Y0213616D01*
X0031642Y0213117D02*
X0003468Y0213117D01*
X0003468Y0212619D02*
X0031144Y0212619D01*
X0030645Y0212120D02*
X0003468Y0212120D01*
X0003468Y0211622D02*
X0030147Y0211622D01*
X0029648Y0211123D02*
X0003468Y0211123D01*
X0003468Y0210625D02*
X0029150Y0210625D01*
X0028651Y0210126D02*
X0003468Y0210126D01*
X0003468Y0209628D02*
X0028153Y0209628D01*
X0027654Y0209129D02*
X0003468Y0209129D01*
X0003468Y0208631D02*
X0027156Y0208631D01*
X0026657Y0208132D02*
X0003468Y0208132D01*
X0003468Y0207634D02*
X0026159Y0207634D01*
X0025660Y0207135D02*
X0003468Y0207135D01*
X0003468Y0206637D02*
X0025162Y0206637D01*
X0024663Y0206138D02*
X0003468Y0206138D01*
X0003468Y0205640D02*
X0024165Y0205640D01*
X0023666Y0205141D02*
X0003468Y0205141D01*
X0003468Y0204643D02*
X0023168Y0204643D01*
X0023525Y0205000D02*
X0022500Y0203975D01*
X0022500Y0196525D01*
X0034819Y0184206D01*
X0034819Y0183766D01*
X0035189Y0182873D01*
X0035873Y0182189D01*
X0036766Y0181819D01*
X0037734Y0181819D01*
X0038627Y0182189D01*
X0039311Y0182873D01*
X0039500Y0183329D01*
X0039500Y0182975D01*
X0035525Y0179000D01*
X0034500Y0177975D01*
X0034500Y0161166D01*
X0033465Y0161594D01*
X0032028Y0161594D01*
X0030700Y0161045D01*
X0029684Y0160028D01*
X0029258Y0159000D01*
X0018525Y0159000D01*
X0008525Y0149000D01*
X0007500Y0147975D01*
X0007500Y0062525D01*
X0064500Y0005525D01*
X0065525Y0004500D01*
X0105975Y0004500D01*
X0106943Y0005468D01*
X0107189Y0004873D01*
X0107873Y0004189D01*
X0108766Y0003819D01*
X0109734Y0003819D01*
X0110627Y0004189D01*
X0111311Y0004873D01*
X0111681Y0005766D01*
X0111681Y0006206D01*
X0120630Y0015155D01*
X0120630Y0007327D01*
X0121362Y0006594D01*
X0127122Y0006594D01*
X0127854Y0007327D01*
X0127854Y0016236D01*
X0127122Y0016968D01*
X0122443Y0016968D01*
X0125975Y0020500D01*
X0127000Y0021525D01*
X0127000Y0029562D01*
X0127311Y0029873D01*
X0127681Y0030766D01*
X0127681Y0031734D01*
X0127322Y0032600D01*
X0131776Y0032600D01*
X0133118Y0033156D01*
X0134144Y0034182D01*
X0134500Y0035041D01*
X0134500Y0033525D01*
X0138500Y0029525D01*
X0138932Y0029093D01*
X0137600Y0027762D01*
X0137600Y0026500D01*
X0141000Y0026500D01*
X0141000Y0026000D01*
X0141500Y0026000D01*
X0141500Y0026500D01*
X0144900Y0026500D01*
X0144900Y0027762D01*
X0144162Y0028500D01*
X0150525Y0028500D01*
X0152500Y0026525D01*
X0153525Y0025500D01*
X0168025Y0025500D01*
X0154206Y0011681D01*
X0153766Y0011681D01*
X0152873Y0011311D01*
X0152189Y0010627D01*
X0151819Y0009734D01*
X0151819Y0008766D01*
X0152189Y0007873D01*
X0152873Y0007189D01*
X0153766Y0006819D01*
X0154734Y0006819D01*
X0155627Y0007189D01*
X0156311Y0007873D01*
X0156681Y0008766D01*
X0156681Y0009206D01*
X0175075Y0027600D01*
X0177762Y0027600D01*
X0179900Y0029738D01*
X0179900Y0032762D01*
X0177762Y0034900D01*
X0174738Y0034900D01*
X0174000Y0034162D01*
X0174000Y0038525D01*
X0177294Y0041819D01*
X0177734Y0041819D01*
X0178627Y0042189D01*
X0179311Y0042873D01*
X0179681Y0043766D01*
X0179681Y0044734D01*
X0179311Y0045627D01*
X0179206Y0045732D01*
X0181975Y0048500D01*
X0183000Y0049525D01*
X0183000Y0203975D01*
X0176748Y0210227D01*
X0176748Y0213441D01*
X0173534Y0213441D01*
X0173000Y0213975D01*
X0173000Y0215975D01*
X0169000Y0219975D01*
X0168248Y0220727D01*
X0168318Y0220756D01*
X0169344Y0221782D01*
X0169900Y0223124D01*
X0169900Y0229376D01*
X0169344Y0230718D01*
X0168318Y0231744D01*
X0166976Y0232300D01*
X0165524Y0232300D01*
X0164182Y0231744D01*
X0163156Y0230718D01*
X0162600Y0229376D01*
X0162600Y0224375D01*
X0162000Y0224975D01*
X0162000Y0230975D01*
X0145475Y0247500D01*
X0167975Y0247500D01*
X0169000Y0248525D01*
X0172000Y0251525D01*
X0172000Y0260975D01*
X0170975Y0262000D01*
X0160500Y0272475D01*
X0160500Y0275095D01*
X0159853Y0276657D01*
X0158657Y0277853D01*
X0157095Y0278500D01*
X0155405Y0278500D01*
X0153843Y0277853D01*
X0152647Y0276657D01*
X0152000Y0275095D01*
X0152000Y0267405D01*
X0152647Y0265843D01*
X0153843Y0264647D01*
X0155405Y0264000D01*
X0157095Y0264000D01*
X0158657Y0264647D01*
X0159853Y0265843D01*
X0160500Y0267405D01*
X0160500Y0267525D01*
X0165753Y0262273D01*
X0165185Y0262160D01*
X0164521Y0261885D01*
X0163923Y0261485D01*
X0163415Y0260977D01*
X0163015Y0260379D01*
X0162740Y0259715D01*
X0162600Y0259009D01*
X0162600Y0256500D01*
X0166000Y0256500D01*
X0166000Y0256000D01*
X0162600Y0256000D01*
X0162600Y0253490D01*
X0162740Y0252785D01*
X0163015Y0252121D01*
X0163415Y0251523D01*
X0163923Y0251015D01*
X0163946Y0251000D01*
X0158562Y0251000D01*
X0159344Y0251782D01*
X0159900Y0253124D01*
X0159900Y0259376D01*
X0159344Y0260718D01*
X0158318Y0261744D01*
X0156976Y0262300D01*
X0155524Y0262300D01*
X0154182Y0261744D01*
X0153156Y0260718D01*
X0152600Y0259376D01*
X0152600Y0253124D01*
X0153156Y0251782D01*
X0153938Y0251000D01*
X0148554Y0251000D01*
X0148577Y0251015D01*
X0149085Y0251523D01*
X0149485Y0252121D01*
X0149760Y0252785D01*
X0149900Y0253490D01*
X0149900Y0256000D01*
X0146500Y0256000D01*
X0146500Y0256500D01*
X0149900Y0256500D01*
X0149900Y0259009D01*
X0149760Y0259715D01*
X0149485Y0260379D01*
X0149085Y0260977D01*
X0148577Y0261485D01*
X0147979Y0261885D01*
X0147315Y0262160D01*
X0146609Y0262300D01*
X0146500Y0262300D01*
X0146500Y0256500D01*
X0146000Y0256500D01*
X0146000Y0262300D01*
X0145890Y0262300D01*
X0145185Y0262160D01*
X0144521Y0261885D01*
X0143923Y0261485D01*
X0143415Y0260977D01*
X0143015Y0260379D01*
X0142740Y0259715D01*
X0142600Y0259009D01*
X0142600Y0256500D01*
X0146000Y0256500D01*
X0146000Y0256000D01*
X0142600Y0256000D01*
X0142600Y0253490D01*
X0142740Y0252785D01*
X0143015Y0252121D01*
X0143415Y0251523D01*
X0143923Y0251015D01*
X0143946Y0251000D01*
X0138562Y0251000D01*
X0139344Y0251782D01*
X0139900Y0253124D01*
X0139900Y0259376D01*
X0139344Y0260718D01*
X0138318Y0261744D01*
X0136976Y0262300D01*
X0135524Y0262300D01*
X0134182Y0261744D01*
X0133156Y0260718D01*
X0132600Y0259376D01*
X0132600Y0253124D01*
X0133156Y0251782D01*
X0133938Y0251000D01*
X0128554Y0251000D01*
X0128577Y0251015D01*
X0129085Y0251523D01*
X0129485Y0252121D01*
X0129760Y0252785D01*
X0129900Y0253490D01*
X0129900Y0256000D01*
X0126500Y0256000D01*
X0126500Y0256500D01*
X0129900Y0256500D01*
X0129900Y0259009D01*
X0129760Y0259715D01*
X0129485Y0260379D01*
X0129085Y0260977D01*
X0128577Y0261485D01*
X0128554Y0261500D01*
X0128975Y0261500D01*
X0130000Y0262525D01*
X0132982Y0265507D01*
X0133843Y0264647D01*
X0135405Y0264000D01*
X0137095Y0264000D01*
X0138657Y0264647D01*
X0139853Y0265843D01*
X0140500Y0267405D01*
X0140500Y0274525D01*
X0142000Y0273025D01*
X0142000Y0267405D01*
X0142647Y0265843D01*
X0143843Y0264647D01*
X0145405Y0264000D01*
X0147095Y0264000D01*
X0148657Y0264647D01*
X0149853Y0265843D01*
X0150500Y0267405D01*
X0150500Y0275095D01*
X0149853Y0276657D01*
X0148657Y0277853D01*
X0147095Y0278500D01*
X0145405Y0278500D01*
X0143843Y0277853D01*
X0142982Y0276993D01*
X0140000Y0279975D01*
X0138975Y0281000D01*
X0099525Y0281000D01*
X0023525Y0205000D01*
X0022669Y0204144D02*
X0003468Y0204144D01*
X0003468Y0203646D02*
X0022500Y0203646D01*
X0022500Y0203147D02*
X0003468Y0203147D01*
X0003468Y0202649D02*
X0022500Y0202649D01*
X0022500Y0202150D02*
X0003468Y0202150D01*
X0003468Y0201652D02*
X0022500Y0201652D01*
X0022500Y0201153D02*
X0003468Y0201153D01*
X0003468Y0200655D02*
X0022500Y0200655D01*
X0022500Y0200156D02*
X0003468Y0200156D01*
X0003468Y0199658D02*
X0022500Y0199658D01*
X0022500Y0199159D02*
X0003468Y0199159D01*
X0003468Y0198660D02*
X0022500Y0198660D01*
X0022500Y0198162D02*
X0003468Y0198162D01*
X0003468Y0197663D02*
X0022500Y0197663D01*
X0022500Y0197165D02*
X0003468Y0197165D01*
X0003468Y0196666D02*
X0022500Y0196666D01*
X0022857Y0196168D02*
X0003468Y0196168D01*
X0003468Y0195669D02*
X0023356Y0195669D01*
X0023854Y0195171D02*
X0003468Y0195171D01*
X0003468Y0194672D02*
X0024353Y0194672D01*
X0024851Y0194174D02*
X0003468Y0194174D01*
X0003468Y0193675D02*
X0025350Y0193675D01*
X0025848Y0193177D02*
X0003468Y0193177D01*
X0003468Y0192678D02*
X0026347Y0192678D01*
X0026845Y0192180D02*
X0003468Y0192180D01*
X0003468Y0191681D02*
X0027344Y0191681D01*
X0027842Y0191183D02*
X0003468Y0191183D01*
X0003468Y0190684D02*
X0028341Y0190684D01*
X0028839Y0190186D02*
X0003468Y0190186D01*
X0003468Y0189687D02*
X0029338Y0189687D01*
X0029836Y0189189D02*
X0003468Y0189189D01*
X0003468Y0188690D02*
X0030335Y0188690D01*
X0030833Y0188192D02*
X0003468Y0188192D01*
X0003468Y0187693D02*
X0031332Y0187693D01*
X0031830Y0187195D02*
X0003468Y0187195D01*
X0003468Y0186696D02*
X0032329Y0186696D01*
X0032827Y0186198D02*
X0003468Y0186198D01*
X0003468Y0185699D02*
X0033326Y0185699D01*
X0033824Y0185201D02*
X0003468Y0185201D01*
X0003468Y0184702D02*
X0034323Y0184702D01*
X0034819Y0184204D02*
X0003468Y0184204D01*
X0003468Y0183705D02*
X0034844Y0183705D01*
X0035051Y0183207D02*
X0003468Y0183207D01*
X0003468Y0182708D02*
X0035354Y0182708D01*
X0035852Y0182210D02*
X0003468Y0182210D01*
X0003468Y0181711D02*
X0017610Y0181711D01*
X0017808Y0181909D02*
X0013386Y0177487D01*
X0013386Y0174610D01*
X0020685Y0174610D01*
X0020685Y0174110D01*
X0021185Y0174110D01*
X0021185Y0166811D01*
X0024062Y0166811D01*
X0028484Y0171233D01*
X0028484Y0174110D01*
X0021185Y0174110D01*
X0021185Y0174610D01*
X0028484Y0174610D01*
X0028484Y0177487D01*
X0024062Y0181909D01*
X0021185Y0181909D01*
X0021185Y0174610D01*
X0020685Y0174610D01*
X0020685Y0181909D01*
X0017808Y0181909D01*
X0017111Y0181213D02*
X0003468Y0181213D01*
X0003468Y0180714D02*
X0016613Y0180714D01*
X0016114Y0180216D02*
X0003468Y0180216D01*
X0003468Y0179717D02*
X0015616Y0179717D01*
X0015117Y0179219D02*
X0003468Y0179219D01*
X0003468Y0178720D02*
X0014619Y0178720D01*
X0014120Y0178222D02*
X0003468Y0178222D01*
X0003468Y0177723D02*
X0013622Y0177723D01*
X0013386Y0177224D02*
X0003468Y0177224D01*
X0003468Y0176726D02*
X0013386Y0176726D01*
X0013386Y0176227D02*
X0003468Y0176227D01*
X0003468Y0175729D02*
X0013386Y0175729D01*
X0013386Y0175230D02*
X0003468Y0175230D01*
X0003468Y0174732D02*
X0013386Y0174732D01*
X0013386Y0174110D02*
X0013386Y0171233D01*
X0017808Y0166811D01*
X0020685Y0166811D01*
X0020685Y0174110D01*
X0013386Y0174110D01*
X0013386Y0173735D02*
X0003468Y0173735D01*
X0003468Y0174233D02*
X0020685Y0174233D01*
X0020685Y0173735D02*
X0021185Y0173735D01*
X0021185Y0174233D02*
X0034500Y0174233D01*
X0034500Y0173735D02*
X0028484Y0173735D01*
X0028484Y0173236D02*
X0034500Y0173236D01*
X0034500Y0172738D02*
X0028484Y0172738D01*
X0028484Y0172239D02*
X0034500Y0172239D01*
X0034500Y0171741D02*
X0028484Y0171741D01*
X0028484Y0171242D02*
X0034500Y0171242D01*
X0034500Y0170744D02*
X0027995Y0170744D01*
X0027496Y0170245D02*
X0034500Y0170245D01*
X0034500Y0169747D02*
X0026998Y0169747D01*
X0026499Y0169248D02*
X0034500Y0169248D01*
X0034500Y0168750D02*
X0026001Y0168750D01*
X0025502Y0168251D02*
X0034500Y0168251D01*
X0034500Y0167753D02*
X0025004Y0167753D01*
X0024505Y0167254D02*
X0034500Y0167254D01*
X0034500Y0166756D02*
X0003468Y0166756D01*
X0003468Y0167254D02*
X0017365Y0167254D01*
X0016866Y0167753D02*
X0003468Y0167753D01*
X0003468Y0168251D02*
X0016368Y0168251D01*
X0015869Y0168750D02*
X0003468Y0168750D01*
X0003468Y0169248D02*
X0015371Y0169248D01*
X0014872Y0169747D02*
X0003468Y0169747D01*
X0003468Y0170245D02*
X0014374Y0170245D01*
X0013875Y0170744D02*
X0003468Y0170744D01*
X0003468Y0171242D02*
X0013386Y0171242D01*
X0013386Y0171741D02*
X0003468Y0171741D01*
X0003468Y0172239D02*
X0013386Y0172239D01*
X0013386Y0172738D02*
X0003468Y0172738D01*
X0003468Y0173236D02*
X0013386Y0173236D01*
X0020685Y0173236D02*
X0021185Y0173236D01*
X0021185Y0172738D02*
X0020685Y0172738D01*
X0020685Y0172239D02*
X0021185Y0172239D01*
X0021185Y0171741D02*
X0020685Y0171741D01*
X0020685Y0171242D02*
X0021185Y0171242D01*
X0021185Y0170744D02*
X0020685Y0170744D01*
X0020685Y0170245D02*
X0021185Y0170245D01*
X0021185Y0169747D02*
X0020685Y0169747D01*
X0020685Y0169248D02*
X0021185Y0169248D01*
X0021185Y0168750D02*
X0020685Y0168750D01*
X0020685Y0168251D02*
X0021185Y0168251D01*
X0021185Y0167753D02*
X0020685Y0167753D01*
X0020685Y0167254D02*
X0021185Y0167254D01*
X0021185Y0174732D02*
X0020685Y0174732D01*
X0020685Y0175230D02*
X0021185Y0175230D01*
X0021185Y0175729D02*
X0020685Y0175729D01*
X0020685Y0176227D02*
X0021185Y0176227D01*
X0021185Y0176726D02*
X0020685Y0176726D01*
X0020685Y0177224D02*
X0021185Y0177224D01*
X0021185Y0177723D02*
X0020685Y0177723D01*
X0020685Y0178222D02*
X0021185Y0178222D01*
X0021185Y0178720D02*
X0020685Y0178720D01*
X0020685Y0179219D02*
X0021185Y0179219D01*
X0021185Y0179717D02*
X0020685Y0179717D01*
X0020685Y0180216D02*
X0021185Y0180216D01*
X0021185Y0180714D02*
X0020685Y0180714D01*
X0020685Y0181213D02*
X0021185Y0181213D01*
X0021185Y0181711D02*
X0020685Y0181711D01*
X0024260Y0181711D02*
X0038236Y0181711D01*
X0038648Y0182210D02*
X0038735Y0182210D01*
X0039146Y0182708D02*
X0039233Y0182708D01*
X0039449Y0183207D02*
X0039500Y0183207D01*
X0037738Y0181213D02*
X0024759Y0181213D01*
X0025257Y0180714D02*
X0037239Y0180714D01*
X0036741Y0180216D02*
X0025756Y0180216D01*
X0026254Y0179717D02*
X0036242Y0179717D01*
X0035744Y0179219D02*
X0026753Y0179219D01*
X0027251Y0178720D02*
X0035245Y0178720D01*
X0035525Y0179000D02*
X0035525Y0179000D01*
X0034747Y0178222D02*
X0027750Y0178222D01*
X0028248Y0177723D02*
X0034500Y0177723D01*
X0034500Y0177224D02*
X0028484Y0177224D01*
X0028484Y0176726D02*
X0034500Y0176726D01*
X0034500Y0176227D02*
X0028484Y0176227D01*
X0028484Y0175729D02*
X0034500Y0175729D01*
X0034500Y0175230D02*
X0028484Y0175230D01*
X0028484Y0174732D02*
X0034500Y0174732D01*
X0038000Y0170241D02*
X0041430Y0166811D01*
X0044307Y0166811D01*
X0044307Y0174110D01*
X0044807Y0174110D01*
X0044807Y0166811D01*
X0047684Y0166811D01*
X0050500Y0169627D01*
X0050500Y0154975D01*
X0048169Y0152644D01*
X0048169Y0153701D01*
X0047619Y0155028D01*
X0046603Y0156045D01*
X0045276Y0156594D01*
X0043839Y0156594D01*
X0042511Y0156045D01*
X0042000Y0155534D01*
X0042000Y0156975D01*
X0040975Y0158000D01*
X0038000Y0160975D01*
X0038000Y0170241D01*
X0038000Y0169747D02*
X0038494Y0169747D01*
X0038000Y0169248D02*
X0038993Y0169248D01*
X0039491Y0168750D02*
X0038000Y0168750D01*
X0038000Y0168251D02*
X0039990Y0168251D01*
X0040488Y0167753D02*
X0038000Y0167753D01*
X0038000Y0167254D02*
X0040987Y0167254D01*
X0038000Y0166756D02*
X0050500Y0166756D01*
X0050500Y0167254D02*
X0048127Y0167254D01*
X0048626Y0167753D02*
X0050500Y0167753D01*
X0050500Y0168251D02*
X0049124Y0168251D01*
X0049623Y0168750D02*
X0050500Y0168750D01*
X0050500Y0169248D02*
X0050121Y0169248D01*
X0050500Y0166257D02*
X0038000Y0166257D01*
X0038000Y0165759D02*
X0050500Y0165759D01*
X0050500Y0165260D02*
X0038000Y0165260D01*
X0038000Y0164762D02*
X0050500Y0164762D01*
X0050500Y0164263D02*
X0038000Y0164263D01*
X0038000Y0163765D02*
X0050500Y0163765D01*
X0050500Y0163266D02*
X0038000Y0163266D01*
X0038000Y0162768D02*
X0050500Y0162768D01*
X0050500Y0162269D02*
X0038000Y0162269D01*
X0038000Y0161771D02*
X0050500Y0161771D01*
X0050500Y0161272D02*
X0038000Y0161272D01*
X0038201Y0160774D02*
X0050500Y0160774D01*
X0050500Y0160275D02*
X0038700Y0160275D01*
X0039198Y0159777D02*
X0050500Y0159777D01*
X0050500Y0159278D02*
X0039697Y0159278D01*
X0040195Y0158780D02*
X0050500Y0158780D01*
X0050500Y0158281D02*
X0040694Y0158281D01*
X0041192Y0157783D02*
X0050500Y0157783D01*
X0050500Y0157284D02*
X0041691Y0157284D01*
X0042000Y0156786D02*
X0050500Y0156786D01*
X0050500Y0156287D02*
X0046018Y0156287D01*
X0046859Y0155789D02*
X0050500Y0155789D01*
X0050500Y0155290D02*
X0047358Y0155290D01*
X0047717Y0154791D02*
X0050317Y0154791D01*
X0049818Y0154293D02*
X0047924Y0154293D01*
X0048130Y0153794D02*
X0049320Y0153794D01*
X0048821Y0153296D02*
X0048169Y0153296D01*
X0048169Y0152797D02*
X0048323Y0152797D01*
X0050780Y0150305D02*
X0053582Y0150305D01*
X0053306Y0150028D02*
X0052756Y0148701D01*
X0052756Y0147264D01*
X0053306Y0145936D01*
X0054322Y0144920D01*
X0055650Y0144370D01*
X0057087Y0144370D01*
X0058414Y0144920D01*
X0059430Y0145936D01*
X0059980Y0147264D01*
X0059980Y0148701D01*
X0059430Y0150028D01*
X0059000Y0150459D01*
X0059000Y0152525D01*
X0062975Y0156500D01*
X0064000Y0157525D01*
X0064000Y0175562D01*
X0064311Y0175873D01*
X0064500Y0176329D01*
X0064500Y0110938D01*
X0064189Y0110627D01*
X0063943Y0110032D01*
X0044307Y0129668D01*
X0044307Y0132732D01*
X0044807Y0132732D01*
X0044807Y0129370D01*
X0044913Y0129370D01*
X0045611Y0129509D01*
X0046268Y0129781D01*
X0046860Y0130177D01*
X0047363Y0130680D01*
X0047758Y0131271D01*
X0048030Y0131929D01*
X0048169Y0132627D01*
X0048169Y0132732D01*
X0044807Y0132732D01*
X0044807Y0133232D01*
X0048169Y0133232D01*
X0048169Y0133338D01*
X0048030Y0134036D01*
X0047758Y0134693D01*
X0047363Y0135285D01*
X0046860Y0135788D01*
X0046268Y0136183D01*
X0045611Y0136456D01*
X0044913Y0136594D01*
X0044807Y0136594D01*
X0044807Y0133232D01*
X0044307Y0133232D01*
X0044307Y0136594D01*
X0044201Y0136594D01*
X0043503Y0136456D01*
X0042846Y0136183D01*
X0042254Y0135788D01*
X0042000Y0135534D01*
X0042000Y0140431D01*
X0042511Y0139920D01*
X0043839Y0139370D01*
X0045276Y0139370D01*
X0046603Y0139920D01*
X0047619Y0140936D01*
X0048169Y0142264D01*
X0048169Y0143701D01*
X0047619Y0145028D01*
X0047000Y0145648D01*
X0047000Y0146525D01*
X0052975Y0152500D01*
X0054000Y0153525D01*
X0054000Y0155242D01*
X0054322Y0154920D01*
X0055650Y0154370D01*
X0055895Y0154370D01*
X0055500Y0153975D01*
X0055500Y0151533D01*
X0054322Y0151045D01*
X0053306Y0150028D01*
X0053214Y0149806D02*
X0050281Y0149806D01*
X0049783Y0149308D02*
X0053007Y0149308D01*
X0052801Y0148809D02*
X0049284Y0148809D01*
X0048786Y0148311D02*
X0052756Y0148311D01*
X0052756Y0147812D02*
X0048287Y0147812D01*
X0047789Y0147314D02*
X0052756Y0147314D01*
X0052942Y0146815D02*
X0047290Y0146815D01*
X0047000Y0146317D02*
X0053148Y0146317D01*
X0053424Y0145818D02*
X0047000Y0145818D01*
X0047328Y0145320D02*
X0053922Y0145320D01*
X0054560Y0144821D02*
X0047705Y0144821D01*
X0047912Y0144323D02*
X0064500Y0144323D01*
X0064500Y0144821D02*
X0058176Y0144821D01*
X0058814Y0145320D02*
X0064500Y0145320D01*
X0064500Y0145818D02*
X0059313Y0145818D01*
X0059588Y0146317D02*
X0064500Y0146317D01*
X0064500Y0146815D02*
X0059795Y0146815D01*
X0059980Y0147314D02*
X0064500Y0147314D01*
X0064500Y0147812D02*
X0059980Y0147812D01*
X0059980Y0148311D02*
X0064500Y0148311D01*
X0064500Y0148809D02*
X0059935Y0148809D01*
X0059729Y0149308D02*
X0064500Y0149308D01*
X0064500Y0149806D02*
X0059522Y0149806D01*
X0059154Y0150305D02*
X0064500Y0150305D01*
X0064500Y0150803D02*
X0059000Y0150803D01*
X0059000Y0151302D02*
X0064500Y0151302D01*
X0064500Y0151800D02*
X0059000Y0151800D01*
X0059000Y0152299D02*
X0064500Y0152299D01*
X0064500Y0152797D02*
X0059272Y0152797D01*
X0059771Y0153296D02*
X0064500Y0153296D01*
X0064500Y0153794D02*
X0060269Y0153794D01*
X0060768Y0154293D02*
X0064500Y0154293D01*
X0064500Y0154791D02*
X0061266Y0154791D01*
X0061765Y0155290D02*
X0064500Y0155290D01*
X0064500Y0155789D02*
X0062263Y0155789D01*
X0062762Y0156287D02*
X0064500Y0156287D01*
X0064500Y0156786D02*
X0063260Y0156786D01*
X0063759Y0157284D02*
X0064500Y0157284D01*
X0064500Y0157783D02*
X0064000Y0157783D01*
X0064000Y0158281D02*
X0064500Y0158281D01*
X0064500Y0158780D02*
X0064000Y0158780D01*
X0064000Y0159278D02*
X0064500Y0159278D01*
X0064500Y0159777D02*
X0064000Y0159777D01*
X0064000Y0160275D02*
X0064500Y0160275D01*
X0064500Y0160774D02*
X0064000Y0160774D01*
X0064000Y0161272D02*
X0064500Y0161272D01*
X0064500Y0161771D02*
X0064000Y0161771D01*
X0064000Y0162269D02*
X0064500Y0162269D01*
X0064500Y0162768D02*
X0064000Y0162768D01*
X0064000Y0163266D02*
X0064500Y0163266D01*
X0064500Y0163765D02*
X0064000Y0163765D01*
X0064000Y0164263D02*
X0064500Y0164263D01*
X0064500Y0164762D02*
X0064000Y0164762D01*
X0064000Y0165260D02*
X0064500Y0165260D01*
X0064500Y0165759D02*
X0064000Y0165759D01*
X0064000Y0166257D02*
X0064500Y0166257D01*
X0064500Y0166756D02*
X0064000Y0166756D01*
X0064000Y0167254D02*
X0064500Y0167254D01*
X0064500Y0167753D02*
X0064000Y0167753D01*
X0064000Y0168251D02*
X0064500Y0168251D01*
X0064500Y0168750D02*
X0064000Y0168750D01*
X0064000Y0169248D02*
X0064500Y0169248D01*
X0064500Y0169747D02*
X0064000Y0169747D01*
X0064000Y0170245D02*
X0064500Y0170245D01*
X0064500Y0170744D02*
X0064000Y0170744D01*
X0064000Y0171242D02*
X0064500Y0171242D01*
X0064500Y0171741D02*
X0064000Y0171741D01*
X0064000Y0172239D02*
X0064500Y0172239D01*
X0064500Y0172738D02*
X0064000Y0172738D01*
X0064000Y0173236D02*
X0064500Y0173236D01*
X0064500Y0173735D02*
X0064000Y0173735D01*
X0064000Y0174233D02*
X0064500Y0174233D01*
X0064500Y0174732D02*
X0064000Y0174732D01*
X0064000Y0175230D02*
X0064500Y0175230D01*
X0064500Y0175729D02*
X0064167Y0175729D01*
X0064458Y0176227D02*
X0064500Y0176227D01*
X0051500Y0178093D02*
X0047684Y0181909D01*
X0044807Y0181909D01*
X0044807Y0174610D01*
X0044307Y0174610D01*
X0044307Y0181909D01*
X0043000Y0181909D01*
X0043000Y0196025D01*
X0043525Y0195500D01*
X0051500Y0187525D01*
X0051500Y0178093D01*
X0051500Y0178222D02*
X0051372Y0178222D01*
X0051500Y0178720D02*
X0050873Y0178720D01*
X0050375Y0179219D02*
X0051500Y0179219D01*
X0051500Y0179717D02*
X0049876Y0179717D01*
X0049378Y0180216D02*
X0051500Y0180216D01*
X0051500Y0180714D02*
X0048879Y0180714D01*
X0048381Y0181213D02*
X0051500Y0181213D01*
X0051500Y0181711D02*
X0047882Y0181711D01*
X0044807Y0181711D02*
X0044307Y0181711D01*
X0044307Y0181213D02*
X0044807Y0181213D01*
X0044807Y0180714D02*
X0044307Y0180714D01*
X0044307Y0180216D02*
X0044807Y0180216D01*
X0044807Y0179717D02*
X0044307Y0179717D01*
X0044307Y0179219D02*
X0044807Y0179219D01*
X0044807Y0178720D02*
X0044307Y0178720D01*
X0044307Y0178222D02*
X0044807Y0178222D01*
X0044807Y0177723D02*
X0044307Y0177723D01*
X0044307Y0177224D02*
X0044807Y0177224D01*
X0044807Y0176726D02*
X0044307Y0176726D01*
X0044307Y0176227D02*
X0044807Y0176227D01*
X0044807Y0175729D02*
X0044307Y0175729D01*
X0044307Y0175230D02*
X0044807Y0175230D01*
X0044807Y0174732D02*
X0044307Y0174732D01*
X0044307Y0173735D02*
X0044807Y0173735D01*
X0044807Y0173236D02*
X0044307Y0173236D01*
X0044307Y0172738D02*
X0044807Y0172738D01*
X0044807Y0172239D02*
X0044307Y0172239D01*
X0044307Y0171741D02*
X0044807Y0171741D01*
X0044807Y0171242D02*
X0044307Y0171242D01*
X0044307Y0170744D02*
X0044807Y0170744D01*
X0044807Y0170245D02*
X0044307Y0170245D01*
X0044307Y0169747D02*
X0044807Y0169747D01*
X0044807Y0169248D02*
X0044307Y0169248D01*
X0044307Y0168750D02*
X0044807Y0168750D01*
X0044807Y0168251D02*
X0044307Y0168251D01*
X0044307Y0167753D02*
X0044807Y0167753D01*
X0044807Y0167254D02*
X0044307Y0167254D01*
X0043096Y0156287D02*
X0042000Y0156287D01*
X0042000Y0155789D02*
X0042255Y0155789D01*
X0034500Y0161272D02*
X0034243Y0161272D01*
X0034500Y0161771D02*
X0003468Y0161771D01*
X0003468Y0162269D02*
X0034500Y0162269D01*
X0034500Y0162768D02*
X0003468Y0162768D01*
X0003468Y0163266D02*
X0034500Y0163266D01*
X0034500Y0163765D02*
X0003468Y0163765D01*
X0003468Y0164263D02*
X0034500Y0164263D01*
X0034500Y0164762D02*
X0003468Y0164762D01*
X0003468Y0165260D02*
X0034500Y0165260D01*
X0034500Y0165759D02*
X0003468Y0165759D01*
X0003468Y0166257D02*
X0034500Y0166257D01*
X0031249Y0161272D02*
X0003468Y0161272D01*
X0003468Y0160774D02*
X0030429Y0160774D01*
X0029930Y0160275D02*
X0003468Y0160275D01*
X0003468Y0159777D02*
X0029579Y0159777D01*
X0029373Y0159278D02*
X0003468Y0159278D01*
X0003468Y0158780D02*
X0018305Y0158780D01*
X0017806Y0158281D02*
X0003468Y0158281D01*
X0003468Y0157783D02*
X0017308Y0157783D01*
X0016809Y0157284D02*
X0003468Y0157284D01*
X0003468Y0156786D02*
X0016311Y0156786D01*
X0015812Y0156287D02*
X0003468Y0156287D01*
X0003468Y0155789D02*
X0015314Y0155789D01*
X0014815Y0155290D02*
X0003468Y0155290D01*
X0003468Y0154791D02*
X0014317Y0154791D01*
X0013818Y0154293D02*
X0003468Y0154293D01*
X0003468Y0153794D02*
X0013320Y0153794D01*
X0012821Y0153296D02*
X0003468Y0153296D01*
X0003468Y0152797D02*
X0012323Y0152797D01*
X0011824Y0152299D02*
X0003468Y0152299D01*
X0003468Y0151800D02*
X0011326Y0151800D01*
X0010827Y0151302D02*
X0003468Y0151302D01*
X0003468Y0150803D02*
X0010329Y0150803D01*
X0009830Y0150305D02*
X0003468Y0150305D01*
X0003468Y0149806D02*
X0009332Y0149806D01*
X0008833Y0149308D02*
X0003468Y0149308D01*
X0003468Y0148809D02*
X0008334Y0148809D01*
X0007836Y0148311D02*
X0003468Y0148311D01*
X0003468Y0147812D02*
X0007500Y0147812D01*
X0007500Y0147314D02*
X0003468Y0147314D01*
X0003468Y0146815D02*
X0007500Y0146815D01*
X0007500Y0146317D02*
X0003468Y0146317D01*
X0003468Y0145818D02*
X0007500Y0145818D01*
X0007500Y0145320D02*
X0003468Y0145320D01*
X0003468Y0144821D02*
X0007500Y0144821D01*
X0007500Y0144323D02*
X0003468Y0144323D01*
X0003468Y0143824D02*
X0007500Y0143824D01*
X0007500Y0143326D02*
X0003468Y0143326D01*
X0003468Y0142827D02*
X0007500Y0142827D01*
X0007500Y0142329D02*
X0003468Y0142329D01*
X0003468Y0141830D02*
X0007500Y0141830D01*
X0007500Y0141332D02*
X0003468Y0141332D01*
X0003468Y0140833D02*
X0007500Y0140833D01*
X0007500Y0140335D02*
X0003468Y0140335D01*
X0003468Y0139836D02*
X0007500Y0139836D01*
X0007500Y0139338D02*
X0003468Y0139338D01*
X0003468Y0138839D02*
X0007500Y0138839D01*
X0007500Y0138341D02*
X0003468Y0138341D01*
X0003468Y0137842D02*
X0007500Y0137842D01*
X0007500Y0137344D02*
X0003468Y0137344D01*
X0003468Y0136845D02*
X0007500Y0136845D01*
X0007500Y0136347D02*
X0003468Y0136347D01*
X0003468Y0135848D02*
X0007500Y0135848D01*
X0007500Y0135350D02*
X0003468Y0135350D01*
X0003468Y0134851D02*
X0007500Y0134851D01*
X0007500Y0134353D02*
X0003468Y0134353D01*
X0003468Y0133854D02*
X0007500Y0133854D01*
X0007500Y0133355D02*
X0003468Y0133355D01*
X0003468Y0132857D02*
X0007500Y0132857D01*
X0007500Y0132358D02*
X0003468Y0132358D01*
X0003468Y0131860D02*
X0007500Y0131860D01*
X0007500Y0131361D02*
X0003468Y0131361D01*
X0003468Y0130863D02*
X0007500Y0130863D01*
X0007500Y0130364D02*
X0003468Y0130364D01*
X0003468Y0129866D02*
X0007500Y0129866D01*
X0007500Y0129367D02*
X0003468Y0129367D01*
X0003468Y0128869D02*
X0007500Y0128869D01*
X0007500Y0128370D02*
X0003468Y0128370D01*
X0003468Y0127872D02*
X0007500Y0127872D01*
X0007500Y0127373D02*
X0003468Y0127373D01*
X0003468Y0126875D02*
X0007500Y0126875D01*
X0007500Y0126376D02*
X0003468Y0126376D01*
X0003468Y0125878D02*
X0007500Y0125878D01*
X0007500Y0125379D02*
X0003468Y0125379D01*
X0003468Y0124881D02*
X0007500Y0124881D01*
X0007500Y0124382D02*
X0003468Y0124382D01*
X0003468Y0123884D02*
X0007500Y0123884D01*
X0007500Y0123385D02*
X0003468Y0123385D01*
X0003468Y0122887D02*
X0007500Y0122887D01*
X0007500Y0122388D02*
X0003468Y0122388D01*
X0003468Y0121890D02*
X0007500Y0121890D01*
X0007500Y0121391D02*
X0003468Y0121391D01*
X0003468Y0120893D02*
X0007500Y0120893D01*
X0007500Y0120394D02*
X0003468Y0120394D01*
X0003468Y0119896D02*
X0007500Y0119896D01*
X0007500Y0119397D02*
X0003468Y0119397D01*
X0003468Y0118899D02*
X0007500Y0118899D01*
X0007500Y0118400D02*
X0003468Y0118400D01*
X0003468Y0117902D02*
X0007500Y0117902D01*
X0007500Y0117403D02*
X0003468Y0117403D01*
X0003468Y0116905D02*
X0007500Y0116905D01*
X0007500Y0116406D02*
X0003468Y0116406D01*
X0003468Y0115908D02*
X0007500Y0115908D01*
X0007500Y0115409D02*
X0003468Y0115409D01*
X0003468Y0114911D02*
X0007500Y0114911D01*
X0007500Y0114412D02*
X0003468Y0114412D01*
X0003468Y0113914D02*
X0007500Y0113914D01*
X0007500Y0113415D02*
X0003468Y0113415D01*
X0003468Y0112917D02*
X0007500Y0112917D01*
X0007500Y0112418D02*
X0003468Y0112418D01*
X0003468Y0111920D02*
X0007500Y0111920D01*
X0007500Y0111421D02*
X0003468Y0111421D01*
X0003468Y0110922D02*
X0007500Y0110922D01*
X0007500Y0110424D02*
X0003468Y0110424D01*
X0003468Y0109925D02*
X0007500Y0109925D01*
X0007500Y0109427D02*
X0003468Y0109427D01*
X0003468Y0108928D02*
X0007500Y0108928D01*
X0007500Y0108430D02*
X0003468Y0108430D01*
X0003468Y0107931D02*
X0007500Y0107931D01*
X0007500Y0107433D02*
X0003468Y0107433D01*
X0003468Y0106934D02*
X0007500Y0106934D01*
X0007500Y0106436D02*
X0003468Y0106436D01*
X0003468Y0105937D02*
X0007500Y0105937D01*
X0007500Y0105439D02*
X0003468Y0105439D01*
X0003468Y0104940D02*
X0007500Y0104940D01*
X0007500Y0104442D02*
X0003468Y0104442D01*
X0003468Y0103943D02*
X0007500Y0103943D01*
X0007500Y0103445D02*
X0003468Y0103445D01*
X0003468Y0102946D02*
X0007500Y0102946D01*
X0007500Y0102448D02*
X0003468Y0102448D01*
X0003468Y0101949D02*
X0007500Y0101949D01*
X0007500Y0101451D02*
X0003468Y0101451D01*
X0003468Y0100952D02*
X0007500Y0100952D01*
X0007500Y0100454D02*
X0003468Y0100454D01*
X0003468Y0099955D02*
X0007500Y0099955D01*
X0007500Y0099457D02*
X0003468Y0099457D01*
X0003468Y0098958D02*
X0007500Y0098958D01*
X0007500Y0098460D02*
X0003468Y0098460D01*
X0003468Y0097961D02*
X0007500Y0097961D01*
X0007500Y0097463D02*
X0003468Y0097463D01*
X0003468Y0096964D02*
X0007500Y0096964D01*
X0007500Y0096466D02*
X0003468Y0096466D01*
X0003468Y0095967D02*
X0007500Y0095967D01*
X0007500Y0095469D02*
X0003468Y0095469D01*
X0003468Y0094970D02*
X0007500Y0094970D01*
X0007500Y0094472D02*
X0003468Y0094472D01*
X0003468Y0093973D02*
X0007500Y0093973D01*
X0007500Y0093475D02*
X0003468Y0093475D01*
X0003468Y0092976D02*
X0007500Y0092976D01*
X0007500Y0092478D02*
X0003468Y0092478D01*
X0003468Y0091979D02*
X0007500Y0091979D01*
X0007500Y0091481D02*
X0003468Y0091481D01*
X0003468Y0090982D02*
X0007500Y0090982D01*
X0007500Y0090484D02*
X0003468Y0090484D01*
X0003468Y0089985D02*
X0007500Y0089985D01*
X0007500Y0089487D02*
X0003468Y0089487D01*
X0003468Y0088988D02*
X0007500Y0088988D01*
X0007500Y0088489D02*
X0003468Y0088489D01*
X0003468Y0087991D02*
X0007500Y0087991D01*
X0007500Y0087492D02*
X0003468Y0087492D01*
X0003468Y0086994D02*
X0007500Y0086994D01*
X0007500Y0086495D02*
X0003468Y0086495D01*
X0003468Y0085997D02*
X0007500Y0085997D01*
X0007500Y0085498D02*
X0003468Y0085498D01*
X0003468Y0085000D02*
X0007500Y0085000D01*
X0007500Y0084501D02*
X0003468Y0084501D01*
X0003468Y0084003D02*
X0007500Y0084003D01*
X0007500Y0083504D02*
X0003468Y0083504D01*
X0003468Y0083006D02*
X0007500Y0083006D01*
X0007500Y0082507D02*
X0003468Y0082507D01*
X0003468Y0082009D02*
X0007500Y0082009D01*
X0007500Y0081510D02*
X0003468Y0081510D01*
X0003468Y0081012D02*
X0007500Y0081012D01*
X0007500Y0080513D02*
X0003468Y0080513D01*
X0003468Y0080015D02*
X0007500Y0080015D01*
X0007500Y0079516D02*
X0003468Y0079516D01*
X0003468Y0079018D02*
X0007500Y0079018D01*
X0007500Y0078519D02*
X0003468Y0078519D01*
X0003468Y0078021D02*
X0007500Y0078021D01*
X0007500Y0077522D02*
X0003468Y0077522D01*
X0003468Y0077024D02*
X0007500Y0077024D01*
X0007500Y0076525D02*
X0003468Y0076525D01*
X0003468Y0076027D02*
X0007500Y0076027D01*
X0007500Y0075528D02*
X0003468Y0075528D01*
X0003468Y0075030D02*
X0007500Y0075030D01*
X0007500Y0074531D02*
X0003468Y0074531D01*
X0003468Y0074033D02*
X0007500Y0074033D01*
X0007500Y0073534D02*
X0003468Y0073534D01*
X0003468Y0073036D02*
X0007500Y0073036D01*
X0007500Y0072537D02*
X0003468Y0072537D01*
X0003468Y0072039D02*
X0007500Y0072039D01*
X0007500Y0071540D02*
X0003468Y0071540D01*
X0003468Y0071042D02*
X0007500Y0071042D01*
X0007500Y0070543D02*
X0003468Y0070543D01*
X0003468Y0070045D02*
X0007500Y0070045D01*
X0007500Y0069546D02*
X0003468Y0069546D01*
X0003468Y0069048D02*
X0007500Y0069048D01*
X0007500Y0068549D02*
X0003468Y0068549D01*
X0003468Y0068051D02*
X0007500Y0068051D01*
X0007500Y0067552D02*
X0003468Y0067552D01*
X0003468Y0067053D02*
X0007500Y0067053D01*
X0007500Y0066555D02*
X0003468Y0066555D01*
X0003468Y0066056D02*
X0007500Y0066056D01*
X0007500Y0065558D02*
X0003468Y0065558D01*
X0003468Y0065059D02*
X0007500Y0065059D01*
X0007500Y0064561D02*
X0003468Y0064561D01*
X0003468Y0064062D02*
X0007500Y0064062D01*
X0007500Y0063564D02*
X0003468Y0063564D01*
X0003468Y0063065D02*
X0007500Y0063065D01*
X0007500Y0062567D02*
X0003468Y0062567D01*
X0003468Y0062068D02*
X0007957Y0062068D01*
X0008455Y0061570D02*
X0003468Y0061570D01*
X0003468Y0061071D02*
X0008954Y0061071D01*
X0009452Y0060573D02*
X0003468Y0060573D01*
X0003468Y0060074D02*
X0009951Y0060074D01*
X0010449Y0059576D02*
X0003468Y0059576D01*
X0003468Y0059077D02*
X0010948Y0059077D01*
X0011446Y0058579D02*
X0003468Y0058579D01*
X0003468Y0058080D02*
X0011945Y0058080D01*
X0012443Y0057582D02*
X0003468Y0057582D01*
X0003468Y0057083D02*
X0012942Y0057083D01*
X0013440Y0056585D02*
X0003468Y0056585D01*
X0003468Y0056086D02*
X0013939Y0056086D01*
X0014437Y0055588D02*
X0003468Y0055588D01*
X0003468Y0055089D02*
X0014936Y0055089D01*
X0015434Y0054591D02*
X0003468Y0054591D01*
X0003468Y0054092D02*
X0015933Y0054092D01*
X0016431Y0053594D02*
X0003468Y0053594D01*
X0003468Y0053095D02*
X0016930Y0053095D01*
X0017428Y0052597D02*
X0003468Y0052597D01*
X0003468Y0052098D02*
X0017927Y0052098D01*
X0018425Y0051600D02*
X0003468Y0051600D01*
X0003468Y0051101D02*
X0018924Y0051101D01*
X0019423Y0050603D02*
X0003468Y0050603D01*
X0003468Y0050104D02*
X0019921Y0050104D01*
X0020420Y0049606D02*
X0003468Y0049606D01*
X0003468Y0049107D02*
X0020918Y0049107D01*
X0021417Y0048609D02*
X0003468Y0048609D01*
X0003468Y0048110D02*
X0021915Y0048110D01*
X0022414Y0047612D02*
X0003468Y0047612D01*
X0003468Y0047113D02*
X0022912Y0047113D01*
X0023411Y0046615D02*
X0003468Y0046615D01*
X0003468Y0046116D02*
X0023909Y0046116D01*
X0024408Y0045618D02*
X0003468Y0045618D01*
X0003468Y0045119D02*
X0024906Y0045119D01*
X0025405Y0044620D02*
X0003468Y0044620D01*
X0003468Y0044122D02*
X0025903Y0044122D01*
X0026402Y0043623D02*
X0003468Y0043623D01*
X0003468Y0043125D02*
X0026900Y0043125D01*
X0027399Y0042626D02*
X0003468Y0042626D01*
X0003468Y0042128D02*
X0027897Y0042128D01*
X0028396Y0041629D02*
X0003468Y0041629D01*
X0003468Y0041131D02*
X0028894Y0041131D01*
X0029393Y0040632D02*
X0003468Y0040632D01*
X0003468Y0040134D02*
X0029891Y0040134D01*
X0030390Y0039635D02*
X0003468Y0039635D01*
X0003468Y0039137D02*
X0030888Y0039137D01*
X0031387Y0038638D02*
X0003468Y0038638D01*
X0003468Y0038140D02*
X0031885Y0038140D01*
X0032384Y0037641D02*
X0003468Y0037641D01*
X0003468Y0037143D02*
X0032882Y0037143D01*
X0033381Y0036644D02*
X0003468Y0036644D01*
X0003468Y0036146D02*
X0033879Y0036146D01*
X0034378Y0035647D02*
X0003468Y0035647D01*
X0003468Y0035149D02*
X0034876Y0035149D01*
X0035375Y0034650D02*
X0003468Y0034650D01*
X0003468Y0034152D02*
X0035873Y0034152D01*
X0036372Y0033653D02*
X0003468Y0033653D01*
X0003468Y0033155D02*
X0036870Y0033155D01*
X0037369Y0032656D02*
X0003468Y0032656D01*
X0003468Y0032158D02*
X0037867Y0032158D01*
X0038366Y0031659D02*
X0003468Y0031659D01*
X0003468Y0031161D02*
X0038864Y0031161D01*
X0039363Y0030662D02*
X0003468Y0030662D01*
X0003468Y0030164D02*
X0039861Y0030164D01*
X0040360Y0029665D02*
X0003468Y0029665D01*
X0003468Y0029167D02*
X0040858Y0029167D01*
X0041357Y0028668D02*
X0003468Y0028668D01*
X0003468Y0028170D02*
X0041856Y0028170D01*
X0042354Y0027671D02*
X0003468Y0027671D01*
X0003468Y0027173D02*
X0042853Y0027173D01*
X0043351Y0026674D02*
X0003468Y0026674D01*
X0003468Y0026176D02*
X0043850Y0026176D01*
X0044348Y0025677D02*
X0003468Y0025677D01*
X0003468Y0025179D02*
X0044847Y0025179D01*
X0045345Y0024680D02*
X0003468Y0024680D01*
X0003468Y0024182D02*
X0045844Y0024182D01*
X0046342Y0023683D02*
X0003468Y0023683D01*
X0003468Y0023184D02*
X0046841Y0023184D01*
X0047339Y0022686D02*
X0003468Y0022686D01*
X0003468Y0022187D02*
X0047838Y0022187D01*
X0048336Y0021689D02*
X0003468Y0021689D01*
X0003468Y0021190D02*
X0010429Y0021190D01*
X0011367Y0021579D02*
X0008236Y0020282D01*
X0005840Y0017886D01*
X0004543Y0014755D01*
X0004543Y0011367D01*
X0005840Y0008236D01*
X0008236Y0005840D01*
X0011367Y0004543D01*
X0014755Y0004543D01*
X0017886Y0005840D01*
X0020282Y0008236D01*
X0021579Y0011367D01*
X0021579Y0014755D01*
X0020282Y0017886D01*
X0017886Y0020282D01*
X0014755Y0021579D01*
X0011367Y0021579D01*
X0009226Y0020692D02*
X0003468Y0020692D01*
X0003468Y0020193D02*
X0008148Y0020193D01*
X0007649Y0019695D02*
X0003468Y0019695D01*
X0003468Y0019196D02*
X0007151Y0019196D01*
X0006652Y0018698D02*
X0003468Y0018698D01*
X0003468Y0018199D02*
X0006154Y0018199D01*
X0005763Y0017701D02*
X0003468Y0017701D01*
X0003468Y0017202D02*
X0005557Y0017202D01*
X0005350Y0016704D02*
X0003468Y0016704D01*
X0003468Y0016205D02*
X0005144Y0016205D01*
X0004937Y0015707D02*
X0003468Y0015707D01*
X0003468Y0015208D02*
X0004731Y0015208D01*
X0004543Y0014710D02*
X0003468Y0014710D01*
X0003468Y0014211D02*
X0004543Y0014211D01*
X0004543Y0013713D02*
X0003468Y0013713D01*
X0003468Y0013214D02*
X0004543Y0013214D01*
X0004543Y0012716D02*
X0003468Y0012716D01*
X0003468Y0012217D02*
X0004543Y0012217D01*
X0004543Y0011719D02*
X0003468Y0011719D01*
X0003468Y0011220D02*
X0004604Y0011220D01*
X0004810Y0010722D02*
X0003468Y0010722D01*
X0003468Y0010223D02*
X0005017Y0010223D01*
X0005223Y0009725D02*
X0003468Y0009725D01*
X0003468Y0009226D02*
X0005430Y0009226D01*
X0005636Y0008728D02*
X0003468Y0008728D01*
X0003468Y0008229D02*
X0005847Y0008229D01*
X0006346Y0007731D02*
X0003468Y0007731D01*
X0003468Y0007232D02*
X0006844Y0007232D01*
X0007343Y0006734D02*
X0003468Y0006734D01*
X0003468Y0006235D02*
X0007841Y0006235D01*
X0008486Y0005737D02*
X0003468Y0005737D01*
X0003468Y0005238D02*
X0009689Y0005238D01*
X0010893Y0004740D02*
X0003468Y0004740D01*
X0003468Y0004241D02*
X0107821Y0004241D01*
X0107322Y0004740D02*
X0106214Y0004740D01*
X0106713Y0005238D02*
X0107038Y0005238D01*
X0110679Y0004241D02*
X0184071Y0004241D01*
X0184071Y0003743D02*
X0003468Y0003743D01*
X0015229Y0004740D02*
X0065286Y0004740D01*
X0064787Y0005238D02*
X0016433Y0005238D01*
X0017636Y0005737D02*
X0064289Y0005737D01*
X0063790Y0006235D02*
X0018281Y0006235D01*
X0018779Y0006734D02*
X0063291Y0006734D01*
X0062793Y0007232D02*
X0019278Y0007232D01*
X0019777Y0007731D02*
X0062294Y0007731D01*
X0061796Y0008229D02*
X0020275Y0008229D01*
X0020486Y0008728D02*
X0061297Y0008728D01*
X0060799Y0009226D02*
X0020692Y0009226D01*
X0020899Y0009725D02*
X0060300Y0009725D01*
X0059802Y0010223D02*
X0021105Y0010223D01*
X0021312Y0010722D02*
X0059303Y0010722D01*
X0058805Y0011220D02*
X0021518Y0011220D01*
X0021579Y0011719D02*
X0058306Y0011719D01*
X0057808Y0012217D02*
X0021579Y0012217D01*
X0021579Y0012716D02*
X0057309Y0012716D01*
X0056811Y0013214D02*
X0021579Y0013214D01*
X0021579Y0013713D02*
X0056312Y0013713D01*
X0055814Y0014211D02*
X0021579Y0014211D01*
X0021579Y0014710D02*
X0055315Y0014710D01*
X0054817Y0015208D02*
X0021391Y0015208D01*
X0021185Y0015707D02*
X0054318Y0015707D01*
X0053820Y0016205D02*
X0020978Y0016205D01*
X0020772Y0016704D02*
X0053321Y0016704D01*
X0052823Y0017202D02*
X0020565Y0017202D01*
X0020359Y0017701D02*
X0052324Y0017701D01*
X0051826Y0018199D02*
X0019969Y0018199D01*
X0019470Y0018698D02*
X0051327Y0018698D01*
X0050829Y0019196D02*
X0018971Y0019196D01*
X0018473Y0019695D02*
X0050330Y0019695D01*
X0049832Y0020193D02*
X0017974Y0020193D01*
X0016896Y0020692D02*
X0049333Y0020692D01*
X0048835Y0021190D02*
X0015693Y0021190D01*
X0035369Y0049606D02*
X0059500Y0049606D01*
X0059500Y0050104D02*
X0034871Y0050104D01*
X0034372Y0050603D02*
X0059500Y0050603D01*
X0059500Y0051101D02*
X0033874Y0051101D01*
X0033375Y0051600D02*
X0059500Y0051600D01*
X0059500Y0052098D02*
X0032877Y0052098D01*
X0032378Y0052597D02*
X0059500Y0052597D01*
X0059500Y0053095D02*
X0031880Y0053095D01*
X0031381Y0053594D02*
X0059500Y0053594D01*
X0059500Y0054092D02*
X0030883Y0054092D01*
X0030384Y0054591D02*
X0059471Y0054591D01*
X0059500Y0054562D02*
X0059500Y0026525D01*
X0063907Y0022118D01*
X0063780Y0021810D01*
X0063780Y0021195D01*
X0014000Y0070975D01*
X0014000Y0107863D01*
X0017808Y0104055D01*
X0020685Y0104055D01*
X0020685Y0111354D01*
X0021185Y0111354D01*
X0021185Y0104055D01*
X0024062Y0104055D01*
X0028484Y0108477D01*
X0028484Y0111354D01*
X0021185Y0111354D01*
X0021185Y0111854D01*
X0028484Y0111854D01*
X0028484Y0114731D01*
X0024062Y0119154D01*
X0021185Y0119154D01*
X0021185Y0111854D01*
X0020685Y0111854D01*
X0020685Y0119154D01*
X0019628Y0119154D01*
X0022000Y0121525D01*
X0022000Y0129514D01*
X0022981Y0129920D01*
X0023997Y0130936D01*
X0024547Y0132264D01*
X0024547Y0133478D01*
X0029190Y0128835D01*
X0029134Y0128701D01*
X0029134Y0127264D01*
X0029684Y0125936D01*
X0030700Y0124920D01*
X0032028Y0124370D01*
X0033465Y0124370D01*
X0034792Y0124920D01*
X0035808Y0125936D01*
X0036358Y0127264D01*
X0036358Y0128701D01*
X0035808Y0130028D01*
X0034792Y0131045D01*
X0033465Y0131594D01*
X0032028Y0131594D01*
X0031570Y0131405D01*
X0024000Y0138975D01*
X0023018Y0139957D01*
X0023997Y0140936D01*
X0024547Y0142264D01*
X0024547Y0143701D01*
X0023997Y0145028D01*
X0022981Y0146045D01*
X0021654Y0146594D01*
X0020217Y0146594D01*
X0018889Y0146045D01*
X0017873Y0145028D01*
X0017323Y0143701D01*
X0017323Y0142652D01*
X0014681Y0145294D01*
X0014681Y0145734D01*
X0014311Y0146627D01*
X0013627Y0147311D01*
X0012734Y0147681D01*
X0012156Y0147681D01*
X0017323Y0152848D01*
X0017323Y0152264D01*
X0017873Y0150936D01*
X0018889Y0149920D01*
X0020217Y0149370D01*
X0021654Y0149370D01*
X0021655Y0149371D01*
X0029500Y0141525D01*
X0030340Y0140685D01*
X0029684Y0140028D01*
X0029134Y0138701D01*
X0029134Y0137264D01*
X0029684Y0135936D01*
X0030700Y0134920D01*
X0032028Y0134370D01*
X0033465Y0134370D01*
X0034792Y0134920D01*
X0035808Y0135936D01*
X0036358Y0137264D01*
X0036358Y0137667D01*
X0036500Y0137525D01*
X0036500Y0128525D01*
X0045872Y0119154D01*
X0044807Y0119154D01*
X0044807Y0111854D01*
X0052106Y0111854D01*
X0052106Y0112919D01*
X0066819Y0098206D01*
X0066819Y0097766D01*
X0067189Y0096873D01*
X0067873Y0096189D01*
X0068766Y0095819D01*
X0069734Y0095819D01*
X0070627Y0096189D01*
X0071311Y0096873D01*
X0071681Y0097766D01*
X0071681Y0098734D01*
X0071311Y0099627D01*
X0070627Y0100311D01*
X0069734Y0100681D01*
X0069294Y0100681D01*
X0065475Y0104500D01*
X0076509Y0104500D01*
X0076969Y0103389D01*
X0078389Y0101969D01*
X0080125Y0101250D01*
X0078389Y0100531D01*
X0076969Y0099111D01*
X0076200Y0097255D01*
X0076200Y0095245D01*
X0076660Y0094135D01*
X0065000Y0082475D01*
X0065000Y0089975D01*
X0063975Y0091000D01*
X0062000Y0092975D01*
X0062000Y0094562D01*
X0062311Y0094873D01*
X0062681Y0095766D01*
X0062681Y0096734D01*
X0062311Y0097627D01*
X0061627Y0098311D01*
X0060734Y0098681D01*
X0059766Y0098681D01*
X0058873Y0098311D01*
X0058189Y0097627D01*
X0057819Y0096734D01*
X0057819Y0095766D01*
X0058189Y0094873D01*
X0058500Y0094562D01*
X0058500Y0093254D01*
X0055700Y0094413D01*
X0052312Y0094413D01*
X0049181Y0093117D01*
X0046785Y0090721D01*
X0045488Y0087590D01*
X0045488Y0084201D01*
X0046785Y0081071D01*
X0049181Y0078675D01*
X0052312Y0077378D01*
X0054086Y0077378D01*
X0053819Y0076734D01*
X0053819Y0075766D01*
X0054189Y0074873D01*
X0054873Y0074189D01*
X0055766Y0073819D01*
X0056734Y0073819D01*
X0057627Y0074189D01*
X0057932Y0074494D01*
X0058189Y0073873D01*
X0058873Y0073189D01*
X0059766Y0072819D01*
X0060734Y0072819D01*
X0061627Y0073189D01*
X0062311Y0073873D01*
X0062681Y0074766D01*
X0062681Y0075206D01*
X0079135Y0091660D01*
X0080125Y0091250D01*
X0078389Y0090531D01*
X0076969Y0089111D01*
X0076200Y0087255D01*
X0076200Y0085245D01*
X0076969Y0083389D01*
X0078389Y0081969D01*
X0080125Y0081250D01*
X0078389Y0080531D01*
X0076969Y0079111D01*
X0076200Y0077255D01*
X0076200Y0075245D01*
X0076969Y0073389D01*
X0078389Y0071969D01*
X0080125Y0071250D01*
X0078389Y0070531D01*
X0076969Y0069111D01*
X0076200Y0067255D01*
X0076200Y0065775D01*
X0075975Y0066000D01*
X0074681Y0067294D01*
X0074681Y0067734D01*
X0074311Y0068627D01*
X0073627Y0069311D01*
X0072734Y0069681D01*
X0071766Y0069681D01*
X0070873Y0069311D01*
X0070189Y0068627D01*
X0069943Y0068032D01*
X0068681Y0069294D01*
X0068681Y0069734D01*
X0068311Y0070627D01*
X0067627Y0071311D01*
X0066734Y0071681D01*
X0065766Y0071681D01*
X0064873Y0071311D01*
X0064189Y0070627D01*
X0063819Y0069734D01*
X0063819Y0068766D01*
X0064189Y0067873D01*
X0064873Y0067189D01*
X0065766Y0066819D01*
X0066206Y0066819D01*
X0068429Y0064596D01*
X0068429Y0060555D01*
X0067929Y0060555D01*
X0067929Y0060055D01*
X0063780Y0060055D01*
X0063780Y0059959D01*
X0063888Y0059275D01*
X0064102Y0058616D01*
X0064416Y0057999D01*
X0064823Y0057439D01*
X0065313Y0056949D01*
X0065873Y0056542D01*
X0066203Y0056374D01*
X0065687Y0056161D01*
X0064449Y0054923D01*
X0063780Y0053306D01*
X0063780Y0051556D01*
X0064449Y0049939D01*
X0065687Y0048701D01*
X0067304Y0048031D01*
X0069054Y0048031D01*
X0070671Y0048701D01*
X0071500Y0049530D01*
X0071500Y0039584D01*
X0070671Y0040413D01*
X0069054Y0041083D01*
X0067304Y0041083D01*
X0065687Y0040413D01*
X0064449Y0039175D01*
X0063780Y0037558D01*
X0063780Y0035808D01*
X0064449Y0034191D01*
X0065687Y0032953D01*
X0066203Y0032740D01*
X0065873Y0032572D01*
X0065313Y0032165D01*
X0064823Y0031675D01*
X0064416Y0031115D01*
X0064102Y0030498D01*
X0063888Y0029839D01*
X0063780Y0029155D01*
X0063780Y0029059D01*
X0067929Y0029059D01*
X0067929Y0028559D01*
X0063780Y0028559D01*
X0063780Y0028463D01*
X0063888Y0027779D01*
X0064102Y0027120D01*
X0064359Y0026616D01*
X0063000Y0027975D01*
X0063000Y0054562D01*
X0063311Y0054873D01*
X0063681Y0055766D01*
X0063681Y0056734D01*
X0063311Y0057627D01*
X0062627Y0058311D01*
X0061734Y0058681D01*
X0060766Y0058681D01*
X0059873Y0058311D01*
X0059189Y0057627D01*
X0058819Y0056734D01*
X0058819Y0055766D01*
X0059189Y0054873D01*
X0059500Y0054562D01*
X0059099Y0055089D02*
X0029886Y0055089D01*
X0029387Y0055588D02*
X0058893Y0055588D01*
X0058819Y0056086D02*
X0028889Y0056086D01*
X0028390Y0056585D02*
X0058819Y0056585D01*
X0058964Y0057083D02*
X0027892Y0057083D01*
X0027393Y0057582D02*
X0059170Y0057582D01*
X0059642Y0058080D02*
X0026895Y0058080D01*
X0026396Y0058579D02*
X0060519Y0058579D01*
X0061981Y0058579D02*
X0064121Y0058579D01*
X0063952Y0059077D02*
X0025898Y0059077D01*
X0025399Y0059576D02*
X0063840Y0059576D01*
X0063780Y0060555D02*
X0067929Y0060555D01*
X0067929Y0064705D01*
X0067833Y0064705D01*
X0067149Y0064596D01*
X0066490Y0064382D01*
X0065873Y0064068D01*
X0065313Y0063661D01*
X0064823Y0063171D01*
X0064416Y0062611D01*
X0064102Y0061994D01*
X0063888Y0061335D01*
X0063780Y0060651D01*
X0063780Y0060555D01*
X0063780Y0060573D02*
X0024402Y0060573D01*
X0023903Y0061071D02*
X0063846Y0061071D01*
X0063964Y0061570D02*
X0023405Y0061570D01*
X0022906Y0062068D02*
X0064140Y0062068D01*
X0064394Y0062567D02*
X0022408Y0062567D01*
X0021909Y0063065D02*
X0064746Y0063065D01*
X0065216Y0063564D02*
X0021411Y0063564D01*
X0020912Y0064062D02*
X0065866Y0064062D01*
X0067040Y0064561D02*
X0020414Y0064561D01*
X0019915Y0065059D02*
X0067966Y0065059D01*
X0067929Y0064561D02*
X0068429Y0064561D01*
X0068429Y0064062D02*
X0067929Y0064062D01*
X0067929Y0063564D02*
X0068429Y0063564D01*
X0068429Y0063065D02*
X0067929Y0063065D01*
X0067929Y0062567D02*
X0068429Y0062567D01*
X0068429Y0062068D02*
X0067929Y0062068D01*
X0067929Y0061570D02*
X0068429Y0061570D01*
X0068429Y0061071D02*
X0067929Y0061071D01*
X0067929Y0060573D02*
X0068429Y0060573D01*
X0067929Y0060074D02*
X0024901Y0060074D01*
X0019417Y0065558D02*
X0067467Y0065558D01*
X0066969Y0066056D02*
X0018918Y0066056D01*
X0018420Y0066555D02*
X0066470Y0066555D01*
X0065200Y0067053D02*
X0017921Y0067053D01*
X0017423Y0067552D02*
X0064510Y0067552D01*
X0064115Y0068051D02*
X0016924Y0068051D01*
X0016426Y0068549D02*
X0063909Y0068549D01*
X0063819Y0069048D02*
X0015927Y0069048D01*
X0015429Y0069546D02*
X0063819Y0069546D01*
X0063948Y0070045D02*
X0014930Y0070045D01*
X0014432Y0070543D02*
X0064154Y0070543D01*
X0064603Y0071042D02*
X0014000Y0071042D01*
X0014000Y0071540D02*
X0065426Y0071540D01*
X0067074Y0071540D02*
X0079424Y0071540D01*
X0079622Y0071042D02*
X0067896Y0071042D01*
X0068346Y0070543D02*
X0078418Y0070543D01*
X0077903Y0070045D02*
X0068552Y0070045D01*
X0068681Y0069546D02*
X0071440Y0069546D01*
X0070609Y0069048D02*
X0068927Y0069048D01*
X0069426Y0068549D02*
X0070157Y0068549D01*
X0069950Y0068051D02*
X0069924Y0068051D01*
X0073060Y0069546D02*
X0077404Y0069546D01*
X0076943Y0069048D02*
X0073891Y0069048D01*
X0074343Y0068549D02*
X0076736Y0068549D01*
X0076530Y0068051D02*
X0074550Y0068051D01*
X0074681Y0067552D02*
X0076323Y0067552D01*
X0076200Y0067053D02*
X0074921Y0067053D01*
X0075420Y0066555D02*
X0076200Y0066555D01*
X0076200Y0066056D02*
X0075918Y0066056D01*
X0078320Y0072039D02*
X0014000Y0072039D01*
X0014000Y0072537D02*
X0077821Y0072537D01*
X0077323Y0073036D02*
X0061257Y0073036D01*
X0061972Y0073534D02*
X0076909Y0073534D01*
X0076702Y0074033D02*
X0062377Y0074033D01*
X0062584Y0074531D02*
X0076496Y0074531D01*
X0076289Y0075030D02*
X0062681Y0075030D01*
X0063003Y0075528D02*
X0076200Y0075528D01*
X0076200Y0076027D02*
X0063502Y0076027D01*
X0064000Y0076525D02*
X0076200Y0076525D01*
X0076200Y0077024D02*
X0064499Y0077024D01*
X0064997Y0077522D02*
X0076311Y0077522D01*
X0076517Y0078021D02*
X0065496Y0078021D01*
X0065994Y0078519D02*
X0076724Y0078519D01*
X0076930Y0079018D02*
X0066493Y0079018D01*
X0066991Y0079516D02*
X0077374Y0079516D01*
X0077873Y0080015D02*
X0067490Y0080015D01*
X0067988Y0080513D02*
X0078372Y0080513D01*
X0079550Y0081012D02*
X0068487Y0081012D01*
X0068985Y0081510D02*
X0079496Y0081510D01*
X0078349Y0082009D02*
X0069484Y0082009D01*
X0069982Y0082507D02*
X0077851Y0082507D01*
X0077352Y0083006D02*
X0070481Y0083006D01*
X0070979Y0083504D02*
X0076921Y0083504D01*
X0076715Y0084003D02*
X0071478Y0084003D01*
X0071976Y0084501D02*
X0076508Y0084501D01*
X0076302Y0085000D02*
X0072475Y0085000D01*
X0072973Y0085498D02*
X0076200Y0085498D01*
X0076200Y0085997D02*
X0073472Y0085997D01*
X0073970Y0086495D02*
X0076200Y0086495D01*
X0076200Y0086994D02*
X0074469Y0086994D01*
X0074967Y0087492D02*
X0076299Y0087492D01*
X0076505Y0087991D02*
X0075466Y0087991D01*
X0075964Y0088489D02*
X0076712Y0088489D01*
X0076918Y0088988D02*
X0076463Y0088988D01*
X0076961Y0089487D02*
X0077345Y0089487D01*
X0077460Y0089985D02*
X0077843Y0089985D01*
X0077958Y0090484D02*
X0078342Y0090484D01*
X0078457Y0090982D02*
X0079478Y0090982D01*
X0079568Y0091481D02*
X0078955Y0091481D01*
X0076498Y0093973D02*
X0062000Y0093973D01*
X0062000Y0093475D02*
X0076000Y0093475D01*
X0075501Y0092976D02*
X0062000Y0092976D01*
X0062497Y0092478D02*
X0075003Y0092478D01*
X0074504Y0091979D02*
X0062996Y0091979D01*
X0063494Y0091481D02*
X0074006Y0091481D01*
X0073507Y0090982D02*
X0063993Y0090982D01*
X0064491Y0090484D02*
X0073009Y0090484D01*
X0072510Y0089985D02*
X0064990Y0089985D01*
X0065000Y0089487D02*
X0072012Y0089487D01*
X0071513Y0088988D02*
X0065000Y0088988D01*
X0065000Y0088489D02*
X0071015Y0088489D01*
X0070516Y0087991D02*
X0065000Y0087991D01*
X0065000Y0087492D02*
X0070018Y0087492D01*
X0069519Y0086994D02*
X0065000Y0086994D01*
X0065000Y0086495D02*
X0069021Y0086495D01*
X0068522Y0085997D02*
X0065000Y0085997D01*
X0065000Y0085498D02*
X0068024Y0085498D01*
X0067525Y0085000D02*
X0065000Y0085000D01*
X0065000Y0084501D02*
X0067027Y0084501D01*
X0066528Y0084003D02*
X0065000Y0084003D01*
X0065000Y0083504D02*
X0066030Y0083504D01*
X0065531Y0083006D02*
X0065000Y0083006D01*
X0065000Y0082507D02*
X0065032Y0082507D01*
X0058528Y0073534D02*
X0014000Y0073534D01*
X0014000Y0073036D02*
X0059243Y0073036D01*
X0058123Y0074033D02*
X0057250Y0074033D01*
X0055250Y0074033D02*
X0014000Y0074033D01*
X0014000Y0074531D02*
X0054531Y0074531D01*
X0054124Y0075030D02*
X0014000Y0075030D01*
X0014000Y0075528D02*
X0053918Y0075528D01*
X0053819Y0076027D02*
X0014000Y0076027D01*
X0014000Y0076525D02*
X0053819Y0076525D01*
X0053939Y0077024D02*
X0014000Y0077024D01*
X0014000Y0077522D02*
X0051963Y0077522D01*
X0050760Y0078021D02*
X0014000Y0078021D01*
X0014000Y0078519D02*
X0030354Y0078519D01*
X0031208Y0078165D02*
X0034284Y0078165D01*
X0037125Y0079342D01*
X0039299Y0081517D01*
X0040476Y0084358D01*
X0040476Y0087433D01*
X0039299Y0090275D01*
X0037125Y0092449D01*
X0034284Y0093626D01*
X0031208Y0093626D01*
X0028367Y0092449D01*
X0026193Y0090275D01*
X0025016Y0087433D01*
X0025016Y0084358D01*
X0026193Y0081517D01*
X0028367Y0079342D01*
X0031208Y0078165D01*
X0029150Y0079018D02*
X0014000Y0079018D01*
X0014000Y0079516D02*
X0028193Y0079516D01*
X0027695Y0080015D02*
X0014000Y0080015D01*
X0014000Y0080513D02*
X0027196Y0080513D01*
X0026698Y0081012D02*
X0014000Y0081012D01*
X0014000Y0081510D02*
X0026199Y0081510D01*
X0025989Y0082009D02*
X0014000Y0082009D01*
X0014000Y0082507D02*
X0025782Y0082507D01*
X0025576Y0083006D02*
X0014000Y0083006D01*
X0014000Y0083504D02*
X0025369Y0083504D01*
X0025163Y0084003D02*
X0014000Y0084003D01*
X0014000Y0084501D02*
X0025016Y0084501D01*
X0025016Y0085000D02*
X0014000Y0085000D01*
X0014000Y0085498D02*
X0025016Y0085498D01*
X0025016Y0085997D02*
X0014000Y0085997D01*
X0014000Y0086495D02*
X0025016Y0086495D01*
X0025016Y0086994D02*
X0014000Y0086994D01*
X0014000Y0087492D02*
X0025040Y0087492D01*
X0025247Y0087991D02*
X0014000Y0087991D01*
X0014000Y0088489D02*
X0025453Y0088489D01*
X0025660Y0088988D02*
X0014000Y0088988D01*
X0014000Y0089487D02*
X0025866Y0089487D01*
X0026073Y0089985D02*
X0014000Y0089985D01*
X0014000Y0090484D02*
X0026402Y0090484D01*
X0026900Y0090982D02*
X0014000Y0090982D01*
X0014000Y0091481D02*
X0027399Y0091481D01*
X0027897Y0091979D02*
X0014000Y0091979D01*
X0014000Y0092478D02*
X0028436Y0092478D01*
X0029639Y0092976D02*
X0014000Y0092976D01*
X0014000Y0093475D02*
X0030843Y0093475D01*
X0034649Y0093475D02*
X0050045Y0093475D01*
X0049040Y0092976D02*
X0035853Y0092976D01*
X0037056Y0092478D02*
X0048542Y0092478D01*
X0048043Y0091979D02*
X0037595Y0091979D01*
X0038093Y0091481D02*
X0047545Y0091481D01*
X0047046Y0090982D02*
X0038592Y0090982D01*
X0039091Y0090484D02*
X0046687Y0090484D01*
X0046480Y0089985D02*
X0039419Y0089985D01*
X0039626Y0089487D02*
X0046274Y0089487D01*
X0046067Y0088988D02*
X0039832Y0088988D01*
X0040039Y0088489D02*
X0045861Y0088489D01*
X0045654Y0087991D02*
X0040245Y0087991D01*
X0040452Y0087492D02*
X0045488Y0087492D01*
X0045488Y0086994D02*
X0040476Y0086994D01*
X0040476Y0086495D02*
X0045488Y0086495D01*
X0045488Y0085997D02*
X0040476Y0085997D01*
X0040476Y0085498D02*
X0045488Y0085498D01*
X0045488Y0085000D02*
X0040476Y0085000D01*
X0040476Y0084501D02*
X0045488Y0084501D01*
X0045570Y0084003D02*
X0040329Y0084003D01*
X0040123Y0083504D02*
X0045777Y0083504D01*
X0045983Y0083006D02*
X0039916Y0083006D01*
X0039710Y0082507D02*
X0046190Y0082507D01*
X0046396Y0082009D02*
X0039503Y0082009D01*
X0039293Y0081510D02*
X0046603Y0081510D01*
X0046844Y0081012D02*
X0038795Y0081012D01*
X0038296Y0080513D02*
X0047342Y0080513D01*
X0047841Y0080015D02*
X0037797Y0080015D01*
X0037299Y0079516D02*
X0048339Y0079516D01*
X0048838Y0079018D02*
X0036342Y0079018D01*
X0035138Y0078519D02*
X0049556Y0078519D01*
X0051249Y0093973D02*
X0014000Y0093973D01*
X0014000Y0094472D02*
X0058500Y0094472D01*
X0058500Y0093973D02*
X0056763Y0093973D01*
X0057967Y0093475D02*
X0058500Y0093475D01*
X0058149Y0094970D02*
X0014000Y0094970D01*
X0014000Y0095469D02*
X0057942Y0095469D01*
X0057819Y0095967D02*
X0014000Y0095967D01*
X0014000Y0096466D02*
X0057819Y0096466D01*
X0057914Y0096964D02*
X0014000Y0096964D01*
X0014000Y0097463D02*
X0058121Y0097463D01*
X0058523Y0097961D02*
X0014000Y0097961D01*
X0014000Y0098460D02*
X0059232Y0098460D01*
X0061268Y0098460D02*
X0066565Y0098460D01*
X0066819Y0097961D02*
X0061977Y0097961D01*
X0062379Y0097463D02*
X0066945Y0097463D01*
X0067151Y0096964D02*
X0062586Y0096964D01*
X0062681Y0096466D02*
X0067596Y0096466D01*
X0068409Y0095967D02*
X0062681Y0095967D01*
X0062558Y0095469D02*
X0076200Y0095469D01*
X0076200Y0095967D02*
X0070091Y0095967D01*
X0070904Y0096466D02*
X0076200Y0096466D01*
X0076200Y0096964D02*
X0071349Y0096964D01*
X0071555Y0097463D02*
X0076286Y0097463D01*
X0076493Y0097961D02*
X0071681Y0097961D01*
X0071681Y0098460D02*
X0076699Y0098460D01*
X0076906Y0098958D02*
X0071588Y0098958D01*
X0071382Y0099457D02*
X0077315Y0099457D01*
X0077813Y0099955D02*
X0070983Y0099955D01*
X0070282Y0100454D02*
X0078312Y0100454D01*
X0079406Y0100952D02*
X0069023Y0100952D01*
X0068524Y0101451D02*
X0079640Y0101451D01*
X0078437Y0101949D02*
X0068026Y0101949D01*
X0067527Y0102448D02*
X0077910Y0102448D01*
X0077412Y0102946D02*
X0067029Y0102946D01*
X0066530Y0103445D02*
X0076946Y0103445D01*
X0076739Y0103943D02*
X0066032Y0103943D01*
X0065533Y0104442D02*
X0076533Y0104442D01*
X0076314Y0094970D02*
X0062351Y0094970D01*
X0062000Y0094472D02*
X0076521Y0094472D01*
X0066067Y0098958D02*
X0014000Y0098958D01*
X0014000Y0099457D02*
X0065568Y0099457D01*
X0065070Y0099955D02*
X0014000Y0099955D01*
X0014000Y0100454D02*
X0064571Y0100454D01*
X0064073Y0100952D02*
X0014000Y0100952D01*
X0014000Y0101451D02*
X0063574Y0101451D01*
X0063076Y0101949D02*
X0014000Y0101949D01*
X0014000Y0102448D02*
X0062577Y0102448D01*
X0062079Y0102946D02*
X0014000Y0102946D01*
X0014000Y0103445D02*
X0061580Y0103445D01*
X0061082Y0103943D02*
X0014000Y0103943D01*
X0014000Y0104442D02*
X0017421Y0104442D01*
X0016923Y0104940D02*
X0014000Y0104940D01*
X0014000Y0105439D02*
X0016424Y0105439D01*
X0015926Y0105937D02*
X0014000Y0105937D01*
X0014000Y0106436D02*
X0015427Y0106436D01*
X0014929Y0106934D02*
X0014000Y0106934D01*
X0014000Y0107433D02*
X0014430Y0107433D01*
X0020685Y0107433D02*
X0021185Y0107433D01*
X0021185Y0107931D02*
X0020685Y0107931D01*
X0020685Y0108430D02*
X0021185Y0108430D01*
X0021185Y0108928D02*
X0020685Y0108928D01*
X0020685Y0109427D02*
X0021185Y0109427D01*
X0021185Y0109925D02*
X0020685Y0109925D01*
X0020685Y0110424D02*
X0021185Y0110424D01*
X0021185Y0110922D02*
X0020685Y0110922D01*
X0021185Y0111421D02*
X0044307Y0111421D01*
X0044307Y0111354D02*
X0037008Y0111354D01*
X0037008Y0108477D01*
X0041430Y0104055D01*
X0044307Y0104055D01*
X0044307Y0111354D01*
X0044807Y0111354D01*
X0044807Y0104055D01*
X0047684Y0104055D01*
X0052106Y0108477D01*
X0052106Y0111354D01*
X0044807Y0111354D01*
X0044807Y0111854D01*
X0044307Y0111854D01*
X0044307Y0111354D01*
X0044307Y0110922D02*
X0044807Y0110922D01*
X0044807Y0110424D02*
X0044307Y0110424D01*
X0044307Y0109925D02*
X0044807Y0109925D01*
X0044807Y0109427D02*
X0044307Y0109427D01*
X0044307Y0108928D02*
X0044807Y0108928D01*
X0044807Y0108430D02*
X0044307Y0108430D01*
X0044307Y0107931D02*
X0044807Y0107931D01*
X0044807Y0107433D02*
X0044307Y0107433D01*
X0044307Y0106934D02*
X0044807Y0106934D01*
X0044807Y0106436D02*
X0044307Y0106436D01*
X0044307Y0105937D02*
X0044807Y0105937D01*
X0044807Y0105439D02*
X0044307Y0105439D01*
X0044307Y0104940D02*
X0044807Y0104940D01*
X0044807Y0104442D02*
X0044307Y0104442D01*
X0041043Y0104442D02*
X0024449Y0104442D01*
X0024947Y0104940D02*
X0040545Y0104940D01*
X0040046Y0105439D02*
X0025446Y0105439D01*
X0025944Y0105937D02*
X0039548Y0105937D01*
X0039049Y0106436D02*
X0026443Y0106436D01*
X0026941Y0106934D02*
X0038551Y0106934D01*
X0038052Y0107433D02*
X0027440Y0107433D01*
X0027938Y0107931D02*
X0037554Y0107931D01*
X0037055Y0108430D02*
X0028437Y0108430D01*
X0028484Y0108928D02*
X0037008Y0108928D01*
X0037008Y0109427D02*
X0028484Y0109427D01*
X0028484Y0109925D02*
X0037008Y0109925D01*
X0037008Y0110424D02*
X0028484Y0110424D01*
X0028484Y0110922D02*
X0037008Y0110922D01*
X0037008Y0111854D02*
X0044307Y0111854D01*
X0044307Y0119154D01*
X0041430Y0119154D01*
X0037008Y0114731D01*
X0037008Y0111854D01*
X0037008Y0111920D02*
X0028484Y0111920D01*
X0028484Y0112418D02*
X0037008Y0112418D01*
X0037008Y0112917D02*
X0028484Y0112917D01*
X0028484Y0113415D02*
X0037008Y0113415D01*
X0037008Y0113914D02*
X0028484Y0113914D01*
X0028484Y0114412D02*
X0037008Y0114412D01*
X0037187Y0114911D02*
X0028305Y0114911D01*
X0027806Y0115409D02*
X0037686Y0115409D01*
X0038184Y0115908D02*
X0027308Y0115908D01*
X0026809Y0116406D02*
X0038683Y0116406D01*
X0039181Y0116905D02*
X0026311Y0116905D01*
X0025812Y0117403D02*
X0039680Y0117403D01*
X0040178Y0117902D02*
X0025314Y0117902D01*
X0024815Y0118400D02*
X0040677Y0118400D01*
X0041175Y0118899D02*
X0024317Y0118899D01*
X0021185Y0118899D02*
X0020685Y0118899D01*
X0020685Y0118400D02*
X0021185Y0118400D01*
X0021185Y0117902D02*
X0020685Y0117902D01*
X0020685Y0117403D02*
X0021185Y0117403D01*
X0021185Y0116905D02*
X0020685Y0116905D01*
X0020685Y0116406D02*
X0021185Y0116406D01*
X0021185Y0115908D02*
X0020685Y0115908D01*
X0020685Y0115409D02*
X0021185Y0115409D01*
X0021185Y0114911D02*
X0020685Y0114911D01*
X0020685Y0114412D02*
X0021185Y0114412D01*
X0021185Y0113914D02*
X0020685Y0113914D01*
X0020685Y0113415D02*
X0021185Y0113415D01*
X0021185Y0112917D02*
X0020685Y0112917D01*
X0020685Y0112418D02*
X0021185Y0112418D01*
X0021185Y0111920D02*
X0020685Y0111920D01*
X0020685Y0106934D02*
X0021185Y0106934D01*
X0021185Y0106436D02*
X0020685Y0106436D01*
X0020685Y0105937D02*
X0021185Y0105937D01*
X0021185Y0105439D02*
X0020685Y0105439D01*
X0020685Y0104940D02*
X0021185Y0104940D01*
X0021185Y0104442D02*
X0020685Y0104442D01*
X0019872Y0119397D02*
X0045628Y0119397D01*
X0045129Y0119896D02*
X0020371Y0119896D01*
X0020869Y0120394D02*
X0044631Y0120394D01*
X0044132Y0120893D02*
X0021368Y0120893D01*
X0021866Y0121391D02*
X0043634Y0121391D01*
X0043135Y0121890D02*
X0022000Y0121890D01*
X0022000Y0122388D02*
X0042637Y0122388D01*
X0042138Y0122887D02*
X0022000Y0122887D01*
X0022000Y0123385D02*
X0041640Y0123385D01*
X0041141Y0123884D02*
X0022000Y0123884D01*
X0022000Y0124382D02*
X0031998Y0124382D01*
X0030795Y0124881D02*
X0022000Y0124881D01*
X0022000Y0125379D02*
X0030241Y0125379D01*
X0029742Y0125878D02*
X0022000Y0125878D01*
X0022000Y0126376D02*
X0029501Y0126376D01*
X0029295Y0126875D02*
X0022000Y0126875D01*
X0022000Y0127373D02*
X0029134Y0127373D01*
X0029134Y0127872D02*
X0022000Y0127872D01*
X0022000Y0128370D02*
X0029134Y0128370D01*
X0029156Y0128869D02*
X0022000Y0128869D01*
X0022000Y0129367D02*
X0028658Y0129367D01*
X0028159Y0129866D02*
X0022851Y0129866D01*
X0023426Y0130364D02*
X0027661Y0130364D01*
X0027162Y0130863D02*
X0023924Y0130863D01*
X0024173Y0131361D02*
X0026664Y0131361D01*
X0026165Y0131860D02*
X0024380Y0131860D01*
X0024547Y0132358D02*
X0025667Y0132358D01*
X0025168Y0132857D02*
X0024547Y0132857D01*
X0024547Y0133355D02*
X0024670Y0133355D01*
X0027127Y0135848D02*
X0029772Y0135848D01*
X0029514Y0136347D02*
X0026628Y0136347D01*
X0026130Y0136845D02*
X0029307Y0136845D01*
X0029134Y0137344D02*
X0025631Y0137344D01*
X0025133Y0137842D02*
X0029134Y0137842D01*
X0029134Y0138341D02*
X0024634Y0138341D01*
X0024136Y0138839D02*
X0029191Y0138839D01*
X0029398Y0139338D02*
X0023637Y0139338D01*
X0023139Y0139836D02*
X0029604Y0139836D01*
X0029990Y0140335D02*
X0023396Y0140335D01*
X0023894Y0140833D02*
X0030192Y0140833D01*
X0029693Y0141332D02*
X0024161Y0141332D01*
X0024368Y0141830D02*
X0029195Y0141830D01*
X0028696Y0142329D02*
X0024547Y0142329D01*
X0024547Y0142827D02*
X0028198Y0142827D01*
X0027699Y0143326D02*
X0024547Y0143326D01*
X0024496Y0143824D02*
X0027201Y0143824D01*
X0026702Y0144323D02*
X0024290Y0144323D01*
X0024083Y0144821D02*
X0026204Y0144821D01*
X0025705Y0145320D02*
X0023706Y0145320D01*
X0023207Y0145818D02*
X0025207Y0145818D01*
X0024708Y0146317D02*
X0022324Y0146317D01*
X0023711Y0147314D02*
X0013620Y0147314D01*
X0014123Y0146815D02*
X0024210Y0146815D01*
X0023213Y0147812D02*
X0012287Y0147812D01*
X0012786Y0148311D02*
X0022714Y0148311D01*
X0022216Y0148809D02*
X0013284Y0148809D01*
X0013783Y0149308D02*
X0021717Y0149308D01*
X0019163Y0149806D02*
X0014281Y0149806D01*
X0014780Y0150305D02*
X0018504Y0150305D01*
X0018005Y0150803D02*
X0015278Y0150803D01*
X0015777Y0151302D02*
X0017721Y0151302D01*
X0017515Y0151800D02*
X0016275Y0151800D01*
X0016774Y0152299D02*
X0017323Y0152299D01*
X0017323Y0152797D02*
X0017272Y0152797D01*
X0019546Y0146317D02*
X0014440Y0146317D01*
X0014646Y0145818D02*
X0018663Y0145818D01*
X0018164Y0145320D02*
X0014681Y0145320D01*
X0015154Y0144821D02*
X0017787Y0144821D01*
X0017580Y0144323D02*
X0015652Y0144323D01*
X0016151Y0143824D02*
X0017374Y0143824D01*
X0017323Y0143326D02*
X0016649Y0143326D01*
X0017148Y0142827D02*
X0017323Y0142827D01*
X0027625Y0135350D02*
X0030270Y0135350D01*
X0030866Y0134851D02*
X0028124Y0134851D01*
X0028622Y0134353D02*
X0036500Y0134353D01*
X0036500Y0134851D02*
X0034626Y0134851D01*
X0035222Y0135350D02*
X0036500Y0135350D01*
X0036500Y0135848D02*
X0035720Y0135848D01*
X0035978Y0136347D02*
X0036500Y0136347D01*
X0036500Y0136845D02*
X0036185Y0136845D01*
X0036358Y0137344D02*
X0036500Y0137344D01*
X0036500Y0133854D02*
X0029121Y0133854D01*
X0029619Y0133355D02*
X0036500Y0133355D01*
X0036500Y0132857D02*
X0030118Y0132857D01*
X0030616Y0132358D02*
X0036500Y0132358D01*
X0036500Y0131860D02*
X0031115Y0131860D01*
X0034027Y0131361D02*
X0036500Y0131361D01*
X0036500Y0130863D02*
X0034974Y0130863D01*
X0035472Y0130364D02*
X0036500Y0130364D01*
X0036500Y0129866D02*
X0035876Y0129866D01*
X0036082Y0129367D02*
X0036500Y0129367D01*
X0036500Y0128869D02*
X0036289Y0128869D01*
X0036358Y0128370D02*
X0036655Y0128370D01*
X0036358Y0127872D02*
X0037153Y0127872D01*
X0037652Y0127373D02*
X0036358Y0127373D01*
X0036197Y0126875D02*
X0038150Y0126875D01*
X0038649Y0126376D02*
X0035991Y0126376D01*
X0035750Y0125878D02*
X0039147Y0125878D01*
X0039646Y0125379D02*
X0035252Y0125379D01*
X0034698Y0124881D02*
X0040144Y0124881D01*
X0040643Y0124382D02*
X0033494Y0124382D01*
X0042000Y0135848D02*
X0042344Y0135848D01*
X0042000Y0136347D02*
X0043240Y0136347D01*
X0044307Y0136347D02*
X0044807Y0136347D01*
X0044807Y0135848D02*
X0044307Y0135848D01*
X0044307Y0135350D02*
X0044807Y0135350D01*
X0044807Y0134851D02*
X0044307Y0134851D01*
X0044307Y0134353D02*
X0044807Y0134353D01*
X0044807Y0133854D02*
X0044307Y0133854D01*
X0044307Y0133355D02*
X0044807Y0133355D01*
X0044807Y0132857D02*
X0064500Y0132857D01*
X0064500Y0133355D02*
X0048166Y0133355D01*
X0048067Y0133854D02*
X0064500Y0133854D01*
X0064500Y0134353D02*
X0047899Y0134353D01*
X0047653Y0134851D02*
X0054488Y0134851D01*
X0054322Y0134920D02*
X0055650Y0134370D01*
X0057087Y0134370D01*
X0058414Y0134920D01*
X0059430Y0135936D01*
X0059980Y0137264D01*
X0059980Y0138701D01*
X0059430Y0140028D01*
X0058414Y0141045D01*
X0057087Y0141594D01*
X0055650Y0141594D01*
X0054322Y0141045D01*
X0053306Y0140028D01*
X0052756Y0138701D01*
X0052756Y0137264D01*
X0053306Y0135936D01*
X0054322Y0134920D01*
X0053892Y0135350D02*
X0047298Y0135350D01*
X0046770Y0135848D02*
X0053394Y0135848D01*
X0053136Y0136347D02*
X0045874Y0136347D01*
X0046401Y0139836D02*
X0053226Y0139836D01*
X0053020Y0139338D02*
X0042000Y0139338D01*
X0042000Y0139836D02*
X0042713Y0139836D01*
X0042096Y0140335D02*
X0042000Y0140335D01*
X0042000Y0138839D02*
X0052813Y0138839D01*
X0052756Y0138341D02*
X0042000Y0138341D01*
X0042000Y0137842D02*
X0052756Y0137842D01*
X0052756Y0137344D02*
X0042000Y0137344D01*
X0042000Y0136845D02*
X0052929Y0136845D01*
X0053488Y0131594D02*
X0052756Y0130862D01*
X0052756Y0125102D01*
X0053488Y0124370D01*
X0059248Y0124370D01*
X0059980Y0125102D01*
X0059980Y0130862D01*
X0059248Y0131594D01*
X0053488Y0131594D01*
X0053255Y0131361D02*
X0047796Y0131361D01*
X0048002Y0131860D02*
X0064500Y0131860D01*
X0064500Y0132358D02*
X0048116Y0132358D01*
X0047485Y0130863D02*
X0052757Y0130863D01*
X0052756Y0130364D02*
X0047048Y0130364D01*
X0046395Y0129866D02*
X0052756Y0129866D01*
X0052756Y0129367D02*
X0044607Y0129367D01*
X0044807Y0129866D02*
X0044307Y0129866D01*
X0044307Y0130364D02*
X0044807Y0130364D01*
X0044807Y0130863D02*
X0044307Y0130863D01*
X0044307Y0131361D02*
X0044807Y0131361D01*
X0044807Y0131860D02*
X0044307Y0131860D01*
X0044307Y0132358D02*
X0044807Y0132358D01*
X0045106Y0128869D02*
X0052756Y0128869D01*
X0052756Y0128370D02*
X0045604Y0128370D01*
X0046103Y0127872D02*
X0052756Y0127872D01*
X0052756Y0127373D02*
X0046601Y0127373D01*
X0047100Y0126875D02*
X0052756Y0126875D01*
X0052756Y0126376D02*
X0047598Y0126376D01*
X0048097Y0125878D02*
X0052756Y0125878D01*
X0052756Y0125379D02*
X0048596Y0125379D01*
X0049094Y0124881D02*
X0052977Y0124881D01*
X0053476Y0124382D02*
X0049593Y0124382D01*
X0050091Y0123884D02*
X0064500Y0123884D01*
X0064500Y0124382D02*
X0059260Y0124382D01*
X0059759Y0124881D02*
X0064500Y0124881D01*
X0064500Y0125379D02*
X0059980Y0125379D01*
X0059980Y0125878D02*
X0064500Y0125878D01*
X0064500Y0126376D02*
X0059980Y0126376D01*
X0059980Y0126875D02*
X0064500Y0126875D01*
X0064500Y0127373D02*
X0059980Y0127373D01*
X0059980Y0127872D02*
X0064500Y0127872D01*
X0064500Y0128370D02*
X0059980Y0128370D01*
X0059980Y0128869D02*
X0064500Y0128869D01*
X0064500Y0129367D02*
X0059980Y0129367D01*
X0059980Y0129866D02*
X0064500Y0129866D01*
X0064500Y0130364D02*
X0059980Y0130364D01*
X0059980Y0130863D02*
X0064500Y0130863D01*
X0064500Y0131361D02*
X0059481Y0131361D01*
X0058248Y0134851D02*
X0064500Y0134851D01*
X0064500Y0135350D02*
X0058844Y0135350D01*
X0059342Y0135848D02*
X0064500Y0135848D01*
X0064500Y0136347D02*
X0059600Y0136347D01*
X0059807Y0136845D02*
X0064500Y0136845D01*
X0064500Y0137344D02*
X0059980Y0137344D01*
X0059980Y0137842D02*
X0064500Y0137842D01*
X0064500Y0138341D02*
X0059980Y0138341D01*
X0059923Y0138839D02*
X0064500Y0138839D01*
X0064500Y0139338D02*
X0059717Y0139338D01*
X0059510Y0139836D02*
X0064500Y0139836D01*
X0064500Y0140335D02*
X0059124Y0140335D01*
X0058626Y0140833D02*
X0064500Y0140833D01*
X0064500Y0141332D02*
X0057721Y0141332D01*
X0055015Y0141332D02*
X0047783Y0141332D01*
X0047990Y0141830D02*
X0064500Y0141830D01*
X0064500Y0142329D02*
X0048169Y0142329D01*
X0048169Y0142827D02*
X0064500Y0142827D01*
X0064500Y0143326D02*
X0048169Y0143326D01*
X0048118Y0143824D02*
X0064500Y0143824D01*
X0055500Y0151800D02*
X0052275Y0151800D01*
X0051777Y0151302D02*
X0054943Y0151302D01*
X0054081Y0150803D02*
X0051278Y0150803D01*
X0052774Y0152299D02*
X0055500Y0152299D01*
X0055500Y0152797D02*
X0053272Y0152797D01*
X0053771Y0153296D02*
X0055500Y0153296D01*
X0055500Y0153794D02*
X0054000Y0153794D01*
X0054000Y0154293D02*
X0055818Y0154293D01*
X0054632Y0154791D02*
X0054000Y0154791D01*
X0054111Y0140833D02*
X0047516Y0140833D01*
X0047018Y0140335D02*
X0053612Y0140335D01*
X0050590Y0123385D02*
X0064500Y0123385D01*
X0064500Y0122887D02*
X0051088Y0122887D01*
X0051587Y0122388D02*
X0064500Y0122388D01*
X0064500Y0121890D02*
X0052085Y0121890D01*
X0052584Y0121391D02*
X0064500Y0121391D01*
X0064500Y0120893D02*
X0053082Y0120893D01*
X0053581Y0120394D02*
X0064500Y0120394D01*
X0064500Y0119896D02*
X0054079Y0119896D01*
X0054578Y0119397D02*
X0064500Y0119397D01*
X0064500Y0118899D02*
X0055076Y0118899D01*
X0055575Y0118400D02*
X0064500Y0118400D01*
X0064500Y0117902D02*
X0056073Y0117902D01*
X0056572Y0117403D02*
X0064500Y0117403D01*
X0064500Y0116905D02*
X0057070Y0116905D01*
X0057569Y0116406D02*
X0064500Y0116406D01*
X0064500Y0115908D02*
X0058067Y0115908D01*
X0058566Y0115409D02*
X0064500Y0115409D01*
X0064500Y0114911D02*
X0059064Y0114911D01*
X0059563Y0114412D02*
X0064500Y0114412D01*
X0064500Y0113914D02*
X0060061Y0113914D01*
X0060560Y0113415D02*
X0064500Y0113415D01*
X0064500Y0112917D02*
X0061058Y0112917D01*
X0061557Y0112418D02*
X0064500Y0112418D01*
X0064500Y0111920D02*
X0062055Y0111920D01*
X0062554Y0111421D02*
X0064500Y0111421D01*
X0064484Y0110922D02*
X0063052Y0110922D01*
X0063551Y0110424D02*
X0064105Y0110424D01*
X0060583Y0104442D02*
X0048071Y0104442D01*
X0048569Y0104940D02*
X0060085Y0104940D01*
X0059586Y0105439D02*
X0049068Y0105439D01*
X0049566Y0105937D02*
X0059088Y0105937D01*
X0058589Y0106436D02*
X0050065Y0106436D01*
X0050563Y0106934D02*
X0058091Y0106934D01*
X0057592Y0107433D02*
X0051062Y0107433D01*
X0051560Y0107931D02*
X0057094Y0107931D01*
X0056595Y0108430D02*
X0052059Y0108430D01*
X0052106Y0108928D02*
X0056097Y0108928D01*
X0055598Y0109427D02*
X0052106Y0109427D01*
X0052106Y0109925D02*
X0055100Y0109925D01*
X0054601Y0110424D02*
X0052106Y0110424D01*
X0052106Y0110922D02*
X0054103Y0110922D01*
X0053604Y0111421D02*
X0044807Y0111421D01*
X0044807Y0111920D02*
X0044307Y0111920D01*
X0044307Y0112418D02*
X0044807Y0112418D01*
X0044807Y0112917D02*
X0044307Y0112917D01*
X0044307Y0113415D02*
X0044807Y0113415D01*
X0044807Y0113914D02*
X0044307Y0113914D01*
X0044307Y0114412D02*
X0044807Y0114412D01*
X0044807Y0114911D02*
X0044307Y0114911D01*
X0044307Y0115409D02*
X0044807Y0115409D01*
X0044807Y0115908D02*
X0044307Y0115908D01*
X0044307Y0116406D02*
X0044807Y0116406D01*
X0044807Y0116905D02*
X0044307Y0116905D01*
X0044307Y0117403D02*
X0044807Y0117403D01*
X0044807Y0117902D02*
X0044307Y0117902D01*
X0044307Y0118400D02*
X0044807Y0118400D01*
X0044807Y0118899D02*
X0044307Y0118899D01*
X0052106Y0112917D02*
X0052109Y0112917D01*
X0052106Y0112418D02*
X0052607Y0112418D01*
X0053106Y0111920D02*
X0052106Y0111920D01*
X0062858Y0058080D02*
X0064375Y0058080D01*
X0064720Y0057582D02*
X0063330Y0057582D01*
X0063536Y0057083D02*
X0065179Y0057083D01*
X0065815Y0056585D02*
X0063681Y0056585D01*
X0063681Y0056086D02*
X0065612Y0056086D01*
X0065114Y0055588D02*
X0063607Y0055588D01*
X0063401Y0055089D02*
X0064615Y0055089D01*
X0064312Y0054591D02*
X0063029Y0054591D01*
X0063000Y0054092D02*
X0064105Y0054092D01*
X0063899Y0053594D02*
X0063000Y0053594D01*
X0063000Y0053095D02*
X0063780Y0053095D01*
X0063780Y0052597D02*
X0063000Y0052597D01*
X0063000Y0052098D02*
X0063780Y0052098D01*
X0063780Y0051600D02*
X0063000Y0051600D01*
X0063000Y0051101D02*
X0063968Y0051101D01*
X0064174Y0050603D02*
X0063000Y0050603D01*
X0063000Y0050104D02*
X0064381Y0050104D01*
X0064783Y0049606D02*
X0063000Y0049606D01*
X0063000Y0049107D02*
X0065281Y0049107D01*
X0065911Y0048609D02*
X0063000Y0048609D01*
X0063000Y0048110D02*
X0067114Y0048110D01*
X0069244Y0048110D02*
X0071500Y0048110D01*
X0071500Y0047612D02*
X0063000Y0047612D01*
X0063000Y0047113D02*
X0071500Y0047113D01*
X0071500Y0046615D02*
X0063000Y0046615D01*
X0063000Y0046116D02*
X0071500Y0046116D01*
X0071500Y0045618D02*
X0063000Y0045618D01*
X0063000Y0045119D02*
X0071500Y0045119D01*
X0071500Y0044620D02*
X0063000Y0044620D01*
X0063000Y0044122D02*
X0071500Y0044122D01*
X0071500Y0043623D02*
X0063000Y0043623D01*
X0063000Y0043125D02*
X0071500Y0043125D01*
X0071500Y0042626D02*
X0063000Y0042626D01*
X0063000Y0042128D02*
X0071500Y0042128D01*
X0071500Y0041629D02*
X0063000Y0041629D01*
X0063000Y0041131D02*
X0071500Y0041131D01*
X0071500Y0040632D02*
X0070141Y0040632D01*
X0070950Y0040134D02*
X0071500Y0040134D01*
X0071500Y0039635D02*
X0071449Y0039635D01*
X0072473Y0035552D02*
X0077500Y0030525D01*
X0078525Y0029500D01*
X0079338Y0029500D01*
X0077600Y0027762D01*
X0077600Y0024738D01*
X0079738Y0022600D01*
X0081125Y0022600D01*
X0076525Y0018000D01*
X0071466Y0018000D01*
X0071909Y0018443D01*
X0072579Y0020060D01*
X0072579Y0021810D01*
X0071909Y0023427D01*
X0070671Y0024665D01*
X0070156Y0024878D01*
X0070485Y0025046D01*
X0071045Y0025453D01*
X0071535Y0025943D01*
X0071942Y0026503D01*
X0072256Y0027120D01*
X0072470Y0027779D01*
X0072579Y0028463D01*
X0072579Y0028559D01*
X0068429Y0028559D01*
X0068429Y0029059D01*
X0072579Y0029059D01*
X0072579Y0029155D01*
X0072470Y0029839D01*
X0072256Y0030498D01*
X0071942Y0031115D01*
X0071535Y0031675D01*
X0071045Y0032165D01*
X0070485Y0032572D01*
X0070156Y0032740D01*
X0070671Y0032953D01*
X0071909Y0034191D01*
X0072473Y0035552D01*
X0072306Y0035149D02*
X0072876Y0035149D01*
X0073375Y0034650D02*
X0072099Y0034650D01*
X0071870Y0034152D02*
X0073873Y0034152D01*
X0074372Y0033653D02*
X0071371Y0033653D01*
X0070873Y0033155D02*
X0074870Y0033155D01*
X0075369Y0032656D02*
X0070320Y0032656D01*
X0071052Y0032158D02*
X0075867Y0032158D01*
X0076366Y0031659D02*
X0071547Y0031659D01*
X0071909Y0031161D02*
X0076864Y0031161D01*
X0077363Y0030662D02*
X0072173Y0030662D01*
X0072365Y0030164D02*
X0077861Y0030164D01*
X0078360Y0029665D02*
X0072498Y0029665D01*
X0072577Y0029167D02*
X0079005Y0029167D01*
X0078506Y0028668D02*
X0068429Y0028668D01*
X0067929Y0028668D02*
X0063000Y0028668D01*
X0063000Y0028170D02*
X0063826Y0028170D01*
X0063923Y0027671D02*
X0063304Y0027671D01*
X0063802Y0027173D02*
X0064085Y0027173D01*
X0064301Y0026674D02*
X0064329Y0026674D01*
X0063781Y0029167D02*
X0063000Y0029167D01*
X0063000Y0029665D02*
X0063860Y0029665D01*
X0063993Y0030164D02*
X0063000Y0030164D01*
X0063000Y0030662D02*
X0064186Y0030662D01*
X0064449Y0031161D02*
X0063000Y0031161D01*
X0063000Y0031659D02*
X0064812Y0031659D01*
X0065306Y0032158D02*
X0063000Y0032158D01*
X0063000Y0032656D02*
X0066039Y0032656D01*
X0065485Y0033155D02*
X0063000Y0033155D01*
X0063000Y0033653D02*
X0064987Y0033653D01*
X0064488Y0034152D02*
X0063000Y0034152D01*
X0063000Y0034650D02*
X0064259Y0034650D01*
X0064053Y0035149D02*
X0063000Y0035149D01*
X0063000Y0035647D02*
X0063846Y0035647D01*
X0063780Y0036146D02*
X0063000Y0036146D01*
X0063000Y0036644D02*
X0063780Y0036644D01*
X0063780Y0037143D02*
X0063000Y0037143D01*
X0063000Y0037641D02*
X0063814Y0037641D01*
X0064020Y0038140D02*
X0063000Y0038140D01*
X0063000Y0038638D02*
X0064227Y0038638D01*
X0064433Y0039137D02*
X0063000Y0039137D01*
X0063000Y0039635D02*
X0064909Y0039635D01*
X0065408Y0040134D02*
X0063000Y0040134D01*
X0063000Y0040632D02*
X0066217Y0040632D01*
X0070447Y0048609D02*
X0071500Y0048609D01*
X0071500Y0049107D02*
X0071077Y0049107D01*
X0059500Y0049107D02*
X0035868Y0049107D01*
X0036366Y0048609D02*
X0059500Y0048609D01*
X0059500Y0048110D02*
X0036865Y0048110D01*
X0037363Y0047612D02*
X0059500Y0047612D01*
X0059500Y0047113D02*
X0037862Y0047113D01*
X0038360Y0046615D02*
X0059500Y0046615D01*
X0059500Y0046116D02*
X0038859Y0046116D01*
X0039357Y0045618D02*
X0059500Y0045618D01*
X0059500Y0045119D02*
X0039856Y0045119D01*
X0040354Y0044620D02*
X0059500Y0044620D01*
X0059500Y0044122D02*
X0040853Y0044122D01*
X0041351Y0043623D02*
X0059500Y0043623D01*
X0059500Y0043125D02*
X0041850Y0043125D01*
X0042348Y0042626D02*
X0059500Y0042626D01*
X0059500Y0042128D02*
X0042847Y0042128D01*
X0043345Y0041629D02*
X0059500Y0041629D01*
X0059500Y0041131D02*
X0043844Y0041131D01*
X0044342Y0040632D02*
X0059500Y0040632D01*
X0059500Y0040134D02*
X0044841Y0040134D01*
X0045339Y0039635D02*
X0059500Y0039635D01*
X0059500Y0039137D02*
X0045838Y0039137D01*
X0046337Y0038638D02*
X0059500Y0038638D01*
X0059500Y0038140D02*
X0046835Y0038140D01*
X0047334Y0037641D02*
X0059500Y0037641D01*
X0059500Y0037143D02*
X0047832Y0037143D01*
X0048331Y0036644D02*
X0059500Y0036644D01*
X0059500Y0036146D02*
X0048829Y0036146D01*
X0049328Y0035647D02*
X0059500Y0035647D01*
X0059500Y0035149D02*
X0049826Y0035149D01*
X0050325Y0034650D02*
X0059500Y0034650D01*
X0059500Y0034152D02*
X0050823Y0034152D01*
X0051322Y0033653D02*
X0059500Y0033653D01*
X0059500Y0033155D02*
X0051820Y0033155D01*
X0052319Y0032656D02*
X0059500Y0032656D01*
X0059500Y0032158D02*
X0052817Y0032158D01*
X0053316Y0031659D02*
X0059500Y0031659D01*
X0059500Y0031161D02*
X0053814Y0031161D01*
X0054313Y0030662D02*
X0059500Y0030662D01*
X0059500Y0030164D02*
X0054811Y0030164D01*
X0055310Y0029665D02*
X0059500Y0029665D01*
X0059500Y0029167D02*
X0055808Y0029167D01*
X0056307Y0028668D02*
X0059500Y0028668D01*
X0059500Y0028170D02*
X0056805Y0028170D01*
X0057304Y0027671D02*
X0059500Y0027671D01*
X0059500Y0027173D02*
X0057802Y0027173D01*
X0058301Y0026674D02*
X0059500Y0026674D01*
X0059850Y0026176D02*
X0058799Y0026176D01*
X0059298Y0025677D02*
X0060348Y0025677D01*
X0060847Y0025179D02*
X0059796Y0025179D01*
X0060295Y0024680D02*
X0061345Y0024680D01*
X0061844Y0024182D02*
X0060793Y0024182D01*
X0061292Y0023683D02*
X0062342Y0023683D01*
X0062841Y0023184D02*
X0061790Y0023184D01*
X0062289Y0022686D02*
X0063339Y0022686D01*
X0063838Y0022187D02*
X0062787Y0022187D01*
X0063286Y0021689D02*
X0063780Y0021689D01*
X0070635Y0024680D02*
X0077658Y0024680D01*
X0077600Y0025179D02*
X0070667Y0025179D01*
X0071269Y0025677D02*
X0077600Y0025677D01*
X0077600Y0026176D02*
X0071704Y0026176D01*
X0072029Y0026674D02*
X0077600Y0026674D01*
X0077600Y0027173D02*
X0072273Y0027173D01*
X0072435Y0027671D02*
X0077600Y0027671D01*
X0078008Y0028170D02*
X0072532Y0028170D01*
X0071155Y0024182D02*
X0078157Y0024182D01*
X0078655Y0023683D02*
X0071653Y0023683D01*
X0072009Y0023184D02*
X0079154Y0023184D01*
X0079652Y0022686D02*
X0072216Y0022686D01*
X0072422Y0022187D02*
X0080713Y0022187D01*
X0080214Y0021689D02*
X0072579Y0021689D01*
X0072579Y0021190D02*
X0079716Y0021190D01*
X0079217Y0020692D02*
X0072579Y0020692D01*
X0072579Y0020193D02*
X0078719Y0020193D01*
X0078220Y0019695D02*
X0072428Y0019695D01*
X0072221Y0019196D02*
X0077722Y0019196D01*
X0077223Y0018698D02*
X0072015Y0018698D01*
X0071665Y0018199D02*
X0076725Y0018199D01*
X0078683Y0015208D02*
X0083733Y0015208D01*
X0083525Y0015000D02*
X0078475Y0015000D01*
X0087906Y0024432D01*
X0089738Y0022600D01*
X0091000Y0022600D01*
X0091000Y0026000D01*
X0091500Y0026000D01*
X0091500Y0026500D01*
X0091000Y0026500D01*
X0091000Y0029525D01*
X0091975Y0030500D01*
X0098975Y0030500D01*
X0100500Y0032025D01*
X0100500Y0031975D01*
X0094525Y0026000D01*
X0091500Y0026000D01*
X0091500Y0022975D01*
X0083525Y0015000D01*
X0084232Y0015707D02*
X0079182Y0015707D01*
X0079680Y0016205D02*
X0084730Y0016205D01*
X0085229Y0016704D02*
X0080179Y0016704D01*
X0080677Y0017202D02*
X0085727Y0017202D01*
X0086226Y0017701D02*
X0081176Y0017701D01*
X0081674Y0018199D02*
X0086725Y0018199D01*
X0087223Y0018698D02*
X0082173Y0018698D01*
X0082671Y0019196D02*
X0087722Y0019196D01*
X0088220Y0019695D02*
X0083170Y0019695D01*
X0083668Y0020193D02*
X0088719Y0020193D01*
X0089217Y0020692D02*
X0084167Y0020692D01*
X0084665Y0021190D02*
X0089716Y0021190D01*
X0090214Y0021689D02*
X0085164Y0021689D01*
X0085662Y0022187D02*
X0090713Y0022187D01*
X0091000Y0022686D02*
X0091211Y0022686D01*
X0091000Y0023184D02*
X0091500Y0023184D01*
X0091500Y0023683D02*
X0091000Y0023683D01*
X0091000Y0024182D02*
X0091500Y0024182D01*
X0091500Y0024680D02*
X0091000Y0024680D01*
X0091000Y0025179D02*
X0091500Y0025179D01*
X0091500Y0025677D02*
X0091000Y0025677D01*
X0091500Y0026176D02*
X0094701Y0026176D01*
X0094900Y0026500D02*
X0094900Y0027762D01*
X0092762Y0029900D01*
X0091500Y0029900D01*
X0091500Y0026500D01*
X0094900Y0026500D01*
X0094900Y0026674D02*
X0095199Y0026674D01*
X0094900Y0027173D02*
X0095698Y0027173D01*
X0096196Y0027671D02*
X0094900Y0027671D01*
X0094492Y0028170D02*
X0096695Y0028170D01*
X0097193Y0028668D02*
X0093994Y0028668D01*
X0093495Y0029167D02*
X0097692Y0029167D01*
X0098190Y0029665D02*
X0092997Y0029665D01*
X0091639Y0030164D02*
X0098689Y0030164D01*
X0099137Y0030662D02*
X0099187Y0030662D01*
X0099636Y0031161D02*
X0099686Y0031161D01*
X0100134Y0031659D02*
X0100184Y0031659D01*
X0106000Y0031659D02*
X0110819Y0031659D01*
X0110819Y0031734D02*
X0110819Y0031294D01*
X0109683Y0030157D01*
X0109551Y0030157D01*
X0109281Y0029888D01*
X0109012Y0030157D01*
X0106000Y0030157D01*
X0106000Y0041525D01*
X0111943Y0047468D01*
X0112189Y0046873D01*
X0112873Y0046189D01*
X0113766Y0045819D01*
X0114734Y0045819D01*
X0115627Y0046189D01*
X0115938Y0046500D01*
X0117525Y0046500D01*
X0121468Y0042557D01*
X0120873Y0042311D01*
X0120189Y0041627D01*
X0119819Y0040734D01*
X0119819Y0039766D01*
X0120189Y0038873D01*
X0120500Y0038562D01*
X0120500Y0030149D01*
X0120470Y0030157D01*
X0119374Y0030157D01*
X0119374Y0026500D01*
X0118874Y0026500D01*
X0118874Y0030157D01*
X0117778Y0030157D01*
X0117460Y0030072D01*
X0117175Y0029908D01*
X0117156Y0029888D01*
X0116886Y0030157D01*
X0115429Y0030157D01*
X0115681Y0030766D01*
X0115681Y0031734D01*
X0115311Y0032627D01*
X0114627Y0033311D01*
X0113734Y0033681D01*
X0112766Y0033681D01*
X0111873Y0033311D01*
X0111189Y0032627D01*
X0110819Y0031734D01*
X0110995Y0032158D02*
X0106000Y0032158D01*
X0106000Y0032656D02*
X0111218Y0032656D01*
X0111717Y0033155D02*
X0106000Y0033155D01*
X0106000Y0033653D02*
X0112699Y0033653D01*
X0113801Y0033653D02*
X0120500Y0033653D01*
X0120500Y0033155D02*
X0114783Y0033155D01*
X0115282Y0032656D02*
X0120500Y0032656D01*
X0120500Y0032158D02*
X0115505Y0032158D01*
X0115681Y0031659D02*
X0120500Y0031659D01*
X0120500Y0031161D02*
X0115681Y0031161D01*
X0115638Y0030662D02*
X0120500Y0030662D01*
X0120500Y0030164D02*
X0115431Y0030164D01*
X0118874Y0029665D02*
X0119374Y0029665D01*
X0119374Y0029167D02*
X0118874Y0029167D01*
X0118874Y0028668D02*
X0119374Y0028668D01*
X0119374Y0028170D02*
X0118874Y0028170D01*
X0118874Y0027671D02*
X0119374Y0027671D01*
X0119374Y0027173D02*
X0118874Y0027173D01*
X0118874Y0026674D02*
X0119374Y0026674D01*
X0120500Y0034152D02*
X0106000Y0034152D01*
X0106000Y0034650D02*
X0120500Y0034650D01*
X0120500Y0035149D02*
X0106000Y0035149D01*
X0106000Y0035647D02*
X0120500Y0035647D01*
X0120500Y0036146D02*
X0106000Y0036146D01*
X0106000Y0036644D02*
X0120500Y0036644D01*
X0120500Y0037143D02*
X0106000Y0037143D01*
X0106000Y0037641D02*
X0120500Y0037641D01*
X0120500Y0038140D02*
X0106000Y0038140D01*
X0106000Y0038638D02*
X0120424Y0038638D01*
X0120080Y0039137D02*
X0106000Y0039137D01*
X0106000Y0039635D02*
X0119873Y0039635D01*
X0119819Y0040134D02*
X0106000Y0040134D01*
X0106000Y0040632D02*
X0119819Y0040632D01*
X0119983Y0041131D02*
X0106000Y0041131D01*
X0106104Y0041629D02*
X0120191Y0041629D01*
X0120690Y0042128D02*
X0106603Y0042128D01*
X0107101Y0042626D02*
X0121399Y0042626D01*
X0120900Y0043125D02*
X0107600Y0043125D01*
X0108098Y0043623D02*
X0120402Y0043623D01*
X0119903Y0044122D02*
X0108597Y0044122D01*
X0109095Y0044620D02*
X0119405Y0044620D01*
X0118906Y0045119D02*
X0109594Y0045119D01*
X0110092Y0045618D02*
X0118408Y0045618D01*
X0117909Y0046116D02*
X0115451Y0046116D01*
X0113049Y0046116D02*
X0110591Y0046116D01*
X0111089Y0046615D02*
X0112447Y0046615D01*
X0112090Y0047113D02*
X0111588Y0047113D01*
X0110686Y0031161D02*
X0106000Y0031161D01*
X0106000Y0030662D02*
X0110187Y0030662D01*
X0109689Y0030164D02*
X0106000Y0030164D01*
X0118191Y0012716D02*
X0120630Y0012716D01*
X0120630Y0013214D02*
X0118689Y0013214D01*
X0119188Y0013713D02*
X0120630Y0013713D01*
X0120630Y0014211D02*
X0119686Y0014211D01*
X0120185Y0014710D02*
X0120630Y0014710D01*
X0120630Y0012217D02*
X0117692Y0012217D01*
X0117194Y0011719D02*
X0120630Y0011719D01*
X0120630Y0011220D02*
X0116695Y0011220D01*
X0116197Y0010722D02*
X0120630Y0010722D01*
X0120630Y0010223D02*
X0115698Y0010223D01*
X0115200Y0009725D02*
X0120630Y0009725D01*
X0120630Y0009226D02*
X0114701Y0009226D01*
X0114203Y0008728D02*
X0120630Y0008728D01*
X0120630Y0008229D02*
X0113704Y0008229D01*
X0113205Y0007731D02*
X0120630Y0007731D01*
X0120724Y0007232D02*
X0112707Y0007232D01*
X0112208Y0006734D02*
X0121223Y0006734D01*
X0127261Y0006734D02*
X0168760Y0006734D01*
X0168261Y0007232D02*
X0155670Y0007232D01*
X0156169Y0007731D02*
X0167763Y0007731D01*
X0167264Y0008229D02*
X0156459Y0008229D01*
X0156665Y0008728D02*
X0167054Y0008728D01*
X0167257Y0008236D02*
X0165961Y0011367D01*
X0165961Y0014755D01*
X0167257Y0017886D01*
X0169653Y0020282D01*
X0172784Y0021579D01*
X0176173Y0021579D01*
X0179303Y0020282D01*
X0181699Y0017886D01*
X0182996Y0014755D01*
X0182996Y0011367D01*
X0181699Y0008236D01*
X0179303Y0005840D01*
X0176173Y0004543D01*
X0172784Y0004543D01*
X0169653Y0005840D01*
X0167257Y0008236D01*
X0166847Y0009226D02*
X0156701Y0009226D01*
X0157200Y0009725D02*
X0166641Y0009725D01*
X0166434Y0010223D02*
X0157698Y0010223D01*
X0158197Y0010722D02*
X0166228Y0010722D01*
X0166021Y0011220D02*
X0158695Y0011220D01*
X0159194Y0011719D02*
X0165961Y0011719D01*
X0165961Y0012217D02*
X0159692Y0012217D01*
X0160191Y0012716D02*
X0165961Y0012716D01*
X0165961Y0013214D02*
X0160689Y0013214D01*
X0161188Y0013713D02*
X0165961Y0013713D01*
X0165961Y0014211D02*
X0161686Y0014211D01*
X0162185Y0014710D02*
X0165961Y0014710D01*
X0166148Y0015208D02*
X0162683Y0015208D01*
X0163182Y0015707D02*
X0166355Y0015707D01*
X0166561Y0016205D02*
X0163680Y0016205D01*
X0164179Y0016704D02*
X0166768Y0016704D01*
X0166974Y0017202D02*
X0164677Y0017202D01*
X0165176Y0017701D02*
X0167181Y0017701D01*
X0167571Y0018199D02*
X0165674Y0018199D01*
X0166173Y0018698D02*
X0168069Y0018698D01*
X0168568Y0019196D02*
X0166671Y0019196D01*
X0167170Y0019695D02*
X0169066Y0019695D01*
X0169565Y0020193D02*
X0167668Y0020193D01*
X0168167Y0020692D02*
X0170643Y0020692D01*
X0171847Y0021190D02*
X0168665Y0021190D01*
X0169164Y0021689D02*
X0184071Y0021689D01*
X0184071Y0022187D02*
X0169662Y0022187D01*
X0170161Y0022686D02*
X0184071Y0022686D01*
X0184071Y0023184D02*
X0170659Y0023184D01*
X0171158Y0023683D02*
X0184071Y0023683D01*
X0184071Y0024182D02*
X0171656Y0024182D01*
X0172155Y0024680D02*
X0184071Y0024680D01*
X0184071Y0025179D02*
X0172653Y0025179D01*
X0173152Y0025677D02*
X0184071Y0025677D01*
X0184071Y0026176D02*
X0173650Y0026176D01*
X0174149Y0026674D02*
X0184071Y0026674D01*
X0184071Y0027173D02*
X0174647Y0027173D01*
X0177833Y0027671D02*
X0184071Y0027671D01*
X0184071Y0028170D02*
X0178331Y0028170D01*
X0178830Y0028668D02*
X0184071Y0028668D01*
X0184071Y0029167D02*
X0179329Y0029167D01*
X0179827Y0029665D02*
X0184071Y0029665D01*
X0184071Y0030164D02*
X0179900Y0030164D01*
X0179900Y0030662D02*
X0184071Y0030662D01*
X0184071Y0031161D02*
X0179900Y0031161D01*
X0179900Y0031659D02*
X0184071Y0031659D01*
X0184071Y0032158D02*
X0179900Y0032158D01*
X0179900Y0032656D02*
X0184071Y0032656D01*
X0184071Y0033155D02*
X0179507Y0033155D01*
X0179009Y0033653D02*
X0184071Y0033653D01*
X0184071Y0034152D02*
X0178510Y0034152D01*
X0178012Y0034650D02*
X0184071Y0034650D01*
X0184071Y0035149D02*
X0174000Y0035149D01*
X0174000Y0035647D02*
X0184071Y0035647D01*
X0184071Y0036146D02*
X0174000Y0036146D01*
X0174000Y0036644D02*
X0184071Y0036644D01*
X0184071Y0037143D02*
X0174000Y0037143D01*
X0174000Y0037641D02*
X0184071Y0037641D01*
X0184071Y0038140D02*
X0174000Y0038140D01*
X0174113Y0038638D02*
X0184071Y0038638D01*
X0184071Y0039137D02*
X0174612Y0039137D01*
X0175110Y0039635D02*
X0184071Y0039635D01*
X0184071Y0040134D02*
X0175609Y0040134D01*
X0176107Y0040632D02*
X0184071Y0040632D01*
X0184071Y0041131D02*
X0176606Y0041131D01*
X0177104Y0041629D02*
X0184071Y0041629D01*
X0184071Y0042128D02*
X0178480Y0042128D01*
X0179065Y0042626D02*
X0184071Y0042626D01*
X0184071Y0043125D02*
X0179415Y0043125D01*
X0179622Y0043623D02*
X0184071Y0043623D01*
X0184071Y0044122D02*
X0179681Y0044122D01*
X0179681Y0044620D02*
X0184071Y0044620D01*
X0184071Y0045119D02*
X0179521Y0045119D01*
X0179315Y0045618D02*
X0184071Y0045618D01*
X0184071Y0046116D02*
X0179591Y0046116D01*
X0180089Y0046615D02*
X0184071Y0046615D01*
X0184071Y0047113D02*
X0180588Y0047113D01*
X0181086Y0047612D02*
X0184071Y0047612D01*
X0184071Y0048110D02*
X0181585Y0048110D01*
X0181975Y0048500D02*
X0181975Y0048500D01*
X0182083Y0048609D02*
X0184071Y0048609D01*
X0184071Y0049107D02*
X0182582Y0049107D01*
X0183000Y0049606D02*
X0184071Y0049606D01*
X0184071Y0050104D02*
X0183000Y0050104D01*
X0183000Y0050603D02*
X0184071Y0050603D01*
X0184071Y0051101D02*
X0183000Y0051101D01*
X0183000Y0051600D02*
X0184071Y0051600D01*
X0184071Y0052098D02*
X0183000Y0052098D01*
X0183000Y0052597D02*
X0184071Y0052597D01*
X0184071Y0053095D02*
X0183000Y0053095D01*
X0183000Y0053594D02*
X0184071Y0053594D01*
X0184071Y0054092D02*
X0183000Y0054092D01*
X0183000Y0054591D02*
X0184071Y0054591D01*
X0184071Y0055089D02*
X0183000Y0055089D01*
X0183000Y0055588D02*
X0184071Y0055588D01*
X0184071Y0056086D02*
X0183000Y0056086D01*
X0183000Y0056585D02*
X0184071Y0056585D01*
X0184071Y0057083D02*
X0183000Y0057083D01*
X0183000Y0057582D02*
X0184071Y0057582D01*
X0184071Y0058080D02*
X0183000Y0058080D01*
X0183000Y0058579D02*
X0184071Y0058579D01*
X0184071Y0059077D02*
X0183000Y0059077D01*
X0183000Y0059576D02*
X0184071Y0059576D01*
X0184071Y0060074D02*
X0183000Y0060074D01*
X0183000Y0060573D02*
X0184071Y0060573D01*
X0184071Y0061071D02*
X0183000Y0061071D01*
X0183000Y0061570D02*
X0184071Y0061570D01*
X0184071Y0062068D02*
X0183000Y0062068D01*
X0183000Y0062567D02*
X0184071Y0062567D01*
X0184071Y0063065D02*
X0183000Y0063065D01*
X0183000Y0063564D02*
X0184071Y0063564D01*
X0184071Y0064062D02*
X0183000Y0064062D01*
X0183000Y0064561D02*
X0184071Y0064561D01*
X0184071Y0065059D02*
X0183000Y0065059D01*
X0183000Y0065558D02*
X0184071Y0065558D01*
X0184071Y0066056D02*
X0183000Y0066056D01*
X0183000Y0066555D02*
X0184071Y0066555D01*
X0184071Y0067053D02*
X0183000Y0067053D01*
X0183000Y0067552D02*
X0184071Y0067552D01*
X0184071Y0068051D02*
X0183000Y0068051D01*
X0183000Y0068549D02*
X0184071Y0068549D01*
X0184071Y0069048D02*
X0183000Y0069048D01*
X0183000Y0069546D02*
X0184071Y0069546D01*
X0184071Y0070045D02*
X0183000Y0070045D01*
X0183000Y0070543D02*
X0184071Y0070543D01*
X0184071Y0071042D02*
X0183000Y0071042D01*
X0183000Y0071540D02*
X0184071Y0071540D01*
X0184071Y0072039D02*
X0183000Y0072039D01*
X0183000Y0072537D02*
X0184071Y0072537D01*
X0184071Y0073036D02*
X0183000Y0073036D01*
X0183000Y0073534D02*
X0184071Y0073534D01*
X0184071Y0074033D02*
X0183000Y0074033D01*
X0183000Y0074531D02*
X0184071Y0074531D01*
X0184071Y0075030D02*
X0183000Y0075030D01*
X0183000Y0075528D02*
X0184071Y0075528D01*
X0184071Y0076027D02*
X0183000Y0076027D01*
X0183000Y0076525D02*
X0184071Y0076525D01*
X0184071Y0077024D02*
X0183000Y0077024D01*
X0183000Y0077522D02*
X0184071Y0077522D01*
X0184071Y0078021D02*
X0183000Y0078021D01*
X0183000Y0078519D02*
X0184071Y0078519D01*
X0184071Y0079018D02*
X0183000Y0079018D01*
X0183000Y0079516D02*
X0184071Y0079516D01*
X0184071Y0080015D02*
X0183000Y0080015D01*
X0183000Y0080513D02*
X0184071Y0080513D01*
X0184071Y0081012D02*
X0183000Y0081012D01*
X0183000Y0081510D02*
X0184071Y0081510D01*
X0184071Y0082009D02*
X0183000Y0082009D01*
X0183000Y0082507D02*
X0184071Y0082507D01*
X0184071Y0083006D02*
X0183000Y0083006D01*
X0183000Y0083504D02*
X0184071Y0083504D01*
X0184071Y0084003D02*
X0183000Y0084003D01*
X0183000Y0084501D02*
X0184071Y0084501D01*
X0184071Y0085000D02*
X0183000Y0085000D01*
X0183000Y0085498D02*
X0184071Y0085498D01*
X0184071Y0085997D02*
X0183000Y0085997D01*
X0183000Y0086495D02*
X0184071Y0086495D01*
X0184071Y0086994D02*
X0183000Y0086994D01*
X0183000Y0087492D02*
X0184071Y0087492D01*
X0184071Y0087991D02*
X0183000Y0087991D01*
X0183000Y0088489D02*
X0184071Y0088489D01*
X0184071Y0088988D02*
X0183000Y0088988D01*
X0183000Y0089487D02*
X0184071Y0089487D01*
X0184071Y0089985D02*
X0183000Y0089985D01*
X0183000Y0090484D02*
X0184071Y0090484D01*
X0184071Y0090982D02*
X0183000Y0090982D01*
X0183000Y0091481D02*
X0184071Y0091481D01*
X0184071Y0091979D02*
X0183000Y0091979D01*
X0183000Y0092478D02*
X0184071Y0092478D01*
X0184071Y0092976D02*
X0183000Y0092976D01*
X0183000Y0093475D02*
X0184071Y0093475D01*
X0184071Y0093973D02*
X0183000Y0093973D01*
X0183000Y0094472D02*
X0184071Y0094472D01*
X0184071Y0094970D02*
X0183000Y0094970D01*
X0183000Y0095469D02*
X0184071Y0095469D01*
X0184071Y0095967D02*
X0183000Y0095967D01*
X0183000Y0096466D02*
X0184071Y0096466D01*
X0184071Y0096964D02*
X0183000Y0096964D01*
X0183000Y0097463D02*
X0184071Y0097463D01*
X0184071Y0097961D02*
X0183000Y0097961D01*
X0183000Y0098460D02*
X0184071Y0098460D01*
X0184071Y0098958D02*
X0183000Y0098958D01*
X0183000Y0099457D02*
X0184071Y0099457D01*
X0184071Y0099955D02*
X0183000Y0099955D01*
X0183000Y0100454D02*
X0184071Y0100454D01*
X0184071Y0100952D02*
X0183000Y0100952D01*
X0183000Y0101451D02*
X0184071Y0101451D01*
X0184071Y0101949D02*
X0183000Y0101949D01*
X0183000Y0102448D02*
X0184071Y0102448D01*
X0184071Y0102946D02*
X0183000Y0102946D01*
X0183000Y0103445D02*
X0184071Y0103445D01*
X0184071Y0103943D02*
X0183000Y0103943D01*
X0183000Y0104442D02*
X0184071Y0104442D01*
X0184071Y0104940D02*
X0183000Y0104940D01*
X0183000Y0105439D02*
X0184071Y0105439D01*
X0184071Y0105937D02*
X0183000Y0105937D01*
X0183000Y0106436D02*
X0184071Y0106436D01*
X0184071Y0106934D02*
X0183000Y0106934D01*
X0183000Y0107433D02*
X0184071Y0107433D01*
X0184071Y0107931D02*
X0183000Y0107931D01*
X0183000Y0108430D02*
X0184071Y0108430D01*
X0184071Y0108928D02*
X0183000Y0108928D01*
X0183000Y0109427D02*
X0184071Y0109427D01*
X0184071Y0109925D02*
X0183000Y0109925D01*
X0183000Y0110424D02*
X0184071Y0110424D01*
X0184071Y0110922D02*
X0183000Y0110922D01*
X0183000Y0111421D02*
X0184071Y0111421D01*
X0184071Y0111920D02*
X0183000Y0111920D01*
X0183000Y0112418D02*
X0184071Y0112418D01*
X0184071Y0112917D02*
X0183000Y0112917D01*
X0183000Y0113415D02*
X0184071Y0113415D01*
X0184071Y0113914D02*
X0183000Y0113914D01*
X0183000Y0114412D02*
X0184071Y0114412D01*
X0184071Y0114911D02*
X0183000Y0114911D01*
X0183000Y0115409D02*
X0184071Y0115409D01*
X0184071Y0115908D02*
X0183000Y0115908D01*
X0183000Y0116406D02*
X0184071Y0116406D01*
X0184071Y0116905D02*
X0183000Y0116905D01*
X0183000Y0117403D02*
X0184071Y0117403D01*
X0184071Y0117902D02*
X0183000Y0117902D01*
X0183000Y0118400D02*
X0184071Y0118400D01*
X0184071Y0118899D02*
X0183000Y0118899D01*
X0183000Y0119397D02*
X0184071Y0119397D01*
X0184071Y0119896D02*
X0183000Y0119896D01*
X0183000Y0120394D02*
X0184071Y0120394D01*
X0184071Y0120893D02*
X0183000Y0120893D01*
X0183000Y0121391D02*
X0184071Y0121391D01*
X0184071Y0121890D02*
X0183000Y0121890D01*
X0183000Y0122388D02*
X0184071Y0122388D01*
X0184071Y0122887D02*
X0183000Y0122887D01*
X0183000Y0123385D02*
X0184071Y0123385D01*
X0184071Y0123884D02*
X0183000Y0123884D01*
X0183000Y0124382D02*
X0184071Y0124382D01*
X0184071Y0124881D02*
X0183000Y0124881D01*
X0183000Y0125379D02*
X0184071Y0125379D01*
X0184071Y0125878D02*
X0183000Y0125878D01*
X0183000Y0126376D02*
X0184071Y0126376D01*
X0184071Y0126875D02*
X0183000Y0126875D01*
X0183000Y0127373D02*
X0184071Y0127373D01*
X0184071Y0127872D02*
X0183000Y0127872D01*
X0183000Y0128370D02*
X0184071Y0128370D01*
X0184071Y0128869D02*
X0183000Y0128869D01*
X0183000Y0129367D02*
X0184071Y0129367D01*
X0184071Y0129866D02*
X0183000Y0129866D01*
X0183000Y0130364D02*
X0184071Y0130364D01*
X0184071Y0130863D02*
X0183000Y0130863D01*
X0183000Y0131361D02*
X0184071Y0131361D01*
X0184071Y0131860D02*
X0183000Y0131860D01*
X0183000Y0132358D02*
X0184071Y0132358D01*
X0184071Y0132857D02*
X0183000Y0132857D01*
X0183000Y0133355D02*
X0184071Y0133355D01*
X0184071Y0133854D02*
X0183000Y0133854D01*
X0183000Y0134353D02*
X0184071Y0134353D01*
X0184071Y0134851D02*
X0183000Y0134851D01*
X0183000Y0135350D02*
X0184071Y0135350D01*
X0184071Y0135848D02*
X0183000Y0135848D01*
X0183000Y0136347D02*
X0184071Y0136347D01*
X0184071Y0136845D02*
X0183000Y0136845D01*
X0183000Y0137344D02*
X0184071Y0137344D01*
X0184071Y0137842D02*
X0183000Y0137842D01*
X0183000Y0138341D02*
X0184071Y0138341D01*
X0184071Y0138839D02*
X0183000Y0138839D01*
X0183000Y0139338D02*
X0184071Y0139338D01*
X0184071Y0139836D02*
X0183000Y0139836D01*
X0183000Y0140335D02*
X0184071Y0140335D01*
X0184071Y0140833D02*
X0183000Y0140833D01*
X0183000Y0141332D02*
X0184071Y0141332D01*
X0184071Y0141830D02*
X0183000Y0141830D01*
X0183000Y0142329D02*
X0184071Y0142329D01*
X0184071Y0142827D02*
X0183000Y0142827D01*
X0183000Y0143326D02*
X0184071Y0143326D01*
X0184071Y0143824D02*
X0183000Y0143824D01*
X0183000Y0144323D02*
X0184071Y0144323D01*
X0184071Y0144821D02*
X0183000Y0144821D01*
X0183000Y0145320D02*
X0184071Y0145320D01*
X0184071Y0145818D02*
X0183000Y0145818D01*
X0183000Y0146317D02*
X0184071Y0146317D01*
X0184071Y0146815D02*
X0183000Y0146815D01*
X0183000Y0147314D02*
X0184071Y0147314D01*
X0184071Y0147812D02*
X0183000Y0147812D01*
X0183000Y0148311D02*
X0184071Y0148311D01*
X0184071Y0148809D02*
X0183000Y0148809D01*
X0183000Y0149308D02*
X0184071Y0149308D01*
X0184071Y0149806D02*
X0183000Y0149806D01*
X0183000Y0150305D02*
X0184071Y0150305D01*
X0184071Y0150803D02*
X0183000Y0150803D01*
X0183000Y0151302D02*
X0184071Y0151302D01*
X0184071Y0151800D02*
X0183000Y0151800D01*
X0183000Y0152299D02*
X0184071Y0152299D01*
X0184071Y0152797D02*
X0183000Y0152797D01*
X0183000Y0153296D02*
X0184071Y0153296D01*
X0184071Y0153794D02*
X0183000Y0153794D01*
X0183000Y0154293D02*
X0184071Y0154293D01*
X0184071Y0154791D02*
X0183000Y0154791D01*
X0183000Y0155290D02*
X0184071Y0155290D01*
X0184071Y0155789D02*
X0183000Y0155789D01*
X0183000Y0156287D02*
X0184071Y0156287D01*
X0184071Y0156786D02*
X0183000Y0156786D01*
X0183000Y0157284D02*
X0184071Y0157284D01*
X0184071Y0157783D02*
X0183000Y0157783D01*
X0183000Y0158281D02*
X0184071Y0158281D01*
X0184071Y0158780D02*
X0183000Y0158780D01*
X0183000Y0159278D02*
X0184071Y0159278D01*
X0184071Y0159777D02*
X0183000Y0159777D01*
X0183000Y0160275D02*
X0184071Y0160275D01*
X0184071Y0160774D02*
X0183000Y0160774D01*
X0183000Y0161272D02*
X0184071Y0161272D01*
X0184071Y0161771D02*
X0183000Y0161771D01*
X0183000Y0162269D02*
X0184071Y0162269D01*
X0184071Y0162768D02*
X0183000Y0162768D01*
X0183000Y0163266D02*
X0184071Y0163266D01*
X0184071Y0163765D02*
X0183000Y0163765D01*
X0183000Y0164263D02*
X0184071Y0164263D01*
X0184071Y0164762D02*
X0183000Y0164762D01*
X0183000Y0165260D02*
X0184071Y0165260D01*
X0184071Y0165759D02*
X0183000Y0165759D01*
X0183000Y0166257D02*
X0184071Y0166257D01*
X0184071Y0166756D02*
X0183000Y0166756D01*
X0183000Y0167254D02*
X0184071Y0167254D01*
X0184071Y0167753D02*
X0183000Y0167753D01*
X0183000Y0168251D02*
X0184071Y0168251D01*
X0184071Y0168750D02*
X0183000Y0168750D01*
X0183000Y0169248D02*
X0184071Y0169248D01*
X0184071Y0169747D02*
X0183000Y0169747D01*
X0183000Y0170245D02*
X0184071Y0170245D01*
X0184071Y0170744D02*
X0183000Y0170744D01*
X0183000Y0171242D02*
X0184071Y0171242D01*
X0184071Y0171741D02*
X0183000Y0171741D01*
X0183000Y0172239D02*
X0184071Y0172239D01*
X0184071Y0172738D02*
X0183000Y0172738D01*
X0183000Y0173236D02*
X0184071Y0173236D01*
X0184071Y0173735D02*
X0183000Y0173735D01*
X0183000Y0174233D02*
X0184071Y0174233D01*
X0184071Y0174732D02*
X0183000Y0174732D01*
X0183000Y0175230D02*
X0184071Y0175230D01*
X0184071Y0175729D02*
X0183000Y0175729D01*
X0183000Y0176227D02*
X0184071Y0176227D01*
X0184071Y0176726D02*
X0183000Y0176726D01*
X0183000Y0177224D02*
X0184071Y0177224D01*
X0184071Y0177723D02*
X0183000Y0177723D01*
X0183000Y0178222D02*
X0184071Y0178222D01*
X0184071Y0178720D02*
X0183000Y0178720D01*
X0183000Y0179219D02*
X0184071Y0179219D01*
X0184071Y0179717D02*
X0183000Y0179717D01*
X0183000Y0180216D02*
X0184071Y0180216D01*
X0184071Y0180714D02*
X0183000Y0180714D01*
X0183000Y0181213D02*
X0184071Y0181213D01*
X0184071Y0181711D02*
X0183000Y0181711D01*
X0183000Y0182210D02*
X0184071Y0182210D01*
X0184071Y0182708D02*
X0183000Y0182708D01*
X0183000Y0183207D02*
X0184071Y0183207D01*
X0184071Y0183705D02*
X0183000Y0183705D01*
X0183000Y0184204D02*
X0184071Y0184204D01*
X0184071Y0184702D02*
X0183000Y0184702D01*
X0183000Y0185201D02*
X0184071Y0185201D01*
X0184071Y0185699D02*
X0183000Y0185699D01*
X0183000Y0186198D02*
X0184071Y0186198D01*
X0184071Y0186696D02*
X0183000Y0186696D01*
X0183000Y0187195D02*
X0184071Y0187195D01*
X0184071Y0187693D02*
X0183000Y0187693D01*
X0183000Y0188192D02*
X0184071Y0188192D01*
X0184071Y0188690D02*
X0183000Y0188690D01*
X0183000Y0189189D02*
X0184071Y0189189D01*
X0184071Y0189687D02*
X0183000Y0189687D01*
X0183000Y0190186D02*
X0184071Y0190186D01*
X0184071Y0190684D02*
X0183000Y0190684D01*
X0183000Y0191183D02*
X0184071Y0191183D01*
X0184071Y0191681D02*
X0183000Y0191681D01*
X0183000Y0192180D02*
X0184071Y0192180D01*
X0184071Y0192678D02*
X0183000Y0192678D01*
X0183000Y0193177D02*
X0184071Y0193177D01*
X0184071Y0193675D02*
X0183000Y0193675D01*
X0183000Y0194174D02*
X0184071Y0194174D01*
X0184071Y0194672D02*
X0183000Y0194672D01*
X0183000Y0195171D02*
X0184071Y0195171D01*
X0184071Y0195669D02*
X0183000Y0195669D01*
X0183000Y0196168D02*
X0184071Y0196168D01*
X0184071Y0196666D02*
X0183000Y0196666D01*
X0183000Y0197165D02*
X0184071Y0197165D01*
X0184071Y0197663D02*
X0183000Y0197663D01*
X0183000Y0198162D02*
X0184071Y0198162D01*
X0184071Y0198660D02*
X0183000Y0198660D01*
X0183000Y0199159D02*
X0184071Y0199159D01*
X0184071Y0199658D02*
X0183000Y0199658D01*
X0183000Y0200156D02*
X0184071Y0200156D01*
X0184071Y0200655D02*
X0183000Y0200655D01*
X0183000Y0201153D02*
X0184071Y0201153D01*
X0184071Y0201652D02*
X0183000Y0201652D01*
X0183000Y0202150D02*
X0184071Y0202150D01*
X0184071Y0202649D02*
X0183000Y0202649D01*
X0183000Y0203147D02*
X0184071Y0203147D01*
X0184071Y0203646D02*
X0183000Y0203646D01*
X0182831Y0204144D02*
X0184071Y0204144D01*
X0184071Y0204643D02*
X0182332Y0204643D01*
X0181834Y0205141D02*
X0184071Y0205141D01*
X0184071Y0205640D02*
X0181335Y0205640D01*
X0180837Y0206138D02*
X0184071Y0206138D01*
X0184071Y0206637D02*
X0180338Y0206637D01*
X0179840Y0207135D02*
X0184071Y0207135D01*
X0184071Y0207634D02*
X0179341Y0207634D01*
X0178843Y0208132D02*
X0184071Y0208132D01*
X0184071Y0208631D02*
X0178344Y0208631D01*
X0177846Y0209129D02*
X0184071Y0209129D01*
X0184071Y0209628D02*
X0177347Y0209628D01*
X0177248Y0210041D02*
X0178510Y0210041D01*
X0180648Y0212179D01*
X0180648Y0213441D01*
X0177248Y0213441D01*
X0177248Y0213941D01*
X0176748Y0213941D01*
X0176748Y0217341D01*
X0175486Y0217341D01*
X0173348Y0215203D01*
X0173348Y0213941D01*
X0176748Y0213941D01*
X0176748Y0213441D01*
X0177248Y0213441D01*
X0177248Y0210041D01*
X0177248Y0210126D02*
X0176849Y0210126D01*
X0176748Y0210625D02*
X0177248Y0210625D01*
X0177248Y0211123D02*
X0176748Y0211123D01*
X0176748Y0211622D02*
X0177248Y0211622D01*
X0177248Y0212120D02*
X0176748Y0212120D01*
X0176748Y0212619D02*
X0177248Y0212619D01*
X0177248Y0213117D02*
X0176748Y0213117D01*
X0176748Y0213616D02*
X0173359Y0213616D01*
X0173348Y0214114D02*
X0173000Y0214114D01*
X0173000Y0214613D02*
X0173348Y0214613D01*
X0173348Y0215111D02*
X0173000Y0215111D01*
X0173000Y0215610D02*
X0173755Y0215610D01*
X0174254Y0216108D02*
X0172866Y0216108D01*
X0172368Y0216607D02*
X0174752Y0216607D01*
X0175251Y0217105D02*
X0171869Y0217105D01*
X0171371Y0217604D02*
X0184071Y0217604D01*
X0184071Y0218102D02*
X0170872Y0218102D01*
X0170374Y0218601D02*
X0184071Y0218601D01*
X0184071Y0219099D02*
X0169875Y0219099D01*
X0169377Y0219598D02*
X0184071Y0219598D01*
X0184071Y0220096D02*
X0168878Y0220096D01*
X0168380Y0220595D02*
X0174570Y0220595D01*
X0174521Y0220615D02*
X0175185Y0220340D01*
X0175890Y0220200D01*
X0176000Y0220200D01*
X0176000Y0226000D01*
X0176500Y0226000D01*
X0176500Y0226500D01*
X0179900Y0226500D01*
X0179900Y0229009D01*
X0179760Y0229715D01*
X0179485Y0230379D01*
X0179085Y0230977D01*
X0178577Y0231485D01*
X0177979Y0231885D01*
X0177315Y0232160D01*
X0176609Y0232300D01*
X0176500Y0232300D01*
X0176500Y0226500D01*
X0176000Y0226500D01*
X0176000Y0232300D01*
X0175890Y0232300D01*
X0175185Y0232160D01*
X0174521Y0231885D01*
X0173923Y0231485D01*
X0173415Y0230977D01*
X0173015Y0230379D01*
X0172740Y0229715D01*
X0172600Y0229009D01*
X0172600Y0226500D01*
X0176000Y0226500D01*
X0176000Y0226000D01*
X0172600Y0226000D01*
X0172600Y0223490D01*
X0172740Y0222785D01*
X0173015Y0222121D01*
X0173415Y0221523D01*
X0173923Y0221015D01*
X0174521Y0220615D01*
X0173845Y0221093D02*
X0168655Y0221093D01*
X0169154Y0221592D02*
X0173369Y0221592D01*
X0173036Y0222091D02*
X0169472Y0222091D01*
X0169678Y0222589D02*
X0172822Y0222589D01*
X0172680Y0223088D02*
X0169885Y0223088D01*
X0169900Y0223586D02*
X0172600Y0223586D01*
X0172600Y0224085D02*
X0169900Y0224085D01*
X0169900Y0224583D02*
X0172600Y0224583D01*
X0172600Y0225082D02*
X0169900Y0225082D01*
X0169900Y0225580D02*
X0172600Y0225580D01*
X0172600Y0226577D02*
X0169900Y0226577D01*
X0169900Y0226079D02*
X0176000Y0226079D01*
X0176000Y0226577D02*
X0176500Y0226577D01*
X0176500Y0226079D02*
X0184071Y0226079D01*
X0184071Y0226577D02*
X0179900Y0226577D01*
X0179900Y0227076D02*
X0184071Y0227076D01*
X0184071Y0227574D02*
X0179900Y0227574D01*
X0179900Y0228073D02*
X0184071Y0228073D01*
X0184071Y0228571D02*
X0179900Y0228571D01*
X0179888Y0229070D02*
X0184071Y0229070D01*
X0184071Y0229568D02*
X0179789Y0229568D01*
X0179614Y0230067D02*
X0184071Y0230067D01*
X0184071Y0230565D02*
X0179360Y0230565D01*
X0178998Y0231064D02*
X0184071Y0231064D01*
X0184071Y0231562D02*
X0178461Y0231562D01*
X0177554Y0232061D02*
X0184071Y0232061D01*
X0184071Y0232559D02*
X0160416Y0232559D01*
X0160914Y0232061D02*
X0164946Y0232061D01*
X0164000Y0231562D02*
X0161413Y0231562D01*
X0161911Y0231064D02*
X0163502Y0231064D01*
X0163093Y0230565D02*
X0162000Y0230565D01*
X0162000Y0230067D02*
X0162886Y0230067D01*
X0162680Y0229568D02*
X0162000Y0229568D01*
X0162000Y0229070D02*
X0162600Y0229070D01*
X0162600Y0228571D02*
X0162000Y0228571D01*
X0162000Y0228073D02*
X0162600Y0228073D01*
X0162600Y0227574D02*
X0162000Y0227574D01*
X0162000Y0227076D02*
X0162600Y0227076D01*
X0162600Y0226577D02*
X0162000Y0226577D01*
X0162000Y0226079D02*
X0162600Y0226079D01*
X0162600Y0225580D02*
X0162000Y0225580D01*
X0162000Y0225082D02*
X0162600Y0225082D01*
X0162600Y0224583D02*
X0162392Y0224583D01*
X0160433Y0221592D02*
X0159131Y0221592D01*
X0159085Y0221523D02*
X0159485Y0222121D01*
X0159607Y0222418D01*
X0164525Y0217500D01*
X0166525Y0217500D01*
X0166684Y0217341D01*
X0165486Y0217341D01*
X0163348Y0215203D01*
X0163348Y0215000D01*
X0161525Y0215000D01*
X0160500Y0213975D01*
X0150500Y0203975D01*
X0150500Y0187525D01*
X0151525Y0186500D01*
X0153932Y0184093D01*
X0152600Y0182762D01*
X0152600Y0180075D01*
X0147206Y0174681D01*
X0146766Y0174681D01*
X0145939Y0174338D01*
X0146176Y0175067D01*
X0146300Y0175853D01*
X0146300Y0176000D01*
X0141500Y0176000D01*
X0141500Y0176500D01*
X0141500Y0181200D01*
X0141000Y0181200D01*
X0141000Y0176500D01*
X0141500Y0176500D01*
X0146300Y0176500D01*
X0146300Y0176647D01*
X0146176Y0177433D01*
X0145930Y0178189D01*
X0145569Y0178897D01*
X0145102Y0179540D01*
X0144540Y0180102D01*
X0143897Y0180569D01*
X0143189Y0180930D01*
X0142433Y0181176D01*
X0142261Y0181203D01*
X0144111Y0181969D01*
X0145531Y0183389D01*
X0146300Y0185245D01*
X0146300Y0187255D01*
X0145531Y0189111D01*
X0144111Y0190531D01*
X0142375Y0191250D01*
X0144111Y0191969D01*
X0145531Y0193389D01*
X0146300Y0195245D01*
X0146300Y0197255D01*
X0145531Y0199111D01*
X0144111Y0200531D01*
X0142375Y0201250D01*
X0144111Y0201969D01*
X0145531Y0203389D01*
X0146300Y0205245D01*
X0146300Y0207255D01*
X0145531Y0209111D01*
X0144111Y0210531D01*
X0142255Y0211300D01*
X0140245Y0211300D01*
X0138389Y0210531D01*
X0136969Y0209111D01*
X0136200Y0207255D01*
X0136200Y0205245D01*
X0136660Y0204135D01*
X0135000Y0202475D01*
X0135000Y0210136D01*
X0135766Y0209819D01*
X0136734Y0209819D01*
X0137627Y0210189D01*
X0138311Y0210873D01*
X0138681Y0211766D01*
X0138681Y0212734D01*
X0138565Y0213014D01*
X0138878Y0212700D01*
X0140417Y0212063D01*
X0142083Y0212063D01*
X0143622Y0212700D01*
X0144800Y0213878D01*
X0145437Y0215417D01*
X0145437Y0217083D01*
X0144800Y0218622D01*
X0143622Y0219800D01*
X0142083Y0220437D01*
X0140417Y0220437D01*
X0138878Y0219800D01*
X0137700Y0218622D01*
X0137063Y0217083D01*
X0137063Y0215417D01*
X0137499Y0214364D01*
X0136734Y0214681D01*
X0136294Y0214681D01*
X0134000Y0216975D01*
X0134000Y0220964D01*
X0134521Y0220615D01*
X0135185Y0220340D01*
X0135890Y0220200D01*
X0136000Y0220200D01*
X0136000Y0226000D01*
X0136500Y0226000D01*
X0136500Y0226500D01*
X0136000Y0226500D01*
X0136000Y0232300D01*
X0135890Y0232300D01*
X0135185Y0232160D01*
X0135000Y0232083D01*
X0135000Y0238562D01*
X0135311Y0238873D01*
X0135681Y0239766D01*
X0135681Y0240734D01*
X0135311Y0241627D01*
X0134627Y0242311D01*
X0133734Y0242681D01*
X0132766Y0242681D01*
X0131873Y0242311D01*
X0131189Y0241627D01*
X0130819Y0240734D01*
X0130819Y0240646D01*
X0130734Y0240681D01*
X0129766Y0240681D01*
X0128873Y0240311D01*
X0128189Y0239627D01*
X0127819Y0238734D01*
X0127819Y0237766D01*
X0128189Y0236873D01*
X0128500Y0236562D01*
X0128500Y0231562D01*
X0128318Y0231744D01*
X0126976Y0232300D01*
X0125524Y0232300D01*
X0124182Y0231744D01*
X0123156Y0230718D01*
X0122893Y0230082D01*
X0117975Y0235000D01*
X0114525Y0235000D01*
X0113500Y0233975D01*
X0103525Y0224000D01*
X0098364Y0224000D01*
X0098681Y0224766D01*
X0098681Y0225246D01*
X0098800Y0225197D01*
X0100550Y0225197D01*
X0102167Y0225867D01*
X0103405Y0227104D01*
X0104075Y0228721D01*
X0104075Y0230472D01*
X0103405Y0232089D01*
X0102167Y0233326D01*
X0101652Y0233540D01*
X0101981Y0233708D01*
X0102541Y0234115D01*
X0103031Y0234604D01*
X0103438Y0235165D01*
X0103752Y0235782D01*
X0103966Y0236440D01*
X0104075Y0237124D01*
X0104075Y0237220D01*
X0099925Y0237220D01*
X0099925Y0237720D01*
X0104075Y0237720D01*
X0104075Y0237817D01*
X0103966Y0238501D01*
X0103752Y0239159D01*
X0103438Y0239776D01*
X0103031Y0240337D01*
X0102541Y0240826D01*
X0101981Y0241233D01*
X0101652Y0241401D01*
X0102167Y0241615D01*
X0103405Y0242852D01*
X0104075Y0244469D01*
X0104075Y0245950D01*
X0104525Y0245500D01*
X0142525Y0245500D01*
X0155753Y0232273D01*
X0155185Y0232160D01*
X0154521Y0231885D01*
X0153923Y0231485D01*
X0153415Y0230977D01*
X0153015Y0230379D01*
X0152740Y0229715D01*
X0152600Y0229009D01*
X0152600Y0226500D01*
X0156000Y0226500D01*
X0156000Y0226000D01*
X0156500Y0226000D01*
X0156500Y0220200D01*
X0156609Y0220200D01*
X0157315Y0220340D01*
X0157979Y0220615D01*
X0158577Y0221015D01*
X0159085Y0221523D01*
X0158655Y0221093D02*
X0160932Y0221093D01*
X0161430Y0220595D02*
X0157930Y0220595D01*
X0156500Y0220595D02*
X0156000Y0220595D01*
X0156000Y0220200D02*
X0156000Y0226000D01*
X0152600Y0226000D01*
X0152600Y0223490D01*
X0152740Y0222785D01*
X0153015Y0222121D01*
X0153415Y0221523D01*
X0153923Y0221015D01*
X0154521Y0220615D01*
X0155185Y0220340D01*
X0155890Y0220200D01*
X0156000Y0220200D01*
X0156000Y0221093D02*
X0156500Y0221093D01*
X0156500Y0221592D02*
X0156000Y0221592D01*
X0156000Y0222091D02*
X0156500Y0222091D01*
X0156500Y0222589D02*
X0156000Y0222589D01*
X0156000Y0223088D02*
X0156500Y0223088D01*
X0156500Y0223586D02*
X0156000Y0223586D01*
X0156000Y0224085D02*
X0156500Y0224085D01*
X0156500Y0224583D02*
X0156000Y0224583D01*
X0156000Y0225082D02*
X0156500Y0225082D01*
X0156500Y0225580D02*
X0156000Y0225580D01*
X0156000Y0226079D02*
X0149900Y0226079D01*
X0149900Y0226577D02*
X0152600Y0226577D01*
X0152600Y0227076D02*
X0149900Y0227076D01*
X0149900Y0227574D02*
X0152600Y0227574D01*
X0152600Y0228073D02*
X0149900Y0228073D01*
X0149900Y0228571D02*
X0152600Y0228571D01*
X0152612Y0229070D02*
X0149900Y0229070D01*
X0149900Y0229376D02*
X0149344Y0230718D01*
X0148318Y0231744D01*
X0146976Y0232300D01*
X0145524Y0232300D01*
X0144182Y0231744D01*
X0143156Y0230718D01*
X0142600Y0229376D01*
X0142600Y0223124D01*
X0143156Y0221782D01*
X0144182Y0220756D01*
X0145524Y0220200D01*
X0146976Y0220200D01*
X0148318Y0220756D01*
X0149344Y0221782D01*
X0149900Y0223124D01*
X0149900Y0229376D01*
X0149820Y0229568D02*
X0152711Y0229568D01*
X0152886Y0230067D02*
X0149614Y0230067D01*
X0149407Y0230565D02*
X0153140Y0230565D01*
X0153502Y0231064D02*
X0148998Y0231064D01*
X0148500Y0231562D02*
X0154039Y0231562D01*
X0154946Y0232061D02*
X0147554Y0232061D01*
X0144946Y0232061D02*
X0137554Y0232061D01*
X0137315Y0232160D02*
X0137979Y0231885D01*
X0138577Y0231485D01*
X0139085Y0230977D01*
X0139485Y0230379D01*
X0139760Y0229715D01*
X0139900Y0229009D01*
X0139900Y0226500D01*
X0136500Y0226500D01*
X0136500Y0232300D01*
X0136609Y0232300D01*
X0137315Y0232160D01*
X0136500Y0232061D02*
X0136000Y0232061D01*
X0136000Y0231562D02*
X0136500Y0231562D01*
X0136500Y0231064D02*
X0136000Y0231064D01*
X0136000Y0230565D02*
X0136500Y0230565D01*
X0136500Y0230067D02*
X0136000Y0230067D01*
X0136000Y0229568D02*
X0136500Y0229568D01*
X0136500Y0229070D02*
X0136000Y0229070D01*
X0136000Y0228571D02*
X0136500Y0228571D01*
X0136500Y0228073D02*
X0136000Y0228073D01*
X0136000Y0227574D02*
X0136500Y0227574D01*
X0136500Y0227076D02*
X0136000Y0227076D01*
X0136000Y0226577D02*
X0136500Y0226577D01*
X0136500Y0226079D02*
X0142600Y0226079D01*
X0142600Y0226577D02*
X0139900Y0226577D01*
X0139900Y0227076D02*
X0142600Y0227076D01*
X0142600Y0227574D02*
X0139900Y0227574D01*
X0139900Y0228073D02*
X0142600Y0228073D01*
X0142600Y0228571D02*
X0139900Y0228571D01*
X0139888Y0229070D02*
X0142600Y0229070D01*
X0142680Y0229568D02*
X0139789Y0229568D01*
X0139614Y0230067D02*
X0142886Y0230067D01*
X0143093Y0230565D02*
X0139360Y0230565D01*
X0138998Y0231064D02*
X0143502Y0231064D01*
X0144000Y0231562D02*
X0138461Y0231562D01*
X0139900Y0226000D02*
X0136500Y0226000D01*
X0136500Y0220200D01*
X0136609Y0220200D01*
X0137315Y0220340D01*
X0137979Y0220615D01*
X0138577Y0221015D01*
X0139085Y0221523D01*
X0139485Y0222121D01*
X0139760Y0222785D01*
X0139900Y0223490D01*
X0139900Y0226000D01*
X0139900Y0225580D02*
X0142600Y0225580D01*
X0142600Y0225082D02*
X0139900Y0225082D01*
X0139900Y0224583D02*
X0142600Y0224583D01*
X0142600Y0224085D02*
X0139900Y0224085D01*
X0139900Y0223586D02*
X0142600Y0223586D01*
X0142615Y0223088D02*
X0139820Y0223088D01*
X0139678Y0222589D02*
X0142822Y0222589D01*
X0143028Y0222091D02*
X0139464Y0222091D01*
X0139131Y0221592D02*
X0143346Y0221592D01*
X0143845Y0221093D02*
X0138655Y0221093D01*
X0137930Y0220595D02*
X0144570Y0220595D01*
X0143823Y0219598D02*
X0162427Y0219598D01*
X0161929Y0220096D02*
X0142905Y0220096D01*
X0144322Y0219099D02*
X0162926Y0219099D01*
X0163424Y0218601D02*
X0144808Y0218601D01*
X0145015Y0218102D02*
X0163923Y0218102D01*
X0164421Y0217604D02*
X0145221Y0217604D01*
X0145428Y0217105D02*
X0165251Y0217105D01*
X0164752Y0216607D02*
X0145437Y0216607D01*
X0145437Y0216108D02*
X0164254Y0216108D01*
X0163755Y0215610D02*
X0145437Y0215610D01*
X0145310Y0215111D02*
X0163348Y0215111D01*
X0161138Y0214613D02*
X0145104Y0214613D01*
X0144897Y0214114D02*
X0160639Y0214114D01*
X0160141Y0213616D02*
X0144537Y0213616D01*
X0144039Y0213117D02*
X0159642Y0213117D01*
X0159144Y0212619D02*
X0143425Y0212619D01*
X0142221Y0212120D02*
X0158645Y0212120D01*
X0158147Y0211622D02*
X0138621Y0211622D01*
X0138681Y0212120D02*
X0140279Y0212120D01*
X0139819Y0211123D02*
X0138415Y0211123D01*
X0138615Y0210625D02*
X0138063Y0210625D01*
X0137984Y0210126D02*
X0137476Y0210126D01*
X0137486Y0209628D02*
X0135000Y0209628D01*
X0135000Y0210126D02*
X0135024Y0210126D01*
X0135000Y0209129D02*
X0136987Y0209129D01*
X0136770Y0208631D02*
X0135000Y0208631D01*
X0135000Y0208132D02*
X0136564Y0208132D01*
X0136357Y0207634D02*
X0135000Y0207634D01*
X0135000Y0207135D02*
X0136200Y0207135D01*
X0136200Y0206637D02*
X0135000Y0206637D01*
X0135000Y0206138D02*
X0136200Y0206138D01*
X0136200Y0205640D02*
X0135000Y0205640D01*
X0135000Y0205141D02*
X0136243Y0205141D01*
X0136450Y0204643D02*
X0135000Y0204643D01*
X0135000Y0204144D02*
X0136656Y0204144D01*
X0136171Y0203646D02*
X0135000Y0203646D01*
X0135000Y0203147D02*
X0135672Y0203147D01*
X0135174Y0202649D02*
X0135000Y0202649D01*
X0142609Y0201153D02*
X0150500Y0201153D01*
X0150500Y0200655D02*
X0143813Y0200655D01*
X0144486Y0200156D02*
X0150500Y0200156D01*
X0150500Y0199658D02*
X0144984Y0199658D01*
X0145483Y0199159D02*
X0150500Y0199159D01*
X0150500Y0198660D02*
X0145718Y0198660D01*
X0145924Y0198162D02*
X0150500Y0198162D01*
X0150500Y0197663D02*
X0146131Y0197663D01*
X0146300Y0197165D02*
X0150500Y0197165D01*
X0150500Y0196666D02*
X0146300Y0196666D01*
X0146300Y0196168D02*
X0150500Y0196168D01*
X0150500Y0195669D02*
X0146300Y0195669D01*
X0146269Y0195171D02*
X0150500Y0195171D01*
X0150500Y0194672D02*
X0146063Y0194672D01*
X0145856Y0194174D02*
X0150500Y0194174D01*
X0150500Y0193675D02*
X0145650Y0193675D01*
X0145319Y0193177D02*
X0150500Y0193177D01*
X0150500Y0192678D02*
X0144820Y0192678D01*
X0144322Y0192180D02*
X0150500Y0192180D01*
X0150500Y0191681D02*
X0143417Y0191681D01*
X0142537Y0191183D02*
X0150500Y0191183D01*
X0150500Y0190684D02*
X0143741Y0190684D01*
X0144456Y0190186D02*
X0150500Y0190186D01*
X0150500Y0189687D02*
X0144954Y0189687D01*
X0145453Y0189189D02*
X0150500Y0189189D01*
X0150500Y0188690D02*
X0145705Y0188690D01*
X0145912Y0188192D02*
X0150500Y0188192D01*
X0150500Y0187693D02*
X0146118Y0187693D01*
X0146300Y0187195D02*
X0150830Y0187195D01*
X0151329Y0186696D02*
X0146300Y0186696D01*
X0146300Y0186198D02*
X0151827Y0186198D01*
X0152326Y0185699D02*
X0146300Y0185699D01*
X0146281Y0185201D02*
X0152824Y0185201D01*
X0153323Y0184702D02*
X0146075Y0184702D01*
X0145868Y0184204D02*
X0153821Y0184204D01*
X0153543Y0183705D02*
X0145662Y0183705D01*
X0145348Y0183207D02*
X0153045Y0183207D01*
X0152600Y0182708D02*
X0144850Y0182708D01*
X0144351Y0182210D02*
X0152600Y0182210D01*
X0152600Y0181711D02*
X0143488Y0181711D01*
X0143612Y0180714D02*
X0152600Y0180714D01*
X0152600Y0180216D02*
X0144383Y0180216D01*
X0144925Y0179717D02*
X0152242Y0179717D01*
X0151744Y0179219D02*
X0145335Y0179219D01*
X0145659Y0178720D02*
X0151245Y0178720D01*
X0150747Y0178222D02*
X0145913Y0178222D01*
X0146081Y0177723D02*
X0150248Y0177723D01*
X0149750Y0177224D02*
X0146209Y0177224D01*
X0146288Y0176726D02*
X0149251Y0176726D01*
X0148753Y0176227D02*
X0141500Y0176227D01*
X0141500Y0176726D02*
X0141000Y0176726D01*
X0141000Y0176500D02*
X0141000Y0176000D01*
X0136200Y0176000D01*
X0136200Y0175853D01*
X0136324Y0175067D01*
X0136570Y0174311D01*
X0136931Y0173603D01*
X0137398Y0172960D01*
X0137960Y0172398D01*
X0138603Y0171931D01*
X0139311Y0171570D01*
X0140067Y0171324D01*
X0140239Y0171297D01*
X0138389Y0170531D01*
X0136969Y0169111D01*
X0136200Y0167255D01*
X0136200Y0165245D01*
X0136969Y0163389D01*
X0138389Y0161969D01*
X0140125Y0161250D01*
X0138389Y0160531D01*
X0136969Y0159111D01*
X0136200Y0157255D01*
X0136200Y0155245D01*
X0136660Y0154135D01*
X0131559Y0149034D01*
X0131885Y0149521D01*
X0132160Y0150185D01*
X0132300Y0150890D01*
X0132300Y0151000D01*
X0126500Y0151000D01*
X0126500Y0151500D01*
X0126000Y0151500D01*
X0126000Y0154900D01*
X0123490Y0154900D01*
X0122785Y0154760D01*
X0122121Y0154485D01*
X0121523Y0154085D01*
X0121015Y0153577D01*
X0121000Y0153554D01*
X0121000Y0158938D01*
X0121782Y0158156D01*
X0123124Y0157600D01*
X0129376Y0157600D01*
X0130718Y0158156D01*
X0131744Y0159182D01*
X0132300Y0160524D01*
X0132300Y0161976D01*
X0131744Y0163318D01*
X0130718Y0164344D01*
X0129376Y0164900D01*
X0123124Y0164900D01*
X0121782Y0164344D01*
X0121000Y0163562D01*
X0121000Y0168938D01*
X0121782Y0168156D01*
X0123124Y0167600D01*
X0129376Y0167600D01*
X0130718Y0168156D01*
X0131744Y0169182D01*
X0132300Y0170524D01*
X0132300Y0171976D01*
X0131744Y0173318D01*
X0130718Y0174344D01*
X0129376Y0174900D01*
X0123124Y0174900D01*
X0121782Y0174344D01*
X0121000Y0173562D01*
X0121000Y0178938D01*
X0121782Y0178156D01*
X0123124Y0177600D01*
X0129376Y0177600D01*
X0130718Y0178156D01*
X0131744Y0179182D01*
X0132300Y0180524D01*
X0132300Y0181976D01*
X0131744Y0183318D01*
X0131562Y0183500D01*
X0131975Y0183500D01*
X0135975Y0187500D01*
X0136533Y0188058D01*
X0136200Y0187255D01*
X0136200Y0185245D01*
X0136969Y0183389D01*
X0138389Y0181969D01*
X0140239Y0181203D01*
X0140067Y0181176D01*
X0139311Y0180930D01*
X0138603Y0180569D01*
X0137960Y0180102D01*
X0137398Y0179540D01*
X0136931Y0178897D01*
X0136570Y0178189D01*
X0136324Y0177433D01*
X0136200Y0176647D01*
X0136200Y0176500D01*
X0141000Y0176500D01*
X0141000Y0176227D02*
X0121000Y0176227D01*
X0121000Y0175729D02*
X0136220Y0175729D01*
X0136299Y0175230D02*
X0121000Y0175230D01*
X0121000Y0174732D02*
X0122718Y0174732D01*
X0121672Y0174233D02*
X0121000Y0174233D01*
X0121000Y0173735D02*
X0121173Y0173735D01*
X0121000Y0176726D02*
X0136212Y0176726D01*
X0136291Y0177224D02*
X0121000Y0177224D01*
X0121000Y0177723D02*
X0122827Y0177723D01*
X0121717Y0178222D02*
X0121000Y0178222D01*
X0121000Y0178720D02*
X0121218Y0178720D01*
X0121188Y0168750D02*
X0121000Y0168750D01*
X0121000Y0168251D02*
X0121687Y0168251D01*
X0121000Y0167753D02*
X0122755Y0167753D01*
X0121000Y0167254D02*
X0136200Y0167254D01*
X0136200Y0166756D02*
X0121000Y0166756D01*
X0121000Y0166257D02*
X0136200Y0166257D01*
X0136200Y0165759D02*
X0121000Y0165759D01*
X0121000Y0165260D02*
X0136200Y0165260D01*
X0136400Y0164762D02*
X0129710Y0164762D01*
X0130799Y0164263D02*
X0136607Y0164263D01*
X0136813Y0163765D02*
X0131297Y0163765D01*
X0131766Y0163266D02*
X0137092Y0163266D01*
X0137591Y0162768D02*
X0131972Y0162768D01*
X0132179Y0162269D02*
X0138089Y0162269D01*
X0138868Y0161771D02*
X0132300Y0161771D01*
X0132300Y0161272D02*
X0140071Y0161272D01*
X0138975Y0160774D02*
X0132300Y0160774D01*
X0132197Y0160275D02*
X0138133Y0160275D01*
X0137635Y0159777D02*
X0131990Y0159777D01*
X0131784Y0159278D02*
X0137136Y0159278D01*
X0136832Y0158780D02*
X0131341Y0158780D01*
X0130843Y0158281D02*
X0136625Y0158281D01*
X0136419Y0157783D02*
X0129817Y0157783D01*
X0129009Y0154900D02*
X0126500Y0154900D01*
X0126500Y0151500D01*
X0132300Y0151500D01*
X0132300Y0151609D01*
X0132160Y0152315D01*
X0131885Y0152979D01*
X0131485Y0153577D01*
X0130977Y0154085D01*
X0130379Y0154485D01*
X0129715Y0154760D01*
X0129009Y0154900D01*
X0129555Y0154791D02*
X0136388Y0154791D01*
X0136200Y0155290D02*
X0121000Y0155290D01*
X0121000Y0155789D02*
X0136200Y0155789D01*
X0136200Y0156287D02*
X0121000Y0156287D01*
X0121000Y0156786D02*
X0136200Y0156786D01*
X0136212Y0157284D02*
X0121000Y0157284D01*
X0121000Y0157783D02*
X0122683Y0157783D01*
X0121657Y0158281D02*
X0121000Y0158281D01*
X0121000Y0158780D02*
X0121159Y0158780D01*
X0121000Y0154791D02*
X0122945Y0154791D01*
X0121834Y0154293D02*
X0121000Y0154293D01*
X0121000Y0153794D02*
X0121233Y0153794D01*
X0121000Y0148946D02*
X0121015Y0148923D01*
X0121523Y0148415D01*
X0122121Y0148015D01*
X0122785Y0147740D01*
X0123490Y0147600D01*
X0126000Y0147600D01*
X0126000Y0151000D01*
X0126500Y0151000D01*
X0126500Y0147600D01*
X0129009Y0147600D01*
X0129715Y0147740D01*
X0130379Y0148015D01*
X0130866Y0148341D01*
X0127425Y0144900D01*
X0123124Y0144900D01*
X0121782Y0144344D01*
X0121000Y0143562D01*
X0121000Y0148946D01*
X0121000Y0148809D02*
X0121129Y0148809D01*
X0121000Y0148311D02*
X0121679Y0148311D01*
X0121000Y0147812D02*
X0122611Y0147812D01*
X0121000Y0147314D02*
X0129839Y0147314D01*
X0129889Y0147812D02*
X0130337Y0147812D01*
X0130821Y0148311D02*
X0130836Y0148311D01*
X0131742Y0149308D02*
X0131833Y0149308D01*
X0132003Y0149806D02*
X0132332Y0149806D01*
X0132184Y0150305D02*
X0132830Y0150305D01*
X0133329Y0150803D02*
X0132283Y0150803D01*
X0132262Y0151800D02*
X0134326Y0151800D01*
X0134824Y0152299D02*
X0132163Y0152299D01*
X0131960Y0152797D02*
X0135323Y0152797D01*
X0135821Y0153296D02*
X0131673Y0153296D01*
X0131267Y0153794D02*
X0136320Y0153794D01*
X0136595Y0154293D02*
X0130666Y0154293D01*
X0126500Y0154293D02*
X0126000Y0154293D01*
X0126000Y0154791D02*
X0126500Y0154791D01*
X0126500Y0153794D02*
X0126000Y0153794D01*
X0126000Y0153296D02*
X0126500Y0153296D01*
X0126500Y0152797D02*
X0126000Y0152797D01*
X0126000Y0152299D02*
X0126500Y0152299D01*
X0126500Y0151800D02*
X0126000Y0151800D01*
X0126500Y0151302D02*
X0133827Y0151302D01*
X0129340Y0146815D02*
X0121000Y0146815D01*
X0121000Y0146317D02*
X0128842Y0146317D01*
X0128343Y0145818D02*
X0121000Y0145818D01*
X0121000Y0145320D02*
X0127845Y0145320D01*
X0126500Y0147812D02*
X0126000Y0147812D01*
X0126000Y0148311D02*
X0126500Y0148311D01*
X0126500Y0148809D02*
X0126000Y0148809D01*
X0126000Y0149308D02*
X0126500Y0149308D01*
X0126500Y0149806D02*
X0126000Y0149806D01*
X0126000Y0150305D02*
X0126500Y0150305D01*
X0126500Y0150803D02*
X0126000Y0150803D01*
X0122934Y0144821D02*
X0121000Y0144821D01*
X0121000Y0144323D02*
X0121761Y0144323D01*
X0121262Y0143824D02*
X0121000Y0143824D01*
X0121000Y0163765D02*
X0121203Y0163765D01*
X0121000Y0164263D02*
X0121701Y0164263D01*
X0121000Y0164762D02*
X0122790Y0164762D01*
X0129745Y0167753D02*
X0136406Y0167753D01*
X0136613Y0168251D02*
X0130813Y0168251D01*
X0131312Y0168750D02*
X0136819Y0168750D01*
X0137107Y0169248D02*
X0131772Y0169248D01*
X0131978Y0169747D02*
X0137605Y0169747D01*
X0138104Y0170245D02*
X0132185Y0170245D01*
X0132300Y0170744D02*
X0138903Y0170744D01*
X0138976Y0171741D02*
X0132300Y0171741D01*
X0132300Y0171242D02*
X0140106Y0171242D01*
X0142261Y0171297D02*
X0142433Y0171324D01*
X0143189Y0171570D01*
X0143897Y0171931D01*
X0144540Y0172398D01*
X0144819Y0172677D01*
X0144819Y0171766D01*
X0145189Y0170873D01*
X0145873Y0170189D01*
X0146766Y0169819D01*
X0147734Y0169819D01*
X0148627Y0170189D01*
X0149311Y0170873D01*
X0149681Y0171766D01*
X0149681Y0172206D01*
X0155075Y0177600D01*
X0157762Y0177600D01*
X0159900Y0179738D01*
X0159900Y0181125D01*
X0160500Y0180525D01*
X0160500Y0170469D01*
X0160175Y0170334D01*
X0158938Y0169097D01*
X0158268Y0167479D01*
X0158268Y0165729D01*
X0158938Y0164112D01*
X0160175Y0162875D01*
X0160691Y0162661D01*
X0160361Y0162493D01*
X0159801Y0162086D01*
X0159311Y0161596D01*
X0158904Y0161036D01*
X0158590Y0160419D01*
X0158376Y0159761D01*
X0158268Y0159077D01*
X0158268Y0158980D01*
X0162417Y0158980D01*
X0162417Y0158480D01*
X0158268Y0158480D01*
X0158268Y0158384D01*
X0158376Y0157700D01*
X0158590Y0157041D01*
X0158904Y0156424D01*
X0159311Y0155864D01*
X0159801Y0155374D01*
X0160361Y0154967D01*
X0160691Y0154800D01*
X0160175Y0154586D01*
X0158938Y0153348D01*
X0158268Y0151731D01*
X0158268Y0149981D01*
X0158938Y0148364D01*
X0160175Y0147126D01*
X0161792Y0146457D01*
X0163542Y0146457D01*
X0165159Y0147126D01*
X0166397Y0148364D01*
X0167067Y0149981D01*
X0167067Y0151731D01*
X0166815Y0152340D01*
X0170500Y0156025D01*
X0170500Y0144975D01*
X0164596Y0139071D01*
X0163542Y0139508D01*
X0161792Y0139508D01*
X0160175Y0138838D01*
X0159000Y0137663D01*
X0159000Y0138975D01*
X0157975Y0140000D01*
X0145058Y0152917D01*
X0145531Y0153389D01*
X0146300Y0155245D01*
X0146300Y0157255D01*
X0145531Y0159111D01*
X0144111Y0160531D01*
X0142375Y0161250D01*
X0144111Y0161969D01*
X0145531Y0163389D01*
X0146300Y0165245D01*
X0146300Y0167255D01*
X0145531Y0169111D01*
X0144111Y0170531D01*
X0142261Y0171297D01*
X0142394Y0171242D02*
X0145036Y0171242D01*
X0144829Y0171741D02*
X0143524Y0171741D01*
X0144321Y0172239D02*
X0144819Y0172239D01*
X0145318Y0170744D02*
X0143597Y0170744D01*
X0144396Y0170245D02*
X0145817Y0170245D01*
X0144895Y0169747D02*
X0159588Y0169747D01*
X0160086Y0170245D02*
X0148683Y0170245D01*
X0149182Y0170744D02*
X0160500Y0170744D01*
X0160500Y0171242D02*
X0149464Y0171242D01*
X0149671Y0171741D02*
X0160500Y0171741D01*
X0160500Y0172239D02*
X0149714Y0172239D01*
X0150213Y0172738D02*
X0160500Y0172738D01*
X0160500Y0173236D02*
X0150711Y0173236D01*
X0151210Y0173735D02*
X0160500Y0173735D01*
X0160500Y0174233D02*
X0151708Y0174233D01*
X0152207Y0174732D02*
X0160500Y0174732D01*
X0160500Y0175230D02*
X0152705Y0175230D01*
X0153204Y0175729D02*
X0160500Y0175729D01*
X0160500Y0176227D02*
X0153702Y0176227D01*
X0154201Y0176726D02*
X0160500Y0176726D01*
X0160500Y0177224D02*
X0154699Y0177224D01*
X0157885Y0177723D02*
X0160500Y0177723D01*
X0160500Y0178222D02*
X0158383Y0178222D01*
X0158882Y0178720D02*
X0160500Y0178720D01*
X0160500Y0179219D02*
X0159380Y0179219D01*
X0159879Y0179717D02*
X0160500Y0179717D01*
X0160500Y0180216D02*
X0159900Y0180216D01*
X0159900Y0180714D02*
X0160311Y0180714D01*
X0164000Y0178338D02*
X0164738Y0177600D01*
X0167762Y0177600D01*
X0168500Y0178338D01*
X0168500Y0158975D01*
X0166830Y0157305D01*
X0166959Y0157700D01*
X0167067Y0158384D01*
X0167067Y0158480D01*
X0162917Y0158480D01*
X0162917Y0158980D01*
X0167067Y0158980D01*
X0167067Y0159077D01*
X0166959Y0159761D01*
X0166745Y0160419D01*
X0166430Y0161036D01*
X0166023Y0161596D01*
X0165533Y0162086D01*
X0164973Y0162493D01*
X0164644Y0162661D01*
X0165159Y0162875D01*
X0166397Y0164112D01*
X0167067Y0165729D01*
X0167067Y0167479D01*
X0166397Y0169097D01*
X0165159Y0170334D01*
X0164000Y0170814D01*
X0164000Y0178338D01*
X0164000Y0178222D02*
X0164117Y0178222D01*
X0164000Y0177723D02*
X0164615Y0177723D01*
X0164000Y0177224D02*
X0168500Y0177224D01*
X0168500Y0176726D02*
X0164000Y0176726D01*
X0164000Y0176227D02*
X0168500Y0176227D01*
X0168500Y0175729D02*
X0164000Y0175729D01*
X0164000Y0175230D02*
X0168500Y0175230D01*
X0168500Y0174732D02*
X0164000Y0174732D01*
X0164000Y0174233D02*
X0168500Y0174233D01*
X0168500Y0173735D02*
X0164000Y0173735D01*
X0164000Y0173236D02*
X0168500Y0173236D01*
X0168500Y0172738D02*
X0164000Y0172738D01*
X0164000Y0172239D02*
X0168500Y0172239D01*
X0168500Y0171741D02*
X0164000Y0171741D01*
X0164000Y0171242D02*
X0168500Y0171242D01*
X0168500Y0170744D02*
X0164170Y0170744D01*
X0165248Y0170245D02*
X0168500Y0170245D01*
X0168500Y0169747D02*
X0165747Y0169747D01*
X0166245Y0169248D02*
X0168500Y0169248D01*
X0168500Y0168750D02*
X0166541Y0168750D01*
X0166747Y0168251D02*
X0168500Y0168251D01*
X0168500Y0167753D02*
X0166954Y0167753D01*
X0167067Y0167254D02*
X0168500Y0167254D01*
X0168500Y0166756D02*
X0167067Y0166756D01*
X0167067Y0166257D02*
X0168500Y0166257D01*
X0168500Y0165759D02*
X0167067Y0165759D01*
X0166873Y0165260D02*
X0168500Y0165260D01*
X0168500Y0164762D02*
X0166666Y0164762D01*
X0166460Y0164263D02*
X0168500Y0164263D01*
X0168500Y0163765D02*
X0166050Y0163765D01*
X0165551Y0163266D02*
X0168500Y0163266D01*
X0168500Y0162768D02*
X0164902Y0162768D01*
X0165282Y0162269D02*
X0168500Y0162269D01*
X0168500Y0161771D02*
X0165849Y0161771D01*
X0166259Y0161272D02*
X0168500Y0161272D01*
X0168500Y0160774D02*
X0166564Y0160774D01*
X0166791Y0160275D02*
X0168500Y0160275D01*
X0168500Y0159777D02*
X0166953Y0159777D01*
X0167035Y0159278D02*
X0168500Y0159278D01*
X0168305Y0158780D02*
X0162917Y0158780D01*
X0162417Y0158780D02*
X0145668Y0158780D01*
X0145875Y0158281D02*
X0158284Y0158281D01*
X0158363Y0157783D02*
X0146081Y0157783D01*
X0146288Y0157284D02*
X0158511Y0157284D01*
X0158720Y0156786D02*
X0146300Y0156786D01*
X0146300Y0156287D02*
X0159004Y0156287D01*
X0159387Y0155789D02*
X0146300Y0155789D01*
X0146300Y0155290D02*
X0159917Y0155290D01*
X0160671Y0154791D02*
X0146112Y0154791D01*
X0145905Y0154293D02*
X0159882Y0154293D01*
X0159384Y0153794D02*
X0145699Y0153794D01*
X0145438Y0153296D02*
X0158916Y0153296D01*
X0158709Y0152797D02*
X0145177Y0152797D01*
X0145676Y0152299D02*
X0158503Y0152299D01*
X0158296Y0151800D02*
X0146174Y0151800D01*
X0146673Y0151302D02*
X0158268Y0151302D01*
X0158268Y0150803D02*
X0147171Y0150803D01*
X0147670Y0150305D02*
X0158268Y0150305D01*
X0158340Y0149806D02*
X0148168Y0149806D01*
X0148667Y0149308D02*
X0158547Y0149308D01*
X0158753Y0148809D02*
X0149166Y0148809D01*
X0149664Y0148311D02*
X0158991Y0148311D01*
X0159489Y0147812D02*
X0150163Y0147812D01*
X0150661Y0147314D02*
X0159988Y0147314D01*
X0160926Y0146815D02*
X0151160Y0146815D01*
X0151658Y0146317D02*
X0170500Y0146317D01*
X0170500Y0146815D02*
X0164408Y0146815D01*
X0165347Y0147314D02*
X0170500Y0147314D01*
X0170500Y0147812D02*
X0165845Y0147812D01*
X0166344Y0148311D02*
X0170500Y0148311D01*
X0170500Y0148809D02*
X0166582Y0148809D01*
X0166788Y0149308D02*
X0170500Y0149308D01*
X0170500Y0149806D02*
X0166995Y0149806D01*
X0167067Y0150305D02*
X0170500Y0150305D01*
X0170500Y0150803D02*
X0167067Y0150803D01*
X0167067Y0151302D02*
X0170500Y0151302D01*
X0170500Y0151800D02*
X0167038Y0151800D01*
X0166832Y0152299D02*
X0170500Y0152299D01*
X0170500Y0152797D02*
X0167272Y0152797D01*
X0167771Y0153296D02*
X0170500Y0153296D01*
X0170500Y0153794D02*
X0168269Y0153794D01*
X0168768Y0154293D02*
X0170500Y0154293D01*
X0170500Y0154791D02*
X0169266Y0154791D01*
X0169765Y0155290D02*
X0170500Y0155290D01*
X0170500Y0155789D02*
X0170263Y0155789D01*
X0167806Y0158281D02*
X0167051Y0158281D01*
X0166972Y0157783D02*
X0167308Y0157783D01*
X0160433Y0162768D02*
X0144909Y0162768D01*
X0144411Y0162269D02*
X0160053Y0162269D01*
X0159486Y0161771D02*
X0143632Y0161771D01*
X0143525Y0160774D02*
X0158771Y0160774D01*
X0158543Y0160275D02*
X0144367Y0160275D01*
X0144865Y0159777D02*
X0158381Y0159777D01*
X0158300Y0159278D02*
X0145364Y0159278D01*
X0142429Y0161272D02*
X0159076Y0161272D01*
X0159783Y0163266D02*
X0145408Y0163266D01*
X0145687Y0163765D02*
X0159285Y0163765D01*
X0158875Y0164263D02*
X0145893Y0164263D01*
X0146100Y0164762D02*
X0158668Y0164762D01*
X0158462Y0165260D02*
X0146300Y0165260D01*
X0146300Y0165759D02*
X0158268Y0165759D01*
X0158268Y0166257D02*
X0146300Y0166257D01*
X0146300Y0166756D02*
X0158268Y0166756D01*
X0158268Y0167254D02*
X0146300Y0167254D01*
X0146094Y0167753D02*
X0158381Y0167753D01*
X0158587Y0168251D02*
X0145887Y0168251D01*
X0145681Y0168750D02*
X0158794Y0168750D01*
X0159089Y0169248D02*
X0145393Y0169248D01*
X0146067Y0174732D02*
X0147257Y0174732D01*
X0147756Y0175230D02*
X0146201Y0175230D01*
X0146280Y0175729D02*
X0148254Y0175729D01*
X0141500Y0177224D02*
X0141000Y0177224D01*
X0141000Y0177723D02*
X0141500Y0177723D01*
X0141500Y0178222D02*
X0141000Y0178222D01*
X0141000Y0178720D02*
X0141500Y0178720D01*
X0141500Y0179219D02*
X0141000Y0179219D01*
X0141000Y0179717D02*
X0141500Y0179717D01*
X0141500Y0180216D02*
X0141000Y0180216D01*
X0141000Y0180714D02*
X0141500Y0180714D01*
X0142285Y0181213D02*
X0152600Y0181213D01*
X0140215Y0181213D02*
X0132300Y0181213D01*
X0132300Y0181711D02*
X0139012Y0181711D01*
X0138149Y0182210D02*
X0132203Y0182210D01*
X0131997Y0182708D02*
X0137650Y0182708D01*
X0137152Y0183207D02*
X0131790Y0183207D01*
X0132180Y0183705D02*
X0136838Y0183705D01*
X0136632Y0184204D02*
X0132679Y0184204D01*
X0133177Y0184702D02*
X0136425Y0184702D01*
X0136219Y0185201D02*
X0133676Y0185201D01*
X0134174Y0185699D02*
X0136200Y0185699D01*
X0136200Y0186198D02*
X0134673Y0186198D01*
X0135171Y0186696D02*
X0136200Y0186696D01*
X0136200Y0187195D02*
X0135670Y0187195D01*
X0136168Y0187693D02*
X0136382Y0187693D01*
X0138888Y0180714D02*
X0132300Y0180714D01*
X0132172Y0180216D02*
X0138117Y0180216D01*
X0137575Y0179717D02*
X0131966Y0179717D01*
X0131759Y0179219D02*
X0137165Y0179219D01*
X0136841Y0178720D02*
X0131282Y0178720D01*
X0130783Y0178222D02*
X0136587Y0178222D01*
X0136419Y0177723D02*
X0129673Y0177723D01*
X0129782Y0174732D02*
X0136433Y0174732D01*
X0136610Y0174233D02*
X0130828Y0174233D01*
X0131327Y0173735D02*
X0136864Y0173735D01*
X0137197Y0173236D02*
X0131778Y0173236D01*
X0131984Y0172738D02*
X0137620Y0172738D01*
X0138179Y0172239D02*
X0132191Y0172239D01*
X0143345Y0201652D02*
X0150500Y0201652D01*
X0150500Y0202150D02*
X0144292Y0202150D01*
X0144790Y0202649D02*
X0150500Y0202649D01*
X0150500Y0203147D02*
X0145289Y0203147D01*
X0145637Y0203646D02*
X0150500Y0203646D01*
X0150669Y0204144D02*
X0145844Y0204144D01*
X0146050Y0204643D02*
X0151168Y0204643D01*
X0151666Y0205141D02*
X0146257Y0205141D01*
X0146300Y0205640D02*
X0152165Y0205640D01*
X0152663Y0206138D02*
X0146300Y0206138D01*
X0146300Y0206637D02*
X0153162Y0206637D01*
X0153660Y0207135D02*
X0146300Y0207135D01*
X0146143Y0207634D02*
X0154159Y0207634D01*
X0154657Y0208132D02*
X0145936Y0208132D01*
X0145730Y0208631D02*
X0155156Y0208631D01*
X0155654Y0209129D02*
X0145513Y0209129D01*
X0145014Y0209628D02*
X0156153Y0209628D01*
X0156651Y0210126D02*
X0144516Y0210126D01*
X0143885Y0210625D02*
X0157150Y0210625D01*
X0157648Y0211123D02*
X0142681Y0211123D01*
X0139075Y0212619D02*
X0138681Y0212619D01*
X0137396Y0214613D02*
X0136898Y0214613D01*
X0137190Y0215111D02*
X0135863Y0215111D01*
X0135365Y0215610D02*
X0137063Y0215610D01*
X0137063Y0216108D02*
X0134866Y0216108D01*
X0134368Y0216607D02*
X0137063Y0216607D01*
X0137072Y0217105D02*
X0134000Y0217105D01*
X0134000Y0217604D02*
X0137279Y0217604D01*
X0137485Y0218102D02*
X0134000Y0218102D01*
X0134000Y0218601D02*
X0137692Y0218601D01*
X0138178Y0219099D02*
X0134000Y0219099D01*
X0134000Y0219598D02*
X0138677Y0219598D01*
X0139595Y0220096D02*
X0134000Y0220096D01*
X0134000Y0220595D02*
X0134570Y0220595D01*
X0136000Y0220595D02*
X0136500Y0220595D01*
X0136500Y0221093D02*
X0136000Y0221093D01*
X0136000Y0221592D02*
X0136500Y0221592D01*
X0136500Y0222091D02*
X0136000Y0222091D01*
X0136000Y0222589D02*
X0136500Y0222589D01*
X0136500Y0223088D02*
X0136000Y0223088D01*
X0136000Y0223586D02*
X0136500Y0223586D01*
X0136500Y0224085D02*
X0136000Y0224085D01*
X0136000Y0224583D02*
X0136500Y0224583D01*
X0136500Y0225082D02*
X0136000Y0225082D01*
X0136000Y0225580D02*
X0136500Y0225580D01*
X0135000Y0232559D02*
X0155466Y0232559D01*
X0154967Y0233058D02*
X0135000Y0233058D01*
X0135000Y0233556D02*
X0154469Y0233556D01*
X0153970Y0234055D02*
X0135000Y0234055D01*
X0135000Y0234553D02*
X0153472Y0234553D01*
X0152973Y0235052D02*
X0135000Y0235052D01*
X0135000Y0235550D02*
X0152475Y0235550D01*
X0151976Y0236049D02*
X0135000Y0236049D01*
X0135000Y0236547D02*
X0151478Y0236547D01*
X0150979Y0237046D02*
X0135000Y0237046D01*
X0135000Y0237544D02*
X0150481Y0237544D01*
X0149982Y0238043D02*
X0135000Y0238043D01*
X0135000Y0238541D02*
X0149484Y0238541D01*
X0148985Y0239040D02*
X0135380Y0239040D01*
X0135587Y0239538D02*
X0148487Y0239538D01*
X0147988Y0240037D02*
X0135681Y0240037D01*
X0135681Y0240535D02*
X0147490Y0240535D01*
X0146991Y0241034D02*
X0135557Y0241034D01*
X0135350Y0241532D02*
X0146493Y0241532D01*
X0145994Y0242031D02*
X0134907Y0242031D01*
X0134100Y0242529D02*
X0145496Y0242529D01*
X0144997Y0243028D02*
X0103478Y0243028D01*
X0103684Y0243527D02*
X0144499Y0243527D01*
X0144000Y0244025D02*
X0103891Y0244025D01*
X0104075Y0244524D02*
X0143502Y0244524D01*
X0143003Y0245022D02*
X0104075Y0245022D01*
X0104075Y0245521D02*
X0104505Y0245521D01*
X0103082Y0242529D02*
X0132400Y0242529D01*
X0131593Y0242031D02*
X0102584Y0242031D01*
X0101969Y0241532D02*
X0131150Y0241532D01*
X0130943Y0241034D02*
X0102256Y0241034D01*
X0102832Y0240535D02*
X0129415Y0240535D01*
X0128599Y0240037D02*
X0103249Y0240037D01*
X0103559Y0239538D02*
X0128152Y0239538D01*
X0127946Y0239040D02*
X0103791Y0239040D01*
X0103953Y0238541D02*
X0127819Y0238541D01*
X0127819Y0238043D02*
X0104039Y0238043D01*
X0104062Y0237046D02*
X0128117Y0237046D01*
X0127911Y0237544D02*
X0099925Y0237544D01*
X0099425Y0237544D02*
X0084589Y0237544D01*
X0084681Y0237766D02*
X0084681Y0238734D01*
X0084311Y0239627D01*
X0084006Y0239932D01*
X0084627Y0240189D01*
X0085311Y0240873D01*
X0085681Y0241766D01*
X0085681Y0242734D01*
X0085364Y0243500D01*
X0095677Y0243500D01*
X0095945Y0242852D01*
X0097183Y0241615D01*
X0097699Y0241401D01*
X0097369Y0241233D01*
X0096809Y0240826D01*
X0096319Y0240337D01*
X0095912Y0239776D01*
X0095598Y0239159D01*
X0095384Y0238501D01*
X0095276Y0237817D01*
X0095276Y0237720D01*
X0099425Y0237720D01*
X0099425Y0237220D01*
X0095276Y0237220D01*
X0095276Y0237124D01*
X0095384Y0236440D01*
X0095598Y0235782D01*
X0095912Y0235165D01*
X0096319Y0234604D01*
X0096809Y0234115D01*
X0097369Y0233708D01*
X0097699Y0233540D01*
X0097183Y0233326D01*
X0095945Y0232089D01*
X0095276Y0230472D01*
X0095276Y0228721D01*
X0095291Y0228684D01*
X0093975Y0230000D01*
X0089938Y0230000D01*
X0089627Y0230311D01*
X0088734Y0230681D01*
X0087766Y0230681D01*
X0086873Y0230311D01*
X0086189Y0229627D01*
X0085819Y0228734D01*
X0085819Y0227766D01*
X0086136Y0227000D01*
X0083364Y0227000D01*
X0083681Y0227766D01*
X0083681Y0228206D01*
X0084000Y0228525D01*
X0084000Y0236562D01*
X0084311Y0236873D01*
X0084681Y0237766D01*
X0084681Y0238043D02*
X0095311Y0238043D01*
X0095397Y0238541D02*
X0084681Y0238541D01*
X0084554Y0239040D02*
X0095559Y0239040D01*
X0095791Y0239538D02*
X0084348Y0239538D01*
X0084260Y0240037D02*
X0096102Y0240037D01*
X0096518Y0240535D02*
X0084974Y0240535D01*
X0085378Y0241034D02*
X0097095Y0241034D01*
X0097382Y0241532D02*
X0085584Y0241532D01*
X0085681Y0242031D02*
X0096767Y0242031D01*
X0096268Y0242529D02*
X0085681Y0242529D01*
X0085559Y0243028D02*
X0095873Y0243028D01*
X0095288Y0237046D02*
X0084383Y0237046D01*
X0084000Y0236547D02*
X0095367Y0236547D01*
X0095511Y0236049D02*
X0084000Y0236049D01*
X0084000Y0235550D02*
X0095716Y0235550D01*
X0095994Y0235052D02*
X0084000Y0235052D01*
X0084000Y0234553D02*
X0096370Y0234553D01*
X0096891Y0234055D02*
X0084000Y0234055D01*
X0084000Y0233556D02*
X0097666Y0233556D01*
X0096915Y0233058D02*
X0084000Y0233058D01*
X0084000Y0232559D02*
X0096416Y0232559D01*
X0095934Y0232061D02*
X0084000Y0232061D01*
X0084000Y0231562D02*
X0095727Y0231562D01*
X0095521Y0231064D02*
X0084000Y0231064D01*
X0084000Y0230565D02*
X0087487Y0230565D01*
X0086629Y0230067D02*
X0084000Y0230067D01*
X0084000Y0229568D02*
X0086165Y0229568D01*
X0085958Y0229070D02*
X0084000Y0229070D01*
X0084000Y0228571D02*
X0085819Y0228571D01*
X0085819Y0228073D02*
X0083681Y0228073D01*
X0083601Y0227574D02*
X0085899Y0227574D01*
X0086105Y0227076D02*
X0083395Y0227076D01*
X0089013Y0230565D02*
X0095314Y0230565D01*
X0095276Y0230067D02*
X0089871Y0230067D01*
X0094407Y0229568D02*
X0095276Y0229568D01*
X0095276Y0229070D02*
X0094905Y0229070D01*
X0098681Y0225082D02*
X0104607Y0225082D01*
X0105105Y0225580D02*
X0101476Y0225580D01*
X0102379Y0226079D02*
X0105604Y0226079D01*
X0106102Y0226577D02*
X0102878Y0226577D01*
X0103376Y0227076D02*
X0106601Y0227076D01*
X0107099Y0227574D02*
X0103600Y0227574D01*
X0103806Y0228073D02*
X0107598Y0228073D01*
X0108096Y0228571D02*
X0104013Y0228571D01*
X0104075Y0229070D02*
X0108595Y0229070D01*
X0109093Y0229568D02*
X0104075Y0229568D01*
X0104075Y0230067D02*
X0109592Y0230067D01*
X0110090Y0230565D02*
X0104036Y0230565D01*
X0103830Y0231064D02*
X0110589Y0231064D01*
X0111087Y0231562D02*
X0103623Y0231562D01*
X0103417Y0232061D02*
X0111586Y0232061D01*
X0112084Y0232559D02*
X0102934Y0232559D01*
X0102436Y0233058D02*
X0112583Y0233058D01*
X0113081Y0233556D02*
X0101684Y0233556D01*
X0102459Y0234055D02*
X0113580Y0234055D01*
X0114078Y0234553D02*
X0102980Y0234553D01*
X0103356Y0235052D02*
X0128500Y0235052D01*
X0128500Y0235550D02*
X0103635Y0235550D01*
X0103839Y0236049D02*
X0128500Y0236049D01*
X0128500Y0236547D02*
X0103983Y0236547D01*
X0104108Y0224583D02*
X0098605Y0224583D01*
X0098399Y0224085D02*
X0103610Y0224085D01*
X0118422Y0234553D02*
X0128500Y0234553D01*
X0128500Y0234055D02*
X0118920Y0234055D01*
X0119419Y0233556D02*
X0128500Y0233556D01*
X0128500Y0233058D02*
X0119917Y0233058D01*
X0120416Y0232559D02*
X0128500Y0232559D01*
X0128500Y0232061D02*
X0127554Y0232061D01*
X0128500Y0231562D02*
X0128500Y0231562D01*
X0124946Y0232061D02*
X0120914Y0232061D01*
X0121413Y0231562D02*
X0124000Y0231562D01*
X0123502Y0231064D02*
X0121911Y0231064D01*
X0122410Y0230565D02*
X0123093Y0230565D01*
X0123946Y0251000D02*
X0118562Y0251000D01*
X0119344Y0251782D01*
X0119900Y0253124D01*
X0119900Y0259376D01*
X0119344Y0260718D01*
X0118562Y0261500D01*
X0123946Y0261500D01*
X0123923Y0261485D01*
X0123415Y0260977D01*
X0123015Y0260379D01*
X0122740Y0259715D01*
X0122600Y0259009D01*
X0122600Y0256500D01*
X0126000Y0256500D01*
X0126000Y0256000D01*
X0122600Y0256000D01*
X0122600Y0253490D01*
X0122740Y0252785D01*
X0123015Y0252121D01*
X0123415Y0251523D01*
X0123923Y0251015D01*
X0123946Y0251000D01*
X0123939Y0251004D02*
X0118566Y0251004D01*
X0119065Y0251503D02*
X0123435Y0251503D01*
X0123096Y0252001D02*
X0119435Y0252001D01*
X0119641Y0252500D02*
X0122859Y0252500D01*
X0122698Y0252998D02*
X0119848Y0252998D01*
X0119900Y0253497D02*
X0122600Y0253497D01*
X0122600Y0253995D02*
X0119900Y0253995D01*
X0119900Y0254494D02*
X0122600Y0254494D01*
X0122600Y0254992D02*
X0119900Y0254992D01*
X0119900Y0255491D02*
X0122600Y0255491D01*
X0122600Y0255989D02*
X0119900Y0255989D01*
X0119900Y0256488D02*
X0126000Y0256488D01*
X0126500Y0256488D02*
X0132600Y0256488D01*
X0132600Y0256986D02*
X0129900Y0256986D01*
X0129900Y0257485D02*
X0132600Y0257485D01*
X0132600Y0257983D02*
X0129900Y0257983D01*
X0129900Y0258482D02*
X0132600Y0258482D01*
X0132600Y0258980D02*
X0129900Y0258980D01*
X0129807Y0259479D02*
X0132643Y0259479D01*
X0132849Y0259977D02*
X0129651Y0259977D01*
X0129420Y0260476D02*
X0133056Y0260476D01*
X0133413Y0260974D02*
X0129087Y0260974D01*
X0128589Y0261473D02*
X0133911Y0261473D01*
X0134731Y0261971D02*
X0129446Y0261971D01*
X0129945Y0262470D02*
X0165555Y0262470D01*
X0165057Y0262968D02*
X0130443Y0262968D01*
X0130942Y0263467D02*
X0164558Y0263467D01*
X0164060Y0263965D02*
X0131440Y0263965D01*
X0131939Y0264464D02*
X0134284Y0264464D01*
X0133527Y0264962D02*
X0132437Y0264962D01*
X0132936Y0265461D02*
X0133029Y0265461D01*
X0138216Y0264464D02*
X0144284Y0264464D01*
X0143527Y0264962D02*
X0138973Y0264962D01*
X0139471Y0265461D02*
X0143029Y0265461D01*
X0142599Y0265960D02*
X0139901Y0265960D01*
X0140108Y0266458D02*
X0142392Y0266458D01*
X0142186Y0266957D02*
X0140314Y0266957D01*
X0140500Y0267455D02*
X0142000Y0267455D01*
X0142000Y0267954D02*
X0140500Y0267954D01*
X0140500Y0268452D02*
X0142000Y0268452D01*
X0142000Y0268951D02*
X0140500Y0268951D01*
X0140500Y0269449D02*
X0142000Y0269449D01*
X0142000Y0269948D02*
X0140500Y0269948D01*
X0140500Y0270446D02*
X0142000Y0270446D01*
X0142000Y0270945D02*
X0140500Y0270945D01*
X0140500Y0271443D02*
X0142000Y0271443D01*
X0142000Y0271942D02*
X0140500Y0271942D01*
X0140500Y0272440D02*
X0142000Y0272440D01*
X0142000Y0272939D02*
X0140500Y0272939D01*
X0140500Y0273437D02*
X0141588Y0273437D01*
X0141089Y0273936D02*
X0140500Y0273936D01*
X0140500Y0274434D02*
X0140591Y0274434D01*
X0142550Y0277425D02*
X0143415Y0277425D01*
X0144014Y0277924D02*
X0142051Y0277924D01*
X0141553Y0278422D02*
X0145217Y0278422D01*
X0147283Y0278422D02*
X0155217Y0278422D01*
X0154014Y0277924D02*
X0148486Y0277924D01*
X0149085Y0277425D02*
X0153415Y0277425D01*
X0152916Y0276927D02*
X0149584Y0276927D01*
X0149948Y0276428D02*
X0152552Y0276428D01*
X0152346Y0275930D02*
X0150154Y0275930D01*
X0150361Y0275431D02*
X0152139Y0275431D01*
X0152000Y0274933D02*
X0150500Y0274933D01*
X0150500Y0274434D02*
X0152000Y0274434D01*
X0152000Y0273936D02*
X0150500Y0273936D01*
X0150500Y0273437D02*
X0152000Y0273437D01*
X0152000Y0272939D02*
X0150500Y0272939D01*
X0150500Y0272440D02*
X0152000Y0272440D01*
X0152000Y0271942D02*
X0150500Y0271942D01*
X0150500Y0271443D02*
X0152000Y0271443D01*
X0152000Y0270945D02*
X0150500Y0270945D01*
X0150500Y0270446D02*
X0152000Y0270446D01*
X0152000Y0269948D02*
X0150500Y0269948D01*
X0150500Y0269449D02*
X0152000Y0269449D01*
X0152000Y0268951D02*
X0150500Y0268951D01*
X0150500Y0268452D02*
X0152000Y0268452D01*
X0152000Y0267954D02*
X0150500Y0267954D01*
X0150500Y0267455D02*
X0152000Y0267455D01*
X0152186Y0266957D02*
X0150314Y0266957D01*
X0150108Y0266458D02*
X0152392Y0266458D01*
X0152599Y0265960D02*
X0149901Y0265960D01*
X0149471Y0265461D02*
X0153029Y0265461D01*
X0153527Y0264962D02*
X0148973Y0264962D01*
X0148216Y0264464D02*
X0154284Y0264464D01*
X0154731Y0261971D02*
X0147769Y0261971D01*
X0148589Y0261473D02*
X0153911Y0261473D01*
X0153413Y0260974D02*
X0149087Y0260974D01*
X0149420Y0260476D02*
X0153056Y0260476D01*
X0152849Y0259977D02*
X0149651Y0259977D01*
X0149807Y0259479D02*
X0152643Y0259479D01*
X0152600Y0258980D02*
X0149900Y0258980D01*
X0149900Y0258482D02*
X0152600Y0258482D01*
X0152600Y0257983D02*
X0149900Y0257983D01*
X0149900Y0257485D02*
X0152600Y0257485D01*
X0152600Y0256986D02*
X0149900Y0256986D01*
X0149900Y0255989D02*
X0152600Y0255989D01*
X0152600Y0255491D02*
X0149900Y0255491D01*
X0149900Y0254992D02*
X0152600Y0254992D01*
X0152600Y0254494D02*
X0149900Y0254494D01*
X0149900Y0253995D02*
X0152600Y0253995D01*
X0152600Y0253497D02*
X0149900Y0253497D01*
X0149802Y0252998D02*
X0152652Y0252998D01*
X0152859Y0252500D02*
X0149641Y0252500D01*
X0149404Y0252001D02*
X0153065Y0252001D01*
X0153435Y0251503D02*
X0149065Y0251503D01*
X0148561Y0251004D02*
X0153934Y0251004D01*
X0152600Y0256488D02*
X0146500Y0256488D01*
X0146500Y0256986D02*
X0146000Y0256986D01*
X0146000Y0256488D02*
X0139900Y0256488D01*
X0139900Y0256986D02*
X0142600Y0256986D01*
X0142600Y0257485D02*
X0139900Y0257485D01*
X0139900Y0257983D02*
X0142600Y0257983D01*
X0142600Y0258482D02*
X0139900Y0258482D01*
X0139900Y0258980D02*
X0142600Y0258980D01*
X0142693Y0259479D02*
X0139857Y0259479D01*
X0139651Y0259977D02*
X0142849Y0259977D01*
X0143080Y0260476D02*
X0139444Y0260476D01*
X0139087Y0260974D02*
X0143413Y0260974D01*
X0143911Y0261473D02*
X0138589Y0261473D01*
X0137769Y0261971D02*
X0144731Y0261971D01*
X0146000Y0261971D02*
X0146500Y0261971D01*
X0146500Y0261473D02*
X0146000Y0261473D01*
X0146000Y0260974D02*
X0146500Y0260974D01*
X0146500Y0260476D02*
X0146000Y0260476D01*
X0146000Y0259977D02*
X0146500Y0259977D01*
X0146500Y0259479D02*
X0146000Y0259479D01*
X0146000Y0258980D02*
X0146500Y0258980D01*
X0146500Y0258482D02*
X0146000Y0258482D01*
X0146000Y0257983D02*
X0146500Y0257983D01*
X0146500Y0257485D02*
X0146000Y0257485D01*
X0142600Y0255989D02*
X0139900Y0255989D01*
X0139900Y0255491D02*
X0142600Y0255491D01*
X0142600Y0254992D02*
X0139900Y0254992D01*
X0139900Y0254494D02*
X0142600Y0254494D01*
X0142600Y0253995D02*
X0139900Y0253995D01*
X0139900Y0253497D02*
X0142600Y0253497D01*
X0142698Y0252998D02*
X0139848Y0252998D01*
X0139641Y0252500D02*
X0142859Y0252500D01*
X0143096Y0252001D02*
X0139435Y0252001D01*
X0139065Y0251503D02*
X0143435Y0251503D01*
X0143939Y0251004D02*
X0138566Y0251004D01*
X0133934Y0251004D02*
X0128561Y0251004D01*
X0129065Y0251503D02*
X0133435Y0251503D01*
X0133065Y0252001D02*
X0129404Y0252001D01*
X0129641Y0252500D02*
X0132859Y0252500D01*
X0132652Y0252998D02*
X0129802Y0252998D01*
X0129900Y0253497D02*
X0132600Y0253497D01*
X0132600Y0253995D02*
X0129900Y0253995D01*
X0129900Y0254494D02*
X0132600Y0254494D01*
X0132600Y0254992D02*
X0129900Y0254992D01*
X0129900Y0255491D02*
X0132600Y0255491D01*
X0132600Y0255989D02*
X0129900Y0255989D01*
X0122600Y0256986D02*
X0119900Y0256986D01*
X0119900Y0257485D02*
X0122600Y0257485D01*
X0122600Y0257983D02*
X0119900Y0257983D01*
X0119900Y0258482D02*
X0122600Y0258482D01*
X0122600Y0258980D02*
X0119900Y0258980D01*
X0119857Y0259479D02*
X0122693Y0259479D01*
X0122849Y0259977D02*
X0119651Y0259977D01*
X0119444Y0260476D02*
X0123080Y0260476D01*
X0123413Y0260974D02*
X0119087Y0260974D01*
X0118589Y0261473D02*
X0123911Y0261473D01*
X0139060Y0280915D02*
X0171562Y0280915D01*
X0172765Y0281413D02*
X0014774Y0281413D01*
X0015978Y0280915D02*
X0099440Y0280915D01*
X0098941Y0280416D02*
X0017181Y0280416D01*
X0018093Y0279918D02*
X0098443Y0279918D01*
X0097944Y0279419D02*
X0018591Y0279419D01*
X0019090Y0278921D02*
X0097446Y0278921D01*
X0096947Y0278422D02*
X0019588Y0278422D01*
X0020087Y0277924D02*
X0096449Y0277924D01*
X0095950Y0277425D02*
X0020408Y0277425D01*
X0020614Y0276927D02*
X0095452Y0276927D01*
X0094953Y0276428D02*
X0020821Y0276428D01*
X0021027Y0275930D02*
X0094455Y0275930D01*
X0093956Y0275431D02*
X0021234Y0275431D01*
X0021440Y0274933D02*
X0093458Y0274933D01*
X0092959Y0274434D02*
X0021579Y0274434D01*
X0021579Y0273936D02*
X0092461Y0273936D01*
X0091962Y0273437D02*
X0021579Y0273437D01*
X0021579Y0272939D02*
X0091464Y0272939D01*
X0090965Y0272440D02*
X0021579Y0272440D01*
X0021579Y0271942D02*
X0090467Y0271942D01*
X0089968Y0271443D02*
X0021579Y0271443D01*
X0021469Y0270945D02*
X0089470Y0270945D01*
X0088971Y0270446D02*
X0021263Y0270446D01*
X0021056Y0269948D02*
X0088473Y0269948D01*
X0087974Y0269449D02*
X0020850Y0269449D01*
X0020643Y0268951D02*
X0087476Y0268951D01*
X0086977Y0268452D02*
X0020437Y0268452D01*
X0020157Y0267954D02*
X0086479Y0267954D01*
X0085980Y0267455D02*
X0019658Y0267455D01*
X0019160Y0266957D02*
X0085482Y0266957D01*
X0084983Y0266458D02*
X0018661Y0266458D01*
X0018163Y0265960D02*
X0084485Y0265960D01*
X0083986Y0265461D02*
X0017351Y0265461D01*
X0016147Y0264962D02*
X0083488Y0264962D01*
X0043356Y0195669D02*
X0043000Y0195669D01*
X0043000Y0195171D02*
X0043854Y0195171D01*
X0044353Y0194672D02*
X0043000Y0194672D01*
X0043000Y0194174D02*
X0044851Y0194174D01*
X0045350Y0193675D02*
X0043000Y0193675D01*
X0043000Y0193177D02*
X0045848Y0193177D01*
X0046347Y0192678D02*
X0043000Y0192678D01*
X0043000Y0192180D02*
X0046845Y0192180D01*
X0047344Y0191681D02*
X0043000Y0191681D01*
X0043000Y0191183D02*
X0047842Y0191183D01*
X0048341Y0190684D02*
X0043000Y0190684D01*
X0043000Y0190186D02*
X0048839Y0190186D01*
X0049338Y0189687D02*
X0043000Y0189687D01*
X0043000Y0189189D02*
X0049836Y0189189D01*
X0050335Y0188690D02*
X0043000Y0188690D01*
X0043000Y0188192D02*
X0050833Y0188192D01*
X0051332Y0187693D02*
X0043000Y0187693D01*
X0043000Y0187195D02*
X0051500Y0187195D01*
X0051500Y0186696D02*
X0043000Y0186696D01*
X0043000Y0186198D02*
X0051500Y0186198D01*
X0051500Y0185699D02*
X0043000Y0185699D01*
X0043000Y0185201D02*
X0051500Y0185201D01*
X0051500Y0184702D02*
X0043000Y0184702D01*
X0043000Y0184204D02*
X0051500Y0184204D01*
X0051500Y0183705D02*
X0043000Y0183705D01*
X0043000Y0183207D02*
X0051500Y0183207D01*
X0051500Y0182708D02*
X0043000Y0182708D01*
X0043000Y0182210D02*
X0051500Y0182210D01*
X0141054Y0278921D02*
X0168450Y0278921D01*
X0168948Y0279419D02*
X0140556Y0279419D01*
X0140057Y0279918D02*
X0169447Y0279918D01*
X0169653Y0280125D02*
X0167257Y0277728D01*
X0165961Y0274598D01*
X0165961Y0271209D01*
X0167257Y0268079D01*
X0169653Y0265683D01*
X0172784Y0264386D01*
X0176173Y0264386D01*
X0179303Y0265683D01*
X0181699Y0268079D01*
X0182996Y0271209D01*
X0182996Y0274598D01*
X0181699Y0277728D01*
X0179303Y0280125D01*
X0176173Y0281421D01*
X0172784Y0281421D01*
X0169653Y0280125D01*
X0170358Y0280416D02*
X0139559Y0280416D01*
X0157283Y0278422D02*
X0167951Y0278422D01*
X0167453Y0277924D02*
X0158486Y0277924D01*
X0159085Y0277425D02*
X0167132Y0277425D01*
X0166925Y0276927D02*
X0159584Y0276927D01*
X0159948Y0276428D02*
X0166719Y0276428D01*
X0166512Y0275930D02*
X0160154Y0275930D01*
X0160361Y0275431D02*
X0166306Y0275431D01*
X0166099Y0274933D02*
X0160500Y0274933D01*
X0160500Y0274434D02*
X0165961Y0274434D01*
X0165961Y0273936D02*
X0160500Y0273936D01*
X0160500Y0273437D02*
X0165961Y0273437D01*
X0165961Y0272939D02*
X0160500Y0272939D01*
X0160535Y0272440D02*
X0165961Y0272440D01*
X0165961Y0271942D02*
X0161033Y0271942D01*
X0161532Y0271443D02*
X0165961Y0271443D01*
X0166070Y0270945D02*
X0162030Y0270945D01*
X0162529Y0270446D02*
X0166277Y0270446D01*
X0166483Y0269948D02*
X0163027Y0269948D01*
X0163526Y0269449D02*
X0166690Y0269449D01*
X0166896Y0268951D02*
X0164024Y0268951D01*
X0164523Y0268452D02*
X0167103Y0268452D01*
X0167382Y0267954D02*
X0165021Y0267954D01*
X0165520Y0267455D02*
X0167881Y0267455D01*
X0168379Y0266957D02*
X0166018Y0266957D01*
X0166517Y0266458D02*
X0168878Y0266458D01*
X0169377Y0265960D02*
X0167015Y0265960D01*
X0167514Y0265461D02*
X0170188Y0265461D01*
X0171392Y0264962D02*
X0168012Y0264962D01*
X0168511Y0264464D02*
X0172595Y0264464D01*
X0170505Y0262470D02*
X0184071Y0262470D01*
X0184071Y0262968D02*
X0170006Y0262968D01*
X0169508Y0263467D02*
X0184071Y0263467D01*
X0184071Y0263965D02*
X0169009Y0263965D01*
X0171003Y0261971D02*
X0174731Y0261971D01*
X0174182Y0261744D02*
X0173156Y0260718D01*
X0172600Y0259376D01*
X0172600Y0253124D01*
X0173156Y0251782D01*
X0174182Y0250756D01*
X0175524Y0250200D01*
X0176976Y0250200D01*
X0178318Y0250756D01*
X0179344Y0251782D01*
X0179900Y0253124D01*
X0179900Y0259376D01*
X0179344Y0260718D01*
X0178318Y0261744D01*
X0176976Y0262300D01*
X0175524Y0262300D01*
X0174182Y0261744D01*
X0173911Y0261473D02*
X0171502Y0261473D01*
X0172000Y0260974D02*
X0173413Y0260974D01*
X0173056Y0260476D02*
X0172000Y0260476D01*
X0172000Y0259977D02*
X0172849Y0259977D01*
X0172643Y0259479D02*
X0172000Y0259479D01*
X0172000Y0258980D02*
X0172600Y0258980D01*
X0172600Y0258482D02*
X0172000Y0258482D01*
X0172000Y0257983D02*
X0172600Y0257983D01*
X0172600Y0257485D02*
X0172000Y0257485D01*
X0172000Y0256986D02*
X0172600Y0256986D01*
X0172600Y0256488D02*
X0172000Y0256488D01*
X0172000Y0255989D02*
X0172600Y0255989D01*
X0172600Y0255491D02*
X0172000Y0255491D01*
X0172000Y0254992D02*
X0172600Y0254992D01*
X0172600Y0254494D02*
X0172000Y0254494D01*
X0172000Y0253995D02*
X0172600Y0253995D01*
X0172600Y0253497D02*
X0172000Y0253497D01*
X0172000Y0252998D02*
X0172652Y0252998D01*
X0172859Y0252500D02*
X0172000Y0252500D01*
X0172000Y0252001D02*
X0173065Y0252001D01*
X0173435Y0251503D02*
X0171978Y0251503D01*
X0171479Y0251004D02*
X0173934Y0251004D01*
X0174786Y0250506D02*
X0170981Y0250506D01*
X0170482Y0250007D02*
X0184071Y0250007D01*
X0184071Y0249509D02*
X0169984Y0249509D01*
X0169485Y0249010D02*
X0184071Y0249010D01*
X0184071Y0248512D02*
X0168986Y0248512D01*
X0168488Y0248013D02*
X0184071Y0248013D01*
X0184071Y0247515D02*
X0167989Y0247515D01*
X0163939Y0251004D02*
X0158566Y0251004D01*
X0159065Y0251503D02*
X0163435Y0251503D01*
X0163096Y0252001D02*
X0159435Y0252001D01*
X0159641Y0252500D02*
X0162859Y0252500D01*
X0162698Y0252998D02*
X0159848Y0252998D01*
X0159900Y0253497D02*
X0162600Y0253497D01*
X0162600Y0253995D02*
X0159900Y0253995D01*
X0159900Y0254494D02*
X0162600Y0254494D01*
X0162600Y0254992D02*
X0159900Y0254992D01*
X0159900Y0255491D02*
X0162600Y0255491D01*
X0162600Y0255989D02*
X0159900Y0255989D01*
X0159900Y0256488D02*
X0166000Y0256488D01*
X0162600Y0256986D02*
X0159900Y0256986D01*
X0159900Y0257485D02*
X0162600Y0257485D01*
X0162600Y0257983D02*
X0159900Y0257983D01*
X0159900Y0258482D02*
X0162600Y0258482D01*
X0162600Y0258980D02*
X0159900Y0258980D01*
X0159857Y0259479D02*
X0162693Y0259479D01*
X0162849Y0259977D02*
X0159651Y0259977D01*
X0159444Y0260476D02*
X0163080Y0260476D01*
X0163413Y0260974D02*
X0159087Y0260974D01*
X0158589Y0261473D02*
X0163911Y0261473D01*
X0164731Y0261971D02*
X0157769Y0261971D01*
X0158216Y0264464D02*
X0163561Y0264464D01*
X0163063Y0264962D02*
X0158973Y0264962D01*
X0159471Y0265461D02*
X0162564Y0265461D01*
X0162066Y0265960D02*
X0159901Y0265960D01*
X0160108Y0266458D02*
X0161567Y0266458D01*
X0161069Y0266957D02*
X0160314Y0266957D01*
X0160500Y0267455D02*
X0160570Y0267455D01*
X0146956Y0246019D02*
X0184071Y0246019D01*
X0184071Y0245521D02*
X0147454Y0245521D01*
X0147953Y0245022D02*
X0184071Y0245022D01*
X0184071Y0244524D02*
X0148451Y0244524D01*
X0148950Y0244025D02*
X0184071Y0244025D01*
X0184071Y0243527D02*
X0149448Y0243527D01*
X0149947Y0243028D02*
X0184071Y0243028D01*
X0184071Y0242529D02*
X0150445Y0242529D01*
X0150944Y0242031D02*
X0184071Y0242031D01*
X0184071Y0241532D02*
X0151442Y0241532D01*
X0151941Y0241034D02*
X0184071Y0241034D01*
X0184071Y0240535D02*
X0152439Y0240535D01*
X0152938Y0240037D02*
X0184071Y0240037D01*
X0184071Y0239538D02*
X0153436Y0239538D01*
X0153935Y0239040D02*
X0184071Y0239040D01*
X0184071Y0238541D02*
X0154433Y0238541D01*
X0154932Y0238043D02*
X0184071Y0238043D01*
X0184071Y0237544D02*
X0155430Y0237544D01*
X0155929Y0237046D02*
X0184071Y0237046D01*
X0184071Y0236547D02*
X0156428Y0236547D01*
X0156926Y0236049D02*
X0184071Y0236049D01*
X0184071Y0235550D02*
X0157425Y0235550D01*
X0157923Y0235052D02*
X0184071Y0235052D01*
X0184071Y0234553D02*
X0158422Y0234553D01*
X0158920Y0234055D02*
X0184071Y0234055D01*
X0184071Y0233556D02*
X0159419Y0233556D01*
X0159917Y0233058D02*
X0184071Y0233058D01*
X0179900Y0226000D02*
X0176500Y0226000D01*
X0176500Y0220200D01*
X0176609Y0220200D01*
X0177315Y0220340D01*
X0177979Y0220615D01*
X0178577Y0221015D01*
X0179085Y0221523D01*
X0179485Y0222121D01*
X0179760Y0222785D01*
X0179900Y0223490D01*
X0179900Y0226000D01*
X0179900Y0225580D02*
X0184071Y0225580D01*
X0184071Y0225082D02*
X0179900Y0225082D01*
X0179900Y0224583D02*
X0184071Y0224583D01*
X0184071Y0224085D02*
X0179900Y0224085D01*
X0179900Y0223586D02*
X0184071Y0223586D01*
X0184071Y0223088D02*
X0179820Y0223088D01*
X0179678Y0222589D02*
X0184071Y0222589D01*
X0184071Y0222091D02*
X0179464Y0222091D01*
X0179131Y0221592D02*
X0184071Y0221592D01*
X0184071Y0221093D02*
X0178655Y0221093D01*
X0177930Y0220595D02*
X0184071Y0220595D01*
X0184071Y0217105D02*
X0178745Y0217105D01*
X0178510Y0217341D02*
X0177248Y0217341D01*
X0177248Y0213941D01*
X0180648Y0213941D01*
X0180648Y0215203D01*
X0178510Y0217341D01*
X0179244Y0216607D02*
X0184071Y0216607D01*
X0184071Y0216108D02*
X0179742Y0216108D01*
X0180241Y0215610D02*
X0184071Y0215610D01*
X0184071Y0215111D02*
X0180648Y0215111D01*
X0180648Y0214613D02*
X0184071Y0214613D01*
X0184071Y0214114D02*
X0180648Y0214114D01*
X0180648Y0213117D02*
X0184071Y0213117D01*
X0184071Y0212619D02*
X0180648Y0212619D01*
X0180589Y0212120D02*
X0184071Y0212120D01*
X0184071Y0211622D02*
X0180091Y0211622D01*
X0179592Y0211123D02*
X0184071Y0211123D01*
X0184071Y0210625D02*
X0179094Y0210625D01*
X0178595Y0210126D02*
X0184071Y0210126D01*
X0184071Y0213616D02*
X0177248Y0213616D01*
X0177248Y0214114D02*
X0176748Y0214114D01*
X0176748Y0214613D02*
X0177248Y0214613D01*
X0177248Y0215111D02*
X0176748Y0215111D01*
X0176748Y0215610D02*
X0177248Y0215610D01*
X0177248Y0216108D02*
X0176748Y0216108D01*
X0176748Y0216607D02*
X0177248Y0216607D01*
X0177248Y0217105D02*
X0176748Y0217105D01*
X0176500Y0220595D02*
X0176000Y0220595D01*
X0176000Y0221093D02*
X0176500Y0221093D01*
X0176500Y0221592D02*
X0176000Y0221592D01*
X0176000Y0222091D02*
X0176500Y0222091D01*
X0176500Y0222589D02*
X0176000Y0222589D01*
X0176000Y0223088D02*
X0176500Y0223088D01*
X0176500Y0223586D02*
X0176000Y0223586D01*
X0176000Y0224085D02*
X0176500Y0224085D01*
X0176500Y0224583D02*
X0176000Y0224583D01*
X0176000Y0225082D02*
X0176500Y0225082D01*
X0176500Y0225580D02*
X0176000Y0225580D01*
X0176000Y0227076D02*
X0176500Y0227076D01*
X0176500Y0227574D02*
X0176000Y0227574D01*
X0176000Y0228073D02*
X0176500Y0228073D01*
X0176500Y0228571D02*
X0176000Y0228571D01*
X0176000Y0229070D02*
X0176500Y0229070D01*
X0176500Y0229568D02*
X0176000Y0229568D01*
X0176000Y0230067D02*
X0176500Y0230067D01*
X0176500Y0230565D02*
X0176000Y0230565D01*
X0176000Y0231064D02*
X0176500Y0231064D01*
X0176500Y0231562D02*
X0176000Y0231562D01*
X0176000Y0232061D02*
X0176500Y0232061D01*
X0174946Y0232061D02*
X0167554Y0232061D01*
X0168500Y0231562D02*
X0174039Y0231562D01*
X0173502Y0231064D02*
X0168998Y0231064D01*
X0169407Y0230565D02*
X0173140Y0230565D01*
X0172886Y0230067D02*
X0169614Y0230067D01*
X0169820Y0229568D02*
X0172711Y0229568D01*
X0172612Y0229070D02*
X0169900Y0229070D01*
X0169900Y0228571D02*
X0172600Y0228571D01*
X0172600Y0228073D02*
X0169900Y0228073D01*
X0169900Y0227574D02*
X0172600Y0227574D01*
X0172600Y0227076D02*
X0169900Y0227076D01*
X0159935Y0222091D02*
X0159464Y0222091D01*
X0154570Y0220595D02*
X0147930Y0220595D01*
X0148655Y0221093D02*
X0153845Y0221093D01*
X0153369Y0221592D02*
X0149154Y0221592D01*
X0149472Y0222091D02*
X0153036Y0222091D01*
X0152822Y0222589D02*
X0149678Y0222589D01*
X0149885Y0223088D02*
X0152680Y0223088D01*
X0152600Y0223586D02*
X0149900Y0223586D01*
X0149900Y0224085D02*
X0152600Y0224085D01*
X0152600Y0224583D02*
X0149900Y0224583D01*
X0149900Y0225082D02*
X0152600Y0225082D01*
X0152600Y0225580D02*
X0149900Y0225580D01*
X0146457Y0246518D02*
X0184071Y0246518D01*
X0184071Y0247016D02*
X0145959Y0247016D01*
X0176361Y0264464D02*
X0184071Y0264464D01*
X0184071Y0264962D02*
X0177565Y0264962D01*
X0178768Y0265461D02*
X0184071Y0265461D01*
X0184071Y0265960D02*
X0179580Y0265960D01*
X0180079Y0266458D02*
X0184071Y0266458D01*
X0184071Y0266957D02*
X0180577Y0266957D01*
X0181076Y0267455D02*
X0184071Y0267455D01*
X0184071Y0267954D02*
X0181574Y0267954D01*
X0181854Y0268452D02*
X0184071Y0268452D01*
X0184071Y0268951D02*
X0182060Y0268951D01*
X0182267Y0269449D02*
X0184071Y0269449D01*
X0184071Y0269948D02*
X0182473Y0269948D01*
X0182680Y0270446D02*
X0184071Y0270446D01*
X0184071Y0270945D02*
X0182886Y0270945D01*
X0182996Y0271443D02*
X0184071Y0271443D01*
X0184071Y0271942D02*
X0182996Y0271942D01*
X0182996Y0272440D02*
X0184071Y0272440D01*
X0184071Y0272939D02*
X0182996Y0272939D01*
X0182996Y0273437D02*
X0184071Y0273437D01*
X0184071Y0273936D02*
X0182996Y0273936D01*
X0182996Y0274434D02*
X0184071Y0274434D01*
X0184071Y0274933D02*
X0182857Y0274933D01*
X0182651Y0275431D02*
X0184071Y0275431D01*
X0184071Y0275930D02*
X0182444Y0275930D01*
X0182238Y0276428D02*
X0184071Y0276428D01*
X0184071Y0276927D02*
X0182031Y0276927D01*
X0181825Y0277425D02*
X0184071Y0277425D01*
X0184071Y0277924D02*
X0181504Y0277924D01*
X0181005Y0278422D02*
X0184071Y0278422D01*
X0184071Y0278921D02*
X0180507Y0278921D01*
X0180008Y0279419D02*
X0184071Y0279419D01*
X0184071Y0279918D02*
X0179510Y0279918D01*
X0178599Y0280416D02*
X0184071Y0280416D01*
X0184071Y0280915D02*
X0177395Y0280915D01*
X0176192Y0281413D02*
X0184071Y0281413D01*
X0184071Y0261971D02*
X0177769Y0261971D01*
X0178589Y0261473D02*
X0184071Y0261473D01*
X0184071Y0260974D02*
X0179087Y0260974D01*
X0179444Y0260476D02*
X0184071Y0260476D01*
X0184071Y0259977D02*
X0179651Y0259977D01*
X0179857Y0259479D02*
X0184071Y0259479D01*
X0184071Y0258980D02*
X0179900Y0258980D01*
X0179900Y0258482D02*
X0184071Y0258482D01*
X0184071Y0257983D02*
X0179900Y0257983D01*
X0179900Y0257485D02*
X0184071Y0257485D01*
X0184071Y0256986D02*
X0179900Y0256986D01*
X0179900Y0256488D02*
X0184071Y0256488D01*
X0184071Y0255989D02*
X0179900Y0255989D01*
X0179900Y0255491D02*
X0184071Y0255491D01*
X0184071Y0254992D02*
X0179900Y0254992D01*
X0179900Y0254494D02*
X0184071Y0254494D01*
X0184071Y0253995D02*
X0179900Y0253995D01*
X0179900Y0253497D02*
X0184071Y0253497D01*
X0184071Y0252998D02*
X0179848Y0252998D01*
X0179641Y0252500D02*
X0184071Y0252500D01*
X0184071Y0252001D02*
X0179435Y0252001D01*
X0179065Y0251503D02*
X0184071Y0251503D01*
X0184071Y0251004D02*
X0178566Y0251004D01*
X0177714Y0250506D02*
X0184071Y0250506D01*
X0168500Y0178222D02*
X0168383Y0178222D01*
X0168500Y0177723D02*
X0167885Y0177723D01*
X0170500Y0145818D02*
X0152157Y0145818D01*
X0152655Y0145320D02*
X0170500Y0145320D01*
X0170346Y0144821D02*
X0153154Y0144821D01*
X0153652Y0144323D02*
X0169848Y0144323D01*
X0169349Y0143824D02*
X0154151Y0143824D01*
X0154649Y0143326D02*
X0168851Y0143326D01*
X0168352Y0142827D02*
X0155148Y0142827D01*
X0155646Y0142329D02*
X0167854Y0142329D01*
X0167355Y0141830D02*
X0156145Y0141830D01*
X0156643Y0141332D02*
X0166857Y0141332D01*
X0166358Y0140833D02*
X0157142Y0140833D01*
X0157640Y0140335D02*
X0165860Y0140335D01*
X0165361Y0139836D02*
X0158139Y0139836D01*
X0158637Y0139338D02*
X0161381Y0139338D01*
X0160178Y0138839D02*
X0159000Y0138839D01*
X0159000Y0138341D02*
X0159678Y0138341D01*
X0159179Y0137842D02*
X0159000Y0137842D01*
X0163953Y0139338D02*
X0164863Y0139338D01*
X0174000Y0034650D02*
X0174488Y0034650D01*
X0167704Y0025179D02*
X0144900Y0025179D01*
X0144900Y0024738D02*
X0144900Y0026000D01*
X0141500Y0026000D01*
X0141500Y0022600D01*
X0142762Y0022600D01*
X0144900Y0024738D01*
X0144842Y0024680D02*
X0167205Y0024680D01*
X0166707Y0024182D02*
X0144343Y0024182D01*
X0143845Y0023683D02*
X0166208Y0023683D01*
X0165710Y0023184D02*
X0143346Y0023184D01*
X0142848Y0022686D02*
X0165211Y0022686D01*
X0164713Y0022187D02*
X0127000Y0022187D01*
X0127000Y0021689D02*
X0164214Y0021689D01*
X0163716Y0021190D02*
X0126665Y0021190D01*
X0126167Y0020692D02*
X0163217Y0020692D01*
X0162719Y0020193D02*
X0125668Y0020193D01*
X0125170Y0019695D02*
X0162220Y0019695D01*
X0161722Y0019196D02*
X0124671Y0019196D01*
X0124173Y0018698D02*
X0161223Y0018698D01*
X0160725Y0018199D02*
X0123674Y0018199D01*
X0123176Y0017701D02*
X0160226Y0017701D01*
X0159728Y0017202D02*
X0122677Y0017202D01*
X0127387Y0016704D02*
X0159229Y0016704D01*
X0158730Y0016205D02*
X0127854Y0016205D01*
X0127854Y0015707D02*
X0158232Y0015707D01*
X0157733Y0015208D02*
X0127854Y0015208D01*
X0127854Y0014710D02*
X0157235Y0014710D01*
X0156736Y0014211D02*
X0127854Y0014211D01*
X0127854Y0013713D02*
X0156238Y0013713D01*
X0155739Y0013214D02*
X0127854Y0013214D01*
X0127854Y0012716D02*
X0155241Y0012716D01*
X0154742Y0012217D02*
X0127854Y0012217D01*
X0127854Y0011719D02*
X0154244Y0011719D01*
X0152782Y0011220D02*
X0127854Y0011220D01*
X0127854Y0010722D02*
X0152284Y0010722D01*
X0152022Y0010223D02*
X0127854Y0010223D01*
X0127854Y0009725D02*
X0151819Y0009725D01*
X0151819Y0009226D02*
X0127854Y0009226D01*
X0127854Y0008728D02*
X0151835Y0008728D01*
X0152041Y0008229D02*
X0127854Y0008229D01*
X0127854Y0007731D02*
X0152331Y0007731D01*
X0152830Y0007232D02*
X0127760Y0007232D01*
X0127000Y0022686D02*
X0129652Y0022686D01*
X0129738Y0022600D02*
X0132762Y0022600D01*
X0134900Y0024738D01*
X0134900Y0027762D01*
X0132762Y0029900D01*
X0129738Y0029900D01*
X0127600Y0027762D01*
X0127600Y0024738D01*
X0129738Y0022600D01*
X0129154Y0023184D02*
X0127000Y0023184D01*
X0127000Y0023683D02*
X0128655Y0023683D01*
X0128157Y0024182D02*
X0127000Y0024182D01*
X0127000Y0024680D02*
X0127658Y0024680D01*
X0127600Y0025179D02*
X0127000Y0025179D01*
X0127000Y0025677D02*
X0127600Y0025677D01*
X0127600Y0026176D02*
X0127000Y0026176D01*
X0127000Y0026674D02*
X0127600Y0026674D01*
X0127600Y0027173D02*
X0127000Y0027173D01*
X0127000Y0027671D02*
X0127600Y0027671D01*
X0128008Y0028170D02*
X0127000Y0028170D01*
X0127000Y0028668D02*
X0128506Y0028668D01*
X0129005Y0029167D02*
X0127000Y0029167D01*
X0127103Y0029665D02*
X0129503Y0029665D01*
X0127638Y0030662D02*
X0137363Y0030662D01*
X0137861Y0030164D02*
X0127431Y0030164D01*
X0127681Y0031161D02*
X0136864Y0031161D01*
X0136366Y0031659D02*
X0127681Y0031659D01*
X0127505Y0032158D02*
X0135867Y0032158D01*
X0135369Y0032656D02*
X0131912Y0032656D01*
X0133115Y0033155D02*
X0134870Y0033155D01*
X0134500Y0033653D02*
X0133615Y0033653D01*
X0134114Y0034152D02*
X0134500Y0034152D01*
X0134500Y0034650D02*
X0134338Y0034650D01*
X0132997Y0029665D02*
X0138360Y0029665D01*
X0138858Y0029167D02*
X0133495Y0029167D01*
X0133994Y0028668D02*
X0138506Y0028668D01*
X0138008Y0028170D02*
X0134492Y0028170D01*
X0134900Y0027671D02*
X0137600Y0027671D01*
X0137600Y0027173D02*
X0134900Y0027173D01*
X0134900Y0026674D02*
X0137600Y0026674D01*
X0137600Y0026000D02*
X0137600Y0024738D01*
X0139738Y0022600D01*
X0141000Y0022600D01*
X0141000Y0026000D01*
X0137600Y0026000D01*
X0137600Y0025677D02*
X0134900Y0025677D01*
X0134900Y0025179D02*
X0137600Y0025179D01*
X0137658Y0024680D02*
X0134842Y0024680D01*
X0134343Y0024182D02*
X0138157Y0024182D01*
X0138655Y0023683D02*
X0133845Y0023683D01*
X0133346Y0023184D02*
X0139154Y0023184D01*
X0139652Y0022686D02*
X0132848Y0022686D01*
X0134900Y0026176D02*
X0141000Y0026176D01*
X0141000Y0025677D02*
X0141500Y0025677D01*
X0141500Y0025179D02*
X0141000Y0025179D01*
X0141000Y0024680D02*
X0141500Y0024680D01*
X0141500Y0024182D02*
X0141000Y0024182D01*
X0141000Y0023683D02*
X0141500Y0023683D01*
X0141500Y0023184D02*
X0141000Y0023184D01*
X0141000Y0022686D02*
X0141500Y0022686D01*
X0144900Y0025677D02*
X0153348Y0025677D01*
X0152850Y0026176D02*
X0141500Y0026176D01*
X0144900Y0026674D02*
X0152351Y0026674D01*
X0151853Y0027173D02*
X0144900Y0027173D01*
X0144900Y0027671D02*
X0151354Y0027671D01*
X0150856Y0028170D02*
X0144492Y0028170D01*
X0169258Y0006235D02*
X0111710Y0006235D01*
X0111669Y0005737D02*
X0169903Y0005737D01*
X0171107Y0005238D02*
X0111462Y0005238D01*
X0111178Y0004740D02*
X0172310Y0004740D01*
X0176646Y0004740D02*
X0184071Y0004740D01*
X0184071Y0005238D02*
X0177850Y0005238D01*
X0179053Y0005737D02*
X0184071Y0005737D01*
X0184071Y0006235D02*
X0179698Y0006235D01*
X0180197Y0006734D02*
X0184071Y0006734D01*
X0184071Y0007232D02*
X0180695Y0007232D01*
X0181194Y0007731D02*
X0184071Y0007731D01*
X0184071Y0008229D02*
X0181692Y0008229D01*
X0181903Y0008728D02*
X0184071Y0008728D01*
X0184071Y0009226D02*
X0182109Y0009226D01*
X0182316Y0009725D02*
X0184071Y0009725D01*
X0184071Y0010223D02*
X0182522Y0010223D01*
X0182729Y0010722D02*
X0184071Y0010722D01*
X0184071Y0011220D02*
X0182935Y0011220D01*
X0182996Y0011719D02*
X0184071Y0011719D01*
X0184071Y0012217D02*
X0182996Y0012217D01*
X0182996Y0012716D02*
X0184071Y0012716D01*
X0184071Y0013214D02*
X0182996Y0013214D01*
X0182996Y0013713D02*
X0184071Y0013713D01*
X0184071Y0014211D02*
X0182996Y0014211D01*
X0182996Y0014710D02*
X0184071Y0014710D01*
X0184071Y0015208D02*
X0182808Y0015208D01*
X0182602Y0015707D02*
X0184071Y0015707D01*
X0184071Y0016205D02*
X0182395Y0016205D01*
X0182189Y0016704D02*
X0184071Y0016704D01*
X0184071Y0017202D02*
X0181982Y0017202D01*
X0181776Y0017701D02*
X0184071Y0017701D01*
X0184071Y0018199D02*
X0181386Y0018199D01*
X0180887Y0018698D02*
X0184071Y0018698D01*
X0184071Y0019196D02*
X0180389Y0019196D01*
X0179890Y0019695D02*
X0184071Y0019695D01*
X0184071Y0020193D02*
X0179392Y0020193D01*
X0178314Y0020692D02*
X0184071Y0020692D01*
X0184071Y0021190D02*
X0177110Y0021190D01*
X0091500Y0026674D02*
X0091000Y0026674D01*
X0091000Y0027173D02*
X0091500Y0027173D01*
X0091500Y0027671D02*
X0091000Y0027671D01*
X0091000Y0028170D02*
X0091500Y0028170D01*
X0091500Y0028668D02*
X0091000Y0028668D01*
X0091000Y0029167D02*
X0091500Y0029167D01*
X0091500Y0029665D02*
X0091140Y0029665D01*
X0088157Y0024182D02*
X0087656Y0024182D01*
X0087158Y0023683D02*
X0088655Y0023683D01*
X0089154Y0023184D02*
X0086659Y0023184D01*
X0086161Y0022686D02*
X0089652Y0022686D01*
M02*
