G75*
%MOIN*%
%OFA0B0*%
%FSLAX25Y25*%
%IPPOS*%
%LPD*%
%AMOC8*
5,1,8,0,0,1.08239X$1,22.5*
%
%ADD10OC8,0.04800*%
%ADD11C,0.04800*%
%ADD12C,0.07400*%
%ADD13C,0.06299*%
%ADD14R,0.04724X0.04724*%
%ADD15C,0.04724*%
%ADD16OC8,0.12598*%
%ADD17OC8,0.05400*%
%ADD18C,0.07600*%
%ADD19C,0.06000*%
%ADD20C,0.01000*%
%ADD21C,0.02362*%
%ADD22C,0.05000*%
D10*
X0081500Y0111500D03*
X0081500Y0121500D03*
X0081500Y0141500D03*
X0081500Y0151500D03*
X0096500Y0191500D03*
X0096500Y0211500D03*
X0171500Y0206500D03*
X0171500Y0196500D03*
X0256500Y0191500D03*
X0256500Y0201500D03*
X0256500Y0211500D03*
X0276500Y0211500D03*
X0276500Y0201500D03*
X0276500Y0191500D03*
X0231500Y0086500D03*
X0231500Y0076500D03*
X0201500Y0051500D03*
X0181500Y0051500D03*
X0226500Y0041500D03*
X0226500Y0026500D03*
X0246500Y0026500D03*
X0246500Y0041500D03*
D11*
X0246500Y0061700D02*
X0246500Y0066500D01*
X0256500Y0066500D02*
X0256500Y0061700D01*
X0266500Y0061700D02*
X0266500Y0066500D01*
X0276500Y0066500D02*
X0276500Y0061700D01*
X0276500Y0096500D02*
X0276500Y0101300D01*
X0266500Y0101300D02*
X0266500Y0096500D01*
X0256500Y0096500D02*
X0256500Y0101300D01*
X0246500Y0101300D02*
X0246500Y0096500D01*
X0211500Y0094100D02*
X0211500Y0098900D01*
X0201500Y0098900D02*
X0201500Y0094100D01*
X0191500Y0094100D02*
X0191500Y0098900D01*
X0181500Y0098900D02*
X0181500Y0094100D01*
X0171500Y0094100D02*
X0171500Y0098900D01*
X0161500Y0098900D02*
X0161500Y0094100D01*
X0151500Y0094100D02*
X0151500Y0098900D01*
X0141500Y0098900D02*
X0141500Y0094100D01*
X0131500Y0094100D02*
X0131500Y0098900D01*
X0121500Y0098900D02*
X0121500Y0094100D01*
X0111500Y0094100D02*
X0111500Y0098900D01*
X0101500Y0098900D02*
X0101500Y0094100D01*
X0091500Y0094100D02*
X0091500Y0098900D01*
X0081500Y0098900D02*
X0081500Y0094100D01*
X0081500Y0068900D02*
X0081500Y0064100D01*
X0091500Y0064100D02*
X0091500Y0068900D01*
X0101500Y0068900D02*
X0101500Y0064100D01*
X0111500Y0064100D02*
X0111500Y0068900D01*
X0121500Y0068900D02*
X0121500Y0064100D01*
X0131500Y0064100D02*
X0131500Y0068900D01*
X0141500Y0068900D02*
X0141500Y0064100D01*
X0151500Y0064100D02*
X0151500Y0068900D01*
X0161500Y0068900D02*
X0161500Y0064100D01*
X0171500Y0064100D02*
X0171500Y0068900D01*
X0181500Y0068900D02*
X0181500Y0064100D01*
X0191500Y0064100D02*
X0191500Y0068900D01*
X0201500Y0068900D02*
X0201500Y0064100D01*
X0211500Y0064100D02*
X0211500Y0068900D01*
X0181500Y0129100D02*
X0181500Y0133900D01*
X0171500Y0133900D02*
X0171500Y0129100D01*
X0161500Y0129100D02*
X0161500Y0133900D01*
X0151500Y0133900D02*
X0151500Y0129100D01*
X0141500Y0129100D02*
X0141500Y0133900D01*
X0131500Y0133900D02*
X0131500Y0129100D01*
X0121500Y0129100D02*
X0121500Y0133900D01*
X0111500Y0133900D02*
X0111500Y0129100D01*
X0111500Y0159100D02*
X0111500Y0163900D01*
X0121500Y0163900D02*
X0121500Y0159100D01*
X0131500Y0159100D02*
X0131500Y0163900D01*
X0141500Y0163900D02*
X0141500Y0159100D01*
X0151500Y0159100D02*
X0151500Y0163900D01*
X0161500Y0163900D02*
X0161500Y0159100D01*
X0171500Y0159100D02*
X0171500Y0163900D01*
X0181500Y0163900D02*
X0181500Y0159100D01*
X0181500Y0184100D02*
X0181500Y0188900D01*
X0191500Y0188900D02*
X0191500Y0184100D01*
X0201500Y0184100D02*
X0201500Y0188900D01*
X0211500Y0188900D02*
X0211500Y0184100D01*
X0221500Y0184100D02*
X0221500Y0188900D01*
X0231500Y0188900D02*
X0231500Y0184100D01*
X0241500Y0184100D02*
X0241500Y0188900D01*
X0241500Y0214100D02*
X0241500Y0218900D01*
X0231500Y0218900D02*
X0231500Y0214100D01*
X0221500Y0214100D02*
X0221500Y0218900D01*
X0211500Y0218900D02*
X0211500Y0214100D01*
X0201500Y0214100D02*
X0201500Y0218900D01*
X0191500Y0218900D02*
X0191500Y0214100D01*
X0181500Y0214100D02*
X0181500Y0218900D01*
X0156500Y0213900D02*
X0156500Y0209100D01*
X0156500Y0193900D02*
X0156500Y0189100D01*
X0126500Y0189100D02*
X0126500Y0193900D01*
X0116500Y0193900D02*
X0116500Y0189100D01*
X0116500Y0209100D02*
X0116500Y0213900D01*
X0126500Y0213900D02*
X0126500Y0209100D01*
X0083900Y0211500D02*
X0079100Y0211500D01*
X0079100Y0201500D02*
X0083900Y0201500D01*
X0083900Y0191500D02*
X0079100Y0191500D01*
D12*
X0106500Y0186500D03*
X0106500Y0216500D03*
X0216500Y0051500D03*
X0246500Y0051500D03*
D13*
X0261343Y0044807D03*
X0261343Y0036933D03*
X0206224Y0035161D03*
X0198350Y0035161D03*
X0190476Y0035161D03*
X0194413Y0233783D03*
X0202287Y0233783D03*
X0210161Y0233783D03*
X0218035Y0233783D03*
X0233783Y0233783D03*
X0241657Y0233783D03*
X0261343Y0233783D03*
X0261343Y0241657D03*
X0261343Y0249531D03*
X0158980Y0233783D03*
X0151106Y0233783D03*
X0135358Y0233783D03*
X0127484Y0233783D03*
X0119610Y0233783D03*
X0111736Y0233783D03*
X0095988Y0233783D03*
X0088114Y0233783D03*
D14*
X0056618Y0128232D03*
D15*
X0056618Y0138232D03*
X0056618Y0148232D03*
X0056618Y0158232D03*
X0044807Y0153232D03*
X0044807Y0143232D03*
X0044807Y0133232D03*
X0032996Y0128232D03*
X0032996Y0138232D03*
X0032996Y0148232D03*
X0032996Y0158232D03*
X0021185Y0153232D03*
X0021185Y0143232D03*
X0021185Y0133232D03*
D16*
X0021185Y0111854D03*
X0044807Y0111854D03*
X0044807Y0174610D03*
X0021185Y0174610D03*
D17*
X0059020Y0049807D03*
X0069020Y0049807D03*
X0079020Y0049807D03*
X0089020Y0049807D03*
X0099020Y0049807D03*
X0109020Y0049807D03*
X0119020Y0049807D03*
X0129020Y0049807D03*
X0129020Y0039807D03*
X0119020Y0039807D03*
X0109020Y0039807D03*
X0099020Y0039807D03*
X0089020Y0039807D03*
X0079020Y0039807D03*
X0069020Y0039807D03*
X0059020Y0039807D03*
D18*
X0106500Y0116500D03*
X0116500Y0116500D03*
X0126500Y0116500D03*
X0136500Y0116500D03*
X0146500Y0116500D03*
X0156500Y0116500D03*
X0166500Y0116500D03*
X0176500Y0116500D03*
X0186500Y0116500D03*
X0196500Y0116500D03*
X0206500Y0116500D03*
X0216500Y0116500D03*
X0226500Y0116500D03*
X0236500Y0116500D03*
X0246500Y0116500D03*
X0256500Y0116500D03*
X0266500Y0116500D03*
X0266500Y0176500D03*
X0256500Y0176500D03*
X0246500Y0176500D03*
X0236500Y0176500D03*
X0226500Y0176500D03*
X0216500Y0176500D03*
X0206500Y0176500D03*
X0196500Y0176500D03*
X0186500Y0176500D03*
X0176500Y0176500D03*
X0166500Y0176500D03*
X0156500Y0176500D03*
X0146500Y0176500D03*
X0136500Y0176500D03*
X0126500Y0176500D03*
X0116500Y0176500D03*
X0106500Y0176500D03*
D19*
X0061500Y0248500D02*
X0061500Y0254500D01*
X0051500Y0254500D02*
X0051500Y0248500D01*
X0041500Y0248500D02*
X0041500Y0254500D01*
X0031500Y0254500D02*
X0031500Y0248500D01*
D20*
X0003968Y0282496D02*
X0003968Y0003968D01*
X0282496Y0003968D01*
X0282496Y0282496D01*
X0003968Y0282496D01*
X0003968Y0282082D02*
X0282496Y0282082D01*
X0282496Y0281083D02*
X0276921Y0281083D01*
X0278120Y0280586D02*
X0274898Y0281921D01*
X0271410Y0281921D01*
X0268187Y0280586D01*
X0265721Y0278120D01*
X0264386Y0274898D01*
X0264386Y0271410D01*
X0265721Y0268187D01*
X0268187Y0265721D01*
X0271410Y0264386D01*
X0274898Y0264386D01*
X0278120Y0265721D01*
X0280586Y0268187D01*
X0281921Y0271410D01*
X0281921Y0274898D01*
X0280586Y0278120D01*
X0278120Y0280586D01*
X0278622Y0280085D02*
X0282496Y0280085D01*
X0282496Y0279086D02*
X0279620Y0279086D01*
X0280600Y0278088D02*
X0282496Y0278088D01*
X0282496Y0277089D02*
X0281013Y0277089D01*
X0281427Y0276091D02*
X0282496Y0276091D01*
X0282496Y0275092D02*
X0281841Y0275092D01*
X0281921Y0274094D02*
X0282496Y0274094D01*
X0282496Y0273095D02*
X0281921Y0273095D01*
X0281921Y0272097D02*
X0282496Y0272097D01*
X0282496Y0271098D02*
X0281792Y0271098D01*
X0281379Y0270100D02*
X0282496Y0270100D01*
X0282496Y0269101D02*
X0280965Y0269101D01*
X0280502Y0268103D02*
X0282496Y0268103D01*
X0282496Y0267104D02*
X0279503Y0267104D01*
X0278505Y0266105D02*
X0282496Y0266105D01*
X0282496Y0265107D02*
X0276639Y0265107D01*
X0282496Y0264108D02*
X0003968Y0264108D01*
X0003968Y0263110D02*
X0282496Y0263110D01*
X0282496Y0262111D02*
X0003968Y0262111D01*
X0003968Y0261113D02*
X0058285Y0261113D01*
X0058672Y0261500D02*
X0057500Y0260328D01*
X0054768Y0257596D01*
X0054049Y0258315D01*
X0052395Y0259000D01*
X0050605Y0259000D01*
X0048951Y0258315D01*
X0047685Y0257049D01*
X0047000Y0255395D01*
X0047000Y0247605D01*
X0047685Y0245951D01*
X0048951Y0244685D01*
X0049500Y0244458D01*
X0049500Y0211328D01*
X0043672Y0205500D01*
X0042500Y0204328D01*
X0042500Y0185672D01*
X0045762Y0182409D01*
X0045307Y0182409D01*
X0045307Y0175110D01*
X0052606Y0175110D01*
X0052606Y0175565D01*
X0058819Y0169353D01*
X0058819Y0168967D01*
X0059227Y0167981D01*
X0059981Y0167227D01*
X0060967Y0166819D01*
X0062033Y0166819D01*
X0062500Y0167012D01*
X0062500Y0132232D01*
X0056061Y0132232D01*
X0058500Y0134672D01*
X0058500Y0134831D01*
X0058806Y0134958D01*
X0059892Y0136045D01*
X0060480Y0137464D01*
X0060480Y0139001D01*
X0059892Y0140420D01*
X0058806Y0141506D01*
X0057386Y0142094D01*
X0055850Y0142094D01*
X0054430Y0141506D01*
X0053344Y0140420D01*
X0052756Y0139001D01*
X0052756Y0137464D01*
X0053344Y0136045D01*
X0053780Y0135608D01*
X0052500Y0134328D01*
X0052500Y0134328D01*
X0051328Y0135500D01*
X0047500Y0139328D01*
X0047500Y0140463D01*
X0048081Y0141045D01*
X0048669Y0142464D01*
X0048669Y0144001D01*
X0048081Y0145420D01*
X0046995Y0146506D01*
X0045575Y0147094D01*
X0044039Y0147094D01*
X0042619Y0146506D01*
X0041533Y0145420D01*
X0040945Y0144001D01*
X0040945Y0142464D01*
X0041533Y0141045D01*
X0042619Y0139958D01*
X0043500Y0139593D01*
X0043500Y0137672D01*
X0044135Y0137036D01*
X0043681Y0136946D01*
X0042978Y0136655D01*
X0042345Y0136232D01*
X0041807Y0135694D01*
X0041384Y0135062D01*
X0041093Y0134359D01*
X0040945Y0133613D01*
X0040945Y0133520D01*
X0044520Y0133520D01*
X0044520Y0132945D01*
X0045094Y0132945D01*
X0045094Y0129370D01*
X0045187Y0129370D01*
X0045934Y0129519D01*
X0046637Y0129810D01*
X0047269Y0130232D01*
X0047807Y0130770D01*
X0048230Y0131403D01*
X0048500Y0132055D01*
X0048500Y0119191D01*
X0048038Y0119654D01*
X0045307Y0119654D01*
X0045307Y0112354D01*
X0052606Y0112354D01*
X0052606Y0112565D01*
X0079500Y0085672D01*
X0079500Y0072293D01*
X0079291Y0072206D01*
X0078194Y0071109D01*
X0077600Y0069676D01*
X0077600Y0063324D01*
X0078194Y0061891D01*
X0078585Y0061500D01*
X0074988Y0061500D01*
X0075181Y0061967D01*
X0075181Y0063033D01*
X0074773Y0064019D01*
X0074019Y0064773D01*
X0073033Y0065181D01*
X0071967Y0065181D01*
X0070981Y0064773D01*
X0070708Y0064500D01*
X0065988Y0064500D01*
X0066181Y0064967D01*
X0066181Y0066033D01*
X0065773Y0067019D01*
X0065019Y0067773D01*
X0064033Y0068181D01*
X0062967Y0068181D01*
X0062741Y0068088D01*
X0053450Y0077378D01*
X0056000Y0077378D01*
X0059222Y0078713D01*
X0061689Y0081179D01*
X0063024Y0084402D01*
X0063024Y0087890D01*
X0061689Y0091112D01*
X0059222Y0093579D01*
X0056000Y0094913D01*
X0052512Y0094913D01*
X0049289Y0093579D01*
X0046823Y0091112D01*
X0045620Y0088208D01*
X0045328Y0088500D01*
X0037328Y0096500D01*
X0028328Y0096500D01*
X0020685Y0104143D01*
X0020685Y0111354D01*
X0021685Y0111354D01*
X0021685Y0104055D01*
X0024416Y0104055D01*
X0028984Y0108624D01*
X0028984Y0111354D01*
X0021685Y0111354D01*
X0021685Y0112354D01*
X0028984Y0112354D01*
X0028984Y0115085D01*
X0024416Y0119654D01*
X0021685Y0119654D01*
X0021685Y0112354D01*
X0020685Y0112354D01*
X0020685Y0119654D01*
X0020482Y0119654D01*
X0029134Y0128305D01*
X0029134Y0127464D01*
X0029722Y0126045D01*
X0030808Y0124958D01*
X0032228Y0124370D01*
X0033764Y0124370D01*
X0035184Y0124958D01*
X0036270Y0126045D01*
X0036858Y0127464D01*
X0036858Y0129001D01*
X0036270Y0130420D01*
X0035259Y0131431D01*
X0035500Y0131672D01*
X0039500Y0135672D01*
X0039500Y0140328D01*
X0038328Y0141500D01*
X0035328Y0144500D01*
X0034078Y0144500D01*
X0035184Y0144958D01*
X0036270Y0146045D01*
X0036858Y0147464D01*
X0036858Y0149001D01*
X0036270Y0150420D01*
X0035190Y0151500D01*
X0041344Y0151500D01*
X0041533Y0151045D01*
X0042619Y0149958D01*
X0044039Y0149370D01*
X0045575Y0149370D01*
X0046995Y0149958D01*
X0048081Y0151045D01*
X0048669Y0152464D01*
X0048669Y0154001D01*
X0048081Y0155420D01*
X0046995Y0156506D01*
X0045575Y0157094D01*
X0044039Y0157094D01*
X0042619Y0156506D01*
X0041613Y0155500D01*
X0035726Y0155500D01*
X0036270Y0156045D01*
X0036858Y0157464D01*
X0036858Y0159001D01*
X0036270Y0160420D01*
X0035184Y0161506D01*
X0033764Y0162094D01*
X0032228Y0162094D01*
X0030808Y0161506D01*
X0029722Y0160420D01*
X0029134Y0159001D01*
X0029134Y0157464D01*
X0029722Y0156045D01*
X0030266Y0155500D01*
X0027328Y0155500D01*
X0024500Y0158328D01*
X0023328Y0159500D01*
X0018672Y0159500D01*
X0007672Y0148500D01*
X0006500Y0147328D01*
X0006500Y0094672D01*
X0041500Y0059672D01*
X0042672Y0058500D01*
X0058500Y0058500D01*
X0058500Y0055672D01*
X0059672Y0054500D01*
X0060165Y0054007D01*
X0057280Y0054007D01*
X0054820Y0051547D01*
X0054820Y0048067D01*
X0057280Y0045607D01*
X0060564Y0045607D01*
X0061500Y0044672D01*
X0061500Y0043266D01*
X0060759Y0044007D01*
X0057280Y0044007D01*
X0054820Y0041547D01*
X0054820Y0038067D01*
X0057280Y0035607D01*
X0060564Y0035607D01*
X0071672Y0024500D01*
X0208328Y0024500D01*
X0209500Y0025672D01*
X0215500Y0031672D01*
X0215500Y0038328D01*
X0214328Y0039500D01*
X0212500Y0041328D01*
X0212500Y0048146D01*
X0213554Y0047092D01*
X0215466Y0046300D01*
X0217534Y0046300D01*
X0219446Y0047092D01*
X0220908Y0048554D01*
X0221700Y0050466D01*
X0221700Y0052534D01*
X0220908Y0054446D01*
X0219446Y0055908D01*
X0217534Y0056700D01*
X0216528Y0056700D01*
X0217500Y0057672D01*
X0217500Y0069708D01*
X0217773Y0069981D01*
X0218181Y0070967D01*
X0218181Y0072033D01*
X0217773Y0073019D01*
X0217019Y0073773D01*
X0216033Y0074181D01*
X0214967Y0074181D01*
X0213981Y0073773D01*
X0213227Y0073019D01*
X0213010Y0072496D01*
X0212525Y0072697D01*
X0227600Y0087772D01*
X0227600Y0086800D01*
X0231200Y0086800D01*
X0231200Y0090400D01*
X0229885Y0090400D01*
X0228500Y0089015D01*
X0228500Y0111592D01*
X0229502Y0112007D01*
X0230993Y0113498D01*
X0231500Y0114722D01*
X0232007Y0113498D01*
X0233498Y0112007D01*
X0235446Y0111200D01*
X0237554Y0111200D01*
X0239502Y0112007D01*
X0240993Y0113498D01*
X0241500Y0114722D01*
X0242007Y0113498D01*
X0243498Y0112007D01*
X0245446Y0111200D01*
X0247554Y0111200D01*
X0249502Y0112007D01*
X0250993Y0113498D01*
X0251500Y0114722D01*
X0252007Y0113498D01*
X0253498Y0112007D01*
X0255446Y0111200D01*
X0257554Y0111200D01*
X0259502Y0112007D01*
X0260993Y0113498D01*
X0261500Y0114722D01*
X0262007Y0113498D01*
X0263498Y0112007D01*
X0265446Y0111200D01*
X0267554Y0111200D01*
X0269502Y0112007D01*
X0270993Y0113498D01*
X0271800Y0115446D01*
X0271800Y0117554D01*
X0270993Y0119502D01*
X0269502Y0120993D01*
X0267554Y0121800D01*
X0265446Y0121800D01*
X0263498Y0120993D01*
X0262007Y0119502D01*
X0261500Y0118278D01*
X0260993Y0119502D01*
X0259502Y0120993D01*
X0257554Y0121800D01*
X0255446Y0121800D01*
X0254444Y0121385D01*
X0204050Y0171778D01*
X0205446Y0171200D01*
X0207554Y0171200D01*
X0209502Y0172007D01*
X0210993Y0173498D01*
X0211500Y0174722D01*
X0212007Y0173498D01*
X0213498Y0172007D01*
X0215446Y0171200D01*
X0217554Y0171200D01*
X0219502Y0172007D01*
X0220993Y0173498D01*
X0221500Y0174722D01*
X0222007Y0173498D01*
X0223498Y0172007D01*
X0225446Y0171200D01*
X0227554Y0171200D01*
X0229502Y0172007D01*
X0230993Y0173498D01*
X0231500Y0174722D01*
X0232007Y0173498D01*
X0233498Y0172007D01*
X0235446Y0171200D01*
X0237554Y0171200D01*
X0239502Y0172007D01*
X0240024Y0172529D01*
X0239819Y0172033D01*
X0239819Y0170967D01*
X0240227Y0169981D01*
X0240981Y0169227D01*
X0241967Y0168819D01*
X0242353Y0168819D01*
X0246500Y0164672D01*
X0246500Y0164672D01*
X0247672Y0163500D01*
X0267328Y0163500D01*
X0275647Y0171819D01*
X0276033Y0171819D01*
X0277019Y0172227D01*
X0277773Y0172981D01*
X0278181Y0173967D01*
X0278181Y0175033D01*
X0277773Y0176019D01*
X0277019Y0176773D01*
X0276033Y0177181D01*
X0274967Y0177181D01*
X0274500Y0176988D01*
X0274500Y0187985D01*
X0274885Y0187600D01*
X0278115Y0187600D01*
X0280400Y0189885D01*
X0280400Y0193115D01*
X0278500Y0195015D01*
X0278500Y0196328D01*
X0277228Y0197600D01*
X0278115Y0197600D01*
X0280400Y0199885D01*
X0280400Y0203115D01*
X0278500Y0205015D01*
X0278500Y0206328D01*
X0277228Y0207600D01*
X0278115Y0207600D01*
X0280400Y0209885D01*
X0280400Y0213115D01*
X0278115Y0215400D01*
X0274885Y0215400D01*
X0272600Y0213115D01*
X0272600Y0212228D01*
X0268500Y0216328D01*
X0268500Y0245328D01*
X0265766Y0248062D01*
X0265992Y0248607D01*
X0265992Y0250456D01*
X0265284Y0252165D01*
X0263976Y0253473D01*
X0262267Y0254181D01*
X0260418Y0254181D01*
X0258709Y0253473D01*
X0257401Y0252165D01*
X0256693Y0250456D01*
X0256693Y0248607D01*
X0257401Y0246898D01*
X0258709Y0245590D01*
X0258795Y0245554D01*
X0258313Y0245204D01*
X0257796Y0244686D01*
X0257366Y0244094D01*
X0257034Y0243442D01*
X0256807Y0242746D01*
X0256693Y0242023D01*
X0256693Y0241846D01*
X0261153Y0241846D01*
X0261153Y0241468D01*
X0256693Y0241468D01*
X0256693Y0241292D01*
X0256807Y0240569D01*
X0257034Y0239873D01*
X0257366Y0239221D01*
X0257796Y0238628D01*
X0258313Y0238111D01*
X0258795Y0237761D01*
X0258709Y0237725D01*
X0257401Y0236417D01*
X0256693Y0234708D01*
X0256693Y0232859D01*
X0257401Y0231150D01*
X0258709Y0229842D01*
X0260418Y0229134D01*
X0260500Y0229134D01*
X0260500Y0216328D01*
X0247500Y0229328D01*
X0246328Y0230500D01*
X0244950Y0230500D01*
X0245204Y0230754D01*
X0245634Y0231347D01*
X0245966Y0231999D01*
X0246193Y0232695D01*
X0246307Y0233418D01*
X0246307Y0233594D01*
X0241847Y0233594D01*
X0241847Y0233972D01*
X0246307Y0233972D01*
X0246307Y0234149D01*
X0246193Y0234872D01*
X0245966Y0235568D01*
X0245634Y0236220D01*
X0245204Y0236812D01*
X0244686Y0237330D01*
X0244094Y0237760D01*
X0243442Y0238092D01*
X0242746Y0238319D01*
X0242023Y0238433D01*
X0241846Y0238433D01*
X0241846Y0233973D01*
X0241468Y0233973D01*
X0241468Y0238433D01*
X0241292Y0238433D01*
X0240569Y0238319D01*
X0239873Y0238092D01*
X0239221Y0237760D01*
X0238628Y0237330D01*
X0238111Y0236812D01*
X0237761Y0236331D01*
X0237725Y0236417D01*
X0236417Y0237725D01*
X0234708Y0238433D01*
X0232859Y0238433D01*
X0231150Y0237725D01*
X0229842Y0236417D01*
X0229134Y0234708D01*
X0229134Y0232859D01*
X0229842Y0231150D01*
X0230491Y0230500D01*
X0221327Y0230500D01*
X0221977Y0231150D01*
X0222685Y0232859D01*
X0222685Y0234708D01*
X0221977Y0236417D01*
X0220669Y0237725D01*
X0218960Y0238433D01*
X0217111Y0238433D01*
X0215402Y0237725D01*
X0214098Y0236422D01*
X0212795Y0237725D01*
X0211086Y0238433D01*
X0209237Y0238433D01*
X0208642Y0238187D01*
X0185328Y0261500D01*
X0058672Y0261500D01*
X0057286Y0260114D02*
X0003968Y0260114D01*
X0003968Y0259116D02*
X0056287Y0259116D01*
X0055289Y0258117D02*
X0054247Y0258117D01*
X0056500Y0256500D02*
X0059500Y0259500D01*
X0184500Y0259500D01*
X0209500Y0234500D01*
X0210161Y0233783D01*
X0213372Y0237149D02*
X0214825Y0237149D01*
X0216420Y0238147D02*
X0211776Y0238147D01*
X0207683Y0239146D02*
X0257420Y0239146D01*
X0256945Y0240144D02*
X0206684Y0240144D01*
X0205686Y0241143D02*
X0256716Y0241143D01*
X0256712Y0242141D02*
X0204687Y0242141D01*
X0203689Y0243140D02*
X0256935Y0243140D01*
X0257398Y0244138D02*
X0202690Y0244138D01*
X0201692Y0245137D02*
X0258246Y0245137D01*
X0258163Y0246135D02*
X0200693Y0246135D01*
X0199695Y0247134D02*
X0257303Y0247134D01*
X0256889Y0248132D02*
X0198696Y0248132D01*
X0197698Y0249131D02*
X0256693Y0249131D01*
X0256693Y0250129D02*
X0196699Y0250129D01*
X0195701Y0251128D02*
X0256971Y0251128D01*
X0257385Y0252126D02*
X0194702Y0252126D01*
X0193704Y0253125D02*
X0258360Y0253125D01*
X0260278Y0254123D02*
X0192705Y0254123D01*
X0191707Y0255122D02*
X0282496Y0255122D01*
X0282496Y0256120D02*
X0190708Y0256120D01*
X0189710Y0257119D02*
X0282496Y0257119D01*
X0282496Y0258117D02*
X0188711Y0258117D01*
X0187712Y0259116D02*
X0282496Y0259116D01*
X0282496Y0260114D02*
X0186714Y0260114D01*
X0185715Y0261113D02*
X0282496Y0261113D01*
X0282496Y0254123D02*
X0262407Y0254123D01*
X0264325Y0253125D02*
X0282496Y0253125D01*
X0282496Y0252126D02*
X0265300Y0252126D01*
X0265714Y0251128D02*
X0282496Y0251128D01*
X0282496Y0250129D02*
X0265992Y0250129D01*
X0265992Y0249131D02*
X0282496Y0249131D01*
X0282496Y0248132D02*
X0265796Y0248132D01*
X0266695Y0247134D02*
X0282496Y0247134D01*
X0282496Y0246135D02*
X0267693Y0246135D01*
X0268500Y0245137D02*
X0282496Y0245137D01*
X0282496Y0244138D02*
X0268500Y0244138D01*
X0268500Y0243140D02*
X0282496Y0243140D01*
X0282496Y0242141D02*
X0268500Y0242141D01*
X0268500Y0241143D02*
X0282496Y0241143D01*
X0282496Y0240144D02*
X0268500Y0240144D01*
X0268500Y0239146D02*
X0282496Y0239146D01*
X0282496Y0238147D02*
X0268500Y0238147D01*
X0268500Y0237149D02*
X0282496Y0237149D01*
X0282496Y0236150D02*
X0268500Y0236150D01*
X0268500Y0235152D02*
X0282496Y0235152D01*
X0282496Y0234153D02*
X0268500Y0234153D01*
X0268500Y0233155D02*
X0282496Y0233155D01*
X0282496Y0232156D02*
X0268500Y0232156D01*
X0268500Y0231158D02*
X0282496Y0231158D01*
X0282496Y0230159D02*
X0268500Y0230159D01*
X0268500Y0229161D02*
X0282496Y0229161D01*
X0282496Y0228162D02*
X0268500Y0228162D01*
X0268500Y0227164D02*
X0282496Y0227164D01*
X0282496Y0226165D02*
X0268500Y0226165D01*
X0268500Y0225167D02*
X0282496Y0225167D01*
X0282496Y0224168D02*
X0268500Y0224168D01*
X0268500Y0223170D02*
X0282496Y0223170D01*
X0282496Y0222171D02*
X0268500Y0222171D01*
X0268500Y0221172D02*
X0282496Y0221172D01*
X0282496Y0220174D02*
X0268500Y0220174D01*
X0268500Y0219175D02*
X0282496Y0219175D01*
X0282496Y0218177D02*
X0268500Y0218177D01*
X0268500Y0217178D02*
X0282496Y0217178D01*
X0282496Y0216180D02*
X0268648Y0216180D01*
X0269647Y0215181D02*
X0274666Y0215181D01*
X0273667Y0214183D02*
X0270645Y0214183D01*
X0271644Y0213184D02*
X0272669Y0213184D01*
X0278334Y0215181D02*
X0282496Y0215181D01*
X0282496Y0214183D02*
X0279332Y0214183D01*
X0280331Y0213184D02*
X0282496Y0213184D01*
X0282496Y0212186D02*
X0280400Y0212186D01*
X0280400Y0211187D02*
X0282496Y0211187D01*
X0282496Y0210189D02*
X0280400Y0210189D01*
X0279706Y0209190D02*
X0282496Y0209190D01*
X0282496Y0208192D02*
X0278707Y0208192D01*
X0277635Y0207193D02*
X0282496Y0207193D01*
X0282496Y0206195D02*
X0278500Y0206195D01*
X0278500Y0205196D02*
X0282496Y0205196D01*
X0282496Y0204198D02*
X0279318Y0204198D01*
X0280316Y0203199D02*
X0282496Y0203199D01*
X0282496Y0202201D02*
X0280400Y0202201D01*
X0280400Y0201202D02*
X0282496Y0201202D01*
X0282496Y0200204D02*
X0280400Y0200204D01*
X0279721Y0199205D02*
X0282496Y0199205D01*
X0282496Y0198207D02*
X0278722Y0198207D01*
X0277620Y0197208D02*
X0282496Y0197208D01*
X0282496Y0196210D02*
X0278500Y0196210D01*
X0278500Y0195211D02*
X0282496Y0195211D01*
X0282496Y0194213D02*
X0279303Y0194213D01*
X0280301Y0193214D02*
X0282496Y0193214D01*
X0282496Y0192216D02*
X0280400Y0192216D01*
X0280400Y0191217D02*
X0282496Y0191217D01*
X0282496Y0190219D02*
X0280400Y0190219D01*
X0279736Y0189220D02*
X0282496Y0189220D01*
X0282496Y0188222D02*
X0278737Y0188222D01*
X0282496Y0187223D02*
X0274500Y0187223D01*
X0274500Y0186225D02*
X0282496Y0186225D01*
X0282496Y0185226D02*
X0274500Y0185226D01*
X0274500Y0184228D02*
X0282496Y0184228D01*
X0282496Y0183229D02*
X0274500Y0183229D01*
X0274500Y0182231D02*
X0282496Y0182231D01*
X0282496Y0181232D02*
X0274500Y0181232D01*
X0274500Y0180234D02*
X0282496Y0180234D01*
X0282496Y0179235D02*
X0274500Y0179235D01*
X0274500Y0178237D02*
X0282496Y0178237D01*
X0282496Y0177238D02*
X0274500Y0177238D01*
X0275500Y0174500D02*
X0266500Y0165500D01*
X0248500Y0165500D01*
X0242500Y0171500D01*
X0240116Y0170248D02*
X0205580Y0170248D01*
X0205332Y0171247D02*
X0204581Y0171247D01*
X0202500Y0170500D02*
X0256500Y0116500D01*
X0259830Y0112335D02*
X0263170Y0112335D01*
X0262171Y0113333D02*
X0260829Y0113333D01*
X0261339Y0114332D02*
X0261661Y0114332D01*
X0265117Y0111336D02*
X0257883Y0111336D01*
X0255117Y0111336D02*
X0247883Y0111336D01*
X0249830Y0112335D02*
X0253170Y0112335D01*
X0252171Y0113333D02*
X0250829Y0113333D01*
X0251339Y0114332D02*
X0251661Y0114332D01*
X0246500Y0116500D02*
X0194500Y0168500D01*
X0170500Y0168500D01*
X0163500Y0161500D01*
X0161500Y0161500D01*
X0156424Y0167253D02*
X0153597Y0167253D01*
X0153709Y0167206D02*
X0152276Y0167800D01*
X0150724Y0167800D01*
X0149291Y0167206D01*
X0148194Y0166109D01*
X0147600Y0164676D01*
X0147600Y0160228D01*
X0145400Y0162428D01*
X0145400Y0164676D01*
X0144806Y0166109D01*
X0143709Y0167206D01*
X0142276Y0167800D01*
X0140724Y0167800D01*
X0139291Y0167206D01*
X0138194Y0166109D01*
X0138055Y0165774D01*
X0133328Y0170500D01*
X0108292Y0170500D01*
X0108019Y0170773D01*
X0107033Y0171181D01*
X0105967Y0171181D01*
X0104981Y0170773D01*
X0104227Y0170019D01*
X0103819Y0169033D01*
X0103819Y0167967D01*
X0104227Y0166981D01*
X0104981Y0166227D01*
X0105967Y0165819D01*
X0107033Y0165819D01*
X0108019Y0166227D01*
X0108292Y0166500D01*
X0108585Y0166500D01*
X0108194Y0166109D01*
X0107600Y0164676D01*
X0107600Y0160228D01*
X0106181Y0161647D01*
X0106181Y0162033D01*
X0105773Y0163019D01*
X0105019Y0163773D01*
X0104033Y0164181D01*
X0102967Y0164181D01*
X0102500Y0163988D01*
X0102500Y0169672D01*
X0104444Y0171615D01*
X0105446Y0171200D01*
X0107554Y0171200D01*
X0109502Y0172007D01*
X0110993Y0173498D01*
X0111500Y0174722D01*
X0112007Y0173498D01*
X0113498Y0172007D01*
X0115446Y0171200D01*
X0117554Y0171200D01*
X0119502Y0172007D01*
X0120993Y0173498D01*
X0121500Y0174722D01*
X0122007Y0173498D01*
X0123498Y0172007D01*
X0125446Y0171200D01*
X0127554Y0171200D01*
X0129502Y0172007D01*
X0130993Y0173498D01*
X0131503Y0174728D01*
X0131588Y0174466D01*
X0131967Y0173722D01*
X0132457Y0173047D01*
X0133047Y0172457D01*
X0133722Y0171967D01*
X0134466Y0171588D01*
X0135259Y0171330D01*
X0136000Y0171213D01*
X0136000Y0176000D01*
X0137000Y0176000D01*
X0137000Y0171213D01*
X0137741Y0171330D01*
X0138534Y0171588D01*
X0139278Y0171967D01*
X0139953Y0172457D01*
X0140543Y0173047D01*
X0141033Y0173722D01*
X0141412Y0174466D01*
X0141497Y0174728D01*
X0142007Y0173498D01*
X0143498Y0172007D01*
X0145446Y0171200D01*
X0147554Y0171200D01*
X0149502Y0172007D01*
X0150993Y0173498D01*
X0151500Y0174722D01*
X0152007Y0173498D01*
X0153498Y0172007D01*
X0155446Y0171200D01*
X0157554Y0171200D01*
X0159502Y0172007D01*
X0160993Y0173498D01*
X0161500Y0174722D01*
X0162007Y0173498D01*
X0163005Y0172500D01*
X0161672Y0172500D01*
X0160500Y0171328D01*
X0154945Y0165774D01*
X0154806Y0166109D01*
X0153709Y0167206D01*
X0154661Y0166254D02*
X0155426Y0166254D01*
X0157423Y0168251D02*
X0135577Y0168251D01*
X0136576Y0167253D02*
X0139403Y0167253D01*
X0138339Y0166254D02*
X0137574Y0166254D01*
X0137500Y0163500D02*
X0137500Y0157500D01*
X0156500Y0138500D01*
X0162500Y0138500D01*
X0167500Y0133500D01*
X0167500Y0125500D01*
X0176500Y0116500D01*
X0171500Y0114722D02*
X0172007Y0113498D01*
X0173498Y0112007D01*
X0175446Y0111200D01*
X0177554Y0111200D01*
X0178950Y0111778D01*
X0177672Y0110500D01*
X0144672Y0110500D01*
X0143500Y0109328D01*
X0134945Y0100774D01*
X0134806Y0101109D01*
X0133709Y0102206D01*
X0132276Y0102800D01*
X0130724Y0102800D01*
X0129291Y0102206D01*
X0128194Y0101109D01*
X0127600Y0099676D01*
X0127600Y0093324D01*
X0128194Y0091891D01*
X0129291Y0090794D01*
X0130724Y0090200D01*
X0132276Y0090200D01*
X0133709Y0090794D01*
X0134806Y0091891D01*
X0135400Y0093324D01*
X0135400Y0095572D01*
X0137600Y0097772D01*
X0137600Y0096800D01*
X0141200Y0096800D01*
X0141200Y0096200D01*
X0141800Y0096200D01*
X0141800Y0096800D01*
X0145400Y0096800D01*
X0145400Y0099284D01*
X0145250Y0100038D01*
X0144956Y0100747D01*
X0144529Y0101386D01*
X0143986Y0101929D01*
X0143347Y0102356D01*
X0142638Y0102650D01*
X0142505Y0102677D01*
X0146328Y0106500D01*
X0179328Y0106500D01*
X0184444Y0111615D01*
X0185446Y0111200D01*
X0187554Y0111200D01*
X0189502Y0112007D01*
X0190993Y0113498D01*
X0191500Y0114722D01*
X0192007Y0113498D01*
X0193498Y0112007D01*
X0195393Y0111222D01*
X0184945Y0100774D01*
X0184806Y0101109D01*
X0183709Y0102206D01*
X0182276Y0102800D01*
X0180724Y0102800D01*
X0179291Y0102206D01*
X0178194Y0101109D01*
X0177600Y0099676D01*
X0177600Y0093324D01*
X0178194Y0091891D01*
X0179291Y0090794D01*
X0180724Y0090200D01*
X0182276Y0090200D01*
X0183709Y0090794D01*
X0184806Y0091891D01*
X0185400Y0093324D01*
X0185400Y0095572D01*
X0187600Y0097772D01*
X0187600Y0093324D01*
X0188194Y0091891D01*
X0189291Y0090794D01*
X0190724Y0090200D01*
X0192276Y0090200D01*
X0193709Y0090794D01*
X0194806Y0091891D01*
X0195400Y0093324D01*
X0195400Y0099676D01*
X0194806Y0101109D01*
X0193709Y0102206D01*
X0192525Y0102697D01*
X0198328Y0108500D01*
X0201328Y0108500D01*
X0204444Y0111615D01*
X0205446Y0111200D01*
X0207554Y0111200D01*
X0209502Y0112007D01*
X0210993Y0113498D01*
X0211500Y0114722D01*
X0212007Y0113498D01*
X0213498Y0112007D01*
X0215446Y0111200D01*
X0217554Y0111200D01*
X0219502Y0112007D01*
X0220993Y0113498D01*
X0221500Y0114722D01*
X0222007Y0113498D01*
X0223498Y0112007D01*
X0224500Y0111592D01*
X0224500Y0098988D01*
X0224033Y0099181D01*
X0222967Y0099181D01*
X0221981Y0098773D01*
X0221227Y0098019D01*
X0220819Y0097033D01*
X0220819Y0096647D01*
X0211672Y0087500D01*
X0145328Y0087500D01*
X0148956Y0091128D01*
X0149291Y0090794D01*
X0150724Y0090200D01*
X0152276Y0090200D01*
X0153709Y0090794D01*
X0154806Y0091891D01*
X0155400Y0093324D01*
X0155400Y0095572D01*
X0157600Y0097772D01*
X0157600Y0093324D01*
X0158194Y0091891D01*
X0159291Y0090794D01*
X0160724Y0090200D01*
X0162276Y0090200D01*
X0163709Y0090794D01*
X0164806Y0091891D01*
X0165400Y0093324D01*
X0165400Y0099676D01*
X0165332Y0099839D01*
X0167600Y0097572D01*
X0167600Y0093324D01*
X0168194Y0091891D01*
X0169291Y0090794D01*
X0170724Y0090200D01*
X0172276Y0090200D01*
X0173709Y0090794D01*
X0174806Y0091891D01*
X0175400Y0093324D01*
X0175400Y0099676D01*
X0174806Y0101109D01*
X0173709Y0102206D01*
X0172276Y0102800D01*
X0170724Y0102800D01*
X0169291Y0102206D01*
X0168956Y0101872D01*
X0165328Y0105500D01*
X0159672Y0105500D01*
X0158500Y0104328D01*
X0154945Y0100774D01*
X0154806Y0101109D01*
X0153709Y0102206D01*
X0152276Y0102800D01*
X0150724Y0102800D01*
X0149291Y0102206D01*
X0148194Y0101109D01*
X0147600Y0099676D01*
X0147600Y0095428D01*
X0145279Y0093107D01*
X0145400Y0093716D01*
X0145400Y0096200D01*
X0141800Y0096200D01*
X0141800Y0090200D01*
X0141884Y0090200D01*
X0142493Y0090321D01*
X0141672Y0089500D01*
X0103328Y0089500D01*
X0102525Y0090303D01*
X0103709Y0090794D01*
X0104806Y0091891D01*
X0105400Y0093324D01*
X0105400Y0099676D01*
X0104806Y0101109D01*
X0103709Y0102206D01*
X0102276Y0102800D01*
X0100724Y0102800D01*
X0099291Y0102206D01*
X0098194Y0101109D01*
X0097600Y0099676D01*
X0097600Y0095228D01*
X0095400Y0097428D01*
X0095400Y0099676D01*
X0094806Y0101109D01*
X0093709Y0102206D01*
X0092276Y0102800D01*
X0090724Y0102800D01*
X0089291Y0102206D01*
X0088194Y0101109D01*
X0088055Y0100774D01*
X0081228Y0107600D01*
X0083115Y0107600D01*
X0085400Y0109885D01*
X0085400Y0112572D01*
X0098500Y0125672D01*
X0098500Y0113672D01*
X0099672Y0112500D01*
X0109500Y0102672D01*
X0109500Y0102293D01*
X0109291Y0102206D01*
X0108194Y0101109D01*
X0107600Y0099676D01*
X0107600Y0093324D01*
X0108194Y0091891D01*
X0109291Y0090794D01*
X0110724Y0090200D01*
X0112276Y0090200D01*
X0113709Y0090794D01*
X0114806Y0091891D01*
X0115400Y0093324D01*
X0115400Y0099676D01*
X0114806Y0101109D01*
X0113709Y0102206D01*
X0113500Y0102293D01*
X0113500Y0104328D01*
X0106628Y0111200D01*
X0107554Y0111200D01*
X0109502Y0112007D01*
X0110993Y0113498D01*
X0111500Y0114722D01*
X0112007Y0113498D01*
X0113498Y0112007D01*
X0115446Y0111200D01*
X0117554Y0111200D01*
X0119502Y0112007D01*
X0120993Y0113498D01*
X0121500Y0114722D01*
X0122007Y0113498D01*
X0123498Y0112007D01*
X0125446Y0111200D01*
X0127554Y0111200D01*
X0129502Y0112007D01*
X0130993Y0113498D01*
X0131500Y0114722D01*
X0132007Y0113498D01*
X0133498Y0112007D01*
X0135446Y0111200D01*
X0137554Y0111200D01*
X0139502Y0112007D01*
X0140993Y0113498D01*
X0141500Y0114722D01*
X0142007Y0113498D01*
X0143498Y0112007D01*
X0145446Y0111200D01*
X0147554Y0111200D01*
X0149502Y0112007D01*
X0150993Y0113498D01*
X0151503Y0114728D01*
X0151588Y0114466D01*
X0151967Y0113722D01*
X0152457Y0113047D01*
X0153047Y0112457D01*
X0153722Y0111967D01*
X0154466Y0111588D01*
X0155259Y0111330D01*
X0156000Y0111213D01*
X0156000Y0116000D01*
X0157000Y0116000D01*
X0157000Y0111213D01*
X0157741Y0111330D01*
X0158534Y0111588D01*
X0159278Y0111967D01*
X0159953Y0112457D01*
X0160543Y0113047D01*
X0161033Y0113722D01*
X0161412Y0114466D01*
X0161497Y0114728D01*
X0162007Y0113498D01*
X0163498Y0112007D01*
X0165446Y0111200D01*
X0167554Y0111200D01*
X0169502Y0112007D01*
X0170993Y0113498D01*
X0171500Y0114722D01*
X0171339Y0114332D02*
X0171661Y0114332D01*
X0172171Y0113333D02*
X0170829Y0113333D01*
X0169830Y0112335D02*
X0173170Y0112335D01*
X0175117Y0111336D02*
X0167883Y0111336D01*
X0165117Y0111336D02*
X0157759Y0111336D01*
X0157000Y0111336D02*
X0156000Y0111336D01*
X0155241Y0111336D02*
X0147883Y0111336D01*
X0149830Y0112335D02*
X0153216Y0112335D01*
X0152250Y0113333D02*
X0150829Y0113333D01*
X0151339Y0114332D02*
X0151656Y0114332D01*
X0150500Y0110500D02*
X0156500Y0116500D01*
X0157000Y0117000D02*
X0156000Y0117000D01*
X0156000Y0121787D01*
X0155259Y0121669D01*
X0154466Y0121412D01*
X0153722Y0121033D01*
X0153047Y0120543D01*
X0152457Y0119953D01*
X0151967Y0119278D01*
X0151588Y0118534D01*
X0151503Y0118272D01*
X0150993Y0119502D01*
X0149502Y0120993D01*
X0147554Y0121800D01*
X0145446Y0121800D01*
X0143498Y0120993D01*
X0142007Y0119502D01*
X0141500Y0118278D01*
X0140993Y0119502D01*
X0139502Y0120993D01*
X0137554Y0121800D01*
X0135446Y0121800D01*
X0133498Y0120993D01*
X0132007Y0119502D01*
X0131500Y0118278D01*
X0130993Y0119502D01*
X0129502Y0120993D01*
X0127554Y0121800D01*
X0125446Y0121800D01*
X0123498Y0120993D01*
X0122007Y0119502D01*
X0121500Y0118278D01*
X0120993Y0119502D01*
X0119502Y0120993D01*
X0117554Y0121800D01*
X0115446Y0121800D01*
X0113498Y0120993D01*
X0112007Y0119502D01*
X0111500Y0118278D01*
X0110993Y0119502D01*
X0109502Y0120993D01*
X0107554Y0121800D01*
X0105446Y0121800D01*
X0103498Y0120993D01*
X0102500Y0119995D01*
X0102500Y0159012D01*
X0102967Y0158819D01*
X0103353Y0158819D01*
X0105276Y0156895D01*
X0104981Y0156773D01*
X0104227Y0156019D01*
X0103819Y0155033D01*
X0103819Y0153967D01*
X0104227Y0152981D01*
X0104981Y0152227D01*
X0105967Y0151819D01*
X0106353Y0151819D01*
X0107672Y0150500D01*
X0127672Y0150500D01*
X0140475Y0137697D01*
X0139291Y0137206D01*
X0138194Y0136109D01*
X0137600Y0134676D01*
X0137600Y0128324D01*
X0138194Y0126891D01*
X0139291Y0125794D01*
X0140724Y0125200D01*
X0142276Y0125200D01*
X0143709Y0125794D01*
X0144806Y0126891D01*
X0145400Y0128324D01*
X0145400Y0132772D01*
X0147600Y0130572D01*
X0147600Y0128324D01*
X0148194Y0126891D01*
X0149291Y0125794D01*
X0150724Y0125200D01*
X0150888Y0125200D01*
X0150819Y0125033D01*
X0150819Y0123967D01*
X0151227Y0122981D01*
X0151981Y0122227D01*
X0152967Y0121819D01*
X0154033Y0121819D01*
X0155019Y0122227D01*
X0155292Y0122500D01*
X0157672Y0122500D01*
X0158994Y0121178D01*
X0158534Y0121412D01*
X0157741Y0121669D01*
X0157000Y0121787D01*
X0157000Y0117000D01*
X0157000Y0117327D02*
X0156000Y0117327D01*
X0156000Y0118326D02*
X0157000Y0118326D01*
X0157000Y0119324D02*
X0156000Y0119324D01*
X0156000Y0120323D02*
X0157000Y0120323D01*
X0157000Y0121321D02*
X0156000Y0121321D01*
X0155112Y0122320D02*
X0157852Y0122320D01*
X0158712Y0121321D02*
X0158850Y0121321D01*
X0158500Y0124500D02*
X0166500Y0116500D01*
X0161661Y0114332D02*
X0161344Y0114332D01*
X0160750Y0113333D02*
X0162171Y0113333D01*
X0163170Y0112335D02*
X0159784Y0112335D01*
X0157000Y0112335D02*
X0156000Y0112335D01*
X0156000Y0113333D02*
X0157000Y0113333D01*
X0157000Y0114332D02*
X0156000Y0114332D01*
X0156000Y0115330D02*
X0157000Y0115330D01*
X0152001Y0119324D02*
X0151067Y0119324D01*
X0151480Y0118326D02*
X0151521Y0118326D01*
X0152828Y0120323D02*
X0150172Y0120323D01*
X0148710Y0121321D02*
X0154288Y0121321D01*
X0151888Y0122320D02*
X0102500Y0122320D01*
X0102500Y0123318D02*
X0151087Y0123318D01*
X0150819Y0124317D02*
X0102500Y0124317D01*
X0102500Y0125315D02*
X0110446Y0125315D01*
X0110724Y0125200D02*
X0112276Y0125200D01*
X0113709Y0125794D01*
X0114806Y0126891D01*
X0115400Y0128324D01*
X0115400Y0134676D01*
X0114806Y0136109D01*
X0113709Y0137206D01*
X0112276Y0137800D01*
X0110724Y0137800D01*
X0109291Y0137206D01*
X0108194Y0136109D01*
X0107600Y0134676D01*
X0107600Y0128324D01*
X0108194Y0126891D01*
X0109291Y0125794D01*
X0110724Y0125200D01*
X0112554Y0125315D02*
X0120446Y0125315D01*
X0120724Y0125200D02*
X0122276Y0125200D01*
X0123709Y0125794D01*
X0124806Y0126891D01*
X0125400Y0128324D01*
X0125400Y0134676D01*
X0124806Y0136109D01*
X0123709Y0137206D01*
X0122276Y0137800D01*
X0120724Y0137800D01*
X0119291Y0137206D01*
X0118194Y0136109D01*
X0117600Y0134676D01*
X0117600Y0128324D01*
X0118194Y0126891D01*
X0119291Y0125794D01*
X0120724Y0125200D01*
X0122554Y0125315D02*
X0130446Y0125315D01*
X0130724Y0125200D02*
X0132276Y0125200D01*
X0133709Y0125794D01*
X0134806Y0126891D01*
X0135400Y0128324D01*
X0135400Y0134676D01*
X0134806Y0136109D01*
X0133709Y0137206D01*
X0132276Y0137800D01*
X0130724Y0137800D01*
X0129291Y0137206D01*
X0128194Y0136109D01*
X0127600Y0134676D01*
X0127600Y0128324D01*
X0128194Y0126891D01*
X0129291Y0125794D01*
X0130724Y0125200D01*
X0132554Y0125315D02*
X0140446Y0125315D01*
X0138771Y0126314D02*
X0134229Y0126314D01*
X0134981Y0127312D02*
X0138019Y0127312D01*
X0137605Y0128311D02*
X0135394Y0128311D01*
X0135400Y0129309D02*
X0137600Y0129309D01*
X0137600Y0130308D02*
X0135400Y0130308D01*
X0135400Y0131306D02*
X0137600Y0131306D01*
X0137600Y0132305D02*
X0135400Y0132305D01*
X0135400Y0133303D02*
X0137600Y0133303D01*
X0137600Y0134302D02*
X0135400Y0134302D01*
X0135141Y0135301D02*
X0137859Y0135301D01*
X0138384Y0136299D02*
X0134616Y0136299D01*
X0133489Y0137298D02*
X0139511Y0137298D01*
X0139876Y0138296D02*
X0102500Y0138296D01*
X0102500Y0137298D02*
X0109511Y0137298D01*
X0108384Y0136299D02*
X0102500Y0136299D01*
X0102500Y0135301D02*
X0107859Y0135301D01*
X0107600Y0134302D02*
X0102500Y0134302D01*
X0102500Y0133303D02*
X0107600Y0133303D01*
X0107600Y0132305D02*
X0102500Y0132305D01*
X0102500Y0131306D02*
X0107600Y0131306D01*
X0107600Y0130308D02*
X0102500Y0130308D01*
X0102500Y0129309D02*
X0107600Y0129309D01*
X0107605Y0128311D02*
X0102500Y0128311D01*
X0102500Y0127312D02*
X0108019Y0127312D01*
X0108771Y0126314D02*
X0102500Y0126314D01*
X0098500Y0125315D02*
X0098144Y0125315D01*
X0098500Y0124317D02*
X0097145Y0124317D01*
X0096147Y0123318D02*
X0098500Y0123318D01*
X0098500Y0122320D02*
X0095148Y0122320D01*
X0094150Y0121321D02*
X0098500Y0121321D01*
X0098500Y0120323D02*
X0093151Y0120323D01*
X0092153Y0119324D02*
X0098500Y0119324D01*
X0098500Y0118326D02*
X0091154Y0118326D01*
X0090156Y0117327D02*
X0098500Y0117327D01*
X0098500Y0116329D02*
X0089157Y0116329D01*
X0088159Y0115330D02*
X0098500Y0115330D01*
X0098500Y0114332D02*
X0087160Y0114332D01*
X0086162Y0113333D02*
X0098838Y0113333D01*
X0099837Y0112335D02*
X0085400Y0112335D01*
X0085400Y0111336D02*
X0100835Y0111336D01*
X0101834Y0110338D02*
X0085400Y0110338D01*
X0084855Y0109339D02*
X0102832Y0109339D01*
X0103831Y0108341D02*
X0083856Y0108341D01*
X0082485Y0106344D02*
X0105828Y0106344D01*
X0104829Y0107342D02*
X0081486Y0107342D01*
X0083483Y0105345D02*
X0106826Y0105345D01*
X0107825Y0104347D02*
X0084482Y0104347D01*
X0085480Y0103348D02*
X0108823Y0103348D01*
X0109500Y0102350D02*
X0103363Y0102350D01*
X0104564Y0101351D02*
X0108436Y0101351D01*
X0107880Y0100353D02*
X0105120Y0100353D01*
X0105400Y0099354D02*
X0107600Y0099354D01*
X0107600Y0098356D02*
X0105400Y0098356D01*
X0105400Y0097357D02*
X0107600Y0097357D01*
X0107600Y0096359D02*
X0105400Y0096359D01*
X0105400Y0095360D02*
X0107600Y0095360D01*
X0107600Y0094362D02*
X0105400Y0094362D01*
X0105400Y0093363D02*
X0107600Y0093363D01*
X0107998Y0092365D02*
X0105002Y0092365D01*
X0104281Y0091366D02*
X0108719Y0091366D01*
X0110320Y0090368D02*
X0102680Y0090368D01*
X0102500Y0087500D02*
X0142500Y0087500D01*
X0151500Y0096500D01*
X0153500Y0096500D01*
X0160500Y0103500D01*
X0164500Y0103500D01*
X0171500Y0096500D01*
X0167600Y0096359D02*
X0165400Y0096359D01*
X0165400Y0097357D02*
X0167600Y0097357D01*
X0166816Y0098356D02*
X0165400Y0098356D01*
X0165400Y0099354D02*
X0165817Y0099354D01*
X0168479Y0102350D02*
X0169637Y0102350D01*
X0167480Y0103348D02*
X0187520Y0103348D01*
X0188518Y0104347D02*
X0166482Y0104347D01*
X0165483Y0105345D02*
X0189517Y0105345D01*
X0190515Y0106344D02*
X0146172Y0106344D01*
X0145174Y0105345D02*
X0159517Y0105345D01*
X0158518Y0104347D02*
X0144175Y0104347D01*
X0143177Y0103348D02*
X0157520Y0103348D01*
X0156521Y0102350D02*
X0153363Y0102350D01*
X0154564Y0101351D02*
X0155523Y0101351D01*
X0157185Y0097357D02*
X0157600Y0097357D01*
X0157600Y0096359D02*
X0156187Y0096359D01*
X0155400Y0095360D02*
X0157600Y0095360D01*
X0157600Y0094362D02*
X0155400Y0094362D01*
X0155400Y0093363D02*
X0157600Y0093363D01*
X0157998Y0092365D02*
X0155002Y0092365D01*
X0154281Y0091366D02*
X0158719Y0091366D01*
X0160320Y0090368D02*
X0152680Y0090368D01*
X0150320Y0090368D02*
X0148196Y0090368D01*
X0147197Y0089369D02*
X0213541Y0089369D01*
X0212680Y0090368D02*
X0214539Y0090368D01*
X0213709Y0090794D02*
X0214806Y0091891D01*
X0215400Y0093324D01*
X0215400Y0099676D01*
X0214806Y0101109D01*
X0213709Y0102206D01*
X0212276Y0102800D01*
X0210724Y0102800D01*
X0209291Y0102206D01*
X0208194Y0101109D01*
X0207600Y0099676D01*
X0207600Y0093324D01*
X0208194Y0091891D01*
X0209291Y0090794D01*
X0210724Y0090200D01*
X0212276Y0090200D01*
X0213709Y0090794D01*
X0214281Y0091366D02*
X0215538Y0091366D01*
X0215002Y0092365D02*
X0216536Y0092365D01*
X0217535Y0093363D02*
X0215400Y0093363D01*
X0215400Y0094362D02*
X0218533Y0094362D01*
X0219532Y0095360D02*
X0215400Y0095360D01*
X0215400Y0096359D02*
X0220530Y0096359D01*
X0220953Y0097357D02*
X0215400Y0097357D01*
X0215400Y0098356D02*
X0221564Y0098356D01*
X0223500Y0096500D02*
X0212500Y0085500D01*
X0101500Y0085500D01*
X0100500Y0086500D01*
X0093500Y0086500D01*
X0087500Y0092500D01*
X0087500Y0098500D01*
X0077500Y0108500D01*
X0077500Y0113500D01*
X0079500Y0115500D01*
X0081500Y0115500D01*
X0096500Y0130500D01*
X0096500Y0191500D01*
X0093697Y0194213D02*
X0090041Y0194213D01*
X0091040Y0195211D02*
X0094696Y0195211D01*
X0094885Y0195400D02*
X0092600Y0193115D01*
X0092600Y0189885D01*
X0094500Y0187985D01*
X0094500Y0131328D01*
X0085400Y0122228D01*
X0085400Y0123115D01*
X0083115Y0125400D01*
X0081800Y0125400D01*
X0081800Y0121800D01*
X0081200Y0121800D01*
X0081200Y0125400D01*
X0079885Y0125400D01*
X0077600Y0123115D01*
X0077600Y0121800D01*
X0081200Y0121800D01*
X0081200Y0121200D01*
X0077600Y0121200D01*
X0077600Y0119885D01*
X0079885Y0117600D01*
X0080772Y0117600D01*
X0080672Y0117500D01*
X0078672Y0117500D01*
X0076672Y0115500D01*
X0075500Y0114328D01*
X0075500Y0107672D01*
X0080475Y0102697D01*
X0079291Y0102206D01*
X0078956Y0101872D01*
X0056596Y0124232D01*
X0067296Y0124232D01*
X0068766Y0124841D01*
X0069891Y0125966D01*
X0070500Y0127437D01*
X0070500Y0137500D01*
X0082296Y0137500D01*
X0082537Y0137600D01*
X0083115Y0137600D01*
X0083524Y0138009D01*
X0083766Y0138109D01*
X0084891Y0139234D01*
X0084991Y0139476D01*
X0085400Y0139885D01*
X0085400Y0140463D01*
X0085500Y0140704D01*
X0085500Y0142296D01*
X0085400Y0142537D01*
X0085400Y0143115D01*
X0084991Y0143524D01*
X0084891Y0143766D01*
X0083766Y0144891D01*
X0083524Y0144991D01*
X0083115Y0145400D01*
X0082537Y0145400D01*
X0082296Y0145500D01*
X0070500Y0145500D01*
X0070500Y0229783D01*
X0085621Y0229783D01*
X0087189Y0229134D01*
X0089039Y0229134D01*
X0090748Y0229842D01*
X0092056Y0231150D01*
X0092092Y0231236D01*
X0092442Y0230754D01*
X0092959Y0230237D01*
X0093551Y0229807D01*
X0094203Y0229475D01*
X0094899Y0229248D01*
X0095349Y0229177D01*
X0090500Y0224328D01*
X0090500Y0204328D01*
X0087800Y0201628D01*
X0087800Y0202276D01*
X0087206Y0203709D01*
X0086109Y0204806D01*
X0084676Y0205400D01*
X0078324Y0205400D01*
X0076891Y0204806D01*
X0075794Y0203709D01*
X0075200Y0202276D01*
X0075200Y0200724D01*
X0075794Y0199291D01*
X0076891Y0198194D01*
X0078324Y0197600D01*
X0084676Y0197600D01*
X0084928Y0197704D01*
X0085227Y0196981D01*
X0085981Y0196227D01*
X0086276Y0196105D01*
X0085309Y0195138D01*
X0084676Y0195400D01*
X0078324Y0195400D01*
X0076891Y0194806D01*
X0075794Y0193709D01*
X0075200Y0192276D01*
X0075200Y0190724D01*
X0075794Y0189291D01*
X0076891Y0188194D01*
X0078324Y0187600D01*
X0084676Y0187600D01*
X0086109Y0188194D01*
X0087206Y0189291D01*
X0087800Y0190724D01*
X0087800Y0191972D01*
X0097328Y0201500D01*
X0098500Y0202672D01*
X0098500Y0207985D01*
X0098500Y0196292D01*
X0098227Y0196019D01*
X0097971Y0195400D01*
X0094885Y0195400D01*
X0093037Y0197208D02*
X0098500Y0197208D01*
X0098500Y0198207D02*
X0094035Y0198207D01*
X0095034Y0199205D02*
X0098500Y0199205D01*
X0098500Y0200204D02*
X0096032Y0200204D01*
X0097031Y0201202D02*
X0098500Y0201202D01*
X0098500Y0202201D02*
X0098029Y0202201D01*
X0098500Y0203199D02*
X0098500Y0203199D01*
X0098500Y0204198D02*
X0098500Y0204198D01*
X0098500Y0205196D02*
X0098500Y0205196D01*
X0098500Y0206195D02*
X0098500Y0206195D01*
X0098500Y0207193D02*
X0098500Y0207193D01*
X0098500Y0207985D02*
X0098500Y0207985D01*
X0096500Y0211500D02*
X0096500Y0203500D01*
X0084500Y0191500D01*
X0081500Y0191500D01*
X0085132Y0195211D02*
X0085383Y0195211D01*
X0086023Y0196210D02*
X0070500Y0196210D01*
X0070500Y0197208D02*
X0085133Y0197208D01*
X0087500Y0198500D02*
X0092500Y0203500D01*
X0092500Y0223500D01*
X0101500Y0232500D01*
X0101500Y0235500D01*
X0093500Y0243500D01*
X0059500Y0243500D01*
X0056500Y0246500D01*
X0056500Y0256500D01*
X0051500Y0251500D02*
X0051500Y0210500D01*
X0044500Y0203500D01*
X0044500Y0186500D01*
X0061500Y0169500D01*
X0059115Y0168251D02*
X0049478Y0168251D01*
X0048479Y0167253D02*
X0059955Y0167253D01*
X0058819Y0169250D02*
X0050476Y0169250D01*
X0051475Y0170248D02*
X0057923Y0170248D01*
X0056925Y0171247D02*
X0052474Y0171247D01*
X0052606Y0171380D02*
X0052606Y0174110D01*
X0045307Y0174110D01*
X0045307Y0166811D01*
X0048038Y0166811D01*
X0052606Y0171380D01*
X0052606Y0172245D02*
X0055926Y0172245D01*
X0054928Y0173244D02*
X0052606Y0173244D01*
X0053929Y0174242D02*
X0045307Y0174242D01*
X0045307Y0174110D02*
X0045307Y0175110D01*
X0044307Y0175110D01*
X0044307Y0174110D01*
X0045307Y0174110D01*
X0045500Y0174500D02*
X0044807Y0174610D01*
X0044500Y0174500D01*
X0021500Y0174500D01*
X0021185Y0174610D01*
X0020685Y0174242D02*
X0003968Y0174242D01*
X0003968Y0173244D02*
X0013386Y0173244D01*
X0013386Y0174110D02*
X0013386Y0171380D01*
X0017955Y0166811D01*
X0020685Y0166811D01*
X0020685Y0174110D01*
X0021685Y0174110D01*
X0021685Y0166811D01*
X0024416Y0166811D01*
X0028984Y0171380D01*
X0028984Y0174110D01*
X0021685Y0174110D01*
X0021685Y0175110D01*
X0028984Y0175110D01*
X0028984Y0177841D01*
X0024416Y0182409D01*
X0021685Y0182409D01*
X0021685Y0175110D01*
X0020685Y0175110D01*
X0020685Y0174110D01*
X0013386Y0174110D01*
X0013386Y0175110D02*
X0020685Y0175110D01*
X0020685Y0182409D01*
X0017955Y0182409D01*
X0013386Y0177841D01*
X0013386Y0175110D01*
X0013386Y0175241D02*
X0003968Y0175241D01*
X0003968Y0176239D02*
X0013386Y0176239D01*
X0013386Y0177238D02*
X0003968Y0177238D01*
X0003968Y0178237D02*
X0013782Y0178237D01*
X0014780Y0179235D02*
X0003968Y0179235D01*
X0003968Y0180234D02*
X0015779Y0180234D01*
X0016777Y0181232D02*
X0003968Y0181232D01*
X0003968Y0182231D02*
X0017776Y0182231D01*
X0020685Y0182231D02*
X0021685Y0182231D01*
X0021685Y0181232D02*
X0020685Y0181232D01*
X0020685Y0180234D02*
X0021685Y0180234D01*
X0021685Y0179235D02*
X0020685Y0179235D01*
X0020685Y0178237D02*
X0021685Y0178237D01*
X0021685Y0177238D02*
X0020685Y0177238D01*
X0020685Y0176239D02*
X0021685Y0176239D01*
X0021685Y0175241D02*
X0020685Y0175241D01*
X0021685Y0174242D02*
X0044307Y0174242D01*
X0044307Y0174110D02*
X0037008Y0174110D01*
X0037008Y0171380D01*
X0041577Y0166811D01*
X0044307Y0166811D01*
X0044307Y0174110D01*
X0044307Y0173244D02*
X0045307Y0173244D01*
X0045307Y0172245D02*
X0044307Y0172245D01*
X0044307Y0171247D02*
X0045307Y0171247D01*
X0045307Y0170248D02*
X0044307Y0170248D01*
X0044307Y0169250D02*
X0045307Y0169250D01*
X0045307Y0168251D02*
X0044307Y0168251D01*
X0044307Y0167253D02*
X0045307Y0167253D01*
X0041135Y0167253D02*
X0024857Y0167253D01*
X0025856Y0168251D02*
X0040136Y0168251D01*
X0039138Y0169250D02*
X0026854Y0169250D01*
X0027853Y0170248D02*
X0038139Y0170248D01*
X0037141Y0171247D02*
X0028851Y0171247D01*
X0028984Y0172245D02*
X0037008Y0172245D01*
X0037008Y0173244D02*
X0028984Y0173244D01*
X0028984Y0175241D02*
X0037008Y0175241D01*
X0037008Y0175110D02*
X0044307Y0175110D01*
X0044307Y0182409D01*
X0041577Y0182409D01*
X0037008Y0177841D01*
X0037008Y0175110D01*
X0037008Y0176239D02*
X0028984Y0176239D01*
X0028984Y0177238D02*
X0037008Y0177238D01*
X0037404Y0178237D02*
X0028588Y0178237D01*
X0027590Y0179235D02*
X0038402Y0179235D01*
X0039401Y0180234D02*
X0026591Y0180234D01*
X0025593Y0181232D02*
X0040399Y0181232D01*
X0041398Y0182231D02*
X0024594Y0182231D01*
X0021685Y0173244D02*
X0020685Y0173244D01*
X0020685Y0172245D02*
X0021685Y0172245D01*
X0021685Y0171247D02*
X0020685Y0171247D01*
X0020685Y0170248D02*
X0021685Y0170248D01*
X0021685Y0169250D02*
X0020685Y0169250D01*
X0020685Y0168251D02*
X0021685Y0168251D01*
X0021685Y0167253D02*
X0020685Y0167253D01*
X0017513Y0167253D02*
X0003968Y0167253D01*
X0003968Y0168251D02*
X0016514Y0168251D01*
X0015516Y0169250D02*
X0003968Y0169250D01*
X0003968Y0170248D02*
X0014517Y0170248D01*
X0013519Y0171247D02*
X0003968Y0171247D01*
X0003968Y0172245D02*
X0013386Y0172245D01*
X0003968Y0166254D02*
X0062500Y0166254D01*
X0062500Y0165256D02*
X0003968Y0165256D01*
X0003968Y0164257D02*
X0062500Y0164257D01*
X0062500Y0163259D02*
X0003968Y0163259D01*
X0003968Y0162260D02*
X0062500Y0162260D01*
X0062500Y0161262D02*
X0059051Y0161262D01*
X0058806Y0161506D02*
X0057386Y0162094D01*
X0055850Y0162094D01*
X0054430Y0161506D01*
X0053344Y0160420D01*
X0052756Y0159001D01*
X0052756Y0157464D01*
X0053344Y0156045D01*
X0054430Y0154958D01*
X0055850Y0154370D01*
X0057386Y0154370D01*
X0058806Y0154958D01*
X0059892Y0156045D01*
X0060480Y0157464D01*
X0060480Y0159001D01*
X0059892Y0160420D01*
X0058806Y0161506D01*
X0059957Y0160263D02*
X0062500Y0160263D01*
X0062500Y0159265D02*
X0060371Y0159265D01*
X0060480Y0158266D02*
X0062500Y0158266D01*
X0062500Y0157268D02*
X0060399Y0157268D01*
X0059985Y0156269D02*
X0062500Y0156269D01*
X0062500Y0155271D02*
X0059119Y0155271D01*
X0062500Y0154272D02*
X0048557Y0154272D01*
X0048669Y0153274D02*
X0062500Y0153274D01*
X0062500Y0152275D02*
X0048591Y0152275D01*
X0048177Y0151277D02*
X0054201Y0151277D01*
X0054430Y0151506D02*
X0053344Y0150420D01*
X0052756Y0149001D01*
X0052756Y0147464D01*
X0053344Y0146045D01*
X0054430Y0144958D01*
X0055850Y0144370D01*
X0057386Y0144370D01*
X0058806Y0144958D01*
X0059892Y0146045D01*
X0060480Y0147464D01*
X0060480Y0149001D01*
X0059892Y0150420D01*
X0058806Y0151506D01*
X0057386Y0152094D01*
X0055850Y0152094D01*
X0054430Y0151506D01*
X0053285Y0150278D02*
X0047315Y0150278D01*
X0046500Y0148500D02*
X0044500Y0148500D01*
X0040500Y0144500D01*
X0040500Y0140500D01*
X0044500Y0136500D01*
X0044500Y0133500D01*
X0044807Y0133232D01*
X0044500Y0132500D01*
X0044500Y0112500D01*
X0044807Y0111854D01*
X0044500Y0111500D01*
X0021500Y0111500D01*
X0021185Y0111854D01*
X0021685Y0112335D02*
X0044307Y0112335D01*
X0044307Y0112354D02*
X0044307Y0111354D01*
X0045307Y0111354D01*
X0045307Y0104055D01*
X0048038Y0104055D01*
X0052606Y0108624D01*
X0052606Y0111354D01*
X0045307Y0111354D01*
X0045307Y0112354D01*
X0044307Y0112354D01*
X0037008Y0112354D01*
X0037008Y0115085D01*
X0041577Y0119654D01*
X0044307Y0119654D01*
X0044307Y0112354D01*
X0044307Y0113333D02*
X0045307Y0113333D01*
X0045307Y0112335D02*
X0052837Y0112335D01*
X0052606Y0111336D02*
X0053835Y0111336D01*
X0054834Y0110338D02*
X0052606Y0110338D01*
X0052606Y0109339D02*
X0055832Y0109339D01*
X0056831Y0108341D02*
X0052323Y0108341D01*
X0051325Y0107342D02*
X0057829Y0107342D01*
X0058828Y0106344D02*
X0050326Y0106344D01*
X0049328Y0105345D02*
X0059826Y0105345D01*
X0060825Y0104347D02*
X0048329Y0104347D01*
X0045307Y0104347D02*
X0044307Y0104347D01*
X0044307Y0104055D02*
X0044307Y0111354D01*
X0037008Y0111354D01*
X0037008Y0108624D01*
X0041577Y0104055D01*
X0044307Y0104055D01*
X0044307Y0105345D02*
X0045307Y0105345D01*
X0045307Y0106344D02*
X0044307Y0106344D01*
X0044307Y0107342D02*
X0045307Y0107342D01*
X0045307Y0108341D02*
X0044307Y0108341D01*
X0044307Y0109339D02*
X0045307Y0109339D01*
X0045307Y0110338D02*
X0044307Y0110338D01*
X0044307Y0111336D02*
X0045307Y0111336D01*
X0045307Y0114332D02*
X0044307Y0114332D01*
X0044307Y0115330D02*
X0045307Y0115330D01*
X0045307Y0116329D02*
X0044307Y0116329D01*
X0044307Y0117327D02*
X0045307Y0117327D01*
X0045307Y0118326D02*
X0044307Y0118326D01*
X0044307Y0119324D02*
X0045307Y0119324D01*
X0048367Y0119324D02*
X0048500Y0119324D01*
X0048500Y0120323D02*
X0021151Y0120323D01*
X0020685Y0119324D02*
X0021685Y0119324D01*
X0021685Y0118326D02*
X0020685Y0118326D01*
X0020685Y0117327D02*
X0021685Y0117327D01*
X0021685Y0116329D02*
X0020685Y0116329D01*
X0020685Y0115330D02*
X0021685Y0115330D01*
X0021685Y0114332D02*
X0020685Y0114332D01*
X0020685Y0113333D02*
X0021685Y0113333D01*
X0021685Y0111336D02*
X0020685Y0111336D01*
X0020685Y0110338D02*
X0021685Y0110338D01*
X0021685Y0109339D02*
X0020685Y0109339D01*
X0020685Y0108341D02*
X0021685Y0108341D01*
X0021685Y0107342D02*
X0020685Y0107342D01*
X0020685Y0106344D02*
X0021685Y0106344D01*
X0021685Y0105345D02*
X0020685Y0105345D01*
X0020685Y0104347D02*
X0021685Y0104347D01*
X0021480Y0103348D02*
X0061823Y0103348D01*
X0062822Y0102350D02*
X0022479Y0102350D01*
X0023477Y0101351D02*
X0063820Y0101351D01*
X0064819Y0100353D02*
X0024476Y0100353D01*
X0025474Y0099354D02*
X0065817Y0099354D01*
X0066816Y0098356D02*
X0026473Y0098356D01*
X0027471Y0097357D02*
X0067814Y0097357D01*
X0068813Y0096359D02*
X0037470Y0096359D01*
X0038468Y0095360D02*
X0069812Y0095360D01*
X0070810Y0094362D02*
X0057332Y0094362D01*
X0059438Y0093363D02*
X0071809Y0093363D01*
X0072807Y0092365D02*
X0060436Y0092365D01*
X0061435Y0091366D02*
X0073806Y0091366D01*
X0074804Y0090368D02*
X0061997Y0090368D01*
X0062411Y0089369D02*
X0075803Y0089369D01*
X0076801Y0088370D02*
X0062824Y0088370D01*
X0063024Y0087372D02*
X0077800Y0087372D01*
X0078798Y0086373D02*
X0063024Y0086373D01*
X0063024Y0085375D02*
X0079500Y0085375D01*
X0079500Y0084376D02*
X0063013Y0084376D01*
X0062600Y0083378D02*
X0079500Y0083378D01*
X0079500Y0082379D02*
X0062186Y0082379D01*
X0061772Y0081381D02*
X0079500Y0081381D01*
X0079500Y0080382D02*
X0060892Y0080382D01*
X0059894Y0079384D02*
X0079500Y0079384D01*
X0079500Y0078385D02*
X0058432Y0078385D01*
X0056021Y0077387D02*
X0079500Y0077387D01*
X0079500Y0076388D02*
X0054440Y0076388D01*
X0055439Y0075390D02*
X0079500Y0075390D01*
X0079500Y0074391D02*
X0056437Y0074391D01*
X0057436Y0073393D02*
X0079500Y0073393D01*
X0079500Y0072394D02*
X0058434Y0072394D01*
X0059433Y0071396D02*
X0078480Y0071396D01*
X0077899Y0070397D02*
X0060431Y0070397D01*
X0061430Y0069399D02*
X0077600Y0069399D01*
X0077600Y0068400D02*
X0062428Y0068400D01*
X0062500Y0065500D02*
X0063500Y0065500D01*
X0062500Y0065500D02*
X0044500Y0083500D01*
X0044500Y0086500D01*
X0036500Y0094500D01*
X0027500Y0094500D01*
X0012500Y0109500D01*
X0012500Y0114500D01*
X0030500Y0132500D01*
X0033500Y0132500D01*
X0037500Y0136500D01*
X0037500Y0139500D01*
X0034500Y0142500D01*
X0031500Y0142500D01*
X0021500Y0152500D01*
X0021185Y0153232D01*
X0022500Y0157500D02*
X0019500Y0157500D01*
X0008500Y0146500D01*
X0008500Y0095500D01*
X0043500Y0060500D01*
X0060500Y0060500D01*
X0060500Y0056500D01*
X0063500Y0053500D01*
X0063500Y0048500D01*
X0066500Y0045500D01*
X0069500Y0045500D01*
X0073500Y0041500D01*
X0073500Y0038500D01*
X0079500Y0032500D01*
X0113500Y0032500D01*
X0118500Y0037500D01*
X0118500Y0039500D01*
X0119020Y0039807D01*
X0112500Y0035500D02*
X0103500Y0035500D01*
X0099500Y0039500D01*
X0099020Y0039807D01*
X0089500Y0040500D02*
X0089020Y0039807D01*
X0089500Y0040500D02*
X0089500Y0043500D01*
X0094500Y0048500D01*
X0094500Y0052500D01*
X0095500Y0053500D01*
X0098500Y0056500D02*
X0085500Y0056500D01*
X0083500Y0054500D01*
X0073500Y0054500D01*
X0069500Y0050500D01*
X0069020Y0049807D01*
X0063500Y0045500D02*
X0059500Y0049500D01*
X0059020Y0049807D01*
X0054820Y0049429D02*
X0003968Y0049429D01*
X0003968Y0050427D02*
X0054820Y0050427D01*
X0054820Y0051426D02*
X0003968Y0051426D01*
X0003968Y0052424D02*
X0055697Y0052424D01*
X0056695Y0053423D02*
X0003968Y0053423D01*
X0003968Y0054421D02*
X0059750Y0054421D01*
X0058752Y0055420D02*
X0003968Y0055420D01*
X0003968Y0056418D02*
X0058500Y0056418D01*
X0058500Y0057417D02*
X0003968Y0057417D01*
X0003968Y0058415D02*
X0058500Y0058415D01*
X0060500Y0060500D02*
X0070500Y0060500D01*
X0071500Y0059500D01*
X0082500Y0059500D01*
X0087500Y0064500D01*
X0087500Y0070500D01*
X0090500Y0073500D01*
X0094500Y0073500D01*
X0101500Y0066500D01*
X0097500Y0059500D02*
X0091500Y0065500D01*
X0091500Y0066500D01*
X0091500Y0065500D02*
X0083500Y0057500D01*
X0063500Y0057500D01*
X0066181Y0065405D02*
X0077600Y0065405D01*
X0077600Y0066403D02*
X0066028Y0066403D01*
X0065390Y0067402D02*
X0077600Y0067402D01*
X0077600Y0064406D02*
X0074385Y0064406D01*
X0075026Y0063408D02*
X0077600Y0063408D01*
X0077979Y0062409D02*
X0075181Y0062409D01*
X0072500Y0062500D02*
X0044500Y0062500D01*
X0010500Y0096500D01*
X0010500Y0115500D01*
X0032500Y0137500D01*
X0032996Y0138232D01*
X0037538Y0142290D02*
X0041017Y0142290D01*
X0040945Y0143289D02*
X0036540Y0143289D01*
X0035541Y0144287D02*
X0041064Y0144287D01*
X0041477Y0145286D02*
X0035511Y0145286D01*
X0036370Y0146284D02*
X0042397Y0146284D01*
X0044807Y0143232D02*
X0045500Y0142500D01*
X0045500Y0138500D01*
X0050500Y0133500D01*
X0050500Y0117500D01*
X0081500Y0086500D01*
X0081500Y0066500D01*
X0093500Y0075500D02*
X0102500Y0075500D01*
X0111500Y0066500D01*
X0115500Y0063500D02*
X0115500Y0070500D01*
X0105500Y0080500D01*
X0092500Y0080500D01*
X0081500Y0091500D01*
X0081500Y0096500D01*
X0052500Y0125500D01*
X0052500Y0131500D01*
X0056500Y0135500D01*
X0056500Y0137500D01*
X0056618Y0138232D01*
X0052756Y0138296D02*
X0048532Y0138296D01*
X0047534Y0139295D02*
X0052878Y0139295D01*
X0053291Y0140293D02*
X0047500Y0140293D01*
X0048184Y0141292D02*
X0054215Y0141292D01*
X0054103Y0145286D02*
X0048137Y0145286D01*
X0048551Y0144287D02*
X0062500Y0144287D01*
X0062500Y0143289D02*
X0048669Y0143289D01*
X0048597Y0142290D02*
X0062500Y0142290D01*
X0062500Y0141292D02*
X0059021Y0141292D01*
X0059945Y0140293D02*
X0062500Y0140293D01*
X0062500Y0139295D02*
X0060359Y0139295D01*
X0060480Y0138296D02*
X0062500Y0138296D01*
X0062500Y0137298D02*
X0060411Y0137298D01*
X0059998Y0136299D02*
X0062500Y0136299D01*
X0062500Y0135301D02*
X0059148Y0135301D01*
X0058130Y0134302D02*
X0062500Y0134302D01*
X0062500Y0133303D02*
X0057132Y0133303D01*
X0056133Y0132305D02*
X0062500Y0132305D01*
X0070500Y0132305D02*
X0094500Y0132305D01*
X0094500Y0133303D02*
X0070500Y0133303D01*
X0070500Y0134302D02*
X0094500Y0134302D01*
X0094500Y0135301D02*
X0070500Y0135301D01*
X0070500Y0136299D02*
X0094500Y0136299D01*
X0094500Y0137298D02*
X0070500Y0137298D01*
X0070500Y0131306D02*
X0094478Y0131306D01*
X0093480Y0130308D02*
X0070500Y0130308D01*
X0070500Y0129309D02*
X0092481Y0129309D01*
X0091483Y0128311D02*
X0070500Y0128311D01*
X0070449Y0127312D02*
X0090484Y0127312D01*
X0089486Y0126314D02*
X0070035Y0126314D01*
X0069240Y0125315D02*
X0079800Y0125315D01*
X0081200Y0125315D02*
X0081800Y0125315D01*
X0081800Y0124317D02*
X0081200Y0124317D01*
X0081200Y0123318D02*
X0081800Y0123318D01*
X0081800Y0122320D02*
X0081200Y0122320D01*
X0081500Y0121500D02*
X0081500Y0135500D01*
X0085500Y0139500D01*
X0085500Y0147500D01*
X0081500Y0151500D01*
X0081800Y0151277D02*
X0094500Y0151277D01*
X0094500Y0152275D02*
X0085400Y0152275D01*
X0085400Y0151800D02*
X0085400Y0153115D01*
X0083115Y0155400D01*
X0081800Y0155400D01*
X0081800Y0151800D01*
X0081200Y0151800D01*
X0081200Y0155400D01*
X0079885Y0155400D01*
X0077600Y0153115D01*
X0077600Y0151800D01*
X0081200Y0151800D01*
X0081200Y0151200D01*
X0077600Y0151200D01*
X0077600Y0149885D01*
X0079885Y0147600D01*
X0081200Y0147600D01*
X0081200Y0151200D01*
X0081800Y0151200D01*
X0081800Y0151800D01*
X0085400Y0151800D01*
X0085400Y0151200D02*
X0081800Y0151200D01*
X0081800Y0147600D01*
X0083115Y0147600D01*
X0085400Y0149885D01*
X0085400Y0151200D01*
X0085400Y0150278D02*
X0094500Y0150278D01*
X0094500Y0149280D02*
X0084795Y0149280D01*
X0083797Y0148281D02*
X0094500Y0148281D01*
X0094500Y0147283D02*
X0070500Y0147283D01*
X0070500Y0148281D02*
X0079203Y0148281D01*
X0078205Y0149280D02*
X0070500Y0149280D01*
X0070500Y0150278D02*
X0077600Y0150278D01*
X0077600Y0152275D02*
X0070500Y0152275D01*
X0070500Y0151277D02*
X0081200Y0151277D01*
X0081200Y0152275D02*
X0081800Y0152275D01*
X0081800Y0153274D02*
X0081200Y0153274D01*
X0081200Y0154272D02*
X0081800Y0154272D01*
X0081800Y0155271D02*
X0081200Y0155271D01*
X0079755Y0155271D02*
X0070500Y0155271D01*
X0070500Y0156269D02*
X0094500Y0156269D01*
X0094500Y0155271D02*
X0083245Y0155271D01*
X0084243Y0154272D02*
X0094500Y0154272D01*
X0094500Y0153274D02*
X0085242Y0153274D01*
X0081800Y0150278D02*
X0081200Y0150278D01*
X0081200Y0149280D02*
X0081800Y0149280D01*
X0081800Y0148281D02*
X0081200Y0148281D01*
X0083230Y0145286D02*
X0094500Y0145286D01*
X0094500Y0146284D02*
X0070500Y0146284D01*
X0070500Y0153274D02*
X0077758Y0153274D01*
X0078757Y0154272D02*
X0070500Y0154272D01*
X0070500Y0157268D02*
X0094500Y0157268D01*
X0094500Y0158266D02*
X0070500Y0158266D01*
X0070500Y0159265D02*
X0094500Y0159265D01*
X0094500Y0160263D02*
X0070500Y0160263D01*
X0070500Y0161262D02*
X0094500Y0161262D01*
X0094500Y0162260D02*
X0070500Y0162260D01*
X0070500Y0163259D02*
X0094500Y0163259D01*
X0094500Y0164257D02*
X0070500Y0164257D01*
X0070500Y0165256D02*
X0094500Y0165256D01*
X0094500Y0166254D02*
X0070500Y0166254D01*
X0070500Y0167253D02*
X0094500Y0167253D01*
X0094500Y0168251D02*
X0070500Y0168251D01*
X0070500Y0169250D02*
X0094500Y0169250D01*
X0094500Y0170248D02*
X0070500Y0170248D01*
X0070500Y0171247D02*
X0094500Y0171247D01*
X0094500Y0172245D02*
X0070500Y0172245D01*
X0070500Y0173244D02*
X0094500Y0173244D01*
X0094500Y0174242D02*
X0070500Y0174242D01*
X0070500Y0175241D02*
X0094500Y0175241D01*
X0094500Y0176239D02*
X0070500Y0176239D01*
X0070500Y0177238D02*
X0094500Y0177238D01*
X0094500Y0178237D02*
X0070500Y0178237D01*
X0070500Y0179235D02*
X0094500Y0179235D01*
X0094500Y0180234D02*
X0070500Y0180234D01*
X0070500Y0181232D02*
X0094500Y0181232D01*
X0094500Y0182231D02*
X0070500Y0182231D01*
X0070500Y0183229D02*
X0094500Y0183229D01*
X0094500Y0184228D02*
X0070500Y0184228D01*
X0070500Y0185226D02*
X0094500Y0185226D01*
X0094500Y0186225D02*
X0070500Y0186225D01*
X0070500Y0187223D02*
X0094500Y0187223D01*
X0094263Y0188222D02*
X0086137Y0188222D01*
X0087136Y0189220D02*
X0093264Y0189220D01*
X0092600Y0190219D02*
X0087591Y0190219D01*
X0087800Y0191217D02*
X0092600Y0191217D01*
X0092600Y0192216D02*
X0088044Y0192216D01*
X0089043Y0193214D02*
X0092699Y0193214D01*
X0092038Y0196210D02*
X0098418Y0196210D01*
X0100500Y0194500D02*
X0100500Y0218500D01*
X0103500Y0221500D01*
X0103500Y0236500D01*
X0088500Y0251500D01*
X0061500Y0251500D01*
X0066000Y0253500D02*
X0066000Y0255395D01*
X0065315Y0257049D01*
X0064864Y0257500D01*
X0183672Y0257500D01*
X0202739Y0238433D01*
X0201363Y0238433D01*
X0199654Y0237725D01*
X0198350Y0236422D01*
X0197047Y0237725D01*
X0195338Y0238433D01*
X0193489Y0238433D01*
X0191780Y0237725D01*
X0190472Y0236417D01*
X0189764Y0234708D01*
X0189764Y0232859D01*
X0190472Y0231150D01*
X0191780Y0229842D01*
X0193489Y0229134D01*
X0195338Y0229134D01*
X0195833Y0229339D01*
X0196672Y0228500D01*
X0174328Y0228500D01*
X0163500Y0239328D01*
X0162328Y0240500D01*
X0130672Y0240500D01*
X0128547Y0238376D01*
X0128409Y0238433D01*
X0126559Y0238433D01*
X0124850Y0237725D01*
X0123543Y0236417D01*
X0123507Y0236331D01*
X0123157Y0236812D01*
X0122639Y0237330D01*
X0122047Y0237760D01*
X0121395Y0238092D01*
X0120699Y0238319D01*
X0119976Y0238433D01*
X0119799Y0238433D01*
X0119799Y0233973D01*
X0119421Y0233973D01*
X0119421Y0238433D01*
X0119244Y0238433D01*
X0118521Y0238319D01*
X0117825Y0238092D01*
X0117173Y0237760D01*
X0116581Y0237330D01*
X0116064Y0236812D01*
X0115714Y0236331D01*
X0115678Y0236417D01*
X0114370Y0237725D01*
X0112661Y0238433D01*
X0110811Y0238433D01*
X0109102Y0237725D01*
X0107794Y0236417D01*
X0107087Y0234708D01*
X0107087Y0232859D01*
X0107363Y0232191D01*
X0105500Y0230328D01*
X0105500Y0237328D01*
X0104328Y0238500D01*
X0089328Y0253500D01*
X0066000Y0253500D01*
X0066000Y0254123D02*
X0187048Y0254123D01*
X0188047Y0253125D02*
X0089704Y0253125D01*
X0090702Y0252126D02*
X0189045Y0252126D01*
X0190044Y0251128D02*
X0091701Y0251128D01*
X0092699Y0250129D02*
X0191042Y0250129D01*
X0192041Y0249131D02*
X0093698Y0249131D01*
X0094696Y0248132D02*
X0193039Y0248132D01*
X0194038Y0247134D02*
X0095695Y0247134D01*
X0096693Y0246135D02*
X0195036Y0246135D01*
X0196035Y0245137D02*
X0097692Y0245137D01*
X0098690Y0244138D02*
X0197033Y0244138D01*
X0198032Y0243140D02*
X0099689Y0243140D01*
X0100687Y0242141D02*
X0199030Y0242141D01*
X0200029Y0241143D02*
X0101686Y0241143D01*
X0102684Y0240144D02*
X0130316Y0240144D01*
X0129317Y0239146D02*
X0103683Y0239146D01*
X0104681Y0238147D02*
X0110121Y0238147D01*
X0108526Y0237149D02*
X0105500Y0237149D01*
X0105500Y0236150D02*
X0107684Y0236150D01*
X0107270Y0235152D02*
X0105500Y0235152D01*
X0105500Y0234153D02*
X0107087Y0234153D01*
X0107087Y0233155D02*
X0105500Y0233155D01*
X0105500Y0232156D02*
X0107328Y0232156D01*
X0106329Y0231158D02*
X0105500Y0231158D01*
X0106500Y0228500D02*
X0111500Y0233500D01*
X0111736Y0233783D01*
X0114947Y0237149D02*
X0116400Y0237149D01*
X0117994Y0238147D02*
X0113351Y0238147D01*
X0119421Y0238147D02*
X0119799Y0238147D01*
X0119799Y0237149D02*
X0119421Y0237149D01*
X0119421Y0236150D02*
X0119799Y0236150D01*
X0119799Y0235152D02*
X0119421Y0235152D01*
X0119421Y0234153D02*
X0119799Y0234153D01*
X0119610Y0233783D02*
X0120500Y0233500D01*
X0120500Y0225500D01*
X0136500Y0209500D01*
X0136500Y0176500D01*
X0137000Y0177000D02*
X0136000Y0177000D01*
X0136000Y0181787D01*
X0135259Y0181669D01*
X0134466Y0181412D01*
X0133722Y0181033D01*
X0133047Y0180543D01*
X0132457Y0179953D01*
X0131967Y0179278D01*
X0131588Y0178534D01*
X0131503Y0178272D01*
X0130993Y0179502D01*
X0129502Y0180993D01*
X0127554Y0181800D01*
X0125446Y0181800D01*
X0123498Y0180993D01*
X0122007Y0179502D01*
X0121500Y0178278D01*
X0120993Y0179502D01*
X0119502Y0180993D01*
X0117554Y0181800D01*
X0115446Y0181800D01*
X0113498Y0180993D01*
X0112007Y0179502D01*
X0111500Y0178278D01*
X0110993Y0179502D01*
X0109502Y0180993D01*
X0108148Y0181554D01*
X0109446Y0182092D01*
X0110908Y0183554D01*
X0111300Y0184500D01*
X0112672Y0184500D01*
X0113500Y0183672D01*
X0114672Y0182500D01*
X0128328Y0182500D01*
X0131328Y0185500D01*
X0132500Y0186672D01*
X0132500Y0208328D01*
X0130400Y0210428D01*
X0130400Y0214676D01*
X0129806Y0216109D01*
X0128709Y0217206D01*
X0127276Y0217800D01*
X0125724Y0217800D01*
X0124291Y0217206D01*
X0123194Y0216109D01*
X0122600Y0214676D01*
X0122600Y0208324D01*
X0123194Y0206891D01*
X0124291Y0205794D01*
X0125724Y0205200D01*
X0127276Y0205200D01*
X0128500Y0205707D01*
X0128500Y0197293D01*
X0127276Y0197800D01*
X0125724Y0197800D01*
X0125232Y0197596D01*
X0117525Y0205303D01*
X0118709Y0205794D01*
X0119806Y0206891D01*
X0120400Y0208324D01*
X0120400Y0214676D01*
X0119806Y0216109D01*
X0118709Y0217206D01*
X0117276Y0217800D01*
X0115724Y0217800D01*
X0114291Y0217206D01*
X0113194Y0216109D01*
X0112600Y0214676D01*
X0112600Y0210228D01*
X0110091Y0212737D01*
X0110908Y0213554D01*
X0111700Y0215466D01*
X0111700Y0217534D01*
X0110908Y0219446D01*
X0109446Y0220908D01*
X0108500Y0221300D01*
X0108500Y0227672D01*
X0110211Y0229383D01*
X0110811Y0229134D01*
X0112661Y0229134D01*
X0114370Y0229842D01*
X0115678Y0231150D01*
X0115714Y0231236D01*
X0116064Y0230754D01*
X0116581Y0230237D01*
X0117173Y0229807D01*
X0117825Y0229475D01*
X0118521Y0229248D01*
X0119244Y0229134D01*
X0119421Y0229134D01*
X0119421Y0233594D01*
X0119799Y0233594D01*
X0119799Y0229134D01*
X0119976Y0229134D01*
X0120699Y0229248D01*
X0121395Y0229475D01*
X0122047Y0229807D01*
X0122639Y0230237D01*
X0123157Y0230754D01*
X0123507Y0231236D01*
X0123543Y0231150D01*
X0124850Y0229842D01*
X0126559Y0229134D01*
X0128409Y0229134D01*
X0130118Y0229842D01*
X0131421Y0231145D01*
X0132724Y0229842D01*
X0134433Y0229134D01*
X0136283Y0229134D01*
X0137992Y0229842D01*
X0139300Y0231150D01*
X0140008Y0232859D01*
X0140008Y0234708D01*
X0139300Y0236417D01*
X0139217Y0236500D01*
X0143500Y0236500D01*
X0143500Y0231672D01*
X0144500Y0230672D01*
X0144500Y0181408D01*
X0143498Y0180993D01*
X0142007Y0179502D01*
X0141497Y0178272D01*
X0141412Y0178534D01*
X0141033Y0179278D01*
X0140543Y0179953D01*
X0139953Y0180543D01*
X0139278Y0181033D01*
X0138534Y0181412D01*
X0137741Y0181669D01*
X0137000Y0181787D01*
X0137000Y0177000D01*
X0137000Y0177238D02*
X0136000Y0177238D01*
X0136000Y0178237D02*
X0137000Y0178237D01*
X0137000Y0179235D02*
X0136000Y0179235D01*
X0136000Y0180234D02*
X0137000Y0180234D01*
X0137000Y0181232D02*
X0136000Y0181232D01*
X0134113Y0181232D02*
X0128925Y0181232D01*
X0130262Y0180234D02*
X0132738Y0180234D01*
X0131945Y0179235D02*
X0131104Y0179235D01*
X0129057Y0183229D02*
X0144500Y0183229D01*
X0144500Y0182231D02*
X0109584Y0182231D01*
X0108925Y0181232D02*
X0114075Y0181232D01*
X0112738Y0180234D02*
X0110262Y0180234D01*
X0111104Y0179235D02*
X0111896Y0179235D01*
X0110583Y0183229D02*
X0113943Y0183229D01*
X0112944Y0184228D02*
X0111187Y0184228D01*
X0113500Y0186500D02*
X0106500Y0186500D01*
X0113500Y0186500D02*
X0115500Y0184500D01*
X0127500Y0184500D01*
X0130500Y0187500D01*
X0130500Y0207500D01*
X0126500Y0211500D01*
X0130400Y0211187D02*
X0144500Y0211187D01*
X0144500Y0210189D02*
X0130640Y0210189D01*
X0131638Y0209190D02*
X0144500Y0209190D01*
X0144500Y0208192D02*
X0132500Y0208192D01*
X0132500Y0207193D02*
X0144500Y0207193D01*
X0144500Y0206195D02*
X0132500Y0206195D01*
X0132500Y0205196D02*
X0144500Y0205196D01*
X0144500Y0204198D02*
X0132500Y0204198D01*
X0132500Y0203199D02*
X0144500Y0203199D01*
X0144500Y0202201D02*
X0132500Y0202201D01*
X0132500Y0201202D02*
X0144500Y0201202D01*
X0144500Y0200204D02*
X0132500Y0200204D01*
X0132500Y0199205D02*
X0144500Y0199205D01*
X0144500Y0198207D02*
X0132500Y0198207D01*
X0132500Y0197208D02*
X0144500Y0197208D01*
X0144500Y0196210D02*
X0132500Y0196210D01*
X0132500Y0195211D02*
X0144500Y0195211D01*
X0144500Y0194213D02*
X0132500Y0194213D01*
X0132500Y0193214D02*
X0144500Y0193214D01*
X0144500Y0192216D02*
X0132500Y0192216D01*
X0132500Y0191217D02*
X0144500Y0191217D01*
X0144500Y0190219D02*
X0132500Y0190219D01*
X0132500Y0189220D02*
X0144500Y0189220D01*
X0144500Y0188222D02*
X0132500Y0188222D01*
X0132500Y0187223D02*
X0144500Y0187223D01*
X0144500Y0186225D02*
X0132053Y0186225D01*
X0131055Y0185226D02*
X0144500Y0185226D01*
X0144500Y0184228D02*
X0130056Y0184228D01*
X0124075Y0181232D02*
X0118925Y0181232D01*
X0120262Y0180234D02*
X0122738Y0180234D01*
X0121896Y0179235D02*
X0121104Y0179235D01*
X0121302Y0174242D02*
X0121698Y0174242D01*
X0122261Y0173244D02*
X0120739Y0173244D01*
X0119741Y0172245D02*
X0123259Y0172245D01*
X0125332Y0171247D02*
X0117668Y0171247D01*
X0115332Y0171247D02*
X0107668Y0171247D01*
X0109741Y0172245D02*
X0113259Y0172245D01*
X0112261Y0173244D02*
X0110739Y0173244D01*
X0111302Y0174242D02*
X0111698Y0174242D01*
X0106500Y0176500D02*
X0100500Y0170500D01*
X0100500Y0114500D01*
X0111500Y0103500D01*
X0111500Y0096500D01*
X0115400Y0096359D02*
X0117600Y0096359D01*
X0117600Y0097357D02*
X0115400Y0097357D01*
X0115400Y0098356D02*
X0117600Y0098356D01*
X0117600Y0099354D02*
X0115400Y0099354D01*
X0115120Y0100353D02*
X0117880Y0100353D01*
X0117600Y0099676D02*
X0118194Y0101109D01*
X0119291Y0102206D01*
X0120724Y0102800D01*
X0122276Y0102800D01*
X0123709Y0102206D01*
X0124806Y0101109D01*
X0125400Y0099676D01*
X0125400Y0093324D01*
X0124806Y0091891D01*
X0123709Y0090794D01*
X0122276Y0090200D01*
X0120724Y0090200D01*
X0119291Y0090794D01*
X0118194Y0091891D01*
X0117600Y0093324D01*
X0117600Y0099676D01*
X0118436Y0101351D02*
X0114564Y0101351D01*
X0113500Y0102350D02*
X0119637Y0102350D01*
X0123363Y0102350D02*
X0129637Y0102350D01*
X0128436Y0101351D02*
X0124564Y0101351D01*
X0125120Y0100353D02*
X0127880Y0100353D01*
X0127500Y0100500D02*
X0137500Y0110500D01*
X0150500Y0110500D01*
X0145500Y0108500D02*
X0178500Y0108500D01*
X0186500Y0116500D01*
X0191339Y0114332D02*
X0191661Y0114332D01*
X0192171Y0113333D02*
X0190829Y0113333D01*
X0189830Y0112335D02*
X0193170Y0112335D01*
X0195117Y0111336D02*
X0187883Y0111336D01*
X0185117Y0111336D02*
X0184165Y0111336D01*
X0183166Y0110338D02*
X0194509Y0110338D01*
X0193511Y0109339D02*
X0182168Y0109339D01*
X0181169Y0108341D02*
X0192512Y0108341D01*
X0191514Y0107342D02*
X0180171Y0107342D01*
X0178508Y0111336D02*
X0177883Y0111336D01*
X0179637Y0102350D02*
X0173363Y0102350D01*
X0174564Y0101351D02*
X0178436Y0101351D01*
X0177880Y0100353D02*
X0175120Y0100353D01*
X0175400Y0099354D02*
X0177600Y0099354D01*
X0177600Y0098356D02*
X0175400Y0098356D01*
X0175400Y0097357D02*
X0177600Y0097357D01*
X0177600Y0096359D02*
X0175400Y0096359D01*
X0175400Y0095360D02*
X0177600Y0095360D01*
X0177600Y0094362D02*
X0175400Y0094362D01*
X0175400Y0093363D02*
X0177600Y0093363D01*
X0177998Y0092365D02*
X0175002Y0092365D01*
X0174281Y0091366D02*
X0178719Y0091366D01*
X0180320Y0090368D02*
X0172680Y0090368D01*
X0170320Y0090368D02*
X0162680Y0090368D01*
X0164281Y0091366D02*
X0168719Y0091366D01*
X0167998Y0092365D02*
X0165002Y0092365D01*
X0165400Y0093363D02*
X0167600Y0093363D01*
X0167600Y0094362D02*
X0165400Y0094362D01*
X0165400Y0095360D02*
X0167600Y0095360D01*
X0181500Y0096500D02*
X0183500Y0096500D01*
X0197500Y0110500D01*
X0200500Y0110500D01*
X0206500Y0116500D01*
X0211339Y0114332D02*
X0211661Y0114332D01*
X0212171Y0113333D02*
X0210829Y0113333D01*
X0209830Y0112335D02*
X0213170Y0112335D01*
X0215117Y0111336D02*
X0207883Y0111336D01*
X0205117Y0111336D02*
X0204165Y0111336D01*
X0203166Y0110338D02*
X0224500Y0110338D01*
X0224500Y0111336D02*
X0217883Y0111336D01*
X0219830Y0112335D02*
X0223170Y0112335D01*
X0222171Y0113333D02*
X0220829Y0113333D01*
X0221339Y0114332D02*
X0221661Y0114332D01*
X0224500Y0109339D02*
X0202168Y0109339D01*
X0198169Y0108341D02*
X0224500Y0108341D01*
X0224500Y0107342D02*
X0197171Y0107342D01*
X0196172Y0106344D02*
X0224500Y0106344D01*
X0224500Y0105345D02*
X0195174Y0105345D01*
X0194175Y0104347D02*
X0224500Y0104347D01*
X0224500Y0103348D02*
X0193177Y0103348D01*
X0193363Y0102350D02*
X0199637Y0102350D01*
X0199291Y0102206D02*
X0198194Y0101109D01*
X0197600Y0099676D01*
X0197600Y0093324D01*
X0198194Y0091891D01*
X0199291Y0090794D01*
X0200724Y0090200D01*
X0202276Y0090200D01*
X0203709Y0090794D01*
X0204806Y0091891D01*
X0205400Y0093324D01*
X0205400Y0099676D01*
X0204806Y0101109D01*
X0203709Y0102206D01*
X0202276Y0102800D01*
X0200724Y0102800D01*
X0199291Y0102206D01*
X0198436Y0101351D02*
X0194564Y0101351D01*
X0195120Y0100353D02*
X0197880Y0100353D01*
X0197600Y0099354D02*
X0195400Y0099354D01*
X0195400Y0098356D02*
X0197600Y0098356D01*
X0197600Y0097357D02*
X0195400Y0097357D01*
X0195400Y0096359D02*
X0197600Y0096359D01*
X0197600Y0095360D02*
X0195400Y0095360D01*
X0195400Y0094362D02*
X0197600Y0094362D01*
X0197600Y0093363D02*
X0195400Y0093363D01*
X0195002Y0092365D02*
X0197998Y0092365D01*
X0198719Y0091366D02*
X0194281Y0091366D01*
X0192680Y0090368D02*
X0200320Y0090368D01*
X0202680Y0090368D02*
X0210320Y0090368D01*
X0208719Y0091366D02*
X0204281Y0091366D01*
X0205002Y0092365D02*
X0207998Y0092365D01*
X0207600Y0093363D02*
X0205400Y0093363D01*
X0205400Y0094362D02*
X0207600Y0094362D01*
X0207600Y0095360D02*
X0205400Y0095360D01*
X0205400Y0096359D02*
X0207600Y0096359D01*
X0207600Y0097357D02*
X0205400Y0097357D01*
X0205400Y0098356D02*
X0207600Y0098356D01*
X0207600Y0099354D02*
X0205400Y0099354D01*
X0205120Y0100353D02*
X0207880Y0100353D01*
X0208436Y0101351D02*
X0204564Y0101351D01*
X0203363Y0102350D02*
X0209637Y0102350D01*
X0213363Y0102350D02*
X0224500Y0102350D01*
X0224500Y0101351D02*
X0214564Y0101351D01*
X0215120Y0100353D02*
X0224500Y0100353D01*
X0224500Y0099354D02*
X0215400Y0099354D01*
X0212542Y0088370D02*
X0146199Y0088370D01*
X0141800Y0090368D02*
X0141200Y0090368D01*
X0141200Y0090200D02*
X0141200Y0096200D01*
X0137600Y0096200D01*
X0137600Y0093716D01*
X0137750Y0092962D01*
X0138044Y0092253D01*
X0138471Y0091614D01*
X0139014Y0091071D01*
X0139653Y0090644D01*
X0140362Y0090350D01*
X0141116Y0090200D01*
X0141200Y0090200D01*
X0140320Y0090368D02*
X0132680Y0090368D01*
X0132500Y0089500D02*
X0130500Y0089500D01*
X0127500Y0092500D01*
X0127500Y0100500D01*
X0127600Y0099354D02*
X0125400Y0099354D01*
X0125400Y0098356D02*
X0127600Y0098356D01*
X0127600Y0097357D02*
X0125400Y0097357D01*
X0125400Y0096359D02*
X0127600Y0096359D01*
X0127600Y0095360D02*
X0125400Y0095360D01*
X0125400Y0094362D02*
X0127600Y0094362D01*
X0127600Y0093363D02*
X0125400Y0093363D01*
X0125002Y0092365D02*
X0127998Y0092365D01*
X0128719Y0091366D02*
X0124281Y0091366D01*
X0122680Y0090368D02*
X0130320Y0090368D01*
X0132500Y0089500D02*
X0139500Y0096500D01*
X0141500Y0096500D01*
X0141800Y0096359D02*
X0147600Y0096359D01*
X0147600Y0097357D02*
X0145400Y0097357D01*
X0145400Y0098356D02*
X0147600Y0098356D01*
X0147600Y0099354D02*
X0145386Y0099354D01*
X0145120Y0100353D02*
X0147880Y0100353D01*
X0148436Y0101351D02*
X0144553Y0101351D01*
X0143357Y0102350D02*
X0149637Y0102350D01*
X0147532Y0095360D02*
X0145400Y0095360D01*
X0145400Y0094362D02*
X0146533Y0094362D01*
X0145535Y0093363D02*
X0145330Y0093363D01*
X0141800Y0093363D02*
X0141200Y0093363D01*
X0141200Y0092365D02*
X0141800Y0092365D01*
X0141800Y0091366D02*
X0141200Y0091366D01*
X0138719Y0091366D02*
X0134281Y0091366D01*
X0135002Y0092365D02*
X0137998Y0092365D01*
X0137670Y0093363D02*
X0135400Y0093363D01*
X0135400Y0094362D02*
X0137600Y0094362D01*
X0137600Y0095360D02*
X0135400Y0095360D01*
X0136187Y0096359D02*
X0141200Y0096359D01*
X0141200Y0095360D02*
X0141800Y0095360D01*
X0141800Y0094362D02*
X0141200Y0094362D01*
X0137600Y0097357D02*
X0137185Y0097357D01*
X0133500Y0096500D02*
X0145500Y0108500D01*
X0144509Y0110338D02*
X0107491Y0110338D01*
X0107883Y0111336D02*
X0115117Y0111336D01*
X0113170Y0112335D02*
X0109830Y0112335D01*
X0110829Y0113333D02*
X0112171Y0113333D01*
X0111661Y0114332D02*
X0111339Y0114332D01*
X0108489Y0109339D02*
X0143511Y0109339D01*
X0142512Y0108341D02*
X0109488Y0108341D01*
X0110486Y0107342D02*
X0141514Y0107342D01*
X0140515Y0106344D02*
X0111485Y0106344D01*
X0112483Y0105345D02*
X0139517Y0105345D01*
X0138518Y0104347D02*
X0113482Y0104347D01*
X0113500Y0103348D02*
X0137520Y0103348D01*
X0136521Y0102350D02*
X0133363Y0102350D01*
X0134564Y0101351D02*
X0135523Y0101351D01*
X0133500Y0096500D02*
X0131500Y0096500D01*
X0120320Y0090368D02*
X0112680Y0090368D01*
X0114281Y0091366D02*
X0118719Y0091366D01*
X0117998Y0092365D02*
X0115002Y0092365D01*
X0115400Y0093363D02*
X0117600Y0093363D01*
X0117600Y0094362D02*
X0115400Y0094362D01*
X0115400Y0095360D02*
X0117600Y0095360D01*
X0117883Y0111336D02*
X0125117Y0111336D01*
X0123170Y0112335D02*
X0119830Y0112335D01*
X0120829Y0113333D02*
X0122171Y0113333D01*
X0121661Y0114332D02*
X0121339Y0114332D01*
X0121480Y0118326D02*
X0121520Y0118326D01*
X0121933Y0119324D02*
X0121067Y0119324D01*
X0120172Y0120323D02*
X0122828Y0120323D01*
X0124290Y0121321D02*
X0118710Y0121321D01*
X0114290Y0121321D02*
X0108710Y0121321D01*
X0110172Y0120323D02*
X0112828Y0120323D01*
X0111933Y0119324D02*
X0111067Y0119324D01*
X0111480Y0118326D02*
X0111520Y0118326D01*
X0104290Y0121321D02*
X0102500Y0121321D01*
X0102500Y0120323D02*
X0102828Y0120323D01*
X0098500Y0128500D02*
X0098500Y0187500D01*
X0115500Y0204500D01*
X0126500Y0193500D01*
X0126500Y0191500D01*
X0124622Y0198207D02*
X0128500Y0198207D01*
X0128500Y0199205D02*
X0123623Y0199205D01*
X0122625Y0200204D02*
X0128500Y0200204D01*
X0128500Y0201202D02*
X0121626Y0201202D01*
X0120628Y0202201D02*
X0128500Y0202201D01*
X0128500Y0203199D02*
X0119629Y0203199D01*
X0118631Y0204198D02*
X0128500Y0204198D01*
X0128500Y0205196D02*
X0117632Y0205196D01*
X0119110Y0206195D02*
X0123890Y0206195D01*
X0123068Y0207193D02*
X0119932Y0207193D01*
X0120345Y0208192D02*
X0122655Y0208192D01*
X0122600Y0209190D02*
X0120400Y0209190D01*
X0120400Y0210189D02*
X0122600Y0210189D01*
X0122600Y0211187D02*
X0120400Y0211187D01*
X0120400Y0212186D02*
X0122600Y0212186D01*
X0122600Y0213184D02*
X0120400Y0213184D01*
X0120400Y0214183D02*
X0122600Y0214183D01*
X0122809Y0215181D02*
X0120191Y0215181D01*
X0119735Y0216180D02*
X0123265Y0216180D01*
X0124263Y0217178D02*
X0118737Y0217178D01*
X0114263Y0217178D02*
X0111700Y0217178D01*
X0111700Y0216180D02*
X0113265Y0216180D01*
X0112809Y0215181D02*
X0111582Y0215181D01*
X0111169Y0214183D02*
X0112600Y0214183D01*
X0112600Y0213184D02*
X0110538Y0213184D01*
X0110643Y0212186D02*
X0112600Y0212186D01*
X0112600Y0211187D02*
X0111641Y0211187D01*
X0106500Y0213500D02*
X0106500Y0216500D01*
X0106500Y0228500D01*
X0108500Y0227164D02*
X0144500Y0227164D01*
X0144500Y0228162D02*
X0108990Y0228162D01*
X0109989Y0229161D02*
X0110747Y0229161D01*
X0112726Y0229161D02*
X0119076Y0229161D01*
X0119421Y0229161D02*
X0119799Y0229161D01*
X0120145Y0229161D02*
X0126495Y0229161D01*
X0128474Y0229161D02*
X0134369Y0229161D01*
X0136348Y0229161D02*
X0144500Y0229161D01*
X0144500Y0230159D02*
X0138309Y0230159D01*
X0139303Y0231158D02*
X0144014Y0231158D01*
X0143500Y0232156D02*
X0139717Y0232156D01*
X0140008Y0233155D02*
X0143500Y0233155D01*
X0143500Y0234153D02*
X0140008Y0234153D01*
X0139824Y0235152D02*
X0143500Y0235152D01*
X0143500Y0236150D02*
X0139411Y0236150D01*
X0145500Y0238500D02*
X0145500Y0232500D01*
X0146500Y0231500D01*
X0146500Y0176500D01*
X0151302Y0174242D02*
X0151698Y0174242D01*
X0152261Y0173244D02*
X0150739Y0173244D01*
X0149741Y0172245D02*
X0153259Y0172245D01*
X0155332Y0171247D02*
X0147668Y0171247D01*
X0145332Y0171247D02*
X0137213Y0171247D01*
X0137000Y0171247D02*
X0136000Y0171247D01*
X0135787Y0171247D02*
X0127668Y0171247D01*
X0129741Y0172245D02*
X0133339Y0172245D01*
X0132314Y0173244D02*
X0130739Y0173244D01*
X0131302Y0174242D02*
X0131702Y0174242D01*
X0133580Y0170248D02*
X0159420Y0170248D01*
X0158421Y0169250D02*
X0134579Y0169250D01*
X0132500Y0168500D02*
X0137500Y0163500D01*
X0132500Y0168500D02*
X0106500Y0168500D01*
X0104457Y0170248D02*
X0103077Y0170248D01*
X0102500Y0169250D02*
X0103909Y0169250D01*
X0103819Y0168251D02*
X0102500Y0168251D01*
X0102500Y0167253D02*
X0104115Y0167253D01*
X0104954Y0166254D02*
X0102500Y0166254D01*
X0102500Y0165256D02*
X0107840Y0165256D01*
X0108046Y0166254D02*
X0108339Y0166254D01*
X0107600Y0164257D02*
X0102500Y0164257D01*
X0103500Y0161500D02*
X0110500Y0154500D01*
X0136500Y0154500D01*
X0159500Y0131500D01*
X0161500Y0131500D01*
X0158500Y0124500D02*
X0153500Y0124500D01*
X0150446Y0125315D02*
X0142554Y0125315D01*
X0144229Y0126314D02*
X0148771Y0126314D01*
X0148019Y0127312D02*
X0144981Y0127312D01*
X0145394Y0128311D02*
X0147605Y0128311D01*
X0147600Y0129309D02*
X0145400Y0129309D01*
X0145400Y0130308D02*
X0147600Y0130308D01*
X0146865Y0131306D02*
X0145400Y0131306D01*
X0145400Y0132305D02*
X0145867Y0132305D01*
X0149500Y0131500D02*
X0128500Y0152500D01*
X0108500Y0152500D01*
X0106500Y0154500D01*
X0104478Y0156269D02*
X0102500Y0156269D01*
X0102500Y0155271D02*
X0103917Y0155271D01*
X0103819Y0154272D02*
X0102500Y0154272D01*
X0102500Y0153274D02*
X0104106Y0153274D01*
X0104933Y0152275D02*
X0102500Y0152275D01*
X0102500Y0151277D02*
X0106895Y0151277D01*
X0102500Y0150278D02*
X0127893Y0150278D01*
X0128892Y0149280D02*
X0102500Y0149280D01*
X0102500Y0148281D02*
X0129890Y0148281D01*
X0130889Y0147283D02*
X0102500Y0147283D01*
X0102500Y0146284D02*
X0131887Y0146284D01*
X0132886Y0145286D02*
X0102500Y0145286D01*
X0102500Y0144287D02*
X0133884Y0144287D01*
X0134883Y0143289D02*
X0102500Y0143289D01*
X0102500Y0142290D02*
X0135881Y0142290D01*
X0136880Y0141292D02*
X0102500Y0141292D01*
X0102500Y0140293D02*
X0137878Y0140293D01*
X0138877Y0139295D02*
X0102500Y0139295D01*
X0094500Y0139295D02*
X0084916Y0139295D01*
X0085400Y0140293D02*
X0094500Y0140293D01*
X0094500Y0141292D02*
X0085500Y0141292D01*
X0085500Y0142290D02*
X0094500Y0142290D01*
X0094500Y0143289D02*
X0085227Y0143289D01*
X0084370Y0144287D02*
X0094500Y0144287D01*
X0094500Y0138296D02*
X0083953Y0138296D01*
X0083200Y0125315D02*
X0088487Y0125315D01*
X0087488Y0124317D02*
X0084199Y0124317D01*
X0085197Y0123318D02*
X0086490Y0123318D01*
X0085491Y0122320D02*
X0085400Y0122320D01*
X0081200Y0121321D02*
X0059507Y0121321D01*
X0060506Y0120323D02*
X0077600Y0120323D01*
X0078160Y0119324D02*
X0061504Y0119324D01*
X0062503Y0118326D02*
X0079159Y0118326D01*
X0078499Y0117327D02*
X0063501Y0117327D01*
X0064500Y0116329D02*
X0077500Y0116329D01*
X0076502Y0115330D02*
X0065498Y0115330D01*
X0066497Y0114332D02*
X0075503Y0114332D01*
X0075500Y0113333D02*
X0067495Y0113333D01*
X0068494Y0112335D02*
X0075500Y0112335D01*
X0075500Y0111336D02*
X0069492Y0111336D01*
X0070491Y0110338D02*
X0075500Y0110338D01*
X0075500Y0109339D02*
X0071489Y0109339D01*
X0072488Y0108341D02*
X0075500Y0108341D01*
X0075829Y0107342D02*
X0073486Y0107342D01*
X0074485Y0106344D02*
X0076828Y0106344D01*
X0077826Y0105345D02*
X0075483Y0105345D01*
X0076482Y0104347D02*
X0078825Y0104347D01*
X0079823Y0103348D02*
X0077480Y0103348D01*
X0078479Y0102350D02*
X0079637Y0102350D01*
X0086479Y0102350D02*
X0089637Y0102350D01*
X0088436Y0101351D02*
X0087477Y0101351D01*
X0093363Y0102350D02*
X0099637Y0102350D01*
X0098436Y0101351D02*
X0094564Y0101351D01*
X0095120Y0100353D02*
X0097880Y0100353D01*
X0097600Y0099354D02*
X0095400Y0099354D01*
X0095400Y0098356D02*
X0097600Y0098356D01*
X0097600Y0097357D02*
X0095471Y0097357D01*
X0096470Y0096359D02*
X0097600Y0096359D01*
X0097600Y0095360D02*
X0097468Y0095360D01*
X0093500Y0096500D02*
X0102500Y0087500D01*
X0093500Y0083500D02*
X0152500Y0083500D01*
X0169500Y0066500D01*
X0171500Y0066500D01*
X0172500Y0059500D02*
X0150500Y0059500D01*
X0138500Y0047500D01*
X0139500Y0044500D02*
X0107500Y0044500D01*
X0103500Y0048500D01*
X0103500Y0051500D01*
X0098500Y0056500D01*
X0097500Y0059500D02*
X0105500Y0059500D01*
X0114500Y0050500D01*
X0118500Y0050500D01*
X0119020Y0049807D01*
X0128500Y0050500D02*
X0129020Y0049807D01*
X0128500Y0050500D02*
X0115500Y0063500D01*
X0116500Y0073500D02*
X0124500Y0073500D01*
X0131500Y0066500D01*
X0126500Y0076500D02*
X0151500Y0076500D01*
X0161500Y0066500D01*
X0152500Y0057500D02*
X0139500Y0044500D01*
X0142269Y0041440D02*
X0188731Y0041440D01*
X0189730Y0040442D02*
X0141270Y0040442D01*
X0140272Y0039443D02*
X0188639Y0039443D01*
X0188692Y0039470D02*
X0188039Y0039138D01*
X0187447Y0038708D01*
X0186930Y0038190D01*
X0186500Y0037598D01*
X0186167Y0036946D01*
X0185941Y0036250D01*
X0185827Y0035527D01*
X0185827Y0035350D01*
X0190287Y0035350D01*
X0190287Y0034972D01*
X0190665Y0034972D01*
X0190665Y0030512D01*
X0190842Y0030512D01*
X0191565Y0030626D01*
X0192261Y0030852D01*
X0192913Y0031185D01*
X0193505Y0031615D01*
X0194023Y0032132D01*
X0194373Y0032614D01*
X0194409Y0032528D01*
X0195717Y0031220D01*
X0197426Y0030512D01*
X0199275Y0030512D01*
X0200984Y0031220D01*
X0202287Y0032523D01*
X0203591Y0031220D01*
X0205300Y0030512D01*
X0205683Y0030512D01*
X0205672Y0030500D01*
X0131328Y0030500D01*
X0154328Y0053500D01*
X0177985Y0053500D01*
X0177600Y0053115D01*
X0177600Y0049885D01*
X0179885Y0047600D01*
X0182572Y0047600D01*
X0186500Y0043672D01*
X0187672Y0042500D01*
X0190665Y0039506D01*
X0190665Y0035350D01*
X0190287Y0035350D01*
X0190287Y0039811D01*
X0190110Y0039811D01*
X0189388Y0039697D01*
X0188692Y0039470D01*
X0190287Y0039443D02*
X0190665Y0039443D01*
X0190665Y0038445D02*
X0190287Y0038445D01*
X0190287Y0037446D02*
X0190665Y0037446D01*
X0190665Y0036448D02*
X0190287Y0036448D01*
X0190287Y0035449D02*
X0190665Y0035449D01*
X0190287Y0034972D02*
X0185827Y0034972D01*
X0185827Y0034795D01*
X0185941Y0034073D01*
X0186167Y0033377D01*
X0186500Y0032724D01*
X0186930Y0032132D01*
X0187447Y0031615D01*
X0188039Y0031185D01*
X0188692Y0030852D01*
X0189388Y0030626D01*
X0190110Y0030512D01*
X0190287Y0030512D01*
X0190287Y0034972D01*
X0190287Y0034451D02*
X0190665Y0034451D01*
X0190665Y0033452D02*
X0190287Y0033452D01*
X0190287Y0032454D02*
X0190665Y0032454D01*
X0190665Y0031455D02*
X0190287Y0031455D01*
X0187667Y0031455D02*
X0132284Y0031455D01*
X0133282Y0032454D02*
X0186696Y0032454D01*
X0186143Y0033452D02*
X0134281Y0033452D01*
X0135279Y0034451D02*
X0185881Y0034451D01*
X0185827Y0035449D02*
X0136278Y0035449D01*
X0137276Y0036448D02*
X0186006Y0036448D01*
X0186422Y0037446D02*
X0138275Y0037446D01*
X0139273Y0038445D02*
X0187184Y0038445D01*
X0187733Y0042439D02*
X0143267Y0042439D01*
X0144266Y0043437D02*
X0186734Y0043437D01*
X0185736Y0044436D02*
X0145264Y0044436D01*
X0146263Y0045434D02*
X0184737Y0045434D01*
X0183739Y0046433D02*
X0147261Y0046433D01*
X0148260Y0047432D02*
X0182740Y0047432D01*
X0179055Y0048430D02*
X0149258Y0048430D01*
X0150257Y0049429D02*
X0178056Y0049429D01*
X0177600Y0050427D02*
X0151255Y0050427D01*
X0152254Y0051426D02*
X0177600Y0051426D01*
X0177600Y0052424D02*
X0153252Y0052424D01*
X0154251Y0053423D02*
X0177907Y0053423D01*
X0181500Y0051500D02*
X0188500Y0044500D01*
X0205500Y0061500D01*
X0205500Y0068500D01*
X0226500Y0089500D01*
X0226500Y0116500D01*
X0231339Y0114332D02*
X0231661Y0114332D01*
X0232171Y0113333D02*
X0230829Y0113333D01*
X0229830Y0112335D02*
X0233170Y0112335D01*
X0235117Y0111336D02*
X0228500Y0111336D01*
X0228500Y0110338D02*
X0282496Y0110338D01*
X0282496Y0111336D02*
X0267883Y0111336D01*
X0269830Y0112335D02*
X0282496Y0112335D01*
X0282496Y0113333D02*
X0270829Y0113333D01*
X0271339Y0114332D02*
X0282496Y0114332D01*
X0282496Y0115330D02*
X0271752Y0115330D01*
X0271800Y0116329D02*
X0282496Y0116329D01*
X0282496Y0117327D02*
X0271800Y0117327D01*
X0271480Y0118326D02*
X0282496Y0118326D01*
X0282496Y0119324D02*
X0271067Y0119324D01*
X0270172Y0120323D02*
X0282496Y0120323D01*
X0282496Y0121321D02*
X0268710Y0121321D01*
X0264290Y0121321D02*
X0258710Y0121321D01*
X0260172Y0120323D02*
X0262828Y0120323D01*
X0261933Y0119324D02*
X0261067Y0119324D01*
X0261480Y0118326D02*
X0261520Y0118326D01*
X0253509Y0122320D02*
X0282496Y0122320D01*
X0282496Y0123318D02*
X0252510Y0123318D01*
X0251512Y0124317D02*
X0282496Y0124317D01*
X0282496Y0125315D02*
X0250513Y0125315D01*
X0249514Y0126314D02*
X0282496Y0126314D01*
X0282496Y0127312D02*
X0248516Y0127312D01*
X0247517Y0128311D02*
X0282496Y0128311D01*
X0282496Y0129309D02*
X0246519Y0129309D01*
X0245520Y0130308D02*
X0282496Y0130308D01*
X0282496Y0131306D02*
X0244522Y0131306D01*
X0243523Y0132305D02*
X0282496Y0132305D01*
X0282496Y0133303D02*
X0242525Y0133303D01*
X0241526Y0134302D02*
X0282496Y0134302D01*
X0282496Y0135301D02*
X0240528Y0135301D01*
X0239529Y0136299D02*
X0282496Y0136299D01*
X0282496Y0137298D02*
X0238531Y0137298D01*
X0237532Y0138296D02*
X0282496Y0138296D01*
X0282496Y0139295D02*
X0236534Y0139295D01*
X0235535Y0140293D02*
X0282496Y0140293D01*
X0282496Y0141292D02*
X0234537Y0141292D01*
X0233538Y0142290D02*
X0282496Y0142290D01*
X0282496Y0143289D02*
X0232540Y0143289D01*
X0231541Y0144287D02*
X0282496Y0144287D01*
X0282496Y0145286D02*
X0230543Y0145286D01*
X0229544Y0146284D02*
X0282496Y0146284D01*
X0282496Y0147283D02*
X0228546Y0147283D01*
X0227547Y0148281D02*
X0282496Y0148281D01*
X0282496Y0149280D02*
X0226549Y0149280D01*
X0225550Y0150278D02*
X0282496Y0150278D01*
X0282496Y0151277D02*
X0224552Y0151277D01*
X0223553Y0152275D02*
X0282496Y0152275D01*
X0282496Y0153274D02*
X0222555Y0153274D01*
X0221556Y0154272D02*
X0282496Y0154272D01*
X0282496Y0155271D02*
X0220558Y0155271D01*
X0219559Y0156269D02*
X0282496Y0156269D01*
X0282496Y0157268D02*
X0218561Y0157268D01*
X0217562Y0158266D02*
X0282496Y0158266D01*
X0282496Y0159265D02*
X0216564Y0159265D01*
X0215565Y0160263D02*
X0282496Y0160263D01*
X0282496Y0161262D02*
X0214567Y0161262D01*
X0213568Y0162260D02*
X0282496Y0162260D01*
X0282496Y0163259D02*
X0212570Y0163259D01*
X0211571Y0164257D02*
X0246914Y0164257D01*
X0245916Y0165256D02*
X0210573Y0165256D01*
X0209574Y0166254D02*
X0244917Y0166254D01*
X0243919Y0167253D02*
X0208576Y0167253D01*
X0207577Y0168251D02*
X0242920Y0168251D01*
X0240958Y0169250D02*
X0206579Y0169250D01*
X0207668Y0171247D02*
X0215332Y0171247D01*
X0213259Y0172245D02*
X0209741Y0172245D01*
X0210739Y0173244D02*
X0212261Y0173244D01*
X0211698Y0174242D02*
X0211302Y0174242D01*
X0217668Y0171247D02*
X0225332Y0171247D01*
X0223259Y0172245D02*
X0219741Y0172245D01*
X0220739Y0173244D02*
X0222261Y0173244D01*
X0221698Y0174242D02*
X0221302Y0174242D01*
X0221500Y0178278D02*
X0220993Y0179502D01*
X0219992Y0180503D01*
X0220362Y0180350D01*
X0221116Y0180200D01*
X0221200Y0180200D01*
X0221200Y0186200D01*
X0217600Y0186200D01*
X0217600Y0183716D01*
X0217750Y0182962D01*
X0218044Y0182253D01*
X0218471Y0181614D01*
X0218801Y0181284D01*
X0217554Y0181800D01*
X0215446Y0181800D01*
X0214199Y0181284D01*
X0214806Y0181891D01*
X0215400Y0183324D01*
X0215400Y0189676D01*
X0214806Y0191109D01*
X0214415Y0191500D01*
X0218585Y0191500D01*
X0218471Y0191386D01*
X0218044Y0190747D01*
X0217750Y0190038D01*
X0217600Y0189284D01*
X0217600Y0186800D01*
X0221200Y0186800D01*
X0221200Y0186200D01*
X0221800Y0186200D01*
X0221800Y0186800D01*
X0225400Y0186800D01*
X0225400Y0189284D01*
X0225250Y0190038D01*
X0224956Y0190747D01*
X0224529Y0191386D01*
X0224415Y0191500D01*
X0228585Y0191500D01*
X0228194Y0191109D01*
X0227600Y0189676D01*
X0227600Y0183324D01*
X0228194Y0181891D01*
X0228801Y0181284D01*
X0227554Y0181800D01*
X0225446Y0181800D01*
X0224199Y0181284D01*
X0224529Y0181614D01*
X0224956Y0182253D01*
X0225250Y0182962D01*
X0225400Y0183716D01*
X0225400Y0186200D01*
X0221800Y0186200D01*
X0221800Y0180200D01*
X0221884Y0180200D01*
X0222638Y0180350D01*
X0223008Y0180503D01*
X0222007Y0179502D01*
X0221500Y0178278D01*
X0221104Y0179235D02*
X0221896Y0179235D01*
X0221800Y0180234D02*
X0221200Y0180234D01*
X0220947Y0180234D02*
X0220262Y0180234D01*
X0221200Y0181232D02*
X0221800Y0181232D01*
X0221800Y0182231D02*
X0221200Y0182231D01*
X0221200Y0183229D02*
X0221800Y0183229D01*
X0221800Y0184228D02*
X0221200Y0184228D01*
X0221200Y0185226D02*
X0221800Y0185226D01*
X0221800Y0186225D02*
X0227600Y0186225D01*
X0227600Y0187223D02*
X0225400Y0187223D01*
X0225400Y0188222D02*
X0227600Y0188222D01*
X0227600Y0189220D02*
X0225400Y0189220D01*
X0225175Y0190219D02*
X0227825Y0190219D01*
X0228302Y0191217D02*
X0224642Y0191217D01*
X0221200Y0186225D02*
X0215400Y0186225D01*
X0215400Y0187223D02*
X0217600Y0187223D01*
X0217600Y0188222D02*
X0215400Y0188222D01*
X0215400Y0189220D02*
X0217600Y0189220D01*
X0217825Y0190219D02*
X0215175Y0190219D01*
X0214698Y0191217D02*
X0218358Y0191217D01*
X0217600Y0185226D02*
X0215400Y0185226D01*
X0215400Y0184228D02*
X0217600Y0184228D01*
X0217697Y0183229D02*
X0215361Y0183229D01*
X0214947Y0182231D02*
X0218059Y0182231D01*
X0222053Y0180234D02*
X0222738Y0180234D01*
X0224941Y0182231D02*
X0228053Y0182231D01*
X0227639Y0183229D02*
X0225303Y0183229D01*
X0225400Y0184228D02*
X0227600Y0184228D01*
X0227600Y0185226D02*
X0225400Y0185226D01*
X0234199Y0181284D02*
X0234806Y0181891D01*
X0235400Y0183324D01*
X0235400Y0189676D01*
X0234806Y0191109D01*
X0234415Y0191500D01*
X0238585Y0191500D01*
X0238471Y0191386D01*
X0238044Y0190747D01*
X0237750Y0190038D01*
X0237600Y0189284D01*
X0237600Y0186800D01*
X0241200Y0186800D01*
X0241200Y0186200D01*
X0237600Y0186200D01*
X0237600Y0183716D01*
X0237750Y0182962D01*
X0238044Y0182253D01*
X0238471Y0181614D01*
X0238801Y0181284D01*
X0237554Y0181800D01*
X0235446Y0181800D01*
X0234199Y0181284D01*
X0234947Y0182231D02*
X0238059Y0182231D01*
X0237697Y0183229D02*
X0235361Y0183229D01*
X0235400Y0184228D02*
X0237600Y0184228D01*
X0237600Y0185226D02*
X0235400Y0185226D01*
X0235400Y0186225D02*
X0241200Y0186225D01*
X0241200Y0186200D02*
X0241800Y0186200D01*
X0241800Y0186800D01*
X0245400Y0186800D01*
X0245400Y0189284D01*
X0245250Y0190038D01*
X0244956Y0190747D01*
X0244529Y0191386D01*
X0244415Y0191500D01*
X0252600Y0191500D01*
X0252600Y0189885D01*
X0254885Y0187600D01*
X0258115Y0187600D01*
X0260400Y0189885D01*
X0260400Y0193115D01*
X0258115Y0195400D01*
X0255428Y0195400D01*
X0255328Y0195500D01*
X0199672Y0195500D01*
X0198500Y0194328D01*
X0194945Y0190774D01*
X0194806Y0191109D01*
X0193709Y0192206D01*
X0192276Y0192800D01*
X0190724Y0192800D01*
X0190561Y0192732D01*
X0191647Y0193819D01*
X0192033Y0193819D01*
X0193019Y0194227D01*
X0193773Y0194981D01*
X0194181Y0195967D01*
X0194181Y0197033D01*
X0193773Y0198019D01*
X0193019Y0198773D01*
X0192033Y0199181D01*
X0190967Y0199181D01*
X0189981Y0198773D01*
X0189227Y0198019D01*
X0188819Y0197033D01*
X0188819Y0196647D01*
X0184044Y0191872D01*
X0183709Y0192206D01*
X0182276Y0192800D01*
X0180724Y0192800D01*
X0179291Y0192206D01*
X0178194Y0191109D01*
X0177600Y0189676D01*
X0177600Y0183324D01*
X0178194Y0181891D01*
X0178801Y0181284D01*
X0177554Y0181800D01*
X0175446Y0181800D01*
X0173498Y0180993D01*
X0172007Y0179502D01*
X0171500Y0178278D01*
X0170993Y0179502D01*
X0169502Y0180993D01*
X0167554Y0181800D01*
X0165446Y0181800D01*
X0163498Y0180993D01*
X0162007Y0179502D01*
X0161500Y0178278D01*
X0160993Y0179502D01*
X0159502Y0180993D01*
X0159021Y0181192D01*
X0170428Y0192600D01*
X0173115Y0192600D01*
X0175400Y0194885D01*
X0175400Y0198115D01*
X0173672Y0199843D01*
X0181500Y0207672D01*
X0189672Y0199500D01*
X0252985Y0199500D01*
X0254885Y0197600D01*
X0258115Y0197600D01*
X0260400Y0199885D01*
X0260400Y0203115D01*
X0258115Y0205400D01*
X0254885Y0205400D01*
X0252985Y0203500D01*
X0191328Y0203500D01*
X0183872Y0210956D01*
X0184806Y0211891D01*
X0185400Y0213324D01*
X0185400Y0219676D01*
X0184806Y0221109D01*
X0183709Y0222206D01*
X0182276Y0222800D01*
X0180724Y0222800D01*
X0179291Y0222206D01*
X0178194Y0221109D01*
X0177600Y0219676D01*
X0177600Y0213324D01*
X0178194Y0211891D01*
X0179128Y0210956D01*
X0175400Y0207228D01*
X0175400Y0208115D01*
X0173115Y0210400D01*
X0171800Y0210400D01*
X0171800Y0206800D01*
X0171200Y0206800D01*
X0171200Y0210400D01*
X0169885Y0210400D01*
X0167600Y0208115D01*
X0167600Y0206800D01*
X0171200Y0206800D01*
X0171200Y0206200D01*
X0167600Y0206200D01*
X0167600Y0204885D01*
X0169885Y0202600D01*
X0170772Y0202600D01*
X0169500Y0201328D01*
X0169500Y0200015D01*
X0167600Y0198115D01*
X0167600Y0195428D01*
X0160332Y0188161D01*
X0160400Y0188324D01*
X0160400Y0194676D01*
X0159806Y0196109D01*
X0158709Y0197206D01*
X0158500Y0197293D01*
X0158500Y0205707D01*
X0158709Y0205794D01*
X0159806Y0206891D01*
X0160400Y0208324D01*
X0160400Y0212572D01*
X0160500Y0212672D01*
X0160500Y0229380D01*
X0161614Y0229842D01*
X0162922Y0231150D01*
X0163630Y0232859D01*
X0163630Y0233542D01*
X0172672Y0224500D01*
X0238672Y0224500D01*
X0240475Y0222697D01*
X0239291Y0222206D01*
X0238194Y0221109D01*
X0237600Y0219676D01*
X0237600Y0213324D01*
X0238194Y0211891D01*
X0239291Y0210794D01*
X0240724Y0210200D01*
X0242276Y0210200D01*
X0243709Y0210794D01*
X0244806Y0211891D01*
X0245400Y0213324D01*
X0245400Y0217772D01*
X0252600Y0210572D01*
X0252600Y0209885D01*
X0254885Y0207600D01*
X0258115Y0207600D01*
X0258500Y0207985D01*
X0258500Y0207672D01*
X0259672Y0206500D01*
X0270500Y0195672D01*
X0270500Y0179995D01*
X0269502Y0180993D01*
X0267554Y0181800D01*
X0265446Y0181800D01*
X0263498Y0180993D01*
X0262007Y0179502D01*
X0261500Y0178278D01*
X0260993Y0179502D01*
X0259502Y0180993D01*
X0257554Y0181800D01*
X0255446Y0181800D01*
X0253498Y0180993D01*
X0252007Y0179502D01*
X0251500Y0178278D01*
X0250993Y0179502D01*
X0249502Y0180993D01*
X0247554Y0181800D01*
X0245446Y0181800D01*
X0244199Y0181284D01*
X0244529Y0181614D01*
X0244956Y0182253D01*
X0245250Y0182962D01*
X0245400Y0183716D01*
X0245400Y0186200D01*
X0241800Y0186200D01*
X0241800Y0180200D01*
X0241884Y0180200D01*
X0242638Y0180350D01*
X0243008Y0180503D01*
X0242007Y0179502D01*
X0241500Y0178278D01*
X0240993Y0179502D01*
X0239992Y0180503D01*
X0240362Y0180350D01*
X0241116Y0180200D01*
X0241200Y0180200D01*
X0241200Y0186200D01*
X0241800Y0186225D02*
X0270500Y0186225D01*
X0270500Y0187223D02*
X0245400Y0187223D01*
X0245400Y0188222D02*
X0254263Y0188222D01*
X0253264Y0189220D02*
X0245400Y0189220D01*
X0245175Y0190219D02*
X0252600Y0190219D01*
X0252600Y0191217D02*
X0244642Y0191217D01*
X0245400Y0185226D02*
X0270500Y0185226D01*
X0270500Y0184228D02*
X0245400Y0184228D01*
X0245303Y0183229D02*
X0270500Y0183229D01*
X0270500Y0182231D02*
X0244941Y0182231D01*
X0242738Y0180234D02*
X0242053Y0180234D01*
X0241800Y0180234D02*
X0241200Y0180234D01*
X0240947Y0180234D02*
X0240262Y0180234D01*
X0241104Y0179235D02*
X0241896Y0179235D01*
X0241800Y0181232D02*
X0241200Y0181232D01*
X0241200Y0182231D02*
X0241800Y0182231D01*
X0241800Y0183229D02*
X0241200Y0183229D01*
X0241200Y0184228D02*
X0241800Y0184228D01*
X0241800Y0185226D02*
X0241200Y0185226D01*
X0237600Y0187223D02*
X0235400Y0187223D01*
X0235400Y0188222D02*
X0237600Y0188222D01*
X0237600Y0189220D02*
X0235400Y0189220D01*
X0235175Y0190219D02*
X0237825Y0190219D01*
X0238358Y0191217D02*
X0234698Y0191217D01*
X0248925Y0181232D02*
X0254075Y0181232D01*
X0252738Y0180234D02*
X0250262Y0180234D01*
X0251104Y0179235D02*
X0251896Y0179235D01*
X0258925Y0181232D02*
X0264075Y0181232D01*
X0262738Y0180234D02*
X0260262Y0180234D01*
X0261104Y0179235D02*
X0261896Y0179235D01*
X0268925Y0181232D02*
X0270500Y0181232D01*
X0270500Y0180234D02*
X0270262Y0180234D01*
X0272500Y0174500D02*
X0272500Y0196500D01*
X0260500Y0208500D01*
X0260500Y0213500D01*
X0245500Y0228500D01*
X0199500Y0228500D01*
X0194500Y0233500D01*
X0194413Y0233783D01*
X0191203Y0237149D02*
X0165680Y0237149D01*
X0164681Y0238147D02*
X0192798Y0238147D01*
X0190361Y0236150D02*
X0166678Y0236150D01*
X0167677Y0235152D02*
X0189947Y0235152D01*
X0189764Y0234153D02*
X0168675Y0234153D01*
X0169674Y0233155D02*
X0189764Y0233155D01*
X0190055Y0232156D02*
X0170672Y0232156D01*
X0171671Y0231158D02*
X0190468Y0231158D01*
X0191462Y0230159D02*
X0172669Y0230159D01*
X0173668Y0229161D02*
X0193424Y0229161D01*
X0195403Y0229161D02*
X0196011Y0229161D01*
X0198500Y0223500D02*
X0191500Y0216500D01*
X0191800Y0216800D02*
X0195400Y0216800D01*
X0195400Y0219284D01*
X0195250Y0220038D01*
X0194956Y0220747D01*
X0194529Y0221386D01*
X0193986Y0221929D01*
X0193347Y0222356D01*
X0192638Y0222650D01*
X0191884Y0222800D01*
X0191800Y0222800D01*
X0191800Y0216800D01*
X0191800Y0216200D01*
X0195400Y0216200D01*
X0195400Y0213716D01*
X0195250Y0212962D01*
X0194956Y0212253D01*
X0194529Y0211614D01*
X0193986Y0211071D01*
X0193347Y0210644D01*
X0192638Y0210350D01*
X0191884Y0210200D01*
X0191800Y0210200D01*
X0191800Y0216200D01*
X0191200Y0216200D01*
X0191200Y0210200D01*
X0191116Y0210200D01*
X0190362Y0210350D01*
X0189653Y0210644D01*
X0189014Y0211071D01*
X0188471Y0211614D01*
X0188044Y0212253D01*
X0187750Y0212962D01*
X0187600Y0213716D01*
X0187600Y0216200D01*
X0191200Y0216200D01*
X0191200Y0216800D01*
X0191200Y0222800D01*
X0191116Y0222800D01*
X0190362Y0222650D01*
X0189653Y0222356D01*
X0189014Y0221929D01*
X0188471Y0221386D01*
X0188044Y0220747D01*
X0187750Y0220038D01*
X0187600Y0219284D01*
X0187600Y0216800D01*
X0191200Y0216800D01*
X0191800Y0216800D01*
X0191800Y0217178D02*
X0191200Y0217178D01*
X0191200Y0216180D02*
X0191800Y0216180D01*
X0191800Y0215181D02*
X0191200Y0215181D01*
X0191200Y0214183D02*
X0191800Y0214183D01*
X0191800Y0213184D02*
X0191200Y0213184D01*
X0191200Y0212186D02*
X0191800Y0212186D01*
X0191800Y0211187D02*
X0191200Y0211187D01*
X0188897Y0211187D02*
X0184103Y0211187D01*
X0184640Y0210189D02*
X0252600Y0210189D01*
X0251984Y0211187D02*
X0244103Y0211187D01*
X0244928Y0212186D02*
X0250986Y0212186D01*
X0249987Y0213184D02*
X0245342Y0213184D01*
X0245400Y0214183D02*
X0248989Y0214183D01*
X0247990Y0215181D02*
X0245400Y0215181D01*
X0245400Y0216180D02*
X0246992Y0216180D01*
X0245993Y0217178D02*
X0245400Y0217178D01*
X0239256Y0222171D02*
X0233624Y0222171D01*
X0233347Y0222356D02*
X0232638Y0222650D01*
X0231884Y0222800D01*
X0231800Y0222800D01*
X0231800Y0216800D01*
X0235400Y0216800D01*
X0235400Y0219284D01*
X0235250Y0220038D01*
X0234956Y0220747D01*
X0234529Y0221386D01*
X0233986Y0221929D01*
X0233347Y0222356D01*
X0231800Y0222171D02*
X0231200Y0222171D01*
X0231200Y0222800D02*
X0231116Y0222800D01*
X0230362Y0222650D01*
X0229653Y0222356D01*
X0229014Y0221929D01*
X0228471Y0221386D01*
X0228044Y0220747D01*
X0227750Y0220038D01*
X0227600Y0219284D01*
X0227600Y0216800D01*
X0231200Y0216800D01*
X0231200Y0222800D01*
X0231200Y0221172D02*
X0231800Y0221172D01*
X0231800Y0220174D02*
X0231200Y0220174D01*
X0231200Y0219175D02*
X0231800Y0219175D01*
X0231800Y0218177D02*
X0231200Y0218177D01*
X0231200Y0217178D02*
X0231800Y0217178D01*
X0231800Y0216800D02*
X0231200Y0216800D01*
X0231200Y0216200D01*
X0231800Y0216200D01*
X0231800Y0216800D01*
X0231500Y0216500D02*
X0229500Y0216500D01*
X0222500Y0223500D01*
X0218500Y0223500D01*
X0211500Y0216500D01*
X0209500Y0216500D01*
X0202500Y0223500D01*
X0198500Y0223500D01*
X0199291Y0222206D02*
X0198194Y0221109D01*
X0197600Y0219676D01*
X0197600Y0213324D01*
X0198194Y0211891D01*
X0199291Y0210794D01*
X0200724Y0210200D01*
X0202276Y0210200D01*
X0203709Y0210794D01*
X0204806Y0211891D01*
X0205400Y0213324D01*
X0205400Y0219676D01*
X0204806Y0221109D01*
X0203709Y0222206D01*
X0202276Y0222800D01*
X0200724Y0222800D01*
X0199291Y0222206D01*
X0199256Y0222171D02*
X0193624Y0222171D01*
X0194672Y0221172D02*
X0198257Y0221172D01*
X0197806Y0220174D02*
X0195194Y0220174D01*
X0195400Y0219175D02*
X0197600Y0219175D01*
X0197600Y0218177D02*
X0195400Y0218177D01*
X0195400Y0217178D02*
X0197600Y0217178D01*
X0197600Y0216180D02*
X0195400Y0216180D01*
X0195400Y0215181D02*
X0197600Y0215181D01*
X0197600Y0214183D02*
X0195400Y0214183D01*
X0195294Y0213184D02*
X0197658Y0213184D01*
X0198072Y0212186D02*
X0194912Y0212186D01*
X0194103Y0211187D02*
X0198897Y0211187D01*
X0204103Y0211187D02*
X0208897Y0211187D01*
X0209014Y0211071D02*
X0209653Y0210644D01*
X0210362Y0210350D01*
X0211116Y0210200D01*
X0211200Y0210200D01*
X0211200Y0216200D01*
X0211800Y0216200D01*
X0211800Y0216800D01*
X0215400Y0216800D01*
X0215400Y0219284D01*
X0215250Y0220038D01*
X0214956Y0220747D01*
X0214529Y0221386D01*
X0213986Y0221929D01*
X0213347Y0222356D01*
X0212638Y0222650D01*
X0211884Y0222800D01*
X0211800Y0222800D01*
X0211800Y0216800D01*
X0211200Y0216800D01*
X0211200Y0222800D01*
X0211116Y0222800D01*
X0210362Y0222650D01*
X0209653Y0222356D01*
X0209014Y0221929D01*
X0208471Y0221386D01*
X0208044Y0220747D01*
X0207750Y0220038D01*
X0207600Y0219284D01*
X0207600Y0216800D01*
X0211200Y0216800D01*
X0211200Y0216200D01*
X0207600Y0216200D01*
X0207600Y0213716D01*
X0207750Y0212962D01*
X0208044Y0212253D01*
X0208471Y0211614D01*
X0209014Y0211071D01*
X0208088Y0212186D02*
X0204928Y0212186D01*
X0205342Y0213184D02*
X0207706Y0213184D01*
X0207600Y0214183D02*
X0205400Y0214183D01*
X0205400Y0215181D02*
X0207600Y0215181D01*
X0207600Y0216180D02*
X0205400Y0216180D01*
X0205400Y0217178D02*
X0207600Y0217178D01*
X0207600Y0218177D02*
X0205400Y0218177D01*
X0205400Y0219175D02*
X0207600Y0219175D01*
X0207806Y0220174D02*
X0205194Y0220174D01*
X0204743Y0221172D02*
X0208328Y0221172D01*
X0209376Y0222171D02*
X0203744Y0222171D01*
X0211200Y0222171D02*
X0211800Y0222171D01*
X0211800Y0221172D02*
X0211200Y0221172D01*
X0211200Y0220174D02*
X0211800Y0220174D01*
X0211800Y0219175D02*
X0211200Y0219175D01*
X0211200Y0218177D02*
X0211800Y0218177D01*
X0211800Y0217178D02*
X0211200Y0217178D01*
X0211200Y0216180D02*
X0211800Y0216180D01*
X0211800Y0216200D02*
X0211800Y0210200D01*
X0211884Y0210200D01*
X0212638Y0210350D01*
X0213347Y0210644D01*
X0213986Y0211071D01*
X0214529Y0211614D01*
X0214956Y0212253D01*
X0215250Y0212962D01*
X0215400Y0213716D01*
X0215400Y0216200D01*
X0211800Y0216200D01*
X0211800Y0215181D02*
X0211200Y0215181D01*
X0211200Y0214183D02*
X0211800Y0214183D01*
X0211800Y0213184D02*
X0211200Y0213184D01*
X0211200Y0212186D02*
X0211800Y0212186D01*
X0211800Y0211187D02*
X0211200Y0211187D01*
X0214103Y0211187D02*
X0218897Y0211187D01*
X0219291Y0210794D02*
X0220724Y0210200D01*
X0222276Y0210200D01*
X0223709Y0210794D01*
X0224806Y0211891D01*
X0225400Y0213324D01*
X0225400Y0219676D01*
X0224806Y0221109D01*
X0223709Y0222206D01*
X0222276Y0222800D01*
X0220724Y0222800D01*
X0219291Y0222206D01*
X0218194Y0221109D01*
X0217600Y0219676D01*
X0217600Y0213324D01*
X0218194Y0211891D01*
X0219291Y0210794D01*
X0218072Y0212186D02*
X0214912Y0212186D01*
X0215294Y0213184D02*
X0217658Y0213184D01*
X0217600Y0214183D02*
X0215400Y0214183D01*
X0215400Y0215181D02*
X0217600Y0215181D01*
X0217600Y0216180D02*
X0215400Y0216180D01*
X0215400Y0217178D02*
X0217600Y0217178D01*
X0217600Y0218177D02*
X0215400Y0218177D01*
X0215400Y0219175D02*
X0217600Y0219175D01*
X0217806Y0220174D02*
X0215194Y0220174D01*
X0214672Y0221172D02*
X0218257Y0221172D01*
X0219256Y0222171D02*
X0213624Y0222171D01*
X0221980Y0231158D02*
X0229838Y0231158D01*
X0229425Y0232156D02*
X0222394Y0232156D01*
X0222685Y0233155D02*
X0229134Y0233155D01*
X0229134Y0234153D02*
X0222685Y0234153D01*
X0222501Y0235152D02*
X0229317Y0235152D01*
X0229731Y0236150D02*
X0222088Y0236150D01*
X0221246Y0237149D02*
X0230573Y0237149D01*
X0232168Y0238147D02*
X0219650Y0238147D01*
X0235398Y0238147D02*
X0240041Y0238147D01*
X0241468Y0238147D02*
X0241846Y0238147D01*
X0241846Y0237149D02*
X0241468Y0237149D01*
X0241468Y0236150D02*
X0241846Y0236150D01*
X0241846Y0235152D02*
X0241468Y0235152D01*
X0241468Y0234153D02*
X0241846Y0234153D01*
X0241657Y0233783D02*
X0242500Y0234500D01*
X0253500Y0234500D01*
X0260500Y0241500D01*
X0261343Y0241657D01*
X0258277Y0238147D02*
X0243274Y0238147D01*
X0244868Y0237149D02*
X0258132Y0237149D01*
X0257290Y0236150D02*
X0245670Y0236150D01*
X0246102Y0235152D02*
X0256877Y0235152D01*
X0256693Y0234153D02*
X0246306Y0234153D01*
X0246265Y0233155D02*
X0256693Y0233155D01*
X0256984Y0232156D02*
X0246018Y0232156D01*
X0245497Y0231158D02*
X0257397Y0231158D01*
X0258391Y0230159D02*
X0246669Y0230159D01*
X0247668Y0229161D02*
X0260353Y0229161D01*
X0260500Y0228162D02*
X0248666Y0228162D01*
X0249665Y0227164D02*
X0260500Y0227164D01*
X0260500Y0226165D02*
X0250663Y0226165D01*
X0251662Y0225167D02*
X0260500Y0225167D01*
X0260500Y0224168D02*
X0252660Y0224168D01*
X0253659Y0223170D02*
X0260500Y0223170D01*
X0260500Y0222171D02*
X0254657Y0222171D01*
X0255656Y0221172D02*
X0260500Y0221172D01*
X0260500Y0220174D02*
X0256654Y0220174D01*
X0257653Y0219175D02*
X0260500Y0219175D01*
X0260500Y0218177D02*
X0258651Y0218177D01*
X0259650Y0217178D02*
X0260500Y0217178D01*
X0256500Y0211500D02*
X0254500Y0211500D01*
X0239500Y0226500D01*
X0173500Y0226500D01*
X0161500Y0238500D01*
X0145500Y0238500D01*
X0131500Y0238500D01*
X0127500Y0234500D01*
X0127484Y0233783D01*
X0124274Y0237149D02*
X0122821Y0237149D01*
X0121226Y0238147D02*
X0125869Y0238147D01*
X0119799Y0233155D02*
X0119421Y0233155D01*
X0119421Y0232156D02*
X0119799Y0232156D01*
X0119799Y0231158D02*
X0119421Y0231158D01*
X0119421Y0230159D02*
X0119799Y0230159D01*
X0122532Y0230159D02*
X0124533Y0230159D01*
X0123539Y0231158D02*
X0123450Y0231158D01*
X0130435Y0230159D02*
X0132407Y0230159D01*
X0144500Y0226165D02*
X0108500Y0226165D01*
X0108500Y0225167D02*
X0144500Y0225167D01*
X0144500Y0224168D02*
X0108500Y0224168D01*
X0108500Y0223170D02*
X0144500Y0223170D01*
X0144500Y0222171D02*
X0108500Y0222171D01*
X0108808Y0221172D02*
X0144500Y0221172D01*
X0144500Y0220174D02*
X0110180Y0220174D01*
X0111020Y0219175D02*
X0144500Y0219175D01*
X0144500Y0218177D02*
X0111434Y0218177D01*
X0106500Y0213500D02*
X0115500Y0204500D01*
X0128737Y0217178D02*
X0144500Y0217178D01*
X0144500Y0216180D02*
X0129735Y0216180D01*
X0130191Y0215181D02*
X0144500Y0215181D01*
X0144500Y0214183D02*
X0130400Y0214183D01*
X0130400Y0213184D02*
X0144500Y0213184D01*
X0144500Y0212186D02*
X0130400Y0212186D01*
X0116688Y0230159D02*
X0114687Y0230159D01*
X0115681Y0231158D02*
X0115771Y0231158D01*
X0095988Y0233783D02*
X0095500Y0233500D01*
X0081500Y0219500D01*
X0081500Y0211500D01*
X0081800Y0211800D02*
X0081200Y0211800D01*
X0081200Y0215400D01*
X0078716Y0215400D01*
X0077962Y0215250D01*
X0077253Y0214956D01*
X0076614Y0214529D01*
X0076071Y0213986D01*
X0075644Y0213347D01*
X0075350Y0212638D01*
X0075200Y0211884D01*
X0075200Y0211800D01*
X0081200Y0211800D01*
X0081200Y0211200D01*
X0081800Y0211200D01*
X0081800Y0211800D01*
X0081800Y0215400D01*
X0084284Y0215400D01*
X0085038Y0215250D01*
X0085747Y0214956D01*
X0086386Y0214529D01*
X0086929Y0213986D01*
X0087356Y0213347D01*
X0087650Y0212638D01*
X0087800Y0211884D01*
X0087800Y0211800D01*
X0081800Y0211800D01*
X0081800Y0212186D02*
X0081200Y0212186D01*
X0081200Y0211200D02*
X0075200Y0211200D01*
X0075200Y0211116D01*
X0075350Y0210362D01*
X0075644Y0209653D01*
X0076071Y0209014D01*
X0076614Y0208471D01*
X0077253Y0208044D01*
X0077962Y0207750D01*
X0078716Y0207600D01*
X0081200Y0207600D01*
X0081200Y0211200D01*
X0081200Y0211187D02*
X0081800Y0211187D01*
X0081800Y0211200D02*
X0081800Y0207600D01*
X0084284Y0207600D01*
X0085038Y0207750D01*
X0085747Y0208044D01*
X0086386Y0208471D01*
X0086929Y0209014D01*
X0087356Y0209653D01*
X0087650Y0210362D01*
X0087800Y0211116D01*
X0087800Y0211200D01*
X0081800Y0211200D01*
X0081800Y0210189D02*
X0081200Y0210189D01*
X0081200Y0209190D02*
X0081800Y0209190D01*
X0081800Y0208192D02*
X0081200Y0208192D01*
X0077833Y0205196D02*
X0070500Y0205196D01*
X0070500Y0204198D02*
X0076282Y0204198D01*
X0075583Y0203199D02*
X0070500Y0203199D01*
X0070500Y0202201D02*
X0075200Y0202201D01*
X0075200Y0201202D02*
X0070500Y0201202D01*
X0070500Y0200204D02*
X0075416Y0200204D01*
X0075879Y0199205D02*
X0070500Y0199205D01*
X0070500Y0198207D02*
X0076878Y0198207D01*
X0077868Y0195211D02*
X0070500Y0195211D01*
X0070500Y0194213D02*
X0076297Y0194213D01*
X0075589Y0193214D02*
X0070500Y0193214D01*
X0070500Y0192216D02*
X0075200Y0192216D01*
X0075200Y0191217D02*
X0070500Y0191217D01*
X0070500Y0190219D02*
X0075409Y0190219D01*
X0075864Y0189220D02*
X0070500Y0189220D01*
X0070500Y0188222D02*
X0076863Y0188222D01*
X0087800Y0202201D02*
X0088372Y0202201D01*
X0087417Y0203199D02*
X0089371Y0203199D01*
X0090369Y0204198D02*
X0086718Y0204198D01*
X0085167Y0205196D02*
X0090500Y0205196D01*
X0090500Y0206195D02*
X0070500Y0206195D01*
X0070500Y0207193D02*
X0090500Y0207193D01*
X0090500Y0208192D02*
X0085969Y0208192D01*
X0087047Y0209190D02*
X0090500Y0209190D01*
X0090500Y0210189D02*
X0087578Y0210189D01*
X0087800Y0211187D02*
X0090500Y0211187D01*
X0090500Y0212186D02*
X0087740Y0212186D01*
X0087424Y0213184D02*
X0090500Y0213184D01*
X0090500Y0214183D02*
X0086733Y0214183D01*
X0085203Y0215181D02*
X0090500Y0215181D01*
X0090500Y0216180D02*
X0070500Y0216180D01*
X0070500Y0217178D02*
X0090500Y0217178D01*
X0090500Y0218177D02*
X0070500Y0218177D01*
X0070500Y0219175D02*
X0090500Y0219175D01*
X0090500Y0220174D02*
X0070500Y0220174D01*
X0070500Y0221172D02*
X0090500Y0221172D01*
X0090500Y0222171D02*
X0070500Y0222171D01*
X0070500Y0223170D02*
X0090500Y0223170D01*
X0090500Y0224168D02*
X0070500Y0224168D01*
X0070500Y0225167D02*
X0091338Y0225167D01*
X0092337Y0226165D02*
X0070500Y0226165D01*
X0070500Y0227164D02*
X0093335Y0227164D01*
X0094334Y0228162D02*
X0070500Y0228162D01*
X0070500Y0229161D02*
X0087125Y0229161D01*
X0089104Y0229161D02*
X0095332Y0229161D01*
X0093066Y0230159D02*
X0091065Y0230159D01*
X0092059Y0231158D02*
X0092149Y0231158D01*
X0081800Y0215181D02*
X0081200Y0215181D01*
X0081200Y0214183D02*
X0081800Y0214183D01*
X0081800Y0213184D02*
X0081200Y0213184D01*
X0077797Y0215181D02*
X0070500Y0215181D01*
X0070500Y0214183D02*
X0076267Y0214183D01*
X0075576Y0213184D02*
X0070500Y0213184D01*
X0070500Y0212186D02*
X0075260Y0212186D01*
X0075200Y0211187D02*
X0070500Y0211187D01*
X0070500Y0210189D02*
X0075422Y0210189D01*
X0075953Y0209190D02*
X0070500Y0209190D01*
X0070500Y0208192D02*
X0077031Y0208192D01*
X0049500Y0212186D02*
X0003968Y0212186D01*
X0003968Y0213184D02*
X0049500Y0213184D01*
X0049500Y0214183D02*
X0003968Y0214183D01*
X0003968Y0215181D02*
X0049500Y0215181D01*
X0049500Y0216180D02*
X0003968Y0216180D01*
X0003968Y0217178D02*
X0049500Y0217178D01*
X0049500Y0218177D02*
X0003968Y0218177D01*
X0003968Y0219175D02*
X0049500Y0219175D01*
X0049500Y0220174D02*
X0003968Y0220174D01*
X0003968Y0221172D02*
X0049500Y0221172D01*
X0049500Y0222171D02*
X0003968Y0222171D01*
X0003968Y0223170D02*
X0049500Y0223170D01*
X0049500Y0224168D02*
X0003968Y0224168D01*
X0003968Y0225167D02*
X0049500Y0225167D01*
X0049500Y0226165D02*
X0003968Y0226165D01*
X0003968Y0227164D02*
X0049500Y0227164D01*
X0049500Y0228162D02*
X0003968Y0228162D01*
X0003968Y0229161D02*
X0049500Y0229161D01*
X0049500Y0230159D02*
X0003968Y0230159D01*
X0003968Y0231158D02*
X0049500Y0231158D01*
X0049500Y0232156D02*
X0003968Y0232156D01*
X0003968Y0233155D02*
X0049500Y0233155D01*
X0049500Y0234153D02*
X0003968Y0234153D01*
X0003968Y0235152D02*
X0049500Y0235152D01*
X0049500Y0236150D02*
X0003968Y0236150D01*
X0003968Y0237149D02*
X0049500Y0237149D01*
X0049500Y0238147D02*
X0003968Y0238147D01*
X0003968Y0239146D02*
X0049500Y0239146D01*
X0049500Y0240144D02*
X0003968Y0240144D01*
X0003968Y0241143D02*
X0049500Y0241143D01*
X0049500Y0242141D02*
X0003968Y0242141D01*
X0003968Y0243140D02*
X0049500Y0243140D01*
X0049500Y0244138D02*
X0042638Y0244138D01*
X0042554Y0244111D02*
X0043227Y0244330D01*
X0043859Y0244651D01*
X0044432Y0245068D01*
X0044932Y0245568D01*
X0045349Y0246141D01*
X0045670Y0246773D01*
X0045889Y0247446D01*
X0046000Y0248146D01*
X0046000Y0251000D01*
X0042000Y0251000D01*
X0042000Y0252000D01*
X0046000Y0252000D01*
X0046000Y0254854D01*
X0045889Y0255554D01*
X0045670Y0256227D01*
X0045349Y0256859D01*
X0044932Y0257432D01*
X0044432Y0257932D01*
X0043859Y0258349D01*
X0043227Y0258670D01*
X0042554Y0258889D01*
X0042000Y0258977D01*
X0042000Y0252000D01*
X0041000Y0252000D01*
X0041000Y0258977D01*
X0040446Y0258889D01*
X0039773Y0258670D01*
X0039141Y0258349D01*
X0038568Y0257932D01*
X0038068Y0257432D01*
X0037651Y0256859D01*
X0037330Y0256227D01*
X0037111Y0255554D01*
X0037000Y0254854D01*
X0037000Y0252000D01*
X0041000Y0252000D01*
X0041000Y0251000D01*
X0042000Y0251000D01*
X0042000Y0244023D01*
X0042554Y0244111D01*
X0042000Y0244138D02*
X0041000Y0244138D01*
X0041000Y0244023D02*
X0041000Y0251000D01*
X0037000Y0251000D01*
X0037000Y0248146D01*
X0037111Y0247446D01*
X0037330Y0246773D01*
X0037651Y0246141D01*
X0038068Y0245568D01*
X0038568Y0245068D01*
X0039141Y0244651D01*
X0039773Y0244330D01*
X0040446Y0244111D01*
X0041000Y0244023D01*
X0040362Y0244138D02*
X0032729Y0244138D01*
X0032395Y0244000D02*
X0034049Y0244685D01*
X0035315Y0245951D01*
X0036000Y0247605D01*
X0036000Y0255395D01*
X0035315Y0257049D01*
X0034049Y0258315D01*
X0032395Y0259000D01*
X0030605Y0259000D01*
X0028951Y0258315D01*
X0027685Y0257049D01*
X0027000Y0255395D01*
X0027000Y0247605D01*
X0027685Y0245951D01*
X0028951Y0244685D01*
X0030605Y0244000D01*
X0032395Y0244000D01*
X0030271Y0244138D02*
X0003968Y0244138D01*
X0003968Y0245137D02*
X0028499Y0245137D01*
X0027609Y0246135D02*
X0003968Y0246135D01*
X0003968Y0247134D02*
X0027195Y0247134D01*
X0027000Y0248132D02*
X0003968Y0248132D01*
X0003968Y0249131D02*
X0027000Y0249131D01*
X0027000Y0250129D02*
X0003968Y0250129D01*
X0003968Y0251128D02*
X0027000Y0251128D01*
X0027000Y0252126D02*
X0003968Y0252126D01*
X0003968Y0253125D02*
X0027000Y0253125D01*
X0027000Y0254123D02*
X0003968Y0254123D01*
X0003968Y0255122D02*
X0027000Y0255122D01*
X0027300Y0256120D02*
X0003968Y0256120D01*
X0003968Y0257119D02*
X0027755Y0257119D01*
X0028753Y0258117D02*
X0003968Y0258117D01*
X0003968Y0265107D02*
X0009826Y0265107D01*
X0008345Y0265721D02*
X0005878Y0268187D01*
X0004543Y0271410D01*
X0004543Y0274898D01*
X0005878Y0278120D01*
X0008345Y0280586D01*
X0011567Y0281921D01*
X0015055Y0281921D01*
X0018278Y0280586D01*
X0020744Y0278120D01*
X0022079Y0274898D01*
X0022079Y0271410D01*
X0020744Y0268187D01*
X0018278Y0265721D01*
X0015055Y0264386D01*
X0011567Y0264386D01*
X0008345Y0265721D01*
X0007960Y0266105D02*
X0003968Y0266105D01*
X0003968Y0267104D02*
X0006961Y0267104D01*
X0005963Y0268103D02*
X0003968Y0268103D01*
X0003968Y0269101D02*
X0005500Y0269101D01*
X0005086Y0270100D02*
X0003968Y0270100D01*
X0003968Y0271098D02*
X0004672Y0271098D01*
X0004543Y0272097D02*
X0003968Y0272097D01*
X0003968Y0273095D02*
X0004543Y0273095D01*
X0004543Y0274094D02*
X0003968Y0274094D01*
X0003968Y0275092D02*
X0004624Y0275092D01*
X0005038Y0276091D02*
X0003968Y0276091D01*
X0003968Y0277089D02*
X0005451Y0277089D01*
X0005865Y0278088D02*
X0003968Y0278088D01*
X0003968Y0279086D02*
X0006844Y0279086D01*
X0007843Y0280085D02*
X0003968Y0280085D01*
X0003968Y0281083D02*
X0009544Y0281083D01*
X0017078Y0281083D02*
X0170961Y0281083D01*
X0169762Y0280586D02*
X0167295Y0278120D01*
X0165961Y0274898D01*
X0165961Y0271410D01*
X0167295Y0268187D01*
X0169762Y0265721D01*
X0172984Y0264386D01*
X0176472Y0264386D01*
X0179695Y0265721D01*
X0182161Y0268187D01*
X0183496Y0271410D01*
X0183496Y0274898D01*
X0182161Y0278120D01*
X0179695Y0280586D01*
X0176472Y0281921D01*
X0172984Y0281921D01*
X0169762Y0280586D01*
X0169260Y0280085D02*
X0018779Y0280085D01*
X0019778Y0279086D02*
X0168262Y0279086D01*
X0167282Y0278088D02*
X0020757Y0278088D01*
X0021171Y0277089D02*
X0166868Y0277089D01*
X0166455Y0276091D02*
X0021585Y0276091D01*
X0021998Y0275092D02*
X0166041Y0275092D01*
X0165961Y0274094D02*
X0022079Y0274094D01*
X0022079Y0273095D02*
X0165961Y0273095D01*
X0165961Y0272097D02*
X0022079Y0272097D01*
X0021950Y0271098D02*
X0166090Y0271098D01*
X0166503Y0270100D02*
X0021536Y0270100D01*
X0021123Y0269101D02*
X0166917Y0269101D01*
X0167380Y0268103D02*
X0020659Y0268103D01*
X0019661Y0267104D02*
X0168378Y0267104D01*
X0169377Y0266105D02*
X0018662Y0266105D01*
X0016796Y0265107D02*
X0171243Y0265107D01*
X0178213Y0265107D02*
X0269668Y0265107D01*
X0267802Y0266105D02*
X0180080Y0266105D01*
X0181078Y0267104D02*
X0266804Y0267104D01*
X0265805Y0268103D02*
X0182077Y0268103D01*
X0182540Y0269101D02*
X0265342Y0269101D01*
X0264928Y0270100D02*
X0182953Y0270100D01*
X0183367Y0271098D02*
X0264515Y0271098D01*
X0264386Y0272097D02*
X0183496Y0272097D01*
X0183496Y0273095D02*
X0264386Y0273095D01*
X0264386Y0274094D02*
X0183496Y0274094D01*
X0183415Y0275092D02*
X0264466Y0275092D01*
X0264880Y0276091D02*
X0183002Y0276091D01*
X0182588Y0277089D02*
X0265294Y0277089D01*
X0265707Y0278088D02*
X0182175Y0278088D01*
X0181195Y0279086D02*
X0266687Y0279086D01*
X0267685Y0280085D02*
X0180197Y0280085D01*
X0178496Y0281083D02*
X0269386Y0281083D01*
X0261500Y0249500D02*
X0261343Y0249531D01*
X0261500Y0249500D02*
X0266500Y0244500D01*
X0266500Y0215500D01*
X0276500Y0205500D01*
X0276500Y0201500D01*
X0276500Y0195500D02*
X0262500Y0209500D01*
X0262500Y0232500D01*
X0261500Y0233500D01*
X0261343Y0233783D01*
X0238447Y0237149D02*
X0236994Y0237149D01*
X0239004Y0224168D02*
X0160500Y0224168D01*
X0160500Y0223170D02*
X0240002Y0223170D01*
X0238257Y0221172D02*
X0234672Y0221172D01*
X0235194Y0220174D02*
X0237806Y0220174D01*
X0237600Y0219175D02*
X0235400Y0219175D01*
X0235400Y0218177D02*
X0237600Y0218177D01*
X0237600Y0217178D02*
X0235400Y0217178D01*
X0235400Y0216200D02*
X0231800Y0216200D01*
X0231800Y0210200D01*
X0231884Y0210200D01*
X0232638Y0210350D01*
X0233347Y0210644D01*
X0233986Y0211071D01*
X0234529Y0211614D01*
X0234956Y0212253D01*
X0235250Y0212962D01*
X0235400Y0213716D01*
X0235400Y0216200D01*
X0235400Y0216180D02*
X0237600Y0216180D01*
X0237600Y0215181D02*
X0235400Y0215181D01*
X0235400Y0214183D02*
X0237600Y0214183D01*
X0237658Y0213184D02*
X0235294Y0213184D01*
X0234912Y0212186D02*
X0238072Y0212186D01*
X0238897Y0211187D02*
X0234103Y0211187D01*
X0231800Y0211187D02*
X0231200Y0211187D01*
X0231200Y0210200D02*
X0231200Y0216200D01*
X0227600Y0216200D01*
X0227600Y0213716D01*
X0227750Y0212962D01*
X0228044Y0212253D01*
X0228471Y0211614D01*
X0229014Y0211071D01*
X0229653Y0210644D01*
X0230362Y0210350D01*
X0231116Y0210200D01*
X0231200Y0210200D01*
X0231200Y0212186D02*
X0231800Y0212186D01*
X0231800Y0213184D02*
X0231200Y0213184D01*
X0231200Y0214183D02*
X0231800Y0214183D01*
X0231800Y0215181D02*
X0231200Y0215181D01*
X0231200Y0216180D02*
X0231800Y0216180D01*
X0227600Y0216180D02*
X0225400Y0216180D01*
X0225400Y0217178D02*
X0227600Y0217178D01*
X0227600Y0218177D02*
X0225400Y0218177D01*
X0225400Y0219175D02*
X0227600Y0219175D01*
X0227806Y0220174D02*
X0225194Y0220174D01*
X0224743Y0221172D02*
X0228328Y0221172D01*
X0229376Y0222171D02*
X0223744Y0222171D01*
X0225400Y0215181D02*
X0227600Y0215181D01*
X0227600Y0214183D02*
X0225400Y0214183D01*
X0225342Y0213184D02*
X0227706Y0213184D01*
X0228088Y0212186D02*
X0224928Y0212186D01*
X0224103Y0211187D02*
X0228897Y0211187D01*
X0208585Y0191500D02*
X0208194Y0191109D01*
X0207600Y0189676D01*
X0207600Y0183324D01*
X0208194Y0181891D01*
X0208801Y0181284D01*
X0207554Y0181800D01*
X0205446Y0181800D01*
X0204199Y0181284D01*
X0204529Y0181614D01*
X0204956Y0182253D01*
X0205250Y0182962D01*
X0205400Y0183716D01*
X0205400Y0186200D01*
X0201800Y0186200D01*
X0201800Y0186800D01*
X0205400Y0186800D01*
X0205400Y0189284D01*
X0205250Y0190038D01*
X0204956Y0190747D01*
X0204529Y0191386D01*
X0204415Y0191500D01*
X0208585Y0191500D01*
X0208302Y0191217D02*
X0204642Y0191217D01*
X0205175Y0190219D02*
X0207825Y0190219D01*
X0207600Y0189220D02*
X0205400Y0189220D01*
X0205400Y0188222D02*
X0207600Y0188222D01*
X0207600Y0187223D02*
X0205400Y0187223D01*
X0205400Y0185226D02*
X0207600Y0185226D01*
X0207600Y0184228D02*
X0205400Y0184228D01*
X0205303Y0183229D02*
X0207639Y0183229D01*
X0208053Y0182231D02*
X0204941Y0182231D01*
X0203008Y0180503D02*
X0202007Y0179502D01*
X0201500Y0178278D01*
X0200993Y0179502D01*
X0199992Y0180503D01*
X0200362Y0180350D01*
X0201116Y0180200D01*
X0201200Y0180200D01*
X0201200Y0186200D01*
X0201800Y0186200D01*
X0201800Y0180200D01*
X0201884Y0180200D01*
X0202638Y0180350D01*
X0203008Y0180503D01*
X0202738Y0180234D02*
X0202053Y0180234D01*
X0201800Y0180234D02*
X0201200Y0180234D01*
X0200947Y0180234D02*
X0200262Y0180234D01*
X0201104Y0179235D02*
X0201896Y0179235D01*
X0201800Y0181232D02*
X0201200Y0181232D01*
X0201200Y0182231D02*
X0201800Y0182231D01*
X0201800Y0183229D02*
X0201200Y0183229D01*
X0201200Y0184228D02*
X0201800Y0184228D01*
X0201800Y0185226D02*
X0201200Y0185226D01*
X0201200Y0186200D02*
X0197600Y0186200D01*
X0197600Y0183716D01*
X0197750Y0182962D01*
X0198044Y0182253D01*
X0198471Y0181614D01*
X0198801Y0181284D01*
X0197554Y0181800D01*
X0195446Y0181800D01*
X0194199Y0181284D01*
X0194806Y0181891D01*
X0195400Y0183324D01*
X0195400Y0185572D01*
X0197600Y0187772D01*
X0197600Y0186800D01*
X0201200Y0186800D01*
X0201200Y0186200D01*
X0201200Y0186225D02*
X0196053Y0186225D01*
X0195400Y0185226D02*
X0197600Y0185226D01*
X0197600Y0184228D02*
X0195400Y0184228D01*
X0195361Y0183229D02*
X0197697Y0183229D01*
X0198059Y0182231D02*
X0194947Y0182231D01*
X0193500Y0186500D02*
X0191500Y0186500D01*
X0193500Y0186500D02*
X0200500Y0193500D01*
X0254500Y0193500D01*
X0256500Y0191500D01*
X0259303Y0194213D02*
X0270500Y0194213D01*
X0270500Y0195211D02*
X0258304Y0195211D01*
X0260301Y0193214D02*
X0270500Y0193214D01*
X0270500Y0192216D02*
X0260400Y0192216D01*
X0260400Y0191217D02*
X0270500Y0191217D01*
X0270500Y0190219D02*
X0260400Y0190219D01*
X0259736Y0189220D02*
X0270500Y0189220D01*
X0270500Y0188222D02*
X0258737Y0188222D01*
X0268963Y0197208D02*
X0194109Y0197208D01*
X0194181Y0196210D02*
X0269962Y0196210D01*
X0267965Y0198207D02*
X0258722Y0198207D01*
X0259721Y0199205D02*
X0266966Y0199205D01*
X0265968Y0200204D02*
X0260400Y0200204D01*
X0260400Y0201202D02*
X0264969Y0201202D01*
X0263971Y0202201D02*
X0260400Y0202201D01*
X0260316Y0203199D02*
X0262972Y0203199D01*
X0261974Y0204198D02*
X0259318Y0204198D01*
X0258319Y0205196D02*
X0260975Y0205196D01*
X0259977Y0206195D02*
X0188634Y0206195D01*
X0189632Y0205196D02*
X0254681Y0205196D01*
X0253682Y0204198D02*
X0190631Y0204198D01*
X0190500Y0201500D02*
X0181500Y0210500D01*
X0181500Y0216500D01*
X0185400Y0216180D02*
X0187600Y0216180D01*
X0187600Y0217178D02*
X0185400Y0217178D01*
X0185400Y0218177D02*
X0187600Y0218177D01*
X0187600Y0219175D02*
X0185400Y0219175D01*
X0185194Y0220174D02*
X0187806Y0220174D01*
X0188328Y0221172D02*
X0184743Y0221172D01*
X0183744Y0222171D02*
X0189376Y0222171D01*
X0191200Y0222171D02*
X0191800Y0222171D01*
X0191800Y0221172D02*
X0191200Y0221172D01*
X0191200Y0220174D02*
X0191800Y0220174D01*
X0191800Y0219175D02*
X0191200Y0219175D01*
X0191200Y0218177D02*
X0191800Y0218177D01*
X0187600Y0215181D02*
X0185400Y0215181D01*
X0185400Y0214183D02*
X0187600Y0214183D01*
X0187706Y0213184D02*
X0185342Y0213184D01*
X0184928Y0212186D02*
X0188088Y0212186D01*
X0185638Y0209190D02*
X0253294Y0209190D01*
X0254293Y0208192D02*
X0186637Y0208192D01*
X0187635Y0207193D02*
X0258978Y0207193D01*
X0256500Y0201500D02*
X0190500Y0201500D01*
X0188968Y0200204D02*
X0174032Y0200204D01*
X0174310Y0199205D02*
X0253279Y0199205D01*
X0254278Y0198207D02*
X0193585Y0198207D01*
X0191500Y0196500D02*
X0181500Y0186500D01*
X0177825Y0190219D02*
X0168047Y0190219D01*
X0169046Y0191217D02*
X0178302Y0191217D01*
X0179314Y0192216D02*
X0170044Y0192216D01*
X0173730Y0193214D02*
X0185386Y0193214D01*
X0186384Y0194213D02*
X0174728Y0194213D01*
X0175400Y0195211D02*
X0187383Y0195211D01*
X0188381Y0196210D02*
X0175400Y0196210D01*
X0175400Y0197208D02*
X0188891Y0197208D01*
X0189415Y0198207D02*
X0175309Y0198207D01*
X0175031Y0201202D02*
X0187969Y0201202D01*
X0186971Y0202201D02*
X0176029Y0202201D01*
X0177028Y0203199D02*
X0185972Y0203199D01*
X0184974Y0204198D02*
X0178026Y0204198D01*
X0179025Y0205196D02*
X0183975Y0205196D01*
X0182977Y0206195D02*
X0180023Y0206195D01*
X0181022Y0207193D02*
X0181978Y0207193D01*
X0181500Y0210500D02*
X0171500Y0200500D01*
X0171500Y0196500D01*
X0156500Y0181500D01*
X0156500Y0176500D01*
X0160262Y0180234D02*
X0162738Y0180234D01*
X0161896Y0179235D02*
X0161104Y0179235D01*
X0159060Y0181232D02*
X0164075Y0181232D01*
X0162056Y0184228D02*
X0177600Y0184228D01*
X0177600Y0185226D02*
X0163054Y0185226D01*
X0164053Y0186225D02*
X0177600Y0186225D01*
X0177600Y0187223D02*
X0165052Y0187223D01*
X0166050Y0188222D02*
X0177600Y0188222D01*
X0177600Y0189220D02*
X0167049Y0189220D01*
X0164387Y0192216D02*
X0160400Y0192216D01*
X0160400Y0193214D02*
X0165386Y0193214D01*
X0166384Y0194213D02*
X0160400Y0194213D01*
X0160178Y0195211D02*
X0167383Y0195211D01*
X0167600Y0196210D02*
X0159706Y0196210D01*
X0158704Y0197208D02*
X0167600Y0197208D01*
X0167691Y0198207D02*
X0158500Y0198207D01*
X0158500Y0199205D02*
X0168690Y0199205D01*
X0169500Y0200204D02*
X0158500Y0200204D01*
X0158500Y0201202D02*
X0169500Y0201202D01*
X0170372Y0202201D02*
X0158500Y0202201D01*
X0158500Y0203199D02*
X0169285Y0203199D01*
X0168287Y0204198D02*
X0158500Y0204198D01*
X0158500Y0205196D02*
X0167600Y0205196D01*
X0167600Y0206195D02*
X0159110Y0206195D01*
X0159932Y0207193D02*
X0167600Y0207193D01*
X0167676Y0208192D02*
X0160345Y0208192D01*
X0160400Y0209190D02*
X0168675Y0209190D01*
X0169673Y0210189D02*
X0160400Y0210189D01*
X0160400Y0211187D02*
X0178897Y0211187D01*
X0178360Y0210189D02*
X0173327Y0210189D01*
X0174325Y0209190D02*
X0177362Y0209190D01*
X0176363Y0208192D02*
X0175324Y0208192D01*
X0171800Y0208192D02*
X0171200Y0208192D01*
X0171200Y0209190D02*
X0171800Y0209190D01*
X0171800Y0210189D02*
X0171200Y0210189D01*
X0171200Y0207193D02*
X0171800Y0207193D01*
X0177600Y0214183D02*
X0160500Y0214183D01*
X0160500Y0215181D02*
X0177600Y0215181D01*
X0177600Y0216180D02*
X0160500Y0216180D01*
X0160500Y0217178D02*
X0177600Y0217178D01*
X0177600Y0218177D02*
X0160500Y0218177D01*
X0160500Y0219175D02*
X0177600Y0219175D01*
X0177806Y0220174D02*
X0160500Y0220174D01*
X0160500Y0221172D02*
X0178257Y0221172D01*
X0179256Y0222171D02*
X0160500Y0222171D01*
X0160500Y0225167D02*
X0172005Y0225167D01*
X0171007Y0226165D02*
X0160500Y0226165D01*
X0160500Y0227164D02*
X0170008Y0227164D01*
X0169009Y0228162D02*
X0160500Y0228162D01*
X0160500Y0229161D02*
X0168011Y0229161D01*
X0167012Y0230159D02*
X0161931Y0230159D01*
X0162925Y0231158D02*
X0166014Y0231158D01*
X0165015Y0232156D02*
X0163339Y0232156D01*
X0163630Y0233155D02*
X0164017Y0233155D01*
X0158980Y0233783D02*
X0158500Y0233500D01*
X0158500Y0213500D01*
X0156500Y0211500D01*
X0156500Y0191500D01*
X0160400Y0191217D02*
X0163389Y0191217D01*
X0162390Y0190219D02*
X0160400Y0190219D01*
X0160400Y0189220D02*
X0161392Y0189220D01*
X0160393Y0188222D02*
X0160357Y0188222D01*
X0161057Y0183229D02*
X0177639Y0183229D01*
X0178053Y0182231D02*
X0160059Y0182231D01*
X0161302Y0174242D02*
X0161698Y0174242D01*
X0162261Y0173244D02*
X0160739Y0173244D01*
X0161417Y0172245D02*
X0159741Y0172245D01*
X0160419Y0171247D02*
X0157668Y0171247D01*
X0162500Y0170500D02*
X0202500Y0170500D01*
X0201800Y0186225D02*
X0207600Y0186225D01*
X0199383Y0195211D02*
X0193868Y0195211D01*
X0192984Y0194213D02*
X0198384Y0194213D01*
X0197386Y0193214D02*
X0191043Y0193214D01*
X0193686Y0192216D02*
X0196387Y0192216D01*
X0195389Y0191217D02*
X0194698Y0191217D01*
X0197052Y0187223D02*
X0197600Y0187223D01*
X0184387Y0192216D02*
X0183686Y0192216D01*
X0174075Y0181232D02*
X0168925Y0181232D01*
X0170262Y0180234D02*
X0172738Y0180234D01*
X0171896Y0179235D02*
X0171104Y0179235D01*
X0162500Y0170500D02*
X0153500Y0161500D01*
X0151500Y0161500D01*
X0147600Y0161262D02*
X0146567Y0161262D01*
X0147565Y0160263D02*
X0147600Y0160263D01*
X0147600Y0162260D02*
X0145568Y0162260D01*
X0145400Y0163259D02*
X0147600Y0163259D01*
X0147600Y0164257D02*
X0145400Y0164257D01*
X0145160Y0165256D02*
X0147840Y0165256D01*
X0148339Y0166254D02*
X0144661Y0166254D01*
X0143597Y0167253D02*
X0149403Y0167253D01*
X0143259Y0172245D02*
X0139661Y0172245D01*
X0140685Y0173244D02*
X0142261Y0173244D01*
X0141698Y0174242D02*
X0141298Y0174242D01*
X0137000Y0174242D02*
X0136000Y0174242D01*
X0136000Y0173244D02*
X0137000Y0173244D01*
X0137000Y0172245D02*
X0136000Y0172245D01*
X0136000Y0175241D02*
X0137000Y0175241D01*
X0140262Y0180234D02*
X0142738Y0180234D01*
X0141896Y0179235D02*
X0141055Y0179235D01*
X0138887Y0181232D02*
X0144075Y0181232D01*
X0143500Y0161500D02*
X0141500Y0161500D01*
X0143500Y0161500D02*
X0150500Y0154500D01*
X0182500Y0154500D01*
X0181500Y0159500D02*
X0196500Y0144500D01*
X0196500Y0116500D01*
X0186521Y0102350D02*
X0183363Y0102350D01*
X0184564Y0101351D02*
X0185523Y0101351D01*
X0187185Y0097357D02*
X0187600Y0097357D01*
X0187600Y0096359D02*
X0186187Y0096359D01*
X0185400Y0095360D02*
X0187600Y0095360D01*
X0187600Y0094362D02*
X0185400Y0094362D01*
X0185400Y0093363D02*
X0187600Y0093363D01*
X0187998Y0092365D02*
X0185002Y0092365D01*
X0184281Y0091366D02*
X0188719Y0091366D01*
X0190320Y0090368D02*
X0182680Y0090368D01*
X0181500Y0066500D02*
X0179500Y0066500D01*
X0172500Y0059500D01*
X0180500Y0057500D02*
X0152500Y0057500D01*
X0153500Y0055500D02*
X0128500Y0030500D01*
X0078500Y0030500D01*
X0069500Y0039500D01*
X0069020Y0039807D01*
X0063500Y0038500D02*
X0063500Y0045500D01*
X0061500Y0044436D02*
X0003968Y0044436D01*
X0003968Y0045434D02*
X0060737Y0045434D01*
X0061329Y0043437D02*
X0061500Y0043437D01*
X0059020Y0039807D02*
X0059500Y0039500D01*
X0072500Y0026500D01*
X0207500Y0026500D01*
X0213500Y0032500D01*
X0213500Y0037500D01*
X0210500Y0040500D01*
X0210500Y0053500D01*
X0215500Y0058500D01*
X0215500Y0071500D01*
X0213601Y0073393D02*
X0213221Y0073393D01*
X0214220Y0074391D02*
X0228093Y0074391D01*
X0227600Y0074885D02*
X0229885Y0072600D01*
X0233115Y0072600D01*
X0235015Y0074500D01*
X0237328Y0074500D01*
X0255515Y0092687D01*
X0255724Y0092600D01*
X0257276Y0092600D01*
X0258709Y0093194D01*
X0259806Y0094291D01*
X0260400Y0095724D01*
X0260400Y0102076D01*
X0259806Y0103509D01*
X0258709Y0104606D01*
X0257276Y0105200D01*
X0255724Y0105200D01*
X0254291Y0104606D01*
X0253194Y0103509D01*
X0252600Y0102076D01*
X0252600Y0095724D01*
X0252687Y0095515D01*
X0235672Y0078500D01*
X0235015Y0078500D01*
X0233115Y0080400D01*
X0229885Y0080400D01*
X0227600Y0078115D01*
X0227600Y0074885D01*
X0227600Y0075390D02*
X0215218Y0075390D01*
X0216217Y0076388D02*
X0227600Y0076388D01*
X0227600Y0077387D02*
X0217215Y0077387D01*
X0218214Y0078385D02*
X0227870Y0078385D01*
X0228868Y0079384D02*
X0219212Y0079384D01*
X0220211Y0080382D02*
X0229867Y0080382D01*
X0229885Y0082600D02*
X0231200Y0082600D01*
X0231200Y0086200D01*
X0231800Y0086200D01*
X0231800Y0086800D01*
X0231200Y0086800D01*
X0231200Y0086200D01*
X0227600Y0086200D01*
X0227600Y0084885D01*
X0229885Y0082600D01*
X0229107Y0083378D02*
X0223206Y0083378D01*
X0222208Y0082379D02*
X0239551Y0082379D01*
X0238552Y0081381D02*
X0221209Y0081381D01*
X0224205Y0084376D02*
X0228108Y0084376D01*
X0227600Y0085375D02*
X0225203Y0085375D01*
X0226202Y0086373D02*
X0231200Y0086373D01*
X0231800Y0086373D02*
X0243545Y0086373D01*
X0242547Y0085375D02*
X0235400Y0085375D01*
X0235400Y0084885D02*
X0235400Y0086200D01*
X0231800Y0086200D01*
X0231800Y0082600D01*
X0233115Y0082600D01*
X0235400Y0084885D01*
X0234892Y0084376D02*
X0241548Y0084376D01*
X0240550Y0083378D02*
X0233893Y0083378D01*
X0231800Y0083378D02*
X0231200Y0083378D01*
X0231200Y0084376D02*
X0231800Y0084376D01*
X0231800Y0085375D02*
X0231200Y0085375D01*
X0231800Y0086800D02*
X0235400Y0086800D01*
X0235400Y0088115D01*
X0233115Y0090400D01*
X0231800Y0090400D01*
X0231800Y0086800D01*
X0231800Y0087372D02*
X0231200Y0087372D01*
X0231200Y0088370D02*
X0231800Y0088370D01*
X0231800Y0089369D02*
X0231200Y0089369D01*
X0231200Y0090368D02*
X0231800Y0090368D01*
X0233148Y0090368D02*
X0247539Y0090368D01*
X0248538Y0091366D02*
X0228500Y0091366D01*
X0228500Y0090368D02*
X0229852Y0090368D01*
X0228854Y0089369D02*
X0228500Y0089369D01*
X0227600Y0087372D02*
X0227200Y0087372D01*
X0228500Y0092365D02*
X0249536Y0092365D01*
X0248709Y0093194D02*
X0249806Y0094291D01*
X0250400Y0095724D01*
X0250400Y0102076D01*
X0249806Y0103509D01*
X0248709Y0104606D01*
X0247276Y0105200D01*
X0245724Y0105200D01*
X0244291Y0104606D01*
X0243194Y0103509D01*
X0242600Y0102076D01*
X0242600Y0095724D01*
X0243194Y0094291D01*
X0244291Y0093194D01*
X0245724Y0092600D01*
X0247276Y0092600D01*
X0248709Y0093194D01*
X0248878Y0093363D02*
X0250535Y0093363D01*
X0249836Y0094362D02*
X0251533Y0094362D01*
X0252532Y0095360D02*
X0250249Y0095360D01*
X0250400Y0096359D02*
X0252600Y0096359D01*
X0252600Y0097357D02*
X0250400Y0097357D01*
X0250400Y0098356D02*
X0252600Y0098356D01*
X0252600Y0099354D02*
X0250400Y0099354D01*
X0250400Y0100353D02*
X0252600Y0100353D01*
X0252600Y0101351D02*
X0250400Y0101351D01*
X0250287Y0102350D02*
X0252713Y0102350D01*
X0253127Y0103348D02*
X0249873Y0103348D01*
X0248969Y0104347D02*
X0254031Y0104347D01*
X0258969Y0104347D02*
X0264031Y0104347D01*
X0264291Y0104606D02*
X0263194Y0103509D01*
X0262600Y0102076D01*
X0262600Y0095724D01*
X0263194Y0094291D01*
X0264291Y0093194D01*
X0265724Y0092600D01*
X0267276Y0092600D01*
X0268709Y0093194D01*
X0269806Y0094291D01*
X0270400Y0095724D01*
X0270400Y0102076D01*
X0269806Y0103509D01*
X0268709Y0104606D01*
X0267276Y0105200D01*
X0265724Y0105200D01*
X0264291Y0104606D01*
X0263127Y0103348D02*
X0259873Y0103348D01*
X0260287Y0102350D02*
X0262713Y0102350D01*
X0262600Y0101351D02*
X0260400Y0101351D01*
X0260400Y0100353D02*
X0262600Y0100353D01*
X0262600Y0099354D02*
X0260400Y0099354D01*
X0260400Y0098356D02*
X0262600Y0098356D01*
X0262600Y0097357D02*
X0260400Y0097357D01*
X0260400Y0096359D02*
X0262600Y0096359D01*
X0262751Y0095360D02*
X0260249Y0095360D01*
X0259836Y0094362D02*
X0263164Y0094362D01*
X0264122Y0093363D02*
X0258878Y0093363D01*
X0255193Y0092365D02*
X0282496Y0092365D01*
X0282496Y0093363D02*
X0278878Y0093363D01*
X0278709Y0093194D02*
X0279806Y0094291D01*
X0280400Y0095724D01*
X0280400Y0102076D01*
X0279806Y0103509D01*
X0278709Y0104606D01*
X0277276Y0105200D01*
X0275724Y0105200D01*
X0274291Y0104606D01*
X0273194Y0103509D01*
X0272600Y0102076D01*
X0272600Y0095724D01*
X0273194Y0094291D01*
X0274291Y0093194D01*
X0275724Y0092600D01*
X0277276Y0092600D01*
X0278709Y0093194D01*
X0279836Y0094362D02*
X0282496Y0094362D01*
X0282496Y0095360D02*
X0280249Y0095360D01*
X0280400Y0096359D02*
X0282496Y0096359D01*
X0282496Y0097357D02*
X0280400Y0097357D01*
X0280400Y0098356D02*
X0282496Y0098356D01*
X0282496Y0099354D02*
X0280400Y0099354D01*
X0280400Y0100353D02*
X0282496Y0100353D01*
X0282496Y0101351D02*
X0280400Y0101351D01*
X0280287Y0102350D02*
X0282496Y0102350D01*
X0282496Y0103348D02*
X0279873Y0103348D01*
X0278969Y0104347D02*
X0282496Y0104347D01*
X0282496Y0105345D02*
X0228500Y0105345D01*
X0228500Y0104347D02*
X0244031Y0104347D01*
X0243127Y0103348D02*
X0228500Y0103348D01*
X0228500Y0102350D02*
X0242713Y0102350D01*
X0242600Y0101351D02*
X0228500Y0101351D01*
X0228500Y0100353D02*
X0242600Y0100353D01*
X0242600Y0099354D02*
X0228500Y0099354D01*
X0228500Y0098356D02*
X0242600Y0098356D01*
X0242600Y0097357D02*
X0228500Y0097357D01*
X0228500Y0096359D02*
X0242600Y0096359D01*
X0242751Y0095360D02*
X0228500Y0095360D01*
X0228500Y0094362D02*
X0243164Y0094362D01*
X0244122Y0093363D02*
X0228500Y0093363D01*
X0234146Y0089369D02*
X0246541Y0089369D01*
X0245542Y0088370D02*
X0235145Y0088370D01*
X0235400Y0087372D02*
X0244544Y0087372D01*
X0247205Y0084376D02*
X0282496Y0084376D01*
X0282496Y0083378D02*
X0246206Y0083378D01*
X0245208Y0082379D02*
X0282496Y0082379D01*
X0282496Y0081381D02*
X0244209Y0081381D01*
X0243211Y0080382D02*
X0282496Y0080382D01*
X0282496Y0079384D02*
X0242212Y0079384D01*
X0241214Y0078385D02*
X0282496Y0078385D01*
X0282496Y0077387D02*
X0240215Y0077387D01*
X0239217Y0076388D02*
X0282496Y0076388D01*
X0282496Y0075390D02*
X0238218Y0075390D01*
X0236500Y0076500D02*
X0256500Y0096500D01*
X0254194Y0091366D02*
X0282496Y0091366D01*
X0282496Y0090368D02*
X0253196Y0090368D01*
X0252197Y0089369D02*
X0282496Y0089369D01*
X0282496Y0088370D02*
X0251199Y0088370D01*
X0250200Y0087372D02*
X0282496Y0087372D01*
X0282496Y0086373D02*
X0249202Y0086373D01*
X0248203Y0085375D02*
X0282496Y0085375D01*
X0274122Y0093363D02*
X0268878Y0093363D01*
X0269836Y0094362D02*
X0273164Y0094362D01*
X0272751Y0095360D02*
X0270249Y0095360D01*
X0270400Y0096359D02*
X0272600Y0096359D01*
X0272600Y0097357D02*
X0270400Y0097357D01*
X0270400Y0098356D02*
X0272600Y0098356D01*
X0272600Y0099354D02*
X0270400Y0099354D01*
X0270400Y0100353D02*
X0272600Y0100353D01*
X0272600Y0101351D02*
X0270400Y0101351D01*
X0270287Y0102350D02*
X0272713Y0102350D01*
X0273127Y0103348D02*
X0269873Y0103348D01*
X0268969Y0104347D02*
X0274031Y0104347D01*
X0282496Y0106344D02*
X0228500Y0106344D01*
X0228500Y0107342D02*
X0282496Y0107342D01*
X0282496Y0108341D02*
X0228500Y0108341D01*
X0228500Y0109339D02*
X0282496Y0109339D01*
X0282496Y0074391D02*
X0234907Y0074391D01*
X0233908Y0073393D02*
X0282496Y0073393D01*
X0282496Y0072394D02*
X0218032Y0072394D01*
X0218181Y0071396D02*
X0282496Y0071396D01*
X0282496Y0070397D02*
X0277282Y0070397D01*
X0277276Y0070400D02*
X0275724Y0070400D01*
X0274291Y0069806D01*
X0273194Y0068709D01*
X0272600Y0067276D01*
X0272600Y0060924D01*
X0273194Y0059491D01*
X0274291Y0058394D01*
X0275724Y0057800D01*
X0277276Y0057800D01*
X0278709Y0058394D01*
X0279806Y0059491D01*
X0280400Y0060924D01*
X0280400Y0067276D01*
X0279806Y0068709D01*
X0278709Y0069806D01*
X0277276Y0070400D01*
X0275718Y0070397D02*
X0267282Y0070397D01*
X0267276Y0070400D02*
X0265724Y0070400D01*
X0264291Y0069806D01*
X0263194Y0068709D01*
X0262600Y0067276D01*
X0262600Y0060924D01*
X0263194Y0059491D01*
X0264291Y0058394D01*
X0264500Y0058307D01*
X0264500Y0048225D01*
X0263976Y0048749D01*
X0262267Y0049457D01*
X0260418Y0049457D01*
X0258709Y0048749D01*
X0257401Y0047441D01*
X0256693Y0045732D01*
X0256693Y0043882D01*
X0256799Y0043627D01*
X0256672Y0043500D01*
X0250015Y0043500D01*
X0248115Y0045400D01*
X0244885Y0045400D01*
X0242600Y0043115D01*
X0242600Y0039885D01*
X0244885Y0037600D01*
X0248115Y0037600D01*
X0250015Y0039500D01*
X0257373Y0039500D01*
X0256693Y0037858D01*
X0256693Y0036008D01*
X0257401Y0034299D01*
X0258709Y0032991D01*
X0260418Y0032283D01*
X0262267Y0032283D01*
X0263976Y0032991D01*
X0265284Y0034299D01*
X0265992Y0036008D01*
X0265992Y0037858D01*
X0265610Y0038781D01*
X0268500Y0041672D01*
X0268500Y0058307D01*
X0268709Y0058394D01*
X0269806Y0059491D01*
X0270400Y0060924D01*
X0270400Y0067276D01*
X0269806Y0068709D01*
X0268709Y0069806D01*
X0267276Y0070400D01*
X0265718Y0070397D02*
X0257282Y0070397D01*
X0257276Y0070400D02*
X0255724Y0070400D01*
X0254291Y0069806D01*
X0253194Y0068709D01*
X0252600Y0067276D01*
X0252600Y0060924D01*
X0252745Y0060574D01*
X0248480Y0056308D01*
X0247534Y0056700D01*
X0245466Y0056700D01*
X0243554Y0055908D01*
X0242092Y0054446D01*
X0241300Y0052534D01*
X0241300Y0050466D01*
X0241692Y0049520D01*
X0235672Y0043500D01*
X0230015Y0043500D01*
X0228115Y0045400D01*
X0224885Y0045400D01*
X0222600Y0043115D01*
X0222600Y0039885D01*
X0224885Y0037600D01*
X0228115Y0037600D01*
X0230015Y0039500D01*
X0237328Y0039500D01*
X0244520Y0046692D01*
X0245466Y0046300D01*
X0247534Y0046300D01*
X0249446Y0047092D01*
X0250908Y0048554D01*
X0251700Y0050466D01*
X0251700Y0052534D01*
X0251308Y0053480D01*
X0255656Y0057828D01*
X0255724Y0057800D01*
X0257276Y0057800D01*
X0258709Y0058394D01*
X0259806Y0059491D01*
X0260400Y0060924D01*
X0260400Y0067276D01*
X0259806Y0068709D01*
X0258709Y0069806D01*
X0257276Y0070400D01*
X0255718Y0070397D02*
X0247282Y0070397D01*
X0247276Y0070400D02*
X0245724Y0070400D01*
X0244291Y0069806D01*
X0243194Y0068709D01*
X0242600Y0067276D01*
X0242600Y0060924D01*
X0243194Y0059491D01*
X0244291Y0058394D01*
X0245724Y0057800D01*
X0247276Y0057800D01*
X0248709Y0058394D01*
X0249806Y0059491D01*
X0250400Y0060924D01*
X0250400Y0067276D01*
X0249806Y0068709D01*
X0248709Y0069806D01*
X0247276Y0070400D01*
X0245718Y0070397D02*
X0217945Y0070397D01*
X0217500Y0069399D02*
X0243883Y0069399D01*
X0243066Y0068400D02*
X0217500Y0068400D01*
X0217500Y0067402D02*
X0242652Y0067402D01*
X0242600Y0066403D02*
X0217500Y0066403D01*
X0217500Y0065405D02*
X0242600Y0065405D01*
X0242600Y0064406D02*
X0217500Y0064406D01*
X0217500Y0063408D02*
X0242600Y0063408D01*
X0242600Y0062409D02*
X0217500Y0062409D01*
X0217500Y0061411D02*
X0242600Y0061411D01*
X0242812Y0060412D02*
X0217500Y0060412D01*
X0217500Y0059414D02*
X0243271Y0059414D01*
X0244269Y0058415D02*
X0217500Y0058415D01*
X0217245Y0057417D02*
X0249588Y0057417D01*
X0248731Y0058415D02*
X0250587Y0058415D01*
X0249729Y0059414D02*
X0251585Y0059414D01*
X0252584Y0060412D02*
X0250188Y0060412D01*
X0250400Y0061411D02*
X0252600Y0061411D01*
X0252600Y0062409D02*
X0250400Y0062409D01*
X0250400Y0063408D02*
X0252600Y0063408D01*
X0252600Y0064406D02*
X0250400Y0064406D01*
X0250400Y0065405D02*
X0252600Y0065405D01*
X0252600Y0066403D02*
X0250400Y0066403D01*
X0250348Y0067402D02*
X0252652Y0067402D01*
X0253066Y0068400D02*
X0249934Y0068400D01*
X0249117Y0069399D02*
X0253883Y0069399D01*
X0256500Y0066500D02*
X0256500Y0061500D01*
X0246500Y0051500D01*
X0236500Y0041500D01*
X0226500Y0041500D01*
X0223921Y0044436D02*
X0212500Y0044436D01*
X0212500Y0045434D02*
X0237606Y0045434D01*
X0236608Y0044436D02*
X0229079Y0044436D01*
X0229959Y0039443D02*
X0243041Y0039443D01*
X0242600Y0040442D02*
X0238270Y0040442D01*
X0239269Y0041440D02*
X0242600Y0041440D01*
X0242600Y0042439D02*
X0240267Y0042439D01*
X0241266Y0043437D02*
X0242922Y0043437D01*
X0242264Y0044436D02*
X0243921Y0044436D01*
X0243263Y0045434D02*
X0256693Y0045434D01*
X0256693Y0044436D02*
X0249079Y0044436D01*
X0247855Y0046433D02*
X0256983Y0046433D01*
X0257397Y0047432D02*
X0249785Y0047432D01*
X0250784Y0048430D02*
X0258390Y0048430D01*
X0260350Y0049429D02*
X0251270Y0049429D01*
X0251684Y0050427D02*
X0264500Y0050427D01*
X0264500Y0049429D02*
X0262335Y0049429D01*
X0264295Y0048430D02*
X0264500Y0048430D01*
X0264500Y0051426D02*
X0251700Y0051426D01*
X0251700Y0052424D02*
X0264500Y0052424D01*
X0264500Y0053423D02*
X0251332Y0053423D01*
X0252250Y0054421D02*
X0264500Y0054421D01*
X0264500Y0055420D02*
X0253248Y0055420D01*
X0254247Y0056418D02*
X0264500Y0056418D01*
X0264500Y0057417D02*
X0255245Y0057417D01*
X0258731Y0058415D02*
X0264269Y0058415D01*
X0263271Y0059414D02*
X0259729Y0059414D01*
X0260188Y0060412D02*
X0262812Y0060412D01*
X0262600Y0061411D02*
X0260400Y0061411D01*
X0260400Y0062409D02*
X0262600Y0062409D01*
X0262600Y0063408D02*
X0260400Y0063408D01*
X0260400Y0064406D02*
X0262600Y0064406D01*
X0262600Y0065405D02*
X0260400Y0065405D01*
X0260400Y0066403D02*
X0262600Y0066403D01*
X0262652Y0067402D02*
X0260348Y0067402D01*
X0259934Y0068400D02*
X0263066Y0068400D01*
X0263883Y0069399D02*
X0259117Y0069399D01*
X0266500Y0066500D02*
X0266500Y0042500D01*
X0261500Y0037500D01*
X0261343Y0036933D01*
X0264437Y0033452D02*
X0282496Y0033452D01*
X0282496Y0032454D02*
X0262679Y0032454D01*
X0260006Y0032454D02*
X0215500Y0032454D01*
X0215500Y0033452D02*
X0258248Y0033452D01*
X0257338Y0034451D02*
X0215500Y0034451D01*
X0215500Y0035449D02*
X0256924Y0035449D01*
X0256693Y0036448D02*
X0215500Y0036448D01*
X0215500Y0037446D02*
X0256693Y0037446D01*
X0256936Y0038445D02*
X0248960Y0038445D01*
X0249959Y0039443D02*
X0257350Y0039443D01*
X0257500Y0041500D02*
X0260500Y0044500D01*
X0261343Y0044807D01*
X0257500Y0041500D02*
X0246500Y0041500D01*
X0244040Y0038445D02*
X0228960Y0038445D01*
X0224040Y0038445D02*
X0215383Y0038445D01*
X0214385Y0039443D02*
X0223041Y0039443D01*
X0222600Y0040442D02*
X0213386Y0040442D01*
X0212500Y0041440D02*
X0222600Y0041440D01*
X0222600Y0042439D02*
X0212500Y0042439D01*
X0212500Y0043437D02*
X0222922Y0043437D01*
X0219785Y0047432D02*
X0239603Y0047432D01*
X0240602Y0048430D02*
X0220784Y0048430D01*
X0221270Y0049429D02*
X0241600Y0049429D01*
X0241316Y0050427D02*
X0221684Y0050427D01*
X0221700Y0051426D02*
X0241300Y0051426D01*
X0241300Y0052424D02*
X0221700Y0052424D01*
X0221332Y0053423D02*
X0241668Y0053423D01*
X0242082Y0054421D02*
X0220918Y0054421D01*
X0219934Y0055420D02*
X0243066Y0055420D01*
X0244785Y0056418D02*
X0218215Y0056418D01*
X0211500Y0057500D02*
X0208500Y0054500D01*
X0208500Y0039500D01*
X0211500Y0036500D01*
X0211500Y0033500D01*
X0206500Y0028500D01*
X0073500Y0028500D01*
X0063500Y0038500D01*
X0060722Y0035449D02*
X0003968Y0035449D01*
X0003968Y0034451D02*
X0061721Y0034451D01*
X0062719Y0033452D02*
X0003968Y0033452D01*
X0003968Y0032454D02*
X0063718Y0032454D01*
X0064716Y0031455D02*
X0003968Y0031455D01*
X0003968Y0030457D02*
X0065715Y0030457D01*
X0066713Y0029458D02*
X0003968Y0029458D01*
X0003968Y0028460D02*
X0067712Y0028460D01*
X0068710Y0027461D02*
X0003968Y0027461D01*
X0003968Y0026463D02*
X0069709Y0026463D01*
X0070707Y0025464D02*
X0003968Y0025464D01*
X0003968Y0024466D02*
X0223019Y0024466D01*
X0222600Y0024885D02*
X0224885Y0022600D01*
X0228115Y0022600D01*
X0230400Y0024885D01*
X0230400Y0028115D01*
X0228115Y0030400D01*
X0224885Y0030400D01*
X0222600Y0028115D01*
X0222600Y0024885D01*
X0222600Y0025464D02*
X0209293Y0025464D01*
X0210291Y0026463D02*
X0222600Y0026463D01*
X0222600Y0027461D02*
X0211290Y0027461D01*
X0212288Y0028460D02*
X0222944Y0028460D01*
X0223943Y0029458D02*
X0213287Y0029458D01*
X0214285Y0030457D02*
X0282496Y0030457D01*
X0282496Y0031455D02*
X0215284Y0031455D01*
X0224017Y0023467D02*
X0003968Y0023467D01*
X0003968Y0022469D02*
X0282496Y0022469D01*
X0282496Y0023467D02*
X0248983Y0023467D01*
X0248115Y0022600D02*
X0244885Y0022600D01*
X0242600Y0024885D01*
X0242600Y0028115D01*
X0244885Y0030400D01*
X0248115Y0030400D01*
X0250400Y0028115D01*
X0250400Y0024885D01*
X0248115Y0022600D01*
X0249981Y0024466D02*
X0282496Y0024466D01*
X0282496Y0025464D02*
X0250400Y0025464D01*
X0250400Y0026463D02*
X0282496Y0026463D01*
X0282496Y0027461D02*
X0250400Y0027461D01*
X0250056Y0028460D02*
X0282496Y0028460D01*
X0282496Y0029458D02*
X0249057Y0029458D01*
X0243943Y0029458D02*
X0229057Y0029458D01*
X0230056Y0028460D02*
X0242944Y0028460D01*
X0242600Y0027461D02*
X0230400Y0027461D01*
X0230400Y0026463D02*
X0242600Y0026463D01*
X0242600Y0025464D02*
X0230400Y0025464D01*
X0229981Y0024466D02*
X0243019Y0024466D01*
X0244017Y0023467D02*
X0228983Y0023467D01*
X0238605Y0046433D02*
X0217855Y0046433D01*
X0215145Y0046433D02*
X0212500Y0046433D01*
X0212500Y0047432D02*
X0213215Y0047432D01*
X0211500Y0057500D02*
X0211500Y0066500D01*
X0217399Y0073393D02*
X0229092Y0073393D01*
X0231500Y0076500D02*
X0236500Y0076500D01*
X0236555Y0079384D02*
X0234132Y0079384D01*
X0233133Y0080382D02*
X0237554Y0080382D01*
X0248215Y0056418D02*
X0248590Y0056418D01*
X0245145Y0046433D02*
X0244261Y0046433D01*
X0265749Y0038445D02*
X0282496Y0038445D01*
X0282496Y0039443D02*
X0266272Y0039443D01*
X0267270Y0040442D02*
X0282496Y0040442D01*
X0282496Y0041440D02*
X0268269Y0041440D01*
X0268500Y0042439D02*
X0282496Y0042439D01*
X0282496Y0043437D02*
X0268500Y0043437D01*
X0268500Y0044436D02*
X0282496Y0044436D01*
X0282496Y0045434D02*
X0268500Y0045434D01*
X0268500Y0046433D02*
X0282496Y0046433D01*
X0282496Y0047432D02*
X0268500Y0047432D01*
X0268500Y0048430D02*
X0282496Y0048430D01*
X0282496Y0049429D02*
X0268500Y0049429D01*
X0268500Y0050427D02*
X0282496Y0050427D01*
X0282496Y0051426D02*
X0268500Y0051426D01*
X0268500Y0052424D02*
X0282496Y0052424D01*
X0282496Y0053423D02*
X0268500Y0053423D01*
X0268500Y0054421D02*
X0282496Y0054421D01*
X0282496Y0055420D02*
X0268500Y0055420D01*
X0268500Y0056418D02*
X0282496Y0056418D01*
X0282496Y0057417D02*
X0268500Y0057417D01*
X0268731Y0058415D02*
X0274269Y0058415D01*
X0273271Y0059414D02*
X0269729Y0059414D01*
X0270188Y0060412D02*
X0272812Y0060412D01*
X0272600Y0061411D02*
X0270400Y0061411D01*
X0270400Y0062409D02*
X0272600Y0062409D01*
X0272600Y0063408D02*
X0270400Y0063408D01*
X0270400Y0064406D02*
X0272600Y0064406D01*
X0272600Y0065405D02*
X0270400Y0065405D01*
X0270400Y0066403D02*
X0272600Y0066403D01*
X0272652Y0067402D02*
X0270348Y0067402D01*
X0269934Y0068400D02*
X0273066Y0068400D01*
X0273883Y0069399D02*
X0269117Y0069399D01*
X0279117Y0069399D02*
X0282496Y0069399D01*
X0282496Y0068400D02*
X0279934Y0068400D01*
X0280348Y0067402D02*
X0282496Y0067402D01*
X0282496Y0066403D02*
X0280400Y0066403D01*
X0280400Y0065405D02*
X0282496Y0065405D01*
X0282496Y0064406D02*
X0280400Y0064406D01*
X0280400Y0063408D02*
X0282496Y0063408D01*
X0282496Y0062409D02*
X0280400Y0062409D01*
X0280400Y0061411D02*
X0282496Y0061411D01*
X0282496Y0060412D02*
X0280188Y0060412D01*
X0279729Y0059414D02*
X0282496Y0059414D01*
X0282496Y0058415D02*
X0278731Y0058415D01*
X0282496Y0037446D02*
X0265992Y0037446D01*
X0265992Y0036448D02*
X0282496Y0036448D01*
X0282496Y0035449D02*
X0265761Y0035449D01*
X0265347Y0034451D02*
X0282496Y0034451D01*
X0282496Y0021470D02*
X0276367Y0021470D01*
X0274898Y0022079D02*
X0271410Y0022079D01*
X0268187Y0020744D01*
X0265721Y0018278D01*
X0264386Y0015055D01*
X0264386Y0011567D01*
X0265721Y0008345D01*
X0268187Y0005878D01*
X0271410Y0004543D01*
X0274898Y0004543D01*
X0278120Y0005878D01*
X0280586Y0008345D01*
X0281921Y0011567D01*
X0281921Y0015055D01*
X0280586Y0018278D01*
X0278120Y0020744D01*
X0274898Y0022079D01*
X0269940Y0021470D02*
X0177941Y0021470D01*
X0176472Y0022079D02*
X0179695Y0020744D01*
X0182161Y0018278D01*
X0183496Y0015055D01*
X0183496Y0011567D01*
X0182161Y0008345D01*
X0179695Y0005878D01*
X0176472Y0004543D01*
X0172984Y0004543D01*
X0169762Y0005878D01*
X0167295Y0008345D01*
X0165961Y0011567D01*
X0165961Y0015055D01*
X0167295Y0018278D01*
X0169762Y0020744D01*
X0172984Y0022079D01*
X0176472Y0022079D01*
X0179967Y0020472D02*
X0267915Y0020472D01*
X0266916Y0019473D02*
X0180966Y0019473D01*
X0181964Y0018475D02*
X0265918Y0018475D01*
X0265389Y0017476D02*
X0182493Y0017476D01*
X0182907Y0016478D02*
X0264975Y0016478D01*
X0264562Y0015479D02*
X0183320Y0015479D01*
X0183496Y0014481D02*
X0264386Y0014481D01*
X0264386Y0013482D02*
X0183496Y0013482D01*
X0183496Y0012484D02*
X0264386Y0012484D01*
X0264420Y0011485D02*
X0183462Y0011485D01*
X0183049Y0010487D02*
X0264833Y0010487D01*
X0265247Y0009488D02*
X0182635Y0009488D01*
X0182221Y0008490D02*
X0265661Y0008490D01*
X0266574Y0007491D02*
X0181308Y0007491D01*
X0180309Y0006493D02*
X0267573Y0006493D01*
X0269114Y0005494D02*
X0178768Y0005494D01*
X0170689Y0005494D02*
X0017350Y0005494D01*
X0018278Y0005878D02*
X0020744Y0008345D01*
X0022079Y0011567D01*
X0022079Y0015055D01*
X0020744Y0018278D01*
X0018278Y0020744D01*
X0015055Y0022079D01*
X0011567Y0022079D01*
X0008345Y0020744D01*
X0005878Y0018278D01*
X0004543Y0015055D01*
X0004543Y0011567D01*
X0005878Y0008345D01*
X0008345Y0005878D01*
X0011567Y0004543D01*
X0015055Y0004543D01*
X0018278Y0005878D01*
X0018892Y0006493D02*
X0169147Y0006493D01*
X0168149Y0007491D02*
X0019890Y0007491D01*
X0020804Y0008490D02*
X0167235Y0008490D01*
X0166822Y0009488D02*
X0021218Y0009488D01*
X0021631Y0010487D02*
X0166408Y0010487D01*
X0165995Y0011485D02*
X0022045Y0011485D01*
X0022079Y0012484D02*
X0165961Y0012484D01*
X0165961Y0013482D02*
X0022079Y0013482D01*
X0022079Y0014481D02*
X0165961Y0014481D01*
X0166136Y0015479D02*
X0021903Y0015479D01*
X0021489Y0016478D02*
X0166550Y0016478D01*
X0166964Y0017476D02*
X0021076Y0017476D01*
X0020547Y0018475D02*
X0167493Y0018475D01*
X0168491Y0019473D02*
X0019548Y0019473D01*
X0018550Y0020472D02*
X0169490Y0020472D01*
X0171515Y0021470D02*
X0016524Y0021470D01*
X0010098Y0021470D02*
X0003968Y0021470D01*
X0003968Y0020472D02*
X0008072Y0020472D01*
X0007074Y0019473D02*
X0003968Y0019473D01*
X0003968Y0018475D02*
X0006075Y0018475D01*
X0005546Y0017476D02*
X0003968Y0017476D01*
X0003968Y0016478D02*
X0005133Y0016478D01*
X0004719Y0015479D02*
X0003968Y0015479D01*
X0003968Y0014481D02*
X0004543Y0014481D01*
X0004543Y0013482D02*
X0003968Y0013482D01*
X0003968Y0012484D02*
X0004543Y0012484D01*
X0004577Y0011485D02*
X0003968Y0011485D01*
X0003968Y0010487D02*
X0004991Y0010487D01*
X0005404Y0009488D02*
X0003968Y0009488D01*
X0003968Y0008490D02*
X0005818Y0008490D01*
X0006732Y0007491D02*
X0003968Y0007491D01*
X0003968Y0006493D02*
X0007730Y0006493D01*
X0009272Y0005494D02*
X0003968Y0005494D01*
X0003968Y0004496D02*
X0282496Y0004496D01*
X0282496Y0005494D02*
X0277193Y0005494D01*
X0278734Y0006493D02*
X0282496Y0006493D01*
X0282496Y0007491D02*
X0279733Y0007491D01*
X0280647Y0008490D02*
X0282496Y0008490D01*
X0282496Y0009488D02*
X0281060Y0009488D01*
X0281474Y0010487D02*
X0282496Y0010487D01*
X0282496Y0011485D02*
X0281887Y0011485D01*
X0281921Y0012484D02*
X0282496Y0012484D01*
X0282496Y0013482D02*
X0281921Y0013482D01*
X0281921Y0014481D02*
X0282496Y0014481D01*
X0282496Y0015479D02*
X0281746Y0015479D01*
X0281332Y0016478D02*
X0282496Y0016478D01*
X0282496Y0017476D02*
X0280918Y0017476D01*
X0280389Y0018475D02*
X0282496Y0018475D01*
X0282496Y0019473D02*
X0279391Y0019473D01*
X0278392Y0020472D02*
X0282496Y0020472D01*
X0206224Y0035161D02*
X0205500Y0035500D01*
X0201500Y0039500D01*
X0201500Y0051500D01*
X0188500Y0055500D02*
X0153500Y0055500D01*
X0180500Y0057500D02*
X0189500Y0066500D01*
X0191500Y0066500D01*
X0199500Y0066500D02*
X0188500Y0055500D01*
X0188500Y0044500D02*
X0197500Y0035500D01*
X0198350Y0035161D01*
X0202218Y0032454D02*
X0202356Y0032454D01*
X0203355Y0031455D02*
X0201220Y0031455D01*
X0195481Y0031455D02*
X0193286Y0031455D01*
X0194256Y0032454D02*
X0194482Y0032454D01*
X0199500Y0066500D02*
X0201500Y0066500D01*
X0237883Y0111336D02*
X0245117Y0111336D01*
X0243170Y0112335D02*
X0239830Y0112335D01*
X0240829Y0113333D02*
X0242171Y0113333D01*
X0241661Y0114332D02*
X0241339Y0114332D01*
X0268086Y0164257D02*
X0282496Y0164257D01*
X0282496Y0165256D02*
X0269084Y0165256D01*
X0270083Y0166254D02*
X0282496Y0166254D01*
X0282496Y0167253D02*
X0271081Y0167253D01*
X0272080Y0168251D02*
X0282496Y0168251D01*
X0282496Y0169250D02*
X0273078Y0169250D01*
X0274077Y0170248D02*
X0282496Y0170248D01*
X0282496Y0171247D02*
X0275075Y0171247D01*
X0277037Y0172245D02*
X0282496Y0172245D01*
X0282496Y0173244D02*
X0277882Y0173244D01*
X0278181Y0174242D02*
X0282496Y0174242D01*
X0282496Y0175241D02*
X0278095Y0175241D01*
X0277552Y0176239D02*
X0282496Y0176239D01*
X0272500Y0174500D02*
X0266500Y0168500D01*
X0254500Y0168500D01*
X0239819Y0171247D02*
X0237668Y0171247D01*
X0239741Y0172245D02*
X0239907Y0172245D01*
X0235332Y0171247D02*
X0227668Y0171247D01*
X0229741Y0172245D02*
X0233259Y0172245D01*
X0232261Y0173244D02*
X0230739Y0173244D01*
X0231302Y0174242D02*
X0231698Y0174242D01*
X0276500Y0191500D02*
X0276500Y0195500D01*
X0202026Y0239146D02*
X0163683Y0239146D01*
X0162684Y0240144D02*
X0201027Y0240144D01*
X0200672Y0238147D02*
X0196028Y0238147D01*
X0197624Y0237149D02*
X0199077Y0237149D01*
X0186050Y0255122D02*
X0066000Y0255122D01*
X0065700Y0256120D02*
X0185051Y0256120D01*
X0184053Y0257119D02*
X0065245Y0257119D01*
X0048753Y0258117D02*
X0044177Y0258117D01*
X0045160Y0257119D02*
X0047755Y0257119D01*
X0047300Y0256120D02*
X0045705Y0256120D01*
X0045958Y0255122D02*
X0047000Y0255122D01*
X0047000Y0254123D02*
X0046000Y0254123D01*
X0046000Y0253125D02*
X0047000Y0253125D01*
X0047000Y0252126D02*
X0046000Y0252126D01*
X0047000Y0251128D02*
X0042000Y0251128D01*
X0042000Y0252126D02*
X0041000Y0252126D01*
X0041000Y0251128D02*
X0036000Y0251128D01*
X0036000Y0252126D02*
X0037000Y0252126D01*
X0037000Y0253125D02*
X0036000Y0253125D01*
X0036000Y0254123D02*
X0037000Y0254123D01*
X0037042Y0255122D02*
X0036000Y0255122D01*
X0035700Y0256120D02*
X0037295Y0256120D01*
X0037840Y0257119D02*
X0035245Y0257119D01*
X0034247Y0258117D02*
X0038823Y0258117D01*
X0041000Y0258117D02*
X0042000Y0258117D01*
X0042000Y0257119D02*
X0041000Y0257119D01*
X0041000Y0256120D02*
X0042000Y0256120D01*
X0042000Y0255122D02*
X0041000Y0255122D01*
X0041000Y0254123D02*
X0042000Y0254123D01*
X0042000Y0253125D02*
X0041000Y0253125D01*
X0041000Y0250129D02*
X0042000Y0250129D01*
X0042000Y0249131D02*
X0041000Y0249131D01*
X0041000Y0248132D02*
X0042000Y0248132D01*
X0042000Y0247134D02*
X0041000Y0247134D01*
X0041000Y0246135D02*
X0042000Y0246135D01*
X0042000Y0245137D02*
X0041000Y0245137D01*
X0038499Y0245137D02*
X0034501Y0245137D01*
X0035391Y0246135D02*
X0037656Y0246135D01*
X0037212Y0247134D02*
X0035805Y0247134D01*
X0036000Y0248132D02*
X0037002Y0248132D01*
X0037000Y0249131D02*
X0036000Y0249131D01*
X0036000Y0250129D02*
X0037000Y0250129D01*
X0044501Y0245137D02*
X0048499Y0245137D01*
X0047609Y0246135D02*
X0045344Y0246135D01*
X0045788Y0247134D02*
X0047195Y0247134D01*
X0047000Y0248132D02*
X0045998Y0248132D01*
X0046000Y0249131D02*
X0047000Y0249131D01*
X0047000Y0250129D02*
X0046000Y0250129D01*
X0049359Y0211187D02*
X0003968Y0211187D01*
X0003968Y0210189D02*
X0048360Y0210189D01*
X0047362Y0209190D02*
X0003968Y0209190D01*
X0003968Y0208192D02*
X0031149Y0208192D01*
X0031409Y0208299D02*
X0028476Y0207084D01*
X0026231Y0204839D01*
X0025016Y0201906D01*
X0025016Y0198732D01*
X0026231Y0195798D01*
X0028476Y0193554D01*
X0031409Y0192339D01*
X0034583Y0192339D01*
X0037517Y0193554D01*
X0039761Y0195798D01*
X0040976Y0198732D01*
X0040976Y0201906D01*
X0039761Y0204839D01*
X0037517Y0207084D01*
X0034583Y0208299D01*
X0031409Y0208299D01*
X0028739Y0207193D02*
X0003968Y0207193D01*
X0003968Y0206195D02*
X0027586Y0206195D01*
X0026588Y0205196D02*
X0003968Y0205196D01*
X0003968Y0204198D02*
X0025965Y0204198D01*
X0025551Y0203199D02*
X0003968Y0203199D01*
X0003968Y0202201D02*
X0025138Y0202201D01*
X0025016Y0201202D02*
X0003968Y0201202D01*
X0003968Y0200204D02*
X0025016Y0200204D01*
X0025016Y0199205D02*
X0003968Y0199205D01*
X0003968Y0198207D02*
X0025233Y0198207D01*
X0025647Y0197208D02*
X0003968Y0197208D01*
X0003968Y0196210D02*
X0026060Y0196210D01*
X0026818Y0195211D02*
X0003968Y0195211D01*
X0003968Y0194213D02*
X0027816Y0194213D01*
X0029295Y0193214D02*
X0003968Y0193214D01*
X0003968Y0192216D02*
X0042500Y0192216D01*
X0042500Y0193214D02*
X0036697Y0193214D01*
X0038176Y0194213D02*
X0042500Y0194213D01*
X0042500Y0195211D02*
X0039174Y0195211D01*
X0039932Y0196210D02*
X0042500Y0196210D01*
X0042500Y0197208D02*
X0040345Y0197208D01*
X0040759Y0198207D02*
X0042500Y0198207D01*
X0042500Y0199205D02*
X0040976Y0199205D01*
X0040976Y0200204D02*
X0042500Y0200204D01*
X0042500Y0201202D02*
X0040976Y0201202D01*
X0040854Y0202201D02*
X0042500Y0202201D01*
X0042500Y0203199D02*
X0040441Y0203199D01*
X0040027Y0204198D02*
X0042500Y0204198D01*
X0043368Y0205196D02*
X0039405Y0205196D01*
X0038406Y0206195D02*
X0044366Y0206195D01*
X0045365Y0207193D02*
X0037253Y0207193D01*
X0034843Y0208192D02*
X0046363Y0208192D01*
X0042500Y0191217D02*
X0003968Y0191217D01*
X0003968Y0190219D02*
X0042500Y0190219D01*
X0042500Y0189220D02*
X0003968Y0189220D01*
X0003968Y0188222D02*
X0042500Y0188222D01*
X0042500Y0187223D02*
X0003968Y0187223D01*
X0003968Y0186225D02*
X0042500Y0186225D01*
X0042945Y0185226D02*
X0003968Y0185226D01*
X0003968Y0184228D02*
X0043944Y0184228D01*
X0044943Y0183229D02*
X0003968Y0183229D01*
X0003968Y0161262D02*
X0030564Y0161262D01*
X0029657Y0160263D02*
X0003968Y0160263D01*
X0003968Y0159265D02*
X0018436Y0159265D01*
X0017438Y0158266D02*
X0003968Y0158266D01*
X0003968Y0157268D02*
X0016439Y0157268D01*
X0015441Y0156269D02*
X0003968Y0156269D01*
X0003968Y0155271D02*
X0014442Y0155271D01*
X0013444Y0154272D02*
X0003968Y0154272D01*
X0003968Y0153274D02*
X0012445Y0153274D01*
X0011447Y0152275D02*
X0003968Y0152275D01*
X0003968Y0151277D02*
X0010448Y0151277D01*
X0009450Y0150278D02*
X0003968Y0150278D01*
X0003968Y0149280D02*
X0008451Y0149280D01*
X0007453Y0148281D02*
X0003968Y0148281D01*
X0003968Y0147283D02*
X0006500Y0147283D01*
X0006500Y0146284D02*
X0003968Y0146284D01*
X0003968Y0145286D02*
X0006500Y0145286D01*
X0006500Y0144287D02*
X0003968Y0144287D01*
X0003968Y0143289D02*
X0006500Y0143289D01*
X0006500Y0142290D02*
X0003968Y0142290D01*
X0003968Y0141292D02*
X0006500Y0141292D01*
X0006500Y0140293D02*
X0003968Y0140293D01*
X0003968Y0139295D02*
X0006500Y0139295D01*
X0006500Y0138296D02*
X0003968Y0138296D01*
X0003968Y0137298D02*
X0006500Y0137298D01*
X0006500Y0136299D02*
X0003968Y0136299D01*
X0003968Y0135301D02*
X0006500Y0135301D01*
X0006500Y0134302D02*
X0003968Y0134302D01*
X0003968Y0133303D02*
X0006500Y0133303D01*
X0006500Y0132305D02*
X0003968Y0132305D01*
X0003968Y0131306D02*
X0006500Y0131306D01*
X0006500Y0130308D02*
X0003968Y0130308D01*
X0003968Y0129309D02*
X0006500Y0129309D01*
X0006500Y0128311D02*
X0003968Y0128311D01*
X0003968Y0127312D02*
X0006500Y0127312D01*
X0006500Y0126314D02*
X0003968Y0126314D01*
X0003968Y0125315D02*
X0006500Y0125315D01*
X0006500Y0124317D02*
X0003968Y0124317D01*
X0003968Y0123318D02*
X0006500Y0123318D01*
X0006500Y0122320D02*
X0003968Y0122320D01*
X0003968Y0121321D02*
X0006500Y0121321D01*
X0006500Y0120323D02*
X0003968Y0120323D01*
X0003968Y0119324D02*
X0006500Y0119324D01*
X0006500Y0118326D02*
X0003968Y0118326D01*
X0003968Y0117327D02*
X0006500Y0117327D01*
X0006500Y0116329D02*
X0003968Y0116329D01*
X0003968Y0115330D02*
X0006500Y0115330D01*
X0006500Y0114332D02*
X0003968Y0114332D01*
X0003968Y0113333D02*
X0006500Y0113333D01*
X0006500Y0112335D02*
X0003968Y0112335D01*
X0003968Y0111336D02*
X0006500Y0111336D01*
X0006500Y0110338D02*
X0003968Y0110338D01*
X0003968Y0109339D02*
X0006500Y0109339D01*
X0006500Y0108341D02*
X0003968Y0108341D01*
X0003968Y0107342D02*
X0006500Y0107342D01*
X0006500Y0106344D02*
X0003968Y0106344D01*
X0003968Y0105345D02*
X0006500Y0105345D01*
X0006500Y0104347D02*
X0003968Y0104347D01*
X0003968Y0103348D02*
X0006500Y0103348D01*
X0006500Y0102350D02*
X0003968Y0102350D01*
X0003968Y0101351D02*
X0006500Y0101351D01*
X0006500Y0100353D02*
X0003968Y0100353D01*
X0003968Y0099354D02*
X0006500Y0099354D01*
X0006500Y0098356D02*
X0003968Y0098356D01*
X0003968Y0097357D02*
X0006500Y0097357D01*
X0006500Y0096359D02*
X0003968Y0096359D01*
X0003968Y0095360D02*
X0006500Y0095360D01*
X0006810Y0094362D02*
X0003968Y0094362D01*
X0003968Y0093363D02*
X0007809Y0093363D01*
X0008807Y0092365D02*
X0003968Y0092365D01*
X0003968Y0091366D02*
X0009806Y0091366D01*
X0010804Y0090368D02*
X0003968Y0090368D01*
X0003968Y0089369D02*
X0011803Y0089369D01*
X0012801Y0088370D02*
X0003968Y0088370D01*
X0003968Y0087372D02*
X0013800Y0087372D01*
X0014798Y0086373D02*
X0003968Y0086373D01*
X0003968Y0085375D02*
X0015797Y0085375D01*
X0016795Y0084376D02*
X0003968Y0084376D01*
X0003968Y0083378D02*
X0017794Y0083378D01*
X0018792Y0082379D02*
X0003968Y0082379D01*
X0003968Y0081381D02*
X0019791Y0081381D01*
X0020789Y0080382D02*
X0003968Y0080382D01*
X0003968Y0079384D02*
X0021788Y0079384D01*
X0022786Y0078385D02*
X0003968Y0078385D01*
X0003968Y0077387D02*
X0023785Y0077387D01*
X0024783Y0076388D02*
X0003968Y0076388D01*
X0003968Y0075390D02*
X0025782Y0075390D01*
X0026780Y0074391D02*
X0003968Y0074391D01*
X0003968Y0073393D02*
X0027779Y0073393D01*
X0028777Y0072394D02*
X0003968Y0072394D01*
X0003968Y0071396D02*
X0029776Y0071396D01*
X0030774Y0070397D02*
X0003968Y0070397D01*
X0003968Y0069399D02*
X0031773Y0069399D01*
X0032771Y0068400D02*
X0003968Y0068400D01*
X0003968Y0067402D02*
X0033770Y0067402D01*
X0034768Y0066403D02*
X0003968Y0066403D01*
X0003968Y0065405D02*
X0035767Y0065405D01*
X0036765Y0064406D02*
X0003968Y0064406D01*
X0003968Y0063408D02*
X0037764Y0063408D01*
X0038762Y0062409D02*
X0003968Y0062409D01*
X0003968Y0061411D02*
X0039761Y0061411D01*
X0040759Y0060412D02*
X0003968Y0060412D01*
X0003968Y0059414D02*
X0041758Y0059414D01*
X0054820Y0048430D02*
X0003968Y0048430D01*
X0003968Y0047432D02*
X0055456Y0047432D01*
X0056454Y0046433D02*
X0003968Y0046433D01*
X0003968Y0043437D02*
X0056710Y0043437D01*
X0055712Y0042439D02*
X0003968Y0042439D01*
X0003968Y0041440D02*
X0054820Y0041440D01*
X0054820Y0040442D02*
X0003968Y0040442D01*
X0003968Y0039443D02*
X0054820Y0039443D01*
X0054820Y0038445D02*
X0003968Y0038445D01*
X0003968Y0037446D02*
X0055441Y0037446D01*
X0056439Y0036448D02*
X0003968Y0036448D01*
X0045458Y0088370D02*
X0045687Y0088370D01*
X0046101Y0089369D02*
X0044459Y0089369D01*
X0043461Y0090368D02*
X0046515Y0090368D01*
X0047077Y0091366D02*
X0042462Y0091366D01*
X0041464Y0092365D02*
X0048075Y0092365D01*
X0049074Y0093363D02*
X0040465Y0093363D01*
X0039467Y0094362D02*
X0051180Y0094362D01*
X0041285Y0104347D02*
X0024707Y0104347D01*
X0025706Y0105345D02*
X0040286Y0105345D01*
X0039288Y0106344D02*
X0026704Y0106344D01*
X0027703Y0107342D02*
X0038289Y0107342D01*
X0037291Y0108341D02*
X0028701Y0108341D01*
X0028984Y0109339D02*
X0037008Y0109339D01*
X0037008Y0110338D02*
X0028984Y0110338D01*
X0028984Y0111336D02*
X0037008Y0111336D01*
X0037008Y0113333D02*
X0028984Y0113333D01*
X0028984Y0114332D02*
X0037008Y0114332D01*
X0037253Y0115330D02*
X0028739Y0115330D01*
X0027740Y0116329D02*
X0038252Y0116329D01*
X0039250Y0117327D02*
X0026742Y0117327D01*
X0025743Y0118326D02*
X0040249Y0118326D01*
X0041247Y0119324D02*
X0024745Y0119324D01*
X0022150Y0121321D02*
X0048500Y0121321D01*
X0048500Y0122320D02*
X0023148Y0122320D01*
X0024147Y0123318D02*
X0048500Y0123318D01*
X0048500Y0124317D02*
X0025145Y0124317D01*
X0026144Y0125315D02*
X0030451Y0125315D01*
X0029610Y0126314D02*
X0027142Y0126314D01*
X0028141Y0127312D02*
X0029197Y0127312D01*
X0035541Y0125315D02*
X0048500Y0125315D01*
X0048500Y0126314D02*
X0036382Y0126314D01*
X0036795Y0127312D02*
X0048500Y0127312D01*
X0048500Y0128311D02*
X0036858Y0128311D01*
X0036730Y0129309D02*
X0048500Y0129309D01*
X0048500Y0130308D02*
X0047345Y0130308D01*
X0048165Y0131306D02*
X0048500Y0131306D01*
X0045094Y0131306D02*
X0044520Y0131306D01*
X0044520Y0130308D02*
X0045094Y0130308D01*
X0044520Y0129370D02*
X0044520Y0132945D01*
X0040945Y0132945D01*
X0040945Y0132852D01*
X0041093Y0132106D01*
X0041384Y0131403D01*
X0041807Y0130770D01*
X0042345Y0130232D01*
X0042978Y0129810D01*
X0043681Y0129519D01*
X0044427Y0129370D01*
X0044520Y0129370D01*
X0042269Y0130308D02*
X0036317Y0130308D01*
X0035384Y0131306D02*
X0041449Y0131306D01*
X0041054Y0132305D02*
X0036133Y0132305D01*
X0037132Y0133303D02*
X0044520Y0133303D01*
X0044520Y0132305D02*
X0045094Y0132305D01*
X0041082Y0134302D02*
X0038130Y0134302D01*
X0039129Y0135301D02*
X0041544Y0135301D01*
X0042445Y0136299D02*
X0039500Y0136299D01*
X0039500Y0137298D02*
X0043874Y0137298D01*
X0043500Y0138296D02*
X0039500Y0138296D01*
X0039500Y0139295D02*
X0043500Y0139295D01*
X0042284Y0140293D02*
X0039500Y0140293D01*
X0038537Y0141292D02*
X0041431Y0141292D01*
X0036783Y0147283D02*
X0052831Y0147283D01*
X0052756Y0148281D02*
X0036858Y0148281D01*
X0036743Y0149280D02*
X0052872Y0149280D01*
X0053245Y0146284D02*
X0047217Y0146284D01*
X0046500Y0148500D02*
X0049500Y0151500D01*
X0049500Y0170500D01*
X0045500Y0174500D01*
X0045307Y0175241D02*
X0044307Y0175241D01*
X0044307Y0176239D02*
X0045307Y0176239D01*
X0045307Y0177238D02*
X0044307Y0177238D01*
X0044307Y0178237D02*
X0045307Y0178237D01*
X0045307Y0179235D02*
X0044307Y0179235D01*
X0044307Y0180234D02*
X0045307Y0180234D01*
X0045307Y0181232D02*
X0044307Y0181232D01*
X0044307Y0182231D02*
X0045307Y0182231D01*
X0052606Y0175241D02*
X0052931Y0175241D01*
X0054186Y0161262D02*
X0035429Y0161262D01*
X0036335Y0160263D02*
X0053279Y0160263D01*
X0052865Y0159265D02*
X0036749Y0159265D01*
X0036858Y0158266D02*
X0052756Y0158266D01*
X0052837Y0157268D02*
X0036777Y0157268D01*
X0036363Y0156269D02*
X0042382Y0156269D01*
X0044500Y0153500D02*
X0044807Y0153232D01*
X0044500Y0153500D02*
X0026500Y0153500D01*
X0022500Y0157500D01*
X0023564Y0159265D02*
X0029243Y0159265D01*
X0029134Y0158266D02*
X0024562Y0158266D01*
X0025561Y0157268D02*
X0029215Y0157268D01*
X0029629Y0156269D02*
X0026559Y0156269D01*
X0035414Y0151277D02*
X0041437Y0151277D01*
X0042299Y0150278D02*
X0036329Y0150278D01*
X0047232Y0156269D02*
X0053251Y0156269D01*
X0054118Y0155271D02*
X0048143Y0155271D01*
X0059036Y0151277D02*
X0062500Y0151277D01*
X0062500Y0150278D02*
X0059951Y0150278D01*
X0060365Y0149280D02*
X0062500Y0149280D01*
X0062500Y0148281D02*
X0060480Y0148281D01*
X0060405Y0147283D02*
X0062500Y0147283D01*
X0062500Y0146284D02*
X0059992Y0146284D01*
X0059133Y0145286D02*
X0062500Y0145286D01*
X0052825Y0137298D02*
X0049531Y0137298D01*
X0050529Y0136299D02*
X0053238Y0136299D01*
X0053472Y0135301D02*
X0051528Y0135301D01*
X0057510Y0123318D02*
X0077803Y0123318D01*
X0077600Y0122320D02*
X0058509Y0122320D01*
X0067500Y0124317D02*
X0078801Y0124317D01*
X0081500Y0111500D02*
X0098500Y0128500D01*
X0114229Y0126314D02*
X0118771Y0126314D01*
X0118019Y0127312D02*
X0114981Y0127312D01*
X0115394Y0128311D02*
X0117605Y0128311D01*
X0117600Y0129309D02*
X0115400Y0129309D01*
X0115400Y0130308D02*
X0117600Y0130308D01*
X0117600Y0131306D02*
X0115400Y0131306D01*
X0115400Y0132305D02*
X0117600Y0132305D01*
X0117600Y0133303D02*
X0115400Y0133303D01*
X0115400Y0134302D02*
X0117600Y0134302D01*
X0117859Y0135301D02*
X0115141Y0135301D01*
X0114616Y0136299D02*
X0118384Y0136299D01*
X0119511Y0137298D02*
X0113489Y0137298D01*
X0123489Y0137298D02*
X0129511Y0137298D01*
X0128384Y0136299D02*
X0124616Y0136299D01*
X0125141Y0135301D02*
X0127859Y0135301D01*
X0127600Y0134302D02*
X0125400Y0134302D01*
X0125400Y0133303D02*
X0127600Y0133303D01*
X0127600Y0132305D02*
X0125400Y0132305D01*
X0125400Y0131306D02*
X0127600Y0131306D01*
X0127600Y0130308D02*
X0125400Y0130308D01*
X0125400Y0129309D02*
X0127600Y0129309D01*
X0127605Y0128311D02*
X0125394Y0128311D01*
X0124981Y0127312D02*
X0128019Y0127312D01*
X0128771Y0126314D02*
X0124229Y0126314D01*
X0128710Y0121321D02*
X0134290Y0121321D01*
X0132828Y0120323D02*
X0130172Y0120323D01*
X0131067Y0119324D02*
X0131933Y0119324D01*
X0131520Y0118326D02*
X0131480Y0118326D01*
X0131339Y0114332D02*
X0131661Y0114332D01*
X0132171Y0113333D02*
X0130829Y0113333D01*
X0129830Y0112335D02*
X0133170Y0112335D01*
X0135117Y0111336D02*
X0127883Y0111336D01*
X0137883Y0111336D02*
X0145117Y0111336D01*
X0143170Y0112335D02*
X0139830Y0112335D01*
X0140829Y0113333D02*
X0142171Y0113333D01*
X0141661Y0114332D02*
X0141339Y0114332D01*
X0141480Y0118326D02*
X0141520Y0118326D01*
X0141933Y0119324D02*
X0141067Y0119324D01*
X0140172Y0120323D02*
X0142828Y0120323D01*
X0144290Y0121321D02*
X0138710Y0121321D01*
X0149500Y0131500D02*
X0151500Y0131500D01*
X0181500Y0159500D02*
X0181500Y0161500D01*
X0178072Y0212186D02*
X0160400Y0212186D01*
X0160500Y0213184D02*
X0177658Y0213184D01*
X0107600Y0163259D02*
X0105533Y0163259D01*
X0106087Y0162260D02*
X0107600Y0162260D01*
X0107600Y0161262D02*
X0106567Y0161262D01*
X0107565Y0160263D02*
X0107600Y0160263D01*
X0104904Y0157268D02*
X0102500Y0157268D01*
X0102500Y0158266D02*
X0103905Y0158266D01*
X0104075Y0171247D02*
X0105332Y0171247D01*
X0093500Y0096500D02*
X0091500Y0096500D01*
X0084500Y0084500D02*
X0093500Y0075500D01*
D21*
X0093500Y0083500D03*
X0084500Y0084500D03*
X0063500Y0065500D03*
X0063500Y0057500D03*
X0072500Y0062500D03*
X0095500Y0053500D03*
X0112500Y0035500D03*
X0138500Y0047500D03*
X0116500Y0073500D03*
X0126500Y0076500D03*
X0153500Y0124500D03*
X0182500Y0154500D03*
X0191500Y0196500D03*
X0242500Y0171500D03*
X0254500Y0168500D03*
X0275500Y0174500D03*
X0223500Y0096500D03*
X0215500Y0071500D03*
X0106500Y0154500D03*
X0103500Y0161500D03*
X0106500Y0168500D03*
X0100500Y0194500D03*
X0087500Y0198500D03*
X0061500Y0169500D03*
D22*
X0066500Y0141500D02*
X0066500Y0128232D01*
X0056618Y0128232D01*
X0066500Y0141500D02*
X0081500Y0141500D01*
X0066500Y0141500D02*
X0066500Y0233783D01*
X0088114Y0233783D01*
M02*
