G75*
%MOIN*%
%OFA0B0*%
%FSLAX25Y25*%
%IPPOS*%
%LPD*%
%AMOC8*
5,1,8,0,0,1.08239X$1,22.5*
%
%ADD10C,0.13398*%
%ADD11C,0.04737*%
%ADD12C,0.05600*%
%ADD13OC8,0.05600*%
%ADD14C,0.08200*%
%ADD15C,0.07099*%
%ADD16R,0.07087X0.01181*%
%ADD17R,0.05524X0.05524*%
%ADD18C,0.05524*%
%ADD19OC8,0.13398*%
%ADD20C,0.11824*%
%ADD21C,0.08400*%
%ADD22R,0.05524X0.08674*%
%ADD23R,0.03162X0.06115*%
%ADD24C,0.06800*%
D10*
X0013132Y0013061D03*
X0054077Y0085896D03*
X0054077Y0200069D03*
X0013132Y0272904D03*
X0174550Y0272904D03*
X0174550Y0013061D03*
D11*
X0141321Y0036250D03*
X0081321Y0036250D03*
X0081321Y0216250D03*
X0141321Y0216250D03*
D12*
X0136321Y0223850D02*
X0136321Y0228650D01*
X0126321Y0228650D02*
X0126321Y0223850D01*
X0116321Y0223850D02*
X0116321Y0228650D01*
X0123921Y0211250D02*
X0128721Y0211250D01*
X0128721Y0201250D02*
X0123921Y0201250D01*
X0123921Y0191250D02*
X0128721Y0191250D01*
X0128721Y0181250D02*
X0123921Y0181250D01*
X0123921Y0171250D02*
X0128721Y0171250D01*
X0128721Y0161250D02*
X0123921Y0161250D01*
X0123921Y0151250D02*
X0128721Y0151250D01*
X0128721Y0141250D02*
X0123921Y0141250D01*
X0123921Y0131250D02*
X0128721Y0131250D01*
X0128721Y0121250D02*
X0123921Y0121250D01*
X0123921Y0111250D02*
X0128721Y0111250D01*
X0128721Y0101250D02*
X0123921Y0101250D01*
X0123921Y0091250D02*
X0128721Y0091250D01*
X0128721Y0081250D02*
X0123921Y0081250D01*
X0126321Y0066250D02*
X0131121Y0066250D01*
X0131121Y0056250D02*
X0126321Y0056250D01*
X0126321Y0046250D02*
X0131121Y0046250D01*
X0131121Y0036250D02*
X0126321Y0036250D01*
X0096321Y0036250D02*
X0091521Y0036250D01*
X0091521Y0046250D02*
X0096321Y0046250D01*
X0096321Y0056250D02*
X0091521Y0056250D01*
X0091521Y0066250D02*
X0096321Y0066250D01*
X0093921Y0081250D02*
X0098721Y0081250D01*
X0098721Y0091250D02*
X0093921Y0091250D01*
X0093921Y0101250D02*
X0098721Y0101250D01*
X0098721Y0111250D02*
X0093921Y0111250D01*
X0093921Y0121250D02*
X0098721Y0121250D01*
X0098721Y0131250D02*
X0093921Y0131250D01*
X0093921Y0141250D02*
X0098721Y0141250D01*
X0098721Y0151250D02*
X0093921Y0151250D01*
X0093921Y0161250D02*
X0098721Y0161250D01*
X0098721Y0171250D02*
X0093921Y0171250D01*
X0093921Y0181250D02*
X0098721Y0181250D01*
X0098721Y0191250D02*
X0093921Y0191250D01*
X0093921Y0201250D02*
X0098721Y0201250D01*
X0098721Y0211250D02*
X0093921Y0211250D01*
X0116321Y0253850D02*
X0116321Y0258650D01*
X0126321Y0258650D02*
X0126321Y0253850D01*
X0136321Y0253850D02*
X0136321Y0258650D01*
X0146321Y0258650D02*
X0146321Y0253850D01*
X0156321Y0253850D02*
X0156321Y0258650D01*
X0166321Y0258650D02*
X0166321Y0253850D01*
X0176321Y0253850D02*
X0176321Y0258650D01*
X0176321Y0228650D02*
X0176321Y0223850D01*
X0166321Y0223850D02*
X0166321Y0228650D01*
X0156321Y0228650D02*
X0156321Y0223850D01*
X0146321Y0223850D02*
X0146321Y0228650D01*
D13*
X0161321Y0201250D03*
X0167069Y0213691D03*
X0171321Y0201250D03*
X0177069Y0213691D03*
X0181321Y0201250D03*
X0181321Y0181250D03*
X0171321Y0181250D03*
X0161321Y0181250D03*
X0161321Y0111250D03*
X0171321Y0111250D03*
X0181321Y0111250D03*
X0181321Y0091250D03*
X0171321Y0091250D03*
X0161321Y0091250D03*
X0141321Y0026250D03*
X0131321Y0026250D03*
X0091321Y0026250D03*
X0081321Y0026250D03*
D14*
X0161321Y0046250D03*
X0161321Y0076250D03*
D15*
X0162739Y0127234D03*
X0162739Y0135108D03*
X0162739Y0150856D03*
X0162739Y0158730D03*
X0162739Y0166604D03*
X0099746Y0229596D03*
X0099746Y0237470D03*
X0099746Y0245344D03*
X0099746Y0253219D03*
X0012424Y0064242D03*
X0012424Y0056368D03*
X0012424Y0048494D03*
X0012424Y0040620D03*
X0012424Y0032746D03*
X0068250Y0028809D03*
X0068250Y0036683D03*
X0068250Y0020935D03*
X0068250Y0052431D03*
X0068250Y0060305D03*
D16*
X0025534Y0118376D03*
X0025534Y0120344D03*
X0025534Y0122313D03*
X0025534Y0124281D03*
X0025534Y0126250D03*
X0025534Y0128219D03*
X0025534Y0130187D03*
X0025534Y0132156D03*
X0025534Y0134124D03*
X0025534Y0136093D03*
X0025534Y0138061D03*
X0025534Y0140030D03*
X0025534Y0141998D03*
X0025534Y0143967D03*
X0025534Y0145935D03*
X0025534Y0147904D03*
X0025534Y0149872D03*
X0025534Y0151841D03*
X0025534Y0153809D03*
X0025534Y0155778D03*
X0025534Y0157746D03*
X0025534Y0159715D03*
X0025534Y0161683D03*
X0025534Y0163652D03*
X0025534Y0165620D03*
X0025534Y0167589D03*
D17*
X0056439Y0127982D03*
D18*
X0056439Y0137982D03*
X0056439Y0147982D03*
X0056439Y0157982D03*
X0044628Y0152982D03*
X0044628Y0142982D03*
X0044628Y0132982D03*
X0032817Y0127982D03*
X0032817Y0137982D03*
X0032817Y0147982D03*
X0032817Y0157982D03*
X0021006Y0152982D03*
X0021006Y0142982D03*
X0021006Y0132982D03*
D19*
X0021006Y0111604D03*
X0044628Y0111604D03*
X0044628Y0174360D03*
X0021006Y0174360D03*
D20*
X0032817Y0200069D03*
X0032817Y0085896D03*
D21*
X0081321Y0086250D03*
X0081321Y0096250D03*
X0081321Y0106250D03*
X0081321Y0116250D03*
X0081321Y0126250D03*
X0081321Y0136250D03*
X0081321Y0146250D03*
X0081321Y0156250D03*
X0081321Y0166250D03*
X0081321Y0176250D03*
X0081321Y0186250D03*
X0081321Y0196250D03*
X0081321Y0206250D03*
X0141321Y0206250D03*
X0141321Y0196250D03*
X0141321Y0186250D03*
X0141321Y0176250D03*
X0141321Y0166250D03*
X0141321Y0156250D03*
X0141321Y0146250D03*
X0141321Y0136250D03*
X0141321Y0126250D03*
X0141321Y0116250D03*
X0141321Y0106250D03*
X0141321Y0096250D03*
X0141321Y0086250D03*
X0141321Y0076250D03*
X0141321Y0066250D03*
X0141321Y0056250D03*
X0141321Y0046250D03*
X0081321Y0046250D03*
X0081321Y0056250D03*
X0081321Y0066250D03*
X0081321Y0076250D03*
D22*
X0098329Y0011781D03*
X0124313Y0011781D03*
D23*
X0119195Y0026250D03*
X0115258Y0026250D03*
X0111321Y0026250D03*
X0107384Y0026250D03*
X0103447Y0026250D03*
D24*
X0173321Y0056250D02*
X0179321Y0056250D01*
X0179321Y0066250D02*
X0173321Y0066250D01*
M02*
